<?xml version="1.0" encoding="UTF-8" standalone="no"?>
<!DOCTYPE svg PUBLIC "-//W3C//DTD SVG 1.1//EN"
 "http://www.w3.org/Graphics/SVG/1.1/DTD/svg11.dtd">
<!-- Generated by graphviz version 2.43.0 (0)
 -->
<!-- Title: t/003_type_system_api.c Pages: 1 -->
<svg width="521pt" height="192pt"
 viewBox="0.00 0.00 521.00 192.00" xmlns="http://www.w3.org/2000/svg" xmlns:xlink="http://www.w3.org/1999/xlink">
<g id="graph0" class="graph" transform="scale(1 1) rotate(0) translate(4 188)">
<title>t/003_type_system_api.c</title>
<!-- Node1 -->
<g id="Node000001" class="node">
<title>Node1</title>
<g id="a_Node000001"><a xlink:title="Unit test for the Manual API (infix_type_create_* functions).">
<polygon fill="#999999" stroke="#666666" points="390.5,-184 252.5,-184 252.5,-165 390.5,-165 390.5,-184"/>
<text text-anchor="middle" x="321.5" y="-172" font-family="Helvetica,sans-Serif" font-size="10.00">t/003_type_system_api.c</text>
</a>
</g>
</g>
<!-- Node2 -->
<g id="Node000002" class="node">
<title>Node2</title>
<g id="a_Node000002"><a xlink:href="compat__c23_8h.html" target="_top" xlink:title="Provides forward compatibility macros for C23 features.">
<polygon fill="white" stroke="#666666" points="255,-129 124,-129 124,-110 255,-110 255,-129"/>
<text text-anchor="middle" x="189.5" y="-117" font-family="Helvetica,sans-Serif" font-size="10.00">common/compat_c23.h</text>
</a>
</g>
</g>
<!-- Node1&#45;&gt;Node2 -->
<g id="edge1_Node000001_Node000002" class="edge">
<title>Node1&#45;&gt;Node2</title>
<g id="a_edge1_Node000001_Node000002"><a xlink:title=" ">
<path fill="none" stroke="#63b8ff" d="M300.29,-164.98C278.77,-156.34 245.22,-142.87 220.67,-133.02"/>
<polygon fill="#63b8ff" stroke="#63b8ff" points="221.68,-129.65 211.09,-129.17 219.07,-136.14 221.68,-129.65"/>
</a>
</g>
</g>
<!-- Node4 -->
<g id="Node000004" class="node">
<title>Node4</title>
<g id="a_Node000004"><a xlink:href="infix_8h.html" target="_top" xlink:title="The public interface for the infix FFI library.">
<polygon fill="white" stroke="#666666" points="293,-74 222,-74 222,-55 293,-55 293,-74"/>
<text text-anchor="middle" x="257.5" y="-62" font-family="Helvetica,sans-Serif" font-size="10.00">infix/infix.h</text>
</a>
</g>
</g>
<!-- Node1&#45;&gt;Node4 -->
<g id="edge10_Node000001_Node000004" class="edge">
<title>Node1&#45;&gt;Node4</title>
<g id="a_edge10_Node000001_Node000004"><a xlink:title=" ">
<path fill="none" stroke="#63b8ff" d="M316.26,-164.66C305.71,-146.85 281.72,-106.37 267.87,-83.01"/>
<polygon fill="#63b8ff" stroke="#63b8ff" points="270.74,-80.98 262.63,-74.16 264.72,-84.55 270.74,-80.98"/>
</a>
</g>
</g>
<!-- Node6 -->
<g id="Node000006" class="node">
<title>Node6</title>
<g id="a_Node000006"><a xlink:title=" ">
<polygon fill="#e0e0e0" stroke="#999999" points="285.5,-19 229.5,-19 229.5,0 285.5,0 285.5,-19"/>
<text text-anchor="middle" x="257.5" y="-7" font-family="Helvetica,sans-Serif" font-size="10.00">stddef.h</text>
</a>
</g>
</g>
<!-- Node1&#45;&gt;Node6 -->
<g id="edge11_Node000001_Node000006" class="edge">
<title>Node1&#45;&gt;Node6</title>
<g id="a_edge11_Node000001_Node000006"><a xlink:title=" ">
<path fill="none" stroke="#63b8ff" d="M321.77,-164.91C322.06,-144.6 320.72,-92.51 301.5,-55 295.73,-43.75 286.12,-33.53 277.34,-25.73"/>
<polygon fill="#63b8ff" stroke="#63b8ff" points="279.57,-23.03 269.66,-19.29 275.07,-28.39 279.57,-23.03"/>
</a>
</g>
</g>
<!-- Node7 -->
<g id="Node000007" class="node">
<title>Node7</title>
<g id="a_Node000007"><a xlink:title=" ">
<polygon fill="#e0e0e0" stroke="#999999" points="371,-19 318,-19 318,0 371,0 371,-19"/>
<text text-anchor="middle" x="344.5" y="-7" font-family="Helvetica,sans-Serif" font-size="10.00">stdint.h</text>
</a>
</g>
</g>
<!-- Node1&#45;&gt;Node7 -->
<g id="edge12_Node000001_Node000007" class="edge">
<title>Node1&#45;&gt;Node7</title>
<g id="a_edge12_Node000001_Node000007"><a xlink:title=" ">
<path fill="none" stroke="#63b8ff" d="M324.9,-164.79C328.19,-155.93 333.05,-141.72 335.5,-129 342.18,-94.34 343.95,-53.08 344.39,-29.52"/>
<polygon fill="#63b8ff" stroke="#63b8ff" points="347.89,-29.26 344.52,-19.21 340.89,-29.17 347.89,-29.26"/>
</a>
</g>
</g>
<!-- Node8 -->
<g id="Node000008" class="node">
<title>Node8</title>
<g id="a_Node000008"><a xlink:href="double__tap_8h.html" target="_top" xlink:title="A lightweight, single&#45;header TAP (Test Anything Protocol) library.">
<polygon fill="white" stroke="#666666" points="513,-129 388,-129 388,-110 513,-110 513,-129"/>
<text text-anchor="middle" x="450.5" y="-117" font-family="Helvetica,sans-Serif" font-size="10.00">common/double_tap.h</text>
</a>
</g>
</g>
<!-- Node1&#45;&gt;Node8 -->
<g id="edge9_Node000001_Node000008" class="edge">
<title>Node1&#45;&gt;Node8</title>
<g id="a_edge9_Node000001_Node000008"><a xlink:title=" ">
<path fill="none" stroke="#63b8ff" d="M342.23,-164.98C363.26,-156.34 396.05,-142.87 420.04,-133.02"/>
<polygon fill="#63b8ff" stroke="#63b8ff" points="421.48,-136.21 429.4,-129.17 418.82,-129.73 421.48,-136.21"/>
</a>
</g>
</g>
<!-- Node3 -->
<g id="Node000003" class="node">
<title>Node3</title>
<g id="a_Node000003"><a xlink:href="infix__config_8h.html" target="_top" xlink:title="Platform, architecture, and ABI detection macros.">
<polygon fill="white" stroke="#666666" points="127,-74 0,-74 0,-55 127,-55 127,-74"/>
<text text-anchor="middle" x="63.5" y="-62" font-family="Helvetica,sans-Serif" font-size="10.00">common/infix_config.h</text>
</a>
</g>
</g>
<!-- Node2&#45;&gt;Node3 -->
<g id="edge2_Node000002_Node000003" class="edge">
<title>Node2&#45;&gt;Node3</title>
<g id="a_edge2_Node000002_Node000003"><a xlink:title=" ">
<path fill="none" stroke="#63b8ff" d="M169.26,-109.98C148.8,-101.38 116.97,-87.99 93.57,-78.15"/>
<polygon fill="#63b8ff" stroke="#63b8ff" points="94.69,-74.82 84.11,-74.17 91.97,-81.27 94.69,-74.82"/>
</a>
</g>
</g>
<!-- Node2&#45;&gt;Node4 -->
<g id="edge3_Node000002_Node000004" class="edge">
<title>Node2&#45;&gt;Node4</title>
<g id="a_edge3_Node000002_Node000004"><a xlink:title=" ">
<path fill="none" stroke="#63b8ff" d="M200.43,-109.98C210.58,-102.07 225.92,-90.11 238.15,-80.58"/>
<polygon fill="#63b8ff" stroke="#63b8ff" points="240.64,-83.08 246.38,-74.17 236.34,-77.56 240.64,-83.08"/>
</a>
</g>
</g>
<!-- Node5 -->
<g id="Node000005" class="node">
<title>Node5</title>
<g id="a_Node000005"><a xlink:title=" ">
<polygon fill="#e0e0e0" stroke="#999999" points="199.5,-19 137.5,-19 137.5,0 199.5,0 199.5,-19"/>
<text text-anchor="middle" x="168.5" y="-7" font-family="Helvetica,sans-Serif" font-size="10.00">stdbool.h</text>
</a>
</g>
</g>
<!-- Node2&#45;&gt;Node5 -->
<g id="edge7_Node000002_Node000005" class="edge">
<title>Node2&#45;&gt;Node5</title>
<g id="a_edge7_Node000002_Node000005"><a xlink:title=" ">
<path fill="none" stroke="#63b8ff" d="M187.46,-110C185.34,-101.06 182,-86.58 179.5,-74 176.53,-59.04 173.6,-42.02 171.52,-29.36"/>
<polygon fill="#63b8ff" stroke="#63b8ff" points="174.92,-28.46 169.86,-19.15 168.01,-29.58 174.92,-28.46"/>
</a>
</g>
</g>
<!-- Node2&#45;&gt;Node6 -->
<g id="edge8_Node000002_Node000006" class="edge">
<title>Node2&#45;&gt;Node6</title>
<g id="a_edge8_Node000002_Node000006"><a xlink:title=" ">
<path fill="none" stroke="#63b8ff" d="M191.37,-109.73C194.37,-96.95 201.12,-72.78 212.5,-55 219.48,-44.09 229.58,-33.79 238.44,-25.85"/>
<polygon fill="#63b8ff" stroke="#63b8ff" points="240.79,-28.44 246.1,-19.28 236.24,-23.13 240.79,-28.44"/>
</a>
</g>
</g>
<!-- Node4&#45;&gt;Node5 -->
<g id="edge4_Node000004_Node000005" class="edge">
<title>Node4&#45;&gt;Node5</title>
<g id="a_edge4_Node000004_Node000005"><a xlink:title=" ">
<path fill="none" stroke="#63b8ff" d="M243.2,-54.98C229.4,-46.77 208.26,-34.18 191.99,-24.49"/>
<polygon fill="#63b8ff" stroke="#63b8ff" points="193.44,-21.28 183.06,-19.17 189.86,-27.29 193.44,-21.28"/>
</a>
</g>
</g>
<!-- Node4&#45;&gt;Node6 -->
<g id="edge5_Node000004_Node000006" class="edge">
<title>Node4&#45;&gt;Node6</title>
<g id="a_edge5_Node000004_Node000006"><a xlink:title=" ">
<path fill="none" stroke="#63b8ff" d="M257.5,-54.75C257.5,-47.8 257.5,-37.85 257.5,-29.13"/>
<polygon fill="#63b8ff" stroke="#63b8ff" points="261,-29.09 257.5,-19.09 254,-29.09 261,-29.09"/>
</a>
</g>
</g>
<!-- Node4&#45;&gt;Node7 -->
<g id="edge6_Node000004_Node000007" class="edge">
<title>Node4&#45;&gt;Node7</title>
<g id="a_edge6_Node000004_Node000007"><a xlink:title=" ">
<path fill="none" stroke="#63b8ff" d="M271.48,-54.98C284.97,-46.77 305.63,-34.18 321.54,-24.49"/>
<polygon fill="#63b8ff" stroke="#63b8ff" points="323.55,-27.36 330.27,-19.17 319.91,-21.38 323.55,-27.36"/>
</a>
</g>
</g>
</g>
</svg>
