<?xml version="1.0" encoding="UTF-8" standalone="no"?>
<!DOCTYPE svg PUBLIC "-//W3C//DTD SVG 1.1//EN"
 "http://www.w3.org/Graphics/SVG/1.1/DTD/svg11.dtd">
<!-- Generated by graphviz version 2.43.0 (0)
 -->
<!-- Title: t/008_registry_introspection.c Pages: 1 -->
<svg width="405pt" height="302pt"
 viewBox="0.00 0.00 405.00 302.00" xmlns="http://www.w3.org/2000/svg" xmlns:xlink="http://www.w3.org/1999/xlink">
<g id="graph0" class="graph" transform="scale(1 1) rotate(0) translate(4 298)">
<title>t/008_registry_introspection.c</title>
<!-- Node1 -->
<g id="Node000001" class="node">
<title>Node1</title>
<g id="a_Node000001"><a xlink:title="Unit test for the registry introspection and serialization APIs.">
<polygon fill="#999999" stroke="#666666" points="193,-294 32,-294 32,-275 193,-275 193,-294"/>
<text text-anchor="middle" x="112.5" y="-282" font-family="Helvetica,sans-Serif" font-size="10.00">t/008_registry_introspection.c</text>
</a>
</g>
</g>
<!-- Node2 -->
<g id="Node000002" class="node">
<title>Node2</title>
<g id="a_Node000002"><a xlink:href="compat__c23_8h.html" target="_top" xlink:title="Provides forward compatibility macros for C23 features.">
<polygon fill="white" stroke="#666666" points="188,-129 57,-129 57,-110 188,-110 188,-129"/>
<text text-anchor="middle" x="122.5" y="-117" font-family="Helvetica,sans-Serif" font-size="10.00">common/compat_c23.h</text>
</a>
</g>
</g>
<!-- Node1&#45;&gt;Node2 -->
<g id="edge1_Node000001_Node000002" class="edge">
<title>Node1&#45;&gt;Node2</title>
<g id="a_edge1_Node000001_Node000002"><a xlink:title=" ">
<path fill="none" stroke="#63b8ff" d="M82.23,-274.92C64.66,-268.21 43.98,-256.94 33.5,-239 29.24,-231.71 30.49,-227.89 33.5,-220 47.23,-184.07 80.56,-152.9 102.31,-135.43"/>
<polygon fill="#63b8ff" stroke="#63b8ff" points="104.55,-138.12 110.29,-129.22 100.25,-132.6 104.55,-138.12"/>
</a>
</g>
</g>
<!-- Node3 -->
<g id="Node000003" class="node">
<title>Node3</title>
<g id="a_Node000003"><a xlink:href="infix_8h.html" target="_top" xlink:title="The public interface for the infix FFI library.">
<polygon fill="white" stroke="#666666" points="71,-74 0,-74 0,-55 71,-55 71,-74"/>
<text text-anchor="middle" x="35.5" y="-62" font-family="Helvetica,sans-Serif" font-size="10.00">infix/infix.h</text>
</a>
</g>
</g>
<!-- Node1&#45;&gt;Node3 -->
<g id="edge16_Node000001_Node000003" class="edge">
<title>Node1&#45;&gt;Node3</title>
<g id="a_edge16_Node000001_Node000003"><a xlink:title=" ">
<path fill="none" stroke="#63b8ff" d="M78.28,-274.93C59.79,-268.37 38.54,-257.24 27.5,-239 -2.37,-189.65 16.87,-117.17 28.5,-83.69"/>
<polygon fill="#63b8ff" stroke="#63b8ff" points="31.8,-84.86 31.94,-74.27 25.22,-82.46 31.8,-84.86"/>
</a>
</g>
</g>
<!-- Node7 -->
<g id="Node000007" class="node">
<title>Node7</title>
<g id="a_Node000007"><a xlink:href="double__tap_8h.html" target="_top" xlink:title="A lightweight, single&#45;header TAP (Test Anything Protocol) library.">
<polygon fill="white" stroke="#666666" points="326,-239 201,-239 201,-220 326,-220 326,-239"/>
<text text-anchor="middle" x="263.5" y="-227" font-family="Helvetica,sans-Serif" font-size="10.00">common/double_tap.h</text>
</a>
</g>
</g>
<!-- Node1&#45;&gt;Node7 -->
<g id="edge8_Node000001_Node000007" class="edge">
<title>Node1&#45;&gt;Node7</title>
<g id="a_edge8_Node000001_Node000007"><a xlink:title=" ">
<path fill="none" stroke="#63b8ff" d="M136.76,-274.98C161.82,-266.19 201.13,-252.39 229.33,-242.49"/>
<polygon fill="#63b8ff" stroke="#63b8ff" points="230.52,-245.78 238.8,-239.17 228.2,-239.18 230.52,-245.78"/>
</a>
</g>
</g>
<!-- Node8 -->
<g id="Node000008" class="node">
<title>Node8</title>
<g id="a_Node000008"><a xlink:href="infix__internals_8h.html" target="_top" xlink:title="Internal data structures, function prototypes, and constants.">
<polygon fill="white" stroke="#666666" points="182.5,-239 42.5,-239 42.5,-220 182.5,-220 182.5,-239"/>
<text text-anchor="middle" x="112.5" y="-227" font-family="Helvetica,sans-Serif" font-size="10.00">common/infix_internals.h</text>
</a>
</g>
</g>
<!-- Node1&#45;&gt;Node8 -->
<g id="edge9_Node000001_Node000008" class="edge">
<title>Node1&#45;&gt;Node8</title>
<g id="a_edge9_Node000001_Node000008"><a xlink:title=" ">
<path fill="none" stroke="#63b8ff" d="M112.5,-274.75C112.5,-267.8 112.5,-257.85 112.5,-249.13"/>
<polygon fill="#63b8ff" stroke="#63b8ff" points="116,-249.09 112.5,-239.09 109,-249.09 116,-249.09"/>
</a>
</g>
</g>
<!-- Node11 -->
<g id="Node000011" class="node">
<title>Node11</title>
<g id="a_Node000011"><a xlink:title=" ">
<polygon fill="#e0e0e0" stroke="#999999" points="397,-239 344,-239 344,-220 397,-220 397,-239"/>
<text text-anchor="middle" x="370.5" y="-227" font-family="Helvetica,sans-Serif" font-size="10.00">string.h</text>
</a>
</g>
</g>
<!-- Node1&#45;&gt;Node11 -->
<g id="edge17_Node000001_Node000011" class="edge">
<title>Node1&#45;&gt;Node11</title>
<g id="a_edge17_Node000001_Node000011"><a xlink:title=" ">
<path fill="none" stroke="#63b8ff" d="M158.31,-274.93C201.27,-266.77 267.54,-253.85 333.6,-239.35"/>
<polygon fill="#63b8ff" stroke="#63b8ff" points="334.76,-242.68 343.77,-237.11 333.25,-235.85 334.76,-242.68"/>
</a>
</g>
</g>
<!-- Node2&#45;&gt;Node3 -->
<g id="edge2_Node000002_Node000003" class="edge">
<title>Node2&#45;&gt;Node3</title>
<g id="a_edge2_Node000002_Node000003"><a xlink:title=" ">
<path fill="none" stroke="#63b8ff" d="M108.52,-109.98C95.03,-101.77 74.37,-89.18 58.46,-79.49"/>
<polygon fill="#63b8ff" stroke="#63b8ff" points="60.09,-76.38 49.73,-74.17 56.45,-82.36 60.09,-76.38"/>
</a>
</g>
</g>
<!-- Node4 -->
<g id="Node000004" class="node">
<title>Node4</title>
<g id="a_Node000004"><a xlink:title=" ">
<polygon fill="#e0e0e0" stroke="#999999" points="212.5,-19 150.5,-19 150.5,0 212.5,0 212.5,-19"/>
<text text-anchor="middle" x="181.5" y="-7" font-family="Helvetica,sans-Serif" font-size="10.00">stdbool.h</text>
</a>
</g>
</g>
<!-- Node2&#45;&gt;Node4 -->
<g id="edge6_Node000002_Node000004" class="edge">
<title>Node2&#45;&gt;Node4</title>
<g id="a_edge6_Node000002_Node000004"><a xlink:title=" ">
<path fill="none" stroke="#63b8ff" d="M127.33,-109.66C137.06,-91.85 159.18,-51.37 171.94,-28.01"/>
<polygon fill="#63b8ff" stroke="#63b8ff" points="175.05,-29.61 176.77,-19.16 168.9,-26.26 175.05,-29.61"/>
</a>
</g>
</g>
<!-- Node5 -->
<g id="Node000005" class="node">
<title>Node5</title>
<g id="a_Node000005"><a xlink:title=" ">
<polygon fill="#e0e0e0" stroke="#999999" points="132.5,-19 76.5,-19 76.5,0 132.5,0 132.5,-19"/>
<text text-anchor="middle" x="104.5" y="-7" font-family="Helvetica,sans-Serif" font-size="10.00">stddef.h</text>
</a>
</g>
</g>
<!-- Node2&#45;&gt;Node5 -->
<g id="edge7_Node000002_Node000005" class="edge">
<title>Node2&#45;&gt;Node5</title>
<g id="a_edge7_Node000002_Node000005"><a xlink:title=" ">
<path fill="none" stroke="#63b8ff" d="M121.03,-109.66C118.11,-92.17 111.55,-52.8 107.63,-29.27"/>
<polygon fill="#63b8ff" stroke="#63b8ff" points="111.04,-28.45 105.94,-19.16 104.13,-29.6 111.04,-28.45"/>
</a>
</g>
</g>
<!-- Node3&#45;&gt;Node4 -->
<g id="edge3_Node000003_Node000004" class="edge">
<title>Node3&#45;&gt;Node4</title>
<g id="a_edge3_Node000003_Node000004"><a xlink:title=" ">
<path fill="none" stroke="#63b8ff" d="M58.96,-54.98C83.08,-46.23 120.87,-32.51 148.1,-22.62"/>
<polygon fill="#63b8ff" stroke="#63b8ff" points="149.41,-25.87 157.62,-19.17 147.02,-19.29 149.41,-25.87"/>
</a>
</g>
</g>
<!-- Node3&#45;&gt;Node5 -->
<g id="edge4_Node000003_Node000005" class="edge">
<title>Node3&#45;&gt;Node5</title>
<g id="a_edge4_Node000003_Node000005"><a xlink:title=" ">
<path fill="none" stroke="#63b8ff" d="M46.59,-54.98C56.99,-47 72.76,-34.88 85.22,-25.31"/>
<polygon fill="#63b8ff" stroke="#63b8ff" points="87.41,-28.04 93.21,-19.17 83.15,-22.49 87.41,-28.04"/>
</a>
</g>
</g>
<!-- Node6 -->
<g id="Node000006" class="node">
<title>Node6</title>
<g id="a_Node000006"><a xlink:title=" ">
<polygon fill="#e0e0e0" stroke="#999999" points="58,-19 5,-19 5,0 58,0 58,-19"/>
<text text-anchor="middle" x="31.5" y="-7" font-family="Helvetica,sans-Serif" font-size="10.00">stdint.h</text>
</a>
</g>
</g>
<!-- Node3&#45;&gt;Node6 -->
<g id="edge5_Node000003_Node000006" class="edge">
<title>Node3&#45;&gt;Node6</title>
<g id="a_edge5_Node000003_Node000006"><a xlink:title=" ">
<path fill="none" stroke="#63b8ff" d="M34.84,-54.75C34.32,-47.8 33.56,-37.85 32.91,-29.13"/>
<polygon fill="#63b8ff" stroke="#63b8ff" points="36.39,-28.8 32.15,-19.09 29.41,-29.32 36.39,-28.8"/>
</a>
</g>
</g>
<!-- Node8&#45;&gt;Node3 -->
<g id="edge15_Node000008_Node000003" class="edge">
<title>Node8&#45;&gt;Node3</title>
<g id="a_edge15_Node000008_Node000003"><a xlink:title=" ">
<path fill="none" stroke="#63b8ff" d="M105.29,-219.8C91.94,-203.23 63.37,-165.52 48.5,-129 42.59,-114.49 39.26,-96.98 37.46,-84.03"/>
<polygon fill="#63b8ff" stroke="#63b8ff" points="40.92,-83.51 36.24,-74.01 33.97,-84.36 40.92,-83.51"/>
</a>
</g>
</g>
<!-- Node9 -->
<g id="Node000009" class="node">
<title>Node9</title>
<g id="a_Node000009"><a xlink:href="infix__config_8h.html" target="_top" xlink:title="Platform, architecture, and ABI detection macros.">
<polygon fill="white" stroke="#666666" points="372,-129 245,-129 245,-110 372,-110 372,-129"/>
<text text-anchor="middle" x="308.5" y="-117" font-family="Helvetica,sans-Serif" font-size="10.00">common/infix_config.h</text>
</a>
</g>
</g>
<!-- Node8&#45;&gt;Node9 -->
<g id="edge10_Node000008_Node000009" class="edge">
<title>Node8&#45;&gt;Node9</title>
<g id="a_edge10_Node000008_Node000009"><a xlink:title=" ">
<path fill="none" stroke="#63b8ff" d="M151.41,-219.94C178.3,-212.91 214.2,-201.27 242.5,-184 263.18,-171.38 282.63,-151.29 294.98,-137.09"/>
<polygon fill="#63b8ff" stroke="#63b8ff" points="297.92,-139.02 301.7,-129.13 292.57,-134.51 297.92,-139.02"/>
</a>
</g>
</g>
<!-- Node10 -->
<g id="Node000010" class="node">
<title>Node10</title>
<g id="a_Node000010"><a xlink:href="platform_8h.html" target="_top" xlink:title="Declares internal, runtime CPU/OS feature detection functions.">
<polygon fill="white" stroke="#666666" points="233,-184 120,-184 120,-165 233,-165 233,-184"/>
<text text-anchor="middle" x="176.5" y="-172" font-family="Helvetica,sans-Serif" font-size="10.00">common/platform.h</text>
</a>
</g>
</g>
<!-- Node8&#45;&gt;Node10 -->
<g id="edge11_Node000008_Node000010" class="edge">
<title>Node8&#45;&gt;Node10</title>
<g id="a_edge11_Node000008_Node000010"><a xlink:title=" ">
<path fill="none" stroke="#63b8ff" d="M122.78,-219.98C132.34,-212.07 146.78,-200.11 158.28,-190.58"/>
<polygon fill="#63b8ff" stroke="#63b8ff" points="160.56,-193.24 166.03,-184.17 156.1,-187.85 160.56,-193.24"/>
</a>
</g>
</g>
<!-- Node10&#45;&gt;Node2 -->
<g id="edge12_Node000010_Node000002" class="edge">
<title>Node10&#45;&gt;Node2</title>
<g id="a_edge12_Node000010_Node000002"><a xlink:title=" ">
<path fill="none" stroke="#63b8ff" d="M167.58,-164.75C159.72,-157.03 148.07,-145.6 138.58,-136.28"/>
<polygon fill="#63b8ff" stroke="#63b8ff" points="140.84,-133.6 131.25,-129.09 135.94,-138.59 140.84,-133.6"/>
</a>
</g>
</g>
<!-- Node10&#45;&gt;Node4 -->
<g id="edge14_Node000010_Node000004" class="edge">
<title>Node10&#45;&gt;Node4</title>
<g id="a_edge14_Node000010_Node000004"><a xlink:title=" ">
<path fill="none" stroke="#63b8ff" d="M182.08,-164.72C187.24,-156.03 194.55,-142.17 197.5,-129 205.34,-94.02 195.33,-52.33 187.98,-28.88"/>
<polygon fill="#63b8ff" stroke="#63b8ff" points="191.24,-27.6 184.77,-19.21 184.6,-29.81 191.24,-27.6"/>
</a>
</g>
</g>
<!-- Node10&#45;&gt;Node9 -->
<g id="edge13_Node000010_Node000009" class="edge">
<title>Node10&#45;&gt;Node9</title>
<g id="a_edge13_Node000010_Node000009"><a xlink:title=" ">
<path fill="none" stroke="#63b8ff" d="M197.71,-164.98C219.23,-156.34 252.78,-142.87 277.33,-133.02"/>
<polygon fill="#63b8ff" stroke="#63b8ff" points="278.93,-136.14 286.91,-129.17 276.32,-129.65 278.93,-136.14"/>
</a>
</g>
</g>
</g>
</svg>
