<?xml version="1.0" encoding="UTF-8" standalone="no"?>
<!DOCTYPE svg PUBLIC "-//W3C//DTD SVG 1.1//EN"
 "http://www.w3.org/Graphics/SVG/1.1/DTD/svg11.dtd">
<!-- Generated by graphviz version 2.43.0 (0)
 -->
<!-- Title: t/008_registry_introspection.c Pages: 1 -->
<svg width="391pt" height="302pt"
 viewBox="0.00 0.00 390.70 302.00" xmlns="http://www.w3.org/2000/svg" xmlns:xlink="http://www.w3.org/1999/xlink">

<svg id="main" version="1.1" xmlns="http://www.w3.org/2000/svg" xmlns:xlink="http://www.w3.org/1999/xlink" xml:space="preserve" onload="init(evt)">
<style type="text/css"><![CDATA[
.node, .edge {opacity: 0.7;}
.node.selected, .edge.selected {opacity: 1;}
.edge:hover path { stroke: red; }
.edge:hover polygon { stroke: red; fill: red; }
]]></style>
<script type="application/ecmascript" xlink:href="svg.min.js"/>
<svg id="graph" class="graph">
<g id="graph0" class="graph" transform="scale(1 1) rotate(0) translate(4 298)">
<title>t/008_registry_introspection.c</title>
<!-- Node1 -->
<g id="Node000001" class="node">
<title>Node1</title>
<g id="a_Node000001"><a xlink:title="Unit test for the registry introspection and serialization APIs.">
<polygon fill="#999999" stroke="#666666" points="178.7,-294 17.7,-294 17.7,-275 178.7,-275 178.7,-294"/>
<text text-anchor="middle" x="98.2" y="-282" font-family="Helvetica,sans-Serif" font-size="10.00">t/008_registry_introspection.c</text>
</a>
</g>
</g>
<!-- Node2 -->
<g id="Node000002" class="node">
<title>Node2</title>
<g id="a_Node000002"><a xlink:href="compat__c23_8h.html" target="_top" xlink:title="Provides forward compatibility macros for C23 features.">
<polygon fill="white" stroke="#666666" points="190.7,-129 59.7,-129 59.7,-110 190.7,-110 190.7,-129"/>
<text text-anchor="middle" x="125.2" y="-117" font-family="Helvetica,sans-Serif" font-size="10.00">common/compat_c23.h</text>
</a>
</g>
</g>
<!-- Node1&#45;&gt;Node2 -->
<g id="edge1_Node000001_Node000002" class="edge">
<title>Node1&#45;&gt;Node2</title>
<g id="a_edge1_Node000001_Node000002"><a xlink:title=" ">
<path fill="none" stroke="#63b8ff" d="M67.93,-274.92C50.36,-268.21 29.68,-256.94 19.2,-239 14.94,-231.71 16.63,-228.05 19.2,-220 31.81,-180.42 72.02,-150.6 99.13,-134.36"/>
<polygon fill="#63b8ff" stroke="#63b8ff" points="101.19,-137.21 108.1,-129.18 97.69,-131.15 101.19,-137.21"/>
</a>
</g>
</g>
<!-- Node4 -->
<g id="Node000004" class="node">
<title>Node4</title>
<g id="a_Node000004"><a xlink:href="infix_8h.html" target="_top" xlink:title="The public interface for the infix FFI library.">
<polygon fill="white" stroke="#666666" points="74.7,-74 3.7,-74 3.7,-55 74.7,-55 74.7,-74"/>
<text text-anchor="middle" x="39.2" y="-62" font-family="Helvetica,sans-Serif" font-size="10.00">infix/infix.h</text>
</a>
</g>
</g>
<!-- Node1&#45;&gt;Node4 -->
<g id="edge18_Node000001_Node000004" class="edge">
<title>Node1&#45;&gt;Node4</title>
<g id="a_edge18_Node000001_Node000004"><a xlink:title=" ">
<path fill="none" stroke="#63b8ff" d="M63.98,-274.93C45.49,-268.37 24.24,-257.24 13.2,-239 -17.1,-188.94 12.72,-116.3 29.49,-83.16"/>
<polygon fill="#63b8ff" stroke="#63b8ff" points="32.64,-84.7 34.19,-74.22 26.44,-81.44 32.64,-84.7"/>
</a>
</g>
</g>
<!-- Node8 -->
<g id="Node000008" class="node">
<title>Node8</title>
<g id="a_Node000008"><a xlink:href="double__tap_8h.html" target="_top" xlink:title="A lightweight, single&#45;header TAP (Test Anything Protocol) library.">
<polygon fill="white" stroke="#666666" points="311.7,-239 186.7,-239 186.7,-220 311.7,-220 311.7,-239"/>
<text text-anchor="middle" x="249.2" y="-227" font-family="Helvetica,sans-Serif" font-size="10.00">common/double_tap.h</text>
</a>
</g>
</g>
<!-- Node1&#45;&gt;Node8 -->
<g id="edge9_Node000001_Node000008" class="edge">
<title>Node1&#45;&gt;Node8</title>
<g id="a_edge9_Node000001_Node000008"><a xlink:title=" ">
<path fill="none" stroke="#63b8ff" d="M122.46,-274.98C147.51,-266.19 186.83,-252.39 215.03,-242.49"/>
<polygon fill="#63b8ff" stroke="#63b8ff" points="216.22,-245.78 224.49,-239.17 213.9,-239.18 216.22,-245.78"/>
</a>
</g>
</g>
<!-- Node9 -->
<g id="Node000009" class="node">
<title>Node9</title>
<g id="a_Node000009"><a xlink:href="infix__internals_8h.html" target="_top" xlink:title="Internal data structures, function prototypes, and constants.">
<polygon fill="white" stroke="#666666" points="168.2,-239 28.2,-239 28.2,-220 168.2,-220 168.2,-239"/>
<text text-anchor="middle" x="98.2" y="-227" font-family="Helvetica,sans-Serif" font-size="10.00">common/infix_internals.h</text>
</a>
</g>
</g>
<!-- Node1&#45;&gt;Node9 -->
<g id="edge10_Node000001_Node000009" class="edge">
<title>Node1&#45;&gt;Node9</title>
<g id="a_edge10_Node000001_Node000009"><a xlink:title=" ">
<path fill="none" stroke="#63b8ff" d="M98.2,-274.75C98.2,-267.8 98.2,-257.85 98.2,-249.13"/>
<polygon fill="#63b8ff" stroke="#63b8ff" points="101.7,-249.09 98.2,-239.09 94.7,-249.09 101.7,-249.09"/>
</a>
</g>
</g>
<!-- Node12 -->
<g id="Node000012" class="node">
<title>Node12</title>
<g id="a_Node000012"><a xlink:title=" ">
<polygon fill="#e0e0e0" stroke="#999999" points="382.7,-239 329.7,-239 329.7,-220 382.7,-220 382.7,-239"/>
<text text-anchor="middle" x="356.2" y="-227" font-family="Helvetica,sans-Serif" font-size="10.00">string.h</text>
</a>
</g>
</g>
<!-- Node1&#45;&gt;Node12 -->
<g id="edge19_Node000001_Node000012" class="edge">
<title>Node1&#45;&gt;Node12</title>
<g id="a_edge19_Node000001_Node000012"><a xlink:title=" ">
<path fill="none" stroke="#63b8ff" d="M144.01,-274.93C186.97,-266.77 253.23,-253.85 319.3,-239.35"/>
<polygon fill="#63b8ff" stroke="#63b8ff" points="320.46,-242.68 329.47,-237.11 318.95,-235.85 320.46,-242.68"/>
</a>
</g>
</g>
<!-- Node3 -->
<g id="Node000003" class="node">
<title>Node3</title>
<g id="a_Node000003"><a xlink:href="infix__config_8h.html" target="_top" xlink:title="Platform, architecture, and ABI detection macros.">
<polygon fill="white" stroke="#666666" points="368.7,-74 241.7,-74 241.7,-55 368.7,-55 368.7,-74"/>
<text text-anchor="middle" x="305.2" y="-62" font-family="Helvetica,sans-Serif" font-size="10.00">common/infix_config.h</text>
</a>
</g>
</g>
<!-- Node2&#45;&gt;Node3 -->
<g id="edge2_Node000002_Node000003" class="edge">
<title>Node2&#45;&gt;Node3</title>
<g id="a_edge2_Node000002_Node000003"><a xlink:title=" ">
<path fill="none" stroke="#63b8ff" d="M154.12,-109.98C184.47,-101.05 232.37,-86.94 266.08,-77.02"/>
<polygon fill="#63b8ff" stroke="#63b8ff" points="267.45,-80.26 276.05,-74.08 265.47,-73.55 267.45,-80.26"/>
</a>
</g>
</g>
<!-- Node2&#45;&gt;Node4 -->
<g id="edge3_Node000002_Node000004" class="edge">
<title>Node2&#45;&gt;Node4</title>
<g id="a_edge3_Node000002_Node000004"><a xlink:title=" ">
<path fill="none" stroke="#63b8ff" d="M111.38,-109.98C98.04,-101.77 77.62,-89.18 61.89,-79.49"/>
<polygon fill="#63b8ff" stroke="#63b8ff" points="63.61,-76.44 53.26,-74.17 59.94,-82.4 63.61,-76.44"/>
</a>
</g>
</g>
<!-- Node5 -->
<g id="Node000005" class="node">
<title>Node5</title>
<g id="a_Node000005"><a xlink:title=" ">
<polygon fill="#e0e0e0" stroke="#999999" points="216.2,-19 154.2,-19 154.2,0 216.2,0 216.2,-19"/>
<text text-anchor="middle" x="185.2" y="-7" font-family="Helvetica,sans-Serif" font-size="10.00">stdbool.h</text>
</a>
</g>
</g>
<!-- Node2&#45;&gt;Node5 -->
<g id="edge7_Node000002_Node000005" class="edge">
<title>Node2&#45;&gt;Node5</title>
<g id="a_edge7_Node000002_Node000005"><a xlink:title=" ">
<path fill="none" stroke="#63b8ff" d="M130.11,-109.66C140,-91.85 162.49,-51.37 175.47,-28.01"/>
<polygon fill="#63b8ff" stroke="#63b8ff" points="178.59,-29.6 180.39,-19.16 172.47,-26.2 178.59,-29.6"/>
</a>
</g>
</g>
<!-- Node6 -->
<g id="Node000006" class="node">
<title>Node6</title>
<g id="a_Node000006"><a xlink:title=" ">
<polygon fill="#e0e0e0" stroke="#999999" points="136.2,-19 80.2,-19 80.2,0 136.2,0 136.2,-19"/>
<text text-anchor="middle" x="108.2" y="-7" font-family="Helvetica,sans-Serif" font-size="10.00">stddef.h</text>
</a>
</g>
</g>
<!-- Node2&#45;&gt;Node6 -->
<g id="edge8_Node000002_Node000006" class="edge">
<title>Node2&#45;&gt;Node6</title>
<g id="a_edge8_Node000002_Node000006"><a xlink:title=" ">
<path fill="none" stroke="#63b8ff" d="M123.8,-109.66C121.05,-92.17 114.86,-52.8 111.15,-29.27"/>
<polygon fill="#63b8ff" stroke="#63b8ff" points="114.57,-28.49 109.56,-19.16 107.66,-29.58 114.57,-28.49"/>
</a>
</g>
</g>
<!-- Node4&#45;&gt;Node5 -->
<g id="edge4_Node000004_Node000005" class="edge">
<title>Node4&#45;&gt;Node5</title>
<g id="a_edge4_Node000004_Node000005"><a xlink:title=" ">
<path fill="none" stroke="#63b8ff" d="M62.65,-54.98C86.78,-46.23 124.56,-32.51 151.8,-22.62"/>
<polygon fill="#63b8ff" stroke="#63b8ff" points="153.11,-25.87 161.31,-19.17 150.72,-19.29 153.11,-25.87"/>
</a>
</g>
</g>
<!-- Node4&#45;&gt;Node6 -->
<g id="edge5_Node000004_Node000006" class="edge">
<title>Node4&#45;&gt;Node6</title>
<g id="a_edge5_Node000004_Node000006"><a xlink:title=" ">
<path fill="none" stroke="#63b8ff" d="M50.28,-54.98C60.68,-47 76.46,-34.88 88.92,-25.31"/>
<polygon fill="#63b8ff" stroke="#63b8ff" points="91.11,-28.04 96.91,-19.17 86.85,-22.49 91.11,-28.04"/>
</a>
</g>
</g>
<!-- Node7 -->
<g id="Node000007" class="node">
<title>Node7</title>
<g id="a_Node000007"><a xlink:title=" ">
<polygon fill="#e0e0e0" stroke="#999999" points="61.7,-19 8.7,-19 8.7,0 61.7,0 61.7,-19"/>
<text text-anchor="middle" x="35.2" y="-7" font-family="Helvetica,sans-Serif" font-size="10.00">stdint.h</text>
</a>
</g>
</g>
<!-- Node4&#45;&gt;Node7 -->
<g id="edge6_Node000004_Node000007" class="edge">
<title>Node4&#45;&gt;Node7</title>
<g id="a_edge6_Node000004_Node000007"><a xlink:title=" ">
<path fill="none" stroke="#63b8ff" d="M38.54,-54.75C38.01,-47.8 37.26,-37.85 36.6,-29.13"/>
<polygon fill="#63b8ff" stroke="#63b8ff" points="40.09,-28.8 35.84,-19.09 33.11,-29.32 40.09,-28.8"/>
</a>
</g>
</g>
<!-- Node9&#45;&gt;Node3 -->
<g id="edge11_Node000009_Node000003" class="edge">
<title>Node9&#45;&gt;Node3</title>
<g id="a_edge11_Node000009_Node000003"><a xlink:title=" ">
<path fill="none" stroke="#63b8ff" d="M164.21,-219.99C209.79,-212.76 264.99,-200.85 281.2,-184 307.18,-156.99 308.59,-110 307.07,-84.05"/>
<polygon fill="#63b8ff" stroke="#63b8ff" points="310.56,-83.73 306.27,-74.04 303.58,-84.29 310.56,-83.73"/>
</a>
</g>
</g>
<!-- Node9&#45;&gt;Node4 -->
<g id="edge16_Node000009_Node000004" class="edge">
<title>Node9&#45;&gt;Node4</title>
<g id="a_edge16_Node000009_Node000004"><a xlink:title=" ">
<path fill="none" stroke="#63b8ff" d="M87.49,-219.81C78.17,-211.61 65.09,-198.44 58.2,-184 42.61,-151.36 39.42,-108.5 38.99,-84.29"/>
<polygon fill="#63b8ff" stroke="#63b8ff" points="42.49,-84.01 38.95,-74.02 35.49,-84.04 42.49,-84.01"/>
</a>
</g>
</g>
<!-- Node10 -->
<g id="Node000010" class="node">
<title>Node10</title>
<g id="a_Node000010"><a xlink:href="platform_8h.html" target="_top" xlink:title="Declares internal, runtime CPU/OS feature detection functions.">
<polygon fill="white" stroke="#666666" points="271.7,-184 158.7,-184 158.7,-165 271.7,-165 271.7,-184"/>
<text text-anchor="middle" x="215.2" y="-172" font-family="Helvetica,sans-Serif" font-size="10.00">common/platform.h</text>
</a>
</g>
</g>
<!-- Node9&#45;&gt;Node10 -->
<g id="edge12_Node000009_Node000010" class="edge">
<title>Node9&#45;&gt;Node10</title>
<g id="a_edge12_Node000009_Node000010"><a xlink:title=" ">
<path fill="none" stroke="#63b8ff" d="M116.99,-219.98C135.82,-211.46 165.02,-198.23 186.69,-188.41"/>
<polygon fill="#63b8ff" stroke="#63b8ff" points="188.39,-191.48 196.06,-184.17 185.5,-185.11 188.39,-191.48"/>
</a>
</g>
</g>
<!-- Node11 -->
<g id="Node000011" class="node">
<title>Node11</title>
<g id="a_Node000011"><a xlink:title=" ">
<polygon fill="#e0e0e0" stroke="#999999" points="129.7,-184 66.7,-184 66.7,-165 129.7,-165 129.7,-184"/>
<text text-anchor="middle" x="98.2" y="-172" font-family="Helvetica,sans-Serif" font-size="10.00">pthread.h</text>
</a>
</g>
</g>
<!-- Node9&#45;&gt;Node11 -->
<g id="edge17_Node000009_Node000011" class="edge">
<title>Node9&#45;&gt;Node11</title>
<g id="a_edge17_Node000009_Node000011"><a xlink:title=" ">
<path fill="none" stroke="#63b8ff" d="M98.2,-219.75C98.2,-212.8 98.2,-202.85 98.2,-194.13"/>
<polygon fill="#63b8ff" stroke="#63b8ff" points="101.7,-194.09 98.2,-184.09 94.7,-194.09 101.7,-194.09"/>
</a>
</g>
</g>
<!-- Node10&#45;&gt;Node2 -->
<g id="edge13_Node000010_Node000002" class="edge">
<title>Node10&#45;&gt;Node2</title>
<g id="a_edge13_Node000010_Node000002"><a xlink:title=" ">
<path fill="none" stroke="#63b8ff" d="M200.74,-164.98C186.78,-156.77 165.4,-144.18 148.95,-134.49"/>
<polygon fill="#63b8ff" stroke="#63b8ff" points="150.31,-131.23 139.92,-129.17 146.76,-137.26 150.31,-131.23"/>
</a>
</g>
</g>
<!-- Node10&#45;&gt;Node3 -->
<g id="edge14_Node000010_Node000003" class="edge">
<title>Node10&#45;&gt;Node3</title>
<g id="a_edge14_Node000010_Node000003"><a xlink:title=" ">
<path fill="none" stroke="#63b8ff" d="M222.56,-164.66C237.6,-146.61 272.05,-105.28 291.38,-82.08"/>
<polygon fill="#63b8ff" stroke="#63b8ff" points="294.27,-84.08 297.98,-74.16 288.89,-79.6 294.27,-84.08"/>
</a>
</g>
</g>
<!-- Node10&#45;&gt;Node5 -->
<g id="edge15_Node000010_Node000005" class="edge">
<title>Node10&#45;&gt;Node5</title>
<g id="a_edge15_Node000010_Node000005"><a xlink:title=" ">
<path fill="none" stroke="#63b8ff" d="M213.58,-164.74C208.88,-139.2 195.12,-64.43 188.64,-29.23"/>
<polygon fill="#63b8ff" stroke="#63b8ff" points="192.07,-28.51 186.82,-19.31 185.18,-29.78 192.07,-28.51"/>
</a>
</g>
</g>
</g>
</svg>
</svg>

<style type='text/css'>
<![CDATA[
[data-mouse-over-selected='false'] { opacity: 0.7; }
[data-mouse-over-selected='true']  { opacity: 1.0; }
]]>
</style>
<script type="application/ecmascript"><![CDATA[
document.addEventListener('DOMContentLoaded', (event) => {
  highlightEdges();
  highlightAdjacentNodes();
});
]]></script>
</svg>
