<?xml version="1.0" encoding="UTF-8" standalone="no"?>
<!DOCTYPE svg PUBLIC "-//W3C//DTD SVG 1.1//EN"
 "http://www.w3.org/Graphics/SVG/1.1/DTD/svg11.dtd">
<!-- Generated by graphviz version 2.43.0 (0)
 -->
<!-- Title: t/009_bitfields_fam.c Pages: 1 -->
<svg width="289pt" height="192pt"
 viewBox="0.00 0.00 289.23 192.00" xmlns="http://www.w3.org/2000/svg" xmlns:xlink="http://www.w3.org/1999/xlink">
<g id="graph0" class="graph" transform="scale(1 1) rotate(0) translate(4 188)">
<title>t/009_bitfields_fam.c</title>
<!-- Node1 -->
<g id="Node000001" class="node">
<title>Node1</title>
<g id="a_Node000001"><a xlink:title="Unit test for Bitfields and Flexible Array Members (FAM).">
<polygon fill="#999999" stroke="#666666" points="270,-184 151,-184 151,-165 270,-165 270,-184"/>
<text text-anchor="middle" x="210.5" y="-172" font-family="Helvetica,sans-Serif" font-size="10.00">t/009_bitfields_fam.c</text>
</a>
</g>
</g>
<!-- Node2 -->
<g id="Node000002" class="node">
<title>Node2</title>
<g id="a_Node000002"><a xlink:href="double__tap_8h.html" target="_top" xlink:title="A lightweight, single&#45;header TAP (Test Anything Protocol) library.">
<polygon fill="white" stroke="#666666" points="125,-129 0,-129 0,-110 125,-110 125,-129"/>
<text text-anchor="middle" x="62.5" y="-117" font-family="Helvetica,sans-Serif" font-size="10.00">common/double_tap.h</text>
</a>
</g>
</g>
<!-- Node1&#45;&gt;Node2 -->
<g id="edge1_Node000001_Node000002" class="edge">
<title>Node1&#45;&gt;Node2</title>
<g id="a_edge1_Node000001_Node000002"><a xlink:title=" ">
<path fill="none" stroke="#63b8ff" d="M186.72,-164.98C162.27,-156.23 123.97,-142.51 96.35,-132.62"/>
<polygon fill="#63b8ff" stroke="#63b8ff" points="97.31,-129.25 86.71,-129.17 94.95,-135.84 97.31,-129.25"/>
</a>
</g>
</g>
<!-- Node3 -->
<g id="Node000003" class="node">
<title>Node3</title>
<g id="a_Node000003"><a xlink:href="infix_8h.html" target="_top" xlink:title="The public interface for the infix FFI library.">
<polygon fill="white" stroke="#666666" points="214,-129 143,-129 143,-110 214,-110 214,-129"/>
<text text-anchor="middle" x="178.5" y="-117" font-family="Helvetica,sans-Serif" font-size="10.00">infix/infix.h</text>
</a>
</g>
</g>
<!-- Node1&#45;&gt;Node3 -->
<g id="edge2_Node000001_Node000003" class="edge">
<title>Node1&#45;&gt;Node3</title>
<g id="a_edge2_Node000001_Node000003"><a xlink:title=" ">
<path fill="none" stroke="#63b8ff" d="M205.22,-164.75C200.79,-157.42 194.34,-146.73 188.88,-137.7"/>
<polygon fill="#63b8ff" stroke="#63b8ff" points="191.85,-135.84 183.69,-129.09 185.86,-139.46 191.85,-135.84"/>
</a>
</g>
</g>
<!-- Node6 -->
<g id="Node000006" class="node">
<title>Node6</title>
<g id="a_Node000006"><a xlink:title=" ">
<polygon fill="#e0e0e0" stroke="#999999" points="211.5,-19 155.5,-19 155.5,0 211.5,0 211.5,-19"/>
<text text-anchor="middle" x="183.5" y="-7" font-family="Helvetica,sans-Serif" font-size="10.00">stddef.h</text>
</a>
</g>
</g>
<!-- Node1&#45;&gt;Node6 -->
<g id="edge9_Node000001_Node000006" class="edge">
<title>Node1&#45;&gt;Node6</title>
<g id="a_edge9_Node000001_Node000006"><a xlink:title=" ">
<path fill="none" stroke="#63b8ff" d="M221.54,-164.96C245.74,-145.18 299.38,-94.87 274.5,-55 262.92,-36.45 241.13,-25.42 221.77,-18.99"/>
<polygon fill="#63b8ff" stroke="#63b8ff" points="222.52,-15.56 211.94,-16.02 220.5,-22.26 222.52,-15.56"/>
</a>
</g>
</g>
<!-- Node7 -->
<g id="Node000007" class="node">
<title>Node7</title>
<g id="a_Node000007"><a xlink:title=" ">
<polygon fill="#e0e0e0" stroke="#999999" points="265,-74 212,-74 212,-55 265,-55 265,-74"/>
<text text-anchor="middle" x="238.5" y="-62" font-family="Helvetica,sans-Serif" font-size="10.00">stdint.h</text>
</a>
</g>
</g>
<!-- Node1&#45;&gt;Node7 -->
<g id="edge10_Node000001_Node000007" class="edge">
<title>Node1&#45;&gt;Node7</title>
<g id="a_edge10_Node000001_Node000007"><a xlink:title=" ">
<path fill="none" stroke="#63b8ff" d="M213.23,-164.67C215.96,-155.72 220.21,-141.45 223.5,-129 227.48,-113.92 231.52,-96.7 234.4,-83.99"/>
<polygon fill="#63b8ff" stroke="#63b8ff" points="237.83,-84.69 236.6,-74.16 231,-83.15 237.83,-84.69"/>
</a>
</g>
</g>
<!-- Node4 -->
<g id="Node000004" class="node">
<title>Node4</title>
<g id="a_Node000004"><a xlink:href="compat__c23_8h.html" target="_top" xlink:title="Provides forward compatibility macros for C23 features.">
<polygon fill="white" stroke="#666666" points="155,-74 24,-74 24,-55 155,-55 155,-74"/>
<text text-anchor="middle" x="89.5" y="-62" font-family="Helvetica,sans-Serif" font-size="10.00">common/compat_c23.h</text>
</a>
</g>
</g>
<!-- Node3&#45;&gt;Node4 -->
<g id="edge3_Node000003_Node000004" class="edge">
<title>Node3&#45;&gt;Node4</title>
<g id="a_edge3_Node000003_Node000004"><a xlink:title=" ">
<path fill="none" stroke="#63b8ff" d="M164.2,-109.98C150.4,-101.77 129.26,-89.18 112.99,-79.49"/>
<polygon fill="#63b8ff" stroke="#63b8ff" points="114.44,-76.28 104.06,-74.17 110.86,-82.29 114.44,-76.28"/>
</a>
</g>
</g>
<!-- Node5 -->
<g id="Node000005" class="node">
<title>Node5</title>
<g id="a_Node000005"><a xlink:title=" ">
<polygon fill="#e0e0e0" stroke="#999999" points="73.5,-19 11.5,-19 11.5,0 73.5,0 73.5,-19"/>
<text text-anchor="middle" x="42.5" y="-7" font-family="Helvetica,sans-Serif" font-size="10.00">stdbool.h</text>
</a>
</g>
</g>
<!-- Node3&#45;&gt;Node5 -->
<g id="edge6_Node000003_Node000005" class="edge">
<title>Node3&#45;&gt;Node5</title>
<g id="a_edge6_Node000003_Node000005"><a xlink:title=" ">
<path fill="none" stroke="#63b8ff" d="M142.77,-111.2C96.94,-101.48 22.39,-84.31 14.5,-74 3.59,-59.73 14.88,-40.55 26.21,-27.02"/>
<polygon fill="#63b8ff" stroke="#63b8ff" points="28.97,-29.18 33.08,-19.41 23.78,-24.49 28.97,-29.18"/>
</a>
</g>
</g>
<!-- Node3&#45;&gt;Node6 -->
<g id="edge7_Node000003_Node000006" class="edge">
<title>Node3&#45;&gt;Node6</title>
<g id="a_edge7_Node000003_Node000006"><a xlink:title=" ">
<path fill="none" stroke="#63b8ff" d="M178.91,-109.66C179.72,-92.17 181.54,-52.8 182.63,-29.27"/>
<polygon fill="#63b8ff" stroke="#63b8ff" points="186.13,-29.31 183.1,-19.16 179.14,-28.99 186.13,-29.31"/>
</a>
</g>
</g>
<!-- Node3&#45;&gt;Node7 -->
<g id="edge8_Node000003_Node000007" class="edge">
<title>Node3&#45;&gt;Node7</title>
<g id="a_edge8_Node000003_Node000007"><a xlink:title=" ">
<path fill="none" stroke="#63b8ff" d="M188.14,-109.98C197.01,-102.15 210.37,-90.34 221.11,-80.86"/>
<polygon fill="#63b8ff" stroke="#63b8ff" points="223.51,-83.41 228.68,-74.17 218.87,-78.17 223.51,-83.41"/>
</a>
</g>
</g>
<!-- Node4&#45;&gt;Node5 -->
<g id="edge4_Node000004_Node000005" class="edge">
<title>Node4&#45;&gt;Node5</title>
<g id="a_edge4_Node000004_Node000005"><a xlink:title=" ">
<path fill="none" stroke="#63b8ff" d="M81.74,-54.75C75.03,-47.18 65.16,-36.05 56.99,-26.84"/>
<polygon fill="#63b8ff" stroke="#63b8ff" points="59.37,-24.25 50.12,-19.09 54.13,-28.89 59.37,-24.25"/>
</a>
</g>
</g>
<!-- Node4&#45;&gt;Node6 -->
<g id="edge5_Node000004_Node000006" class="edge">
<title>Node4&#45;&gt;Node6</title>
<g id="a_edge5_Node000004_Node000006"><a xlink:title=" ">
<path fill="none" stroke="#63b8ff" d="M104.6,-54.98C119.32,-46.69 141.92,-33.94 159.17,-24.22"/>
<polygon fill="#63b8ff" stroke="#63b8ff" points="161.13,-27.13 168.12,-19.17 157.69,-21.03 161.13,-27.13"/>
</a>
</g>
</g>
</g>
</svg>
