<?xml version="1.0" encoding="UTF-8" standalone="no"?>
<!DOCTYPE svg PUBLIC "-//W3C//DTD SVG 1.1//EN"
 "http://www.w3.org/Graphics/SVG/1.1/DTD/svg11.dtd">
<!-- Generated by graphviz version 2.43.0 (0)
 -->
<!-- Title: t/009_bitfields_fam.c Pages: 1 -->
<svg width="378pt" height="192pt"
 viewBox="0.00 0.00 377.75 192.00" xmlns="http://www.w3.org/2000/svg" xmlns:xlink="http://www.w3.org/1999/xlink">

<svg id="main" version="1.1" xmlns="http://www.w3.org/2000/svg" xmlns:xlink="http://www.w3.org/1999/xlink" xml:space="preserve" onload="init(evt)">
<style type="text/css"><![CDATA[
.node, .edge {opacity: 0.7;}
.node.selected, .edge.selected {opacity: 1;}
.edge:hover path { stroke: red; }
.edge:hover polygon { stroke: red; fill: red; }
]]></style>
<script type="application/ecmascript" xlink:href="svg.min.js"/>
<svg id="graph" class="graph">
<g id="graph0" class="graph" transform="scale(1 1) rotate(0) translate(4 188)">
<title>t/009_bitfields_fam.c</title>
<!-- Node1 -->
<g id="Node000001" class="node">
<title>Node1</title>
<g id="a_Node000001"><a xlink:title="Unit test for Bitfields and Flexible Array Members (FAM).">
<polygon fill="#999999" stroke="#666666" points="237.75,-184 118.75,-184 118.75,-165 237.75,-165 237.75,-184"/>
<text text-anchor="middle" x="178.25" y="-172" font-family="Helvetica,sans-Serif" font-size="10.00">t/009_bitfields_fam.c</text>
</a>
</g>
</g>
<!-- Node2 -->
<g id="Node000002" class="node">
<title>Node2</title>
<g id="a_Node000002"><a xlink:href="compat__c23_8h.html" target="_top" xlink:title="Provides forward compatibility macros for C23 features.">
<polygon fill="white" stroke="#666666" points="149.75,-129 18.75,-129 18.75,-110 149.75,-110 149.75,-129"/>
<text text-anchor="middle" x="84.25" y="-117" font-family="Helvetica,sans-Serif" font-size="10.00">common/compat_c23.h</text>
</a>
</g>
</g>
<!-- Node1&#45;&gt;Node2 -->
<g id="edge1_Node000001_Node000002" class="edge">
<title>Node1&#45;&gt;Node2</title>
<g id="a_edge1_Node000001_Node000002"><a xlink:title=" ">
<path fill="none" stroke="#63b8ff" d="M163.15,-164.98C148.44,-156.69 125.83,-143.94 108.58,-134.22"/>
<polygon fill="#63b8ff" stroke="#63b8ff" points="110.06,-131.03 99.63,-129.17 106.62,-137.13 110.06,-131.03"/>
</a>
</g>
</g>
<!-- Node3 -->
<g id="Node000003" class="node">
<title>Node3</title>
<g id="a_Node000003"><a xlink:href="infix_8h.html" target="_top" xlink:title="The public interface for the infix FFI library.">
<polygon fill="white" stroke="#666666" points="185.75,-74 114.75,-74 114.75,-55 185.75,-55 185.75,-74"/>
<text text-anchor="middle" x="150.25" y="-62" font-family="Helvetica,sans-Serif" font-size="10.00">infix/infix.h</text>
</a>
</g>
</g>
<!-- Node1&#45;&gt;Node3 -->
<g id="edge9_Node000001_Node000003" class="edge">
<title>Node1&#45;&gt;Node3</title>
<g id="a_edge9_Node000001_Node000003"><a xlink:title=" ">
<path fill="none" stroke="#63b8ff" d="M175.96,-164.66C171.4,-147.09 161.13,-107.45 155.04,-83.95"/>
<polygon fill="#63b8ff" stroke="#63b8ff" points="158.39,-82.96 152.5,-74.16 151.62,-84.72 158.39,-82.96"/>
</a>
</g>
</g>
<!-- Node5 -->
<g id="Node000005" class="node">
<title>Node5</title>
<g id="a_Node000005"><a xlink:title=" ">
<polygon fill="#e0e0e0" stroke="#999999" points="76.25,-19 20.25,-19 20.25,0 76.25,0 76.25,-19"/>
<text text-anchor="middle" x="48.25" y="-7" font-family="Helvetica,sans-Serif" font-size="10.00">stddef.h</text>
</a>
</g>
</g>
<!-- Node1&#45;&gt;Node5 -->
<g id="edge10_Node000001_Node000005" class="edge">
<title>Node1&#45;&gt;Node5</title>
<g id="a_edge10_Node000001_Node000005"><a xlink:title=" ">
<path fill="none" stroke="#63b8ff" d="M118.5,-165.56C75.48,-158.47 22.73,-146.48 9.25,-129 -14.65,-97.99 14.66,-51.67 33.94,-27.14"/>
<polygon fill="#63b8ff" stroke="#63b8ff" points="36.85,-29.11 40.48,-19.16 31.44,-24.68 36.85,-29.11"/>
</a>
</g>
</g>
<!-- Node6 -->
<g id="Node000006" class="node">
<title>Node6</title>
<g id="a_Node000006"><a xlink:title=" ">
<polygon fill="#e0e0e0" stroke="#999999" points="239.75,-19 186.75,-19 186.75,0 239.75,0 239.75,-19"/>
<text text-anchor="middle" x="213.25" y="-7" font-family="Helvetica,sans-Serif" font-size="10.00">stdint.h</text>
</a>
</g>
</g>
<!-- Node1&#45;&gt;Node6 -->
<g id="edge11_Node000001_Node000006" class="edge">
<title>Node1&#45;&gt;Node6</title>
<g id="a_edge11_Node000001_Node000006"><a xlink:title=" ">
<path fill="none" stroke="#63b8ff" d="M180.13,-164.74C185.62,-139.2 201.67,-64.43 209.23,-29.23"/>
<polygon fill="#63b8ff" stroke="#63b8ff" points="212.68,-29.82 211.36,-19.31 205.84,-28.35 212.68,-29.82"/>
</a>
</g>
</g>
<!-- Node7 -->
<g id="Node000007" class="node">
<title>Node7</title>
<g id="a_Node000007"><a xlink:href="double__tap_8h.html" target="_top" xlink:title="A lightweight, single&#45;header TAP (Test Anything Protocol) library.">
<polygon fill="white" stroke="#666666" points="369.75,-129 244.75,-129 244.75,-110 369.75,-110 369.75,-129"/>
<text text-anchor="middle" x="307.25" y="-117" font-family="Helvetica,sans-Serif" font-size="10.00">common/double_tap.h</text>
</a>
</g>
</g>
<!-- Node1&#45;&gt;Node7 -->
<g id="edge8_Node000001_Node000007" class="edge">
<title>Node1&#45;&gt;Node7</title>
<g id="a_edge8_Node000001_Node000007"><a xlink:title=" ">
<path fill="none" stroke="#63b8ff" d="M198.98,-164.98C220.01,-156.34 252.8,-142.87 276.79,-133.02"/>
<polygon fill="#63b8ff" stroke="#63b8ff" points="278.23,-136.21 286.15,-129.17 275.57,-129.73 278.23,-136.21"/>
</a>
</g>
</g>
<!-- Node2&#45;&gt;Node3 -->
<g id="edge2_Node000002_Node000003" class="edge">
<title>Node2&#45;&gt;Node3</title>
<g id="a_edge2_Node000002_Node000003"><a xlink:title=" ">
<path fill="none" stroke="#63b8ff" d="M94.86,-109.98C104.71,-102.07 119.6,-90.11 131.47,-80.58"/>
<polygon fill="#63b8ff" stroke="#63b8ff" points="133.85,-83.16 139.45,-74.17 129.47,-77.7 133.85,-83.16"/>
</a>
</g>
</g>
<!-- Node4 -->
<g id="Node000004" class="node">
<title>Node4</title>
<g id="a_Node000004"><a xlink:title=" ">
<polygon fill="#e0e0e0" stroke="#999999" points="164.25,-19 102.25,-19 102.25,0 164.25,0 164.25,-19"/>
<text text-anchor="middle" x="133.25" y="-7" font-family="Helvetica,sans-Serif" font-size="10.00">stdbool.h</text>
</a>
</g>
</g>
<!-- Node2&#45;&gt;Node4 -->
<g id="edge6_Node000002_Node000004" class="edge">
<title>Node2&#45;&gt;Node4</title>
<g id="a_edge6_Node000002_Node000004"><a xlink:title=" ">
<path fill="none" stroke="#63b8ff" d="M86.46,-109.61C89.73,-97.09 96.44,-73.7 105.25,-55 109.73,-45.51 115.83,-35.56 121.2,-27.49"/>
<polygon fill="#63b8ff" stroke="#63b8ff" points="124.25,-29.23 127.02,-19.01 118.47,-25.27 124.25,-29.23"/>
</a>
</g>
</g>
<!-- Node2&#45;&gt;Node5 -->
<g id="edge7_Node000002_Node000005" class="edge">
<title>Node2&#45;&gt;Node5</title>
<g id="a_edge7_Node000002_Node000005"><a xlink:title=" ">
<path fill="none" stroke="#63b8ff" d="M81.3,-109.66C75.45,-92.09 62.23,-52.45 54.4,-28.95"/>
<polygon fill="#63b8ff" stroke="#63b8ff" points="57.62,-27.54 51.14,-19.16 50.98,-29.75 57.62,-27.54"/>
</a>
</g>
</g>
<!-- Node3&#45;&gt;Node4 -->
<g id="edge3_Node000003_Node000004" class="edge">
<title>Node3&#45;&gt;Node4</title>
<g id="a_edge3_Node000003_Node000004"><a xlink:title=" ">
<path fill="none" stroke="#63b8ff" d="M147.44,-54.75C145.19,-47.72 141.95,-37.62 139.14,-28.84"/>
<polygon fill="#63b8ff" stroke="#63b8ff" points="142.39,-27.54 136.01,-19.09 135.73,-29.68 142.39,-27.54"/>
</a>
</g>
</g>
<!-- Node3&#45;&gt;Node5 -->
<g id="edge4_Node000003_Node000005" class="edge">
<title>Node3&#45;&gt;Node5</title>
<g id="a_edge4_Node000003_Node000005"><a xlink:title=" ">
<path fill="none" stroke="#63b8ff" d="M133.86,-54.98C117.68,-46.57 92.68,-33.59 73.87,-23.81"/>
<polygon fill="#63b8ff" stroke="#63b8ff" points="75.42,-20.68 64.94,-19.17 72.2,-26.89 75.42,-20.68"/>
</a>
</g>
</g>
<!-- Node3&#45;&gt;Node6 -->
<g id="edge5_Node000003_Node000006" class="edge">
<title>Node3&#45;&gt;Node6</title>
<g id="a_edge5_Node000003_Node000006"><a xlink:title=" ">
<path fill="none" stroke="#63b8ff" d="M160.37,-54.98C169.69,-47.15 183.72,-35.34 194.99,-25.86"/>
<polygon fill="#63b8ff" stroke="#63b8ff" points="197.55,-28.29 202.94,-19.17 193.04,-22.93 197.55,-28.29"/>
</a>
</g>
</g>
</g>
</svg>
</svg>

<style type='text/css'>
<![CDATA[
[data-mouse-over-selected='false'] { opacity: 0.7; }
[data-mouse-over-selected='true']  { opacity: 1.0; }
]]>
</style>
<script type="application/ecmascript"><![CDATA[
document.addEventListener('DOMContentLoaded', (event) => {
  highlightEdges();
  highlightAdjacentNodes();
});
]]></script>
</svg>
