<?xml version="1.0" encoding="UTF-8" standalone="no"?>
<!DOCTYPE svg PUBLIC "-//W3C//DTD SVG 1.1//EN"
 "http://www.w3.org/Graphics/SVG/1.1/DTD/svg11.dtd">
<!-- Generated by graphviz version 2.43.0 (0)
 -->
<!-- Title: t/011_bitfields.c Pages: 1 -->
<svg width="643pt" height="247pt"
 viewBox="0.00 0.00 643.00 247.00" xmlns="http://www.w3.org/2000/svg" xmlns:xlink="http://www.w3.org/1999/xlink">
<g id="graph0" class="graph" transform="scale(1 1) rotate(0) translate(4 243)">
<title>t/011_bitfields.c</title>
<!-- Node1 -->
<g id="Node000001" class="node">
<title>Node1</title>
<g id="a_Node000001"><a xlink:title="Unit test for bitfield support in structs.">
<polygon fill="#999999" stroke="#666666" points="388.5,-239 294.5,-239 294.5,-220 388.5,-220 388.5,-239"/>
<text text-anchor="middle" x="341.5" y="-227" font-family="Helvetica,sans-Serif" font-size="10.00">t/011_bitfields.c</text>
</a>
</g>
</g>
<!-- Node2 -->
<g id="Node000002" class="node">
<title>Node2</title>
<g id="a_Node000002"><a xlink:href="compat__c23_8h.html" target="_top" xlink:title="Provides forward compatibility macros for C23 features.">
<polygon fill="white" stroke="#666666" points="313,-129 182,-129 182,-110 313,-110 313,-129"/>
<text text-anchor="middle" x="247.5" y="-117" font-family="Helvetica,sans-Serif" font-size="10.00">common/compat_c23.h</text>
</a>
</g>
</g>
<!-- Node1&#45;&gt;Node2 -->
<g id="edge1_Node000001_Node000002" class="edge">
<title>Node1&#45;&gt;Node2</title>
<g id="a_edge1_Node000001_Node000002"><a xlink:title=" ">
<path fill="none" stroke="#63b8ff" d="M333.81,-219.66C318.03,-201.54 281.8,-159.91 261.66,-136.77"/>
<polygon fill="#63b8ff" stroke="#63b8ff" points="264.24,-134.4 255.04,-129.16 258.96,-139 264.24,-134.4"/>
</a>
</g>
</g>
<!-- Node3 -->
<g id="Node000003" class="node">
<title>Node3</title>
<g id="a_Node000003"><a xlink:href="infix__config_8h.html" target="_top" xlink:title="Platform, architecture, and ABI detection macros.">
<polygon fill="white" stroke="#666666" points="127,-74 0,-74 0,-55 127,-55 127,-74"/>
<text text-anchor="middle" x="63.5" y="-62" font-family="Helvetica,sans-Serif" font-size="10.00">common/infix_config.h</text>
</a>
</g>
</g>
<!-- Node1&#45;&gt;Node3 -->
<g id="edge10_Node000001_Node000003" class="edge">
<title>Node1&#45;&gt;Node3</title>
<g id="a_edge10_Node000001_Node000003"><a xlink:title=" ">
<path fill="none" stroke="#63b8ff" d="M294.28,-223.61C238.72,-217.05 150.7,-203.87 124.5,-184 91.43,-158.92 74.75,-110.81 67.74,-84.25"/>
<polygon fill="#63b8ff" stroke="#63b8ff" points="71.08,-83.2 65.3,-74.32 64.28,-84.87 71.08,-83.2"/>
</a>
</g>
</g>
<!-- Node4 -->
<g id="Node000004" class="node">
<title>Node4</title>
<g id="a_Node000004"><a xlink:href="infix_8h.html" target="_top" xlink:title="The public interface for the infix FFI library.">
<polygon fill="white" stroke="#666666" points="347,-74 276,-74 276,-55 347,-55 347,-74"/>
<text text-anchor="middle" x="311.5" y="-62" font-family="Helvetica,sans-Serif" font-size="10.00">infix/infix.h</text>
</a>
</g>
</g>
<!-- Node1&#45;&gt;Node4 -->
<g id="edge15_Node000001_Node000004" class="edge">
<title>Node1&#45;&gt;Node4</title>
<g id="a_edge15_Node000001_Node000004"><a xlink:title=" ">
<path fill="none" stroke="#63b8ff" d="M340.2,-219.85C337.23,-200.24 329.55,-150.94 321.5,-110 319.8,-101.35 317.69,-91.8 315.84,-83.78"/>
<polygon fill="#63b8ff" stroke="#63b8ff" points="319.24,-82.94 313.55,-74 312.42,-84.54 319.24,-82.94"/>
</a>
</g>
</g>
<!-- Node8 -->
<g id="Node000008" class="node">
<title>Node8</title>
<g id="a_Node000008"><a xlink:href="double__tap_8h.html" target="_top" xlink:title="A lightweight, single&#45;header TAP (Test Anything Protocol) library.">
<polygon fill="white" stroke="#666666" points="495,-184 370,-184 370,-165 495,-165 495,-184"/>
<text text-anchor="middle" x="432.5" y="-172" font-family="Helvetica,sans-Serif" font-size="10.00">common/double_tap.h</text>
</a>
</g>
</g>
<!-- Node1&#45;&gt;Node8 -->
<g id="edge9_Node000001_Node000008" class="edge">
<title>Node1&#45;&gt;Node8</title>
<g id="a_edge9_Node000001_Node000008"><a xlink:title=" ">
<path fill="none" stroke="#63b8ff" d="M356.12,-219.98C370.36,-211.69 392.25,-198.94 408.95,-189.22"/>
<polygon fill="#63b8ff" stroke="#63b8ff" points="410.73,-192.23 417.61,-184.17 407.21,-186.18 410.73,-192.23"/>
</a>
</g>
</g>
<!-- Node9 -->
<g id="Node000009" class="node">
<title>Node9</title>
<g id="a_Node000009"><a xlink:href="platform_8h.html" target="_top" xlink:title="Declares internal, runtime CPU/OS feature detection functions.">
<polygon fill="white" stroke="#666666" points="247,-184 134,-184 134,-165 247,-165 247,-184"/>
<text text-anchor="middle" x="190.5" y="-172" font-family="Helvetica,sans-Serif" font-size="10.00">common/platform.h</text>
</a>
</g>
</g>
<!-- Node1&#45;&gt;Node9 -->
<g id="edge11_Node000001_Node000009" class="edge">
<title>Node1&#45;&gt;Node9</title>
<g id="a_edge11_Node000001_Node000009"><a xlink:title=" ">
<path fill="none" stroke="#63b8ff" d="M317.24,-219.98C292.18,-211.19 252.87,-197.39 224.67,-187.49"/>
<polygon fill="#63b8ff" stroke="#63b8ff" points="225.8,-184.18 215.2,-184.17 223.48,-190.78 225.8,-184.18"/>
</a>
</g>
</g>
<!-- Node10 -->
<g id="Node000010" class="node">
<title>Node10</title>
<g id="a_Node000010"><a xlink:title=" ">
<polygon fill="#e0e0e0" stroke="#999999" points="563.5,-184 513.5,-184 513.5,-165 563.5,-165 563.5,-184"/>
<text text-anchor="middle" x="538.5" y="-172" font-family="Helvetica,sans-Serif" font-size="10.00">stdio.h</text>
</a>
</g>
</g>
<!-- Node1&#45;&gt;Node10 -->
<g id="edge16_Node000001_Node000010" class="edge">
<title>Node1&#45;&gt;Node10</title>
<g id="a_edge16_Node000001_Node000010"><a xlink:title=" ">
<path fill="none" stroke="#63b8ff" d="M373.15,-219.98C408.84,-210.38 466.7,-194.82 503.66,-184.87"/>
<polygon fill="#63b8ff" stroke="#63b8ff" points="504.74,-188.21 513.49,-182.23 502.92,-181.45 504.74,-188.21"/>
</a>
</g>
</g>
<!-- Node11 -->
<g id="Node000011" class="node">
<title>Node11</title>
<g id="a_Node000011"><a xlink:title=" ">
<polygon fill="#e0e0e0" stroke="#999999" points="635,-184 582,-184 582,-165 635,-165 635,-184"/>
<text text-anchor="middle" x="608.5" y="-172" font-family="Helvetica,sans-Serif" font-size="10.00">stdlib.h</text>
</a>
</g>
</g>
<!-- Node1&#45;&gt;Node11 -->
<g id="edge17_Node000001_Node000011" class="edge">
<title>Node1&#45;&gt;Node11</title>
<g id="a_edge17_Node000001_Node000011"><a xlink:title=" ">
<path fill="none" stroke="#63b8ff" d="M388.51,-220.04C433.17,-211.86 502.43,-198.84 571.98,-184.04"/>
<polygon fill="#63b8ff" stroke="#63b8ff" points="572.75,-187.45 581.79,-181.94 571.28,-180.61 572.75,-187.45"/>
</a>
</g>
</g>
<!-- Node2&#45;&gt;Node3 -->
<g id="edge2_Node000002_Node000003" class="edge">
<title>Node2&#45;&gt;Node3</title>
<g id="a_edge2_Node000002_Node000003"><a xlink:title=" ">
<path fill="none" stroke="#63b8ff" d="M217.94,-109.98C186.78,-101.01 137.53,-86.82 103.04,-76.89"/>
<polygon fill="#63b8ff" stroke="#63b8ff" points="103.87,-73.49 93.29,-74.08 101.93,-80.21 103.87,-73.49"/>
</a>
</g>
</g>
<!-- Node2&#45;&gt;Node4 -->
<g id="edge3_Node000002_Node000004" class="edge">
<title>Node2&#45;&gt;Node4</title>
<g id="a_edge3_Node000002_Node000004"><a xlink:title=" ">
<path fill="none" stroke="#63b8ff" d="M257.78,-109.98C267.34,-102.07 281.78,-90.11 293.28,-80.58"/>
<polygon fill="#63b8ff" stroke="#63b8ff" points="295.56,-83.24 301.03,-74.17 291.1,-77.85 295.56,-83.24"/>
</a>
</g>
</g>
<!-- Node5 -->
<g id="Node000005" class="node">
<title>Node5</title>
<g id="a_Node000005"><a xlink:title=" ">
<polygon fill="#e0e0e0" stroke="#999999" points="220.5,-19 158.5,-19 158.5,0 220.5,0 220.5,-19"/>
<text text-anchor="middle" x="189.5" y="-7" font-family="Helvetica,sans-Serif" font-size="10.00">stdbool.h</text>
</a>
</g>
</g>
<!-- Node2&#45;&gt;Node5 -->
<g id="edge7_Node000002_Node000005" class="edge">
<title>Node2&#45;&gt;Node5</title>
<g id="a_edge7_Node000002_Node000005"><a xlink:title=" ">
<path fill="none" stroke="#63b8ff" d="M242.75,-109.66C233.19,-91.85 211.45,-51.37 198.9,-28.01"/>
<polygon fill="#63b8ff" stroke="#63b8ff" points="201.96,-26.31 194.15,-19.16 195.8,-29.62 201.96,-26.31"/>
</a>
</g>
</g>
<!-- Node6 -->
<g id="Node000006" class="node">
<title>Node6</title>
<g id="a_Node000006"><a xlink:title=" ">
<polygon fill="#e0e0e0" stroke="#999999" points="294.5,-19 238.5,-19 238.5,0 294.5,0 294.5,-19"/>
<text text-anchor="middle" x="266.5" y="-7" font-family="Helvetica,sans-Serif" font-size="10.00">stddef.h</text>
</a>
</g>
</g>
<!-- Node2&#45;&gt;Node6 -->
<g id="edge8_Node000002_Node000006" class="edge">
<title>Node2&#45;&gt;Node6</title>
<g id="a_edge8_Node000002_Node000006"><a xlink:title=" ">
<path fill="none" stroke="#63b8ff" d="M249.05,-109.66C252.13,-92.17 259.06,-52.8 263.2,-29.27"/>
<polygon fill="#63b8ff" stroke="#63b8ff" points="266.69,-29.61 264.98,-19.16 259.8,-28.4 266.69,-29.61"/>
</a>
</g>
</g>
<!-- Node4&#45;&gt;Node5 -->
<g id="edge4_Node000004_Node000005" class="edge">
<title>Node4&#45;&gt;Node5</title>
<g id="a_edge4_Node000004_Node000005"><a xlink:title=" ">
<path fill="none" stroke="#63b8ff" d="M291.9,-54.98C272.18,-46.42 241.55,-33.11 218.92,-23.28"/>
<polygon fill="#63b8ff" stroke="#63b8ff" points="220.02,-19.94 209.46,-19.17 217.24,-26.37 220.02,-19.94"/>
</a>
</g>
</g>
<!-- Node4&#45;&gt;Node6 -->
<g id="edge5_Node000004_Node000006" class="edge">
<title>Node4&#45;&gt;Node6</title>
<g id="a_edge5_Node000004_Node000006"><a xlink:title=" ">
<path fill="none" stroke="#63b8ff" d="M304.07,-54.75C297.65,-47.18 288.19,-36.05 280.38,-26.84"/>
<polygon fill="#63b8ff" stroke="#63b8ff" points="282.93,-24.45 273.79,-19.09 277.6,-28.98 282.93,-24.45"/>
</a>
</g>
</g>
<!-- Node7 -->
<g id="Node000007" class="node">
<title>Node7</title>
<g id="a_Node000007"><a xlink:title=" ">
<polygon fill="#e0e0e0" stroke="#999999" points="366,-19 313,-19 313,0 366,0 366,-19"/>
<text text-anchor="middle" x="339.5" y="-7" font-family="Helvetica,sans-Serif" font-size="10.00">stdint.h</text>
</a>
</g>
</g>
<!-- Node4&#45;&gt;Node7 -->
<g id="edge6_Node000004_Node000007" class="edge">
<title>Node4&#45;&gt;Node7</title>
<g id="a_edge6_Node000004_Node000007"><a xlink:title=" ">
<path fill="none" stroke="#63b8ff" d="M316.12,-54.75C319.96,-47.49 325.52,-36.95 330.26,-27.98"/>
<polygon fill="#63b8ff" stroke="#63b8ff" points="333.39,-29.57 334.96,-19.09 327.2,-26.3 333.39,-29.57"/>
</a>
</g>
</g>
<!-- Node9&#45;&gt;Node2 -->
<g id="edge12_Node000009_Node000002" class="edge">
<title>Node9&#45;&gt;Node2</title>
<g id="a_edge12_Node000009_Node000002"><a xlink:title=" ">
<path fill="none" stroke="#63b8ff" d="M199.66,-164.98C208,-157.23 220.53,-145.58 230.68,-136.14"/>
<polygon fill="#63b8ff" stroke="#63b8ff" points="233.24,-138.54 238.18,-129.17 228.47,-133.42 233.24,-138.54"/>
</a>
</g>
</g>
<!-- Node9&#45;&gt;Node3 -->
<g id="edge13_Node000009_Node000003" class="edge">
<title>Node9&#45;&gt;Node3</title>
<g id="a_edge13_Node000009_Node000003"><a xlink:title=" ">
<path fill="none" stroke="#63b8ff" d="M180.11,-164.66C158.51,-146.3 108.55,-103.81 81.57,-80.87"/>
<polygon fill="#63b8ff" stroke="#63b8ff" points="83.57,-77.97 73.68,-74.16 79.03,-83.3 83.57,-77.97"/>
</a>
</g>
</g>
<!-- Node9&#45;&gt;Node5 -->
<g id="edge14_Node000009_Node000005" class="edge">
<title>Node9&#45;&gt;Node5</title>
<g id="a_edge14_Node000009_Node000005"><a xlink:title=" ">
<path fill="none" stroke="#63b8ff" d="M185.88,-164.94C181.44,-156.2 175.05,-142.09 172.5,-129 165.65,-93.78 175.77,-52.16 183.09,-28.8"/>
<polygon fill="#63b8ff" stroke="#63b8ff" points="186.46,-29.77 186.28,-19.17 179.81,-27.57 186.46,-29.77"/>
</a>
</g>
</g>
</g>
</svg>
