<?xml version="1.0" encoding="UTF-8" standalone="no"?>
<!DOCTYPE svg PUBLIC "-//W3C//DTD SVG 1.1//EN"
 "http://www.w3.org/Graphics/SVG/1.1/DTD/svg11.dtd">
<!-- Generated by graphviz version 2.43.0 (0)
 -->
<!-- Title: eg/cookbook/03_opaque_pointers.c Pages: 1 -->
<svg width="257pt" height="203pt"
 viewBox="0.00 0.00 256.50 203.00" xmlns="http://www.w3.org/2000/svg" xmlns:xlink="http://www.w3.org/1999/xlink">

<svg id="main" version="1.1" xmlns="http://www.w3.org/2000/svg" xmlns:xlink="http://www.w3.org/1999/xlink" xml:space="preserve" onload="init(evt)">
<style type="text/css"><![CDATA[
.node, .edge {opacity: 0.7;}
.node.selected, .edge.selected {opacity: 1;}
.edge:hover path { stroke: red; }
.edge:hover polygon { stroke: red; fill: red; }
]]></style>
<script type="application/ecmascript" xlink:href="svg.min.js"/>
<svg id="graph" class="graph">
<g id="graph0" class="graph" transform="scale(1 1) rotate(0) translate(4 199)">
<title>eg/cookbook/03_opaque_pointers.c</title>
<!-- Node1 -->
<g id="Node000001" class="node">
<title>Node1</title>
<g id="a_Node000001"><a xlink:title="Recipe: Working with Opaque Pointers (Incomplete Types).">
<polygon fill="#999999" stroke="#666666" points="212,-195 77,-195 77,-165 212,-165 212,-195"/>
<text text-anchor="start" x="85" y="-183" font-family="Helvetica,sans-Serif" font-size="10.00">eg/cookbook/03_opaque</text>
<text text-anchor="middle" x="144.5" y="-172" font-family="Helvetica,sans-Serif" font-size="10.00">_pointers.c</text>
</a>
</g>
</g>
<!-- Node2 -->
<g id="Node000002" class="node">
<title>Node2</title>
<g id="a_Node000002"><a xlink:href="handle__lib_8h.html" target="_top" xlink:title=" ">
<polygon fill="white" stroke="#666666" points="91,-129 0,-129 0,-110 91,-110 91,-129"/>
<text text-anchor="middle" x="45.5" y="-117" font-family="Helvetica,sans-Serif" font-size="10.00">lib/handle_lib.h</text>
</a>
</g>
</g>
<!-- Node1&#45;&gt;Node2 -->
<g id="edge1_Node000001_Node000002" class="edge">
<title>Node1&#45;&gt;Node2</title>
<g id="a_edge1_Node000001_Node000002"><a xlink:title=" ">
<path fill="none" stroke="#63b8ff" d="M120.79,-164.99C105.15,-155.75 84.76,-143.7 69.14,-134.47"/>
<polygon fill="#63b8ff" stroke="#63b8ff" points="70.51,-131.21 60.12,-129.14 66.95,-137.24 70.51,-131.21"/>
</a>
</g>
</g>
<!-- Node3 -->
<g id="Node000003" class="node">
<title>Node3</title>
<g id="a_Node000003"><a xlink:href="infix_8h.html" target="_top" xlink:title=" ">
<polygon fill="white" stroke="#666666" points="180,-129 109,-129 109,-110 180,-110 180,-129"/>
<text text-anchor="middle" x="144.5" y="-117" font-family="Helvetica,sans-Serif" font-size="10.00">infix/infix.h</text>
</a>
</g>
</g>
<!-- Node1&#45;&gt;Node3 -->
<g id="edge2_Node000001_Node000003" class="edge">
<title>Node1&#45;&gt;Node3</title>
<g id="a_edge2_Node000001_Node000003"><a xlink:title=" ">
<path fill="none" stroke="#63b8ff" d="M144.5,-164.84C144.5,-157.21 144.5,-147.7 144.5,-139.45"/>
<polygon fill="#63b8ff" stroke="#63b8ff" points="148,-139.27 144.5,-129.27 141,-139.27 148,-139.27"/>
</a>
</g>
</g>
<!-- Node8 -->
<g id="Node000008" class="node">
<title>Node8</title>
<g id="a_Node000008"><a xlink:title=" ">
<polygon fill="#e0e0e0" stroke="#999999" points="248.5,-129 198.5,-129 198.5,-110 248.5,-110 248.5,-129"/>
<text text-anchor="middle" x="223.5" y="-117" font-family="Helvetica,sans-Serif" font-size="10.00">stdio.h</text>
</a>
</g>
</g>
<!-- Node1&#45;&gt;Node8 -->
<g id="edge9_Node000001_Node000008" class="edge">
<title>Node1&#45;&gt;Node8</title>
<g id="a_edge9_Node000001_Node000008"><a xlink:title=" ">
<path fill="none" stroke="#63b8ff" d="M163.62,-164.84C175.68,-155.91 191.21,-144.41 203.44,-135.35"/>
<polygon fill="#63b8ff" stroke="#63b8ff" points="205.71,-138.03 211.66,-129.27 201.54,-132.4 205.71,-138.03"/>
</a>
</g>
</g>
<!-- Node4 -->
<g id="Node000004" class="node">
<title>Node4</title>
<g id="a_Node000004"><a xlink:title=" ">
<polygon fill="#e0e0e0" stroke="#999999" points="77.5,-19 15.5,-19 15.5,0 77.5,0 77.5,-19"/>
<text text-anchor="middle" x="46.5" y="-7" font-family="Helvetica,sans-Serif" font-size="10.00">stdbool.h</text>
</a>
</g>
</g>
<!-- Node3&#45;&gt;Node4 -->
<g id="edge3_Node000003_Node000004" class="edge">
<title>Node3&#45;&gt;Node4</title>
<g id="a_edge3_Node000003_Node000004"><a xlink:title=" ">
<path fill="none" stroke="#63b8ff" d="M108.69,-111.12C74.2,-103.2 25.67,-89.62 14.5,-74 3.7,-58.89 16.65,-39.6 29.16,-26.27"/>
<polygon fill="#63b8ff" stroke="#63b8ff" points="31.67,-28.72 36.3,-19.19 26.74,-23.75 31.67,-28.72"/>
</a>
</g>
</g>
<!-- Node5 -->
<g id="Node000005" class="node">
<title>Node5</title>
<g id="a_Node000005"><a xlink:title=" ">
<polygon fill="#e0e0e0" stroke="#999999" points="159.5,-19 103.5,-19 103.5,0 159.5,0 159.5,-19"/>
<text text-anchor="middle" x="131.5" y="-7" font-family="Helvetica,sans-Serif" font-size="10.00">stddef.h</text>
</a>
</g>
</g>
<!-- Node3&#45;&gt;Node5 -->
<g id="edge4_Node000003_Node000005" class="edge">
<title>Node3&#45;&gt;Node5</title>
<g id="a_edge4_Node000003_Node000005"><a xlink:title=" ">
<path fill="none" stroke="#63b8ff" d="M178.35,-109.92C210.92,-99.9 252.85,-81.29 235.5,-55 220.99,-33.01 193.13,-21.85 169.89,-16.2"/>
<polygon fill="#63b8ff" stroke="#63b8ff" points="170.46,-12.74 159.94,-14.04 168.97,-19.58 170.46,-12.74"/>
</a>
</g>
</g>
<!-- Node6 -->
<g id="Node000006" class="node">
<title>Node6</title>
<g id="a_Node000006"><a xlink:title=" ">
<polygon fill="#e0e0e0" stroke="#999999" points="226,-74 173,-74 173,-55 226,-55 226,-74"/>
<text text-anchor="middle" x="199.5" y="-62" font-family="Helvetica,sans-Serif" font-size="10.00">stdint.h</text>
</a>
</g>
</g>
<!-- Node3&#45;&gt;Node6 -->
<g id="edge5_Node000003_Node000006" class="edge">
<title>Node3&#45;&gt;Node6</title>
<g id="a_edge5_Node000003_Node000006"><a xlink:title=" ">
<path fill="none" stroke="#63b8ff" d="M153.58,-109.75C161.59,-102.03 173.46,-90.6 183.12,-81.28"/>
<polygon fill="#63b8ff" stroke="#63b8ff" points="185.81,-83.55 190.59,-74.09 180.96,-78.51 185.81,-83.55"/>
</a>
</g>
</g>
<!-- Node7 -->
<g id="Node000007" class="node">
<title>Node7</title>
<g id="a_Node000007"><a xlink:href="compat__c23_8h.html" target="_top" xlink:title="Provides compatibility shims for C23 features in a C17/C11 project.">
<polygon fill="white" stroke="#666666" points="155,-74 24,-74 24,-55 155,-55 155,-74"/>
<text text-anchor="middle" x="89.5" y="-62" font-family="Helvetica,sans-Serif" font-size="10.00">common/compat_c23.h</text>
</a>
</g>
</g>
<!-- Node3&#45;&gt;Node7 -->
<g id="edge6_Node000003_Node000007" class="edge">
<title>Node3&#45;&gt;Node7</title>
<g id="a_edge6_Node000003_Node000007"><a xlink:title=" ">
<path fill="none" stroke="#63b8ff" d="M135.42,-109.75C127.41,-102.03 115.54,-90.6 105.88,-81.28"/>
<polygon fill="#63b8ff" stroke="#63b8ff" points="108.04,-78.51 98.41,-74.09 103.19,-83.55 108.04,-78.51"/>
</a>
</g>
</g>
<!-- Node7&#45;&gt;Node4 -->
<g id="edge7_Node000007_Node000004" class="edge">
<title>Node7&#45;&gt;Node4</title>
<g id="a_edge7_Node000007_Node000004"><a xlink:title=" ">
<path fill="none" stroke="#63b8ff" d="M82.4,-54.75C76.33,-47.26 67.41,-36.28 59.99,-27.13"/>
<polygon fill="#63b8ff" stroke="#63b8ff" points="62.49,-24.65 53.47,-19.09 57.05,-29.06 62.49,-24.65"/>
</a>
</g>
</g>
<!-- Node7&#45;&gt;Node5 -->
<g id="edge8_Node000007_Node000005" class="edge">
<title>Node7&#45;&gt;Node5</title>
<g id="a_edge8_Node000007_Node000005"><a xlink:title=" ">
<path fill="none" stroke="#63b8ff" d="M96.44,-54.75C102.37,-47.26 111.07,-36.28 118.32,-27.13"/>
<polygon fill="#63b8ff" stroke="#63b8ff" points="121.23,-29.1 124.69,-19.09 115.74,-24.75 121.23,-29.1"/>
</a>
</g>
</g>
</g>
</svg>
</svg>

<style type='text/css'>
<![CDATA[
[data-mouse-over-selected='false'] { opacity: 0.7; }
[data-mouse-over-selected='true']  { opacity: 1.0; }
]]>
</style>
<script type="application/ecmascript"><![CDATA[
document.addEventListener('DOMContentLoaded', (event) => {
  highlightEdges();
  highlightAdjacentNodes();
});
]]></script>
</svg>
