<?xml version="1.0" encoding="UTF-8" standalone="no"?>
<!DOCTYPE svg PUBLIC "-//W3C//DTD SVG 1.1//EN"
 "http://www.w3.org/Graphics/SVG/1.1/DTD/svg11.dtd">
<!-- Generated by graphviz version 2.43.0 (0)
 -->
<!-- Title: eg/cookbook/05_dynamic_marshalling.c Pages: 1 -->
<svg width="441pt" height="203pt"
 viewBox="0.00 0.00 441.20 203.00" xmlns="http://www.w3.org/2000/svg" xmlns:xlink="http://www.w3.org/1999/xlink">
<g id="graph0" class="graph" transform="scale(1 1) rotate(0) translate(4 199)">
<title>eg/cookbook/05_dynamic_marshalling.c</title>
<!-- Node1 -->
<g id="Node000001" class="node">
<title>Node1</title>
<g id="a_Node000001"><a xlink:title="Recipe: Dynamic Struct Marshalling with the Signature Parser.">
<polygon fill="#999999" stroke="#666666" points="354.2,-195 213.2,-195 213.2,-165 354.2,-165 354.2,-195"/>
<text text-anchor="start" x="221.2" y="-183" font-family="Helvetica,sans-Serif" font-size="10.00">eg/cookbook/05_dynamic</text>
<text text-anchor="middle" x="283.7" y="-172" font-family="Helvetica,sans-Serif" font-size="10.00">_marshalling.c</text>
</a>
</g>
</g>
<!-- Node2 -->
<g id="Node000002" class="node">
<title>Node2</title>
<g id="a_Node000002"><a xlink:href="infix_8h.html" target="_top" xlink:title=" ">
<polygon fill="white" stroke="#666666" points="209.2,-129 138.2,-129 138.2,-110 209.2,-110 209.2,-129"/>
<text text-anchor="middle" x="173.7" y="-117" font-family="Helvetica,sans-Serif" font-size="10.00">infix/infix.h</text>
</a>
</g>
</g>
<!-- Node1&#45;&gt;Node2 -->
<g id="edge1_Node000001_Node000002" class="edge">
<title>Node1&#45;&gt;Node2</title>
<g id="a_edge1_Node000001_Node000002"><a xlink:title=" ">
<path fill="none" stroke="#63b8ff" d="M257.35,-164.99C239.66,-155.58 216.47,-143.24 198.99,-133.95"/>
<polygon fill="#63b8ff" stroke="#63b8ff" points="200.42,-130.74 189.95,-129.14 197.13,-136.92 200.42,-130.74"/>
</a>
</g>
</g>
<!-- Node4 -->
<g id="Node000004" class="node">
<title>Node4</title>
<g id="a_Node000004"><a xlink:title=" ">
<polygon fill="#e0e0e0" stroke="#999999" points="201.7,-19 145.7,-19 145.7,0 201.7,0 201.7,-19"/>
<text text-anchor="middle" x="173.7" y="-7" font-family="Helvetica,sans-Serif" font-size="10.00">stddef.h</text>
</a>
</g>
</g>
<!-- Node1&#45;&gt;Node4 -->
<g id="edge8_Node000001_Node000004" class="edge">
<title>Node1&#45;&gt;Node4</title>
<g id="a_edge8_Node000001_Node000004"><a xlink:title=" ">
<path fill="none" stroke="#63b8ff" d="M285.34,-164.78C287.41,-139.95 288.17,-88.16 263.7,-55 251.07,-37.88 230.02,-26.97 211.46,-20.24"/>
<polygon fill="#63b8ff" stroke="#63b8ff" points="212.34,-16.85 201.75,-17 210.13,-23.49 212.34,-16.85"/>
</a>
</g>
</g>
<!-- Node5 -->
<g id="Node000005" class="node">
<title>Node5</title>
<g id="a_Node000005"><a xlink:title=" ">
<polygon fill="#e0e0e0" stroke="#999999" points="255.2,-74 202.2,-74 202.2,-55 255.2,-55 255.2,-74"/>
<text text-anchor="middle" x="228.7" y="-62" font-family="Helvetica,sans-Serif" font-size="10.00">stdint.h</text>
</a>
</g>
</g>
<!-- Node1&#45;&gt;Node5 -->
<g id="edge9_Node000001_Node000005" class="edge">
<title>Node1&#45;&gt;Node5</title>
<g id="a_edge9_Node000001_Node000005"><a xlink:title=" ">
<path fill="none" stroke="#63b8ff" d="M276.74,-164.63C266.71,-143.93 248.22,-105.78 237.34,-83.32"/>
<polygon fill="#63b8ff" stroke="#63b8ff" points="240.44,-81.7 232.93,-74.23 234.14,-84.75 240.44,-81.7"/>
</a>
</g>
</g>
<!-- Node7 -->
<g id="Node000007" class="node">
<title>Node7</title>
<g id="a_Node000007"><a xlink:title=" ">
<polygon fill="#e0e0e0" stroke="#999999" points="361.7,-129 311.7,-129 311.7,-110 361.7,-110 361.7,-129"/>
<text text-anchor="middle" x="336.7" y="-117" font-family="Helvetica,sans-Serif" font-size="10.00">stdio.h</text>
</a>
</g>
</g>
<!-- Node1&#45;&gt;Node7 -->
<g id="edge10_Node000001_Node000007" class="edge">
<title>Node1&#45;&gt;Node7</title>
<g id="a_edge10_Node000001_Node000007"><a xlink:title=" ">
<path fill="none" stroke="#63b8ff" d="M296.53,-164.84C304.22,-156.35 314.03,-145.52 322.03,-136.69"/>
<polygon fill="#63b8ff" stroke="#63b8ff" points="324.64,-139.03 328.76,-129.27 319.45,-134.33 324.64,-139.03"/>
</a>
</g>
</g>
<!-- Node8 -->
<g id="Node000008" class="node">
<title>Node8</title>
<g id="a_Node000008"><a xlink:title=" ">
<polygon fill="#e0e0e0" stroke="#999999" points="433.2,-129 380.2,-129 380.2,-110 433.2,-110 433.2,-129"/>
<text text-anchor="middle" x="406.7" y="-117" font-family="Helvetica,sans-Serif" font-size="10.00">string.h</text>
</a>
</g>
</g>
<!-- Node1&#45;&gt;Node8 -->
<g id="edge11_Node000001_Node000008" class="edge">
<title>Node1&#45;&gt;Node8</title>
<g id="a_edge11_Node000001_Node000008"><a xlink:title=" ">
<path fill="none" stroke="#63b8ff" d="M313.16,-164.99C333.32,-155.4 359.84,-142.79 379.5,-133.44"/>
<polygon fill="#63b8ff" stroke="#63b8ff" points="381.01,-136.6 388.54,-129.14 378,-130.27 381.01,-136.6"/>
</a>
</g>
</g>
<!-- Node3 -->
<g id="Node000003" class="node">
<title>Node3</title>
<g id="a_Node000003"><a xlink:title=" ">
<polygon fill="#e0e0e0" stroke="#999999" points="63.7,-19 1.7,-19 1.7,0 63.7,0 63.7,-19"/>
<text text-anchor="middle" x="32.7" y="-7" font-family="Helvetica,sans-Serif" font-size="10.00">stdbool.h</text>
</a>
</g>
</g>
<!-- Node2&#45;&gt;Node3 -->
<g id="edge2_Node000002_Node000003" class="edge">
<title>Node2&#45;&gt;Node3</title>
<g id="a_edge2_Node000002_Node000003"><a xlink:title=" ">
<path fill="none" stroke="#63b8ff" d="M138.14,-114.22C93.51,-108.03 20.86,-94.97 4.7,-74 -6.26,-59.78 5.03,-40.59 16.39,-27.04"/>
<polygon fill="#63b8ff" stroke="#63b8ff" points="19.16,-29.19 23.26,-19.43 13.96,-24.5 19.16,-29.19"/>
</a>
</g>
</g>
<!-- Node2&#45;&gt;Node4 -->
<g id="edge3_Node000002_Node000004" class="edge">
<title>Node2&#45;&gt;Node4</title>
<g id="a_edge3_Node000002_Node000004"><a xlink:title=" ">
<path fill="none" stroke="#63b8ff" d="M173.7,-109.66C173.7,-92.17 173.7,-52.8 173.7,-29.27"/>
<polygon fill="#63b8ff" stroke="#63b8ff" points="177.2,-29.16 173.7,-19.16 170.2,-29.16 177.2,-29.16"/>
</a>
</g>
</g>
<!-- Node2&#45;&gt;Node5 -->
<g id="edge4_Node000002_Node000005" class="edge">
<title>Node2&#45;&gt;Node5</title>
<g id="a_edge4_Node000002_Node000005"><a xlink:title=" ">
<path fill="none" stroke="#63b8ff" d="M182.78,-109.75C190.79,-102.03 202.66,-90.6 212.32,-81.28"/>
<polygon fill="#63b8ff" stroke="#63b8ff" points="215.02,-83.55 219.79,-74.09 210.16,-78.51 215.02,-83.55"/>
</a>
</g>
</g>
<!-- Node6 -->
<g id="Node000006" class="node">
<title>Node6</title>
<g id="a_Node000006"><a xlink:href="compat__c23_8h.html" target="_top" xlink:title="Provides compatibility shims for C23 features in a C17/C11 project.">
<polygon fill="white" stroke="#666666" points="145.2,-74 14.2,-74 14.2,-55 145.2,-55 145.2,-74"/>
<text text-anchor="middle" x="79.7" y="-62" font-family="Helvetica,sans-Serif" font-size="10.00">common/compat_c23.h</text>
</a>
</g>
</g>
<!-- Node2&#45;&gt;Node6 -->
<g id="edge5_Node000002_Node000006" class="edge">
<title>Node2&#45;&gt;Node6</title>
<g id="a_edge5_Node000002_Node000006"><a xlink:title=" ">
<path fill="none" stroke="#63b8ff" d="M158.6,-109.98C143.89,-101.69 121.28,-88.94 104.03,-79.22"/>
<polygon fill="#63b8ff" stroke="#63b8ff" points="105.51,-76.03 95.08,-74.17 102.07,-82.13 105.51,-76.03"/>
</a>
</g>
</g>
<!-- Node6&#45;&gt;Node3 -->
<g id="edge6_Node000006_Node000003" class="edge">
<title>Node6&#45;&gt;Node3</title>
<g id="a_edge6_Node000006_Node000003"><a xlink:title=" ">
<path fill="none" stroke="#63b8ff" d="M71.94,-54.75C65.23,-47.18 55.36,-36.05 47.2,-26.84"/>
<polygon fill="#63b8ff" stroke="#63b8ff" points="49.57,-24.25 40.32,-19.09 44.33,-28.89 49.57,-24.25"/>
</a>
</g>
</g>
<!-- Node6&#45;&gt;Node4 -->
<g id="edge7_Node000006_Node000004" class="edge">
<title>Node6&#45;&gt;Node4</title>
<g id="a_edge7_Node000006_Node000004"><a xlink:title=" ">
<path fill="none" stroke="#63b8ff" d="M94.8,-54.98C109.52,-46.69 132.13,-33.94 149.38,-24.22"/>
<polygon fill="#63b8ff" stroke="#63b8ff" points="151.33,-27.13 158.32,-19.17 147.89,-21.03 151.33,-27.13"/>
</a>
</g>
</g>
</g>
</svg>
