<?xml version="1.0" encoding="UTF-8" standalone="no"?>
<!DOCTYPE svg PUBLIC "-//W3C//DTD SVG 1.1//EN"
 "http://www.w3.org/Graphics/SVG/1.1/DTD/svg11.dtd">
<!-- Generated by graphviz version 2.43.0 (0)
 -->
<!-- Title: eg/cookbook/09_packed_struct.c Pages: 1 -->
<svg width="329pt" height="203pt"
 viewBox="0.00 0.00 329.07 203.00" xmlns="http://www.w3.org/2000/svg" xmlns:xlink="http://www.w3.org/1999/xlink">
<g id="graph0" class="graph" transform="scale(1 1) rotate(0) translate(4 199)">
<title>eg/cookbook/09_packed_struct.c</title>
<!-- Node1 -->
<g id="Node000001" class="node">
<title>Node1</title>
<g id="a_Node000001"><a xlink:title="Recipe: Working with Packed Structs via the Signature API.">
<polygon fill="#999999" stroke="#666666" points="178.6,-195 44.6,-195 44.6,-165 178.6,-165 178.6,-195"/>
<text text-anchor="start" x="52.6" y="-183" font-family="Helvetica,sans-Serif" font-size="10.00">eg/cookbook/09_packed</text>
<text text-anchor="middle" x="111.6" y="-172" font-family="Helvetica,sans-Serif" font-size="10.00">_struct.c</text>
</a>
</g>
</g>
<!-- Node2 -->
<g id="Node000002" class="node">
<title>Node2</title>
<g id="a_Node000002"><a xlink:href="eg_2cookbook_2lib_2types_8h.html" target="_top" xlink:title="Defines common data structures used across the cookbook examples.">
<polygon fill="white" stroke="#666666" points="83.6,-129 15.6,-129 15.6,-110 83.6,-110 83.6,-129"/>
<text text-anchor="middle" x="49.6" y="-117" font-family="Helvetica,sans-Serif" font-size="10.00">lib/types.h</text>
</a>
</g>
</g>
<!-- Node1&#45;&gt;Node2 -->
<g id="edge1_Node000001_Node000002" class="edge">
<title>Node1&#45;&gt;Node2</title>
<g id="a_edge1_Node000001_Node000002"><a xlink:title=" ">
<path fill="none" stroke="#63b8ff" d="M96.59,-164.84C87.41,-156.17 75.64,-145.08 66.18,-136.15"/>
<polygon fill="#63b8ff" stroke="#63b8ff" points="68.56,-133.58 58.89,-129.27 63.76,-138.67 68.56,-133.58"/>
</a>
</g>
</g>
<!-- Node3 -->
<g id="Node000003" class="node">
<title>Node3</title>
<g id="a_Node000003"><a xlink:title=" ">
<polygon fill="#e0e0e0" stroke="#999999" points="120.6,-19 64.6,-19 64.6,0 120.6,0 120.6,-19"/>
<text text-anchor="middle" x="92.6" y="-7" font-family="Helvetica,sans-Serif" font-size="10.00">stddef.h</text>
</a>
</g>
</g>
<!-- Node1&#45;&gt;Node3 -->
<g id="edge11_Node000001_Node000003" class="edge">
<title>Node1&#45;&gt;Node3</title>
<g id="a_edge11_Node000001_Node000003"><a xlink:title=" ">
<path fill="none" stroke="#63b8ff" d="M54.15,-164.95C35.76,-157.44 17.38,-146.07 6.6,-129 -18.09,-89.9 35.72,-46.54 68.95,-24.71"/>
<polygon fill="#63b8ff" stroke="#63b8ff" points="71.13,-27.47 77.69,-19.15 67.37,-21.56 71.13,-27.47"/>
</a>
</g>
</g>
<!-- Node4 -->
<g id="Node000004" class="node">
<title>Node4</title>
<g id="a_Node000004"><a xlink:title=" ">
<polygon fill="#e0e0e0" stroke="#999999" points="119.1,-74 66.1,-74 66.1,-55 119.1,-55 119.1,-74"/>
<text text-anchor="middle" x="92.6" y="-62" font-family="Helvetica,sans-Serif" font-size="10.00">stdint.h</text>
</a>
</g>
</g>
<!-- Node1&#45;&gt;Node4 -->
<g id="edge12_Node000001_Node000004" class="edge">
<title>Node1&#45;&gt;Node4</title>
<g id="a_edge12_Node000001_Node000004"><a xlink:title=" ">
<path fill="none" stroke="#63b8ff" d="M109.19,-164.63C105.77,-144.21 99.51,-106.81 95.73,-84.24"/>
<polygon fill="#63b8ff" stroke="#63b8ff" points="99.16,-83.51 94.06,-74.23 92.26,-84.67 99.16,-83.51"/>
</a>
</g>
</g>
<!-- Node5 -->
<g id="Node000005" class="node">
<title>Node5</title>
<g id="a_Node000005"><a xlink:href="infix_8h.html" target="_top" xlink:title=" ">
<polygon fill="white" stroke="#666666" points="211.1,-129 140.1,-129 140.1,-110 211.1,-110 211.1,-129"/>
<text text-anchor="middle" x="175.6" y="-117" font-family="Helvetica,sans-Serif" font-size="10.00">infix/infix.h</text>
</a>
</g>
</g>
<!-- Node1&#45;&gt;Node5 -->
<g id="edge4_Node000001_Node000005" class="edge">
<title>Node1&#45;&gt;Node5</title>
<g id="a_edge4_Node000001_Node000005"><a xlink:title=" ">
<path fill="none" stroke="#63b8ff" d="M127.09,-164.84C136.57,-156.17 148.71,-145.08 158.48,-136.15"/>
<polygon fill="#63b8ff" stroke="#63b8ff" points="160.99,-138.6 166.01,-129.27 156.26,-133.43 160.99,-138.6"/>
</a>
</g>
</g>
<!-- Node8 -->
<g id="Node000008" class="node">
<title>Node8</title>
<g id="a_Node000008"><a xlink:title=" ">
<polygon fill="#e0e0e0" stroke="#999999" points="279.6,-129 229.6,-129 229.6,-110 279.6,-110 279.6,-129"/>
<text text-anchor="middle" x="254.6" y="-117" font-family="Helvetica,sans-Serif" font-size="10.00">stdio.h</text>
</a>
</g>
</g>
<!-- Node1&#45;&gt;Node8 -->
<g id="edge13_Node000001_Node000008" class="edge">
<title>Node1&#45;&gt;Node8</title>
<g id="a_edge13_Node000001_Node000008"><a xlink:title=" ">
<path fill="none" stroke="#63b8ff" d="M145.85,-164.99C169.71,-155.23 201.24,-142.33 224.21,-132.93"/>
<polygon fill="#63b8ff" stroke="#63b8ff" points="225.55,-136.17 233.48,-129.14 222.9,-129.69 225.55,-136.17"/>
</a>
</g>
</g>
<!-- Node2&#45;&gt;Node3 -->
<g id="edge2_Node000002_Node000003" class="edge">
<title>Node2&#45;&gt;Node3</title>
<g id="a_edge2_Node000002_Node000003"><a xlink:title=" ">
<path fill="none" stroke="#63b8ff" d="M49.05,-109.91C48.58,-97.33 48.92,-73.43 56.6,-55 61.02,-44.38 68.81,-34.26 76.01,-26.37"/>
<polygon fill="#63b8ff" stroke="#63b8ff" points="78.69,-28.63 83.14,-19.02 73.67,-23.76 78.69,-28.63"/>
</a>
</g>
</g>
<!-- Node2&#45;&gt;Node4 -->
<g id="edge3_Node000002_Node000004" class="edge">
<title>Node2&#45;&gt;Node4</title>
<g id="a_edge3_Node000002_Node000004"><a xlink:title=" ">
<path fill="none" stroke="#63b8ff" d="M56.7,-109.75C62.77,-102.26 71.68,-91.28 79.11,-82.13"/>
<polygon fill="#63b8ff" stroke="#63b8ff" points="82.05,-84.06 85.63,-74.09 76.61,-79.65 82.05,-84.06"/>
</a>
</g>
</g>
<!-- Node5&#45;&gt;Node3 -->
<g id="edge6_Node000005_Node000003" class="edge">
<title>Node5&#45;&gt;Node3</title>
<g id="a_edge6_Node000005_Node000003"><a xlink:title=" ">
<path fill="none" stroke="#63b8ff" d="M169.13,-109.83C159.96,-97.57 142.62,-74.48 127.6,-55 120.47,-45.76 112.42,-35.51 105.84,-27.19"/>
<polygon fill="#63b8ff" stroke="#63b8ff" points="108.57,-24.99 99.62,-19.33 103.08,-29.34 108.57,-24.99"/>
</a>
</g>
</g>
<!-- Node5&#45;&gt;Node4 -->
<g id="edge7_Node000005_Node000004" class="edge">
<title>Node5&#45;&gt;Node4</title>
<g id="a_edge7_Node000005_Node000004"><a xlink:title=" ">
<path fill="none" stroke="#63b8ff" d="M162.26,-109.98C149.51,-101.84 130.04,-89.41 114.93,-79.76"/>
<polygon fill="#63b8ff" stroke="#63b8ff" points="116.49,-76.6 106.18,-74.17 112.72,-82.5 116.49,-76.6"/>
</a>
</g>
</g>
<!-- Node6 -->
<g id="Node000006" class="node">
<title>Node6</title>
<g id="a_Node000006"><a xlink:title=" ">
<polygon fill="#e0e0e0" stroke="#999999" points="319.6,-19 257.6,-19 257.6,0 319.6,0 319.6,-19"/>
<text text-anchor="middle" x="288.6" y="-7" font-family="Helvetica,sans-Serif" font-size="10.00">stdbool.h</text>
</a>
</g>
</g>
<!-- Node5&#45;&gt;Node6 -->
<g id="edge5_Node000005_Node000006" class="edge">
<title>Node5&#45;&gt;Node6</title>
<g id="a_edge5_Node000005_Node000006"><a xlink:title=" ">
<path fill="none" stroke="#63b8ff" d="M209.76,-109.97C249.38,-99.73 310.11,-82.85 316.6,-74 327.22,-59.51 315.97,-40.37 304.73,-26.9"/>
<polygon fill="#63b8ff" stroke="#63b8ff" points="307.22,-24.43 297.93,-19.34 302.02,-29.12 307.22,-24.43"/>
</a>
</g>
</g>
<!-- Node7 -->
<g id="Node000007" class="node">
<title>Node7</title>
<g id="a_Node000007"><a xlink:href="compat__c23_8h.html" target="_top" xlink:title="Provides compatibility shims for C23 features in a C17/C11 project.">
<polygon fill="white" stroke="#666666" points="307.1,-74 176.1,-74 176.1,-55 307.1,-55 307.1,-74"/>
<text text-anchor="middle" x="241.6" y="-62" font-family="Helvetica,sans-Serif" font-size="10.00">common/compat_c23.h</text>
</a>
</g>
</g>
<!-- Node5&#45;&gt;Node7 -->
<g id="edge8_Node000005_Node000007" class="edge">
<title>Node5&#45;&gt;Node7</title>
<g id="a_edge8_Node000005_Node000007"><a xlink:title=" ">
<path fill="none" stroke="#63b8ff" d="M186.2,-109.98C196.05,-102.07 210.95,-90.11 222.81,-80.58"/>
<polygon fill="#63b8ff" stroke="#63b8ff" points="225.19,-83.16 230.8,-74.17 220.81,-77.7 225.19,-83.16"/>
</a>
</g>
</g>
<!-- Node7&#45;&gt;Node3 -->
<g id="edge10_Node000007_Node000003" class="edge">
<title>Node7&#45;&gt;Node3</title>
<g id="a_edge10_Node000007_Node000003"><a xlink:title=" ">
<path fill="none" stroke="#63b8ff" d="M217.66,-54.98C193.04,-46.23 154.48,-32.51 126.68,-22.62"/>
<polygon fill="#63b8ff" stroke="#63b8ff" points="127.57,-19.22 116.97,-19.17 125.22,-25.82 127.57,-19.22"/>
</a>
</g>
</g>
<!-- Node7&#45;&gt;Node6 -->
<g id="edge9_Node000007_Node000006" class="edge">
<title>Node7&#45;&gt;Node6</title>
<g id="a_edge9_Node000007_Node000006"><a xlink:title=" ">
<path fill="none" stroke="#63b8ff" d="M249.36,-54.75C256.07,-47.18 265.94,-36.05 274.1,-26.84"/>
<polygon fill="#63b8ff" stroke="#63b8ff" points="276.96,-28.89 280.98,-19.09 271.73,-24.25 276.96,-28.89"/>
</a>
</g>
</g>
</g>
</svg>
