<?xml version="1.0" encoding="UTF-8" standalone="no"?>
<!DOCTYPE svg PUBLIC "-//W3C//DTD SVG 1.1//EN"
 "http://www.w3.org/Graphics/SVG/1.1/DTD/svg11.dtd">
<!-- Generated by graphviz version 2.43.0 (0)
 -->
<!-- Title: t/101_by_value.c Pages: 1 -->
<svg width="695pt" height="247pt"
 viewBox="0.00 0.00 695.00 247.00" xmlns="http://www.w3.org/2000/svg" xmlns:xlink="http://www.w3.org/1999/xlink">
<g id="graph0" class="graph" transform="scale(1 1) rotate(0) translate(4 243)">
<title>t/101_by_value.c</title>
<!-- Node1 -->
<g id="Node000001" class="node">
<title>Node1</title>
<g id="a_Node000001"><a xlink:title="Unit test for passing and returning aggregates and vectors by value.">
<polygon fill="#999999" stroke="#666666" points="408,-239 309,-239 309,-220 408,-220 408,-239"/>
<text text-anchor="middle" x="358.5" y="-227" font-family="Helvetica,sans-Serif" font-size="10.00">t/101_by_value.c</text>
</a>
</g>
</g>
<!-- Node2 -->
<g id="Node000002" class="node">
<title>Node2</title>
<g id="a_Node000002"><a xlink:href="double__tap_8h.html" target="_top" xlink:title="A lightweight, single&#45;header TAP (Test Anything Protocol) library.">
<polygon fill="white" stroke="#666666" points="125,-184 0,-184 0,-165 125,-165 125,-184"/>
<text text-anchor="middle" x="62.5" y="-172" font-family="Helvetica,sans-Serif" font-size="10.00">common/double_tap.h</text>
</a>
</g>
</g>
<!-- Node1&#45;&gt;Node2 -->
<g id="edge1_Node000001_Node000002" class="edge">
<title>Node1&#45;&gt;Node2</title>
<g id="a_edge1_Node000001_Node000002"><a xlink:title=" ">
<path fill="none" stroke="#63b8ff" d="M310.94,-219.98C259.1,-210.7 176.11,-195.84 120.49,-185.88"/>
<polygon fill="#63b8ff" stroke="#63b8ff" points="120.89,-182.4 110.43,-184.08 119.66,-189.29 120.89,-182.4"/>
</a>
</g>
</g>
<!-- Node3 -->
<g id="Node000003" class="node">
<title>Node3</title>
<g id="a_Node000003"><a xlink:href="infix__internals_8h.html" target="_top" xlink:title="Internal data structures, function prototypes, and constants.">
<polygon fill="white" stroke="#666666" points="283.5,-184 143.5,-184 143.5,-165 283.5,-165 283.5,-184"/>
<text text-anchor="middle" x="213.5" y="-172" font-family="Helvetica,sans-Serif" font-size="10.00">common/infix_internals.h</text>
</a>
</g>
</g>
<!-- Node1&#45;&gt;Node3 -->
<g id="edge2_Node000001_Node000003" class="edge">
<title>Node1&#45;&gt;Node3</title>
<g id="a_edge2_Node000001_Node000003"><a xlink:title=" ">
<path fill="none" stroke="#63b8ff" d="M335.2,-219.98C311.25,-211.23 273.72,-197.51 246.67,-187.62"/>
<polygon fill="#63b8ff" stroke="#63b8ff" points="247.81,-184.32 237.22,-184.17 245.41,-190.89 247.81,-184.32"/>
</a>
</g>
</g>
<!-- Node7 -->
<g id="Node000007" class="node">
<title>Node7</title>
<g id="a_Node000007"><a xlink:title=" ">
<polygon fill="#e0e0e0" stroke="#999999" points="335.5,-19 273.5,-19 273.5,0 335.5,0 335.5,-19"/>
<text text-anchor="middle" x="304.5" y="-7" font-family="Helvetica,sans-Serif" font-size="10.00">stdbool.h</text>
</a>
</g>
</g>
<!-- Node1&#45;&gt;Node7 -->
<g id="edge20_Node000001_Node000007" class="edge">
<title>Node1&#45;&gt;Node7</title>
<g id="a_edge20_Node000001_Node000007"><a xlink:title=" ">
<path fill="none" stroke="#63b8ff" d="M351.82,-219.74C335.07,-197.14 291.54,-134.41 276.5,-74 274.46,-65.81 274.16,-63.11 276.5,-55 279.37,-45.06 285.18,-35.2 290.78,-27.29"/>
<polygon fill="#63b8ff" stroke="#63b8ff" points="293.58,-29.39 296.83,-19.3 288,-25.16 293.58,-29.39"/>
</a>
</g>
</g>
<!-- Node9 -->
<g id="Node000009" class="node">
<title>Node9</title>
<g id="a_Node000009"><a xlink:href="infix_8h.html" target="_top" xlink:title="The public interface for the infix FFI library.">
<polygon fill="white" stroke="#666666" points="444,-129 373,-129 373,-110 444,-110 444,-129"/>
<text text-anchor="middle" x="408.5" y="-117" font-family="Helvetica,sans-Serif" font-size="10.00">infix/infix.h</text>
</a>
</g>
</g>
<!-- Node1&#45;&gt;Node9 -->
<g id="edge18_Node000001_Node000009" class="edge">
<title>Node1&#45;&gt;Node9</title>
<g id="a_edge18_Node000001_Node000009"><a xlink:title=" ">
<path fill="none" stroke="#63b8ff" d="M362.59,-219.66C370.8,-201.93 389.41,-161.73 400.25,-138.32"/>
<polygon fill="#63b8ff" stroke="#63b8ff" points="403.47,-139.7 404.49,-129.16 397.11,-136.76 403.47,-139.7"/>
</a>
</g>
</g>
<!-- Node11 -->
<g id="Node000011" class="node">
<title>Node11</title>
<g id="a_Node000011"><a xlink:href="types_8h.html" target="_top" xlink:title="Defines common C structures used across the infix test suite.">
<polygon fill="white" stroke="#666666" points="532,-184 479,-184 479,-165 532,-165 532,-184"/>
<text text-anchor="middle" x="505.5" y="-172" font-family="Helvetica,sans-Serif" font-size="10.00">types.h</text>
</a>
</g>
</g>
<!-- Node1&#45;&gt;Node11 -->
<g id="edge15_Node000001_Node000011" class="edge">
<title>Node1&#45;&gt;Node11</title>
<g id="a_edge15_Node000001_Node000011"><a xlink:title=" ">
<path fill="none" stroke="#63b8ff" d="M382.12,-219.98C406.4,-211.23 444.45,-197.51 471.87,-187.62"/>
<polygon fill="#63b8ff" stroke="#63b8ff" points="473.23,-190.85 481.45,-184.17 470.86,-184.27 473.23,-190.85"/>
</a>
</g>
</g>
<!-- Node13 -->
<g id="Node000013" class="node">
<title>Node13</title>
<g id="a_Node000013"><a xlink:title=" ">
<polygon fill="#e0e0e0" stroke="#999999" points="601,-184 550,-184 550,-165 601,-165 601,-184"/>
<text text-anchor="middle" x="575.5" y="-172" font-family="Helvetica,sans-Serif" font-size="10.00">math.h</text>
</a>
</g>
</g>
<!-- Node1&#45;&gt;Node13 -->
<g id="edge19_Node000001_Node000013" class="edge">
<title>Node1&#45;&gt;Node13</title>
<g id="a_edge19_Node000001_Node000013"><a xlink:title=" ">
<path fill="none" stroke="#63b8ff" d="M393.94,-219.95C428.8,-211.53 483.8,-198.2 540.1,-184.33"/>
<polygon fill="#63b8ff" stroke="#63b8ff" points="541.01,-187.71 549.88,-181.92 539.34,-180.92 541.01,-187.71"/>
</a>
</g>
</g>
<!-- Node4 -->
<g id="Node000004" class="node">
<title>Node4</title>
<g id="a_Node000004"><a xlink:href="infix__config_8h.html" target="_top" xlink:title="Platform, architecture, and ABI detection macros.">
<polygon fill="white" stroke="#666666" points="191,-74 64,-74 64,-55 191,-55 191,-74"/>
<text text-anchor="middle" x="127.5" y="-62" font-family="Helvetica,sans-Serif" font-size="10.00">common/infix_config.h</text>
</a>
</g>
</g>
<!-- Node3&#45;&gt;Node4 -->
<g id="edge3_Node000003_Node000004" class="edge">
<title>Node3&#45;&gt;Node4</title>
<g id="a_edge3_Node000003_Node000004"><a xlink:title=" ">
<path fill="none" stroke="#63b8ff" d="M196.02,-164.99C181.96,-157.34 162.6,-144.86 150.5,-129 140.39,-115.74 134.41,-97.62 131.1,-84.13"/>
<polygon fill="#63b8ff" stroke="#63b8ff" points="134.46,-83.12 128.91,-74.1 127.62,-84.61 134.46,-83.12"/>
</a>
</g>
</g>
<!-- Node5 -->
<g id="Node000005" class="node">
<title>Node5</title>
<g id="a_Node000005"><a xlink:href="platform_8h.html" target="_top" xlink:title="Declares internal, runtime CPU/OS feature detection functions.">
<polygon fill="white" stroke="#666666" points="273,-129 160,-129 160,-110 273,-110 273,-129"/>
<text text-anchor="middle" x="216.5" y="-117" font-family="Helvetica,sans-Serif" font-size="10.00">common/platform.h</text>
</a>
</g>
</g>
<!-- Node3&#45;&gt;Node5 -->
<g id="edge4_Node000003_Node000005" class="edge">
<title>Node3&#45;&gt;Node5</title>
<g id="a_edge4_Node000003_Node000005"><a xlink:title=" ">
<path fill="none" stroke="#63b8ff" d="M214,-164.75C214.39,-157.8 214.95,-147.85 215.45,-139.13"/>
<polygon fill="#63b8ff" stroke="#63b8ff" points="218.94,-139.27 216.01,-129.09 211.95,-138.88 218.94,-139.27"/>
</a>
</g>
</g>
<!-- Node3&#45;&gt;Node9 -->
<g id="edge10_Node000003_Node000009" class="edge">
<title>Node3&#45;&gt;Node9</title>
<g id="a_edge10_Node000003_Node000009"><a xlink:title=" ">
<path fill="none" stroke="#63b8ff" d="M244.83,-164.98C277.99,-155.97 330.5,-141.7 367.06,-131.76"/>
<polygon fill="#63b8ff" stroke="#63b8ff" points="368.19,-135.08 376.92,-129.08 366.36,-128.33 368.19,-135.08"/>
</a>
</g>
</g>
<!-- Node5&#45;&gt;Node4 -->
<g id="edge8_Node000005_Node000004" class="edge">
<title>Node5&#45;&gt;Node4</title>
<g id="a_edge8_Node000005_Node000004"><a xlink:title=" ">
<path fill="none" stroke="#63b8ff" d="M202.2,-109.98C188.4,-101.77 167.26,-89.18 150.99,-79.49"/>
<polygon fill="#63b8ff" stroke="#63b8ff" points="152.44,-76.28 142.06,-74.17 148.86,-82.29 152.44,-76.28"/>
</a>
</g>
</g>
<!-- Node6 -->
<g id="Node000006" class="node">
<title>Node6</title>
<g id="a_Node000006"><a xlink:href="compat__c23_8h.html" target="_top" xlink:title="Provides forward compatibility macros for C23 features.">
<polygon fill="white" stroke="#666666" points="417,-74 286,-74 286,-55 417,-55 417,-74"/>
<text text-anchor="middle" x="351.5" y="-62" font-family="Helvetica,sans-Serif" font-size="10.00">common/compat_c23.h</text>
</a>
</g>
</g>
<!-- Node5&#45;&gt;Node6 -->
<g id="edge5_Node000005_Node000006" class="edge">
<title>Node5&#45;&gt;Node6</title>
<g id="a_edge5_Node000005_Node000006"><a xlink:title=" ">
<path fill="none" stroke="#63b8ff" d="M238.19,-109.98C260.3,-101.3 294.82,-87.75 319.95,-77.88"/>
<polygon fill="#63b8ff" stroke="#63b8ff" points="321.39,-81.08 329.42,-74.17 318.83,-74.57 321.39,-81.08"/>
</a>
</g>
</g>
<!-- Node5&#45;&gt;Node7 -->
<g id="edge9_Node000005_Node000007" class="edge">
<title>Node5&#45;&gt;Node7</title>
<g id="a_edge9_Node000005_Node000007"><a xlink:title=" ">
<path fill="none" stroke="#63b8ff" d="M218.56,-109.93C222.01,-96.96 229.94,-72.07 243.5,-55 253.25,-42.73 267.19,-32.22 279.29,-24.5"/>
<polygon fill="#63b8ff" stroke="#63b8ff" points="281.35,-27.34 288.08,-19.15 277.71,-21.36 281.35,-27.34"/>
</a>
</g>
</g>
<!-- Node6&#45;&gt;Node7 -->
<g id="edge6_Node000006_Node000007" class="edge">
<title>Node6&#45;&gt;Node7</title>
<g id="a_edge6_Node000006_Node000007"><a xlink:title=" ">
<path fill="none" stroke="#63b8ff" d="M343.74,-54.75C337.03,-47.18 327.16,-36.05 318.99,-26.84"/>
<polygon fill="#63b8ff" stroke="#63b8ff" points="321.37,-24.25 312.12,-19.09 316.13,-28.89 321.37,-24.25"/>
</a>
</g>
</g>
<!-- Node8 -->
<g id="Node000008" class="node">
<title>Node8</title>
<g id="a_Node000008"><a xlink:title=" ">
<polygon fill="#e0e0e0" stroke="#999999" points="583.5,-19 527.5,-19 527.5,0 583.5,0 583.5,-19"/>
<text text-anchor="middle" x="555.5" y="-7" font-family="Helvetica,sans-Serif" font-size="10.00">stddef.h</text>
</a>
</g>
</g>
<!-- Node6&#45;&gt;Node8 -->
<g id="edge7_Node000006_Node000008" class="edge">
<title>Node6&#45;&gt;Node8</title>
<g id="a_edge7_Node000006_Node000008"><a xlink:title=" ">
<path fill="none" stroke="#63b8ff" d="M384.28,-54.98C420.67,-45.53 479.32,-30.29 517.65,-20.33"/>
<polygon fill="#63b8ff" stroke="#63b8ff" points="518.6,-23.7 527.4,-17.8 516.84,-16.93 518.6,-23.7"/>
</a>
</g>
</g>
<!-- Node9&#45;&gt;Node6 -->
<g id="edge11_Node000009_Node000006" class="edge">
<title>Node9&#45;&gt;Node6</title>
<g id="a_edge11_Node000009_Node000006"><a xlink:title=" ">
<path fill="none" stroke="#63b8ff" d="M399.34,-109.98C391,-102.23 378.47,-90.58 368.32,-81.14"/>
<polygon fill="#63b8ff" stroke="#63b8ff" points="370.53,-78.42 360.82,-74.17 365.76,-83.54 370.53,-78.42"/>
</a>
</g>
</g>
<!-- Node9&#45;&gt;Node7 -->
<g id="edge12_Node000009_Node000007" class="edge">
<title>Node9&#45;&gt;Node7</title>
<g id="a_edge12_Node000009_Node000007"><a xlink:title=" ">
<path fill="none" stroke="#63b8ff" d="M414.92,-109.92C423.78,-96.94 437.39,-72.03 425.5,-55 407.67,-29.45 373.45,-18.52 345.94,-13.88"/>
<polygon fill="#63b8ff" stroke="#63b8ff" points="346.17,-10.38 335.77,-12.39 345.16,-17.3 346.17,-10.38"/>
</a>
</g>
</g>
<!-- Node9&#45;&gt;Node8 -->
<g id="edge13_Node000009_Node000008" class="edge">
<title>Node9&#45;&gt;Node8</title>
<g id="a_edge13_Node000009_Node000008"><a xlink:title=" ">
<path fill="none" stroke="#63b8ff" d="M444.19,-114.95C472.88,-110.25 512.26,-99.33 536.5,-74 548.05,-61.93 552.61,-43.13 554.4,-29.11"/>
<polygon fill="#63b8ff" stroke="#63b8ff" points="557.88,-29.39 555.31,-19.11 550.91,-28.75 557.88,-29.39"/>
</a>
</g>
</g>
<!-- Node10 -->
<g id="Node000010" class="node">
<title>Node10</title>
<g id="a_Node000010"><a xlink:title=" ">
<polygon fill="#e0e0e0" stroke="#999999" points="527,-74 474,-74 474,-55 527,-55 527,-74"/>
<text text-anchor="middle" x="500.5" y="-62" font-family="Helvetica,sans-Serif" font-size="10.00">stdint.h</text>
</a>
</g>
</g>
<!-- Node9&#45;&gt;Node10 -->
<g id="edge14_Node000009_Node000010" class="edge">
<title>Node9&#45;&gt;Node10</title>
<g id="a_edge14_Node000009_Node000010"><a xlink:title=" ">
<path fill="none" stroke="#63b8ff" d="M423.28,-109.98C437.68,-101.69 459.81,-88.94 476.69,-79.22"/>
<polygon fill="#63b8ff" stroke="#63b8ff" points="478.53,-82.19 485.45,-74.17 475.04,-76.13 478.53,-82.19"/>
</a>
</g>
</g>
<!-- Node11&#45;&gt;Node8 -->
<g id="edge17_Node000011_Node000008" class="edge">
<title>Node11&#45;&gt;Node8</title>
<g id="a_edge17_Node000011_Node000008"><a xlink:title=" ">
<path fill="none" stroke="#63b8ff" d="M511.53,-164.98C522.84,-148.42 546.89,-110.31 555.5,-74 558.97,-59.38 558.74,-42.33 557.77,-29.58"/>
<polygon fill="#63b8ff" stroke="#63b8ff" points="561.22,-28.88 556.76,-19.28 554.26,-29.57 561.22,-28.88"/>
</a>
</g>
</g>
<!-- Node12 -->
<g id="Node000012" class="node">
<title>Node12</title>
<g id="a_Node000012"><a xlink:title=" ">
<polygon fill="#e0e0e0" stroke="#999999" points="687,-129 622,-129 622,-110 687,-110 687,-129"/>
<text text-anchor="middle" x="654.5" y="-117" font-family="Helvetica,sans-Serif" font-size="10.00">inttypes.h</text>
</a>
</g>
</g>
<!-- Node11&#45;&gt;Node12 -->
<g id="edge16_Node000011_Node000012" class="edge">
<title>Node11&#45;&gt;Node12</title>
<g id="a_edge16_Node000011_Node000012"><a xlink:title=" ">
<path fill="none" stroke="#63b8ff" d="M529.44,-164.98C554.06,-156.23 592.62,-142.51 620.42,-132.62"/>
<polygon fill="#63b8ff" stroke="#63b8ff" points="621.88,-135.82 630.12,-129.17 619.53,-129.22 621.88,-135.82"/>
</a>
</g>
</g>
</g>
</svg>
