<?xml version="1.0" encoding="UTF-8" standalone="no"?>
<!DOCTYPE svg PUBLIC "-//W3C//DTD SVG 1.1//EN"
 "http://www.w3.org/Graphics/SVG/1.1/DTD/svg11.dtd">
<!-- Generated by graphviz version 2.43.0 (0)
 -->
<!-- Title: t/101_by_value.c Pages: 1 -->
<svg width="711pt" height="302pt"
 viewBox="0.00 0.00 710.50 302.00" xmlns="http://www.w3.org/2000/svg" xmlns:xlink="http://www.w3.org/1999/xlink">
<g id="graph0" class="graph" transform="scale(1 1) rotate(0) translate(4 298)">
<title>t/101_by_value.c</title>
<!-- Node1 -->
<g id="Node000001" class="node">
<title>Node1</title>
<g id="a_Node000001"><a xlink:title="Unit test for passing and returning aggregates and vectors by value.">
<polygon fill="#999999" stroke="#666666" points="458.5,-294 359.5,-294 359.5,-275 458.5,-275 458.5,-294"/>
<text text-anchor="middle" x="409" y="-282" font-family="Helvetica,sans-Serif" font-size="10.00">t/101_by_value.c</text>
</a>
</g>
</g>
<!-- Node2 -->
<g id="Node000002" class="node">
<title>Node2</title>
<g id="a_Node000002"><a xlink:href="compat__c23_8h.html" target="_top" xlink:title="Provides forward compatibility macros for C23 features.">
<polygon fill="white" stroke="#666666" points="380.5,-129 249.5,-129 249.5,-110 380.5,-110 380.5,-129"/>
<text text-anchor="middle" x="315" y="-117" font-family="Helvetica,sans-Serif" font-size="10.00">common/compat_c23.h</text>
</a>
</g>
</g>
<!-- Node1&#45;&gt;Node2 -->
<g id="edge1_Node000001_Node000002" class="edge">
<title>Node1&#45;&gt;Node2</title>
<g id="a_edge1_Node000001_Node000002"><a xlink:title=" ">
<path fill="none" stroke="#63b8ff" d="M403.95,-274.74C389.09,-248.98 345.35,-173.13 325.28,-138.33"/>
<polygon fill="#63b8ff" stroke="#63b8ff" points="328.11,-136.22 320.08,-129.31 322.04,-139.72 328.11,-136.22"/>
</a>
</g>
</g>
<!-- Node3 -->
<g id="Node000003" class="node">
<title>Node3</title>
<g id="a_Node000003"><a xlink:href="infix_8h.html" target="_top" xlink:title="The public interface for the infix FFI library.">
<polygon fill="white" stroke="#666666" points="316.5,-74 245.5,-74 245.5,-55 316.5,-55 316.5,-74"/>
<text text-anchor="middle" x="281" y="-62" font-family="Helvetica,sans-Serif" font-size="10.00">infix/infix.h</text>
</a>
</g>
</g>
<!-- Node1&#45;&gt;Node3 -->
<g id="edge19_Node000001_Node000003" class="edge">
<title>Node1&#45;&gt;Node3</title>
<g id="a_edge19_Node000001_Node000003"><a xlink:title=" ">
<path fill="none" stroke="#63b8ff" d="M410.79,-274.82C415.93,-247.42 427.95,-161.52 389,-110 374.1,-90.29 348.92,-79.26 326.62,-73.12"/>
<polygon fill="#63b8ff" stroke="#63b8ff" points="327.17,-69.65 316.62,-70.62 325.48,-76.44 327.17,-69.65"/>
</a>
</g>
</g>
<!-- Node4 -->
<g id="Node000004" class="node">
<title>Node4</title>
<g id="a_Node000004"><a xlink:title=" ">
<polygon fill="#e0e0e0" stroke="#999999" points="169,-19 107,-19 107,0 169,0 169,-19"/>
<text text-anchor="middle" x="138" y="-7" font-family="Helvetica,sans-Serif" font-size="10.00">stdbool.h</text>
</a>
</g>
</g>
<!-- Node1&#45;&gt;Node4 -->
<g id="edge21_Node000001_Node000004" class="edge">
<title>Node1&#45;&gt;Node4</title>
<g id="a_edge21_Node000001_Node000004"><a xlink:title=" ">
<path fill="none" stroke="#63b8ff" d="M359.26,-280.83C250.26,-273.61 0,-249.03 0,-175.5 0,-175.5 0,-175.5 0,-118.5 0,-67.94 58.15,-37.51 98.95,-22.39"/>
<polygon fill="#63b8ff" stroke="#63b8ff" points="100.14,-25.68 108.4,-19.04 97.8,-19.08 100.14,-25.68"/>
</a>
</g>
</g>
<!-- Node7 -->
<g id="Node000007" class="node">
<title>Node7</title>
<g id="a_Node000007"><a xlink:href="double__tap_8h.html" target="_top" xlink:title="A lightweight, single&#45;header TAP (Test Anything Protocol) library.">
<polygon fill="white" stroke="#666666" points="633.5,-239 508.5,-239 508.5,-220 633.5,-220 633.5,-239"/>
<text text-anchor="middle" x="571" y="-227" font-family="Helvetica,sans-Serif" font-size="10.00">common/double_tap.h</text>
</a>
</g>
</g>
<!-- Node1&#45;&gt;Node7 -->
<g id="edge8_Node000001_Node000007" class="edge">
<title>Node1&#45;&gt;Node7</title>
<g id="a_edge8_Node000001_Node000007"><a xlink:title=" ">
<path fill="none" stroke="#63b8ff" d="M435.03,-274.98C462.11,-266.13 504.71,-252.19 535.01,-242.28"/>
<polygon fill="#63b8ff" stroke="#63b8ff" points="536.35,-245.52 544.77,-239.08 534.18,-238.87 536.35,-245.52"/>
</a>
</g>
</g>
<!-- Node8 -->
<g id="Node000008" class="node">
<title>Node8</title>
<g id="a_Node000008"><a xlink:href="infix__internals_8h.html" target="_top" xlink:title="Internal data structures, function prototypes, and constants.">
<polygon fill="white" stroke="#666666" points="270,-239 130,-239 130,-220 270,-220 270,-239"/>
<text text-anchor="middle" x="200" y="-227" font-family="Helvetica,sans-Serif" font-size="10.00">common/infix_internals.h</text>
</a>
</g>
</g>
<!-- Node1&#45;&gt;Node8 -->
<g id="edge9_Node000001_Node000008" class="edge">
<title>Node1&#45;&gt;Node8</title>
<g id="a_edge9_Node000001_Node000008"><a xlink:title=" ">
<path fill="none" stroke="#63b8ff" d="M375.42,-274.98C339.65,-265.91 282.88,-251.52 243.66,-241.57"/>
<polygon fill="#63b8ff" stroke="#63b8ff" points="244.4,-238.15 233.84,-239.08 242.68,-244.93 244.4,-238.15"/>
</a>
</g>
</g>
<!-- Node11 -->
<g id="Node000011" class="node">
<title>Node11</title>
<g id="a_Node000011"><a xlink:href="types_8h.html" target="_top" xlink:title="Defines common C structures used across the infix test suite.">
<polygon fill="white" stroke="#666666" points="490.5,-239 437.5,-239 437.5,-220 490.5,-220 490.5,-239"/>
<text text-anchor="middle" x="464" y="-227" font-family="Helvetica,sans-Serif" font-size="10.00">types.h</text>
</a>
</g>
</g>
<!-- Node1&#45;&gt;Node11 -->
<g id="edge16_Node000001_Node000011" class="edge">
<title>Node1&#45;&gt;Node11</title>
<g id="a_edge16_Node000001_Node000011"><a xlink:title=" ">
<path fill="none" stroke="#63b8ff" d="M418.08,-274.75C426.09,-267.03 437.96,-255.6 447.62,-246.28"/>
<polygon fill="#63b8ff" stroke="#63b8ff" points="450.31,-248.55 455.09,-239.09 445.46,-243.51 450.31,-248.55"/>
</a>
</g>
</g>
<!-- Node13 -->
<g id="Node000013" class="node">
<title>Node13</title>
<g id="a_Node000013"><a xlink:title=" ">
<polygon fill="#e0e0e0" stroke="#999999" points="702.5,-239 651.5,-239 651.5,-220 702.5,-220 702.5,-239"/>
<text text-anchor="middle" x="677" y="-227" font-family="Helvetica,sans-Serif" font-size="10.00">math.h</text>
</a>
</g>
</g>
<!-- Node1&#45;&gt;Node13 -->
<g id="edge20_Node000001_Node000013" class="edge">
<title>Node1&#45;&gt;Node13</title>
<g id="a_edge20_Node000001_Node000013"><a xlink:title=" ">
<path fill="none" stroke="#63b8ff" d="M458.47,-274.94C503.72,-266.92 572.74,-254.21 641.31,-239.28"/>
<polygon fill="#63b8ff" stroke="#63b8ff" points="642.4,-242.62 651.42,-237.06 640.9,-235.79 642.4,-242.62"/>
</a>
</g>
</g>
<!-- Node2&#45;&gt;Node3 -->
<g id="edge2_Node000002_Node000003" class="edge">
<title>Node2&#45;&gt;Node3</title>
<g id="a_edge2_Node000002_Node000003"><a xlink:title=" ">
<path fill="none" stroke="#63b8ff" d="M309.39,-109.75C304.68,-102.42 297.83,-91.73 292.03,-82.7"/>
<polygon fill="#63b8ff" stroke="#63b8ff" points="294.86,-80.62 286.51,-74.09 288.96,-84.4 294.86,-80.62"/>
</a>
</g>
</g>
<!-- Node2&#45;&gt;Node4 -->
<g id="edge6_Node000002_Node000004" class="edge">
<title>Node2&#45;&gt;Node4</title>
<g id="a_edge6_Node000002_Node000004"><a xlink:title=" ">
<path fill="none" stroke="#63b8ff" d="M299.1,-109.92C283.02,-101.16 257.55,-87.03 236,-74 209.19,-57.79 179.04,-38.01 159.35,-24.88"/>
<polygon fill="#63b8ff" stroke="#63b8ff" points="161.09,-21.83 150.84,-19.18 157.2,-27.65 161.09,-21.83"/>
</a>
</g>
</g>
<!-- Node5 -->
<g id="Node000005" class="node">
<title>Node5</title>
<g id="a_Node000005"><a xlink:title=" ">
<polygon fill="#e0e0e0" stroke="#999999" points="379,-19 323,-19 323,0 379,0 379,-19"/>
<text text-anchor="middle" x="351" y="-7" font-family="Helvetica,sans-Serif" font-size="10.00">stddef.h</text>
</a>
</g>
</g>
<!-- Node2&#45;&gt;Node5 -->
<g id="edge7_Node000002_Node000005" class="edge">
<title>Node2&#45;&gt;Node5</title>
<g id="a_edge7_Node000002_Node000005"><a xlink:title=" ">
<path fill="none" stroke="#63b8ff" d="M317.95,-109.66C323.8,-92.09 337.02,-52.45 344.85,-28.95"/>
<polygon fill="#63b8ff" stroke="#63b8ff" points="348.27,-29.75 348.11,-19.16 341.63,-27.54 348.27,-29.75"/>
</a>
</g>
</g>
<!-- Node3&#45;&gt;Node4 -->
<g id="edge3_Node000003_Node000004" class="edge">
<title>Node3&#45;&gt;Node4</title>
<g id="a_edge3_Node000003_Node000004"><a xlink:title=" ">
<path fill="none" stroke="#63b8ff" d="M258.02,-54.98C234.5,-46.27 197.71,-32.63 171.06,-22.75"/>
<polygon fill="#63b8ff" stroke="#63b8ff" points="171.99,-19.36 161.39,-19.17 169.55,-25.93 171.99,-19.36"/>
</a>
</g>
</g>
<!-- Node3&#45;&gt;Node5 -->
<g id="edge4_Node000003_Node000005" class="edge">
<title>Node3&#45;&gt;Node5</title>
<g id="a_edge4_Node000003_Node000005"><a xlink:title=" ">
<path fill="none" stroke="#63b8ff" d="M292.25,-54.98C302.8,-47 318.8,-34.88 331.44,-25.31"/>
<polygon fill="#63b8ff" stroke="#63b8ff" points="333.69,-28 339.55,-19.17 329.46,-22.42 333.69,-28"/>
</a>
</g>
</g>
<!-- Node6 -->
<g id="Node000006" class="node">
<title>Node6</title>
<g id="a_Node000006"><a xlink:title=" ">
<polygon fill="#e0e0e0" stroke="#999999" points="304.5,-19 251.5,-19 251.5,0 304.5,0 304.5,-19"/>
<text text-anchor="middle" x="278" y="-7" font-family="Helvetica,sans-Serif" font-size="10.00">stdint.h</text>
</a>
</g>
</g>
<!-- Node3&#45;&gt;Node6 -->
<g id="edge5_Node000003_Node000006" class="edge">
<title>Node3&#45;&gt;Node6</title>
<g id="a_edge5_Node000003_Node000006"><a xlink:title=" ">
<path fill="none" stroke="#63b8ff" d="M280.5,-54.75C280.11,-47.8 279.55,-37.85 279.05,-29.13"/>
<polygon fill="#63b8ff" stroke="#63b8ff" points="282.55,-28.88 278.49,-19.09 275.56,-29.27 282.55,-28.88"/>
</a>
</g>
</g>
<!-- Node8&#45;&gt;Node3 -->
<g id="edge15_Node000008_Node000003" class="edge">
<title>Node8&#45;&gt;Node3</title>
<g id="a_edge15_Node000008_Node000003"><a xlink:title=" ">
<path fill="none" stroke="#63b8ff" d="M181.66,-219.88C143.36,-200.73 61.12,-152.94 95,-110 112.14,-88.28 185.78,-75.98 235.1,-70.04"/>
<polygon fill="#63b8ff" stroke="#63b8ff" points="235.7,-73.5 245.23,-68.87 234.89,-66.54 235.7,-73.5"/>
</a>
</g>
</g>
<!-- Node9 -->
<g id="Node000009" class="node">
<title>Node9</title>
<g id="a_Node000009"><a xlink:href="infix__config_8h.html" target="_top" xlink:title="Platform, architecture, and ABI detection macros.">
<polygon fill="white" stroke="#666666" points="231.5,-129 104.5,-129 104.5,-110 231.5,-110 231.5,-129"/>
<text text-anchor="middle" x="168" y="-117" font-family="Helvetica,sans-Serif" font-size="10.00">common/infix_config.h</text>
</a>
</g>
</g>
<!-- Node8&#45;&gt;Node9 -->
<g id="edge10_Node000008_Node000009" class="edge">
<title>Node8&#45;&gt;Node9</title>
<g id="a_edge10_Node000008_Node000009"><a xlink:title=" ">
<path fill="none" stroke="#63b8ff" d="M191.25,-219.9C183.44,-211.56 172.55,-198.13 168,-184 163.35,-169.55 163.7,-152.28 165.02,-139.4"/>
<polygon fill="#63b8ff" stroke="#63b8ff" points="168.5,-139.76 166.32,-129.39 161.56,-138.85 168.5,-139.76"/>
</a>
</g>
</g>
<!-- Node10 -->
<g id="Node000010" class="node">
<title>Node10</title>
<g id="a_Node000010"><a xlink:href="platform_8h.html" target="_top" xlink:title="Declares internal, runtime CPU/OS feature detection functions.">
<polygon fill="white" stroke="#666666" points="290.5,-184 177.5,-184 177.5,-165 290.5,-165 290.5,-184"/>
<text text-anchor="middle" x="234" y="-172" font-family="Helvetica,sans-Serif" font-size="10.00">common/platform.h</text>
</a>
</g>
</g>
<!-- Node8&#45;&gt;Node10 -->
<g id="edge11_Node000008_Node000010" class="edge">
<title>Node8&#45;&gt;Node10</title>
<g id="a_edge11_Node000008_Node000010"><a xlink:title=" ">
<path fill="none" stroke="#63b8ff" d="M205.61,-219.75C210.32,-212.42 217.17,-201.73 222.97,-192.7"/>
<polygon fill="#63b8ff" stroke="#63b8ff" points="226.04,-194.4 228.49,-184.09 220.14,-190.62 226.04,-194.4"/>
</a>
</g>
</g>
<!-- Node10&#45;&gt;Node2 -->
<g id="edge12_Node000010_Node000002" class="edge">
<title>Node10&#45;&gt;Node2</title>
<g id="a_edge12_Node000010_Node000002"><a xlink:title=" ">
<path fill="none" stroke="#63b8ff" d="M247.01,-164.98C259.46,-156.84 278.46,-144.41 293.21,-134.76"/>
<polygon fill="#63b8ff" stroke="#63b8ff" points="295.3,-137.57 301.75,-129.17 291.46,-131.72 295.3,-137.57"/>
</a>
</g>
</g>
<!-- Node10&#45;&gt;Node4 -->
<g id="edge14_Node000010_Node000004" class="edge">
<title>Node10&#45;&gt;Node4</title>
<g id="a_edge14_Node000010_Node000004"><a xlink:title=" ">
<path fill="none" stroke="#63b8ff" d="M177.43,-170.68C147.79,-165.97 113.82,-154.79 95,-129 71.57,-96.9 103.02,-50.71 123.27,-26.58"/>
<polygon fill="#63b8ff" stroke="#63b8ff" points="125.93,-28.86 129.87,-19.02 120.66,-24.26 125.93,-28.86"/>
</a>
</g>
</g>
<!-- Node10&#45;&gt;Node9 -->
<g id="edge13_Node000010_Node000009" class="edge">
<title>Node10&#45;&gt;Node9</title>
<g id="a_edge13_Node000010_Node000009"><a xlink:title=" ">
<path fill="none" stroke="#63b8ff" d="M223.4,-164.98C213.54,-157.07 198.65,-145.11 186.78,-135.58"/>
<polygon fill="#63b8ff" stroke="#63b8ff" points="188.79,-132.7 178.8,-129.17 184.4,-138.16 188.79,-132.7"/>
</a>
</g>
</g>
<!-- Node11&#45;&gt;Node5 -->
<g id="edge18_Node000011_Node000005" class="edge">
<title>Node11&#45;&gt;Node5</title>
<g id="a_edge18_Node000011_Node000005"><a xlink:title=" ">
<path fill="none" stroke="#63b8ff" d="M461.93,-219.82C456.95,-199.73 443.2,-148.82 423,-110 406.61,-78.51 381.09,-45.89 365.24,-26.93"/>
<polygon fill="#63b8ff" stroke="#63b8ff" points="367.85,-24.6 358.71,-19.24 362.51,-29.13 367.85,-24.6"/>
</a>
</g>
</g>
<!-- Node12 -->
<g id="Node000012" class="node">
<title>Node12</title>
<g id="a_Node000012"><a xlink:title=" ">
<polygon fill="#e0e0e0" stroke="#999999" points="540.5,-184 475.5,-184 475.5,-165 540.5,-165 540.5,-184"/>
<text text-anchor="middle" x="508" y="-172" font-family="Helvetica,sans-Serif" font-size="10.00">inttypes.h</text>
</a>
</g>
</g>
<!-- Node11&#45;&gt;Node12 -->
<g id="edge17_Node000011_Node000012" class="edge">
<title>Node11&#45;&gt;Node12</title>
<g id="a_edge17_Node000011_Node000012"><a xlink:title=" ">
<path fill="none" stroke="#63b8ff" d="M471.27,-219.75C477.54,-212.18 486.79,-201.05 494.43,-191.84"/>
<polygon fill="#63b8ff" stroke="#63b8ff" points="497.17,-194.02 500.87,-184.09 491.79,-189.55 497.17,-194.02"/>
</a>
</g>
</g>
</g>
</svg>
