<?xml version="1.0" encoding="UTF-8" standalone="no"?>
<!DOCTYPE svg PUBLIC "-//W3C//DTD SVG 1.1//EN"
 "http://www.w3.org/Graphics/SVG/1.1/DTD/svg11.dtd">
<!-- Generated by graphviz version 2.43.0 (0)
 -->
<!-- Title: t/101_by_value.c Pages: 1 -->
<!--zoomable 302 -->

<svg id="main" version="1.1" xmlns="http://www.w3.org/2000/svg" xmlns:xlink="http://www.w3.org/1999/xlink" xml:space="preserve" onload="init(evt)">
<style type="text/css"><![CDATA[
.node, .edge {opacity: 0.7;}
.node.selected, .edge.selected {opacity: 1;}
.edge:hover path { stroke: red; }
.edge:hover polygon { stroke: red; fill: red; }
]]></style>

<defs>
  <circle id="rim" cx="0" cy="0" r="7"/>
  <circle id="rim2" cx="0" cy="0" r="3.5"/>
  <g id="zoomPlus">
    <use xlink:href="#rim" fill="#404040"><set attributeName="fill" to="#808080" begin="zoomplus.mouseover" end="zoomplus.mouseout"/></use>
    <path d="M-4,0h8M0,-4v8" fill="none" stroke="white" stroke-width="1.5" pointer-events="none"/>
  </g>
  <g id="zoomMin">
    <use xlink:href="#rim" fill="#404040"><set attributeName="fill" to="#808080" begin="zoomminus.mouseover" end="zoomminus.mouseout"/></use>
    <path d="M-4,0h8" fill="none" stroke="white" stroke-width="1.5" pointer-events="none"/>
  </g>
  <g id="arrowUp" transform="translate(30 24)">
    <use xlink:href="#rim"/>
    <path pointer-events="none" fill="none" stroke="white" stroke-width="1.5" d="M0,-3.0v7 M-2.5,-0.5L0,-3.0L2.5,-0.5"/>
  </g>
  <g id="arrowRight" transform="rotate(90) translate(36 -43)">
    <use xlink:href="#rim"/>
    <path pointer-events="none" fill="none" stroke="white" stroke-width="1.5" d="M0,-3.0v7 M-2.5,-0.5L0,-3.0L2.5,-0.5"/>
  </g>
  <g id="arrowDown" transform="rotate(180) translate(-30 -48)">
    <use xlink:href="#rim"/>
    <path pointer-events="none" fill="none" stroke="white" stroke-width="1.5" d="M0,-3.0v7 M-2.5,-0.5L0,-3.0L2.5,-0.5"/>
  </g>
  <g id="arrowLeft" transform="rotate(270) translate(-36 17)">
    <use xlink:href="#rim"/>
    <path pointer-events="none" fill="none" stroke="white" stroke-width="1.5" d="M0,-3.0v7 M-2.5,-0.5L0,-3.0L2.5,-0.5"/>
  </g>
  <g id="resetDef">
    <use xlink:href="#rim2" fill="#404040"><set attributeName="fill" to="#808080" begin="reset.mouseover" end="reset.mouseout"/></use>
  </g>
</defs>
<script type="application/ecmascript">
var viewWidth = 721;
var viewHeight = 302;
var sectionId = 'dynsection-0';
</script>
<script type="application/ecmascript" xlink:href="svg.min.js"/>
<svg id="graph" class="graph">
<g id="viewport">
<title>t/101_by_value.c</title>
<!-- Node1 -->
<g id="Node000001" class="node">
<title>Node1</title>
<g id="a_Node000001"><a xlink:title="Unit test for passing and returning aggregates and vectors by value.">
<polygon fill="#999999" stroke="#666666" points="469,-294 370,-294 370,-275 469,-275 469,-294"/>
<text text-anchor="middle" x="419.5" y="-282" font-family="Helvetica,sans-Serif" font-size="10.00">t/101_by_value.c</text>
</a>
</g>
</g>
<!-- Node2 -->
<g id="Node000002" class="node">
<title>Node2</title>
<g id="a_Node000002"><a xlink:href="compat__c23_8h.html" target="_top" xlink:title="Provides forward compatibility macros for C23 features.">
<polygon fill="white" stroke="#666666" points="315,-129 184,-129 184,-110 315,-110 315,-129"/>
<text text-anchor="middle" x="249.5" y="-117" font-family="Helvetica,sans-Serif" font-size="10.00">common/compat_c23.h</text>
</a>
</g>
</g>
<!-- Node1&#45;&gt;Node2 -->
<g id="edge1_Node000001_Node000002" class="edge">
<title>Node1&#45;&gt;Node2</title>
<g id="a_edge1_Node000001_Node000002"><a xlink:title=" ">
<path fill="none" stroke="#63b8ff" d="M392.66,-274.89C373.37,-267.67 347.66,-255.81 329.5,-239 301.42,-213.01 307.37,-196.4 285.5,-165 278.76,-155.32 270.52,-145.04 263.63,-136.81"/>
<polygon fill="#63b8ff" stroke="#63b8ff" points="266.2,-134.43 257.06,-129.08 260.87,-138.96 266.2,-134.43"/>
</a>
</g>
</g>
<!-- Node4 -->
<g id="Node000004" class="node">
<title>Node4</title>
<g id="a_Node000004"><a xlink:href="infix_8h.html" target="_top" xlink:title="The public interface for the infix FFI library.">
<polygon fill="white" stroke="#666666" points="443,-74 372,-74 372,-55 443,-55 443,-74"/>
<text text-anchor="middle" x="407.5" y="-62" font-family="Helvetica,sans-Serif" font-size="10.00">infix/infix.h</text>
</a>
</g>
</g>
<!-- Node1&#45;&gt;Node4 -->
<g id="edge21_Node000001_Node000004" class="edge">
<title>Node1&#45;&gt;Node4</title>
<g id="a_edge21_Node000001_Node000004"><a xlink:title=" ">
<path fill="none" stroke="#63b8ff" d="M419.03,-274.95C417.27,-242.95 411.03,-129.68 408.54,-84.4"/>
<polygon fill="#63b8ff" stroke="#63b8ff" points="412.02,-84.02 407.98,-74.22 405.04,-84.4 412.02,-84.02"/>
</a>
</g>
</g>
<!-- Node5 -->
<g id="Node000005" class="node">
<title>Node5</title>
<g id="a_Node000005"><a xlink:title=" ">
<polygon fill="#e0e0e0" stroke="#999999" points="321.5,-19 259.5,-19 259.5,0 321.5,0 321.5,-19"/>
<text text-anchor="middle" x="290.5" y="-7" font-family="Helvetica,sans-Serif" font-size="10.00">stdbool.h</text>
</a>
</g>
</g>
<!-- Node1&#45;&gt;Node5 -->
<g id="edge23_Node000001_Node000005" class="edge">
<title>Node1&#45;&gt;Node5</title>
<g id="a_edge23_Node000001_Node000005"><a xlink:title=" ">
<path fill="none" stroke="#63b8ff" d="M407.62,-274.88C386.25,-258.26 343.5,-219.52 343.5,-175.5 343.5,-175.5 343.5,-175.5 343.5,-118.5 343.5,-83.02 320.17,-47.08 304.46,-26.9"/>
<polygon fill="#63b8ff" stroke="#63b8ff" points="307.11,-24.61 298.09,-19.04 301.67,-29.01 307.11,-24.61"/>
</a>
</g>
</g>
<!-- Node8 -->
<g id="Node000008" class="node">
<title>Node8</title>
<g id="a_Node000008"><a xlink:href="double__tap_8h.html" target="_top" xlink:title="A lightweight, single&#45;header TAP (Test Anything Protocol) library.">
<polygon fill="white" stroke="#666666" points="644,-239 519,-239 519,-220 644,-220 644,-239"/>
<text text-anchor="middle" x="581.5" y="-227" font-family="Helvetica,sans-Serif" font-size="10.00">common/double_tap.h</text>
</a>
</g>
</g>
<!-- Node1&#45;&gt;Node8 -->
<g id="edge9_Node000001_Node000008" class="edge">
<title>Node1&#45;&gt;Node8</title>
<g id="a_edge9_Node000001_Node000008"><a xlink:title=" ">
<path fill="none" stroke="#63b8ff" d="M445.53,-274.98C472.61,-266.13 515.21,-252.19 545.51,-242.28"/>
<polygon fill="#63b8ff" stroke="#63b8ff" points="546.85,-245.52 555.27,-239.08 544.68,-238.87 546.85,-245.52"/>
</a>
</g>
</g>
<!-- Node9 -->
<g id="Node000009" class="node">
<title>Node9</title>
<g id="a_Node000009"><a xlink:href="infix__internals_8h.html" target="_top" xlink:title="Internal data structures, function prototypes, and constants.">
<polygon fill="white" stroke="#666666" points="277.5,-239 137.5,-239 137.5,-220 277.5,-220 277.5,-239"/>
<text text-anchor="middle" x="207.5" y="-227" font-family="Helvetica,sans-Serif" font-size="10.00">common/infix_internals.h</text>
</a>
</g>
</g>
<!-- Node1&#45;&gt;Node9 -->
<g id="edge10_Node000001_Node000009" class="edge">
<title>Node1&#45;&gt;Node9</title>
<g id="a_edge10_Node000001_Node000009"><a xlink:title=" ">
<path fill="none" stroke="#63b8ff" d="M385.44,-274.98C349.08,-265.89 291.33,-251.46 251.53,-241.51"/>
<polygon fill="#63b8ff" stroke="#63b8ff" points="252.38,-238.11 241.83,-239.08 250.68,-244.9 252.38,-238.11"/>
</a>
</g>
</g>
<!-- Node12 -->
<g id="Node000012" class="node">
<title>Node12</title>
<g id="a_Node000012"><a xlink:href="types_8h.html" target="_top" xlink:title="Defines common C structures used across the infix test suite.">
<polygon fill="white" stroke="#666666" points="501,-239 448,-239 448,-220 501,-220 501,-239"/>
<text text-anchor="middle" x="474.5" y="-227" font-family="Helvetica,sans-Serif" font-size="10.00">types.h</text>
</a>
</g>
</g>
<!-- Node1&#45;&gt;Node12 -->
<g id="edge18_Node000001_Node000012" class="edge">
<title>Node1&#45;&gt;Node12</title>
<g id="a_edge18_Node000001_Node000012"><a xlink:title=" ">
<path fill="none" stroke="#63b8ff" d="M428.58,-274.75C436.59,-267.03 448.46,-255.6 458.12,-246.28"/>
<polygon fill="#63b8ff" stroke="#63b8ff" points="460.81,-248.55 465.59,-239.09 455.96,-243.51 460.81,-248.55"/>
</a>
</g>
</g>
<!-- Node14 -->
<g id="Node000014" class="node">
<title>Node14</title>
<g id="a_Node000014"><a xlink:title=" ">
<polygon fill="#e0e0e0" stroke="#999999" points="713,-239 662,-239 662,-220 713,-220 713,-239"/>
<text text-anchor="middle" x="687.5" y="-227" font-family="Helvetica,sans-Serif" font-size="10.00">math.h</text>
</a>
</g>
</g>
<!-- Node1&#45;&gt;Node14 -->
<g id="edge22_Node000001_Node000014" class="edge">
<title>Node1&#45;&gt;Node14</title>
<g id="a_edge22_Node000001_Node000014"><a xlink:title=" ">
<path fill="none" stroke="#63b8ff" d="M468.97,-274.94C514.22,-266.92 583.24,-254.21 651.81,-239.28"/>
<polygon fill="#63b8ff" stroke="#63b8ff" points="652.9,-242.62 661.92,-237.06 651.4,-235.79 652.9,-242.62"/>
</a>
</g>
</g>
<!-- Node3 -->
<g id="Node000003" class="node">
<title>Node3</title>
<g id="a_Node000003"><a xlink:href="infix__config_8h.html" target="_top" xlink:title="Platform, architecture, and ABI detection macros.">
<polygon fill="white" stroke="#666666" points="127,-74 0,-74 0,-55 127,-55 127,-74"/>
<text text-anchor="middle" x="63.5" y="-62" font-family="Helvetica,sans-Serif" font-size="10.00">common/infix_config.h</text>
</a>
</g>
</g>
<!-- Node2&#45;&gt;Node3 -->
<g id="edge2_Node000002_Node000003" class="edge">
<title>Node2&#45;&gt;Node3</title>
<g id="a_edge2_Node000002_Node000003"><a xlink:title=" ">
<path fill="none" stroke="#63b8ff" d="M219.62,-109.98C188.12,-101.01 138.33,-86.82 103.47,-76.89"/>
<polygon fill="#63b8ff" stroke="#63b8ff" points="104.19,-73.46 93.62,-74.08 102.28,-80.19 104.19,-73.46"/>
</a>
</g>
</g>
<!-- Node2&#45;&gt;Node4 -->
<g id="edge3_Node000002_Node000004" class="edge">
<title>Node2&#45;&gt;Node4</title>
<g id="a_edge3_Node000002_Node000004"><a xlink:title=" ">
<path fill="none" stroke="#63b8ff" d="M274.89,-109.98C301.3,-101.13 342.85,-87.19 372.39,-77.28"/>
<polygon fill="#63b8ff" stroke="#63b8ff" points="373.55,-80.58 381.92,-74.08 371.32,-73.94 373.55,-80.58"/>
</a>
</g>
</g>
<!-- Node2&#45;&gt;Node5 -->
<g id="edge7_Node000002_Node000005" class="edge">
<title>Node2&#45;&gt;Node5</title>
<g id="a_edge7_Node000002_Node000005"><a xlink:title=" ">
<path fill="none" stroke="#63b8ff" d="M252.86,-109.66C259.56,-92.01 274.71,-52.09 283.62,-28.64"/>
<polygon fill="#63b8ff" stroke="#63b8ff" points="286.94,-29.75 287.21,-19.16 280.39,-27.27 286.94,-29.75"/>
</a>
</g>
</g>
<!-- Node6 -->
<g id="Node000006" class="node">
<title>Node6</title>
<g id="a_Node000006"><a xlink:title=" ">
<polygon fill="#e0e0e0" stroke="#999999" points="505.5,-19 449.5,-19 449.5,0 505.5,0 505.5,-19"/>
<text text-anchor="middle" x="477.5" y="-7" font-family="Helvetica,sans-Serif" font-size="10.00">stddef.h</text>
</a>
</g>
</g>
<!-- Node2&#45;&gt;Node6 -->
<g id="edge8_Node000002_Node000006" class="edge">
<title>Node2&#45;&gt;Node6</title>
<g id="a_edge8_Node000002_Node000006"><a xlink:title=" ">
<path fill="none" stroke="#63b8ff" d="M315.14,-110.7C365.96,-103.47 431.03,-91.22 451.5,-74 464.73,-62.86 471.32,-43.94 474.54,-29.63"/>
<polygon fill="#63b8ff" stroke="#63b8ff" points="478.06,-29.87 476.47,-19.39 471.18,-28.58 478.06,-29.87"/>
</a>
</g>
</g>
<!-- Node4&#45;&gt;Node5 -->
<g id="edge4_Node000004_Node000005" class="edge">
<title>Node4&#45;&gt;Node5</title>
<g id="a_edge4_Node000004_Node000005"><a xlink:title=" ">
<path fill="none" stroke="#63b8ff" d="M388.7,-54.98C369.88,-46.46 340.68,-33.23 319,-23.41"/>
<polygon fill="#63b8ff" stroke="#63b8ff" points="320.19,-20.11 309.64,-19.17 317.3,-26.48 320.19,-20.11"/>
</a>
</g>
</g>
<!-- Node4&#45;&gt;Node6 -->
<g id="edge5_Node000004_Node000006" class="edge">
<title>Node4&#45;&gt;Node6</title>
<g id="a_edge5_Node000004_Node000006"><a xlink:title=" ">
<path fill="none" stroke="#63b8ff" d="M418.75,-54.98C429.3,-47 445.3,-34.88 457.94,-25.31"/>
<polygon fill="#63b8ff" stroke="#63b8ff" points="460.19,-28 466.05,-19.17 455.96,-22.42 460.19,-28"/>
</a>
</g>
</g>
<!-- Node7 -->
<g id="Node000007" class="node">
<title>Node7</title>
<g id="a_Node000007"><a xlink:title=" ">
<polygon fill="#e0e0e0" stroke="#999999" points="431,-19 378,-19 378,0 431,0 431,-19"/>
<text text-anchor="middle" x="404.5" y="-7" font-family="Helvetica,sans-Serif" font-size="10.00">stdint.h</text>
</a>
</g>
</g>
<!-- Node4&#45;&gt;Node7 -->
<g id="edge6_Node000004_Node000007" class="edge">
<title>Node4&#45;&gt;Node7</title>
<g id="a_edge6_Node000004_Node000007"><a xlink:title=" ">
<path fill="none" stroke="#63b8ff" d="M407,-54.75C406.61,-47.8 406.05,-37.85 405.55,-29.13"/>
<polygon fill="#63b8ff" stroke="#63b8ff" points="409.05,-28.88 404.99,-19.09 402.06,-29.27 409.05,-28.88"/>
</a>
</g>
</g>
<!-- Node9&#45;&gt;Node3 -->
<g id="edge11_Node000009_Node000003" class="edge">
<title>Node9&#45;&gt;Node3</title>
<g id="a_edge11_Node000009_Node000003"><a xlink:title=" ">
<path fill="none" stroke="#63b8ff" d="M137.16,-220.89C113.39,-214.7 88.97,-203.64 73.5,-184 50.9,-155.31 54.76,-109.68 59.3,-84.23"/>
<polygon fill="#63b8ff" stroke="#63b8ff" points="62.8,-84.58 61.34,-74.09 55.94,-83.2 62.8,-84.58"/>
</a>
</g>
</g>
<!-- Node9&#45;&gt;Node4 -->
<g id="edge16_Node000009_Node000004" class="edge">
<title>Node9&#45;&gt;Node4</title>
<g id="a_edge16_Node000009_Node000004"><a xlink:title=" ">
<path fill="none" stroke="#63b8ff" d="M225.32,-219.97C241.66,-211.77 266.18,-198.52 285.5,-184 328.36,-151.78 371.8,-105.65 393.43,-81.55"/>
<polygon fill="#63b8ff" stroke="#63b8ff" points="396.11,-83.8 400.14,-74 390.88,-79.15 396.11,-83.8"/>
</a>
</g>
</g>
<!-- Node10 -->
<g id="Node000010" class="node">
<title>Node10</title>
<g id="a_Node000010"><a xlink:href="platform_8h.html" target="_top" xlink:title="Declares internal, runtime CPU/OS feature detection functions.">
<polygon fill="white" stroke="#666666" points="196,-184 83,-184 83,-165 196,-165 196,-184"/>
<text text-anchor="middle" x="139.5" y="-172" font-family="Helvetica,sans-Serif" font-size="10.00">common/platform.h</text>
</a>
</g>
</g>
<!-- Node9&#45;&gt;Node10 -->
<g id="edge12_Node000009_Node000010" class="edge">
<title>Node9&#45;&gt;Node10</title>
<g id="a_edge12_Node000009_Node000010"><a xlink:title=" ">
<path fill="none" stroke="#63b8ff" d="M196.57,-219.98C186.42,-212.07 171.08,-200.11 158.85,-190.58"/>
<polygon fill="#63b8ff" stroke="#63b8ff" points="160.66,-187.56 150.62,-184.17 156.36,-193.08 160.66,-187.56"/>
</a>
</g>
</g>
<!-- Node11 -->
<g id="Node000011" class="node">
<title>Node11</title>
<g id="a_Node000011"><a xlink:title=" ">
<polygon fill="#e0e0e0" stroke="#999999" points="277,-184 214,-184 214,-165 277,-165 277,-184"/>
<text text-anchor="middle" x="245.5" y="-172" font-family="Helvetica,sans-Serif" font-size="10.00">pthread.h</text>
</a>
</g>
</g>
<!-- Node9&#45;&gt;Node11 -->
<g id="edge17_Node000009_Node000011" class="edge">
<title>Node9&#45;&gt;Node11</title>
<g id="a_edge17_Node000009_Node000011"><a xlink:title=" ">
<path fill="none" stroke="#63b8ff" d="M213.77,-219.75C219.09,-212.34 226.86,-201.5 233.38,-192.41"/>
<polygon fill="#63b8ff" stroke="#63b8ff" points="236.36,-194.26 239.34,-184.09 230.67,-190.18 236.36,-194.26"/>
</a>
</g>
</g>
<!-- Node10&#45;&gt;Node2 -->
<g id="edge13_Node000010_Node000002" class="edge">
<title>Node10&#45;&gt;Node2</title>
<g id="a_edge13_Node000010_Node000002"><a xlink:title=" ">
<path fill="none" stroke="#63b8ff" d="M157.17,-164.98C174.79,-156.5 202.08,-143.35 222.43,-133.54"/>
<polygon fill="#63b8ff" stroke="#63b8ff" points="224.02,-136.66 231.51,-129.17 220.98,-130.36 224.02,-136.66"/>
</a>
</g>
</g>
<!-- Node10&#45;&gt;Node3 -->
<g id="edge14_Node000010_Node000003" class="edge">
<title>Node10&#45;&gt;Node3</title>
<g id="a_edge14_Node000010_Node000003"><a xlink:title=" ">
<path fill="none" stroke="#63b8ff" d="M133.28,-164.66C120.64,-146.69 91.75,-105.64 75.38,-82.38"/>
<polygon fill="#63b8ff" stroke="#63b8ff" points="78.21,-80.32 69.59,-74.16 72.49,-84.35 78.21,-80.32"/>
</a>
</g>
</g>
<!-- Node10&#45;&gt;Node5 -->
<g id="edge15_Node000010_Node000005" class="edge">
<title>Node10&#45;&gt;Node5</title>
<g id="a_edge15_Node000010_Node000005"><a xlink:title=" ">
<path fill="none" stroke="#63b8ff" d="M143.14,-164.68C148.71,-151.83 160.2,-127.58 174.5,-110 202.83,-75.17 244.39,-42.91 269.31,-25.04"/>
<polygon fill="#63b8ff" stroke="#63b8ff" points="271.54,-27.76 277.69,-19.13 267.5,-22.04 271.54,-27.76"/>
</a>
</g>
</g>
<!-- Node12&#45;&gt;Node6 -->
<g id="edge20_Node000012_Node000006" class="edge">
<title>Node12&#45;&gt;Node6</title>
<g id="a_edge20_Node000012_Node000006"><a xlink:title=" ">
<path fill="none" stroke="#63b8ff" d="M488.57,-219.89C499.85,-212.1 514.84,-199.48 521.5,-184 544.99,-129.42 508.84,-59.57 489.04,-27.72"/>
<polygon fill="#63b8ff" stroke="#63b8ff" points="491.86,-25.63 483.5,-19.12 485.97,-29.42 491.86,-25.63"/>
</a>
</g>
</g>
<!-- Node13 -->
<g id="Node000013" class="node">
<title>Node13</title>
<g id="a_Node000013"><a xlink:title=" ">
<polygon fill="#e0e0e0" stroke="#999999" points="513,-184 448,-184 448,-165 513,-165 513,-184"/>
<text text-anchor="middle" x="480.5" y="-172" font-family="Helvetica,sans-Serif" font-size="10.00">inttypes.h</text>
</a>
</g>
</g>
<!-- Node12&#45;&gt;Node13 -->
<g id="edge19_Node000012_Node000013" class="edge">
<title>Node12&#45;&gt;Node13</title>
<g id="a_edge19_Node000012_Node000013"><a xlink:title=" ">
<path fill="none" stroke="#63b8ff" d="M475.49,-219.75C476.28,-212.8 477.4,-202.85 478.39,-194.13"/>
<polygon fill="#63b8ff" stroke="#63b8ff" points="481.88,-194.42 479.53,-184.09 474.92,-193.63 481.88,-194.42"/>
</a>
</g>
</g>
</g>
</svg>

<g id="navigator" transform="translate(0 0)" fill="#404254">
  <rect fill="#f2f5e9" fill-opacity="0.5" stroke="#606060" stroke-width=".5" x="0" y="0" width="60" height="60"/>
  <use id="zoomplus" xlink:href="#zoomPlus" x="17" y="9" onmousedown="handleZoom(evt,'in')"/>
  <use id="zoomminus" xlink:href="#zoomMin" x="42" y="9" onmousedown="handleZoom(evt,'out')"/>
  <use id="reset" xlink:href="#resetDef" x="30" y="36" onmousedown="handleReset()"/>
   <use id="arrowup" xlink:href="#arrowUp" x="0" y="0" onmousedown="handlePan(0,-1)"/>
  <use id="arrowright" xlink:href="#arrowRight" x="0" y="0" onmousedown="handlePan(1,0)"/>
  <use id="arrowdown" xlink:href="#arrowDown" x="0" y="0" onmousedown="handlePan(0,1)"/>
  <use id="arrowleft" xlink:href="#arrowLeft" x="0" y="0" onmousedown="handlePan(-1,0)"/>
</g>
<svg viewBox="0 0 15 15" width="100%" height="30px" preserveAspectRatio="xMaxYMin meet">
 <g id="arrow_out" transform="scale(0.3 0.3)">
  <a xlink:href="101__by__value_8c__incl_org.svg" target="_base">
   <rect id="button" ry="5" rx="5" y="6" x="6" height="38" width="38"
        fill="#f2f5e9" fill-opacity="0.5" stroke="#606060" stroke-width="1.0"/>
   <path id="arrow"
     d="M 11.500037,31.436501 C 11.940474,20.09759 22.043105,11.32322 32.158766,21.979434 L 37.068811,17.246167 C 37.068811,17.246167 37.088388,32 37.088388,32 L 22.160133,31.978069 C 22.160133,31.978069 26.997745,27.140456 26.997745,27.140456 C 18.528582,18.264221 13.291696,25.230495 11.500037,31.436501 z"
     style="fill:#404040;"/>
  </a>
 </g>
</svg>

<style type='text/css'>
<![CDATA[
[data-mouse-over-selected='false'] { opacity: 0.7; }
[data-mouse-over-selected='true']  { opacity: 1.0; }
]]>
</style>
<script type="application/ecmascript"><![CDATA[
document.addEventListener('DOMContentLoaded', (event) => {
  highlightEdges();
  highlightAdjacentNodes();
});
]]></script>
</svg>
