<?xml version="1.0" encoding="UTF-8" standalone="no"?>
<!DOCTYPE svg PUBLIC "-//W3C//DTD SVG 1.1//EN"
 "http://www.w3.org/Graphics/SVG/1.1/DTD/svg11.dtd">
<!-- Generated by graphviz version 2.43.0 (0)
 -->
<!-- Title: t/102_by_reference.c Pages: 1 -->
<svg width="353pt" height="192pt"
 viewBox="0.00 0.00 352.81 192.00" xmlns="http://www.w3.org/2000/svg" xmlns:xlink="http://www.w3.org/1999/xlink">
<g id="graph0" class="graph" transform="scale(1 1) rotate(0) translate(4 188)">
<title>t/102_by_reference.c</title>
<!-- Node1 -->
<g id="Node000001" class="node">
<title>Node1</title>
<g id="a_Node000001"><a xlink:title="Tests passing and returning aggregates that are handled by reference.">
<polygon fill="#999999" stroke="#666666" points="229,-184 110,-184 110,-165 229,-165 229,-184"/>
<text text-anchor="middle" x="169.5" y="-172" font-family="Helvetica,sans-Serif" font-size="10.00">t/102_by_reference.c</text>
</a>
</g>
</g>
<!-- Node2 -->
<g id="Node000002" class="node">
<title>Node2</title>
<g id="a_Node000002"><a xlink:href="double__tap_8h.html" target="_top" xlink:title="A simple, header&#45;only TAP14&#45;compatible testing framework for C.">
<polygon fill="white" stroke="#666666" points="125,-129 0,-129 0,-110 125,-110 125,-129"/>
<text text-anchor="middle" x="62.5" y="-117" font-family="Helvetica,sans-Serif" font-size="10.00">common/double_tap.h</text>
</a>
</g>
</g>
<!-- Node1&#45;&gt;Node2 -->
<g id="edge1_Node000001_Node000002" class="edge">
<title>Node1&#45;&gt;Node2</title>
<g id="a_edge1_Node000001_Node000002"><a xlink:title=" ">
<path fill="none" stroke="#63b8ff" d="M152.31,-164.98C135.25,-156.54 108.87,-143.47 89.1,-133.68"/>
<polygon fill="#63b8ff" stroke="#63b8ff" points="90.52,-130.47 80,-129.17 87.41,-136.75 90.52,-130.47"/>
</a>
</g>
</g>
<!-- Node3 -->
<g id="Node000003" class="node">
<title>Node3</title>
<g id="a_Node000003"><a xlink:title=" ">
<polygon fill="#e0e0e0" stroke="#999999" points="196,-129 143,-129 143,-110 196,-110 196,-129"/>
<text text-anchor="middle" x="169.5" y="-117" font-family="Helvetica,sans-Serif" font-size="10.00">types.h</text>
</a>
</g>
</g>
<!-- Node1&#45;&gt;Node3 -->
<g id="edge2_Node000001_Node000003" class="edge">
<title>Node1&#45;&gt;Node3</title>
<g id="a_edge2_Node000001_Node000003"><a xlink:title=" ">
<path fill="none" stroke="#63b8ff" d="M169.5,-164.75C169.5,-157.8 169.5,-147.85 169.5,-139.13"/>
<polygon fill="#63b8ff" stroke="#63b8ff" points="173,-139.09 169.5,-129.09 166,-139.09 173,-139.09"/>
</a>
</g>
</g>
<!-- Node4 -->
<g id="Node000004" class="node">
<title>Node4</title>
<g id="a_Node000004"><a xlink:href="infix_8h.html" target="_top" xlink:title=" ">
<polygon fill="white" stroke="#666666" points="285,-129 214,-129 214,-110 285,-110 285,-129"/>
<text text-anchor="middle" x="249.5" y="-117" font-family="Helvetica,sans-Serif" font-size="10.00">infix/infix.h</text>
</a>
</g>
</g>
<!-- Node1&#45;&gt;Node4 -->
<g id="edge3_Node000001_Node000004" class="edge">
<title>Node1&#45;&gt;Node4</title>
<g id="a_edge3_Node000001_Node000004"><a xlink:title=" ">
<path fill="none" stroke="#63b8ff" d="M182.35,-164.98C194.64,-156.84 213.41,-144.41 227.98,-134.76"/>
<polygon fill="#63b8ff" stroke="#63b8ff" points="230.01,-137.61 236.41,-129.17 226.14,-131.78 230.01,-137.61"/>
</a>
</g>
</g>
<!-- Node5 -->
<g id="Node000005" class="node">
<title>Node5</title>
<g id="a_Node000005"><a xlink:title=" ">
<polygon fill="#e0e0e0" stroke="#999999" points="182.5,-19 120.5,-19 120.5,0 182.5,0 182.5,-19"/>
<text text-anchor="middle" x="151.5" y="-7" font-family="Helvetica,sans-Serif" font-size="10.00">stdbool.h</text>
</a>
</g>
</g>
<!-- Node4&#45;&gt;Node5 -->
<g id="edge4_Node000004_Node000005" class="edge">
<title>Node4&#45;&gt;Node5</title>
<g id="a_edge4_Node000004_Node000005"><a xlink:title=" ">
<path fill="none" stroke="#63b8ff" d="M213.69,-111.12C179.2,-103.2 130.67,-89.62 119.5,-74 108.7,-58.89 121.65,-39.6 134.16,-26.27"/>
<polygon fill="#63b8ff" stroke="#63b8ff" points="136.67,-28.72 141.3,-19.19 131.74,-23.75 136.67,-28.72"/>
</a>
</g>
</g>
<!-- Node6 -->
<g id="Node000006" class="node">
<title>Node6</title>
<g id="a_Node000006"><a xlink:title=" ">
<polygon fill="#e0e0e0" stroke="#999999" points="264.5,-19 208.5,-19 208.5,0 264.5,0 264.5,-19"/>
<text text-anchor="middle" x="236.5" y="-7" font-family="Helvetica,sans-Serif" font-size="10.00">stddef.h</text>
</a>
</g>
</g>
<!-- Node4&#45;&gt;Node6 -->
<g id="edge5_Node000004_Node000006" class="edge">
<title>Node4&#45;&gt;Node6</title>
<g id="a_edge5_Node000004_Node000006"><a xlink:title=" ">
<path fill="none" stroke="#63b8ff" d="M283.35,-109.92C315.92,-99.9 357.85,-81.29 340.5,-55 325.99,-33.01 298.13,-21.85 274.89,-16.2"/>
<polygon fill="#63b8ff" stroke="#63b8ff" points="275.46,-12.74 264.94,-14.04 273.97,-19.58 275.46,-12.74"/>
</a>
</g>
</g>
<!-- Node7 -->
<g id="Node000007" class="node">
<title>Node7</title>
<g id="a_Node000007"><a xlink:title=" ">
<polygon fill="#e0e0e0" stroke="#999999" points="331,-74 278,-74 278,-55 331,-55 331,-74"/>
<text text-anchor="middle" x="304.5" y="-62" font-family="Helvetica,sans-Serif" font-size="10.00">stdint.h</text>
</a>
</g>
</g>
<!-- Node4&#45;&gt;Node7 -->
<g id="edge6_Node000004_Node000007" class="edge">
<title>Node4&#45;&gt;Node7</title>
<g id="a_edge6_Node000004_Node000007"><a xlink:title=" ">
<path fill="none" stroke="#63b8ff" d="M258.58,-109.75C266.59,-102.03 278.46,-90.6 288.12,-81.28"/>
<polygon fill="#63b8ff" stroke="#63b8ff" points="290.81,-83.55 295.59,-74.09 285.96,-78.51 290.81,-83.55"/>
</a>
</g>
</g>
<!-- Node8 -->
<g id="Node000008" class="node">
<title>Node8</title>
<g id="a_Node000008"><a xlink:href="compat__c23_8h.html" target="_top" xlink:title="Provides compatibility shims for C23 features in a C17/C11 project.">
<polygon fill="white" stroke="#666666" points="260,-74 129,-74 129,-55 260,-55 260,-74"/>
<text text-anchor="middle" x="194.5" y="-62" font-family="Helvetica,sans-Serif" font-size="10.00">common/compat_c23.h</text>
</a>
</g>
</g>
<!-- Node4&#45;&gt;Node8 -->
<g id="edge7_Node000004_Node000008" class="edge">
<title>Node4&#45;&gt;Node8</title>
<g id="a_edge7_Node000004_Node000008"><a xlink:title=" ">
<path fill="none" stroke="#63b8ff" d="M240.42,-109.75C232.41,-102.03 220.54,-90.6 210.88,-81.28"/>
<polygon fill="#63b8ff" stroke="#63b8ff" points="213.04,-78.51 203.41,-74.09 208.19,-83.55 213.04,-78.51"/>
</a>
</g>
</g>
<!-- Node8&#45;&gt;Node5 -->
<g id="edge8_Node000008_Node000005" class="edge">
<title>Node8&#45;&gt;Node5</title>
<g id="a_edge8_Node000008_Node000005"><a xlink:title=" ">
<path fill="none" stroke="#63b8ff" d="M187.4,-54.75C181.33,-47.26 172.41,-36.28 164.99,-27.13"/>
<polygon fill="#63b8ff" stroke="#63b8ff" points="167.49,-24.65 158.47,-19.09 162.05,-29.06 167.49,-24.65"/>
</a>
</g>
</g>
<!-- Node8&#45;&gt;Node6 -->
<g id="edge9_Node000008_Node000006" class="edge">
<title>Node8&#45;&gt;Node6</title>
<g id="a_edge9_Node000008_Node000006"><a xlink:title=" ">
<path fill="none" stroke="#63b8ff" d="M201.44,-54.75C207.37,-47.26 216.07,-36.28 223.32,-27.13"/>
<polygon fill="#63b8ff" stroke="#63b8ff" points="226.23,-29.1 229.69,-19.09 220.74,-24.75 226.23,-29.1"/>
</a>
</g>
</g>
</g>
</svg>
