<?xml version="1.0" encoding="UTF-8" standalone="no"?>
<!DOCTYPE svg PUBLIC "-//W3C//DTD SVG 1.1//EN"
 "http://www.w3.org/Graphics/SVG/1.1/DTD/svg11.dtd">
<!-- Generated by graphviz version 2.43.0 (0)
 -->
<!-- Title: t/102_by_reference.c Pages: 1 -->
<svg width="485pt" height="192pt"
 viewBox="0.00 0.00 485.00 192.00" xmlns="http://www.w3.org/2000/svg" xmlns:xlink="http://www.w3.org/1999/xlink">

<svg id="main" version="1.1" xmlns="http://www.w3.org/2000/svg" xmlns:xlink="http://www.w3.org/1999/xlink" xml:space="preserve" onload="init(evt)">
<style type="text/css"><![CDATA[
.node, .edge {opacity: 0.7;}
.node.selected, .edge.selected {opacity: 1;}
.edge:hover path { stroke: red; }
.edge:hover polygon { stroke: red; fill: red; }
]]></style>
<script type="application/ecmascript" xlink:href="svg.min.js"/>
<svg id="graph" class="graph">
<g id="graph0" class="graph" transform="scale(1 1) rotate(0) translate(4 188)">
<title>t/102_by_reference.c</title>
<!-- Node1 -->
<g id="Node000001" class="node">
<title>Node1</title>
<g id="a_Node000001"><a xlink:title="Unit test for passing and returning large aggregates by reference.">
<polygon fill="#999999" stroke="#666666" points="229,-184 110,-184 110,-165 229,-165 229,-184"/>
<text text-anchor="middle" x="169.5" y="-172" font-family="Helvetica,sans-Serif" font-size="10.00">t/102_by_reference.c</text>
</a>
</g>
</g>
<!-- Node2 -->
<g id="Node000002" class="node">
<title>Node2</title>
<g id="a_Node000002"><a xlink:href="double__tap_8h.html" target="_top" xlink:title="A lightweight, single&#45;header TAP (Test Anything Protocol) library.">
<polygon fill="white" stroke="#666666" points="125,-129 0,-129 0,-110 125,-110 125,-129"/>
<text text-anchor="middle" x="62.5" y="-117" font-family="Helvetica,sans-Serif" font-size="10.00">common/double_tap.h</text>
</a>
</g>
</g>
<!-- Node1&#45;&gt;Node2 -->
<g id="edge1_Node000001_Node000002" class="edge">
<title>Node1&#45;&gt;Node2</title>
<g id="a_edge1_Node000001_Node000002"><a xlink:title=" ">
<path fill="none" stroke="#63b8ff" d="M152.31,-164.98C135.25,-156.54 108.87,-143.47 89.1,-133.68"/>
<polygon fill="#63b8ff" stroke="#63b8ff" points="90.52,-130.47 80,-129.17 87.41,-136.75 90.52,-130.47"/>
</a>
</g>
</g>
<!-- Node3 -->
<g id="Node000003" class="node">
<title>Node3</title>
<g id="a_Node000003"><a xlink:href="types_8h.html" target="_top" xlink:title="Defines common C structures used across the infix test suite.">
<polygon fill="white" stroke="#666666" points="196,-129 143,-129 143,-110 196,-110 196,-129"/>
<text text-anchor="middle" x="169.5" y="-117" font-family="Helvetica,sans-Serif" font-size="10.00">types.h</text>
</a>
</g>
</g>
<!-- Node1&#45;&gt;Node3 -->
<g id="edge2_Node000001_Node000003" class="edge">
<title>Node1&#45;&gt;Node3</title>
<g id="a_edge2_Node000001_Node000003"><a xlink:title=" ">
<path fill="none" stroke="#63b8ff" d="M169.5,-164.75C169.5,-157.8 169.5,-147.85 169.5,-139.13"/>
<polygon fill="#63b8ff" stroke="#63b8ff" points="173,-139.09 169.5,-129.09 166,-139.09 173,-139.09"/>
</a>
</g>
</g>
<!-- Node6 -->
<g id="Node000006" class="node">
<title>Node6</title>
<g id="a_Node000006"><a xlink:href="infix_8h.html" target="_top" xlink:title="The public interface for the infix FFI library.">
<polygon fill="white" stroke="#666666" points="337,-129 266,-129 266,-110 337,-110 337,-129"/>
<text text-anchor="middle" x="301.5" y="-117" font-family="Helvetica,sans-Serif" font-size="10.00">infix/infix.h</text>
</a>
</g>
</g>
<!-- Node1&#45;&gt;Node6 -->
<g id="edge5_Node000001_Node000006" class="edge">
<title>Node1&#45;&gt;Node6</title>
<g id="a_edge5_Node000001_Node000006"><a xlink:title=" ">
<path fill="none" stroke="#63b8ff" d="M190.71,-164.98C212.23,-156.34 245.78,-142.87 270.33,-133.02"/>
<polygon fill="#63b8ff" stroke="#63b8ff" points="271.93,-136.14 279.91,-129.17 269.32,-129.65 271.93,-136.14"/>
</a>
</g>
</g>
<!-- Node4 -->
<g id="Node000004" class="node">
<title>Node4</title>
<g id="a_Node000004"><a xlink:title=" ">
<polygon fill="#e0e0e0" stroke="#999999" points="141,-74 76,-74 76,-55 141,-55 141,-74"/>
<text text-anchor="middle" x="108.5" y="-62" font-family="Helvetica,sans-Serif" font-size="10.00">inttypes.h</text>
</a>
</g>
</g>
<!-- Node3&#45;&gt;Node4 -->
<g id="edge3_Node000003_Node000004" class="edge">
<title>Node3&#45;&gt;Node4</title>
<g id="a_edge3_Node000003_Node000004"><a xlink:title=" ">
<path fill="none" stroke="#63b8ff" d="M159.7,-109.98C150.68,-102.15 137.09,-90.34 126.18,-80.86"/>
<polygon fill="#63b8ff" stroke="#63b8ff" points="128.32,-78.09 118.48,-74.17 123.73,-83.37 128.32,-78.09"/>
</a>
</g>
</g>
<!-- Node5 -->
<g id="Node000005" class="node">
<title>Node5</title>
<g id="a_Node000005"><a xlink:title=" ">
<polygon fill="#e0e0e0" stroke="#999999" points="235.5,-19 179.5,-19 179.5,0 235.5,0 235.5,-19"/>
<text text-anchor="middle" x="207.5" y="-7" font-family="Helvetica,sans-Serif" font-size="10.00">stddef.h</text>
</a>
</g>
</g>
<!-- Node3&#45;&gt;Node5 -->
<g id="edge4_Node000003_Node000005" class="edge">
<title>Node3&#45;&gt;Node5</title>
<g id="a_edge4_Node000003_Node000005"><a xlink:title=" ">
<path fill="none" stroke="#63b8ff" d="M172.61,-109.66C178.82,-92.01 192.87,-52.09 201.12,-28.64"/>
<polygon fill="#63b8ff" stroke="#63b8ff" points="204.44,-29.75 204.45,-19.16 197.83,-27.43 204.44,-29.75"/>
</a>
</g>
</g>
<!-- Node6&#45;&gt;Node5 -->
<g id="edge10_Node000006_Node000005" class="edge">
<title>Node6&#45;&gt;Node5</title>
<g id="a_edge10_Node000006_Node000005"><a xlink:title=" ">
<path fill="none" stroke="#63b8ff" d="M278,-109.97C261.36,-102.78 239.73,-90.94 226.5,-74 216.43,-61.1 211.68,-42.94 209.46,-29.35"/>
<polygon fill="#63b8ff" stroke="#63b8ff" points="212.9,-28.67 208.11,-19.21 205.96,-29.59 212.9,-28.67"/>
</a>
</g>
</g>
<!-- Node7 -->
<g id="Node000007" class="node">
<title>Node7</title>
<g id="a_Node000007"><a xlink:href="compat__c23_8h.html" target="_top" xlink:title="Provides forward compatibility macros for C23 features.">
<polygon fill="white" stroke="#666666" points="367,-74 236,-74 236,-55 367,-55 367,-74"/>
<text text-anchor="middle" x="301.5" y="-62" font-family="Helvetica,sans-Serif" font-size="10.00">common/compat_c23.h</text>
</a>
</g>
</g>
<!-- Node6&#45;&gt;Node7 -->
<g id="edge6_Node000006_Node000007" class="edge">
<title>Node6&#45;&gt;Node7</title>
<g id="a_edge6_Node000006_Node000007"><a xlink:title=" ">
<path fill="none" stroke="#63b8ff" d="M301.5,-109.75C301.5,-102.8 301.5,-92.85 301.5,-84.13"/>
<polygon fill="#63b8ff" stroke="#63b8ff" points="305,-84.09 301.5,-74.09 298,-84.09 305,-84.09"/>
</a>
</g>
</g>
<!-- Node8 -->
<g id="Node000008" class="node">
<title>Node8</title>
<g id="a_Node000008"><a xlink:title=" ">
<polygon fill="#e0e0e0" stroke="#999999" points="379.5,-19 317.5,-19 317.5,0 379.5,0 379.5,-19"/>
<text text-anchor="middle" x="348.5" y="-7" font-family="Helvetica,sans-Serif" font-size="10.00">stdbool.h</text>
</a>
</g>
</g>
<!-- Node6&#45;&gt;Node8 -->
<g id="edge9_Node000006_Node000008" class="edge">
<title>Node6&#45;&gt;Node8</title>
<g id="a_edge9_Node000006_Node000008"><a xlink:title=" ">
<path fill="none" stroke="#63b8ff" d="M329.15,-109.98C346.08,-103.17 366.39,-91.76 376.5,-74 385.21,-58.71 374.87,-40.21 364.38,-27.13"/>
<polygon fill="#63b8ff" stroke="#63b8ff" points="366.87,-24.65 357.67,-19.4 361.59,-29.25 366.87,-24.65"/>
</a>
</g>
</g>
<!-- Node9 -->
<g id="Node000009" class="node">
<title>Node9</title>
<g id="a_Node000009"><a xlink:title=" ">
<polygon fill="#e0e0e0" stroke="#999999" points="477,-74 424,-74 424,-55 477,-55 477,-74"/>
<text text-anchor="middle" x="450.5" y="-62" font-family="Helvetica,sans-Serif" font-size="10.00">stdint.h</text>
</a>
</g>
</g>
<!-- Node6&#45;&gt;Node9 -->
<g id="edge11_Node000006_Node000009" class="edge">
<title>Node6&#45;&gt;Node9</title>
<g id="a_edge11_Node000006_Node000009"><a xlink:title=" ">
<path fill="none" stroke="#63b8ff" d="M325.44,-109.98C350.06,-101.23 388.62,-87.51 416.42,-77.62"/>
<polygon fill="#63b8ff" stroke="#63b8ff" points="417.88,-80.82 426.12,-74.17 415.53,-74.22 417.88,-80.82"/>
</a>
</g>
</g>
<!-- Node7&#45;&gt;Node5 -->
<g id="edge8_Node000007_Node000005" class="edge">
<title>Node7&#45;&gt;Node5</title>
<g id="a_edge8_Node000007_Node000005"><a xlink:title=" ">
<path fill="none" stroke="#63b8ff" d="M286.4,-54.98C271.68,-46.69 249.08,-33.94 231.83,-24.22"/>
<polygon fill="#63b8ff" stroke="#63b8ff" points="233.31,-21.03 222.88,-19.17 229.87,-27.13 233.31,-21.03"/>
</a>
</g>
</g>
<!-- Node7&#45;&gt;Node8 -->
<g id="edge7_Node000007_Node000008" class="edge">
<title>Node7&#45;&gt;Node8</title>
<g id="a_edge7_Node000007_Node000008"><a xlink:title=" ">
<path fill="none" stroke="#63b8ff" d="M309.26,-54.75C315.97,-47.18 325.84,-36.05 334.01,-26.84"/>
<polygon fill="#63b8ff" stroke="#63b8ff" points="336.87,-28.89 340.88,-19.09 331.63,-24.25 336.87,-28.89"/>
</a>
</g>
</g>
</g>
</svg>
</svg>

<style type='text/css'>
<![CDATA[
[data-mouse-over-selected='false'] { opacity: 0.7; }
[data-mouse-over-selected='true']  { opacity: 1.0; }
]]>
</style>
<script type="application/ecmascript"><![CDATA[
document.addEventListener('DOMContentLoaded', (event) => {
  highlightEdges();
  highlightAdjacentNodes();
});
]]></script>
</svg>
