<?xml version="1.0" encoding="UTF-8" standalone="no"?>
<!DOCTYPE svg PUBLIC "-//W3C//DTD SVG 1.1//EN"
 "http://www.w3.org/Graphics/SVG/1.1/DTD/svg11.dtd">
<!-- Generated by graphviz version 2.43.0 (0)
 -->
<!-- Title: eg/cookbook/13_stateful_callback.c Pages: 1 -->
<svg width="250pt" height="203pt"
 viewBox="0.00 0.00 249.63 203.00" xmlns="http://www.w3.org/2000/svg" xmlns:xlink="http://www.w3.org/1999/xlink">

<svg id="main" version="1.1" xmlns="http://www.w3.org/2000/svg" xmlns:xlink="http://www.w3.org/1999/xlink" xml:space="preserve" onload="init(evt)">
<style type="text/css"><![CDATA[
.node, .edge {opacity: 0.7;}
.node.selected, .edge.selected {opacity: 1;}
.edge:hover path { stroke: red; }
.edge:hover polygon { stroke: red; fill: red; }
]]></style>
<script type="application/ecmascript" xlink:href="svg.min.js"/>
<svg id="graph" class="graph">
<g id="graph0" class="graph" transform="scale(1 1) rotate(0) translate(4 199)">
<title>eg/cookbook/13_stateful_callback.c</title>
<!-- Node1 -->
<g id="Node000001" class="node">
<title>Node1</title>
<g id="a_Node000001"><a xlink:title="Recipe: Creating a Stateful Callback (The Modern Way).">
<polygon fill="#999999" stroke="#666666" points="241.63,-195 104.63,-195 104.63,-165 241.63,-165 241.63,-195"/>
<text text-anchor="start" x="112.63" y="-183" font-family="Helvetica,sans-Serif" font-size="10.00">eg/cookbook/13_stateful</text>
<text text-anchor="middle" x="173.13" y="-172" font-family="Helvetica,sans-Serif" font-size="10.00">_callback.c</text>
</a>
</g>
</g>
<!-- Node2 -->
<g id="Node000002" class="node">
<title>Node2</title>
<g id="a_Node000002"><a xlink:href="infix_8h.html" target="_top" xlink:title=" ">
<polygon fill="white" stroke="#666666" points="169.63,-129 98.63,-129 98.63,-110 169.63,-110 169.63,-129"/>
<text text-anchor="middle" x="134.13" y="-117" font-family="Helvetica,sans-Serif" font-size="10.00">infix/infix.h</text>
</a>
</g>
</g>
<!-- Node1&#45;&gt;Node2 -->
<g id="edge1_Node000001_Node000002" class="edge">
<title>Node1&#45;&gt;Node2</title>
<g id="a_edge1_Node000001_Node000002"><a xlink:title=" ">
<path fill="none" stroke="#63b8ff" d="M163.69,-164.84C158.26,-156.69 151.4,-146.4 145.65,-137.78"/>
<polygon fill="#63b8ff" stroke="#63b8ff" points="148.44,-135.65 139.98,-129.27 142.61,-139.53 148.44,-135.65"/>
</a>
</g>
</g>
<!-- Node7 -->
<g id="Node000007" class="node">
<title>Node7</title>
<g id="a_Node000007"><a xlink:title=" ">
<polygon fill="#e0e0e0" stroke="#999999" points="238.13,-129 188.13,-129 188.13,-110 238.13,-110 238.13,-129"/>
<text text-anchor="middle" x="213.13" y="-117" font-family="Helvetica,sans-Serif" font-size="10.00">stdio.h</text>
</a>
</g>
</g>
<!-- Node1&#45;&gt;Node7 -->
<g id="edge8_Node000001_Node000007" class="edge">
<title>Node1&#45;&gt;Node7</title>
<g id="a_edge8_Node000001_Node000007"><a xlink:title=" ">
<path fill="none" stroke="#63b8ff" d="M182.82,-164.84C188.39,-156.69 195.43,-146.4 201.32,-137.78"/>
<polygon fill="#63b8ff" stroke="#63b8ff" points="204.39,-139.5 207.14,-129.27 198.61,-135.55 204.39,-139.5"/>
</a>
</g>
</g>
<!-- Node3 -->
<g id="Node000003" class="node">
<title>Node3</title>
<g id="a_Node000003"><a xlink:title=" ">
<polygon fill="#e0e0e0" stroke="#999999" points="67.13,-19 5.13,-19 5.13,0 67.13,0 67.13,-19"/>
<text text-anchor="middle" x="36.13" y="-7" font-family="Helvetica,sans-Serif" font-size="10.00">stdbool.h</text>
</a>
</g>
</g>
<!-- Node2&#45;&gt;Node3 -->
<g id="edge2_Node000002_Node000003" class="edge">
<title>Node2&#45;&gt;Node3</title>
<g id="a_edge2_Node000002_Node000003"><a xlink:title=" ">
<path fill="none" stroke="#63b8ff" d="M98.54,-117.14C67.92,-113.86 25.42,-103.79 4.13,-74 -6.67,-58.89 6.28,-39.6 18.8,-26.27"/>
<polygon fill="#63b8ff" stroke="#63b8ff" points="21.3,-28.72 25.93,-19.19 16.37,-23.75 21.3,-28.72"/>
</a>
</g>
</g>
<!-- Node4 -->
<g id="Node000004" class="node">
<title>Node4</title>
<g id="a_Node000004"><a xlink:title=" ">
<polygon fill="#e0e0e0" stroke="#999999" points="149.13,-19 93.13,-19 93.13,0 149.13,0 149.13,-19"/>
<text text-anchor="middle" x="121.13" y="-7" font-family="Helvetica,sans-Serif" font-size="10.00">stddef.h</text>
</a>
</g>
</g>
<!-- Node2&#45;&gt;Node4 -->
<g id="edge3_Node000002_Node000004" class="edge">
<title>Node2&#45;&gt;Node4</title>
<g id="a_edge3_Node000002_Node000004"><a xlink:title=" ">
<path fill="none" stroke="#63b8ff" d="M167.99,-109.92C200.55,-99.9 242.48,-81.29 225.13,-55 210.62,-33.01 182.76,-21.85 159.53,-16.2"/>
<polygon fill="#63b8ff" stroke="#63b8ff" points="160.09,-12.74 149.58,-14.04 158.61,-19.58 160.09,-12.74"/>
</a>
</g>
</g>
<!-- Node5 -->
<g id="Node000005" class="node">
<title>Node5</title>
<g id="a_Node000005"><a xlink:title=" ">
<polygon fill="#e0e0e0" stroke="#999999" points="215.63,-74 162.63,-74 162.63,-55 215.63,-55 215.63,-74"/>
<text text-anchor="middle" x="189.13" y="-62" font-family="Helvetica,sans-Serif" font-size="10.00">stdint.h</text>
</a>
</g>
</g>
<!-- Node2&#45;&gt;Node5 -->
<g id="edge4_Node000002_Node000005" class="edge">
<title>Node2&#45;&gt;Node5</title>
<g id="a_edge4_Node000002_Node000005"><a xlink:title=" ">
<path fill="none" stroke="#63b8ff" d="M143.22,-109.75C151.23,-102.03 163.09,-90.6 172.75,-81.28"/>
<polygon fill="#63b8ff" stroke="#63b8ff" points="175.45,-83.55 180.22,-74.09 170.59,-78.51 175.45,-83.55"/>
</a>
</g>
</g>
<!-- Node6 -->
<g id="Node000006" class="node">
<title>Node6</title>
<g id="a_Node000006"><a xlink:href="compat__c23_8h.html" target="_top" xlink:title="Provides compatibility shims for C23 features in a C17/C11 project.">
<polygon fill="white" stroke="#666666" points="144.63,-74 13.63,-74 13.63,-55 144.63,-55 144.63,-74"/>
<text text-anchor="middle" x="79.13" y="-62" font-family="Helvetica,sans-Serif" font-size="10.00">common/compat_c23.h</text>
</a>
</g>
</g>
<!-- Node2&#45;&gt;Node6 -->
<g id="edge5_Node000002_Node000006" class="edge">
<title>Node2&#45;&gt;Node6</title>
<g id="a_edge5_Node000002_Node000006"><a xlink:title=" ">
<path fill="none" stroke="#63b8ff" d="M125.05,-109.75C117.04,-102.03 105.18,-90.6 95.51,-81.28"/>
<polygon fill="#63b8ff" stroke="#63b8ff" points="97.68,-78.51 88.05,-74.09 92.82,-83.55 97.68,-78.51"/>
</a>
</g>
</g>
<!-- Node6&#45;&gt;Node3 -->
<g id="edge6_Node000006_Node000003" class="edge">
<title>Node6&#45;&gt;Node3</title>
<g id="a_edge6_Node000006_Node000003"><a xlink:title=" ">
<path fill="none" stroke="#63b8ff" d="M72.03,-54.75C65.96,-47.26 57.05,-36.28 49.62,-27.13"/>
<polygon fill="#63b8ff" stroke="#63b8ff" points="52.12,-24.65 43.1,-19.09 46.68,-29.06 52.12,-24.65"/>
</a>
</g>
</g>
<!-- Node6&#45;&gt;Node4 -->
<g id="edge7_Node000006_Node000004" class="edge">
<title>Node6&#45;&gt;Node4</title>
<g id="a_edge7_Node000006_Node000004"><a xlink:title=" ">
<path fill="none" stroke="#63b8ff" d="M86.07,-54.75C92,-47.26 100.71,-36.28 107.96,-27.13"/>
<polygon fill="#63b8ff" stroke="#63b8ff" points="110.86,-29.1 114.33,-19.09 105.37,-24.75 110.86,-29.1"/>
</a>
</g>
</g>
</g>
</svg>
</svg>

<style type='text/css'>
<![CDATA[
[data-mouse-over-selected='false'] { opacity: 0.7; }
[data-mouse-over-selected='true']  { opacity: 1.0; }
]]>
</style>
<script type="application/ecmascript"><![CDATA[
document.addEventListener('DOMContentLoaded', (event) => {
  highlightEdges();
  highlightAdjacentNodes();
});
]]></script>
</svg>
