<?xml version="1.0" encoding="UTF-8" standalone="no"?>
<!DOCTYPE svg PUBLIC "-//W3C//DTD SVG 1.1//EN"
 "http://www.w3.org/Graphics/SVG/1.1/DTD/svg11.dtd">
<!-- Generated by graphviz version 2.43.0 (0)
 -->
<!-- Title: t/202_in_structs.c Pages: 1 -->
<svg width="453pt" height="192pt"
 viewBox="0.00 0.00 453.24 192.00" xmlns="http://www.w3.org/2000/svg" xmlns:xlink="http://www.w3.org/1999/xlink">
<g id="graph0" class="graph" transform="scale(1 1) rotate(0) translate(4 188)">
<title>t/202_in_structs.c</title>
<!-- Node1 -->
<g id="Node000001" class="node">
<title>Node1</title>
<g id="a_Node000001"><a xlink:title="Tests passing structs that contain pointer members.">
<polygon fill="#999999" stroke="#666666" points="267.5,-184 165.5,-184 165.5,-165 267.5,-165 267.5,-184"/>
<text text-anchor="middle" x="216.5" y="-172" font-family="Helvetica,sans-Serif" font-size="10.00">t/202_in_structs.c</text>
</a>
</g>
</g>
<!-- Node2 -->
<g id="Node000002" class="node">
<title>Node2</title>
<g id="a_Node000002"><a xlink:href="double__tap_8h.html" target="_top" xlink:title="A simple, header&#45;only TAP14&#45;compatible testing framework for C.">
<polygon fill="white" stroke="#666666" points="125,-129 0,-129 0,-110 125,-110 125,-129"/>
<text text-anchor="middle" x="62.5" y="-117" font-family="Helvetica,sans-Serif" font-size="10.00">common/double_tap.h</text>
</a>
</g>
</g>
<!-- Node1&#45;&gt;Node2 -->
<g id="edge1_Node000001_Node000002" class="edge">
<title>Node1&#45;&gt;Node2</title>
<g id="a_edge1_Node000001_Node000002"><a xlink:title=" ">
<path fill="none" stroke="#63b8ff" d="M191.76,-164.98C166.13,-156.16 125.87,-142.31 97.09,-132.41"/>
<polygon fill="#63b8ff" stroke="#63b8ff" points="98.03,-129.03 87.44,-129.08 95.75,-135.65 98.03,-129.03"/>
</a>
</g>
</g>
<!-- Node3 -->
<g id="Node000003" class="node">
<title>Node3</title>
<g id="a_Node000003"><a xlink:href="types_8h.html" target="_top" xlink:title="Defines common data structures used across the entire test suite.">
<polygon fill="white" stroke="#666666" points="196,-129 143,-129 143,-110 196,-110 196,-129"/>
<text text-anchor="middle" x="169.5" y="-117" font-family="Helvetica,sans-Serif" font-size="10.00">types.h</text>
</a>
</g>
</g>
<!-- Node1&#45;&gt;Node3 -->
<g id="edge2_Node000001_Node000003" class="edge">
<title>Node1&#45;&gt;Node3</title>
<g id="a_edge2_Node000001_Node000003"><a xlink:title=" ">
<path fill="none" stroke="#63b8ff" d="M208.74,-164.75C202.03,-157.18 192.16,-146.05 183.99,-136.84"/>
<polygon fill="#63b8ff" stroke="#63b8ff" points="186.37,-134.25 177.12,-129.09 181.13,-138.89 186.37,-134.25"/>
</a>
</g>
</g>
<!-- Node6 -->
<g id="Node000006" class="node">
<title>Node6</title>
<g id="a_Node000006"><a xlink:href="infix_8h.html" target="_top" xlink:title=" ">
<polygon fill="white" stroke="#666666" points="300,-129 229,-129 229,-110 300,-110 300,-129"/>
<text text-anchor="middle" x="264.5" y="-117" font-family="Helvetica,sans-Serif" font-size="10.00">infix/infix.h</text>
</a>
</g>
</g>
<!-- Node1&#45;&gt;Node6 -->
<g id="edge5_Node000001_Node000006" class="edge">
<title>Node1&#45;&gt;Node6</title>
<g id="a_edge5_Node000001_Node000006"><a xlink:title=" ">
<path fill="none" stroke="#63b8ff" d="M224.43,-164.75C231.35,-157.11 241.57,-145.82 249.95,-136.56"/>
<polygon fill="#63b8ff" stroke="#63b8ff" points="252.6,-138.85 256.72,-129.09 247.41,-134.15 252.6,-138.85"/>
</a>
</g>
</g>
<!-- Node10 -->
<g id="Node000010" class="node">
<title>Node10</title>
<g id="a_Node000010"><a xlink:title=" ">
<polygon fill="#e0e0e0" stroke="#999999" points="371,-129 318,-129 318,-110 371,-110 371,-129"/>
<text text-anchor="middle" x="344.5" y="-117" font-family="Helvetica,sans-Serif" font-size="10.00">string.h</text>
</a>
</g>
</g>
<!-- Node1&#45;&gt;Node10 -->
<g id="edge12_Node000001_Node000010" class="edge">
<title>Node1&#45;&gt;Node10</title>
<g id="a_edge12_Node000001_Node000010"><a xlink:title=" ">
<path fill="none" stroke="#63b8ff" d="M237.07,-164.98C257.93,-156.34 290.47,-142.87 314.27,-133.02"/>
<polygon fill="#63b8ff" stroke="#63b8ff" points="315.66,-136.23 323.56,-129.17 312.98,-129.76 315.66,-136.23"/>
</a>
</g>
</g>
<!-- Node4 -->
<g id="Node000004" class="node">
<title>Node4</title>
<g id="a_Node000004"><a xlink:title=" ">
<polygon fill="#e0e0e0" stroke="#999999" points="133,-74 68,-74 68,-55 133,-55 133,-74"/>
<text text-anchor="middle" x="100.5" y="-62" font-family="Helvetica,sans-Serif" font-size="10.00">inttypes.h</text>
</a>
</g>
</g>
<!-- Node3&#45;&gt;Node4 -->
<g id="edge3_Node000003_Node000004" class="edge">
<title>Node3&#45;&gt;Node4</title>
<g id="a_edge3_Node000003_Node000004"><a xlink:title=" ">
<path fill="none" stroke="#63b8ff" d="M158.41,-109.98C148.01,-102 132.24,-89.88 119.78,-80.31"/>
<polygon fill="#63b8ff" stroke="#63b8ff" points="121.85,-77.49 111.79,-74.17 117.59,-83.04 121.85,-77.49"/>
</a>
</g>
</g>
<!-- Node5 -->
<g id="Node000005" class="node">
<title>Node5</title>
<g id="a_Node000005"><a xlink:title=" ">
<polygon fill="#e0e0e0" stroke="#999999" points="299.5,-19 243.5,-19 243.5,0 299.5,0 299.5,-19"/>
<text text-anchor="middle" x="271.5" y="-7" font-family="Helvetica,sans-Serif" font-size="10.00">stddef.h</text>
</a>
</g>
</g>
<!-- Node3&#45;&gt;Node5 -->
<g id="edge4_Node000003_Node000005" class="edge">
<title>Node3&#45;&gt;Node5</title>
<g id="a_edge4_Node000003_Node000005"><a xlink:title=" ">
<path fill="none" stroke="#63b8ff" d="M168.66,-109.73C167.87,-96.51 168.28,-71.29 180.5,-55 193.44,-37.75 214.87,-26.82 233.68,-20.1"/>
<polygon fill="#63b8ff" stroke="#63b8ff" points="234.81,-23.42 243.21,-16.97 232.62,-16.77 234.81,-23.42"/>
</a>
</g>
</g>
<!-- Node6&#45;&gt;Node5 -->
<g id="edge7_Node000006_Node000005" class="edge">
<title>Node6&#45;&gt;Node5</title>
<g id="a_edge7_Node000006_Node000005"><a xlink:title=" ">
<path fill="none" stroke="#63b8ff" d="M265.07,-109.66C266.21,-92.17 268.76,-52.8 270.28,-29.27"/>
<polygon fill="#63b8ff" stroke="#63b8ff" points="273.78,-29.36 270.94,-19.16 266.8,-28.91 273.78,-29.36"/>
</a>
</g>
</g>
<!-- Node7 -->
<g id="Node000007" class="node">
<title>Node7</title>
<g id="a_Node000007"><a xlink:title=" ">
<polygon fill="#e0e0e0" stroke="#999999" points="443.5,-19 381.5,-19 381.5,0 443.5,0 443.5,-19"/>
<text text-anchor="middle" x="412.5" y="-7" font-family="Helvetica,sans-Serif" font-size="10.00">stdbool.h</text>
</a>
</g>
</g>
<!-- Node6&#45;&gt;Node7 -->
<g id="edge6_Node000006_Node000007" class="edge">
<title>Node6&#45;&gt;Node7</title>
<g id="a_edge6_Node000006_Node000007"><a xlink:title=" ">
<path fill="none" stroke="#63b8ff" d="M300.26,-110.64C350.43,-99.43 436.13,-79.61 440.5,-74 451.66,-59.67 439.97,-40.2 428.47,-26.62"/>
<polygon fill="#63b8ff" stroke="#63b8ff" points="430.87,-24.05 421.54,-19.01 425.69,-28.76 430.87,-24.05"/>
</a>
</g>
</g>
<!-- Node8 -->
<g id="Node000008" class="node">
<title>Node8</title>
<g id="a_Node000008"><a xlink:title=" ">
<polygon fill="#e0e0e0" stroke="#999999" points="243,-74 190,-74 190,-55 243,-55 243,-74"/>
<text text-anchor="middle" x="216.5" y="-62" font-family="Helvetica,sans-Serif" font-size="10.00">stdint.h</text>
</a>
</g>
</g>
<!-- Node6&#45;&gt;Node8 -->
<g id="edge8_Node000006_Node000008" class="edge">
<title>Node6&#45;&gt;Node8</title>
<g id="a_edge8_Node000006_Node000008"><a xlink:title=" ">
<path fill="none" stroke="#63b8ff" d="M256.57,-109.75C249.65,-102.11 239.43,-90.82 231.05,-81.56"/>
<polygon fill="#63b8ff" stroke="#63b8ff" points="233.59,-79.15 224.28,-74.09 228.4,-83.85 233.59,-79.15"/>
</a>
</g>
</g>
<!-- Node9 -->
<g id="Node000009" class="node">
<title>Node9</title>
<g id="a_Node000009"><a xlink:href="compat__c23_8h.html" target="_top" xlink:title="Provides compatibility shims for C23 features in a C17/C11 project.">
<polygon fill="white" stroke="#666666" points="431,-74 300,-74 300,-55 431,-55 431,-74"/>
<text text-anchor="middle" x="365.5" y="-62" font-family="Helvetica,sans-Serif" font-size="10.00">common/compat_c23.h</text>
</a>
</g>
</g>
<!-- Node6&#45;&gt;Node9 -->
<g id="edge9_Node000006_Node000009" class="edge">
<title>Node6&#45;&gt;Node9</title>
<g id="a_edge9_Node000006_Node000009"><a xlink:title=" ">
<path fill="none" stroke="#63b8ff" d="M280.73,-109.98C296.68,-101.61 321.28,-88.7 339.88,-78.95"/>
<polygon fill="#63b8ff" stroke="#63b8ff" points="341.75,-81.92 348.98,-74.17 338.5,-75.72 341.75,-81.92"/>
</a>
</g>
</g>
<!-- Node9&#45;&gt;Node5 -->
<g id="edge11_Node000009_Node000005" class="edge">
<title>Node9&#45;&gt;Node5</title>
<g id="a_edge11_Node000009_Node000005"><a xlink:title=" ">
<path fill="none" stroke="#63b8ff" d="M350.4,-54.98C335.68,-46.69 313.08,-33.94 295.83,-24.22"/>
<polygon fill="#63b8ff" stroke="#63b8ff" points="297.31,-21.03 286.88,-19.17 293.87,-27.13 297.31,-21.03"/>
</a>
</g>
</g>
<!-- Node9&#45;&gt;Node7 -->
<g id="edge10_Node000009_Node000007" class="edge">
<title>Node9&#45;&gt;Node7</title>
<g id="a_edge10_Node000009_Node000007"><a xlink:title=" ">
<path fill="none" stroke="#63b8ff" d="M373.26,-54.75C379.97,-47.18 389.84,-36.05 398.01,-26.84"/>
<polygon fill="#63b8ff" stroke="#63b8ff" points="400.87,-28.89 404.88,-19.09 395.63,-24.25 400.87,-28.89"/>
</a>
</g>
</g>
</g>
</svg>
