<?xml version="1.0" encoding="UTF-8" standalone="no"?>
<!DOCTYPE svg PUBLIC "-//W3C//DTD SVG 1.1//EN"
 "http://www.w3.org/Graphics/SVG/1.1/DTD/svg11.dtd">
<!-- Generated by graphviz version 2.43.0 (0)
 -->
<!-- Title: t/203_complex.c Pages: 1 -->
<svg width="503pt" height="192pt"
 viewBox="0.00 0.00 503.00 192.00" xmlns="http://www.w3.org/2000/svg" xmlns:xlink="http://www.w3.org/1999/xlink">
<g id="graph0" class="graph" transform="scale(1 1) rotate(0) translate(4 188)">
<title>t/203_complex.c</title>
<!-- Node1 -->
<g id="Node000001" class="node">
<title>Node1</title>
<g id="a_Node000001"><a xlink:title="Unit test for FFI calls involving C99 _Complex types.">
<polygon fill="#999999" stroke="#666666" points="297,-184 200,-184 200,-165 297,-165 297,-184"/>
<text text-anchor="middle" x="248.5" y="-172" font-family="Helvetica,sans-Serif" font-size="10.00">t/203_complex.c</text>
</a>
</g>
</g>
<!-- Node2 -->
<g id="Node000002" class="node">
<title>Node2</title>
<g id="a_Node000002"><a xlink:href="double__tap_8h.html" target="_top" xlink:title="A lightweight, single&#45;header TAP (Test Anything Protocol) library.">
<polygon fill="white" stroke="#666666" points="125,-129 0,-129 0,-110 125,-110 125,-129"/>
<text text-anchor="middle" x="62.5" y="-117" font-family="Helvetica,sans-Serif" font-size="10.00">common/double_tap.h</text>
</a>
</g>
</g>
<!-- Node1&#45;&gt;Node2 -->
<g id="edge1_Node000001_Node000002" class="edge">
<title>Node1&#45;&gt;Node2</title>
<g id="a_edge1_Node000001_Node000002"><a xlink:title=" ">
<path fill="none" stroke="#63b8ff" d="M218.62,-164.98C187.12,-156.01 137.33,-141.82 102.47,-131.89"/>
<polygon fill="#63b8ff" stroke="#63b8ff" points="103.19,-128.46 92.62,-129.08 101.28,-135.19 103.19,-128.46"/>
</a>
</g>
</g>
<!-- Node3 -->
<g id="Node000003" class="node">
<title>Node3</title>
<g id="a_Node000003"><a xlink:href="types_8h.html" target="_top" xlink:title="Defines common C structures used across the infix test suite.">
<polygon fill="white" stroke="#666666" points="196,-129 143,-129 143,-110 196,-110 196,-129"/>
<text text-anchor="middle" x="169.5" y="-117" font-family="Helvetica,sans-Serif" font-size="10.00">types.h</text>
</a>
</g>
</g>
<!-- Node1&#45;&gt;Node3 -->
<g id="edge2_Node000001_Node000003" class="edge">
<title>Node1&#45;&gt;Node3</title>
<g id="a_edge2_Node000001_Node000003"><a xlink:title=" ">
<path fill="none" stroke="#63b8ff" d="M235.81,-164.98C223.67,-156.84 205.14,-144.41 190.75,-134.76"/>
<polygon fill="#63b8ff" stroke="#63b8ff" points="192.68,-131.84 182.42,-129.17 188.78,-137.65 192.68,-131.84"/>
</a>
</g>
</g>
<!-- Node6 -->
<g id="Node000006" class="node">
<title>Node6</title>
<g id="a_Node000006"><a xlink:title=" ">
<polygon fill="#e0e0e0" stroke="#999999" points="282.5,-129 214.5,-129 214.5,-110 282.5,-110 282.5,-129"/>
<text text-anchor="middle" x="248.5" y="-117" font-family="Helvetica,sans-Serif" font-size="10.00">complex.h</text>
</a>
</g>
</g>
<!-- Node1&#45;&gt;Node6 -->
<g id="edge5_Node000001_Node000006" class="edge">
<title>Node1&#45;&gt;Node6</title>
<g id="a_edge5_Node000001_Node000006"><a xlink:title=" ">
<path fill="none" stroke="#63b8ff" d="M248.5,-164.75C248.5,-157.8 248.5,-147.85 248.5,-139.13"/>
<polygon fill="#63b8ff" stroke="#63b8ff" points="252,-139.09 248.5,-129.09 245,-139.09 252,-139.09"/>
</a>
</g>
</g>
<!-- Node7 -->
<g id="Node000007" class="node">
<title>Node7</title>
<g id="a_Node000007"><a xlink:href="infix_8h.html" target="_top" xlink:title="The public interface for the infix FFI library.">
<polygon fill="white" stroke="#666666" points="372,-129 301,-129 301,-110 372,-110 372,-129"/>
<text text-anchor="middle" x="336.5" y="-117" font-family="Helvetica,sans-Serif" font-size="10.00">infix/infix.h</text>
</a>
</g>
</g>
<!-- Node1&#45;&gt;Node7 -->
<g id="edge6_Node000001_Node000007" class="edge">
<title>Node1&#45;&gt;Node7</title>
<g id="a_edge6_Node000001_Node000007"><a xlink:title=" ">
<path fill="none" stroke="#63b8ff" d="M262.64,-164.98C276.29,-156.77 297.19,-144.18 313.28,-134.49"/>
<polygon fill="#63b8ff" stroke="#63b8ff" points="315.34,-137.33 322.1,-129.17 311.73,-131.33 315.34,-137.33"/>
</a>
</g>
</g>
<!-- Node11 -->
<g id="Node000011" class="node">
<title>Node11</title>
<g id="a_Node000011"><a xlink:title=" ">
<polygon fill="#e0e0e0" stroke="#999999" points="441,-129 390,-129 390,-110 441,-110 441,-129"/>
<text text-anchor="middle" x="415.5" y="-117" font-family="Helvetica,sans-Serif" font-size="10.00">math.h</text>
</a>
</g>
</g>
<!-- Node1&#45;&gt;Node11 -->
<g id="edge13_Node000001_Node000011" class="edge">
<title>Node1&#45;&gt;Node11</title>
<g id="a_edge13_Node000001_Node000011"><a xlink:title=" ">
<path fill="none" stroke="#63b8ff" d="M275.33,-164.98C303.78,-155.95 348.86,-141.65 380.18,-131.71"/>
<polygon fill="#63b8ff" stroke="#63b8ff" points="381.36,-135.01 389.83,-128.65 379.24,-128.34 381.36,-135.01"/>
</a>
</g>
</g>
<!-- Node4 -->
<g id="Node000004" class="node">
<title>Node4</title>
<g id="a_Node000004"><a xlink:title=" ">
<polygon fill="#e0e0e0" stroke="#999999" points="159,-74 94,-74 94,-55 159,-55 159,-74"/>
<text text-anchor="middle" x="126.5" y="-62" font-family="Helvetica,sans-Serif" font-size="10.00">inttypes.h</text>
</a>
</g>
</g>
<!-- Node3&#45;&gt;Node4 -->
<g id="edge3_Node000003_Node000004" class="edge">
<title>Node3&#45;&gt;Node4</title>
<g id="a_edge3_Node000003_Node000004"><a xlink:title=" ">
<path fill="none" stroke="#63b8ff" d="M162.4,-109.75C156.33,-102.26 147.41,-91.28 139.99,-82.13"/>
<polygon fill="#63b8ff" stroke="#63b8ff" points="142.49,-79.65 133.47,-74.09 137.05,-84.06 142.49,-79.65"/>
</a>
</g>
</g>
<!-- Node5 -->
<g id="Node000005" class="node">
<title>Node5</title>
<g id="a_Node000005"><a xlink:title=" ">
<polygon fill="#e0e0e0" stroke="#999999" points="253.5,-19 197.5,-19 197.5,0 253.5,0 253.5,-19"/>
<text text-anchor="middle" x="225.5" y="-7" font-family="Helvetica,sans-Serif" font-size="10.00">stddef.h</text>
</a>
</g>
</g>
<!-- Node3&#45;&gt;Node5 -->
<g id="edge4_Node000003_Node000005" class="edge">
<title>Node3&#45;&gt;Node5</title>
<g id="a_edge4_Node000003_Node000005"><a xlink:title=" ">
<path fill="none" stroke="#63b8ff" d="M174.08,-109.66C183.28,-91.93 204.12,-51.73 216.26,-28.32"/>
<polygon fill="#63b8ff" stroke="#63b8ff" points="219.51,-29.65 221.01,-19.16 213.3,-26.42 219.51,-29.65"/>
</a>
</g>
</g>
<!-- Node7&#45;&gt;Node5 -->
<g id="edge11_Node000007_Node000005" class="edge">
<title>Node7&#45;&gt;Node5</title>
<g id="a_edge11_Node000007_Node000005"><a xlink:title=" ">
<path fill="none" stroke="#63b8ff" d="M303.79,-109.99C284.04,-103.27 259.8,-91.96 244.5,-74 233.89,-61.54 229.21,-43.34 227.14,-29.61"/>
<polygon fill="#63b8ff" stroke="#63b8ff" points="230.58,-28.88 225.94,-19.35 223.62,-29.69 230.58,-28.88"/>
</a>
</g>
</g>
<!-- Node8 -->
<g id="Node000008" class="node">
<title>Node8</title>
<g id="a_Node000008"><a xlink:href="compat__c23_8h.html" target="_top" xlink:title="Provides forward compatibility macros for C23 features.">
<polygon fill="white" stroke="#666666" points="385,-74 254,-74 254,-55 385,-55 385,-74"/>
<text text-anchor="middle" x="319.5" y="-62" font-family="Helvetica,sans-Serif" font-size="10.00">common/compat_c23.h</text>
</a>
</g>
</g>
<!-- Node7&#45;&gt;Node8 -->
<g id="edge7_Node000007_Node000008" class="edge">
<title>Node7&#45;&gt;Node8</title>
<g id="a_edge7_Node000007_Node000008"><a xlink:title=" ">
<path fill="none" stroke="#63b8ff" d="M333.69,-109.75C331.44,-102.72 328.2,-92.62 325.38,-83.84"/>
<polygon fill="#63b8ff" stroke="#63b8ff" points="328.64,-82.54 322.25,-74.09 321.98,-84.68 328.64,-82.54"/>
</a>
</g>
</g>
<!-- Node9 -->
<g id="Node000009" class="node">
<title>Node9</title>
<g id="a_Node000009"><a xlink:title=" ">
<polygon fill="#e0e0e0" stroke="#999999" points="397.5,-19 335.5,-19 335.5,0 397.5,0 397.5,-19"/>
<text text-anchor="middle" x="366.5" y="-7" font-family="Helvetica,sans-Serif" font-size="10.00">stdbool.h</text>
</a>
</g>
</g>
<!-- Node7&#45;&gt;Node9 -->
<g id="edge10_Node000007_Node000009" class="edge">
<title>Node7&#45;&gt;Node9</title>
<g id="a_edge10_Node000007_Node000009"><a xlink:title=" ">
<path fill="none" stroke="#63b8ff" d="M355.17,-109.97C368.83,-102.59 386.36,-90.5 394.5,-74 402.28,-58.22 392.08,-39.78 381.87,-26.85"/>
<polygon fill="#63b8ff" stroke="#63b8ff" points="384.52,-24.56 375.36,-19.24 379.2,-29.11 384.52,-24.56"/>
</a>
</g>
</g>
<!-- Node10 -->
<g id="Node000010" class="node">
<title>Node10</title>
<g id="a_Node000010"><a xlink:title=" ">
<polygon fill="#e0e0e0" stroke="#999999" points="495,-74 442,-74 442,-55 495,-55 495,-74"/>
<text text-anchor="middle" x="468.5" y="-62" font-family="Helvetica,sans-Serif" font-size="10.00">stdint.h</text>
</a>
</g>
</g>
<!-- Node7&#45;&gt;Node10 -->
<g id="edge12_Node000007_Node000010" class="edge">
<title>Node7&#45;&gt;Node10</title>
<g id="a_edge12_Node000007_Node000010"><a xlink:title=" ">
<path fill="none" stroke="#63b8ff" d="M357.71,-109.98C379.23,-101.34 412.78,-87.87 437.33,-78.02"/>
<polygon fill="#63b8ff" stroke="#63b8ff" points="438.93,-81.14 446.91,-74.17 436.32,-74.65 438.93,-81.14"/>
</a>
</g>
</g>
<!-- Node8&#45;&gt;Node5 -->
<g id="edge9_Node000008_Node000005" class="edge">
<title>Node8&#45;&gt;Node5</title>
<g id="a_edge9_Node000008_Node000005"><a xlink:title=" ">
<path fill="none" stroke="#63b8ff" d="M304.4,-54.98C289.68,-46.69 267.08,-33.94 249.83,-24.22"/>
<polygon fill="#63b8ff" stroke="#63b8ff" points="251.31,-21.03 240.88,-19.17 247.87,-27.13 251.31,-21.03"/>
</a>
</g>
</g>
<!-- Node8&#45;&gt;Node9 -->
<g id="edge8_Node000008_Node000009" class="edge">
<title>Node8&#45;&gt;Node9</title>
<g id="a_edge8_Node000008_Node000009"><a xlink:title=" ">
<path fill="none" stroke="#63b8ff" d="M327.26,-54.75C333.97,-47.18 343.84,-36.05 352.01,-26.84"/>
<polygon fill="#63b8ff" stroke="#63b8ff" points="354.87,-28.89 358.88,-19.09 349.63,-24.25 354.87,-28.89"/>
</a>
</g>
</g>
</g>
</svg>
