<?xml version="1.0" encoding="UTF-8" standalone="no"?>
<!DOCTYPE svg PUBLIC "-//W3C//DTD SVG 1.1//EN"
 "http://www.w3.org/Graphics/SVG/1.1/DTD/svg11.dtd">
<!-- Generated by graphviz version 2.43.0 (0)
 -->
<!-- Title: t/303_advanced.c Pages: 1 -->
<svg width="461pt" height="192pt"
 viewBox="0.00 0.00 461.20 192.00" xmlns="http://www.w3.org/2000/svg" xmlns:xlink="http://www.w3.org/1999/xlink">

<svg id="main" version="1.1" xmlns="http://www.w3.org/2000/svg" xmlns:xlink="http://www.w3.org/1999/xlink" xml:space="preserve" onload="init(evt)">
<style type="text/css"><![CDATA[
.node, .edge {opacity: 0.7;}
.node.selected, .edge.selected {opacity: 1;}
.edge:hover path { stroke: red; }
.edge:hover polygon { stroke: red; fill: red; }
]]></style>
<script type="application/ecmascript" xlink:href="svg.min.js"/>
<svg id="graph" class="graph">
<g id="graph0" class="graph" transform="scale(1 1) rotate(0) translate(4 188)">
<title>t/303_advanced.c</title>
<!-- Node1 -->
<g id="Node000001" class="node">
<title>Node1</title>
<g id="a_Node000001"><a xlink:title="Tests advanced reverse trampoline (callback) patterns.">
<polygon fill="#999999" stroke="#666666" points="220.5,-184 118.5,-184 118.5,-165 220.5,-165 220.5,-184"/>
<text text-anchor="middle" x="169.5" y="-172" font-family="Helvetica,sans-Serif" font-size="10.00">t/303_advanced.c</text>
</a>
</g>
</g>
<!-- Node2 -->
<g id="Node000002" class="node">
<title>Node2</title>
<g id="a_Node000002"><a xlink:href="double__tap_8h.html" target="_top" xlink:title="A simple, header&#45;only TAP14&#45;compatible testing framework for C.">
<polygon fill="white" stroke="#666666" points="125,-129 0,-129 0,-110 125,-110 125,-129"/>
<text text-anchor="middle" x="62.5" y="-117" font-family="Helvetica,sans-Serif" font-size="10.00">common/double_tap.h</text>
</a>
</g>
</g>
<!-- Node1&#45;&gt;Node2 -->
<g id="edge1_Node000001_Node000002" class="edge">
<title>Node1&#45;&gt;Node2</title>
<g id="a_edge1_Node000001_Node000002"><a xlink:title=" ">
<path fill="none" stroke="#63b8ff" d="M152.31,-164.98C135.25,-156.54 108.87,-143.47 89.1,-133.68"/>
<polygon fill="#63b8ff" stroke="#63b8ff" points="90.52,-130.47 80,-129.17 87.41,-136.75 90.52,-130.47"/>
</a>
</g>
</g>
<!-- Node3 -->
<g id="Node000003" class="node">
<title>Node3</title>
<g id="a_Node000003"><a xlink:href="types_8h.html" target="_top" xlink:title="Defines common data structures used across the entire test suite.">
<polygon fill="white" stroke="#666666" points="196,-129 143,-129 143,-110 196,-110 196,-129"/>
<text text-anchor="middle" x="169.5" y="-117" font-family="Helvetica,sans-Serif" font-size="10.00">types.h</text>
</a>
</g>
</g>
<!-- Node1&#45;&gt;Node3 -->
<g id="edge2_Node000001_Node000003" class="edge">
<title>Node1&#45;&gt;Node3</title>
<g id="a_edge2_Node000001_Node000003"><a xlink:title=" ">
<path fill="none" stroke="#63b8ff" d="M169.5,-164.75C169.5,-157.8 169.5,-147.85 169.5,-139.13"/>
<polygon fill="#63b8ff" stroke="#63b8ff" points="173,-139.09 169.5,-129.09 166,-139.09 173,-139.09"/>
</a>
</g>
</g>
<!-- Node6 -->
<g id="Node000006" class="node">
<title>Node6</title>
<g id="a_Node000006"><a xlink:href="infix_8h.html" target="_top" xlink:title=" ">
<polygon fill="white" stroke="#666666" points="315,-129 244,-129 244,-110 315,-110 315,-129"/>
<text text-anchor="middle" x="279.5" y="-117" font-family="Helvetica,sans-Serif" font-size="10.00">infix/infix.h</text>
</a>
</g>
</g>
<!-- Node1&#45;&gt;Node6 -->
<g id="edge5_Node000001_Node000006" class="edge">
<title>Node1&#45;&gt;Node6</title>
<g id="a_edge5_Node000001_Node000006"><a xlink:title=" ">
<path fill="none" stroke="#63b8ff" d="M187.17,-164.98C204.79,-156.5 232.08,-143.35 252.43,-133.54"/>
<polygon fill="#63b8ff" stroke="#63b8ff" points="254.02,-136.66 261.51,-129.17 250.98,-130.36 254.02,-136.66"/>
</a>
</g>
</g>
<!-- Node4 -->
<g id="Node000004" class="node">
<title>Node4</title>
<g id="a_Node000004"><a xlink:title=" ">
<polygon fill="#e0e0e0" stroke="#999999" points="141,-74 76,-74 76,-55 141,-55 141,-74"/>
<text text-anchor="middle" x="108.5" y="-62" font-family="Helvetica,sans-Serif" font-size="10.00">inttypes.h</text>
</a>
</g>
</g>
<!-- Node3&#45;&gt;Node4 -->
<g id="edge3_Node000003_Node000004" class="edge">
<title>Node3&#45;&gt;Node4</title>
<g id="a_edge3_Node000003_Node000004"><a xlink:title=" ">
<path fill="none" stroke="#63b8ff" d="M159.7,-109.98C150.68,-102.15 137.09,-90.34 126.18,-80.86"/>
<polygon fill="#63b8ff" stroke="#63b8ff" points="128.32,-78.09 118.48,-74.17 123.73,-83.37 128.32,-78.09"/>
</a>
</g>
</g>
<!-- Node5 -->
<g id="Node000005" class="node">
<title>Node5</title>
<g id="a_Node000005"><a xlink:title=" ">
<polygon fill="#e0e0e0" stroke="#999999" points="307.5,-19 251.5,-19 251.5,0 307.5,0 307.5,-19"/>
<text text-anchor="middle" x="279.5" y="-7" font-family="Helvetica,sans-Serif" font-size="10.00">stddef.h</text>
</a>
</g>
</g>
<!-- Node3&#45;&gt;Node5 -->
<g id="edge4_Node000003_Node000005" class="edge">
<title>Node3&#45;&gt;Node5</title>
<g id="a_edge4_Node000003_Node000005"><a xlink:title=" ">
<path fill="none" stroke="#63b8ff" d="M169.95,-109.65C171.07,-96.33 174.95,-70.97 188.5,-55 202.29,-38.74 223.42,-27.9 241.85,-21"/>
<polygon fill="#63b8ff" stroke="#63b8ff" points="243.18,-24.24 251.47,-17.65 240.87,-17.63 243.18,-24.24"/>
</a>
</g>
</g>
<!-- Node6&#45;&gt;Node5 -->
<g id="edge7_Node000006_Node000005" class="edge">
<title>Node6&#45;&gt;Node5</title>
<g id="a_edge7_Node000006_Node000005"><a xlink:title=" ">
<path fill="none" stroke="#63b8ff" d="M279.5,-109.66C279.5,-92.17 279.5,-52.8 279.5,-29.27"/>
<polygon fill="#63b8ff" stroke="#63b8ff" points="283,-29.16 279.5,-19.16 276,-29.16 283,-29.16"/>
</a>
</g>
</g>
<!-- Node7 -->
<g id="Node000007" class="node">
<title>Node7</title>
<g id="a_Node000007"><a xlink:title=" ">
<polygon fill="#e0e0e0" stroke="#999999" points="451.5,-19 389.5,-19 389.5,0 451.5,0 451.5,-19"/>
<text text-anchor="middle" x="420.5" y="-7" font-family="Helvetica,sans-Serif" font-size="10.00">stdbool.h</text>
</a>
</g>
</g>
<!-- Node6&#45;&gt;Node7 -->
<g id="edge6_Node000006_Node000007" class="edge">
<title>Node6&#45;&gt;Node7</title>
<g id="a_edge6_Node000006_Node000007"><a xlink:title=" ">
<path fill="none" stroke="#63b8ff" d="M315.07,-114.22C359.69,-108.03 432.34,-94.97 448.5,-74 459.46,-59.78 448.17,-40.59 436.82,-27.04"/>
<polygon fill="#63b8ff" stroke="#63b8ff" points="439.24,-24.5 429.94,-19.43 434.04,-29.19 439.24,-24.5"/>
</a>
</g>
</g>
<!-- Node8 -->
<g id="Node000008" class="node">
<title>Node8</title>
<g id="a_Node000008"><a xlink:title=" ">
<polygon fill="#e0e0e0" stroke="#999999" points="251,-74 198,-74 198,-55 251,-55 251,-74"/>
<text text-anchor="middle" x="224.5" y="-62" font-family="Helvetica,sans-Serif" font-size="10.00">stdint.h</text>
</a>
</g>
</g>
<!-- Node6&#45;&gt;Node8 -->
<g id="edge8_Node000006_Node000008" class="edge">
<title>Node6&#45;&gt;Node8</title>
<g id="a_edge8_Node000006_Node000008"><a xlink:title=" ">
<path fill="none" stroke="#63b8ff" d="M270.42,-109.75C262.41,-102.03 250.54,-90.6 240.88,-81.28"/>
<polygon fill="#63b8ff" stroke="#63b8ff" points="243.04,-78.51 233.41,-74.09 238.19,-83.55 243.04,-78.51"/>
</a>
</g>
</g>
<!-- Node9 -->
<g id="Node000009" class="node">
<title>Node9</title>
<g id="a_Node000009"><a xlink:href="compat__c23_8h.html" target="_top" xlink:title="Provides compatibility shims for C23 features in a C17/C11 project.">
<polygon fill="white" stroke="#666666" points="439,-74 308,-74 308,-55 439,-55 439,-74"/>
<text text-anchor="middle" x="373.5" y="-62" font-family="Helvetica,sans-Serif" font-size="10.00">common/compat_c23.h</text>
</a>
</g>
</g>
<!-- Node6&#45;&gt;Node9 -->
<g id="edge9_Node000006_Node000009" class="edge">
<title>Node6&#45;&gt;Node9</title>
<g id="a_edge9_Node000006_Node000009"><a xlink:title=" ">
<path fill="none" stroke="#63b8ff" d="M294.6,-109.98C309.32,-101.69 331.92,-88.94 349.17,-79.22"/>
<polygon fill="#63b8ff" stroke="#63b8ff" points="351.13,-82.13 358.12,-74.17 347.69,-76.03 351.13,-82.13"/>
</a>
</g>
</g>
<!-- Node9&#45;&gt;Node5 -->
<g id="edge11_Node000009_Node000005" class="edge">
<title>Node9&#45;&gt;Node5</title>
<g id="a_edge11_Node000009_Node000005"><a xlink:title=" ">
<path fill="none" stroke="#63b8ff" d="M358.4,-54.98C343.68,-46.69 321.08,-33.94 303.83,-24.22"/>
<polygon fill="#63b8ff" stroke="#63b8ff" points="305.31,-21.03 294.88,-19.17 301.87,-27.13 305.31,-21.03"/>
</a>
</g>
</g>
<!-- Node9&#45;&gt;Node7 -->
<g id="edge10_Node000009_Node000007" class="edge">
<title>Node9&#45;&gt;Node7</title>
<g id="a_edge10_Node000009_Node000007"><a xlink:title=" ">
<path fill="none" stroke="#63b8ff" d="M381.26,-54.75C387.97,-47.18 397.84,-36.05 406.01,-26.84"/>
<polygon fill="#63b8ff" stroke="#63b8ff" points="408.87,-28.89 412.88,-19.09 403.63,-24.25 408.87,-28.89"/>
</a>
</g>
</g>
</g>
</svg>
</svg>

<style type='text/css'>
<![CDATA[
[data-mouse-over-selected='false'] { opacity: 0.7; }
[data-mouse-over-selected='true']  { opacity: 1.0; }
]]>
</style>
<script type="application/ecmascript"><![CDATA[
document.addEventListener('DOMContentLoaded', (event) => {
  highlightEdges();
  highlightAdjacentNodes();
});
]]></script>
</svg>
