<?xml version="1.0" encoding="UTF-8" standalone="no"?>
<!DOCTYPE svg PUBLIC "-//W3C//DTD SVG 1.1//EN"
 "http://www.w3.org/Graphics/SVG/1.1/DTD/svg11.dtd">
<!-- Generated by graphviz version 2.43.0 (0)
 -->
<!-- Title: t/402_variadic_functions.c Pages: 1 -->
<svg width="778pt" height="192pt"
 viewBox="0.00 0.00 778.00 192.00" xmlns="http://www.w3.org/2000/svg" xmlns:xlink="http://www.w3.org/1999/xlink">
<g id="graph0" class="graph" transform="scale(1 1) rotate(0) translate(4 188)">
<title>t/402_variadic_functions.c</title>
<!-- Node1 -->
<g id="Node000001" class="node">
<title>Node1</title>
<g id="a_Node000001"><a xlink:title="Unit test for FFI calls to and from variadic C functions.">
<polygon fill="#999999" stroke="#666666" points="496.5,-184 352.5,-184 352.5,-165 496.5,-165 496.5,-184"/>
<text text-anchor="middle" x="424.5" y="-172" font-family="Helvetica,sans-Serif" font-size="10.00">t/402_variadic_functions.c</text>
</a>
</g>
</g>
<!-- Node2 -->
<g id="Node000002" class="node">
<title>Node2</title>
<g id="a_Node000002"><a xlink:href="compat__c23_8h.html" target="_top" xlink:title="Provides forward compatibility macros for C23 features.">
<polygon fill="white" stroke="#666666" points="234,-129 103,-129 103,-110 234,-110 234,-129"/>
<text text-anchor="middle" x="168.5" y="-117" font-family="Helvetica,sans-Serif" font-size="10.00">common/compat_c23.h</text>
</a>
</g>
</g>
<!-- Node1&#45;&gt;Node2 -->
<g id="edge1_Node000001_Node000002" class="edge">
<title>Node1&#45;&gt;Node2</title>
<g id="a_edge1_Node000001_Node000002"><a xlink:title=" ">
<path fill="none" stroke="#63b8ff" d="M383.37,-164.98C338.9,-155.78 267.95,-141.09 219.85,-131.13"/>
<polygon fill="#63b8ff" stroke="#63b8ff" points="220.46,-127.68 209.95,-129.08 219.04,-134.54 220.46,-127.68"/>
</a>
</g>
</g>
<!-- Node3 -->
<g id="Node000003" class="node">
<title>Node3</title>
<g id="a_Node000003"><a xlink:href="infix__config_8h.html" target="_top" xlink:title="Platform, architecture, and ABI detection macros.">
<polygon fill="white" stroke="#666666" points="127,-74 0,-74 0,-55 127,-55 127,-74"/>
<text text-anchor="middle" x="63.5" y="-62" font-family="Helvetica,sans-Serif" font-size="10.00">common/infix_config.h</text>
</a>
</g>
</g>
<!-- Node1&#45;&gt;Node3 -->
<g id="edge10_Node000001_Node000003" class="edge">
<title>Node1&#45;&gt;Node3</title>
<g id="a_edge10_Node000001_Node000003"><a xlink:title=" ">
<path fill="none" stroke="#63b8ff" d="M352.49,-171.72C267.76,-168.29 133.51,-158.27 93.5,-129 78.91,-118.33 71.16,-98.73 67.22,-84.12"/>
<polygon fill="#63b8ff" stroke="#63b8ff" points="70.57,-83.09 64.9,-74.14 63.76,-84.68 70.57,-83.09"/>
</a>
</g>
</g>
<!-- Node4 -->
<g id="Node000004" class="node">
<title>Node4</title>
<g id="a_Node000004"><a xlink:href="infix_8h.html" target="_top" xlink:title="The public interface for the infix FFI library.">
<polygon fill="white" stroke="#666666" points="255,-74 184,-74 184,-55 255,-55 255,-74"/>
<text text-anchor="middle" x="219.5" y="-62" font-family="Helvetica,sans-Serif" font-size="10.00">infix/infix.h</text>
</a>
</g>
</g>
<!-- Node1&#45;&gt;Node4 -->
<g id="edge14_Node000001_Node000004" class="edge">
<title>Node1&#45;&gt;Node4</title>
<g id="a_edge14_Node000001_Node000004"><a xlink:title=" ">
<path fill="none" stroke="#63b8ff" d="M378.31,-165C349.32,-158.26 311.97,-146.92 282.5,-129 262.28,-116.7 243.81,-96.55 232.17,-82.25"/>
<polygon fill="#63b8ff" stroke="#63b8ff" points="234.79,-79.91 225.85,-74.22 229.29,-84.24 234.79,-79.91"/>
</a>
</g>
</g>
<!-- Node8 -->
<g id="Node000008" class="node">
<title>Node8</title>
<g id="a_Node000008"><a xlink:href="double__tap_8h.html" target="_top" xlink:title="A lightweight, single&#45;header TAP (Test Anything Protocol) library.">
<polygon fill="white" stroke="#666666" points="487,-129 362,-129 362,-110 487,-110 487,-129"/>
<text text-anchor="middle" x="424.5" y="-117" font-family="Helvetica,sans-Serif" font-size="10.00">common/double_tap.h</text>
</a>
</g>
</g>
<!-- Node1&#45;&gt;Node8 -->
<g id="edge9_Node000001_Node000008" class="edge">
<title>Node1&#45;&gt;Node8</title>
<g id="a_edge9_Node000001_Node000008"><a xlink:title=" ">
<path fill="none" stroke="#63b8ff" d="M424.5,-164.75C424.5,-157.8 424.5,-147.85 424.5,-139.13"/>
<polygon fill="#63b8ff" stroke="#63b8ff" points="428,-139.09 424.5,-129.09 421,-139.09 428,-139.09"/>
</a>
</g>
</g>
<!-- Node9 -->
<g id="Node000009" class="node">
<title>Node9</title>
<g id="a_Node000009"><a xlink:href="types_8h.html" target="_top" xlink:title="Defines common C structures used across the infix test suite.">
<polygon fill="white" stroke="#666666" points="344,-129 291,-129 291,-110 344,-110 344,-129"/>
<text text-anchor="middle" x="317.5" y="-117" font-family="Helvetica,sans-Serif" font-size="10.00">types.h</text>
</a>
</g>
</g>
<!-- Node1&#45;&gt;Node9 -->
<g id="edge11_Node000001_Node000009" class="edge">
<title>Node1&#45;&gt;Node9</title>
<g id="a_edge11_Node000001_Node000009"><a xlink:title=" ">
<path fill="none" stroke="#63b8ff" d="M407.31,-164.98C390.25,-156.54 363.87,-143.47 344.1,-133.68"/>
<polygon fill="#63b8ff" stroke="#63b8ff" points="345.52,-130.47 335,-129.17 342.41,-136.75 345.52,-130.47"/>
</a>
</g>
</g>
<!-- Node11 -->
<g id="Node000011" class="node">
<title>Node11</title>
<g id="a_Node000011"><a xlink:title=" ">
<polygon fill="#e0e0e0" stroke="#999999" points="556,-129 505,-129 505,-110 556,-110 556,-129"/>
<text text-anchor="middle" x="530.5" y="-117" font-family="Helvetica,sans-Serif" font-size="10.00">math.h</text>
</a>
</g>
</g>
<!-- Node1&#45;&gt;Node11 -->
<g id="edge15_Node000001_Node000011" class="edge">
<title>Node1&#45;&gt;Node11</title>
<g id="a_edge15_Node000001_Node000011"><a xlink:title=" ">
<path fill="none" stroke="#63b8ff" d="M441.53,-164.98C458.43,-156.54 484.56,-143.47 504.14,-133.68"/>
<polygon fill="#63b8ff" stroke="#63b8ff" points="505.78,-136.77 513.16,-129.17 502.65,-130.51 505.78,-136.77"/>
</a>
</g>
</g>
<!-- Node12 -->
<g id="Node000012" class="node">
<title>Node12</title>
<g id="a_Node000012"><a xlink:title=" ">
<polygon fill="#e0e0e0" stroke="#999999" points="630.5,-129 574.5,-129 574.5,-110 630.5,-110 630.5,-129"/>
<text text-anchor="middle" x="602.5" y="-117" font-family="Helvetica,sans-Serif" font-size="10.00">stdarg.h</text>
</a>
</g>
</g>
<!-- Node1&#45;&gt;Node12 -->
<g id="edge16_Node000001_Node000012" class="edge">
<title>Node1&#45;&gt;Node12</title>
<g id="a_edge16_Node000001_Node000012"><a xlink:title=" ">
<path fill="none" stroke="#63b8ff" d="M453.1,-164.98C483.29,-155.99 531.04,-141.78 564.41,-131.84"/>
<polygon fill="#63b8ff" stroke="#63b8ff" points="565.68,-135.11 574.27,-128.91 563.68,-128.41 565.68,-135.11"/>
</a>
</g>
</g>
<!-- Node13 -->
<g id="Node000013" class="node">
<title>Node13</title>
<g id="a_Node000013"><a xlink:title=" ">
<polygon fill="#e0e0e0" stroke="#999999" points="698.5,-129 648.5,-129 648.5,-110 698.5,-110 698.5,-129"/>
<text text-anchor="middle" x="673.5" y="-117" font-family="Helvetica,sans-Serif" font-size="10.00">stdio.h</text>
</a>
</g>
</g>
<!-- Node1&#45;&gt;Node13 -->
<g id="edge17_Node000001_Node000013" class="edge">
<title>Node1&#45;&gt;Node13</title>
<g id="a_edge17_Node000001_Node000013"><a xlink:title=" ">
<path fill="none" stroke="#63b8ff" d="M468.26,-164.99C509.66,-156.81 573.77,-143.84 638.33,-129.2"/>
<polygon fill="#63b8ff" stroke="#63b8ff" points="639.31,-132.56 648.28,-126.93 637.75,-125.74 639.31,-132.56"/>
</a>
</g>
</g>
<!-- Node14 -->
<g id="Node000014" class="node">
<title>Node14</title>
<g id="a_Node000014"><a xlink:title=" ">
<polygon fill="#e0e0e0" stroke="#999999" points="770,-129 717,-129 717,-110 770,-110 770,-129"/>
<text text-anchor="middle" x="743.5" y="-117" font-family="Helvetica,sans-Serif" font-size="10.00">string.h</text>
</a>
</g>
</g>
<!-- Node1&#45;&gt;Node14 -->
<g id="edge18_Node000001_Node000014" class="edge">
<title>Node1&#45;&gt;Node14</title>
<g id="a_edge18_Node000001_Node000014"><a xlink:title=" ">
<path fill="none" stroke="#63b8ff" d="M487.69,-164.97C542.95,-157.18 625.58,-144.78 706.9,-128.98"/>
<polygon fill="#63b8ff" stroke="#63b8ff" points="707.67,-132.4 716.81,-127.04 706.33,-125.53 707.67,-132.4"/>
</a>
</g>
</g>
<!-- Node2&#45;&gt;Node3 -->
<g id="edge2_Node000002_Node000003" class="edge">
<title>Node2&#45;&gt;Node3</title>
<g id="a_edge2_Node000002_Node000003"><a xlink:title=" ">
<path fill="none" stroke="#63b8ff" d="M151.63,-109.98C134.89,-101.54 109,-88.47 89.61,-78.68"/>
<polygon fill="#63b8ff" stroke="#63b8ff" points="91.18,-75.55 80.68,-74.17 88.03,-81.8 91.18,-75.55"/>
</a>
</g>
</g>
<!-- Node2&#45;&gt;Node4 -->
<g id="edge3_Node000002_Node000004" class="edge">
<title>Node2&#45;&gt;Node4</title>
<g id="a_edge3_Node000002_Node000004"><a xlink:title=" ">
<path fill="none" stroke="#63b8ff" d="M176.92,-109.75C184.27,-102.11 195.13,-90.82 204.04,-81.56"/>
<polygon fill="#63b8ff" stroke="#63b8ff" points="206.82,-83.72 211.24,-74.09 201.78,-78.87 206.82,-83.72"/>
</a>
</g>
</g>
<!-- Node5 -->
<g id="Node000005" class="node">
<title>Node5</title>
<g id="a_Node000005"><a xlink:title=" ">
<polygon fill="#e0e0e0" stroke="#999999" points="180.5,-19 118.5,-19 118.5,0 180.5,0 180.5,-19"/>
<text text-anchor="middle" x="149.5" y="-7" font-family="Helvetica,sans-Serif" font-size="10.00">stdbool.h</text>
</a>
</g>
</g>
<!-- Node2&#45;&gt;Node5 -->
<g id="edge7_Node000002_Node000005" class="edge">
<title>Node2&#45;&gt;Node5</title>
<g id="a_edge7_Node000002_Node000005"><a xlink:title=" ">
<path fill="none" stroke="#63b8ff" d="M166.95,-109.66C163.87,-92.17 156.94,-52.8 152.8,-29.27"/>
<polygon fill="#63b8ff" stroke="#63b8ff" points="156.2,-28.4 151.02,-19.16 149.31,-29.61 156.2,-28.4"/>
</a>
</g>
</g>
<!-- Node6 -->
<g id="Node000006" class="node">
<title>Node6</title>
<g id="a_Node000006"><a xlink:title=" ">
<polygon fill="#e0e0e0" stroke="#999999" points="326.5,-19 270.5,-19 270.5,0 326.5,0 326.5,-19"/>
<text text-anchor="middle" x="298.5" y="-7" font-family="Helvetica,sans-Serif" font-size="10.00">stddef.h</text>
</a>
</g>
</g>
<!-- Node2&#45;&gt;Node6 -->
<g id="edge8_Node000002_Node000006" class="edge">
<title>Node2&#45;&gt;Node6</title>
<g id="a_edge8_Node000002_Node000006"><a xlink:title=" ">
<path fill="none" stroke="#63b8ff" d="M198.31,-109.95C218.6,-102.94 245.02,-91.3 263.5,-74 276.83,-61.52 286.29,-42.8 291.98,-28.92"/>
<polygon fill="#63b8ff" stroke="#63b8ff" points="295.31,-30.02 295.61,-19.42 288.77,-27.52 295.31,-30.02"/>
</a>
</g>
</g>
<!-- Node4&#45;&gt;Node5 -->
<g id="edge4_Node000004_Node000005" class="edge">
<title>Node4&#45;&gt;Node5</title>
<g id="a_edge4_Node000004_Node000005"><a xlink:title=" ">
<path fill="none" stroke="#63b8ff" d="M208.25,-54.98C197.7,-47 181.7,-34.88 169.06,-25.31"/>
<polygon fill="#63b8ff" stroke="#63b8ff" points="171.04,-22.42 160.95,-19.17 166.81,-28 171.04,-22.42"/>
</a>
</g>
</g>
<!-- Node4&#45;&gt;Node6 -->
<g id="edge5_Node000004_Node000006" class="edge">
<title>Node4&#45;&gt;Node6</title>
<g id="a_edge5_Node000004_Node000006"><a xlink:title=" ">
<path fill="none" stroke="#63b8ff" d="M232.19,-54.98C244.33,-46.84 262.86,-34.41 277.25,-24.76"/>
<polygon fill="#63b8ff" stroke="#63b8ff" points="279.22,-27.65 285.58,-19.17 275.32,-21.84 279.22,-27.65"/>
</a>
</g>
</g>
<!-- Node7 -->
<g id="Node000007" class="node">
<title>Node7</title>
<g id="a_Node000007"><a xlink:title=" ">
<polygon fill="#e0e0e0" stroke="#999999" points="252,-19 199,-19 199,0 252,0 252,-19"/>
<text text-anchor="middle" x="225.5" y="-7" font-family="Helvetica,sans-Serif" font-size="10.00">stdint.h</text>
</a>
</g>
</g>
<!-- Node4&#45;&gt;Node7 -->
<g id="edge6_Node000004_Node000007" class="edge">
<title>Node4&#45;&gt;Node7</title>
<g id="a_edge6_Node000004_Node000007"><a xlink:title=" ">
<path fill="none" stroke="#63b8ff" d="M220.49,-54.75C221.28,-47.8 222.4,-37.85 223.39,-29.13"/>
<polygon fill="#63b8ff" stroke="#63b8ff" points="226.88,-29.42 224.53,-19.09 219.92,-28.63 226.88,-29.42"/>
</a>
</g>
</g>
<!-- Node9&#45;&gt;Node6 -->
<g id="edge13_Node000009_Node000006" class="edge">
<title>Node9&#45;&gt;Node6</title>
<g id="a_edge13_Node000009_Node000006"><a xlink:title=" ">
<path fill="none" stroke="#63b8ff" d="M315.95,-109.66C312.87,-92.17 305.94,-52.8 301.8,-29.27"/>
<polygon fill="#63b8ff" stroke="#63b8ff" points="305.2,-28.4 300.02,-19.16 298.31,-29.61 305.2,-28.4"/>
</a>
</g>
</g>
<!-- Node10 -->
<g id="Node000010" class="node">
<title>Node10</title>
<g id="a_Node000010"><a xlink:title=" ">
<polygon fill="#e0e0e0" stroke="#999999" points="415,-74 350,-74 350,-55 415,-55 415,-74"/>
<text text-anchor="middle" x="382.5" y="-62" font-family="Helvetica,sans-Serif" font-size="10.00">inttypes.h</text>
</a>
</g>
</g>
<!-- Node9&#45;&gt;Node10 -->
<g id="edge12_Node000009_Node000010" class="edge">
<title>Node9&#45;&gt;Node10</title>
<g id="a_edge12_Node000009_Node000010"><a xlink:title=" ">
<path fill="none" stroke="#63b8ff" d="M327.94,-109.98C337.65,-102.07 352.32,-90.11 364,-80.58"/>
<polygon fill="#63b8ff" stroke="#63b8ff" points="366.33,-83.2 371.87,-74.17 361.9,-77.78 366.33,-83.2"/>
</a>
</g>
</g>
</g>
</svg>
