<?xml version="1.0" encoding="UTF-8" standalone="no"?>
<!DOCTYPE svg PUBLIC "-//W3C//DTD SVG 1.1//EN"
 "http://www.w3.org/Graphics/SVG/1.1/DTD/svg11.dtd">
<!-- Generated by graphviz version 2.43.0 (0)
 -->
<!-- Title: t/402_variadic_functions.c Pages: 1 -->
<svg width="721pt" height="192pt"
 viewBox="0.00 0.00 721.00 192.00" xmlns="http://www.w3.org/2000/svg" xmlns:xlink="http://www.w3.org/1999/xlink">
<g id="graph0" class="graph" transform="scale(1 1) rotate(0) translate(4 188)">
<title>t/402_variadic_functions.c</title>
<!-- Node1 -->
<g id="Node000001" class="node">
<title>Node1</title>
<g id="a_Node000001"><a xlink:title="Tests FFI calls for variadic functions.">
<polygon fill="#999999" stroke="#666666" points="505.5,-184 361.5,-184 361.5,-165 505.5,-165 505.5,-184"/>
<text text-anchor="middle" x="433.5" y="-172" font-family="Helvetica,sans-Serif" font-size="10.00">t/402_variadic_functions.c</text>
</a>
</g>
</g>
<!-- Node2 -->
<g id="Node000002" class="node">
<title>Node2</title>
<g id="a_Node000002"><a xlink:href="double__tap_8h.html" target="_top" xlink:title="A simple, header&#45;only TAP14&#45;compatible testing framework for C.">
<polygon fill="white" stroke="#666666" points="125,-129 0,-129 0,-110 125,-110 125,-129"/>
<text text-anchor="middle" x="62.5" y="-117" font-family="Helvetica,sans-Serif" font-size="10.00">common/double_tap.h</text>
</a>
</g>
</g>
<!-- Node1&#45;&gt;Node2 -->
<g id="edge1_Node000001_Node000002" class="edge">
<title>Node1&#45;&gt;Node2</title>
<g id="a_edge1_Node000001_Node000002"><a xlink:title=" ">
<path fill="none" stroke="#63b8ff" d="M373.89,-164.98C308,-155.57 201.99,-140.43 132.28,-130.47"/>
<polygon fill="#63b8ff" stroke="#63b8ff" points="132.66,-126.99 122.27,-129.04 131.67,-133.92 132.66,-126.99"/>
</a>
</g>
</g>
<!-- Node3 -->
<g id="Node000003" class="node">
<title>Node3</title>
<g id="a_Node000003"><a xlink:href="infix__config_8h.html" target="_top" xlink:title="Internal&#45;only header for platform, architecture, and ABI detection.">
<polygon fill="white" stroke="#666666" points="270,-129 143,-129 143,-110 270,-110 270,-129"/>
<text text-anchor="middle" x="206.5" y="-117" font-family="Helvetica,sans-Serif" font-size="10.00">common/infix_config.h</text>
</a>
</g>
</g>
<!-- Node1&#45;&gt;Node3 -->
<g id="edge2_Node000001_Node000003" class="edge">
<title>Node1&#45;&gt;Node3</title>
<g id="a_edge2_Node000001_Node000003"><a xlink:title=" ">
<path fill="none" stroke="#63b8ff" d="M397.03,-164.98C357.93,-155.86 295.73,-141.33 253.11,-131.38"/>
<polygon fill="#63b8ff" stroke="#63b8ff" points="253.79,-127.95 243.26,-129.08 252.2,-134.76 253.79,-127.95"/>
</a>
</g>
</g>
<!-- Node4 -->
<g id="Node000004" class="node">
<title>Node4</title>
<g id="a_Node000004"><a xlink:href="types_8h.html" target="_top" xlink:title="Defines common data structures used across the entire test suite.">
<polygon fill="white" stroke="#666666" points="341,-129 288,-129 288,-110 341,-110 341,-129"/>
<text text-anchor="middle" x="314.5" y="-117" font-family="Helvetica,sans-Serif" font-size="10.00">types.h</text>
</a>
</g>
</g>
<!-- Node1&#45;&gt;Node4 -->
<g id="edge3_Node000001_Node000004" class="edge">
<title>Node1&#45;&gt;Node4</title>
<g id="a_edge3_Node000001_Node000004"><a xlink:title=" ">
<path fill="none" stroke="#63b8ff" d="M414.38,-164.98C395.15,-156.42 365.27,-143.11 343.19,-133.28"/>
<polygon fill="#63b8ff" stroke="#63b8ff" points="344.53,-130.04 333.97,-129.17 341.68,-136.44 344.53,-130.04"/>
</a>
</g>
</g>
<!-- Node7 -->
<g id="Node000007" class="node">
<title>Node7</title>
<g id="a_Node000007"><a xlink:href="infix_8h.html" target="_top" xlink:title=" ">
<polygon fill="white" stroke="#666666" points="430,-129 359,-129 359,-110 430,-110 430,-129"/>
<text text-anchor="middle" x="394.5" y="-117" font-family="Helvetica,sans-Serif" font-size="10.00">infix/infix.h</text>
</a>
</g>
</g>
<!-- Node1&#45;&gt;Node7 -->
<g id="edge6_Node000001_Node000007" class="edge">
<title>Node1&#45;&gt;Node7</title>
<g id="a_edge6_Node000001_Node000007"><a xlink:title=" ">
<path fill="none" stroke="#63b8ff" d="M427.06,-164.75C421.61,-157.34 413.64,-146.5 406.94,-137.41"/>
<polygon fill="#63b8ff" stroke="#63b8ff" points="409.57,-135.07 400.82,-129.09 403.93,-139.22 409.57,-135.07"/>
</a>
</g>
</g>
<!-- Node11 -->
<g id="Node000011" class="node">
<title>Node11</title>
<g id="a_Node000011"><a xlink:title=" ">
<polygon fill="#e0e0e0" stroke="#999999" points="499,-129 448,-129 448,-110 499,-110 499,-129"/>
<text text-anchor="middle" x="473.5" y="-117" font-family="Helvetica,sans-Serif" font-size="10.00">math.h</text>
</a>
</g>
</g>
<!-- Node1&#45;&gt;Node11 -->
<g id="edge13_Node000001_Node000011" class="edge">
<title>Node1&#45;&gt;Node11</title>
<g id="a_edge13_Node000001_Node000011"><a xlink:title=" ">
<path fill="none" stroke="#63b8ff" d="M440.11,-164.75C445.76,-157.26 454.04,-146.28 460.95,-137.13"/>
<polygon fill="#63b8ff" stroke="#63b8ff" points="463.79,-139.18 467.02,-129.09 458.2,-134.96 463.79,-139.18"/>
</a>
</g>
</g>
<!-- Node12 -->
<g id="Node000012" class="node">
<title>Node12</title>
<g id="a_Node000012"><a xlink:title=" ">
<polygon fill="#e0e0e0" stroke="#999999" points="573.5,-129 517.5,-129 517.5,-110 573.5,-110 573.5,-129"/>
<text text-anchor="middle" x="545.5" y="-117" font-family="Helvetica,sans-Serif" font-size="10.00">stdarg.h</text>
</a>
</g>
</g>
<!-- Node1&#45;&gt;Node12 -->
<g id="edge14_Node000001_Node000012" class="edge">
<title>Node1&#45;&gt;Node12</title>
<g id="a_edge14_Node000001_Node000012"><a xlink:title=" ">
<path fill="none" stroke="#63b8ff" d="M451.49,-164.98C469.43,-156.5 497.22,-143.35 517.93,-133.54"/>
<polygon fill="#63b8ff" stroke="#63b8ff" points="519.64,-136.61 527.18,-129.17 516.64,-130.28 519.64,-136.61"/>
</a>
</g>
</g>
<!-- Node13 -->
<g id="Node000013" class="node">
<title>Node13</title>
<g id="a_Node000013"><a xlink:title=" ">
<polygon fill="#e0e0e0" stroke="#999999" points="641.5,-129 591.5,-129 591.5,-110 641.5,-110 641.5,-129"/>
<text text-anchor="middle" x="616.5" y="-117" font-family="Helvetica,sans-Serif" font-size="10.00">stdio.h</text>
</a>
</g>
</g>
<!-- Node1&#45;&gt;Node13 -->
<g id="edge15_Node000001_Node000013" class="edge">
<title>Node1&#45;&gt;Node13</title>
<g id="a_edge15_Node000001_Node000013"><a xlink:title=" ">
<path fill="none" stroke="#63b8ff" d="M462.9,-164.98C495.27,-155.61 547.27,-140.55 581.66,-130.59"/>
<polygon fill="#63b8ff" stroke="#63b8ff" points="582.66,-133.94 591.29,-127.8 580.72,-127.22 582.66,-133.94"/>
</a>
</g>
</g>
<!-- Node14 -->
<g id="Node000014" class="node">
<title>Node14</title>
<g id="a_Node000014"><a xlink:title=" ">
<polygon fill="#e0e0e0" stroke="#999999" points="713,-129 660,-129 660,-110 713,-110 713,-129"/>
<text text-anchor="middle" x="686.5" y="-117" font-family="Helvetica,sans-Serif" font-size="10.00">string.h</text>
</a>
</g>
</g>
<!-- Node1&#45;&gt;Node14 -->
<g id="edge16_Node000001_Node000014" class="edge">
<title>Node1&#45;&gt;Node14</title>
<g id="a_edge16_Node000001_Node000014"><a xlink:title=" ">
<path fill="none" stroke="#63b8ff" d="M477.22,-164.93C518.96,-156.66 583.87,-143.57 649.65,-129.13"/>
<polygon fill="#63b8ff" stroke="#63b8ff" points="650.77,-132.47 659.78,-126.9 649.26,-125.63 650.77,-132.47"/>
</a>
</g>
</g>
<!-- Node5 -->
<g id="Node000005" class="node">
<title>Node5</title>
<g id="a_Node000005"><a xlink:title=" ">
<polygon fill="#e0e0e0" stroke="#999999" points="271,-74 206,-74 206,-55 271,-55 271,-74"/>
<text text-anchor="middle" x="238.5" y="-62" font-family="Helvetica,sans-Serif" font-size="10.00">inttypes.h</text>
</a>
</g>
</g>
<!-- Node4&#45;&gt;Node5 -->
<g id="edge4_Node000004_Node000005" class="edge">
<title>Node4&#45;&gt;Node5</title>
<g id="a_edge4_Node000004_Node000005"><a xlink:title=" ">
<path fill="none" stroke="#63b8ff" d="M302.29,-109.98C290.72,-101.92 273.12,-89.65 259.34,-80.03"/>
<polygon fill="#63b8ff" stroke="#63b8ff" points="261.14,-77.02 250.93,-74.17 257.13,-82.76 261.14,-77.02"/>
</a>
</g>
</g>
<!-- Node6 -->
<g id="Node000006" class="node">
<title>Node6</title>
<g id="a_Node000006"><a xlink:title=" ">
<polygon fill="#e0e0e0" stroke="#999999" points="437.5,-19 381.5,-19 381.5,0 437.5,0 437.5,-19"/>
<text text-anchor="middle" x="409.5" y="-7" font-family="Helvetica,sans-Serif" font-size="10.00">stddef.h</text>
</a>
</g>
</g>
<!-- Node4&#45;&gt;Node6 -->
<g id="edge5_Node000004_Node000006" class="edge">
<title>Node4&#45;&gt;Node6</title>
<g id="a_edge5_Node000004_Node000006"><a xlink:title=" ">
<path fill="none" stroke="#63b8ff" d="M312.51,-109.84C310.02,-96.76 307.32,-71.71 318.5,-55 330.65,-36.82 352.47,-25.81 371.69,-19.28"/>
<polygon fill="#63b8ff" stroke="#63b8ff" points="372.92,-22.56 381.44,-16.27 370.85,-15.88 372.92,-22.56"/>
</a>
</g>
</g>
<!-- Node7&#45;&gt;Node6 -->
<g id="edge8_Node000007_Node000006" class="edge">
<title>Node7&#45;&gt;Node6</title>
<g id="a_edge8_Node000007_Node000006"><a xlink:title=" ">
<path fill="none" stroke="#63b8ff" d="M395.73,-109.66C398.16,-92.17 403.62,-52.8 406.89,-29.27"/>
<polygon fill="#63b8ff" stroke="#63b8ff" points="410.39,-29.54 408.3,-19.16 403.45,-28.58 410.39,-29.54"/>
</a>
</g>
</g>
<!-- Node8 -->
<g id="Node000008" class="node">
<title>Node8</title>
<g id="a_Node000008"><a xlink:title=" ">
<polygon fill="#e0e0e0" stroke="#999999" points="581.5,-19 519.5,-19 519.5,0 581.5,0 581.5,-19"/>
<text text-anchor="middle" x="550.5" y="-7" font-family="Helvetica,sans-Serif" font-size="10.00">stdbool.h</text>
</a>
</g>
</g>
<!-- Node7&#45;&gt;Node8 -->
<g id="edge7_Node000007_Node000008" class="edge">
<title>Node7&#45;&gt;Node8</title>
<g id="a_edge7_Node000007_Node000008"><a xlink:title=" ">
<path fill="none" stroke="#63b8ff" d="M430.15,-111.06C482.33,-100 573.86,-79.89 578.5,-74 589.73,-59.73 578.03,-40.25 566.51,-26.65"/>
<polygon fill="#63b8ff" stroke="#63b8ff" points="568.89,-24.06 559.57,-19.03 563.72,-28.78 568.89,-24.06"/>
</a>
</g>
</g>
<!-- Node9 -->
<g id="Node000009" class="node">
<title>Node9</title>
<g id="a_Node000009"><a xlink:title=" ">
<polygon fill="#e0e0e0" stroke="#999999" points="381,-74 328,-74 328,-55 381,-55 381,-74"/>
<text text-anchor="middle" x="354.5" y="-62" font-family="Helvetica,sans-Serif" font-size="10.00">stdint.h</text>
</a>
</g>
</g>
<!-- Node7&#45;&gt;Node9 -->
<g id="edge9_Node000007_Node000009" class="edge">
<title>Node7&#45;&gt;Node9</title>
<g id="a_edge9_Node000007_Node000009"><a xlink:title=" ">
<path fill="none" stroke="#63b8ff" d="M387.89,-109.75C382.24,-102.26 373.96,-91.28 367.05,-82.13"/>
<polygon fill="#63b8ff" stroke="#63b8ff" points="369.8,-79.96 360.98,-74.09 364.21,-84.18 369.8,-79.96"/>
</a>
</g>
</g>
<!-- Node10 -->
<g id="Node000010" class="node">
<title>Node10</title>
<g id="a_Node000010"><a xlink:href="compat__c23_8h.html" target="_top" xlink:title="Provides compatibility shims for C23 features in a C17/C11 project.">
<polygon fill="white" stroke="#666666" points="569,-74 438,-74 438,-55 569,-55 569,-74"/>
<text text-anchor="middle" x="503.5" y="-62" font-family="Helvetica,sans-Serif" font-size="10.00">common/compat_c23.h</text>
</a>
</g>
</g>
<!-- Node7&#45;&gt;Node10 -->
<g id="edge10_Node000007_Node000010" class="edge">
<title>Node7&#45;&gt;Node10</title>
<g id="a_edge10_Node000007_Node000010"><a xlink:title=" ">
<path fill="none" stroke="#63b8ff" d="M412.01,-109.98C429.47,-101.5 456.51,-88.35 476.67,-78.54"/>
<polygon fill="#63b8ff" stroke="#63b8ff" points="478.21,-81.69 485.67,-74.17 475.14,-75.4 478.21,-81.69"/>
</a>
</g>
</g>
<!-- Node10&#45;&gt;Node6 -->
<g id="edge12_Node000010_Node000006" class="edge">
<title>Node10&#45;&gt;Node6</title>
<g id="a_edge12_Node000010_Node000006"><a xlink:title=" ">
<path fill="none" stroke="#63b8ff" d="M488.4,-54.98C473.68,-46.69 451.08,-33.94 433.83,-24.22"/>
<polygon fill="#63b8ff" stroke="#63b8ff" points="435.31,-21.03 424.88,-19.17 431.87,-27.13 435.31,-21.03"/>
</a>
</g>
</g>
<!-- Node10&#45;&gt;Node8 -->
<g id="edge11_Node000010_Node000008" class="edge">
<title>Node10&#45;&gt;Node8</title>
<g id="a_edge11_Node000010_Node000008"><a xlink:title=" ">
<path fill="none" stroke="#63b8ff" d="M511.26,-54.75C517.97,-47.18 527.84,-36.05 536.01,-26.84"/>
<polygon fill="#63b8ff" stroke="#63b8ff" points="538.87,-28.89 542.88,-19.09 533.63,-24.25 538.87,-28.89"/>
</a>
</g>
</g>
</g>
</svg>
