<?xml version="1.0" encoding="UTF-8" standalone="no"?>
<!DOCTYPE svg PUBLIC "-//W3C//DTD SVG 1.1//EN"
 "http://www.w3.org/Graphics/SVG/1.1/DTD/svg11.dtd">
<!-- Generated by graphviz version 2.43.0 (0)
 -->
<!-- Title: t/402_variadic_functions.c Pages: 1 -->
<svg width="847pt" height="192pt"
 viewBox="0.00 0.00 846.50 192.00" xmlns="http://www.w3.org/2000/svg" xmlns:xlink="http://www.w3.org/1999/xlink">
<g id="graph0" class="graph" transform="scale(1 1) rotate(0) translate(4 188)">
<title>t/402_variadic_functions.c</title>
<!-- Node1 -->
<g id="Node000001" class="node">
<title>Node1</title>
<g id="a_Node000001"><a xlink:title="Unit test for FFI calls to and from variadic C functions.">
<polygon fill="#999999" stroke="#666666" points="564,-184 420,-184 420,-165 564,-165 564,-184"/>
<text text-anchor="middle" x="492" y="-172" font-family="Helvetica,sans-Serif" font-size="10.00">t/402_variadic_functions.c</text>
</a>
</g>
</g>
<!-- Node2 -->
<g id="Node000002" class="node">
<title>Node2</title>
<g id="a_Node000002"><a xlink:href="compat__c23_8h.html" target="_top" xlink:title="Provides forward compatibility macros for C23 features.">
<polygon fill="white" stroke="#666666" points="196.5,-129 65.5,-129 65.5,-110 196.5,-110 196.5,-129"/>
<text text-anchor="middle" x="131" y="-117" font-family="Helvetica,sans-Serif" font-size="10.00">common/compat_c23.h</text>
</a>
</g>
</g>
<!-- Node1&#45;&gt;Node2 -->
<g id="edge1_Node000001_Node000002" class="edge">
<title>Node1&#45;&gt;Node2</title>
<g id="a_edge1_Node000001_Node000002"><a xlink:title=" ">
<path fill="none" stroke="#63b8ff" d="M434,-164.98C370.02,-155.59 267.15,-140.49 199.32,-130.53"/>
<polygon fill="#63b8ff" stroke="#63b8ff" points="199.56,-127.03 189.16,-129.04 198.54,-133.95 199.56,-127.03"/>
</a>
</g>
</g>
<!-- Node3 -->
<g id="Node000003" class="node">
<title>Node3</title>
<g id="a_Node000003"><a xlink:href="infix_8h.html" target="_top" xlink:title="The public interface for the infix FFI library.">
<polygon fill="white" stroke="#666666" points="139.5,-74 68.5,-74 68.5,-55 139.5,-55 139.5,-74"/>
<text text-anchor="middle" x="104" y="-62" font-family="Helvetica,sans-Serif" font-size="10.00">infix/infix.h</text>
</a>
</g>
</g>
<!-- Node1&#45;&gt;Node3 -->
<g id="edge13_Node000001_Node000003" class="edge">
<title>Node1&#45;&gt;Node3</title>
<g id="a_edge13_Node000001_Node000003"><a xlink:title=" ">
<path fill="none" stroke="#63b8ff" d="M419.72,-171.31C302.09,-167.01 79.87,-155.43 56,-129 41.61,-113.06 62.37,-93.08 80.92,-79.83"/>
<polygon fill="#63b8ff" stroke="#63b8ff" points="83.09,-82.59 89.41,-74.09 79.17,-76.79 83.09,-82.59"/>
</a>
</g>
</g>
<!-- Node7 -->
<g id="Node000007" class="node">
<title>Node7</title>
<g id="a_Node000007"><a xlink:href="double__tap_8h.html" target="_top" xlink:title="A lightweight, single&#45;header TAP (Test Anything Protocol) library.">
<polygon fill="white" stroke="#666666" points="410.5,-129 285.5,-129 285.5,-110 410.5,-110 410.5,-129"/>
<text text-anchor="middle" x="348" y="-117" font-family="Helvetica,sans-Serif" font-size="10.00">common/double_tap.h</text>
</a>
</g>
</g>
<!-- Node1&#45;&gt;Node7 -->
<g id="edge8_Node000001_Node000007" class="edge">
<title>Node1&#45;&gt;Node7</title>
<g id="a_edge8_Node000001_Node000007"><a xlink:title=" ">
<path fill="none" stroke="#63b8ff" d="M468.86,-164.98C445.18,-156.27 408.13,-142.63 381.29,-132.75"/>
<polygon fill="#63b8ff" stroke="#63b8ff" points="382.15,-129.34 371.56,-129.17 379.73,-135.91 382.15,-129.34"/>
</a>
</g>
</g>
<!-- Node8 -->
<g id="Node000008" class="node">
<title>Node8</title>
<g id="a_Node000008"><a xlink:href="infix__config_8h.html" target="_top" xlink:title="Platform, architecture, and ABI detection macros.">
<polygon fill="white" stroke="#666666" points="555.5,-129 428.5,-129 428.5,-110 555.5,-110 555.5,-129"/>
<text text-anchor="middle" x="492" y="-117" font-family="Helvetica,sans-Serif" font-size="10.00">common/infix_config.h</text>
</a>
</g>
</g>
<!-- Node1&#45;&gt;Node8 -->
<g id="edge9_Node000001_Node000008" class="edge">
<title>Node1&#45;&gt;Node8</title>
<g id="a_edge9_Node000001_Node000008"><a xlink:title=" ">
<path fill="none" stroke="#63b8ff" d="M492,-164.75C492,-157.8 492,-147.85 492,-139.13"/>
<polygon fill="#63b8ff" stroke="#63b8ff" points="495.5,-139.09 492,-129.09 488.5,-139.09 495.5,-139.09"/>
</a>
</g>
</g>
<!-- Node9 -->
<g id="Node000009" class="node">
<title>Node9</title>
<g id="a_Node000009"><a xlink:href="types_8h.html" target="_top" xlink:title="Defines common C structures used across the infix test suite.">
<polygon fill="white" stroke="#666666" points="267.5,-129 214.5,-129 214.5,-110 267.5,-110 267.5,-129"/>
<text text-anchor="middle" x="241" y="-117" font-family="Helvetica,sans-Serif" font-size="10.00">types.h</text>
</a>
</g>
</g>
<!-- Node1&#45;&gt;Node9 -->
<g id="edge10_Node000001_Node000009" class="edge">
<title>Node1&#45;&gt;Node9</title>
<g id="a_edge10_Node000001_Node000009"><a xlink:title=" ">
<path fill="none" stroke="#63b8ff" d="M449.09,-164.98C407.76,-156.7 343.23,-143.55 277.8,-129.13"/>
<polygon fill="#63b8ff" stroke="#63b8ff" points="278.24,-125.64 267.72,-126.9 276.72,-132.47 278.24,-125.64"/>
</a>
</g>
</g>
<!-- Node11 -->
<g id="Node000011" class="node">
<title>Node11</title>
<g id="a_Node000011"><a xlink:title=" ">
<polygon fill="#e0e0e0" stroke="#999999" points="624.5,-129 573.5,-129 573.5,-110 624.5,-110 624.5,-129"/>
<text text-anchor="middle" x="599" y="-117" font-family="Helvetica,sans-Serif" font-size="10.00">math.h</text>
</a>
</g>
</g>
<!-- Node1&#45;&gt;Node11 -->
<g id="edge14_Node000001_Node000011" class="edge">
<title>Node1&#45;&gt;Node11</title>
<g id="a_edge14_Node000001_Node000011"><a xlink:title=" ">
<path fill="none" stroke="#63b8ff" d="M509.19,-164.98C526.25,-156.54 552.63,-143.47 572.4,-133.68"/>
<polygon fill="#63b8ff" stroke="#63b8ff" points="574.09,-136.75 581.5,-129.17 570.98,-130.47 574.09,-136.75"/>
</a>
</g>
</g>
<!-- Node12 -->
<g id="Node000012" class="node">
<title>Node12</title>
<g id="a_Node000012"><a xlink:title=" ">
<polygon fill="#e0e0e0" stroke="#999999" points="699,-129 643,-129 643,-110 699,-110 699,-129"/>
<text text-anchor="middle" x="671" y="-117" font-family="Helvetica,sans-Serif" font-size="10.00">stdarg.h</text>
</a>
</g>
</g>
<!-- Node1&#45;&gt;Node12 -->
<g id="edge15_Node000001_Node000012" class="edge">
<title>Node1&#45;&gt;Node12</title>
<g id="a_edge15_Node000001_Node000012"><a xlink:title=" ">
<path fill="none" stroke="#63b8ff" d="M520.76,-164.98C551.21,-155.97 599.42,-141.69 632.99,-131.75"/>
<polygon fill="#63b8ff" stroke="#63b8ff" points="634.31,-135.01 642.9,-128.82 632.32,-128.3 634.31,-135.01"/>
</a>
</g>
</g>
<!-- Node13 -->
<g id="Node000013" class="node">
<title>Node13</title>
<g id="a_Node000013"><a xlink:title=" ">
<polygon fill="#e0e0e0" stroke="#999999" points="767,-129 717,-129 717,-110 767,-110 767,-129"/>
<text text-anchor="middle" x="742" y="-117" font-family="Helvetica,sans-Serif" font-size="10.00">stdio.h</text>
</a>
</g>
</g>
<!-- Node1&#45;&gt;Node13 -->
<g id="edge16_Node000001_Node000013" class="edge">
<title>Node1&#45;&gt;Node13</title>
<g id="a_edge16_Node000001_Node000013"><a xlink:title=" ">
<path fill="none" stroke="#63b8ff" d="M536.38,-164.92C577.99,-156.75 642.18,-143.82 706.82,-129.2"/>
<polygon fill="#63b8ff" stroke="#63b8ff" points="707.8,-132.56 716.78,-126.93 706.25,-125.74 707.8,-132.56"/>
</a>
</g>
</g>
<!-- Node14 -->
<g id="Node000014" class="node">
<title>Node14</title>
<g id="a_Node000014"><a xlink:title=" ">
<polygon fill="#e0e0e0" stroke="#999999" points="838.5,-129 785.5,-129 785.5,-110 838.5,-110 838.5,-129"/>
<text text-anchor="middle" x="812" y="-117" font-family="Helvetica,sans-Serif" font-size="10.00">string.h</text>
</a>
</g>
</g>
<!-- Node1&#45;&gt;Node14 -->
<g id="edge17_Node000001_Node000014" class="edge">
<title>Node1&#45;&gt;Node14</title>
<g id="a_edge17_Node000001_Node000014"><a xlink:title=" ">
<path fill="none" stroke="#63b8ff" d="M555.41,-164.98C610.87,-157.21 693.79,-144.81 775.37,-128.99"/>
<polygon fill="#63b8ff" stroke="#63b8ff" points="776.17,-132.4 785.31,-127.04 774.83,-125.53 776.17,-132.4"/>
</a>
</g>
</g>
<!-- Node2&#45;&gt;Node3 -->
<g id="edge2_Node000002_Node000003" class="edge">
<title>Node2&#45;&gt;Node3</title>
<g id="a_edge2_Node000002_Node000003"><a xlink:title=" ">
<path fill="none" stroke="#63b8ff" d="M126.54,-109.75C122.88,-102.57 117.59,-92.18 113.05,-83.27"/>
<polygon fill="#63b8ff" stroke="#63b8ff" points="116.03,-81.41 108.38,-74.09 109.8,-84.59 116.03,-81.41"/>
</a>
</g>
</g>
<!-- Node4 -->
<g id="Node000004" class="node">
<title>Node4</title>
<g id="a_Node000004"><a xlink:title=" ">
<polygon fill="#e0e0e0" stroke="#999999" points="62,-19 0,-19 0,0 62,0 62,-19"/>
<text text-anchor="middle" x="31" y="-7" font-family="Helvetica,sans-Serif" font-size="10.00">stdbool.h</text>
</a>
</g>
</g>
<!-- Node2&#45;&gt;Node4 -->
<g id="edge6_Node000002_Node000004" class="edge">
<title>Node2&#45;&gt;Node4</title>
<g id="a_edge6_Node000002_Node000004"><a xlink:title=" ">
<path fill="none" stroke="#63b8ff" d="M110.35,-109.88C94.52,-102.38 73.09,-90.18 59,-74 47.64,-60.95 40.21,-42.56 35.88,-28.92"/>
<polygon fill="#63b8ff" stroke="#63b8ff" points="39.21,-27.83 33.06,-19.2 32.49,-29.78 39.21,-27.83"/>
</a>
</g>
</g>
<!-- Node5 -->
<g id="Node000005" class="node">
<title>Node5</title>
<g id="a_Node000005"><a xlink:title=" ">
<polygon fill="#e0e0e0" stroke="#999999" points="208,-19 152,-19 152,0 208,0 208,-19"/>
<text text-anchor="middle" x="180" y="-7" font-family="Helvetica,sans-Serif" font-size="10.00">stddef.h</text>
</a>
</g>
</g>
<!-- Node2&#45;&gt;Node5 -->
<g id="edge7_Node000002_Node000005" class="edge">
<title>Node2&#45;&gt;Node5</title>
<g id="a_edge7_Node000002_Node000005"><a xlink:title=" ">
<path fill="none" stroke="#63b8ff" d="M135.01,-109.66C143.05,-91.93 161.3,-51.73 171.92,-28.32"/>
<polygon fill="#63b8ff" stroke="#63b8ff" points="175.13,-29.71 176.07,-19.16 168.75,-26.82 175.13,-29.71"/>
</a>
</g>
</g>
<!-- Node3&#45;&gt;Node4 -->
<g id="edge3_Node000003_Node000004" class="edge">
<title>Node3&#45;&gt;Node4</title>
<g id="a_edge3_Node000003_Node000004"><a xlink:title=" ">
<path fill="none" stroke="#63b8ff" d="M92.27,-54.98C81.27,-47 64.58,-34.88 51.4,-25.31"/>
<polygon fill="#63b8ff" stroke="#63b8ff" points="53.09,-22.21 42.94,-19.17 48.98,-27.88 53.09,-22.21"/>
</a>
</g>
</g>
<!-- Node3&#45;&gt;Node5 -->
<g id="edge4_Node000003_Node000005" class="edge">
<title>Node3&#45;&gt;Node5</title>
<g id="a_edge4_Node000003_Node000005"><a xlink:title=" ">
<path fill="none" stroke="#63b8ff" d="M116.21,-54.98C127.78,-46.92 145.38,-34.65 159.16,-25.03"/>
<polygon fill="#63b8ff" stroke="#63b8ff" points="161.37,-27.76 167.57,-19.17 157.36,-22.02 161.37,-27.76"/>
</a>
</g>
</g>
<!-- Node6 -->
<g id="Node000006" class="node">
<title>Node6</title>
<g id="a_Node000006"><a xlink:title=" ">
<polygon fill="#e0e0e0" stroke="#999999" points="133.5,-19 80.5,-19 80.5,0 133.5,0 133.5,-19"/>
<text text-anchor="middle" x="107" y="-7" font-family="Helvetica,sans-Serif" font-size="10.00">stdint.h</text>
</a>
</g>
</g>
<!-- Node3&#45;&gt;Node6 -->
<g id="edge5_Node000003_Node000006" class="edge">
<title>Node3&#45;&gt;Node6</title>
<g id="a_edge5_Node000003_Node000006"><a xlink:title=" ">
<path fill="none" stroke="#63b8ff" d="M104.5,-54.75C104.89,-47.8 105.45,-37.85 105.95,-29.13"/>
<polygon fill="#63b8ff" stroke="#63b8ff" points="109.44,-29.27 106.51,-19.09 102.45,-28.88 109.44,-29.27"/>
</a>
</g>
</g>
<!-- Node9&#45;&gt;Node5 -->
<g id="edge12_Node000009_Node000005" class="edge">
<title>Node9&#45;&gt;Node5</title>
<g id="a_edge12_Node000009_Node000005"><a xlink:title=" ">
<path fill="none" stroke="#63b8ff" d="M236.01,-109.66C225.95,-91.85 203.08,-51.37 189.89,-28.01"/>
<polygon fill="#63b8ff" stroke="#63b8ff" points="192.86,-26.14 184.89,-19.16 186.76,-29.59 192.86,-26.14"/>
</a>
</g>
</g>
<!-- Node10 -->
<g id="Node000010" class="node">
<title>Node10</title>
<g id="a_Node000010"><a xlink:title=" ">
<polygon fill="#e0e0e0" stroke="#999999" points="299.5,-74 234.5,-74 234.5,-55 299.5,-55 299.5,-74"/>
<text text-anchor="middle" x="267" y="-62" font-family="Helvetica,sans-Serif" font-size="10.00">inttypes.h</text>
</a>
</g>
</g>
<!-- Node9&#45;&gt;Node10 -->
<g id="edge11_Node000009_Node000010" class="edge">
<title>Node9&#45;&gt;Node10</title>
<g id="a_edge11_Node000009_Node000010"><a xlink:title=" ">
<path fill="none" stroke="#63b8ff" d="M245.29,-109.75C248.81,-102.57 253.91,-92.18 258.28,-83.27"/>
<polygon fill="#63b8ff" stroke="#63b8ff" points="261.52,-84.61 262.79,-74.09 255.24,-81.53 261.52,-84.61"/>
</a>
</g>
</g>
</g>
</svg>
