<?xml version="1.0" encoding="UTF-8" standalone="no"?>
<!DOCTYPE svg PUBLIC "-//W3C//DTD SVG 1.1//EN"
 "http://www.w3.org/Graphics/SVG/1.1/DTD/svg11.dtd">
<!-- Generated by graphviz version 2.43.0 (0)
 -->
<!-- Title: t/404_simd_vectors.c Pages: 1 -->
<svg width="606pt" height="192pt"
 viewBox="0.00 0.00 606.00 192.00" xmlns="http://www.w3.org/2000/svg" xmlns:xlink="http://www.w3.org/1999/xlink">
<g id="graph0" class="graph" transform="scale(1 1) rotate(0) translate(4 188)">
<title>t/404_simd_vectors.c</title>
<!-- Node1 -->
<g id="Node000001" class="node">
<title>Node1</title>
<g id="a_Node000001"><a xlink:title="Unit test for SIMD vector argument passing and return values.">
<polygon fill="#999999" stroke="#666666" points="382.5,-184 262.5,-184 262.5,-165 382.5,-165 382.5,-184"/>
<text text-anchor="middle" x="322.5" y="-172" font-family="Helvetica,sans-Serif" font-size="10.00">t/404_simd_vectors.c</text>
</a>
</g>
</g>
<!-- Node2 -->
<g id="Node000002" class="node">
<title>Node2</title>
<g id="a_Node000002"><a xlink:href="compat__c23_8h.html" target="_top" xlink:title="Provides forward compatibility macros for C23 features.">
<polygon fill="white" stroke="#666666" points="131,-129 0,-129 0,-110 131,-110 131,-129"/>
<text text-anchor="middle" x="65.5" y="-117" font-family="Helvetica,sans-Serif" font-size="10.00">common/compat_c23.h</text>
</a>
</g>
</g>
<!-- Node1&#45;&gt;Node2 -->
<g id="edge1_Node000001_Node000002" class="edge">
<title>Node1&#45;&gt;Node2</title>
<g id="a_edge1_Node000001_Node000002"><a xlink:title=" ">
<path fill="none" stroke="#63b8ff" d="M281.21,-164.98C236.57,-155.78 165.34,-141.09 117.05,-131.13"/>
<polygon fill="#63b8ff" stroke="#63b8ff" points="117.62,-127.67 107.12,-129.08 116.2,-134.53 117.62,-127.67"/>
</a>
</g>
</g>
<!-- Node3 -->
<g id="Node000003" class="node">
<title>Node3</title>
<g id="a_Node000003"><a xlink:href="infix_8h.html" target="_top" xlink:title="The public interface for the infix FFI library.">
<polygon fill="white" stroke="#666666" points="180,-74 109,-74 109,-55 180,-55 180,-74"/>
<text text-anchor="middle" x="144.5" y="-62" font-family="Helvetica,sans-Serif" font-size="10.00">infix/infix.h</text>
</a>
</g>
</g>
<!-- Node1&#45;&gt;Node3 -->
<g id="edge10_Node000001_Node000003" class="edge">
<title>Node1&#45;&gt;Node3</title>
<g id="a_edge10_Node000001_Node000003"><a xlink:title=" ">
<path fill="none" stroke="#63b8ff" d="M262.3,-165.32C234.69,-159.09 202.97,-148.15 179.5,-129 165.2,-117.33 155.8,-98.2 150.38,-83.98"/>
<polygon fill="#63b8ff" stroke="#63b8ff" points="153.59,-82.56 146.99,-74.27 146.98,-84.86 153.59,-82.56"/>
</a>
</g>
</g>
<!-- Node7 -->
<g id="Node000007" class="node">
<title>Node7</title>
<g id="a_Node000007"><a xlink:href="double__tap_8h.html" target="_top" xlink:title="A lightweight, single&#45;header TAP (Test Anything Protocol) library.">
<polygon fill="white" stroke="#666666" points="313,-129 188,-129 188,-110 313,-110 313,-129"/>
<text text-anchor="middle" x="250.5" y="-117" font-family="Helvetica,sans-Serif" font-size="10.00">common/double_tap.h</text>
</a>
</g>
</g>
<!-- Node1&#45;&gt;Node7 -->
<g id="edge8_Node000001_Node000007" class="edge">
<title>Node1&#45;&gt;Node7</title>
<g id="a_edge8_Node000001_Node000007"><a xlink:title=" ">
<path fill="none" stroke="#63b8ff" d="M310.93,-164.98C300.08,-157 283.62,-144.88 270.62,-135.31"/>
<polygon fill="#63b8ff" stroke="#63b8ff" points="272.41,-132.28 262.28,-129.17 268.26,-137.92 272.41,-132.28"/>
</a>
</g>
</g>
<!-- Node8 -->
<g id="Node000008" class="node">
<title>Node8</title>
<g id="a_Node000008"><a xlink:href="infix__config_8h.html" target="_top" xlink:title="Platform, architecture, and ABI detection macros.">
<polygon fill="white" stroke="#666666" points="458,-129 331,-129 331,-110 458,-110 458,-129"/>
<text text-anchor="middle" x="394.5" y="-117" font-family="Helvetica,sans-Serif" font-size="10.00">common/infix_config.h</text>
</a>
</g>
</g>
<!-- Node1&#45;&gt;Node8 -->
<g id="edge9_Node000001_Node000008" class="edge">
<title>Node1&#45;&gt;Node8</title>
<g id="a_edge9_Node000001_Node000008"><a xlink:title=" ">
<path fill="none" stroke="#63b8ff" d="M334.07,-164.98C344.92,-157 361.38,-144.88 374.38,-135.31"/>
<polygon fill="#63b8ff" stroke="#63b8ff" points="376.74,-137.92 382.72,-129.17 372.59,-132.28 376.74,-137.92"/>
</a>
</g>
</g>
<!-- Node9 -->
<g id="Node000009" class="node">
<title>Node9</title>
<g id="a_Node000009"><a xlink:title=" ">
<polygon fill="#e0e0e0" stroke="#999999" points="527,-129 476,-129 476,-110 527,-110 527,-129"/>
<text text-anchor="middle" x="501.5" y="-117" font-family="Helvetica,sans-Serif" font-size="10.00">math.h</text>
</a>
</g>
</g>
<!-- Node1&#45;&gt;Node9 -->
<g id="edge11_Node000001_Node000009" class="edge">
<title>Node1&#45;&gt;Node9</title>
<g id="a_edge11_Node000001_Node000009"><a xlink:title=" ">
<path fill="none" stroke="#63b8ff" d="M351.26,-164.98C382.43,-155.76 432.2,-141.02 465.84,-131.06"/>
<polygon fill="#63b8ff" stroke="#63b8ff" points="467.12,-134.33 475.72,-128.13 465.13,-127.62 467.12,-134.33"/>
</a>
</g>
</g>
<!-- Node10 -->
<g id="Node000010" class="node">
<title>Node10</title>
<g id="a_Node000010"><a xlink:title=" ">
<polygon fill="#e0e0e0" stroke="#999999" points="598,-129 545,-129 545,-110 598,-110 598,-129"/>
<text text-anchor="middle" x="571.5" y="-117" font-family="Helvetica,sans-Serif" font-size="10.00">stdlib.h</text>
</a>
</g>
</g>
<!-- Node1&#45;&gt;Node10 -->
<g id="edge12_Node000001_Node000010" class="edge">
<title>Node1&#45;&gt;Node10</title>
<g id="a_edge12_Node000001_Node000010"><a xlink:title=" ">
<path fill="none" stroke="#63b8ff" d="M365.63,-164.97C406.8,-156.73 470.82,-143.66 534.9,-129.31"/>
<polygon fill="#63b8ff" stroke="#63b8ff" points="535.78,-132.7 544.77,-127.09 534.24,-125.87 535.78,-132.7"/>
</a>
</g>
</g>
<!-- Node2&#45;&gt;Node3 -->
<g id="edge2_Node000002_Node000003" class="edge">
<title>Node2&#45;&gt;Node3</title>
<g id="a_edge2_Node000002_Node000003"><a xlink:title=" ">
<path fill="none" stroke="#63b8ff" d="M78.19,-109.98C90.33,-101.84 108.86,-89.41 123.25,-79.76"/>
<polygon fill="#63b8ff" stroke="#63b8ff" points="125.22,-82.65 131.58,-74.17 121.32,-76.84 125.22,-82.65"/>
</a>
</g>
</g>
<!-- Node4 -->
<g id="Node000004" class="node">
<title>Node4</title>
<g id="a_Node000004"><a xlink:title=" ">
<polygon fill="#e0e0e0" stroke="#999999" points="150.5,-19 88.5,-19 88.5,0 150.5,0 150.5,-19"/>
<text text-anchor="middle" x="119.5" y="-7" font-family="Helvetica,sans-Serif" font-size="10.00">stdbool.h</text>
</a>
</g>
</g>
<!-- Node2&#45;&gt;Node4 -->
<g id="edge6_Node000002_Node000004" class="edge">
<title>Node2&#45;&gt;Node4</title>
<g id="a_edge6_Node000002_Node000004"><a xlink:title=" ">
<path fill="none" stroke="#63b8ff" d="M69.92,-109.66C78.78,-91.93 98.89,-51.73 110.59,-28.32"/>
<polygon fill="#63b8ff" stroke="#63b8ff" points="113.83,-29.67 115.17,-19.16 107.57,-26.54 113.83,-29.67"/>
</a>
</g>
</g>
<!-- Node5 -->
<g id="Node000005" class="node">
<title>Node5</title>
<g id="a_Node000005"><a xlink:title=" ">
<polygon fill="#e0e0e0" stroke="#999999" points="70.5,-19 14.5,-19 14.5,0 70.5,0 70.5,-19"/>
<text text-anchor="middle" x="42.5" y="-7" font-family="Helvetica,sans-Serif" font-size="10.00">stddef.h</text>
</a>
</g>
</g>
<!-- Node2&#45;&gt;Node5 -->
<g id="edge7_Node000002_Node000005" class="edge">
<title>Node2&#45;&gt;Node5</title>
<g id="a_edge7_Node000002_Node000005"><a xlink:title=" ">
<path fill="none" stroke="#63b8ff" d="M63.62,-109.66C59.88,-92.09 51.43,-52.45 46.43,-28.95"/>
<polygon fill="#63b8ff" stroke="#63b8ff" points="49.85,-28.21 44.34,-19.16 43,-29.67 49.85,-28.21"/>
</a>
</g>
</g>
<!-- Node3&#45;&gt;Node4 -->
<g id="edge3_Node000003_Node000004" class="edge">
<title>Node3&#45;&gt;Node4</title>
<g id="a_edge3_Node000003_Node000004"><a xlink:title=" ">
<path fill="none" stroke="#63b8ff" d="M140.37,-54.75C136.99,-47.57 132.08,-37.18 127.88,-28.27"/>
<polygon fill="#63b8ff" stroke="#63b8ff" points="130.98,-26.64 123.55,-19.09 124.65,-29.63 130.98,-26.64"/>
</a>
</g>
</g>
<!-- Node3&#45;&gt;Node5 -->
<g id="edge4_Node000003_Node000005" class="edge">
<title>Node3&#45;&gt;Node5</title>
<g id="a_edge4_Node000003_Node000005"><a xlink:title=" ">
<path fill="none" stroke="#63b8ff" d="M128.11,-54.98C111.93,-46.57 86.93,-33.59 68.12,-23.81"/>
<polygon fill="#63b8ff" stroke="#63b8ff" points="69.67,-20.68 59.19,-19.17 66.45,-26.89 69.67,-20.68"/>
</a>
</g>
</g>
<!-- Node6 -->
<g id="Node000006" class="node">
<title>Node6</title>
<g id="a_Node000006"><a xlink:title=" ">
<polygon fill="#e0e0e0" stroke="#999999" points="222,-19 169,-19 169,0 222,0 222,-19"/>
<text text-anchor="middle" x="195.5" y="-7" font-family="Helvetica,sans-Serif" font-size="10.00">stdint.h</text>
</a>
</g>
</g>
<!-- Node3&#45;&gt;Node6 -->
<g id="edge5_Node000003_Node000006" class="edge">
<title>Node3&#45;&gt;Node6</title>
<g id="a_edge5_Node000003_Node000006"><a xlink:title=" ">
<path fill="none" stroke="#63b8ff" d="M152.92,-54.75C160.27,-47.11 171.13,-35.82 180.04,-26.56"/>
<polygon fill="#63b8ff" stroke="#63b8ff" points="182.82,-28.72 187.24,-19.09 177.78,-23.87 182.82,-28.72"/>
</a>
</g>
</g>
</g>
</svg>
