<?xml version="1.0" encoding="UTF-8" standalone="no"?>
<!DOCTYPE svg PUBLIC "-//W3C//DTD SVG 1.1//EN"
 "http://www.w3.org/Graphics/SVG/1.1/DTD/svg11.dtd">
<!-- Generated by graphviz version 2.43.0 (0)
 -->
<!-- Title: t/405_simd_vectors_avx.c Pages: 1 -->
<svg width="627pt" height="258pt"
 viewBox="0.00 0.00 627.00 258.00" xmlns="http://www.w3.org/2000/svg" xmlns:xlink="http://www.w3.org/1999/xlink">
<g id="graph0" class="graph" transform="scale(1 1) rotate(0) translate(4 254)">
<title>t/405_simd_vectors_avx.c</title>
<!-- Node1 -->
<g id="Node000001" class="node">
<title>Node1</title>
<g id="a_Node000001"><a xlink:title="Unit test for 256&#45;bit (AVX) SIMD vector support.">
<polygon fill="#999999" stroke="#666666" points="409.5,-250 297.5,-250 297.5,-220 409.5,-220 409.5,-250"/>
<text text-anchor="start" x="305.5" y="-238" font-family="Helvetica,sans-Serif" font-size="10.00">t/405_simd_vectors</text>
<text text-anchor="middle" x="353.5" y="-227" font-family="Helvetica,sans-Serif" font-size="10.00">_avx.c</text>
</a>
</g>
</g>
<!-- Node2 -->
<g id="Node000002" class="node">
<title>Node2</title>
<g id="a_Node000002"><a xlink:href="compat__c23_8h.html" target="_top" xlink:title="Provides forward compatibility macros for C23 features.">
<polygon fill="white" stroke="#666666" points="180,-129 49,-129 49,-110 180,-110 180,-129"/>
<text text-anchor="middle" x="114.5" y="-117" font-family="Helvetica,sans-Serif" font-size="10.00">common/compat_c23.h</text>
</a>
</g>
</g>
<!-- Node1&#45;&gt;Node2 -->
<g id="edge1_Node000001_Node000002" class="edge">
<title>Node1&#45;&gt;Node2</title>
<g id="a_edge1_Node000001_Node000002"><a xlink:title=" ">
<path fill="none" stroke="#63b8ff" d="M297.44,-230.68C232.13,-225.5 130.15,-212.91 106.5,-184 96.3,-171.53 100.22,-152.8 105.54,-138.92"/>
<polygon fill="#63b8ff" stroke="#63b8ff" points="108.89,-139.99 109.67,-129.43 102.47,-137.2 108.89,-139.99"/>
</a>
</g>
</g>
<!-- Node3 -->
<g id="Node000003" class="node">
<title>Node3</title>
<g id="a_Node000003"><a xlink:href="infix__config_8h.html" target="_top" xlink:title="Platform, architecture, and ABI detection macros.">
<polygon fill="white" stroke="#666666" points="364,-74 237,-74 237,-55 364,-55 364,-74"/>
<text text-anchor="middle" x="300.5" y="-62" font-family="Helvetica,sans-Serif" font-size="10.00">common/infix_config.h</text>
</a>
</g>
</g>
<!-- Node1&#45;&gt;Node3 -->
<g id="edge10_Node000001_Node000003" class="edge">
<title>Node1&#45;&gt;Node3</title>
<g id="a_edge10_Node000001_Node000003"><a xlink:title=" ">
<path fill="none" stroke="#63b8ff" d="M365.31,-219.83C375.38,-205.96 387.25,-184.17 380.5,-165 368.26,-130.24 338.18,-98.67 318.59,-80.8"/>
<polygon fill="#63b8ff" stroke="#63b8ff" points="320.73,-78.02 310.92,-74.01 316.09,-83.26 320.73,-78.02"/>
</a>
</g>
</g>
<!-- Node4 -->
<g id="Node000004" class="node">
<title>Node4</title>
<g id="a_Node000004"><a xlink:href="infix_8h.html" target="_top" xlink:title="The public interface for the infix FFI library.">
<polygon fill="white" stroke="#666666" points="86,-74 15,-74 15,-55 86,-55 86,-74"/>
<text text-anchor="middle" x="50.5" y="-62" font-family="Helvetica,sans-Serif" font-size="10.00">infix/infix.h</text>
</a>
</g>
</g>
<!-- Node1&#45;&gt;Node4 -->
<g id="edge15_Node000001_Node000004" class="edge">
<title>Node1&#45;&gt;Node4</title>
<g id="a_edge15_Node000001_Node000004"><a xlink:title=" ">
<path fill="none" stroke="#63b8ff" d="M297.33,-232.39C242.9,-228.76 159.41,-217.59 95.5,-184 64.62,-167.77 53,-161.17 39.5,-129 33.35,-114.35 37.41,-96.41 42.25,-83.34"/>
<polygon fill="#63b8ff" stroke="#63b8ff" points="45.5,-84.63 46.11,-74.06 39.03,-81.94 45.5,-84.63"/>
</a>
</g>
</g>
<!-- Node8 -->
<g id="Node000008" class="node">
<title>Node8</title>
<g id="a_Node000008"><a xlink:href="double__tap_8h.html" target="_top" xlink:title="A lightweight, single&#45;header TAP (Test Anything Protocol) library.">
<polygon fill="white" stroke="#666666" points="371,-184 246,-184 246,-165 371,-165 371,-184"/>
<text text-anchor="middle" x="308.5" y="-172" font-family="Helvetica,sans-Serif" font-size="10.00">common/double_tap.h</text>
</a>
</g>
</g>
<!-- Node1&#45;&gt;Node8 -->
<g id="edge9_Node000001_Node000008" class="edge">
<title>Node1&#45;&gt;Node8</title>
<g id="a_edge9_Node000001_Node000008"><a xlink:title=" ">
<path fill="none" stroke="#63b8ff" d="M342.61,-219.84C336.21,-211.52 328.08,-200.96 321.37,-192.23"/>
<polygon fill="#63b8ff" stroke="#63b8ff" points="324.11,-190.06 315.24,-184.27 318.57,-194.33 324.11,-190.06"/>
</a>
</g>
</g>
<!-- Node9 -->
<g id="Node000009" class="node">
<title>Node9</title>
<g id="a_Node000009"><a xlink:href="platform_8h.html" target="_top" xlink:title="Declares internal, runtime CPU/OS feature detection functions.">
<polygon fill="white" stroke="#666666" points="228,-184 115,-184 115,-165 228,-165 228,-184"/>
<text text-anchor="middle" x="171.5" y="-172" font-family="Helvetica,sans-Serif" font-size="10.00">common/platform.h</text>
</a>
</g>
</g>
<!-- Node1&#45;&gt;Node9 -->
<g id="edge11_Node000001_Node000009" class="edge">
<title>Node1&#45;&gt;Node9</title>
<g id="a_edge11_Node000001_Node000009"><a xlink:title=" ">
<path fill="none" stroke="#63b8ff" d="M309.91,-219.99C278.77,-209.98 237.36,-196.67 207.97,-187.22"/>
<polygon fill="#63b8ff" stroke="#63b8ff" points="208.7,-183.78 198.11,-184.05 206.56,-190.45 208.7,-183.78"/>
</a>
</g>
</g>
<!-- Node10 -->
<g id="Node000010" class="node">
<title>Node10</title>
<g id="a_Node000010"><a xlink:title=" ">
<polygon fill="#e0e0e0" stroke="#999999" points="479,-184 428,-184 428,-165 479,-165 479,-184"/>
<text text-anchor="middle" x="453.5" y="-172" font-family="Helvetica,sans-Serif" font-size="10.00">math.h</text>
</a>
</g>
</g>
<!-- Node1&#45;&gt;Node10 -->
<g id="edge16_Node000001_Node000010" class="edge">
<title>Node1&#45;&gt;Node10</title>
<g id="a_edge16_Node000001_Node000010"><a xlink:title=" ">
<path fill="none" stroke="#63b8ff" d="M377.45,-219.99C393.39,-210.66 414.23,-198.47 430.06,-189.21"/>
<polygon fill="#63b8ff" stroke="#63b8ff" points="431.87,-192.21 438.73,-184.14 428.33,-186.17 431.87,-192.21"/>
</a>
</g>
</g>
<!-- Node11 -->
<g id="Node000011" class="node">
<title>Node11</title>
<g id="a_Node000011"><a xlink:title=" ">
<polygon fill="#e0e0e0" stroke="#999999" points="547.5,-184 497.5,-184 497.5,-165 547.5,-165 547.5,-184"/>
<text text-anchor="middle" x="522.5" y="-172" font-family="Helvetica,sans-Serif" font-size="10.00">stdio.h</text>
</a>
</g>
</g>
<!-- Node1&#45;&gt;Node11 -->
<g id="edge17_Node000001_Node000011" class="edge">
<title>Node1&#45;&gt;Node11</title>
<g id="a_edge17_Node000001_Node000011"><a xlink:title=" ">
<path fill="none" stroke="#63b8ff" d="M393.98,-219.99C422.68,-210.05 460.78,-196.86 488.03,-187.43"/>
<polygon fill="#63b8ff" stroke="#63b8ff" points="489.24,-190.72 497.54,-184.14 486.95,-184.1 489.24,-190.72"/>
</a>
</g>
</g>
<!-- Node12 -->
<g id="Node000012" class="node">
<title>Node12</title>
<g id="a_Node000012"><a xlink:title=" ">
<polygon fill="#e0e0e0" stroke="#999999" points="619,-184 566,-184 566,-165 619,-165 619,-184"/>
<text text-anchor="middle" x="592.5" y="-172" font-family="Helvetica,sans-Serif" font-size="10.00">stdlib.h</text>
</a>
</g>
</g>
<!-- Node1&#45;&gt;Node12 -->
<g id="edge18_Node000001_Node000012" class="edge">
<title>Node1&#45;&gt;Node12</title>
<g id="a_edge18_Node000001_Node000012"><a xlink:title=" ">
<path fill="none" stroke="#63b8ff" d="M409.53,-220.28C454.75,-209.22 517.04,-193.97 556.03,-184.43"/>
<polygon fill="#63b8ff" stroke="#63b8ff" points="557.01,-187.79 565.89,-182.01 555.34,-180.99 557.01,-187.79"/>
</a>
</g>
</g>
<!-- Node2&#45;&gt;Node3 -->
<g id="edge2_Node000002_Node000003" class="edge">
<title>Node2&#45;&gt;Node3</title>
<g id="a_edge2_Node000002_Node000003"><a xlink:title=" ">
<path fill="none" stroke="#63b8ff" d="M144.38,-109.98C175.88,-101.01 225.67,-86.82 260.53,-76.89"/>
<polygon fill="#63b8ff" stroke="#63b8ff" points="261.72,-80.19 270.38,-74.08 259.81,-73.46 261.72,-80.19"/>
</a>
</g>
</g>
<!-- Node2&#45;&gt;Node4 -->
<g id="edge3_Node000002_Node000004" class="edge">
<title>Node2&#45;&gt;Node4</title>
<g id="a_edge3_Node000002_Node000004"><a xlink:title=" ">
<path fill="none" stroke="#63b8ff" d="M104.22,-109.98C94.66,-102.07 80.22,-90.11 68.72,-80.58"/>
<polygon fill="#63b8ff" stroke="#63b8ff" points="70.9,-77.85 60.97,-74.17 66.44,-83.24 70.9,-77.85"/>
</a>
</g>
</g>
<!-- Node5 -->
<g id="Node000005" class="node">
<title>Node5</title>
<g id="a_Node000005"><a xlink:title=" ">
<polygon fill="#e0e0e0" stroke="#999999" points="207.5,-19 145.5,-19 145.5,0 207.5,0 207.5,-19"/>
<text text-anchor="middle" x="176.5" y="-7" font-family="Helvetica,sans-Serif" font-size="10.00">stdbool.h</text>
</a>
</g>
</g>
<!-- Node2&#45;&gt;Node5 -->
<g id="edge7_Node000002_Node000005" class="edge">
<title>Node2&#45;&gt;Node5</title>
<g id="a_edge7_Node000002_Node000005"><a xlink:title=" ">
<path fill="none" stroke="#63b8ff" d="M119.57,-109.66C129.8,-91.85 153.04,-51.37 166.45,-28.01"/>
<polygon fill="#63b8ff" stroke="#63b8ff" points="169.59,-29.57 171.53,-19.16 163.52,-26.09 169.59,-29.57"/>
</a>
</g>
</g>
<!-- Node6 -->
<g id="Node000006" class="node">
<title>Node6</title>
<g id="a_Node000006"><a xlink:title=" ">
<polygon fill="#e0e0e0" stroke="#999999" points="127.5,-19 71.5,-19 71.5,0 127.5,0 127.5,-19"/>
<text text-anchor="middle" x="99.5" y="-7" font-family="Helvetica,sans-Serif" font-size="10.00">stddef.h</text>
</a>
</g>
</g>
<!-- Node2&#45;&gt;Node6 -->
<g id="edge8_Node000002_Node000006" class="edge">
<title>Node2&#45;&gt;Node6</title>
<g id="a_edge8_Node000002_Node000006"><a xlink:title=" ">
<path fill="none" stroke="#63b8ff" d="M113.27,-109.66C110.84,-92.17 105.38,-52.8 102.11,-29.27"/>
<polygon fill="#63b8ff" stroke="#63b8ff" points="105.55,-28.58 100.7,-19.16 98.61,-29.54 105.55,-28.58"/>
</a>
</g>
</g>
<!-- Node4&#45;&gt;Node5 -->
<g id="edge4_Node000004_Node000005" class="edge">
<title>Node4&#45;&gt;Node5</title>
<g id="a_edge4_Node000004_Node000005"><a xlink:title=" ">
<path fill="none" stroke="#63b8ff" d="M70.74,-54.98C91.2,-46.38 123.03,-32.99 146.43,-23.15"/>
<polygon fill="#63b8ff" stroke="#63b8ff" points="148.03,-26.27 155.89,-19.17 145.31,-19.82 148.03,-26.27"/>
</a>
</g>
</g>
<!-- Node4&#45;&gt;Node6 -->
<g id="edge5_Node000004_Node000006" class="edge">
<title>Node4&#45;&gt;Node6</title>
<g id="a_edge5_Node000004_Node000006"><a xlink:title=" ">
<path fill="none" stroke="#63b8ff" d="M58.59,-54.75C65.66,-47.11 76.09,-35.82 84.65,-26.56"/>
<polygon fill="#63b8ff" stroke="#63b8ff" points="87.34,-28.81 91.56,-19.09 82.2,-24.06 87.34,-28.81"/>
</a>
</g>
</g>
<!-- Node7 -->
<g id="Node000007" class="node">
<title>Node7</title>
<g id="a_Node000007"><a xlink:title=" ">
<polygon fill="#e0e0e0" stroke="#999999" points="53,-19 0,-19 0,0 53,0 53,-19"/>
<text text-anchor="middle" x="26.5" y="-7" font-family="Helvetica,sans-Serif" font-size="10.00">stdint.h</text>
</a>
</g>
</g>
<!-- Node4&#45;&gt;Node7 -->
<g id="edge6_Node000004_Node000007" class="edge">
<title>Node4&#45;&gt;Node7</title>
<g id="a_edge6_Node000004_Node000007"><a xlink:title=" ">
<path fill="none" stroke="#63b8ff" d="M46.54,-54.75C43.29,-47.57 38.58,-37.18 34.55,-28.27"/>
<polygon fill="#63b8ff" stroke="#63b8ff" points="37.7,-26.75 30.39,-19.09 31.33,-29.64 37.7,-26.75"/>
</a>
</g>
</g>
<!-- Node9&#45;&gt;Node2 -->
<g id="edge12_Node000009_Node000002" class="edge">
<title>Node9&#45;&gt;Node2</title>
<g id="a_edge12_Node000009_Node000002"><a xlink:title=" ">
<path fill="none" stroke="#63b8ff" d="M162.34,-164.98C154,-157.23 141.47,-145.58 131.32,-136.14"/>
<polygon fill="#63b8ff" stroke="#63b8ff" points="133.53,-133.42 123.82,-129.17 128.76,-138.54 133.53,-133.42"/>
</a>
</g>
</g>
<!-- Node9&#45;&gt;Node3 -->
<g id="edge13_Node000009_Node000003" class="edge">
<title>Node9&#45;&gt;Node3</title>
<g id="a_edge13_Node000009_Node000003"><a xlink:title=" ">
<path fill="none" stroke="#63b8ff" d="M182.06,-164.66C203.99,-146.3 254.74,-103.81 282.15,-80.87"/>
<polygon fill="#63b8ff" stroke="#63b8ff" points="284.74,-83.26 290.16,-74.16 280.24,-77.89 284.74,-83.26"/>
</a>
</g>
</g>
<!-- Node9&#45;&gt;Node5 -->
<g id="edge14_Node000009_Node000005" class="edge">
<title>Node9&#45;&gt;Node5</title>
<g id="a_edge14_Node000009_Node000005"><a xlink:title=" ">
<path fill="none" stroke="#63b8ff" d="M176.12,-164.94C180.56,-156.2 186.95,-142.09 189.5,-129 196.33,-93.92 188.03,-52.26 181.91,-28.85"/>
<polygon fill="#63b8ff" stroke="#63b8ff" points="185.28,-27.9 179.23,-19.2 178.53,-29.77 185.28,-27.9"/>
</a>
</g>
</g>
</g>
</svg>
