<?xml version="1.0" encoding="UTF-8" standalone="no"?>
<!DOCTYPE svg PUBLIC "-//W3C//DTD SVG 1.1//EN"
 "http://www.w3.org/Graphics/SVG/1.1/DTD/svg11.dtd">
<!-- Generated by graphviz version 2.43.0 (0)
 -->
<!-- Title: t/406_simd_forward.c Pages: 1 -->
<svg width="499pt" height="247pt"
 viewBox="0.00 0.00 499.37 247.00" xmlns="http://www.w3.org/2000/svg" xmlns:xlink="http://www.w3.org/1999/xlink">

<svg id="main" version="1.1" xmlns="http://www.w3.org/2000/svg" xmlns:xlink="http://www.w3.org/1999/xlink" xml:space="preserve" onload="init(evt)">
<style type="text/css"><![CDATA[
.node, .edge {opacity: 0.7;}
.node.selected, .edge.selected {opacity: 1;}
.edge:hover path { stroke: red; }
.edge:hover polygon { stroke: red; fill: red; }
]]></style>
<script type="application/ecmascript" xlink:href="svg.min.js"/>
<svg id="graph" class="graph">
<g id="graph0" class="graph" transform="scale(1 1) rotate(0) translate(4 243)">
<title>t/406_simd_forward.c</title>
<!-- Node1 -->
<g id="Node000001" class="node">
<title>Node1</title>
<g id="a_Node000001"><a xlink:title="Unit test for forward SIMD vector calls.">
<polygon fill="#999999" stroke="#666666" points="329.87,-239 207.87,-239 207.87,-220 329.87,-220 329.87,-239"/>
<text text-anchor="middle" x="268.87" y="-227" font-family="Helvetica,sans-Serif" font-size="10.00">t/406_simd_forward.c</text>
</a>
</g>
</g>
<!-- Node2 -->
<g id="Node000002" class="node">
<title>Node2</title>
<g id="a_Node000002"><a xlink:href="compat__c23_8h.html" target="_top" xlink:title="Provides forward compatibility macros for C23 features.">
<polygon fill="white" stroke="#666666" points="240.37,-129 109.37,-129 109.37,-110 240.37,-110 240.37,-129"/>
<text text-anchor="middle" x="174.87" y="-117" font-family="Helvetica,sans-Serif" font-size="10.00">common/compat_c23.h</text>
</a>
</g>
</g>
<!-- Node1&#45;&gt;Node2 -->
<g id="edge1_Node000001_Node000002" class="edge">
<title>Node1&#45;&gt;Node2</title>
<g id="a_edge1_Node000001_Node000002"><a xlink:title=" ">
<path fill="none" stroke="#63b8ff" d="M261.18,-219.66C245.4,-201.54 209.17,-159.91 189.03,-136.77"/>
<polygon fill="#63b8ff" stroke="#63b8ff" points="191.61,-134.4 182.41,-129.16 186.33,-139 191.61,-134.4"/>
</a>
</g>
</g>
<!-- Node4 -->
<g id="Node000004" class="node">
<title>Node4</title>
<g id="a_Node000004"><a xlink:href="infix_8h.html" target="_top" xlink:title="The public interface for the infix FFI library.">
<polygon fill="white" stroke="#666666" points="310.37,-74 239.37,-74 239.37,-55 310.37,-55 310.37,-74"/>
<text text-anchor="middle" x="274.87" y="-62" font-family="Helvetica,sans-Serif" font-size="10.00">infix/infix.h</text>
</a>
</g>
</g>
<!-- Node1&#45;&gt;Node4 -->
<g id="edge14_Node000001_Node000004" class="edge">
<title>Node1&#45;&gt;Node4</title>
<g id="a_edge14_Node000001_Node000004"><a xlink:title=" ">
<path fill="none" stroke="#63b8ff" d="M269.19,-219.74C270.13,-194.31 272.86,-120.08 274.16,-84.69"/>
<polygon fill="#63b8ff" stroke="#63b8ff" points="277.68,-84.43 274.55,-74.31 270.68,-84.17 277.68,-84.43"/>
</a>
</g>
</g>
<!-- Node8 -->
<g id="Node000008" class="node">
<title>Node8</title>
<g id="a_Node000008"><a xlink:href="double__tap_8h.html" target="_top" xlink:title="A lightweight, single&#45;header TAP (Test Anything Protocol) library.">
<polygon fill="white" stroke="#666666" points="422.37,-184 297.37,-184 297.37,-165 422.37,-165 422.37,-184"/>
<text text-anchor="middle" x="359.87" y="-172" font-family="Helvetica,sans-Serif" font-size="10.00">common/double_tap.h</text>
</a>
</g>
</g>
<!-- Node1&#45;&gt;Node8 -->
<g id="edge9_Node000001_Node000008" class="edge">
<title>Node1&#45;&gt;Node8</title>
<g id="a_edge9_Node000001_Node000008"><a xlink:title=" ">
<path fill="none" stroke="#63b8ff" d="M283.49,-219.98C297.73,-211.69 319.62,-198.94 336.32,-189.22"/>
<polygon fill="#63b8ff" stroke="#63b8ff" points="338.1,-192.23 344.98,-184.17 334.58,-186.18 338.1,-192.23"/>
</a>
</g>
</g>
<!-- Node9 -->
<g id="Node000009" class="node">
<title>Node9</title>
<g id="a_Node000009"><a xlink:href="platform_8h.html" target="_top" xlink:title="Declares internal, runtime CPU/OS feature detection functions.">
<polygon fill="white" stroke="#666666" points="154.37,-184 41.37,-184 41.37,-165 154.37,-165 154.37,-184"/>
<text text-anchor="middle" x="97.87" y="-172" font-family="Helvetica,sans-Serif" font-size="10.00">common/platform.h</text>
</a>
</g>
</g>
<!-- Node1&#45;&gt;Node9 -->
<g id="edge10_Node000001_Node000009" class="edge">
<title>Node1&#45;&gt;Node9</title>
<g id="a_edge10_Node000001_Node000009"><a xlink:title=" ">
<path fill="none" stroke="#63b8ff" d="M241.4,-219.98C212.69,-211.09 167.45,-197.07 135.45,-187.15"/>
<polygon fill="#63b8ff" stroke="#63b8ff" points="136.15,-183.7 125.56,-184.08 134.07,-190.39 136.15,-183.7"/>
</a>
</g>
</g>
<!-- Node10 -->
<g id="Node000010" class="node">
<title>Node10</title>
<g id="a_Node000010"><a xlink:title=" ">
<polygon fill="#e0e0e0" stroke="#999999" points="491.37,-184 440.37,-184 440.37,-165 491.37,-165 491.37,-184"/>
<text text-anchor="middle" x="465.87" y="-172" font-family="Helvetica,sans-Serif" font-size="10.00">math.h</text>
</a>
</g>
</g>
<!-- Node1&#45;&gt;Node10 -->
<g id="edge15_Node000001_Node000010" class="edge">
<title>Node1&#45;&gt;Node10</title>
<g id="a_edge15_Node000001_Node000010"><a xlink:title=" ">
<path fill="none" stroke="#63b8ff" d="M300.52,-219.98C336.01,-210.44 393.43,-194.99 430.41,-185.04"/>
<polygon fill="#63b8ff" stroke="#63b8ff" points="431.51,-188.37 440.26,-182.39 429.69,-181.61 431.51,-188.37"/>
</a>
</g>
</g>
<!-- Node3 -->
<g id="Node000003" class="node">
<title>Node3</title>
<g id="a_Node000003"><a xlink:href="infix__config_8h.html" target="_top" xlink:title="Platform, architecture, and ABI detection macros.">
<polygon fill="white" stroke="#666666" points="144.37,-74 17.37,-74 17.37,-55 144.37,-55 144.37,-74"/>
<text text-anchor="middle" x="80.87" y="-62" font-family="Helvetica,sans-Serif" font-size="10.00">common/infix_config.h</text>
</a>
</g>
</g>
<!-- Node2&#45;&gt;Node3 -->
<g id="edge2_Node000002_Node000003" class="edge">
<title>Node2&#45;&gt;Node3</title>
<g id="a_edge2_Node000002_Node000003"><a xlink:title=" ">
<path fill="none" stroke="#63b8ff" d="M159.77,-109.98C145.05,-101.69 122.45,-88.94 105.2,-79.22"/>
<polygon fill="#63b8ff" stroke="#63b8ff" points="106.68,-76.03 96.25,-74.17 103.24,-82.13 106.68,-76.03"/>
</a>
</g>
</g>
<!-- Node2&#45;&gt;Node4 -->
<g id="edge3_Node000002_Node000004" class="edge">
<title>Node2&#45;&gt;Node4</title>
<g id="a_edge3_Node000002_Node000004"><a xlink:title=" ">
<path fill="none" stroke="#63b8ff" d="M190.94,-109.98C206.73,-101.61 231.09,-88.7 249.5,-78.95"/>
<polygon fill="#63b8ff" stroke="#63b8ff" points="251.31,-81.95 258.51,-74.17 248.04,-75.76 251.31,-81.95"/>
</a>
</g>
</g>
<!-- Node5 -->
<g id="Node000005" class="node">
<title>Node5</title>
<g id="a_Node000005"><a xlink:title=" ">
<polygon fill="#e0e0e0" stroke="#999999" points="183.87,-19 121.87,-19 121.87,0 183.87,0 183.87,-19"/>
<text text-anchor="middle" x="152.87" y="-7" font-family="Helvetica,sans-Serif" font-size="10.00">stdbool.h</text>
</a>
</g>
</g>
<!-- Node2&#45;&gt;Node5 -->
<g id="edge7_Node000002_Node000005" class="edge">
<title>Node2&#45;&gt;Node5</title>
<g id="a_edge7_Node000002_Node000005"><a xlink:title=" ">
<path fill="none" stroke="#63b8ff" d="M173.07,-109.66C169.51,-92.17 161.49,-52.8 156.69,-29.27"/>
<polygon fill="#63b8ff" stroke="#63b8ff" points="160.06,-28.26 154.63,-19.16 153.2,-29.66 160.06,-28.26"/>
</a>
</g>
</g>
<!-- Node6 -->
<g id="Node000006" class="node">
<title>Node6</title>
<g id="a_Node000006"><a xlink:title=" ">
<polygon fill="#e0e0e0" stroke="#999999" points="257.87,-19 201.87,-19 201.87,0 257.87,0 257.87,-19"/>
<text text-anchor="middle" x="229.87" y="-7" font-family="Helvetica,sans-Serif" font-size="10.00">stddef.h</text>
</a>
</g>
</g>
<!-- Node2&#45;&gt;Node6 -->
<g id="edge8_Node000002_Node000006" class="edge">
<title>Node2&#45;&gt;Node6</title>
<g id="a_edge8_Node000002_Node000006"><a xlink:title=" ">
<path fill="none" stroke="#63b8ff" d="M179.37,-109.66C188.4,-91.93 208.87,-51.73 220.8,-28.32"/>
<polygon fill="#63b8ff" stroke="#63b8ff" points="224.04,-29.66 225.46,-19.16 217.8,-26.48 224.04,-29.66"/>
</a>
</g>
</g>
<!-- Node4&#45;&gt;Node5 -->
<g id="edge4_Node000004_Node000005" class="edge">
<title>Node4&#45;&gt;Node5</title>
<g id="a_edge4_Node000004_Node000005"><a xlink:title=" ">
<path fill="none" stroke="#63b8ff" d="M255.27,-54.98C235.55,-46.42 204.92,-33.11 182.29,-23.28"/>
<polygon fill="#63b8ff" stroke="#63b8ff" points="183.39,-19.94 172.83,-19.17 180.61,-26.37 183.39,-19.94"/>
</a>
</g>
</g>
<!-- Node4&#45;&gt;Node6 -->
<g id="edge5_Node000004_Node000006" class="edge">
<title>Node4&#45;&gt;Node6</title>
<g id="a_edge5_Node000004_Node000006"><a xlink:title=" ">
<path fill="none" stroke="#63b8ff" d="M267.44,-54.75C261.02,-47.18 251.56,-36.05 243.75,-26.84"/>
<polygon fill="#63b8ff" stroke="#63b8ff" points="246.3,-24.45 237.16,-19.09 240.97,-28.98 246.3,-24.45"/>
</a>
</g>
</g>
<!-- Node7 -->
<g id="Node000007" class="node">
<title>Node7</title>
<g id="a_Node000007"><a xlink:title=" ">
<polygon fill="#e0e0e0" stroke="#999999" points="329.37,-19 276.37,-19 276.37,0 329.37,0 329.37,-19"/>
<text text-anchor="middle" x="302.87" y="-7" font-family="Helvetica,sans-Serif" font-size="10.00">stdint.h</text>
</a>
</g>
</g>
<!-- Node4&#45;&gt;Node7 -->
<g id="edge6_Node000004_Node000007" class="edge">
<title>Node4&#45;&gt;Node7</title>
<g id="a_edge6_Node000004_Node000007"><a xlink:title=" ">
<path fill="none" stroke="#63b8ff" d="M279.49,-54.75C283.33,-47.49 288.89,-36.95 293.63,-27.98"/>
<polygon fill="#63b8ff" stroke="#63b8ff" points="296.76,-29.57 298.33,-19.09 290.57,-26.3 296.76,-29.57"/>
</a>
</g>
</g>
<!-- Node9&#45;&gt;Node2 -->
<g id="edge11_Node000009_Node000002" class="edge">
<title>Node9&#45;&gt;Node2</title>
<g id="a_edge11_Node000009_Node000002"><a xlink:title=" ">
<path fill="none" stroke="#63b8ff" d="M110.24,-164.98C121.96,-156.92 139.79,-144.65 153.76,-135.03"/>
<polygon fill="#63b8ff" stroke="#63b8ff" points="156.02,-137.72 162.27,-129.17 152.05,-131.96 156.02,-137.72"/>
</a>
</g>
</g>
<!-- Node9&#45;&gt;Node3 -->
<g id="edge12_Node000009_Node000003" class="edge">
<title>Node9&#45;&gt;Node3</title>
<g id="a_edge12_Node000009_Node000003"><a xlink:title=" ">
<path fill="none" stroke="#63b8ff" d="M96.48,-164.66C93.73,-147.17 87.53,-107.8 83.82,-84.27"/>
<polygon fill="#63b8ff" stroke="#63b8ff" points="87.25,-83.49 82.23,-74.16 80.33,-84.58 87.25,-83.49"/>
</a>
</g>
</g>
<!-- Node9&#45;&gt;Node5 -->
<g id="edge13_Node000009_Node000005" class="edge">
<title>Node9&#45;&gt;Node5</title>
<g id="a_edge13_Node000009_Node000005"><a xlink:title=" ">
<path fill="none" stroke="#63b8ff" d="M82.43,-164.93C49.37,-145.5 -22.84,-96.55 7.87,-55 31.49,-23.05 77.64,-13.3 111.55,-10.69"/>
<polygon fill="#63b8ff" stroke="#63b8ff" points="111.87,-14.17 121.65,-10.09 111.46,-7.19 111.87,-14.17"/>
</a>
</g>
</g>
</g>
</svg>
</svg>

<style type='text/css'>
<![CDATA[
[data-mouse-over-selected='false'] { opacity: 0.7; }
[data-mouse-over-selected='true']  { opacity: 1.0; }
]]>
</style>
<script type="application/ecmascript"><![CDATA[
document.addEventListener('DOMContentLoaded', (event) => {
  highlightEdges();
  highlightAdjacentNodes();
});
]]></script>
</svg>
