<?xml version="1.0" encoding="UTF-8" standalone="no"?>
<!DOCTYPE svg PUBLIC "-//W3C//DTD SVG 1.1//EN"
 "http://www.w3.org/Graphics/SVG/1.1/DTD/svg11.dtd">
<!-- Generated by graphviz version 2.43.0 (0)
 -->
<!-- Title: t/501_direct_marshalling.c Pages: 1 -->
<svg width="561pt" height="247pt"
 viewBox="0.00 0.00 561.00 247.00" xmlns="http://www.w3.org/2000/svg" xmlns:xlink="http://www.w3.org/1999/xlink">
<g id="graph0" class="graph" transform="scale(1 1) rotate(0) translate(4 243)">
<title>t/501_direct_marshalling.c</title>
<!-- Node1 -->
<g id="Node000001" class="node">
<title>Node1</title>
<g id="a_Node000001"><a xlink:title="Test suite for the high&#45;performance direct marshalling API.">
<polygon fill="#999999" stroke="#666666" points="336.5,-239 190.5,-239 190.5,-220 336.5,-220 336.5,-239"/>
<text text-anchor="middle" x="263.5" y="-227" font-family="Helvetica,sans-Serif" font-size="10.00">t/501_direct_marshalling.c</text>
</a>
</g>
</g>
<!-- Node2 -->
<g id="Node000002" class="node">
<title>Node2</title>
<g id="a_Node000002"><a xlink:href="double__tap_8h.html" target="_top" xlink:title="A lightweight, single&#45;header TAP (Test Anything Protocol) library.">
<polygon fill="white" stroke="#666666" points="125,-184 0,-184 0,-165 125,-165 125,-184"/>
<text text-anchor="middle" x="62.5" y="-172" font-family="Helvetica,sans-Serif" font-size="10.00">common/double_tap.h</text>
</a>
</g>
</g>
<!-- Node1&#45;&gt;Node2 -->
<g id="edge1_Node000001_Node000002" class="edge">
<title>Node1&#45;&gt;Node2</title>
<g id="a_edge1_Node000001_Node000002"><a xlink:title=" ">
<path fill="none" stroke="#63b8ff" d="M231.21,-219.98C196.88,-210.93 142.44,-196.58 104.73,-186.64"/>
<polygon fill="#63b8ff" stroke="#63b8ff" points="105.61,-183.25 95.05,-184.08 103.82,-190.02 105.61,-183.25"/>
</a>
</g>
</g>
<!-- Node3 -->
<g id="Node000003" class="node">
<title>Node3</title>
<g id="a_Node000003"><a xlink:href="infix__config_8h.html" target="_top" xlink:title="Platform, architecture, and ABI detection macros.">
<polygon fill="white" stroke="#666666" points="217,-74 90,-74 90,-55 217,-55 217,-74"/>
<text text-anchor="middle" x="153.5" y="-62" font-family="Helvetica,sans-Serif" font-size="10.00">common/infix_config.h</text>
</a>
</g>
</g>
<!-- Node1&#45;&gt;Node3 -->
<g id="edge2_Node000001_Node000003" class="edge">
<title>Node1&#45;&gt;Node3</title>
<g id="a_edge2_Node000001_Node000003"><a xlink:title=" ">
<path fill="none" stroke="#63b8ff" d="M237.45,-219.97C220,-212.96 197.86,-201.33 184.5,-184 161.64,-154.35 155.56,-109.45 153.99,-84.28"/>
<polygon fill="#63b8ff" stroke="#63b8ff" points="157.49,-84.07 153.55,-74.24 150.49,-84.38 157.49,-84.07"/>
</a>
</g>
</g>
<!-- Node4 -->
<g id="Node000004" class="node">
<title>Node4</title>
<g id="a_Node000004"><a xlink:href="infix__internals_8h.html" target="_top" xlink:title="Internal data structures, function prototypes, and constants.">
<polygon fill="white" stroke="#666666" points="333.5,-184 193.5,-184 193.5,-165 333.5,-165 333.5,-184"/>
<text text-anchor="middle" x="263.5" y="-172" font-family="Helvetica,sans-Serif" font-size="10.00">common/infix_internals.h</text>
</a>
</g>
</g>
<!-- Node1&#45;&gt;Node4 -->
<g id="edge3_Node000001_Node000004" class="edge">
<title>Node1&#45;&gt;Node4</title>
<g id="a_edge3_Node000001_Node000004"><a xlink:title=" ">
<path fill="none" stroke="#63b8ff" d="M263.5,-219.75C263.5,-212.8 263.5,-202.85 263.5,-194.13"/>
<polygon fill="#63b8ff" stroke="#63b8ff" points="267,-194.09 263.5,-184.09 260,-194.09 267,-194.09"/>
</a>
</g>
</g>
<!-- Node9 -->
<g id="Node000009" class="node">
<title>Node9</title>
<g id="a_Node000009"><a xlink:href="infix_8h.html" target="_top" xlink:title="The public interface for the infix FFI library.">
<polygon fill="white" stroke="#666666" points="445,-129 374,-129 374,-110 445,-110 445,-129"/>
<text text-anchor="middle" x="409.5" y="-117" font-family="Helvetica,sans-Serif" font-size="10.00">infix/infix.h</text>
</a>
</g>
</g>
<!-- Node1&#45;&gt;Node9 -->
<g id="edge16_Node000001_Node000009" class="edge">
<title>Node1&#45;&gt;Node9</title>
<g id="a_edge16_Node000001_Node000009"><a xlink:title=" ">
<path fill="none" stroke="#63b8ff" d="M281.52,-219.95C298.05,-211.75 322.87,-198.49 342.5,-184 361.93,-169.66 381.71,-150.19 394.69,-136.61"/>
<polygon fill="#63b8ff" stroke="#63b8ff" points="397.53,-138.69 401.82,-129.01 392.43,-133.9 397.53,-138.69"/>
</a>
</g>
</g>
<!-- Node11 -->
<g id="Node000011" class="node">
<title>Node11</title>
<g id="a_Node000011"><a xlink:title=" ">
<polygon fill="#e0e0e0" stroke="#999999" points="443,-184 390,-184 390,-165 443,-165 443,-184"/>
<text text-anchor="middle" x="416.5" y="-172" font-family="Helvetica,sans-Serif" font-size="10.00">string.h</text>
</a>
</g>
</g>
<!-- Node1&#45;&gt;Node11 -->
<g id="edge17_Node000001_Node000011" class="edge">
<title>Node1&#45;&gt;Node11</title>
<g id="a_edge17_Node000001_Node000011"><a xlink:title=" ">
<path fill="none" stroke="#63b8ff" d="M288.08,-219.98C313.55,-211.16 353.54,-197.31 382.13,-187.41"/>
<polygon fill="#63b8ff" stroke="#63b8ff" points="383.42,-190.66 391.73,-184.08 381.13,-184.05 383.42,-190.66"/>
</a>
</g>
</g>
<!-- Node4&#45;&gt;Node3 -->
<g id="edge4_Node000004_Node000003" class="edge">
<title>Node4&#45;&gt;Node3</title>
<g id="a_edge4_Node000004_Node000003"><a xlink:title=" ">
<path fill="none" stroke="#63b8ff" d="M252.14,-164.73C241.13,-156.06 224.14,-142.2 210.5,-129 194.78,-113.79 178.23,-95 167.04,-81.82"/>
<polygon fill="#63b8ff" stroke="#63b8ff" points="169.63,-79.47 160.52,-74.06 164.27,-83.97 169.63,-79.47"/>
</a>
</g>
</g>
<!-- Node5 -->
<g id="Node000005" class="node">
<title>Node5</title>
<g id="a_Node000005"><a xlink:href="platform_8h.html" target="_top" xlink:title="Declares internal, runtime CPU/OS feature detection functions.">
<polygon fill="white" stroke="#666666" points="333,-129 220,-129 220,-110 333,-110 333,-129"/>
<text text-anchor="middle" x="276.5" y="-117" font-family="Helvetica,sans-Serif" font-size="10.00">common/platform.h</text>
</a>
</g>
</g>
<!-- Node4&#45;&gt;Node5 -->
<g id="edge5_Node000004_Node000005" class="edge">
<title>Node4&#45;&gt;Node5</title>
<g id="a_edge5_Node000004_Node000005"><a xlink:title=" ">
<path fill="none" stroke="#63b8ff" d="M265.65,-164.75C267.37,-157.72 269.85,-147.62 272,-138.84"/>
<polygon fill="#63b8ff" stroke="#63b8ff" points="275.41,-139.63 274.39,-129.09 268.61,-137.97 275.41,-139.63"/>
</a>
</g>
</g>
<!-- Node4&#45;&gt;Node9 -->
<g id="edge11_Node000004_Node000009" class="edge">
<title>Node4&#45;&gt;Node9</title>
<g id="a_edge11_Node000004_Node000009"><a xlink:title=" ">
<path fill="none" stroke="#63b8ff" d="M286.96,-164.98C311.08,-156.23 348.87,-142.51 376.1,-132.62"/>
<polygon fill="#63b8ff" stroke="#63b8ff" points="377.41,-135.87 385.62,-129.17 375.02,-129.29 377.41,-135.87"/>
</a>
</g>
</g>
<!-- Node5&#45;&gt;Node3 -->
<g id="edge9_Node000005_Node000003" class="edge">
<title>Node5&#45;&gt;Node3</title>
<g id="a_edge9_Node000005_Node000003"><a xlink:title=" ">
<path fill="none" stroke="#63b8ff" d="M256.74,-109.98C236.77,-101.38 205.7,-87.99 182.85,-78.15"/>
<polygon fill="#63b8ff" stroke="#63b8ff" points="184.19,-74.91 173.62,-74.17 181.42,-81.34 184.19,-74.91"/>
</a>
</g>
</g>
<!-- Node6 -->
<g id="Node000006" class="node">
<title>Node6</title>
<g id="a_Node000006"><a xlink:href="compat__c23_8h.html" target="_top" xlink:title="Provides forward compatibility macros for C23 features.">
<polygon fill="white" stroke="#666666" points="405,-74 274,-74 274,-55 405,-55 405,-74"/>
<text text-anchor="middle" x="339.5" y="-62" font-family="Helvetica,sans-Serif" font-size="10.00">common/compat_c23.h</text>
</a>
</g>
</g>
<!-- Node5&#45;&gt;Node6 -->
<g id="edge6_Node000005_Node000006" class="edge">
<title>Node5&#45;&gt;Node6</title>
<g id="a_edge6_Node000005_Node000006"><a xlink:title=" ">
<path fill="none" stroke="#63b8ff" d="M286.62,-109.98C295.94,-102.15 309.97,-90.34 321.24,-80.86"/>
<polygon fill="#63b8ff" stroke="#63b8ff" points="323.79,-83.29 329.19,-74.17 319.29,-77.93 323.79,-83.29"/>
</a>
</g>
</g>
<!-- Node7 -->
<g id="Node000007" class="node">
<title>Node7</title>
<g id="a_Node000007"><a xlink:title=" ">
<polygon fill="#e0e0e0" stroke="#999999" points="370.5,-19 308.5,-19 308.5,0 370.5,0 370.5,-19"/>
<text text-anchor="middle" x="339.5" y="-7" font-family="Helvetica,sans-Serif" font-size="10.00">stdbool.h</text>
</a>
</g>
</g>
<!-- Node5&#45;&gt;Node7 -->
<g id="edge10_Node000005_Node000007" class="edge">
<title>Node5&#45;&gt;Node7</title>
<g id="a_edge10_Node000005_Node000007"><a xlink:title=" ">
<path fill="none" stroke="#63b8ff" d="M271.31,-109.67C264.5,-96.81 254.51,-72.55 264.5,-55 272.8,-40.43 287.95,-30.14 302.48,-23.15"/>
<polygon fill="#63b8ff" stroke="#63b8ff" points="304.11,-26.25 311.85,-19.02 301.29,-19.85 304.11,-26.25"/>
</a>
</g>
</g>
<!-- Node6&#45;&gt;Node7 -->
<g id="edge7_Node000006_Node000007" class="edge">
<title>Node6&#45;&gt;Node7</title>
<g id="a_edge7_Node000006_Node000007"><a xlink:title=" ">
<path fill="none" stroke="#63b8ff" d="M339.5,-54.75C339.5,-47.8 339.5,-37.85 339.5,-29.13"/>
<polygon fill="#63b8ff" stroke="#63b8ff" points="343,-29.09 339.5,-19.09 336,-29.09 343,-29.09"/>
</a>
</g>
</g>
<!-- Node8 -->
<g id="Node000008" class="node">
<title>Node8</title>
<g id="a_Node000008"><a xlink:title=" ">
<polygon fill="#e0e0e0" stroke="#999999" points="471.5,-19 415.5,-19 415.5,0 471.5,0 471.5,-19"/>
<text text-anchor="middle" x="443.5" y="-7" font-family="Helvetica,sans-Serif" font-size="10.00">stddef.h</text>
</a>
</g>
</g>
<!-- Node6&#45;&gt;Node8 -->
<g id="edge8_Node000006_Node000008" class="edge">
<title>Node6&#45;&gt;Node8</title>
<g id="a_edge8_Node000006_Node000008"><a xlink:title=" ">
<path fill="none" stroke="#63b8ff" d="M356.21,-54.98C372.71,-46.57 398.2,-33.59 417.38,-23.81"/>
<polygon fill="#63b8ff" stroke="#63b8ff" points="419.17,-26.83 426.49,-19.17 415.99,-20.59 419.17,-26.83"/>
</a>
</g>
</g>
<!-- Node9&#45;&gt;Node6 -->
<g id="edge12_Node000009_Node000006" class="edge">
<title>Node9&#45;&gt;Node6</title>
<g id="a_edge12_Node000009_Node000006"><a xlink:title=" ">
<path fill="none" stroke="#63b8ff" d="M398.25,-109.98C387.7,-102 371.7,-89.88 359.06,-80.31"/>
<polygon fill="#63b8ff" stroke="#63b8ff" points="361.04,-77.42 350.95,-74.17 356.81,-83 361.04,-77.42"/>
</a>
</g>
</g>
<!-- Node9&#45;&gt;Node7 -->
<g id="edge13_Node000009_Node000007" class="edge">
<title>Node9&#45;&gt;Node7</title>
<g id="a_edge13_Node000009_Node000007"><a xlink:title=" ">
<path fill="none" stroke="#63b8ff" d="M413.16,-109.61C417.88,-96.66 424.35,-72.3 414.5,-55 406.2,-40.43 391.05,-30.14 376.52,-23.15"/>
<polygon fill="#63b8ff" stroke="#63b8ff" points="377.71,-19.85 367.15,-19.02 374.89,-26.25 377.71,-19.85"/>
</a>
</g>
</g>
<!-- Node9&#45;&gt;Node8 -->
<g id="edge14_Node000009_Node000008" class="edge">
<title>Node9&#45;&gt;Node8</title>
<g id="a_edge14_Node000009_Node000008"><a xlink:title=" ">
<path fill="none" stroke="#63b8ff" d="M420.21,-109.93C429.43,-101.8 442.09,-88.68 447.5,-74 452.82,-59.57 451.17,-42.06 448.56,-29.08"/>
<polygon fill="#63b8ff" stroke="#63b8ff" points="451.89,-27.95 446.17,-19.03 445.08,-29.57 451.89,-27.95"/>
</a>
</g>
</g>
<!-- Node10 -->
<g id="Node000010" class="node">
<title>Node10</title>
<g id="a_Node000010"><a xlink:title=" ">
<polygon fill="#e0e0e0" stroke="#999999" points="553,-74 500,-74 500,-55 553,-55 553,-74"/>
<text text-anchor="middle" x="526.5" y="-62" font-family="Helvetica,sans-Serif" font-size="10.00">stdint.h</text>
</a>
</g>
</g>
<!-- Node9&#45;&gt;Node10 -->
<g id="edge15_Node000009_Node000010" class="edge">
<title>Node9&#45;&gt;Node10</title>
<g id="a_edge15_Node000009_Node000010"><a xlink:title=" ">
<path fill="none" stroke="#63b8ff" d="M428.3,-109.98C447.12,-101.46 476.32,-88.23 498,-78.41"/>
<polygon fill="#63b8ff" stroke="#63b8ff" points="499.7,-81.48 507.36,-74.17 496.81,-75.11 499.7,-81.48"/>
</a>
</g>
</g>
</g>
</svg>
