<?xml version="1.0" encoding="UTF-8" standalone="no"?>
<!DOCTYPE svg PUBLIC "-//W3C//DTD SVG 1.1//EN"
 "http://www.w3.org/Graphics/SVG/1.1/DTD/svg11.dtd">
<!-- Generated by graphviz version 2.43.0 (0)
 -->
<!-- Title: t/810_memory_stress.c Pages: 1 -->
<svg width="543pt" height="192pt"
 viewBox="0.00 0.00 543.00 192.00" xmlns="http://www.w3.org/2000/svg" xmlns:xlink="http://www.w3.org/1999/xlink">
<g id="graph0" class="graph" transform="scale(1 1) rotate(0) translate(4 188)">
<title>t/810_memory_stress.c</title>
<!-- Node1 -->
<g id="Node000001" class="node">
<title>Node1</title>
<g id="a_Node000001"><a xlink:title="A stress test for detecting memory leaks in the infix FFI library.">
<polygon fill="#999999" stroke="#666666" points="264,-184 133,-184 133,-165 264,-165 264,-184"/>
<text text-anchor="middle" x="198.5" y="-172" font-family="Helvetica,sans-Serif" font-size="10.00">t/810_memory_stress.c</text>
</a>
</g>
</g>
<!-- Node2 -->
<g id="Node000002" class="node">
<title>Node2</title>
<g id="a_Node000002"><a xlink:href="double__tap_8h.html" target="_top" xlink:title="A simple, header&#45;only TAP14&#45;compatible testing framework for C.">
<polygon fill="white" stroke="#666666" points="125,-129 0,-129 0,-110 125,-110 125,-129"/>
<text text-anchor="middle" x="62.5" y="-117" font-family="Helvetica,sans-Serif" font-size="10.00">common/double_tap.h</text>
</a>
</g>
</g>
<!-- Node1&#45;&gt;Node2 -->
<g id="edge1_Node000001_Node000002" class="edge">
<title>Node1&#45;&gt;Node2</title>
<g id="a_edge1_Node000001_Node000002"><a xlink:title=" ">
<path fill="none" stroke="#63b8ff" d="M176.65,-164.98C154.38,-156.3 119.6,-142.75 94.28,-132.88"/>
<polygon fill="#63b8ff" stroke="#63b8ff" points="95.34,-129.54 84.75,-129.17 92.79,-136.06 95.34,-129.54"/>
</a>
</g>
</g>
<!-- Node3 -->
<g id="Node000003" class="node">
<title>Node3</title>
<g id="a_Node000003"><a xlink:href="types_8h.html" target="_top" xlink:title="Defines common data structures used across the entire test suite.">
<polygon fill="white" stroke="#666666" points="196,-129 143,-129 143,-110 196,-110 196,-129"/>
<text text-anchor="middle" x="169.5" y="-117" font-family="Helvetica,sans-Serif" font-size="10.00">types.h</text>
</a>
</g>
</g>
<!-- Node1&#45;&gt;Node3 -->
<g id="edge2_Node000001_Node000003" class="edge">
<title>Node1&#45;&gt;Node3</title>
<g id="a_edge2_Node000001_Node000003"><a xlink:title=" ">
<path fill="none" stroke="#63b8ff" d="M193.71,-164.75C189.74,-157.49 183.97,-146.95 179.07,-137.98"/>
<polygon fill="#63b8ff" stroke="#63b8ff" points="182.07,-136.18 174.2,-129.09 175.93,-139.54 182.07,-136.18"/>
</a>
</g>
</g>
<!-- Node5 -->
<g id="Node000005" class="node">
<title>Node5</title>
<g id="a_Node000005"><a xlink:title=" ">
<polygon fill="#e0e0e0" stroke="#999999" points="274.5,-19 218.5,-19 218.5,0 274.5,0 274.5,-19"/>
<text text-anchor="middle" x="246.5" y="-7" font-family="Helvetica,sans-Serif" font-size="10.00">stddef.h</text>
</a>
</g>
</g>
<!-- Node1&#45;&gt;Node5 -->
<g id="edge12_Node000001_Node000005" class="edge">
<title>Node1&#45;&gt;Node5</title>
<g id="a_edge12_Node000001_Node000005"><a xlink:title=" ">
<path fill="none" stroke="#63b8ff" d="M201.08,-164.74C208.6,-139.2 230.62,-64.43 240.98,-29.23"/>
<polygon fill="#63b8ff" stroke="#63b8ff" points="244.44,-29.89 243.91,-19.31 237.72,-27.91 244.44,-29.89"/>
</a>
</g>
</g>
<!-- Node6 -->
<g id="Node000006" class="node">
<title>Node6</title>
<g id="a_Node000006"><a xlink:href="infix_8h.html" target="_top" xlink:title=" ">
<polygon fill="white" stroke="#666666" points="395,-129 324,-129 324,-110 395,-110 395,-129"/>
<text text-anchor="middle" x="359.5" y="-117" font-family="Helvetica,sans-Serif" font-size="10.00">infix/infix.h</text>
</a>
</g>
</g>
<!-- Node1&#45;&gt;Node6 -->
<g id="edge5_Node000001_Node000006" class="edge">
<title>Node1&#45;&gt;Node6</title>
<g id="a_edge5_Node000001_Node000006"><a xlink:title=" ">
<path fill="none" stroke="#63b8ff" d="M224.37,-164.98C251.28,-156.13 293.62,-142.19 323.73,-132.28"/>
<polygon fill="#63b8ff" stroke="#63b8ff" points="325.03,-135.53 333.43,-129.08 322.84,-128.88 325.03,-135.53"/>
</a>
</g>
</g>
<!-- Node4 -->
<g id="Node000004" class="node">
<title>Node4</title>
<g id="a_Node000004"><a xlink:title=" ">
<polygon fill="#e0e0e0" stroke="#999999" points="199,-74 134,-74 134,-55 199,-55 199,-74"/>
<text text-anchor="middle" x="166.5" y="-62" font-family="Helvetica,sans-Serif" font-size="10.00">inttypes.h</text>
</a>
</g>
</g>
<!-- Node3&#45;&gt;Node4 -->
<g id="edge3_Node000003_Node000004" class="edge">
<title>Node3&#45;&gt;Node4</title>
<g id="a_edge3_Node000003_Node000004"><a xlink:title=" ">
<path fill="none" stroke="#63b8ff" d="M169,-109.75C168.61,-102.8 168.05,-92.85 167.55,-84.13"/>
<polygon fill="#63b8ff" stroke="#63b8ff" points="171.05,-83.88 166.99,-74.09 164.06,-84.27 171.05,-83.88"/>
</a>
</g>
</g>
<!-- Node3&#45;&gt;Node5 -->
<g id="edge4_Node000003_Node000005" class="edge">
<title>Node3&#45;&gt;Node5</title>
<g id="a_edge4_Node000003_Node000005"><a xlink:title=" ">
<path fill="none" stroke="#63b8ff" d="M155.67,-109.9C137.85,-97.71 110.71,-74.71 124.5,-55 143.26,-28.18 179.98,-17.47 208.25,-13.22"/>
<polygon fill="#63b8ff" stroke="#63b8ff" points="208.77,-16.68 218.24,-11.93 207.87,-9.74 208.77,-16.68"/>
</a>
</g>
</g>
<!-- Node6&#45;&gt;Node5 -->
<g id="edge7_Node000006_Node000005" class="edge">
<title>Node6&#45;&gt;Node5</title>
<g id="a_edge7_Node000006_Node000005"><a xlink:title=" ">
<path fill="none" stroke="#63b8ff" d="M339.84,-109.92C323.83,-102.22 301.37,-89.72 285.5,-74 272.17,-60.79 261.43,-42.17 254.62,-28.51"/>
<polygon fill="#63b8ff" stroke="#63b8ff" points="257.65,-26.73 250.2,-19.2 251.32,-29.73 257.65,-26.73"/>
</a>
</g>
</g>
<!-- Node7 -->
<g id="Node000007" class="node">
<title>Node7</title>
<g id="a_Node000007"><a xlink:title=" ">
<polygon fill="#e0e0e0" stroke="#999999" points="437.5,-19 375.5,-19 375.5,0 437.5,0 437.5,-19"/>
<text text-anchor="middle" x="406.5" y="-7" font-family="Helvetica,sans-Serif" font-size="10.00">stdbool.h</text>
</a>
</g>
</g>
<!-- Node6&#45;&gt;Node7 -->
<g id="edge6_Node000006_Node000007" class="edge">
<title>Node6&#45;&gt;Node7</title>
<g id="a_edge6_Node000006_Node000007"><a xlink:title=" ">
<path fill="none" stroke="#63b8ff" d="M387.15,-109.98C404.08,-103.17 424.39,-91.76 434.5,-74 443.21,-58.71 432.87,-40.21 422.38,-27.13"/>
<polygon fill="#63b8ff" stroke="#63b8ff" points="424.87,-24.65 415.67,-19.4 419.59,-29.25 424.87,-24.65"/>
</a>
</g>
</g>
<!-- Node8 -->
<g id="Node000008" class="node">
<title>Node8</title>
<g id="a_Node000008"><a xlink:title=" ">
<polygon fill="#e0e0e0" stroke="#999999" points="535,-74 482,-74 482,-55 535,-55 535,-74"/>
<text text-anchor="middle" x="508.5" y="-62" font-family="Helvetica,sans-Serif" font-size="10.00">stdint.h</text>
</a>
</g>
</g>
<!-- Node6&#45;&gt;Node8 -->
<g id="edge8_Node000006_Node000008" class="edge">
<title>Node6&#45;&gt;Node8</title>
<g id="a_edge8_Node000006_Node000008"><a xlink:title=" ">
<path fill="none" stroke="#63b8ff" d="M383.44,-109.98C408.06,-101.23 446.62,-87.51 474.42,-77.62"/>
<polygon fill="#63b8ff" stroke="#63b8ff" points="475.88,-80.82 484.12,-74.17 473.53,-74.22 475.88,-80.82"/>
</a>
</g>
</g>
<!-- Node9 -->
<g id="Node000009" class="node">
<title>Node9</title>
<g id="a_Node000009"><a xlink:href="compat__c23_8h.html" target="_top" xlink:title="Provides compatibility shims for C23 features in a C17/C11 project.">
<polygon fill="white" stroke="#666666" points="425,-74 294,-74 294,-55 425,-55 425,-74"/>
<text text-anchor="middle" x="359.5" y="-62" font-family="Helvetica,sans-Serif" font-size="10.00">common/compat_c23.h</text>
</a>
</g>
</g>
<!-- Node6&#45;&gt;Node9 -->
<g id="edge9_Node000006_Node000009" class="edge">
<title>Node6&#45;&gt;Node9</title>
<g id="a_edge9_Node000006_Node000009"><a xlink:title=" ">
<path fill="none" stroke="#63b8ff" d="M359.5,-109.75C359.5,-102.8 359.5,-92.85 359.5,-84.13"/>
<polygon fill="#63b8ff" stroke="#63b8ff" points="363,-84.09 359.5,-74.09 356,-84.09 363,-84.09"/>
</a>
</g>
</g>
<!-- Node9&#45;&gt;Node5 -->
<g id="edge11_Node000009_Node000005" class="edge">
<title>Node9&#45;&gt;Node5</title>
<g id="a_edge11_Node000009_Node000005"><a xlink:title=" ">
<path fill="none" stroke="#63b8ff" d="M341.34,-54.98C323.25,-46.5 295.22,-33.35 274.31,-23.54"/>
<polygon fill="#63b8ff" stroke="#63b8ff" points="275.53,-20.25 264.99,-19.17 272.55,-26.59 275.53,-20.25"/>
</a>
</g>
</g>
<!-- Node9&#45;&gt;Node7 -->
<g id="edge10_Node000009_Node000007" class="edge">
<title>Node9&#45;&gt;Node7</title>
<g id="a_edge10_Node000009_Node000007"><a xlink:title=" ">
<path fill="none" stroke="#63b8ff" d="M367.26,-54.75C373.97,-47.18 383.84,-36.05 392.01,-26.84"/>
<polygon fill="#63b8ff" stroke="#63b8ff" points="394.87,-28.89 398.88,-19.09 389.63,-24.25 394.87,-28.89"/>
</a>
</g>
</g>
</g>
</svg>
