<?xml version="1.0" encoding="UTF-8" standalone="no"?>
<!DOCTYPE svg PUBLIC "-//W3C//DTD SVG 1.1//EN"
 "http://www.w3.org/Graphics/SVG/1.1/DTD/svg11.dtd">
<!-- Generated by graphviz version 2.43.0 (0)
 -->
<!-- Title: t/810_memory_stress.c Pages: 1 -->
<svg width="529pt" height="192pt"
 viewBox="0.00 0.00 528.87 192.00" xmlns="http://www.w3.org/2000/svg" xmlns:xlink="http://www.w3.org/1999/xlink">
<g id="graph0" class="graph" transform="scale(1 1) rotate(0) translate(4 188)">
<title>t/810_memory_stress.c</title>
<!-- Node1 -->
<g id="Node000001" class="node">
<title>Node1</title>
<g id="a_Node000001"><a xlink:title="A stress test to detect memory leaks under heavy allocation/deallocation cycles.">
<polygon fill="#999999" stroke="#666666" points="361.87,-184 230.87,-184 230.87,-165 361.87,-165 361.87,-184"/>
<text text-anchor="middle" x="296.37" y="-172" font-family="Helvetica,sans-Serif" font-size="10.00">t/810_memory_stress.c</text>
</a>
</g>
</g>
<!-- Node2 -->
<g id="Node000002" class="node">
<title>Node2</title>
<g id="a_Node000002"><a xlink:href="compat__c23_8h.html" target="_top" xlink:title="Provides forward compatibility macros for C23 features.">
<polygon fill="white" stroke="#666666" points="229.87,-129 98.87,-129 98.87,-110 229.87,-110 229.87,-129"/>
<text text-anchor="middle" x="164.37" y="-117" font-family="Helvetica,sans-Serif" font-size="10.00">common/compat_c23.h</text>
</a>
</g>
</g>
<!-- Node1&#45;&gt;Node2 -->
<g id="edge1_Node000001_Node000002" class="edge">
<title>Node1&#45;&gt;Node2</title>
<g id="a_edge1_Node000001_Node000002"><a xlink:title=" ">
<path fill="none" stroke="#63b8ff" d="M275.16,-164.98C253.64,-156.34 220.09,-142.87 195.54,-133.02"/>
<polygon fill="#63b8ff" stroke="#63b8ff" points="196.55,-129.65 185.96,-129.17 193.94,-136.14 196.55,-129.65"/>
</a>
</g>
</g>
<!-- Node4 -->
<g id="Node000004" class="node">
<title>Node4</title>
<g id="a_Node000004"><a xlink:href="infix_8h.html" target="_top" xlink:title="The public interface for the infix FFI library.">
<polygon fill="white" stroke="#666666" points="229.87,-74 158.87,-74 158.87,-55 229.87,-55 229.87,-74"/>
<text text-anchor="middle" x="194.37" y="-62" font-family="Helvetica,sans-Serif" font-size="10.00">infix/infix.h</text>
</a>
</g>
</g>
<!-- Node1&#45;&gt;Node4 -->
<g id="edge13_Node000001_Node000004" class="edge">
<title>Node1&#45;&gt;Node4</title>
<g id="a_edge13_Node000001_Node000004"><a xlink:title=" ">
<path fill="none" stroke="#63b8ff" d="M288.6,-164.77C277.57,-152.44 256.68,-129.26 238.37,-110 229.29,-100.45 218.94,-89.96 210.56,-81.57"/>
<polygon fill="#63b8ff" stroke="#63b8ff" points="212.79,-78.85 203.24,-74.26 207.85,-83.8 212.79,-78.85"/>
</a>
</g>
</g>
<!-- Node6 -->
<g id="Node000006" class="node">
<title>Node6</title>
<g id="a_Node000006"><a xlink:title=" ">
<polygon fill="#e0e0e0" stroke="#999999" points="309.37,-19 253.37,-19 253.37,0 309.37,0 309.37,-19"/>
<text text-anchor="middle" x="281.37" y="-7" font-family="Helvetica,sans-Serif" font-size="10.00">stddef.h</text>
</a>
</g>
</g>
<!-- Node1&#45;&gt;Node6 -->
<g id="edge14_Node000001_Node000006" class="edge">
<title>Node1&#45;&gt;Node6</title>
<g id="a_edge14_Node000001_Node000006"><a xlink:title=" ">
<path fill="none" stroke="#63b8ff" d="M295.56,-164.74C293.22,-139.31 286.39,-65.08 283.13,-29.69"/>
<polygon fill="#63b8ff" stroke="#63b8ff" points="286.58,-28.94 282.18,-19.31 279.61,-29.59 286.58,-28.94"/>
</a>
</g>
</g>
<!-- Node8 -->
<g id="Node000008" class="node">
<title>Node8</title>
<g id="a_Node000008"><a xlink:href="double__tap_8h.html" target="_top" xlink:title="A lightweight, single&#45;header TAP (Test Anything Protocol) library.">
<polygon fill="white" stroke="#666666" points="520.87,-129 395.87,-129 395.87,-110 520.87,-110 520.87,-129"/>
<text text-anchor="middle" x="458.37" y="-117" font-family="Helvetica,sans-Serif" font-size="10.00">common/double_tap.h</text>
</a>
</g>
</g>
<!-- Node1&#45;&gt;Node8 -->
<g id="edge9_Node000001_Node000008" class="edge">
<title>Node1&#45;&gt;Node8</title>
<g id="a_edge9_Node000001_Node000008"><a xlink:title=" ">
<path fill="none" stroke="#63b8ff" d="M322.4,-164.98C349.48,-156.13 392.08,-142.19 422.37,-132.28"/>
<polygon fill="#63b8ff" stroke="#63b8ff" points="423.72,-135.52 432.14,-129.08 421.54,-128.87 423.72,-135.52"/>
</a>
</g>
</g>
<!-- Node9 -->
<g id="Node000009" class="node">
<title>Node9</title>
<g id="a_Node000009"><a xlink:href="types_8h.html" target="_top" xlink:title="Defines common C structures used across the infix test suite.">
<polygon fill="white" stroke="#666666" points="377.87,-129 324.87,-129 324.87,-110 377.87,-110 377.87,-129"/>
<text text-anchor="middle" x="351.37" y="-117" font-family="Helvetica,sans-Serif" font-size="10.00">types.h</text>
</a>
</g>
</g>
<!-- Node1&#45;&gt;Node9 -->
<g id="edge10_Node000001_Node000009" class="edge">
<title>Node1&#45;&gt;Node9</title>
<g id="a_edge10_Node000001_Node000009"><a xlink:title=" ">
<path fill="none" stroke="#63b8ff" d="M305.45,-164.75C313.46,-157.03 325.33,-145.6 334.99,-136.28"/>
<polygon fill="#63b8ff" stroke="#63b8ff" points="337.68,-138.55 342.46,-129.09 332.83,-133.51 337.68,-138.55"/>
</a>
</g>
</g>
<!-- Node3 -->
<g id="Node000003" class="node">
<title>Node3</title>
<g id="a_Node000003"><a xlink:href="infix__config_8h.html" target="_top" xlink:title="Platform, architecture, and ABI detection macros.">
<polygon fill="white" stroke="#666666" points="140.87,-74 13.87,-74 13.87,-55 140.87,-55 140.87,-74"/>
<text text-anchor="middle" x="77.37" y="-62" font-family="Helvetica,sans-Serif" font-size="10.00">common/infix_config.h</text>
</a>
</g>
</g>
<!-- Node2&#45;&gt;Node3 -->
<g id="edge2_Node000002_Node000003" class="edge">
<title>Node2&#45;&gt;Node3</title>
<g id="a_edge2_Node000002_Node000003"><a xlink:title=" ">
<path fill="none" stroke="#63b8ff" d="M150.39,-109.98C136.9,-101.77 116.23,-89.18 100.33,-79.49"/>
<polygon fill="#63b8ff" stroke="#63b8ff" points="101.96,-76.38 91.6,-74.17 98.32,-82.36 101.96,-76.38"/>
</a>
</g>
</g>
<!-- Node2&#45;&gt;Node4 -->
<g id="edge3_Node000002_Node000004" class="edge">
<title>Node2&#45;&gt;Node4</title>
<g id="a_edge3_Node000002_Node000004"><a xlink:title=" ">
<path fill="none" stroke="#63b8ff" d="M169.32,-109.75C173.43,-102.49 179.39,-91.95 184.47,-82.98"/>
<polygon fill="#63b8ff" stroke="#63b8ff" points="187.63,-84.52 189.51,-74.09 181.53,-81.07 187.63,-84.52"/>
</a>
</g>
</g>
<!-- Node5 -->
<g id="Node000005" class="node">
<title>Node5</title>
<g id="a_Node000005"><a xlink:title=" ">
<polygon fill="#e0e0e0" stroke="#999999" points="83.37,-19 21.37,-19 21.37,0 83.37,0 83.37,-19"/>
<text text-anchor="middle" x="52.37" y="-7" font-family="Helvetica,sans-Serif" font-size="10.00">stdbool.h</text>
</a>
</g>
</g>
<!-- Node2&#45;&gt;Node5 -->
<g id="edge7_Node000002_Node000005" class="edge">
<title>Node2&#45;&gt;Node5</title>
<g id="a_edge7_Node000002_Node000005"><a xlink:title=" ">
<path fill="none" stroke="#63b8ff" d="M106.92,-109.97C66.32,-102.63 16.97,-90.59 4.37,-74 -8.42,-57.17 11.21,-37.78 29.09,-24.9"/>
<polygon fill="#63b8ff" stroke="#63b8ff" points="31.26,-27.65 37.57,-19.14 27.33,-21.86 31.26,-27.65"/>
</a>
</g>
</g>
<!-- Node2&#45;&gt;Node6 -->
<g id="edge8_Node000002_Node000006" class="edge">
<title>Node2&#45;&gt;Node6</title>
<g id="a_edge8_Node000002_Node000006"><a xlink:title=" ">
<path fill="none" stroke="#63b8ff" d="M183.53,-109.89C199.45,-102.09 222.05,-89.47 238.37,-74 252.52,-60.59 264.55,-41.74 272.26,-28.06"/>
<polygon fill="#63b8ff" stroke="#63b8ff" points="275.39,-29.63 277.08,-19.17 269.24,-26.3 275.39,-29.63"/>
</a>
</g>
</g>
<!-- Node4&#45;&gt;Node5 -->
<g id="edge4_Node000004_Node000005" class="edge">
<title>Node4&#45;&gt;Node5</title>
<g id="a_edge4_Node000004_Node000005"><a xlink:title=" ">
<path fill="none" stroke="#63b8ff" d="M171.55,-54.98C148.2,-46.27 111.66,-32.63 85.2,-22.75"/>
<polygon fill="#63b8ff" stroke="#63b8ff" points="86.19,-19.39 75.6,-19.17 83.74,-25.95 86.19,-19.39"/>
</a>
</g>
</g>
<!-- Node4&#45;&gt;Node6 -->
<g id="edge5_Node000004_Node000006" class="edge">
<title>Node4&#45;&gt;Node6</title>
<g id="a_edge5_Node000004_Node000006"><a xlink:title=" ">
<path fill="none" stroke="#63b8ff" d="M208.35,-54.98C221.84,-46.77 242.5,-34.18 258.41,-24.49"/>
<polygon fill="#63b8ff" stroke="#63b8ff" points="260.42,-27.36 267.14,-19.17 256.77,-21.38 260.42,-27.36"/>
</a>
</g>
</g>
<!-- Node7 -->
<g id="Node000007" class="node">
<title>Node7</title>
<g id="a_Node000007"><a xlink:title=" ">
<polygon fill="#e0e0e0" stroke="#999999" points="220.87,-19 167.87,-19 167.87,0 220.87,0 220.87,-19"/>
<text text-anchor="middle" x="194.37" y="-7" font-family="Helvetica,sans-Serif" font-size="10.00">stdint.h</text>
</a>
</g>
</g>
<!-- Node4&#45;&gt;Node7 -->
<g id="edge6_Node000004_Node000007" class="edge">
<title>Node4&#45;&gt;Node7</title>
<g id="a_edge6_Node000004_Node000007"><a xlink:title=" ">
<path fill="none" stroke="#63b8ff" d="M194.37,-54.75C194.37,-47.8 194.37,-37.85 194.37,-29.13"/>
<polygon fill="#63b8ff" stroke="#63b8ff" points="197.87,-29.09 194.37,-19.09 190.87,-29.09 197.87,-29.09"/>
</a>
</g>
</g>
<!-- Node9&#45;&gt;Node6 -->
<g id="edge12_Node000009_Node000006" class="edge">
<title>Node9&#45;&gt;Node6</title>
<g id="a_edge12_Node000009_Node000006"><a xlink:title=" ">
<path fill="none" stroke="#63b8ff" d="M345.81,-109.86C337.94,-97.64 323.08,-74.6 310.37,-55 304.46,-45.89 297.86,-35.75 292.44,-27.46"/>
<polygon fill="#63b8ff" stroke="#63b8ff" points="295.34,-25.48 286.94,-19.02 289.47,-29.31 295.34,-25.48"/>
</a>
</g>
</g>
<!-- Node10 -->
<g id="Node000010" class="node">
<title>Node10</title>
<g id="a_Node000010"><a xlink:title=" ">
<polygon fill="#e0e0e0" stroke="#999999" points="427.87,-74 362.87,-74 362.87,-55 427.87,-55 427.87,-74"/>
<text text-anchor="middle" x="395.37" y="-62" font-family="Helvetica,sans-Serif" font-size="10.00">inttypes.h</text>
</a>
</g>
</g>
<!-- Node9&#45;&gt;Node10 -->
<g id="edge11_Node000009_Node000010" class="edge">
<title>Node9&#45;&gt;Node10</title>
<g id="a_edge11_Node000009_Node000010"><a xlink:title=" ">
<path fill="none" stroke="#63b8ff" d="M358.63,-109.75C364.91,-102.18 374.16,-91.05 381.8,-81.84"/>
<polygon fill="#63b8ff" stroke="#63b8ff" points="384.54,-84.02 388.24,-74.09 379.16,-79.55 384.54,-84.02"/>
</a>
</g>
</g>
</g>
</svg>
