<?xml version="1.0" encoding="UTF-8" standalone="no"?>
<!DOCTYPE svg PUBLIC "-//W3C//DTD SVG 1.1//EN"
 "http://www.w3.org/Graphics/SVG/1.1/DTD/svg11.dtd">
<!-- Generated by graphviz version 2.43.0 (0)
 -->
<!-- Title: t/810_memory_stress.c Pages: 1 -->
<svg width="425pt" height="192pt"
 viewBox="0.00 0.00 425.00 192.00" xmlns="http://www.w3.org/2000/svg" xmlns:xlink="http://www.w3.org/1999/xlink">
<g id="graph0" class="graph" transform="scale(1 1) rotate(0) translate(4 188)">
<title>t/810_memory_stress.c</title>
<!-- Node1 -->
<g id="Node000001" class="node">
<title>Node1</title>
<g id="a_Node000001"><a xlink:title="A stress test to detect memory leaks under heavy allocation/deallocation cycles.">
<polygon fill="#999999" stroke="#666666" points="258,-184 127,-184 127,-165 258,-165 258,-184"/>
<text text-anchor="middle" x="192.5" y="-172" font-family="Helvetica,sans-Serif" font-size="10.00">t/810_memory_stress.c</text>
</a>
</g>
</g>
<!-- Node2 -->
<g id="Node000002" class="node">
<title>Node2</title>
<g id="a_Node000002"><a xlink:href="compat__c23_8h.html" target="_top" xlink:title="Provides forward compatibility macros for C23 features.">
<polygon fill="white" stroke="#666666" points="164,-129 33,-129 33,-110 164,-110 164,-129"/>
<text text-anchor="middle" x="98.5" y="-117" font-family="Helvetica,sans-Serif" font-size="10.00">common/compat_c23.h</text>
</a>
</g>
</g>
<!-- Node1&#45;&gt;Node2 -->
<g id="edge1_Node000001_Node000002" class="edge">
<title>Node1&#45;&gt;Node2</title>
<g id="a_edge1_Node000001_Node000002"><a xlink:title=" ">
<path fill="none" stroke="#63b8ff" d="M177.4,-164.98C162.68,-156.69 140.08,-143.94 122.83,-134.22"/>
<polygon fill="#63b8ff" stroke="#63b8ff" points="124.31,-131.03 113.88,-129.17 120.87,-137.13 124.31,-131.03"/>
</a>
</g>
</g>
<!-- Node3 -->
<g id="Node000003" class="node">
<title>Node3</title>
<g id="a_Node000003"><a xlink:href="infix_8h.html" target="_top" xlink:title="The public interface for the infix FFI library.">
<polygon fill="white" stroke="#666666" points="74,-74 3,-74 3,-55 74,-55 74,-74"/>
<text text-anchor="middle" x="38.5" y="-62" font-family="Helvetica,sans-Serif" font-size="10.00">infix/infix.h</text>
</a>
</g>
</g>
<!-- Node1&#45;&gt;Node3 -->
<g id="edge12_Node000001_Node000003" class="edge">
<title>Node1&#45;&gt;Node3</title>
<g id="a_edge12_Node000001_Node000003"><a xlink:title=" ">
<path fill="none" stroke="#63b8ff" d="M129.18,-164.96C86.85,-157.8 36.6,-146 23.5,-129 13.37,-115.86 19.74,-96.97 27.05,-83.21"/>
<polygon fill="#63b8ff" stroke="#63b8ff" points="30.26,-84.65 32.31,-74.26 24.23,-81.11 30.26,-84.65"/>
</a>
</g>
</g>
<!-- Node5 -->
<g id="Node000005" class="node">
<title>Node5</title>
<g id="a_Node000005"><a xlink:title=" ">
<polygon fill="#e0e0e0" stroke="#999999" points="214.5,-19 158.5,-19 158.5,0 214.5,0 214.5,-19"/>
<text text-anchor="middle" x="186.5" y="-7" font-family="Helvetica,sans-Serif" font-size="10.00">stddef.h</text>
</a>
</g>
</g>
<!-- Node1&#45;&gt;Node5 -->
<g id="edge13_Node000001_Node000005" class="edge">
<title>Node1&#45;&gt;Node5</title>
<g id="a_edge13_Node000001_Node000005"><a xlink:title=" ">
<path fill="none" stroke="#63b8ff" d="M192.18,-164.74C191.24,-139.31 188.51,-65.08 187.21,-29.69"/>
<polygon fill="#63b8ff" stroke="#63b8ff" points="190.69,-29.17 186.82,-19.31 183.69,-29.43 190.69,-29.17"/>
</a>
</g>
</g>
<!-- Node7 -->
<g id="Node000007" class="node">
<title>Node7</title>
<g id="a_Node000007"><a xlink:href="double__tap_8h.html" target="_top" xlink:title="A lightweight, single&#45;header TAP (Test Anything Protocol) library.">
<polygon fill="white" stroke="#666666" points="417,-129 292,-129 292,-110 417,-110 417,-129"/>
<text text-anchor="middle" x="354.5" y="-117" font-family="Helvetica,sans-Serif" font-size="10.00">common/double_tap.h</text>
</a>
</g>
</g>
<!-- Node1&#45;&gt;Node7 -->
<g id="edge8_Node000001_Node000007" class="edge">
<title>Node1&#45;&gt;Node7</title>
<g id="a_edge8_Node000001_Node000007"><a xlink:title=" ">
<path fill="none" stroke="#63b8ff" d="M218.53,-164.98C245.61,-156.13 288.21,-142.19 318.51,-132.28"/>
<polygon fill="#63b8ff" stroke="#63b8ff" points="319.85,-135.52 328.27,-129.08 317.68,-128.87 319.85,-135.52"/>
</a>
</g>
</g>
<!-- Node8 -->
<g id="Node000008" class="node">
<title>Node8</title>
<g id="a_Node000008"><a xlink:href="types_8h.html" target="_top" xlink:title="Defines common C structures used across the infix test suite.">
<polygon fill="white" stroke="#666666" points="274,-129 221,-129 221,-110 274,-110 274,-129"/>
<text text-anchor="middle" x="247.5" y="-117" font-family="Helvetica,sans-Serif" font-size="10.00">types.h</text>
</a>
</g>
</g>
<!-- Node1&#45;&gt;Node8 -->
<g id="edge9_Node000001_Node000008" class="edge">
<title>Node1&#45;&gt;Node8</title>
<g id="a_edge9_Node000001_Node000008"><a xlink:title=" ">
<path fill="none" stroke="#63b8ff" d="M201.58,-164.75C209.59,-157.03 221.46,-145.6 231.12,-136.28"/>
<polygon fill="#63b8ff" stroke="#63b8ff" points="233.81,-138.55 238.59,-129.09 228.96,-133.51 233.81,-138.55"/>
</a>
</g>
</g>
<!-- Node2&#45;&gt;Node3 -->
<g id="edge2_Node000002_Node000003" class="edge">
<title>Node2&#45;&gt;Node3</title>
<g id="a_edge2_Node000002_Node000003"><a xlink:title=" ">
<path fill="none" stroke="#63b8ff" d="M88.86,-109.98C79.99,-102.15 66.63,-90.34 55.89,-80.86"/>
<polygon fill="#63b8ff" stroke="#63b8ff" points="58.13,-78.17 48.32,-74.17 53.49,-83.41 58.13,-78.17"/>
</a>
</g>
</g>
<!-- Node4 -->
<g id="Node000004" class="node">
<title>Node4</title>
<g id="a_Node000004"><a xlink:title=" ">
<polygon fill="#e0e0e0" stroke="#999999" points="133.5,-19 71.5,-19 71.5,0 133.5,0 133.5,-19"/>
<text text-anchor="middle" x="102.5" y="-7" font-family="Helvetica,sans-Serif" font-size="10.00">stdbool.h</text>
</a>
</g>
</g>
<!-- Node2&#45;&gt;Node4 -->
<g id="edge6_Node000002_Node000004" class="edge">
<title>Node2&#45;&gt;Node4</title>
<g id="a_edge6_Node000002_Node000004"><a xlink:title=" ">
<path fill="none" stroke="#63b8ff" d="M98.83,-109.66C99.48,-92.17 100.93,-52.8 101.8,-29.27"/>
<polygon fill="#63b8ff" stroke="#63b8ff" points="105.31,-29.28 102.18,-19.16 98.31,-29.02 105.31,-29.28"/>
</a>
</g>
</g>
<!-- Node2&#45;&gt;Node5 -->
<g id="edge7_Node000002_Node000005" class="edge">
<title>Node2&#45;&gt;Node5</title>
<g id="a_edge7_Node000002_Node000005"><a xlink:title=" ">
<path fill="none" stroke="#63b8ff" d="M105.7,-109.66C120.41,-91.61 154.09,-50.28 172.99,-27.08"/>
<polygon fill="#63b8ff" stroke="#63b8ff" points="175.84,-29.12 179.45,-19.16 170.41,-24.7 175.84,-29.12"/>
</a>
</g>
</g>
<!-- Node3&#45;&gt;Node4 -->
<g id="edge3_Node000003_Node000004" class="edge">
<title>Node3&#45;&gt;Node4</title>
<g id="a_edge3_Node000003_Node000004"><a xlink:title=" ">
<path fill="none" stroke="#63b8ff" d="M48.78,-54.98C58.34,-47.07 72.78,-35.11 84.28,-25.58"/>
<polygon fill="#63b8ff" stroke="#63b8ff" points="86.56,-28.24 92.03,-19.17 82.1,-22.85 86.56,-28.24"/>
</a>
</g>
</g>
<!-- Node3&#45;&gt;Node5 -->
<g id="edge4_Node000003_Node000005" class="edge">
<title>Node3&#45;&gt;Node5</title>
<g id="a_edge4_Node000003_Node000005"><a xlink:title=" ">
<path fill="none" stroke="#63b8ff" d="M62.28,-54.98C86.73,-46.23 125.03,-32.51 152.65,-22.62"/>
<polygon fill="#63b8ff" stroke="#63b8ff" points="154.05,-25.84 162.29,-19.17 151.69,-19.25 154.05,-25.84"/>
</a>
</g>
</g>
<!-- Node6 -->
<g id="Node000006" class="node">
<title>Node6</title>
<g id="a_Node000006"><a xlink:title=" ">
<polygon fill="#e0e0e0" stroke="#999999" points="53,-19 0,-19 0,0 53,0 53,-19"/>
<text text-anchor="middle" x="26.5" y="-7" font-family="Helvetica,sans-Serif" font-size="10.00">stdint.h</text>
</a>
</g>
</g>
<!-- Node3&#45;&gt;Node6 -->
<g id="edge5_Node000003_Node000006" class="edge">
<title>Node3&#45;&gt;Node6</title>
<g id="a_edge5_Node000003_Node000006"><a xlink:title=" ">
<path fill="none" stroke="#63b8ff" d="M36.52,-54.75C34.93,-47.72 32.64,-37.62 30.65,-28.84"/>
<polygon fill="#63b8ff" stroke="#63b8ff" points="34.07,-28.07 28.44,-19.09 27.24,-29.62 34.07,-28.07"/>
</a>
</g>
</g>
<!-- Node8&#45;&gt;Node5 -->
<g id="edge11_Node000008_Node000005" class="edge">
<title>Node8&#45;&gt;Node5</title>
<g id="a_edge11_Node000008_Node000005"><a xlink:title=" ">
<path fill="none" stroke="#63b8ff" d="M242.51,-109.66C232.45,-91.85 209.58,-51.37 196.39,-28.01"/>
<polygon fill="#63b8ff" stroke="#63b8ff" points="199.36,-26.14 191.39,-19.16 193.26,-29.59 199.36,-26.14"/>
</a>
</g>
</g>
<!-- Node9 -->
<g id="Node000009" class="node">
<title>Node9</title>
<g id="a_Node000009"><a xlink:title=" ">
<polygon fill="#e0e0e0" stroke="#999999" points="324,-74 259,-74 259,-55 324,-55 324,-74"/>
<text text-anchor="middle" x="291.5" y="-62" font-family="Helvetica,sans-Serif" font-size="10.00">inttypes.h</text>
</a>
</g>
</g>
<!-- Node8&#45;&gt;Node9 -->
<g id="edge10_Node000008_Node000009" class="edge">
<title>Node8&#45;&gt;Node9</title>
<g id="a_edge10_Node000008_Node000009"><a xlink:title=" ">
<path fill="none" stroke="#63b8ff" d="M254.77,-109.75C261.04,-102.18 270.29,-91.05 277.93,-81.84"/>
<polygon fill="#63b8ff" stroke="#63b8ff" points="280.67,-84.02 284.37,-74.09 275.29,-79.55 280.67,-84.02"/>
</a>
</g>
</g>
</g>
</svg>
