<?xml version="1.0" encoding="UTF-8" standalone="no"?>
<!DOCTYPE svg PUBLIC "-//W3C//DTD SVG 1.1//EN"
 "http://www.w3.org/Graphics/SVG/1.1/DTD/svg11.dtd">
<!-- Generated by graphviz version 2.43.0 (0)
 -->
<!-- Title: t/813_custom_allocator.c Pages: 1 -->
<svg width="703pt" height="302pt"
 viewBox="0.00 0.00 703.00 302.00" xmlns="http://www.w3.org/2000/svg" xmlns:xlink="http://www.w3.org/1999/xlink">
<g id="graph0" class="graph" transform="scale(1 1) rotate(0) translate(4 298)">
<title>t/813_custom_allocator.c</title>
<!-- Node1 -->
<g id="Node000001" class="node">
<title>Node1</title>
<g id="a_Node000001"><a xlink:title="Unit test for the runtime pluggable allocator API (infix_set_allocator).">
<polygon fill="#999999" stroke="#666666" points="470.5,-294 332.5,-294 332.5,-275 470.5,-275 470.5,-294"/>
<text text-anchor="middle" x="401.5" y="-282" font-family="Helvetica,sans-Serif" font-size="10.00">t/813_custom_allocator.c</text>
</a>
</g>
</g>
<!-- Node2 -->
<g id="Node000002" class="node">
<title>Node2</title>
<g id="a_Node000002"><a xlink:href="compat__c23_8h.html" target="_top" xlink:title="Provides forward compatibility macros for C23 features.">
<polygon fill="white" stroke="#666666" points="259,-129 128,-129 128,-110 259,-110 259,-129"/>
<text text-anchor="middle" x="193.5" y="-117" font-family="Helvetica,sans-Serif" font-size="10.00">common/compat_c23.h</text>
</a>
</g>
</g>
<!-- Node1&#45;&gt;Node2 -->
<g id="edge1_Node000001_Node000002" class="edge">
<title>Node1&#45;&gt;Node2</title>
<g id="a_edge1_Node000001_Node000002"><a xlink:title=" ">
<path fill="none" stroke="#63b8ff" d="M396.69,-274.77C384.42,-253.21 349.8,-196.91 306.5,-165 286.11,-149.98 259.98,-139.26 237.99,-132.11"/>
<polygon fill="#63b8ff" stroke="#63b8ff" points="238.79,-128.69 228.21,-129.07 236.72,-135.38 238.79,-128.69"/>
</a>
</g>
</g>
<!-- Node4 -->
<g id="Node000004" class="node">
<title>Node4</title>
<g id="a_Node000004"><a xlink:href="infix_8h.html" target="_top" xlink:title="The public interface for the infix FFI library.">
<polygon fill="white" stroke="#666666" points="71,-74 0,-74 0,-55 71,-55 71,-74"/>
<text text-anchor="middle" x="35.5" y="-62" font-family="Helvetica,sans-Serif" font-size="10.00">infix/infix.h</text>
</a>
</g>
</g>
<!-- Node1&#45;&gt;Node4 -->
<g id="edge18_Node000001_Node000004" class="edge">
<title>Node1&#45;&gt;Node4</title>
<g id="a_edge18_Node000001_Node000004"><a xlink:title=" ">
<path fill="none" stroke="#63b8ff" d="M332.19,-280.54C258.49,-273.74 143.03,-252.06 72.5,-184 44.8,-157.28 37.74,-110.17 36.01,-84.13"/>
<polygon fill="#63b8ff" stroke="#63b8ff" points="39.5,-83.91 35.53,-74.08 32.51,-84.24 39.5,-83.91"/>
</a>
</g>
</g>
<!-- Node6 -->
<g id="Node000006" class="node">
<title>Node6</title>
<g id="a_Node000006"><a xlink:title=" ">
<polygon fill="#e0e0e0" stroke="#999999" points="221.5,-19 165.5,-19 165.5,0 221.5,0 221.5,-19"/>
<text text-anchor="middle" x="193.5" y="-7" font-family="Helvetica,sans-Serif" font-size="10.00">stddef.h</text>
</a>
</g>
</g>
<!-- Node1&#45;&gt;Node6 -->
<g id="edge19_Node000001_Node000006" class="edge">
<title>Node1&#45;&gt;Node6</title>
<g id="a_edge19_Node000001_Node000006"><a xlink:title=" ">
<path fill="none" stroke="#63b8ff" d="M401.5,-274.82C401.5,-256.48 401.5,-212.44 401.5,-175.5 401.5,-175.5 401.5,-175.5 401.5,-118.5 401.5,-42.88 291.88,-20.14 231.8,-13.35"/>
<polygon fill="#63b8ff" stroke="#63b8ff" points="231.86,-9.84 221.55,-12.29 231.14,-16.8 231.86,-9.84"/>
</a>
</g>
</g>
<!-- Node8 -->
<g id="Node000008" class="node">
<title>Node8</title>
<g id="a_Node000008"><a xlink:href="double__tap_8h.html" target="_top" xlink:title="A lightweight, single&#45;header TAP (Test Anything Protocol) library.">
<polygon fill="white" stroke="#666666" points="555,-239 430,-239 430,-220 555,-220 555,-239"/>
<text text-anchor="middle" x="492.5" y="-227" font-family="Helvetica,sans-Serif" font-size="10.00">common/double_tap.h</text>
</a>
</g>
</g>
<!-- Node1&#45;&gt;Node8 -->
<g id="edge9_Node000001_Node000008" class="edge">
<title>Node1&#45;&gt;Node8</title>
<g id="a_edge9_Node000001_Node000008"><a xlink:title=" ">
<path fill="none" stroke="#63b8ff" d="M416.12,-274.98C430.36,-266.69 452.25,-253.94 468.95,-244.22"/>
<polygon fill="#63b8ff" stroke="#63b8ff" points="470.73,-247.23 477.61,-239.17 467.21,-241.18 470.73,-247.23"/>
</a>
</g>
</g>
<!-- Node9 -->
<g id="Node000009" class="node">
<title>Node9</title>
<g id="a_Node000009"><a xlink:href="infix__internals_8h.html" target="_top" xlink:title="Internal data structures, function prototypes, and constants.">
<polygon fill="white" stroke="#666666" points="335.5,-239 195.5,-239 195.5,-220 335.5,-220 335.5,-239"/>
<text text-anchor="middle" x="265.5" y="-227" font-family="Helvetica,sans-Serif" font-size="10.00">common/infix_internals.h</text>
</a>
</g>
</g>
<!-- Node1&#45;&gt;Node9 -->
<g id="edge10_Node000001_Node000009" class="edge">
<title>Node1&#45;&gt;Node9</title>
<g id="a_edge10_Node000001_Node000009"><a xlink:title=" ">
<path fill="none" stroke="#63b8ff" d="M379.65,-274.98C357.38,-266.3 322.6,-252.75 297.28,-242.88"/>
<polygon fill="#63b8ff" stroke="#63b8ff" points="298.34,-239.54 287.75,-239.17 295.79,-246.06 298.34,-239.54"/>
</a>
</g>
</g>
<!-- Node12 -->
<g id="Node000012" class="node">
<title>Node12</title>
<g id="a_Node000012"><a xlink:title=" ">
<polygon fill="#e0e0e0" stroke="#999999" points="623.5,-239 573.5,-239 573.5,-220 623.5,-220 623.5,-239"/>
<text text-anchor="middle" x="598.5" y="-227" font-family="Helvetica,sans-Serif" font-size="10.00">stdio.h</text>
</a>
</g>
</g>
<!-- Node1&#45;&gt;Node12 -->
<g id="edge20_Node000001_Node000012" class="edge">
<title>Node1&#45;&gt;Node12</title>
<g id="a_edge20_Node000001_Node000012"><a xlink:title=" ">
<path fill="none" stroke="#63b8ff" d="M433.15,-274.98C468.84,-265.38 526.7,-249.82 563.66,-239.87"/>
<polygon fill="#63b8ff" stroke="#63b8ff" points="564.74,-243.21 573.49,-237.23 562.92,-236.45 564.74,-243.21"/>
</a>
</g>
</g>
<!-- Node13 -->
<g id="Node000013" class="node">
<title>Node13</title>
<g id="a_Node000013"><a xlink:title=" ">
<polygon fill="#e0e0e0" stroke="#999999" points="695,-239 642,-239 642,-220 695,-220 695,-239"/>
<text text-anchor="middle" x="668.5" y="-227" font-family="Helvetica,sans-Serif" font-size="10.00">stdlib.h</text>
</a>
</g>
</g>
<!-- Node1&#45;&gt;Node13 -->
<g id="edge21_Node000001_Node000013" class="edge">
<title>Node1&#45;&gt;Node13</title>
<g id="a_edge21_Node000001_Node000013"><a xlink:title=" ">
<path fill="none" stroke="#63b8ff" d="M448.95,-274.95C493.63,-266.77 562.66,-253.79 632.01,-239.03"/>
<polygon fill="#63b8ff" stroke="#63b8ff" points="632.75,-242.45 641.79,-236.94 631.28,-235.61 632.75,-242.45"/>
</a>
</g>
</g>
<!-- Node3 -->
<g id="Node000003" class="node">
<title>Node3</title>
<g id="a_Node000003"><a xlink:href="infix__config_8h.html" target="_top" xlink:title="Platform, architecture, and ABI detection macros.">
<polygon fill="white" stroke="#666666" points="351,-74 224,-74 224,-55 351,-55 351,-74"/>
<text text-anchor="middle" x="287.5" y="-62" font-family="Helvetica,sans-Serif" font-size="10.00">common/infix_config.h</text>
</a>
</g>
</g>
<!-- Node2&#45;&gt;Node3 -->
<g id="edge2_Node000002_Node000003" class="edge">
<title>Node2&#45;&gt;Node3</title>
<g id="a_edge2_Node000002_Node000003"><a xlink:title=" ">
<path fill="none" stroke="#63b8ff" d="M208.6,-109.98C223.32,-101.69 245.92,-88.94 263.17,-79.22"/>
<polygon fill="#63b8ff" stroke="#63b8ff" points="265.13,-82.13 272.12,-74.17 261.69,-76.03 265.13,-82.13"/>
</a>
</g>
</g>
<!-- Node2&#45;&gt;Node4 -->
<g id="edge3_Node000002_Node000004" class="edge">
<title>Node2&#45;&gt;Node4</title>
<g id="a_edge3_Node000002_Node000004"><a xlink:title=" ">
<path fill="none" stroke="#63b8ff" d="M168.11,-109.98C141.7,-101.13 100.15,-87.19 70.61,-77.28"/>
<polygon fill="#63b8ff" stroke="#63b8ff" points="71.68,-73.94 61.08,-74.08 69.45,-80.58 71.68,-73.94"/>
</a>
</g>
</g>
<!-- Node5 -->
<g id="Node000005" class="node">
<title>Node5</title>
<g id="a_Node000005"><a xlink:title=" ">
<polygon fill="#e0e0e0" stroke="#999999" points="136.5,-19 74.5,-19 74.5,0 136.5,0 136.5,-19"/>
<text text-anchor="middle" x="105.5" y="-7" font-family="Helvetica,sans-Serif" font-size="10.00">stdbool.h</text>
</a>
</g>
</g>
<!-- Node2&#45;&gt;Node5 -->
<g id="edge7_Node000002_Node000005" class="edge">
<title>Node2&#45;&gt;Node5</title>
<g id="a_edge7_Node000002_Node000005"><a xlink:title=" ">
<path fill="none" stroke="#63b8ff" d="M186.3,-109.66C171.59,-91.61 137.91,-50.28 119.01,-27.08"/>
<polygon fill="#63b8ff" stroke="#63b8ff" points="121.59,-24.7 112.55,-19.16 116.16,-29.12 121.59,-24.7"/>
</a>
</g>
</g>
<!-- Node2&#45;&gt;Node6 -->
<g id="edge8_Node000002_Node000006" class="edge">
<title>Node2&#45;&gt;Node6</title>
<g id="a_edge8_Node000002_Node000006"><a xlink:title=" ">
<path fill="none" stroke="#63b8ff" d="M193.5,-109.66C193.5,-92.17 193.5,-52.8 193.5,-29.27"/>
<polygon fill="#63b8ff" stroke="#63b8ff" points="197,-29.16 193.5,-19.16 190,-29.16 197,-29.16"/>
</a>
</g>
</g>
<!-- Node4&#45;&gt;Node5 -->
<g id="edge4_Node000004_Node000005" class="edge">
<title>Node4&#45;&gt;Node5</title>
<g id="a_edge4_Node000004_Node000005"><a xlink:title=" ">
<path fill="none" stroke="#63b8ff" d="M46.75,-54.98C57.3,-47 73.3,-34.88 85.94,-25.31"/>
<polygon fill="#63b8ff" stroke="#63b8ff" points="88.19,-28 94.05,-19.17 83.96,-22.42 88.19,-28"/>
</a>
</g>
</g>
<!-- Node4&#45;&gt;Node6 -->
<g id="edge5_Node000004_Node000006" class="edge">
<title>Node4&#45;&gt;Node6</title>
<g id="a_edge5_Node000004_Node000006"><a xlink:title=" ">
<path fill="none" stroke="#63b8ff" d="M60.89,-54.98C87.3,-46.13 128.85,-32.19 158.39,-22.28"/>
<polygon fill="#63b8ff" stroke="#63b8ff" points="159.55,-25.58 167.92,-19.08 157.32,-18.94 159.55,-25.58"/>
</a>
</g>
</g>
<!-- Node7 -->
<g id="Node000007" class="node">
<title>Node7</title>
<g id="a_Node000007"><a xlink:title=" ">
<polygon fill="#e0e0e0" stroke="#999999" points="56,-19 3,-19 3,0 56,0 56,-19"/>
<text text-anchor="middle" x="29.5" y="-7" font-family="Helvetica,sans-Serif" font-size="10.00">stdint.h</text>
</a>
</g>
</g>
<!-- Node4&#45;&gt;Node7 -->
<g id="edge6_Node000004_Node000007" class="edge">
<title>Node4&#45;&gt;Node7</title>
<g id="a_edge6_Node000004_Node000007"><a xlink:title=" ">
<path fill="none" stroke="#63b8ff" d="M34.51,-54.75C33.72,-47.8 32.6,-37.85 31.61,-29.13"/>
<polygon fill="#63b8ff" stroke="#63b8ff" points="35.08,-28.63 30.47,-19.09 28.12,-29.42 35.08,-28.63"/>
</a>
</g>
</g>
<!-- Node9&#45;&gt;Node3 -->
<g id="edge11_Node000009_Node000003" class="edge">
<title>Node9&#45;&gt;Node3</title>
<g id="a_edge11_Node000009_Node000003"><a xlink:title=" ">
<path fill="none" stroke="#63b8ff" d="M277.43,-219.8C287.33,-211.77 300.69,-198.87 306.5,-184 319.77,-150.02 306,-107.09 295.97,-83.35"/>
<polygon fill="#63b8ff" stroke="#63b8ff" points="299.14,-81.86 291.86,-74.16 292.75,-84.71 299.14,-81.86"/>
</a>
</g>
</g>
<!-- Node9&#45;&gt;Node4 -->
<g id="edge16_Node000009_Node000004" class="edge">
<title>Node9&#45;&gt;Node4</title>
<g id="a_edge16_Node000009_Node000004"><a xlink:title=" ">
<path fill="none" stroke="#63b8ff" d="M195.3,-223.91C161.43,-218.55 122.06,-207.3 93.5,-184 61.67,-158.03 45.97,-110.27 39.42,-84.01"/>
<polygon fill="#63b8ff" stroke="#63b8ff" points="42.82,-83.16 37.16,-74.2 36,-84.73 42.82,-83.16"/>
</a>
</g>
</g>
<!-- Node10 -->
<g id="Node000010" class="node">
<title>Node10</title>
<g id="a_Node000010"><a xlink:href="platform_8h.html" target="_top" xlink:title="Declares internal, runtime CPU/OS feature detection functions.">
<polygon fill="white" stroke="#666666" points="216,-184 103,-184 103,-165 216,-165 216,-184"/>
<text text-anchor="middle" x="159.5" y="-172" font-family="Helvetica,sans-Serif" font-size="10.00">common/platform.h</text>
</a>
</g>
</g>
<!-- Node9&#45;&gt;Node10 -->
<g id="edge12_Node000009_Node000010" class="edge">
<title>Node9&#45;&gt;Node10</title>
<g id="a_edge12_Node000009_Node000010"><a xlink:title=" ">
<path fill="none" stroke="#63b8ff" d="M248.47,-219.98C231.57,-211.54 205.44,-198.47 185.86,-188.68"/>
<polygon fill="#63b8ff" stroke="#63b8ff" points="187.35,-185.51 176.84,-184.17 184.22,-191.77 187.35,-185.51"/>
</a>
</g>
</g>
<!-- Node11 -->
<g id="Node000011" class="node">
<title>Node11</title>
<g id="a_Node000011"><a xlink:title=" ">
<polygon fill="#e0e0e0" stroke="#999999" points="297,-184 234,-184 234,-165 297,-165 297,-184"/>
<text text-anchor="middle" x="265.5" y="-172" font-family="Helvetica,sans-Serif" font-size="10.00">pthread.h</text>
</a>
</g>
</g>
<!-- Node9&#45;&gt;Node11 -->
<g id="edge17_Node000009_Node000011" class="edge">
<title>Node9&#45;&gt;Node11</title>
<g id="a_edge17_Node000009_Node000011"><a xlink:title=" ">
<path fill="none" stroke="#63b8ff" d="M265.5,-219.75C265.5,-212.8 265.5,-202.85 265.5,-194.13"/>
<polygon fill="#63b8ff" stroke="#63b8ff" points="269,-194.09 265.5,-184.09 262,-194.09 269,-194.09"/>
</a>
</g>
</g>
<!-- Node10&#45;&gt;Node2 -->
<g id="edge13_Node000010_Node000002" class="edge">
<title>Node10&#45;&gt;Node2</title>
<g id="a_edge13_Node000010_Node000002"><a xlink:title=" ">
<path fill="none" stroke="#63b8ff" d="M165.11,-164.75C169.82,-157.42 176.67,-146.73 182.47,-137.7"/>
<polygon fill="#63b8ff" stroke="#63b8ff" points="185.54,-139.4 187.99,-129.09 179.64,-135.62 185.54,-139.4"/>
</a>
</g>
</g>
<!-- Node10&#45;&gt;Node3 -->
<g id="edge14_Node000010_Node000003" class="edge">
<title>Node10&#45;&gt;Node3</title>
<g id="a_edge14_Node000010_Node000003"><a xlink:title=" ">
<path fill="none" stroke="#63b8ff" d="M203.78,-164.94C225.99,-158.53 251.67,-147.54 268.5,-129 279.62,-116.75 284.24,-98.24 286.16,-84.35"/>
<polygon fill="#63b8ff" stroke="#63b8ff" points="289.68,-84.33 287.21,-74.02 282.71,-83.61 289.68,-84.33"/>
</a>
</g>
</g>
<!-- Node10&#45;&gt;Node5 -->
<g id="edge15_Node000010_Node000005" class="edge">
<title>Node10&#45;&gt;Node5</title>
<g id="a_edge15_Node000010_Node000005"><a xlink:title=" ">
<path fill="none" stroke="#63b8ff" d="M148.35,-164.95C138.67,-156.84 125.2,-143.73 118.5,-129 103.62,-96.3 102.95,-53.46 104.05,-29.27"/>
<polygon fill="#63b8ff" stroke="#63b8ff" points="107.56,-29.21 104.68,-19.01 100.57,-28.78 107.56,-29.21"/>
</a>
</g>
</g>
</g>
</svg>
