<?xml version="1.0" encoding="UTF-8" standalone="no"?>
<!DOCTYPE svg PUBLIC "-//W3C//DTD SVG 1.1//EN"
 "http://www.w3.org/Graphics/SVG/1.1/DTD/svg11.dtd">
<!-- Generated by graphviz version 2.43.0 (0)
 -->
<!-- Title: t/820_threading_helgrind.c Pages: 1 -->
<svg width="578pt" height="192pt"
 viewBox="0.00 0.00 578.43 192.00" xmlns="http://www.w3.org/2000/svg" xmlns:xlink="http://www.w3.org/1999/xlink">
<g id="graph0" class="graph" transform="scale(1 1) rotate(0) translate(4 188)">
<title>t/820_threading_helgrind.c</title>
<!-- Node1 -->
<g id="Node000001" class="node">
<title>Node1</title>
<g id="a_Node000001"><a xlink:title="A stress test to detect data races and other threading issues.">
<polygon fill="#999999" stroke="#666666" points="357.93,-184 211.93,-184 211.93,-165 357.93,-165 357.93,-184"/>
<text text-anchor="middle" x="284.93" y="-172" font-family="Helvetica,sans-Serif" font-size="10.00">t/820_threading_helgrind.c</text>
</a>
</g>
</g>
<!-- Node2 -->
<g id="Node000002" class="node">
<title>Node2</title>
<g id="a_Node000002"><a xlink:href="compat__c23_8h.html" target="_top" xlink:title="Provides forward compatibility macros for C23 features.">
<polygon fill="white" stroke="#666666" points="256.43,-129 125.43,-129 125.43,-110 256.43,-110 256.43,-129"/>
<text text-anchor="middle" x="190.93" y="-117" font-family="Helvetica,sans-Serif" font-size="10.00">common/compat_c23.h</text>
</a>
</g>
</g>
<!-- Node1&#45;&gt;Node2 -->
<g id="edge1_Node000001_Node000002" class="edge">
<title>Node1&#45;&gt;Node2</title>
<g id="a_edge1_Node000001_Node000002"><a xlink:title=" ">
<path fill="none" stroke="#63b8ff" d="M269.82,-164.98C255.11,-156.69 232.5,-143.94 215.25,-134.22"/>
<polygon fill="#63b8ff" stroke="#63b8ff" points="216.73,-131.03 206.31,-129.17 213.3,-137.13 216.73,-131.03"/>
</a>
</g>
</g>
<!-- Node3 -->
<g id="Node000003" class="node">
<title>Node3</title>
<g id="a_Node000003"><a xlink:href="infix__config_8h.html" target="_top" xlink:title="Platform, architecture, and ABI detection macros.">
<polygon fill="white" stroke="#666666" points="141.43,-74 14.43,-74 14.43,-55 141.43,-55 141.43,-74"/>
<text text-anchor="middle" x="77.93" y="-62" font-family="Helvetica,sans-Serif" font-size="10.00">common/infix_config.h</text>
</a>
</g>
</g>
<!-- Node1&#45;&gt;Node3 -->
<g id="edge10_Node000001_Node000003" class="edge">
<title>Node1&#45;&gt;Node3</title>
<g id="a_edge10_Node000001_Node000003"><a xlink:title=" ">
<path fill="none" stroke="#63b8ff" d="M211.72,-166.72C179.79,-160.78 143.46,-149.69 115.93,-129 100.72,-117.57 90.39,-98.12 84.39,-83.75"/>
<polygon fill="#63b8ff" stroke="#63b8ff" points="87.63,-82.44 80.77,-74.37 81.1,-84.96 87.63,-82.44"/>
</a>
</g>
</g>
<!-- Node4 -->
<g id="Node000004" class="node">
<title>Node4</title>
<g id="a_Node000004"><a xlink:href="infix_8h.html" target="_top" xlink:title="The public interface for the infix FFI library.">
<polygon fill="white" stroke="#666666" points="307.43,-74 236.43,-74 236.43,-55 307.43,-55 307.43,-74"/>
<text text-anchor="middle" x="271.93" y="-62" font-family="Helvetica,sans-Serif" font-size="10.00">infix/infix.h</text>
</a>
</g>
</g>
<!-- Node1&#45;&gt;Node4 -->
<g id="edge11_Node000001_Node000004" class="edge">
<title>Node1&#45;&gt;Node4</title>
<g id="a_edge11_Node000001_Node000004"><a xlink:title=" ">
<path fill="none" stroke="#63b8ff" d="M283.86,-164.66C281.76,-147.17 277.02,-107.8 274.19,-84.27"/>
<polygon fill="#63b8ff" stroke="#63b8ff" points="277.64,-83.67 272.97,-74.16 270.69,-84.51 277.64,-83.67"/>
</a>
</g>
</g>
<!-- Node5 -->
<g id="Node000005" class="node">
<title>Node5</title>
<g id="a_Node000005"><a xlink:title=" ">
<polygon fill="#e0e0e0" stroke="#999999" points="200.93,-19 138.93,-19 138.93,0 200.93,0 200.93,-19"/>
<text text-anchor="middle" x="169.93" y="-7" font-family="Helvetica,sans-Serif" font-size="10.00">stdbool.h</text>
</a>
</g>
</g>
<!-- Node1&#45;&gt;Node5 -->
<g id="edge12_Node000001_Node000005" class="edge">
<title>Node1&#45;&gt;Node5</title>
<g id="a_edge12_Node000001_Node000005"><a xlink:title=" ">
<path fill="none" stroke="#63b8ff" d="M211.83,-172.21C143.17,-166.46 45.16,-145.33 4.93,-74 -22.33,-25.68 71.16,-13.94 128.47,-11.21"/>
<polygon fill="#63b8ff" stroke="#63b8ff" points="128.87,-14.7 138.72,-10.8 128.59,-7.7 128.87,-14.7"/>
</a>
</g>
</g>
<!-- Node7 -->
<g id="Node000007" class="node">
<title>Node7</title>
<g id="a_Node000007"><a xlink:title=" ">
<polygon fill="#e0e0e0" stroke="#999999" points="358.43,-19 305.43,-19 305.43,0 358.43,0 358.43,-19"/>
<text text-anchor="middle" x="331.93" y="-7" font-family="Helvetica,sans-Serif" font-size="10.00">stdint.h</text>
</a>
</g>
</g>
<!-- Node1&#45;&gt;Node7 -->
<g id="edge14_Node000001_Node000007" class="edge">
<title>Node1&#45;&gt;Node7</title>
<g id="a_edge14_Node000001_Node000007"><a xlink:title=" ">
<path fill="none" stroke="#63b8ff" d="M287.99,-164.79C293.98,-147.57 307.48,-107.91 316.93,-74 321.11,-58.98 325.13,-41.75 327.96,-29.03"/>
<polygon fill="#63b8ff" stroke="#63b8ff" points="331.39,-29.7 330.1,-19.18 324.55,-28.21 331.39,-29.7"/>
</a>
</g>
</g>
<!-- Node8 -->
<g id="Node000008" class="node">
<title>Node8</title>
<g id="a_Node000008"><a xlink:href="double__tap_8h.html" target="_top" xlink:title="A lightweight, single&#45;header TAP (Test Anything Protocol) library.">
<polygon fill="white" stroke="#666666" points="489.43,-129 364.43,-129 364.43,-110 489.43,-110 489.43,-129"/>
<text text-anchor="middle" x="426.93" y="-117" font-family="Helvetica,sans-Serif" font-size="10.00">common/double_tap.h</text>
</a>
</g>
</g>
<!-- Node1&#45;&gt;Node8 -->
<g id="edge9_Node000001_Node000008" class="edge">
<title>Node1&#45;&gt;Node8</title>
<g id="a_edge9_Node000001_Node000008"><a xlink:title=" ">
<path fill="none" stroke="#63b8ff" d="M307.74,-164.98C331.1,-156.27 367.63,-142.63 394.1,-132.75"/>
<polygon fill="#63b8ff" stroke="#63b8ff" points="395.55,-135.95 403.7,-129.17 393.11,-129.39 395.55,-135.95"/>
</a>
</g>
</g>
<!-- Node9 -->
<g id="Node000009" class="node">
<title>Node9</title>
<g id="a_Node000009"><a xlink:title=" ">
<polygon fill="#e0e0e0" stroke="#999999" points="570.43,-129 507.43,-129 507.43,-110 570.43,-110 570.43,-129"/>
<text text-anchor="middle" x="538.93" y="-117" font-family="Helvetica,sans-Serif" font-size="10.00">pthread.h</text>
</a>
</g>
</g>
<!-- Node1&#45;&gt;Node9 -->
<g id="edge13_Node000001_Node000009" class="edge">
<title>Node1&#45;&gt;Node9</title>
<g id="a_edge13_Node000001_Node000009"><a xlink:title=" ">
<path fill="none" stroke="#63b8ff" d="M326.36,-164.94C367.38,-156.45 432.23,-143 497.07,-129.38"/>
<polygon fill="#63b8ff" stroke="#63b8ff" points="497.99,-132.77 507.05,-127.29 496.55,-125.92 497.99,-132.77"/>
</a>
</g>
</g>
<!-- Node2&#45;&gt;Node3 -->
<g id="edge2_Node000002_Node000003" class="edge">
<title>Node2&#45;&gt;Node3</title>
<g id="a_edge2_Node000002_Node000003"><a xlink:title=" ">
<path fill="none" stroke="#63b8ff" d="M172.77,-109.98C154.68,-101.5 126.64,-88.35 105.74,-78.54"/>
<polygon fill="#63b8ff" stroke="#63b8ff" points="106.95,-75.25 96.41,-74.17 103.98,-81.59 106.95,-75.25"/>
</a>
</g>
</g>
<!-- Node2&#45;&gt;Node4 -->
<g id="edge3_Node000002_Node000004" class="edge">
<title>Node2&#45;&gt;Node4</title>
<g id="a_edge3_Node000002_Node000004"><a xlink:title=" ">
<path fill="none" stroke="#63b8ff" d="M203.94,-109.98C216.39,-101.84 235.38,-89.41 250.14,-79.76"/>
<polygon fill="#63b8ff" stroke="#63b8ff" points="252.23,-82.57 258.68,-74.17 248.39,-76.72 252.23,-82.57"/>
</a>
</g>
</g>
<!-- Node2&#45;&gt;Node5 -->
<g id="edge7_Node000002_Node000005" class="edge">
<title>Node2&#45;&gt;Node5</title>
<g id="a_edge7_Node000002_Node000005"><a xlink:title=" ">
<path fill="none" stroke="#63b8ff" d="M189.21,-109.66C185.81,-92.17 178.15,-52.8 173.58,-29.27"/>
<polygon fill="#63b8ff" stroke="#63b8ff" points="176.96,-28.31 171.61,-19.16 170.08,-29.64 176.96,-28.31"/>
</a>
</g>
</g>
<!-- Node6 -->
<g id="Node000006" class="node">
<title>Node6</title>
<g id="a_Node000006"><a xlink:title=" ">
<polygon fill="#e0e0e0" stroke="#999999" points="282.93,-19 226.93,-19 226.93,0 282.93,0 282.93,-19"/>
<text text-anchor="middle" x="254.93" y="-7" font-family="Helvetica,sans-Serif" font-size="10.00">stddef.h</text>
</a>
</g>
</g>
<!-- Node2&#45;&gt;Node6 -->
<g id="edge8_Node000002_Node000006" class="edge">
<title>Node2&#45;&gt;Node6</title>
<g id="a_edge8_Node000002_Node000006"><a xlink:title=" ">
<path fill="none" stroke="#63b8ff" d="M195.69,-109.8C202.47,-97.5 215.36,-74.36 226.93,-55 232.31,-45.99 238.51,-36.09 243.7,-27.93"/>
<polygon fill="#63b8ff" stroke="#63b8ff" points="246.79,-29.6 249.23,-19.29 240.89,-25.83 246.79,-29.6"/>
</a>
</g>
</g>
<!-- Node4&#45;&gt;Node5 -->
<g id="edge4_Node000004_Node000005" class="edge">
<title>Node4&#45;&gt;Node5</title>
<g id="a_edge4_Node000004_Node000005"><a xlink:title=" ">
<path fill="none" stroke="#63b8ff" d="M255.54,-54.98C239.35,-46.57 214.36,-33.59 195.55,-23.81"/>
<polygon fill="#63b8ff" stroke="#63b8ff" points="197.1,-20.68 186.61,-19.17 193.87,-26.89 197.1,-20.68"/>
</a>
</g>
</g>
<!-- Node4&#45;&gt;Node6 -->
<g id="edge5_Node000004_Node000006" class="edge">
<title>Node4&#45;&gt;Node6</title>
<g id="a_edge5_Node000004_Node000006"><a xlink:title=" ">
<path fill="none" stroke="#63b8ff" d="M269.12,-54.75C266.87,-47.72 263.63,-37.62 260.81,-28.84"/>
<polygon fill="#63b8ff" stroke="#63b8ff" points="264.07,-27.54 257.68,-19.09 257.4,-29.68 264.07,-27.54"/>
</a>
</g>
</g>
<!-- Node4&#45;&gt;Node7 -->
<g id="edge6_Node000004_Node000007" class="edge">
<title>Node4&#45;&gt;Node7</title>
<g id="a_edge6_Node000004_Node000007"><a xlink:title=" ">
<path fill="none" stroke="#63b8ff" d="M281.57,-54.98C290.44,-47.15 303.8,-35.34 314.54,-25.86"/>
<polygon fill="#63b8ff" stroke="#63b8ff" points="316.93,-28.41 322.11,-19.17 312.3,-23.17 316.93,-28.41"/>
</a>
</g>
</g>
</g>
</svg>
