<?xml version="1.0" encoding="UTF-8" standalone="no"?>
<!DOCTYPE svg PUBLIC "-//W3C//DTD SVG 1.1//EN"
 "http://www.w3.org/Graphics/SVG/1.1/DTD/svg11.dtd">
<!-- Generated by graphviz version 2.43.0 (0)
 -->
<!-- Title: t/820_threading_helgrind.c Pages: 1 -->
<svg width="533pt" height="192pt"
 viewBox="0.00 0.00 533.00 192.00" xmlns="http://www.w3.org/2000/svg" xmlns:xlink="http://www.w3.org/1999/xlink">
<g id="graph0" class="graph" transform="scale(1 1) rotate(0) translate(4 188)">
<title>t/820_threading_helgrind.c</title>
<!-- Node1 -->
<g id="Node000001" class="node">
<title>Node1</title>
<g id="a_Node000001"><a xlink:title="A stress test to detect data races and other threading issues.">
<polygon fill="#999999" stroke="#666666" points="428.5,-184 282.5,-184 282.5,-165 428.5,-165 428.5,-184"/>
<text text-anchor="middle" x="355.5" y="-172" font-family="Helvetica,sans-Serif" font-size="10.00">t/820_threading_helgrind.c</text>
</a>
</g>
</g>
<!-- Node2 -->
<g id="Node000002" class="node">
<title>Node2</title>
<g id="a_Node000002"><a xlink:href="double__tap_8h.html" target="_top" xlink:title="A lightweight, single&#45;header TAP (Test Anything Protocol) library.">
<polygon fill="white" stroke="#666666" points="125,-129 0,-129 0,-110 125,-110 125,-129"/>
<text text-anchor="middle" x="62.5" y="-117" font-family="Helvetica,sans-Serif" font-size="10.00">common/double_tap.h</text>
</a>
</g>
</g>
<!-- Node1&#45;&gt;Node2 -->
<g id="edge1_Node000001_Node000002" class="edge">
<title>Node1&#45;&gt;Node2</title>
<g id="a_edge1_Node000001_Node000002"><a xlink:title=" ">
<path fill="none" stroke="#63b8ff" d="M308.42,-164.98C257.1,-155.7 174.96,-140.84 119.9,-130.88"/>
<polygon fill="#63b8ff" stroke="#63b8ff" points="120.41,-127.42 109.94,-129.08 119.16,-134.31 120.41,-127.42"/>
</a>
</g>
</g>
<!-- Node3 -->
<g id="Node000003" class="node">
<title>Node3</title>
<g id="a_Node000003"><a xlink:href="infix__config_8h.html" target="_top" xlink:title="Platform, architecture, and ABI detection macros.">
<polygon fill="white" stroke="#666666" points="270,-129 143,-129 143,-110 270,-110 270,-129"/>
<text text-anchor="middle" x="206.5" y="-117" font-family="Helvetica,sans-Serif" font-size="10.00">common/infix_config.h</text>
</a>
</g>
</g>
<!-- Node1&#45;&gt;Node3 -->
<g id="edge2_Node000001_Node000003" class="edge">
<title>Node1&#45;&gt;Node3</title>
<g id="a_edge2_Node000001_Node000003"><a xlink:title=" ">
<path fill="none" stroke="#63b8ff" d="M331.56,-164.98C306.94,-156.23 268.38,-142.51 240.58,-132.62"/>
<polygon fill="#63b8ff" stroke="#63b8ff" points="241.47,-129.22 230.88,-129.17 239.12,-135.82 241.47,-129.22"/>
</a>
</g>
</g>
<!-- Node4 -->
<g id="Node000004" class="node">
<title>Node4</title>
<g id="a_Node000004"><a xlink:href="infix_8h.html" target="_top" xlink:title="The public interface for the infix FFI library.">
<polygon fill="white" stroke="#666666" points="359,-129 288,-129 288,-110 359,-110 359,-129"/>
<text text-anchor="middle" x="323.5" y="-117" font-family="Helvetica,sans-Serif" font-size="10.00">infix/infix.h</text>
</a>
</g>
</g>
<!-- Node1&#45;&gt;Node4 -->
<g id="edge3_Node000001_Node000004" class="edge">
<title>Node1&#45;&gt;Node4</title>
<g id="a_edge3_Node000001_Node000004"><a xlink:title=" ">
<path fill="none" stroke="#63b8ff" d="M350.22,-164.75C345.79,-157.42 339.34,-146.73 333.88,-137.7"/>
<polygon fill="#63b8ff" stroke="#63b8ff" points="336.85,-135.84 328.69,-129.09 330.86,-139.46 336.85,-135.84"/>
</a>
</g>
</g>
<!-- Node6 -->
<g id="Node000006" class="node">
<title>Node6</title>
<g id="a_Node000006"><a xlink:title=" ">
<polygon fill="#e0e0e0" stroke="#999999" points="354.5,-19 292.5,-19 292.5,0 354.5,0 354.5,-19"/>
<text text-anchor="middle" x="323.5" y="-7" font-family="Helvetica,sans-Serif" font-size="10.00">stdbool.h</text>
</a>
</g>
</g>
<!-- Node1&#45;&gt;Node6 -->
<g id="edge10_Node000001_Node000006" class="edge">
<title>Node1&#45;&gt;Node6</title>
<g id="a_edge10_Node000001_Node000006"><a xlink:title=" ">
<path fill="none" stroke="#63b8ff" d="M365.89,-164.87C388.64,-144.89 438.96,-94.19 414.5,-55 403.4,-37.21 382.9,-26.34 364.17,-19.8"/>
<polygon fill="#63b8ff" stroke="#63b8ff" points="365.18,-16.45 354.59,-16.76 363.06,-23.13 365.18,-16.45"/>
</a>
</g>
</g>
<!-- Node8 -->
<g id="Node000008" class="node">
<title>Node8</title>
<g id="a_Node000008"><a xlink:title=" ">
<polygon fill="#e0e0e0" stroke="#999999" points="405,-74 352,-74 352,-55 405,-55 405,-74"/>
<text text-anchor="middle" x="378.5" y="-62" font-family="Helvetica,sans-Serif" font-size="10.00">stdint.h</text>
</a>
</g>
</g>
<!-- Node1&#45;&gt;Node8 -->
<g id="edge12_Node000001_Node000008" class="edge">
<title>Node1&#45;&gt;Node8</title>
<g id="a_edge12_Node000001_Node000008"><a xlink:title=" ">
<path fill="none" stroke="#63b8ff" d="M358.43,-164.72C361.31,-155.81 365.69,-141.57 368.5,-129 371.82,-114.16 374.44,-97.12 376.16,-84.44"/>
<polygon fill="#63b8ff" stroke="#63b8ff" points="379.68,-84.56 377.49,-74.19 372.74,-83.66 379.68,-84.56"/>
</a>
</g>
</g>
<!-- Node9 -->
<g id="Node000009" class="node">
<title>Node9</title>
<g id="a_Node000009"><a xlink:title=" ">
<polygon fill="#e0e0e0" stroke="#999999" points="525,-129 462,-129 462,-110 525,-110 525,-129"/>
<text text-anchor="middle" x="493.5" y="-117" font-family="Helvetica,sans-Serif" font-size="10.00">pthread.h</text>
</a>
</g>
</g>
<!-- Node1&#45;&gt;Node9 -->
<g id="edge11_Node000001_Node000009" class="edge">
<title>Node1&#45;&gt;Node9</title>
<g id="a_edge11_Node000001_Node000009"><a xlink:title=" ">
<path fill="none" stroke="#63b8ff" d="M377.67,-164.98C400.27,-156.3 435.56,-142.75 461.25,-132.88"/>
<polygon fill="#63b8ff" stroke="#63b8ff" points="462.84,-136.02 470.92,-129.17 460.33,-129.49 462.84,-136.02"/>
</a>
</g>
</g>
<!-- Node5 -->
<g id="Node000005" class="node">
<title>Node5</title>
<g id="a_Node000005"><a xlink:href="compat__c23_8h.html" target="_top" xlink:title="Provides forward compatibility macros for C23 features.">
<polygon fill="white" stroke="#666666" points="295,-74 164,-74 164,-55 295,-55 295,-74"/>
<text text-anchor="middle" x="229.5" y="-62" font-family="Helvetica,sans-Serif" font-size="10.00">common/compat_c23.h</text>
</a>
</g>
</g>
<!-- Node4&#45;&gt;Node5 -->
<g id="edge4_Node000004_Node000005" class="edge">
<title>Node4&#45;&gt;Node5</title>
<g id="a_edge4_Node000004_Node000005"><a xlink:title=" ">
<path fill="none" stroke="#63b8ff" d="M308.4,-109.98C293.68,-101.69 271.08,-88.94 253.83,-79.22"/>
<polygon fill="#63b8ff" stroke="#63b8ff" points="255.31,-76.03 244.88,-74.17 251.87,-82.13 255.31,-76.03"/>
</a>
</g>
</g>
<!-- Node4&#45;&gt;Node6 -->
<g id="edge7_Node000004_Node000006" class="edge">
<title>Node4&#45;&gt;Node6</title>
<g id="a_edge7_Node000004_Node000006"><a xlink:title=" ">
<path fill="none" stroke="#63b8ff" d="M323.5,-109.66C323.5,-92.17 323.5,-52.8 323.5,-29.27"/>
<polygon fill="#63b8ff" stroke="#63b8ff" points="327,-29.16 323.5,-19.16 320,-29.16 327,-29.16"/>
</a>
</g>
</g>
<!-- Node7 -->
<g id="Node000007" class="node">
<title>Node7</title>
<g id="a_Node000007"><a xlink:title=" ">
<polygon fill="#e0e0e0" stroke="#999999" points="210.5,-19 154.5,-19 154.5,0 210.5,0 210.5,-19"/>
<text text-anchor="middle" x="182.5" y="-7" font-family="Helvetica,sans-Serif" font-size="10.00">stddef.h</text>
</a>
</g>
</g>
<!-- Node4&#45;&gt;Node7 -->
<g id="edge8_Node000004_Node000007" class="edge">
<title>Node4&#45;&gt;Node7</title>
<g id="a_edge8_Node000004_Node000007"><a xlink:title=" ">
<path fill="none" stroke="#63b8ff" d="M287.7,-111.43C240.84,-101.8 163.64,-84.58 155.5,-74 144.49,-59.69 155.8,-40.22 166.97,-26.63"/>
<polygon fill="#63b8ff" stroke="#63b8ff" points="169.7,-28.83 173.7,-19.02 164.45,-24.19 169.7,-28.83"/>
</a>
</g>
</g>
<!-- Node4&#45;&gt;Node8 -->
<g id="edge9_Node000004_Node000008" class="edge">
<title>Node4&#45;&gt;Node8</title>
<g id="a_edge9_Node000004_Node000008"><a xlink:title=" ">
<path fill="none" stroke="#63b8ff" d="M332.58,-109.75C340.59,-102.03 352.46,-90.6 362.12,-81.28"/>
<polygon fill="#63b8ff" stroke="#63b8ff" points="364.81,-83.55 369.59,-74.09 359.96,-78.51 364.81,-83.55"/>
</a>
</g>
</g>
<!-- Node5&#45;&gt;Node6 -->
<g id="edge5_Node000005_Node000006" class="edge">
<title>Node5&#45;&gt;Node6</title>
<g id="a_edge5_Node000005_Node000006"><a xlink:title=" ">
<path fill="none" stroke="#63b8ff" d="M244.6,-54.98C259.32,-46.69 281.92,-33.94 299.17,-24.22"/>
<polygon fill="#63b8ff" stroke="#63b8ff" points="301.13,-27.13 308.12,-19.17 297.69,-21.03 301.13,-27.13"/>
</a>
</g>
</g>
<!-- Node5&#45;&gt;Node7 -->
<g id="edge6_Node000005_Node000007" class="edge">
<title>Node5&#45;&gt;Node7</title>
<g id="a_edge6_Node000005_Node000007"><a xlink:title=" ">
<path fill="none" stroke="#63b8ff" d="M221.74,-54.75C215.03,-47.18 205.16,-36.05 196.99,-26.84"/>
<polygon fill="#63b8ff" stroke="#63b8ff" points="199.37,-24.25 190.12,-19.09 194.13,-28.89 199.37,-24.25"/>
</a>
</g>
</g>
</g>
</svg>
