<?xml version="1.0" encoding="UTF-8" standalone="no"?>
<!DOCTYPE svg PUBLIC "-//W3C//DTD SVG 1.1//EN"
 "http://www.w3.org/Graphics/SVG/1.1/DTD/svg11.dtd">
<!-- Generated by graphviz version 2.43.0 (0)
 -->
<!-- Title: t/821_threading_bare.c Pages: 1 -->
<svg width="456pt" height="192pt"
 viewBox="0.00 0.00 456.00 192.00" xmlns="http://www.w3.org/2000/svg" xmlns:xlink="http://www.w3.org/1999/xlink">

<svg id="main" version="1.1" xmlns="http://www.w3.org/2000/svg" xmlns:xlink="http://www.w3.org/1999/xlink" xml:space="preserve" onload="init(evt)">
<style type="text/css"><![CDATA[
.node, .edge {opacity: 0.7;}
.node.selected, .edge.selected {opacity: 1;}
.edge:hover path { stroke: red; }
.edge:hover polygon { stroke: red; fill: red; }
]]></style>
<script type="application/ecmascript" xlink:href="svg.min.js"/>
<svg id="graph" class="graph">
<g id="graph0" class="graph" transform="scale(1 1) rotate(0) translate(4 188)">
<title>t/821_threading_bare.c</title>
<!-- Node1 -->
<g id="Node000001" class="node">
<title>Node1</title>
<g id="a_Node000001"><a xlink:title="A minimal, dependency&#45;free version of the thread&#45;safety stress test.">
<polygon fill="#999999" stroke="#666666" points="331.5,-184 203.5,-184 203.5,-165 331.5,-165 331.5,-184"/>
<text text-anchor="middle" x="267.5" y="-172" font-family="Helvetica,sans-Serif" font-size="10.00">t/821_threading_bare.c</text>
</a>
</g>
</g>
<!-- Node2 -->
<g id="Node000002" class="node">
<title>Node2</title>
<g id="a_Node000002"><a xlink:href="infix__config_8h.html" target="_top" xlink:title="Platform, architecture, and ABI detection macros.">
<polygon fill="white" stroke="#666666" points="127,-129 0,-129 0,-110 127,-110 127,-129"/>
<text text-anchor="middle" x="63.5" y="-117" font-family="Helvetica,sans-Serif" font-size="10.00">common/infix_config.h</text>
</a>
</g>
</g>
<!-- Node1&#45;&gt;Node2 -->
<g id="edge1_Node000001_Node000002" class="edge">
<title>Node1&#45;&gt;Node2</title>
<g id="a_edge1_Node000001_Node000002"><a xlink:title=" ">
<path fill="none" stroke="#63b8ff" d="M234.72,-164.98C199.88,-155.93 144.63,-141.58 106.36,-131.64"/>
<polygon fill="#63b8ff" stroke="#63b8ff" points="107.09,-128.21 96.53,-129.08 105.33,-134.98 107.09,-128.21"/>
</a>
</g>
</g>
<!-- Node3 -->
<g id="Node000003" class="node">
<title>Node3</title>
<g id="a_Node000003"><a xlink:href="infix_8h.html" target="_top" xlink:title="The public interface for the infix FFI library.">
<polygon fill="white" stroke="#666666" points="216,-129 145,-129 145,-110 216,-110 216,-129"/>
<text text-anchor="middle" x="180.5" y="-117" font-family="Helvetica,sans-Serif" font-size="10.00">infix/infix.h</text>
</a>
</g>
</g>
<!-- Node1&#45;&gt;Node3 -->
<g id="edge2_Node000001_Node000003" class="edge">
<title>Node1&#45;&gt;Node3</title>
<g id="a_edge2_Node000001_Node000003"><a xlink:title=" ">
<path fill="none" stroke="#63b8ff" d="M253.52,-164.98C240.03,-156.77 219.37,-144.18 203.46,-134.49"/>
<polygon fill="#63b8ff" stroke="#63b8ff" points="205.09,-131.38 194.73,-129.17 201.45,-137.36 205.09,-131.38"/>
</a>
</g>
</g>
<!-- Node5 -->
<g id="Node000005" class="node">
<title>Node5</title>
<g id="a_Node000005"><a xlink:title=" ">
<polygon fill="#e0e0e0" stroke="#999999" points="209.5,-19 147.5,-19 147.5,0 209.5,0 209.5,-19"/>
<text text-anchor="middle" x="178.5" y="-7" font-family="Helvetica,sans-Serif" font-size="10.00">stdbool.h</text>
</a>
</g>
</g>
<!-- Node1&#45;&gt;Node5 -->
<g id="edge9_Node000001_Node000005" class="edge">
<title>Node1&#45;&gt;Node5</title>
<g id="a_edge9_Node000001_Node000005"><a xlink:title=" ">
<path fill="none" stroke="#63b8ff" d="M270.57,-164.92C277.4,-144.18 291.62,-90.43 269.5,-55 258.4,-37.21 237.9,-26.34 219.17,-19.8"/>
<polygon fill="#63b8ff" stroke="#63b8ff" points="220.18,-16.45 209.59,-16.76 218.06,-23.13 220.18,-16.45"/>
</a>
</g>
</g>
<!-- Node7 -->
<g id="Node000007" class="node">
<title>Node7</title>
<g id="a_Node000007"><a xlink:title=" ">
<polygon fill="#e0e0e0" stroke="#999999" points="260,-74 207,-74 207,-55 260,-55 260,-74"/>
<text text-anchor="middle" x="233.5" y="-62" font-family="Helvetica,sans-Serif" font-size="10.00">stdint.h</text>
</a>
</g>
</g>
<!-- Node1&#45;&gt;Node7 -->
<g id="edge10_Node000001_Node000007" class="edge">
<title>Node1&#45;&gt;Node7</title>
<g id="a_edge10_Node000001_Node000007"><a xlink:title=" ">
<path fill="none" stroke="#63b8ff" d="M264.72,-164.66C259.19,-147.09 246.71,-107.45 239.31,-83.95"/>
<polygon fill="#63b8ff" stroke="#63b8ff" points="242.57,-82.65 236.23,-74.16 235.89,-84.75 242.57,-82.65"/>
</a>
</g>
</g>
<!-- Node8 -->
<g id="Node000008" class="node">
<title>Node8</title>
<g id="a_Node000008"><a xlink:title=" ">
<polygon fill="#e0e0e0" stroke="#999999" points="366.5,-129 316.5,-129 316.5,-110 366.5,-110 366.5,-129"/>
<text text-anchor="middle" x="341.5" y="-117" font-family="Helvetica,sans-Serif" font-size="10.00">stdio.h</text>
</a>
</g>
</g>
<!-- Node1&#45;&gt;Node8 -->
<g id="edge11_Node000001_Node000008" class="edge">
<title>Node1&#45;&gt;Node8</title>
<g id="a_edge11_Node000001_Node000008"><a xlink:title=" ">
<path fill="none" stroke="#63b8ff" d="M279.39,-164.98C290.65,-156.92 307.79,-144.65 321.21,-135.03"/>
<polygon fill="#63b8ff" stroke="#63b8ff" points="323.3,-137.84 329.39,-129.17 319.23,-132.15 323.3,-137.84"/>
</a>
</g>
</g>
<!-- Node9 -->
<g id="Node000009" class="node">
<title>Node9</title>
<g id="a_Node000009"><a xlink:title=" ">
<polygon fill="#e0e0e0" stroke="#999999" points="448,-129 385,-129 385,-110 448,-110 448,-129"/>
<text text-anchor="middle" x="416.5" y="-117" font-family="Helvetica,sans-Serif" font-size="10.00">pthread.h</text>
</a>
</g>
</g>
<!-- Node1&#45;&gt;Node9 -->
<g id="edge12_Node000001_Node000009" class="edge">
<title>Node1&#45;&gt;Node9</title>
<g id="a_edge12_Node000001_Node000009"><a xlink:title=" ">
<path fill="none" stroke="#63b8ff" d="M291.44,-164.98C316.06,-156.23 354.62,-142.51 382.42,-132.62"/>
<polygon fill="#63b8ff" stroke="#63b8ff" points="383.88,-135.82 392.12,-129.17 381.53,-129.22 383.88,-135.82"/>
</a>
</g>
</g>
<!-- Node4 -->
<g id="Node000004" class="node">
<title>Node4</title>
<g id="a_Node000004"><a xlink:href="compat__c23_8h.html" target="_top" xlink:title="Provides forward compatibility macros for C23 features.">
<polygon fill="white" stroke="#666666" points="150,-74 19,-74 19,-55 150,-55 150,-74"/>
<text text-anchor="middle" x="84.5" y="-62" font-family="Helvetica,sans-Serif" font-size="10.00">common/compat_c23.h</text>
</a>
</g>
</g>
<!-- Node3&#45;&gt;Node4 -->
<g id="edge3_Node000003_Node000004" class="edge">
<title>Node3&#45;&gt;Node4</title>
<g id="a_edge3_Node000003_Node000004"><a xlink:title=" ">
<path fill="none" stroke="#63b8ff" d="M165.08,-109.98C150.05,-101.69 126.96,-88.94 109.34,-79.22"/>
<polygon fill="#63b8ff" stroke="#63b8ff" points="110.65,-75.94 100.2,-74.17 107.27,-82.07 110.65,-75.94"/>
</a>
</g>
</g>
<!-- Node3&#45;&gt;Node5 -->
<g id="edge6_Node000003_Node000005" class="edge">
<title>Node3&#45;&gt;Node5</title>
<g id="a_edge6_Node000003_Node000005"><a xlink:title=" ">
<path fill="none" stroke="#63b8ff" d="M180.34,-109.66C180.01,-92.17 179.28,-52.8 178.85,-29.27"/>
<polygon fill="#63b8ff" stroke="#63b8ff" points="182.34,-29.09 178.66,-19.16 175.35,-29.22 182.34,-29.09"/>
</a>
</g>
</g>
<!-- Node6 -->
<g id="Node000006" class="node">
<title>Node6</title>
<g id="a_Node000006"><a xlink:title=" ">
<polygon fill="#e0e0e0" stroke="#999999" points="65.5,-19 9.5,-19 9.5,0 65.5,0 65.5,-19"/>
<text text-anchor="middle" x="37.5" y="-7" font-family="Helvetica,sans-Serif" font-size="10.00">stddef.h</text>
</a>
</g>
</g>
<!-- Node3&#45;&gt;Node6 -->
<g id="edge7_Node000003_Node000006" class="edge">
<title>Node3&#45;&gt;Node6</title>
<g id="a_edge7_Node000003_Node000006"><a xlink:title=" ">
<path fill="none" stroke="#63b8ff" d="M144.87,-111.63C97.26,-102.1 17.85,-84.8 9.5,-74 -1.61,-59.63 10.07,-40.17 21.55,-26.6"/>
<polygon fill="#63b8ff" stroke="#63b8ff" points="24.32,-28.75 28.47,-19 19.15,-24.04 24.32,-28.75"/>
</a>
</g>
</g>
<!-- Node3&#45;&gt;Node7 -->
<g id="edge8_Node000003_Node000007" class="edge">
<title>Node3&#45;&gt;Node7</title>
<g id="a_edge8_Node000003_Node000007"><a xlink:title=" ">
<path fill="none" stroke="#63b8ff" d="M189.25,-109.75C196.97,-102.03 208.4,-90.6 217.72,-81.28"/>
<polygon fill="#63b8ff" stroke="#63b8ff" points="220.31,-83.64 224.91,-74.09 215.36,-78.69 220.31,-83.64"/>
</a>
</g>
</g>
<!-- Node4&#45;&gt;Node5 -->
<g id="edge4_Node000004_Node000005" class="edge">
<title>Node4&#45;&gt;Node5</title>
<g id="a_edge4_Node000004_Node000005"><a xlink:title=" ">
<path fill="none" stroke="#63b8ff" d="M99.6,-54.98C114.32,-46.69 136.92,-33.94 154.17,-24.22"/>
<polygon fill="#63b8ff" stroke="#63b8ff" points="156.13,-27.13 163.12,-19.17 152.69,-21.03 156.13,-27.13"/>
</a>
</g>
</g>
<!-- Node4&#45;&gt;Node6 -->
<g id="edge5_Node000004_Node000006" class="edge">
<title>Node4&#45;&gt;Node6</title>
<g id="a_edge5_Node000004_Node000006"><a xlink:title=" ">
<path fill="none" stroke="#63b8ff" d="M76.74,-54.75C70.03,-47.18 60.16,-36.05 51.99,-26.84"/>
<polygon fill="#63b8ff" stroke="#63b8ff" points="54.37,-24.25 45.12,-19.09 49.13,-28.89 54.37,-24.25"/>
</a>
</g>
</g>
</g>
</svg>
</svg>

<style type='text/css'>
<![CDATA[
[data-mouse-over-selected='false'] { opacity: 0.7; }
[data-mouse-over-selected='true']  { opacity: 1.0; }
]]>
</style>
<script type="application/ecmascript"><![CDATA[
document.addEventListener('DOMContentLoaded', (event) => {
  highlightEdges();
  highlightAdjacentNodes();
});
]]></script>
</svg>
