<?xml version="1.0" encoding="UTF-8" standalone="no"?>
<!DOCTYPE svg PUBLIC "-//W3C//DTD SVG 1.1//EN"
 "http://www.w3.org/Graphics/SVG/1.1/DTD/svg11.dtd">
<!-- Generated by graphviz version 2.43.0 (0)
 -->
<!-- Title: t/830_security.c Pages: 1 -->
<svg width="917pt" height="302pt"
 viewBox="0.00 0.00 916.50 302.00" xmlns="http://www.w3.org/2000/svg" xmlns:xlink="http://www.w3.org/1999/xlink">
<g id="graph0" class="graph" transform="scale(1 1) rotate(0) translate(4 298)">
<title>t/830_security.c</title>
<!-- Node1 -->
<g id="Node000001" class="node">
<title>Node1</title>
<g id="a_Node000001"><a xlink:title="Unit test for security&#45;hardening features of the infix library.">
<polygon fill="#999999" stroke="#666666" points="571.5,-294 479.5,-294 479.5,-275 571.5,-275 571.5,-294"/>
<text text-anchor="middle" x="525.5" y="-282" font-family="Helvetica,sans-Serif" font-size="10.00">t/830_security.c</text>
</a>
</g>
</g>
<!-- Node2 -->
<g id="Node000002" class="node">
<title>Node2</title>
<g id="a_Node000002"><a xlink:href="infix__config_8h.html" target="_top" xlink:title="Platform, architecture, and ABI detection macros.">
<polygon fill="white" stroke="#666666" points="127,-129 0,-129 0,-110 127,-110 127,-129"/>
<text text-anchor="middle" x="63.5" y="-117" font-family="Helvetica,sans-Serif" font-size="10.00">common/infix_config.h</text>
</a>
</g>
</g>
<!-- Node1&#45;&gt;Node2 -->
<g id="edge1_Node000001_Node000002" class="edge">
<title>Node1&#45;&gt;Node2</title>
<g id="a_edge1_Node000001_Node000002"><a xlink:title=" ">
<path fill="none" stroke="#63b8ff" d="M479.18,-284.05C384.79,-284.29 174.31,-280.07 117.5,-239 84.47,-215.13 71.18,-166.12 66.21,-139.22"/>
<polygon fill="#63b8ff" stroke="#63b8ff" points="69.64,-138.47 64.56,-129.17 62.73,-139.61 69.64,-138.47"/>
</a>
</g>
</g>
<!-- Node3 -->
<g id="Node000003" class="node">
<title>Node3</title>
<g id="a_Node000003"><a xlink:href="compat__c23_8h.html" target="_top" xlink:title="Provides forward compatibility macros for C23 features.">
<polygon fill="white" stroke="#666666" points="315,-129 184,-129 184,-110 315,-110 315,-129"/>
<text text-anchor="middle" x="249.5" y="-117" font-family="Helvetica,sans-Serif" font-size="10.00">common/compat_c23.h</text>
</a>
</g>
</g>
<!-- Node1&#45;&gt;Node3 -->
<g id="edge2_Node000001_Node000003" class="edge">
<title>Node1&#45;&gt;Node3</title>
<g id="a_edge2_Node000001_Node000003"><a xlink:title=" ">
<path fill="none" stroke="#63b8ff" d="M479.47,-276.95C446.56,-270.78 402.15,-259.35 367.5,-239 321.79,-212.16 281.26,-163.33 261.77,-137.53"/>
<polygon fill="#63b8ff" stroke="#63b8ff" points="264.33,-135.1 255.57,-129.15 258.71,-139.27 264.33,-135.1"/>
</a>
</g>
</g>
<!-- Node4 -->
<g id="Node000004" class="node">
<title>Node4</title>
<g id="a_Node000004"><a xlink:href="infix_8h.html" target="_top" xlink:title="The public interface for the infix FFI library.">
<polygon fill="white" stroke="#666666" points="371,-74 300,-74 300,-55 371,-55 371,-74"/>
<text text-anchor="middle" x="335.5" y="-62" font-family="Helvetica,sans-Serif" font-size="10.00">infix/infix.h</text>
</a>
</g>
</g>
<!-- Node1&#45;&gt;Node4 -->
<g id="edge17_Node000001_Node000004" class="edge">
<title>Node1&#45;&gt;Node4</title>
<g id="a_edge17_Node000001_Node000004"><a xlink:title=" ">
<path fill="none" stroke="#63b8ff" d="M479.47,-276.7C453.64,-270.72 422.48,-259.58 401.5,-239 357.27,-195.6 342.25,-119.53 337.51,-84.34"/>
<polygon fill="#63b8ff" stroke="#63b8ff" points="340.95,-83.59 336.27,-74.08 334,-84.43 340.95,-83.59"/>
</a>
</g>
</g>
<!-- Node8 -->
<g id="Node000008" class="node">
<title>Node8</title>
<g id="a_Node000008"><a xlink:href="double__tap_8h.html" target="_top" xlink:title="A lightweight, single&#45;header TAP (Test Anything Protocol) library.">
<polygon fill="white" stroke="#666666" points="535,-239 410,-239 410,-220 535,-220 535,-239"/>
<text text-anchor="middle" x="472.5" y="-227" font-family="Helvetica,sans-Serif" font-size="10.00">common/double_tap.h</text>
</a>
</g>
</g>
<!-- Node1&#45;&gt;Node8 -->
<g id="edge9_Node000001_Node000008" class="edge">
<title>Node1&#45;&gt;Node8</title>
<g id="a_edge9_Node000001_Node000008"><a xlink:title=" ">
<path fill="none" stroke="#63b8ff" d="M516.75,-274.75C509.03,-267.03 497.6,-255.6 488.28,-246.28"/>
<polygon fill="#63b8ff" stroke="#63b8ff" points="490.64,-243.69 481.09,-239.09 485.69,-248.64 490.64,-243.69"/>
</a>
</g>
</g>
<!-- Node9 -->
<g id="Node000009" class="node">
<title>Node9</title>
<g id="a_Node000009"><a xlink:href="infix__internals_8h.html" target="_top" xlink:title="Internal data structures, function prototypes, and constants.">
<polygon fill="white" stroke="#666666" points="266.5,-239 126.5,-239 126.5,-220 266.5,-220 266.5,-239"/>
<text text-anchor="middle" x="196.5" y="-227" font-family="Helvetica,sans-Serif" font-size="10.00">common/infix_internals.h</text>
</a>
</g>
</g>
<!-- Node1&#45;&gt;Node9 -->
<g id="edge10_Node000001_Node000009" class="edge">
<title>Node1&#45;&gt;Node9</title>
<g id="a_edge10_Node000001_Node000009"><a xlink:title=" ">
<path fill="none" stroke="#63b8ff" d="M479.41,-276.07C422,-266.83 323.66,-250.98 259.37,-240.63"/>
<polygon fill="#63b8ff" stroke="#63b8ff" points="259.78,-237.15 249.35,-239.01 258.67,-244.06 259.78,-237.15"/>
</a>
</g>
</g>
<!-- Node11 -->
<g id="Node000011" class="node">
<title>Node11</title>
<g id="a_Node000011"><a xlink:title=" ">
<polygon fill="#e0e0e0" stroke="#999999" points="606,-239 553,-239 553,-220 606,-220 606,-239"/>
<text text-anchor="middle" x="579.5" y="-227" font-family="Helvetica,sans-Serif" font-size="10.00">limits.h</text>
</a>
</g>
</g>
<!-- Node1&#45;&gt;Node11 -->
<g id="edge18_Node000001_Node000011" class="edge">
<title>Node1&#45;&gt;Node11</title>
<g id="a_edge18_Node000001_Node000011"><a xlink:title=" ">
<path fill="none" stroke="#63b8ff" d="M534.42,-274.75C542.28,-267.03 553.93,-255.6 563.42,-246.28"/>
<polygon fill="#63b8ff" stroke="#63b8ff" points="566.06,-248.59 570.75,-239.09 561.16,-243.6 566.06,-248.59"/>
</a>
</g>
</g>
<!-- Node12 -->
<g id="Node000012" class="node">
<title>Node12</title>
<g id="a_Node000012"><a xlink:title=" ">
<polygon fill="#e0e0e0" stroke="#999999" points="677,-239 624,-239 624,-220 677,-220 677,-239"/>
<text text-anchor="middle" x="650.5" y="-227" font-family="Helvetica,sans-Serif" font-size="10.00">stdlib.h</text>
</a>
</g>
</g>
<!-- Node1&#45;&gt;Node12 -->
<g id="edge19_Node000001_Node000012" class="edge">
<title>Node1&#45;&gt;Node12</title>
<g id="a_edge19_Node000001_Node000012"><a xlink:title=" ">
<path fill="none" stroke="#63b8ff" d="M545.58,-274.98C565.87,-266.38 597.46,-252.99 620.67,-243.15"/>
<polygon fill="#63b8ff" stroke="#63b8ff" points="622.21,-246.3 630.05,-239.17 619.48,-239.85 622.21,-246.3"/>
</a>
</g>
</g>
<!-- Node13 -->
<g id="Node000013" class="node">
<title>Node13</title>
<g id="a_Node000013"><a xlink:title=" ">
<polygon fill="#e0e0e0" stroke="#999999" points="750,-239 695,-239 695,-220 750,-220 750,-239"/>
<text text-anchor="middle" x="722.5" y="-227" font-family="Helvetica,sans-Serif" font-size="10.00">signal.h</text>
</a>
</g>
</g>
<!-- Node1&#45;&gt;Node13 -->
<g id="edge20_Node000001_Node000013" class="edge">
<title>Node1&#45;&gt;Node13</title>
<g id="a_edge20_Node000001_Node000013"><a xlink:title=" ">
<path fill="none" stroke="#63b8ff" d="M557.15,-274.98C591.95,-265.62 647.82,-250.59 684.84,-240.63"/>
<polygon fill="#63b8ff" stroke="#63b8ff" points="686,-243.94 694.75,-237.97 684.18,-237.18 686,-243.94"/>
</a>
</g>
</g>
<!-- Node14 -->
<g id="Node000014" class="node">
<title>Node14</title>
<g id="a_Node000014"><a xlink:title=" ">
<polygon fill="#e0e0e0" stroke="#999999" points="834.5,-239 768.5,-239 768.5,-220 834.5,-220 834.5,-239"/>
<text text-anchor="middle" x="801.5" y="-227" font-family="Helvetica,sans-Serif" font-size="10.00">sys/wait.h</text>
</a>
</g>
</g>
<!-- Node1&#45;&gt;Node14 -->
<g id="edge21_Node000001_Node000014" class="edge">
<title>Node1&#45;&gt;Node14</title>
<g id="a_edge21_Node000001_Node000014"><a xlink:title=" ">
<path fill="none" stroke="#63b8ff" d="M571.27,-274.96C616.34,-266.51 687.42,-253.1 758.47,-239.18"/>
<polygon fill="#63b8ff" stroke="#63b8ff" points="759.35,-242.58 768.49,-237.22 758.01,-235.71 759.35,-242.58"/>
</a>
</g>
</g>
<!-- Node15 -->
<g id="Node000015" class="node">
<title>Node15</title>
<g id="a_Node000015"><a xlink:title=" ">
<polygon fill="#e0e0e0" stroke="#999999" points="908.5,-239 852.5,-239 852.5,-220 908.5,-220 908.5,-239"/>
<text text-anchor="middle" x="880.5" y="-227" font-family="Helvetica,sans-Serif" font-size="10.00">unistd.h</text>
</a>
</g>
</g>
<!-- Node1&#45;&gt;Node15 -->
<g id="edge22_Node000001_Node000015" class="edge">
<title>Node1&#45;&gt;Node15</title>
<g id="a_edge22_Node000001_Node000015"><a xlink:title=" ">
<path fill="none" stroke="#63b8ff" d="M571.52,-278.33C631.6,-271.3 740.23,-257.64 842.4,-239.06"/>
<polygon fill="#63b8ff" stroke="#63b8ff" points="843.07,-242.5 852.27,-237.25 841.8,-235.62 843.07,-242.5"/>
</a>
</g>
</g>
<!-- Node3&#45;&gt;Node4 -->
<g id="edge3_Node000003_Node000004" class="edge">
<title>Node3&#45;&gt;Node4</title>
<g id="a_edge3_Node000003_Node000004"><a xlink:title=" ">
<path fill="none" stroke="#63b8ff" d="M263.32,-109.98C276.65,-101.77 297.08,-89.18 312.81,-79.49"/>
<polygon fill="#63b8ff" stroke="#63b8ff" points="314.75,-82.4 321.43,-74.17 311.08,-76.44 314.75,-82.4"/>
</a>
</g>
</g>
<!-- Node5 -->
<g id="Node000005" class="node">
<title>Node5</title>
<g id="a_Node000005"><a xlink:title=" ">
<polygon fill="#e0e0e0" stroke="#999999" points="230.5,-19 168.5,-19 168.5,0 230.5,0 230.5,-19"/>
<text text-anchor="middle" x="199.5" y="-7" font-family="Helvetica,sans-Serif" font-size="10.00">stdbool.h</text>
</a>
</g>
</g>
<!-- Node3&#45;&gt;Node5 -->
<g id="edge7_Node000003_Node000005" class="edge">
<title>Node3&#45;&gt;Node5</title>
<g id="a_edge7_Node000003_Node000005"><a xlink:title=" ">
<path fill="none" stroke="#63b8ff" d="M245.41,-109.66C237.2,-91.93 218.59,-51.73 207.75,-28.32"/>
<polygon fill="#63b8ff" stroke="#63b8ff" points="210.89,-26.76 203.51,-19.16 204.53,-29.7 210.89,-26.76"/>
</a>
</g>
</g>
<!-- Node6 -->
<g id="Node000006" class="node">
<title>Node6</title>
<g id="a_Node000006"><a xlink:title=" ">
<polygon fill="#e0e0e0" stroke="#999999" points="304.5,-19 248.5,-19 248.5,0 304.5,0 304.5,-19"/>
<text text-anchor="middle" x="276.5" y="-7" font-family="Helvetica,sans-Serif" font-size="10.00">stddef.h</text>
</a>
</g>
</g>
<!-- Node3&#45;&gt;Node6 -->
<g id="edge8_Node000003_Node000006" class="edge">
<title>Node3&#45;&gt;Node6</title>
<g id="a_edge8_Node000003_Node000006"><a xlink:title=" ">
<path fill="none" stroke="#63b8ff" d="M251.71,-109.66C256.1,-92.09 266.01,-52.45 271.89,-28.95"/>
<polygon fill="#63b8ff" stroke="#63b8ff" points="275.31,-29.71 274.34,-19.16 268.51,-28.01 275.31,-29.71"/>
</a>
</g>
</g>
<!-- Node4&#45;&gt;Node5 -->
<g id="edge4_Node000004_Node000005" class="edge">
<title>Node4&#45;&gt;Node5</title>
<g id="a_edge4_Node000004_Node000005"><a xlink:title=" ">
<path fill="none" stroke="#63b8ff" d="M313.65,-54.98C291.38,-46.3 256.6,-32.75 231.28,-22.88"/>
<polygon fill="#63b8ff" stroke="#63b8ff" points="232.34,-19.54 221.75,-19.17 229.79,-26.06 232.34,-19.54"/>
</a>
</g>
</g>
<!-- Node4&#45;&gt;Node6 -->
<g id="edge5_Node000004_Node000006" class="edge">
<title>Node4&#45;&gt;Node6</title>
<g id="a_edge5_Node000004_Node000006"><a xlink:title=" ">
<path fill="none" stroke="#63b8ff" d="M326.02,-54.98C317.3,-47.15 304.16,-35.34 293.6,-25.86"/>
<polygon fill="#63b8ff" stroke="#63b8ff" points="295.93,-23.25 286.15,-19.17 291.25,-28.46 295.93,-23.25"/>
</a>
</g>
</g>
<!-- Node7 -->
<g id="Node000007" class="node">
<title>Node7</title>
<g id="a_Node000007"><a xlink:title=" ">
<polygon fill="#e0e0e0" stroke="#999999" points="376,-19 323,-19 323,0 376,0 376,-19"/>
<text text-anchor="middle" x="349.5" y="-7" font-family="Helvetica,sans-Serif" font-size="10.00">stdint.h</text>
</a>
</g>
</g>
<!-- Node4&#45;&gt;Node7 -->
<g id="edge6_Node000004_Node000007" class="edge">
<title>Node4&#45;&gt;Node7</title>
<g id="a_edge6_Node000004_Node000007"><a xlink:title=" ">
<path fill="none" stroke="#63b8ff" d="M337.81,-54.75C339.67,-47.72 342.34,-37.62 344.65,-28.84"/>
<polygon fill="#63b8ff" stroke="#63b8ff" points="348.06,-29.65 347.23,-19.09 341.29,-27.86 348.06,-29.65"/>
</a>
</g>
</g>
<!-- Node9&#45;&gt;Node2 -->
<g id="edge11_Node000009_Node000002" class="edge">
<title>Node9&#45;&gt;Node2</title>
<g id="a_edge11_Node000009_Node000002"><a xlink:title=" ">
<path fill="none" stroke="#63b8ff" d="M182.13,-220C168.2,-211.52 146.71,-197.81 129.5,-184 111.01,-169.17 91.68,-150.08 78.75,-136.72"/>
<polygon fill="#63b8ff" stroke="#63b8ff" points="81.03,-134.04 71.59,-129.23 75.97,-138.88 81.03,-134.04"/>
</a>
</g>
</g>
<!-- Node9&#45;&gt;Node4 -->
<g id="edge16_Node000009_Node000004" class="edge">
<title>Node9&#45;&gt;Node4</title>
<g id="a_edge16_Node000009_Node000004"><a xlink:title=" ">
<path fill="none" stroke="#63b8ff" d="M214.91,-219.93C243.49,-205.56 297.89,-173.73 323.5,-129 331.26,-115.44 334.13,-97.85 335.13,-84.62"/>
<polygon fill="#63b8ff" stroke="#63b8ff" points="338.64,-84.48 335.61,-74.33 331.65,-84.16 338.64,-84.48"/>
</a>
</g>
</g>
<!-- Node10 -->
<g id="Node000010" class="node">
<title>Node10</title>
<g id="a_Node000010"><a xlink:href="platform_8h.html" target="_top" xlink:title="Declares internal, runtime CPU/OS feature detection functions.">
<polygon fill="white" stroke="#666666" points="252,-184 139,-184 139,-165 252,-165 252,-184"/>
<text text-anchor="middle" x="195.5" y="-172" font-family="Helvetica,sans-Serif" font-size="10.00">common/platform.h</text>
</a>
</g>
</g>
<!-- Node9&#45;&gt;Node10 -->
<g id="edge12_Node000009_Node000010" class="edge">
<title>Node9&#45;&gt;Node10</title>
<g id="a_edge12_Node000009_Node000010"><a xlink:title=" ">
<path fill="none" stroke="#63b8ff" d="M196.33,-219.75C196.2,-212.8 196.02,-202.85 195.85,-194.13"/>
<polygon fill="#63b8ff" stroke="#63b8ff" points="199.35,-194.02 195.66,-184.09 192.35,-194.15 199.35,-194.02"/>
</a>
</g>
</g>
<!-- Node10&#45;&gt;Node2 -->
<g id="edge14_Node000010_Node000002" class="edge">
<title>Node10&#45;&gt;Node2</title>
<g id="a_edge14_Node000010_Node000002"><a xlink:title=" ">
<path fill="none" stroke="#63b8ff" d="M174.29,-164.98C152.77,-156.34 119.22,-142.87 94.67,-133.02"/>
<polygon fill="#63b8ff" stroke="#63b8ff" points="95.68,-129.65 85.09,-129.17 93.07,-136.14 95.68,-129.65"/>
</a>
</g>
</g>
<!-- Node10&#45;&gt;Node3 -->
<g id="edge13_Node000010_Node000003" class="edge">
<title>Node10&#45;&gt;Node3</title>
<g id="a_edge13_Node000010_Node000003"><a xlink:title=" ">
<path fill="none" stroke="#63b8ff" d="M204.42,-164.75C212.28,-157.03 223.93,-145.6 233.42,-136.28"/>
<polygon fill="#63b8ff" stroke="#63b8ff" points="236.06,-138.59 240.75,-129.09 231.16,-133.6 236.06,-138.59"/>
</a>
</g>
</g>
<!-- Node10&#45;&gt;Node5 -->
<g id="edge15_Node000010_Node000005" class="edge">
<title>Node10&#45;&gt;Node5</title>
<g id="a_edge15_Node000010_Node000005"><a xlink:title=" ">
<path fill="none" stroke="#63b8ff" d="M189.92,-164.72C184.76,-156.03 177.45,-142.17 174.5,-129 166.53,-93.42 180.83,-51.66 190.89,-28.42"/>
<polygon fill="#63b8ff" stroke="#63b8ff" points="194.16,-29.69 195.11,-19.14 187.79,-26.79 194.16,-29.69"/>
</a>
</g>
</g>
</g>
</svg>
