<?xml version="1.0" encoding="UTF-8" standalone="no"?>
<!DOCTYPE svg PUBLIC "-//W3C//DTD SVG 1.1//EN"
 "http://www.w3.org/Graphics/SVG/1.1/DTD/svg11.dtd">
<!-- Generated by graphviz version 2.43.0 (0)
 -->
<!-- Title: t/830_security.c Pages: 1 -->
<svg width="866pt" height="302pt"
 viewBox="0.00 0.00 865.50 302.00" xmlns="http://www.w3.org/2000/svg" xmlns:xlink="http://www.w3.org/1999/xlink">
<g id="graph0" class="graph" transform="scale(1 1) rotate(0) translate(4 298)">
<title>t/830_security.c</title>
<!-- Node1 -->
<g id="Node000001" class="node">
<title>Node1</title>
<g id="a_Node000001"><a xlink:title="Unit test for security&#45;hardening features of the infix library.">
<polygon fill="#999999" stroke="#666666" points="520.5,-294 428.5,-294 428.5,-275 520.5,-275 520.5,-294"/>
<text text-anchor="middle" x="474.5" y="-282" font-family="Helvetica,sans-Serif" font-size="10.00">t/830_security.c</text>
</a>
</g>
</g>
<!-- Node2 -->
<g id="Node000002" class="node">
<title>Node2</title>
<g id="a_Node000002"><a xlink:href="infix__config_8h.html" target="_top" xlink:title="Platform, architecture, and ABI detection macros.">
<polygon fill="white" stroke="#666666" points="372,-74 245,-74 245,-55 372,-55 372,-74"/>
<text text-anchor="middle" x="308.5" y="-62" font-family="Helvetica,sans-Serif" font-size="10.00">common/infix_config.h</text>
</a>
</g>
</g>
<!-- Node1&#45;&gt;Node2 -->
<g id="edge1_Node000001_Node000002" class="edge">
<title>Node1&#45;&gt;Node2</title>
<g id="a_edge1_Node000001_Node000002"><a xlink:title=" ">
<path fill="none" stroke="#63b8ff" d="M428.39,-277.85C402.04,-272.25 370.37,-261.12 350.5,-239 329.91,-216.08 315.97,-124.09 310.77,-84.16"/>
<polygon fill="#63b8ff" stroke="#63b8ff" points="314.23,-83.66 309.51,-74.17 307.29,-84.53 314.23,-83.66"/>
</a>
</g>
</g>
<!-- Node3 -->
<g id="Node000003" class="node">
<title>Node3</title>
<g id="a_Node000003"><a xlink:href="compat__c23_8h.html" target="_top" xlink:title="Provides forward compatibility macros for C23 features.">
<polygon fill="white" stroke="#666666" points="188,-129 57,-129 57,-110 188,-110 188,-129"/>
<text text-anchor="middle" x="122.5" y="-117" font-family="Helvetica,sans-Serif" font-size="10.00">common/compat_c23.h</text>
</a>
</g>
</g>
<!-- Node1&#45;&gt;Node3 -->
<g id="edge2_Node000001_Node000003" class="edge">
<title>Node1&#45;&gt;Node3</title>
<g id="a_edge2_Node000001_Node000003"><a xlink:title=" ">
<path fill="none" stroke="#63b8ff" d="M428.5,-282.84C364.93,-280.67 247.44,-272.05 153.5,-239 108.56,-223.19 85,-225.44 61.5,-184 50.2,-164.08 73.02,-145.72 93.89,-133.93"/>
<polygon fill="#63b8ff" stroke="#63b8ff" points="95.73,-136.92 102.92,-129.14 92.44,-130.74 95.73,-136.92"/>
</a>
</g>
</g>
<!-- Node4 -->
<g id="Node000004" class="node">
<title>Node4</title>
<g id="a_Node000004"><a xlink:href="infix_8h.html" target="_top" xlink:title="The public interface for the infix FFI library.">
<polygon fill="white" stroke="#666666" points="71,-74 0,-74 0,-55 71,-55 71,-74"/>
<text text-anchor="middle" x="35.5" y="-62" font-family="Helvetica,sans-Serif" font-size="10.00">infix/infix.h</text>
</a>
</g>
</g>
<!-- Node1&#45;&gt;Node4 -->
<g id="edge19_Node000001_Node000004" class="edge">
<title>Node1&#45;&gt;Node4</title>
<g id="a_edge19_Node000001_Node000004"><a xlink:title=" ">
<path fill="none" stroke="#63b8ff" d="M428.4,-282.74C339.71,-280.53 149.14,-271.98 93.5,-239 44.85,-210.16 41.47,-184.28 29.5,-129 26.27,-114.1 28.25,-96.86 30.77,-84.11"/>
<polygon fill="#63b8ff" stroke="#63b8ff" points="34.21,-84.75 33.01,-74.23 27.39,-83.21 34.21,-84.75"/>
</a>
</g>
</g>
<!-- Node8 -->
<g id="Node000008" class="node">
<title>Node8</title>
<g id="a_Node000008"><a xlink:href="double__tap_8h.html" target="_top" xlink:title="A lightweight, single&#45;header TAP (Test Anything Protocol) library.">
<polygon fill="white" stroke="#666666" points="484,-239 359,-239 359,-220 484,-220 484,-239"/>
<text text-anchor="middle" x="421.5" y="-227" font-family="Helvetica,sans-Serif" font-size="10.00">common/double_tap.h</text>
</a>
</g>
</g>
<!-- Node1&#45;&gt;Node8 -->
<g id="edge10_Node000001_Node000008" class="edge">
<title>Node1&#45;&gt;Node8</title>
<g id="a_edge10_Node000001_Node000008"><a xlink:title=" ">
<path fill="none" stroke="#63b8ff" d="M465.75,-274.75C458.03,-267.03 446.6,-255.6 437.28,-246.28"/>
<polygon fill="#63b8ff" stroke="#63b8ff" points="439.64,-243.69 430.09,-239.09 434.69,-248.64 439.64,-243.69"/>
</a>
</g>
</g>
<!-- Node9 -->
<g id="Node000009" class="node">
<title>Node9</title>
<g id="a_Node000009"><a xlink:href="infix__internals_8h.html" target="_top" xlink:title="Internal data structures, function prototypes, and constants.">
<polygon fill="white" stroke="#666666" points="302.5,-239 162.5,-239 162.5,-220 302.5,-220 302.5,-239"/>
<text text-anchor="middle" x="232.5" y="-227" font-family="Helvetica,sans-Serif" font-size="10.00">common/infix_internals.h</text>
</a>
</g>
</g>
<!-- Node1&#45;&gt;Node9 -->
<g id="edge11_Node000001_Node000009" class="edge">
<title>Node1&#45;&gt;Node9</title>
<g id="a_edge11_Node000001_Node000009"><a xlink:title=" ">
<path fill="none" stroke="#63b8ff" d="M435.62,-274.98C393.76,-265.82 327.07,-251.21 281.62,-241.26"/>
<polygon fill="#63b8ff" stroke="#63b8ff" points="282.2,-237.8 271.69,-239.08 280.71,-244.64 282.2,-237.8"/>
</a>
</g>
</g>
<!-- Node12 -->
<g id="Node000012" class="node">
<title>Node12</title>
<g id="a_Node000012"><a xlink:title=" ">
<polygon fill="#e0e0e0" stroke="#999999" points="555,-239 502,-239 502,-220 555,-220 555,-239"/>
<text text-anchor="middle" x="528.5" y="-227" font-family="Helvetica,sans-Serif" font-size="10.00">limits.h</text>
</a>
</g>
</g>
<!-- Node1&#45;&gt;Node12 -->
<g id="edge20_Node000001_Node000012" class="edge">
<title>Node1&#45;&gt;Node12</title>
<g id="a_edge20_Node000001_Node000012"><a xlink:title=" ">
<path fill="none" stroke="#63b8ff" d="M483.42,-274.75C491.28,-267.03 502.93,-255.6 512.42,-246.28"/>
<polygon fill="#63b8ff" stroke="#63b8ff" points="515.06,-248.59 519.75,-239.09 510.16,-243.6 515.06,-248.59"/>
</a>
</g>
</g>
<!-- Node13 -->
<g id="Node000013" class="node">
<title>Node13</title>
<g id="a_Node000013"><a xlink:title=" ">
<polygon fill="#e0e0e0" stroke="#999999" points="626,-239 573,-239 573,-220 626,-220 626,-239"/>
<text text-anchor="middle" x="599.5" y="-227" font-family="Helvetica,sans-Serif" font-size="10.00">stdlib.h</text>
</a>
</g>
</g>
<!-- Node1&#45;&gt;Node13 -->
<g id="edge21_Node000001_Node000013" class="edge">
<title>Node1&#45;&gt;Node13</title>
<g id="a_edge21_Node000001_Node000013"><a xlink:title=" ">
<path fill="none" stroke="#63b8ff" d="M494.58,-274.98C514.87,-266.38 546.46,-252.99 569.67,-243.15"/>
<polygon fill="#63b8ff" stroke="#63b8ff" points="571.21,-246.3 579.05,-239.17 568.48,-239.85 571.21,-246.3"/>
</a>
</g>
</g>
<!-- Node14 -->
<g id="Node000014" class="node">
<title>Node14</title>
<g id="a_Node000014"><a xlink:title=" ">
<polygon fill="#e0e0e0" stroke="#999999" points="699,-239 644,-239 644,-220 699,-220 699,-239"/>
<text text-anchor="middle" x="671.5" y="-227" font-family="Helvetica,sans-Serif" font-size="10.00">signal.h</text>
</a>
</g>
</g>
<!-- Node1&#45;&gt;Node14 -->
<g id="edge22_Node000001_Node000014" class="edge">
<title>Node1&#45;&gt;Node14</title>
<g id="a_edge22_Node000001_Node000014"><a xlink:title=" ">
<path fill="none" stroke="#63b8ff" d="M506.15,-274.98C540.95,-265.62 596.82,-250.59 633.84,-240.63"/>
<polygon fill="#63b8ff" stroke="#63b8ff" points="635,-243.94 643.75,-237.97 633.18,-237.18 635,-243.94"/>
</a>
</g>
</g>
<!-- Node15 -->
<g id="Node000015" class="node">
<title>Node15</title>
<g id="a_Node000015"><a xlink:title=" ">
<polygon fill="#e0e0e0" stroke="#999999" points="783.5,-239 717.5,-239 717.5,-220 783.5,-220 783.5,-239"/>
<text text-anchor="middle" x="750.5" y="-227" font-family="Helvetica,sans-Serif" font-size="10.00">sys/wait.h</text>
</a>
</g>
</g>
<!-- Node1&#45;&gt;Node15 -->
<g id="edge23_Node000001_Node000015" class="edge">
<title>Node1&#45;&gt;Node15</title>
<g id="a_edge23_Node000001_Node000015"><a xlink:title=" ">
<path fill="none" stroke="#63b8ff" d="M520.27,-274.96C565.34,-266.51 636.42,-253.1 707.47,-239.18"/>
<polygon fill="#63b8ff" stroke="#63b8ff" points="708.35,-242.58 717.49,-237.22 707.01,-235.71 708.35,-242.58"/>
</a>
</g>
</g>
<!-- Node16 -->
<g id="Node000016" class="node">
<title>Node16</title>
<g id="a_Node000016"><a xlink:title=" ">
<polygon fill="#e0e0e0" stroke="#999999" points="857.5,-239 801.5,-239 801.5,-220 857.5,-220 857.5,-239"/>
<text text-anchor="middle" x="829.5" y="-227" font-family="Helvetica,sans-Serif" font-size="10.00">unistd.h</text>
</a>
</g>
</g>
<!-- Node1&#45;&gt;Node16 -->
<g id="edge24_Node000001_Node000016" class="edge">
<title>Node1&#45;&gt;Node16</title>
<g id="a_edge24_Node000001_Node000016"><a xlink:title=" ">
<path fill="none" stroke="#63b8ff" d="M520.52,-278.33C580.6,-271.3 689.23,-257.64 791.4,-239.06"/>
<polygon fill="#63b8ff" stroke="#63b8ff" points="792.07,-242.5 801.27,-237.25 790.8,-235.62 792.07,-242.5"/>
</a>
</g>
</g>
<!-- Node3&#45;&gt;Node2 -->
<g id="edge3_Node000003_Node000002" class="edge">
<title>Node3&#45;&gt;Node2</title>
<g id="a_edge3_Node000003_Node000002"><a xlink:title=" ">
<path fill="none" stroke="#63b8ff" d="M152.38,-109.98C183.88,-101.01 233.67,-86.82 268.53,-76.89"/>
<polygon fill="#63b8ff" stroke="#63b8ff" points="269.72,-80.19 278.38,-74.08 267.81,-73.46 269.72,-80.19"/>
</a>
</g>
</g>
<!-- Node3&#45;&gt;Node4 -->
<g id="edge4_Node000003_Node000004" class="edge">
<title>Node3&#45;&gt;Node4</title>
<g id="a_edge4_Node000003_Node000004"><a xlink:title=" ">
<path fill="none" stroke="#63b8ff" d="M108.52,-109.98C95.03,-101.77 74.37,-89.18 58.46,-79.49"/>
<polygon fill="#63b8ff" stroke="#63b8ff" points="60.09,-76.38 49.73,-74.17 56.45,-82.36 60.09,-76.38"/>
</a>
</g>
</g>
<!-- Node5 -->
<g id="Node000005" class="node">
<title>Node5</title>
<g id="a_Node000005"><a xlink:title=" ">
<polygon fill="#e0e0e0" stroke="#999999" points="212.5,-19 150.5,-19 150.5,0 212.5,0 212.5,-19"/>
<text text-anchor="middle" x="181.5" y="-7" font-family="Helvetica,sans-Serif" font-size="10.00">stdbool.h</text>
</a>
</g>
</g>
<!-- Node3&#45;&gt;Node5 -->
<g id="edge8_Node000003_Node000005" class="edge">
<title>Node3&#45;&gt;Node5</title>
<g id="a_edge8_Node000003_Node000005"><a xlink:title=" ">
<path fill="none" stroke="#63b8ff" d="M127.33,-109.66C137.06,-91.85 159.18,-51.37 171.94,-28.01"/>
<polygon fill="#63b8ff" stroke="#63b8ff" points="175.05,-29.61 176.77,-19.16 168.9,-26.26 175.05,-29.61"/>
</a>
</g>
</g>
<!-- Node6 -->
<g id="Node000006" class="node">
<title>Node6</title>
<g id="a_Node000006"><a xlink:title=" ">
<polygon fill="#e0e0e0" stroke="#999999" points="132.5,-19 76.5,-19 76.5,0 132.5,0 132.5,-19"/>
<text text-anchor="middle" x="104.5" y="-7" font-family="Helvetica,sans-Serif" font-size="10.00">stddef.h</text>
</a>
</g>
</g>
<!-- Node3&#45;&gt;Node6 -->
<g id="edge9_Node000003_Node000006" class="edge">
<title>Node3&#45;&gt;Node6</title>
<g id="a_edge9_Node000003_Node000006"><a xlink:title=" ">
<path fill="none" stroke="#63b8ff" d="M121.03,-109.66C118.11,-92.17 111.55,-52.8 107.63,-29.27"/>
<polygon fill="#63b8ff" stroke="#63b8ff" points="111.04,-28.45 105.94,-19.16 104.13,-29.6 111.04,-28.45"/>
</a>
</g>
</g>
<!-- Node4&#45;&gt;Node5 -->
<g id="edge5_Node000004_Node000005" class="edge">
<title>Node4&#45;&gt;Node5</title>
<g id="a_edge5_Node000004_Node000005"><a xlink:title=" ">
<path fill="none" stroke="#63b8ff" d="M58.96,-54.98C83.08,-46.23 120.87,-32.51 148.1,-22.62"/>
<polygon fill="#63b8ff" stroke="#63b8ff" points="149.41,-25.87 157.62,-19.17 147.02,-19.29 149.41,-25.87"/>
</a>
</g>
</g>
<!-- Node4&#45;&gt;Node6 -->
<g id="edge6_Node000004_Node000006" class="edge">
<title>Node4&#45;&gt;Node6</title>
<g id="a_edge6_Node000004_Node000006"><a xlink:title=" ">
<path fill="none" stroke="#63b8ff" d="M46.59,-54.98C56.99,-47 72.76,-34.88 85.22,-25.31"/>
<polygon fill="#63b8ff" stroke="#63b8ff" points="87.41,-28.04 93.21,-19.17 83.15,-22.49 87.41,-28.04"/>
</a>
</g>
</g>
<!-- Node7 -->
<g id="Node000007" class="node">
<title>Node7</title>
<g id="a_Node000007"><a xlink:title=" ">
<polygon fill="#e0e0e0" stroke="#999999" points="58,-19 5,-19 5,0 58,0 58,-19"/>
<text text-anchor="middle" x="31.5" y="-7" font-family="Helvetica,sans-Serif" font-size="10.00">stdint.h</text>
</a>
</g>
</g>
<!-- Node4&#45;&gt;Node7 -->
<g id="edge7_Node000004_Node000007" class="edge">
<title>Node4&#45;&gt;Node7</title>
<g id="a_edge7_Node000004_Node000007"><a xlink:title=" ">
<path fill="none" stroke="#63b8ff" d="M34.84,-54.75C34.32,-47.8 33.56,-37.85 32.91,-29.13"/>
<polygon fill="#63b8ff" stroke="#63b8ff" points="36.39,-28.8 32.15,-19.09 29.41,-29.32 36.39,-28.8"/>
</a>
</g>
</g>
<!-- Node9&#45;&gt;Node2 -->
<g id="edge12_Node000009_Node000002" class="edge">
<title>Node9&#45;&gt;Node2</title>
<g id="a_edge12_Node000009_Node000002"><a xlink:title=" ">
<path fill="none" stroke="#63b8ff" d="M242.68,-219.96C251.96,-211.66 265.42,-198.26 273.5,-184 291.95,-151.46 301.51,-108.27 305.72,-84.03"/>
<polygon fill="#63b8ff" stroke="#63b8ff" points="309.19,-84.49 307.34,-74.06 302.28,-83.37 309.19,-84.49"/>
</a>
</g>
</g>
<!-- Node9&#45;&gt;Node4 -->
<g id="edge17_Node000009_Node000004" class="edge">
<title>Node9&#45;&gt;Node4</title>
<g id="a_edge17_Node000009_Node000004"><a xlink:title=" ">
<path fill="none" stroke="#63b8ff" d="M174.47,-219.94C131.31,-212.4 77.26,-200.12 61.5,-184 35.21,-157.11 32.94,-110.07 33.98,-84.08"/>
<polygon fill="#63b8ff" stroke="#63b8ff" points="37.48,-84.25 34.59,-74.06 30.49,-83.83 37.48,-84.25"/>
</a>
</g>
</g>
<!-- Node10 -->
<g id="Node000010" class="node">
<title>Node10</title>
<g id="a_Node000010"><a xlink:href="platform_8h.html" target="_top" xlink:title="Declares internal, runtime CPU/OS feature detection functions.">
<polygon fill="white" stroke="#666666" points="183,-184 70,-184 70,-165 183,-165 183,-184"/>
<text text-anchor="middle" x="126.5" y="-172" font-family="Helvetica,sans-Serif" font-size="10.00">common/platform.h</text>
</a>
</g>
</g>
<!-- Node9&#45;&gt;Node10 -->
<g id="edge13_Node000009_Node000010" class="edge">
<title>Node9&#45;&gt;Node10</title>
<g id="a_edge13_Node000009_Node000010"><a xlink:title=" ">
<path fill="none" stroke="#63b8ff" d="M215.47,-219.98C198.57,-211.54 172.44,-198.47 152.86,-188.68"/>
<polygon fill="#63b8ff" stroke="#63b8ff" points="154.35,-185.51 143.84,-184.17 151.22,-191.77 154.35,-185.51"/>
</a>
</g>
</g>
<!-- Node11 -->
<g id="Node000011" class="node">
<title>Node11</title>
<g id="a_Node000011"><a xlink:title=" ">
<polygon fill="#e0e0e0" stroke="#999999" points="264,-184 201,-184 201,-165 264,-165 264,-184"/>
<text text-anchor="middle" x="232.5" y="-172" font-family="Helvetica,sans-Serif" font-size="10.00">pthread.h</text>
</a>
</g>
</g>
<!-- Node9&#45;&gt;Node11 -->
<g id="edge18_Node000009_Node000011" class="edge">
<title>Node9&#45;&gt;Node11</title>
<g id="a_edge18_Node000009_Node000011"><a xlink:title=" ">
<path fill="none" stroke="#63b8ff" d="M232.5,-219.75C232.5,-212.8 232.5,-202.85 232.5,-194.13"/>
<polygon fill="#63b8ff" stroke="#63b8ff" points="236,-194.09 232.5,-184.09 229,-194.09 236,-194.09"/>
</a>
</g>
</g>
<!-- Node10&#45;&gt;Node2 -->
<g id="edge15_Node000010_Node000002" class="edge">
<title>Node10&#45;&gt;Node2</title>
<g id="a_edge15_Node000010_Node000002"><a xlink:title=" ">
<path fill="none" stroke="#63b8ff" d="M151.83,-164.93C173.5,-157.07 205.12,-144.34 230.5,-129 253.45,-115.13 276.93,-95.05 292.05,-81.2"/>
<polygon fill="#63b8ff" stroke="#63b8ff" points="294.6,-83.61 299.53,-74.23 289.83,-78.49 294.6,-83.61"/>
</a>
</g>
</g>
<!-- Node10&#45;&gt;Node3 -->
<g id="edge14_Node000010_Node000003" class="edge">
<title>Node10&#45;&gt;Node3</title>
<g id="a_edge14_Node000010_Node000003"><a xlink:title=" ">
<path fill="none" stroke="#63b8ff" d="M125.84,-164.75C125.32,-157.8 124.56,-147.85 123.91,-139.13"/>
<polygon fill="#63b8ff" stroke="#63b8ff" points="127.39,-138.8 123.15,-129.09 120.41,-139.32 127.39,-138.8"/>
</a>
</g>
</g>
<!-- Node10&#45;&gt;Node5 -->
<g id="edge16_Node000010_Node000005" class="edge">
<title>Node10&#45;&gt;Node5</title>
<g id="a_edge16_Node000010_Node000005"><a xlink:title=" ">
<path fill="none" stroke="#63b8ff" d="M152.01,-164.9C168.19,-157.96 187.85,-146.44 197.5,-129 215.27,-96.9 200.87,-52.63 190.26,-28.31"/>
<polygon fill="#63b8ff" stroke="#63b8ff" points="193.42,-26.8 186.05,-19.2 187.07,-29.74 193.42,-26.8"/>
</a>
</g>
</g>
</g>
</svg>
