<?xml version="1.0" encoding="UTF-8" standalone="no"?>
<!DOCTYPE svg PUBLIC "-//W3C//DTD SVG 1.1//EN"
 "http://www.w3.org/Graphics/SVG/1.1/DTD/svg11.dtd">
<!-- Generated by graphviz version 2.43.0 (0)
 -->
<!-- Title: t/830_security.c Pages: 1 -->
<svg width="704pt" height="247pt"
 viewBox="0.00 0.00 703.50 247.00" xmlns="http://www.w3.org/2000/svg" xmlns:xlink="http://www.w3.org/1999/xlink">
<g id="graph0" class="graph" transform="scale(1 1) rotate(0) translate(4 243)">
<title>t/830_security.c</title>
<!-- Node1 -->
<g id="Node000001" class="node">
<title>Node1</title>
<g id="a_Node000001"><a xlink:title="Unit test for security&#45;hardening features of the infix library.">
<polygon fill="#999999" stroke="#666666" points="447.5,-239 355.5,-239 355.5,-220 447.5,-220 447.5,-239"/>
<text text-anchor="middle" x="401.5" y="-227" font-family="Helvetica,sans-Serif" font-size="10.00">t/830_security.c</text>
</a>
</g>
</g>
<!-- Node2 -->
<g id="Node000002" class="node">
<title>Node2</title>
<g id="a_Node000002"><a xlink:href="double__tap_8h.html" target="_top" xlink:title="A lightweight, single&#45;header TAP (Test Anything Protocol) library.">
<polygon fill="white" stroke="#666666" points="125,-184 0,-184 0,-165 125,-165 125,-184"/>
<text text-anchor="middle" x="62.5" y="-172" font-family="Helvetica,sans-Serif" font-size="10.00">common/double_tap.h</text>
</a>
</g>
</g>
<!-- Node1&#45;&gt;Node2 -->
<g id="edge1_Node000001_Node000002" class="edge">
<title>Node1&#45;&gt;Node2</title>
<g id="a_edge1_Node000001_Node000002"><a xlink:title=" ">
<path fill="none" stroke="#63b8ff" d="M355.43,-221.3C296.37,-212.06 193.63,-196 126.87,-185.56"/>
<polygon fill="#63b8ff" stroke="#63b8ff" points="127.3,-182.09 116.88,-184 126.22,-189 127.3,-182.09"/>
</a>
</g>
</g>
<!-- Node3 -->
<g id="Node000003" class="node">
<title>Node3</title>
<g id="a_Node000003"><a xlink:href="infix__internals_8h.html" target="_top" xlink:title="Internal data structures, function prototypes, and constants.">
<polygon fill="white" stroke="#666666" points="283.5,-184 143.5,-184 143.5,-165 283.5,-165 283.5,-184"/>
<text text-anchor="middle" x="213.5" y="-172" font-family="Helvetica,sans-Serif" font-size="10.00">common/infix_internals.h</text>
</a>
</g>
</g>
<!-- Node1&#45;&gt;Node3 -->
<g id="edge2_Node000001_Node000003" class="edge">
<title>Node1&#45;&gt;Node3</title>
<g id="a_edge2_Node000001_Node000003"><a xlink:title=" ">
<path fill="none" stroke="#63b8ff" d="M371.29,-219.98C339.46,-211.01 289.14,-196.82 253.9,-186.89"/>
<polygon fill="#63b8ff" stroke="#63b8ff" points="254.52,-183.43 243.94,-184.08 252.62,-190.16 254.52,-183.43"/>
</a>
</g>
</g>
<!-- Node9 -->
<g id="Node000009" class="node">
<title>Node9</title>
<g id="a_Node000009"><a xlink:href="infix_8h.html" target="_top" xlink:title="The public interface for the infix FFI library.">
<polygon fill="white" stroke="#666666" points="372,-129 301,-129 301,-110 372,-110 372,-129"/>
<text text-anchor="middle" x="336.5" y="-117" font-family="Helvetica,sans-Serif" font-size="10.00">infix/infix.h</text>
</a>
</g>
</g>
<!-- Node1&#45;&gt;Node9 -->
<g id="edge15_Node000001_Node000009" class="edge">
<title>Node1&#45;&gt;Node9</title>
<g id="a_edge15_Node000001_Node000009"><a xlink:title=" ">
<path fill="none" stroke="#63b8ff" d="M376.69,-219.95C360.66,-212.99 341.07,-201.42 331.5,-184 324.01,-170.37 326.26,-152.55 329.81,-139.26"/>
<polygon fill="#63b8ff" stroke="#63b8ff" points="333.26,-139.94 332.91,-129.35 326.58,-137.85 333.26,-139.94"/>
</a>
</g>
</g>
<!-- Node11 -->
<g id="Node000011" class="node">
<title>Node11</title>
<g id="a_Node000011"><a xlink:title=" ">
<polygon fill="#e0e0e0" stroke="#999999" points="393,-184 340,-184 340,-165 393,-165 393,-184"/>
<text text-anchor="middle" x="366.5" y="-172" font-family="Helvetica,sans-Serif" font-size="10.00">limits.h</text>
</a>
</g>
</g>
<!-- Node1&#45;&gt;Node11 -->
<g id="edge16_Node000001_Node000011" class="edge">
<title>Node1&#45;&gt;Node11</title>
<g id="a_edge16_Node000001_Node000011"><a xlink:title=" ">
<path fill="none" stroke="#63b8ff" d="M395.72,-219.75C390.88,-212.42 383.82,-201.73 377.86,-192.7"/>
<polygon fill="#63b8ff" stroke="#63b8ff" points="380.6,-190.5 372.17,-184.09 374.76,-194.36 380.6,-190.5"/>
</a>
</g>
</g>
<!-- Node12 -->
<g id="Node000012" class="node">
<title>Node12</title>
<g id="a_Node000012"><a xlink:title=" ">
<polygon fill="#e0e0e0" stroke="#999999" points="464,-184 411,-184 411,-165 464,-165 464,-184"/>
<text text-anchor="middle" x="437.5" y="-172" font-family="Helvetica,sans-Serif" font-size="10.00">stdlib.h</text>
</a>
</g>
</g>
<!-- Node1&#45;&gt;Node12 -->
<g id="edge17_Node000001_Node000012" class="edge">
<title>Node1&#45;&gt;Node12</title>
<g id="a_edge17_Node000001_Node000012"><a xlink:title=" ">
<path fill="none" stroke="#63b8ff" d="M407.44,-219.75C412.48,-212.34 419.84,-201.5 426.01,-192.41"/>
<polygon fill="#63b8ff" stroke="#63b8ff" points="428.94,-194.33 431.67,-184.09 423.15,-190.39 428.94,-194.33"/>
</a>
</g>
</g>
<!-- Node13 -->
<g id="Node000013" class="node">
<title>Node13</title>
<g id="a_Node000013"><a xlink:title=" ">
<polygon fill="#e0e0e0" stroke="#999999" points="537,-184 482,-184 482,-165 537,-165 537,-184"/>
<text text-anchor="middle" x="509.5" y="-172" font-family="Helvetica,sans-Serif" font-size="10.00">signal.h</text>
</a>
</g>
</g>
<!-- Node1&#45;&gt;Node13 -->
<g id="edge18_Node000001_Node000013" class="edge">
<title>Node1&#45;&gt;Node13</title>
<g id="a_edge18_Node000001_Node000013"><a xlink:title=" ">
<path fill="none" stroke="#63b8ff" d="M418.85,-219.98C436.07,-211.54 462.7,-198.47 482.65,-188.68"/>
<polygon fill="#63b8ff" stroke="#63b8ff" points="484.4,-191.72 491.83,-184.17 481.31,-185.43 484.4,-191.72"/>
</a>
</g>
</g>
<!-- Node14 -->
<g id="Node000014" class="node">
<title>Node14</title>
<g id="a_Node000014"><a xlink:title=" ">
<polygon fill="#e0e0e0" stroke="#999999" points="621.5,-184 555.5,-184 555.5,-165 621.5,-165 621.5,-184"/>
<text text-anchor="middle" x="588.5" y="-172" font-family="Helvetica,sans-Serif" font-size="10.00">sys/wait.h</text>
</a>
</g>
</g>
<!-- Node1&#45;&gt;Node14 -->
<g id="edge19_Node000001_Node000014" class="edge">
<title>Node1&#45;&gt;Node14</title>
<g id="a_edge19_Node000001_Node000014"><a xlink:title=" ">
<path fill="none" stroke="#63b8ff" d="M431.54,-219.98C463.21,-211.01 513.27,-196.82 548.31,-186.89"/>
<polygon fill="#63b8ff" stroke="#63b8ff" points="549.55,-190.18 558.22,-184.08 547.64,-183.44 549.55,-190.18"/>
</a>
</g>
</g>
<!-- Node15 -->
<g id="Node000015" class="node">
<title>Node15</title>
<g id="a_Node000015"><a xlink:title=" ">
<polygon fill="#e0e0e0" stroke="#999999" points="695.5,-184 639.5,-184 639.5,-165 695.5,-165 695.5,-184"/>
<text text-anchor="middle" x="667.5" y="-172" font-family="Helvetica,sans-Serif" font-size="10.00">unistd.h</text>
</a>
</g>
</g>
<!-- Node1&#45;&gt;Node15 -->
<g id="edge20_Node000001_Node000015" class="edge">
<title>Node1&#45;&gt;Node15</title>
<g id="a_edge20_Node000001_Node000015"><a xlink:title=" ">
<path fill="none" stroke="#63b8ff" d="M447.65,-220.01C491.79,-211.78 560.49,-198.69 629.12,-184.24"/>
<polygon fill="#63b8ff" stroke="#63b8ff" points="630.18,-187.59 639.24,-182.1 628.73,-180.74 630.18,-187.59"/>
</a>
</g>
</g>
<!-- Node4 -->
<g id="Node000004" class="node">
<title>Node4</title>
<g id="a_Node000004"><a xlink:href="infix__config_8h.html" target="_top" xlink:title="Platform, architecture, and ABI detection macros.">
<polygon fill="white" stroke="#666666" points="140,-74 13,-74 13,-55 140,-55 140,-74"/>
<text text-anchor="middle" x="76.5" y="-62" font-family="Helvetica,sans-Serif" font-size="10.00">common/infix_config.h</text>
</a>
</g>
</g>
<!-- Node3&#45;&gt;Node4 -->
<g id="edge3_Node000003_Node000004" class="edge">
<title>Node3&#45;&gt;Node4</title>
<g id="a_edge3_Node000003_Node000004"><a xlink:title=" ">
<path fill="none" stroke="#63b8ff" d="M187.28,-164.88C167.67,-157.52 141,-145.51 121.5,-129 106.4,-116.22 93.85,-97.28 85.87,-83.41"/>
<polygon fill="#63b8ff" stroke="#63b8ff" points="88.79,-81.45 80.9,-74.37 82.65,-84.82 88.79,-81.45"/>
</a>
</g>
</g>
<!-- Node5 -->
<g id="Node000005" class="node">
<title>Node5</title>
<g id="a_Node000005"><a xlink:href="platform_8h.html" target="_top" xlink:title="Declares internal, runtime CPU/OS feature detection functions.">
<polygon fill="white" stroke="#666666" points="244,-129 131,-129 131,-110 244,-110 244,-129"/>
<text text-anchor="middle" x="187.5" y="-117" font-family="Helvetica,sans-Serif" font-size="10.00">common/platform.h</text>
</a>
</g>
</g>
<!-- Node3&#45;&gt;Node5 -->
<g id="edge4_Node000003_Node000005" class="edge">
<title>Node3&#45;&gt;Node5</title>
<g id="a_edge4_Node000003_Node000005"><a xlink:title=" ">
<path fill="none" stroke="#63b8ff" d="M209.21,-164.75C205.69,-157.57 200.59,-147.18 196.22,-138.27"/>
<polygon fill="#63b8ff" stroke="#63b8ff" points="199.26,-136.53 191.71,-129.09 192.98,-139.61 199.26,-136.53"/>
</a>
</g>
</g>
<!-- Node3&#45;&gt;Node9 -->
<g id="edge10_Node000003_Node000009" class="edge">
<title>Node3&#45;&gt;Node9</title>
<g id="a_edge10_Node000003_Node000009"><a xlink:title=" ">
<path fill="none" stroke="#63b8ff" d="M233.26,-164.98C253.23,-156.38 284.3,-142.99 307.15,-133.15"/>
<polygon fill="#63b8ff" stroke="#63b8ff" points="308.58,-136.34 316.38,-129.17 305.81,-129.91 308.58,-136.34"/>
</a>
</g>
</g>
<!-- Node5&#45;&gt;Node4 -->
<g id="edge8_Node000005_Node000004" class="edge">
<title>Node5&#45;&gt;Node4</title>
<g id="a_edge8_Node000005_Node000004"><a xlink:title=" ">
<path fill="none" stroke="#63b8ff" d="M169.67,-109.98C151.89,-101.5 124.35,-88.35 103.82,-78.54"/>
<polygon fill="#63b8ff" stroke="#63b8ff" points="105.19,-75.32 94.66,-74.17 102.17,-81.64 105.19,-75.32"/>
</a>
</g>
</g>
<!-- Node6 -->
<g id="Node000006" class="node">
<title>Node6</title>
<g id="a_Node000006"><a xlink:href="compat__c23_8h.html" target="_top" xlink:title="Provides forward compatibility macros for C23 features.">
<polygon fill="white" stroke="#666666" points="328,-74 197,-74 197,-55 328,-55 328,-74"/>
<text text-anchor="middle" x="262.5" y="-62" font-family="Helvetica,sans-Serif" font-size="10.00">common/compat_c23.h</text>
</a>
</g>
</g>
<!-- Node5&#45;&gt;Node6 -->
<g id="edge5_Node000005_Node000006" class="edge">
<title>Node5&#45;&gt;Node6</title>
<g id="a_edge5_Node000005_Node000006"><a xlink:title=" ">
<path fill="none" stroke="#63b8ff" d="M199.55,-109.98C210.96,-101.92 228.33,-89.65 241.93,-80.03"/>
<polygon fill="#63b8ff" stroke="#63b8ff" points="244.08,-82.8 250.23,-74.17 240.04,-77.08 244.08,-82.8"/>
</a>
</g>
</g>
<!-- Node7 -->
<g id="Node000007" class="node">
<title>Node7</title>
<g id="a_Node000007"><a xlink:title=" ">
<polygon fill="#e0e0e0" stroke="#999999" points="293.5,-19 231.5,-19 231.5,0 293.5,0 293.5,-19"/>
<text text-anchor="middle" x="262.5" y="-7" font-family="Helvetica,sans-Serif" font-size="10.00">stdbool.h</text>
</a>
</g>
</g>
<!-- Node5&#45;&gt;Node7 -->
<g id="edge9_Node000005_Node000007" class="edge">
<title>Node5&#45;&gt;Node7</title>
<g id="a_edge9_Node000005_Node000007"><a xlink:title=" ">
<path fill="none" stroke="#63b8ff" d="M184.9,-109.59C181.67,-96.63 177.68,-72.24 187.5,-55 195.8,-40.43 210.95,-30.14 225.48,-23.15"/>
<polygon fill="#63b8ff" stroke="#63b8ff" points="227.11,-26.25 234.85,-19.02 224.29,-19.85 227.11,-26.25"/>
</a>
</g>
</g>
<!-- Node6&#45;&gt;Node7 -->
<g id="edge6_Node000006_Node000007" class="edge">
<title>Node6&#45;&gt;Node7</title>
<g id="a_edge6_Node000006_Node000007"><a xlink:title=" ">
<path fill="none" stroke="#63b8ff" d="M262.5,-54.75C262.5,-47.8 262.5,-37.85 262.5,-29.13"/>
<polygon fill="#63b8ff" stroke="#63b8ff" points="266,-29.09 262.5,-19.09 259,-29.09 266,-29.09"/>
</a>
</g>
</g>
<!-- Node8 -->
<g id="Node000008" class="node">
<title>Node8</title>
<g id="a_Node000008"><a xlink:title=" ">
<polygon fill="#e0e0e0" stroke="#999999" points="394.5,-19 338.5,-19 338.5,0 394.5,0 394.5,-19"/>
<text text-anchor="middle" x="366.5" y="-7" font-family="Helvetica,sans-Serif" font-size="10.00">stddef.h</text>
</a>
</g>
</g>
<!-- Node6&#45;&gt;Node8 -->
<g id="edge7_Node000006_Node000008" class="edge">
<title>Node6&#45;&gt;Node8</title>
<g id="a_edge7_Node000006_Node000008"><a xlink:title=" ">
<path fill="none" stroke="#63b8ff" d="M279.21,-54.98C295.71,-46.57 321.2,-33.59 340.38,-23.81"/>
<polygon fill="#63b8ff" stroke="#63b8ff" points="342.17,-26.83 349.49,-19.17 338.99,-20.59 342.17,-26.83"/>
</a>
</g>
</g>
<!-- Node9&#45;&gt;Node6 -->
<g id="edge11_Node000009_Node000006" class="edge">
<title>Node9&#45;&gt;Node6</title>
<g id="a_edge11_Node000009_Node000006"><a xlink:title=" ">
<path fill="none" stroke="#63b8ff" d="M324.61,-109.98C313.35,-101.92 296.21,-89.65 282.79,-80.03"/>
<polygon fill="#63b8ff" stroke="#63b8ff" points="284.77,-77.15 274.61,-74.17 280.7,-82.84 284.77,-77.15"/>
</a>
</g>
</g>
<!-- Node9&#45;&gt;Node7 -->
<g id="edge12_Node000009_Node000007" class="edge">
<title>Node9&#45;&gt;Node7</title>
<g id="a_edge12_Node000009_Node000007"><a xlink:title=" ">
<path fill="none" stroke="#63b8ff" d="M339.31,-109.59C342.84,-96.63 347.32,-72.25 337.5,-55 329.2,-40.43 314.05,-30.14 299.52,-23.15"/>
<polygon fill="#63b8ff" stroke="#63b8ff" points="300.71,-19.85 290.15,-19.02 297.89,-26.25 300.71,-19.85"/>
</a>
</g>
</g>
<!-- Node9&#45;&gt;Node8 -->
<g id="edge13_Node000009_Node000008" class="edge">
<title>Node9&#45;&gt;Node8</title>
<g id="a_edge13_Node000009_Node000008"><a xlink:title=" ">
<path fill="none" stroke="#63b8ff" d="M346.11,-109.69C354.37,-101.41 365.7,-88.18 370.5,-74 375.37,-59.59 373.85,-42.32 371.4,-29.43"/>
<polygon fill="#63b8ff" stroke="#63b8ff" points="374.75,-28.39 369.14,-19.41 367.92,-29.93 374.75,-28.39"/>
</a>
</g>
</g>
<!-- Node10 -->
<g id="Node000010" class="node">
<title>Node10</title>
<g id="a_Node000010"><a xlink:title=" ">
<polygon fill="#e0e0e0" stroke="#999999" points="476,-74 423,-74 423,-55 476,-55 476,-74"/>
<text text-anchor="middle" x="449.5" y="-62" font-family="Helvetica,sans-Serif" font-size="10.00">stdint.h</text>
</a>
</g>
</g>
<!-- Node9&#45;&gt;Node10 -->
<g id="edge14_Node000009_Node000010" class="edge">
<title>Node9&#45;&gt;Node10</title>
<g id="a_edge14_Node000009_Node000010"><a xlink:title=" ">
<path fill="none" stroke="#63b8ff" d="M354.66,-109.98C372.75,-101.5 400.78,-88.35 421.69,-78.54"/>
<polygon fill="#63b8ff" stroke="#63b8ff" points="423.45,-81.59 431.01,-74.17 420.47,-75.25 423.45,-81.59"/>
</a>
</g>
</g>
</g>
</svg>
