<?xml version="1.0" encoding="UTF-8" standalone="no"?>
<!DOCTYPE svg PUBLIC "-//W3C//DTD SVG 1.1//EN"
 "http://www.w3.org/Graphics/SVG/1.1/DTD/svg11.dtd">
<!-- Generated by graphviz version 2.43.0 (0)
 -->
<!-- Title: t/840_arena_allocator.c Pages: 1 -->
<svg width="525pt" height="302pt"
 viewBox="0.00 0.00 525.01 302.00" xmlns="http://www.w3.org/2000/svg" xmlns:xlink="http://www.w3.org/1999/xlink">
<g id="graph0" class="graph" transform="scale(1 1) rotate(0) translate(4 298)">
<title>t/840_arena_allocator.c</title>
<!-- Node1 -->
<g id="Node000001" class="node">
<title>Node1</title>
<g id="a_Node000001"><a xlink:title="Unit tests for the internal arena allocator.">
<polygon fill="#999999" stroke="#666666" points="442.5,-294 312.5,-294 312.5,-275 442.5,-275 442.5,-294"/>
<text text-anchor="middle" x="377.5" y="-282" font-family="Helvetica,sans-Serif" font-size="10.00">t/840_arena_allocator.c</text>
</a>
</g>
</g>
<!-- Node2 -->
<g id="Node000002" class="node">
<title>Node2</title>
<g id="a_Node000002"><a xlink:href="double__tap_8h.html" target="_top" xlink:title="A simple, header&#45;only TAP14&#45;compatible testing framework for C.">
<polygon fill="white" stroke="#666666" points="125,-239 0,-239 0,-220 125,-220 125,-239"/>
<text text-anchor="middle" x="62.5" y="-227" font-family="Helvetica,sans-Serif" font-size="10.00">common/double_tap.h</text>
</a>
</g>
</g>
<!-- Node1&#45;&gt;Node2 -->
<g id="edge1_Node000001_Node000002" class="edge">
<title>Node1&#45;&gt;Node2</title>
<g id="a_edge1_Node000001_Node000002"><a xlink:title=" ">
<path fill="none" stroke="#63b8ff" d="M326.89,-274.98C271.4,-265.65 182.41,-250.67 123.21,-240.71"/>
<polygon fill="#63b8ff" stroke="#63b8ff" points="123.69,-237.25 113.25,-239.04 122.53,-244.15 123.69,-237.25"/>
</a>
</g>
</g>
<!-- Node3 -->
<g id="Node000003" class="node">
<title>Node3</title>
<g id="a_Node000003"><a xlink:href="arena_8c.html" target="_top" xlink:title="Implementation of the internal arena allocator.">
<polygon fill="white" stroke="#666666" points="416,-239 339,-239 339,-220 416,-220 416,-239"/>
<text text-anchor="middle" x="377.5" y="-227" font-family="Helvetica,sans-Serif" font-size="10.00">core/arena.c</text>
</a>
</g>
</g>
<!-- Node1&#45;&gt;Node3 -->
<g id="edge2_Node000001_Node000003" class="edge">
<title>Node1&#45;&gt;Node3</title>
<g id="a_edge2_Node000001_Node000003"><a xlink:title=" ">
<path fill="none" stroke="#63b8ff" d="M377.5,-274.75C377.5,-267.8 377.5,-257.85 377.5,-249.13"/>
<polygon fill="#63b8ff" stroke="#63b8ff" points="381,-249.09 377.5,-239.09 374,-249.09 381,-249.09"/>
</a>
</g>
</g>
<!-- Node6 -->
<g id="Node000006" class="node">
<title>Node6</title>
<g id="a_Node000006"><a xlink:href="infix_8h.html" target="_top" xlink:title=" ">
<polygon fill="white" stroke="#666666" points="219,-129 148,-129 148,-110 219,-110 219,-129"/>
<text text-anchor="middle" x="183.5" y="-117" font-family="Helvetica,sans-Serif" font-size="10.00">infix/infix.h</text>
</a>
</g>
</g>
<!-- Node1&#45;&gt;Node6 -->
<g id="edge15_Node000001_Node000006" class="edge">
<title>Node1&#45;&gt;Node6</title>
<g id="a_edge15_Node000001_Node000006"><a xlink:title=" ">
<path fill="none" stroke="#63b8ff" d="M328.18,-274.97C279.12,-263.58 206.41,-238.15 172.5,-184 163.89,-170.25 168.56,-151.7 174.24,-138.2"/>
<polygon fill="#63b8ff" stroke="#63b8ff" points="177.46,-139.56 178.56,-129.02 171.13,-136.57 177.46,-139.56"/>
</a>
</g>
</g>
<!-- Node9 -->
<g id="Node000009" class="node">
<title>Node9</title>
<g id="a_Node000009"><a xlink:title=" ">
<polygon fill="#e0e0e0" stroke="#999999" points="448,-74 395,-74 395,-55 448,-55 448,-74"/>
<text text-anchor="middle" x="421.5" y="-62" font-family="Helvetica,sans-Serif" font-size="10.00">stdint.h</text>
</a>
</g>
</g>
<!-- Node1&#45;&gt;Node9 -->
<g id="edge16_Node000001_Node000009" class="edge">
<title>Node1&#45;&gt;Node9</title>
<g id="a_edge16_Node000001_Node000009"><a xlink:title=" ">
<path fill="none" stroke="#63b8ff" d="M400.3,-274.97C432.67,-261.42 490.45,-231.54 512.5,-184 532.15,-141.63 479.13,-100.23 445.95,-79.41"/>
<polygon fill="#63b8ff" stroke="#63b8ff" points="447.56,-76.29 437.2,-74.09 443.93,-82.27 447.56,-76.29"/>
</a>
</g>
</g>
<!-- Node12 -->
<g id="Node000012" class="node">
<title>Node12</title>
<g id="a_Node000012"><a xlink:title=" ">
<polygon fill="#e0e0e0" stroke="#999999" points="503,-184 450,-184 450,-165 503,-165 503,-184"/>
<text text-anchor="middle" x="476.5" y="-172" font-family="Helvetica,sans-Serif" font-size="10.00">string.h</text>
</a>
</g>
</g>
<!-- Node1&#45;&gt;Node12 -->
<g id="edge17_Node000001_Node000012" class="edge">
<title>Node1&#45;&gt;Node12</title>
<g id="a_edge17_Node000001_Node000012"><a xlink:title=" ">
<path fill="none" stroke="#63b8ff" d="M387.84,-274.7C397.85,-266.01 413.26,-252.14 425.5,-239 439.59,-223.87 454.23,-205.3 464.19,-192.16"/>
<polygon fill="#63b8ff" stroke="#63b8ff" points="467.08,-194.14 470.27,-184.04 461.47,-189.95 467.08,-194.14"/>
</a>
</g>
</g>
<!-- Node4 -->
<g id="Node000004" class="node">
<title>Node4</title>
<g id="a_Node000004"><a xlink:href="infix__internals_8h.html" target="_top" xlink:title="Declarations for internal&#45;only functions, types, and constants.">
<polygon fill="white" stroke="#666666" points="321.5,-184 181.5,-184 181.5,-165 321.5,-165 321.5,-184"/>
<text text-anchor="middle" x="251.5" y="-172" font-family="Helvetica,sans-Serif" font-size="10.00">common/infix_internals.h</text>
</a>
</g>
</g>
<!-- Node3&#45;&gt;Node4 -->
<g id="edge3_Node000003_Node000004" class="edge">
<title>Node3&#45;&gt;Node4</title>
<g id="a_edge3_Node000003_Node000004"><a xlink:title=" ">
<path fill="none" stroke="#63b8ff" d="M357.26,-219.98C336.8,-211.38 304.97,-197.99 281.57,-188.15"/>
<polygon fill="#63b8ff" stroke="#63b8ff" points="282.69,-184.82 272.11,-184.17 279.97,-191.27 282.69,-184.82"/>
</a>
</g>
</g>
<!-- Node3&#45;&gt;Node9 -->
<g id="edge12_Node000003_Node000009" class="edge">
<title>Node3&#45;&gt;Node9</title>
<g id="a_edge12_Node000003_Node000009"><a xlink:title=" ">
<path fill="none" stroke="#63b8ff" d="M383.66,-219.74C389.45,-211.07 397.89,-197.22 402.5,-184 414.35,-150.02 418.86,-107.94 420.54,-84.17"/>
<polygon fill="#63b8ff" stroke="#63b8ff" points="424.04,-84.28 421.15,-74.08 417.05,-83.85 424.04,-84.28"/>
</a>
</g>
</g>
<!-- Node11 -->
<g id="Node000011" class="node">
<title>Node11</title>
<g id="a_Node000011"><a xlink:title=" ">
<polygon fill="#e0e0e0" stroke="#999999" points="393,-184 340,-184 340,-165 393,-165 393,-184"/>
<text text-anchor="middle" x="366.5" y="-172" font-family="Helvetica,sans-Serif" font-size="10.00">stdlib.h</text>
</a>
</g>
</g>
<!-- Node3&#45;&gt;Node11 -->
<g id="edge13_Node000003_Node000011" class="edge">
<title>Node3&#45;&gt;Node11</title>
<g id="a_edge13_Node000003_Node000011"><a xlink:title=" ">
<path fill="none" stroke="#63b8ff" d="M375.68,-219.75C374.24,-212.8 372.18,-202.85 370.37,-194.13"/>
<polygon fill="#63b8ff" stroke="#63b8ff" points="373.74,-193.17 368.28,-184.09 366.89,-194.59 373.74,-193.17"/>
</a>
</g>
</g>
<!-- Node3&#45;&gt;Node12 -->
<g id="edge14_Node000003_Node000012" class="edge">
<title>Node3&#45;&gt;Node12</title>
<g id="a_edge14_Node000003_Node000012"><a xlink:title=" ">
<path fill="none" stroke="#63b8ff" d="M393.41,-219.98C409.05,-211.61 433.16,-198.7 451.38,-188.95"/>
<polygon fill="#63b8ff" stroke="#63b8ff" points="453.14,-191.98 460.3,-184.17 449.84,-185.8 453.14,-191.98"/>
</a>
</g>
</g>
<!-- Node5 -->
<g id="Node000005" class="node">
<title>Node5</title>
<g id="a_Node000005"><a xlink:href="infix__config_8h.html" target="_top" xlink:title="Internal&#45;only header for platform, architecture, and ABI detection.">
<polygon fill="white" stroke="#666666" points="364,-129 237,-129 237,-110 364,-110 364,-129"/>
<text text-anchor="middle" x="300.5" y="-117" font-family="Helvetica,sans-Serif" font-size="10.00">common/infix_config.h</text>
</a>
</g>
</g>
<!-- Node4&#45;&gt;Node5 -->
<g id="edge4_Node000004_Node000005" class="edge">
<title>Node4&#45;&gt;Node5</title>
<g id="a_edge4_Node000004_Node000005"><a xlink:title=" ">
<path fill="none" stroke="#63b8ff" d="M259.59,-164.75C266.66,-157.11 277.09,-145.82 285.65,-136.56"/>
<polygon fill="#63b8ff" stroke="#63b8ff" points="288.34,-138.81 292.56,-129.09 283.2,-134.06 288.34,-138.81"/>
</a>
</g>
</g>
<!-- Node4&#45;&gt;Node6 -->
<g id="edge5_Node000004_Node000006" class="edge">
<title>Node4&#45;&gt;Node6</title>
<g id="a_edge5_Node000004_Node000006"><a xlink:title=" ">
<path fill="none" stroke="#63b8ff" d="M240.57,-164.98C230.42,-157.07 215.08,-145.11 202.85,-135.58"/>
<polygon fill="#63b8ff" stroke="#63b8ff" points="204.66,-132.56 194.62,-129.17 200.36,-138.08 204.66,-132.56"/>
</a>
</g>
</g>
<!-- Node7 -->
<g id="Node000007" class="node">
<title>Node7</title>
<g id="a_Node000007"><a xlink:title=" ">
<polygon fill="#e0e0e0" stroke="#999999" points="171.5,-19 109.5,-19 109.5,0 171.5,0 171.5,-19"/>
<text text-anchor="middle" x="140.5" y="-7" font-family="Helvetica,sans-Serif" font-size="10.00">stdbool.h</text>
</a>
</g>
</g>
<!-- Node6&#45;&gt;Node7 -->
<g id="edge6_Node000006_Node000007" class="edge">
<title>Node6&#45;&gt;Node7</title>
<g id="a_edge6_Node000006_Node000007"><a xlink:title=" ">
<path fill="none" stroke="#63b8ff" d="M155.85,-109.98C138.92,-103.17 118.61,-91.76 108.5,-74 99.5,-58.19 111.47,-39.53 123.25,-26.55"/>
<polygon fill="#63b8ff" stroke="#63b8ff" points="125.88,-28.87 130.37,-19.27 120.87,-23.97 125.88,-28.87"/>
</a>
</g>
</g>
<!-- Node8 -->
<g id="Node000008" class="node">
<title>Node8</title>
<g id="a_Node000008"><a xlink:title=" ">
<polygon fill="#e0e0e0" stroke="#999999" points="253.5,-19 197.5,-19 197.5,0 253.5,0 253.5,-19"/>
<text text-anchor="middle" x="225.5" y="-7" font-family="Helvetica,sans-Serif" font-size="10.00">stddef.h</text>
</a>
</g>
</g>
<!-- Node6&#45;&gt;Node8 -->
<g id="edge7_Node000006_Node000008" class="edge">
<title>Node6&#45;&gt;Node8</title>
<g id="a_edge7_Node000006_Node000008"><a xlink:title=" ">
<path fill="none" stroke="#63b8ff" d="M211.15,-109.98C228.08,-103.17 248.39,-91.76 258.5,-74 267.56,-58.09 255.25,-39.44 243.17,-26.49"/>
<polygon fill="#63b8ff" stroke="#63b8ff" points="245.43,-23.81 235.87,-19.24 240.5,-28.77 245.43,-23.81"/>
</a>
</g>
</g>
<!-- Node6&#45;&gt;Node9 -->
<g id="edge8_Node000006_Node000009" class="edge">
<title>Node6&#45;&gt;Node9</title>
<g id="a_edge8_Node000006_Node000009"><a xlink:title=" ">
<path fill="none" stroke="#63b8ff" d="M219.13,-110.57C263.76,-100.63 339.84,-83.68 384.92,-73.65"/>
<polygon fill="#63b8ff" stroke="#63b8ff" points="385.86,-77.02 394.86,-71.43 384.33,-70.19 385.86,-77.02"/>
</a>
</g>
</g>
<!-- Node10 -->
<g id="Node000010" class="node">
<title>Node10</title>
<g id="a_Node000010"><a xlink:href="compat__c23_8h.html" target="_top" xlink:title="Provides compatibility shims for C23 features in a C17/C11 project.">
<polygon fill="white" stroke="#666666" points="249,-74 118,-74 118,-55 249,-55 249,-74"/>
<text text-anchor="middle" x="183.5" y="-62" font-family="Helvetica,sans-Serif" font-size="10.00">common/compat_c23.h</text>
</a>
</g>
</g>
<!-- Node6&#45;&gt;Node10 -->
<g id="edge9_Node000006_Node000010" class="edge">
<title>Node6&#45;&gt;Node10</title>
<g id="a_edge9_Node000006_Node000010"><a xlink:title=" ">
<path fill="none" stroke="#63b8ff" d="M183.5,-109.75C183.5,-102.8 183.5,-92.85 183.5,-84.13"/>
<polygon fill="#63b8ff" stroke="#63b8ff" points="187,-84.09 183.5,-74.09 180,-84.09 187,-84.09"/>
</a>
</g>
</g>
<!-- Node10&#45;&gt;Node7 -->
<g id="edge10_Node000010_Node000007" class="edge">
<title>Node10&#45;&gt;Node7</title>
<g id="a_edge10_Node000010_Node000007"><a xlink:title=" ">
<path fill="none" stroke="#63b8ff" d="M176.4,-54.75C170.33,-47.26 161.41,-36.28 153.99,-27.13"/>
<polygon fill="#63b8ff" stroke="#63b8ff" points="156.49,-24.65 147.47,-19.09 151.05,-29.06 156.49,-24.65"/>
</a>
</g>
</g>
<!-- Node10&#45;&gt;Node8 -->
<g id="edge11_Node000010_Node000008" class="edge">
<title>Node10&#45;&gt;Node8</title>
<g id="a_edge11_Node000010_Node000008"><a xlink:title=" ">
<path fill="none" stroke="#63b8ff" d="M190.44,-54.75C196.37,-47.26 205.07,-36.28 212.32,-27.13"/>
<polygon fill="#63b8ff" stroke="#63b8ff" points="215.23,-29.1 218.69,-19.09 209.74,-24.75 215.23,-29.1"/>
</a>
</g>
</g>
</g>
</svg>
