<?xml version="1.0" encoding="UTF-8" standalone="no"?>
<!DOCTYPE svg PUBLIC "-//W3C//DTD SVG 1.1//EN"
 "http://www.w3.org/Graphics/SVG/1.1/DTD/svg11.dtd">
<!-- Generated by graphviz version 2.43.0 (0)
 -->
<!-- Title: t/840_arena_allocator.c Pages: 1 -->
<svg width="468pt" height="302pt"
 viewBox="0.00 0.00 468.00 302.00" xmlns="http://www.w3.org/2000/svg" xmlns:xlink="http://www.w3.org/1999/xlink">
<g id="graph0" class="graph" transform="scale(1 1) rotate(0) translate(4 298)">
<title>t/840_arena_allocator.c</title>
<!-- Node1 -->
<g id="Node000001" class="node">
<title>Node1</title>
<g id="a_Node000001"><a xlink:title="Unit test for the internal arena allocator.">
<polygon fill="#999999" stroke="#666666" points="186.5,-294 56.5,-294 56.5,-275 186.5,-275 186.5,-294"/>
<text text-anchor="middle" x="121.5" y="-282" font-family="Helvetica,sans-Serif" font-size="10.00">t/840_arena_allocator.c</text>
</a>
</g>
</g>
<!-- Node2 -->
<g id="Node000002" class="node">
<title>Node2</title>
<g id="a_Node000002"><a xlink:href="compat__c23_8h.html" target="_top" xlink:title="Provides forward compatibility macros for C23 features.">
<polygon fill="white" stroke="#666666" points="255,-129 124,-129 124,-110 255,-110 255,-129"/>
<text text-anchor="middle" x="189.5" y="-117" font-family="Helvetica,sans-Serif" font-size="10.00">common/compat_c23.h</text>
</a>
</g>
</g>
<!-- Node1&#45;&gt;Node2 -->
<g id="edge1_Node000001_Node000002" class="edge">
<title>Node1&#45;&gt;Node2</title>
<g id="a_edge1_Node000001_Node000002"><a xlink:title=" ">
<path fill="none" stroke="#63b8ff" d="M113.8,-274.87C103.87,-262.65 88.76,-239.62 96.5,-220 110.9,-183.5 145.72,-152.5 168.43,-135.22"/>
<polygon fill="#63b8ff" stroke="#63b8ff" points="170.78,-137.83 176.75,-129.08 166.63,-132.2 170.78,-137.83"/>
</a>
</g>
</g>
<!-- Node4 -->
<g id="Node000004" class="node">
<title>Node4</title>
<g id="a_Node000004"><a xlink:href="infix_8h.html" target="_top" xlink:title="The public interface for the infix FFI library.">
<polygon fill="white" stroke="#666666" points="131,-74 60,-74 60,-55 131,-55 131,-74"/>
<text text-anchor="middle" x="95.5" y="-62" font-family="Helvetica,sans-Serif" font-size="10.00">infix/infix.h</text>
</a>
</g>
</g>
<!-- Node1&#45;&gt;Node4 -->
<g id="edge18_Node000001_Node000004" class="edge">
<title>Node1&#45;&gt;Node4</title>
<g id="a_edge18_Node000001_Node000004"><a xlink:title=" ">
<path fill="none" stroke="#63b8ff" d="M112.75,-274.9C104.94,-266.56 94.05,-253.13 89.5,-239 72.05,-184.85 83.59,-116.24 90.86,-83.92"/>
<polygon fill="#63b8ff" stroke="#63b8ff" points="94.29,-84.63 93.2,-74.09 87.48,-83.01 94.29,-84.63"/>
</a>
</g>
</g>
<!-- Node7 -->
<g id="Node000007" class="node">
<title>Node7</title>
<g id="a_Node000007"><a xlink:title=" ">
<polygon fill="#e0e0e0" stroke="#999999" points="53,-19 0,-19 0,0 53,0 53,-19"/>
<text text-anchor="middle" x="26.5" y="-7" font-family="Helvetica,sans-Serif" font-size="10.00">stdint.h</text>
</a>
</g>
</g>
<!-- Node1&#45;&gt;Node7 -->
<g id="edge19_Node000001_Node000007" class="edge">
<title>Node1&#45;&gt;Node7</title>
<g id="a_edge19_Node000001_Node000007"><a xlink:title=" ">
<path fill="none" stroke="#63b8ff" d="M98.17,-274.97C63.01,-260.44 0.5,-227.31 0.5,-175.5 0.5,-175.5 0.5,-175.5 0.5,-118.5 0.5,-86.15 11.67,-49.82 19.36,-28.62"/>
<polygon fill="#63b8ff" stroke="#63b8ff" points="22.73,-29.6 22.99,-19.01 16.18,-27.13 22.73,-29.6"/>
</a>
</g>
</g>
<!-- Node8 -->
<g id="Node000008" class="node">
<title>Node8</title>
<g id="a_Node000008"><a xlink:href="double__tap_8h.html" target="_top" xlink:title="A lightweight, single&#45;header TAP (Test Anything Protocol) library.">
<polygon fill="white" stroke="#666666" points="230,-239 105,-239 105,-220 230,-220 230,-239"/>
<text text-anchor="middle" x="167.5" y="-227" font-family="Helvetica,sans-Serif" font-size="10.00">common/double_tap.h</text>
</a>
</g>
</g>
<!-- Node1&#45;&gt;Node8 -->
<g id="edge9_Node000001_Node000008" class="edge">
<title>Node1&#45;&gt;Node8</title>
<g id="a_edge9_Node000001_Node000008"><a xlink:title=" ">
<path fill="none" stroke="#63b8ff" d="M129.1,-274.75C135.66,-267.18 145.32,-256.05 153.31,-246.84"/>
<polygon fill="#63b8ff" stroke="#63b8ff" points="156.13,-248.94 160.05,-239.09 150.85,-244.35 156.13,-248.94"/>
</a>
</g>
</g>
<!-- Node9 -->
<g id="Node000009" class="node">
<title>Node9</title>
<g id="a_Node000009"><a xlink:href="infix__internals_8h.html" target="_top" xlink:title="Internal data structures, function prototypes, and constants.">
<polygon fill="white" stroke="#666666" points="388.5,-239 248.5,-239 248.5,-220 388.5,-220 388.5,-239"/>
<text text-anchor="middle" x="318.5" y="-227" font-family="Helvetica,sans-Serif" font-size="10.00">common/infix_internals.h</text>
</a>
</g>
</g>
<!-- Node1&#45;&gt;Node9 -->
<g id="edge10_Node000001_Node000009" class="edge">
<title>Node1&#45;&gt;Node9</title>
<g id="a_edge10_Node000001_Node000009"><a xlink:title=" ">
<path fill="none" stroke="#63b8ff" d="M153.15,-274.98C186.66,-265.97 239.7,-251.7 276.64,-241.76"/>
<polygon fill="#63b8ff" stroke="#63b8ff" points="277.85,-245.06 286.6,-239.08 276.03,-238.3 277.85,-245.06"/>
</a>
</g>
</g>
<!-- Node12 -->
<g id="Node000012" class="node">
<title>Node12</title>
<g id="a_Node000012"><a xlink:title=" ">
<polygon fill="#e0e0e0" stroke="#999999" points="460,-239 407,-239 407,-220 460,-220 460,-239"/>
<text text-anchor="middle" x="433.5" y="-227" font-family="Helvetica,sans-Serif" font-size="10.00">string.h</text>
</a>
</g>
</g>
<!-- Node1&#45;&gt;Node12 -->
<g id="edge20_Node000001_Node000012" class="edge">
<title>Node1&#45;&gt;Node12</title>
<g id="a_edge20_Node000001_Node000012"><a xlink:title=" ">
<path fill="none" stroke="#63b8ff" d="M182.3,-274.98C236.07,-267.16 316.87,-254.69 396.59,-239.05"/>
<polygon fill="#63b8ff" stroke="#63b8ff" points="397.68,-242.4 406.81,-237.03 396.32,-235.54 397.68,-242.4"/>
</a>
</g>
</g>
<!-- Node3 -->
<g id="Node000003" class="node">
<title>Node3</title>
<g id="a_Node000003"><a xlink:href="infix__config_8h.html" target="_top" xlink:title="Platform, architecture, and ABI detection macros.">
<polygon fill="white" stroke="#666666" points="435,-74 308,-74 308,-55 435,-55 435,-74"/>
<text text-anchor="middle" x="371.5" y="-62" font-family="Helvetica,sans-Serif" font-size="10.00">common/infix_config.h</text>
</a>
</g>
</g>
<!-- Node2&#45;&gt;Node3 -->
<g id="edge2_Node000002_Node000003" class="edge">
<title>Node2&#45;&gt;Node3</title>
<g id="a_edge2_Node000002_Node000003"><a xlink:title=" ">
<path fill="none" stroke="#63b8ff" d="M218.74,-109.98C249.56,-101.01 298.28,-86.82 332.39,-76.89"/>
<polygon fill="#63b8ff" stroke="#63b8ff" points="333.41,-80.24 342.03,-74.08 331.45,-73.52 333.41,-80.24"/>
</a>
</g>
</g>
<!-- Node2&#45;&gt;Node4 -->
<g id="edge3_Node000002_Node000004" class="edge">
<title>Node2&#45;&gt;Node4</title>
<g id="a_edge3_Node000002_Node000004"><a xlink:title=" ">
<path fill="none" stroke="#63b8ff" d="M174.4,-109.98C159.68,-101.69 137.08,-88.94 119.83,-79.22"/>
<polygon fill="#63b8ff" stroke="#63b8ff" points="121.31,-76.03 110.88,-74.17 117.87,-82.13 121.31,-76.03"/>
</a>
</g>
</g>
<!-- Node5 -->
<g id="Node000005" class="node">
<title>Node5</title>
<g id="a_Node000005"><a xlink:title=" ">
<polygon fill="#e0e0e0" stroke="#999999" points="228.5,-19 166.5,-19 166.5,0 228.5,0 228.5,-19"/>
<text text-anchor="middle" x="197.5" y="-7" font-family="Helvetica,sans-Serif" font-size="10.00">stdbool.h</text>
</a>
</g>
</g>
<!-- Node2&#45;&gt;Node5 -->
<g id="edge7_Node000002_Node000005" class="edge">
<title>Node2&#45;&gt;Node5</title>
<g id="a_edge7_Node000002_Node000005"><a xlink:title=" ">
<path fill="none" stroke="#63b8ff" d="M190.15,-109.66C191.45,-92.17 194.37,-52.8 196.11,-29.27"/>
<polygon fill="#63b8ff" stroke="#63b8ff" points="199.61,-29.39 196.86,-19.16 192.63,-28.87 199.61,-29.39"/>
</a>
</g>
</g>
<!-- Node6 -->
<g id="Node000006" class="node">
<title>Node6</title>
<g id="a_Node000006"><a xlink:title=" ">
<polygon fill="#e0e0e0" stroke="#999999" points="141.5,-19 85.5,-19 85.5,0 141.5,0 141.5,-19"/>
<text text-anchor="middle" x="113.5" y="-7" font-family="Helvetica,sans-Serif" font-size="10.00">stddef.h</text>
</a>
</g>
</g>
<!-- Node2&#45;&gt;Node6 -->
<g id="edge8_Node000002_Node000006" class="edge">
<title>Node2&#45;&gt;Node6</title>
<g id="a_edge8_Node000002_Node000006"><a xlink:title=" ">
<path fill="none" stroke="#63b8ff" d="M183.28,-109.66C170.64,-91.69 141.75,-50.64 125.38,-27.38"/>
<polygon fill="#63b8ff" stroke="#63b8ff" points="128.21,-25.32 119.59,-19.16 122.49,-29.35 128.21,-25.32"/>
</a>
</g>
</g>
<!-- Node4&#45;&gt;Node5 -->
<g id="edge4_Node000004_Node000005" class="edge">
<title>Node4&#45;&gt;Node5</title>
<g id="a_edge4_Node000004_Node000005"><a xlink:title=" ">
<path fill="none" stroke="#63b8ff" d="M111.89,-54.98C128.07,-46.57 153.07,-33.59 171.88,-23.81"/>
<polygon fill="#63b8ff" stroke="#63b8ff" points="173.55,-26.89 180.81,-19.17 170.33,-20.68 173.55,-26.89"/>
</a>
</g>
</g>
<!-- Node4&#45;&gt;Node6 -->
<g id="edge5_Node000004_Node000006" class="edge">
<title>Node4&#45;&gt;Node6</title>
<g id="a_edge5_Node000004_Node000006"><a xlink:title=" ">
<path fill="none" stroke="#63b8ff" d="M98.47,-54.75C100.86,-47.72 104.29,-37.62 107.27,-28.84"/>
<polygon fill="#63b8ff" stroke="#63b8ff" points="110.68,-29.68 110.58,-19.09 104.05,-27.43 110.68,-29.68"/>
</a>
</g>
</g>
<!-- Node4&#45;&gt;Node7 -->
<g id="edge6_Node000004_Node000007" class="edge">
<title>Node4&#45;&gt;Node7</title>
<g id="a_edge6_Node000004_Node000007"><a xlink:title=" ">
<path fill="none" stroke="#63b8ff" d="M84.41,-54.98C74.01,-47 58.24,-34.88 45.78,-25.31"/>
<polygon fill="#63b8ff" stroke="#63b8ff" points="47.85,-22.49 37.79,-19.17 43.59,-28.04 47.85,-22.49"/>
</a>
</g>
</g>
<!-- Node9&#45;&gt;Node3 -->
<g id="edge11_Node000009_Node000003" class="edge">
<title>Node9&#45;&gt;Node3</title>
<g id="a_edge11_Node000009_Node000003"><a xlink:title=" ">
<path fill="none" stroke="#63b8ff" d="M326.13,-219.96C333.3,-211.46 343.76,-197.73 349.5,-184 363.44,-150.65 368.59,-108.36 370.46,-84.37"/>
<polygon fill="#63b8ff" stroke="#63b8ff" points="373.96,-84.4 371.14,-74.19 366.98,-83.93 373.96,-84.4"/>
</a>
</g>
</g>
<!-- Node9&#45;&gt;Node4 -->
<g id="edge16_Node000009_Node000004" class="edge">
<title>Node9&#45;&gt;Node4</title>
<g id="a_edge16_Node000009_Node000004"><a xlink:title=" ">
<path fill="none" stroke="#63b8ff" d="M280.4,-219.96C234.54,-207.69 158.36,-180.65 115.5,-129 105,-116.35 100,-98.17 97.62,-84.49"/>
<polygon fill="#63b8ff" stroke="#63b8ff" points="101.04,-83.7 96.18,-74.29 94.11,-84.68 101.04,-83.7"/>
</a>
</g>
</g>
<!-- Node10 -->
<g id="Node000010" class="node">
<title>Node10</title>
<g id="a_Node000010"><a xlink:href="platform_8h.html" target="_top" xlink:title="Declares internal, runtime CPU/OS feature detection functions.">
<polygon fill="white" stroke="#666666" points="340,-184 227,-184 227,-165 340,-165 340,-184"/>
<text text-anchor="middle" x="283.5" y="-172" font-family="Helvetica,sans-Serif" font-size="10.00">common/platform.h</text>
</a>
</g>
</g>
<!-- Node9&#45;&gt;Node10 -->
<g id="edge12_Node000009_Node000010" class="edge">
<title>Node9&#45;&gt;Node10</title>
<g id="a_edge12_Node000009_Node000010"><a xlink:title=" ">
<path fill="none" stroke="#63b8ff" d="M312.72,-219.75C307.88,-212.42 300.82,-201.73 294.86,-192.7"/>
<polygon fill="#63b8ff" stroke="#63b8ff" points="297.6,-190.5 289.17,-184.09 291.76,-194.36 297.6,-190.5"/>
</a>
</g>
</g>
<!-- Node11 -->
<g id="Node000011" class="node">
<title>Node11</title>
<g id="a_Node000011"><a xlink:title=" ">
<polygon fill="#e0e0e0" stroke="#999999" points="460,-184 397,-184 397,-165 460,-165 460,-184"/>
<text text-anchor="middle" x="428.5" y="-172" font-family="Helvetica,sans-Serif" font-size="10.00">pthread.h</text>
</a>
</g>
</g>
<!-- Node9&#45;&gt;Node11 -->
<g id="edge17_Node000009_Node000011" class="edge">
<title>Node9&#45;&gt;Node11</title>
<g id="a_edge17_Node000009_Node000011"><a xlink:title=" ">
<path fill="none" stroke="#63b8ff" d="M336.17,-219.98C353.79,-211.5 381.08,-198.35 401.43,-188.54"/>
<polygon fill="#63b8ff" stroke="#63b8ff" points="403.02,-191.66 410.51,-184.17 399.98,-185.36 403.02,-191.66"/>
</a>
</g>
</g>
<!-- Node10&#45;&gt;Node2 -->
<g id="edge13_Node000010_Node000002" class="edge">
<title>Node10&#45;&gt;Node2</title>
<g id="a_edge13_Node000010_Node000002"><a xlink:title=" ">
<path fill="none" stroke="#63b8ff" d="M268.4,-164.98C253.68,-156.69 231.08,-143.94 213.83,-134.22"/>
<polygon fill="#63b8ff" stroke="#63b8ff" points="215.31,-131.03 204.88,-129.17 211.87,-137.13 215.31,-131.03"/>
</a>
</g>
</g>
<!-- Node10&#45;&gt;Node3 -->
<g id="edge14_Node000010_Node000003" class="edge">
<title>Node10&#45;&gt;Node3</title>
<g id="a_edge14_Node000010_Node000003"><a xlink:title=" ">
<path fill="none" stroke="#63b8ff" d="M290.7,-164.66C305.41,-146.61 339.09,-105.28 357.99,-82.08"/>
<polygon fill="#63b8ff" stroke="#63b8ff" points="360.84,-84.12 364.45,-74.16 355.41,-79.7 360.84,-84.12"/>
</a>
</g>
</g>
<!-- Node10&#45;&gt;Node5 -->
<g id="edge15_Node000010_Node000005" class="edge">
<title>Node10&#45;&gt;Node5</title>
<g id="a_edge15_Node000010_Node000005"><a xlink:title=" ">
<path fill="none" stroke="#63b8ff" d="M281.81,-164.98C279.15,-152.51 273.35,-128.73 264.5,-110 249.67,-78.63 225.76,-45.95 210.88,-26.95"/>
<polygon fill="#63b8ff" stroke="#63b8ff" points="213.52,-24.65 204.55,-19.01 208.05,-29.01 213.52,-24.65"/>
</a>
</g>
</g>
</g>
</svg>
