<?xml version="1.0" encoding="UTF-8" standalone="no"?>
<!DOCTYPE svg PUBLIC "-//W3C//DTD SVG 1.1//EN"
 "http://www.w3.org/Graphics/SVG/1.1/DTD/svg11.dtd">
<!-- Generated by graphviz version 2.43.0 (0)
 -->
<!-- Title: t/840_arena_allocator.c Pages: 1 -->
<svg width="473pt" height="302pt"
 viewBox="0.00 0.00 473.00 302.00" xmlns="http://www.w3.org/2000/svg" xmlns:xlink="http://www.w3.org/1999/xlink">

<svg id="main" version="1.1" xmlns="http://www.w3.org/2000/svg" xmlns:xlink="http://www.w3.org/1999/xlink" xml:space="preserve" onload="init(evt)">
<style type="text/css"><![CDATA[
.node, .edge {opacity: 0.7;}
.node.selected, .edge.selected {opacity: 1;}
.edge:hover path { stroke: red; }
.edge:hover polygon { stroke: red; fill: red; }
]]></style>
<script type="application/ecmascript" xlink:href="svg.min.js"/>
<svg id="graph" class="graph">
<g id="graph0" class="graph" transform="scale(1 1) rotate(0) translate(4 298)">
<title>t/840_arena_allocator.c</title>
<!-- Node1 -->
<g id="Node000001" class="node">
<title>Node1</title>
<g id="a_Node000001"><a xlink:title="Unit test for the internal arena allocator.">
<polygon fill="#999999" stroke="#666666" points="191.5,-294 61.5,-294 61.5,-275 191.5,-275 191.5,-294"/>
<text text-anchor="middle" x="126.5" y="-282" font-family="Helvetica,sans-Serif" font-size="10.00">t/840_arena_allocator.c</text>
</a>
</g>
</g>
<!-- Node2 -->
<g id="Node000002" class="node">
<title>Node2</title>
<g id="a_Node000002"><a xlink:href="compat__c23_8h.html" target="_top" xlink:title="Provides forward compatibility macros for C23 features.">
<polygon fill="white" stroke="#666666" points="279,-129 148,-129 148,-110 279,-110 279,-129"/>
<text text-anchor="middle" x="213.5" y="-117" font-family="Helvetica,sans-Serif" font-size="10.00">common/compat_c23.h</text>
</a>
</g>
</g>
<!-- Node1&#45;&gt;Node2 -->
<g id="edge1_Node000001_Node000002" class="edge">
<title>Node1&#45;&gt;Node2</title>
<g id="a_edge1_Node000001_Node000002"><a xlink:title=" ">
<path fill="none" stroke="#63b8ff" d="M118.54,-274.76C108.32,-262.42 92.86,-239.24 101.5,-220 119.14,-180.74 160.78,-150.66 188.01,-134.29"/>
<polygon fill="#63b8ff" stroke="#63b8ff" points="190.09,-137.13 196.98,-129.09 186.58,-131.08 190.09,-137.13"/>
</a>
</g>
</g>
<!-- Node3 -->
<g id="Node000003" class="node">
<title>Node3</title>
<g id="a_Node000003"><a xlink:href="infix_8h.html" target="_top" xlink:title="The public interface for the infix FFI library.">
<polygon fill="white" stroke="#666666" points="155,-74 84,-74 84,-55 155,-55 155,-74"/>
<text text-anchor="middle" x="119.5" y="-62" font-family="Helvetica,sans-Serif" font-size="10.00">infix/infix.h</text>
</a>
</g>
</g>
<!-- Node1&#45;&gt;Node3 -->
<g id="edge16_Node000001_Node000003" class="edge">
<title>Node1&#45;&gt;Node3</title>
<g id="a_edge16_Node000001_Node000003"><a xlink:title=" ">
<path fill="none" stroke="#63b8ff" d="M117.75,-274.9C109.94,-266.56 99.05,-253.13 94.5,-239 76.81,-184.09 99.03,-115.36 111.75,-83.39"/>
<polygon fill="#63b8ff" stroke="#63b8ff" points="115.03,-84.61 115.63,-74.03 108.57,-81.93 115.03,-84.61"/>
</a>
</g>
</g>
<!-- Node6 -->
<g id="Node000006" class="node">
<title>Node6</title>
<g id="a_Node000006"><a xlink:title=" ">
<polygon fill="#e0e0e0" stroke="#999999" points="53,-19 0,-19 0,0 53,0 53,-19"/>
<text text-anchor="middle" x="26.5" y="-7" font-family="Helvetica,sans-Serif" font-size="10.00">stdint.h</text>
</a>
</g>
</g>
<!-- Node1&#45;&gt;Node6 -->
<g id="edge17_Node000001_Node000006" class="edge">
<title>Node1&#45;&gt;Node6</title>
<g id="a_edge17_Node000001_Node000006"><a xlink:title=" ">
<path fill="none" stroke="#63b8ff" d="M103.17,-274.97C68.01,-260.44 5.5,-227.31 5.5,-175.5 5.5,-175.5 5.5,-175.5 5.5,-118.5 5.5,-86.46 14.52,-50.03 20.73,-28.73"/>
<polygon fill="#63b8ff" stroke="#63b8ff" points="24.11,-29.65 23.67,-19.07 17.41,-27.62 24.11,-29.65"/>
</a>
</g>
</g>
<!-- Node7 -->
<g id="Node000007" class="node">
<title>Node7</title>
<g id="a_Node000007"><a xlink:href="double__tap_8h.html" target="_top" xlink:title="A lightweight, single&#45;header TAP (Test Anything Protocol) library.">
<polygon fill="white" stroke="#666666" points="235,-239 110,-239 110,-220 235,-220 235,-239"/>
<text text-anchor="middle" x="172.5" y="-227" font-family="Helvetica,sans-Serif" font-size="10.00">common/double_tap.h</text>
</a>
</g>
</g>
<!-- Node1&#45;&gt;Node7 -->
<g id="edge8_Node000001_Node000007" class="edge">
<title>Node1&#45;&gt;Node7</title>
<g id="a_edge8_Node000001_Node000007"><a xlink:title=" ">
<path fill="none" stroke="#63b8ff" d="M134.1,-274.75C140.66,-267.18 150.32,-256.05 158.31,-246.84"/>
<polygon fill="#63b8ff" stroke="#63b8ff" points="161.13,-248.94 165.05,-239.09 155.85,-244.35 161.13,-248.94"/>
</a>
</g>
</g>
<!-- Node8 -->
<g id="Node000008" class="node">
<title>Node8</title>
<g id="a_Node000008"><a xlink:href="infix__internals_8h.html" target="_top" xlink:title="Internal data structures, function prototypes, and constants.">
<polygon fill="white" stroke="#666666" points="393.5,-239 253.5,-239 253.5,-220 393.5,-220 393.5,-239"/>
<text text-anchor="middle" x="323.5" y="-227" font-family="Helvetica,sans-Serif" font-size="10.00">common/infix_internals.h</text>
</a>
</g>
</g>
<!-- Node1&#45;&gt;Node8 -->
<g id="edge9_Node000001_Node000008" class="edge">
<title>Node1&#45;&gt;Node8</title>
<g id="a_edge9_Node000001_Node000008"><a xlink:title=" ">
<path fill="none" stroke="#63b8ff" d="M158.15,-274.98C191.66,-265.97 244.7,-251.7 281.64,-241.76"/>
<polygon fill="#63b8ff" stroke="#63b8ff" points="282.85,-245.06 291.6,-239.08 281.03,-238.3 282.85,-245.06"/>
</a>
</g>
</g>
<!-- Node11 -->
<g id="Node000011" class="node">
<title>Node11</title>
<g id="a_Node000011"><a xlink:title=" ">
<polygon fill="#e0e0e0" stroke="#999999" points="465,-239 412,-239 412,-220 465,-220 465,-239"/>
<text text-anchor="middle" x="438.5" y="-227" font-family="Helvetica,sans-Serif" font-size="10.00">string.h</text>
</a>
</g>
</g>
<!-- Node1&#45;&gt;Node11 -->
<g id="edge18_Node000001_Node000011" class="edge">
<title>Node1&#45;&gt;Node11</title>
<g id="a_edge18_Node000001_Node000011"><a xlink:title=" ">
<path fill="none" stroke="#63b8ff" d="M187.3,-274.98C241.07,-267.16 321.87,-254.69 401.59,-239.05"/>
<polygon fill="#63b8ff" stroke="#63b8ff" points="402.68,-242.4 411.81,-237.03 401.32,-235.54 402.68,-242.4"/>
</a>
</g>
</g>
<!-- Node2&#45;&gt;Node3 -->
<g id="edge2_Node000002_Node000003" class="edge">
<title>Node2&#45;&gt;Node3</title>
<g id="a_edge2_Node000002_Node000003"><a xlink:title=" ">
<path fill="none" stroke="#63b8ff" d="M198.4,-109.98C183.68,-101.69 161.08,-88.94 143.83,-79.22"/>
<polygon fill="#63b8ff" stroke="#63b8ff" points="145.31,-76.03 134.88,-74.17 141.87,-82.13 145.31,-76.03"/>
</a>
</g>
</g>
<!-- Node4 -->
<g id="Node000004" class="node">
<title>Node4</title>
<g id="a_Node000004"><a xlink:title=" ">
<polygon fill="#e0e0e0" stroke="#999999" points="252.5,-19 190.5,-19 190.5,0 252.5,0 252.5,-19"/>
<text text-anchor="middle" x="221.5" y="-7" font-family="Helvetica,sans-Serif" font-size="10.00">stdbool.h</text>
</a>
</g>
</g>
<!-- Node2&#45;&gt;Node4 -->
<g id="edge6_Node000002_Node000004" class="edge">
<title>Node2&#45;&gt;Node4</title>
<g id="a_edge6_Node000002_Node000004"><a xlink:title=" ">
<path fill="none" stroke="#63b8ff" d="M214.15,-109.66C215.45,-92.17 218.37,-52.8 220.11,-29.27"/>
<polygon fill="#63b8ff" stroke="#63b8ff" points="223.61,-29.39 220.86,-19.16 216.63,-28.87 223.61,-29.39"/>
</a>
</g>
</g>
<!-- Node5 -->
<g id="Node000005" class="node">
<title>Node5</title>
<g id="a_Node000005"><a xlink:title=" ">
<polygon fill="#e0e0e0" stroke="#999999" points="160.5,-19 104.5,-19 104.5,0 160.5,0 160.5,-19"/>
<text text-anchor="middle" x="132.5" y="-7" font-family="Helvetica,sans-Serif" font-size="10.00">stddef.h</text>
</a>
</g>
</g>
<!-- Node2&#45;&gt;Node5 -->
<g id="edge7_Node000002_Node000005" class="edge">
<title>Node2&#45;&gt;Node5</title>
<g id="a_edge7_Node000002_Node000005"><a xlink:title=" ">
<path fill="none" stroke="#63b8ff" d="M206.87,-109.66C193.4,-91.69 162.61,-50.64 145.16,-27.38"/>
<polygon fill="#63b8ff" stroke="#63b8ff" points="147.79,-25.06 138.99,-19.16 142.19,-29.26 147.79,-25.06"/>
</a>
</g>
</g>
<!-- Node3&#45;&gt;Node4 -->
<g id="edge3_Node000003_Node000004" class="edge">
<title>Node3&#45;&gt;Node4</title>
<g id="a_edge3_Node000003_Node000004"><a xlink:title=" ">
<path fill="none" stroke="#63b8ff" d="M135.89,-54.98C152.07,-46.57 177.07,-33.59 195.88,-23.81"/>
<polygon fill="#63b8ff" stroke="#63b8ff" points="197.55,-26.89 204.81,-19.17 194.33,-20.68 197.55,-26.89"/>
</a>
</g>
</g>
<!-- Node3&#45;&gt;Node5 -->
<g id="edge4_Node000003_Node000005" class="edge">
<title>Node3&#45;&gt;Node5</title>
<g id="a_edge4_Node000003_Node000005"><a xlink:title=" ">
<path fill="none" stroke="#63b8ff" d="M121.65,-54.75C123.37,-47.72 125.85,-37.62 128,-28.84"/>
<polygon fill="#63b8ff" stroke="#63b8ff" points="131.41,-29.63 130.39,-19.09 124.61,-27.97 131.41,-29.63"/>
</a>
</g>
</g>
<!-- Node3&#45;&gt;Node6 -->
<g id="edge5_Node000003_Node000006" class="edge">
<title>Node3&#45;&gt;Node6</title>
<g id="a_edge5_Node000003_Node000006"><a xlink:title=" ">
<path fill="none" stroke="#63b8ff" d="M104.56,-54.98C90,-46.69 67.63,-33.94 50.57,-24.22"/>
<polygon fill="#63b8ff" stroke="#63b8ff" points="52.14,-21.08 41.71,-19.17 48.67,-27.16 52.14,-21.08"/>
</a>
</g>
</g>
<!-- Node8&#45;&gt;Node3 -->
<g id="edge15_Node000008_Node000003" class="edge">
<title>Node8&#45;&gt;Node3</title>
<g id="a_edge15_Node000008_Node000003"><a xlink:title=" ">
<path fill="none" stroke="#63b8ff" d="M293.09,-219.97C252.31,-207 180.31,-178.43 139.5,-129 129.04,-116.33 124.03,-98.14 121.64,-84.48"/>
<polygon fill="#63b8ff" stroke="#63b8ff" points="125.06,-83.69 120.19,-74.28 118.13,-84.68 125.06,-83.69"/>
</a>
</g>
</g>
<!-- Node9 -->
<g id="Node000009" class="node">
<title>Node9</title>
<g id="a_Node000009"><a xlink:href="infix__config_8h.html" target="_top" xlink:title="Platform, architecture, and ABI detection macros.">
<polygon fill="white" stroke="#666666" points="463,-129 336,-129 336,-110 463,-110 463,-129"/>
<text text-anchor="middle" x="399.5" y="-117" font-family="Helvetica,sans-Serif" font-size="10.00">common/infix_config.h</text>
</a>
</g>
</g>
<!-- Node8&#45;&gt;Node9 -->
<g id="edge10_Node000008_Node000009" class="edge">
<title>Node8&#45;&gt;Node9</title>
<g id="a_edge10_Node000008_Node000009"><a xlink:title=" ">
<path fill="none" stroke="#63b8ff" d="M337.13,-219.75C348.74,-211.7 365.12,-198.78 375.5,-184 385.02,-170.44 391.33,-152.61 395.07,-139.3"/>
<polygon fill="#63b8ff" stroke="#63b8ff" points="398.52,-139.93 397.63,-129.38 391.75,-138.19 398.52,-139.93"/>
</a>
</g>
</g>
<!-- Node10 -->
<g id="Node000010" class="node">
<title>Node10</title>
<g id="a_Node000010"><a xlink:href="platform_8h.html" target="_top" xlink:title="Declares internal, runtime CPU/OS feature detection functions.">
<polygon fill="white" stroke="#666666" points="366,-184 253,-184 253,-165 366,-165 366,-184"/>
<text text-anchor="middle" x="309.5" y="-172" font-family="Helvetica,sans-Serif" font-size="10.00">common/platform.h</text>
</a>
</g>
</g>
<!-- Node8&#45;&gt;Node10 -->
<g id="edge11_Node000008_Node000010" class="edge">
<title>Node8&#45;&gt;Node10</title>
<g id="a_edge11_Node000008_Node000010"><a xlink:title=" ">
<path fill="none" stroke="#63b8ff" d="M321.19,-219.75C319.33,-212.72 316.66,-202.62 314.35,-193.84"/>
<polygon fill="#63b8ff" stroke="#63b8ff" points="317.71,-192.86 311.77,-184.09 310.94,-194.65 317.71,-192.86"/>
</a>
</g>
</g>
<!-- Node10&#45;&gt;Node2 -->
<g id="edge12_Node000010_Node000002" class="edge">
<title>Node10&#45;&gt;Node2</title>
<g id="a_edge12_Node000010_Node000002"><a xlink:title=" ">
<path fill="none" stroke="#63b8ff" d="M294.08,-164.98C279.05,-156.69 255.96,-143.94 238.34,-134.22"/>
<polygon fill="#63b8ff" stroke="#63b8ff" points="239.65,-130.94 229.2,-129.17 236.27,-137.07 239.65,-130.94"/>
</a>
</g>
</g>
<!-- Node10&#45;&gt;Node4 -->
<g id="edge14_Node000010_Node000004" class="edge">
<title>Node10&#45;&gt;Node4</title>
<g id="a_edge14_Node000010_Node000004"><a xlink:title=" ">
<path fill="none" stroke="#63b8ff" d="M307.48,-164.99C304.35,-152.54 297.7,-128.77 288.5,-110 273.22,-78.85 249.45,-46.1 234.71,-27.03"/>
<polygon fill="#63b8ff" stroke="#63b8ff" points="237.39,-24.76 228.46,-19.06 231.88,-29.08 237.39,-24.76"/>
</a>
</g>
</g>
<!-- Node10&#45;&gt;Node9 -->
<g id="edge13_Node000010_Node000009" class="edge">
<title>Node10&#45;&gt;Node9</title>
<g id="a_edge13_Node000010_Node000009"><a xlink:title=" ">
<path fill="none" stroke="#63b8ff" d="M323.96,-164.98C337.92,-156.77 359.29,-144.18 375.75,-134.49"/>
<polygon fill="#63b8ff" stroke="#63b8ff" points="377.94,-137.26 384.78,-129.17 374.38,-131.23 377.94,-137.26"/>
</a>
</g>
</g>
</g>
</svg>
</svg>

<style type='text/css'>
<![CDATA[
[data-mouse-over-selected='false'] { opacity: 0.7; }
[data-mouse-over-selected='true']  { opacity: 1.0; }
]]>
</style>
<script type="application/ecmascript"><![CDATA[
document.addEventListener('DOMContentLoaded', (event) => {
  highlightEdges();
  highlightAdjacentNodes();
});
]]></script>
</svg>
