<?xml version="1.0" encoding="UTF-8" standalone="no"?>
<!DOCTYPE svg PUBLIC "-//W3C//DTD SVG 1.1//EN"
 "http://www.w3.org/Graphics/SVG/1.1/DTD/svg11.dtd">
<!-- Generated by graphviz version 2.43.0 (0)
 -->
<!-- Title: t/840_arena_allocator.c Pages: 1 -->
<svg width="569pt" height="247pt"
 viewBox="0.00 0.00 569.00 247.00" xmlns="http://www.w3.org/2000/svg" xmlns:xlink="http://www.w3.org/1999/xlink">
<g id="graph0" class="graph" transform="scale(1 1) rotate(0) translate(4 243)">
<title>t/840_arena_allocator.c</title>
<!-- Node1 -->
<g id="Node000001" class="node">
<title>Node1</title>
<g id="a_Node000001"><a xlink:title="Unit test for the internal arena allocator.">
<polygon fill="#999999" stroke="#666666" points="269.5,-239 139.5,-239 139.5,-220 269.5,-220 269.5,-239"/>
<text text-anchor="middle" x="204.5" y="-227" font-family="Helvetica,sans-Serif" font-size="10.00">t/840_arena_allocator.c</text>
</a>
</g>
</g>
<!-- Node2 -->
<g id="Node000002" class="node">
<title>Node2</title>
<g id="a_Node000002"><a xlink:href="double__tap_8h.html" target="_top" xlink:title="A lightweight, single&#45;header TAP (Test Anything Protocol) library.">
<polygon fill="white" stroke="#666666" points="125,-184 0,-184 0,-165 125,-165 125,-184"/>
<text text-anchor="middle" x="62.5" y="-172" font-family="Helvetica,sans-Serif" font-size="10.00">common/double_tap.h</text>
</a>
</g>
</g>
<!-- Node1&#45;&gt;Node2 -->
<g id="edge1_Node000001_Node000002" class="edge">
<title>Node1&#45;&gt;Node2</title>
<g id="a_edge1_Node000001_Node000002"><a xlink:title=" ">
<path fill="none" stroke="#63b8ff" d="M181.69,-219.98C158.33,-211.27 121.8,-197.63 95.33,-187.75"/>
<polygon fill="#63b8ff" stroke="#63b8ff" points="96.32,-184.39 85.73,-184.17 93.87,-190.95 96.32,-184.39"/>
</a>
</g>
</g>
<!-- Node3 -->
<g id="Node000003" class="node">
<title>Node3</title>
<g id="a_Node000003"><a xlink:href="infix_8h.html" target="_top" xlink:title="The public interface for the infix FFI library.">
<polygon fill="white" stroke="#666666" points="253,-129 182,-129 182,-110 253,-110 253,-129"/>
<text text-anchor="middle" x="217.5" y="-117" font-family="Helvetica,sans-Serif" font-size="10.00">infix/infix.h</text>
</a>
</g>
</g>
<!-- Node1&#45;&gt;Node3 -->
<g id="edge2_Node000001_Node000003" class="edge">
<title>Node1&#45;&gt;Node3</title>
<g id="a_edge2_Node000001_Node000003"><a xlink:title=" ">
<path fill="none" stroke="#63b8ff" d="M205.56,-219.66C207.67,-202.17 212.41,-162.8 215.24,-139.27"/>
<polygon fill="#63b8ff" stroke="#63b8ff" points="218.74,-139.51 216.46,-129.16 211.79,-138.67 218.74,-139.51"/>
</a>
</g>
</g>
<!-- Node7 -->
<g id="Node000007" class="node">
<title>Node7</title>
<g id="a_Node000007"><a xlink:title=" ">
<polygon fill="#e0e0e0" stroke="#999999" points="151,-74 98,-74 98,-55 151,-55 151,-74"/>
<text text-anchor="middle" x="124.5" y="-62" font-family="Helvetica,sans-Serif" font-size="10.00">stdint.h</text>
</a>
</g>
</g>
<!-- Node1&#45;&gt;Node7 -->
<g id="edge9_Node000001_Node000007" class="edge">
<title>Node1&#45;&gt;Node7</title>
<g id="a_edge9_Node000001_Node000007"><a xlink:title=" ">
<path fill="none" stroke="#63b8ff" d="M200.2,-219.74C187.56,-193.98 150.33,-118.13 133.25,-83.33"/>
<polygon fill="#63b8ff" stroke="#63b8ff" points="136.37,-81.74 128.82,-74.31 130.09,-84.83 136.37,-81.74"/>
</a>
</g>
</g>
<!-- Node8 -->
<g id="Node000008" class="node">
<title>Node8</title>
<g id="a_Node000008"><a xlink:title=" ">
<polygon fill="#e0e0e0" stroke="#999999" points="286,-184 233,-184 233,-165 286,-165 286,-184"/>
<text text-anchor="middle" x="259.5" y="-172" font-family="Helvetica,sans-Serif" font-size="10.00">string.h</text>
</a>
</g>
</g>
<!-- Node1&#45;&gt;Node8 -->
<g id="edge10_Node000001_Node000008" class="edge">
<title>Node1&#45;&gt;Node8</title>
<g id="a_edge10_Node000001_Node000008"><a xlink:title=" ">
<path fill="none" stroke="#63b8ff" d="M213.58,-219.75C221.59,-212.03 233.46,-200.6 243.12,-191.28"/>
<polygon fill="#63b8ff" stroke="#63b8ff" points="245.81,-193.55 250.59,-184.09 240.96,-188.51 245.81,-193.55"/>
</a>
</g>
</g>
<!-- Node9 -->
<g id="Node000009" class="node">
<title>Node9</title>
<g id="a_Node000009"><a xlink:href="infix__internals_8h.html" target="_top" xlink:title="Internal data structures, function prototypes, and constants.">
<polygon fill="white" stroke="#666666" points="450.5,-184 310.5,-184 310.5,-165 450.5,-165 450.5,-184"/>
<text text-anchor="middle" x="380.5" y="-172" font-family="Helvetica,sans-Serif" font-size="10.00">common/infix_internals.h</text>
</a>
</g>
</g>
<!-- Node1&#45;&gt;Node9 -->
<g id="edge11_Node000001_Node000009" class="edge">
<title>Node1&#45;&gt;Node9</title>
<g id="a_edge11_Node000001_Node000009"><a xlink:title=" ">
<path fill="none" stroke="#63b8ff" d="M232.78,-219.98C262.45,-211.05 309.29,-196.94 342.25,-187.02"/>
<polygon fill="#63b8ff" stroke="#63b8ff" points="343.43,-190.32 352,-184.08 341.42,-183.61 343.43,-190.32"/>
</a>
</g>
</g>
<!-- Node4 -->
<g id="Node000004" class="node">
<title>Node4</title>
<g id="a_Node000004"><a xlink:href="compat__c23_8h.html" target="_top" xlink:title="Provides forward compatibility macros for C23 features.">
<polygon fill="white" stroke="#666666" points="377,-74 246,-74 246,-55 377,-55 377,-74"/>
<text text-anchor="middle" x="311.5" y="-62" font-family="Helvetica,sans-Serif" font-size="10.00">common/compat_c23.h</text>
</a>
</g>
</g>
<!-- Node3&#45;&gt;Node4 -->
<g id="edge3_Node000003_Node000004" class="edge">
<title>Node3&#45;&gt;Node4</title>
<g id="a_edge3_Node000003_Node000004"><a xlink:title=" ">
<path fill="none" stroke="#63b8ff" d="M232.6,-109.98C247.32,-101.69 269.92,-88.94 287.17,-79.22"/>
<polygon fill="#63b8ff" stroke="#63b8ff" points="289.13,-82.13 296.12,-74.17 285.69,-76.03 289.13,-82.13"/>
</a>
</g>
</g>
<!-- Node5 -->
<g id="Node000005" class="node">
<title>Node5</title>
<g id="a_Node000005"><a xlink:title=" ">
<polygon fill="#e0e0e0" stroke="#999999" points="342.5,-19 280.5,-19 280.5,0 342.5,0 342.5,-19"/>
<text text-anchor="middle" x="311.5" y="-7" font-family="Helvetica,sans-Serif" font-size="10.00">stdbool.h</text>
</a>
</g>
</g>
<!-- Node3&#45;&gt;Node5 -->
<g id="edge6_Node000003_Node000005" class="edge">
<title>Node3&#45;&gt;Node5</title>
<g id="a_edge6_Node000003_Node000005"><a xlink:title=" ">
<path fill="none" stroke="#63b8ff" d="M218.28,-109.79C219.87,-96.65 224.48,-71.52 237.5,-55 248.38,-41.19 264.83,-30.69 279.46,-23.37"/>
<polygon fill="#63b8ff" stroke="#63b8ff" points="281.16,-26.43 288.73,-19.01 278.19,-20.1 281.16,-26.43"/>
</a>
</g>
</g>
<!-- Node6 -->
<g id="Node000006" class="node">
<title>Node6</title>
<g id="a_Node000006"><a xlink:title=" ">
<polygon fill="#e0e0e0" stroke="#999999" points="235.5,-19 179.5,-19 179.5,0 235.5,0 235.5,-19"/>
<text text-anchor="middle" x="207.5" y="-7" font-family="Helvetica,sans-Serif" font-size="10.00">stddef.h</text>
</a>
</g>
</g>
<!-- Node3&#45;&gt;Node6 -->
<g id="edge7_Node000003_Node000006" class="edge">
<title>Node3&#45;&gt;Node6</title>
<g id="a_edge7_Node000003_Node000006"><a xlink:title=" ">
<path fill="none" stroke="#63b8ff" d="M213.9,-109.82C210.44,-100.99 205.47,-86.81 203.5,-74 201.21,-59.12 202.5,-42.09 204.19,-29.41"/>
<polygon fill="#63b8ff" stroke="#63b8ff" points="207.71,-29.6 205.78,-19.18 200.79,-28.53 207.71,-29.6"/>
</a>
</g>
</g>
<!-- Node3&#45;&gt;Node7 -->
<g id="edge8_Node000003_Node000007" class="edge">
<title>Node3&#45;&gt;Node7</title>
<g id="a_edge8_Node000003_Node000007"><a xlink:title=" ">
<path fill="none" stroke="#63b8ff" d="M202.56,-109.98C188,-101.69 165.63,-88.94 148.57,-79.22"/>
<polygon fill="#63b8ff" stroke="#63b8ff" points="150.14,-76.08 139.71,-74.17 146.67,-82.16 150.14,-76.08"/>
</a>
</g>
</g>
<!-- Node4&#45;&gt;Node5 -->
<g id="edge4_Node000004_Node000005" class="edge">
<title>Node4&#45;&gt;Node5</title>
<g id="a_edge4_Node000004_Node000005"><a xlink:title=" ">
<path fill="none" stroke="#63b8ff" d="M311.5,-54.75C311.5,-47.8 311.5,-37.85 311.5,-29.13"/>
<polygon fill="#63b8ff" stroke="#63b8ff" points="315,-29.09 311.5,-19.09 308,-29.09 315,-29.09"/>
</a>
</g>
</g>
<!-- Node4&#45;&gt;Node6 -->
<g id="edge5_Node000004_Node000006" class="edge">
<title>Node4&#45;&gt;Node6</title>
<g id="a_edge5_Node000004_Node000006"><a xlink:title=" ">
<path fill="none" stroke="#63b8ff" d="M294.79,-54.98C278.29,-46.57 252.8,-33.59 233.62,-23.81"/>
<polygon fill="#63b8ff" stroke="#63b8ff" points="235.01,-20.59 224.51,-19.17 231.83,-26.83 235.01,-20.59"/>
</a>
</g>
</g>
<!-- Node9&#45;&gt;Node3 -->
<g id="edge17_Node000009_Node000003" class="edge">
<title>Node9&#45;&gt;Node3</title>
<g id="a_edge17_Node000009_Node000003"><a xlink:title=" ">
<path fill="none" stroke="#63b8ff" d="M354.31,-164.98C327.06,-156.13 284.2,-142.19 253.72,-132.28"/>
<polygon fill="#63b8ff" stroke="#63b8ff" points="254.49,-128.85 243.89,-129.08 252.32,-135.5 254.49,-128.85"/>
</a>
</g>
</g>
<!-- Node10 -->
<g id="Node000010" class="node">
<title>Node10</title>
<g id="a_Node000010"><a xlink:href="infix__config_8h.html" target="_top" xlink:title="Platform, architecture, and ABI detection macros.">
<polygon fill="white" stroke="#666666" points="561,-74 434,-74 434,-55 561,-55 561,-74"/>
<text text-anchor="middle" x="497.5" y="-62" font-family="Helvetica,sans-Serif" font-size="10.00">common/infix_config.h</text>
</a>
</g>
</g>
<!-- Node9&#45;&gt;Node10 -->
<g id="edge12_Node000009_Node000010" class="edge">
<title>Node9&#45;&gt;Node10</title>
<g id="a_edge12_Node000009_Node000010"><a xlink:title=" ">
<path fill="none" stroke="#63b8ff" d="M397.26,-164.89C411.99,-156.83 433.52,-143.84 449.5,-129 464.33,-115.23 477.9,-96.43 486.8,-82.87"/>
<polygon fill="#63b8ff" stroke="#63b8ff" points="489.99,-84.38 492.41,-74.06 484.09,-80.62 489.99,-84.38"/>
</a>
</g>
</g>
<!-- Node11 -->
<g id="Node000011" class="node">
<title>Node11</title>
<g id="a_Node000011"><a xlink:href="platform_8h.html" target="_top" xlink:title="Declares internal, runtime CPU/OS feature detection functions.">
<polygon fill="white" stroke="#666666" points="440,-129 327,-129 327,-110 440,-110 440,-129"/>
<text text-anchor="middle" x="383.5" y="-117" font-family="Helvetica,sans-Serif" font-size="10.00">common/platform.h</text>
</a>
</g>
</g>
<!-- Node9&#45;&gt;Node11 -->
<g id="edge13_Node000009_Node000011" class="edge">
<title>Node9&#45;&gt;Node11</title>
<g id="a_edge13_Node000009_Node000011"><a xlink:title=" ">
<path fill="none" stroke="#63b8ff" d="M381,-164.75C381.39,-157.8 381.95,-147.85 382.45,-139.13"/>
<polygon fill="#63b8ff" stroke="#63b8ff" points="385.94,-139.27 383.01,-129.09 378.95,-138.88 385.94,-139.27"/>
</a>
</g>
</g>
<!-- Node11&#45;&gt;Node4 -->
<g id="edge14_Node000011_Node000004" class="edge">
<title>Node11&#45;&gt;Node4</title>
<g id="a_edge14_Node000011_Node000004"><a xlink:title=" ">
<path fill="none" stroke="#63b8ff" d="M371.93,-109.98C361.08,-102 344.62,-89.88 331.62,-80.31"/>
<polygon fill="#63b8ff" stroke="#63b8ff" points="333.41,-77.28 323.28,-74.17 329.26,-82.92 333.41,-77.28"/>
</a>
</g>
</g>
<!-- Node11&#45;&gt;Node5 -->
<g id="edge16_Node000011_Node000005" class="edge">
<title>Node11&#45;&gt;Node5</title>
<g id="a_edge16_Node000011_Node000005"><a xlink:title=" ">
<path fill="none" stroke="#63b8ff" d="M386.74,-109.6C390.85,-96.64 396.33,-72.26 386.5,-55 378.2,-40.43 363.05,-30.14 348.52,-23.15"/>
<polygon fill="#63b8ff" stroke="#63b8ff" points="349.71,-19.85 339.15,-19.02 346.89,-26.25 349.71,-19.85"/>
</a>
</g>
</g>
<!-- Node11&#45;&gt;Node10 -->
<g id="edge15_Node000011_Node000010" class="edge">
<title>Node11&#45;&gt;Node10</title>
<g id="a_edge15_Node000011_Node000010"><a xlink:title=" ">
<path fill="none" stroke="#63b8ff" d="M401.82,-109.98C420.16,-101.46 448.61,-88.23 469.73,-78.41"/>
<polygon fill="#63b8ff" stroke="#63b8ff" points="471.26,-81.56 478.85,-74.17 468.31,-75.21 471.26,-81.56"/>
</a>
</g>
</g>
</g>
</svg>
