<?xml version="1.0" encoding="UTF-8" standalone="no"?>
<!DOCTYPE svg PUBLIC "-//W3C//DTD SVG 1.1//EN"
 "http://www.w3.org/Graphics/SVG/1.1/DTD/svg11.dtd">
<!-- Generated by graphviz version 2.43.0 (0)
 -->
<!-- Title: t/840_arena_allocator.c Pages: 1 -->
<svg width="548pt" height="302pt"
 viewBox="0.00 0.00 548.00 302.00" xmlns="http://www.w3.org/2000/svg" xmlns:xlink="http://www.w3.org/1999/xlink">
<g id="graph0" class="graph" transform="scale(1 1) rotate(0) translate(4 298)">
<title>t/840_arena_allocator.c</title>
<!-- Node1 -->
<g id="Node000001" class="node">
<title>Node1</title>
<g id="a_Node000001"><a xlink:title="Unit test for the internal arena allocator.">
<polygon fill="#999999" stroke="#666666" points="389.5,-294 259.5,-294 259.5,-275 389.5,-275 389.5,-294"/>
<text text-anchor="middle" x="324.5" y="-282" font-family="Helvetica,sans-Serif" font-size="10.00">t/840_arena_allocator.c</text>
</a>
</g>
</g>
<!-- Node2 -->
<g id="Node000002" class="node">
<title>Node2</title>
<g id="a_Node000002"><a xlink:href="double__tap_8h.html" target="_top" xlink:title="A lightweight, single&#45;header TAP (Test Anything Protocol) library.">
<polygon fill="white" stroke="#666666" points="125,-239 0,-239 0,-220 125,-220 125,-239"/>
<text text-anchor="middle" x="62.5" y="-227" font-family="Helvetica,sans-Serif" font-size="10.00">common/double_tap.h</text>
</a>
</g>
</g>
<!-- Node1&#45;&gt;Node2 -->
<g id="edge1_Node000001_Node000002" class="edge">
<title>Node1&#45;&gt;Node2</title>
<g id="a_edge1_Node000001_Node000002"><a xlink:title=" ">
<path fill="none" stroke="#63b8ff" d="M282.41,-274.98C236.8,-265.76 163.98,-251.03 114.75,-241.07"/>
<polygon fill="#63b8ff" stroke="#63b8ff" points="115.42,-237.63 104.92,-239.08 114.03,-244.5 115.42,-237.63"/>
</a>
</g>
</g>
<!-- Node3 -->
<g id="Node000003" class="node">
<title>Node3</title>
<g id="a_Node000003"><a xlink:href="infix_8h.html" target="_top" xlink:title="The public interface for the infix FFI library.">
<polygon fill="white" stroke="#666666" points="176,-129 105,-129 105,-110 176,-110 176,-129"/>
<text text-anchor="middle" x="140.5" y="-117" font-family="Helvetica,sans-Serif" font-size="10.00">infix/infix.h</text>
</a>
</g>
</g>
<!-- Node1&#45;&gt;Node3 -->
<g id="edge2_Node000001_Node000003" class="edge">
<title>Node1&#45;&gt;Node3</title>
<g id="a_edge2_Node000001_Node000003"><a xlink:title=" ">
<path fill="none" stroke="#63b8ff" d="M305.13,-274.95C273.77,-260.28 211.47,-227.64 172.5,-184 160.69,-170.78 152.06,-152.41 146.76,-138.83"/>
<polygon fill="#63b8ff" stroke="#63b8ff" points="149.94,-137.34 143.22,-129.15 143.37,-139.74 149.94,-137.34"/>
</a>
</g>
</g>
<!-- Node7 -->
<g id="Node000007" class="node">
<title>Node7</title>
<g id="a_Node000007"><a xlink:title=" ">
<polygon fill="#e0e0e0" stroke="#999999" points="376,-74 323,-74 323,-55 376,-55 376,-74"/>
<text text-anchor="middle" x="349.5" y="-62" font-family="Helvetica,sans-Serif" font-size="10.00">stdint.h</text>
</a>
</g>
</g>
<!-- Node1&#45;&gt;Node7 -->
<g id="edge9_Node000001_Node000007" class="edge">
<title>Node1&#45;&gt;Node7</title>
<g id="a_edge9_Node000001_Node000007"><a xlink:title=" ">
<path fill="none" stroke="#63b8ff" d="M325.48,-274.95C329.15,-242.95 342.14,-129.68 347.33,-84.4"/>
<polygon fill="#63b8ff" stroke="#63b8ff" points="350.84,-84.56 348.5,-74.22 343.88,-83.76 350.84,-84.56"/>
</a>
</g>
</g>
<!-- Node8 -->
<g id="Node000008" class="node">
<title>Node8</title>
<g id="a_Node000008"><a xlink:title=" ">
<polygon fill="#e0e0e0" stroke="#999999" points="540,-184 487,-184 487,-165 540,-165 540,-184"/>
<text text-anchor="middle" x="513.5" y="-172" font-family="Helvetica,sans-Serif" font-size="10.00">string.h</text>
</a>
</g>
</g>
<!-- Node1&#45;&gt;Node8 -->
<g id="edge10_Node000001_Node000008" class="edge">
<title>Node1&#45;&gt;Node8</title>
<g id="a_edge10_Node000001_Node000008"><a xlink:title=" ">
<path fill="none" stroke="#63b8ff" d="M375.77,-274.98C403.85,-268.49 438.17,-257.43 464.5,-239 481.56,-227.06 495.4,-207.41 503.97,-193.13"/>
<polygon fill="#63b8ff" stroke="#63b8ff" points="507.12,-194.68 509.03,-184.26 501.04,-191.21 507.12,-194.68"/>
</a>
</g>
</g>
<!-- Node9 -->
<g id="Node000009" class="node">
<title>Node9</title>
<g id="a_Node000009"><a xlink:href="infix__internals_8h.html" target="_top" xlink:title="Internal data structures, function prototypes, and constants.">
<polygon fill="white" stroke="#666666" points="321.5,-184 181.5,-184 181.5,-165 321.5,-165 321.5,-184"/>
<text text-anchor="middle" x="251.5" y="-172" font-family="Helvetica,sans-Serif" font-size="10.00">common/infix_internals.h</text>
</a>
</g>
</g>
<!-- Node1&#45;&gt;Node9 -->
<g id="edge11_Node000001_Node000009" class="edge">
<title>Node1&#45;&gt;Node9</title>
<g id="a_edge11_Node000001_Node000009"><a xlink:title=" ">
<path fill="none" stroke="#63b8ff" d="M318.53,-274.66C306.44,-256.77 278.88,-216 263.12,-192.69"/>
<polygon fill="#63b8ff" stroke="#63b8ff" points="265.85,-190.48 257.35,-184.16 260.05,-194.4 265.85,-190.48"/>
</a>
</g>
</g>
<!-- Node11 -->
<g id="Node000011" class="node">
<title>Node11</title>
<g id="a_Node000011"><a xlink:href="arena_8c.html" target="_top" xlink:title="Implements a simple, fast arena (or region&#45;based) allocator.">
<polygon fill="white" stroke="#666666" points="455,-239 378,-239 378,-220 455,-220 455,-239"/>
<text text-anchor="middle" x="416.5" y="-227" font-family="Helvetica,sans-Serif" font-size="10.00">core/arena.c</text>
</a>
</g>
</g>
<!-- Node1&#45;&gt;Node11 -->
<g id="edge14_Node000001_Node000011" class="edge">
<title>Node1&#45;&gt;Node11</title>
<g id="a_edge14_Node000001_Node000011"><a xlink:title=" ">
<path fill="none" stroke="#63b8ff" d="M339.28,-274.98C353.68,-266.69 375.81,-253.94 392.69,-244.22"/>
<polygon fill="#63b8ff" stroke="#63b8ff" points="394.53,-247.19 401.45,-239.17 391.04,-241.13 394.53,-247.19"/>
</a>
</g>
</g>
<!-- Node4 -->
<g id="Node000004" class="node">
<title>Node4</title>
<g id="a_Node000004"><a xlink:href="compat__c23_8h.html" target="_top" xlink:title="Provides forward compatibility macros for C23 features.">
<polygon fill="white" stroke="#666666" points="206,-74 75,-74 75,-55 206,-55 206,-74"/>
<text text-anchor="middle" x="140.5" y="-62" font-family="Helvetica,sans-Serif" font-size="10.00">common/compat_c23.h</text>
</a>
</g>
</g>
<!-- Node3&#45;&gt;Node4 -->
<g id="edge3_Node000003_Node000004" class="edge">
<title>Node3&#45;&gt;Node4</title>
<g id="a_edge3_Node000003_Node000004"><a xlink:title=" ">
<path fill="none" stroke="#63b8ff" d="M140.5,-109.75C140.5,-102.8 140.5,-92.85 140.5,-84.13"/>
<polygon fill="#63b8ff" stroke="#63b8ff" points="144,-84.09 140.5,-74.09 137,-84.09 144,-84.09"/>
</a>
</g>
</g>
<!-- Node5 -->
<g id="Node000005" class="node">
<title>Node5</title>
<g id="a_Node000005"><a xlink:title=" ">
<polygon fill="#e0e0e0" stroke="#999999" points="213.5,-19 151.5,-19 151.5,0 213.5,0 213.5,-19"/>
<text text-anchor="middle" x="182.5" y="-7" font-family="Helvetica,sans-Serif" font-size="10.00">stdbool.h</text>
</a>
</g>
</g>
<!-- Node3&#45;&gt;Node5 -->
<g id="edge6_Node000003_Node000005" class="edge">
<title>Node3&#45;&gt;Node5</title>
<g id="a_edge6_Node000003_Node000005"><a xlink:title=" ">
<path fill="none" stroke="#63b8ff" d="M167.79,-109.88C184.5,-103.03 204.54,-91.62 214.5,-74 223.46,-58.16 211.49,-39.51 199.72,-26.53"/>
<polygon fill="#63b8ff" stroke="#63b8ff" points="202.11,-23.97 192.61,-19.27 197.11,-28.86 202.11,-23.97"/>
</a>
</g>
</g>
<!-- Node6 -->
<g id="Node000006" class="node">
<title>Node6</title>
<g id="a_Node000006"><a xlink:title=" ">
<polygon fill="#e0e0e0" stroke="#999999" points="125.5,-19 69.5,-19 69.5,0 125.5,0 125.5,-19"/>
<text text-anchor="middle" x="97.5" y="-7" font-family="Helvetica,sans-Serif" font-size="10.00">stddef.h</text>
</a>
</g>
</g>
<!-- Node3&#45;&gt;Node6 -->
<g id="edge7_Node000003_Node000006" class="edge">
<title>Node3&#45;&gt;Node6</title>
<g id="a_edge7_Node000003_Node000006"><a xlink:title=" ">
<path fill="none" stroke="#63b8ff" d="M112.85,-109.98C95.92,-103.17 75.61,-91.76 65.5,-74 56.5,-58.19 68.47,-39.53 80.25,-26.55"/>
<polygon fill="#63b8ff" stroke="#63b8ff" points="82.88,-28.87 87.37,-19.27 77.87,-23.97 82.88,-28.87"/>
</a>
</g>
</g>
<!-- Node3&#45;&gt;Node7 -->
<g id="edge8_Node000003_Node000007" class="edge">
<title>Node3&#45;&gt;Node7</title>
<g id="a_edge8_Node000003_Node000007"><a xlink:title=" ">
<path fill="none" stroke="#63b8ff" d="M174.08,-109.98C212.11,-100.34 273.86,-84.68 313.04,-74.75"/>
<polygon fill="#63b8ff" stroke="#63b8ff" points="314.13,-78.08 322.97,-72.23 312.41,-71.29 314.13,-78.08"/>
</a>
</g>
</g>
<!-- Node4&#45;&gt;Node5 -->
<g id="edge4_Node000004_Node000005" class="edge">
<title>Node4&#45;&gt;Node5</title>
<g id="a_edge4_Node000004_Node000005"><a xlink:title=" ">
<path fill="none" stroke="#63b8ff" d="M147.44,-54.75C153.37,-47.26 162.07,-36.28 169.32,-27.13"/>
<polygon fill="#63b8ff" stroke="#63b8ff" points="172.23,-29.1 175.69,-19.09 166.74,-24.75 172.23,-29.1"/>
</a>
</g>
</g>
<!-- Node4&#45;&gt;Node6 -->
<g id="edge5_Node000004_Node000006" class="edge">
<title>Node4&#45;&gt;Node6</title>
<g id="a_edge5_Node000004_Node000006"><a xlink:title=" ">
<path fill="none" stroke="#63b8ff" d="M133.4,-54.75C127.33,-47.26 118.41,-36.28 110.99,-27.13"/>
<polygon fill="#63b8ff" stroke="#63b8ff" points="113.49,-24.65 104.47,-19.09 108.05,-29.06 113.49,-24.65"/>
</a>
</g>
</g>
<!-- Node9&#45;&gt;Node3 -->
<g id="edge13_Node000009_Node000003" class="edge">
<title>Node9&#45;&gt;Node3</title>
<g id="a_edge13_Node000009_Node000003"><a xlink:title=" ">
<path fill="none" stroke="#63b8ff" d="M233.67,-164.98C215.89,-156.5 188.35,-143.35 167.82,-133.54"/>
<polygon fill="#63b8ff" stroke="#63b8ff" points="169.19,-130.32 158.66,-129.17 166.17,-136.64 169.19,-130.32"/>
</a>
</g>
</g>
<!-- Node10 -->
<g id="Node000010" class="node">
<title>Node10</title>
<g id="a_Node000010"><a xlink:href="infix__config_8h.html" target="_top" xlink:title="Platform, architecture, and ABI detection macros.">
<polygon fill="white" stroke="#666666" points="321,-129 194,-129 194,-110 321,-110 321,-129"/>
<text text-anchor="middle" x="257.5" y="-117" font-family="Helvetica,sans-Serif" font-size="10.00">common/infix_config.h</text>
</a>
</g>
</g>
<!-- Node9&#45;&gt;Node10 -->
<g id="edge12_Node000009_Node000010" class="edge">
<title>Node9&#45;&gt;Node10</title>
<g id="a_edge12_Node000009_Node000010"><a xlink:title=" ">
<path fill="none" stroke="#63b8ff" d="M252.49,-164.75C253.28,-157.8 254.4,-147.85 255.39,-139.13"/>
<polygon fill="#63b8ff" stroke="#63b8ff" points="258.88,-139.42 256.53,-129.09 251.92,-138.63 258.88,-139.42"/>
</a>
</g>
</g>
<!-- Node11&#45;&gt;Node7 -->
<g id="edge16_Node000011_Node000007" class="edge">
<title>Node11&#45;&gt;Node7</title>
<g id="a_edge16_Node000011_Node000007"><a xlink:title=" ">
<path fill="none" stroke="#63b8ff" d="M412.9,-219.74C402.36,-194.09 371.4,-118.78 357.01,-83.78"/>
<polygon fill="#63b8ff" stroke="#63b8ff" points="360.16,-82.23 353.12,-74.31 353.68,-84.89 360.16,-82.23"/>
</a>
</g>
</g>
<!-- Node11&#45;&gt;Node8 -->
<g id="edge18_Node000011_Node000008" class="edge">
<title>Node11&#45;&gt;Node8</title>
<g id="a_edge18_Node000011_Node000008"><a xlink:title=" ">
<path fill="none" stroke="#63b8ff" d="M432.08,-219.98C447.27,-211.69 470.6,-198.94 488.4,-189.22"/>
<polygon fill="#63b8ff" stroke="#63b8ff" points="490.53,-192.04 497.63,-184.17 487.18,-185.89 490.53,-192.04"/>
</a>
</g>
</g>
<!-- Node11&#45;&gt;Node9 -->
<g id="edge15_Node000011_Node000009" class="edge">
<title>Node11&#45;&gt;Node9</title>
<g id="a_edge15_Node000011_Node000009"><a xlink:title=" ">
<path fill="none" stroke="#63b8ff" d="M389.99,-219.98C362.29,-211.09 318.64,-197.07 287.76,-187.15"/>
<polygon fill="#63b8ff" stroke="#63b8ff" points="288.81,-183.81 278.22,-184.08 286.67,-190.47 288.81,-183.81"/>
</a>
</g>
</g>
<!-- Node12 -->
<g id="Node000012" class="node">
<title>Node12</title>
<g id="a_Node000012"><a xlink:title=" ">
<polygon fill="#e0e0e0" stroke="#999999" points="469,-184 416,-184 416,-165 469,-165 469,-184"/>
<text text-anchor="middle" x="442.5" y="-172" font-family="Helvetica,sans-Serif" font-size="10.00">stdlib.h</text>
</a>
</g>
</g>
<!-- Node11&#45;&gt;Node12 -->
<g id="edge17_Node000011_Node000012" class="edge">
<title>Node11&#45;&gt;Node12</title>
<g id="a_edge17_Node000011_Node000012"><a xlink:title=" ">
<path fill="none" stroke="#63b8ff" d="M420.79,-219.75C424.31,-212.57 429.41,-202.18 433.78,-193.27"/>
<polygon fill="#63b8ff" stroke="#63b8ff" points="437.02,-194.61 438.29,-184.09 430.74,-191.53 437.02,-194.61"/>
</a>
</g>
</g>
</g>
</svg>
