<?xml version="1.0" encoding="UTF-8" standalone="no"?>
<!DOCTYPE svg PUBLIC "-//W3C//DTD SVG 1.1//EN"
 "http://www.w3.org/Graphics/SVG/1.1/DTD/svg11.dtd">
<!-- Generated by graphviz version 2.43.0 (0)
 -->
<!-- Title: t/850_regression_cases.c Pages: 1 -->
<svg width="662pt" height="192pt"
 viewBox="0.00 0.00 662.00 192.00" xmlns="http://www.w3.org/2000/svg" xmlns:xlink="http://www.w3.org/1999/xlink">
<g id="graph0" class="graph" transform="scale(1 1) rotate(0) translate(4 188)">
<title>t/850_regression_cases.c</title>
<!-- Node1 -->
<g id="Node000001" class="node">
<title>Node1</title>
<g id="a_Node000001"><a xlink:title="Contains a data&#45;driven suite of deterministic unit tests for specific bugs found by fuzzing.">
<polygon fill="#999999" stroke="#666666" points="322,-184 183,-184 183,-165 322,-165 322,-184"/>
<text text-anchor="middle" x="252.5" y="-172" font-family="Helvetica,sans-Serif" font-size="10.00">t/850_regression_cases.c</text>
</a>
</g>
</g>
<!-- Node2 -->
<g id="Node000002" class="node">
<title>Node2</title>
<g id="a_Node000002"><a xlink:href="double__tap_8h.html" target="_top" xlink:title="A simple, header&#45;only TAP14&#45;compatible testing framework for C.">
<polygon fill="white" stroke="#666666" points="125,-129 0,-129 0,-110 125,-110 125,-129"/>
<text text-anchor="middle" x="62.5" y="-117" font-family="Helvetica,sans-Serif" font-size="10.00">common/double_tap.h</text>
</a>
</g>
</g>
<!-- Node1&#45;&gt;Node2 -->
<g id="edge1_Node000001_Node000002" class="edge">
<title>Node1&#45;&gt;Node2</title>
<g id="a_edge1_Node000001_Node000002"><a xlink:title=" ">
<path fill="none" stroke="#63b8ff" d="M221.97,-164.98C189.8,-156.01 138.94,-141.82 103.33,-131.89"/>
<polygon fill="#63b8ff" stroke="#63b8ff" points="103.84,-128.4 93.27,-129.08 101.96,-135.14 103.84,-128.4"/>
</a>
</g>
</g>
<!-- Node3 -->
<g id="Node000003" class="node">
<title>Node3</title>
<g id="a_Node000003"><a xlink:title=" ">
<polygon fill="#e0e0e0" stroke="#999999" points="230,-129 143,-129 143,-110 230,-110 230,-129"/>
<text text-anchor="middle" x="186.5" y="-117" font-family="Helvetica,sans-Serif" font-size="10.00">fuzz_helpers.h</text>
</a>
</g>
</g>
<!-- Node1&#45;&gt;Node3 -->
<g id="edge2_Node000001_Node000003" class="edge">
<title>Node1&#45;&gt;Node3</title>
<g id="a_edge2_Node000001_Node000003"><a xlink:title=" ">
<path fill="none" stroke="#63b8ff" d="M241.9,-164.98C232.04,-157.07 217.15,-145.11 205.28,-135.58"/>
<polygon fill="#63b8ff" stroke="#63b8ff" points="207.29,-132.7 197.3,-129.17 202.9,-138.16 207.29,-132.7"/>
</a>
</g>
</g>
<!-- Node4 -->
<g id="Node000004" class="node">
<title>Node4</title>
<g id="a_Node000004"><a xlink:href="fuzz__regression__helpers_8h.html" target="_top" xlink:title="Helpers for creating regression tests from fuzzer&#45;discovered inputs.">
<polygon fill="white" stroke="#666666" points="391,-129 248,-129 248,-110 391,-110 391,-129"/>
<text text-anchor="middle" x="319.5" y="-117" font-family="Helvetica,sans-Serif" font-size="10.00">fuzz_regression_helpers.h</text>
</a>
</g>
</g>
<!-- Node1&#45;&gt;Node4 -->
<g id="edge3_Node000001_Node000004" class="edge">
<title>Node1&#45;&gt;Node4</title>
<g id="a_edge3_Node000001_Node000004"><a xlink:title=" ">
<path fill="none" stroke="#63b8ff" d="M263.26,-164.98C273.27,-157.07 288.39,-145.11 300.43,-135.58"/>
<polygon fill="#63b8ff" stroke="#63b8ff" points="302.87,-138.12 308.54,-129.17 298.53,-132.63 302.87,-138.12"/>
</a>
</g>
</g>
<!-- Node8 -->
<g id="Node000008" class="node">
<title>Node8</title>
<g id="a_Node000008"><a xlink:href="infix_8h.html" target="_top" xlink:title=" ">
<polygon fill="white" stroke="#666666" points="514,-129 443,-129 443,-110 514,-110 514,-129"/>
<text text-anchor="middle" x="478.5" y="-117" font-family="Helvetica,sans-Serif" font-size="10.00">infix/infix.h</text>
</a>
</g>
</g>
<!-- Node1&#45;&gt;Node8 -->
<g id="edge7_Node000001_Node000008" class="edge">
<title>Node1&#45;&gt;Node8</title>
<g id="a_edge7_Node000001_Node000008"><a xlink:title=" ">
<path fill="none" stroke="#63b8ff" d="M288.81,-164.98C327.97,-155.8 390.39,-141.16 432.85,-131.21"/>
<polygon fill="#63b8ff" stroke="#63b8ff" points="433.72,-134.6 442.65,-128.91 432.12,-127.78 433.72,-134.6"/>
</a>
</g>
</g>
<!-- Node5 -->
<g id="Node000005" class="node">
<title>Node5</title>
<g id="a_Node000005"><a xlink:title=" ">
<polygon fill="#e0e0e0" stroke="#999999" points="412.5,-19 356.5,-19 356.5,0 412.5,0 412.5,-19"/>
<text text-anchor="middle" x="384.5" y="-7" font-family="Helvetica,sans-Serif" font-size="10.00">stddef.h</text>
</a>
</g>
</g>
<!-- Node4&#45;&gt;Node5 -->
<g id="edge4_Node000004_Node000005" class="edge">
<title>Node4&#45;&gt;Node5</title>
<g id="a_edge4_Node000004_Node000005"><a xlink:title=" ">
<path fill="none" stroke="#63b8ff" d="M324.82,-109.66C335.54,-91.85 359.9,-51.37 373.96,-28.01"/>
<polygon fill="#63b8ff" stroke="#63b8ff" points="377.13,-29.53 379.29,-19.16 371.13,-25.92 377.13,-29.53"/>
</a>
</g>
</g>
<!-- Node6 -->
<g id="Node000006" class="node">
<title>Node6</title>
<g id="a_Node000006"><a xlink:title=" ">
<polygon fill="#e0e0e0" stroke="#999999" points="247,-74 194,-74 194,-55 247,-55 247,-74"/>
<text text-anchor="middle" x="220.5" y="-62" font-family="Helvetica,sans-Serif" font-size="10.00">stdlib.h</text>
</a>
</g>
</g>
<!-- Node4&#45;&gt;Node6 -->
<g id="edge5_Node000004_Node000006" class="edge">
<title>Node4&#45;&gt;Node6</title>
<g id="a_edge5_Node000004_Node000006"><a xlink:title=" ">
<path fill="none" stroke="#63b8ff" d="M303.59,-109.98C287.95,-101.61 263.84,-88.7 245.62,-78.95"/>
<polygon fill="#63b8ff" stroke="#63b8ff" points="247.16,-75.8 236.7,-74.17 243.86,-81.98 247.16,-75.8"/>
</a>
</g>
</g>
<!-- Node7 -->
<g id="Node000007" class="node">
<title>Node7</title>
<g id="a_Node000007"><a xlink:title=" ">
<polygon fill="#e0e0e0" stroke="#999999" points="318,-74 265,-74 265,-55 318,-55 318,-74"/>
<text text-anchor="middle" x="291.5" y="-62" font-family="Helvetica,sans-Serif" font-size="10.00">string.h</text>
</a>
</g>
</g>
<!-- Node4&#45;&gt;Node7 -->
<g id="edge6_Node000004_Node000007" class="edge">
<title>Node4&#45;&gt;Node7</title>
<g id="a_edge6_Node000004_Node000007"><a xlink:title=" ">
<path fill="none" stroke="#63b8ff" d="M314.88,-109.75C311.04,-102.49 305.48,-91.95 300.74,-82.98"/>
<polygon fill="#63b8ff" stroke="#63b8ff" points="303.8,-81.3 296.04,-74.09 297.61,-84.57 303.8,-81.3"/>
</a>
</g>
</g>
<!-- Node8&#45;&gt;Node5 -->
<g id="edge9_Node000008_Node000005" class="edge">
<title>Node8&#45;&gt;Node5</title>
<g id="a_edge9_Node000008_Node000005"><a xlink:title=" ">
<path fill="none" stroke="#63b8ff" d="M455.73,-109.99C439.3,-102.75 417.77,-90.84 404.5,-74 394.33,-61.09 389.29,-42.93 386.81,-29.34"/>
<polygon fill="#63b8ff" stroke="#63b8ff" points="390.24,-28.57 385.28,-19.21 383.32,-29.62 390.24,-28.57"/>
</a>
</g>
</g>
<!-- Node9 -->
<g id="Node000009" class="node">
<title>Node9</title>
<g id="a_Node000009"><a xlink:title=" ">
<polygon fill="#e0e0e0" stroke="#999999" points="556.5,-19 494.5,-19 494.5,0 556.5,0 556.5,-19"/>
<text text-anchor="middle" x="525.5" y="-7" font-family="Helvetica,sans-Serif" font-size="10.00">stdbool.h</text>
</a>
</g>
</g>
<!-- Node8&#45;&gt;Node9 -->
<g id="edge8_Node000008_Node000009" class="edge">
<title>Node8&#45;&gt;Node9</title>
<g id="a_edge8_Node000008_Node000009"><a xlink:title=" ">
<path fill="none" stroke="#63b8ff" d="M506.15,-109.98C523.08,-103.17 543.39,-91.76 553.5,-74 562.21,-58.71 551.87,-40.21 541.38,-27.13"/>
<polygon fill="#63b8ff" stroke="#63b8ff" points="543.87,-24.65 534.67,-19.4 538.59,-29.25 543.87,-24.65"/>
</a>
</g>
</g>
<!-- Node10 -->
<g id="Node000010" class="node">
<title>Node10</title>
<g id="a_Node000010"><a xlink:title=" ">
<polygon fill="#e0e0e0" stroke="#999999" points="654,-74 601,-74 601,-55 654,-55 654,-74"/>
<text text-anchor="middle" x="627.5" y="-62" font-family="Helvetica,sans-Serif" font-size="10.00">stdint.h</text>
</a>
</g>
</g>
<!-- Node8&#45;&gt;Node10 -->
<g id="edge10_Node000008_Node000010" class="edge">
<title>Node8&#45;&gt;Node10</title>
<g id="a_edge10_Node000008_Node000010"><a xlink:title=" ">
<path fill="none" stroke="#63b8ff" d="M502.44,-109.98C527.06,-101.23 565.62,-87.51 593.42,-77.62"/>
<polygon fill="#63b8ff" stroke="#63b8ff" points="594.88,-80.82 603.12,-74.17 592.53,-74.22 594.88,-80.82"/>
</a>
</g>
</g>
<!-- Node11 -->
<g id="Node000011" class="node">
<title>Node11</title>
<g id="a_Node000011"><a xlink:href="compat__c23_8h.html" target="_top" xlink:title="Provides compatibility shims for C23 features in a C17/C11 project.">
<polygon fill="white" stroke="#666666" points="544,-74 413,-74 413,-55 544,-55 544,-74"/>
<text text-anchor="middle" x="478.5" y="-62" font-family="Helvetica,sans-Serif" font-size="10.00">common/compat_c23.h</text>
</a>
</g>
</g>
<!-- Node8&#45;&gt;Node11 -->
<g id="edge11_Node000008_Node000011" class="edge">
<title>Node8&#45;&gt;Node11</title>
<g id="a_edge11_Node000008_Node000011"><a xlink:title=" ">
<path fill="none" stroke="#63b8ff" d="M478.5,-109.75C478.5,-102.8 478.5,-92.85 478.5,-84.13"/>
<polygon fill="#63b8ff" stroke="#63b8ff" points="482,-84.09 478.5,-74.09 475,-84.09 482,-84.09"/>
</a>
</g>
</g>
<!-- Node11&#45;&gt;Node5 -->
<g id="edge13_Node000011_Node000005" class="edge">
<title>Node11&#45;&gt;Node5</title>
<g id="a_edge13_Node000011_Node000005"><a xlink:title=" ">
<path fill="none" stroke="#63b8ff" d="M463.4,-54.98C448.68,-46.69 426.08,-33.94 408.83,-24.22"/>
<polygon fill="#63b8ff" stroke="#63b8ff" points="410.31,-21.03 399.88,-19.17 406.87,-27.13 410.31,-21.03"/>
</a>
</g>
</g>
<!-- Node11&#45;&gt;Node9 -->
<g id="edge12_Node000011_Node000009" class="edge">
<title>Node11&#45;&gt;Node9</title>
<g id="a_edge12_Node000011_Node000009"><a xlink:title=" ">
<path fill="none" stroke="#63b8ff" d="M486.26,-54.75C492.97,-47.18 502.84,-36.05 511.01,-26.84"/>
<polygon fill="#63b8ff" stroke="#63b8ff" points="513.87,-28.89 517.88,-19.09 508.63,-24.25 513.87,-28.89"/>
</a>
</g>
</g>
</g>
</svg>
