<?xml version="1.0" encoding="UTF-8" standalone="no"?>
<!DOCTYPE svg PUBLIC "-//W3C//DTD SVG 1.1//EN"
 "http://www.w3.org/Graphics/SVG/1.1/DTD/svg11.dtd">
<!-- Generated by graphviz version 2.43.0 (0)
 -->
<!-- Title: t/850_regression_cases.c Pages: 1 -->
<!--zoomable 357 -->

<svg id="main" version="1.1" xmlns="http://www.w3.org/2000/svg" xmlns:xlink="http://www.w3.org/1999/xlink" xml:space="preserve" onload="init(evt)">
<style type="text/css"><![CDATA[
.node, .edge {opacity: 0.7;}
.node.selected, .edge.selected {opacity: 1;}
.edge:hover path { stroke: red; }
.edge:hover polygon { stroke: red; fill: red; }
]]></style>

<defs>
  <circle id="rim" cx="0" cy="0" r="7"/>
  <circle id="rim2" cx="0" cy="0" r="3.5"/>
  <g id="zoomPlus">
    <use xlink:href="#rim" fill="#404040"><set attributeName="fill" to="#808080" begin="zoomplus.mouseover" end="zoomplus.mouseout"/></use>
    <path d="M-4,0h8M0,-4v8" fill="none" stroke="white" stroke-width="1.5" pointer-events="none"/>
  </g>
  <g id="zoomMin">
    <use xlink:href="#rim" fill="#404040"><set attributeName="fill" to="#808080" begin="zoomminus.mouseover" end="zoomminus.mouseout"/></use>
    <path d="M-4,0h8" fill="none" stroke="white" stroke-width="1.5" pointer-events="none"/>
  </g>
  <g id="arrowUp" transform="translate(30 24)">
    <use xlink:href="#rim"/>
    <path pointer-events="none" fill="none" stroke="white" stroke-width="1.5" d="M0,-3.0v7 M-2.5,-0.5L0,-3.0L2.5,-0.5"/>
  </g>
  <g id="arrowRight" transform="rotate(90) translate(36 -43)">
    <use xlink:href="#rim"/>
    <path pointer-events="none" fill="none" stroke="white" stroke-width="1.5" d="M0,-3.0v7 M-2.5,-0.5L0,-3.0L2.5,-0.5"/>
  </g>
  <g id="arrowDown" transform="rotate(180) translate(-30 -48)">
    <use xlink:href="#rim"/>
    <path pointer-events="none" fill="none" stroke="white" stroke-width="1.5" d="M0,-3.0v7 M-2.5,-0.5L0,-3.0L2.5,-0.5"/>
  </g>
  <g id="arrowLeft" transform="rotate(270) translate(-36 17)">
    <use xlink:href="#rim"/>
    <path pointer-events="none" fill="none" stroke="white" stroke-width="1.5" d="M0,-3.0v7 M-2.5,-0.5L0,-3.0L2.5,-0.5"/>
  </g>
  <g id="resetDef">
    <use xlink:href="#rim2" fill="#404040"><set attributeName="fill" to="#808080" begin="reset.mouseover" end="reset.mouseout"/></use>
  </g>
</defs>
<script type="application/ecmascript">
var viewWidth = 802;
var viewHeight = 357;
var sectionId = 'dynsection-0';
</script>
<script type="application/ecmascript" xlink:href="svg.min.js"/>
<svg id="graph" class="graph">
<g id="viewport">
<title>t/850_regression_cases.c</title>
<!-- Node1 -->
<g id="Node000001" class="node">
<title>Node1</title>
<g id="a_Node000001"><a xlink:title="A suite of regression tests for bugs discovered by fuzzing.">
<polygon fill="#999999" stroke="#666666" points="501.5,-349 362.5,-349 362.5,-330 501.5,-330 501.5,-349"/>
<text text-anchor="middle" x="432" y="-337" font-family="Helvetica,sans-Serif" font-size="10.00">t/850_regression_cases.c</text>
</a>
</g>
</g>
<!-- Node2 -->
<g id="Node000002" class="node">
<title>Node2</title>
<g id="a_Node000002"><a xlink:href="compat__c23_8h.html" target="_top" xlink:title="Provides forward compatibility macros for C23 features.">
<polygon fill="white" stroke="#666666" points="273.5,-129 142.5,-129 142.5,-110 273.5,-110 273.5,-129"/>
<text text-anchor="middle" x="208" y="-117" font-family="Helvetica,sans-Serif" font-size="10.00">common/compat_c23.h</text>
</a>
</g>
</g>
<!-- Node1&#45;&gt;Node2 -->
<g id="edge1_Node000001_Node000002" class="edge">
<title>Node1&#45;&gt;Node2</title>
<g id="a_edge1_Node000001_Node000002"><a xlink:title=" ">
<path fill="none" stroke="#63b8ff" d="M393.96,-329.95C348.71,-317.73 274.25,-290.8 234,-239 211.25,-209.72 207.49,-164.68 207.37,-139.39"/>
<polygon fill="#63b8ff" stroke="#63b8ff" points="210.87,-139.34 207.51,-129.29 203.87,-139.24 210.87,-139.34"/>
</a>
</g>
</g>
<!-- Node3 -->
<g id="Node000003" class="node">
<title>Node3</title>
<g id="a_Node000003"><a xlink:href="infix_8h.html" target="_top" xlink:title="The public interface for the infix FFI library.">
<polygon fill="white" stroke="#666666" points="149.5,-74 78.5,-74 78.5,-55 149.5,-55 149.5,-74"/>
<text text-anchor="middle" x="114" y="-62" font-family="Helvetica,sans-Serif" font-size="10.00">infix/infix.h</text>
</a>
</g>
</g>
<!-- Node1&#45;&gt;Node3 -->
<g id="edge28_Node000001_Node000003" class="edge">
<title>Node1&#45;&gt;Node3</title>
<g id="a_edge28_Node000001_Node000003"><a xlink:title=" ">
<path fill="none" stroke="#63b8ff" d="M362.11,-335.4C239.85,-328.05 0,-304.23 0,-230.5 0,-230.5 0,-230.5 0,-173.5 0,-127.47 49.58,-95.18 83.35,-78.53"/>
<polygon fill="#63b8ff" stroke="#63b8ff" points="85.28,-81.49 92.82,-74.05 82.29,-75.16 85.28,-81.49"/>
</a>
</g>
</g>
<!-- Node7 -->
<g id="Node000007" class="node">
<title>Node7</title>
<g id="a_Node000007"><a xlink:href="double__tap_8h.html" target="_top" xlink:title="A lightweight, single&#45;header TAP (Test Anything Protocol) library.">
<polygon fill="white" stroke="#666666" points="793.5,-294 668.5,-294 668.5,-275 793.5,-275 793.5,-294"/>
<text text-anchor="middle" x="731" y="-282" font-family="Helvetica,sans-Serif" font-size="10.00">common/double_tap.h</text>
</a>
</g>
</g>
<!-- Node1&#45;&gt;Node7 -->
<g id="edge8_Node000001_Node000007" class="edge">
<title>Node1&#45;&gt;Node7</title>
<g id="a_edge8_Node000001_Node000007"><a xlink:title=" ">
<path fill="none" stroke="#63b8ff" d="M480.04,-329.98C532.41,-320.7 616.24,-305.84 672.43,-295.88"/>
<polygon fill="#63b8ff" stroke="#63b8ff" points="673.35,-299.27 682.58,-294.08 672.13,-292.38 673.35,-299.27"/>
</a>
</g>
</g>
<!-- Node8 -->
<g id="Node000008" class="node">
<title>Node8</title>
<g id="a_Node000008"><a xlink:href="fuzz__helpers_8h.html" target="_top" xlink:title="Common definitions, structures, and helpers for all fuzzer targets.">
<polygon fill="white" stroke="#666666" points="475.5,-294 388.5,-294 388.5,-275 475.5,-275 475.5,-294"/>
<text text-anchor="middle" x="432" y="-282" font-family="Helvetica,sans-Serif" font-size="10.00">fuzz_helpers.h</text>
</a>
</g>
</g>
<!-- Node1&#45;&gt;Node8 -->
<g id="edge9_Node000001_Node000008" class="edge">
<title>Node1&#45;&gt;Node8</title>
<g id="a_edge9_Node000001_Node000008"><a xlink:title=" ">
<path fill="none" stroke="#63b8ff" d="M432,-329.75C432,-322.8 432,-312.85 432,-304.13"/>
<polygon fill="#63b8ff" stroke="#63b8ff" points="435.5,-304.09 432,-294.09 428.5,-304.09 435.5,-304.09"/>
</a>
</g>
</g>
<!-- Node15 -->
<g id="Node000015" class="node">
<title>Node15</title>
<g id="a_Node000015"><a xlink:href="fuzz__regression__helpers_8h.html" target="_top" xlink:title="Helper functions specifically for running regression tests from saved fuzzer inputs.">
<polygon fill="white" stroke="#666666" points="650.5,-294 507.5,-294 507.5,-275 650.5,-275 650.5,-294"/>
<text text-anchor="middle" x="579" y="-282" font-family="Helvetica,sans-Serif" font-size="10.00">fuzz_regression_helpers.h</text>
</a>
</g>
</g>
<!-- Node1&#45;&gt;Node15 -->
<g id="edge24_Node000001_Node000015" class="edge">
<title>Node1&#45;&gt;Node15</title>
<g id="a_edge24_Node000001_Node000015"><a xlink:title=" ">
<path fill="none" stroke="#63b8ff" d="M455.62,-329.98C479.9,-321.23 517.95,-307.51 545.37,-297.62"/>
<polygon fill="#63b8ff" stroke="#63b8ff" points="546.73,-300.85 554.95,-294.17 544.36,-294.27 546.73,-300.85"/>
</a>
</g>
</g>
<!-- Node2&#45;&gt;Node3 -->
<g id="edge2_Node000002_Node000003" class="edge">
<title>Node2&#45;&gt;Node3</title>
<g id="a_edge2_Node000002_Node000003"><a xlink:title=" ">
<path fill="none" stroke="#63b8ff" d="M192.9,-109.98C178.18,-101.69 155.58,-88.94 138.33,-79.22"/>
<polygon fill="#63b8ff" stroke="#63b8ff" points="139.81,-76.03 129.38,-74.17 136.37,-82.13 139.81,-76.03"/>
</a>
</g>
</g>
<!-- Node4 -->
<g id="Node000004" class="node">
<title>Node4</title>
<g id="a_Node000004"><a xlink:title=" ">
<polygon fill="#e0e0e0" stroke="#999999" points="300,-19 238,-19 238,0 300,0 300,-19"/>
<text text-anchor="middle" x="269" y="-7" font-family="Helvetica,sans-Serif" font-size="10.00">stdbool.h</text>
</a>
</g>
</g>
<!-- Node2&#45;&gt;Node4 -->
<g id="edge6_Node000002_Node000004" class="edge">
<title>Node2&#45;&gt;Node4</title>
<g id="a_edge6_Node000002_Node000004"><a xlink:title=" ">
<path fill="none" stroke="#63b8ff" d="M212.99,-109.66C223.05,-91.85 245.92,-51.37 259.11,-28.01"/>
<polygon fill="#63b8ff" stroke="#63b8ff" points="262.24,-29.59 264.11,-19.16 256.14,-26.14 262.24,-29.59"/>
</a>
</g>
</g>
<!-- Node5 -->
<g id="Node000005" class="node">
<title>Node5</title>
<g id="a_Node000005"><a xlink:title=" ">
<polygon fill="#e0e0e0" stroke="#999999" points="487,-19 431,-19 431,0 487,0 487,-19"/>
<text text-anchor="middle" x="459" y="-7" font-family="Helvetica,sans-Serif" font-size="10.00">stddef.h</text>
</a>
</g>
</g>
<!-- Node2&#45;&gt;Node5 -->
<g id="edge7_Node000002_Node000005" class="edge">
<title>Node2&#45;&gt;Node5</title>
<g id="a_edge7_Node000002_Node000005"><a xlink:title=" ">
<path fill="none" stroke="#63b8ff" d="M228.12,-109.84C272.38,-90.8 378.36,-45.2 429.88,-23.03"/>
<polygon fill="#63b8ff" stroke="#63b8ff" points="431.33,-26.21 439.14,-19.05 428.57,-19.78 431.33,-26.21"/>
</a>
</g>
</g>
<!-- Node3&#45;&gt;Node4 -->
<g id="edge3_Node000003_Node000004" class="edge">
<title>Node3&#45;&gt;Node4</title>
<g id="a_edge3_Node000003_Node000004"><a xlink:title=" ">
<path fill="none" stroke="#63b8ff" d="M138.9,-54.98C164.7,-46.16 205.22,-32.31 234.18,-22.41"/>
<polygon fill="#63b8ff" stroke="#63b8ff" points="235.57,-25.63 243.9,-19.08 233.31,-19.01 235.57,-25.63"/>
</a>
</g>
</g>
<!-- Node3&#45;&gt;Node5 -->
<g id="edge4_Node000003_Node000005" class="edge">
<title>Node3&#45;&gt;Node5</title>
<g id="a_edge4_Node000003_Node000005"><a xlink:title=" ">
<path fill="none" stroke="#63b8ff" d="M149.62,-58.03C214.99,-47.99 353.55,-26.7 420.79,-16.37"/>
<polygon fill="#63b8ff" stroke="#63b8ff" points="421.6,-19.79 430.95,-14.81 420.53,-12.87 421.6,-19.79"/>
</a>
</g>
</g>
<!-- Node6 -->
<g id="Node000006" class="node">
<title>Node6</title>
<g id="a_Node000006"><a xlink:title=" ">
<polygon fill="#e0e0e0" stroke="#999999" points="102.5,-19 49.5,-19 49.5,0 102.5,0 102.5,-19"/>
<text text-anchor="middle" x="76" y="-7" font-family="Helvetica,sans-Serif" font-size="10.00">stdint.h</text>
</a>
</g>
</g>
<!-- Node3&#45;&gt;Node6 -->
<g id="edge5_Node000003_Node000006" class="edge">
<title>Node3&#45;&gt;Node6</title>
<g id="a_edge5_Node000003_Node000006"><a xlink:title=" ">
<path fill="none" stroke="#63b8ff" d="M107.73,-54.75C102.41,-47.34 94.64,-36.5 88.12,-27.41"/>
<polygon fill="#63b8ff" stroke="#63b8ff" points="90.83,-25.18 82.16,-19.09 85.14,-29.26 90.83,-25.18"/>
</a>
</g>
</g>
<!-- Node8&#45;&gt;Node3 -->
<g id="edge17_Node000008_Node000003" class="edge">
<title>Node8&#45;&gt;Node3</title>
<g id="a_edge17_Node000008_Node000003"><a xlink:title=" ">
<path fill="none" stroke="#63b8ff" d="M388.25,-279.82C346.7,-274.94 283.43,-263.83 234,-239 170.8,-207.25 147.4,-193.78 119,-129 112.82,-114.9 111.88,-97.36 112.31,-84.28"/>
<polygon fill="#63b8ff" stroke="#63b8ff" points="115.82,-84.35 112.95,-74.15 108.83,-83.91 115.82,-84.35"/>
</a>
</g>
</g>
<!-- Node8&#45;&gt;Node4 -->
<g id="edge18_Node000008_Node000004" class="edge">
<title>Node8&#45;&gt;Node4</title>
<g id="a_edge18_Node000008_Node000004"><a xlink:title=" ">
<path fill="none" stroke="#63b8ff" d="M432.03,-274.78C432.22,-262.46 433.12,-239.3 437,-220 446.99,-170.32 493.6,-153.13 467,-110 432.86,-54.63 357.43,-28.99 310.16,-17.97"/>
<polygon fill="#63b8ff" stroke="#63b8ff" points="310.75,-14.52 300.23,-15.77 309.24,-21.35 310.75,-14.52"/>
</a>
</g>
</g>
<!-- Node8&#45;&gt;Node5 -->
<g id="edge19_Node000008_Node000005" class="edge">
<title>Node8&#45;&gt;Node5</title>
<g id="a_edge19_Node000008_Node000005"><a xlink:title=" ">
<path fill="none" stroke="#63b8ff" d="M454.54,-274.97C470.78,-267.72 492.04,-255.81 505,-239 522.99,-215.67 524,-204.96 524,-175.5 524,-175.5 524,-175.5 524,-118.5 524,-81.38 495.46,-46.03 476.2,-26.41"/>
<polygon fill="#63b8ff" stroke="#63b8ff" points="478.47,-23.72 468.87,-19.23 473.57,-28.73 478.47,-23.72"/>
</a>
</g>
</g>
<!-- Node8&#45;&gt;Node6 -->
<g id="edge20_Node000008_Node000006" class="edge">
<title>Node8&#45;&gt;Node6</title>
<g id="a_edge20_Node000008_Node000006"><a xlink:title=" ">
<path fill="none" stroke="#63b8ff" d="M388.33,-280.79C285.75,-273.22 38,-247.49 38,-175.5 38,-175.5 38,-175.5 38,-118.5 38,-85.02 54.45,-48.84 65.7,-28.01"/>
<polygon fill="#63b8ff" stroke="#63b8ff" points="68.87,-29.53 70.72,-19.1 62.76,-26.1 68.87,-29.53"/>
</a>
</g>
</g>
<!-- Node9 -->
<g id="Node000009" class="node">
<title>Node9</title>
<g id="a_Node000009"><a xlink:href="infix__internals_8h.html" target="_top" xlink:title="Internal data structures, function prototypes, and constants.">
<polygon fill="white" stroke="#666666" points="383,-239 243,-239 243,-220 383,-220 383,-239"/>
<text text-anchor="middle" x="313" y="-227" font-family="Helvetica,sans-Serif" font-size="10.00">common/infix_internals.h</text>
</a>
</g>
</g>
<!-- Node8&#45;&gt;Node9 -->
<g id="edge10_Node000008_Node000009" class="edge">
<title>Node8&#45;&gt;Node9</title>
<g id="a_edge10_Node000008_Node000009"><a xlink:title=" ">
<path fill="none" stroke="#63b8ff" d="M412.88,-274.98C393.65,-266.42 363.77,-253.11 341.69,-243.28"/>
<polygon fill="#63b8ff" stroke="#63b8ff" points="343.03,-240.04 332.47,-239.17 340.18,-246.44 343.03,-240.04"/>
</a>
</g>
</g>
<!-- Node12 -->
<g id="Node000012" class="node">
<title>Node12</title>
<g id="a_Node000012"><a xlink:title=" ">
<polygon fill="#e0e0e0" stroke="#999999" points="496,-239 446,-239 446,-220 496,-220 496,-239"/>
<text text-anchor="middle" x="471" y="-227" font-family="Helvetica,sans-Serif" font-size="10.00">stdio.h</text>
</a>
</g>
</g>
<!-- Node8&#45;&gt;Node12 -->
<g id="edge21_Node000008_Node000012" class="edge">
<title>Node8&#45;&gt;Node12</title>
<g id="a_edge21_Node000008_Node000012"><a xlink:title=" ">
<path fill="none" stroke="#63b8ff" d="M438.44,-274.75C443.89,-267.34 451.86,-256.5 458.56,-247.41"/>
<polygon fill="#63b8ff" stroke="#63b8ff" points="461.57,-249.22 464.68,-239.09 455.93,-245.07 461.57,-249.22"/>
</a>
</g>
</g>
<!-- Node13 -->
<g id="Node000013" class="node">
<title>Node13</title>
<g id="a_Node000013"><a xlink:title=" ">
<polygon fill="#e0e0e0" stroke="#999999" points="605.5,-239 552.5,-239 552.5,-220 605.5,-220 605.5,-239"/>
<text text-anchor="middle" x="579" y="-227" font-family="Helvetica,sans-Serif" font-size="10.00">stdlib.h</text>
</a>
</g>
</g>
<!-- Node8&#45;&gt;Node13 -->
<g id="edge22_Node000008_Node000013" class="edge">
<title>Node8&#45;&gt;Node13</title>
<g id="a_edge22_Node000008_Node000013"><a xlink:title=" ">
<path fill="none" stroke="#63b8ff" d="M455.62,-274.98C479.9,-266.23 517.95,-252.51 545.37,-242.62"/>
<polygon fill="#63b8ff" stroke="#63b8ff" points="546.73,-245.85 554.95,-239.17 544.36,-239.27 546.73,-245.85"/>
</a>
</g>
</g>
<!-- Node14 -->
<g id="Node000014" class="node">
<title>Node14</title>
<g id="a_Node000014"><a xlink:title=" ">
<polygon fill="#e0e0e0" stroke="#999999" points="676.5,-239 623.5,-239 623.5,-220 676.5,-220 676.5,-239"/>
<text text-anchor="middle" x="650" y="-227" font-family="Helvetica,sans-Serif" font-size="10.00">string.h</text>
</a>
</g>
</g>
<!-- Node8&#45;&gt;Node14 -->
<g id="edge23_Node000008_Node000014" class="edge">
<title>Node8&#45;&gt;Node14</title>
<g id="a_edge23_Node000008_Node000014"><a xlink:title=" ">
<path fill="none" stroke="#63b8ff" d="M467.03,-274.98C507.19,-265.22 572.73,-249.29 613.5,-239.37"/>
<polygon fill="#63b8ff" stroke="#63b8ff" points="614.42,-242.75 623.31,-236.99 612.76,-235.95 614.42,-242.75"/>
</a>
</g>
</g>
<!-- Node9&#45;&gt;Node3 -->
<g id="edge16_Node000009_Node000003" class="edge">
<title>Node9&#45;&gt;Node3</title>
<g id="a_edge16_Node000009_Node000003"><a xlink:title=" ">
<path fill="none" stroke="#63b8ff" d="M284.08,-219.96C244.52,-206.82 173.89,-177.9 134,-129 123.61,-116.27 118.59,-98.09 116.18,-84.44"/>
<polygon fill="#63b8ff" stroke="#63b8ff" points="119.61,-83.66 114.71,-74.26 112.68,-84.66 119.61,-83.66"/>
</a>
</g>
</g>
<!-- Node10 -->
<g id="Node000010" class="node">
<title>Node10</title>
<g id="a_Node000010"><a xlink:href="infix__config_8h.html" target="_top" xlink:title="Platform, architecture, and ABI detection macros.">
<polygon fill="white" stroke="#666666" points="457.5,-129 330.5,-129 330.5,-110 457.5,-110 457.5,-129"/>
<text text-anchor="middle" x="394" y="-117" font-family="Helvetica,sans-Serif" font-size="10.00">common/infix_config.h</text>
</a>
</g>
</g>
<!-- Node9&#45;&gt;Node10 -->
<g id="edge11_Node000009_Node000010" class="edge">
<title>Node9&#45;&gt;Node10</title>
<g id="a_edge11_Node000009_Node000010"><a xlink:title=" ">
<path fill="none" stroke="#63b8ff" d="M328.23,-219.89C340.95,-212.01 358.76,-199.27 370,-184 379.94,-170.51 386.24,-152.41 389.88,-138.99"/>
<polygon fill="#63b8ff" stroke="#63b8ff" points="393.34,-139.57 392.33,-129.02 386.54,-137.89 393.34,-139.57"/>
</a>
</g>
</g>
<!-- Node11 -->
<g id="Node000011" class="node">
<title>Node11</title>
<g id="a_Node000011"><a xlink:href="platform_8h.html" target="_top" xlink:title="Declares internal, runtime CPU/OS feature detection functions.">
<polygon fill="white" stroke="#666666" points="360.5,-184 247.5,-184 247.5,-165 360.5,-165 360.5,-184"/>
<text text-anchor="middle" x="304" y="-172" font-family="Helvetica,sans-Serif" font-size="10.00">common/platform.h</text>
</a>
</g>
</g>
<!-- Node9&#45;&gt;Node11 -->
<g id="edge12_Node000009_Node000011" class="edge">
<title>Node9&#45;&gt;Node11</title>
<g id="a_edge12_Node000009_Node000011"><a xlink:title=" ">
<path fill="none" stroke="#63b8ff" d="M311.51,-219.75C310.33,-212.8 308.64,-202.85 307.16,-194.13"/>
<polygon fill="#63b8ff" stroke="#63b8ff" points="310.58,-193.36 305.46,-184.09 303.68,-194.53 310.58,-193.36"/>
</a>
</g>
</g>
<!-- Node11&#45;&gt;Node2 -->
<g id="edge13_Node000011_Node000002" class="edge">
<title>Node11&#45;&gt;Node2</title>
<g id="a_edge13_Node000011_Node000002"><a xlink:title=" ">
<path fill="none" stroke="#63b8ff" d="M288.58,-164.98C273.55,-156.69 250.46,-143.94 232.84,-134.22"/>
<polygon fill="#63b8ff" stroke="#63b8ff" points="234.15,-130.94 223.7,-129.17 230.77,-137.07 234.15,-130.94"/>
</a>
</g>
</g>
<!-- Node11&#45;&gt;Node4 -->
<g id="edge15_Node000011_Node000004" class="edge">
<title>Node11&#45;&gt;Node4</title>
<g id="a_edge15_Node000011_Node000004"><a xlink:title=" ">
<path fill="none" stroke="#63b8ff" d="M302.12,-164.74C296.63,-139.2 280.58,-64.43 273.02,-29.23"/>
<polygon fill="#63b8ff" stroke="#63b8ff" points="276.41,-28.35 270.89,-19.31 269.57,-29.82 276.41,-28.35"/>
</a>
</g>
</g>
<!-- Node11&#45;&gt;Node10 -->
<g id="edge14_Node000011_Node000010" class="edge">
<title>Node11&#45;&gt;Node10</title>
<g id="a_edge14_Node000011_Node000010"><a xlink:title=" ">
<path fill="none" stroke="#63b8ff" d="M318.46,-164.98C332.42,-156.77 353.79,-144.18 370.25,-134.49"/>
<polygon fill="#63b8ff" stroke="#63b8ff" points="372.44,-137.26 379.28,-129.17 368.88,-131.23 372.44,-137.26"/>
</a>
</g>
</g>
<!-- Node15&#45;&gt;Node5 -->
<g id="edge25_Node000015_Node000005" class="edge">
<title>Node15&#45;&gt;Node5</title>
<g id="a_edge25_Node000015_Node000005"><a xlink:title=" ">
<path fill="none" stroke="#63b8ff" d="M621.68,-274.99C643.67,-268.55 669.29,-257.53 686,-239 705.73,-217.12 705,-204.96 705,-175.5 705,-175.5 705,-175.5 705,-118.5 705,-28.88 566.43,-12.95 497.29,-10.58"/>
<polygon fill="#63b8ff" stroke="#63b8ff" points="497.31,-7.08 487.22,-10.31 497.12,-14.08 497.31,-7.08"/>
</a>
</g>
</g>
<!-- Node15&#45;&gt;Node13 -->
<g id="edge26_Node000015_Node000013" class="edge">
<title>Node15&#45;&gt;Node13</title>
<g id="a_edge26_Node000015_Node000013"><a xlink:title=" ">
<path fill="none" stroke="#63b8ff" d="M579,-274.75C579,-267.8 579,-257.85 579,-249.13"/>
<polygon fill="#63b8ff" stroke="#63b8ff" points="582.5,-249.09 579,-239.09 575.5,-249.09 582.5,-249.09"/>
</a>
</g>
</g>
<!-- Node15&#45;&gt;Node14 -->
<g id="edge27_Node000015_Node000014" class="edge">
<title>Node15&#45;&gt;Node14</title>
<g id="a_edge27_Node000015_Node000014"><a xlink:title=" ">
<path fill="none" stroke="#63b8ff" d="M590.41,-274.98C601.11,-267 617.34,-254.88 630.16,-245.31"/>
<polygon fill="#63b8ff" stroke="#63b8ff" points="632.47,-247.96 638.39,-239.17 628.28,-242.35 632.47,-247.96"/>
</a>
</g>
</g>
</g>
</svg>

<g id="navigator" transform="translate(0 0)" fill="#404254">
  <rect fill="#f2f5e9" fill-opacity="0.5" stroke="#606060" stroke-width=".5" x="0" y="0" width="60" height="60"/>
  <use id="zoomplus" xlink:href="#zoomPlus" x="17" y="9" onmousedown="handleZoom(evt,'in')"/>
  <use id="zoomminus" xlink:href="#zoomMin" x="42" y="9" onmousedown="handleZoom(evt,'out')"/>
  <use id="reset" xlink:href="#resetDef" x="30" y="36" onmousedown="handleReset()"/>
   <use id="arrowup" xlink:href="#arrowUp" x="0" y="0" onmousedown="handlePan(0,-1)"/>
  <use id="arrowright" xlink:href="#arrowRight" x="0" y="0" onmousedown="handlePan(1,0)"/>
  <use id="arrowdown" xlink:href="#arrowDown" x="0" y="0" onmousedown="handlePan(0,1)"/>
  <use id="arrowleft" xlink:href="#arrowLeft" x="0" y="0" onmousedown="handlePan(-1,0)"/>
</g>
<svg viewBox="0 0 15 15" width="100%" height="30px" preserveAspectRatio="xMaxYMin meet">
 <g id="arrow_out" transform="scale(0.3 0.3)">
  <a xlink:href="850__regression__cases_8c__incl_org.svg" target="_base">
   <rect id="button" ry="5" rx="5" y="6" x="6" height="38" width="38"
        fill="#f2f5e9" fill-opacity="0.5" stroke="#606060" stroke-width="1.0"/>
   <path id="arrow"
     d="M 11.500037,31.436501 C 11.940474,20.09759 22.043105,11.32322 32.158766,21.979434 L 37.068811,17.246167 C 37.068811,17.246167 37.088388,32 37.088388,32 L 22.160133,31.978069 C 22.160133,31.978069 26.997745,27.140456 26.997745,27.140456 C 18.528582,18.264221 13.291696,25.230495 11.500037,31.436501 z"
     style="fill:#404040;"/>
  </a>
 </g>
</svg>

<style type='text/css'>
<![CDATA[
[data-mouse-over-selected='false'] { opacity: 0.7; }
[data-mouse-over-selected='true']  { opacity: 1.0; }
]]>
</style>
<script type="application/ecmascript"><![CDATA[
document.addEventListener('DOMContentLoaded', (event) => {
  highlightEdges();
  highlightAdjacentNodes();
});
]]></script>
</svg>
