<?xml version="1.0" encoding="UTF-8" standalone="no"?>
<!DOCTYPE svg PUBLIC "-//W3C//DTD SVG 1.1//EN"
 "http://www.w3.org/Graphics/SVG/1.1/DTD/svg11.dtd">
<!-- Generated by graphviz version 2.43.0 (0)
 -->
<!-- Title: t/850_regression_cases.c Pages: 1 -->
<svg width="646pt" height="302pt"
 viewBox="0.00 0.00 645.58 302.00" xmlns="http://www.w3.org/2000/svg" xmlns:xlink="http://www.w3.org/1999/xlink">
<g id="graph0" class="graph" transform="scale(1 1) rotate(0) translate(4 298)">
<title>t/850_regression_cases.c</title>
<!-- Node1 -->
<g id="Node000001" class="node">
<title>Node1</title>
<g id="a_Node000001"><a xlink:title="A suite of regression tests for bugs discovered by fuzzing.">
<polygon fill="#999999" stroke="#666666" points="395,-294 256,-294 256,-275 395,-275 395,-294"/>
<text text-anchor="middle" x="325.5" y="-282" font-family="Helvetica,sans-Serif" font-size="10.00">t/850_regression_cases.c</text>
</a>
</g>
</g>
<!-- Node2 -->
<g id="Node000002" class="node">
<title>Node2</title>
<g id="a_Node000002"><a xlink:href="double__tap_8h.html" target="_top" xlink:title="A lightweight, single&#45;header TAP (Test Anything Protocol) library.">
<polygon fill="white" stroke="#666666" points="225,-239 100,-239 100,-220 225,-220 225,-239"/>
<text text-anchor="middle" x="162.5" y="-227" font-family="Helvetica,sans-Serif" font-size="10.00">common/double_tap.h</text>
</a>
</g>
</g>
<!-- Node1&#45;&gt;Node2 -->
<g id="edge1_Node000001_Node000002" class="edge">
<title>Node1&#45;&gt;Node2</title>
<g id="a_edge1_Node000001_Node000002"><a xlink:title=" ">
<path fill="none" stroke="#63b8ff" d="M299.31,-274.98C272.06,-266.13 229.2,-252.19 198.72,-242.28"/>
<polygon fill="#63b8ff" stroke="#63b8ff" points="199.49,-238.85 188.89,-239.08 197.32,-245.5 199.49,-238.85"/>
</a>
</g>
</g>
<!-- Node3 -->
<g id="Node000003" class="node">
<title>Node3</title>
<g id="a_Node000003"><a xlink:href="fuzz__helpers_8h.html" target="_top" xlink:title="Common definitions, structures, and helpers for all fuzzer targets.">
<polygon fill="white" stroke="#666666" points="441,-239 354,-239 354,-220 441,-220 441,-239"/>
<text text-anchor="middle" x="397.5" y="-227" font-family="Helvetica,sans-Serif" font-size="10.00">fuzz_helpers.h</text>
</a>
</g>
</g>
<!-- Node1&#45;&gt;Node3 -->
<g id="edge2_Node000001_Node000003" class="edge">
<title>Node1&#45;&gt;Node3</title>
<g id="a_edge2_Node000001_Node000003"><a xlink:title=" ">
<path fill="none" stroke="#63b8ff" d="M337.07,-274.98C347.92,-267 364.38,-254.88 377.38,-245.31"/>
<polygon fill="#63b8ff" stroke="#63b8ff" points="379.74,-247.92 385.72,-239.17 375.59,-242.28 379.74,-247.92"/>
</a>
</g>
</g>
<!-- Node10 -->
<g id="Node000010" class="node">
<title>Node10</title>
<g id="a_Node000010"><a xlink:href="infix_8h.html" target="_top" xlink:title="The public interface for the infix FFI library.">
<polygon fill="white" stroke="#666666" points="361,-129 290,-129 290,-110 361,-110 361,-129"/>
<text text-anchor="middle" x="325.5" y="-117" font-family="Helvetica,sans-Serif" font-size="10.00">infix/infix.h</text>
</a>
</g>
</g>
<!-- Node1&#45;&gt;Node10 -->
<g id="edge27_Node000001_Node000010" class="edge">
<title>Node1&#45;&gt;Node10</title>
<g id="a_edge27_Node000001_Node000010"><a xlink:title=" ">
<path fill="none" stroke="#63b8ff" d="M322.7,-274.84C316.72,-255.23 303.79,-205.93 310.5,-165 311.97,-156.05 314.99,-146.47 317.94,-138.51"/>
<polygon fill="#63b8ff" stroke="#63b8ff" points="321.22,-139.74 321.64,-129.15 314.71,-137.16 321.22,-139.74"/>
</a>
</g>
</g>
<!-- Node15 -->
<g id="Node000015" class="node">
<title>Node15</title>
<g id="a_Node000015"><a xlink:href="fuzz__regression__helpers_8h.html" target="_top" xlink:title="Helper functions specifically for running regression tests from saved fuzzer inputs.">
<polygon fill="white" stroke="#666666" points="636,-239 493,-239 493,-220 636,-220 636,-239"/>
<text text-anchor="middle" x="564.5" y="-227" font-family="Helvetica,sans-Serif" font-size="10.00">fuzz_regression_helpers.h</text>
</a>
</g>
</g>
<!-- Node1&#45;&gt;Node15 -->
<g id="edge23_Node000001_Node000015" class="edge">
<title>Node1&#45;&gt;Node15</title>
<g id="a_edge23_Node000001_Node000015"><a xlink:title=" ">
<path fill="none" stroke="#63b8ff" d="M363.9,-274.98C405.24,-265.82 471.1,-251.21 515.99,-241.26"/>
<polygon fill="#63b8ff" stroke="#63b8ff" points="516.79,-244.66 525.8,-239.08 515.28,-237.83 516.79,-244.66"/>
</a>
</g>
</g>
<!-- Node4 -->
<g id="Node000004" class="node">
<title>Node4</title>
<g id="a_Node000004"><a xlink:href="infix__internals_8h.html" target="_top" xlink:title="Internal data structures, function prototypes, and constants.">
<polygon fill="white" stroke="#666666" points="225.5,-184 85.5,-184 85.5,-165 225.5,-165 225.5,-184"/>
<text text-anchor="middle" x="155.5" y="-172" font-family="Helvetica,sans-Serif" font-size="10.00">common/infix_internals.h</text>
</a>
</g>
</g>
<!-- Node3&#45;&gt;Node4 -->
<g id="edge3_Node000003_Node000004" class="edge">
<title>Node3&#45;&gt;Node4</title>
<g id="a_edge3_Node000003_Node000004"><a xlink:title=" ">
<path fill="none" stroke="#63b8ff" d="M358.62,-219.98C316.76,-210.82 250.07,-196.21 204.62,-186.26"/>
<polygon fill="#63b8ff" stroke="#63b8ff" points="205.2,-182.8 194.69,-184.08 203.71,-189.64 205.2,-182.8"/>
</a>
</g>
</g>
<!-- Node8 -->
<g id="Node000008" class="node">
<title>Node8</title>
<g id="a_Node000008"><a xlink:title=" ">
<polygon fill="#e0e0e0" stroke="#999999" points="243.5,-19 181.5,-19 181.5,0 243.5,0 243.5,-19"/>
<text text-anchor="middle" x="212.5" y="-7" font-family="Helvetica,sans-Serif" font-size="10.00">stdbool.h</text>
</a>
</g>
</g>
<!-- Node3&#45;&gt;Node8 -->
<g id="edge17_Node000003_Node000008" class="edge">
<title>Node3&#45;&gt;Node8</title>
<g id="a_edge17_Node000003_Node000008"><a xlink:title=" ">
<path fill="none" stroke="#63b8ff" d="M373.52,-219.86C354.93,-212.36 329.28,-200.15 310.5,-184 264.87,-144.75 258.05,-128.02 231.5,-74 224.43,-59.62 219.43,-42.1 216.34,-29.11"/>
<polygon fill="#63b8ff" stroke="#63b8ff" points="219.69,-28.06 214.11,-19.05 212.86,-29.57 219.69,-28.06"/>
</a>
</g>
</g>
<!-- Node9 -->
<g id="Node000009" class="node">
<title>Node9</title>
<g id="a_Node000009"><a xlink:title=" ">
<polygon fill="#e0e0e0" stroke="#999999" points="502.5,-19 446.5,-19 446.5,0 502.5,0 502.5,-19"/>
<text text-anchor="middle" x="474.5" y="-7" font-family="Helvetica,sans-Serif" font-size="10.00">stddef.h</text>
</a>
</g>
</g>
<!-- Node3&#45;&gt;Node9 -->
<g id="edge18_Node000003_Node000009" class="edge">
<title>Node3&#45;&gt;Node9</title>
<g id="a_edge18_Node000003_Node000009"><a xlink:title=" ">
<path fill="none" stroke="#63b8ff" d="M407.14,-219.99C430.71,-198.45 490.72,-138.84 510.5,-74 512.96,-65.92 513.32,-62.96 510.5,-55 506.75,-44.41 499.29,-34.49 492.13,-26.71"/>
<polygon fill="#63b8ff" stroke="#63b8ff" points="494.19,-23.82 484.66,-19.19 489.22,-28.76 494.19,-23.82"/>
</a>
</g>
</g>
<!-- Node3&#45;&gt;Node10 -->
<g id="edge16_Node000003_Node000010" class="edge">
<title>Node3&#45;&gt;Node10</title>
<g id="a_edge16_Node000003_Node000010"><a xlink:title=" ">
<path fill="none" stroke="#63b8ff" d="M396.48,-219.61C394.65,-206.67 389.88,-182.31 378.5,-165 370.66,-153.08 358.69,-142.64 348.11,-134.88"/>
<polygon fill="#63b8ff" stroke="#63b8ff" points="349.88,-131.84 339.67,-129.01 345.88,-137.59 349.88,-131.84"/>
</a>
</g>
</g>
<!-- Node11 -->
<g id="Node000011" class="node">
<title>Node11</title>
<g id="a_Node000011"><a xlink:title=" ">
<polygon fill="#e0e0e0" stroke="#999999" points="501,-74 448,-74 448,-55 501,-55 501,-74"/>
<text text-anchor="middle" x="474.5" y="-62" font-family="Helvetica,sans-Serif" font-size="10.00">stdint.h</text>
</a>
</g>
</g>
<!-- Node3&#45;&gt;Node11 -->
<g id="edge19_Node000003_Node000011" class="edge">
<title>Node3&#45;&gt;Node11</title>
<g id="a_edge19_Node000003_Node000011"><a xlink:title=" ">
<path fill="none" stroke="#63b8ff" d="M401.64,-219.74C413.76,-194.09 449.33,-118.78 465.87,-83.78"/>
<polygon fill="#63b8ff" stroke="#63b8ff" points="469.23,-84.84 470.34,-74.31 462.9,-81.85 469.23,-84.84"/>
</a>
</g>
</g>
<!-- Node12 -->
<g id="Node000012" class="node">
<title>Node12</title>
<g id="a_Node000012"><a xlink:title=" ">
<polygon fill="#e0e0e0" stroke="#999999" points="369.5,-184 319.5,-184 319.5,-165 369.5,-165 369.5,-184"/>
<text text-anchor="middle" x="344.5" y="-172" font-family="Helvetica,sans-Serif" font-size="10.00">stdio.h</text>
</a>
</g>
</g>
<!-- Node3&#45;&gt;Node12 -->
<g id="edge20_Node000003_Node000012" class="edge">
<title>Node3&#45;&gt;Node12</title>
<g id="a_edge20_Node000003_Node000012"><a xlink:title=" ">
<path fill="none" stroke="#63b8ff" d="M388.75,-219.75C381.03,-212.03 369.6,-200.6 360.28,-191.28"/>
<polygon fill="#63b8ff" stroke="#63b8ff" points="362.64,-188.69 353.09,-184.09 357.69,-193.64 362.64,-188.69"/>
</a>
</g>
</g>
<!-- Node13 -->
<g id="Node000013" class="node">
<title>Node13</title>
<g id="a_Node000013"><a xlink:title=" ">
<polygon fill="#e0e0e0" stroke="#999999" points="626,-184 573,-184 573,-165 626,-165 626,-184"/>
<text text-anchor="middle" x="599.5" y="-172" font-family="Helvetica,sans-Serif" font-size="10.00">stdlib.h</text>
</a>
</g>
</g>
<!-- Node3&#45;&gt;Node13 -->
<g id="edge21_Node000003_Node000013" class="edge">
<title>Node3&#45;&gt;Node13</title>
<g id="a_edge21_Node000003_Node000013"><a xlink:title=" ">
<path fill="none" stroke="#63b8ff" d="M429.95,-219.98C466.25,-210.46 524.89,-195.08 562.82,-185.12"/>
<polygon fill="#63b8ff" stroke="#63b8ff" points="564.15,-188.39 572.93,-182.47 562.37,-181.62 564.15,-188.39"/>
</a>
</g>
</g>
<!-- Node14 -->
<g id="Node000014" class="node">
<title>Node14</title>
<g id="a_Node000014"><a xlink:title=" ">
<polygon fill="#e0e0e0" stroke="#999999" points="555,-184 502,-184 502,-165 555,-165 555,-184"/>
<text text-anchor="middle" x="528.5" y="-172" font-family="Helvetica,sans-Serif" font-size="10.00">string.h</text>
</a>
</g>
</g>
<!-- Node3&#45;&gt;Node14 -->
<g id="edge22_Node000003_Node000014" class="edge">
<title>Node3&#45;&gt;Node14</title>
<g id="a_edge22_Node000003_Node000014"><a xlink:title=" ">
<path fill="none" stroke="#63b8ff" d="M418.55,-219.98C439.91,-211.34 473.2,-197.87 497.56,-188.02"/>
<polygon fill="#63b8ff" stroke="#63b8ff" points="499.11,-191.17 507.07,-184.17 496.49,-184.68 499.11,-191.17"/>
</a>
</g>
</g>
<!-- Node5 -->
<g id="Node000005" class="node">
<title>Node5</title>
<g id="a_Node000005"><a xlink:href="infix__config_8h.html" target="_top" xlink:title="Platform, architecture, and ABI detection macros.">
<polygon fill="white" stroke="#666666" points="127,-74 0,-74 0,-55 127,-55 127,-74"/>
<text text-anchor="middle" x="63.5" y="-62" font-family="Helvetica,sans-Serif" font-size="10.00">common/infix_config.h</text>
</a>
</g>
</g>
<!-- Node4&#45;&gt;Node5 -->
<g id="edge4_Node000004_Node000005" class="edge">
<title>Node4&#45;&gt;Node5</title>
<g id="a_edge4_Node000004_Node000005"><a xlink:title=" ">
<path fill="none" stroke="#63b8ff" d="M137.06,-164.89C122.45,-157.26 102.41,-144.86 89.5,-129 78.81,-115.86 71.97,-97.73 68.01,-84.2"/>
<polygon fill="#63b8ff" stroke="#63b8ff" points="71.28,-82.9 65.33,-74.13 64.52,-84.7 71.28,-82.9"/>
</a>
</g>
</g>
<!-- Node6 -->
<g id="Node000006" class="node">
<title>Node6</title>
<g id="a_Node000006"><a xlink:href="platform_8h.html" target="_top" xlink:title="Declares internal, runtime CPU/OS feature detection functions.">
<polygon fill="white" stroke="#666666" points="212,-129 99,-129 99,-110 212,-110 212,-129"/>
<text text-anchor="middle" x="155.5" y="-117" font-family="Helvetica,sans-Serif" font-size="10.00">common/platform.h</text>
</a>
</g>
</g>
<!-- Node4&#45;&gt;Node6 -->
<g id="edge5_Node000004_Node000006" class="edge">
<title>Node4&#45;&gt;Node6</title>
<g id="a_edge5_Node000004_Node000006"><a xlink:title=" ">
<path fill="none" stroke="#63b8ff" d="M155.5,-164.75C155.5,-157.8 155.5,-147.85 155.5,-139.13"/>
<polygon fill="#63b8ff" stroke="#63b8ff" points="159,-139.09 155.5,-129.09 152,-139.09 159,-139.09"/>
</a>
</g>
</g>
<!-- Node4&#45;&gt;Node10 -->
<g id="edge11_Node000004_Node000010" class="edge">
<title>Node4&#45;&gt;Node10</title>
<g id="a_edge11_Node000004_Node000010"><a xlink:title=" ">
<path fill="none" stroke="#63b8ff" d="M182.81,-164.98C211.35,-156.09 256.33,-142.07 288.14,-132.15"/>
<polygon fill="#63b8ff" stroke="#63b8ff" points="289.47,-135.4 297.97,-129.08 287.38,-128.72 289.47,-135.4"/>
</a>
</g>
</g>
<!-- Node6&#45;&gt;Node5 -->
<g id="edge9_Node000006_Node000005" class="edge">
<title>Node6&#45;&gt;Node5</title>
<g id="a_edge9_Node000006_Node000005"><a xlink:title=" ">
<path fill="none" stroke="#63b8ff" d="M140.72,-109.98C126.32,-101.69 104.19,-88.94 87.31,-79.22"/>
<polygon fill="#63b8ff" stroke="#63b8ff" points="88.96,-76.13 78.55,-74.17 85.47,-82.19 88.96,-76.13"/>
</a>
</g>
</g>
<!-- Node7 -->
<g id="Node000007" class="node">
<title>Node7</title>
<g id="a_Node000007"><a xlink:href="compat__c23_8h.html" target="_top" xlink:title="Provides forward compatibility macros for C23 features.">
<polygon fill="white" stroke="#666666" points="391,-74 260,-74 260,-55 391,-55 391,-74"/>
<text text-anchor="middle" x="325.5" y="-62" font-family="Helvetica,sans-Serif" font-size="10.00">common/compat_c23.h</text>
</a>
</g>
</g>
<!-- Node6&#45;&gt;Node7 -->
<g id="edge6_Node000006_Node000007" class="edge">
<title>Node6&#45;&gt;Node7</title>
<g id="a_edge6_Node000006_Node000007"><a xlink:title=" ">
<path fill="none" stroke="#63b8ff" d="M182.81,-109.98C211.35,-101.09 256.33,-87.07 288.14,-77.15"/>
<polygon fill="#63b8ff" stroke="#63b8ff" points="289.47,-80.4 297.97,-74.08 287.38,-73.72 289.47,-80.4"/>
</a>
</g>
</g>
<!-- Node6&#45;&gt;Node8 -->
<g id="edge10_Node000006_Node000008" class="edge">
<title>Node6&#45;&gt;Node8</title>
<g id="a_edge10_Node000006_Node000008"><a xlink:title=" ">
<path fill="none" stroke="#63b8ff" d="M157.9,-109.96C161.6,-97.45 169.33,-73.62 179.5,-55 184.85,-45.2 192.13,-35.15 198.49,-27.08"/>
<polygon fill="#63b8ff" stroke="#63b8ff" points="201.3,-29.17 204.9,-19.21 195.87,-24.75 201.3,-29.17"/>
</a>
</g>
</g>
<!-- Node7&#45;&gt;Node8 -->
<g id="edge7_Node000007_Node000008" class="edge">
<title>Node7&#45;&gt;Node8</title>
<g id="a_edge7_Node000007_Node000008"><a xlink:title=" ">
<path fill="none" stroke="#63b8ff" d="M307.34,-54.98C289.25,-46.5 261.22,-33.35 240.31,-23.54"/>
<polygon fill="#63b8ff" stroke="#63b8ff" points="241.53,-20.25 230.99,-19.17 238.55,-26.59 241.53,-20.25"/>
</a>
</g>
</g>
<!-- Node7&#45;&gt;Node9 -->
<g id="edge8_Node000007_Node000009" class="edge">
<title>Node7&#45;&gt;Node9</title>
<g id="a_edge8_Node000007_Node000009"><a xlink:title=" ">
<path fill="none" stroke="#63b8ff" d="M349.44,-54.98C374.06,-46.23 412.62,-32.51 440.42,-22.62"/>
<polygon fill="#63b8ff" stroke="#63b8ff" points="441.88,-25.82 450.12,-19.17 439.53,-19.22 441.88,-25.82"/>
</a>
</g>
</g>
<!-- Node10&#45;&gt;Node7 -->
<g id="edge12_Node000010_Node000007" class="edge">
<title>Node10&#45;&gt;Node7</title>
<g id="a_edge12_Node000010_Node000007"><a xlink:title=" ">
<path fill="none" stroke="#63b8ff" d="M325.5,-109.75C325.5,-102.8 325.5,-92.85 325.5,-84.13"/>
<polygon fill="#63b8ff" stroke="#63b8ff" points="329,-84.09 325.5,-74.09 322,-84.09 329,-84.09"/>
</a>
</g>
</g>
<!-- Node10&#45;&gt;Node8 -->
<g id="edge13_Node000010_Node000008" class="edge">
<title>Node10&#45;&gt;Node8</title>
<g id="a_edge13_Node000010_Node000008"><a xlink:title=" ">
<path fill="none" stroke="#63b8ff" d="M305.84,-109.92C289.83,-102.22 267.37,-89.72 251.5,-74 238.17,-60.79 227.43,-42.17 220.62,-28.51"/>
<polygon fill="#63b8ff" stroke="#63b8ff" points="223.65,-26.73 216.2,-19.2 217.32,-29.73 223.65,-26.73"/>
</a>
</g>
</g>
<!-- Node10&#45;&gt;Node9 -->
<g id="edge14_Node000010_Node000009" class="edge">
<title>Node10&#45;&gt;Node9</title>
<g id="a_edge14_Node000010_Node000009"><a xlink:title=" ">
<path fill="none" stroke="#63b8ff" d="M341.81,-109.9C357.35,-101.45 381.19,-87.86 400.5,-74 421.2,-59.15 443.13,-39.82 457.69,-26.41"/>
<polygon fill="#63b8ff" stroke="#63b8ff" points="460.42,-28.65 465.35,-19.27 455.65,-23.53 460.42,-28.65"/>
</a>
</g>
</g>
<!-- Node10&#45;&gt;Node11 -->
<g id="edge15_Node000010_Node000011" class="edge">
<title>Node10&#45;&gt;Node11</title>
<g id="a_edge15_Node000010_Node000011"><a xlink:title=" ">
<path fill="none" stroke="#63b8ff" d="M349.44,-109.98C374.06,-101.23 412.62,-87.51 440.42,-77.62"/>
<polygon fill="#63b8ff" stroke="#63b8ff" points="441.88,-80.82 450.12,-74.17 439.53,-74.22 441.88,-80.82"/>
</a>
</g>
</g>
<!-- Node15&#45;&gt;Node9 -->
<g id="edge24_Node000015_Node000009" class="edge">
<title>Node15&#45;&gt;Node9</title>
<g id="a_edge24_Node000015_Node000009"><a xlink:title=" ">
<path fill="none" stroke="#63b8ff" d="M588.57,-219.87C613.07,-209.52 646.06,-190.34 635.5,-165 607.95,-98.91 536.25,-47.71 498.52,-24.36"/>
<polygon fill="#63b8ff" stroke="#63b8ff" points="500.07,-21.21 489.71,-19.03 496.45,-27.2 500.07,-21.21"/>
</a>
</g>
</g>
<!-- Node15&#45;&gt;Node13 -->
<g id="edge25_Node000015_Node000013" class="edge">
<title>Node15&#45;&gt;Node13</title>
<g id="a_edge25_Node000015_Node000013"><a xlink:title=" ">
<path fill="none" stroke="#63b8ff" d="M570.28,-219.75C575.12,-212.42 582.18,-201.73 588.14,-192.7"/>
<polygon fill="#63b8ff" stroke="#63b8ff" points="591.24,-194.36 593.83,-184.09 585.4,-190.5 591.24,-194.36"/>
</a>
</g>
</g>
<!-- Node15&#45;&gt;Node14 -->
<g id="edge26_Node000015_Node000014" class="edge">
<title>Node15&#45;&gt;Node14</title>
<g id="a_edge26_Node000015_Node000014"><a xlink:title=" ">
<path fill="none" stroke="#63b8ff" d="M558.56,-219.75C553.52,-212.34 546.16,-201.5 539.99,-192.41"/>
<polygon fill="#63b8ff" stroke="#63b8ff" points="542.85,-190.39 534.33,-184.09 537.06,-194.33 542.85,-190.39"/>
</a>
</g>
</g>
</g>
</svg>
