<?xml version="1.0" encoding="UTF-8" standalone="no"?>
<!DOCTYPE svg PUBLIC "-//W3C//DTD SVG 1.1//EN"
 "http://www.w3.org/Graphics/SVG/1.1/DTD/svg11.dtd">
<!-- Generated by graphviz version 2.43.0 (0)
 -->
<!-- Title: t/860_error_handling.c Pages: 1 -->
<svg width="433pt" height="192pt"
 viewBox="0.00 0.00 433.00 192.00" xmlns="http://www.w3.org/2000/svg" xmlns:xlink="http://www.w3.org/1999/xlink">
<g id="graph0" class="graph" transform="scale(1 1) rotate(0) translate(4 188)">
<title>t/860_error_handling.c</title>
<!-- Node1 -->
<g id="Node000001" class="node">
<title>Node1</title>
<g id="a_Node000001"><a xlink:title="Unit test for the error reporting system.">
<polygon fill="#999999" stroke="#666666" points="321,-184 196,-184 196,-165 321,-165 321,-184"/>
<text text-anchor="middle" x="258.5" y="-172" font-family="Helvetica,sans-Serif" font-size="10.00">t/860_error_handling.c</text>
</a>
</g>
</g>
<!-- Node2 -->
<g id="Node000002" class="node">
<title>Node2</title>
<g id="a_Node000002"><a xlink:href="double__tap_8h.html" target="_top" xlink:title="A lightweight, single&#45;header TAP (Test Anything Protocol) library.">
<polygon fill="white" stroke="#666666" points="125,-129 0,-129 0,-110 125,-110 125,-129"/>
<text text-anchor="middle" x="62.5" y="-117" font-family="Helvetica,sans-Serif" font-size="10.00">common/double_tap.h</text>
</a>
</g>
</g>
<!-- Node1&#45;&gt;Node2 -->
<g id="edge1_Node000001_Node000002" class="edge">
<title>Node1&#45;&gt;Node2</title>
<g id="a_edge1_Node000001_Node000002"><a xlink:title=" ">
<path fill="none" stroke="#63b8ff" d="M227.01,-164.98C193.68,-155.97 140.9,-141.7 104.15,-131.76"/>
<polygon fill="#63b8ff" stroke="#63b8ff" points="104.8,-128.31 94.24,-129.08 102.98,-135.07 104.8,-128.31"/>
</a>
</g>
</g>
<!-- Node3 -->
<g id="Node000003" class="node">
<title>Node3</title>
<g id="a_Node000003"><a xlink:href="infix_8h.html" target="_top" xlink:title="The public interface for the infix FFI library.">
<polygon fill="white" stroke="#666666" points="214,-129 143,-129 143,-110 214,-110 214,-129"/>
<text text-anchor="middle" x="178.5" y="-117" font-family="Helvetica,sans-Serif" font-size="10.00">infix/infix.h</text>
</a>
</g>
</g>
<!-- Node1&#45;&gt;Node3 -->
<g id="edge2_Node000001_Node000003" class="edge">
<title>Node1&#45;&gt;Node3</title>
<g id="a_edge2_Node000001_Node000003"><a xlink:title=" ">
<path fill="none" stroke="#63b8ff" d="M245.65,-164.98C233.36,-156.84 214.59,-144.41 200.02,-134.76"/>
<polygon fill="#63b8ff" stroke="#63b8ff" points="201.86,-131.78 191.59,-129.17 197.99,-137.61 201.86,-131.78"/>
</a>
</g>
</g>
<!-- Node8 -->
<g id="Node000008" class="node">
<title>Node8</title>
<g id="a_Node000008"><a xlink:title=" ">
<polygon fill="#e0e0e0" stroke="#999999" points="285,-129 232,-129 232,-110 285,-110 285,-129"/>
<text text-anchor="middle" x="258.5" y="-117" font-family="Helvetica,sans-Serif" font-size="10.00">limits.h</text>
</a>
</g>
</g>
<!-- Node1&#45;&gt;Node8 -->
<g id="edge9_Node000001_Node000008" class="edge">
<title>Node1&#45;&gt;Node8</title>
<g id="a_edge9_Node000001_Node000008"><a xlink:title=" ">
<path fill="none" stroke="#63b8ff" d="M258.5,-164.75C258.5,-157.8 258.5,-147.85 258.5,-139.13"/>
<polygon fill="#63b8ff" stroke="#63b8ff" points="262,-139.09 258.5,-129.09 255,-139.09 262,-139.09"/>
</a>
</g>
</g>
<!-- Node9 -->
<g id="Node000009" class="node">
<title>Node9</title>
<g id="a_Node000009"><a xlink:title=" ">
<polygon fill="#e0e0e0" stroke="#999999" points="353.5,-129 303.5,-129 303.5,-110 353.5,-110 353.5,-129"/>
<text text-anchor="middle" x="328.5" y="-117" font-family="Helvetica,sans-Serif" font-size="10.00">stdio.h</text>
</a>
</g>
</g>
<!-- Node1&#45;&gt;Node9 -->
<g id="edge10_Node000001_Node000009" class="edge">
<title>Node1&#45;&gt;Node9</title>
<g id="a_edge10_Node000001_Node000009"><a xlink:title=" ">
<path fill="none" stroke="#63b8ff" d="M269.75,-164.98C280.3,-157 296.3,-144.88 308.94,-135.31"/>
<polygon fill="#63b8ff" stroke="#63b8ff" points="311.19,-138 317.05,-129.17 306.96,-132.42 311.19,-138"/>
</a>
</g>
</g>
<!-- Node10 -->
<g id="Node000010" class="node">
<title>Node10</title>
<g id="a_Node000010"><a xlink:title=" ">
<polygon fill="#e0e0e0" stroke="#999999" points="425,-129 372,-129 372,-110 425,-110 425,-129"/>
<text text-anchor="middle" x="398.5" y="-117" font-family="Helvetica,sans-Serif" font-size="10.00">string.h</text>
</a>
</g>
</g>
<!-- Node1&#45;&gt;Node10 -->
<g id="edge11_Node000001_Node000010" class="edge">
<title>Node1&#45;&gt;Node10</title>
<g id="a_edge11_Node000001_Node000010"><a xlink:title=" ">
<path fill="none" stroke="#63b8ff" d="M280.99,-164.98C304.02,-156.27 340.04,-142.63 366.13,-132.75"/>
<polygon fill="#63b8ff" stroke="#63b8ff" points="367.48,-135.98 375.6,-129.17 365.01,-129.44 367.48,-135.98"/>
</a>
</g>
</g>
<!-- Node4 -->
<g id="Node000004" class="node">
<title>Node4</title>
<g id="a_Node000004"><a xlink:href="compat__c23_8h.html" target="_top" xlink:title="Provides forward compatibility macros for C23 features.">
<polygon fill="white" stroke="#666666" points="197,-74 66,-74 66,-55 197,-55 197,-74"/>
<text text-anchor="middle" x="131.5" y="-62" font-family="Helvetica,sans-Serif" font-size="10.00">common/compat_c23.h</text>
</a>
</g>
</g>
<!-- Node3&#45;&gt;Node4 -->
<g id="edge3_Node000003_Node000004" class="edge">
<title>Node3&#45;&gt;Node4</title>
<g id="a_edge3_Node000003_Node000004"><a xlink:title=" ">
<path fill="none" stroke="#63b8ff" d="M170.74,-109.75C164.03,-102.18 154.16,-91.05 145.99,-81.84"/>
<polygon fill="#63b8ff" stroke="#63b8ff" points="148.37,-79.25 139.12,-74.09 143.13,-83.89 148.37,-79.25"/>
</a>
</g>
</g>
<!-- Node5 -->
<g id="Node000005" class="node">
<title>Node5</title>
<g id="a_Node000005"><a xlink:title=" ">
<polygon fill="#e0e0e0" stroke="#999999" points="119.5,-19 57.5,-19 57.5,0 119.5,0 119.5,-19"/>
<text text-anchor="middle" x="88.5" y="-7" font-family="Helvetica,sans-Serif" font-size="10.00">stdbool.h</text>
</a>
</g>
</g>
<!-- Node3&#45;&gt;Node5 -->
<g id="edge6_Node000003_Node000005" class="edge">
<title>Node3&#45;&gt;Node5</title>
<g id="a_edge6_Node000003_Node000005"><a xlink:title=" ">
<path fill="none" stroke="#63b8ff" d="M142.74,-110.27C110.51,-102.04 66.68,-88.55 56.5,-74 45.85,-58.78 58.78,-39.51 71.24,-26.22"/>
<polygon fill="#63b8ff" stroke="#63b8ff" points="73.72,-28.69 78.35,-19.15 68.79,-23.72 73.72,-28.69"/>
</a>
</g>
</g>
<!-- Node6 -->
<g id="Node000006" class="node">
<title>Node6</title>
<g id="a_Node000006"><a xlink:title=" ">
<polygon fill="#e0e0e0" stroke="#999999" points="201.5,-19 145.5,-19 145.5,0 201.5,0 201.5,-19"/>
<text text-anchor="middle" x="173.5" y="-7" font-family="Helvetica,sans-Serif" font-size="10.00">stddef.h</text>
</a>
</g>
</g>
<!-- Node3&#45;&gt;Node6 -->
<g id="edge7_Node000003_Node000006" class="edge">
<title>Node3&#45;&gt;Node6</title>
<g id="a_edge7_Node000003_Node000006"><a xlink:title=" ">
<path fill="none" stroke="#63b8ff" d="M186.94,-109.67C197.42,-97.6 213.15,-75.14 206.5,-55 203.04,-44.54 196.07,-34.53 189.42,-26.66"/>
<polygon fill="#63b8ff" stroke="#63b8ff" points="191.83,-24.1 182.52,-19.04 186.64,-28.8 191.83,-24.1"/>
</a>
</g>
</g>
<!-- Node7 -->
<g id="Node000007" class="node">
<title>Node7</title>
<g id="a_Node000007"><a xlink:title=" ">
<polygon fill="#e0e0e0" stroke="#999999" points="307,-74 254,-74 254,-55 307,-55 307,-74"/>
<text text-anchor="middle" x="280.5" y="-62" font-family="Helvetica,sans-Serif" font-size="10.00">stdint.h</text>
</a>
</g>
</g>
<!-- Node3&#45;&gt;Node7 -->
<g id="edge8_Node000003_Node000007" class="edge">
<title>Node3&#45;&gt;Node7</title>
<g id="a_edge8_Node000003_Node000007"><a xlink:title=" ">
<path fill="none" stroke="#63b8ff" d="M194.89,-109.98C211.07,-101.57 236.07,-88.59 254.88,-78.81"/>
<polygon fill="#63b8ff" stroke="#63b8ff" points="256.55,-81.89 263.81,-74.17 253.33,-75.68 256.55,-81.89"/>
</a>
</g>
</g>
<!-- Node4&#45;&gt;Node5 -->
<g id="edge4_Node000004_Node000005" class="edge">
<title>Node4&#45;&gt;Node5</title>
<g id="a_edge4_Node000004_Node000005"><a xlink:title=" ">
<path fill="none" stroke="#63b8ff" d="M124.4,-54.75C118.33,-47.26 109.41,-36.28 101.99,-27.13"/>
<polygon fill="#63b8ff" stroke="#63b8ff" points="104.49,-24.65 95.47,-19.09 99.05,-29.06 104.49,-24.65"/>
</a>
</g>
</g>
<!-- Node4&#45;&gt;Node6 -->
<g id="edge5_Node000004_Node000006" class="edge">
<title>Node4&#45;&gt;Node6</title>
<g id="a_edge5_Node000004_Node000006"><a xlink:title=" ">
<path fill="none" stroke="#63b8ff" d="M138.44,-54.75C144.37,-47.26 153.07,-36.28 160.32,-27.13"/>
<polygon fill="#63b8ff" stroke="#63b8ff" points="163.23,-29.1 166.69,-19.09 157.74,-24.75 163.23,-29.1"/>
</a>
</g>
</g>
</g>
</svg>
