<?xml version="1.0" encoding="UTF-8" standalone="no"?>
<!DOCTYPE svg PUBLIC "-//W3C//DTD SVG 1.1//EN"
 "http://www.w3.org/Graphics/SVG/1.1/DTD/svg11.dtd">
<!-- Generated by graphviz version 2.43.0 (0)
 -->
<!-- Title: src/arch/aarch64/abi_arm64.c Pages: 1 -->
<svg width="513pt" height="335pt"
 viewBox="0.00 0.00 513.49 335.00" xmlns="http://www.w3.org/2000/svg" xmlns:xlink="http://www.w3.org/1999/xlink">
<g id="graph0" class="graph" transform="scale(1 1) rotate(0) translate(4 331)">
<title>src/arch/aarch64/abi_arm64.c</title>
<!-- Node1 -->
<g id="Node000001" class="node">
<title>Node1</title>
<g id="a_Node000001"><a xlink:title="Implements the FFI logic for the AArch64 (ARM64) architecture.">
<polygon fill="#999999" stroke="#666666" points="359.85,-327 244.85,-327 244.85,-297 359.85,-297 359.85,-327"/>
<text text-anchor="start" x="252.85" y="-315" font-family="Helvetica,sans-Serif" font-size="10.00">src/arch/aarch64/abi</text>
<text text-anchor="middle" x="302.35" y="-304" font-family="Helvetica,sans-Serif" font-size="10.00">_arm64.c</text>
</a>
</g>
</g>
<!-- Node2 -->
<g id="Node000002" class="node">
<title>Node2</title>
<g id="a_Node000002"><a xlink:href="abi__arm64__common_8h.html" target="_top" xlink:title="Common register definitions and instruction encodings for the AArch64 (ARM64) architecture.">
<polygon fill="white" stroke="#666666" points="166.35,-195 32.35,-195 32.35,-165 166.35,-165 166.35,-195"/>
<text text-anchor="start" x="40.35" y="-183" font-family="Helvetica,sans-Serif" font-size="10.00">arch/aarch64/abi_arm64</text>
<text text-anchor="middle" x="99.35" y="-172" font-family="Helvetica,sans-Serif" font-size="10.00">_common.h</text>
</a>
</g>
</g>
<!-- Node1&#45;&gt;Node2 -->
<g id="edge1_Node000001_Node000002" class="edge">
<title>Node1&#45;&gt;Node2</title>
<g id="a_edge1_Node000001_Node000002"><a xlink:title=" ">
<path fill="none" stroke="#63b8ff" d="M244.57,-306.86C208.12,-301.44 162.26,-289.07 131.35,-261 115.41,-246.52 107.28,-223.03 103.21,-205.24"/>
<polygon fill="#63b8ff" stroke="#63b8ff" points="106.61,-204.41 101.22,-195.29 99.75,-205.78 106.61,-204.41"/>
</a>
</g>
</g>
<!-- Node4 -->
<g id="Node000004" class="node">
<title>Node4</title>
<g id="a_Node000004"><a xlink:href="abi__arm64__emitters_8h.html" target="_top" xlink:title="Declares internal helper functions for emitting AArch64 machine code.">
<polygon fill="white" stroke="#666666" points="274.35,-261 140.35,-261 140.35,-231 274.35,-231 274.35,-261"/>
<text text-anchor="start" x="148.35" y="-249" font-family="Helvetica,sans-Serif" font-size="10.00">arch/aarch64/abi_arm64</text>
<text text-anchor="middle" x="207.35" y="-238" font-family="Helvetica,sans-Serif" font-size="10.00">_emitters.h</text>
</a>
</g>
</g>
<!-- Node1&#45;&gt;Node4 -->
<g id="edge3_Node000001_Node000004" class="edge">
<title>Node1&#45;&gt;Node4</title>
<g id="a_edge3_Node000001_Node000004"><a xlink:title=" ">
<path fill="none" stroke="#63b8ff" d="M281.26,-296.8C268.23,-288.01 251.3,-276.61 236.93,-266.93"/>
<polygon fill="#63b8ff" stroke="#63b8ff" points="238.62,-263.85 228.37,-261.16 234.71,-269.65 238.62,-263.85"/>
</a>
</g>
</g>
<!-- Node5 -->
<g id="Node000005" class="node">
<title>Node5</title>
<g id="a_Node000005"><a xlink:href="infix__internals_8h.html" target="_top" xlink:title="Internal data structures, function prototypes, and constants.">
<polygon fill="white" stroke="#666666" points="324.35,-189.5 184.35,-189.5 184.35,-170.5 324.35,-170.5 324.35,-189.5"/>
<text text-anchor="middle" x="254.35" y="-177.5" font-family="Helvetica,sans-Serif" font-size="10.00">common/infix_internals.h</text>
</a>
</g>
</g>
<!-- Node1&#45;&gt;Node5 -->
<g id="edge18_Node000001_Node000005" class="edge">
<title>Node1&#45;&gt;Node5</title>
<g id="a_edge18_Node000001_Node000005"><a xlink:title=" ">
<path fill="none" stroke="#63b8ff" d="M300.26,-296.75C297.57,-280.44 292.18,-253.14 283.35,-231 278.82,-219.65 272.05,-207.79 266.18,-198.47"/>
<polygon fill="#63b8ff" stroke="#63b8ff" points="268.92,-196.27 260.53,-189.81 263.06,-200.1 268.92,-196.27"/>
</a>
</g>
</g>
<!-- Node9 -->
<g id="Node000009" class="node">
<title>Node9</title>
<g id="a_Node000009"><a xlink:title=" ">
<polygon fill="#e0e0e0" stroke="#999999" points="179.35,-19 117.35,-19 117.35,0 179.35,0 179.35,-19"/>
<text text-anchor="middle" x="148.35" y="-7" font-family="Helvetica,sans-Serif" font-size="10.00">stdbool.h</text>
</a>
</g>
</g>
<!-- Node1&#45;&gt;Node9 -->
<g id="edge22_Node000001_Node000009" class="edge">
<title>Node1&#45;&gt;Node9</title>
<g id="a_edge22_Node000001_Node000009"><a xlink:title=" ">
<path fill="none" stroke="#63b8ff" d="M244.83,-310.89C157.21,-307.35 0.35,-286.32 0.35,-181 0.35,-181 0.35,-181 0.35,-118.5 0.35,-89.04 -1.05,-76.26 19.35,-55 42.36,-31.02 78.88,-19.96 107.2,-14.86"/>
<polygon fill="#63b8ff" stroke="#63b8ff" points="107.91,-18.29 117.22,-13.24 106.79,-11.38 107.91,-18.29"/>
</a>
</g>
</g>
<!-- Node12 -->
<g id="Node000012" class="node">
<title>Node12</title>
<g id="a_Node000012"><a xlink:href="utility_8h.html" target="_top" xlink:title="A header for conditionally compiled debugging utilities.">
<polygon fill="white" stroke="#666666" points="467.35,-129 369.35,-129 369.35,-110 467.35,-110 467.35,-129"/>
<text text-anchor="middle" x="418.35" y="-117" font-family="Helvetica,sans-Serif" font-size="10.00">common/utility.h</text>
</a>
</g>
</g>
<!-- Node1&#45;&gt;Node12 -->
<g id="edge19_Node000001_Node000012" class="edge">
<title>Node1&#45;&gt;Node12</title>
<g id="a_edge19_Node000001_Node000012"><a xlink:title=" ">
<path fill="none" stroke="#63b8ff" d="M310.88,-296.99C331.63,-262.92 384.71,-175.75 407.59,-138.17"/>
<polygon fill="#63b8ff" stroke="#63b8ff" points="410.74,-139.72 412.95,-129.36 404.76,-136.08 410.74,-139.72"/>
</a>
</g>
</g>
<!-- Node13 -->
<g id="Node000013" class="node">
<title>Node13</title>
<g id="a_Node000013"><a xlink:title=" ">
<polygon fill="#e0e0e0" stroke="#999999" points="430.35,-255.5 380.35,-255.5 380.35,-236.5 430.35,-236.5 430.35,-255.5"/>
<text text-anchor="middle" x="405.35" y="-243.5" font-family="Helvetica,sans-Serif" font-size="10.00">stdio.h</text>
</a>
</g>
</g>
<!-- Node1&#45;&gt;Node13 -->
<g id="edge23_Node000001_Node000013" class="edge">
<title>Node1&#45;&gt;Node13</title>
<g id="a_edge23_Node000001_Node000013"><a xlink:title=" ">
<path fill="none" stroke="#63b8ff" d="M324.95,-296.95C342.14,-286.27 365.68,-271.65 382.84,-260.98"/>
<polygon fill="#63b8ff" stroke="#63b8ff" points="384.99,-263.77 391.64,-255.52 381.3,-257.82 384.99,-263.77"/>
</a>
</g>
</g>
<!-- Node14 -->
<g id="Node000014" class="node">
<title>Node14</title>
<g id="a_Node000014"><a xlink:title=" ">
<polygon fill="#e0e0e0" stroke="#999999" points="501.85,-255.5 448.85,-255.5 448.85,-236.5 501.85,-236.5 501.85,-255.5"/>
<text text-anchor="middle" x="475.35" y="-243.5" font-family="Helvetica,sans-Serif" font-size="10.00">stdlib.h</text>
</a>
</g>
</g>
<!-- Node1&#45;&gt;Node14 -->
<g id="edge24_Node000001_Node000014" class="edge">
<title>Node1&#45;&gt;Node14</title>
<g id="a_edge24_Node000001_Node000014"><a xlink:title=" ">
<path fill="none" stroke="#63b8ff" d="M341.4,-296.99C368.86,-287.09 406.42,-273.41 439.35,-261 440.94,-260.4 442.58,-259.78 444.23,-259.15"/>
<polygon fill="#63b8ff" stroke="#63b8ff" points="445.6,-262.37 453.67,-255.51 443.08,-255.84 445.6,-262.37"/>
</a>
</g>
</g>
<!-- Node3 -->
<g id="Node000003" class="node">
<title>Node3</title>
<g id="a_Node000003"><a xlink:title=" ">
<polygon fill="#e0e0e0" stroke="#999999" points="81.85,-74 28.85,-74 28.85,-55 81.85,-55 81.85,-74"/>
<text text-anchor="middle" x="55.35" y="-62" font-family="Helvetica,sans-Serif" font-size="10.00">stdint.h</text>
</a>
</g>
</g>
<!-- Node2&#45;&gt;Node3 -->
<g id="edge2_Node000002_Node000003" class="edge">
<title>Node2&#45;&gt;Node3</title>
<g id="a_edge2_Node000002_Node000003"><a xlink:title=" ">
<path fill="none" stroke="#63b8ff" d="M93.78,-164.63C85.79,-144.03 71.1,-106.12 62.38,-83.63"/>
<polygon fill="#63b8ff" stroke="#63b8ff" points="65.61,-82.29 58.73,-74.23 59.08,-84.82 65.61,-82.29"/>
</a>
</g>
</g>
<!-- Node4&#45;&gt;Node2 -->
<g id="edge4_Node000004_Node000002" class="edge">
<title>Node4&#45;&gt;Node2</title>
<g id="a_edge4_Node000004_Node000002"><a xlink:title=" ">
<path fill="none" stroke="#63b8ff" d="M183.65,-230.95C168.45,-221.95 148.53,-210.14 131.87,-200.27"/>
<polygon fill="#63b8ff" stroke="#63b8ff" points="133.38,-197.1 122.99,-195.01 129.81,-203.12 133.38,-197.1"/>
</a>
</g>
</g>
<!-- Node4&#45;&gt;Node5 -->
<g id="edge5_Node000004_Node000005" class="edge">
<title>Node4&#45;&gt;Node5</title>
<g id="a_edge5_Node000004_Node000005"><a xlink:title=" ">
<path fill="none" stroke="#63b8ff" d="M217.78,-230.8C224.89,-221.11 234.34,-208.24 241.86,-198.01"/>
<polygon fill="#63b8ff" stroke="#63b8ff" points="244.76,-199.98 247.85,-189.84 239.11,-195.83 244.76,-199.98"/>
</a>
</g>
</g>
<!-- Node6 -->
<g id="Node000006" class="node">
<title>Node6</title>
<g id="a_Node000006"><a xlink:href="infix__config_8h.html" target="_top" xlink:title="Platform, architecture, and ABI detection macros.">
<polygon fill="white" stroke="#666666" points="490.85,-74 363.85,-74 363.85,-55 490.85,-55 490.85,-74"/>
<text text-anchor="middle" x="427.35" y="-62" font-family="Helvetica,sans-Serif" font-size="10.00">common/infix_config.h</text>
</a>
</g>
</g>
<!-- Node5&#45;&gt;Node6 -->
<g id="edge6_Node000005_Node000006" class="edge">
<title>Node5&#45;&gt;Node6</title>
<g id="a_edge6_Node000005_Node000006"><a xlink:title=" ">
<path fill="none" stroke="#63b8ff" d="M267.35,-170.47C296.91,-151.08 369.38,-103.53 405.77,-79.66"/>
<polygon fill="#63b8ff" stroke="#63b8ff" points="407.75,-82.54 414.19,-74.13 403.91,-76.69 407.75,-82.54"/>
</a>
</g>
</g>
<!-- Node7 -->
<g id="Node000007" class="node">
<title>Node7</title>
<g id="a_Node000007"><a xlink:href="platform_8h.html" target="_top" xlink:title="Declares internal, runtime CPU/OS feature detection functions.">
<polygon fill="white" stroke="#666666" points="312.85,-129 199.85,-129 199.85,-110 312.85,-110 312.85,-129"/>
<text text-anchor="middle" x="256.35" y="-117" font-family="Helvetica,sans-Serif" font-size="10.00">common/platform.h</text>
</a>
</g>
</g>
<!-- Node5&#45;&gt;Node7 -->
<g id="edge7_Node000005_Node000007" class="edge">
<title>Node5&#45;&gt;Node7</title>
<g id="a_edge7_Node000005_Node000007"><a xlink:title=" ">
<path fill="none" stroke="#63b8ff" d="M254.64,-170.37C254.92,-162.25 255.35,-149.81 255.7,-139.39"/>
<polygon fill="#63b8ff" stroke="#63b8ff" points="259.21,-139.28 256.05,-129.17 252.21,-139.04 259.21,-139.28"/>
</a>
</g>
</g>
<!-- Node11 -->
<g id="Node000011" class="node">
<title>Node11</title>
<g id="a_Node000011"><a xlink:href="infix_8h.html" target="_top" xlink:title="The public interface for the infix FFI library.">
<polygon fill="white" stroke="#666666" points="181.85,-129 110.85,-129 110.85,-110 181.85,-110 181.85,-129"/>
<text text-anchor="middle" x="146.35" y="-117" font-family="Helvetica,sans-Serif" font-size="10.00">infix/infix.h</text>
</a>
</g>
</g>
<!-- Node5&#45;&gt;Node11 -->
<g id="edge13_Node000005_Node000011" class="edge">
<title>Node5&#45;&gt;Node11</title>
<g id="a_edge13_Node000005_Node000011"><a xlink:title=" ">
<path fill="none" stroke="#63b8ff" d="M238.41,-170.37C220.71,-160.78 191.89,-145.17 171.21,-133.97"/>
<polygon fill="#63b8ff" stroke="#63b8ff" points="172.81,-130.85 162.35,-129.17 169.48,-137.01 172.81,-130.85"/>
</a>
</g>
</g>
<!-- Node7&#45;&gt;Node6 -->
<g id="edge11_Node000007_Node000006" class="edge">
<title>Node7&#45;&gt;Node6</title>
<g id="a_edge11_Node000007_Node000006"><a xlink:title=" ">
<path fill="none" stroke="#63b8ff" d="M283.82,-109.98C312.53,-101.09 357.77,-87.07 389.77,-77.15"/>
<polygon fill="#63b8ff" stroke="#63b8ff" points="391.14,-80.39 399.66,-74.08 389.07,-73.7 391.14,-80.39"/>
</a>
</g>
</g>
<!-- Node8 -->
<g id="Node000008" class="node">
<title>Node8</title>
<g id="a_Node000008"><a xlink:href="compat__c23_8h.html" target="_top" xlink:title="Provides forward compatibility macros for C23 features.">
<polygon fill="white" stroke="#666666" points="345.85,-74 214.85,-74 214.85,-55 345.85,-55 345.85,-74"/>
<text text-anchor="middle" x="280.35" y="-62" font-family="Helvetica,sans-Serif" font-size="10.00">common/compat_c23.h</text>
</a>
</g>
</g>
<!-- Node7&#45;&gt;Node8 -->
<g id="edge8_Node000007_Node000008" class="edge">
<title>Node7&#45;&gt;Node8</title>
<g id="a_edge8_Node000007_Node000008"><a xlink:title=" ">
<path fill="none" stroke="#63b8ff" d="M260.31,-109.75C263.56,-102.57 268.27,-92.18 272.3,-83.27"/>
<polygon fill="#63b8ff" stroke="#63b8ff" points="275.52,-84.64 276.46,-74.09 269.15,-81.75 275.52,-84.64"/>
</a>
</g>
</g>
<!-- Node7&#45;&gt;Node9 -->
<g id="edge12_Node000007_Node000009" class="edge">
<title>Node7&#45;&gt;Node9</title>
<g id="a_edge12_Node000007_Node000009"><a xlink:title=" ">
<path fill="none" stroke="#63b8ff" d="M245.86,-109.99C235.31,-101.28 218.74,-87.2 205.35,-74 189.77,-58.64 173.2,-39.88 161.97,-26.74"/>
<polygon fill="#63b8ff" stroke="#63b8ff" points="164.55,-24.38 155.42,-19.02 159.21,-28.91 164.55,-24.38"/>
</a>
</g>
</g>
<!-- Node8&#45;&gt;Node9 -->
<g id="edge9_Node000008_Node000009" class="edge">
<title>Node8&#45;&gt;Node9</title>
<g id="a_edge9_Node000008_Node000009"><a xlink:title=" ">
<path fill="none" stroke="#63b8ff" d="M259.14,-54.98C237.62,-46.34 204.07,-32.87 179.52,-23.02"/>
<polygon fill="#63b8ff" stroke="#63b8ff" points="180.53,-19.65 169.94,-19.17 177.92,-26.14 180.53,-19.65"/>
</a>
</g>
</g>
<!-- Node10 -->
<g id="Node000010" class="node">
<title>Node10</title>
<g id="a_Node000010"><a xlink:title=" ">
<polygon fill="#e0e0e0" stroke="#999999" points="308.35,-19 252.35,-19 252.35,0 308.35,0 308.35,-19"/>
<text text-anchor="middle" x="280.35" y="-7" font-family="Helvetica,sans-Serif" font-size="10.00">stddef.h</text>
</a>
</g>
</g>
<!-- Node8&#45;&gt;Node10 -->
<g id="edge10_Node000008_Node000010" class="edge">
<title>Node8&#45;&gt;Node10</title>
<g id="a_edge10_Node000008_Node000010"><a xlink:title=" ">
<path fill="none" stroke="#63b8ff" d="M280.35,-54.75C280.35,-47.8 280.35,-37.85 280.35,-29.13"/>
<polygon fill="#63b8ff" stroke="#63b8ff" points="283.85,-29.09 280.35,-19.09 276.85,-29.09 283.85,-29.09"/>
</a>
</g>
</g>
<!-- Node11&#45;&gt;Node3 -->
<g id="edge17_Node000011_Node000003" class="edge">
<title>Node11&#45;&gt;Node3</title>
<g id="a_edge17_Node000011_Node000003"><a xlink:title=" ">
<path fill="none" stroke="#63b8ff" d="M131.73,-109.98C117.48,-101.69 95.6,-88.94 78.9,-79.22"/>
<polygon fill="#63b8ff" stroke="#63b8ff" points="80.64,-76.18 70.24,-74.17 77.12,-82.23 80.64,-76.18"/>
</a>
</g>
</g>
<!-- Node11&#45;&gt;Node8 -->
<g id="edge14_Node000011_Node000008" class="edge">
<title>Node11&#45;&gt;Node8</title>
<g id="a_edge14_Node000011_Node000008"><a xlink:title=" ">
<path fill="none" stroke="#63b8ff" d="M167.88,-109.98C189.82,-101.3 224.09,-87.75 249.04,-77.88"/>
<polygon fill="#63b8ff" stroke="#63b8ff" points="250.42,-81.1 258.43,-74.17 247.84,-74.59 250.42,-81.1"/>
</a>
</g>
</g>
<!-- Node11&#45;&gt;Node9 -->
<g id="edge15_Node000011_Node000009" class="edge">
<title>Node11&#45;&gt;Node9</title>
<g id="a_edge15_Node000011_Node000009"><a xlink:title=" ">
<path fill="none" stroke="#63b8ff" d="M142.84,-109.9C138.3,-97.73 131.32,-74.74 134.35,-55 135.7,-46.19 138.48,-36.74 141.2,-28.82"/>
<polygon fill="#63b8ff" stroke="#63b8ff" points="144.58,-29.77 144.75,-19.18 138.01,-27.35 144.58,-29.77"/>
</a>
</g>
</g>
<!-- Node11&#45;&gt;Node10 -->
<g id="edge16_Node000011_Node000010" class="edge">
<title>Node11&#45;&gt;Node10</title>
<g id="a_edge16_Node000011_Node000010"><a xlink:title=" ">
<path fill="none" stroke="#63b8ff" d="M152.94,-109.96C163.2,-97.04 184.03,-72.2 205.35,-55 220.24,-42.99 238.69,-32 253.57,-23.94"/>
<polygon fill="#63b8ff" stroke="#63b8ff" points="255.55,-26.86 262.76,-19.09 252.28,-20.67 255.55,-26.86"/>
</a>
</g>
</g>
<!-- Node12&#45;&gt;Node8 -->
<g id="edge20_Node000012_Node000008" class="edge">
<title>Node12&#45;&gt;Node8</title>
<g id="a_edge20_Node000012_Node000008"><a xlink:title=" ">
<path fill="none" stroke="#63b8ff" d="M396.18,-109.98C373.58,-101.3 338.29,-87.75 312.6,-77.88"/>
<polygon fill="#63b8ff" stroke="#63b8ff" points="313.51,-74.49 302.92,-74.17 311,-81.02 313.51,-74.49"/>
</a>
</g>
</g>
<!-- Node12&#45;&gt;Node10 -->
<g id="edge21_Node000012_Node000010" class="edge">
<title>Node12&#45;&gt;Node10</title>
<g id="a_edge21_Node000012_Node000010"><a xlink:title=" ">
<path fill="none" stroke="#63b8ff" d="M446.18,-109.93C476.96,-99.04 519.79,-78.76 500.35,-55 477.82,-27.46 375.47,-16.56 318.65,-12.58"/>
<polygon fill="#63b8ff" stroke="#63b8ff" points="318.81,-9.09 308.6,-11.92 318.35,-16.07 318.81,-9.09"/>
</a>
</g>
</g>
</g>
</svg>
