<?xml version="1.0" encoding="UTF-8" standalone="no"?>
<!DOCTYPE svg PUBLIC "-//W3C//DTD SVG 1.1//EN"
 "http://www.w3.org/Graphics/SVG/1.1/DTD/svg11.dtd">
<!-- Generated by graphviz version 2.43.0 (0)
 -->
<!-- Title: src/arch/aarch64/abi_arm64.c Pages: 1 -->
<svg width="506pt" height="335pt"
 viewBox="0.00 0.00 505.50 335.00" xmlns="http://www.w3.org/2000/svg" xmlns:xlink="http://www.w3.org/1999/xlink">
<g id="graph0" class="graph" transform="scale(1 1) rotate(0) translate(4 331)">
<title>src/arch/aarch64/abi_arm64.c</title>
<!-- Node1 -->
<g id="Node000001" class="node">
<title>Node1</title>
<g id="a_Node000001"><a xlink:title="Implements the FFI logic for the AArch64 (ARM64) architecture.">
<polygon fill="#999999" stroke="#666666" points="355.5,-327 240.5,-327 240.5,-297 355.5,-297 355.5,-327"/>
<text text-anchor="start" x="248.5" y="-315" font-family="Helvetica,sans-Serif" font-size="10.00">src/arch/aarch64/abi</text>
<text text-anchor="middle" x="298" y="-304" font-family="Helvetica,sans-Serif" font-size="10.00">_arm64.c</text>
</a>
</g>
</g>
<!-- Node2 -->
<g id="Node000002" class="node">
<title>Node2</title>
<g id="a_Node000002"><a xlink:href="abi__arm64__common_8h.html" target="_top" xlink:title="Common register definitions and instruction encodings for the AArch64 (ARM64) architecture.">
<polygon fill="white" stroke="#666666" points="162,-195 28,-195 28,-165 162,-165 162,-195"/>
<text text-anchor="start" x="36" y="-183" font-family="Helvetica,sans-Serif" font-size="10.00">arch/aarch64/abi_arm64</text>
<text text-anchor="middle" x="95" y="-172" font-family="Helvetica,sans-Serif" font-size="10.00">_common.h</text>
</a>
</g>
</g>
<!-- Node1&#45;&gt;Node2 -->
<g id="edge1_Node000001_Node000002" class="edge">
<title>Node1&#45;&gt;Node2</title>
<g id="a_edge1_Node000001_Node000002"><a xlink:title=" ">
<path fill="none" stroke="#63b8ff" d="M240.22,-306.86C203.77,-301.44 157.91,-289.07 127,-261 111.06,-246.52 102.93,-223.03 98.86,-205.24"/>
<polygon fill="#63b8ff" stroke="#63b8ff" points="102.27,-204.41 96.87,-195.29 95.4,-205.78 102.27,-204.41"/>
</a>
</g>
</g>
<!-- Node4 -->
<g id="Node000004" class="node">
<title>Node4</title>
<g id="a_Node000004"><a xlink:href="abi__arm64__emitters_8h.html" target="_top" xlink:title="Declares internal helper functions for emitting AArch64 machine code.">
<polygon fill="white" stroke="#666666" points="270,-261 136,-261 136,-231 270,-231 270,-261"/>
<text text-anchor="start" x="144" y="-249" font-family="Helvetica,sans-Serif" font-size="10.00">arch/aarch64/abi_arm64</text>
<text text-anchor="middle" x="203" y="-238" font-family="Helvetica,sans-Serif" font-size="10.00">_emitters.h</text>
</a>
</g>
</g>
<!-- Node1&#45;&gt;Node4 -->
<g id="edge3_Node000001_Node000004" class="edge">
<title>Node1&#45;&gt;Node4</title>
<g id="a_edge3_Node000001_Node000004"><a xlink:title=" ">
<path fill="none" stroke="#63b8ff" d="M276.92,-296.8C263.88,-288.01 246.95,-276.61 232.58,-266.93"/>
<polygon fill="#63b8ff" stroke="#63b8ff" points="234.27,-263.85 224.02,-261.16 230.36,-269.65 234.27,-263.85"/>
</a>
</g>
</g>
<!-- Node5 -->
<g id="Node000005" class="node">
<title>Node5</title>
<g id="a_Node000005"><a xlink:href="infix__internals_8h.html" target="_top" xlink:title="Internal data structures, function prototypes, and constants.">
<polygon fill="white" stroke="#666666" points="320,-189.5 180,-189.5 180,-170.5 320,-170.5 320,-189.5"/>
<text text-anchor="middle" x="250" y="-177.5" font-family="Helvetica,sans-Serif" font-size="10.00">common/infix_internals.h</text>
</a>
</g>
</g>
<!-- Node1&#45;&gt;Node5 -->
<g id="edge14_Node000001_Node000005" class="edge">
<title>Node1&#45;&gt;Node5</title>
<g id="a_edge14_Node000001_Node000005"><a xlink:title=" ">
<path fill="none" stroke="#63b8ff" d="M295.91,-296.75C293.22,-280.44 287.83,-253.14 279,-231 274.48,-219.65 267.7,-207.79 261.83,-198.47"/>
<polygon fill="#63b8ff" stroke="#63b8ff" points="264.58,-196.27 256.18,-189.81 258.71,-200.1 264.58,-196.27"/>
</a>
</g>
</g>
<!-- Node9 -->
<g id="Node000009" class="node">
<title>Node9</title>
<g id="a_Node000009"><a xlink:title=" ">
<polygon fill="#e0e0e0" stroke="#999999" points="200,-19 138,-19 138,0 200,0 200,-19"/>
<text text-anchor="middle" x="169" y="-7" font-family="Helvetica,sans-Serif" font-size="10.00">stdbool.h</text>
</a>
</g>
</g>
<!-- Node1&#45;&gt;Node9 -->
<g id="edge18_Node000001_Node000009" class="edge">
<title>Node1&#45;&gt;Node9</title>
<g id="a_edge18_Node000001_Node000009"><a xlink:title=" ">
<path fill="none" stroke="#63b8ff" d="M240.19,-310.56C153.53,-306.52 0,-284.72 0,-181 0,-181 0,-181 0,-118.5 0,-58.07 77.67,-29.94 127.7,-18.09"/>
<polygon fill="#63b8ff" stroke="#63b8ff" points="128.62,-21.47 137.61,-15.87 127.08,-14.64 128.62,-21.47"/>
</a>
</g>
</g>
<!-- Node11 -->
<g id="Node000011" class="node">
<title>Node11</title>
<g id="a_Node000011"><a xlink:href="utility_8h.html" target="_top" xlink:title="A header for conditionally compiled debugging utilities.">
<polygon fill="white" stroke="#666666" points="402,-129 304,-129 304,-110 402,-110 402,-129"/>
<text text-anchor="middle" x="353" y="-117" font-family="Helvetica,sans-Serif" font-size="10.00">common/utility.h</text>
</a>
</g>
</g>
<!-- Node1&#45;&gt;Node11 -->
<g id="edge15_Node000001_Node000011" class="edge">
<title>Node1&#45;&gt;Node11</title>
<g id="a_edge15_Node000001_Node000011"><a xlink:title=" ">
<path fill="none" stroke="#63b8ff" d="M302.04,-296.99C311.8,-263.21 336.62,-177.23 347.62,-139.14"/>
<polygon fill="#63b8ff" stroke="#63b8ff" points="351.03,-139.94 350.44,-129.36 344.31,-138 351.03,-139.94"/>
</a>
</g>
</g>
<!-- Node12 -->
<g id="Node000012" class="node">
<title>Node12</title>
<g id="a_Node000012"><a xlink:title=" ">
<polygon fill="#e0e0e0" stroke="#999999" points="426,-255.5 376,-255.5 376,-236.5 426,-236.5 426,-255.5"/>
<text text-anchor="middle" x="401" y="-243.5" font-family="Helvetica,sans-Serif" font-size="10.00">stdio.h</text>
</a>
</g>
</g>
<!-- Node1&#45;&gt;Node12 -->
<g id="edge19_Node000001_Node000012" class="edge">
<title>Node1&#45;&gt;Node12</title>
<g id="a_edge19_Node000001_Node000012"><a xlink:title=" ">
<path fill="none" stroke="#63b8ff" d="M320.6,-296.95C337.79,-286.27 361.33,-271.65 378.49,-260.98"/>
<polygon fill="#63b8ff" stroke="#63b8ff" points="380.65,-263.77 387.29,-255.52 376.95,-257.82 380.65,-263.77"/>
</a>
</g>
</g>
<!-- Node13 -->
<g id="Node000013" class="node">
<title>Node13</title>
<g id="a_Node000013"><a xlink:title=" ">
<polygon fill="#e0e0e0" stroke="#999999" points="497.5,-255.5 444.5,-255.5 444.5,-236.5 497.5,-236.5 497.5,-255.5"/>
<text text-anchor="middle" x="471" y="-243.5" font-family="Helvetica,sans-Serif" font-size="10.00">stdlib.h</text>
</a>
</g>
</g>
<!-- Node1&#45;&gt;Node13 -->
<g id="edge20_Node000001_Node000013" class="edge">
<title>Node1&#45;&gt;Node13</title>
<g id="a_edge20_Node000001_Node000013"><a xlink:title=" ">
<path fill="none" stroke="#63b8ff" d="M337.06,-296.99C364.51,-287.09 402.07,-273.41 435,-261 436.6,-260.4 438.23,-259.78 439.88,-259.15"/>
<polygon fill="#63b8ff" stroke="#63b8ff" points="441.25,-262.37 449.33,-255.51 438.74,-255.84 441.25,-262.37"/>
</a>
</g>
</g>
<!-- Node3 -->
<g id="Node000003" class="node">
<title>Node3</title>
<g id="a_Node000003"><a xlink:title=" ">
<polygon fill="#e0e0e0" stroke="#999999" points="132.5,-74 79.5,-74 79.5,-55 132.5,-55 132.5,-74"/>
<text text-anchor="middle" x="106" y="-62" font-family="Helvetica,sans-Serif" font-size="10.00">stdint.h</text>
</a>
</g>
</g>
<!-- Node2&#45;&gt;Node3 -->
<g id="edge2_Node000002_Node000003" class="edge">
<title>Node2&#45;&gt;Node3</title>
<g id="a_edge2_Node000002_Node000003"><a xlink:title=" ">
<path fill="none" stroke="#63b8ff" d="M79.9,-165C66.99,-151.24 51.72,-129.54 60,-110 64.98,-98.25 74.75,-88.09 84.01,-80.45"/>
<polygon fill="#63b8ff" stroke="#63b8ff" points="86.4,-83.03 92.22,-74.18 82.15,-77.47 86.4,-83.03"/>
</a>
</g>
</g>
<!-- Node4&#45;&gt;Node2 -->
<g id="edge4_Node000004_Node000002" class="edge">
<title>Node4&#45;&gt;Node2</title>
<g id="a_edge4_Node000004_Node000002"><a xlink:title=" ">
<path fill="none" stroke="#63b8ff" d="M179.3,-230.95C164.11,-221.95 144.18,-210.14 127.52,-200.27"/>
<polygon fill="#63b8ff" stroke="#63b8ff" points="129.03,-197.1 118.65,-195.01 125.46,-203.12 129.03,-197.1"/>
</a>
</g>
</g>
<!-- Node4&#45;&gt;Node5 -->
<g id="edge5_Node000004_Node000005" class="edge">
<title>Node4&#45;&gt;Node5</title>
<g id="a_edge5_Node000004_Node000005"><a xlink:title=" ">
<path fill="none" stroke="#63b8ff" d="M213.43,-230.8C220.54,-221.11 230,-208.24 237.51,-198.01"/>
<polygon fill="#63b8ff" stroke="#63b8ff" points="240.41,-199.98 243.5,-189.84 234.76,-195.83 240.41,-199.98"/>
</a>
</g>
</g>
<!-- Node6 -->
<g id="Node000006" class="node">
<title>Node6</title>
<g id="a_Node000006"><a xlink:href="infix__config_8h.html" target="_top" xlink:title="Platform, architecture, and ABI detection macros.">
<polygon fill="white" stroke="#666666" points="196.5,-129 69.5,-129 69.5,-110 196.5,-110 196.5,-129"/>
<text text-anchor="middle" x="133" y="-117" font-family="Helvetica,sans-Serif" font-size="10.00">common/infix_config.h</text>
</a>
</g>
</g>
<!-- Node5&#45;&gt;Node6 -->
<g id="edge6_Node000005_Node000006" class="edge">
<title>Node5&#45;&gt;Node6</title>
<g id="a_edge6_Node000005_Node000006"><a xlink:title=" ">
<path fill="none" stroke="#63b8ff" d="M232.99,-170.49C213.58,-160.79 181.61,-144.81 159.06,-133.53"/>
<polygon fill="#63b8ff" stroke="#63b8ff" points="160.54,-130.36 150.03,-129.02 157.41,-136.62 160.54,-130.36"/>
</a>
</g>
</g>
<!-- Node7 -->
<g id="Node000007" class="node">
<title>Node7</title>
<g id="a_Node000007"><a xlink:href="infix_8h.html" target="_top" xlink:title="The public interface for the infix FFI library.">
<polygon fill="white" stroke="#666666" points="285.5,-129 214.5,-129 214.5,-110 285.5,-110 285.5,-129"/>
<text text-anchor="middle" x="250" y="-117" font-family="Helvetica,sans-Serif" font-size="10.00">infix/infix.h</text>
</a>
</g>
</g>
<!-- Node5&#45;&gt;Node7 -->
<g id="edge7_Node000005_Node000007" class="edge">
<title>Node5&#45;&gt;Node7</title>
<g id="a_edge7_Node000005_Node000007"><a xlink:title=" ">
<path fill="none" stroke="#63b8ff" d="M250,-170.37C250,-162.25 250,-149.81 250,-139.39"/>
<polygon fill="#63b8ff" stroke="#63b8ff" points="253.5,-139.17 250,-129.17 246.5,-139.17 253.5,-139.17"/>
</a>
</g>
</g>
<!-- Node7&#45;&gt;Node3 -->
<g id="edge13_Node000007_Node000003" class="edge">
<title>Node7&#45;&gt;Node3</title>
<g id="a_edge13_Node000007_Node000003"><a xlink:title=" ">
<path fill="none" stroke="#63b8ff" d="M226.86,-109.98C203.18,-101.27 166.13,-87.63 139.29,-77.75"/>
<polygon fill="#63b8ff" stroke="#63b8ff" points="140.15,-74.34 129.56,-74.17 137.73,-80.91 140.15,-74.34"/>
</a>
</g>
</g>
<!-- Node8 -->
<g id="Node000008" class="node">
<title>Node8</title>
<g id="a_Node000008"><a xlink:href="compat__c23_8h.html" target="_top" xlink:title="Provides forward compatibility macros for C23 features.">
<polygon fill="white" stroke="#666666" points="366.5,-74 235.5,-74 235.5,-55 366.5,-55 366.5,-74"/>
<text text-anchor="middle" x="301" y="-62" font-family="Helvetica,sans-Serif" font-size="10.00">common/compat_c23.h</text>
</a>
</g>
</g>
<!-- Node7&#45;&gt;Node8 -->
<g id="edge8_Node000007_Node000008" class="edge">
<title>Node7&#45;&gt;Node8</title>
<g id="a_edge8_Node000007_Node000008"><a xlink:title=" ">
<path fill="none" stroke="#63b8ff" d="M258.42,-109.75C265.77,-102.11 276.63,-90.82 285.54,-81.56"/>
<polygon fill="#63b8ff" stroke="#63b8ff" points="288.32,-83.72 292.74,-74.09 283.28,-78.87 288.32,-83.72"/>
</a>
</g>
</g>
<!-- Node7&#45;&gt;Node9 -->
<g id="edge11_Node000007_Node000009" class="edge">
<title>Node7&#45;&gt;Node9</title>
<g id="a_edge11_Node000007_Node000009"><a xlink:title=" ">
<path fill="none" stroke="#63b8ff" d="M243.37,-109.66C229.9,-91.69 199.11,-50.64 181.66,-27.38"/>
<polygon fill="#63b8ff" stroke="#63b8ff" points="184.29,-25.06 175.49,-19.16 178.69,-29.26 184.29,-25.06"/>
</a>
</g>
</g>
<!-- Node10 -->
<g id="Node000010" class="node">
<title>Node10</title>
<g id="a_Node000010"><a xlink:title=" ">
<polygon fill="#e0e0e0" stroke="#999999" points="329,-19 273,-19 273,0 329,0 329,-19"/>
<text text-anchor="middle" x="301" y="-7" font-family="Helvetica,sans-Serif" font-size="10.00">stddef.h</text>
</a>
</g>
</g>
<!-- Node7&#45;&gt;Node10 -->
<g id="edge12_Node000007_Node000010" class="edge">
<title>Node7&#45;&gt;Node10</title>
<g id="a_edge12_Node000007_Node000010"><a xlink:title=" ">
<path fill="none" stroke="#63b8ff" d="M242.38,-109.89C232.2,-97.3 216.61,-73.37 227,-55 235.17,-40.55 250.12,-30.27 264.46,-23.26"/>
<polygon fill="#63b8ff" stroke="#63b8ff" points="266.01,-26.4 273.71,-19.12 263.15,-20.01 266.01,-26.4"/>
</a>
</g>
</g>
<!-- Node8&#45;&gt;Node9 -->
<g id="edge9_Node000008_Node000009" class="edge">
<title>Node8&#45;&gt;Node9</title>
<g id="a_edge9_Node000008_Node000009"><a xlink:title=" ">
<path fill="none" stroke="#63b8ff" d="M279.79,-54.98C258.27,-46.34 224.72,-32.87 200.17,-23.02"/>
<polygon fill="#63b8ff" stroke="#63b8ff" points="201.18,-19.65 190.59,-19.17 198.57,-26.14 201.18,-19.65"/>
</a>
</g>
</g>
<!-- Node8&#45;&gt;Node10 -->
<g id="edge10_Node000008_Node000010" class="edge">
<title>Node8&#45;&gt;Node10</title>
<g id="a_edge10_Node000008_Node000010"><a xlink:title=" ">
<path fill="none" stroke="#63b8ff" d="M301,-54.75C301,-47.8 301,-37.85 301,-29.13"/>
<polygon fill="#63b8ff" stroke="#63b8ff" points="304.5,-29.09 301,-19.09 297.5,-29.09 304.5,-29.09"/>
</a>
</g>
</g>
<!-- Node11&#45;&gt;Node8 -->
<g id="edge16_Node000011_Node000008" class="edge">
<title>Node11&#45;&gt;Node8</title>
<g id="a_edge16_Node000011_Node000008"><a xlink:title=" ">
<path fill="none" stroke="#63b8ff" d="M344.41,-109.75C336.84,-102.03 325.62,-90.6 316.49,-81.28"/>
<polygon fill="#63b8ff" stroke="#63b8ff" points="318.93,-78.78 309.43,-74.09 313.93,-83.68 318.93,-78.78"/>
</a>
</g>
</g>
<!-- Node11&#45;&gt;Node10 -->
<g id="edge17_Node000011_Node000010" class="edge">
<title>Node11&#45;&gt;Node10</title>
<g id="a_edge17_Node000011_Node000010"><a xlink:title=" ">
<path fill="none" stroke="#63b8ff" d="M360.64,-109.88C370.83,-97.28 386.44,-73.34 376,-55 367.7,-40.43 352.55,-30.14 338.02,-23.15"/>
<polygon fill="#63b8ff" stroke="#63b8ff" points="339.21,-19.85 328.65,-19.02 336.39,-26.25 339.21,-19.85"/>
</a>
</g>
</g>
</g>
</svg>
