<?xml version="1.0" encoding="UTF-8" standalone="no"?>
<!DOCTYPE svg PUBLIC "-//W3C//DTD SVG 1.1//EN"
 "http://www.w3.org/Graphics/SVG/1.1/DTD/svg11.dtd">
<!-- Generated by graphviz version 2.43.0 (0)
 -->
<!-- Title: src/arch/aarch64/abi_arm64_emitters.c Pages: 1 -->
<svg width="570pt" height="313pt"
 viewBox="0.00 0.00 570.00 313.00" xmlns="http://www.w3.org/2000/svg" xmlns:xlink="http://www.w3.org/1999/xlink">
<g id="graph0" class="graph" transform="scale(1 1) rotate(0) translate(4 309)">
<title>src/arch/aarch64/abi_arm64_emitters.c</title>
<!-- Node1 -->
<g id="Node000001" class="node">
<title>Node1</title>
<g id="a_Node000001"><a xlink:title="Implements internal helper functions for emitting AArch64 machine code.">
<polygon fill="#999999" stroke="#666666" points="452,-305 337,-305 337,-275 452,-275 452,-305"/>
<text text-anchor="start" x="345" y="-293" font-family="Helvetica,sans-Serif" font-size="10.00">src/arch/aarch64/abi</text>
<text text-anchor="middle" x="394.5" y="-282" font-family="Helvetica,sans-Serif" font-size="10.00">_arm64_emitters.c</text>
</a>
</g>
</g>
<!-- Node2 -->
<g id="Node000002" class="node">
<title>Node2</title>
<g id="a_Node000002"><a xlink:href="abi__arm64__emitters_8h.html" target="_top" xlink:title="Declares internal helper functions for emitting AArch64 machine code.">
<polygon fill="white" stroke="#666666" points="282.5,-239 158.5,-239 158.5,-220 282.5,-220 282.5,-239"/>
<text text-anchor="middle" x="220.5" y="-227" font-family="Helvetica,sans-Serif" font-size="10.00">abi_arm64_emitters.h</text>
</a>
</g>
</g>
<!-- Node1&#45;&gt;Node2 -->
<g id="edge1_Node000001_Node000002" class="edge">
<title>Node1&#45;&gt;Node2</title>
<g id="a_edge1_Node000001_Node000002"><a xlink:title=" ">
<path fill="none" stroke="#63b8ff" d="M352.82,-274.99C323.18,-265.02 283.81,-251.78 255.73,-242.35"/>
<polygon fill="#63b8ff" stroke="#63b8ff" points="256.54,-238.92 245.94,-239.05 254.3,-245.56 256.54,-238.92"/>
</a>
</g>
</g>
<!-- Node11 -->
<g id="Node000011" class="node">
<title>Node11</title>
<g id="a_Node000011"><a xlink:href="utility_8h.html" target="_top" xlink:title="A header for conditionally compiled debugging utilities.">
<polygon fill="white" stroke="#666666" points="408.5,-129 310.5,-129 310.5,-110 408.5,-110 408.5,-129"/>
<text text-anchor="middle" x="359.5" y="-117" font-family="Helvetica,sans-Serif" font-size="10.00">common/utility.h</text>
</a>
</g>
</g>
<!-- Node1&#45;&gt;Node11 -->
<g id="edge13_Node000001_Node000011" class="edge">
<title>Node1&#45;&gt;Node11</title>
<g id="a_edge13_Node000001_Node000011"><a xlink:title=" ">
<path fill="none" stroke="#63b8ff" d="M380.01,-274.7C371.66,-265.41 361.96,-252.54 357.5,-239 346.37,-205.25 351.17,-163.09 355.47,-139.24"/>
<polygon fill="#63b8ff" stroke="#63b8ff" points="358.97,-139.61 357.47,-129.12 352.1,-138.25 358.97,-139.61"/>
</a>
</g>
</g>
<!-- Node12 -->
<g id="Node000012" class="node">
<title>Node12</title>
<g id="a_Node000012"><a xlink:title=" ">
<polygon fill="#e0e0e0" stroke="#999999" points="422.5,-239 366.5,-239 366.5,-220 422.5,-220 422.5,-239"/>
<text text-anchor="middle" x="394.5" y="-227" font-family="Helvetica,sans-Serif" font-size="10.00">assert.h</text>
</a>
</g>
</g>
<!-- Node1&#45;&gt;Node12 -->
<g id="edge16_Node000001_Node000012" class="edge">
<title>Node1&#45;&gt;Node12</title>
<g id="a_edge16_Node000001_Node000012"><a xlink:title=" ">
<path fill="none" stroke="#63b8ff" d="M394.5,-274.84C394.5,-267.21 394.5,-257.7 394.5,-249.45"/>
<polygon fill="#63b8ff" stroke="#63b8ff" points="398,-249.27 394.5,-239.27 391,-249.27 398,-249.27"/>
</a>
</g>
</g>
<!-- Node13 -->
<g id="Node000013" class="node">
<title>Node13</title>
<g id="a_Node000013"><a xlink:title=" ">
<polygon fill="#e0e0e0" stroke="#999999" points="490.5,-239 440.5,-239 440.5,-220 490.5,-220 490.5,-239"/>
<text text-anchor="middle" x="465.5" y="-227" font-family="Helvetica,sans-Serif" font-size="10.00">stdio.h</text>
</a>
</g>
</g>
<!-- Node1&#45;&gt;Node13 -->
<g id="edge17_Node000001_Node000013" class="edge">
<title>Node1&#45;&gt;Node13</title>
<g id="a_edge17_Node000001_Node000013"><a xlink:title=" ">
<path fill="none" stroke="#63b8ff" d="M411.69,-274.84C422.31,-266.09 435.94,-254.85 446.83,-245.88"/>
<polygon fill="#63b8ff" stroke="#63b8ff" points="449.37,-248.33 454.86,-239.27 444.92,-242.92 449.37,-248.33"/>
</a>
</g>
</g>
<!-- Node14 -->
<g id="Node000014" class="node">
<title>Node14</title>
<g id="a_Node000014"><a xlink:title=" ">
<polygon fill="#e0e0e0" stroke="#999999" points="562,-239 509,-239 509,-220 562,-220 562,-239"/>
<text text-anchor="middle" x="535.5" y="-227" font-family="Helvetica,sans-Serif" font-size="10.00">string.h</text>
</a>
</g>
</g>
<!-- Node1&#45;&gt;Node14 -->
<g id="edge18_Node000001_Node000014" class="edge">
<title>Node1&#45;&gt;Node14</title>
<g id="a_edge18_Node000001_Node000014"><a xlink:title=" ">
<path fill="none" stroke="#63b8ff" d="M428.27,-274.99C451.69,-265.27 482.62,-252.44 505.23,-243.06"/>
<polygon fill="#63b8ff" stroke="#63b8ff" points="506.78,-246.2 514.68,-239.14 504.1,-239.74 506.78,-246.2"/>
</a>
</g>
</g>
<!-- Node3 -->
<g id="Node000003" class="node">
<title>Node3</title>
<g id="a_Node000003"><a xlink:href="abi__arm64__common_8h.html" target="_top" xlink:title="Common register definitions for the AArch64 (ARM64) architecture.">
<polygon fill="white" stroke="#666666" points="125,-184 0,-184 0,-165 125,-165 125,-184"/>
<text text-anchor="middle" x="62.5" y="-172" font-family="Helvetica,sans-Serif" font-size="10.00">abi_arm64_common.h</text>
</a>
</g>
</g>
<!-- Node2&#45;&gt;Node3 -->
<g id="edge2_Node000002_Node000003" class="edge">
<title>Node2&#45;&gt;Node3</title>
<g id="a_edge2_Node000002_Node000003"><a xlink:title=" ">
<path fill="none" stroke="#63b8ff" d="M195.11,-219.98C168.7,-211.13 127.15,-197.19 97.61,-187.28"/>
<polygon fill="#63b8ff" stroke="#63b8ff" points="98.68,-183.94 88.08,-184.08 96.45,-190.58 98.68,-183.94"/>
</a>
</g>
</g>
<!-- Node5 -->
<g id="Node000005" class="node">
<title>Node5</title>
<g id="a_Node000005"><a xlink:href="infix__internals_8h.html" target="_top" xlink:title="Declarations for internal&#45;only functions, types, and constants.">
<polygon fill="white" stroke="#666666" points="290.5,-184 150.5,-184 150.5,-165 290.5,-165 290.5,-184"/>
<text text-anchor="middle" x="220.5" y="-172" font-family="Helvetica,sans-Serif" font-size="10.00">common/infix_internals.h</text>
</a>
</g>
</g>
<!-- Node2&#45;&gt;Node5 -->
<g id="edge4_Node000002_Node000005" class="edge">
<title>Node2&#45;&gt;Node5</title>
<g id="a_edge4_Node000002_Node000005"><a xlink:title=" ">
<path fill="none" stroke="#63b8ff" d="M220.5,-219.75C220.5,-212.8 220.5,-202.85 220.5,-194.13"/>
<polygon fill="#63b8ff" stroke="#63b8ff" points="224,-194.09 220.5,-184.09 217,-194.09 224,-194.09"/>
</a>
</g>
</g>
<!-- Node4 -->
<g id="Node000004" class="node">
<title>Node4</title>
<g id="a_Node000004"><a xlink:title=" ">
<polygon fill="#e0e0e0" stroke="#999999" points="79,-74 26,-74 26,-55 79,-55 79,-74"/>
<text text-anchor="middle" x="52.5" y="-62" font-family="Helvetica,sans-Serif" font-size="10.00">stdint.h</text>
</a>
</g>
</g>
<!-- Node3&#45;&gt;Node4 -->
<g id="edge3_Node000003_Node000004" class="edge">
<title>Node3&#45;&gt;Node4</title>
<g id="a_edge3_Node000003_Node000004"><a xlink:title=" ">
<path fill="none" stroke="#63b8ff" d="M61.68,-164.66C60.06,-147.17 56.42,-107.8 54.24,-84.27"/>
<polygon fill="#63b8ff" stroke="#63b8ff" points="57.71,-83.79 53.3,-74.16 50.74,-84.44 57.71,-83.79"/>
</a>
</g>
</g>
<!-- Node6 -->
<g id="Node000006" class="node">
<title>Node6</title>
<g id="a_Node000006"><a xlink:href="infix__config_8h.html" target="_top" xlink:title="Internal&#45;only header for platform, architecture, and ABI detection.">
<polygon fill="white" stroke="#666666" points="292,-129 165,-129 165,-110 292,-110 292,-129"/>
<text text-anchor="middle" x="228.5" y="-117" font-family="Helvetica,sans-Serif" font-size="10.00">common/infix_config.h</text>
</a>
</g>
</g>
<!-- Node5&#45;&gt;Node6 -->
<g id="edge5_Node000005_Node000006" class="edge">
<title>Node5&#45;&gt;Node6</title>
<g id="a_edge5_Node000005_Node000006"><a xlink:title=" ">
<path fill="none" stroke="#63b8ff" d="M221.82,-164.75C222.87,-157.8 224.37,-147.85 225.69,-139.13"/>
<polygon fill="#63b8ff" stroke="#63b8ff" points="229.17,-139.5 227.2,-129.09 222.25,-138.45 229.17,-139.5"/>
</a>
</g>
</g>
<!-- Node7 -->
<g id="Node000007" class="node">
<title>Node7</title>
<g id="a_Node000007"><a xlink:href="infix_8h.html" target="_top" xlink:title=" ">
<polygon fill="white" stroke="#666666" points="147,-129 76,-129 76,-110 147,-110 147,-129"/>
<text text-anchor="middle" x="111.5" y="-117" font-family="Helvetica,sans-Serif" font-size="10.00">infix/infix.h</text>
</a>
</g>
</g>
<!-- Node5&#45;&gt;Node7 -->
<g id="edge6_Node000005_Node000007" class="edge">
<title>Node5&#45;&gt;Node7</title>
<g id="a_edge6_Node000005_Node000007"><a xlink:title=" ">
<path fill="none" stroke="#63b8ff" d="M202.99,-164.98C185.53,-156.5 158.49,-143.35 138.33,-133.54"/>
<polygon fill="#63b8ff" stroke="#63b8ff" points="139.86,-130.4 129.33,-129.17 136.79,-136.69 139.86,-130.4"/>
</a>
</g>
</g>
<!-- Node7&#45;&gt;Node4 -->
<g id="edge9_Node000007_Node000004" class="edge">
<title>Node7&#45;&gt;Node4</title>
<g id="a_edge9_Node000007_Node000004"><a xlink:title=" ">
<path fill="none" stroke="#63b8ff" d="M102.02,-109.98C93.3,-102.15 80.16,-90.34 69.6,-80.86"/>
<polygon fill="#63b8ff" stroke="#63b8ff" points="71.93,-78.25 62.15,-74.17 67.25,-83.46 71.93,-78.25"/>
</a>
</g>
</g>
<!-- Node8 -->
<g id="Node000008" class="node">
<title>Node8</title>
<g id="a_Node000008"><a xlink:title=" ">
<polygon fill="#e0e0e0" stroke="#999999" points="170.5,-19 108.5,-19 108.5,0 170.5,0 170.5,-19"/>
<text text-anchor="middle" x="139.5" y="-7" font-family="Helvetica,sans-Serif" font-size="10.00">stdbool.h</text>
</a>
</g>
</g>
<!-- Node7&#45;&gt;Node8 -->
<g id="edge7_Node000007_Node000008" class="edge">
<title>Node7&#45;&gt;Node8</title>
<g id="a_edge7_Node000007_Node000008"><a xlink:title=" ">
<path fill="none" stroke="#63b8ff" d="M113.79,-109.66C118.35,-92.09 128.62,-52.45 134.72,-28.95"/>
<polygon fill="#63b8ff" stroke="#63b8ff" points="138.13,-29.72 137.26,-19.16 131.36,-27.96 138.13,-29.72"/>
</a>
</g>
</g>
<!-- Node9 -->
<g id="Node000009" class="node">
<title>Node9</title>
<g id="a_Node000009"><a xlink:title=" ">
<polygon fill="#e0e0e0" stroke="#999999" points="271.5,-19 215.5,-19 215.5,0 271.5,0 271.5,-19"/>
<text text-anchor="middle" x="243.5" y="-7" font-family="Helvetica,sans-Serif" font-size="10.00">stddef.h</text>
</a>
</g>
</g>
<!-- Node7&#45;&gt;Node9 -->
<g id="edge8_Node000007_Node000009" class="edge">
<title>Node7&#45;&gt;Node9</title>
<g id="a_edge8_Node000007_Node000009"><a xlink:title=" ">
<path fill="none" stroke="#63b8ff" d="M117.81,-109.94C127.64,-96.99 147.66,-72.11 168.5,-55 183.28,-42.86 201.74,-31.87 216.64,-23.84"/>
<polygon fill="#63b8ff" stroke="#63b8ff" points="218.62,-26.76 225.85,-19.02 215.37,-20.56 218.62,-26.76"/>
</a>
</g>
</g>
<!-- Node10 -->
<g id="Node000010" class="node">
<title>Node10</title>
<g id="a_Node000010"><a xlink:href="compat__c23_8h.html" target="_top" xlink:title="Provides compatibility shims for C23 features in a C17/C11 project.">
<polygon fill="white" stroke="#666666" points="309,-74 178,-74 178,-55 309,-55 309,-74"/>
<text text-anchor="middle" x="243.5" y="-62" font-family="Helvetica,sans-Serif" font-size="10.00">common/compat_c23.h</text>
</a>
</g>
</g>
<!-- Node7&#45;&gt;Node10 -->
<g id="edge10_Node000007_Node000010" class="edge">
<title>Node7&#45;&gt;Node10</title>
<g id="a_edge10_Node000007_Node000010"><a xlink:title=" ">
<path fill="none" stroke="#63b8ff" d="M132.71,-109.98C154.23,-101.34 187.78,-87.87 212.33,-78.02"/>
<polygon fill="#63b8ff" stroke="#63b8ff" points="213.93,-81.14 221.91,-74.17 211.32,-74.65 213.93,-81.14"/>
</a>
</g>
</g>
<!-- Node10&#45;&gt;Node8 -->
<g id="edge11_Node000010_Node000008" class="edge">
<title>Node10&#45;&gt;Node8</title>
<g id="a_edge11_Node000010_Node000008"><a xlink:title=" ">
<path fill="none" stroke="#63b8ff" d="M226.79,-54.98C210.29,-46.57 184.8,-33.59 165.62,-23.81"/>
<polygon fill="#63b8ff" stroke="#63b8ff" points="167.01,-20.59 156.51,-19.17 163.83,-26.83 167.01,-20.59"/>
</a>
</g>
</g>
<!-- Node10&#45;&gt;Node9 -->
<g id="edge12_Node000010_Node000009" class="edge">
<title>Node10&#45;&gt;Node9</title>
<g id="a_edge12_Node000010_Node000009"><a xlink:title=" ">
<path fill="none" stroke="#63b8ff" d="M243.5,-54.75C243.5,-47.8 243.5,-37.85 243.5,-29.13"/>
<polygon fill="#63b8ff" stroke="#63b8ff" points="247,-29.09 243.5,-19.09 240,-29.09 247,-29.09"/>
</a>
</g>
</g>
<!-- Node11&#45;&gt;Node9 -->
<g id="edge15_Node000011_Node000009" class="edge">
<title>Node11&#45;&gt;Node9</title>
<g id="a_edge15_Node000011_Node000009"><a xlink:title=" ">
<path fill="none" stroke="#63b8ff" d="M355.52,-109.8C349.17,-96.67 335.7,-71.57 318.5,-55 305.17,-42.16 287.47,-31.44 272.62,-23.74"/>
<polygon fill="#63b8ff" stroke="#63b8ff" points="273.85,-20.44 263.34,-19.12 270.73,-26.71 273.85,-20.44"/>
</a>
</g>
</g>
<!-- Node11&#45;&gt;Node10 -->
<g id="edge14_Node000011_Node000010" class="edge">
<title>Node11&#45;&gt;Node10</title>
<g id="a_edge14_Node000011_Node000010"><a xlink:title=" ">
<path fill="none" stroke="#63b8ff" d="M340.86,-109.98C322.2,-101.46 293.25,-88.23 271.76,-78.41"/>
<polygon fill="#63b8ff" stroke="#63b8ff" points="273.03,-75.14 262.48,-74.17 270.12,-81.51 273.03,-75.14"/>
</a>
</g>
</g>
</g>
</svg>
