<?xml version="1.0" encoding="UTF-8" standalone="no"?>
<!DOCTYPE svg PUBLIC "-//W3C//DTD SVG 1.1//EN"
 "http://www.w3.org/Graphics/SVG/1.1/DTD/svg11.dtd">
<!-- Generated by graphviz version 2.43.0 (0)
 -->
<!-- Title: src/arch/aarch64/abi_arm64_emitters.c Pages: 1 -->
<!--zoomable 335 -->

<svg id="main" version="1.1" xmlns="http://www.w3.org/2000/svg" xmlns:xlink="http://www.w3.org/1999/xlink" xml:space="preserve" onload="init(evt)">
<style type="text/css"><![CDATA[
.node, .edge {opacity: 0.7;}
.node.selected, .edge.selected {opacity: 1;}
.edge:hover path { stroke: red; }
.edge:hover polygon { stroke: red; fill: red; }
]]></style>

<defs>
  <circle id="rim" cx="0" cy="0" r="7"/>
  <circle id="rim2" cx="0" cy="0" r="3.5"/>
  <g id="zoomPlus">
    <use xlink:href="#rim" fill="#404040"><set attributeName="fill" to="#808080" begin="zoomplus.mouseover" end="zoomplus.mouseout"/></use>
    <path d="M-4,0h8M0,-4v8" fill="none" stroke="white" stroke-width="1.5" pointer-events="none"/>
  </g>
  <g id="zoomMin">
    <use xlink:href="#rim" fill="#404040"><set attributeName="fill" to="#808080" begin="zoomminus.mouseover" end="zoomminus.mouseout"/></use>
    <path d="M-4,0h8" fill="none" stroke="white" stroke-width="1.5" pointer-events="none"/>
  </g>
  <g id="arrowUp" transform="translate(30 24)">
    <use xlink:href="#rim"/>
    <path pointer-events="none" fill="none" stroke="white" stroke-width="1.5" d="M0,-3.0v7 M-2.5,-0.5L0,-3.0L2.5,-0.5"/>
  </g>
  <g id="arrowRight" transform="rotate(90) translate(36 -43)">
    <use xlink:href="#rim"/>
    <path pointer-events="none" fill="none" stroke="white" stroke-width="1.5" d="M0,-3.0v7 M-2.5,-0.5L0,-3.0L2.5,-0.5"/>
  </g>
  <g id="arrowDown" transform="rotate(180) translate(-30 -48)">
    <use xlink:href="#rim"/>
    <path pointer-events="none" fill="none" stroke="white" stroke-width="1.5" d="M0,-3.0v7 M-2.5,-0.5L0,-3.0L2.5,-0.5"/>
  </g>
  <g id="arrowLeft" transform="rotate(270) translate(-36 17)">
    <use xlink:href="#rim"/>
    <path pointer-events="none" fill="none" stroke="white" stroke-width="1.5" d="M0,-3.0v7 M-2.5,-0.5L0,-3.0L2.5,-0.5"/>
  </g>
  <g id="resetDef">
    <use xlink:href="#rim2" fill="#404040"><set attributeName="fill" to="#808080" begin="reset.mouseover" end="reset.mouseout"/></use>
  </g>
</defs>
<script type="application/ecmascript">
var viewWidth = 513;
var viewHeight = 335;
var sectionId = 'dynsection-0';
</script>
<script type="application/ecmascript" xlink:href="svg.min.js"/>
<svg id="graph" class="graph">
<g id="viewport">
<title>src/arch/aarch64/abi_arm64_emitters.c</title>
<!-- Node1 -->
<g id="Node000001" class="node">
<title>Node1</title>
<g id="a_Node000001"><a xlink:title="Implements internal helper functions for emitting AArch64 machine code.">
<polygon fill="#999999" stroke="#666666" points="395.14,-327 280.14,-327 280.14,-297 395.14,-297 395.14,-327"/>
<text text-anchor="start" x="288.14" y="-315" font-family="Helvetica,sans-Serif" font-size="10.00">src/arch/aarch64/abi</text>
<text text-anchor="middle" x="337.64" y="-304" font-family="Helvetica,sans-Serif" font-size="10.00">_arm64_emitters.c</text>
</a>
</g>
</g>
<!-- Node2 -->
<g id="Node000002" class="node">
<title>Node2</title>
<g id="a_Node000002"><a xlink:href="abi__arm64__emitters_8h.html" target="_top" xlink:title="Declares internal helper functions for emitting AArch64 machine code.">
<polygon fill="white" stroke="#666666" points="291.64,-261 157.64,-261 157.64,-231 291.64,-231 291.64,-261"/>
<text text-anchor="start" x="165.64" y="-249" font-family="Helvetica,sans-Serif" font-size="10.00">arch/aarch64/abi_arm64</text>
<text text-anchor="middle" x="224.64" y="-238" font-family="Helvetica,sans-Serif" font-size="10.00">_emitters.h</text>
</a>
</g>
</g>
<!-- Node1&#45;&gt;Node2 -->
<g id="edge1_Node000001_Node000002" class="edge">
<title>Node1&#45;&gt;Node2</title>
<g id="a_edge1_Node000001_Node000002"><a xlink:title=" ">
<path fill="none" stroke="#63b8ff" d="M312.84,-296.95C296.79,-287.87 275.71,-275.93 258.18,-266"/>
<polygon fill="#63b8ff" stroke="#63b8ff" points="259.8,-262.9 249.38,-261.01 256.35,-268.99 259.8,-262.9"/>
</a>
</g>
</g>
<!-- Node12 -->
<g id="Node000012" class="node">
<title>Node12</title>
<g id="a_Node000012"><a xlink:href="utility_8h.html" target="_top" xlink:title="A header for conditionally compiled debugging utilities.">
<polygon fill="white" stroke="#666666" points="111.64,-129 13.64,-129 13.64,-110 111.64,-110 111.64,-129"/>
<text text-anchor="middle" x="62.64" y="-117" font-family="Helvetica,sans-Serif" font-size="10.00">common/utility.h</text>
</a>
</g>
</g>
<!-- Node1&#45;&gt;Node12 -->
<g id="edge17_Node000001_Node000012" class="edge">
<title>Node1&#45;&gt;Node12</title>
<g id="a_edge17_Node000001_Node000012"><a xlink:title=" ">
<path fill="none" stroke="#63b8ff" d="M279.86,-306.99C239.7,-301.67 186.75,-289.38 148.64,-261 105.73,-229.05 79.62,-168.79 68.66,-138.64"/>
<polygon fill="#63b8ff" stroke="#63b8ff" points="71.9,-137.3 65.3,-129 65.28,-139.6 71.9,-137.3"/>
</a>
</g>
</g>
<!-- Node13 -->
<g id="Node000013" class="node">
<title>Node13</title>
<g id="a_Node000013"><a xlink:title=" ">
<polygon fill="#e0e0e0" stroke="#999999" points="365.64,-255.5 309.64,-255.5 309.64,-236.5 365.64,-236.5 365.64,-255.5"/>
<text text-anchor="middle" x="337.64" y="-243.5" font-family="Helvetica,sans-Serif" font-size="10.00">assert.h</text>
</a>
</g>
</g>
<!-- Node1&#45;&gt;Node13 -->
<g id="edge20_Node000001_Node000013" class="edge">
<title>Node1&#45;&gt;Node13</title>
<g id="a_edge20_Node000001_Node000013"><a xlink:title=" ">
<path fill="none" stroke="#63b8ff" d="M337.64,-296.8C337.64,-287.7 337.64,-275.79 337.64,-265.9"/>
<polygon fill="#63b8ff" stroke="#63b8ff" points="341.14,-265.84 337.64,-255.84 334.14,-265.84 341.14,-265.84"/>
</a>
</g>
</g>
<!-- Node14 -->
<g id="Node000014" class="node">
<title>Node14</title>
<g id="a_Node000014"><a xlink:title=" ">
<polygon fill="#e0e0e0" stroke="#999999" points="433.64,-255.5 383.64,-255.5 383.64,-236.5 433.64,-236.5 433.64,-255.5"/>
<text text-anchor="middle" x="408.64" y="-243.5" font-family="Helvetica,sans-Serif" font-size="10.00">stdio.h</text>
</a>
</g>
</g>
<!-- Node1&#45;&gt;Node14 -->
<g id="edge21_Node000001_Node000014" class="edge">
<title>Node1&#45;&gt;Node14</title>
<g id="a_edge21_Node000001_Node000014"><a xlink:title=" ">
<path fill="none" stroke="#63b8ff" d="M353.39,-296.8C364.57,-286.72 379.58,-273.19 391.13,-262.78"/>
<polygon fill="#63b8ff" stroke="#63b8ff" points="393.74,-265.14 398.82,-255.84 389.05,-259.94 393.74,-265.14"/>
</a>
</g>
</g>
<!-- Node15 -->
<g id="Node000015" class="node">
<title>Node15</title>
<g id="a_Node000015"><a xlink:title=" ">
<polygon fill="#e0e0e0" stroke="#999999" points="505.14,-255.5 452.14,-255.5 452.14,-236.5 505.14,-236.5 505.14,-255.5"/>
<text text-anchor="middle" x="478.64" y="-243.5" font-family="Helvetica,sans-Serif" font-size="10.00">string.h</text>
</a>
</g>
</g>
<!-- Node1&#45;&gt;Node15 -->
<g id="edge22_Node000001_Node000015" class="edge">
<title>Node1&#45;&gt;Node15</title>
<g id="a_edge22_Node000001_Node000015"><a xlink:title=" ">
<path fill="none" stroke="#63b8ff" d="M368.58,-296.95C393.09,-285.83 427.03,-270.42 450.72,-259.67"/>
<polygon fill="#63b8ff" stroke="#63b8ff" points="452.21,-262.84 459.87,-255.52 449.32,-256.46 452.21,-262.84"/>
</a>
</g>
</g>
<!-- Node3 -->
<g id="Node000003" class="node">
<title>Node3</title>
<g id="a_Node000003"><a xlink:href="abi__arm64__common_8h.html" target="_top" xlink:title="Common register definitions and instruction encodings for the AArch64 (ARM64) architecture.">
<polygon fill="white" stroke="#666666" points="468.64,-195 334.64,-195 334.64,-165 468.64,-165 468.64,-195"/>
<text text-anchor="start" x="342.64" y="-183" font-family="Helvetica,sans-Serif" font-size="10.00">arch/aarch64/abi_arm64</text>
<text text-anchor="middle" x="401.64" y="-172" font-family="Helvetica,sans-Serif" font-size="10.00">_common.h</text>
</a>
</g>
</g>
<!-- Node2&#45;&gt;Node3 -->
<g id="edge2_Node000002_Node000003" class="edge">
<title>Node2&#45;&gt;Node3</title>
<g id="a_edge2_Node000002_Node000003"><a xlink:title=" ">
<path fill="none" stroke="#63b8ff" d="M263.48,-230.95C289.88,-221.41 324.99,-208.71 353.21,-198.51"/>
<polygon fill="#63b8ff" stroke="#63b8ff" points="354.67,-201.7 362.88,-195.01 352.29,-195.12 354.67,-201.7"/>
</a>
</g>
</g>
<!-- Node5 -->
<g id="Node000005" class="node">
<title>Node5</title>
<g id="a_Node000005"><a xlink:href="infix__internals_8h.html" target="_top" xlink:title="Internal data structures, function prototypes, and constants.">
<polygon fill="white" stroke="#666666" points="294.64,-189.5 154.64,-189.5 154.64,-170.5 294.64,-170.5 294.64,-189.5"/>
<text text-anchor="middle" x="224.64" y="-177.5" font-family="Helvetica,sans-Serif" font-size="10.00">common/infix_internals.h</text>
</a>
</g>
</g>
<!-- Node2&#45;&gt;Node5 -->
<g id="edge4_Node000002_Node000005" class="edge">
<title>Node2&#45;&gt;Node5</title>
<g id="a_edge4_Node000002_Node000005"><a xlink:title=" ">
<path fill="none" stroke="#63b8ff" d="M224.64,-230.8C224.64,-221.7 224.64,-209.79 224.64,-199.9"/>
<polygon fill="#63b8ff" stroke="#63b8ff" points="228.14,-199.84 224.64,-189.84 221.14,-199.84 228.14,-199.84"/>
</a>
</g>
</g>
<!-- Node4 -->
<g id="Node000004" class="node">
<title>Node4</title>
<g id="a_Node000004"><a xlink:title=" ">
<polygon fill="#e0e0e0" stroke="#999999" points="476.14,-74 423.14,-74 423.14,-55 476.14,-55 476.14,-74"/>
<text text-anchor="middle" x="449.64" y="-62" font-family="Helvetica,sans-Serif" font-size="10.00">stdint.h</text>
</a>
</g>
</g>
<!-- Node3&#45;&gt;Node4 -->
<g id="edge3_Node000003_Node000004" class="edge">
<title>Node3&#45;&gt;Node4</title>
<g id="a_edge3_Node000003_Node000004"><a xlink:title=" ">
<path fill="none" stroke="#63b8ff" d="M407.72,-164.63C416.43,-144.03 432.46,-106.12 441.97,-83.63"/>
<polygon fill="#63b8ff" stroke="#63b8ff" points="445.27,-84.8 445.94,-74.23 438.83,-82.08 445.27,-84.8"/>
</a>
</g>
</g>
<!-- Node6 -->
<g id="Node000006" class="node">
<title>Node6</title>
<g id="a_Node000006"><a xlink:href="infix__config_8h.html" target="_top" xlink:title="Platform, architecture, and ABI detection macros.">
<polygon fill="white" stroke="#666666" points="141.14,-74 14.14,-74 14.14,-55 141.14,-55 141.14,-74"/>
<text text-anchor="middle" x="77.64" y="-62" font-family="Helvetica,sans-Serif" font-size="10.00">common/infix_config.h</text>
</a>
</g>
</g>
<!-- Node5&#45;&gt;Node6 -->
<g id="edge5_Node000005_Node000006" class="edge">
<title>Node5&#45;&gt;Node6</title>
<g id="a_edge5_Node000005_Node000006"><a xlink:title=" ">
<path fill="none" stroke="#63b8ff" d="M212.91,-170.21C199.68,-160.27 177.54,-143.57 158.64,-129 137.38,-112.62 113.19,-93.6 96.82,-80.68"/>
<polygon fill="#63b8ff" stroke="#63b8ff" points="98.61,-77.64 88.6,-74.19 94.27,-83.13 98.61,-77.64"/>
</a>
</g>
</g>
<!-- Node7 -->
<g id="Node000007" class="node">
<title>Node7</title>
<g id="a_Node000007"><a xlink:href="platform_8h.html" target="_top" xlink:title="Declares internal, runtime CPU/OS feature detection functions.">
<polygon fill="white" stroke="#666666" points="281.14,-129 168.14,-129 168.14,-110 281.14,-110 281.14,-129"/>
<text text-anchor="middle" x="224.64" y="-117" font-family="Helvetica,sans-Serif" font-size="10.00">common/platform.h</text>
</a>
</g>
</g>
<!-- Node5&#45;&gt;Node7 -->
<g id="edge6_Node000005_Node000007" class="edge">
<title>Node5&#45;&gt;Node7</title>
<g id="a_edge6_Node000005_Node000007"><a xlink:title=" ">
<path fill="none" stroke="#63b8ff" d="M224.64,-170.37C224.64,-162.25 224.64,-149.81 224.64,-139.39"/>
<polygon fill="#63b8ff" stroke="#63b8ff" points="228.14,-139.17 224.64,-129.17 221.14,-139.17 228.14,-139.17"/>
</a>
</g>
</g>
<!-- Node11 -->
<g id="Node000011" class="node">
<title>Node11</title>
<g id="a_Node000011"><a xlink:href="infix_8h.html" target="_top" xlink:title="The public interface for the infix FFI library.">
<polygon fill="white" stroke="#666666" points="370.14,-129 299.14,-129 299.14,-110 370.14,-110 370.14,-129"/>
<text text-anchor="middle" x="334.64" y="-117" font-family="Helvetica,sans-Serif" font-size="10.00">infix/infix.h</text>
</a>
</g>
</g>
<!-- Node5&#45;&gt;Node11 -->
<g id="edge12_Node000005_Node000011" class="edge">
<title>Node5&#45;&gt;Node11</title>
<g id="a_edge12_Node000005_Node000011"><a xlink:title=" ">
<path fill="none" stroke="#63b8ff" d="M240.87,-170.37C258.9,-160.78 288.25,-145.17 309.32,-133.97"/>
<polygon fill="#63b8ff" stroke="#63b8ff" points="311.15,-136.95 318.34,-129.17 307.87,-130.77 311.15,-136.95"/>
</a>
</g>
</g>
<!-- Node7&#45;&gt;Node6 -->
<g id="edge10_Node000007_Node000006" class="edge">
<title>Node7&#45;&gt;Node6</title>
<g id="a_edge10_Node000007_Node000006"><a xlink:title=" ">
<path fill="none" stroke="#63b8ff" d="M201.02,-109.98C176.73,-101.23 138.69,-87.51 111.26,-77.62"/>
<polygon fill="#63b8ff" stroke="#63b8ff" points="112.28,-74.27 101.68,-74.17 109.9,-80.85 112.28,-74.27"/>
</a>
</g>
</g>
<!-- Node8 -->
<g id="Node000008" class="node">
<title>Node8</title>
<g id="a_Node000008"><a xlink:href="compat__c23_8h.html" target="_top" xlink:title="Provides forward compatibility macros for C23 features.">
<polygon fill="white" stroke="#666666" points="290.14,-74 159.14,-74 159.14,-55 290.14,-55 290.14,-74"/>
<text text-anchor="middle" x="224.64" y="-62" font-family="Helvetica,sans-Serif" font-size="10.00">common/compat_c23.h</text>
</a>
</g>
</g>
<!-- Node7&#45;&gt;Node8 -->
<g id="edge7_Node000007_Node000008" class="edge">
<title>Node7&#45;&gt;Node8</title>
<g id="a_edge7_Node000007_Node000008"><a xlink:title=" ">
<path fill="none" stroke="#63b8ff" d="M224.64,-109.75C224.64,-102.8 224.64,-92.85 224.64,-84.13"/>
<polygon fill="#63b8ff" stroke="#63b8ff" points="228.14,-84.09 224.64,-74.09 221.14,-84.09 228.14,-84.09"/>
</a>
</g>
</g>
<!-- Node9 -->
<g id="Node000009" class="node">
<title>Node9</title>
<g id="a_Node000009"><a xlink:title=" ">
<polygon fill="#e0e0e0" stroke="#999999" points="387.64,-19 325.64,-19 325.64,0 387.64,0 387.64,-19"/>
<text text-anchor="middle" x="356.64" y="-7" font-family="Helvetica,sans-Serif" font-size="10.00">stdbool.h</text>
</a>
</g>
</g>
<!-- Node7&#45;&gt;Node9 -->
<g id="edge11_Node000007_Node000009" class="edge">
<title>Node7&#45;&gt;Node9</title>
<g id="a_edge11_Node000007_Node000009"><a xlink:title=" ">
<path fill="none" stroke="#63b8ff" d="M242.28,-109.98C258.13,-101.89 281.61,-88.79 299.64,-74 316.73,-59.97 333.27,-40.7 344.09,-27.08"/>
<polygon fill="#63b8ff" stroke="#63b8ff" points="346.95,-29.11 350.32,-19.06 341.43,-24.81 346.95,-29.11"/>
</a>
</g>
</g>
<!-- Node8&#45;&gt;Node9 -->
<g id="edge8_Node000008_Node000009" class="edge">
<title>Node8&#45;&gt;Node9</title>
<g id="a_edge8_Node000008_Node000009"><a xlink:title=" ">
<path fill="none" stroke="#63b8ff" d="M245.84,-54.98C267.37,-46.34 300.92,-32.87 325.46,-23.02"/>
<polygon fill="#63b8ff" stroke="#63b8ff" points="327.07,-26.14 335.04,-19.17 324.46,-19.65 327.07,-26.14"/>
</a>
</g>
</g>
<!-- Node10 -->
<g id="Node000010" class="node">
<title>Node10</title>
<g id="a_Node000010"><a xlink:title=" ">
<polygon fill="#e0e0e0" stroke="#999999" points="252.64,-19 196.64,-19 196.64,0 252.64,0 252.64,-19"/>
<text text-anchor="middle" x="224.64" y="-7" font-family="Helvetica,sans-Serif" font-size="10.00">stddef.h</text>
</a>
</g>
</g>
<!-- Node8&#45;&gt;Node10 -->
<g id="edge9_Node000008_Node000010" class="edge">
<title>Node8&#45;&gt;Node10</title>
<g id="a_edge9_Node000008_Node000010"><a xlink:title=" ">
<path fill="none" stroke="#63b8ff" d="M224.64,-54.75C224.64,-47.8 224.64,-37.85 224.64,-29.13"/>
<polygon fill="#63b8ff" stroke="#63b8ff" points="228.14,-29.09 224.64,-19.09 221.14,-29.09 228.14,-29.09"/>
</a>
</g>
</g>
<!-- Node11&#45;&gt;Node4 -->
<g id="edge16_Node000011_Node000004" class="edge">
<title>Node11&#45;&gt;Node4</title>
<g id="a_edge16_Node000011_Node000004"><a xlink:title=" ">
<path fill="none" stroke="#63b8ff" d="M353.11,-109.98C371.61,-101.46 400.32,-88.23 421.62,-78.41"/>
<polygon fill="#63b8ff" stroke="#63b8ff" points="423.21,-81.53 430.82,-74.17 420.28,-75.18 423.21,-81.53"/>
</a>
</g>
</g>
<!-- Node11&#45;&gt;Node8 -->
<g id="edge13_Node000011_Node000008" class="edge">
<title>Node11&#45;&gt;Node8</title>
<g id="a_edge13_Node000011_Node000008"><a xlink:title=" ">
<path fill="none" stroke="#63b8ff" d="M316.96,-109.98C299.35,-101.5 272.06,-88.35 251.71,-78.54"/>
<polygon fill="#63b8ff" stroke="#63b8ff" points="253.16,-75.36 242.63,-74.17 250.12,-81.66 253.16,-75.36"/>
</a>
</g>
</g>
<!-- Node11&#45;&gt;Node9 -->
<g id="edge14_Node000011_Node000009" class="edge">
<title>Node11&#45;&gt;Node9</title>
<g id="a_edge14_Node000011_Node000009"><a xlink:title=" ">
<path fill="none" stroke="#63b8ff" d="M344.8,-109.81C353.54,-101.6 365.53,-88.43 370.64,-74 375.93,-59.05 371.2,-41.39 365.85,-28.5"/>
<polygon fill="#63b8ff" stroke="#63b8ff" points="368.98,-26.93 361.61,-19.32 362.63,-29.86 368.98,-26.93"/>
</a>
</g>
</g>
<!-- Node11&#45;&gt;Node10 -->
<g id="edge15_Node000011_Node000010" class="edge">
<title>Node11&#45;&gt;Node10</title>
<g id="a_edge15_Node000011_Node000010"><a xlink:title=" ">
<path fill="none" stroke="#63b8ff" d="M331.55,-109.77C326.54,-96.61 315.58,-71.46 299.64,-55 286.93,-41.89 269.56,-31.25 254.73,-23.67"/>
<polygon fill="#63b8ff" stroke="#63b8ff" points="255.95,-20.38 245.43,-19.14 252.88,-26.67 255.95,-20.38"/>
</a>
</g>
</g>
<!-- Node12&#45;&gt;Node8 -->
<g id="edge18_Node000012_Node000008" class="edge">
<title>Node12&#45;&gt;Node8</title>
<g id="a_edge18_Node000012_Node000008"><a xlink:title=" ">
<path fill="none" stroke="#63b8ff" d="M88.66,-109.98C115.74,-101.13 158.35,-87.19 188.64,-77.28"/>
<polygon fill="#63b8ff" stroke="#63b8ff" points="189.99,-80.52 198.4,-74.08 187.81,-73.87 189.99,-80.52"/>
</a>
</g>
</g>
<!-- Node12&#45;&gt;Node10 -->
<g id="edge19_Node000012_Node000010" class="edge">
<title>Node12&#45;&gt;Node10</title>
<g id="a_edge19_Node000012_Node000010"><a xlink:title=" ">
<path fill="none" stroke="#63b8ff" d="M44.69,-109.93C22.04,-97.98 -12.1,-75.46 4.64,-55 27.17,-27.46 129.52,-16.56 186.34,-12.58"/>
<polygon fill="#63b8ff" stroke="#63b8ff" points="186.64,-16.07 196.39,-11.92 186.18,-9.09 186.64,-16.07"/>
</a>
</g>
</g>
</g>
</svg>

<g id="navigator" transform="translate(0 0)" fill="#404254">
  <rect fill="#f2f5e9" fill-opacity="0.5" stroke="#606060" stroke-width=".5" x="0" y="0" width="60" height="60"/>
  <use id="zoomplus" xlink:href="#zoomPlus" x="17" y="9" onmousedown="handleZoom(evt,'in')"/>
  <use id="zoomminus" xlink:href="#zoomMin" x="42" y="9" onmousedown="handleZoom(evt,'out')"/>
  <use id="reset" xlink:href="#resetDef" x="30" y="36" onmousedown="handleReset()"/>
   <use id="arrowup" xlink:href="#arrowUp" x="0" y="0" onmousedown="handlePan(0,-1)"/>
  <use id="arrowright" xlink:href="#arrowRight" x="0" y="0" onmousedown="handlePan(1,0)"/>
  <use id="arrowdown" xlink:href="#arrowDown" x="0" y="0" onmousedown="handlePan(0,1)"/>
  <use id="arrowleft" xlink:href="#arrowLeft" x="0" y="0" onmousedown="handlePan(-1,0)"/>
</g>
<svg viewBox="0 0 15 15" width="100%" height="30px" preserveAspectRatio="xMaxYMin meet">
 <g id="arrow_out" transform="scale(0.3 0.3)">
  <a xlink:href="abi__arm64__emitters_8c__incl_org.svg" target="_base">
   <rect id="button" ry="5" rx="5" y="6" x="6" height="38" width="38"
        fill="#f2f5e9" fill-opacity="0.5" stroke="#606060" stroke-width="1.0"/>
   <path id="arrow"
     d="M 11.500037,31.436501 C 11.940474,20.09759 22.043105,11.32322 32.158766,21.979434 L 37.068811,17.246167 C 37.068811,17.246167 37.088388,32 37.088388,32 L 22.160133,31.978069 C 22.160133,31.978069 26.997745,27.140456 26.997745,27.140456 C 18.528582,18.264221 13.291696,25.230495 11.500037,31.436501 z"
     style="fill:#404040;"/>
  </a>
 </g>
</svg>

<style type='text/css'>
<![CDATA[
[data-mouse-over-selected='false'] { opacity: 0.7; }
[data-mouse-over-selected='true']  { opacity: 1.0; }
]]>
</style>
<script type="application/ecmascript"><![CDATA[
document.addEventListener('DOMContentLoaded', (event) => {
  highlightEdges();
  highlightAdjacentNodes();
});
]]></script>
</svg>
