<?xml version="1.0" encoding="UTF-8" standalone="no"?>
<!DOCTYPE svg PUBLIC "-//W3C//DTD SVG 1.1//EN"
 "http://www.w3.org/Graphics/SVG/1.1/DTD/svg11.dtd">
<!-- Generated by graphviz version 2.43.0 (0)
 -->
<!-- Title: src/arch/riscv/abi_riscv64_emitters.c Pages: 1 -->
<!--zoomable 390 -->

<svg id="main" version="1.1" xmlns="http://www.w3.org/2000/svg" xmlns:xlink="http://www.w3.org/1999/xlink" xml:space="preserve" onload="init(evt)">
<style type="text/css"><![CDATA[
.node, .edge {opacity: 0.7;}
.node.selected, .edge.selected {opacity: 1;}
.edge:hover path { stroke: red; }
.edge:hover polygon { stroke: red; fill: red; }
]]></style>

<defs>
  <circle id="rim" cx="0" cy="0" r="7"/>
  <circle id="rim2" cx="0" cy="0" r="3.5"/>
  <g id="zoomPlus">
    <use xlink:href="#rim" fill="#404040"><set attributeName="fill" to="#808080" begin="zoomplus.mouseover" end="zoomplus.mouseout"/></use>
    <path d="M-4,0h8M0,-4v8" fill="none" stroke="white" stroke-width="1.5" pointer-events="none"/>
  </g>
  <g id="zoomMin">
    <use xlink:href="#rim" fill="#404040"><set attributeName="fill" to="#808080" begin="zoomminus.mouseover" end="zoomminus.mouseout"/></use>
    <path d="M-4,0h8" fill="none" stroke="white" stroke-width="1.5" pointer-events="none"/>
  </g>
  <g id="arrowUp" transform="translate(30 24)">
    <use xlink:href="#rim"/>
    <path pointer-events="none" fill="none" stroke="white" stroke-width="1.5" d="M0,-3.0v7 M-2.5,-0.5L0,-3.0L2.5,-0.5"/>
  </g>
  <g id="arrowRight" transform="rotate(90) translate(36 -43)">
    <use xlink:href="#rim"/>
    <path pointer-events="none" fill="none" stroke="white" stroke-width="1.5" d="M0,-3.0v7 M-2.5,-0.5L0,-3.0L2.5,-0.5"/>
  </g>
  <g id="arrowDown" transform="rotate(180) translate(-30 -48)">
    <use xlink:href="#rim"/>
    <path pointer-events="none" fill="none" stroke="white" stroke-width="1.5" d="M0,-3.0v7 M-2.5,-0.5L0,-3.0L2.5,-0.5"/>
  </g>
  <g id="arrowLeft" transform="rotate(270) translate(-36 17)">
    <use xlink:href="#rim"/>
    <path pointer-events="none" fill="none" stroke="white" stroke-width="1.5" d="M0,-3.0v7 M-2.5,-0.5L0,-3.0L2.5,-0.5"/>
  </g>
  <g id="resetDef">
    <use xlink:href="#rim2" fill="#404040"><set attributeName="fill" to="#808080" begin="reset.mouseover" end="reset.mouseout"/></use>
  </g>
</defs>
<script type="application/ecmascript">
var viewWidth = 698;
var viewHeight = 390;
var sectionId = 'dynsection-0';
</script>
<script type="application/ecmascript" xlink:href="svg.min.js"/>
<svg id="graph" class="graph">
<g id="viewport">
<title>src/arch/riscv/abi_riscv64_emitters.c</title>
<!-- Node1 -->
<g id="Node000001" class="node">
<title>Node1</title>
<g id="a_Node000001"><a xlink:title="Emits single RISC&#45;V (RV64GC) instructions into a code_buffer.">
<polygon fill="#999999" stroke="#666666" points="577,-382 465,-382 465,-352 577,-352 577,-382"/>
<text text-anchor="start" x="473" y="-370" font-family="Helvetica,sans-Serif" font-size="10.00">src/arch/riscv/abi</text>
<text text-anchor="middle" x="521" y="-359" font-family="Helvetica,sans-Serif" font-size="10.00">_riscv64_emitters.c</text>
</a>
</g>
</g>
<!-- Node2 -->
<g id="Node000002" class="node">
<title>Node2</title>
<g id="a_Node000002"><a xlink:href="abi__riscv64__emitters_8h.html" target="_top" xlink:title="Public interface for emitting RISC&#45;V (RV64GC) instructions.">
<polygon fill="white" stroke="#666666" points="474,-316 352,-316 352,-286 474,-286 474,-316"/>
<text text-anchor="start" x="360" y="-304" font-family="Helvetica,sans-Serif" font-size="10.00">arch/riscv/abi_riscv64</text>
<text text-anchor="middle" x="413" y="-293" font-family="Helvetica,sans-Serif" font-size="10.00">_emitters.h</text>
</a>
</g>
</g>
<!-- Node1&#45;&gt;Node2 -->
<g id="edge1_Node000001_Node000002" class="edge">
<title>Node1&#45;&gt;Node2</title>
<g id="a_edge1_Node000001_Node000002"><a xlink:title=" ">
<path fill="none" stroke="#63b8ff" d="M497.3,-351.95C482.11,-342.95 462.18,-331.14 445.52,-321.27"/>
<polygon fill="#63b8ff" stroke="#63b8ff" points="447.03,-318.1 436.65,-316.01 443.46,-324.12 447.03,-318.1"/>
</a>
</g>
</g>
<!-- Node8 -->
<g id="Node000008" class="node">
<title>Node8</title>
<g id="a_Node000008"><a xlink:title=" ">
<polygon fill="#e0e0e0" stroke="#999999" points="107,-19 45,-19 45,0 107,0 107,-19"/>
<text text-anchor="middle" x="76" y="-7" font-family="Helvetica,sans-Serif" font-size="10.00">stdbool.h</text>
</a>
</g>
</g>
<!-- Node1&#45;&gt;Node8 -->
<g id="edge23_Node000001_Node000008" class="edge">
<title>Node1&#45;&gt;Node8</title>
<g id="a_edge23_Node000001_Node000008"><a xlink:title=" ">
<path fill="none" stroke="#63b8ff" d="M464.75,-363.83C330.03,-357.12 0,-330.97 0,-236 0,-236 0,-236 0,-118.5 0,-79.47 33.61,-44.58 56.13,-25.6"/>
<polygon fill="#63b8ff" stroke="#63b8ff" points="58.56,-28.14 64.12,-19.12 54.15,-22.7 58.56,-28.14"/>
</a>
</g>
</g>
<!-- Node9 -->
<g id="Node000009" class="node">
<title>Node9</title>
<g id="a_Node000009"><a xlink:title=" ">
<polygon fill="#e0e0e0" stroke="#999999" points="422,-19 366,-19 366,0 422,0 422,-19"/>
<text text-anchor="middle" x="394" y="-7" font-family="Helvetica,sans-Serif" font-size="10.00">stddef.h</text>
</a>
</g>
</g>
<!-- Node1&#45;&gt;Node9 -->
<g id="edge24_Node000001_Node000009" class="edge">
<title>Node1&#45;&gt;Node9</title>
<g id="a_edge24_Node000001_Node000009"><a xlink:title=" ">
<path fill="none" stroke="#63b8ff" d="M517.52,-351.67C512.03,-327.83 502,-278.43 502,-236 502,-236 502,-236 502,-173.5 502,-109.89 444.14,-52.07 413.12,-25.64"/>
<polygon fill="#63b8ff" stroke="#63b8ff" points="415.08,-22.73 405.15,-19.04 410.62,-28.12 415.08,-22.73"/>
</a>
</g>
</g>
<!-- Node10 -->
<g id="Node000010" class="node">
<title>Node10</title>
<g id="a_Node000010"><a xlink:title=" ">
<polygon fill="#e0e0e0" stroke="#999999" points="547.5,-19 494.5,-19 494.5,0 547.5,0 547.5,-19"/>
<text text-anchor="middle" x="521" y="-7" font-family="Helvetica,sans-Serif" font-size="10.00">stdint.h</text>
</a>
</g>
</g>
<!-- Node1&#45;&gt;Node10 -->
<g id="edge25_Node000001_Node000010" class="edge">
<title>Node1&#45;&gt;Node10</title>
<g id="a_edge25_Node000001_Node000010"><a xlink:title=" ">
<path fill="none" stroke="#63b8ff" d="M524.48,-351.67C529.97,-327.83 540,-278.43 540,-236 540,-236 540,-236 540,-118.5 540,-86.56 531.84,-50.1 526.22,-28.77"/>
<polygon fill="#63b8ff" stroke="#63b8ff" points="529.58,-27.81 523.56,-19.09 522.83,-29.66 529.58,-27.81"/>
</a>
</g>
</g>
<!-- Node12 -->
<g id="Node000012" class="node">
<title>Node12</title>
<g id="a_Node000012"><a xlink:href="abi__riscv64__common_8h.html" target="_top" xlink:title="Common register definitions and instruction encodings for the RISC&#45;V RV64GC architecture.">
<polygon fill="white" stroke="#666666" points="690,-250 568,-250 568,-220 690,-220 690,-250"/>
<text text-anchor="start" x="576" y="-238" font-family="Helvetica,sans-Serif" font-size="10.00">arch/riscv/abi_riscv64</text>
<text text-anchor="middle" x="629" y="-227" font-family="Helvetica,sans-Serif" font-size="10.00">_common.h</text>
</a>
</g>
</g>
<!-- Node1&#45;&gt;Node12 -->
<g id="edge20_Node000001_Node000012" class="edge">
<title>Node1&#45;&gt;Node12</title>
<g id="a_edge20_Node000001_Node000012"><a xlink:title=" ">
<path fill="none" stroke="#63b8ff" d="M532.76,-351.84C551.51,-329.28 588.31,-284.98 610.57,-258.18"/>
<polygon fill="#63b8ff" stroke="#63b8ff" points="613.55,-260.07 617.25,-250.14 608.17,-255.6 613.55,-260.07"/>
</a>
</g>
</g>
<!-- Node13 -->
<g id="Node000013" class="node">
<title>Node13</title>
<g id="a_Node000013"><a xlink:title=" ">
<polygon fill="#e0e0e0" stroke="#999999" points="659.5,-310.5 606.5,-310.5 606.5,-291.5 659.5,-291.5 659.5,-310.5"/>
<text text-anchor="middle" x="633" y="-298.5" font-family="Helvetica,sans-Serif" font-size="10.00">limits.h</text>
</a>
</g>
</g>
<!-- Node1&#45;&gt;Node13 -->
<g id="edge22_Node000001_Node000013" class="edge">
<title>Node1&#45;&gt;Node13</title>
<g id="a_edge22_Node000001_Node000013"><a xlink:title=" ">
<path fill="none" stroke="#63b8ff" d="M545.58,-351.95C564.53,-341.13 590.58,-326.24 609.3,-315.54"/>
<polygon fill="#63b8ff" stroke="#63b8ff" points="611.15,-318.52 618.09,-310.52 607.68,-312.44 611.15,-318.52"/>
</a>
</g>
</g>
<!-- Node3 -->
<g id="Node000003" class="node">
<title>Node3</title>
<g id="a_Node000003"><a xlink:href="infix__internals_8h.html" target="_top" xlink:title="Internal data structures, function prototypes, and constants.">
<polygon fill="white" stroke="#666666" points="383,-244.5 243,-244.5 243,-225.5 383,-225.5 383,-244.5"/>
<text text-anchor="middle" x="313" y="-232.5" font-family="Helvetica,sans-Serif" font-size="10.00">common/infix_internals.h</text>
</a>
</g>
</g>
<!-- Node2&#45;&gt;Node3 -->
<g id="edge2_Node000002_Node000003" class="edge">
<title>Node2&#45;&gt;Node3</title>
<g id="a_edge2_Node000002_Node000003"><a xlink:title=" ">
<path fill="none" stroke="#63b8ff" d="M390.81,-285.8C374.2,-275.17 351.6,-260.7 335.03,-250.1"/>
<polygon fill="#63b8ff" stroke="#63b8ff" points="336.84,-247.1 326.53,-244.66 333.06,-253 336.84,-247.1"/>
</a>
</g>
</g>
<!-- Node2&#45;&gt;Node8 -->
<g id="edge17_Node000002_Node000008" class="edge">
<title>Node2&#45;&gt;Node8</title>
<g id="a_edge17_Node000002_Node000008"><a xlink:title=" ">
<path fill="none" stroke="#63b8ff" d="M351.92,-292.55C245.65,-277.88 38,-240.84 38,-175.5 38,-175.5 38,-175.5 38,-118.5 38,-85.02 54.45,-48.84 65.7,-28.01"/>
<polygon fill="#63b8ff" stroke="#63b8ff" points="68.87,-29.53 70.72,-19.1 62.76,-26.1 68.87,-29.53"/>
</a>
</g>
</g>
<!-- Node2&#45;&gt;Node9 -->
<g id="edge18_Node000002_Node000009" class="edge">
<title>Node2&#45;&gt;Node9</title>
<g id="a_edge18_Node000002_Node000009"><a xlink:title=" ">
<path fill="none" stroke="#63b8ff" d="M415.45,-285.86C419.21,-262.82 426,-215.7 426,-175.5 426,-175.5 426,-175.5 426,-118.5 426,-85.71 412.27,-49.54 402.8,-28.49"/>
<polygon fill="#63b8ff" stroke="#63b8ff" points="405.86,-26.77 398.45,-19.2 399.52,-29.74 405.86,-26.77"/>
</a>
</g>
</g>
<!-- Node2&#45;&gt;Node10 -->
<g id="edge19_Node000002_Node000010" class="edge">
<title>Node2&#45;&gt;Node10</title>
<g id="a_edge19_Node000002_Node000010"><a xlink:title=" ">
<path fill="none" stroke="#63b8ff" d="M419.99,-285.71C424.74,-275.79 431.03,-262.22 436,-250 469.03,-168.75 502.01,-69.28 515.11,-28.87"/>
<polygon fill="#63b8ff" stroke="#63b8ff" points="518.45,-29.9 518.19,-19.31 511.79,-27.75 518.45,-29.9"/>
</a>
</g>
</g>
<!-- Node4 -->
<g id="Node000004" class="node">
<title>Node4</title>
<g id="a_Node000004"><a xlink:href="infix__config_8h.html" target="_top" xlink:title="Platform, architecture, and ABI detection macros.">
<polygon fill="white" stroke="#666666" points="231.5,-74 104.5,-74 104.5,-55 231.5,-55 231.5,-74"/>
<text text-anchor="middle" x="168" y="-62" font-family="Helvetica,sans-Serif" font-size="10.00">common/infix_config.h</text>
</a>
</g>
</g>
<!-- Node3&#45;&gt;Node4 -->
<g id="edge3_Node000003_Node000004" class="edge">
<title>Node3&#45;&gt;Node4</title>
<g id="a_edge3_Node000003_Node000004"><a xlink:title=" ">
<path fill="none" stroke="#63b8ff" d="M258.81,-225.47C213.93,-217.17 155.28,-203.03 141,-184 118.3,-153.76 140.61,-107.79 156.04,-82.93"/>
<polygon fill="#63b8ff" stroke="#63b8ff" points="159.18,-84.52 161.7,-74.23 153.31,-80.7 159.18,-84.52"/>
</a>
</g>
</g>
<!-- Node5 -->
<g id="Node000005" class="node">
<title>Node5</title>
<g id="a_Node000005"><a xlink:href="platform_8h.html" target="_top" xlink:title="Declares internal, runtime CPU/OS feature detection functions.">
<polygon fill="white" stroke="#666666" points="263.5,-184 150.5,-184 150.5,-165 263.5,-165 263.5,-184"/>
<text text-anchor="middle" x="207" y="-172" font-family="Helvetica,sans-Serif" font-size="10.00">common/platform.h</text>
</a>
</g>
</g>
<!-- Node3&#45;&gt;Node5 -->
<g id="edge4_Node000003_Node000005" class="edge">
<title>Node3&#45;&gt;Node5</title>
<g id="a_edge4_Node000003_Node000005"><a xlink:title=" ">
<path fill="none" stroke="#63b8ff" d="M297.36,-225.37C280.06,-215.82 251.95,-200.31 231.67,-189.12"/>
<polygon fill="#63b8ff" stroke="#63b8ff" points="233.15,-185.93 222.7,-184.17 229.77,-192.06 233.15,-185.93"/>
</a>
</g>
</g>
<!-- Node7 -->
<g id="Node000007" class="node">
<title>Node7</title>
<g id="a_Node000007"><a xlink:href="infix_8h.html" target="_top" xlink:title="The public interface for the infix FFI library.">
<polygon fill="white" stroke="#666666" points="397.5,-74 326.5,-74 326.5,-55 397.5,-55 397.5,-74"/>
<text text-anchor="middle" x="362" y="-62" font-family="Helvetica,sans-Serif" font-size="10.00">infix/infix.h</text>
</a>
</g>
</g>
<!-- Node3&#45;&gt;Node7 -->
<g id="edge15_Node000003_Node000007" class="edge">
<title>Node3&#45;&gt;Node7</title>
<g id="a_edge15_Node000003_Node000007"><a xlink:title=" ">
<path fill="none" stroke="#63b8ff" d="M322.91,-225.16C332.49,-215.94 346.48,-200.55 353,-184 366.06,-150.84 365.59,-108.48 363.91,-84.43"/>
<polygon fill="#63b8ff" stroke="#63b8ff" points="367.37,-83.88 363.04,-74.22 360.4,-84.48 367.37,-83.88"/>
</a>
</g>
</g>
<!-- Node11 -->
<g id="Node000011" class="node">
<title>Node11</title>
<g id="a_Node000011"><a xlink:title=" ">
<polygon fill="#e0e0e0" stroke="#999999" points="344.5,-184 281.5,-184 281.5,-165 344.5,-165 344.5,-184"/>
<text text-anchor="middle" x="313" y="-172" font-family="Helvetica,sans-Serif" font-size="10.00">pthread.h</text>
</a>
</g>
</g>
<!-- Node3&#45;&gt;Node11 -->
<g id="edge16_Node000003_Node000011" class="edge">
<title>Node3&#45;&gt;Node11</title>
<g id="a_edge16_Node000003_Node000011"><a xlink:title=" ">
<path fill="none" stroke="#63b8ff" d="M313,-225.37C313,-217.25 313,-204.81 313,-194.39"/>
<polygon fill="#63b8ff" stroke="#63b8ff" points="316.5,-194.17 313,-184.17 309.5,-194.17 316.5,-194.17"/>
</a>
</g>
</g>
<!-- Node5&#45;&gt;Node4 -->
<g id="edge13_Node000005_Node000004" class="edge">
<title>Node5&#45;&gt;Node4</title>
<g id="a_edge13_Node000005_Node000004"><a xlink:title=" ">
<path fill="none" stroke="#63b8ff" d="M202.67,-164.78C198.36,-155.91 191.73,-141.7 187,-129 181.47,-114.15 176.39,-96.91 172.88,-84.14"/>
<polygon fill="#63b8ff" stroke="#63b8ff" points="176.2,-83 170.23,-74.25 169.44,-84.81 176.2,-83"/>
</a>
</g>
</g>
<!-- Node6 -->
<g id="Node000006" class="node">
<title>Node6</title>
<g id="a_Node000006"><a xlink:href="compat__c23_8h.html" target="_top" xlink:title="Provides forward compatibility macros for C23 features.">
<polygon fill="white" stroke="#666666" points="327.5,-129 196.5,-129 196.5,-110 327.5,-110 327.5,-129"/>
<text text-anchor="middle" x="262" y="-117" font-family="Helvetica,sans-Serif" font-size="10.00">common/compat_c23.h</text>
</a>
</g>
</g>
<!-- Node5&#45;&gt;Node6 -->
<g id="edge5_Node000005_Node000006" class="edge">
<title>Node5&#45;&gt;Node6</title>
<g id="a_edge5_Node000005_Node000006"><a xlink:title=" ">
<path fill="none" stroke="#63b8ff" d="M216.08,-164.75C224.09,-157.03 235.96,-145.6 245.62,-136.28"/>
<polygon fill="#63b8ff" stroke="#63b8ff" points="248.31,-138.55 253.09,-129.09 243.46,-133.51 248.31,-138.55"/>
</a>
</g>
</g>
<!-- Node5&#45;&gt;Node8 -->
<g id="edge14_Node000005_Node000008" class="edge">
<title>Node5&#45;&gt;Node8</title>
<g id="a_edge14_Node000005_Node000008"><a xlink:title=" ">
<path fill="none" stroke="#63b8ff" d="M193.06,-164.9C169.37,-149.56 121.29,-115.23 95,-74 86.3,-60.36 81.43,-42.54 78.8,-29.25"/>
<polygon fill="#63b8ff" stroke="#63b8ff" points="82.24,-28.61 77.09,-19.35 75.34,-29.8 82.24,-28.61"/>
</a>
</g>
</g>
<!-- Node6&#45;&gt;Node4 -->
<g id="edge6_Node000006_Node000004" class="edge">
<title>Node6&#45;&gt;Node4</title>
<g id="a_edge6_Node000006_Node000004"><a xlink:title=" ">
<path fill="none" stroke="#63b8ff" d="M246.9,-109.98C232.18,-101.69 209.58,-88.94 192.33,-79.22"/>
<polygon fill="#63b8ff" stroke="#63b8ff" points="193.81,-76.03 183.38,-74.17 190.37,-82.13 193.81,-76.03"/>
</a>
</g>
</g>
<!-- Node6&#45;&gt;Node7 -->
<g id="edge7_Node000006_Node000007" class="edge">
<title>Node6&#45;&gt;Node7</title>
<g id="a_edge7_Node000006_Node000007"><a xlink:title=" ">
<path fill="none" stroke="#63b8ff" d="M278.07,-109.98C293.86,-101.61 318.22,-88.7 336.63,-78.95"/>
<polygon fill="#63b8ff" stroke="#63b8ff" points="338.44,-81.95 345.64,-74.17 335.17,-75.76 338.44,-81.95"/>
</a>
</g>
</g>
<!-- Node6&#45;&gt;Node8 -->
<g id="edge11_Node000006_Node000008" class="edge">
<title>Node6&#45;&gt;Node8</title>
<g id="a_edge11_Node000006_Node000008"><a xlink:title=" ">
<path fill="none" stroke="#63b8ff" d="M261.48,-109.73C260.19,-96.05 255.69,-69.65 240,-55 206.83,-24.03 154.31,-14.21 117.67,-11.31"/>
<polygon fill="#63b8ff" stroke="#63b8ff" points="117.53,-7.79 107.32,-10.64 117.07,-14.78 117.53,-7.79"/>
</a>
</g>
</g>
<!-- Node6&#45;&gt;Node9 -->
<g id="edge12_Node000006_Node000009" class="edge">
<title>Node6&#45;&gt;Node9</title>
<g id="a_edge12_Node000006_Node000009"><a xlink:title=" ">
<path fill="none" stroke="#63b8ff" d="M268,-109.89C277.37,-96.87 296.54,-71.91 317,-55 332.08,-42.54 351.1,-31.51 366.46,-23.55"/>
<polygon fill="#63b8ff" stroke="#63b8ff" points="368.12,-26.63 375.48,-19.01 364.97,-20.38 368.12,-26.63"/>
</a>
</g>
</g>
<!-- Node7&#45;&gt;Node8 -->
<g id="edge8_Node000007_Node000008" class="edge">
<title>Node7&#45;&gt;Node8</title>
<g id="a_edge8_Node000007_Node000008"><a xlink:title=" ">
<path fill="none" stroke="#63b8ff" d="M326.36,-56.89C273.21,-47.05 173.45,-28.56 117.23,-18.14"/>
<polygon fill="#63b8ff" stroke="#63b8ff" points="117.73,-14.67 107.26,-16.29 116.46,-21.56 117.73,-14.67"/>
</a>
</g>
</g>
<!-- Node7&#45;&gt;Node9 -->
<g id="edge9_Node000007_Node000009" class="edge">
<title>Node7&#45;&gt;Node9</title>
<g id="a_edge9_Node000007_Node000009"><a xlink:title=" ">
<path fill="none" stroke="#63b8ff" d="M367.28,-54.75C371.71,-47.42 378.16,-36.73 383.62,-27.7"/>
<polygon fill="#63b8ff" stroke="#63b8ff" points="386.64,-29.46 388.81,-19.09 380.65,-25.84 386.64,-29.46"/>
</a>
</g>
</g>
<!-- Node7&#45;&gt;Node10 -->
<g id="edge10_Node000007_Node000010" class="edge">
<title>Node7&#45;&gt;Node10</title>
<g id="a_edge10_Node000007_Node000010"><a xlink:title=" ">
<path fill="none" stroke="#63b8ff" d="M387.55,-54.98C414.12,-46.13 455.94,-32.19 485.67,-22.28"/>
<polygon fill="#63b8ff" stroke="#63b8ff" points="486.87,-25.56 495.25,-19.08 484.66,-18.92 486.87,-25.56"/>
</a>
</g>
</g>
<!-- Node12&#45;&gt;Node10 -->
<g id="edge21_Node000012_Node000010" class="edge">
<title>Node12&#45;&gt;Node10</title>
<g id="a_edge21_Node000012_Node000010"><a xlink:title=" ">
<path fill="none" stroke="#63b8ff" d="M624.43,-220C614.09,-189.11 587.17,-113.27 554,-55 548.48,-45.3 541.18,-35.25 534.86,-27.16"/>
<polygon fill="#63b8ff" stroke="#63b8ff" points="537.5,-24.86 528.5,-19.26 532.04,-29.25 537.5,-24.86"/>
</a>
</g>
</g>
</g>
</svg>

<g id="navigator" transform="translate(0 0)" fill="#404254">
  <rect fill="#f2f5e9" fill-opacity="0.5" stroke="#606060" stroke-width=".5" x="0" y="0" width="60" height="60"/>
  <use id="zoomplus" xlink:href="#zoomPlus" x="17" y="9" onmousedown="handleZoom(evt,'in')"/>
  <use id="zoomminus" xlink:href="#zoomMin" x="42" y="9" onmousedown="handleZoom(evt,'out')"/>
  <use id="reset" xlink:href="#resetDef" x="30" y="36" onmousedown="handleReset()"/>
   <use id="arrowup" xlink:href="#arrowUp" x="0" y="0" onmousedown="handlePan(0,-1)"/>
  <use id="arrowright" xlink:href="#arrowRight" x="0" y="0" onmousedown="handlePan(1,0)"/>
  <use id="arrowdown" xlink:href="#arrowDown" x="0" y="0" onmousedown="handlePan(0,1)"/>
  <use id="arrowleft" xlink:href="#arrowLeft" x="0" y="0" onmousedown="handlePan(-1,0)"/>
</g>
<svg viewBox="0 0 15 15" width="100%" height="30px" preserveAspectRatio="xMaxYMin meet">
 <g id="arrow_out" transform="scale(0.3 0.3)">
  <a xlink:href="abi__riscv64__emitters_8c__incl_org.svg" target="_base">
   <rect id="button" ry="5" rx="5" y="6" x="6" height="38" width="38"
        fill="#f2f5e9" fill-opacity="0.5" stroke="#606060" stroke-width="1.0"/>
   <path id="arrow"
     d="M 11.500037,31.436501 C 11.940474,20.09759 22.043105,11.32322 32.158766,21.979434 L 37.068811,17.246167 C 37.068811,17.246167 37.088388,32 37.088388,32 L 22.160133,31.978069 C 22.160133,31.978069 26.997745,27.140456 26.997745,27.140456 C 18.528582,18.264221 13.291696,25.230495 11.500037,31.436501 z"
     style="fill:#404040;"/>
  </a>
 </g>
</svg>

<style type='text/css'>
<![CDATA[
[data-mouse-over-selected='false'] { opacity: 0.7; }
[data-mouse-over-selected='true']  { opacity: 1.0; }
]]>
</style>
<script type="application/ecmascript"><![CDATA[
document.addEventListener('DOMContentLoaded', (event) => {
  highlightEdges();
  highlightAdjacentNodes();
});
]]></script>
</svg>
