<?xml version="1.0" encoding="UTF-8" standalone="no"?>
<!DOCTYPE svg PUBLIC "-//W3C//DTD SVG 1.1//EN"
 "http://www.w3.org/Graphics/SVG/1.1/DTD/svg11.dtd">
<!-- Generated by graphviz version 2.43.0 (0)
 -->
<!-- Title: src/arch/x64/abi_win_x64.c Pages: 1 -->
<svg width="528pt" height="368pt"
 viewBox="0.00 0.00 527.50 368.00" xmlns="http://www.w3.org/2000/svg" xmlns:xlink="http://www.w3.org/1999/xlink">
<g id="graph0" class="graph" transform="scale(1 1) rotate(0) translate(4 364)">
<title>src/arch/x64/abi_win_x64.c</title>
<!-- Node1 -->
<g id="Node000001" class="node">
<title>Node1</title>
<g id="a_Node000001"><a xlink:title="Implements the FFI logic for the Windows x64 calling convention.">
<polygon fill="#999999" stroke="#666666" points="430.5,-360 314.5,-360 314.5,-330 430.5,-330 430.5,-360"/>
<text text-anchor="start" x="322.5" y="-348" font-family="Helvetica,sans-Serif" font-size="10.00">src/arch/x64/abi_win</text>
<text text-anchor="middle" x="372.5" y="-337" font-family="Helvetica,sans-Serif" font-size="10.00">_x64.c</text>
</a>
</g>
</g>
<!-- Node2 -->
<g id="Node000002" class="node">
<title>Node2</title>
<g id="a_Node000002"><a xlink:href="abi__x64__common_8h.html" target="_top" xlink:title="Common register definitions for the x86&#45;64 architecture.">
<polygon fill="white" stroke="#666666" points="157,-239 0,-239 0,-220 157,-220 157,-239"/>
<text text-anchor="middle" x="78.5" y="-227" font-family="Helvetica,sans-Serif" font-size="10.00">arch/x64/abi_x64_common.h</text>
</a>
</g>
</g>
<!-- Node1&#45;&gt;Node2 -->
<g id="edge1_Node000001_Node000002" class="edge">
<title>Node1&#45;&gt;Node2</title>
<g id="a_edge1_Node000001_Node000002"><a xlink:title=" ">
<path fill="none" stroke="#63b8ff" d="M314.32,-337.46C269.92,-330.83 208.14,-317.99 158.5,-294 133.71,-282.02 109.57,-261.22 94.4,-246.7"/>
<polygon fill="#63b8ff" stroke="#63b8ff" points="96.54,-243.89 86.95,-239.37 91.63,-248.88 96.54,-243.89"/>
</a>
</g>
</g>
<!-- Node4 -->
<g id="Node000004" class="node">
<title>Node4</title>
<g id="a_Node000004"><a xlink:href="abi__x64__emitters_8h.html" target="_top" xlink:title="Declares internal helper functions for emitting x86&#45;64 machine code.">
<polygon fill="white" stroke="#666666" points="323,-294 168,-294 168,-275 323,-275 323,-294"/>
<text text-anchor="middle" x="245.5" y="-282" font-family="Helvetica,sans-Serif" font-size="10.00">arch/x64/abi_x64_emitters.h</text>
</a>
</g>
</g>
<!-- Node1&#45;&gt;Node4 -->
<g id="edge3_Node000001_Node000004" class="edge">
<title>Node1&#45;&gt;Node4</title>
<g id="a_edge3_Node000001_Node000004"><a xlink:title=" ">
<path fill="none" stroke="#63b8ff" d="M342.08,-329.99C321.27,-320.4 293.88,-307.79 273.59,-298.44"/>
<polygon fill="#63b8ff" stroke="#63b8ff" points="274.8,-295.14 264.26,-294.14 271.87,-301.5 274.8,-295.14"/>
</a>
</g>
</g>
<!-- Node5 -->
<g id="Node000005" class="node">
<title>Node5</title>
<g id="a_Node000005"><a xlink:href="infix__internals_8h.html" target="_top" xlink:title="Internal data structures, function prototypes, and constants.">
<polygon fill="white" stroke="#666666" points="315.5,-239 175.5,-239 175.5,-220 315.5,-220 315.5,-239"/>
<text text-anchor="middle" x="245.5" y="-227" font-family="Helvetica,sans-Serif" font-size="10.00">common/infix_internals.h</text>
</a>
</g>
</g>
<!-- Node1&#45;&gt;Node5 -->
<g id="edge18_Node000001_Node000005" class="edge">
<title>Node1&#45;&gt;Node5</title>
<g id="a_edge18_Node000001_Node000005"><a xlink:title=" ">
<path fill="none" stroke="#63b8ff" d="M366.86,-329.75C360.28,-314.59 348.13,-290.68 331.5,-275 316.78,-261.12 296.89,-250.45 279.94,-243.05"/>
<polygon fill="#63b8ff" stroke="#63b8ff" points="280.94,-239.67 270.37,-239.06 278.26,-246.14 280.94,-239.67"/>
</a>
</g>
</g>
<!-- Node10 -->
<g id="Node000010" class="node">
<title>Node10</title>
<g id="a_Node000010"><a xlink:title=" ">
<polygon fill="#e0e0e0" stroke="#999999" points="315.5,-19 253.5,-19 253.5,0 315.5,0 315.5,-19"/>
<text text-anchor="middle" x="284.5" y="-7" font-family="Helvetica,sans-Serif" font-size="10.00">stdbool.h</text>
</a>
</g>
</g>
<!-- Node1&#45;&gt;Node10 -->
<g id="edge22_Node000001_Node000010" class="edge">
<title>Node1&#45;&gt;Node10</title>
<g id="a_edge22_Node000001_Node000010"><a xlink:title=" ">
<path fill="none" stroke="#63b8ff" d="M375.92,-329.78C387.24,-282.13 422.26,-129.95 412.5,-110 392.1,-68.3 344.85,-39.03 313.82,-23.48"/>
<polygon fill="#63b8ff" stroke="#63b8ff" points="315.29,-20.3 304.76,-19.1 312.24,-26.61 315.29,-20.3"/>
</a>
</g>
</g>
<!-- Node12 -->
<g id="Node000012" class="node">
<title>Node12</title>
<g id="a_Node000012"><a xlink:href="utility_8h.html" target="_top" xlink:title="A header for conditionally compiled debugging utilities.">
<polygon fill="white" stroke="#666666" points="519.5,-184 421.5,-184 421.5,-165 519.5,-165 519.5,-184"/>
<text text-anchor="middle" x="470.5" y="-172" font-family="Helvetica,sans-Serif" font-size="10.00">common/utility.h</text>
</a>
</g>
</g>
<!-- Node1&#45;&gt;Node12 -->
<g id="edge19_Node000001_Node000012" class="edge">
<title>Node1&#45;&gt;Node12</title>
<g id="a_edge19_Node000001_Node000012"><a xlink:title=" ">
<path fill="none" stroke="#63b8ff" d="M383.08,-329.87C390.29,-320.02 399.86,-306.47 407.5,-294 428.81,-259.21 450.44,-216.58 461.99,-193.1"/>
<polygon fill="#63b8ff" stroke="#63b8ff" points="465.17,-194.55 466.41,-184.03 458.88,-191.48 465.17,-194.55"/>
</a>
</g>
</g>
<!-- Node13 -->
<g id="Node000013" class="node">
<title>Node13</title>
<g id="a_Node000013"><a xlink:title=" ">
<polygon fill="#e0e0e0" stroke="#999999" points="513,-294 460,-294 460,-275 513,-275 513,-294"/>
<text text-anchor="middle" x="486.5" y="-282" font-family="Helvetica,sans-Serif" font-size="10.00">stdlib.h</text>
</a>
</g>
</g>
<!-- Node1&#45;&gt;Node13 -->
<g id="edge23_Node000001_Node000013" class="edge">
<title>Node1&#45;&gt;Node13</title>
<g id="a_edge23_Node000001_Node000013"><a xlink:title=" ">
<path fill="none" stroke="#63b8ff" d="M399.81,-329.99C418.15,-320.58 442.18,-308.24 460.29,-298.95"/>
<polygon fill="#63b8ff" stroke="#63b8ff" points="462.37,-301.82 469.66,-294.14 459.17,-295.59 462.37,-301.82"/>
</a>
</g>
</g>
<!-- Node3 -->
<g id="Node000003" class="node">
<title>Node3</title>
<g id="a_Node000003"><a xlink:title=" ">
<polygon fill="#e0e0e0" stroke="#999999" points="149,-19 96,-19 96,0 149,0 149,-19"/>
<text text-anchor="middle" x="122.5" y="-7" font-family="Helvetica,sans-Serif" font-size="10.00">stdint.h</text>
</a>
</g>
</g>
<!-- Node2&#45;&gt;Node3 -->
<g id="edge2_Node000002_Node000003" class="edge">
<title>Node2&#45;&gt;Node3</title>
<g id="a_edge2_Node000002_Node000003"><a xlink:title=" ">
<path fill="none" stroke="#63b8ff" d="M71.89,-219.8C57.76,-200.1 27.06,-150.61 41.5,-110 53.84,-75.29 84.04,-43.9 103.87,-26.03"/>
<polygon fill="#63b8ff" stroke="#63b8ff" points="106.43,-28.44 111.66,-19.23 101.82,-23.17 106.43,-28.44"/>
</a>
</g>
</g>
<!-- Node4&#45;&gt;Node2 -->
<g id="edge4_Node000004_Node000002" class="edge">
<title>Node4&#45;&gt;Node2</title>
<g id="a_edge4_Node000004_Node000002"><a xlink:title=" ">
<path fill="none" stroke="#63b8ff" d="M218.67,-274.98C190.63,-266.09 146.45,-252.07 115.2,-242.15"/>
<polygon fill="#63b8ff" stroke="#63b8ff" points="116.13,-238.77 105.54,-239.08 114.01,-245.44 116.13,-238.77"/>
</a>
</g>
</g>
<!-- Node4&#45;&gt;Node5 -->
<g id="edge5_Node000004_Node000005" class="edge">
<title>Node4&#45;&gt;Node5</title>
<g id="a_edge5_Node000004_Node000005"><a xlink:title=" ">
<path fill="none" stroke="#63b8ff" d="M245.5,-274.75C245.5,-267.8 245.5,-257.85 245.5,-249.13"/>
<polygon fill="#63b8ff" stroke="#63b8ff" points="249,-249.09 245.5,-239.09 242,-249.09 249,-249.09"/>
</a>
</g>
</g>
<!-- Node6 -->
<g id="Node000006" class="node">
<title>Node6</title>
<g id="a_Node000006"><a xlink:href="infix__config_8h.html" target="_top" xlink:title="Platform, architecture, and ABI detection macros.">
<polygon fill="white" stroke="#666666" points="178,-129 51,-129 51,-110 178,-110 178,-129"/>
<text text-anchor="middle" x="114.5" y="-117" font-family="Helvetica,sans-Serif" font-size="10.00">common/infix_config.h</text>
</a>
</g>
</g>
<!-- Node5&#45;&gt;Node6 -->
<g id="edge6_Node000005_Node000006" class="edge">
<title>Node5&#45;&gt;Node6</title>
<g id="a_edge6_Node000005_Node000006"><a xlink:title=" ">
<path fill="none" stroke="#63b8ff" d="M193.62,-219.99C154.86,-212.46 106.57,-200.14 94.5,-184 84.26,-170.31 92.53,-151.25 101.33,-137.59"/>
<polygon fill="#63b8ff" stroke="#63b8ff" points="104.4,-139.32 107.29,-129.13 98.67,-135.29 104.4,-139.32"/>
</a>
</g>
</g>
<!-- Node7 -->
<g id="Node000007" class="node">
<title>Node7</title>
<g id="a_Node000007"><a xlink:href="platform_8h.html" target="_top" xlink:title="Declares internal, runtime CPU/OS feature detection functions.">
<polygon fill="white" stroke="#666666" points="217,-184 104,-184 104,-165 217,-165 217,-184"/>
<text text-anchor="middle" x="160.5" y="-172" font-family="Helvetica,sans-Serif" font-size="10.00">common/platform.h</text>
</a>
</g>
</g>
<!-- Node5&#45;&gt;Node7 -->
<g id="edge7_Node000005_Node000007" class="edge">
<title>Node5&#45;&gt;Node7</title>
<g id="a_edge7_Node000005_Node000007"><a xlink:title=" ">
<path fill="none" stroke="#63b8ff" d="M231.84,-219.98C218.66,-211.77 198.47,-199.18 182.93,-189.49"/>
<polygon fill="#63b8ff" stroke="#63b8ff" points="184.74,-186.49 174.41,-184.17 181.04,-192.43 184.74,-186.49"/>
</a>
</g>
</g>
<!-- Node9 -->
<g id="Node000009" class="node">
<title>Node9</title>
<g id="a_Node000009"><a xlink:href="infix_8h.html" target="_top" xlink:title="The public interface for the infix FFI library.">
<polygon fill="white" stroke="#666666" points="308,-74 237,-74 237,-55 308,-55 308,-74"/>
<text text-anchor="middle" x="272.5" y="-62" font-family="Helvetica,sans-Serif" font-size="10.00">infix/infix.h</text>
</a>
</g>
</g>
<!-- Node5&#45;&gt;Node9 -->
<g id="edge17_Node000005_Node000009" class="edge">
<title>Node5&#45;&gt;Node9</title>
<g id="a_edge17_Node000005_Node000009"><a xlink:title=" ">
<path fill="none" stroke="#63b8ff" d="M246.67,-219.85C249.34,-200.26 256.25,-150.98 263.5,-110 265.01,-101.45 266.89,-92.03 268.54,-84.06"/>
<polygon fill="#63b8ff" stroke="#63b8ff" points="272.02,-84.51 270.65,-74.01 265.17,-83.07 272.02,-84.51"/>
</a>
</g>
</g>
<!-- Node7&#45;&gt;Node6 -->
<g id="edge15_Node000007_Node000006" class="edge">
<title>Node7&#45;&gt;Node6</title>
<g id="a_edge15_Node000007_Node000006"><a xlink:title=" ">
<path fill="none" stroke="#63b8ff" d="M152.9,-164.75C146.34,-157.18 136.68,-146.05 128.69,-136.84"/>
<polygon fill="#63b8ff" stroke="#63b8ff" points="131.15,-134.35 121.95,-129.09 125.87,-138.94 131.15,-134.35"/>
</a>
</g>
</g>
<!-- Node8 -->
<g id="Node000008" class="node">
<title>Node8</title>
<g id="a_Node000008"><a xlink:href="compat__c23_8h.html" target="_top" xlink:title="Provides forward compatibility macros for C23 features.">
<polygon fill="white" stroke="#666666" points="404,-129 273,-129 273,-110 404,-110 404,-129"/>
<text text-anchor="middle" x="338.5" y="-117" font-family="Helvetica,sans-Serif" font-size="10.00">common/compat_c23.h</text>
</a>
</g>
</g>
<!-- Node7&#45;&gt;Node8 -->
<g id="edge8_Node000007_Node000008" class="edge">
<title>Node7&#45;&gt;Node8</title>
<g id="a_edge8_Node000007_Node000008"><a xlink:title=" ">
<path fill="none" stroke="#63b8ff" d="M189.1,-164.98C219.11,-156.05 266.48,-141.94 299.82,-132.02"/>
<polygon fill="#63b8ff" stroke="#63b8ff" points="301.09,-135.29 309.68,-129.08 299.09,-128.58 301.09,-135.29"/>
</a>
</g>
</g>
<!-- Node7&#45;&gt;Node10 -->
<g id="edge16_Node000007_Node000010" class="edge">
<title>Node7&#45;&gt;Node10</title>
<g id="a_edge16_Node000007_Node000010"><a xlink:title=" ">
<path fill="none" stroke="#63b8ff" d="M165.74,-164.67C171.03,-155.71 179.42,-141.44 186.5,-129 205.1,-96.32 203.08,-83.59 227.5,-55 237.41,-43.4 250.75,-32.79 262.04,-24.84"/>
<polygon fill="#63b8ff" stroke="#63b8ff" points="264.24,-27.57 270.54,-19.06 260.31,-21.78 264.24,-27.57"/>
</a>
</g>
</g>
<!-- Node8&#45;&gt;Node9 -->
<g id="edge9_Node000008_Node000009" class="edge">
<title>Node8&#45;&gt;Node9</title>
<g id="a_edge9_Node000008_Node000009"><a xlink:title=" ">
<path fill="none" stroke="#63b8ff" d="M327.9,-109.98C318.04,-102.07 303.15,-90.11 291.28,-80.58"/>
<polygon fill="#63b8ff" stroke="#63b8ff" points="293.29,-77.7 283.3,-74.17 288.9,-83.16 293.29,-77.7"/>
</a>
</g>
</g>
<!-- Node8&#45;&gt;Node10 -->
<g id="edge13_Node000008_Node000010" class="edge">
<title>Node8&#45;&gt;Node10</title>
<g id="a_edge13_Node000008_Node000010"><a xlink:title=" ">
<path fill="none" stroke="#63b8ff" d="M336.39,-109.96C333.12,-97.46 326.17,-73.64 316.5,-55 311.42,-45.2 304.37,-35.14 298.18,-27.07"/>
<polygon fill="#63b8ff" stroke="#63b8ff" points="300.89,-24.86 291.93,-19.2 295.41,-29.21 300.89,-24.86"/>
</a>
</g>
</g>
<!-- Node11 -->
<g id="Node000011" class="node">
<title>Node11</title>
<g id="a_Node000011"><a xlink:title=" ">
<polygon fill="#e0e0e0" stroke="#999999" points="402.5,-19 346.5,-19 346.5,0 402.5,0 402.5,-19"/>
<text text-anchor="middle" x="374.5" y="-7" font-family="Helvetica,sans-Serif" font-size="10.00">stddef.h</text>
</a>
</g>
</g>
<!-- Node8&#45;&gt;Node11 -->
<g id="edge14_Node000008_Node000011" class="edge">
<title>Node8&#45;&gt;Node11</title>
<g id="a_edge14_Node000008_Node000011"><a xlink:title=" ">
<path fill="none" stroke="#63b8ff" d="M341.45,-109.66C347.3,-92.09 360.52,-52.45 368.35,-28.95"/>
<polygon fill="#63b8ff" stroke="#63b8ff" points="371.77,-29.75 371.61,-19.16 365.13,-27.54 371.77,-29.75"/>
</a>
</g>
</g>
<!-- Node9&#45;&gt;Node3 -->
<g id="edge12_Node000009_Node000003" class="edge">
<title>Node9&#45;&gt;Node3</title>
<g id="a_edge12_Node000009_Node000003"><a xlink:title=" ">
<path fill="none" stroke="#63b8ff" d="M248.4,-54.98C223.62,-46.23 184.8,-32.51 156.81,-22.62"/>
<polygon fill="#63b8ff" stroke="#63b8ff" points="157.63,-19.2 147.04,-19.17 155.3,-25.8 157.63,-19.2"/>
</a>
</g>
</g>
<!-- Node9&#45;&gt;Node10 -->
<g id="edge10_Node000009_Node000010" class="edge">
<title>Node9&#45;&gt;Node10</title>
<g id="a_edge10_Node000009_Node000010"><a xlink:title=" ">
<path fill="none" stroke="#63b8ff" d="M274.48,-54.75C276.07,-47.72 278.36,-37.62 280.35,-28.84"/>
<polygon fill="#63b8ff" stroke="#63b8ff" points="283.76,-29.62 282.56,-19.09 276.93,-28.07 283.76,-29.62"/>
</a>
</g>
</g>
<!-- Node9&#45;&gt;Node11 -->
<g id="edge11_Node000009_Node000011" class="edge">
<title>Node9&#45;&gt;Node11</title>
<g id="a_edge11_Node000009_Node000011"><a xlink:title=" ">
<path fill="none" stroke="#63b8ff" d="M288.89,-54.98C305.07,-46.57 330.07,-33.59 348.88,-23.81"/>
<polygon fill="#63b8ff" stroke="#63b8ff" points="350.55,-26.89 357.81,-19.17 347.33,-20.68 350.55,-26.89"/>
</a>
</g>
</g>
<!-- Node12&#45;&gt;Node8 -->
<g id="edge20_Node000012_Node000008" class="edge">
<title>Node12&#45;&gt;Node8</title>
<g id="a_edge20_Node000012_Node000008"><a xlink:title=" ">
<path fill="none" stroke="#63b8ff" d="M449.29,-164.98C427.77,-156.34 394.22,-142.87 369.67,-133.02"/>
<polygon fill="#63b8ff" stroke="#63b8ff" points="370.68,-129.65 360.09,-129.17 368.07,-136.14 370.68,-129.65"/>
</a>
</g>
</g>
<!-- Node12&#45;&gt;Node11 -->
<g id="edge21_Node000012_Node000011" class="edge">
<title>Node12&#45;&gt;Node11</title>
<g id="a_edge21_Node000012_Node000011"><a xlink:title=" ">
<path fill="none" stroke="#63b8ff" d="M470.97,-164.86C471.68,-143.99 470.86,-89.96 446.5,-55 436.78,-41.05 421.15,-30.63 406.93,-23.38"/>
<polygon fill="#63b8ff" stroke="#63b8ff" points="408.4,-20.21 397.86,-19.08 405.4,-26.53 408.4,-20.21"/>
</a>
</g>
</g>
</g>
</svg>
