<?xml version="1.0" encoding="UTF-8" standalone="no"?>
<!DOCTYPE svg PUBLIC "-//W3C//DTD SVG 1.1//EN"
 "http://www.w3.org/Graphics/SVG/1.1/DTD/svg11.dtd">
<!-- Generated by graphviz version 2.43.0 (0)
 -->
<!-- Title: src/arch/x64/abi_win_x64.c Pages: 1 -->
<svg width="462pt" height="313pt"
 viewBox="0.00 0.00 461.50 313.00" xmlns="http://www.w3.org/2000/svg" xmlns:xlink="http://www.w3.org/1999/xlink">
<g id="graph0" class="graph" transform="scale(1 1) rotate(0) translate(4 309)">
<title>src/arch/x64/abi_win_x64.c</title>
<!-- Node1 -->
<g id="Node000001" class="node">
<title>Node1</title>
<g id="a_Node000001"><a xlink:title="Implements the FFI logic for the Windows x64 calling convention.">
<polygon fill="#999999" stroke="#666666" points="324,-305 208,-305 208,-275 324,-275 324,-305"/>
<text text-anchor="start" x="216" y="-293" font-family="Helvetica,sans-Serif" font-size="10.00">src/arch/x64/abi_win</text>
<text text-anchor="middle" x="266" y="-282" font-family="Helvetica,sans-Serif" font-size="10.00">_x64.c</text>
</a>
</g>
</g>
<!-- Node2 -->
<g id="Node000002" class="node">
<title>Node2</title>
<g id="a_Node000002"><a xlink:href="abi__x64__common_8h.html" target="_top" xlink:title="Common register definitions for the x86&#45;64 architecture.">
<polygon fill="white" stroke="#666666" points="185.5,-184 28.5,-184 28.5,-165 185.5,-165 185.5,-184"/>
<text text-anchor="middle" x="107" y="-172" font-family="Helvetica,sans-Serif" font-size="10.00">arch/x64/abi_x64_common.h</text>
</a>
</g>
</g>
<!-- Node1&#45;&gt;Node2 -->
<g id="edge1_Node000001_Node000002" class="edge">
<title>Node1&#45;&gt;Node2</title>
<g id="a_edge1_Node000001_Node000002"><a xlink:title=" ">
<path fill="none" stroke="#63b8ff" d="M207.85,-280.76C179.68,-273.96 147.41,-261.56 126,-239 114.5,-226.88 109.93,-208.08 108.13,-194.08"/>
<polygon fill="#63b8ff" stroke="#63b8ff" points="111.62,-193.73 107.2,-184.1 104.65,-194.38 111.62,-193.73"/>
</a>
</g>
</g>
<!-- Node4 -->
<g id="Node000004" class="node">
<title>Node4</title>
<g id="a_Node000004"><a xlink:href="abi__x64__emitters_8h.html" target="_top" xlink:title="Declares internal helper functions for emitting x86&#45;64 machine code.">
<polygon fill="white" stroke="#666666" points="290.5,-239 135.5,-239 135.5,-220 290.5,-220 290.5,-239"/>
<text text-anchor="middle" x="213" y="-227" font-family="Helvetica,sans-Serif" font-size="10.00">arch/x64/abi_x64_emitters.h</text>
</a>
</g>
</g>
<!-- Node1&#45;&gt;Node4 -->
<g id="edge3_Node000001_Node000004" class="edge">
<title>Node1&#45;&gt;Node4</title>
<g id="a_edge3_Node000001_Node000004"><a xlink:title=" ">
<path fill="none" stroke="#63b8ff" d="M253.17,-274.84C245.48,-266.35 235.67,-255.52 227.67,-246.69"/>
<polygon fill="#63b8ff" stroke="#63b8ff" points="230.25,-244.33 220.94,-239.27 225.06,-249.03 230.25,-244.33"/>
</a>
</g>
</g>
<!-- Node5 -->
<g id="Node000005" class="node">
<title>Node5</title>
<g id="a_Node000005"><a xlink:href="infix__internals_8h.html" target="_top" xlink:title="Internal data structures, function prototypes, and constants.">
<polygon fill="white" stroke="#666666" points="344,-184 204,-184 204,-165 344,-165 344,-184"/>
<text text-anchor="middle" x="274" y="-172" font-family="Helvetica,sans-Serif" font-size="10.00">common/infix_internals.h</text>
</a>
</g>
</g>
<!-- Node1&#45;&gt;Node5 -->
<g id="edge14_Node000001_Node000005" class="edge">
<title>Node1&#45;&gt;Node5</title>
<g id="a_edge14_Node000001_Node000005"><a xlink:title=" ">
<path fill="none" stroke="#63b8ff" d="M278.99,-274.92C286.74,-265.51 295.86,-252.44 300,-239 304.96,-222.88 296.48,-205.16 287.9,-192.54"/>
<polygon fill="#63b8ff" stroke="#63b8ff" points="290.6,-190.31 281.84,-184.36 284.98,-194.48 290.6,-190.31"/>
</a>
</g>
</g>
<!-- Node9 -->
<g id="Node000009" class="node">
<title>Node9</title>
<g id="a_Node000009"><a xlink:title=" ">
<polygon fill="#e0e0e0" stroke="#999999" points="224,-19 162,-19 162,0 224,0 224,-19"/>
<text text-anchor="middle" x="193" y="-7" font-family="Helvetica,sans-Serif" font-size="10.00">stdbool.h</text>
</a>
</g>
</g>
<!-- Node1&#45;&gt;Node9 -->
<g id="edge18_Node000001_Node000009" class="edge">
<title>Node1&#45;&gt;Node9</title>
<g id="a_edge18_Node000001_Node000009"><a xlink:title=" ">
<path fill="none" stroke="#63b8ff" d="M207.95,-288.75C129.69,-285 0,-265.25 0,-175.5 0,-175.5 0,-175.5 0,-118.5 0,-49.46 95.21,-24.12 151.89,-15.16"/>
<polygon fill="#63b8ff" stroke="#63b8ff" points="152.61,-18.59 161.99,-13.67 151.59,-11.67 152.61,-18.59"/>
</a>
</g>
</g>
<!-- Node11 -->
<g id="Node000011" class="node">
<title>Node11</title>
<g id="a_Node000011"><a xlink:href="utility_8h.html" target="_top" xlink:title="A header for conditionally compiled debugging utilities.">
<polygon fill="white" stroke="#666666" points="426,-129 328,-129 328,-110 426,-110 426,-129"/>
<text text-anchor="middle" x="377" y="-117" font-family="Helvetica,sans-Serif" font-size="10.00">common/utility.h</text>
</a>
</g>
</g>
<!-- Node1&#45;&gt;Node11 -->
<g id="edge15_Node000001_Node000011" class="edge">
<title>Node1&#45;&gt;Node11</title>
<g id="a_edge15_Node000001_Node000011"><a xlink:title=" ">
<path fill="none" stroke="#63b8ff" d="M281.1,-274.77C300.41,-255.8 333.65,-220.36 353,-184 360.79,-169.37 367.26,-151.65 371.51,-138.65"/>
<polygon fill="#63b8ff" stroke="#63b8ff" points="374.88,-139.6 374.55,-129.02 368.21,-137.5 374.88,-139.6"/>
</a>
</g>
</g>
<!-- Node12 -->
<g id="Node000012" class="node">
<title>Node12</title>
<g id="a_Node000012"><a xlink:title=" ">
<polygon fill="#e0e0e0" stroke="#999999" points="453.5,-239 400.5,-239 400.5,-220 453.5,-220 453.5,-239"/>
<text text-anchor="middle" x="427" y="-227" font-family="Helvetica,sans-Serif" font-size="10.00">stdlib.h</text>
</a>
</g>
</g>
<!-- Node1&#45;&gt;Node12 -->
<g id="edge19_Node000001_Node000012" class="edge">
<title>Node1&#45;&gt;Node12</title>
<g id="a_edge19_Node000001_Node000012"><a xlink:title=" ">
<path fill="none" stroke="#63b8ff" d="M304.56,-274.99C331.79,-265.1 367.88,-251.98 393.82,-242.56"/>
<polygon fill="#63b8ff" stroke="#63b8ff" points="395.02,-245.84 403.22,-239.14 392.63,-239.26 395.02,-245.84"/>
</a>
</g>
</g>
<!-- Node3 -->
<g id="Node000003" class="node">
<title>Node3</title>
<g id="a_Node000003"><a xlink:title=" ">
<polygon fill="#e0e0e0" stroke="#999999" points="149.5,-74 96.5,-74 96.5,-55 149.5,-55 149.5,-74"/>
<text text-anchor="middle" x="123" y="-62" font-family="Helvetica,sans-Serif" font-size="10.00">stdint.h</text>
</a>
</g>
</g>
<!-- Node2&#45;&gt;Node3 -->
<g id="edge2_Node000002_Node000003" class="edge">
<title>Node2&#45;&gt;Node3</title>
<g id="a_edge2_Node000002_Node000003"><a xlink:title=" ">
<path fill="none" stroke="#63b8ff" d="M99.85,-164.85C90.64,-152.6 76.65,-129.53 84,-110 88.18,-98.89 96.52,-88.75 104.43,-80.96"/>
<polygon fill="#63b8ff" stroke="#63b8ff" points="107.01,-83.35 112.01,-74.01 102.28,-78.19 107.01,-83.35"/>
</a>
</g>
</g>
<!-- Node4&#45;&gt;Node2 -->
<g id="edge4_Node000004_Node000002" class="edge">
<title>Node4&#45;&gt;Node2</title>
<g id="a_edge4_Node000004_Node000002"><a xlink:title=" ">
<path fill="none" stroke="#63b8ff" d="M195.97,-219.98C179.07,-211.54 152.94,-198.47 133.36,-188.68"/>
<polygon fill="#63b8ff" stroke="#63b8ff" points="134.85,-185.51 124.34,-184.17 131.72,-191.77 134.85,-185.51"/>
</a>
</g>
</g>
<!-- Node4&#45;&gt;Node5 -->
<g id="edge5_Node000004_Node000005" class="edge">
<title>Node4&#45;&gt;Node5</title>
<g id="a_edge5_Node000004_Node000005"><a xlink:title=" ">
<path fill="none" stroke="#63b8ff" d="M222.8,-219.98C231.82,-212.15 245.41,-200.34 256.32,-190.86"/>
<polygon fill="#63b8ff" stroke="#63b8ff" points="258.77,-193.37 264.02,-184.17 254.18,-188.09 258.77,-193.37"/>
</a>
</g>
</g>
<!-- Node6 -->
<g id="Node000006" class="node">
<title>Node6</title>
<g id="a_Node000006"><a xlink:href="infix__config_8h.html" target="_top" xlink:title="Platform, architecture, and ABI detection macros.">
<polygon fill="white" stroke="#666666" points="220.5,-129 93.5,-129 93.5,-110 220.5,-110 220.5,-129"/>
<text text-anchor="middle" x="157" y="-117" font-family="Helvetica,sans-Serif" font-size="10.00">common/infix_config.h</text>
</a>
</g>
</g>
<!-- Node5&#45;&gt;Node6 -->
<g id="edge6_Node000005_Node000006" class="edge">
<title>Node5&#45;&gt;Node6</title>
<g id="a_edge6_Node000005_Node000006"><a xlink:title=" ">
<path fill="none" stroke="#63b8ff" d="M255.2,-164.98C236.38,-156.46 207.18,-143.23 185.5,-133.41"/>
<polygon fill="#63b8ff" stroke="#63b8ff" points="186.69,-130.11 176.14,-129.17 183.8,-136.48 186.69,-130.11"/>
</a>
</g>
</g>
<!-- Node7 -->
<g id="Node000007" class="node">
<title>Node7</title>
<g id="a_Node000007"><a xlink:href="infix_8h.html" target="_top" xlink:title="The public interface for the infix FFI library.">
<polygon fill="white" stroke="#666666" points="309.5,-129 238.5,-129 238.5,-110 309.5,-110 309.5,-129"/>
<text text-anchor="middle" x="274" y="-117" font-family="Helvetica,sans-Serif" font-size="10.00">infix/infix.h</text>
</a>
</g>
</g>
<!-- Node5&#45;&gt;Node7 -->
<g id="edge7_Node000005_Node000007" class="edge">
<title>Node5&#45;&gt;Node7</title>
<g id="a_edge7_Node000005_Node000007"><a xlink:title=" ">
<path fill="none" stroke="#63b8ff" d="M274,-164.75C274,-157.8 274,-147.85 274,-139.13"/>
<polygon fill="#63b8ff" stroke="#63b8ff" points="277.5,-139.09 274,-129.09 270.5,-139.09 277.5,-139.09"/>
</a>
</g>
</g>
<!-- Node7&#45;&gt;Node3 -->
<g id="edge13_Node000007_Node000003" class="edge">
<title>Node7&#45;&gt;Node3</title>
<g id="a_edge13_Node000007_Node000003"><a xlink:title=" ">
<path fill="none" stroke="#63b8ff" d="M249.74,-109.98C224.68,-101.19 185.37,-87.39 157.17,-77.49"/>
<polygon fill="#63b8ff" stroke="#63b8ff" points="158.3,-74.18 147.7,-74.17 155.98,-80.78 158.3,-74.18"/>
</a>
</g>
</g>
<!-- Node8 -->
<g id="Node000008" class="node">
<title>Node8</title>
<g id="a_Node000008"><a xlink:href="compat__c23_8h.html" target="_top" xlink:title="Provides forward compatibility macros for C23 features.">
<polygon fill="white" stroke="#666666" points="390.5,-74 259.5,-74 259.5,-55 390.5,-55 390.5,-74"/>
<text text-anchor="middle" x="325" y="-62" font-family="Helvetica,sans-Serif" font-size="10.00">common/compat_c23.h</text>
</a>
</g>
</g>
<!-- Node7&#45;&gt;Node8 -->
<g id="edge8_Node000007_Node000008" class="edge">
<title>Node7&#45;&gt;Node8</title>
<g id="a_edge8_Node000007_Node000008"><a xlink:title=" ">
<path fill="none" stroke="#63b8ff" d="M282.42,-109.75C289.77,-102.11 300.63,-90.82 309.54,-81.56"/>
<polygon fill="#63b8ff" stroke="#63b8ff" points="312.32,-83.72 316.74,-74.09 307.28,-78.87 312.32,-83.72"/>
</a>
</g>
</g>
<!-- Node7&#45;&gt;Node9 -->
<g id="edge11_Node000007_Node000009" class="edge">
<title>Node7&#45;&gt;Node9</title>
<g id="a_edge11_Node000007_Node000009"><a xlink:title=" ">
<path fill="none" stroke="#63b8ff" d="M267.37,-109.66C253.9,-91.69 223.11,-50.64 205.66,-27.38"/>
<polygon fill="#63b8ff" stroke="#63b8ff" points="208.29,-25.06 199.49,-19.16 202.69,-29.26 208.29,-25.06"/>
</a>
</g>
</g>
<!-- Node10 -->
<g id="Node000010" class="node">
<title>Node10</title>
<g id="a_Node000010"><a xlink:title=" ">
<polygon fill="#e0e0e0" stroke="#999999" points="353,-19 297,-19 297,0 353,0 353,-19"/>
<text text-anchor="middle" x="325" y="-7" font-family="Helvetica,sans-Serif" font-size="10.00">stddef.h</text>
</a>
</g>
</g>
<!-- Node7&#45;&gt;Node10 -->
<g id="edge12_Node000007_Node000010" class="edge">
<title>Node7&#45;&gt;Node10</title>
<g id="a_edge12_Node000007_Node000010"><a xlink:title=" ">
<path fill="none" stroke="#63b8ff" d="M266.38,-109.89C256.2,-97.3 240.61,-73.37 251,-55 259.17,-40.55 274.12,-30.27 288.46,-23.26"/>
<polygon fill="#63b8ff" stroke="#63b8ff" points="290.01,-26.4 297.71,-19.12 287.15,-20.01 290.01,-26.4"/>
</a>
</g>
</g>
<!-- Node8&#45;&gt;Node9 -->
<g id="edge9_Node000008_Node000009" class="edge">
<title>Node8&#45;&gt;Node9</title>
<g id="a_edge9_Node000008_Node000009"><a xlink:title=" ">
<path fill="none" stroke="#63b8ff" d="M303.79,-54.98C282.27,-46.34 248.72,-32.87 224.17,-23.02"/>
<polygon fill="#63b8ff" stroke="#63b8ff" points="225.18,-19.65 214.59,-19.17 222.57,-26.14 225.18,-19.65"/>
</a>
</g>
</g>
<!-- Node8&#45;&gt;Node10 -->
<g id="edge10_Node000008_Node000010" class="edge">
<title>Node8&#45;&gt;Node10</title>
<g id="a_edge10_Node000008_Node000010"><a xlink:title=" ">
<path fill="none" stroke="#63b8ff" d="M325,-54.75C325,-47.8 325,-37.85 325,-29.13"/>
<polygon fill="#63b8ff" stroke="#63b8ff" points="328.5,-29.09 325,-19.09 321.5,-29.09 328.5,-29.09"/>
</a>
</g>
</g>
<!-- Node11&#45;&gt;Node8 -->
<g id="edge16_Node000011_Node000008" class="edge">
<title>Node11&#45;&gt;Node8</title>
<g id="a_edge16_Node000011_Node000008"><a xlink:title=" ">
<path fill="none" stroke="#63b8ff" d="M368.41,-109.75C360.84,-102.03 349.62,-90.6 340.49,-81.28"/>
<polygon fill="#63b8ff" stroke="#63b8ff" points="342.93,-78.78 333.43,-74.09 337.93,-83.68 342.93,-78.78"/>
</a>
</g>
</g>
<!-- Node11&#45;&gt;Node10 -->
<g id="edge17_Node000011_Node000010" class="edge">
<title>Node11&#45;&gt;Node10</title>
<g id="a_edge17_Node000011_Node000010"><a xlink:title=" ">
<path fill="none" stroke="#63b8ff" d="M384.64,-109.88C394.83,-97.28 410.44,-73.34 400,-55 391.7,-40.43 376.55,-30.14 362.02,-23.15"/>
<polygon fill="#63b8ff" stroke="#63b8ff" points="363.21,-19.85 352.65,-19.02 360.39,-26.25 363.21,-19.85"/>
</a>
</g>
</g>
</g>
</svg>
