<?xml version="1.0" encoding="UTF-8" standalone="no"?>
<!DOCTYPE svg PUBLIC "-//W3C//DTD SVG 1.1//EN"
 "http://www.w3.org/Graphics/SVG/1.1/DTD/svg11.dtd">
<!-- Generated by graphviz version 2.43.0 (0)
 -->
<!-- Title: src/arch/aarch64/abi_arm64_emitters.c Pages: 1 -->
<svg width="655pt" height="390pt"
 viewBox="0.00 0.00 654.50 390.00" xmlns="http://www.w3.org/2000/svg" xmlns:xlink="http://www.w3.org/1999/xlink">
<g id="graph0" class="graph" transform="scale(1 1) rotate(0) translate(4 386)">
<title>src/arch/aarch64/abi_arm64_emitters.c</title>
<!-- Node1 -->
<g id="Node000001" class="node">
<title>Node1</title>
<g id="a_Node000001"><a xlink:title="Implements internal helper functions for emitting AArch64 machine code.">
<polygon fill="#999999" stroke="#666666" points="536.5,-382 421.5,-382 421.5,-352 536.5,-352 536.5,-382"/>
<text text-anchor="start" x="429.5" y="-370" font-family="Helvetica,sans-Serif" font-size="10.00">src/arch/aarch64/abi</text>
<text text-anchor="middle" x="479" y="-359" font-family="Helvetica,sans-Serif" font-size="10.00">_arm64_emitters.c</text>
</a>
</g>
</g>
<!-- Node2 -->
<g id="Node000002" class="node">
<title>Node2</title>
<g id="a_Node000002"><a xlink:href="abi__arm64__emitters_8h.html" target="_top" xlink:title="Declares internal helper functions for emitting AArch64 machine code.">
<polygon fill="white" stroke="#666666" points="290,-316 156,-316 156,-286 290,-286 290,-316"/>
<text text-anchor="start" x="164" y="-304" font-family="Helvetica,sans-Serif" font-size="10.00">arch/aarch64/abi_arm64</text>
<text text-anchor="middle" x="223" y="-293" font-family="Helvetica,sans-Serif" font-size="10.00">_emitters.h</text>
</a>
</g>
</g>
<!-- Node1&#45;&gt;Node2 -->
<g id="edge1_Node000001_Node000002" class="edge">
<title>Node1&#45;&gt;Node2</title>
<g id="a_edge1_Node000001_Node000002"><a xlink:title=" ">
<path fill="none" stroke="#63b8ff" d="M422.82,-351.95C383.3,-342.08 330.29,-328.82 288.79,-318.45"/>
<polygon fill="#63b8ff" stroke="#63b8ff" points="289.6,-315.04 279.05,-316.01 287.9,-321.83 289.6,-315.04"/>
</a>
</g>
</g>
<!-- Node13 -->
<g id="Node000013" class="node">
<title>Node13</title>
<g id="a_Node000013"><a xlink:href="utility_8h.html" target="_top" xlink:title="A header for conditionally compiled debugging utilities.">
<polygon fill="white" stroke="#666666" points="561,-195 463,-195 463,-176 561,-176 561,-195"/>
<text text-anchor="middle" x="512" y="-183" font-family="Helvetica,sans-Serif" font-size="10.00">common/utility.h</text>
</a>
</g>
</g>
<!-- Node1&#45;&gt;Node13 -->
<g id="edge19_Node000001_Node000013" class="edge">
<title>Node1&#45;&gt;Node13</title>
<g id="a_edge19_Node000001_Node000013"><a xlink:title=" ">
<path fill="none" stroke="#63b8ff" d="M464.51,-351.7C456.16,-342.41 446.46,-329.54 442,-316 437.82,-303.34 437.98,-298.71 442,-286 452.56,-252.65 478.76,-220.8 495.94,-202.47"/>
<polygon fill="#63b8ff" stroke="#63b8ff" points="498.68,-204.67 503.11,-195.05 493.64,-199.81 498.68,-204.67"/>
</a>
</g>
</g>
<!-- Node14 -->
<g id="Node000014" class="node">
<title>Node14</title>
<g id="a_Node000014"><a xlink:title=" ">
<polygon fill="#e0e0e0" stroke="#999999" points="507,-310.5 451,-310.5 451,-291.5 507,-291.5 507,-310.5"/>
<text text-anchor="middle" x="479" y="-298.5" font-family="Helvetica,sans-Serif" font-size="10.00">assert.h</text>
</a>
</g>
</g>
<!-- Node1&#45;&gt;Node14 -->
<g id="edge22_Node000001_Node000014" class="edge">
<title>Node1&#45;&gt;Node14</title>
<g id="a_edge22_Node000001_Node000014"><a xlink:title=" ">
<path fill="none" stroke="#63b8ff" d="M479,-351.8C479,-342.7 479,-330.79 479,-320.9"/>
<polygon fill="#63b8ff" stroke="#63b8ff" points="482.5,-320.84 479,-310.84 475.5,-320.84 482.5,-320.84"/>
</a>
</g>
</g>
<!-- Node15 -->
<g id="Node000015" class="node">
<title>Node15</title>
<g id="a_Node000015"><a xlink:title=" ">
<polygon fill="#e0e0e0" stroke="#999999" points="575,-310.5 525,-310.5 525,-291.5 575,-291.5 575,-310.5"/>
<text text-anchor="middle" x="550" y="-298.5" font-family="Helvetica,sans-Serif" font-size="10.00">stdio.h</text>
</a>
</g>
</g>
<!-- Node1&#45;&gt;Node15 -->
<g id="edge23_Node000001_Node000015" class="edge">
<title>Node1&#45;&gt;Node15</title>
<g id="a_edge23_Node000001_Node000015"><a xlink:title=" ">
<path fill="none" stroke="#63b8ff" d="M494.76,-351.8C505.93,-341.72 520.94,-328.19 532.49,-317.78"/>
<polygon fill="#63b8ff" stroke="#63b8ff" points="535.1,-320.14 540.19,-310.84 530.42,-314.94 535.1,-320.14"/>
</a>
</g>
</g>
<!-- Node16 -->
<g id="Node000016" class="node">
<title>Node16</title>
<g id="a_Node000016"><a xlink:title=" ">
<polygon fill="#e0e0e0" stroke="#999999" points="646.5,-310.5 593.5,-310.5 593.5,-291.5 646.5,-291.5 646.5,-310.5"/>
<text text-anchor="middle" x="620" y="-298.5" font-family="Helvetica,sans-Serif" font-size="10.00">string.h</text>
</a>
</g>
</g>
<!-- Node1&#45;&gt;Node16 -->
<g id="edge24_Node000001_Node000016" class="edge">
<title>Node1&#45;&gt;Node16</title>
<g id="a_edge24_Node000001_Node000016"><a xlink:title=" ">
<path fill="none" stroke="#63b8ff" d="M509.94,-351.95C534.45,-340.83 568.39,-325.42 592.08,-314.67"/>
<polygon fill="#63b8ff" stroke="#63b8ff" points="593.58,-317.84 601.24,-310.52 590.68,-311.46 593.58,-317.84"/>
</a>
</g>
</g>
<!-- Node3 -->
<g id="Node000003" class="node">
<title>Node3</title>
<g id="a_Node000003"><a xlink:href="abi__arm64__common_8h.html" target="_top" xlink:title="Common register definitions and instruction encodings for the AArch64 (ARM64) architecture.">
<polygon fill="white" stroke="#666666" points="134,-140 0,-140 0,-110 134,-110 134,-140"/>
<text text-anchor="start" x="8" y="-128" font-family="Helvetica,sans-Serif" font-size="10.00">arch/aarch64/abi_arm64</text>
<text text-anchor="middle" x="67" y="-117" font-family="Helvetica,sans-Serif" font-size="10.00">_common.h</text>
</a>
</g>
</g>
<!-- Node2&#45;&gt;Node3 -->
<g id="edge2_Node000002_Node000003" class="edge">
<title>Node2&#45;&gt;Node3</title>
<g id="a_edge2_Node000002_Node000003"><a xlink:title=" ">
<path fill="none" stroke="#63b8ff" d="M190.34,-285.86C156.52,-269.35 105.18,-238.61 80,-195 72.21,-181.51 68.96,-164.28 67.65,-150.42"/>
<polygon fill="#63b8ff" stroke="#63b8ff" points="71.13,-149.91 66.98,-140.16 64.14,-150.37 71.13,-149.91"/>
</a>
</g>
</g>
<!-- Node5 -->
<g id="Node000005" class="node">
<title>Node5</title>
<g id="a_Node000005"><a xlink:href="infix__internals_8h.html" target="_top" xlink:title="Internal data structures, function prototypes, and constants.">
<polygon fill="white" stroke="#666666" points="293,-250 153,-250 153,-231 293,-231 293,-250"/>
<text text-anchor="middle" x="223" y="-238" font-family="Helvetica,sans-Serif" font-size="10.00">common/infix_internals.h</text>
</a>
</g>
</g>
<!-- Node2&#45;&gt;Node5 -->
<g id="edge4_Node000002_Node000005" class="edge">
<title>Node2&#45;&gt;Node5</title>
<g id="a_edge4_Node000002_Node000005"><a xlink:title=" ">
<path fill="none" stroke="#63b8ff" d="M223,-285.84C223,-278.21 223,-268.7 223,-260.45"/>
<polygon fill="#63b8ff" stroke="#63b8ff" points="226.5,-260.27 223,-250.27 219.5,-260.27 226.5,-260.27"/>
</a>
</g>
</g>
<!-- Node4 -->
<g id="Node000004" class="node">
<title>Node4</title>
<g id="a_Node000004"><a xlink:title=" ">
<polygon fill="#e0e0e0" stroke="#999999" points="171.5,-19 118.5,-19 118.5,0 171.5,0 171.5,-19"/>
<text text-anchor="middle" x="145" y="-7" font-family="Helvetica,sans-Serif" font-size="10.00">stdint.h</text>
</a>
</g>
</g>
<!-- Node3&#45;&gt;Node4 -->
<g id="edge3_Node000003_Node000004" class="edge">
<title>Node3&#45;&gt;Node4</title>
<g id="a_edge3_Node000003_Node000004"><a xlink:title=" ">
<path fill="none" stroke="#63b8ff" d="M69.85,-109.77C73.31,-95.06 80.18,-71.92 92,-55 100.17,-43.31 112.17,-32.89 122.68,-25.07"/>
<polygon fill="#63b8ff" stroke="#63b8ff" points="124.9,-27.79 131.05,-19.15 120.86,-22.07 124.9,-27.79"/>
</a>
</g>
</g>
<!-- Node6 -->
<g id="Node000006" class="node">
<title>Node6</title>
<g id="a_Node000006"><a xlink:href="infix__config_8h.html" target="_top" xlink:title="Platform, architecture, and ABI detection macros.">
<polygon fill="white" stroke="#666666" points="228.5,-74 101.5,-74 101.5,-55 228.5,-55 228.5,-74"/>
<text text-anchor="middle" x="165" y="-62" font-family="Helvetica,sans-Serif" font-size="10.00">common/infix_config.h</text>
</a>
</g>
</g>
<!-- Node5&#45;&gt;Node6 -->
<g id="edge5_Node000005_Node000006" class="edge">
<title>Node5&#45;&gt;Node6</title>
<g id="a_edge5_Node000005_Node000006"><a xlink:title=" ">
<path fill="none" stroke="#63b8ff" d="M217.85,-230.89C212.76,-222.11 205.04,-207.97 200,-195 185.16,-156.78 174.18,-109.89 168.77,-84.32"/>
<polygon fill="#63b8ff" stroke="#63b8ff" points="172.12,-83.28 166.68,-74.19 165.27,-84.69 172.12,-83.28"/>
</a>
</g>
</g>
<!-- Node7 -->
<g id="Node000007" class="node">
<title>Node7</title>
<g id="a_Node000007"><a xlink:href="platform_8h.html" target="_top" xlink:title="Declares internal, runtime CPU/OS feature detection functions.">
<polygon fill="white" stroke="#666666" points="322.5,-195 209.5,-195 209.5,-176 322.5,-176 322.5,-195"/>
<text text-anchor="middle" x="266" y="-183" font-family="Helvetica,sans-Serif" font-size="10.00">common/platform.h</text>
</a>
</g>
</g>
<!-- Node5&#45;&gt;Node7 -->
<g id="edge6_Node000005_Node000007" class="edge">
<title>Node5&#45;&gt;Node7</title>
<g id="a_edge6_Node000005_Node000007"><a xlink:title=" ">
<path fill="none" stroke="#63b8ff" d="M230.1,-230.75C236.17,-223.26 245.09,-212.28 252.51,-203.13"/>
<polygon fill="#63b8ff" stroke="#63b8ff" points="255.45,-205.06 259.03,-195.09 250.01,-200.65 255.45,-205.06"/>
</a>
</g>
</g>
<!-- Node9 -->
<g id="Node000009" class="node">
<title>Node9</title>
<g id="a_Node000009"><a xlink:href="infix_8h.html" target="_top" xlink:title="The public interface for the infix FFI library.">
<polygon fill="white" stroke="#666666" points="394.5,-74 323.5,-74 323.5,-55 394.5,-55 394.5,-74"/>
<text text-anchor="middle" x="359" y="-62" font-family="Helvetica,sans-Serif" font-size="10.00">infix/infix.h</text>
</a>
</g>
</g>
<!-- Node5&#45;&gt;Node9 -->
<g id="edge17_Node000005_Node000009" class="edge">
<title>Node5&#45;&gt;Node9</title>
<g id="a_edge17_Node000005_Node000009"><a xlink:title=" ">
<path fill="none" stroke="#63b8ff" d="M273.79,-230.91C322.76,-219.56 393.88,-194.26 425,-140 431.63,-128.43 431.26,-121.77 425,-110 417.69,-96.25 404.03,-85.99 391.03,-78.8"/>
<polygon fill="#63b8ff" stroke="#63b8ff" points="392.28,-75.51 381.78,-74.11 389.11,-81.75 392.28,-75.51"/>
</a>
</g>
</g>
<!-- Node12 -->
<g id="Node000012" class="node">
<title>Node12</title>
<g id="a_Node000012"><a xlink:title=" ">
<polygon fill="#e0e0e0" stroke="#999999" points="152.5,-195 89.5,-195 89.5,-176 152.5,-176 152.5,-195"/>
<text text-anchor="middle" x="121" y="-183" font-family="Helvetica,sans-Serif" font-size="10.00">pthread.h</text>
</a>
</g>
</g>
<!-- Node5&#45;&gt;Node12 -->
<g id="edge18_Node000005_Node000012" class="edge">
<title>Node5&#45;&gt;Node12</title>
<g id="a_edge18_Node000005_Node000012"><a xlink:title=" ">
<path fill="none" stroke="#63b8ff" d="M206.61,-230.98C190.43,-222.57 165.43,-209.59 146.62,-199.81"/>
<polygon fill="#63b8ff" stroke="#63b8ff" points="148.17,-196.68 137.69,-195.17 144.95,-202.89 148.17,-196.68"/>
</a>
</g>
</g>
<!-- Node7&#45;&gt;Node6 -->
<g id="edge15_Node000007_Node000006" class="edge">
<title>Node7&#45;&gt;Node6</title>
<g id="a_edge15_Node000007_Node000006"><a xlink:title=" ">
<path fill="none" stroke="#63b8ff" d="M258.74,-175.94C242.07,-156.31 200.87,-107.76 179.06,-82.07"/>
<polygon fill="#63b8ff" stroke="#63b8ff" points="181.61,-79.66 172.47,-74.3 176.27,-84.19 181.61,-79.66"/>
</a>
</g>
</g>
<!-- Node8 -->
<g id="Node000008" class="node">
<title>Node8</title>
<g id="a_Node000008"><a xlink:href="compat__c23_8h.html" target="_top" xlink:title="Provides forward compatibility macros for C23 features.">
<polygon fill="white" stroke="#666666" points="416.5,-134.5 285.5,-134.5 285.5,-115.5 416.5,-115.5 416.5,-134.5"/>
<text text-anchor="middle" x="351" y="-122.5" font-family="Helvetica,sans-Serif" font-size="10.00">common/compat_c23.h</text>
</a>
</g>
</g>
<!-- Node7&#45;&gt;Node8 -->
<g id="edge7_Node000007_Node000008" class="edge">
<title>Node7&#45;&gt;Node8</title>
<g id="a_edge7_Node000007_Node000008"><a xlink:title=" ">
<path fill="none" stroke="#63b8ff" d="M278.54,-175.87C292.1,-166.54 313.94,-151.51 330.1,-140.38"/>
<polygon fill="#63b8ff" stroke="#63b8ff" points="332.15,-143.22 338.41,-134.67 328.18,-137.45 332.15,-143.22"/>
</a>
</g>
</g>
<!-- Node10 -->
<g id="Node000010" class="node">
<title>Node10</title>
<g id="a_Node000010"><a xlink:title=" ">
<polygon fill="#e0e0e0" stroke="#999999" points="326,-19 264,-19 264,0 326,0 326,-19"/>
<text text-anchor="middle" x="295" y="-7" font-family="Helvetica,sans-Serif" font-size="10.00">stdbool.h</text>
</a>
</g>
</g>
<!-- Node7&#45;&gt;Node10 -->
<g id="edge16_Node000007_Node000010" class="edge">
<title>Node7&#45;&gt;Node10</title>
<g id="a_edge16_Node000007_Node000010"><a xlink:title=" ">
<path fill="none" stroke="#63b8ff" d="M267.01,-175.76C268.67,-161.82 272.15,-133.7 276,-110 280.59,-81.72 287.04,-49.13 291.11,-29.18"/>
<polygon fill="#63b8ff" stroke="#63b8ff" points="294.57,-29.76 293.16,-19.26 287.71,-28.34 294.57,-29.76"/>
</a>
</g>
</g>
<!-- Node8&#45;&gt;Node6 -->
<g id="edge8_Node000008_Node000006" class="edge">
<title>Node8&#45;&gt;Node6</title>
<g id="a_edge8_Node000008_Node000006"><a xlink:title=" ">
<path fill="none" stroke="#63b8ff" d="M323.95,-115.49C291.72,-105.36 237.71,-88.37 201.72,-77.05"/>
<polygon fill="#63b8ff" stroke="#63b8ff" points="202.67,-73.68 192.08,-74.02 200.57,-80.36 202.67,-73.68"/>
</a>
</g>
</g>
<!-- Node8&#45;&gt;Node9 -->
<g id="edge9_Node000008_Node000009" class="edge">
<title>Node8&#45;&gt;Node9</title>
<g id="a_edge9_Node000008_Node000009"><a xlink:title=" ">
<path fill="none" stroke="#63b8ff" d="M352.18,-115.37C353.29,-107.25 354.99,-94.81 356.42,-84.39"/>
<polygon fill="#63b8ff" stroke="#63b8ff" points="359.93,-84.55 357.81,-74.17 352.99,-83.6 359.93,-84.55"/>
</a>
</g>
</g>
<!-- Node8&#45;&gt;Node10 -->
<g id="edge13_Node000008_Node000010" class="edge">
<title>Node8&#45;&gt;Node10</title>
<g id="a_edge13_Node000008_Node000010"><a xlink:title=" ">
<path fill="none" stroke="#63b8ff" d="M343.17,-115.41C334.88,-105.9 321.92,-89.84 314,-74 306.83,-59.67 301.84,-42.15 298.78,-29.14"/>
<polygon fill="#63b8ff" stroke="#63b8ff" points="302.13,-28.09 296.58,-19.07 295.29,-29.59 302.13,-28.09"/>
</a>
</g>
</g>
<!-- Node11 -->
<g id="Node000011" class="node">
<title>Node11</title>
<g id="a_Node000011"><a xlink:title=" ">
<polygon fill="#e0e0e0" stroke="#999999" points="451,-19 395,-19 395,0 451,0 451,-19"/>
<text text-anchor="middle" x="423" y="-7" font-family="Helvetica,sans-Serif" font-size="10.00">stddef.h</text>
</a>
</g>
</g>
<!-- Node8&#45;&gt;Node11 -->
<g id="edge14_Node000008_Node000011" class="edge">
<title>Node8&#45;&gt;Node11</title>
<g id="a_edge14_Node000008_Node000011"><a xlink:title=" ">
<path fill="none" stroke="#63b8ff" d="M363,-115.36C374.77,-106.3 392.44,-91.03 403,-74 411.57,-60.19 416.76,-42.39 419.69,-29.15"/>
<polygon fill="#63b8ff" stroke="#63b8ff" points="423.14,-29.78 421.66,-19.29 416.27,-28.42 423.14,-29.78"/>
</a>
</g>
</g>
<!-- Node9&#45;&gt;Node4 -->
<g id="edge12_Node000009_Node000004" class="edge">
<title>Node9&#45;&gt;Node4</title>
<g id="a_edge12_Node000009_Node000004"><a xlink:title=" ">
<path fill="none" stroke="#63b8ff" d="M324.62,-54.98C285.38,-45.27 221.48,-29.44 181.41,-19.52"/>
<polygon fill="#63b8ff" stroke="#63b8ff" points="182.07,-16.08 171.52,-17.07 180.39,-22.87 182.07,-16.08"/>
</a>
</g>
</g>
<!-- Node9&#45;&gt;Node10 -->
<g id="edge10_Node000009_Node000010" class="edge">
<title>Node9&#45;&gt;Node10</title>
<g id="a_edge10_Node000009_Node000010"><a xlink:title=" ">
<path fill="none" stroke="#63b8ff" d="M348.72,-54.98C339.16,-47.07 324.72,-35.11 313.22,-25.58"/>
<polygon fill="#63b8ff" stroke="#63b8ff" points="315.4,-22.85 305.47,-19.17 310.94,-28.24 315.4,-22.85"/>
</a>
</g>
</g>
<!-- Node9&#45;&gt;Node11 -->
<g id="edge11_Node000009_Node000011" class="edge">
<title>Node9&#45;&gt;Node11</title>
<g id="a_edge11_Node000009_Node000011"><a xlink:title=" ">
<path fill="none" stroke="#63b8ff" d="M369.28,-54.98C378.84,-47.07 393.28,-35.11 404.78,-25.58"/>
<polygon fill="#63b8ff" stroke="#63b8ff" points="407.06,-28.24 412.53,-19.17 402.6,-22.85 407.06,-28.24"/>
</a>
</g>
</g>
<!-- Node13&#45;&gt;Node8 -->
<g id="edge20_Node000013_Node000008" class="edge">
<title>Node13&#45;&gt;Node8</title>
<g id="a_edge20_Node000013_Node000008"><a xlink:title=" ">
<path fill="none" stroke="#63b8ff" d="M488.59,-175.99C461.05,-165.99 415.13,-149.3 383.99,-137.99"/>
<polygon fill="#63b8ff" stroke="#63b8ff" points="385.03,-134.64 374.44,-134.52 382.64,-141.22 385.03,-134.64"/>
</a>
</g>
</g>
<!-- Node13&#45;&gt;Node11 -->
<g id="edge21_Node000013_Node000011" class="edge">
<title>Node13&#45;&gt;Node11</title>
<g id="a_edge21_Node000013_Node000011"><a xlink:title=" ">
<path fill="none" stroke="#63b8ff" d="M507.46,-175.63C493.48,-148.29 450.82,-64.9 432.04,-28.18"/>
<polygon fill="#63b8ff" stroke="#63b8ff" points="435.09,-26.45 427.42,-19.14 428.86,-29.64 435.09,-26.45"/>
</a>
</g>
</g>
</g>
</svg>
