<?xml version="1.0" encoding="UTF-8" standalone="no"?>
<!DOCTYPE svg PUBLIC "-//W3C//DTD SVG 1.1//EN"
 "http://www.w3.org/Graphics/SVG/1.1/DTD/svg11.dtd">
<!-- Generated by graphviz version 2.43.0 (0)
 -->
<!-- Title: src/arch/x64/abi_x64_emitters.c Pages: 1 -->
<!--zoomable 368 -->

<svg id="main" version="1.1" xmlns="http://www.w3.org/2000/svg" xmlns:xlink="http://www.w3.org/1999/xlink" xml:space="preserve" onload="init(evt)">
<style type="text/css"><![CDATA[
.node, .edge {opacity: 0.7;}
.node.selected, .edge.selected {opacity: 1;}
.edge:hover path { stroke: red; }
.edge:hover polygon { stroke: red; fill: red; }
]]></style>

<defs>
  <circle id="rim" cx="0" cy="0" r="7"/>
  <circle id="rim2" cx="0" cy="0" r="3.5"/>
  <g id="zoomPlus">
    <use xlink:href="#rim" fill="#404040"><set attributeName="fill" to="#808080" begin="zoomplus.mouseover" end="zoomplus.mouseout"/></use>
    <path d="M-4,0h8M0,-4v8" fill="none" stroke="white" stroke-width="1.5" pointer-events="none"/>
  </g>
  <g id="zoomMin">
    <use xlink:href="#rim" fill="#404040"><set attributeName="fill" to="#808080" begin="zoomminus.mouseover" end="zoomminus.mouseout"/></use>
    <path d="M-4,0h8" fill="none" stroke="white" stroke-width="1.5" pointer-events="none"/>
  </g>
  <g id="arrowUp" transform="translate(30 24)">
    <use xlink:href="#rim"/>
    <path pointer-events="none" fill="none" stroke="white" stroke-width="1.5" d="M0,-3.0v7 M-2.5,-0.5L0,-3.0L2.5,-0.5"/>
  </g>
  <g id="arrowRight" transform="rotate(90) translate(36 -43)">
    <use xlink:href="#rim"/>
    <path pointer-events="none" fill="none" stroke="white" stroke-width="1.5" d="M0,-3.0v7 M-2.5,-0.5L0,-3.0L2.5,-0.5"/>
  </g>
  <g id="arrowDown" transform="rotate(180) translate(-30 -48)">
    <use xlink:href="#rim"/>
    <path pointer-events="none" fill="none" stroke="white" stroke-width="1.5" d="M0,-3.0v7 M-2.5,-0.5L0,-3.0L2.5,-0.5"/>
  </g>
  <g id="arrowLeft" transform="rotate(270) translate(-36 17)">
    <use xlink:href="#rim"/>
    <path pointer-events="none" fill="none" stroke="white" stroke-width="1.5" d="M0,-3.0v7 M-2.5,-0.5L0,-3.0L2.5,-0.5"/>
  </g>
  <g id="resetDef">
    <use xlink:href="#rim2" fill="#404040"><set attributeName="fill" to="#808080" begin="reset.mouseover" end="reset.mouseout"/></use>
  </g>
</defs>
<script type="application/ecmascript">
var viewWidth = 602;
var viewHeight = 368;
var sectionId = 'dynsection-0';
</script>
<script type="application/ecmascript" xlink:href="svg.min.js"/>
<svg id="graph" class="graph">
<g id="viewport">
<title>src/arch/x64/abi_x64_emitters.c</title>
<!-- Node1 -->
<g id="Node000001" class="node">
<title>Node1</title>
<g id="a_Node000001"><a xlink:title="Implements internal helper functions for emitting x86&#45;64 machine code.">
<polygon fill="#999999" stroke="#666666" points="525,-360 408,-360 408,-330 525,-330 525,-360"/>
<text text-anchor="start" x="416" y="-348" font-family="Helvetica,sans-Serif" font-size="10.00">src/arch/x64/abi_x64</text>
<text text-anchor="middle" x="466.5" y="-337" font-family="Helvetica,sans-Serif" font-size="10.00">_emitters.c</text>
</a>
</g>
</g>
<!-- Node2 -->
<g id="Node000002" class="node">
<title>Node2</title>
<g id="a_Node000002"><a xlink:href="abi__x64__emitters_8h.html" target="_top" xlink:title="Declares internal helper functions for emitting x86&#45;64 machine code.">
<polygon fill="white" stroke="#666666" points="312,-294 157,-294 157,-275 312,-275 312,-294"/>
<text text-anchor="middle" x="234.5" y="-282" font-family="Helvetica,sans-Serif" font-size="10.00">arch/x64/abi_x64_emitters.h</text>
</a>
</g>
</g>
<!-- Node1&#45;&gt;Node2 -->
<g id="edge1_Node000001_Node000002" class="edge">
<title>Node1&#45;&gt;Node2</title>
<g id="a_edge1_Node000001_Node000002"><a xlink:title=" ">
<path fill="none" stroke="#63b8ff" d="M410.93,-329.99C370.37,-319.76 316.14,-306.09 278.56,-296.61"/>
<polygon fill="#63b8ff" stroke="#63b8ff" points="278.97,-293.1 268.42,-294.05 277.26,-299.89 278.97,-293.1"/>
</a>
</g>
</g>
<!-- Node13 -->
<g id="Node000013" class="node">
<title>Node13</title>
<g id="a_Node000013"><a xlink:href="utility_8h.html" target="_top" xlink:title="A header for conditionally compiled debugging utilities.">
<polygon fill="white" stroke="#666666" points="572.5,-184 474.5,-184 474.5,-165 572.5,-165 572.5,-184"/>
<text text-anchor="middle" x="523.5" y="-172" font-family="Helvetica,sans-Serif" font-size="10.00">common/utility.h</text>
</a>
</g>
</g>
<!-- Node1&#45;&gt;Node13 -->
<g id="edge19_Node000001_Node000013" class="edge">
<title>Node1&#45;&gt;Node13</title>
<g id="a_edge19_Node000001_Node000013"><a xlink:title=" ">
<path fill="none" stroke="#63b8ff" d="M461.3,-329.98C456.83,-315.83 451.92,-293.51 457.5,-275 467.41,-242.13 492.13,-210.14 508.34,-191.65"/>
<polygon fill="#63b8ff" stroke="#63b8ff" points="511,-193.92 515.11,-184.15 505.81,-189.23 511,-193.92"/>
</a>
</g>
</g>
<!-- Node14 -->
<g id="Node000014" class="node">
<title>Node14</title>
<g id="a_Node000014"><a xlink:title=" ">
<polygon fill="#e0e0e0" stroke="#999999" points="522.5,-294 466.5,-294 466.5,-275 522.5,-275 522.5,-294"/>
<text text-anchor="middle" x="494.5" y="-282" font-family="Helvetica,sans-Serif" font-size="10.00">assert.h</text>
</a>
</g>
</g>
<!-- Node1&#45;&gt;Node14 -->
<g id="edge22_Node000001_Node000014" class="edge">
<title>Node1&#45;&gt;Node14</title>
<g id="a_edge22_Node000001_Node000014"><a xlink:title=" ">
<path fill="none" stroke="#63b8ff" d="M473.28,-329.84C477.09,-321.87 481.89,-311.84 485.96,-303.33"/>
<polygon fill="#63b8ff" stroke="#63b8ff" points="489.14,-304.8 490.3,-294.27 482.83,-301.77 489.14,-304.8"/>
</a>
</g>
</g>
<!-- Node15 -->
<g id="Node000015" class="node">
<title>Node15</title>
<g id="a_Node000015"><a xlink:title=" ">
<polygon fill="#e0e0e0" stroke="#999999" points="594,-294 541,-294 541,-275 594,-275 594,-294"/>
<text text-anchor="middle" x="567.5" y="-282" font-family="Helvetica,sans-Serif" font-size="10.00">string.h</text>
</a>
</g>
</g>
<!-- Node1&#45;&gt;Node15 -->
<g id="edge23_Node000001_Node000015" class="edge">
<title>Node1&#45;&gt;Node15</title>
<g id="a_edge23_Node000001_Node000015"><a xlink:title=" ">
<path fill="none" stroke="#63b8ff" d="M490.69,-329.99C506.79,-320.66 527.84,-308.47 543.83,-299.21"/>
<polygon fill="#63b8ff" stroke="#63b8ff" points="545.69,-302.18 552.58,-294.14 542.18,-296.12 545.69,-302.18"/>
</a>
</g>
</g>
<!-- Node3 -->
<g id="Node000003" class="node">
<title>Node3</title>
<g id="a_Node000003"><a xlink:href="abi__x64__common_8h.html" target="_top" xlink:title="Common register definitions for the x86&#45;64 architecture.">
<polygon fill="white" stroke="#666666" points="157,-129 0,-129 0,-110 157,-110 157,-129"/>
<text text-anchor="middle" x="78.5" y="-117" font-family="Helvetica,sans-Serif" font-size="10.00">arch/x64/abi_x64_common.h</text>
</a>
</g>
</g>
<!-- Node2&#45;&gt;Node3 -->
<g id="edge2_Node000002_Node000003" class="edge">
<title>Node2&#45;&gt;Node3</title>
<g id="a_edge2_Node000002_Node000003"><a xlink:title=" ">
<path fill="none" stroke="#63b8ff" d="M211.74,-274.92C178.91,-261.22 119.16,-231.06 91.5,-184 83.56,-170.49 80.41,-152.9 79.19,-139.65"/>
<polygon fill="#63b8ff" stroke="#63b8ff" points="82.66,-139.11 78.54,-129.35 75.68,-139.55 82.66,-139.11"/>
</a>
</g>
</g>
<!-- Node5 -->
<g id="Node000005" class="node">
<title>Node5</title>
<g id="a_Node000005"><a xlink:href="infix__internals_8h.html" target="_top" xlink:title="Internal data structures, function prototypes, and constants.">
<polygon fill="white" stroke="#666666" points="304.5,-239 164.5,-239 164.5,-220 304.5,-220 304.5,-239"/>
<text text-anchor="middle" x="234.5" y="-227" font-family="Helvetica,sans-Serif" font-size="10.00">common/infix_internals.h</text>
</a>
</g>
</g>
<!-- Node2&#45;&gt;Node5 -->
<g id="edge4_Node000002_Node000005" class="edge">
<title>Node2&#45;&gt;Node5</title>
<g id="a_edge4_Node000002_Node000005"><a xlink:title=" ">
<path fill="none" stroke="#63b8ff" d="M234.5,-274.75C234.5,-267.8 234.5,-257.85 234.5,-249.13"/>
<polygon fill="#63b8ff" stroke="#63b8ff" points="238,-249.09 234.5,-239.09 231,-249.09 238,-249.09"/>
</a>
</g>
</g>
<!-- Node4 -->
<g id="Node000004" class="node">
<title>Node4</title>
<g id="a_Node000004"><a xlink:title=" ">
<polygon fill="#e0e0e0" stroke="#999999" points="183,-19 130,-19 130,0 183,0 183,-19"/>
<text text-anchor="middle" x="156.5" y="-7" font-family="Helvetica,sans-Serif" font-size="10.00">stdint.h</text>
</a>
</g>
</g>
<!-- Node3&#45;&gt;Node4 -->
<g id="edge3_Node000003_Node000004" class="edge">
<title>Node3&#45;&gt;Node4</title>
<g id="a_edge3_Node000003_Node000004"><a xlink:title=" ">
<path fill="none" stroke="#63b8ff" d="M80.51,-109.61C83.74,-96.67 91.04,-72.31 103.5,-55 111.83,-43.42 123.84,-33.01 134.32,-25.17"/>
<polygon fill="#63b8ff" stroke="#63b8ff" points="136.54,-27.88 142.65,-19.23 132.47,-22.19 136.54,-27.88"/>
</a>
</g>
</g>
<!-- Node6 -->
<g id="Node000006" class="node">
<title>Node6</title>
<g id="a_Node000006"><a xlink:href="infix__config_8h.html" target="_top" xlink:title="Platform, architecture, and ABI detection macros.">
<polygon fill="white" stroke="#666666" points="240,-74 113,-74 113,-55 240,-55 240,-74"/>
<text text-anchor="middle" x="176.5" y="-62" font-family="Helvetica,sans-Serif" font-size="10.00">common/infix_config.h</text>
</a>
</g>
</g>
<!-- Node5&#45;&gt;Node6 -->
<g id="edge5_Node000005_Node000006" class="edge">
<title>Node5&#45;&gt;Node6</title>
<g id="a_edge5_Node000005_Node000006"><a xlink:title=" ">
<path fill="none" stroke="#63b8ff" d="M229.41,-219.87C224.38,-211.07 216.69,-196.91 211.5,-184 197.68,-149.62 186.58,-107.68 180.81,-84.04"/>
<polygon fill="#63b8ff" stroke="#63b8ff" points="184.15,-82.94 178.43,-74.02 177.34,-84.56 184.15,-82.94"/>
</a>
</g>
</g>
<!-- Node7 -->
<g id="Node000007" class="node">
<title>Node7</title>
<g id="a_Node000007"><a xlink:href="platform_8h.html" target="_top" xlink:title="Declares internal, runtime CPU/OS feature detection functions.">
<polygon fill="white" stroke="#666666" points="334,-184 221,-184 221,-165 334,-165 334,-184"/>
<text text-anchor="middle" x="277.5" y="-172" font-family="Helvetica,sans-Serif" font-size="10.00">common/platform.h</text>
</a>
</g>
</g>
<!-- Node5&#45;&gt;Node7 -->
<g id="edge6_Node000005_Node000007" class="edge">
<title>Node5&#45;&gt;Node7</title>
<g id="a_edge6_Node000005_Node000007"><a xlink:title=" ">
<path fill="none" stroke="#63b8ff" d="M241.6,-219.75C247.67,-212.26 256.59,-201.28 264.01,-192.13"/>
<polygon fill="#63b8ff" stroke="#63b8ff" points="266.95,-194.06 270.53,-184.09 261.51,-189.65 266.95,-194.06"/>
</a>
</g>
</g>
<!-- Node9 -->
<g id="Node000009" class="node">
<title>Node9</title>
<g id="a_Node000009"><a xlink:href="infix_8h.html" target="_top" xlink:title="The public interface for the infix FFI library.">
<polygon fill="white" stroke="#666666" points="406,-74 335,-74 335,-55 406,-55 406,-74"/>
<text text-anchor="middle" x="370.5" y="-62" font-family="Helvetica,sans-Serif" font-size="10.00">infix/infix.h</text>
</a>
</g>
</g>
<!-- Node5&#45;&gt;Node9 -->
<g id="edge17_Node000005_Node000009" class="edge">
<title>Node5&#45;&gt;Node9</title>
<g id="a_edge17_Node000005_Node000009"><a xlink:title=" ">
<path fill="none" stroke="#63b8ff" d="M285.29,-219.91C334.26,-208.56 405.38,-183.26 436.5,-129 448.39,-108.27 423.57,-89.99 401.05,-78.44"/>
<polygon fill="#63b8ff" stroke="#63b8ff" points="402.5,-75.25 391.97,-74.05 399.45,-81.55 402.5,-75.25"/>
</a>
</g>
</g>
<!-- Node12 -->
<g id="Node000012" class="node">
<title>Node12</title>
<g id="a_Node000012"><a xlink:title=" ">
<polygon fill="#e0e0e0" stroke="#999999" points="164,-184 101,-184 101,-165 164,-165 164,-184"/>
<text text-anchor="middle" x="132.5" y="-172" font-family="Helvetica,sans-Serif" font-size="10.00">pthread.h</text>
</a>
</g>
</g>
<!-- Node5&#45;&gt;Node12 -->
<g id="edge18_Node000005_Node000012" class="edge">
<title>Node5&#45;&gt;Node12</title>
<g id="a_edge18_Node000005_Node000012"><a xlink:title=" ">
<path fill="none" stroke="#63b8ff" d="M218.11,-219.98C201.93,-211.57 176.93,-198.59 158.12,-188.81"/>
<polygon fill="#63b8ff" stroke="#63b8ff" points="159.67,-185.68 149.19,-184.17 156.45,-191.89 159.67,-185.68"/>
</a>
</g>
</g>
<!-- Node7&#45;&gt;Node6 -->
<g id="edge15_Node000007_Node000006" class="edge">
<title>Node7&#45;&gt;Node6</title>
<g id="a_edge15_Node000007_Node000006"><a xlink:title=" ">
<path fill="none" stroke="#63b8ff" d="M269.23,-164.66C252.21,-146.46 213.02,-104.55 191.43,-81.47"/>
<polygon fill="#63b8ff" stroke="#63b8ff" points="193.98,-79.07 184.6,-74.16 188.87,-83.85 193.98,-79.07"/>
</a>
</g>
</g>
<!-- Node8 -->
<g id="Node000008" class="node">
<title>Node8</title>
<g id="a_Node000008"><a xlink:href="compat__c23_8h.html" target="_top" xlink:title="Provides forward compatibility macros for C23 features.">
<polygon fill="white" stroke="#666666" points="428,-129 297,-129 297,-110 428,-110 428,-129"/>
<text text-anchor="middle" x="362.5" y="-117" font-family="Helvetica,sans-Serif" font-size="10.00">common/compat_c23.h</text>
</a>
</g>
</g>
<!-- Node7&#45;&gt;Node8 -->
<g id="edge7_Node000007_Node000008" class="edge">
<title>Node7&#45;&gt;Node8</title>
<g id="a_edge7_Node000007_Node000008"><a xlink:title=" ">
<path fill="none" stroke="#63b8ff" d="M291.16,-164.98C304.34,-156.77 324.53,-144.18 340.07,-134.49"/>
<polygon fill="#63b8ff" stroke="#63b8ff" points="341.96,-137.43 348.59,-129.17 338.26,-131.49 341.96,-137.43"/>
</a>
</g>
</g>
<!-- Node10 -->
<g id="Node000010" class="node">
<title>Node10</title>
<g id="a_Node000010"><a xlink:title=" ">
<polygon fill="#e0e0e0" stroke="#999999" points="337.5,-19 275.5,-19 275.5,0 337.5,0 337.5,-19"/>
<text text-anchor="middle" x="306.5" y="-7" font-family="Helvetica,sans-Serif" font-size="10.00">stdbool.h</text>
</a>
</g>
</g>
<!-- Node7&#45;&gt;Node10 -->
<g id="edge16_Node000007_Node000010" class="edge">
<title>Node7&#45;&gt;Node10</title>
<g id="a_edge16_Node000007_Node000010"><a xlink:title=" ">
<path fill="none" stroke="#63b8ff" d="M278.77,-164.86C280.59,-152.63 284.09,-129.57 287.5,-110 292.44,-81.63 298.84,-48.83 302.8,-28.89"/>
<polygon fill="#63b8ff" stroke="#63b8ff" points="306.25,-29.49 304.78,-19 299.39,-28.12 306.25,-29.49"/>
</a>
</g>
</g>
<!-- Node8&#45;&gt;Node6 -->
<g id="edge8_Node000008_Node000006" class="edge">
<title>Node8&#45;&gt;Node6</title>
<g id="a_edge8_Node000008_Node000006"><a xlink:title=" ">
<path fill="none" stroke="#63b8ff" d="M332.62,-109.98C301.12,-101.01 251.33,-86.82 216.47,-76.89"/>
<polygon fill="#63b8ff" stroke="#63b8ff" points="217.19,-73.46 206.62,-74.08 215.28,-80.19 217.19,-73.46"/>
</a>
</g>
</g>
<!-- Node8&#45;&gt;Node9 -->
<g id="edge9_Node000008_Node000009" class="edge">
<title>Node8&#45;&gt;Node9</title>
<g id="a_edge9_Node000008_Node000009"><a xlink:title=" ">
<path fill="none" stroke="#63b8ff" d="M363.82,-109.75C364.87,-102.8 366.37,-92.85 367.69,-84.13"/>
<polygon fill="#63b8ff" stroke="#63b8ff" points="371.17,-84.5 369.2,-74.09 364.25,-83.45 371.17,-84.5"/>
</a>
</g>
</g>
<!-- Node8&#45;&gt;Node10 -->
<g id="edge13_Node000008_Node000010" class="edge">
<title>Node8&#45;&gt;Node10</title>
<g id="a_edge13_Node000008_Node000010"><a xlink:title=" ">
<path fill="none" stroke="#63b8ff" d="M353.36,-109.76C345.03,-101.32 332.91,-87.81 325.5,-74 317.93,-59.88 312.97,-42.34 310.03,-29.27"/>
<polygon fill="#63b8ff" stroke="#63b8ff" points="313.39,-28.23 307.94,-19.14 306.53,-29.64 313.39,-28.23"/>
</a>
</g>
</g>
<!-- Node11 -->
<g id="Node000011" class="node">
<title>Node11</title>
<g id="a_Node000011"><a xlink:title=" ">
<polygon fill="#e0e0e0" stroke="#999999" points="462.5,-19 406.5,-19 406.5,0 462.5,0 462.5,-19"/>
<text text-anchor="middle" x="434.5" y="-7" font-family="Helvetica,sans-Serif" font-size="10.00">stddef.h</text>
</a>
</g>
</g>
<!-- Node8&#45;&gt;Node11 -->
<g id="edge14_Node000008_Node000011" class="edge">
<title>Node8&#45;&gt;Node11</title>
<g id="a_edge14_Node000008_Node000011"><a xlink:title=" ">
<path fill="none" stroke="#63b8ff" d="M376.34,-109.89C388.08,-101.93 404.54,-89.07 414.5,-74 423.46,-60.44 428.61,-42.62 431.44,-29.31"/>
<polygon fill="#63b8ff" stroke="#63b8ff" points="434.89,-29.85 433.29,-19.38 428.01,-28.56 434.89,-29.85"/>
</a>
</g>
</g>
<!-- Node9&#45;&gt;Node4 -->
<g id="edge12_Node000009_Node000004" class="edge">
<title>Node9&#45;&gt;Node4</title>
<g id="a_edge12_Node000009_Node000004"><a xlink:title=" ">
<path fill="none" stroke="#63b8ff" d="M336.12,-54.98C296.88,-45.27 232.98,-29.44 192.91,-19.52"/>
<polygon fill="#63b8ff" stroke="#63b8ff" points="193.57,-16.08 183.02,-17.07 191.89,-22.87 193.57,-16.08"/>
</a>
</g>
</g>
<!-- Node9&#45;&gt;Node10 -->
<g id="edge10_Node000009_Node000010" class="edge">
<title>Node9&#45;&gt;Node10</title>
<g id="a_edge10_Node000009_Node000010"><a xlink:title=" ">
<path fill="none" stroke="#63b8ff" d="M360.22,-54.98C350.66,-47.07 336.22,-35.11 324.72,-25.58"/>
<polygon fill="#63b8ff" stroke="#63b8ff" points="326.9,-22.85 316.97,-19.17 322.44,-28.24 326.9,-22.85"/>
</a>
</g>
</g>
<!-- Node9&#45;&gt;Node11 -->
<g id="edge11_Node000009_Node000011" class="edge">
<title>Node9&#45;&gt;Node11</title>
<g id="a_edge11_Node000009_Node000011"><a xlink:title=" ">
<path fill="none" stroke="#63b8ff" d="M380.78,-54.98C390.34,-47.07 404.78,-35.11 416.28,-25.58"/>
<polygon fill="#63b8ff" stroke="#63b8ff" points="418.56,-28.24 424.03,-19.17 414.1,-22.85 418.56,-28.24"/>
</a>
</g>
</g>
<!-- Node13&#45;&gt;Node8 -->
<g id="edge20_Node000013_Node000008" class="edge">
<title>Node13&#45;&gt;Node8</title>
<g id="a_edge20_Node000013_Node000008"><a xlink:title=" ">
<path fill="none" stroke="#63b8ff" d="M497.63,-164.98C470.72,-156.13 428.38,-142.19 398.27,-132.28"/>
<polygon fill="#63b8ff" stroke="#63b8ff" points="399.16,-128.88 388.57,-129.08 396.97,-135.53 399.16,-128.88"/>
</a>
</g>
</g>
<!-- Node13&#45;&gt;Node11 -->
<g id="edge21_Node000013_Node000011" class="edge">
<title>Node13&#45;&gt;Node11</title>
<g id="a_edge21_Node000013_Node000011"><a xlink:title=" ">
<path fill="none" stroke="#63b8ff" d="M518.71,-164.74C504.65,-138.98 463.24,-63.13 444.23,-28.33"/>
<polygon fill="#63b8ff" stroke="#63b8ff" points="447.17,-26.41 439.31,-19.31 441.03,-29.76 447.17,-26.41"/>
</a>
</g>
</g>
</g>
</svg>

<g id="navigator" transform="translate(0 0)" fill="#404254">
  <rect fill="#f2f5e9" fill-opacity="0.5" stroke="#606060" stroke-width=".5" x="0" y="0" width="60" height="60"/>
  <use id="zoomplus" xlink:href="#zoomPlus" x="17" y="9" onmousedown="handleZoom(evt,'in')"/>
  <use id="zoomminus" xlink:href="#zoomMin" x="42" y="9" onmousedown="handleZoom(evt,'out')"/>
  <use id="reset" xlink:href="#resetDef" x="30" y="36" onmousedown="handleReset()"/>
   <use id="arrowup" xlink:href="#arrowUp" x="0" y="0" onmousedown="handlePan(0,-1)"/>
  <use id="arrowright" xlink:href="#arrowRight" x="0" y="0" onmousedown="handlePan(1,0)"/>
  <use id="arrowdown" xlink:href="#arrowDown" x="0" y="0" onmousedown="handlePan(0,1)"/>
  <use id="arrowleft" xlink:href="#arrowLeft" x="0" y="0" onmousedown="handlePan(-1,0)"/>
</g>
<svg viewBox="0 0 15 15" width="100%" height="30px" preserveAspectRatio="xMaxYMin meet">
 <g id="arrow_out" transform="scale(0.3 0.3)">
  <a xlink:href="abi__x64__emitters_8c__incl_org.svg" target="_base">
   <rect id="button" ry="5" rx="5" y="6" x="6" height="38" width="38"
        fill="#f2f5e9" fill-opacity="0.5" stroke="#606060" stroke-width="1.0"/>
   <path id="arrow"
     d="M 11.500037,31.436501 C 11.940474,20.09759 22.043105,11.32322 32.158766,21.979434 L 37.068811,17.246167 C 37.068811,17.246167 37.088388,32 37.088388,32 L 22.160133,31.978069 C 22.160133,31.978069 26.997745,27.140456 26.997745,27.140456 C 18.528582,18.264221 13.291696,25.230495 11.500037,31.436501 z"
     style="fill:#404040;"/>
  </a>
 </g>
</svg>

<style type='text/css'>
<![CDATA[
[data-mouse-over-selected='false'] { opacity: 0.7; }
[data-mouse-over-selected='true']  { opacity: 1.0; }
]]>
</style>
<script type="application/ecmascript"><![CDATA[
document.addEventListener('DOMContentLoaded', (event) => {
  highlightEdges();
  highlightAdjacentNodes();
});
]]></script>
</svg>
