<?xml version="1.0" encoding="UTF-8" standalone="no"?>
<!DOCTYPE svg PUBLIC "-//W3C//DTD SVG 1.1//EN"
 "http://www.w3.org/Graphics/SVG/1.1/DTD/svg11.dtd">
<!-- Generated by graphviz version 2.43.0 (0)
 -->
<!-- Title: src/arch/aarch64/abi_arm64_common.h Pages: 1 -->
<svg width="256pt" height="170pt"
 viewBox="0.00 0.00 256.00 170.00" xmlns="http://www.w3.org/2000/svg" xmlns:xlink="http://www.w3.org/1999/xlink">

<svg id="main" version="1.1" xmlns="http://www.w3.org/2000/svg" xmlns:xlink="http://www.w3.org/1999/xlink" xml:space="preserve" onload="init(evt)">
<style type="text/css"><![CDATA[
.node, .edge {opacity: 0.7;}
.node.selected, .edge.selected {opacity: 1;}
.edge:hover path { stroke: red; }
.edge:hover polygon { stroke: red; fill: red; }
]]></style>
<script type="application/ecmascript" xlink:href="svg.min.js"/>
<svg id="graph" class="graph">
<g id="graph0" class="graph" transform="scale(1 1) rotate(0) translate(4 166)">
<title>src/arch/aarch64/abi_arm64_common.h</title>
<!-- Node1 -->
<g id="Node000001" class="node">
<title>Node1</title>
<g id="a_Node000001"><a xlink:title="Common register definitions for the AArch64 (ARM64) architecture.">
<polygon fill="#999999" stroke="#666666" points="158,-162 43,-162 43,-132 158,-132 158,-162"/>
<text text-anchor="start" x="51" y="-150" font-family="Helvetica,sans-Serif" font-size="10.00">src/arch/aarch64/abi</text>
<text text-anchor="middle" x="100.5" y="-139" font-family="Helvetica,sans-Serif" font-size="10.00">_arm64_common.h</text>
</a>
</g>
</g>
<!-- Node2 -->
<g id="Node000002" class="node">
<title>Node2</title>
<g id="a_Node000002"><a xlink:href="abi__arm64_8c.html" target="_top" xlink:title="Implements the FFI logic for the AArch64 (ARM64) architecture.">
<polygon fill="white" stroke="#666666" points="115,-30 0,-30 0,0 115,0 115,-30"/>
<text text-anchor="start" x="8" y="-18" font-family="Helvetica,sans-Serif" font-size="10.00">src/arch/aarch64/abi</text>
<text text-anchor="middle" x="57.5" y="-7" font-family="Helvetica,sans-Serif" font-size="10.00">_arm64.c</text>
</a>
</g>
</g>
<!-- Node1&#45;&gt;Node2 -->
<g id="edge1_Node000001_Node000002" class="edge">
<title>Node1&#45;&gt;Node2</title>
<g id="a_edge1_Node000001_Node000002"><a xlink:title=" ">
<path fill="none" stroke="#63b8ff" d="M88.72,-122.77C84.8,-114.46 80.64,-104.94 77.5,-96 69.57,-73.44 63.48,-46.27 60.2,-30.11"/>
<polygon fill="#63b8ff" stroke="#63b8ff" points="85.62,-124.39 93.13,-131.85 91.91,-121.33 85.62,-124.39"/>
</a>
</g>
</g>
<!-- Node3 -->
<g id="Node000003" class="node">
<title>Node3</title>
<g id="a_Node000003"><a xlink:href="abi__arm64__emitters_8h.html" target="_top" xlink:title="Declares internal helper functions for emitting AArch64 machine code.">
<polygon fill="white" stroke="#666666" points="201,-96 86,-96 86,-66 201,-66 201,-96"/>
<text text-anchor="start" x="94" y="-84" font-family="Helvetica,sans-Serif" font-size="10.00">src/arch/aarch64/abi</text>
<text text-anchor="middle" x="143.5" y="-73" font-family="Helvetica,sans-Serif" font-size="10.00">_arm64_emitters.h</text>
</a>
</g>
</g>
<!-- Node1&#45;&gt;Node3 -->
<g id="edge2_Node000001_Node000003" class="edge">
<title>Node1&#45;&gt;Node3</title>
<g id="a_edge2_Node000001_Node000003"><a xlink:title=" ">
<path fill="none" stroke="#63b8ff" d="M115.79,-123.24C121.86,-114.21 128.64,-104.11 133.98,-96.16"/>
<polygon fill="#63b8ff" stroke="#63b8ff" points="112.71,-121.54 110.04,-131.8 118.53,-125.45 112.71,-121.54"/>
</a>
</g>
</g>
<!-- Node3&#45;&gt;Node2 -->
<g id="edge3_Node000003_Node000002" class="edge">
<title>Node3&#45;&gt;Node2</title>
<g id="a_edge3_Node000003_Node000002"><a xlink:title=" ">
<path fill="none" stroke="#63b8ff" d="M116.29,-59.75C103.36,-50.13 88.21,-38.86 76.53,-30.16"/>
<polygon fill="#63b8ff" stroke="#63b8ff" points="114.3,-62.63 124.41,-65.8 118.48,-57.02 114.3,-62.63"/>
</a>
</g>
</g>
<!-- Node4 -->
<g id="Node000004" class="node">
<title>Node4</title>
<g id="a_Node000004"><a xlink:href="abi__arm64__emitters_8c.html" target="_top" xlink:title="Implements internal helper functions for emitting AArch64 machine code.">
<polygon fill="white" stroke="#666666" points="248,-30 133,-30 133,0 248,0 248,-30"/>
<text text-anchor="start" x="141" y="-18" font-family="Helvetica,sans-Serif" font-size="10.00">src/arch/aarch64/abi</text>
<text text-anchor="middle" x="190.5" y="-7" font-family="Helvetica,sans-Serif" font-size="10.00">_arm64_emitters.c</text>
</a>
</g>
</g>
<!-- Node3&#45;&gt;Node4 -->
<g id="edge4_Node000003_Node000004" class="edge">
<title>Node3&#45;&gt;Node4</title>
<g id="a_edge4_Node000003_Node000004"><a xlink:title=" ">
<path fill="none" stroke="#63b8ff" d="M160,-57.53C166.69,-48.43 174.2,-38.19 180.1,-30.16"/>
<polygon fill="#63b8ff" stroke="#63b8ff" points="157.03,-55.66 153.93,-65.8 162.67,-59.81 157.03,-55.66"/>
</a>
</g>
</g>
</g>
</svg>
</svg>

<style type='text/css'>
<![CDATA[
[data-mouse-over-selected='false'] { opacity: 0.7; }
[data-mouse-over-selected='true']  { opacity: 1.0; }
]]>
</style>
<script type="application/ecmascript"><![CDATA[
document.addEventListener('DOMContentLoaded', (event) => {
  highlightEdges();
  highlightAdjacentNodes();
});
]]></script>
</svg>
