<?xml version="1.0" encoding="UTF-8" standalone="no"?>
<!DOCTYPE svg PUBLIC "-//W3C//DTD SVG 1.1//EN"
 "http://www.w3.org/Graphics/SVG/1.1/DTD/svg11.dtd">
<!-- Generated by graphviz version 2.43.0 (0)
 -->
<!-- Title: src/arch/aarch64/abi_arm64_emitters.h Pages: 1 -->
<svg width="358pt" height="258pt"
 viewBox="0.00 0.00 357.70 258.00" xmlns="http://www.w3.org/2000/svg" xmlns:xlink="http://www.w3.org/1999/xlink">
<g id="graph0" class="graph" transform="scale(1 1) rotate(0) translate(4 254)">
<title>src/arch/aarch64/abi_arm64_emitters.h</title>
<!-- Node1 -->
<g id="Node000001" class="node">
<title>Node1</title>
<g id="a_Node000001"><a xlink:title="Declares internal helper functions for emitting AArch64 machine code.">
<polygon fill="#999999" stroke="#666666" points="195,-250 80,-250 80,-220 195,-220 195,-250"/>
<text text-anchor="start" x="88" y="-238" font-family="Helvetica,sans-Serif" font-size="10.00">src/arch/aarch64/abi</text>
<text text-anchor="middle" x="137.5" y="-227" font-family="Helvetica,sans-Serif" font-size="10.00">_arm64_emitters.h</text>
</a>
</g>
</g>
<!-- Node2 -->
<g id="Node000002" class="node">
<title>Node2</title>
<g id="a_Node000002"><a xlink:href="abi__arm64__common_8h.html" target="_top" xlink:title="Common register definitions for the AArch64 (ARM64) architecture.">
<polygon fill="white" stroke="#666666" points="125,-184 0,-184 0,-165 125,-165 125,-184"/>
<text text-anchor="middle" x="62.5" y="-172" font-family="Helvetica,sans-Serif" font-size="10.00">abi_arm64_common.h</text>
</a>
</g>
</g>
<!-- Node1&#45;&gt;Node2 -->
<g id="edge1_Node000001_Node000002" class="edge">
<title>Node1&#45;&gt;Node2</title>
<g id="a_edge1_Node000001_Node000002"><a xlink:title=" ">
<path fill="none" stroke="#63b8ff" d="M119.34,-219.84C108.01,-211 93.44,-199.63 81.88,-190.62"/>
<polygon fill="#63b8ff" stroke="#63b8ff" points="83.78,-187.66 73.74,-184.27 79.47,-193.18 83.78,-187.66"/>
</a>
</g>
</g>
<!-- Node4 -->
<g id="Node000004" class="node">
<title>Node4</title>
<g id="a_Node000004"><a xlink:href="infix__internals_8h.html" target="_top" xlink:title="Declarations for internal&#45;only functions, types, and constants.">
<polygon fill="white" stroke="#666666" points="283.5,-184 143.5,-184 143.5,-165 283.5,-165 283.5,-184"/>
<text text-anchor="middle" x="213.5" y="-172" font-family="Helvetica,sans-Serif" font-size="10.00">common/infix_internals.h</text>
</a>
</g>
</g>
<!-- Node1&#45;&gt;Node4 -->
<g id="edge3_Node000001_Node000004" class="edge">
<title>Node1&#45;&gt;Node4</title>
<g id="a_edge3_Node000001_Node000004"><a xlink:title=" ">
<path fill="none" stroke="#63b8ff" d="M155.9,-219.84C167.38,-211 182.15,-199.63 193.86,-190.62"/>
<polygon fill="#63b8ff" stroke="#63b8ff" points="196.32,-193.14 202.11,-184.27 192.05,-187.59 196.32,-193.14"/>
</a>
</g>
</g>
<!-- Node3 -->
<g id="Node000003" class="node">
<title>Node3</title>
<g id="a_Node000003"><a xlink:title=" ">
<polygon fill="#e0e0e0" stroke="#999999" points="119,-74 66,-74 66,-55 119,-55 119,-74"/>
<text text-anchor="middle" x="92.5" y="-62" font-family="Helvetica,sans-Serif" font-size="10.00">stdint.h</text>
</a>
</g>
</g>
<!-- Node2&#45;&gt;Node3 -->
<g id="edge2_Node000002_Node000003" class="edge">
<title>Node2&#45;&gt;Node3</title>
<g id="a_edge2_Node000002_Node000003"><a xlink:title=" ">
<path fill="none" stroke="#63b8ff" d="M64.96,-164.66C69.84,-147.09 80.85,-107.45 87.37,-83.95"/>
<polygon fill="#63b8ff" stroke="#63b8ff" points="90.79,-84.73 90.09,-74.16 84.05,-82.86 90.79,-84.73"/>
</a>
</g>
</g>
<!-- Node5 -->
<g id="Node000005" class="node">
<title>Node5</title>
<g id="a_Node000005"><a xlink:href="infix__config_8h.html" target="_top" xlink:title="Internal&#45;only header for platform, architecture, and ABI detection.">
<polygon fill="white" stroke="#666666" points="218,-129 91,-129 91,-110 218,-110 218,-129"/>
<text text-anchor="middle" x="154.5" y="-117" font-family="Helvetica,sans-Serif" font-size="10.00">common/infix_config.h</text>
</a>
</g>
</g>
<!-- Node4&#45;&gt;Node5 -->
<g id="edge4_Node000004_Node000005" class="edge">
<title>Node4&#45;&gt;Node5</title>
<g id="a_edge4_Node000004_Node000005"><a xlink:title=" ">
<path fill="none" stroke="#63b8ff" d="M204.02,-164.98C195.3,-157.15 182.16,-145.34 171.6,-135.86"/>
<polygon fill="#63b8ff" stroke="#63b8ff" points="173.93,-133.25 164.15,-129.17 169.25,-138.46 173.93,-133.25"/>
</a>
</g>
</g>
<!-- Node6 -->
<g id="Node000006" class="node">
<title>Node6</title>
<g id="a_Node000006"><a xlink:href="infix_8h.html" target="_top" xlink:title=" ">
<polygon fill="white" stroke="#666666" points="307,-129 236,-129 236,-110 307,-110 307,-129"/>
<text text-anchor="middle" x="271.5" y="-117" font-family="Helvetica,sans-Serif" font-size="10.00">infix/infix.h</text>
</a>
</g>
</g>
<!-- Node4&#45;&gt;Node6 -->
<g id="edge5_Node000004_Node000006" class="edge">
<title>Node4&#45;&gt;Node6</title>
<g id="a_edge5_Node000004_Node000006"><a xlink:title=" ">
<path fill="none" stroke="#63b8ff" d="M222.82,-164.98C231.31,-157.23 244.06,-145.58 254.38,-136.14"/>
<polygon fill="#63b8ff" stroke="#63b8ff" points="256.99,-138.5 262.01,-129.17 252.27,-133.33 256.99,-138.5"/>
</a>
</g>
</g>
<!-- Node6&#45;&gt;Node3 -->
<g id="edge8_Node000006_Node000003" class="edge">
<title>Node6&#45;&gt;Node3</title>
<g id="a_edge8_Node000006_Node000003"><a xlink:title=" ">
<path fill="none" stroke="#63b8ff" d="M242.74,-109.98C211.84,-100.84 162.66,-86.27 129.04,-76.32"/>
<polygon fill="#63b8ff" stroke="#63b8ff" points="129.72,-72.87 119.14,-73.39 127.74,-79.58 129.72,-72.87"/>
</a>
</g>
</g>
<!-- Node7 -->
<g id="Node000007" class="node">
<title>Node7</title>
<g id="a_Node000007"><a xlink:title=" ">
<polygon fill="#e0e0e0" stroke="#999999" points="259.5,-19 197.5,-19 197.5,0 259.5,0 259.5,-19"/>
<text text-anchor="middle" x="228.5" y="-7" font-family="Helvetica,sans-Serif" font-size="10.00">stdbool.h</text>
</a>
</g>
</g>
<!-- Node6&#45;&gt;Node7 -->
<g id="edge6_Node000006_Node000007" class="edge">
<title>Node6&#45;&gt;Node7</title>
<g id="a_edge6_Node000006_Node000007"><a xlink:title=" ">
<path fill="none" stroke="#63b8ff" d="M244.21,-109.88C227.5,-103.03 207.46,-91.62 197.5,-74 188.6,-58.26 200.23,-39.59 211.69,-26.59"/>
<polygon fill="#63b8ff" stroke="#63b8ff" points="214.27,-28.96 218.63,-19.3 209.2,-24.13 214.27,-28.96"/>
</a>
</g>
</g>
<!-- Node8 -->
<g id="Node000008" class="node">
<title>Node8</title>
<g id="a_Node000008"><a xlink:title=" ">
<polygon fill="#e0e0e0" stroke="#999999" points="341.5,-19 285.5,-19 285.5,0 341.5,0 341.5,-19"/>
<text text-anchor="middle" x="313.5" y="-7" font-family="Helvetica,sans-Serif" font-size="10.00">stddef.h</text>
</a>
</g>
</g>
<!-- Node6&#45;&gt;Node8 -->
<g id="edge7_Node000006_Node000008" class="edge">
<title>Node6&#45;&gt;Node8</title>
<g id="a_edge7_Node000006_Node000008"><a xlink:title=" ">
<path fill="none" stroke="#63b8ff" d="M299.15,-109.98C316.08,-103.17 336.39,-91.76 346.5,-74 355.56,-58.09 343.25,-39.44 331.17,-26.49"/>
<polygon fill="#63b8ff" stroke="#63b8ff" points="333.43,-23.81 323.87,-19.24 328.5,-28.77 333.43,-23.81"/>
</a>
</g>
</g>
<!-- Node9 -->
<g id="Node000009" class="node">
<title>Node9</title>
<g id="a_Node000009"><a xlink:href="compat__c23_8h.html" target="_top" xlink:title="Provides compatibility shims for C23 features in a C17/C11 project.">
<polygon fill="white" stroke="#666666" points="337,-74 206,-74 206,-55 337,-55 337,-74"/>
<text text-anchor="middle" x="271.5" y="-62" font-family="Helvetica,sans-Serif" font-size="10.00">common/compat_c23.h</text>
</a>
</g>
</g>
<!-- Node6&#45;&gt;Node9 -->
<g id="edge9_Node000006_Node000009" class="edge">
<title>Node6&#45;&gt;Node9</title>
<g id="a_edge9_Node000006_Node000009"><a xlink:title=" ">
<path fill="none" stroke="#63b8ff" d="M271.5,-109.75C271.5,-102.8 271.5,-92.85 271.5,-84.13"/>
<polygon fill="#63b8ff" stroke="#63b8ff" points="275,-84.09 271.5,-74.09 268,-84.09 275,-84.09"/>
</a>
</g>
</g>
<!-- Node9&#45;&gt;Node7 -->
<g id="edge10_Node000009_Node000007" class="edge">
<title>Node9&#45;&gt;Node7</title>
<g id="a_edge10_Node000009_Node000007"><a xlink:title=" ">
<path fill="none" stroke="#63b8ff" d="M264.4,-54.75C258.33,-47.26 249.41,-36.28 241.99,-27.13"/>
<polygon fill="#63b8ff" stroke="#63b8ff" points="244.49,-24.65 235.47,-19.09 239.05,-29.06 244.49,-24.65"/>
</a>
</g>
</g>
<!-- Node9&#45;&gt;Node8 -->
<g id="edge11_Node000009_Node000008" class="edge">
<title>Node9&#45;&gt;Node8</title>
<g id="a_edge11_Node000009_Node000008"><a xlink:title=" ">
<path fill="none" stroke="#63b8ff" d="M278.44,-54.75C284.37,-47.26 293.07,-36.28 300.32,-27.13"/>
<polygon fill="#63b8ff" stroke="#63b8ff" points="303.23,-29.1 306.69,-19.09 297.74,-24.75 303.23,-29.1"/>
</a>
</g>
</g>
</g>
</svg>
