<?xml version="1.0" encoding="UTF-8" standalone="no"?>
<!DOCTYPE svg PUBLIC "-//W3C//DTD SVG 1.1//EN"
 "http://www.w3.org/Graphics/SVG/1.1/DTD/svg11.dtd">
<!-- Generated by graphviz version 2.43.0 (0)
 -->
<!-- Title: src/arch/x64/abi_sysv_x64.c Pages: 1 -->
<svg width="432pt" height="313pt"
 viewBox="0.00 0.00 432.29 313.00" xmlns="http://www.w3.org/2000/svg" xmlns:xlink="http://www.w3.org/1999/xlink">

<svg id="main" version="1.1" xmlns="http://www.w3.org/2000/svg" xmlns:xlink="http://www.w3.org/1999/xlink" xml:space="preserve" onload="init(evt)">
<style type="text/css"><![CDATA[
.node, .edge {opacity: 0.7;}
.node.selected, .edge.selected {opacity: 1;}
.edge:hover path { stroke: red; }
.edge:hover polygon { stroke: red; fill: red; }
]]></style>
<script type="application/ecmascript" xlink:href="svg.min.js"/>
<svg id="graph" class="graph">
<g id="graph0" class="graph" transform="scale(1 1) rotate(0) translate(4 309)">
<title>src/arch/x64/abi_sysv_x64.c</title>
<!-- Node1 -->
<g id="Node000001" class="node">
<title>Node1</title>
<g id="a_Node000001"><a xlink:title="Implements the FFI logic for the System V AMD64 ABI.">
<polygon fill="#999999" stroke="#666666" points="283,-305 161,-305 161,-275 283,-275 283,-305"/>
<text text-anchor="start" x="169" y="-293" font-family="Helvetica,sans-Serif" font-size="10.00">src/arch/x64/abi_sysv</text>
<text text-anchor="middle" x="222" y="-282" font-family="Helvetica,sans-Serif" font-size="10.00">_x64.c</text>
</a>
</g>
</g>
<!-- Node2 -->
<g id="Node000002" class="node">
<title>Node2</title>
<g id="a_Node000002"><a xlink:href="infix__internals_8h.html" target="_top" xlink:title="Declarations for internal&#45;only functions, types, and constants.">
<polygon fill="white" stroke="#666666" points="168,-184 28,-184 28,-165 168,-165 168,-184"/>
<text text-anchor="middle" x="98" y="-172" font-family="Helvetica,sans-Serif" font-size="10.00">common/infix_internals.h</text>
</a>
</g>
</g>
<!-- Node1&#45;&gt;Node2 -->
<g id="edge1_Node000001_Node000002" class="edge">
<title>Node1&#45;&gt;Node2</title>
<g id="a_edge1_Node000001_Node000002"><a xlink:title=" ">
<path fill="none" stroke="#63b8ff" d="M171.79,-274.9C152.29,-267.15 131.26,-255.63 117,-239 106.35,-226.58 101.67,-208.36 99.61,-194.63"/>
<polygon fill="#63b8ff" stroke="#63b8ff" points="103.05,-193.9 98.43,-184.36 96.1,-194.7 103.05,-193.9"/>
</a>
</g>
</g>
<!-- Node5 -->
<g id="Node000005" class="node">
<title>Node5</title>
<g id="a_Node000005"><a xlink:title=" ">
<polygon fill="#e0e0e0" stroke="#999999" points="245,-19 183,-19 183,0 245,0 245,-19"/>
<text text-anchor="middle" x="214" y="-7" font-family="Helvetica,sans-Serif" font-size="10.00">stdbool.h</text>
</a>
</g>
</g>
<!-- Node1&#45;&gt;Node5 -->
<g id="edge18_Node000001_Node000005" class="edge">
<title>Node1&#45;&gt;Node5</title>
<g id="a_edge18_Node000001_Node000005"><a xlink:title=" ">
<path fill="none" stroke="#63b8ff" d="M160.75,-283.68C95.04,-274.22 0,-248.01 0,-175.5 0,-175.5 0,-175.5 0,-118.5 0,-41.98 110.39,-19.67 172.6,-13.17"/>
<polygon fill="#63b8ff" stroke="#63b8ff" points="173.26,-16.62 182.88,-12.19 172.6,-9.65 173.26,-16.62"/>
</a>
</g>
</g>
<!-- Node9 -->
<g id="Node000009" class="node">
<title>Node9</title>
<g id="a_Node000009"><a xlink:href="utility_8h.html" target="_top" xlink:title="A header for conditionally compiled debugging utilities.">
<polygon fill="white" stroke="#666666" points="400,-129 302,-129 302,-110 400,-110 400,-129"/>
<text text-anchor="middle" x="351" y="-117" font-family="Helvetica,sans-Serif" font-size="10.00">common/utility.h</text>
</a>
</g>
</g>
<!-- Node1&#45;&gt;Node9 -->
<g id="edge10_Node000001_Node000009" class="edge">
<title>Node1&#45;&gt;Node9</title>
<g id="a_edge10_Node000001_Node000009"><a xlink:title=" ">
<path fill="none" stroke="#63b8ff" d="M234.17,-274.66C251,-254.7 282.1,-217.22 307,-184 318.52,-168.63 330.93,-150.58 339.62,-137.66"/>
<polygon fill="#63b8ff" stroke="#63b8ff" points="342.58,-139.53 345.22,-129.27 336.76,-135.64 342.58,-139.53"/>
</a>
</g>
</g>
<!-- Node10 -->
<g id="Node000010" class="node">
<title>Node10</title>
<g id="a_Node000010"><a xlink:href="abi__x64__common_8h.html" target="_top" xlink:title="Common register definitions for the x86&#45;64 architecture.">
<polygon fill="white" stroke="#666666" points="298,-184 186,-184 186,-165 298,-165 298,-184"/>
<text text-anchor="middle" x="242" y="-172" font-family="Helvetica,sans-Serif" font-size="10.00">abi_x64_common.h</text>
</a>
</g>
</g>
<!-- Node1&#45;&gt;Node10 -->
<g id="edge13_Node000001_Node000010" class="edge">
<title>Node1&#45;&gt;Node10</title>
<g id="a_edge13_Node000001_Node000010"><a xlink:title=" ">
<path fill="none" stroke="#63b8ff" d="M230.59,-274.71C235.9,-265.01 242.22,-251.69 245,-239 248.25,-224.16 247.14,-206.91 245.41,-194.15"/>
<polygon fill="#63b8ff" stroke="#63b8ff" points="248.87,-193.57 243.84,-184.25 241.95,-194.67 248.87,-193.57"/>
</a>
</g>
</g>
<!-- Node11 -->
<g id="Node000011" class="node">
<title>Node11</title>
<g id="a_Node000011"><a xlink:href="abi__x64__emitters_8h.html" target="_top" xlink:title="Declares internal helper functions for emitting x86&#45;64 machine code.">
<polygon fill="white" stroke="#666666" points="236,-239 126,-239 126,-220 236,-220 236,-239"/>
<text text-anchor="middle" x="181" y="-227" font-family="Helvetica,sans-Serif" font-size="10.00">abi_x64_emitters.h</text>
</a>
</g>
</g>
<!-- Node1&#45;&gt;Node11 -->
<g id="edge15_Node000001_Node000011" class="edge">
<title>Node1&#45;&gt;Node11</title>
<g id="a_edge15_Node000001_Node000011"><a xlink:title=" ">
<path fill="none" stroke="#63b8ff" d="M212.08,-274.84C206.31,-266.61 199,-256.18 192.92,-247.51"/>
<polygon fill="#63b8ff" stroke="#63b8ff" points="195.75,-245.45 187.14,-239.27 190.02,-249.46 195.75,-245.45"/>
</a>
</g>
</g>
<!-- Node12 -->
<g id="Node000012" class="node">
<title>Node12</title>
<g id="a_Node000012"><a xlink:title=" ">
<polygon fill="#e0e0e0" stroke="#999999" points="407.5,-239 354.5,-239 354.5,-220 407.5,-220 407.5,-239"/>
<text text-anchor="middle" x="381" y="-227" font-family="Helvetica,sans-Serif" font-size="10.00">stdlib.h</text>
</a>
</g>
</g>
<!-- Node1&#45;&gt;Node12 -->
<g id="edge19_Node000001_Node000012" class="edge">
<title>Node1&#45;&gt;Node12</title>
<g id="a_edge19_Node000001_Node000012"><a xlink:title=" ">
<path fill="none" stroke="#63b8ff" d="M260.08,-274.99C286.85,-265.14 322.3,-252.1 347.89,-242.68"/>
<polygon fill="#63b8ff" stroke="#63b8ff" points="349.34,-245.88 357.52,-239.14 346.93,-239.31 349.34,-245.88"/>
</a>
</g>
</g>
<!-- Node3 -->
<g id="Node000003" class="node">
<title>Node3</title>
<g id="a_Node000003"><a xlink:href="infix__config_8h.html" target="_top" xlink:title="Internal&#45;only header for platform, architecture, and ABI detection.">
<polygon fill="white" stroke="#666666" points="155.5,-129 28.5,-129 28.5,-110 155.5,-110 155.5,-129"/>
<text text-anchor="middle" x="92" y="-117" font-family="Helvetica,sans-Serif" font-size="10.00">common/infix_config.h</text>
</a>
</g>
</g>
<!-- Node2&#45;&gt;Node3 -->
<g id="edge2_Node000002_Node000003" class="edge">
<title>Node2&#45;&gt;Node3</title>
<g id="a_edge2_Node000002_Node000003"><a xlink:title=" ">
<path fill="none" stroke="#63b8ff" d="M97.01,-164.75C96.22,-157.8 95.1,-147.85 94.11,-139.13"/>
<polygon fill="#63b8ff" stroke="#63b8ff" points="97.58,-138.63 92.97,-129.09 90.62,-139.42 97.58,-138.63"/>
</a>
</g>
</g>
<!-- Node4 -->
<g id="Node000004" class="node">
<title>Node4</title>
<g id="a_Node000004"><a xlink:href="infix_8h.html" target="_top" xlink:title=" ">
<polygon fill="white" stroke="#666666" points="283.5,-129 212.5,-129 212.5,-110 283.5,-110 283.5,-129"/>
<text text-anchor="middle" x="248" y="-117" font-family="Helvetica,sans-Serif" font-size="10.00">infix/infix.h</text>
</a>
</g>
</g>
<!-- Node2&#45;&gt;Node4 -->
<g id="edge3_Node000002_Node000004" class="edge">
<title>Node2&#45;&gt;Node4</title>
<g id="a_edge3_Node000002_Node000004"><a xlink:title=" ">
<path fill="none" stroke="#63b8ff" d="M122.1,-164.98C146.88,-156.23 185.7,-142.51 213.69,-132.62"/>
<polygon fill="#63b8ff" stroke="#63b8ff" points="215.2,-135.8 223.46,-129.17 212.87,-129.2 215.2,-135.8"/>
</a>
</g>
</g>
<!-- Node4&#45;&gt;Node5 -->
<g id="edge4_Node000004_Node000005" class="edge">
<title>Node4&#45;&gt;Node5</title>
<g id="a_edge4_Node000004_Node000005"><a xlink:title=" ">
<path fill="none" stroke="#63b8ff" d="M245.22,-109.66C239.69,-92.09 227.21,-52.45 219.81,-28.95"/>
<polygon fill="#63b8ff" stroke="#63b8ff" points="223.07,-27.65 216.73,-19.16 216.39,-29.75 223.07,-27.65"/>
</a>
</g>
</g>
<!-- Node6 -->
<g id="Node000006" class="node">
<title>Node6</title>
<g id="a_Node000006"><a xlink:title=" ">
<polygon fill="#e0e0e0" stroke="#999999" points="374,-19 318,-19 318,0 374,0 374,-19"/>
<text text-anchor="middle" x="346" y="-7" font-family="Helvetica,sans-Serif" font-size="10.00">stddef.h</text>
</a>
</g>
</g>
<!-- Node4&#45;&gt;Node6 -->
<g id="edge5_Node000004_Node000006" class="edge">
<title>Node4&#45;&gt;Node6</title>
<g id="a_edge5_Node000004_Node000006"><a xlink:title=" ">
<path fill="none" stroke="#63b8ff" d="M249.41,-109.78C251.93,-96.62 258.26,-71.47 272,-55 283.35,-41.4 299.98,-30.88 314.6,-23.49"/>
<polygon fill="#63b8ff" stroke="#63b8ff" points="316.32,-26.54 323.84,-19.08 313.31,-20.23 316.32,-26.54"/>
</a>
</g>
</g>
<!-- Node7 -->
<g id="Node000007" class="node">
<title>Node7</title>
<g id="a_Node000007"><a xlink:title=" ">
<polygon fill="#e0e0e0" stroke="#999999" points="185.5,-74 132.5,-74 132.5,-55 185.5,-55 185.5,-74"/>
<text text-anchor="middle" x="159" y="-62" font-family="Helvetica,sans-Serif" font-size="10.00">stdint.h</text>
</a>
</g>
</g>
<!-- Node4&#45;&gt;Node7 -->
<g id="edge6_Node000004_Node000007" class="edge">
<title>Node4&#45;&gt;Node7</title>
<g id="a_edge6_Node000004_Node000007"><a xlink:title=" ">
<path fill="none" stroke="#63b8ff" d="M233.7,-109.98C219.9,-101.77 198.76,-89.18 182.49,-79.49"/>
<polygon fill="#63b8ff" stroke="#63b8ff" points="183.94,-76.28 173.56,-74.17 180.36,-82.29 183.94,-76.28"/>
</a>
</g>
</g>
<!-- Node8 -->
<g id="Node000008" class="node">
<title>Node8</title>
<g id="a_Node000008"><a xlink:href="compat__c23_8h.html" target="_top" xlink:title="Provides compatibility shims for C23 features in a C17/C11 project.">
<polygon fill="white" stroke="#666666" points="411.5,-74 280.5,-74 280.5,-55 411.5,-55 411.5,-74"/>
<text text-anchor="middle" x="346" y="-62" font-family="Helvetica,sans-Serif" font-size="10.00">common/compat_c23.h</text>
</a>
</g>
</g>
<!-- Node4&#45;&gt;Node8 -->
<g id="edge7_Node000004_Node000008" class="edge">
<title>Node4&#45;&gt;Node8</title>
<g id="a_edge7_Node000004_Node000008"><a xlink:title=" ">
<path fill="none" stroke="#63b8ff" d="M263.75,-109.98C279.23,-101.61 303.09,-88.7 321.14,-78.95"/>
<polygon fill="#63b8ff" stroke="#63b8ff" points="322.84,-82.01 329.97,-74.17 319.51,-75.85 322.84,-82.01"/>
</a>
</g>
</g>
<!-- Node8&#45;&gt;Node5 -->
<g id="edge8_Node000008_Node000005" class="edge">
<title>Node8&#45;&gt;Node5</title>
<g id="a_edge8_Node000008_Node000005"><a xlink:title=" ">
<path fill="none" stroke="#63b8ff" d="M324.79,-54.98C303.27,-46.34 269.72,-32.87 245.17,-23.02"/>
<polygon fill="#63b8ff" stroke="#63b8ff" points="246.18,-19.65 235.59,-19.17 243.57,-26.14 246.18,-19.65"/>
</a>
</g>
</g>
<!-- Node8&#45;&gt;Node6 -->
<g id="edge9_Node000008_Node000006" class="edge">
<title>Node8&#45;&gt;Node6</title>
<g id="a_edge9_Node000008_Node000006"><a xlink:title=" ">
<path fill="none" stroke="#63b8ff" d="M346,-54.75C346,-47.8 346,-37.85 346,-29.13"/>
<polygon fill="#63b8ff" stroke="#63b8ff" points="349.5,-29.09 346,-19.09 342.5,-29.09 349.5,-29.09"/>
</a>
</g>
</g>
<!-- Node9&#45;&gt;Node6 -->
<g id="edge12_Node000009_Node000006" class="edge">
<title>Node9&#45;&gt;Node6</title>
<g id="a_edge12_Node000009_Node000006"><a xlink:title=" ">
<path fill="none" stroke="#63b8ff" d="M374.51,-109.83C399.82,-99.05 434.72,-79.1 421,-55 412.7,-40.43 397.55,-30.14 383.02,-23.15"/>
<polygon fill="#63b8ff" stroke="#63b8ff" points="384.21,-19.85 373.65,-19.02 381.39,-26.25 384.21,-19.85"/>
</a>
</g>
</g>
<!-- Node9&#45;&gt;Node8 -->
<g id="edge11_Node000009_Node000008" class="edge">
<title>Node9&#45;&gt;Node8</title>
<g id="a_edge11_Node000009_Node000008"><a xlink:title=" ">
<path fill="none" stroke="#63b8ff" d="M350.17,-109.75C349.52,-102.8 348.58,-92.85 347.76,-84.13"/>
<polygon fill="#63b8ff" stroke="#63b8ff" points="351.23,-83.72 346.81,-74.09 344.27,-84.37 351.23,-83.72"/>
</a>
</g>
</g>
<!-- Node10&#45;&gt;Node7 -->
<g id="edge14_Node000010_Node000007" class="edge">
<title>Node10&#45;&gt;Node7</title>
<g id="a_edge14_Node000010_Node000007"><a xlink:title=" ">
<path fill="none" stroke="#63b8ff" d="M234.19,-164.83C226.33,-156 213.99,-141.82 204,-129 192.11,-113.73 179.44,-95.67 170.58,-82.72"/>
<polygon fill="#63b8ff" stroke="#63b8ff" points="173.38,-80.62 164.87,-74.31 167.59,-84.55 173.38,-80.62"/>
</a>
</g>
</g>
<!-- Node11&#45;&gt;Node2 -->
<g id="edge17_Node000011_Node000002" class="edge">
<title>Node11&#45;&gt;Node2</title>
<g id="a_edge17_Node000011_Node000002"><a xlink:title=" ">
<path fill="none" stroke="#63b8ff" d="M167.66,-219.98C154.91,-211.84 135.45,-199.41 120.33,-189.76"/>
<polygon fill="#63b8ff" stroke="#63b8ff" points="121.89,-186.6 111.58,-184.17 118.12,-192.5 121.89,-186.6"/>
</a>
</g>
</g>
<!-- Node11&#45;&gt;Node10 -->
<g id="edge16_Node000011_Node000010" class="edge">
<title>Node11&#45;&gt;Node10</title>
<g id="a_edge16_Node000011_Node000010"><a xlink:title=" ">
<path fill="none" stroke="#63b8ff" d="M190.8,-219.98C199.82,-212.15 213.41,-200.34 224.32,-190.86"/>
<polygon fill="#63b8ff" stroke="#63b8ff" points="226.77,-193.37 232.02,-184.17 222.18,-188.09 226.77,-193.37"/>
</a>
</g>
</g>
</g>
</svg>
</svg>

<style type='text/css'>
<![CDATA[
[data-mouse-over-selected='false'] { opacity: 0.7; }
[data-mouse-over-selected='true']  { opacity: 1.0; }
]]>
</style>
<script type="application/ecmascript"><![CDATA[
document.addEventListener('DOMContentLoaded', (event) => {
  highlightEdges();
  highlightAdjacentNodes();
});
]]></script>
</svg>
