<?xml version="1.0" encoding="UTF-8" standalone="no"?>
<!DOCTYPE svg PUBLIC "-//W3C//DTD SVG 1.1//EN"
 "http://www.w3.org/Graphics/SVG/1.1/DTD/svg11.dtd">
<!-- Generated by graphviz version 2.43.0 (0)
 -->
<!-- Title: src/arch/aarch64/abi_arm64.c Pages: 1 -->
<svg width="498pt" height="313pt"
 viewBox="0.00 0.00 497.50 313.00" xmlns="http://www.w3.org/2000/svg" xmlns:xlink="http://www.w3.org/1999/xlink">
<g id="graph0" class="graph" transform="scale(1 1) rotate(0) translate(4 309)">
<title>src/arch/aarch64/abi_arm64.c</title>
<!-- Node1 -->
<g id="Node000001" class="node">
<title>Node1</title>
<g id="a_Node000001"><a xlink:title="Implements the FFI logic for the AArch64 (ARM64) architecture.">
<polygon fill="#999999" stroke="#666666" points="344.5,-305 229.5,-305 229.5,-275 344.5,-275 344.5,-305"/>
<text text-anchor="start" x="237.5" y="-293" font-family="Helvetica,sans-Serif" font-size="10.00">src/arch/aarch64/abi</text>
<text text-anchor="middle" x="287" y="-282" font-family="Helvetica,sans-Serif" font-size="10.00">_arm64.c</text>
</a>
</g>
</g>
<!-- Node2 -->
<g id="Node000002" class="node">
<title>Node2</title>
<g id="a_Node000002"><a xlink:href="abi__arm64__common_8h.html" target="_top" xlink:title="Common register definitions for the AArch64 (ARM64) architecture.">
<polygon fill="white" stroke="#666666" points="153.5,-184 28.5,-184 28.5,-165 153.5,-165 153.5,-184"/>
<text text-anchor="middle" x="91" y="-172" font-family="Helvetica,sans-Serif" font-size="10.00">abi_arm64_common.h</text>
</a>
</g>
</g>
<!-- Node1&#45;&gt;Node2 -->
<g id="edge1_Node000001_Node000002" class="edge">
<title>Node1&#45;&gt;Node2</title>
<g id="a_edge1_Node000001_Node000002"><a xlink:title=" ">
<path fill="none" stroke="#63b8ff" d="M229.43,-281.99C196.23,-275.47 155.37,-262.95 126,-239 111.7,-227.34 102.3,-208.2 96.87,-193.98"/>
<polygon fill="#63b8ff" stroke="#63b8ff" points="100.09,-192.56 93.49,-184.27 93.48,-194.86 100.09,-192.56"/>
</a>
</g>
</g>
<!-- Node4 -->
<g id="Node000004" class="node">
<title>Node4</title>
<g id="a_Node000004"><a xlink:href="abi__arm64__emitters_8h.html" target="_top" xlink:title="Declares internal helper functions for emitting AArch64 machine code.">
<polygon fill="white" stroke="#666666" points="259,-239 135,-239 135,-220 259,-220 259,-239"/>
<text text-anchor="middle" x="197" y="-227" font-family="Helvetica,sans-Serif" font-size="10.00">abi_arm64_emitters.h</text>
</a>
</g>
</g>
<!-- Node1&#45;&gt;Node4 -->
<g id="edge3_Node000001_Node000004" class="edge">
<title>Node1&#45;&gt;Node4</title>
<g id="a_edge3_Node000001_Node000004"><a xlink:title=" ">
<path fill="none" stroke="#63b8ff" d="M265.21,-274.84C251.13,-265.68 232.87,-253.82 218.79,-244.66"/>
<polygon fill="#63b8ff" stroke="#63b8ff" points="220.51,-241.61 210.22,-239.09 216.7,-247.48 220.51,-241.61"/>
</a>
</g>
</g>
<!-- Node5 -->
<g id="Node000005" class="node">
<title>Node5</title>
<g id="a_Node000005"><a xlink:href="infix__internals_8h.html" target="_top" xlink:title="Declarations for internal&#45;only functions, types, and constants.">
<polygon fill="white" stroke="#666666" points="312,-184 172,-184 172,-165 312,-165 312,-184"/>
<text text-anchor="middle" x="242" y="-172" font-family="Helvetica,sans-Serif" font-size="10.00">common/infix_internals.h</text>
</a>
</g>
</g>
<!-- Node1&#45;&gt;Node5 -->
<g id="edge14_Node000001_Node000005" class="edge">
<title>Node1&#45;&gt;Node5</title>
<g id="a_edge14_Node000001_Node000005"><a xlink:title=" ">
<path fill="none" stroke="#63b8ff" d="M284.24,-274.9C281.21,-260.69 275.72,-238.32 268,-220 264,-210.52 258.35,-200.57 253.34,-192.5"/>
<polygon fill="#63b8ff" stroke="#63b8ff" points="256.23,-190.53 247.88,-184.01 250.35,-194.32 256.23,-190.53"/>
</a>
</g>
</g>
<!-- Node8 -->
<g id="Node000008" class="node">
<title>Node8</title>
<g id="a_Node000008"><a xlink:title=" ">
<polygon fill="#e0e0e0" stroke="#999999" points="197,-19 135,-19 135,0 197,0 197,-19"/>
<text text-anchor="middle" x="166" y="-7" font-family="Helvetica,sans-Serif" font-size="10.00">stdbool.h</text>
</a>
</g>
</g>
<!-- Node1&#45;&gt;Node8 -->
<g id="edge18_Node000001_Node000008" class="edge">
<title>Node1&#45;&gt;Node8</title>
<g id="a_edge18_Node000001_Node000008"><a xlink:title=" ">
<path fill="none" stroke="#63b8ff" d="M229.27,-278.32C145.46,-261.16 0,-224.33 0,-175.5 0,-175.5 0,-175.5 0,-118.5 0,-58.99 75.88,-30.58 125.03,-18.42"/>
<polygon fill="#63b8ff" stroke="#63b8ff" points="125.84,-21.83 134.78,-16.14 124.24,-15.01 125.84,-21.83"/>
</a>
</g>
</g>
<!-- Node11 -->
<g id="Node000011" class="node">
<title>Node11</title>
<g id="a_Node000011"><a xlink:href="utility_8h.html" target="_top" xlink:title="A header for conditionally compiled debugging utilities.">
<polygon fill="white" stroke="#666666" points="399,-129 301,-129 301,-110 399,-110 399,-129"/>
<text text-anchor="middle" x="350" y="-117" font-family="Helvetica,sans-Serif" font-size="10.00">common/utility.h</text>
</a>
</g>
</g>
<!-- Node1&#45;&gt;Node11 -->
<g id="edge15_Node000001_Node000011" class="edge">
<title>Node1&#45;&gt;Node11</title>
<g id="a_edge15_Node000001_Node000011"><a xlink:title=" ">
<path fill="none" stroke="#63b8ff" d="M292.26,-274.92C303.63,-244.52 330.47,-172.73 343.15,-138.83"/>
<polygon fill="#63b8ff" stroke="#63b8ff" points="346.5,-139.85 346.73,-129.25 339.95,-137.4 346.5,-139.85"/>
</a>
</g>
</g>
<!-- Node12 -->
<g id="Node000012" class="node">
<title>Node12</title>
<g id="a_Node000012"><a xlink:title=" ">
<polygon fill="#e0e0e0" stroke="#999999" points="418,-239 368,-239 368,-220 418,-220 418,-239"/>
<text text-anchor="middle" x="393" y="-227" font-family="Helvetica,sans-Serif" font-size="10.00">stdio.h</text>
</a>
</g>
</g>
<!-- Node1&#45;&gt;Node12 -->
<g id="edge19_Node000001_Node000012" class="edge">
<title>Node1&#45;&gt;Node12</title>
<g id="a_edge19_Node000001_Node000012"><a xlink:title=" ">
<path fill="none" stroke="#63b8ff" d="M312.39,-274.99C329.29,-265.66 351.38,-253.47 368.16,-244.21"/>
<polygon fill="#63b8ff" stroke="#63b8ff" points="370.28,-247.04 377.35,-239.14 366.9,-240.91 370.28,-247.04"/>
</a>
</g>
</g>
<!-- Node13 -->
<g id="Node000013" class="node">
<title>Node13</title>
<g id="a_Node000013"><a xlink:title=" ">
<polygon fill="#e0e0e0" stroke="#999999" points="489.5,-239 436.5,-239 436.5,-220 489.5,-220 489.5,-239"/>
<text text-anchor="middle" x="463" y="-227" font-family="Helvetica,sans-Serif" font-size="10.00">stdlib.h</text>
</a>
</g>
</g>
<!-- Node1&#45;&gt;Node13 -->
<g id="edge20_Node000001_Node000013" class="edge">
<title>Node1&#45;&gt;Node13</title>
<g id="a_edge20_Node000001_Node000013"><a xlink:title=" ">
<path fill="none" stroke="#63b8ff" d="M329.16,-274.99C359.27,-264.98 399.31,-251.67 427.73,-242.22"/>
<polygon fill="#63b8ff" stroke="#63b8ff" points="428.88,-245.53 437.27,-239.05 426.67,-238.89 428.88,-245.53"/>
</a>
</g>
</g>
<!-- Node3 -->
<g id="Node000003" class="node">
<title>Node3</title>
<g id="a_Node000003"><a xlink:title=" ">
<polygon fill="#e0e0e0" stroke="#999999" points="130.5,-74 77.5,-74 77.5,-55 130.5,-55 130.5,-74"/>
<text text-anchor="middle" x="104" y="-62" font-family="Helvetica,sans-Serif" font-size="10.00">stdint.h</text>
</a>
</g>
</g>
<!-- Node2&#45;&gt;Node3 -->
<g id="edge2_Node000002_Node000003" class="edge">
<title>Node2&#45;&gt;Node3</title>
<g id="a_edge2_Node000002_Node000003"><a xlink:title=" ">
<path fill="none" stroke="#63b8ff" d="M80.57,-164.7C67.63,-152.65 48.3,-130.22 57,-110 62.15,-98.03 72.29,-87.76 81.83,-80.12"/>
<polygon fill="#63b8ff" stroke="#63b8ff" points="83.99,-82.88 89.93,-74.11 79.81,-77.26 83.99,-82.88"/>
</a>
</g>
</g>
<!-- Node4&#45;&gt;Node2 -->
<g id="edge4_Node000004_Node000002" class="edge">
<title>Node4&#45;&gt;Node2</title>
<g id="a_edge4_Node000004_Node000002"><a xlink:title=" ">
<path fill="none" stroke="#63b8ff" d="M179.97,-219.98C163.07,-211.54 136.94,-198.47 117.36,-188.68"/>
<polygon fill="#63b8ff" stroke="#63b8ff" points="118.85,-185.51 108.34,-184.17 115.72,-191.77 118.85,-185.51"/>
</a>
</g>
</g>
<!-- Node4&#45;&gt;Node5 -->
<g id="edge5_Node000004_Node000005" class="edge">
<title>Node4&#45;&gt;Node5</title>
<g id="a_edge5_Node000004_Node000005"><a xlink:title=" ">
<path fill="none" stroke="#63b8ff" d="M204.43,-219.75C210.85,-212.18 220.31,-201.05 228.12,-191.84"/>
<polygon fill="#63b8ff" stroke="#63b8ff" points="230.9,-193.98 234.71,-184.09 225.57,-189.45 230.9,-193.98"/>
</a>
</g>
</g>
<!-- Node6 -->
<g id="Node000006" class="node">
<title>Node6</title>
<g id="a_Node000006"><a xlink:href="infix__config_8h.html" target="_top" xlink:title="Internal&#45;only header for platform, architecture, and ABI detection.">
<polygon fill="white" stroke="#666666" points="193.5,-129 66.5,-129 66.5,-110 193.5,-110 193.5,-129"/>
<text text-anchor="middle" x="130" y="-117" font-family="Helvetica,sans-Serif" font-size="10.00">common/infix_config.h</text>
</a>
</g>
</g>
<!-- Node5&#45;&gt;Node6 -->
<g id="edge6_Node000005_Node000006" class="edge">
<title>Node5&#45;&gt;Node6</title>
<g id="a_edge6_Node000005_Node000006"><a xlink:title=" ">
<path fill="none" stroke="#63b8ff" d="M224.01,-164.98C206.07,-156.5 178.28,-143.35 157.57,-133.54"/>
<polygon fill="#63b8ff" stroke="#63b8ff" points="158.86,-130.28 148.32,-129.17 155.86,-136.61 158.86,-130.28"/>
</a>
</g>
</g>
<!-- Node7 -->
<g id="Node000007" class="node">
<title>Node7</title>
<g id="a_Node000007"><a xlink:href="infix_8h.html" target="_top" xlink:title=" ">
<polygon fill="white" stroke="#666666" points="282.5,-129 211.5,-129 211.5,-110 282.5,-110 282.5,-129"/>
<text text-anchor="middle" x="247" y="-117" font-family="Helvetica,sans-Serif" font-size="10.00">infix/infix.h</text>
</a>
</g>
</g>
<!-- Node5&#45;&gt;Node7 -->
<g id="edge7_Node000005_Node000007" class="edge">
<title>Node5&#45;&gt;Node7</title>
<g id="a_edge7_Node000005_Node000007"><a xlink:title=" ">
<path fill="none" stroke="#63b8ff" d="M242.83,-164.75C243.48,-157.8 244.42,-147.85 245.24,-139.13"/>
<polygon fill="#63b8ff" stroke="#63b8ff" points="248.73,-139.37 246.19,-129.09 241.77,-138.72 248.73,-139.37"/>
</a>
</g>
</g>
<!-- Node7&#45;&gt;Node3 -->
<g id="edge10_Node000007_Node000003" class="edge">
<title>Node7&#45;&gt;Node3</title>
<g id="a_edge10_Node000007_Node000003"><a xlink:title=" ">
<path fill="none" stroke="#63b8ff" d="M224.02,-109.98C200.5,-101.27 163.71,-87.63 137.06,-77.75"/>
<polygon fill="#63b8ff" stroke="#63b8ff" points="137.99,-74.36 127.39,-74.17 135.55,-80.93 137.99,-74.36"/>
</a>
</g>
</g>
<!-- Node7&#45;&gt;Node8 -->
<g id="edge8_Node000007_Node000008" class="edge">
<title>Node7&#45;&gt;Node8</title>
<g id="a_edge8_Node000007_Node000008"><a xlink:title=" ">
<path fill="none" stroke="#63b8ff" d="M240.37,-109.66C226.9,-91.69 196.11,-50.64 178.66,-27.38"/>
<polygon fill="#63b8ff" stroke="#63b8ff" points="181.29,-25.06 172.49,-19.16 175.69,-29.26 181.29,-25.06"/>
</a>
</g>
</g>
<!-- Node9 -->
<g id="Node000009" class="node">
<title>Node9</title>
<g id="a_Node000009"><a xlink:title=" ">
<polygon fill="#e0e0e0" stroke="#999999" points="326,-19 270,-19 270,0 326,0 326,-19"/>
<text text-anchor="middle" x="298" y="-7" font-family="Helvetica,sans-Serif" font-size="10.00">stddef.h</text>
</a>
</g>
</g>
<!-- Node7&#45;&gt;Node9 -->
<g id="edge9_Node000007_Node000009" class="edge">
<title>Node7&#45;&gt;Node9</title>
<g id="a_edge9_Node000007_Node000009"><a xlink:title=" ">
<path fill="none" stroke="#63b8ff" d="M239.38,-109.89C229.2,-97.3 213.61,-73.37 224,-55 232.17,-40.55 247.12,-30.27 261.46,-23.26"/>
<polygon fill="#63b8ff" stroke="#63b8ff" points="263.01,-26.4 270.71,-19.12 260.15,-20.01 263.01,-26.4"/>
</a>
</g>
</g>
<!-- Node10 -->
<g id="Node000010" class="node">
<title>Node10</title>
<g id="a_Node000010"><a xlink:href="compat__c23_8h.html" target="_top" xlink:title="Provides compatibility shims for C23 features in a C17/C11 project.">
<polygon fill="white" stroke="#666666" points="363.5,-74 232.5,-74 232.5,-55 363.5,-55 363.5,-74"/>
<text text-anchor="middle" x="298" y="-62" font-family="Helvetica,sans-Serif" font-size="10.00">common/compat_c23.h</text>
</a>
</g>
</g>
<!-- Node7&#45;&gt;Node10 -->
<g id="edge11_Node000007_Node000010" class="edge">
<title>Node7&#45;&gt;Node10</title>
<g id="a_edge11_Node000007_Node000010"><a xlink:title=" ">
<path fill="none" stroke="#63b8ff" d="M255.42,-109.75C262.77,-102.11 273.63,-90.82 282.54,-81.56"/>
<polygon fill="#63b8ff" stroke="#63b8ff" points="285.32,-83.72 289.74,-74.09 280.28,-78.87 285.32,-83.72"/>
</a>
</g>
</g>
<!-- Node10&#45;&gt;Node8 -->
<g id="edge12_Node000010_Node000008" class="edge">
<title>Node10&#45;&gt;Node8</title>
<g id="a_edge12_Node000010_Node000008"><a xlink:title=" ">
<path fill="none" stroke="#63b8ff" d="M276.79,-54.98C255.27,-46.34 221.72,-32.87 197.17,-23.02"/>
<polygon fill="#63b8ff" stroke="#63b8ff" points="198.18,-19.65 187.59,-19.17 195.57,-26.14 198.18,-19.65"/>
</a>
</g>
</g>
<!-- Node10&#45;&gt;Node9 -->
<g id="edge13_Node000010_Node000009" class="edge">
<title>Node10&#45;&gt;Node9</title>
<g id="a_edge13_Node000010_Node000009"><a xlink:title=" ">
<path fill="none" stroke="#63b8ff" d="M298,-54.75C298,-47.8 298,-37.85 298,-29.13"/>
<polygon fill="#63b8ff" stroke="#63b8ff" points="301.5,-29.09 298,-19.09 294.5,-29.09 301.5,-29.09"/>
</a>
</g>
</g>
<!-- Node11&#45;&gt;Node9 -->
<g id="edge17_Node000011_Node000009" class="edge">
<title>Node11&#45;&gt;Node9</title>
<g id="a_edge17_Node000011_Node000009"><a xlink:title=" ">
<path fill="none" stroke="#63b8ff" d="M357.64,-109.88C367.83,-97.28 383.44,-73.34 373,-55 364.7,-40.43 349.55,-30.14 335.02,-23.15"/>
<polygon fill="#63b8ff" stroke="#63b8ff" points="336.21,-19.85 325.65,-19.02 333.39,-26.25 336.21,-19.85"/>
</a>
</g>
</g>
<!-- Node11&#45;&gt;Node10 -->
<g id="edge16_Node000011_Node000010" class="edge">
<title>Node11&#45;&gt;Node10</title>
<g id="a_edge16_Node000011_Node000010"><a xlink:title=" ">
<path fill="none" stroke="#63b8ff" d="M341.41,-109.75C333.84,-102.03 322.62,-90.6 313.49,-81.28"/>
<polygon fill="#63b8ff" stroke="#63b8ff" points="315.93,-78.78 306.43,-74.09 310.93,-83.68 315.93,-78.78"/>
</a>
</g>
</g>
</g>
</svg>
