<?xml version="1.0" encoding="UTF-8" standalone="no"?>
<!DOCTYPE svg PUBLIC "-//W3C//DTD SVG 1.1//EN"
 "http://www.w3.org/Graphics/SVG/1.1/DTD/svg11.dtd">
<!-- Generated by graphviz version 2.43.0 (0)
 -->
<!-- Title: src/arch/aarch64/abi_arm64_emitters.c Pages: 1 -->
<svg width="551pt" height="390pt"
 viewBox="0.00 0.00 550.50 390.00" xmlns="http://www.w3.org/2000/svg" xmlns:xlink="http://www.w3.org/1999/xlink">
<g id="graph0" class="graph" transform="scale(1 1) rotate(0) translate(4 386)">
<title>src/arch/aarch64/abi_arm64_emitters.c</title>
<!-- Node1 -->
<g id="Node000001" class="node">
<title>Node1</title>
<g id="a_Node000001"><a xlink:title="Implements internal helper functions for emitting AArch64 machine code.">
<polygon fill="#999999" stroke="#666666" points="432.5,-382 317.5,-382 317.5,-352 432.5,-352 432.5,-382"/>
<text text-anchor="start" x="325.5" y="-370" font-family="Helvetica,sans-Serif" font-size="10.00">src/arch/aarch64/abi</text>
<text text-anchor="middle" x="375" y="-359" font-family="Helvetica,sans-Serif" font-size="10.00">_arm64_emitters.c</text>
</a>
</g>
</g>
<!-- Node2 -->
<g id="Node000002" class="node">
<title>Node2</title>
<g id="a_Node000002"><a xlink:href="abi__arm64__emitters_8h.html" target="_top" xlink:title="Declares internal helper functions for emitting AArch64 machine code.">
<polygon fill="white" stroke="#666666" points="233,-316 99,-316 99,-286 233,-286 233,-316"/>
<text text-anchor="start" x="107" y="-304" font-family="Helvetica,sans-Serif" font-size="10.00">arch/aarch64/abi_arm64</text>
<text text-anchor="middle" x="166" y="-293" font-family="Helvetica,sans-Serif" font-size="10.00">_emitters.h</text>
</a>
</g>
</g>
<!-- Node1&#45;&gt;Node2 -->
<g id="edge1_Node000001_Node000002" class="edge">
<title>Node1&#45;&gt;Node2</title>
<g id="a_edge1_Node000001_Node000002"><a xlink:title=" ">
<path fill="none" stroke="#63b8ff" d="M329.13,-351.95C297.42,-342.24 255.05,-329.27 221.44,-318.98"/>
<polygon fill="#63b8ff" stroke="#63b8ff" points="222.35,-315.59 211.76,-316.01 220.3,-322.29 222.35,-315.59"/>
</a>
</g>
</g>
<!-- Node12 -->
<g id="Node000012" class="node">
<title>Node12</title>
<g id="a_Node000012"><a xlink:href="utility_8h.html" target="_top" xlink:title="A header for conditionally compiled debugging utilities.">
<polygon fill="white" stroke="#666666" points="424,-195 326,-195 326,-176 424,-176 424,-195"/>
<text text-anchor="middle" x="375" y="-183" font-family="Helvetica,sans-Serif" font-size="10.00">common/utility.h</text>
</a>
</g>
</g>
<!-- Node1&#45;&gt;Node12 -->
<g id="edge17_Node000001_Node000012" class="edge">
<title>Node1&#45;&gt;Node12</title>
<g id="a_edge17_Node000001_Node000012"><a xlink:title=" ">
<path fill="none" stroke="#63b8ff" d="M360.51,-351.7C352.16,-342.41 342.46,-329.54 338,-316 324.88,-276.2 348.26,-228.66 363.47,-203.72"/>
<polygon fill="#63b8ff" stroke="#63b8ff" points="366.57,-205.37 368.99,-195.06 360.66,-201.61 366.57,-205.37"/>
</a>
</g>
</g>
<!-- Node13 -->
<g id="Node000013" class="node">
<title>Node13</title>
<g id="a_Node000013"><a xlink:title=" ">
<polygon fill="#e0e0e0" stroke="#999999" points="403,-310.5 347,-310.5 347,-291.5 403,-291.5 403,-310.5"/>
<text text-anchor="middle" x="375" y="-298.5" font-family="Helvetica,sans-Serif" font-size="10.00">assert.h</text>
</a>
</g>
</g>
<!-- Node1&#45;&gt;Node13 -->
<g id="edge20_Node000001_Node000013" class="edge">
<title>Node1&#45;&gt;Node13</title>
<g id="a_edge20_Node000001_Node000013"><a xlink:title=" ">
<path fill="none" stroke="#63b8ff" d="M375,-351.8C375,-342.7 375,-330.79 375,-320.9"/>
<polygon fill="#63b8ff" stroke="#63b8ff" points="378.5,-320.84 375,-310.84 371.5,-320.84 378.5,-320.84"/>
</a>
</g>
</g>
<!-- Node14 -->
<g id="Node000014" class="node">
<title>Node14</title>
<g id="a_Node000014"><a xlink:title=" ">
<polygon fill="#e0e0e0" stroke="#999999" points="471,-310.5 421,-310.5 421,-291.5 471,-291.5 471,-310.5"/>
<text text-anchor="middle" x="446" y="-298.5" font-family="Helvetica,sans-Serif" font-size="10.00">stdio.h</text>
</a>
</g>
</g>
<!-- Node1&#45;&gt;Node14 -->
<g id="edge21_Node000001_Node000014" class="edge">
<title>Node1&#45;&gt;Node14</title>
<g id="a_edge21_Node000001_Node000014"><a xlink:title=" ">
<path fill="none" stroke="#63b8ff" d="M390.76,-351.8C401.93,-341.72 416.94,-328.19 428.49,-317.78"/>
<polygon fill="#63b8ff" stroke="#63b8ff" points="431.1,-320.14 436.19,-310.84 426.42,-314.94 431.1,-320.14"/>
</a>
</g>
</g>
<!-- Node15 -->
<g id="Node000015" class="node">
<title>Node15</title>
<g id="a_Node000015"><a xlink:title=" ">
<polygon fill="#e0e0e0" stroke="#999999" points="542.5,-310.5 489.5,-310.5 489.5,-291.5 542.5,-291.5 542.5,-310.5"/>
<text text-anchor="middle" x="516" y="-298.5" font-family="Helvetica,sans-Serif" font-size="10.00">string.h</text>
</a>
</g>
</g>
<!-- Node1&#45;&gt;Node15 -->
<g id="edge22_Node000001_Node000015" class="edge">
<title>Node1&#45;&gt;Node15</title>
<g id="a_edge22_Node000001_Node000015"><a xlink:title=" ">
<path fill="none" stroke="#63b8ff" d="M405.94,-351.95C430.45,-340.83 464.39,-325.42 488.08,-314.67"/>
<polygon fill="#63b8ff" stroke="#63b8ff" points="489.58,-317.84 497.24,-310.52 486.68,-311.46 489.58,-317.84"/>
</a>
</g>
</g>
<!-- Node3 -->
<g id="Node000003" class="node">
<title>Node3</title>
<g id="a_Node000003"><a xlink:href="abi__arm64__common_8h.html" target="_top" xlink:title="Common register definitions and instruction encodings for the AArch64 (ARM64) architecture.">
<polygon fill="white" stroke="#666666" points="134,-85 0,-85 0,-55 134,-55 134,-85"/>
<text text-anchor="start" x="8" y="-73" font-family="Helvetica,sans-Serif" font-size="10.00">arch/aarch64/abi_arm64</text>
<text text-anchor="middle" x="67" y="-62" font-family="Helvetica,sans-Serif" font-size="10.00">_common.h</text>
</a>
</g>
</g>
<!-- Node2&#45;&gt;Node3 -->
<g id="edge2_Node000002_Node000003" class="edge">
<title>Node2&#45;&gt;Node3</title>
<g id="a_edge2_Node000002_Node000003"><a xlink:title=" ">
<path fill="none" stroke="#63b8ff" d="M129.92,-285.82C114.14,-277.73 96.98,-265.96 87,-250 56.95,-201.95 59.42,-132.21 63.43,-95.58"/>
<polygon fill="#63b8ff" stroke="#63b8ff" points="66.95,-95.69 64.69,-85.34 60,-94.84 66.95,-95.69"/>
</a>
</g>
</g>
<!-- Node5 -->
<g id="Node000005" class="node">
<title>Node5</title>
<g id="a_Node000005"><a xlink:href="infix__internals_8h.html" target="_top" xlink:title="Internal data structures, function prototypes, and constants.">
<polygon fill="white" stroke="#666666" points="236,-250 96,-250 96,-231 236,-231 236,-250"/>
<text text-anchor="middle" x="166" y="-238" font-family="Helvetica,sans-Serif" font-size="10.00">common/infix_internals.h</text>
</a>
</g>
</g>
<!-- Node2&#45;&gt;Node5 -->
<g id="edge4_Node000002_Node000005" class="edge">
<title>Node2&#45;&gt;Node5</title>
<g id="a_edge4_Node000002_Node000005"><a xlink:title=" ">
<path fill="none" stroke="#63b8ff" d="M166,-285.84C166,-278.21 166,-268.7 166,-260.45"/>
<polygon fill="#63b8ff" stroke="#63b8ff" points="169.5,-260.27 166,-250.27 162.5,-260.27 169.5,-260.27"/>
</a>
</g>
</g>
<!-- Node4 -->
<g id="Node000004" class="node">
<title>Node4</title>
<g id="a_Node000004"><a xlink:title=" ">
<polygon fill="#e0e0e0" stroke="#999999" points="157.5,-19 104.5,-19 104.5,0 157.5,0 157.5,-19"/>
<text text-anchor="middle" x="131" y="-7" font-family="Helvetica,sans-Serif" font-size="10.00">stdint.h</text>
</a>
</g>
</g>
<!-- Node3&#45;&gt;Node4 -->
<g id="edge3_Node000003_Node000004" class="edge">
<title>Node3&#45;&gt;Node4</title>
<g id="a_edge3_Node000003_Node000004"><a xlink:title=" ">
<path fill="none" stroke="#63b8ff" d="M82.49,-54.84C91.97,-46.17 104.11,-35.08 113.88,-26.15"/>
<polygon fill="#63b8ff" stroke="#63b8ff" points="116.39,-28.6 121.41,-19.27 111.67,-23.43 116.39,-28.6"/>
</a>
</g>
</g>
<!-- Node6 -->
<g id="Node000006" class="node">
<title>Node6</title>
<g id="a_Node000006"><a xlink:href="infix__config_8h.html" target="_top" xlink:title="Platform, architecture, and ABI detection macros.">
<polygon fill="white" stroke="#666666" points="241.5,-140 114.5,-140 114.5,-121 241.5,-121 241.5,-140"/>
<text text-anchor="middle" x="178" y="-128" font-family="Helvetica,sans-Serif" font-size="10.00">common/infix_config.h</text>
</a>
</g>
</g>
<!-- Node5&#45;&gt;Node6 -->
<g id="edge5_Node000005_Node000006" class="edge">
<title>Node5&#45;&gt;Node6</title>
<g id="a_edge5_Node000005_Node000006"><a xlink:title=" ">
<path fill="none" stroke="#63b8ff" d="M166.98,-230.66C168.93,-213.17 173.3,-173.8 175.91,-150.27"/>
<polygon fill="#63b8ff" stroke="#63b8ff" points="179.41,-150.48 177.04,-140.16 172.45,-149.71 179.41,-150.48"/>
</a>
</g>
</g>
<!-- Node7 -->
<g id="Node000007" class="node">
<title>Node7</title>
<g id="a_Node000007"><a xlink:href="platform_8h.html" target="_top" xlink:title="Declares internal, runtime CPU/OS feature detection functions.">
<polygon fill="white" stroke="#666666" points="307.5,-195 194.5,-195 194.5,-176 307.5,-176 307.5,-195"/>
<text text-anchor="middle" x="251" y="-183" font-family="Helvetica,sans-Serif" font-size="10.00">common/platform.h</text>
</a>
</g>
</g>
<!-- Node5&#45;&gt;Node7 -->
<g id="edge6_Node000005_Node000007" class="edge">
<title>Node5&#45;&gt;Node7</title>
<g id="a_edge6_Node000005_Node000007"><a xlink:title=" ">
<path fill="none" stroke="#63b8ff" d="M179.66,-230.98C192.84,-222.77 213.03,-210.18 228.57,-200.49"/>
<polygon fill="#63b8ff" stroke="#63b8ff" points="230.46,-203.43 237.09,-195.17 226.76,-197.49 230.46,-203.43"/>
</a>
</g>
</g>
<!-- Node9 -->
<g id="Node000009" class="node">
<title>Node9</title>
<g id="a_Node000009"><a xlink:href="infix_8h.html" target="_top" xlink:title="The public interface for the infix FFI library.">
<polygon fill="white" stroke="#666666" points="241.5,-79.5 170.5,-79.5 170.5,-60.5 241.5,-60.5 241.5,-79.5"/>
<text text-anchor="middle" x="206" y="-67.5" font-family="Helvetica,sans-Serif" font-size="10.00">infix/infix.h</text>
</a>
</g>
</g>
<!-- Node5&#45;&gt;Node9 -->
<g id="edge16_Node000005_Node000009" class="edge">
<title>Node5&#45;&gt;Node9</title>
<g id="a_edge16_Node000005_Node000009"><a xlink:title=" ">
<path fill="none" stroke="#63b8ff" d="M155.37,-230.91C132.06,-211.03 80.47,-160.51 105,-121 117.29,-101.2 140.02,-89 160.8,-81.61"/>
<polygon fill="#63b8ff" stroke="#63b8ff" points="162.06,-84.88 170.48,-78.45 159.89,-78.23 162.06,-84.88"/>
</a>
</g>
</g>
<!-- Node7&#45;&gt;Node6 -->
<g id="edge14_Node000007_Node000006" class="edge">
<title>Node7&#45;&gt;Node6</title>
<g id="a_edge14_Node000007_Node000006"><a xlink:title=" ">
<path fill="none" stroke="#63b8ff" d="M239.27,-175.98C228.27,-168 211.58,-155.88 198.4,-146.31"/>
<polygon fill="#63b8ff" stroke="#63b8ff" points="200.09,-143.21 189.94,-140.17 195.98,-148.88 200.09,-143.21"/>
</a>
</g>
</g>
<!-- Node8 -->
<g id="Node000008" class="node">
<title>Node8</title>
<g id="a_Node000008"><a xlink:href="compat__c23_8h.html" target="_top" xlink:title="Provides forward compatibility macros for C23 features.">
<polygon fill="white" stroke="#666666" points="429.5,-140 298.5,-140 298.5,-121 429.5,-121 429.5,-140"/>
<text text-anchor="middle" x="364" y="-128" font-family="Helvetica,sans-Serif" font-size="10.00">common/compat_c23.h</text>
</a>
</g>
</g>
<!-- Node7&#45;&gt;Node8 -->
<g id="edge7_Node000007_Node000008" class="edge">
<title>Node7&#45;&gt;Node8</title>
<g id="a_edge7_Node000007_Node000008"><a xlink:title=" ">
<path fill="none" stroke="#63b8ff" d="M269.16,-175.98C287.25,-167.5 315.28,-154.35 336.19,-144.54"/>
<polygon fill="#63b8ff" stroke="#63b8ff" points="337.95,-147.59 345.51,-140.17 334.97,-141.25 337.95,-147.59"/>
</a>
</g>
</g>
<!-- Node10 -->
<g id="Node000010" class="node">
<title>Node10</title>
<g id="a_Node000010"><a xlink:title=" ">
<polygon fill="#e0e0e0" stroke="#999999" points="301,-19 239,-19 239,0 301,0 301,-19"/>
<text text-anchor="middle" x="270" y="-7" font-family="Helvetica,sans-Serif" font-size="10.00">stdbool.h</text>
</a>
</g>
</g>
<!-- Node7&#45;&gt;Node10 -->
<g id="edge15_Node000007_Node000010" class="edge">
<title>Node7&#45;&gt;Node10</title>
<g id="a_edge15_Node000007_Node000010"><a xlink:title=" ">
<path fill="none" stroke="#63b8ff" d="M251.97,-175.63C254.93,-148.52 263.9,-66.32 267.97,-29.13"/>
<polygon fill="#63b8ff" stroke="#63b8ff" points="271.45,-29.46 269.06,-19.14 264.49,-28.7 271.45,-29.46"/>
</a>
</g>
</g>
<!-- Node8&#45;&gt;Node9 -->
<g id="edge8_Node000008_Node000009" class="edge">
<title>Node8&#45;&gt;Node9</title>
<g id="a_edge8_Node000008_Node000009"><a xlink:title=" ">
<path fill="none" stroke="#63b8ff" d="M341.03,-120.99C314.11,-111.03 269.33,-94.45 238.77,-83.13"/>
<polygon fill="#63b8ff" stroke="#63b8ff" points="239.6,-79.71 229,-79.52 237.16,-86.27 239.6,-79.71"/>
</a>
</g>
</g>
<!-- Node8&#45;&gt;Node10 -->
<g id="edge12_Node000008_Node000010" class="edge">
<title>Node8&#45;&gt;Node10</title>
<g id="a_edge12_Node000008_Node000010"><a xlink:title=" ">
<path fill="none" stroke="#63b8ff" d="M357.24,-120.94C341.8,-101.4 303.72,-53.18 283.35,-27.4"/>
<polygon fill="#63b8ff" stroke="#63b8ff" points="285.9,-24.98 276.95,-19.3 280.4,-29.32 285.9,-24.98"/>
</a>
</g>
</g>
<!-- Node11 -->
<g id="Node000011" class="node">
<title>Node11</title>
<g id="a_Node000011"><a xlink:title=" ">
<polygon fill="#e0e0e0" stroke="#999999" points="392,-19 336,-19 336,0 392,0 392,-19"/>
<text text-anchor="middle" x="364" y="-7" font-family="Helvetica,sans-Serif" font-size="10.00">stddef.h</text>
</a>
</g>
</g>
<!-- Node8&#45;&gt;Node11 -->
<g id="edge13_Node000008_Node000011" class="edge">
<title>Node8&#45;&gt;Node11</title>
<g id="a_edge13_Node000008_Node000011"><a xlink:title=" ">
<path fill="none" stroke="#63b8ff" d="M364,-120.94C364,-101.91 364,-55.69 364,-29.47"/>
<polygon fill="#63b8ff" stroke="#63b8ff" points="367.5,-29.3 364,-19.3 360.5,-29.3 367.5,-29.3"/>
</a>
</g>
</g>
<!-- Node9&#45;&gt;Node4 -->
<g id="edge11_Node000009_Node000004" class="edge">
<title>Node9&#45;&gt;Node4</title>
<g id="a_edge11_Node000009_Node000004"><a xlink:title=" ">
<path fill="none" stroke="#63b8ff" d="M194.93,-60.37C183.19,-51.21 164.41,-36.56 150.24,-25.51"/>
<polygon fill="#63b8ff" stroke="#63b8ff" points="152.15,-22.56 142.11,-19.17 147.84,-28.08 152.15,-22.56"/>
</a>
</g>
</g>
<!-- Node9&#45;&gt;Node10 -->
<g id="edge9_Node000009_Node000010" class="edge">
<title>Node9&#45;&gt;Node10</title>
<g id="a_edge9_Node000009_Node000010"><a xlink:title=" ">
<path fill="none" stroke="#63b8ff" d="M215.44,-60.37C225.27,-51.38 240.89,-37.11 252.89,-26.14"/>
<polygon fill="#63b8ff" stroke="#63b8ff" points="255.5,-28.5 260.52,-19.17 250.78,-23.33 255.5,-28.5"/>
</a>
</g>
</g>
<!-- Node9&#45;&gt;Node11 -->
<g id="edge10_Node000009_Node000011" class="edge">
<title>Node9&#45;&gt;Node11</title>
<g id="a_edge10_Node000009_Node000011"><a xlink:title=" ">
<path fill="none" stroke="#63b8ff" d="M228.97,-60.49C255.89,-50.53 300.67,-33.95 331.23,-22.63"/>
<polygon fill="#63b8ff" stroke="#63b8ff" points="332.84,-25.77 341,-19.02 330.4,-19.21 332.84,-25.77"/>
</a>
</g>
</g>
<!-- Node12&#45;&gt;Node8 -->
<g id="edge18_Node000012_Node000008" class="edge">
<title>Node12&#45;&gt;Node8</title>
<g id="a_edge18_Node000012_Node000008"><a xlink:title=" ">
<path fill="none" stroke="#63b8ff" d="M373.18,-175.75C371.74,-168.8 369.68,-158.85 367.87,-150.13"/>
<polygon fill="#63b8ff" stroke="#63b8ff" points="371.24,-149.17 365.78,-140.09 364.39,-150.59 371.24,-149.17"/>
</a>
</g>
</g>
<!-- Node12&#45;&gt;Node11 -->
<g id="edge19_Node000012_Node000011" class="edge">
<title>Node12&#45;&gt;Node11</title>
<g id="a_edge19_Node000012_Node000011"><a xlink:title=" ">
<path fill="none" stroke="#63b8ff" d="M396.79,-175.87C411.64,-168.69 430.16,-156.91 439,-140 442.91,-132.52 441.48,-129.07 439,-121 427.39,-83.21 397.97,-46.74 379.62,-26.6"/>
<polygon fill="#63b8ff" stroke="#63b8ff" points="382.13,-24.15 372.74,-19.24 377.01,-28.93 382.13,-24.15"/>
</a>
</g>
</g>
</g>
</svg>
