<?xml version="1.0" encoding="UTF-8" standalone="no"?>
<!DOCTYPE svg PUBLIC "-//W3C//DTD SVG 1.1//EN"
 "http://www.w3.org/Graphics/SVG/1.1/DTD/svg11.dtd">
<!-- Generated by graphviz version 2.43.0 (0)
 -->
<!-- Title: src/arch/x64/abi_x64_emitters.c Pages: 1 -->
<svg width="579pt" height="368pt"
 viewBox="0.00 0.00 579.00 368.00" xmlns="http://www.w3.org/2000/svg" xmlns:xlink="http://www.w3.org/1999/xlink">
<g id="graph0" class="graph" transform="scale(1 1) rotate(0) translate(4 364)">
<title>src/arch/x64/abi_x64_emitters.c</title>
<!-- Node1 -->
<g id="Node000001" class="node">
<title>Node1</title>
<g id="a_Node000001"><a xlink:title="Implements internal helper functions for emitting x86&#45;64 machine code.">
<polygon fill="#999999" stroke="#666666" points="502,-360 385,-360 385,-330 502,-330 502,-360"/>
<text text-anchor="start" x="393" y="-348" font-family="Helvetica,sans-Serif" font-size="10.00">src/arch/x64/abi_x64</text>
<text text-anchor="middle" x="443.5" y="-337" font-family="Helvetica,sans-Serif" font-size="10.00">_emitters.c</text>
</a>
</g>
</g>
<!-- Node2 -->
<g id="Node000002" class="node">
<title>Node2</title>
<g id="a_Node000002"><a xlink:href="abi__x64__emitters_8h.html" target="_top" xlink:title="Declares internal helper functions for emitting x86&#45;64 machine code.">
<polygon fill="white" stroke="#666666" points="387,-294 232,-294 232,-275 387,-275 387,-294"/>
<text text-anchor="middle" x="309.5" y="-282" font-family="Helvetica,sans-Serif" font-size="10.00">arch/x64/abi_x64_emitters.h</text>
</a>
</g>
</g>
<!-- Node1&#45;&gt;Node2 -->
<g id="edge1_Node000001_Node000002" class="edge">
<title>Node1&#45;&gt;Node2</title>
<g id="a_edge1_Node000001_Node000002"><a xlink:title=" ">
<path fill="none" stroke="#63b8ff" d="M411.4,-329.99C389.25,-320.31 360.02,-307.56 338.55,-298.18"/>
<polygon fill="#63b8ff" stroke="#63b8ff" points="339.85,-294.93 329.29,-294.14 337.05,-301.35 339.85,-294.93"/>
</a>
</g>
</g>
<!-- Node12 -->
<g id="Node000012" class="node">
<title>Node12</title>
<g id="a_Node000012"><a xlink:href="utility_8h.html" target="_top" xlink:title="A header for conditionally compiled debugging utilities.">
<polygon fill="white" stroke="#666666" points="464.5,-184 366.5,-184 366.5,-165 464.5,-165 464.5,-184"/>
<text text-anchor="middle" x="415.5" y="-172" font-family="Helvetica,sans-Serif" font-size="10.00">common/utility.h</text>
</a>
</g>
</g>
<!-- Node1&#45;&gt;Node12 -->
<g id="edge17_Node000001_Node000012" class="edge">
<title>Node1&#45;&gt;Node12</title>
<g id="a_edge17_Node000001_Node000012"><a xlink:title=" ">
<path fill="none" stroke="#63b8ff" d="M440.83,-329.57C439,-319.59 436.54,-306 434.5,-294 428.49,-258.7 421.99,-217.38 418.36,-194.04"/>
<polygon fill="#63b8ff" stroke="#63b8ff" points="421.82,-193.48 416.83,-184.13 414.9,-194.55 421.82,-193.48"/>
</a>
</g>
</g>
<!-- Node13 -->
<g id="Node000013" class="node">
<title>Node13</title>
<g id="a_Node000013"><a xlink:title=" ">
<polygon fill="#e0e0e0" stroke="#999999" points="499.5,-294 443.5,-294 443.5,-275 499.5,-275 499.5,-294"/>
<text text-anchor="middle" x="471.5" y="-282" font-family="Helvetica,sans-Serif" font-size="10.00">assert.h</text>
</a>
</g>
</g>
<!-- Node1&#45;&gt;Node13 -->
<g id="edge20_Node000001_Node000013" class="edge">
<title>Node1&#45;&gt;Node13</title>
<g id="a_edge20_Node000001_Node000013"><a xlink:title=" ">
<path fill="none" stroke="#63b8ff" d="M450.28,-329.84C454.09,-321.87 458.89,-311.84 462.96,-303.33"/>
<polygon fill="#63b8ff" stroke="#63b8ff" points="466.14,-304.8 467.3,-294.27 459.83,-301.77 466.14,-304.8"/>
</a>
</g>
</g>
<!-- Node14 -->
<g id="Node000014" class="node">
<title>Node14</title>
<g id="a_Node000014"><a xlink:title=" ">
<polygon fill="#e0e0e0" stroke="#999999" points="571,-294 518,-294 518,-275 571,-275 571,-294"/>
<text text-anchor="middle" x="544.5" y="-282" font-family="Helvetica,sans-Serif" font-size="10.00">string.h</text>
</a>
</g>
</g>
<!-- Node1&#45;&gt;Node14 -->
<g id="edge21_Node000001_Node000014" class="edge">
<title>Node1&#45;&gt;Node14</title>
<g id="a_edge21_Node000001_Node000014"><a xlink:title=" ">
<path fill="none" stroke="#63b8ff" d="M467.69,-329.99C483.79,-320.66 504.84,-308.47 520.83,-299.21"/>
<polygon fill="#63b8ff" stroke="#63b8ff" points="522.69,-302.18 529.58,-294.14 519.18,-296.12 522.69,-302.18"/>
</a>
</g>
</g>
<!-- Node3 -->
<g id="Node000003" class="node">
<title>Node3</title>
<g id="a_Node000003"><a xlink:href="abi__x64__common_8h.html" target="_top" xlink:title="Common register definitions for the x86&#45;64 architecture.">
<polygon fill="white" stroke="#666666" points="571,-74 414,-74 414,-55 571,-55 571,-74"/>
<text text-anchor="middle" x="492.5" y="-62" font-family="Helvetica,sans-Serif" font-size="10.00">arch/x64/abi_x64_common.h</text>
</a>
</g>
</g>
<!-- Node2&#45;&gt;Node3 -->
<g id="edge2_Node000002_Node000003" class="edge">
<title>Node2&#45;&gt;Node3</title>
<g id="a_edge2_Node000002_Node000003"><a xlink:title=" ">
<path fill="none" stroke="#63b8ff" d="M337.31,-274.89C374.79,-261.75 440.6,-232.91 473.5,-184 493.88,-153.7 495.26,-109.36 494.11,-84.39"/>
<polygon fill="#63b8ff" stroke="#63b8ff" points="497.58,-83.87 493.43,-74.12 490.59,-84.33 497.58,-83.87"/>
</a>
</g>
</g>
<!-- Node5 -->
<g id="Node000005" class="node">
<title>Node5</title>
<g id="a_Node000005"><a xlink:href="infix__internals_8h.html" target="_top" xlink:title="Internal data structures, function prototypes, and constants.">
<polygon fill="white" stroke="#666666" points="324.5,-239 184.5,-239 184.5,-220 324.5,-220 324.5,-239"/>
<text text-anchor="middle" x="254.5" y="-227" font-family="Helvetica,sans-Serif" font-size="10.00">common/infix_internals.h</text>
</a>
</g>
</g>
<!-- Node2&#45;&gt;Node5 -->
<g id="edge4_Node000002_Node000005" class="edge">
<title>Node2&#45;&gt;Node5</title>
<g id="a_edge4_Node000002_Node000005"><a xlink:title=" ">
<path fill="none" stroke="#63b8ff" d="M300.42,-274.75C292.41,-267.03 280.54,-255.6 270.88,-246.28"/>
<polygon fill="#63b8ff" stroke="#63b8ff" points="273.04,-243.51 263.41,-239.09 268.19,-248.55 273.04,-243.51"/>
</a>
</g>
</g>
<!-- Node4 -->
<g id="Node000004" class="node">
<title>Node4</title>
<g id="a_Node000004"><a xlink:title=" ">
<polygon fill="#e0e0e0" stroke="#999999" points="470,-19 417,-19 417,0 470,0 470,-19"/>
<text text-anchor="middle" x="443.5" y="-7" font-family="Helvetica,sans-Serif" font-size="10.00">stdint.h</text>
</a>
</g>
</g>
<!-- Node3&#45;&gt;Node4 -->
<g id="edge3_Node000003_Node000004" class="edge">
<title>Node3&#45;&gt;Node4</title>
<g id="a_edge3_Node000003_Node000004"><a xlink:title=" ">
<path fill="none" stroke="#63b8ff" d="M484.41,-54.75C477.34,-47.11 466.91,-35.82 458.35,-26.56"/>
<polygon fill="#63b8ff" stroke="#63b8ff" points="460.8,-24.06 451.44,-19.09 455.66,-28.81 460.8,-24.06"/>
</a>
</g>
</g>
<!-- Node6 -->
<g id="Node000006" class="node">
<title>Node6</title>
<g id="a_Node000006"><a xlink:href="infix__config_8h.html" target="_top" xlink:title="Platform, architecture, and ABI detection macros.">
<polygon fill="white" stroke="#666666" points="127,-129 0,-129 0,-110 127,-110 127,-129"/>
<text text-anchor="middle" x="63.5" y="-117" font-family="Helvetica,sans-Serif" font-size="10.00">common/infix_config.h</text>
</a>
</g>
</g>
<!-- Node5&#45;&gt;Node6 -->
<g id="edge5_Node000005_Node000006" class="edge">
<title>Node5&#45;&gt;Node6</title>
<g id="a_edge5_Node000005_Node000006"><a xlink:title=" ">
<path fill="none" stroke="#63b8ff" d="M233.44,-219.86C213.67,-211.49 183.49,-198.03 158.5,-184 131.59,-168.89 102.31,-148.7 83.47,-135.18"/>
<polygon fill="#63b8ff" stroke="#63b8ff" points="85.27,-132.16 75.12,-129.13 81.17,-137.83 85.27,-132.16"/>
</a>
</g>
</g>
<!-- Node7 -->
<g id="Node000007" class="node">
<title>Node7</title>
<g id="a_Node000007"><a xlink:href="platform_8h.html" target="_top" xlink:title="Declares internal, runtime CPU/OS feature detection functions.">
<polygon fill="white" stroke="#666666" points="281,-184 168,-184 168,-165 281,-165 281,-184"/>
<text text-anchor="middle" x="224.5" y="-172" font-family="Helvetica,sans-Serif" font-size="10.00">common/platform.h</text>
</a>
</g>
</g>
<!-- Node5&#45;&gt;Node7 -->
<g id="edge6_Node000005_Node000007" class="edge">
<title>Node5&#45;&gt;Node7</title>
<g id="a_edge6_Node000005_Node000007"><a xlink:title=" ">
<path fill="none" stroke="#63b8ff" d="M249.55,-219.75C245.44,-212.49 239.47,-201.95 234.4,-192.98"/>
<polygon fill="#63b8ff" stroke="#63b8ff" points="237.33,-191.07 229.36,-184.09 231.24,-194.52 237.33,-191.07"/>
</a>
</g>
</g>
<!-- Node9 -->
<g id="Node000009" class="node">
<title>Node9</title>
<g id="a_Node000009"><a xlink:href="infix_8h.html" target="_top" xlink:title="The public interface for the infix FFI library.">
<polygon fill="white" stroke="#666666" points="357,-74 286,-74 286,-55 357,-55 357,-74"/>
<text text-anchor="middle" x="321.5" y="-62" font-family="Helvetica,sans-Serif" font-size="10.00">infix/infix.h</text>
</a>
</g>
</g>
<!-- Node5&#45;&gt;Node9 -->
<g id="edge16_Node000005_Node000009" class="edge">
<title>Node5&#45;&gt;Node9</title>
<g id="a_edge16_Node000005_Node000009"><a xlink:title=" ">
<path fill="none" stroke="#63b8ff" d="M263.46,-219.98C279.52,-204 312.53,-167.62 323.5,-129 327.65,-114.39 326.76,-97.13 325.05,-84.3"/>
<polygon fill="#63b8ff" stroke="#63b8ff" points="328.49,-83.65 323.44,-74.33 321.58,-84.76 328.49,-83.65"/>
</a>
</g>
</g>
<!-- Node7&#45;&gt;Node6 -->
<g id="edge14_Node000007_Node000006" class="edge">
<title>Node7&#45;&gt;Node6</title>
<g id="a_edge14_Node000007_Node000006"><a xlink:title=" ">
<path fill="none" stroke="#63b8ff" d="M198.63,-164.98C171.72,-156.13 129.38,-142.19 99.27,-132.28"/>
<polygon fill="#63b8ff" stroke="#63b8ff" points="100.16,-128.88 89.57,-129.08 97.97,-135.53 100.16,-128.88"/>
</a>
</g>
</g>
<!-- Node8 -->
<g id="Node000008" class="node">
<title>Node8</title>
<g id="a_Node000008"><a xlink:href="compat__c23_8h.html" target="_top" xlink:title="Provides forward compatibility macros for C23 features.">
<polygon fill="white" stroke="#666666" points="315,-129 184,-129 184,-110 315,-110 315,-129"/>
<text text-anchor="middle" x="249.5" y="-117" font-family="Helvetica,sans-Serif" font-size="10.00">common/compat_c23.h</text>
</a>
</g>
</g>
<!-- Node7&#45;&gt;Node8 -->
<g id="edge7_Node000007_Node000008" class="edge">
<title>Node7&#45;&gt;Node8</title>
<g id="a_edge7_Node000007_Node000008"><a xlink:title=" ">
<path fill="none" stroke="#63b8ff" d="M228.63,-164.75C232.01,-157.57 236.92,-147.18 241.12,-138.27"/>
<polygon fill="#63b8ff" stroke="#63b8ff" points="244.35,-139.63 245.45,-129.09 238.02,-136.64 244.35,-139.63"/>
</a>
</g>
</g>
<!-- Node10 -->
<g id="Node000010" class="node">
<title>Node10</title>
<g id="a_Node000010"><a xlink:title=" ">
<polygon fill="#e0e0e0" stroke="#999999" points="250.5,-19 188.5,-19 188.5,0 250.5,0 250.5,-19"/>
<text text-anchor="middle" x="219.5" y="-7" font-family="Helvetica,sans-Serif" font-size="10.00">stdbool.h</text>
</a>
</g>
</g>
<!-- Node7&#45;&gt;Node10 -->
<g id="edge15_Node000007_Node000010" class="edge">
<title>Node7&#45;&gt;Node10</title>
<g id="a_edge15_Node000007_Node000010"><a xlink:title=" ">
<path fill="none" stroke="#63b8ff" d="M209.07,-164.8C197.15,-157.11 181.54,-144.69 174.5,-129 158.52,-93.39 186.28,-50.25 204.84,-27.1"/>
<polygon fill="#63b8ff" stroke="#63b8ff" points="207.66,-29.18 211.4,-19.27 202.3,-24.69 207.66,-29.18"/>
</a>
</g>
</g>
<!-- Node8&#45;&gt;Node9 -->
<g id="edge8_Node000008_Node000009" class="edge">
<title>Node8&#45;&gt;Node9</title>
<g id="a_edge8_Node000008_Node000009"><a xlink:title=" ">
<path fill="none" stroke="#63b8ff" d="M261.07,-109.98C271.92,-102 288.38,-89.88 301.38,-80.31"/>
<polygon fill="#63b8ff" stroke="#63b8ff" points="303.74,-82.92 309.72,-74.17 299.59,-77.28 303.74,-82.92"/>
</a>
</g>
</g>
<!-- Node8&#45;&gt;Node10 -->
<g id="edge12_Node000008_Node000010" class="edge">
<title>Node8&#45;&gt;Node10</title>
<g id="a_edge12_Node000008_Node000010"><a xlink:title=" ">
<path fill="none" stroke="#63b8ff" d="M247.04,-109.66C242.16,-92.09 231.15,-52.45 224.63,-28.95"/>
<polygon fill="#63b8ff" stroke="#63b8ff" points="227.95,-27.86 221.91,-19.16 221.21,-29.73 227.95,-27.86"/>
</a>
</g>
</g>
<!-- Node11 -->
<g id="Node000011" class="node">
<title>Node11</title>
<g id="a_Node000011"><a xlink:title=" ">
<polygon fill="#e0e0e0" stroke="#999999" points="349.5,-19 293.5,-19 293.5,0 349.5,0 349.5,-19"/>
<text text-anchor="middle" x="321.5" y="-7" font-family="Helvetica,sans-Serif" font-size="10.00">stddef.h</text>
</a>
</g>
</g>
<!-- Node8&#45;&gt;Node11 -->
<g id="edge13_Node000008_Node000011" class="edge">
<title>Node8&#45;&gt;Node11</title>
<g id="a_edge13_Node000008_Node000011"><a xlink:title=" ">
<path fill="none" stroke="#63b8ff" d="M252.02,-109.75C255.96,-96.99 264.39,-72.84 276.5,-55 283.87,-44.14 294.16,-33.73 303.04,-25.71"/>
<polygon fill="#63b8ff" stroke="#63b8ff" points="305.42,-28.28 310.67,-19.07 300.83,-22.99 305.42,-28.28"/>
</a>
</g>
</g>
<!-- Node9&#45;&gt;Node4 -->
<g id="edge11_Node000009_Node000004" class="edge">
<title>Node9&#45;&gt;Node4</title>
<g id="a_edge11_Node000009_Node000004"><a xlink:title=" ">
<path fill="none" stroke="#63b8ff" d="M341.1,-54.98C360.82,-46.42 391.45,-33.11 414.08,-23.28"/>
<polygon fill="#63b8ff" stroke="#63b8ff" points="415.76,-26.37 423.54,-19.17 412.98,-19.94 415.76,-26.37"/>
</a>
</g>
</g>
<!-- Node9&#45;&gt;Node10 -->
<g id="edge9_Node000009_Node000010" class="edge">
<title>Node9&#45;&gt;Node10</title>
<g id="a_edge9_Node000009_Node000010"><a xlink:title=" ">
<path fill="none" stroke="#63b8ff" d="M305.11,-54.98C288.93,-46.57 263.93,-33.59 245.12,-23.81"/>
<polygon fill="#63b8ff" stroke="#63b8ff" points="246.67,-20.68 236.19,-19.17 243.45,-26.89 246.67,-20.68"/>
</a>
</g>
</g>
<!-- Node9&#45;&gt;Node11 -->
<g id="edge10_Node000009_Node000011" class="edge">
<title>Node9&#45;&gt;Node11</title>
<g id="a_edge10_Node000009_Node000011"><a xlink:title=" ">
<path fill="none" stroke="#63b8ff" d="M321.5,-54.75C321.5,-47.8 321.5,-37.85 321.5,-29.13"/>
<polygon fill="#63b8ff" stroke="#63b8ff" points="325,-29.09 321.5,-19.09 318,-29.09 325,-29.09"/>
</a>
</g>
</g>
<!-- Node12&#45;&gt;Node8 -->
<g id="edge18_Node000012_Node000008" class="edge">
<title>Node12&#45;&gt;Node8</title>
<g id="a_edge18_Node000012_Node000008"><a xlink:title=" ">
<path fill="none" stroke="#63b8ff" d="M388.83,-164.98C360.96,-156.09 317.05,-142.07 285.98,-132.15"/>
<polygon fill="#63b8ff" stroke="#63b8ff" points="286.97,-128.79 276.38,-129.08 284.84,-135.46 286.97,-128.79"/>
</a>
</g>
</g>
<!-- Node12&#45;&gt;Node11 -->
<g id="edge19_Node000012_Node000011" class="edge">
<title>Node12&#45;&gt;Node11</title>
<g id="a_edge19_Node000012_Node000011"><a xlink:title=" ">
<path fill="none" stroke="#63b8ff" d="M413.11,-164.91C407.21,-144.6 390.58,-92.49 365.5,-55 358.36,-44.32 348.43,-34.02 339.81,-26.02"/>
<polygon fill="#63b8ff" stroke="#63b8ff" points="341.87,-23.17 332.08,-19.12 337.21,-28.39 341.87,-23.17"/>
</a>
</g>
</g>
</g>
</svg>
