<?xml version="1.0" encoding="UTF-8" standalone="no"?>
<!DOCTYPE svg PUBLIC "-//W3C//DTD SVG 1.1//EN"
 "http://www.w3.org/Graphics/SVG/1.1/DTD/svg11.dtd">
<!-- Generated by graphviz version 2.43.0 (0)
 -->
<!-- Title: src/arch/x64/abi_x64_emitters.h Pages: 1 -->
<svg width="537pt" height="313pt"
 viewBox="0.00 0.00 537.00 313.00" xmlns="http://www.w3.org/2000/svg" xmlns:xlink="http://www.w3.org/1999/xlink">
<g id="graph0" class="graph" transform="scale(1 1) rotate(0) translate(4 309)">
<title>src/arch/x64/abi_x64_emitters.h</title>
<!-- Node1 -->
<g id="Node000001" class="node">
<title>Node1</title>
<g id="a_Node000001"><a xlink:title="Declares internal helper functions for emitting x86&#45;64 machine code.">
<polygon fill="#999999" stroke="#666666" points="261,-305 144,-305 144,-275 261,-275 261,-305"/>
<text text-anchor="start" x="152" y="-293" font-family="Helvetica,sans-Serif" font-size="10.00">src/arch/x64/abi_x64</text>
<text text-anchor="middle" x="202.5" y="-282" font-family="Helvetica,sans-Serif" font-size="10.00">_emitters.h</text>
</a>
</g>
</g>
<!-- Node2 -->
<g id="Node000002" class="node">
<title>Node2</title>
<g id="a_Node000002"><a xlink:href="abi__x64__common_8h.html" target="_top" xlink:title="Common register definitions for the x86&#45;64 architecture.">
<polygon fill="white" stroke="#666666" points="157,-184 0,-184 0,-165 157,-165 157,-184"/>
<text text-anchor="middle" x="78.5" y="-172" font-family="Helvetica,sans-Serif" font-size="10.00">arch/x64/abi_x64_common.h</text>
</a>
</g>
</g>
<!-- Node1&#45;&gt;Node2 -->
<g id="edge1_Node000001_Node000002" class="edge">
<title>Node1&#45;&gt;Node2</title>
<g id="a_edge1_Node000001_Node000002"><a xlink:title=" ">
<path fill="none" stroke="#63b8ff" d="M187.05,-274.85C163.71,-253.5 119.66,-213.17 95.47,-191.03"/>
<polygon fill="#63b8ff" stroke="#63b8ff" points="97.82,-188.44 88.08,-184.27 93.1,-193.6 97.82,-188.44"/>
</a>
</g>
</g>
<!-- Node4 -->
<g id="Node000004" class="node">
<title>Node4</title>
<g id="a_Node000004"><a xlink:href="infix__internals_8h.html" target="_top" xlink:title="Internal data structures, function prototypes, and constants.">
<polygon fill="white" stroke="#666666" points="325.5,-239 185.5,-239 185.5,-220 325.5,-220 325.5,-239"/>
<text text-anchor="middle" x="255.5" y="-227" font-family="Helvetica,sans-Serif" font-size="10.00">common/infix_internals.h</text>
</a>
</g>
</g>
<!-- Node1&#45;&gt;Node4 -->
<g id="edge3_Node000001_Node000004" class="edge">
<title>Node1&#45;&gt;Node4</title>
<g id="a_edge3_Node000001_Node000004"><a xlink:title=" ">
<path fill="none" stroke="#63b8ff" d="M215.33,-274.84C223.02,-266.35 232.83,-255.52 240.83,-246.69"/>
<polygon fill="#63b8ff" stroke="#63b8ff" points="243.44,-249.03 247.56,-239.27 238.25,-244.33 243.44,-249.03"/>
</a>
</g>
</g>
<!-- Node3 -->
<g id="Node000003" class="node">
<title>Node3</title>
<g id="a_Node000003"><a xlink:title=" ">
<polygon fill="#e0e0e0" stroke="#999999" points="167,-19 114,-19 114,0 167,0 167,-19"/>
<text text-anchor="middle" x="140.5" y="-7" font-family="Helvetica,sans-Serif" font-size="10.00">stdint.h</text>
</a>
</g>
</g>
<!-- Node2&#45;&gt;Node3 -->
<g id="edge2_Node000002_Node000003" class="edge">
<title>Node2&#45;&gt;Node3</title>
<g id="a_edge2_Node000002_Node000003"><a xlink:title=" ">
<path fill="none" stroke="#63b8ff" d="M81.83,-164.74C91.59,-139.09 120.23,-63.78 133.55,-28.78"/>
<polygon fill="#63b8ff" stroke="#63b8ff" points="136.87,-29.9 137.15,-19.31 130.32,-27.41 136.87,-29.9"/>
</a>
</g>
</g>
<!-- Node5 -->
<g id="Node000005" class="node">
<title>Node5</title>
<g id="a_Node000005"><a xlink:href="infix__config_8h.html" target="_top" xlink:title="Platform, architecture, and ABI detection macros.">
<polygon fill="white" stroke="#666666" points="529,-129 402,-129 402,-110 529,-110 529,-129"/>
<text text-anchor="middle" x="465.5" y="-117" font-family="Helvetica,sans-Serif" font-size="10.00">common/infix_config.h</text>
</a>
</g>
</g>
<!-- Node4&#45;&gt;Node5 -->
<g id="edge4_Node000004_Node000005" class="edge">
<title>Node4&#45;&gt;Node5</title>
<g id="a_edge4_Node000004_Node000005"><a xlink:title=" ">
<path fill="none" stroke="#63b8ff" d="M295.63,-219.99C323.91,-212.94 362.03,-201.24 392.5,-184 414.99,-171.27 436.8,-150.92 450.64,-136.69"/>
<polygon fill="#63b8ff" stroke="#63b8ff" points="453.47,-138.8 457.81,-129.13 448.39,-133.98 453.47,-138.8"/>
</a>
</g>
</g>
<!-- Node6 -->
<g id="Node000006" class="node">
<title>Node6</title>
<g id="a_Node000006"><a xlink:href="platform_8h.html" target="_top" xlink:title="Declares internal, runtime CPU/OS feature detection functions.">
<polygon fill="white" stroke="#666666" points="383,-184 270,-184 270,-165 383,-165 383,-184"/>
<text text-anchor="middle" x="326.5" y="-172" font-family="Helvetica,sans-Serif" font-size="10.00">common/platform.h</text>
</a>
</g>
</g>
<!-- Node4&#45;&gt;Node6 -->
<g id="edge5_Node000004_Node000006" class="edge">
<title>Node4&#45;&gt;Node6</title>
<g id="a_edge5_Node000004_Node000006"><a xlink:title=" ">
<path fill="none" stroke="#63b8ff" d="M266.91,-219.98C277.61,-212 293.84,-199.88 306.66,-190.31"/>
<polygon fill="#63b8ff" stroke="#63b8ff" points="308.97,-192.96 314.89,-184.17 304.78,-187.35 308.97,-192.96"/>
</a>
</g>
</g>
<!-- Node8 -->
<g id="Node000008" class="node">
<title>Node8</title>
<g id="a_Node000008"><a xlink:href="infix_8h.html" target="_top" xlink:title="The public interface for the infix FFI library.">
<polygon fill="white" stroke="#666666" points="242,-74 171,-74 171,-55 242,-55 242,-74"/>
<text text-anchor="middle" x="206.5" y="-62" font-family="Helvetica,sans-Serif" font-size="10.00">infix/infix.h</text>
</a>
</g>
</g>
<!-- Node4&#45;&gt;Node8 -->
<g id="edge15_Node000004_Node000008" class="edge">
<title>Node4&#45;&gt;Node8</title>
<g id="a_edge15_Node000004_Node000008"><a xlink:title=" ">
<path fill="none" stroke="#63b8ff" d="M249.17,-219.75C237.56,-203.08 213.24,-165.23 204.5,-129 200.94,-114.24 201.78,-96.99 203.33,-84.2"/>
<polygon fill="#63b8ff" stroke="#63b8ff" points="206.8,-84.68 204.77,-74.28 199.87,-83.67 206.8,-84.68"/>
</a>
</g>
</g>
<!-- Node6&#45;&gt;Node5 -->
<g id="edge13_Node000006_Node000005" class="edge">
<title>Node6&#45;&gt;Node5</title>
<g id="a_edge13_Node000006_Node000005"><a xlink:title=" ">
<path fill="none" stroke="#63b8ff" d="M348.83,-164.98C371.7,-156.27 407.46,-142.63 433.36,-132.75"/>
<polygon fill="#63b8ff" stroke="#63b8ff" points="434.66,-136 442.76,-129.17 432.17,-129.46 434.66,-136"/>
</a>
</g>
</g>
<!-- Node7 -->
<g id="Node000007" class="node">
<title>Node7</title>
<g id="a_Node000007"><a xlink:href="compat__c23_8h.html" target="_top" xlink:title="Provides forward compatibility macros for C23 features.">
<polygon fill="white" stroke="#666666" points="345,-129 214,-129 214,-110 345,-110 345,-129"/>
<text text-anchor="middle" x="279.5" y="-117" font-family="Helvetica,sans-Serif" font-size="10.00">common/compat_c23.h</text>
</a>
</g>
</g>
<!-- Node6&#45;&gt;Node7 -->
<g id="edge6_Node000006_Node000007" class="edge">
<title>Node6&#45;&gt;Node7</title>
<g id="a_edge6_Node000006_Node000007"><a xlink:title=" ">
<path fill="none" stroke="#63b8ff" d="M318.74,-164.75C312.03,-157.18 302.16,-146.05 293.99,-136.84"/>
<polygon fill="#63b8ff" stroke="#63b8ff" points="296.37,-134.25 287.12,-129.09 291.13,-138.89 296.37,-134.25"/>
</a>
</g>
</g>
<!-- Node9 -->
<g id="Node000009" class="node">
<title>Node9</title>
<g id="a_Node000009"><a xlink:title=" ">
<polygon fill="#e0e0e0" stroke="#999999" points="339.5,-19 277.5,-19 277.5,0 339.5,0 339.5,-19"/>
<text text-anchor="middle" x="308.5" y="-7" font-family="Helvetica,sans-Serif" font-size="10.00">stdbool.h</text>
</a>
</g>
</g>
<!-- Node6&#45;&gt;Node9 -->
<g id="edge14_Node000006_Node000009" class="edge">
<title>Node6&#45;&gt;Node9</title>
<g id="a_edge14_Node000006_Node000009"><a xlink:title=" ">
<path fill="none" stroke="#63b8ff" d="M334.17,-164.7C341.02,-156.21 350.55,-142.68 354.5,-129 356.84,-120.89 356.31,-118.25 354.5,-110 347.78,-79.45 330.73,-47.12 319.38,-27.88"/>
<polygon fill="#63b8ff" stroke="#63b8ff" points="322.23,-25.83 314.05,-19.09 316.25,-29.46 322.23,-25.83"/>
</a>
</g>
</g>
<!-- Node7&#45;&gt;Node8 -->
<g id="edge7_Node000007_Node000008" class="edge">
<title>Node7&#45;&gt;Node8</title>
<g id="a_edge7_Node000007_Node000008"><a xlink:title=" ">
<path fill="none" stroke="#63b8ff" d="M267.77,-109.98C256.77,-102 240.08,-89.88 226.9,-80.31"/>
<polygon fill="#63b8ff" stroke="#63b8ff" points="228.59,-77.21 218.44,-74.17 224.48,-82.88 228.59,-77.21"/>
</a>
</g>
</g>
<!-- Node7&#45;&gt;Node9 -->
<g id="edge11_Node000007_Node000009" class="edge">
<title>Node7&#45;&gt;Node9</title>
<g id="a_edge11_Node000007_Node000009"><a xlink:title=" ">
<path fill="none" stroke="#63b8ff" d="M281.87,-109.66C286.59,-92.09 297.24,-52.45 303.54,-28.95"/>
<polygon fill="#63b8ff" stroke="#63b8ff" points="306.96,-29.72 306.18,-19.16 300.2,-27.91 306.96,-29.72"/>
</a>
</g>
</g>
<!-- Node10 -->
<g id="Node000010" class="node">
<title>Node10</title>
<g id="a_Node000010"><a xlink:title=" ">
<polygon fill="#e0e0e0" stroke="#999999" points="253.5,-19 197.5,-19 197.5,0 253.5,0 253.5,-19"/>
<text text-anchor="middle" x="225.5" y="-7" font-family="Helvetica,sans-Serif" font-size="10.00">stddef.h</text>
</a>
</g>
</g>
<!-- Node7&#45;&gt;Node10 -->
<g id="edge12_Node000007_Node000010" class="edge">
<title>Node7&#45;&gt;Node10</title>
<g id="a_edge12_Node000007_Node000010"><a xlink:title=" ">
<path fill="none" stroke="#63b8ff" d="M275.79,-109.76C270.48,-97.42 260.27,-74.23 250.5,-55 245.93,-46.01 240.49,-36.23 235.85,-28.13"/>
<polygon fill="#63b8ff" stroke="#63b8ff" points="238.74,-26.14 230.7,-19.25 232.69,-29.65 238.74,-26.14"/>
</a>
</g>
</g>
<!-- Node8&#45;&gt;Node3 -->
<g id="edge10_Node000008_Node000003" class="edge">
<title>Node8&#45;&gt;Node3</title>
<g id="a_edge10_Node000008_Node000003"><a xlink:title=" ">
<path fill="none" stroke="#63b8ff" d="M195.9,-54.98C186.04,-47.07 171.15,-35.11 159.28,-25.58"/>
<polygon fill="#63b8ff" stroke="#63b8ff" points="161.29,-22.7 151.3,-19.17 156.9,-28.16 161.29,-22.7"/>
</a>
</g>
</g>
<!-- Node8&#45;&gt;Node9 -->
<g id="edge8_Node000008_Node000009" class="edge">
<title>Node8&#45;&gt;Node9</title>
<g id="a_edge8_Node000008_Node000009"><a xlink:title=" ">
<path fill="none" stroke="#63b8ff" d="M222.89,-54.98C239.07,-46.57 264.07,-33.59 282.88,-23.81"/>
<polygon fill="#63b8ff" stroke="#63b8ff" points="284.55,-26.89 291.81,-19.17 281.33,-20.68 284.55,-26.89"/>
</a>
</g>
</g>
<!-- Node8&#45;&gt;Node10 -->
<g id="edge9_Node000008_Node000010" class="edge">
<title>Node8&#45;&gt;Node10</title>
<g id="a_edge9_Node000008_Node000010"><a xlink:title=" ">
<path fill="none" stroke="#63b8ff" d="M209.64,-54.75C212.18,-47.65 215.86,-37.4 219.03,-28.56"/>
<polygon fill="#63b8ff" stroke="#63b8ff" points="222.34,-29.68 222.42,-19.09 215.75,-27.32 222.34,-29.68"/>
</a>
</g>
</g>
</g>
</svg>
