<?xml version="1.0" encoding="UTF-8" standalone="no"?>
<!DOCTYPE svg PUBLIC "-//W3C//DTD SVG 1.1//EN"
 "http://www.w3.org/Graphics/SVG/1.1/DTD/svg11.dtd">
<!-- Generated by graphviz version 2.43.0 (0)
 -->
<!-- Title: src/arch/x64/abi_win_x64.c Pages: 1 -->
<svg width="643pt" height="368pt"
 viewBox="0.00 0.00 642.50 368.00" xmlns="http://www.w3.org/2000/svg" xmlns:xlink="http://www.w3.org/1999/xlink">
<g id="graph0" class="graph" transform="scale(1 1) rotate(0) translate(4 364)">
<title>src/arch/x64/abi_win_x64.c</title>
<!-- Node1 -->
<g id="Node000001" class="node">
<title>Node1</title>
<g id="a_Node000001"><a xlink:title="Implements the FFI logic for the Windows x64 calling convention.">
<polygon fill="#999999" stroke="#666666" points="402.5,-360 286.5,-360 286.5,-330 402.5,-330 402.5,-360"/>
<text text-anchor="start" x="294.5" y="-348" font-family="Helvetica,sans-Serif" font-size="10.00">src/arch/x64/abi_win</text>
<text text-anchor="middle" x="344.5" y="-337" font-family="Helvetica,sans-Serif" font-size="10.00">_x64.c</text>
</a>
</g>
</g>
<!-- Node2 -->
<g id="Node000002" class="node">
<title>Node2</title>
<g id="a_Node000002"><a xlink:href="abi__x64__common_8h.html" target="_top" xlink:title="Common register definitions for the x86&#45;64 architecture.">
<polygon fill="white" stroke="#666666" points="157,-239 0,-239 0,-220 157,-220 157,-239"/>
<text text-anchor="middle" x="78.5" y="-227" font-family="Helvetica,sans-Serif" font-size="10.00">arch/x64/abi_x64_common.h</text>
</a>
</g>
</g>
<!-- Node1&#45;&gt;Node2 -->
<g id="edge1_Node000001_Node000002" class="edge">
<title>Node1&#45;&gt;Node2</title>
<g id="a_edge1_Node000001_Node000002"><a xlink:title=" ">
<path fill="none" stroke="#63b8ff" d="M286.35,-332.08C251.97,-323.85 208.13,-311.25 171.5,-294 143.53,-280.83 114.63,-259.7 96.62,-245.47"/>
<polygon fill="#63b8ff" stroke="#63b8ff" points="98.69,-242.65 88.71,-239.11 94.31,-248.1 98.69,-242.65"/>
</a>
</g>
</g>
<!-- Node4 -->
<g id="Node000004" class="node">
<title>Node4</title>
<g id="a_Node000004"><a xlink:href="abi__x64__emitters_8h.html" target="_top" xlink:title="Declares internal helper functions for emitting x86&#45;64 machine code.">
<polygon fill="white" stroke="#666666" points="369,-294 214,-294 214,-275 369,-275 369,-294"/>
<text text-anchor="middle" x="291.5" y="-282" font-family="Helvetica,sans-Serif" font-size="10.00">arch/x64/abi_x64_emitters.h</text>
</a>
</g>
</g>
<!-- Node1&#45;&gt;Node4 -->
<g id="edge3_Node000001_Node000004" class="edge">
<title>Node1&#45;&gt;Node4</title>
<g id="a_edge3_Node000001_Node000004"><a xlink:title=" ">
<path fill="none" stroke="#63b8ff" d="M331.67,-329.84C323.98,-321.35 314.17,-310.52 306.17,-301.69"/>
<polygon fill="#63b8ff" stroke="#63b8ff" points="308.75,-299.33 299.44,-294.27 303.56,-304.03 308.75,-299.33"/>
</a>
</g>
</g>
<!-- Node5 -->
<g id="Node000005" class="node">
<title>Node5</title>
<g id="a_Node000005"><a xlink:href="infix__internals_8h.html" target="_top" xlink:title="Internal data structures, function prototypes, and constants.">
<polygon fill="white" stroke="#666666" points="412.5,-239 272.5,-239 272.5,-220 412.5,-220 412.5,-239"/>
<text text-anchor="middle" x="342.5" y="-227" font-family="Helvetica,sans-Serif" font-size="10.00">common/infix_internals.h</text>
</a>
</g>
</g>
<!-- Node1&#45;&gt;Node5 -->
<g id="edge20_Node000001_Node000005" class="edge">
<title>Node1&#45;&gt;Node5</title>
<g id="a_edge20_Node000001_Node000005"><a xlink:title=" ">
<path fill="none" stroke="#63b8ff" d="M358.55,-329.86C370.36,-316.19 384.32,-294.7 377.5,-275 373.83,-264.38 366.46,-254.38 359.42,-246.55"/>
<polygon fill="#63b8ff" stroke="#63b8ff" points="361.84,-244.02 352.38,-239.25 356.8,-248.88 361.84,-244.02"/>
</a>
</g>
</g>
<!-- Node10 -->
<g id="Node000010" class="node">
<title>Node10</title>
<g id="a_Node000010"><a xlink:title=" ">
<polygon fill="#e0e0e0" stroke="#999999" points="286.5,-19 224.5,-19 224.5,0 286.5,0 286.5,-19"/>
<text text-anchor="middle" x="255.5" y="-7" font-family="Helvetica,sans-Serif" font-size="10.00">stdbool.h</text>
</a>
</g>
</g>
<!-- Node1&#45;&gt;Node10 -->
<g id="edge24_Node000001_Node000010" class="edge">
<title>Node1&#45;&gt;Node10</title>
<g id="a_edge24_Node000001_Node000010"><a xlink:title=" ">
<path fill="none" stroke="#63b8ff" d="M286.35,-335.76C258.18,-328.96 225.91,-316.56 204.5,-294 184.22,-272.63 185.5,-259.96 185.5,-230.5 185.5,-230.5 185.5,-230.5 185.5,-118.5 185.5,-80.43 216.51,-45.19 237.25,-25.89"/>
<polygon fill="#63b8ff" stroke="#63b8ff" points="239.75,-28.34 244.87,-19.07 235.08,-23.13 239.75,-28.34"/>
</a>
</g>
</g>
<!-- Node13 -->
<g id="Node000013" class="node">
<title>Node13</title>
<g id="a_Node000013"><a xlink:href="utility_8h.html" target="_top" xlink:title="A header for conditionally compiled debugging utilities.">
<polygon fill="white" stroke="#666666" points="634.5,-184 536.5,-184 536.5,-165 634.5,-165 634.5,-184"/>
<text text-anchor="middle" x="585.5" y="-172" font-family="Helvetica,sans-Serif" font-size="10.00">common/utility.h</text>
</a>
</g>
</g>
<!-- Node1&#45;&gt;Node13 -->
<g id="edge21_Node000001_Node000013" class="edge">
<title>Node1&#45;&gt;Node13</title>
<g id="a_edge21_Node000001_Node000013"><a xlink:title=" ">
<path fill="none" stroke="#63b8ff" d="M364.63,-329.92C409.92,-298.26 519.41,-221.71 565.02,-189.82"/>
<polygon fill="#63b8ff" stroke="#63b8ff" points="567.06,-192.66 573.25,-184.06 563.05,-186.92 567.06,-192.66"/>
</a>
</g>
</g>
<!-- Node14 -->
<g id="Node000014" class="node">
<title>Node14</title>
<g id="a_Node000014"><a xlink:title=" ">
<polygon fill="#e0e0e0" stroke="#999999" points="522,-294 469,-294 469,-275 522,-275 522,-294"/>
<text text-anchor="middle" x="495.5" y="-282" font-family="Helvetica,sans-Serif" font-size="10.00">stdlib.h</text>
</a>
</g>
</g>
<!-- Node1&#45;&gt;Node14 -->
<g id="edge25_Node000001_Node000014" class="edge">
<title>Node1&#45;&gt;Node14</title>
<g id="a_edge25_Node000001_Node000014"><a xlink:title=" ">
<path fill="none" stroke="#63b8ff" d="M380.67,-329.99C405.97,-320.18 439.46,-307.21 463.74,-297.81"/>
<polygon fill="#63b8ff" stroke="#63b8ff" points="465.14,-301.02 473.2,-294.14 462.61,-294.49 465.14,-301.02"/>
</a>
</g>
</g>
<!-- Node3 -->
<g id="Node000003" class="node">
<title>Node3</title>
<g id="a_Node000003"><a xlink:title=" ">
<polygon fill="#e0e0e0" stroke="#999999" points="190,-19 137,-19 137,0 190,0 190,-19"/>
<text text-anchor="middle" x="163.5" y="-7" font-family="Helvetica,sans-Serif" font-size="10.00">stdint.h</text>
</a>
</g>
</g>
<!-- Node2&#45;&gt;Node3 -->
<g id="edge2_Node000002_Node000003" class="edge">
<title>Node2&#45;&gt;Node3</title>
<g id="a_edge2_Node000002_Node000003"><a xlink:title=" ">
<path fill="none" stroke="#63b8ff" d="M81.83,-219.95C94.39,-187.74 139.04,-73.23 156.46,-28.55"/>
<polygon fill="#63b8ff" stroke="#63b8ff" points="159.73,-29.81 160.1,-19.22 153.2,-27.27 159.73,-29.81"/>
</a>
</g>
</g>
<!-- Node4&#45;&gt;Node2 -->
<g id="edge4_Node000004_Node000002" class="edge">
<title>Node4&#45;&gt;Node2</title>
<g id="a_edge4_Node000004_Node000002"><a xlink:title=" ">
<path fill="none" stroke="#63b8ff" d="M257.28,-274.98C220.74,-265.89 162.72,-251.46 122.74,-241.51"/>
<polygon fill="#63b8ff" stroke="#63b8ff" points="123.54,-238.1 112.99,-239.08 121.85,-244.89 123.54,-238.1"/>
</a>
</g>
</g>
<!-- Node4&#45;&gt;Node5 -->
<g id="edge5_Node000004_Node000005" class="edge">
<title>Node4&#45;&gt;Node5</title>
<g id="a_edge5_Node000004_Node000005"><a xlink:title=" ">
<path fill="none" stroke="#63b8ff" d="M299.92,-274.75C307.27,-267.11 318.13,-255.82 327.04,-246.56"/>
<polygon fill="#63b8ff" stroke="#63b8ff" points="329.82,-248.72 334.24,-239.09 324.78,-243.87 329.82,-248.72"/>
</a>
</g>
</g>
<!-- Node6 -->
<g id="Node000006" class="node">
<title>Node6</title>
<g id="a_Node000006"><a xlink:href="infix__config_8h.html" target="_top" xlink:title="Platform, architecture, and ABI detection macros.">
<polygon fill="white" stroke="#666666" points="545,-74 418,-74 418,-55 545,-55 545,-74"/>
<text text-anchor="middle" x="481.5" y="-62" font-family="Helvetica,sans-Serif" font-size="10.00">common/infix_config.h</text>
</a>
</g>
</g>
<!-- Node5&#45;&gt;Node6 -->
<g id="edge6_Node000005_Node000006" class="edge">
<title>Node5&#45;&gt;Node6</title>
<g id="a_edge6_Node000005_Node000006"><a xlink:title=" ">
<path fill="none" stroke="#63b8ff" d="M392.25,-219.96C430.13,-212.33 477.7,-199.9 489.5,-184 511.43,-154.44 498.89,-108.49 489.29,-83.38"/>
<polygon fill="#63b8ff" stroke="#63b8ff" points="492.48,-81.94 485.46,-74 486,-84.58 492.48,-81.94"/>
</a>
</g>
</g>
<!-- Node7 -->
<g id="Node000007" class="node">
<title>Node7</title>
<g id="a_Node000007"><a xlink:href="platform_8h.html" target="_top" xlink:title="Declares internal, runtime CPU/OS feature detection functions.">
<polygon fill="white" stroke="#666666" points="399,-184 286,-184 286,-165 399,-165 399,-184"/>
<text text-anchor="middle" x="342.5" y="-172" font-family="Helvetica,sans-Serif" font-size="10.00">common/platform.h</text>
</a>
</g>
</g>
<!-- Node5&#45;&gt;Node7 -->
<g id="edge7_Node000005_Node000007" class="edge">
<title>Node5&#45;&gt;Node7</title>
<g id="a_edge7_Node000005_Node000007"><a xlink:title=" ">
<path fill="none" stroke="#63b8ff" d="M342.5,-219.75C342.5,-212.8 342.5,-202.85 342.5,-194.13"/>
<polygon fill="#63b8ff" stroke="#63b8ff" points="346,-194.09 342.5,-184.09 339,-194.09 346,-194.09"/>
</a>
</g>
</g>
<!-- Node9 -->
<g id="Node000009" class="node">
<title>Node9</title>
<g id="a_Node000009"><a xlink:href="infix_8h.html" target="_top" xlink:title="The public interface for the infix FFI library.">
<polygon fill="white" stroke="#666666" points="323,-74 252,-74 252,-55 323,-55 323,-74"/>
<text text-anchor="middle" x="287.5" y="-62" font-family="Helvetica,sans-Serif" font-size="10.00">infix/infix.h</text>
</a>
</g>
</g>
<!-- Node5&#45;&gt;Node9 -->
<g id="edge18_Node000005_Node000009" class="edge">
<title>Node5&#45;&gt;Node9</title>
<g id="a_edge18_Node000005_Node000009"><a xlink:title=" ">
<path fill="none" stroke="#63b8ff" d="M319.72,-219.89C304.47,-212.79 285.58,-201.08 276.5,-184 259.43,-151.9 271.02,-107.94 279.94,-83.59"/>
<polygon fill="#63b8ff" stroke="#63b8ff" points="283.24,-84.76 283.62,-74.17 276.72,-82.21 283.24,-84.76"/>
</a>
</g>
</g>
<!-- Node12 -->
<g id="Node000012" class="node">
<title>Node12</title>
<g id="a_Node000012"><a xlink:title=" ">
<polygon fill="#e0e0e0" stroke="#999999" points="480,-184 417,-184 417,-165 480,-165 480,-184"/>
<text text-anchor="middle" x="448.5" y="-172" font-family="Helvetica,sans-Serif" font-size="10.00">pthread.h</text>
</a>
</g>
</g>
<!-- Node5&#45;&gt;Node12 -->
<g id="edge19_Node000005_Node000012" class="edge">
<title>Node5&#45;&gt;Node12</title>
<g id="a_edge19_Node000005_Node000012"><a xlink:title=" ">
<path fill="none" stroke="#63b8ff" d="M359.53,-219.98C376.43,-211.54 402.56,-198.47 422.14,-188.68"/>
<polygon fill="#63b8ff" stroke="#63b8ff" points="423.78,-191.77 431.16,-184.17 420.65,-185.51 423.78,-191.77"/>
</a>
</g>
</g>
<!-- Node7&#45;&gt;Node6 -->
<g id="edge16_Node000007_Node000006" class="edge">
<title>Node7&#45;&gt;Node6</title>
<g id="a_edge16_Node000007_Node000006"><a xlink:title=" ">
<path fill="none" stroke="#63b8ff" d="M368.96,-164.88C388.75,-157.52 415.71,-145.51 435.5,-129 450.81,-116.23 463.66,-97.29 471.85,-83.42"/>
<polygon fill="#63b8ff" stroke="#63b8ff" points="475.09,-84.8 476.96,-74.37 468.99,-81.36 475.09,-84.8"/>
</a>
</g>
</g>
<!-- Node8 -->
<g id="Node000008" class="node">
<title>Node8</title>
<g id="a_Node000008"><a xlink:href="compat__c23_8h.html" target="_top" xlink:title="Provides forward compatibility macros for C23 features.">
<polygon fill="white" stroke="#666666" points="427,-129 296,-129 296,-110 427,-110 427,-129"/>
<text text-anchor="middle" x="361.5" y="-117" font-family="Helvetica,sans-Serif" font-size="10.00">common/compat_c23.h</text>
</a>
</g>
</g>
<!-- Node7&#45;&gt;Node8 -->
<g id="edge8_Node000007_Node000008" class="edge">
<title>Node7&#45;&gt;Node8</title>
<g id="a_edge8_Node000007_Node000008"><a xlink:title=" ">
<path fill="none" stroke="#63b8ff" d="M345.64,-164.75C348.18,-157.65 351.86,-147.4 355.03,-138.56"/>
<polygon fill="#63b8ff" stroke="#63b8ff" points="358.34,-139.68 358.42,-129.09 351.75,-137.32 358.34,-139.68"/>
</a>
</g>
</g>
<!-- Node7&#45;&gt;Node10 -->
<g id="edge17_Node000007_Node000010" class="edge">
<title>Node7&#45;&gt;Node10</title>
<g id="a_edge17_Node000007_Node000010"><a xlink:title=" ">
<path fill="none" stroke="#63b8ff" d="M327.54,-164.89C303.54,-150.03 257.58,-116.99 242.5,-74 237.27,-59.09 241.69,-41.42 246.75,-28.52"/>
<polygon fill="#63b8ff" stroke="#63b8ff" points="249.97,-29.89 250.77,-19.33 243.55,-27.09 249.97,-29.89"/>
</a>
</g>
</g>
<!-- Node8&#45;&gt;Node6 -->
<g id="edge9_Node000008_Node000006" class="edge">
<title>Node8&#45;&gt;Node6</title>
<g id="a_edge9_Node000008_Node000006"><a xlink:title=" ">
<path fill="none" stroke="#63b8ff" d="M380.78,-109.98C400.17,-101.42 430.31,-88.11 452.57,-78.28"/>
<polygon fill="#63b8ff" stroke="#63b8ff" points="454.14,-81.41 461.87,-74.17 451.31,-75.01 454.14,-81.41"/>
</a>
</g>
</g>
<!-- Node8&#45;&gt;Node9 -->
<g id="edge10_Node000008_Node000009" class="edge">
<title>Node8&#45;&gt;Node9</title>
<g id="a_edge10_Node000008_Node000009"><a xlink:title=" ">
<path fill="none" stroke="#63b8ff" d="M349.61,-109.98C338.35,-101.92 321.21,-89.65 307.79,-80.03"/>
<polygon fill="#63b8ff" stroke="#63b8ff" points="309.77,-77.15 299.61,-74.17 305.7,-82.84 309.77,-77.15"/>
</a>
</g>
</g>
<!-- Node8&#45;&gt;Node10 -->
<g id="edge14_Node000008_Node000010" class="edge">
<title>Node8&#45;&gt;Node10</title>
<g id="a_edge14_Node000008_Node000010"><a xlink:title=" ">
<path fill="none" stroke="#63b8ff" d="M359.18,-109.75C355.32,-96.56 346.48,-71.37 331.5,-55 319.22,-41.58 301.94,-31.03 286.97,-23.57"/>
<polygon fill="#63b8ff" stroke="#63b8ff" points="288.07,-20.22 277.53,-19.12 285.08,-26.55 288.07,-20.22"/>
</a>
</g>
</g>
<!-- Node11 -->
<g id="Node000011" class="node">
<title>Node11</title>
<g id="a_Node000011"><a xlink:title=" ">
<polygon fill="#e0e0e0" stroke="#999999" points="417.5,-19 361.5,-19 361.5,0 417.5,0 417.5,-19"/>
<text text-anchor="middle" x="389.5" y="-7" font-family="Helvetica,sans-Serif" font-size="10.00">stddef.h</text>
</a>
</g>
</g>
<!-- Node8&#45;&gt;Node11 -->
<g id="edge15_Node000008_Node000011" class="edge">
<title>Node8&#45;&gt;Node11</title>
<g id="a_edge15_Node000008_Node000011"><a xlink:title=" ">
<path fill="none" stroke="#63b8ff" d="M363.79,-109.66C368.35,-92.09 378.62,-52.45 384.72,-28.95"/>
<polygon fill="#63b8ff" stroke="#63b8ff" points="388.13,-29.72 387.26,-19.16 381.36,-27.96 388.13,-29.72"/>
</a>
</g>
</g>
<!-- Node9&#45;&gt;Node3 -->
<g id="edge13_Node000009_Node000003" class="edge">
<title>Node9&#45;&gt;Node3</title>
<g id="a_edge13_Node000009_Node000003"><a xlink:title=" ">
<path fill="none" stroke="#63b8ff" d="M267.58,-54.98C247.45,-46.38 216.12,-32.99 193.09,-23.15"/>
<polygon fill="#63b8ff" stroke="#63b8ff" points="194.36,-19.88 183.79,-19.17 191.6,-26.32 194.36,-19.88"/>
</a>
</g>
</g>
<!-- Node9&#45;&gt;Node10 -->
<g id="edge11_Node000009_Node000010" class="edge">
<title>Node9&#45;&gt;Node10</title>
<g id="a_edge11_Node000009_Node000010"><a xlink:title=" ">
<path fill="none" stroke="#63b8ff" d="M282.22,-54.75C277.79,-47.42 271.34,-36.73 265.88,-27.7"/>
<polygon fill="#63b8ff" stroke="#63b8ff" points="268.85,-25.84 260.69,-19.09 262.86,-29.46 268.85,-25.84"/>
</a>
</g>
</g>
<!-- Node9&#45;&gt;Node11 -->
<g id="edge12_Node000009_Node000011" class="edge">
<title>Node9&#45;&gt;Node11</title>
<g id="a_edge12_Node000009_Node000011"><a xlink:title=" ">
<path fill="none" stroke="#63b8ff" d="M303.89,-54.98C320.07,-46.57 345.07,-33.59 363.88,-23.81"/>
<polygon fill="#63b8ff" stroke="#63b8ff" points="365.55,-26.89 372.81,-19.17 362.33,-20.68 365.55,-26.89"/>
</a>
</g>
</g>
<!-- Node13&#45;&gt;Node8 -->
<g id="edge22_Node000013_Node000008" class="edge">
<title>Node13&#45;&gt;Node8</title>
<g id="a_edge22_Node000013_Node000008"><a xlink:title=" ">
<path fill="none" stroke="#63b8ff" d="M549.51,-164.98C511.01,-155.87 449.81,-141.4 407.76,-131.45"/>
<polygon fill="#63b8ff" stroke="#63b8ff" points="408.31,-127.98 397.77,-129.08 406.7,-134.79 408.31,-127.98"/>
</a>
</g>
</g>
<!-- Node13&#45;&gt;Node11 -->
<g id="edge23_Node000013_Node000011" class="edge">
<title>Node13&#45;&gt;Node11</title>
<g id="a_edge23_Node000013_Node000011"><a xlink:title=" ">
<path fill="none" stroke="#63b8ff" d="M585.96,-164.95C586.61,-143.32 585.21,-85.94 554.5,-55 521.07,-21.31 464.99,-12.35 427.63,-10.37"/>
<polygon fill="#63b8ff" stroke="#63b8ff" points="427.75,-6.87 417.62,-9.98 427.47,-13.86 427.75,-6.87"/>
</a>
</g>
</g>
</g>
</svg>
