<?xml version="1.0" encoding="UTF-8" standalone="no"?>
<!DOCTYPE svg PUBLIC "-//W3C//DTD SVG 1.1//EN"
 "http://www.w3.org/Graphics/SVG/1.1/DTD/svg11.dtd">
<!-- Generated by graphviz version 2.43.0 (0)
 -->
<!-- Title: src/arch/aarch64/abi_arm64_emitters.h Pages: 1 -->
<svg width="514pt" height="324pt"
 viewBox="0.00 0.00 513.50 324.00" xmlns="http://www.w3.org/2000/svg" xmlns:xlink="http://www.w3.org/1999/xlink">
<g id="graph0" class="graph" transform="scale(1 1) rotate(0) translate(4 320)">
<title>src/arch/aarch64/abi_arm64_emitters.h</title>
<!-- Node1 -->
<g id="Node000001" class="node">
<title>Node1</title>
<g id="a_Node000001"><a xlink:title="Declares internal helper functions for emitting AArch64 machine code.">
<polygon fill="#999999" stroke="#666666" points="242.5,-316 127.5,-316 127.5,-286 242.5,-286 242.5,-316"/>
<text text-anchor="start" x="135.5" y="-304" font-family="Helvetica,sans-Serif" font-size="10.00">src/arch/aarch64/abi</text>
<text text-anchor="middle" x="185" y="-293" font-family="Helvetica,sans-Serif" font-size="10.00">_arm64_emitters.h</text>
</a>
</g>
</g>
<!-- Node2 -->
<g id="Node000002" class="node">
<title>Node2</title>
<g id="a_Node000002"><a xlink:href="abi__arm64__common_8h.html" target="_top" xlink:title="Common register definitions and instruction encodings for the AArch64 (ARM64) architecture.">
<polygon fill="white" stroke="#666666" points="134,-195 0,-195 0,-165 134,-165 134,-195"/>
<text text-anchor="start" x="8" y="-183" font-family="Helvetica,sans-Serif" font-size="10.00">arch/aarch64/abi_arm64</text>
<text text-anchor="middle" x="67" y="-172" font-family="Helvetica,sans-Serif" font-size="10.00">_common.h</text>
</a>
</g>
</g>
<!-- Node1&#45;&gt;Node2 -->
<g id="edge1_Node000001_Node000002" class="edge">
<title>Node1&#45;&gt;Node2</title>
<g id="a_edge1_Node000001_Node000002"><a xlink:title=" ">
<path fill="none" stroke="#63b8ff" d="M171,-285.88C150.51,-265.22 112.18,-226.57 88.22,-202.4"/>
<polygon fill="#63b8ff" stroke="#63b8ff" points="90.51,-199.74 80.98,-195.1 85.54,-204.67 90.51,-199.74"/>
</a>
</g>
</g>
<!-- Node4 -->
<g id="Node000004" class="node">
<title>Node4</title>
<g id="a_Node000004"><a xlink:href="infix__internals_8h.html" target="_top" xlink:title="Internal data structures, function prototypes, and constants.">
<polygon fill="white" stroke="#666666" points="338,-250 198,-250 198,-231 338,-231 338,-250"/>
<text text-anchor="middle" x="268" y="-238" font-family="Helvetica,sans-Serif" font-size="10.00">common/infix_internals.h</text>
</a>
</g>
</g>
<!-- Node1&#45;&gt;Node4 -->
<g id="edge3_Node000001_Node000004" class="edge">
<title>Node1&#45;&gt;Node4</title>
<g id="a_edge3_Node000001_Node000004"><a xlink:title=" ">
<path fill="none" stroke="#63b8ff" d="M205.09,-285.84C217.88,-276.83 234.4,-265.18 247.3,-256.09"/>
<polygon fill="#63b8ff" stroke="#63b8ff" points="249.41,-258.89 255.56,-250.27 245.37,-253.17 249.41,-258.89"/>
</a>
</g>
</g>
<!-- Node3 -->
<g id="Node000003" class="node">
<title>Node3</title>
<g id="a_Node000003"><a xlink:title=" ">
<polygon fill="#e0e0e0" stroke="#999999" points="143.5,-19 90.5,-19 90.5,0 143.5,0 143.5,-19"/>
<text text-anchor="middle" x="117" y="-7" font-family="Helvetica,sans-Serif" font-size="10.00">stdint.h</text>
</a>
</g>
</g>
<!-- Node2&#45;&gt;Node3 -->
<g id="edge2_Node000002_Node000003" class="edge">
<title>Node2&#45;&gt;Node3</title>
<g id="a_edge2_Node000002_Node000003"><a xlink:title=" ">
<path fill="none" stroke="#63b8ff" d="M71.18,-164.92C80.16,-134.65 101.32,-63.35 111.43,-29.27"/>
<polygon fill="#63b8ff" stroke="#63b8ff" points="114.91,-29.84 114.4,-19.25 108.2,-27.85 114.91,-29.84"/>
</a>
</g>
</g>
<!-- Node5 -->
<g id="Node000005" class="node">
<title>Node5</title>
<g id="a_Node000005"><a xlink:href="infix__config_8h.html" target="_top" xlink:title="Platform, architecture, and ABI detection macros.">
<polygon fill="white" stroke="#666666" points="505.5,-129 378.5,-129 378.5,-110 505.5,-110 505.5,-129"/>
<text text-anchor="middle" x="442" y="-117" font-family="Helvetica,sans-Serif" font-size="10.00">common/infix_config.h</text>
</a>
</g>
</g>
<!-- Node4&#45;&gt;Node5 -->
<g id="edge4_Node000004_Node000005" class="edge">
<title>Node4&#45;&gt;Node5</title>
<g id="a_edge4_Node000004_Node000005"><a xlink:title=" ">
<path fill="none" stroke="#63b8ff" d="M294.74,-230.88C315.97,-223.32 345.84,-211.03 369,-195 392.62,-178.66 415,-153.96 428.6,-137.54"/>
<polygon fill="#63b8ff" stroke="#63b8ff" points="431.64,-139.35 435.21,-129.38 426.2,-134.95 431.64,-139.35"/>
</a>
</g>
</g>
<!-- Node6 -->
<g id="Node000006" class="node">
<title>Node6</title>
<g id="a_Node000006"><a xlink:href="platform_8h.html" target="_top" xlink:title="Declares internal, runtime CPU/OS feature detection functions.">
<polygon fill="white" stroke="#666666" points="359.5,-189.5 246.5,-189.5 246.5,-170.5 359.5,-170.5 359.5,-189.5"/>
<text text-anchor="middle" x="303" y="-177.5" font-family="Helvetica,sans-Serif" font-size="10.00">common/platform.h</text>
</a>
</g>
</g>
<!-- Node4&#45;&gt;Node6 -->
<g id="edge5_Node000004_Node000006" class="edge">
<title>Node4&#45;&gt;Node6</title>
<g id="a_edge5_Node000004_Node000006"><a xlink:title=" ">
<path fill="none" stroke="#63b8ff" d="M273.16,-230.87C278.23,-222.4 286.1,-209.24 292.49,-198.57"/>
<polygon fill="#63b8ff" stroke="#63b8ff" points="295.68,-200.05 297.81,-189.67 289.68,-196.45 295.68,-200.05"/>
</a>
</g>
</g>
<!-- Node8 -->
<g id="Node000008" class="node">
<title>Node8</title>
<g id="a_Node000008"><a xlink:href="infix_8h.html" target="_top" xlink:title="The public interface for the infix FFI library.">
<polygon fill="white" stroke="#666666" points="218.5,-74 147.5,-74 147.5,-55 218.5,-55 218.5,-74"/>
<text text-anchor="middle" x="183" y="-62" font-family="Helvetica,sans-Serif" font-size="10.00">infix/infix.h</text>
</a>
</g>
</g>
<!-- Node4&#45;&gt;Node8 -->
<g id="edge15_Node000004_Node000008" class="edge">
<title>Node4&#45;&gt;Node8</title>
<g id="a_edge15_Node000004_Node000008"><a xlink:title=" ">
<path fill="none" stroke="#63b8ff" d="M257.59,-230.81C238.04,-213.72 196.43,-173.53 181,-129 175.97,-114.49 177.01,-96.98 178.99,-84.03"/>
<polygon fill="#63b8ff" stroke="#63b8ff" points="182.47,-84.48 180.86,-74.01 175.59,-83.2 182.47,-84.48"/>
</a>
</g>
</g>
<!-- Node6&#45;&gt;Node5 -->
<g id="edge13_Node000006_Node000005" class="edge">
<title>Node6&#45;&gt;Node5</title>
<g id="a_edge13_Node000006_Node000005"><a xlink:title=" ">
<path fill="none" stroke="#63b8ff" d="M323.21,-170.49C346.68,-160.62 385.61,-144.23 412.46,-132.93"/>
<polygon fill="#63b8ff" stroke="#63b8ff" points="413.9,-136.12 421.76,-129.02 411.19,-129.67 413.9,-136.12"/>
</a>
</g>
</g>
<!-- Node7 -->
<g id="Node000007" class="node">
<title>Node7</title>
<g id="a_Node000007"><a xlink:href="compat__c23_8h.html" target="_top" xlink:title="Provides forward compatibility macros for C23 features.">
<polygon fill="white" stroke="#666666" points="321.5,-129 190.5,-129 190.5,-110 321.5,-110 321.5,-129"/>
<text text-anchor="middle" x="256" y="-117" font-family="Helvetica,sans-Serif" font-size="10.00">common/compat_c23.h</text>
</a>
</g>
</g>
<!-- Node6&#45;&gt;Node7 -->
<g id="edge6_Node000006_Node000007" class="edge">
<title>Node6&#45;&gt;Node7</title>
<g id="a_edge6_Node000006_Node000007"><a xlink:title=" ">
<path fill="none" stroke="#63b8ff" d="M296.06,-170.37C289.05,-161.64 278.04,-147.93 269.33,-137.09"/>
<polygon fill="#63b8ff" stroke="#63b8ff" points="271.96,-134.77 262.96,-129.17 266.5,-139.16 271.96,-134.77"/>
</a>
</g>
</g>
<!-- Node9 -->
<g id="Node000009" class="node">
<title>Node9</title>
<g id="a_Node000009"><a xlink:title=" ">
<polygon fill="#e0e0e0" stroke="#999999" points="316,-19 254,-19 254,0 316,0 316,-19"/>
<text text-anchor="middle" x="285" y="-7" font-family="Helvetica,sans-Serif" font-size="10.00">stdbool.h</text>
</a>
</g>
</g>
<!-- Node6&#45;&gt;Node9 -->
<g id="edge14_Node000006_Node000009" class="edge">
<title>Node6&#45;&gt;Node9</title>
<g id="a_edge14_Node000006_Node000009"><a xlink:title=" ">
<path fill="none" stroke="#63b8ff" d="M309.65,-170.39C316.55,-160.87 326.88,-144.79 331,-129 333.13,-120.83 332.81,-118.25 331,-110 324.28,-79.45 307.23,-47.12 295.88,-27.88"/>
<polygon fill="#63b8ff" stroke="#63b8ff" points="298.73,-25.83 290.55,-19.09 292.75,-29.46 298.73,-25.83"/>
</a>
</g>
</g>
<!-- Node7&#45;&gt;Node8 -->
<g id="edge7_Node000007_Node000008" class="edge">
<title>Node7&#45;&gt;Node8</title>
<g id="a_edge7_Node000007_Node000008"><a xlink:title=" ">
<path fill="none" stroke="#63b8ff" d="M244.27,-109.98C233.27,-102 216.58,-89.88 203.4,-80.31"/>
<polygon fill="#63b8ff" stroke="#63b8ff" points="205.09,-77.21 194.94,-74.17 200.98,-82.88 205.09,-77.21"/>
</a>
</g>
</g>
<!-- Node7&#45;&gt;Node9 -->
<g id="edge11_Node000007_Node000009" class="edge">
<title>Node7&#45;&gt;Node9</title>
<g id="a_edge11_Node000007_Node000009"><a xlink:title=" ">
<path fill="none" stroke="#63b8ff" d="M258.37,-109.66C263.09,-92.09 273.74,-52.45 280.04,-28.95"/>
<polygon fill="#63b8ff" stroke="#63b8ff" points="283.46,-29.72 282.68,-19.16 276.7,-27.91 283.46,-29.72"/>
</a>
</g>
</g>
<!-- Node10 -->
<g id="Node000010" class="node">
<title>Node10</title>
<g id="a_Node000010"><a xlink:title=" ">
<polygon fill="#e0e0e0" stroke="#999999" points="230,-19 174,-19 174,0 230,0 230,-19"/>
<text text-anchor="middle" x="202" y="-7" font-family="Helvetica,sans-Serif" font-size="10.00">stddef.h</text>
</a>
</g>
</g>
<!-- Node7&#45;&gt;Node10 -->
<g id="edge12_Node000007_Node000010" class="edge">
<title>Node7&#45;&gt;Node10</title>
<g id="a_edge12_Node000007_Node000010"><a xlink:title=" ">
<path fill="none" stroke="#63b8ff" d="M252.29,-109.76C246.98,-97.42 236.77,-74.23 227,-55 222.43,-46.01 216.99,-36.23 212.35,-28.13"/>
<polygon fill="#63b8ff" stroke="#63b8ff" points="215.24,-26.14 207.2,-19.25 209.19,-29.65 215.24,-26.14"/>
</a>
</g>
</g>
<!-- Node8&#45;&gt;Node3 -->
<g id="edge10_Node000008_Node000003" class="edge">
<title>Node8&#45;&gt;Node3</title>
<g id="a_edge10_Node000008_Node000003"><a xlink:title=" ">
<path fill="none" stroke="#63b8ff" d="M172.4,-54.98C162.54,-47.07 147.65,-35.11 135.78,-25.58"/>
<polygon fill="#63b8ff" stroke="#63b8ff" points="137.79,-22.7 127.8,-19.17 133.4,-28.16 137.79,-22.7"/>
</a>
</g>
</g>
<!-- Node8&#45;&gt;Node9 -->
<g id="edge8_Node000008_Node000009" class="edge">
<title>Node8&#45;&gt;Node9</title>
<g id="a_edge8_Node000008_Node000009"><a xlink:title=" ">
<path fill="none" stroke="#63b8ff" d="M199.39,-54.98C215.57,-46.57 240.57,-33.59 259.38,-23.81"/>
<polygon fill="#63b8ff" stroke="#63b8ff" points="261.05,-26.89 268.31,-19.17 257.83,-20.68 261.05,-26.89"/>
</a>
</g>
</g>
<!-- Node8&#45;&gt;Node10 -->
<g id="edge9_Node000008_Node000010" class="edge">
<title>Node8&#45;&gt;Node10</title>
<g id="a_edge9_Node000008_Node000010"><a xlink:title=" ">
<path fill="none" stroke="#63b8ff" d="M186.14,-54.75C188.68,-47.65 192.36,-37.4 195.53,-28.56"/>
<polygon fill="#63b8ff" stroke="#63b8ff" points="198.84,-29.68 198.92,-19.09 192.25,-27.32 198.84,-29.68"/>
</a>
</g>
</g>
</g>
</svg>
