<?xml version="1.0" encoding="UTF-8" standalone="no"?>
<!DOCTYPE svg PUBLIC "-//W3C//DTD SVG 1.1//EN"
 "http://www.w3.org/Graphics/SVG/1.1/DTD/svg11.dtd">
<!-- Generated by graphviz version 2.43.0 (0)
 -->
<!-- Title: src/arch/x64/abi_x64_emitters.h Pages: 1 -->
<svg width="549pt" height="313pt"
 viewBox="0.00 0.00 549.00 313.00" xmlns="http://www.w3.org/2000/svg" xmlns:xlink="http://www.w3.org/1999/xlink">
<g id="graph0" class="graph" transform="scale(1 1) rotate(0) translate(4 309)">
<title>src/arch/x64/abi_x64_emitters.h</title>
<!-- Node1 -->
<g id="Node000001" class="node">
<title>Node1</title>
<g id="a_Node000001"><a xlink:title="Declares internal helper functions for emitting x86&#45;64 machine code.">
<polygon fill="#999999" stroke="#666666" points="257,-305 140,-305 140,-275 257,-275 257,-305"/>
<text text-anchor="start" x="148" y="-293" font-family="Helvetica,sans-Serif" font-size="10.00">src/arch/x64/abi_x64</text>
<text text-anchor="middle" x="198.5" y="-282" font-family="Helvetica,sans-Serif" font-size="10.00">_emitters.h</text>
</a>
</g>
</g>
<!-- Node2 -->
<g id="Node000002" class="node">
<title>Node2</title>
<g id="a_Node000002"><a xlink:href="abi__x64__common_8h.html" target="_top" xlink:title="Common register definitions for the x86&#45;64 architecture.">
<polygon fill="white" stroke="#666666" points="157,-129 0,-129 0,-110 157,-110 157,-129"/>
<text text-anchor="middle" x="78.5" y="-117" font-family="Helvetica,sans-Serif" font-size="10.00">arch/x64/abi_x64_common.h</text>
</a>
</g>
</g>
<!-- Node1&#45;&gt;Node2 -->
<g id="edge1_Node000001_Node000002" class="edge">
<title>Node1&#45;&gt;Node2</title>
<g id="a_edge1_Node000001_Node000002"><a xlink:title=" ">
<path fill="none" stroke="#63b8ff" d="M188.48,-274.92C166.54,-244.12 114.36,-170.85 90.63,-137.53"/>
<polygon fill="#63b8ff" stroke="#63b8ff" points="93.39,-135.37 84.73,-129.25 87.69,-139.43 93.39,-135.37"/>
</a>
</g>
</g>
<!-- Node4 -->
<g id="Node000004" class="node">
<title>Node4</title>
<g id="a_Node000004"><a xlink:href="infix__internals_8h.html" target="_top" xlink:title="Internal data structures, function prototypes, and constants.">
<polygon fill="white" stroke="#666666" points="387.5,-239 247.5,-239 247.5,-220 387.5,-220 387.5,-239"/>
<text text-anchor="middle" x="317.5" y="-227" font-family="Helvetica,sans-Serif" font-size="10.00">common/infix_internals.h</text>
</a>
</g>
</g>
<!-- Node1&#45;&gt;Node4 -->
<g id="edge3_Node000001_Node000004" class="edge">
<title>Node1&#45;&gt;Node4</title>
<g id="a_edge3_Node000001_Node000004"><a xlink:title=" ">
<path fill="none" stroke="#63b8ff" d="M227,-274.99C246.41,-265.45 271.93,-252.9 290.92,-243.57"/>
<polygon fill="#63b8ff" stroke="#63b8ff" points="292.5,-246.69 299.93,-239.14 289.41,-240.41 292.5,-246.69"/>
</a>
</g>
</g>
<!-- Node3 -->
<g id="Node000003" class="node">
<title>Node3</title>
<g id="a_Node000003"><a xlink:title=" ">
<polygon fill="#e0e0e0" stroke="#999999" points="144,-19 91,-19 91,0 144,0 144,-19"/>
<text text-anchor="middle" x="117.5" y="-7" font-family="Helvetica,sans-Serif" font-size="10.00">stdint.h</text>
</a>
</g>
</g>
<!-- Node2&#45;&gt;Node3 -->
<g id="edge2_Node000002_Node000003" class="edge">
<title>Node2&#45;&gt;Node3</title>
<g id="a_edge2_Node000002_Node000003"><a xlink:title=" ">
<path fill="none" stroke="#63b8ff" d="M81.69,-109.66C88.07,-92.01 102.48,-52.09 110.95,-28.64"/>
<polygon fill="#63b8ff" stroke="#63b8ff" points="114.27,-29.75 114.37,-19.16 107.68,-27.38 114.27,-29.75"/>
</a>
</g>
</g>
<!-- Node5 -->
<g id="Node000005" class="node">
<title>Node5</title>
<g id="a_Node000005"><a xlink:href="infix__config_8h.html" target="_top" xlink:title="Platform, architecture, and ABI detection macros.">
<polygon fill="white" stroke="#666666" points="475,-74 348,-74 348,-55 475,-55 475,-74"/>
<text text-anchor="middle" x="411.5" y="-62" font-family="Helvetica,sans-Serif" font-size="10.00">common/infix_config.h</text>
</a>
</g>
</g>
<!-- Node4&#45;&gt;Node5 -->
<g id="edge4_Node000004_Node000005" class="edge">
<title>Node4&#45;&gt;Node5</title>
<g id="a_edge4_Node000004_Node000005"><a xlink:title=" ">
<path fill="none" stroke="#63b8ff" d="M335.01,-219.92C349.47,-212.14 369.77,-199.53 383.5,-184 401.67,-163.45 405.1,-155.67 411.5,-129 415,-114.39 414.78,-97.34 413.8,-84.59"/>
<polygon fill="#63b8ff" stroke="#63b8ff" points="417.25,-83.88 412.77,-74.28 410.28,-84.58 417.25,-83.88"/>
</a>
</g>
</g>
<!-- Node6 -->
<g id="Node000006" class="node">
<title>Node6</title>
<g id="a_Node000006"><a xlink:href="platform_8h.html" target="_top" xlink:title="Declares internal, runtime CPU/OS feature detection functions.">
<polygon fill="white" stroke="#666666" points="374,-184 261,-184 261,-165 374,-165 374,-184"/>
<text text-anchor="middle" x="317.5" y="-172" font-family="Helvetica,sans-Serif" font-size="10.00">common/platform.h</text>
</a>
</g>
</g>
<!-- Node4&#45;&gt;Node6 -->
<g id="edge5_Node000004_Node000006" class="edge">
<title>Node4&#45;&gt;Node6</title>
<g id="a_edge5_Node000004_Node000006"><a xlink:title=" ">
<path fill="none" stroke="#63b8ff" d="M317.5,-219.75C317.5,-212.8 317.5,-202.85 317.5,-194.13"/>
<polygon fill="#63b8ff" stroke="#63b8ff" points="321,-194.09 317.5,-184.09 314,-194.09 321,-194.09"/>
</a>
</g>
</g>
<!-- Node8 -->
<g id="Node000008" class="node">
<title>Node8</title>
<g id="a_Node000008"><a xlink:href="infix_8h.html" target="_top" xlink:title="The public interface for the infix FFI library.">
<polygon fill="white" stroke="#666666" points="195,-74 124,-74 124,-55 195,-55 195,-74"/>
<text text-anchor="middle" x="159.5" y="-62" font-family="Helvetica,sans-Serif" font-size="10.00">infix/infix.h</text>
</a>
</g>
</g>
<!-- Node4&#45;&gt;Node8 -->
<g id="edge16_Node000004_Node000008" class="edge">
<title>Node4&#45;&gt;Node8</title>
<g id="a_edge16_Node000004_Node000008"><a xlink:title=" ">
<path fill="none" stroke="#63b8ff" d="M302.35,-219.95C288.53,-211.75 267.97,-198.49 252.5,-184 218.47,-152.11 186.72,-107.15 170.59,-82.8"/>
<polygon fill="#63b8ff" stroke="#63b8ff" points="173.42,-80.73 165.02,-74.27 167.56,-84.56 173.42,-80.73"/>
</a>
</g>
</g>
<!-- Node11 -->
<g id="Node000011" class="node">
<title>Node11</title>
<g id="a_Node000011"><a xlink:title=" ">
<polygon fill="#e0e0e0" stroke="#999999" points="541,-184 478,-184 478,-165 541,-165 541,-184"/>
<text text-anchor="middle" x="509.5" y="-172" font-family="Helvetica,sans-Serif" font-size="10.00">pthread.h</text>
</a>
</g>
</g>
<!-- Node4&#45;&gt;Node11 -->
<g id="edge17_Node000004_Node000011" class="edge">
<title>Node4&#45;&gt;Node11</title>
<g id="a_edge17_Node000004_Node000011"><a xlink:title=" ">
<path fill="none" stroke="#63b8ff" d="M348.35,-219.98C381,-210.97 432.7,-196.7 468.7,-186.76"/>
<polygon fill="#63b8ff" stroke="#63b8ff" points="469.7,-190.12 478.41,-184.08 467.84,-183.37 469.7,-190.12"/>
</a>
</g>
</g>
<!-- Node6&#45;&gt;Node5 -->
<g id="edge14_Node000006_Node000005" class="edge">
<title>Node6&#45;&gt;Node5</title>
<g id="a_edge14_Node000006_Node000005"><a xlink:title=" ">
<path fill="none" stroke="#63b8ff" d="M341,-164.97C357.64,-157.78 379.27,-145.94 392.5,-129 402.57,-116.1 407.32,-97.94 409.54,-84.35"/>
<polygon fill="#63b8ff" stroke="#63b8ff" points="413.04,-84.59 410.89,-74.21 406.1,-83.67 413.04,-84.59"/>
</a>
</g>
</g>
<!-- Node7 -->
<g id="Node000007" class="node">
<title>Node7</title>
<g id="a_Node000007"><a xlink:href="compat__c23_8h.html" target="_top" xlink:title="Provides forward compatibility macros for C23 features.">
<polygon fill="white" stroke="#666666" points="383,-129 252,-129 252,-110 383,-110 383,-129"/>
<text text-anchor="middle" x="317.5" y="-117" font-family="Helvetica,sans-Serif" font-size="10.00">common/compat_c23.h</text>
</a>
</g>
</g>
<!-- Node6&#45;&gt;Node7 -->
<g id="edge6_Node000006_Node000007" class="edge">
<title>Node6&#45;&gt;Node7</title>
<g id="a_edge6_Node000006_Node000007"><a xlink:title=" ">
<path fill="none" stroke="#63b8ff" d="M317.5,-164.75C317.5,-157.8 317.5,-147.85 317.5,-139.13"/>
<polygon fill="#63b8ff" stroke="#63b8ff" points="321,-139.09 317.5,-129.09 314,-139.09 321,-139.09"/>
</a>
</g>
</g>
<!-- Node9 -->
<g id="Node000009" class="node">
<title>Node9</title>
<g id="a_Node000009"><a xlink:title=" ">
<polygon fill="#e0e0e0" stroke="#999999" points="254.5,-19 192.5,-19 192.5,0 254.5,0 254.5,-19"/>
<text text-anchor="middle" x="223.5" y="-7" font-family="Helvetica,sans-Serif" font-size="10.00">stdbool.h</text>
</a>
</g>
</g>
<!-- Node6&#45;&gt;Node9 -->
<g id="edge15_Node000006_Node000009" class="edge">
<title>Node6&#45;&gt;Node9</title>
<g id="a_edge15_Node000006_Node000009"><a xlink:title=" ">
<path fill="none" stroke="#63b8ff" d="M292.61,-164.9C276.04,-157.86 255.24,-146.22 243.5,-129 222.91,-98.79 221.14,-54.41 222.07,-29.42"/>
<polygon fill="#63b8ff" stroke="#63b8ff" points="225.58,-29.32 222.65,-19.13 218.59,-28.92 225.58,-29.32"/>
</a>
</g>
</g>
<!-- Node7&#45;&gt;Node5 -->
<g id="edge7_Node000007_Node000005" class="edge">
<title>Node7&#45;&gt;Node5</title>
<g id="a_edge7_Node000007_Node000005"><a xlink:title=" ">
<path fill="none" stroke="#63b8ff" d="M332.6,-109.98C347.32,-101.69 369.92,-88.94 387.17,-79.22"/>
<polygon fill="#63b8ff" stroke="#63b8ff" points="389.13,-82.13 396.12,-74.17 385.69,-76.03 389.13,-82.13"/>
</a>
</g>
</g>
<!-- Node7&#45;&gt;Node8 -->
<g id="edge8_Node000007_Node000008" class="edge">
<title>Node7&#45;&gt;Node8</title>
<g id="a_edge8_Node000007_Node000008"><a xlink:title=" ">
<path fill="none" stroke="#63b8ff" d="M292.11,-109.98C265.7,-101.13 224.15,-87.19 194.61,-77.28"/>
<polygon fill="#63b8ff" stroke="#63b8ff" points="195.68,-73.94 185.08,-74.08 193.45,-80.58 195.68,-73.94"/>
</a>
</g>
</g>
<!-- Node7&#45;&gt;Node9 -->
<g id="edge12_Node000007_Node000009" class="edge">
<title>Node7&#45;&gt;Node9</title>
<g id="a_edge12_Node000007_Node000009"><a xlink:title=" ">
<path fill="none" stroke="#63b8ff" d="M309.81,-109.66C294.03,-91.54 257.8,-49.91 237.66,-26.77"/>
<polygon fill="#63b8ff" stroke="#63b8ff" points="240.24,-24.4 231.04,-19.16 234.96,-29 240.24,-24.4"/>
</a>
</g>
</g>
<!-- Node10 -->
<g id="Node000010" class="node">
<title>Node10</title>
<g id="a_Node000010"><a xlink:title=" ">
<polygon fill="#e0e0e0" stroke="#999999" points="332.5,-19 276.5,-19 276.5,0 332.5,0 332.5,-19"/>
<text text-anchor="middle" x="304.5" y="-7" font-family="Helvetica,sans-Serif" font-size="10.00">stddef.h</text>
</a>
</g>
</g>
<!-- Node7&#45;&gt;Node10 -->
<g id="edge13_Node000007_Node000010" class="edge">
<title>Node7&#45;&gt;Node10</title>
<g id="a_edge13_Node000007_Node000010"><a xlink:title=" ">
<path fill="none" stroke="#63b8ff" d="M316.44,-109.66C314.33,-92.17 309.59,-52.8 306.76,-29.27"/>
<polygon fill="#63b8ff" stroke="#63b8ff" points="310.21,-28.67 305.54,-19.16 303.26,-29.51 310.21,-28.67"/>
</a>
</g>
</g>
<!-- Node8&#45;&gt;Node3 -->
<g id="edge11_Node000008_Node000003" class="edge">
<title>Node8&#45;&gt;Node3</title>
<g id="a_edge11_Node000008_Node000003"><a xlink:title=" ">
<path fill="none" stroke="#63b8ff" d="M152.56,-54.75C146.63,-47.26 137.93,-36.28 130.68,-27.13"/>
<polygon fill="#63b8ff" stroke="#63b8ff" points="133.26,-24.75 124.31,-19.09 127.77,-29.1 133.26,-24.75"/>
</a>
</g>
</g>
<!-- Node8&#45;&gt;Node9 -->
<g id="edge9_Node000008_Node000009" class="edge">
<title>Node8&#45;&gt;Node9</title>
<g id="a_edge9_Node000008_Node000009"><a xlink:title=" ">
<path fill="none" stroke="#63b8ff" d="M169.78,-54.98C179.34,-47.07 193.78,-35.11 205.28,-25.58"/>
<polygon fill="#63b8ff" stroke="#63b8ff" points="207.56,-28.24 213.03,-19.17 203.1,-22.85 207.56,-28.24"/>
</a>
</g>
</g>
<!-- Node8&#45;&gt;Node10 -->
<g id="edge10_Node000008_Node000010" class="edge">
<title>Node8&#45;&gt;Node10</title>
<g id="a_edge10_Node000008_Node000010"><a xlink:title=" ">
<path fill="none" stroke="#63b8ff" d="M182.8,-54.98C206.75,-46.23 244.28,-32.51 271.33,-22.62"/>
<polygon fill="#63b8ff" stroke="#63b8ff" points="272.59,-25.89 280.78,-19.17 270.19,-19.32 272.59,-25.89"/>
</a>
</g>
</g>
</g>
</svg>
