<?xml version="1.0" encoding="UTF-8" standalone="no"?>
<!DOCTYPE svg PUBLIC "-//W3C//DTD SVG 1.1//EN"
 "http://www.w3.org/Graphics/SVG/1.1/DTD/svg11.dtd">
<!-- Generated by graphviz version 2.43.0 (0)
 -->
<!-- Title: src/core/arena.c Pages: 1 -->
<svg width="582pt" height="247pt"
 viewBox="0.00 0.00 582.00 247.00" xmlns="http://www.w3.org/2000/svg" xmlns:xlink="http://www.w3.org/1999/xlink">
<g id="graph0" class="graph" transform="scale(1 1) rotate(0) translate(4 243)">
<title>src/core/arena.c</title>
<!-- Node1 -->
<g id="Node000001" class="node">
<title>Node1</title>
<g id="a_Node000001"><a xlink:title="Implements a simple, fast arena (or region&#45;based) allocator.">
<polygon fill="#999999" stroke="#666666" points="495.5,-239 401.5,-239 401.5,-220 495.5,-220 495.5,-239"/>
<text text-anchor="middle" x="448.5" y="-227" font-family="Helvetica,sans-Serif" font-size="10.00">src/core/arena.c</text>
</a>
</g>
</g>
<!-- Node2 -->
<g id="Node000002" class="node">
<title>Node2</title>
<g id="a_Node000002"><a xlink:href="infix__internals_8h.html" target="_top" xlink:title="Internal data structures, function prototypes, and constants.">
<polygon fill="white" stroke="#666666" points="316.5,-184 176.5,-184 176.5,-165 316.5,-165 316.5,-184"/>
<text text-anchor="middle" x="246.5" y="-172" font-family="Helvetica,sans-Serif" font-size="10.00">common/infix_internals.h</text>
</a>
</g>
</g>
<!-- Node1&#45;&gt;Node2 -->
<g id="edge1_Node000001_Node000002" class="edge">
<title>Node1&#45;&gt;Node2</title>
<g id="a_edge1_Node000001_Node000002"><a xlink:title=" ">
<path fill="none" stroke="#63b8ff" d="M416.05,-219.98C381.54,-210.93 326.84,-196.58 288.94,-186.64"/>
<polygon fill="#63b8ff" stroke="#63b8ff" points="289.77,-183.23 279.21,-184.08 287.99,-190.01 289.77,-183.23"/>
</a>
</g>
</g>
<!-- Node9 -->
<g id="Node000009" class="node">
<title>Node9</title>
<g id="a_Node000009"><a xlink:title=" ">
<polygon fill="#e0e0e0" stroke="#999999" points="463,-74 410,-74 410,-55 463,-55 463,-74"/>
<text text-anchor="middle" x="436.5" y="-62" font-family="Helvetica,sans-Serif" font-size="10.00">stdint.h</text>
</a>
</g>
</g>
<!-- Node1&#45;&gt;Node9 -->
<g id="edge14_Node000001_Node000009" class="edge">
<title>Node1&#45;&gt;Node9</title>
<g id="a_edge14_Node000001_Node000009"><a xlink:title=" ">
<path fill="none" stroke="#63b8ff" d="M446.53,-219.69C444.62,-210.75 441.83,-196.49 440.5,-184 436.78,-148.98 436.25,-107.84 436.3,-84.4"/>
<polygon fill="#63b8ff" stroke="#63b8ff" points="439.8,-84.18 436.37,-74.15 432.8,-84.13 439.8,-84.18"/>
</a>
</g>
</g>
<!-- Node10 -->
<g id="Node000010" class="node">
<title>Node10</title>
<g id="a_Node000010"><a xlink:title=" ">
<polygon fill="#e0e0e0" stroke="#999999" points="503,-184 450,-184 450,-165 503,-165 503,-184"/>
<text text-anchor="middle" x="476.5" y="-172" font-family="Helvetica,sans-Serif" font-size="10.00">stdlib.h</text>
</a>
</g>
</g>
<!-- Node1&#45;&gt;Node10 -->
<g id="edge15_Node000001_Node000010" class="edge">
<title>Node1&#45;&gt;Node10</title>
<g id="a_edge15_Node000001_Node000010"><a xlink:title=" ">
<path fill="none" stroke="#63b8ff" d="M453.12,-219.75C456.96,-212.49 462.52,-201.95 467.26,-192.98"/>
<polygon fill="#63b8ff" stroke="#63b8ff" points="470.39,-194.57 471.96,-184.09 464.2,-191.3 470.39,-194.57"/>
</a>
</g>
</g>
<!-- Node11 -->
<g id="Node000011" class="node">
<title>Node11</title>
<g id="a_Node000011"><a xlink:title=" ">
<polygon fill="#e0e0e0" stroke="#999999" points="574,-184 521,-184 521,-165 574,-165 574,-184"/>
<text text-anchor="middle" x="547.5" y="-172" font-family="Helvetica,sans-Serif" font-size="10.00">string.h</text>
</a>
</g>
</g>
<!-- Node1&#45;&gt;Node11 -->
<g id="edge16_Node000001_Node000011" class="edge">
<title>Node1&#45;&gt;Node11</title>
<g id="a_edge16_Node000001_Node000011"><a xlink:title=" ">
<path fill="none" stroke="#63b8ff" d="M464.41,-219.98C480.05,-211.61 504.16,-198.7 522.38,-188.95"/>
<polygon fill="#63b8ff" stroke="#63b8ff" points="524.14,-191.98 531.3,-184.17 520.84,-185.8 524.14,-191.98"/>
</a>
</g>
</g>
<!-- Node3 -->
<g id="Node000003" class="node">
<title>Node3</title>
<g id="a_Node000003"><a xlink:href="infix__config_8h.html" target="_top" xlink:title="Platform, architecture, and ABI detection macros.">
<polygon fill="white" stroke="#666666" points="127,-74 0,-74 0,-55 127,-55 127,-74"/>
<text text-anchor="middle" x="63.5" y="-62" font-family="Helvetica,sans-Serif" font-size="10.00">common/infix_config.h</text>
</a>
</g>
</g>
<!-- Node2&#45;&gt;Node3 -->
<g id="edge2_Node000002_Node000003" class="edge">
<title>Node2&#45;&gt;Node3</title>
<g id="a_edge2_Node000002_Node000003"><a xlink:title=" ">
<path fill="none" stroke="#63b8ff" d="M213.26,-164.98C188.63,-157.73 154.91,-145.82 128.5,-129 108.23,-116.09 89.06,-96.05 76.86,-81.94"/>
<polygon fill="#63b8ff" stroke="#63b8ff" points="79.34,-79.45 70.22,-74.04 73.98,-83.95 79.34,-79.45"/>
</a>
</g>
</g>
<!-- Node4 -->
<g id="Node000004" class="node">
<title>Node4</title>
<g id="a_Node000004"><a xlink:href="platform_8h.html" target="_top" xlink:title="Declares internal, runtime CPU/OS feature detection functions.">
<polygon fill="white" stroke="#666666" points="251,-129 138,-129 138,-110 251,-110 251,-129"/>
<text text-anchor="middle" x="194.5" y="-117" font-family="Helvetica,sans-Serif" font-size="10.00">common/platform.h</text>
</a>
</g>
</g>
<!-- Node2&#45;&gt;Node4 -->
<g id="edge3_Node000002_Node000004" class="edge">
<title>Node2&#45;&gt;Node4</title>
<g id="a_edge3_Node000002_Node000004"><a xlink:title=" ">
<path fill="none" stroke="#63b8ff" d="M237.91,-164.75C230.34,-157.03 219.12,-145.6 209.99,-136.28"/>
<polygon fill="#63b8ff" stroke="#63b8ff" points="212.43,-133.78 202.93,-129.09 207.43,-138.68 212.43,-133.78"/>
</a>
</g>
</g>
<!-- Node8 -->
<g id="Node000008" class="node">
<title>Node8</title>
<g id="a_Node000008"><a xlink:href="infix_8h.html" target="_top" xlink:title="The public interface for the infix FFI library.">
<polygon fill="white" stroke="#666666" points="379,-129 308,-129 308,-110 379,-110 379,-129"/>
<text text-anchor="middle" x="343.5" y="-117" font-family="Helvetica,sans-Serif" font-size="10.00">infix/infix.h</text>
</a>
</g>
</g>
<!-- Node2&#45;&gt;Node8 -->
<g id="edge9_Node000002_Node000008" class="edge">
<title>Node2&#45;&gt;Node8</title>
<g id="a_edge9_Node000002_Node000008"><a xlink:title=" ">
<path fill="none" stroke="#63b8ff" d="M262.08,-164.98C277.27,-156.69 300.6,-143.94 318.4,-134.22"/>
<polygon fill="#63b8ff" stroke="#63b8ff" points="320.53,-137.04 327.63,-129.17 317.18,-130.89 320.53,-137.04"/>
</a>
</g>
</g>
<!-- Node4&#45;&gt;Node3 -->
<g id="edge7_Node000004_Node000003" class="edge">
<title>Node4&#45;&gt;Node3</title>
<g id="a_edge7_Node000004_Node000003"><a xlink:title=" ">
<path fill="none" stroke="#63b8ff" d="M173.45,-109.98C152.09,-101.34 118.8,-87.87 94.44,-78.02"/>
<polygon fill="#63b8ff" stroke="#63b8ff" points="95.51,-74.68 84.93,-74.17 92.89,-81.17 95.51,-74.68"/>
</a>
</g>
</g>
<!-- Node5 -->
<g id="Node000005" class="node">
<title>Node5</title>
<g id="a_Node000005"><a xlink:href="compat__c23_8h.html" target="_top" xlink:title="Provides forward compatibility macros for C23 features.">
<polygon fill="white" stroke="#666666" points="315,-74 184,-74 184,-55 315,-55 315,-74"/>
<text text-anchor="middle" x="249.5" y="-62" font-family="Helvetica,sans-Serif" font-size="10.00">common/compat_c23.h</text>
</a>
</g>
</g>
<!-- Node4&#45;&gt;Node5 -->
<g id="edge4_Node000004_Node000005" class="edge">
<title>Node4&#45;&gt;Node5</title>
<g id="a_edge4_Node000004_Node000005"><a xlink:title=" ">
<path fill="none" stroke="#63b8ff" d="M203.58,-109.75C211.59,-102.03 223.46,-90.6 233.12,-81.28"/>
<polygon fill="#63b8ff" stroke="#63b8ff" points="235.81,-83.55 240.59,-74.09 230.96,-78.51 235.81,-83.55"/>
</a>
</g>
</g>
<!-- Node6 -->
<g id="Node000006" class="node">
<title>Node6</title>
<g id="a_Node000006"><a xlink:title=" ">
<polygon fill="#e0e0e0" stroke="#999999" points="280.5,-19 218.5,-19 218.5,0 280.5,0 280.5,-19"/>
<text text-anchor="middle" x="249.5" y="-7" font-family="Helvetica,sans-Serif" font-size="10.00">stdbool.h</text>
</a>
</g>
</g>
<!-- Node4&#45;&gt;Node6 -->
<g id="edge8_Node000004_Node000006" class="edge">
<title>Node4&#45;&gt;Node6</title>
<g id="a_edge8_Node000004_Node000006"><a xlink:title=" ">
<path fill="none" stroke="#63b8ff" d="M187.54,-109.81C178.28,-97.13 164.21,-73.08 174.5,-55 182.8,-40.43 197.95,-30.14 212.48,-23.15"/>
<polygon fill="#63b8ff" stroke="#63b8ff" points="214.11,-26.25 221.85,-19.02 211.29,-19.85 214.11,-26.25"/>
</a>
</g>
</g>
<!-- Node5&#45;&gt;Node6 -->
<g id="edge5_Node000005_Node000006" class="edge">
<title>Node5&#45;&gt;Node6</title>
<g id="a_edge5_Node000005_Node000006"><a xlink:title=" ">
<path fill="none" stroke="#63b8ff" d="M249.5,-54.75C249.5,-47.8 249.5,-37.85 249.5,-29.13"/>
<polygon fill="#63b8ff" stroke="#63b8ff" points="253,-29.09 249.5,-19.09 246,-29.09 253,-29.09"/>
</a>
</g>
</g>
<!-- Node7 -->
<g id="Node000007" class="node">
<title>Node7</title>
<g id="a_Node000007"><a xlink:title=" ">
<polygon fill="#e0e0e0" stroke="#999999" points="381.5,-19 325.5,-19 325.5,0 381.5,0 381.5,-19"/>
<text text-anchor="middle" x="353.5" y="-7" font-family="Helvetica,sans-Serif" font-size="10.00">stddef.h</text>
</a>
</g>
</g>
<!-- Node5&#45;&gt;Node7 -->
<g id="edge6_Node000005_Node000007" class="edge">
<title>Node5&#45;&gt;Node7</title>
<g id="a_edge6_Node000005_Node000007"><a xlink:title=" ">
<path fill="none" stroke="#63b8ff" d="M266.21,-54.98C282.71,-46.57 308.2,-33.59 327.38,-23.81"/>
<polygon fill="#63b8ff" stroke="#63b8ff" points="329.17,-26.83 336.49,-19.17 325.99,-20.59 329.17,-26.83"/>
</a>
</g>
</g>
<!-- Node8&#45;&gt;Node5 -->
<g id="edge10_Node000008_Node000005" class="edge">
<title>Node8&#45;&gt;Node5</title>
<g id="a_edge10_Node000008_Node000005"><a xlink:title=" ">
<path fill="none" stroke="#63b8ff" d="M328.4,-109.98C313.68,-101.69 291.08,-88.94 273.83,-79.22"/>
<polygon fill="#63b8ff" stroke="#63b8ff" points="275.31,-76.03 264.88,-74.17 271.87,-82.13 275.31,-76.03"/>
</a>
</g>
</g>
<!-- Node8&#45;&gt;Node6 -->
<g id="edge11_Node000008_Node000006" class="edge">
<title>Node8&#45;&gt;Node6</title>
<g id="a_edge11_Node000008_Node000006"><a xlink:title=" ">
<path fill="none" stroke="#63b8ff" d="M342.72,-109.79C341.13,-96.65 336.52,-71.52 323.5,-55 312.62,-41.19 296.17,-30.69 281.54,-23.37"/>
<polygon fill="#63b8ff" stroke="#63b8ff" points="282.81,-20.1 272.27,-19.01 279.84,-26.43 282.81,-20.1"/>
</a>
</g>
</g>
<!-- Node8&#45;&gt;Node7 -->
<g id="edge12_Node000008_Node000007" class="edge">
<title>Node8&#45;&gt;Node7</title>
<g id="a_edge12_Node000008_Node000007"><a xlink:title=" ">
<path fill="none" stroke="#63b8ff" d="M347.1,-109.82C350.56,-100.99 355.53,-86.81 357.5,-74 359.79,-59.12 358.5,-42.09 356.81,-29.41"/>
<polygon fill="#63b8ff" stroke="#63b8ff" points="360.21,-28.53 355.22,-19.18 353.29,-29.6 360.21,-28.53"/>
</a>
</g>
</g>
<!-- Node8&#45;&gt;Node9 -->
<g id="edge13_Node000008_Node000009" class="edge">
<title>Node8&#45;&gt;Node9</title>
<g id="a_edge13_Node000008_Node000009"><a xlink:title=" ">
<path fill="none" stroke="#63b8ff" d="M358.44,-109.98C373,-101.69 395.37,-88.94 412.43,-79.22"/>
<polygon fill="#63b8ff" stroke="#63b8ff" points="414.33,-82.16 421.29,-74.17 410.86,-76.08 414.33,-82.16"/>
</a>
</g>
</g>
</g>
</svg>
