<?xml version="1.0" encoding="UTF-8" standalone="no"?>
<!DOCTYPE svg PUBLIC "-//W3C//DTD SVG 1.1//EN"
 "http://www.w3.org/Graphics/SVG/1.1/DTD/svg11.dtd">
<!-- Generated by graphviz version 2.43.0 (0)
 -->
<!-- Title: src/core/arena.c Pages: 1 -->
<svg width="508pt" height="302pt"
 viewBox="0.00 0.00 508.23 302.00" xmlns="http://www.w3.org/2000/svg" xmlns:xlink="http://www.w3.org/1999/xlink">
<g id="graph0" class="graph" transform="scale(1 1) rotate(0) translate(4 298)">
<title>src/core/arena.c</title>
<!-- Node1 -->
<g id="Node000001" class="node">
<title>Node1</title>
<g id="a_Node000001"><a xlink:title="Implements a simple, fast arena (or region&#45;based) allocator.">
<polygon fill="#999999" stroke="#666666" points="421.73,-294 327.73,-294 327.73,-275 421.73,-275 421.73,-294"/>
<text text-anchor="middle" x="374.73" y="-282" font-family="Helvetica,sans-Serif" font-size="10.00">src/core/arena.c</text>
</a>
</g>
</g>
<!-- Node2 -->
<g id="Node000002" class="node">
<title>Node2</title>
<g id="a_Node000002"><a xlink:href="infix__internals_8h.html" target="_top" xlink:title="Internal data structures, function prototypes, and constants.">
<polygon fill="white" stroke="#666666" points="224.73,-239 84.73,-239 84.73,-220 224.73,-220 224.73,-239"/>
<text text-anchor="middle" x="154.73" y="-227" font-family="Helvetica,sans-Serif" font-size="10.00">common/infix_internals.h</text>
</a>
</g>
</g>
<!-- Node1&#45;&gt;Node2 -->
<g id="edge1_Node000001_Node000002" class="edge">
<title>Node1&#45;&gt;Node2</title>
<g id="a_edge1_Node000001_Node000002"><a xlink:title=" ">
<path fill="none" stroke="#63b8ff" d="M339.39,-274.98C301.57,-265.87 241.47,-251.4 200.17,-241.45"/>
<polygon fill="#63b8ff" stroke="#63b8ff" points="200.9,-238.02 190.36,-239.08 199.26,-244.83 200.9,-238.02"/>
</a>
</g>
</g>
<!-- Node9 -->
<g id="Node000009" class="node">
<title>Node9</title>
<g id="a_Node000009"><a xlink:title=" ">
<polygon fill="#e0e0e0" stroke="#999999" points="370.23,-19 317.23,-19 317.23,0 370.23,0 370.23,-19"/>
<text text-anchor="middle" x="343.73" y="-7" font-family="Helvetica,sans-Serif" font-size="10.00">stdint.h</text>
</a>
</g>
</g>
<!-- Node1&#45;&gt;Node9 -->
<g id="edge16_Node000001_Node000009" class="edge">
<title>Node1&#45;&gt;Node9</title>
<g id="a_edge16_Node000001_Node000009"><a xlink:title=" ">
<path fill="none" stroke="#63b8ff" d="M370.98,-274.73C363.56,-256.56 347.73,-213.38 347.73,-175.5 347.73,-175.5 347.73,-175.5 347.73,-118.5 347.73,-87.17 346.03,-50.76 344.85,-29.23"/>
<polygon fill="#63b8ff" stroke="#63b8ff" points="348.34,-28.96 344.27,-19.18 341.35,-29.36 348.34,-28.96"/>
</a>
</g>
</g>
<!-- Node11 -->
<g id="Node000011" class="node">
<title>Node11</title>
<g id="a_Node000011"><a xlink:title=" ">
<polygon fill="#e0e0e0" stroke="#999999" points="429.23,-239 376.23,-239 376.23,-220 429.23,-220 429.23,-239"/>
<text text-anchor="middle" x="402.73" y="-227" font-family="Helvetica,sans-Serif" font-size="10.00">stdlib.h</text>
</a>
</g>
</g>
<!-- Node1&#45;&gt;Node11 -->
<g id="edge17_Node000001_Node000011" class="edge">
<title>Node1&#45;&gt;Node11</title>
<g id="a_edge17_Node000001_Node000011"><a xlink:title=" ">
<path fill="none" stroke="#63b8ff" d="M379.36,-274.75C383.19,-267.49 388.76,-256.95 393.5,-247.98"/>
<polygon fill="#63b8ff" stroke="#63b8ff" points="396.62,-249.57 398.2,-239.09 390.43,-246.3 396.62,-249.57"/>
</a>
</g>
</g>
<!-- Node12 -->
<g id="Node000012" class="node">
<title>Node12</title>
<g id="a_Node000012"><a xlink:title=" ">
<polygon fill="#e0e0e0" stroke="#999999" points="500.23,-239 447.23,-239 447.23,-220 500.23,-220 500.23,-239"/>
<text text-anchor="middle" x="473.73" y="-227" font-family="Helvetica,sans-Serif" font-size="10.00">string.h</text>
</a>
</g>
</g>
<!-- Node1&#45;&gt;Node12 -->
<g id="edge18_Node000001_Node000012" class="edge">
<title>Node1&#45;&gt;Node12</title>
<g id="a_edge18_Node000001_Node000012"><a xlink:title=" ">
<path fill="none" stroke="#63b8ff" d="M390.64,-274.98C406.28,-266.61 430.39,-253.7 448.62,-243.95"/>
<polygon fill="#63b8ff" stroke="#63b8ff" points="450.37,-246.98 457.54,-239.17 447.07,-240.8 450.37,-246.98"/>
</a>
</g>
</g>
<!-- Node3 -->
<g id="Node000003" class="node">
<title>Node3</title>
<g id="a_Node000003"><a xlink:href="infix__config_8h.html" target="_top" xlink:title="Platform, architecture, and ABI detection macros.">
<polygon fill="white" stroke="#666666" points="153.23,-74 26.23,-74 26.23,-55 153.23,-55 153.23,-74"/>
<text text-anchor="middle" x="89.73" y="-62" font-family="Helvetica,sans-Serif" font-size="10.00">common/infix_config.h</text>
</a>
</g>
</g>
<!-- Node2&#45;&gt;Node3 -->
<g id="edge2_Node000002_Node000003" class="edge">
<title>Node2&#45;&gt;Node3</title>
<g id="a_edge2_Node000002_Node000003"><a xlink:title=" ">
<path fill="none" stroke="#63b8ff" d="M84.42,-224.86C55.89,-219.5 25.53,-207.98 7.73,-184 -19.52,-147.27 33.97,-102.57 66.78,-80.01"/>
<polygon fill="#63b8ff" stroke="#63b8ff" points="69.02,-82.72 75.4,-74.26 65.14,-76.9 69.02,-82.72"/>
</a>
</g>
</g>
<!-- Node4 -->
<g id="Node000004" class="node">
<title>Node4</title>
<g id="a_Node000004"><a xlink:href="platform_8h.html" target="_top" xlink:title="Declares internal, runtime CPU/OS feature detection functions.">
<polygon fill="white" stroke="#666666" points="211.23,-184 98.23,-184 98.23,-165 211.23,-165 211.23,-184"/>
<text text-anchor="middle" x="154.73" y="-172" font-family="Helvetica,sans-Serif" font-size="10.00">common/platform.h</text>
</a>
</g>
</g>
<!-- Node2&#45;&gt;Node4 -->
<g id="edge3_Node000002_Node000004" class="edge">
<title>Node2&#45;&gt;Node4</title>
<g id="a_edge3_Node000002_Node000004"><a xlink:title=" ">
<path fill="none" stroke="#63b8ff" d="M154.73,-219.75C154.73,-212.8 154.73,-202.85 154.73,-194.13"/>
<polygon fill="#63b8ff" stroke="#63b8ff" points="158.23,-194.09 154.73,-184.09 151.23,-194.09 158.23,-194.09"/>
</a>
</g>
</g>
<!-- Node6 -->
<g id="Node000006" class="node">
<title>Node6</title>
<g id="a_Node000006"><a xlink:href="infix_8h.html" target="_top" xlink:title="The public interface for the infix FFI library.">
<polygon fill="white" stroke="#666666" points="319.23,-74 248.23,-74 248.23,-55 319.23,-55 319.23,-74"/>
<text text-anchor="middle" x="283.73" y="-62" font-family="Helvetica,sans-Serif" font-size="10.00">infix/infix.h</text>
</a>
</g>
</g>
<!-- Node2&#45;&gt;Node6 -->
<g id="edge14_Node000002_Node000006" class="edge">
<title>Node2&#45;&gt;Node6</title>
<g id="a_edge14_Node000002_Node000006"><a xlink:title=" ">
<path fill="none" stroke="#63b8ff" d="M170.63,-219.86C184.59,-211.78 204.91,-198.76 219.73,-184 249.18,-154.68 268.58,-108.97 277.7,-83.75"/>
<polygon fill="#63b8ff" stroke="#63b8ff" points="281.1,-84.61 281.07,-74.02 274.49,-82.32 281.1,-84.61"/>
</a>
</g>
</g>
<!-- Node10 -->
<g id="Node000010" class="node">
<title>Node10</title>
<g id="a_Node000010"><a xlink:title=" ">
<polygon fill="#e0e0e0" stroke="#999999" points="80.23,-184 17.23,-184 17.23,-165 80.23,-165 80.23,-184"/>
<text text-anchor="middle" x="48.73" y="-172" font-family="Helvetica,sans-Serif" font-size="10.00">pthread.h</text>
</a>
</g>
</g>
<!-- Node2&#45;&gt;Node10 -->
<g id="edge15_Node000002_Node000010" class="edge">
<title>Node2&#45;&gt;Node10</title>
<g id="a_edge15_Node000002_Node000010"><a xlink:title=" ">
<path fill="none" stroke="#63b8ff" d="M137.7,-219.98C120.8,-211.54 94.67,-198.47 75.09,-188.68"/>
<polygon fill="#63b8ff" stroke="#63b8ff" points="76.58,-185.51 66.07,-184.17 73.45,-191.77 76.58,-185.51"/>
</a>
</g>
</g>
<!-- Node4&#45;&gt;Node3 -->
<g id="edge12_Node000004_Node000003" class="edge">
<title>Node4&#45;&gt;Node3</title>
<g id="a_edge12_Node000004_Node000003"><a xlink:title=" ">
<path fill="none" stroke="#63b8ff" d="M142.88,-164.9C132.47,-156.75 117.62,-143.62 108.73,-129 100.33,-115.17 95.42,-97.38 92.71,-84.14"/>
<polygon fill="#63b8ff" stroke="#63b8ff" points="96.15,-83.5 90.92,-74.29 89.26,-84.75 96.15,-83.5"/>
</a>
</g>
</g>
<!-- Node5 -->
<g id="Node000005" class="node">
<title>Node5</title>
<g id="a_Node000005"><a xlink:href="compat__c23_8h.html" target="_top" xlink:title="Provides forward compatibility macros for C23 features.">
<polygon fill="white" stroke="#666666" points="249.23,-129 118.23,-129 118.23,-110 249.23,-110 249.23,-129"/>
<text text-anchor="middle" x="183.73" y="-117" font-family="Helvetica,sans-Serif" font-size="10.00">common/compat_c23.h</text>
</a>
</g>
</g>
<!-- Node4&#45;&gt;Node5 -->
<g id="edge4_Node000004_Node000005" class="edge">
<title>Node4&#45;&gt;Node5</title>
<g id="a_edge4_Node000004_Node000005"><a xlink:title=" ">
<path fill="none" stroke="#63b8ff" d="M159.52,-164.75C163.49,-157.49 169.26,-146.95 174.17,-137.98"/>
<polygon fill="#63b8ff" stroke="#63b8ff" points="177.3,-139.54 179.03,-129.09 171.16,-136.18 177.3,-139.54"/>
</a>
</g>
</g>
<!-- Node7 -->
<g id="Node000007" class="node">
<title>Node7</title>
<g id="a_Node000007"><a xlink:title=" ">
<polygon fill="#e0e0e0" stroke="#999999" points="212.73,-19 150.73,-19 150.73,0 212.73,0 212.73,-19"/>
<text text-anchor="middle" x="181.73" y="-7" font-family="Helvetica,sans-Serif" font-size="10.00">stdbool.h</text>
</a>
</g>
</g>
<!-- Node4&#45;&gt;Node7 -->
<g id="edge13_Node000004_Node000007" class="edge">
<title>Node4&#45;&gt;Node7</title>
<g id="a_edge13_Node000004_Node000007"><a xlink:title=" ">
<path fill="none" stroke="#63b8ff" d="M128.96,-164.98C79.47,-147.27 -20.81,-104.01 16.73,-55 31.73,-35.43 96.78,-22.52 140.59,-15.86"/>
<polygon fill="#63b8ff" stroke="#63b8ff" points="141.29,-19.3 150.68,-14.38 140.27,-12.37 141.29,-19.3"/>
</a>
</g>
</g>
<!-- Node5&#45;&gt;Node3 -->
<g id="edge5_Node000005_Node000003" class="edge">
<title>Node5&#45;&gt;Node3</title>
<g id="a_edge5_Node000005_Node000003"><a xlink:title=" ">
<path fill="none" stroke="#63b8ff" d="M168.63,-109.98C153.92,-101.69 131.31,-88.94 114.06,-79.22"/>
<polygon fill="#63b8ff" stroke="#63b8ff" points="115.54,-76.03 105.11,-74.17 112.1,-82.13 115.54,-76.03"/>
</a>
</g>
</g>
<!-- Node5&#45;&gt;Node6 -->
<g id="edge6_Node000005_Node000006" class="edge">
<title>Node5&#45;&gt;Node6</title>
<g id="a_edge6_Node000005_Node000006"><a xlink:title=" ">
<path fill="none" stroke="#63b8ff" d="M199.8,-109.98C215.6,-101.61 239.95,-88.7 258.36,-78.95"/>
<polygon fill="#63b8ff" stroke="#63b8ff" points="260.18,-81.95 267.38,-74.17 256.9,-75.76 260.18,-81.95"/>
</a>
</g>
</g>
<!-- Node5&#45;&gt;Node7 -->
<g id="edge10_Node000005_Node000007" class="edge">
<title>Node5&#45;&gt;Node7</title>
<g id="a_edge10_Node000005_Node000007"><a xlink:title=" ">
<path fill="none" stroke="#63b8ff" d="M183.57,-109.66C183.25,-92.17 182.52,-52.8 182.08,-29.27"/>
<polygon fill="#63b8ff" stroke="#63b8ff" points="185.58,-29.09 181.89,-19.16 178.58,-29.22 185.58,-29.09"/>
</a>
</g>
</g>
<!-- Node8 -->
<g id="Node000008" class="node">
<title>Node8</title>
<g id="a_Node000008"><a xlink:title=" ">
<polygon fill="#e0e0e0" stroke="#999999" points="294.73,-19 238.73,-19 238.73,0 294.73,0 294.73,-19"/>
<text text-anchor="middle" x="266.73" y="-7" font-family="Helvetica,sans-Serif" font-size="10.00">stddef.h</text>
</a>
</g>
</g>
<!-- Node5&#45;&gt;Node8 -->
<g id="edge11_Node000005_Node000008" class="edge">
<title>Node5&#45;&gt;Node8</title>
<g id="a_edge11_Node000005_Node000008"><a xlink:title=" ">
<path fill="none" stroke="#63b8ff" d="M190.53,-109.66C204.33,-91.69 235.88,-50.64 253.76,-27.38"/>
<polygon fill="#63b8ff" stroke="#63b8ff" points="256.76,-29.22 260.08,-19.16 251.21,-24.95 256.76,-29.22"/>
</a>
</g>
</g>
<!-- Node6&#45;&gt;Node7 -->
<g id="edge7_Node000006_Node000007" class="edge">
<title>Node6&#45;&gt;Node7</title>
<g id="a_edge7_Node000006_Node000007"><a xlink:title=" ">
<path fill="none" stroke="#63b8ff" d="M267.35,-54.98C251.16,-46.57 226.16,-33.59 207.35,-23.81"/>
<polygon fill="#63b8ff" stroke="#63b8ff" points="208.91,-20.68 198.42,-19.17 205.68,-26.89 208.91,-20.68"/>
</a>
</g>
</g>
<!-- Node6&#45;&gt;Node8 -->
<g id="edge8_Node000006_Node000008" class="edge">
<title>Node6&#45;&gt;Node8</title>
<g id="a_edge8_Node000006_Node000008"><a xlink:title=" ">
<path fill="none" stroke="#63b8ff" d="M280.93,-54.75C278.67,-47.72 275.43,-37.62 272.62,-28.84"/>
<polygon fill="#63b8ff" stroke="#63b8ff" points="275.88,-27.54 269.49,-19.09 269.21,-29.68 275.88,-27.54"/>
</a>
</g>
</g>
<!-- Node6&#45;&gt;Node9 -->
<g id="edge9_Node000006_Node000009" class="edge">
<title>Node6&#45;&gt;Node9</title>
<g id="a_edge9_Node000006_Node000009"><a xlink:title=" ">
<path fill="none" stroke="#63b8ff" d="M293.37,-54.98C302.24,-47.15 315.61,-35.34 326.34,-25.86"/>
<polygon fill="#63b8ff" stroke="#63b8ff" points="328.74,-28.41 333.92,-19.17 324.11,-23.17 328.74,-28.41"/>
</a>
</g>
</g>
</g>
</svg>
