<?xml version="1.0" encoding="UTF-8" standalone="no"?>
<!DOCTYPE svg PUBLIC "-//W3C//DTD SVG 1.1//EN"
 "http://www.w3.org/Graphics/SVG/1.1/DTD/svg11.dtd">
<!-- Generated by graphviz version 2.43.0 (0)
 -->
<!-- Title: eg/cookbook/Ch02_Rec07_ArrayDecay.c Pages: 1 -->
<svg width="370pt" height="203pt"
 viewBox="0.00 0.00 369.70 203.00" xmlns="http://www.w3.org/2000/svg" xmlns:xlink="http://www.w3.org/1999/xlink">
<g id="graph0" class="graph" transform="scale(1 1) rotate(0) translate(4 199)">
<title>eg/cookbook/Ch02_Rec07_ArrayDecay.c</title>
<!-- Node1 -->
<g id="Node000001" class="node">
<title>Node1</title>
<g id="a_Node000001"><a xlink:title="Cookbook Chapter 2, Recipe 7: Working with Fixed&#45;Size Arrays.">
<polygon fill="#999999" stroke="#666666" points="331.7,-195 189.7,-195 189.7,-165 331.7,-165 331.7,-195"/>
<text text-anchor="start" x="197.7" y="-183" font-family="Helvetica,sans-Serif" font-size="10.00">eg/cookbook/Ch02_Rec07</text>
<text text-anchor="middle" x="260.7" y="-172" font-family="Helvetica,sans-Serif" font-size="10.00">_ArrayDecay.c</text>
</a>
</g>
</g>
<!-- Node2 -->
<g id="Node000002" class="node">
<title>Node2</title>
<g id="a_Node000002"><a xlink:href="infix_8h.html" target="_top" xlink:title="The public interface for the infix FFI library.">
<polygon fill="white" stroke="#666666" points="209.2,-129 138.2,-129 138.2,-110 209.2,-110 209.2,-129"/>
<text text-anchor="middle" x="173.7" y="-117" font-family="Helvetica,sans-Serif" font-size="10.00">infix/infix.h</text>
</a>
</g>
</g>
<!-- Node1&#45;&gt;Node2 -->
<g id="edge1_Node000001_Node000002" class="edge">
<title>Node1&#45;&gt;Node2</title>
<g id="a_edge1_Node000001_Node000002"><a xlink:title=" ">
<path fill="none" stroke="#63b8ff" d="M239.64,-164.84C226.16,-155.77 208.71,-144.04 195.15,-134.92"/>
<polygon fill="#63b8ff" stroke="#63b8ff" points="196.73,-131.77 186.48,-129.09 192.83,-137.58 196.73,-131.77"/>
</a>
</g>
</g>
<!-- Node5 -->
<g id="Node000005" class="node">
<title>Node5</title>
<g id="a_Node000005"><a xlink:title=" ">
<polygon fill="#e0e0e0" stroke="#999999" points="201.7,-19 145.7,-19 145.7,0 201.7,0 201.7,-19"/>
<text text-anchor="middle" x="173.7" y="-7" font-family="Helvetica,sans-Serif" font-size="10.00">stddef.h</text>
</a>
</g>
</g>
<!-- Node1&#45;&gt;Node5 -->
<g id="edge8_Node000001_Node000005" class="edge">
<title>Node1&#45;&gt;Node5</title>
<g id="a_edge8_Node000001_Node000005"><a xlink:title=" ">
<path fill="none" stroke="#63b8ff" d="M265.75,-164.68C273.43,-140.14 285.06,-89.39 263.7,-55 252.27,-36.59 230.71,-25.57 211.56,-19.1"/>
<polygon fill="#63b8ff" stroke="#63b8ff" points="212.42,-15.7 201.83,-16.11 210.37,-22.39 212.42,-15.7"/>
</a>
</g>
</g>
<!-- Node6 -->
<g id="Node000006" class="node">
<title>Node6</title>
<g id="a_Node000006"><a xlink:title=" ">
<polygon fill="#e0e0e0" stroke="#999999" points="255.2,-74 202.2,-74 202.2,-55 255.2,-55 255.2,-74"/>
<text text-anchor="middle" x="228.7" y="-62" font-family="Helvetica,sans-Serif" font-size="10.00">stdint.h</text>
</a>
</g>
</g>
<!-- Node1&#45;&gt;Node6 -->
<g id="edge9_Node000001_Node000006" class="edge">
<title>Node1&#45;&gt;Node6</title>
<g id="a_edge9_Node000001_Node000006"><a xlink:title=" ">
<path fill="none" stroke="#63b8ff" d="M256.65,-164.63C250.87,-144.12 240.25,-106.47 233.9,-83.93"/>
<polygon fill="#63b8ff" stroke="#63b8ff" points="237.24,-82.9 231.16,-74.23 230.51,-84.8 237.24,-82.9"/>
</a>
</g>
</g>
<!-- Node7 -->
<g id="Node000007" class="node">
<title>Node7</title>
<g id="a_Node000007"><a xlink:title=" ">
<polygon fill="#e0e0e0" stroke="#999999" points="361.7,-129 311.7,-129 311.7,-110 361.7,-110 361.7,-129"/>
<text text-anchor="middle" x="336.7" y="-117" font-family="Helvetica,sans-Serif" font-size="10.00">stdio.h</text>
</a>
</g>
</g>
<!-- Node1&#45;&gt;Node7 -->
<g id="edge10_Node000001_Node000007" class="edge">
<title>Node1&#45;&gt;Node7</title>
<g id="a_edge10_Node000001_Node000007"><a xlink:title=" ">
<path fill="none" stroke="#63b8ff" d="M279.1,-164.84C290.58,-156 305.35,-144.63 317.06,-135.62"/>
<polygon fill="#63b8ff" stroke="#63b8ff" points="319.52,-138.14 325.31,-129.27 315.25,-132.59 319.52,-138.14"/>
</a>
</g>
</g>
<!-- Node3 -->
<g id="Node000003" class="node">
<title>Node3</title>
<g id="a_Node000003"><a xlink:href="compat__c23_8h.html" target="_top" xlink:title="Provides forward compatibility macros for C23 features.">
<polygon fill="white" stroke="#666666" points="145.2,-74 14.2,-74 14.2,-55 145.2,-55 145.2,-74"/>
<text text-anchor="middle" x="79.7" y="-62" font-family="Helvetica,sans-Serif" font-size="10.00">common/compat_c23.h</text>
</a>
</g>
</g>
<!-- Node2&#45;&gt;Node3 -->
<g id="edge2_Node000002_Node000003" class="edge">
<title>Node2&#45;&gt;Node3</title>
<g id="a_edge2_Node000002_Node000003"><a xlink:title=" ">
<path fill="none" stroke="#63b8ff" d="M158.6,-109.98C143.89,-101.69 121.28,-88.94 104.03,-79.22"/>
<polygon fill="#63b8ff" stroke="#63b8ff" points="105.51,-76.03 95.08,-74.17 102.07,-82.13 105.51,-76.03"/>
</a>
</g>
</g>
<!-- Node4 -->
<g id="Node000004" class="node">
<title>Node4</title>
<g id="a_Node000004"><a xlink:title=" ">
<polygon fill="#e0e0e0" stroke="#999999" points="63.7,-19 1.7,-19 1.7,0 63.7,0 63.7,-19"/>
<text text-anchor="middle" x="32.7" y="-7" font-family="Helvetica,sans-Serif" font-size="10.00">stdbool.h</text>
</a>
</g>
</g>
<!-- Node2&#45;&gt;Node4 -->
<g id="edge5_Node000002_Node000004" class="edge">
<title>Node2&#45;&gt;Node4</title>
<g id="a_edge5_Node000002_Node000004"><a xlink:title=" ">
<path fill="none" stroke="#63b8ff" d="M138.14,-114.22C93.51,-108.03 20.86,-94.97 4.7,-74 -6.26,-59.78 5.03,-40.59 16.39,-27.04"/>
<polygon fill="#63b8ff" stroke="#63b8ff" points="19.16,-29.19 23.26,-19.43 13.96,-24.5 19.16,-29.19"/>
</a>
</g>
</g>
<!-- Node2&#45;&gt;Node5 -->
<g id="edge6_Node000002_Node000005" class="edge">
<title>Node2&#45;&gt;Node5</title>
<g id="a_edge6_Node000002_Node000005"><a xlink:title=" ">
<path fill="none" stroke="#63b8ff" d="M173.7,-109.66C173.7,-92.17 173.7,-52.8 173.7,-29.27"/>
<polygon fill="#63b8ff" stroke="#63b8ff" points="177.2,-29.16 173.7,-19.16 170.2,-29.16 177.2,-29.16"/>
</a>
</g>
</g>
<!-- Node2&#45;&gt;Node6 -->
<g id="edge7_Node000002_Node000006" class="edge">
<title>Node2&#45;&gt;Node6</title>
<g id="a_edge7_Node000002_Node000006"><a xlink:title=" ">
<path fill="none" stroke="#63b8ff" d="M182.78,-109.75C190.79,-102.03 202.66,-90.6 212.32,-81.28"/>
<polygon fill="#63b8ff" stroke="#63b8ff" points="215.02,-83.55 219.79,-74.09 210.16,-78.51 215.02,-83.55"/>
</a>
</g>
</g>
<!-- Node3&#45;&gt;Node4 -->
<g id="edge3_Node000003_Node000004" class="edge">
<title>Node3&#45;&gt;Node4</title>
<g id="a_edge3_Node000003_Node000004"><a xlink:title=" ">
<path fill="none" stroke="#63b8ff" d="M71.94,-54.75C65.23,-47.18 55.36,-36.05 47.2,-26.84"/>
<polygon fill="#63b8ff" stroke="#63b8ff" points="49.57,-24.25 40.32,-19.09 44.33,-28.89 49.57,-24.25"/>
</a>
</g>
</g>
<!-- Node3&#45;&gt;Node5 -->
<g id="edge4_Node000003_Node000005" class="edge">
<title>Node3&#45;&gt;Node5</title>
<g id="a_edge4_Node000003_Node000005"><a xlink:title=" ">
<path fill="none" stroke="#63b8ff" d="M94.8,-54.98C109.52,-46.69 132.13,-33.94 149.38,-24.22"/>
<polygon fill="#63b8ff" stroke="#63b8ff" points="151.33,-27.13 158.32,-19.17 147.89,-21.03 151.33,-27.13"/>
</a>
</g>
</g>
</g>
</svg>
