<?xml version="1.0" encoding="UTF-8" standalone="no"?>
<!DOCTYPE svg PUBLIC "-//W3C//DTD SVG 1.1//EN"
 "http://www.w3.org/Graphics/SVG/1.1/DTD/svg11.dtd">
<!-- Generated by graphviz version 2.43.0 (0)
 -->
<!-- Title: eg/cookbook/Ch02_Rec10_SIMD_SVE.c Pages: 1 -->
<svg width="440pt" height="203pt"
 viewBox="0.00 0.00 440.29 203.00" xmlns="http://www.w3.org/2000/svg" xmlns:xlink="http://www.w3.org/1999/xlink">
<g id="graph0" class="graph" transform="scale(1 1) rotate(0) translate(4 199)">
<title>eg/cookbook/Ch02_Rec10_SIMD_SVE.c</title>
<!-- Node1 -->
<g id="Node000001" class="node">
<title>Node1</title>
<g id="a_Node000001"><a xlink:title="Cookbook Chapter 2, Recipe 10: Working with SIMD Vectors (AArch64 SVE)">
<polygon fill="#999999" stroke="#666666" points="379.79,-195 237.79,-195 237.79,-165 379.79,-165 379.79,-195"/>
<text text-anchor="start" x="245.79" y="-183" font-family="Helvetica,sans-Serif" font-size="10.00">eg/cookbook/Ch02_Rec10</text>
<text text-anchor="middle" x="308.79" y="-172" font-family="Helvetica,sans-Serif" font-size="10.00">_SIMD_SVE.c</text>
</a>
</g>
</g>
<!-- Node2 -->
<g id="Node000002" class="node">
<title>Node2</title>
<g id="a_Node000002"><a xlink:href="infix_8h.html" target="_top" xlink:title="The public interface for the infix FFI library.">
<polygon fill="white" stroke="#666666" points="225.29,-129 154.29,-129 154.29,-110 225.29,-110 225.29,-129"/>
<text text-anchor="middle" x="189.79" y="-117" font-family="Helvetica,sans-Serif" font-size="10.00">infix/infix.h</text>
</a>
</g>
</g>
<!-- Node1&#45;&gt;Node2 -->
<g id="edge1_Node000001_Node000002" class="edge">
<title>Node1&#45;&gt;Node2</title>
<g id="a_edge1_Node000001_Node000002"><a xlink:title=" ">
<path fill="none" stroke="#63b8ff" d="M280.29,-164.99C260.88,-155.45 235.36,-142.9 216.37,-133.57"/>
<polygon fill="#63b8ff" stroke="#63b8ff" points="217.89,-130.41 207.37,-129.14 214.8,-136.69 217.89,-130.41"/>
</a>
</g>
</g>
<!-- Node4 -->
<g id="Node000004" class="node">
<title>Node4</title>
<g id="a_Node000004"><a xlink:title=" ">
<polygon fill="#e0e0e0" stroke="#999999" points="275.79,-19 213.79,-19 213.79,0 275.79,0 275.79,-19"/>
<text text-anchor="middle" x="244.79" y="-7" font-family="Helvetica,sans-Serif" font-size="10.00">stdbool.h</text>
</a>
</g>
</g>
<!-- Node1&#45;&gt;Node4 -->
<g id="edge8_Node000001_Node000004" class="edge">
<title>Node1&#45;&gt;Node4</title>
<g id="a_edge8_Node000001_Node000004"><a xlink:title=" ">
<path fill="none" stroke="#63b8ff" d="M303.45,-164.92C291.9,-134.52 264.63,-62.73 251.75,-28.83"/>
<polygon fill="#63b8ff" stroke="#63b8ff" points="254.94,-27.36 248.12,-19.25 248.4,-29.85 254.94,-27.36"/>
</a>
</g>
</g>
<!-- Node7 -->
<g id="Node000007" class="node">
<title>Node7</title>
<g id="a_Node000007"><a xlink:title=" ">
<polygon fill="#e0e0e0" stroke="#999999" points="360.79,-129 310.79,-129 310.79,-110 360.79,-110 360.79,-129"/>
<text text-anchor="middle" x="335.79" y="-117" font-family="Helvetica,sans-Serif" font-size="10.00">stdio.h</text>
</a>
</g>
</g>
<!-- Node1&#45;&gt;Node7 -->
<g id="edge9_Node000001_Node000007" class="edge">
<title>Node1&#45;&gt;Node7</title>
<g id="a_edge9_Node000001_Node000007"><a xlink:title=" ">
<path fill="none" stroke="#63b8ff" d="M315.33,-164.84C318.97,-156.95 323.54,-147.05 327.43,-138.61"/>
<polygon fill="#63b8ff" stroke="#63b8ff" points="330.73,-139.81 331.75,-129.27 324.38,-136.88 330.73,-139.81"/>
</a>
</g>
</g>
<!-- Node8 -->
<g id="Node000008" class="node">
<title>Node8</title>
<g id="a_Node000008"><a xlink:title=" ">
<polygon fill="#e0e0e0" stroke="#999999" points="432.29,-129 379.29,-129 379.29,-110 432.29,-110 432.29,-129"/>
<text text-anchor="middle" x="405.79" y="-117" font-family="Helvetica,sans-Serif" font-size="10.00">stdlib.h</text>
</a>
</g>
</g>
<!-- Node1&#45;&gt;Node8 -->
<g id="edge10_Node000001_Node000008" class="edge">
<title>Node1&#45;&gt;Node8</title>
<g id="a_edge10_Node000001_Node000008"><a xlink:title=" ">
<path fill="none" stroke="#63b8ff" d="M332.27,-164.84C347.6,-155.6 367.51,-143.59 382.74,-134.4"/>
<polygon fill="#63b8ff" stroke="#63b8ff" points="384.79,-137.26 391.54,-129.09 381.17,-131.26 384.79,-137.26"/>
</a>
</g>
</g>
<!-- Node3 -->
<g id="Node000003" class="node">
<title>Node3</title>
<g id="a_Node000003"><a xlink:href="compat__c23_8h.html" target="_top" xlink:title="Provides forward compatibility macros for C23 features.">
<polygon fill="white" stroke="#666666" points="145.29,-74 14.29,-74 14.29,-55 145.29,-55 145.29,-74"/>
<text text-anchor="middle" x="79.79" y="-62" font-family="Helvetica,sans-Serif" font-size="10.00">common/compat_c23.h</text>
</a>
</g>
</g>
<!-- Node2&#45;&gt;Node3 -->
<g id="edge2_Node000002_Node000003" class="edge">
<title>Node2&#45;&gt;Node3</title>
<g id="a_edge2_Node000002_Node000003"><a xlink:title=" ">
<path fill="none" stroke="#63b8ff" d="M172.12,-109.98C154.5,-101.5 127.21,-88.35 106.87,-78.54"/>
<polygon fill="#63b8ff" stroke="#63b8ff" points="108.32,-75.36 97.79,-74.17 105.28,-81.66 108.32,-75.36"/>
</a>
</g>
</g>
<!-- Node2&#45;&gt;Node4 -->
<g id="edge5_Node000002_Node000004" class="edge">
<title>Node2&#45;&gt;Node4</title>
<g id="a_edge5_Node000002_Node000004"><a xlink:title=" ">
<path fill="none" stroke="#63b8ff" d="M198.67,-109.71C206.77,-101.24 218.56,-87.71 225.79,-74 233.27,-59.83 238.23,-42.29 241.21,-29.24"/>
<polygon fill="#63b8ff" stroke="#63b8ff" points="244.7,-29.63 243.32,-19.12 237.85,-28.2 244.7,-29.63"/>
</a>
</g>
</g>
<!-- Node5 -->
<g id="Node000005" class="node">
<title>Node5</title>
<g id="a_Node000005"><a xlink:title=" ">
<polygon fill="#e0e0e0" stroke="#999999" points="60.79,-19 4.79,-19 4.79,0 60.79,0 60.79,-19"/>
<text text-anchor="middle" x="32.79" y="-7" font-family="Helvetica,sans-Serif" font-size="10.00">stddef.h</text>
</a>
</g>
</g>
<!-- Node2&#45;&gt;Node5 -->
<g id="edge6_Node000002_Node000005" class="edge">
<title>Node2&#45;&gt;Node5</title>
<g id="a_edge6_Node000002_Node000005"><a xlink:title=" ">
<path fill="none" stroke="#63b8ff" d="M154.21,-115.1C105.78,-109.66 23.04,-97.16 4.79,-74 -6.45,-59.74 5.25,-40.26 16.78,-26.65"/>
<polygon fill="#63b8ff" stroke="#63b8ff" points="19.57,-28.78 23.72,-19.03 14.4,-24.06 19.57,-28.78"/>
</a>
</g>
</g>
<!-- Node6 -->
<g id="Node000006" class="node">
<title>Node6</title>
<g id="a_Node000006"><a xlink:title=" ">
<polygon fill="#e0e0e0" stroke="#999999" points="216.29,-74 163.29,-74 163.29,-55 216.29,-55 216.29,-74"/>
<text text-anchor="middle" x="189.79" y="-62" font-family="Helvetica,sans-Serif" font-size="10.00">stdint.h</text>
</a>
</g>
</g>
<!-- Node2&#45;&gt;Node6 -->
<g id="edge7_Node000002_Node000006" class="edge">
<title>Node2&#45;&gt;Node6</title>
<g id="a_edge7_Node000002_Node000006"><a xlink:title=" ">
<path fill="none" stroke="#63b8ff" d="M189.79,-109.75C189.79,-102.8 189.79,-92.85 189.79,-84.13"/>
<polygon fill="#63b8ff" stroke="#63b8ff" points="193.29,-84.09 189.79,-74.09 186.29,-84.09 193.29,-84.09"/>
</a>
</g>
</g>
<!-- Node3&#45;&gt;Node4 -->
<g id="edge3_Node000003_Node000004" class="edge">
<title>Node3&#45;&gt;Node4</title>
<g id="a_edge3_Node000003_Node000004"><a xlink:title=" ">
<path fill="none" stroke="#63b8ff" d="M106.3,-54.98C134,-46.09 177.65,-32.07 208.53,-22.15"/>
<polygon fill="#63b8ff" stroke="#63b8ff" points="209.62,-25.47 218.08,-19.08 207.48,-18.81 209.62,-25.47"/>
</a>
</g>
</g>
<!-- Node3&#45;&gt;Node5 -->
<g id="edge4_Node000003_Node000005" class="edge">
<title>Node3&#45;&gt;Node5</title>
<g id="a_edge4_Node000003_Node000005"><a xlink:title=" ">
<path fill="none" stroke="#63b8ff" d="M72.03,-54.75C65.32,-47.18 55.45,-36.05 47.29,-26.84"/>
<polygon fill="#63b8ff" stroke="#63b8ff" points="49.66,-24.25 40.41,-19.09 44.43,-28.89 49.66,-24.25"/>
</a>
</g>
</g>
</g>
</svg>
