<?xml version="1.0" encoding="UTF-8" standalone="no"?>
<!DOCTYPE svg PUBLIC "-//W3C//DTD SVG 1.1//EN"
 "http://www.w3.org/Graphics/SVG/1.1/DTD/svg11.dtd">
<!-- Generated by graphviz version 2.43.0 (0)
 -->
<!-- Title: eg/cookbook/Ch04_Rec04_LongDouble.c Pages: 1 -->
<svg width="307pt" height="203pt"
 viewBox="0.00 0.00 307.03 203.00" xmlns="http://www.w3.org/2000/svg" xmlns:xlink="http://www.w3.org/1999/xlink">

<svg id="main" version="1.1" xmlns="http://www.w3.org/2000/svg" xmlns:xlink="http://www.w3.org/1999/xlink" xml:space="preserve" onload="init(evt)">
<style type="text/css"><![CDATA[
.node, .edge {opacity: 0.7;}
.node.selected, .edge.selected {opacity: 1;}
.edge:hover path { stroke: red; }
.edge:hover polygon { stroke: red; fill: red; }
]]></style>
<script type="application/ecmascript" xlink:href="svg.min.js"/>
<svg id="graph" class="graph">
<g id="graph0" class="graph" transform="scale(1 1) rotate(0) translate(4 199)">
<title>eg/cookbook/Ch04_Rec04_LongDouble.c</title>
<!-- Node1 -->
<g id="Node000001" class="node">
<title>Node1</title>
<g id="a_Node000001"><a xlink:title="Cookbook Chapter 4, Recipe 4: Handling long double">
<polygon fill="#999999" stroke="#666666" points="276.03,-195 134.03,-195 134.03,-165 276.03,-165 276.03,-195"/>
<text text-anchor="start" x="142.03" y="-183" font-family="Helvetica,sans-Serif" font-size="10.00">eg/cookbook/Ch04_Rec04</text>
<text text-anchor="middle" x="205.03" y="-172" font-family="Helvetica,sans-Serif" font-size="10.00">_LongDouble.c</text>
</a>
</g>
</g>
<!-- Node2 -->
<g id="Node000002" class="node">
<title>Node2</title>
<g id="a_Node000002"><a xlink:href="infix_8h.html" target="_top" xlink:title="The public interface for the infix FFI library.">
<polygon fill="white" stroke="#666666" points="161.53,-129 90.53,-129 90.53,-110 161.53,-110 161.53,-129"/>
<text text-anchor="middle" x="126.03" y="-117" font-family="Helvetica,sans-Serif" font-size="10.00">infix/infix.h</text>
</a>
</g>
</g>
<!-- Node1&#45;&gt;Node2 -->
<g id="edge1_Node000001_Node000002" class="edge">
<title>Node1&#45;&gt;Node2</title>
<g id="a_edge1_Node000001_Node000002"><a xlink:title=" ">
<path fill="none" stroke="#63b8ff" d="M185.91,-164.84C173.86,-155.91 158.32,-144.41 146.09,-135.35"/>
<polygon fill="#63b8ff" stroke="#63b8ff" points="147.99,-132.4 137.87,-129.27 143.82,-138.03 147.99,-132.4"/>
</a>
</g>
</g>
<!-- Node7 -->
<g id="Node000007" class="node">
<title>Node7</title>
<g id="a_Node000007"><a xlink:title=" ">
<polygon fill="#e0e0e0" stroke="#999999" points="230.53,-129 179.53,-129 179.53,-110 230.53,-110 230.53,-129"/>
<text text-anchor="middle" x="205.03" y="-117" font-family="Helvetica,sans-Serif" font-size="10.00">math.h</text>
</a>
</g>
</g>
<!-- Node1&#45;&gt;Node7 -->
<g id="edge8_Node000001_Node000007" class="edge">
<title>Node1&#45;&gt;Node7</title>
<g id="a_edge8_Node000001_Node000007"><a xlink:title=" ">
<path fill="none" stroke="#63b8ff" d="M205.03,-164.84C205.03,-157.21 205.03,-147.7 205.03,-139.45"/>
<polygon fill="#63b8ff" stroke="#63b8ff" points="208.53,-139.27 205.03,-129.27 201.53,-139.27 208.53,-139.27"/>
</a>
</g>
</g>
<!-- Node8 -->
<g id="Node000008" class="node">
<title>Node8</title>
<g id="a_Node000008"><a xlink:title=" ">
<polygon fill="#e0e0e0" stroke="#999999" points="299.03,-129 249.03,-129 249.03,-110 299.03,-110 299.03,-129"/>
<text text-anchor="middle" x="274.03" y="-117" font-family="Helvetica,sans-Serif" font-size="10.00">stdio.h</text>
</a>
</g>
</g>
<!-- Node1&#45;&gt;Node8 -->
<g id="edge9_Node000001_Node000008" class="edge">
<title>Node1&#45;&gt;Node8</title>
<g id="a_edge9_Node000001_Node000008"><a xlink:title=" ">
<path fill="none" stroke="#63b8ff" d="M221.74,-164.84C232.06,-156.09 245.31,-144.85 255.89,-135.88"/>
<polygon fill="#63b8ff" stroke="#63b8ff" points="258.33,-138.4 263.69,-129.27 253.8,-133.06 258.33,-138.4"/>
</a>
</g>
</g>
<!-- Node3 -->
<g id="Node000003" class="node">
<title>Node3</title>
<g id="a_Node000003"><a xlink:href="compat__c23_8h.html" target="_top" xlink:title="Provides forward compatibility macros for C23 features.">
<polygon fill="white" stroke="#666666" points="144.53,-74 13.53,-74 13.53,-55 144.53,-55 144.53,-74"/>
<text text-anchor="middle" x="79.03" y="-62" font-family="Helvetica,sans-Serif" font-size="10.00">common/compat_c23.h</text>
</a>
</g>
</g>
<!-- Node2&#45;&gt;Node3 -->
<g id="edge2_Node000002_Node000003" class="edge">
<title>Node2&#45;&gt;Node3</title>
<g id="a_edge2_Node000002_Node000003"><a xlink:title=" ">
<path fill="none" stroke="#63b8ff" d="M118.27,-109.75C111.57,-102.18 101.69,-91.05 93.53,-81.84"/>
<polygon fill="#63b8ff" stroke="#63b8ff" points="95.9,-79.25 86.65,-74.09 90.67,-83.89 95.9,-79.25"/>
</a>
</g>
</g>
<!-- Node4 -->
<g id="Node000004" class="node">
<title>Node4</title>
<g id="a_Node000004"><a xlink:title=" ">
<polygon fill="#e0e0e0" stroke="#999999" points="67.03,-19 5.03,-19 5.03,0 67.03,0 67.03,-19"/>
<text text-anchor="middle" x="36.03" y="-7" font-family="Helvetica,sans-Serif" font-size="10.00">stdbool.h</text>
</a>
</g>
</g>
<!-- Node2&#45;&gt;Node4 -->
<g id="edge5_Node000002_Node000004" class="edge">
<title>Node2&#45;&gt;Node4</title>
<g id="a_edge5_Node000002_Node000004"><a xlink:title=" ">
<path fill="none" stroke="#63b8ff" d="M90.29,-116.14C61.72,-112.15 23.36,-101.62 4.03,-74 -6.62,-58.78 6.31,-39.51 18.77,-26.22"/>
<polygon fill="#63b8ff" stroke="#63b8ff" points="21.26,-28.69 25.88,-19.15 16.32,-23.72 21.26,-28.69"/>
</a>
</g>
</g>
<!-- Node5 -->
<g id="Node000005" class="node">
<title>Node5</title>
<g id="a_Node000005"><a xlink:title=" ">
<polygon fill="#e0e0e0" stroke="#999999" points="149.03,-19 93.03,-19 93.03,0 149.03,0 149.03,-19"/>
<text text-anchor="middle" x="121.03" y="-7" font-family="Helvetica,sans-Serif" font-size="10.00">stddef.h</text>
</a>
</g>
</g>
<!-- Node2&#45;&gt;Node5 -->
<g id="edge6_Node000002_Node000005" class="edge">
<title>Node2&#45;&gt;Node5</title>
<g id="a_edge6_Node000002_Node000005"><a xlink:title=" ">
<path fill="none" stroke="#63b8ff" d="M134.48,-109.67C144.96,-97.6 160.68,-75.14 154.03,-55 150.58,-44.54 143.61,-34.53 136.96,-26.66"/>
<polygon fill="#63b8ff" stroke="#63b8ff" points="139.36,-24.1 130.05,-19.04 134.18,-28.8 139.36,-24.1"/>
</a>
</g>
</g>
<!-- Node6 -->
<g id="Node000006" class="node">
<title>Node6</title>
<g id="a_Node000006"><a xlink:title=" ">
<polygon fill="#e0e0e0" stroke="#999999" points="254.53,-74 201.53,-74 201.53,-55 254.53,-55 254.53,-74"/>
<text text-anchor="middle" x="228.03" y="-62" font-family="Helvetica,sans-Serif" font-size="10.00">stdint.h</text>
</a>
</g>
</g>
<!-- Node2&#45;&gt;Node6 -->
<g id="edge7_Node000002_Node000006" class="edge">
<title>Node2&#45;&gt;Node6</title>
<g id="a_edge7_Node000002_Node000006"><a xlink:title=" ">
<path fill="none" stroke="#63b8ff" d="M142.42,-109.98C158.61,-101.57 183.6,-88.59 202.41,-78.81"/>
<polygon fill="#63b8ff" stroke="#63b8ff" points="204.09,-81.89 211.35,-74.17 200.86,-75.68 204.09,-81.89"/>
</a>
</g>
</g>
<!-- Node3&#45;&gt;Node4 -->
<g id="edge3_Node000003_Node000004" class="edge">
<title>Node3&#45;&gt;Node4</title>
<g id="a_edge3_Node000003_Node000004"><a xlink:title=" ">
<path fill="none" stroke="#63b8ff" d="M71.93,-54.75C65.86,-47.26 56.95,-36.28 49.52,-27.13"/>
<polygon fill="#63b8ff" stroke="#63b8ff" points="52.02,-24.65 43,-19.09 46.58,-29.06 52.02,-24.65"/>
</a>
</g>
</g>
<!-- Node3&#45;&gt;Node5 -->
<g id="edge4_Node000003_Node000005" class="edge">
<title>Node3&#45;&gt;Node5</title>
<g id="a_edge4_Node000003_Node000005"><a xlink:title=" ">
<path fill="none" stroke="#63b8ff" d="M85.97,-54.75C91.9,-47.26 100.61,-36.28 107.86,-27.13"/>
<polygon fill="#63b8ff" stroke="#63b8ff" points="110.76,-29.1 114.23,-19.09 105.27,-24.75 110.76,-29.1"/>
</a>
</g>
</g>
</g>
</svg>
</svg>

<style type='text/css'>
<![CDATA[
[data-mouse-over-selected='false'] { opacity: 0.7; }
[data-mouse-over-selected='true']  { opacity: 1.0; }
]]>
</style>
<script type="application/ecmascript"><![CDATA[
document.addEventListener('DOMContentLoaded', (event) => {
  highlightEdges();
  highlightAdjacentNodes();
});
]]></script>
</svg>
