<?xml version="1.0" encoding="UTF-8" standalone="no"?>
<!DOCTYPE svg PUBLIC "-//W3C//DTD SVG 1.1//EN"
 "http://www.w3.org/Graphics/SVG/1.1/DTD/svg11.dtd">
<!-- Generated by graphviz version 2.43.0 (0)
 -->
<!-- Title: eg/cookbook/Ch07_IntrospectWrapper.c Pages: 1 -->
<svg width="216pt" height="148pt"
 viewBox="0.00 0.00 216.00 148.00" xmlns="http://www.w3.org/2000/svg" xmlns:xlink="http://www.w3.org/1999/xlink">
<g id="graph0" class="graph" transform="scale(1 1) rotate(0) translate(4 144)">
<title>eg/cookbook/Ch07_IntrospectWrapper.c</title>
<!-- Node1 -->
<g id="Node000001" class="node">
<title>Node1</title>
<g id="a_Node000001"><a xlink:title="Cookbook Chapter 7: Introspecting a Trampoline for a Wrapper.">
<polygon fill="#999999" stroke="#666666" points="184.5,-140 23.5,-140 23.5,-110 184.5,-110 184.5,-140"/>
<text text-anchor="start" x="31.5" y="-128" font-family="Helvetica,sans-Serif" font-size="10.00">eg/cookbook/Ch07_Introspect</text>
<text text-anchor="middle" x="104" y="-117" font-family="Helvetica,sans-Serif" font-size="10.00">Wrapper.c</text>
</a>
</g>
</g>
<!-- Node2 -->
<g id="Node000002" class="node">
<title>Node2</title>
<g id="a_Node000002"><a xlink:href="infix_8h.html" target="_top" xlink:title="The public interface for the infix FFI library.">
<polygon fill="white" stroke="#666666" points="139.5,-74 68.5,-74 68.5,-55 139.5,-55 139.5,-74"/>
<text text-anchor="middle" x="104" y="-62" font-family="Helvetica,sans-Serif" font-size="10.00">infix/infix.h</text>
</a>
</g>
</g>
<!-- Node1&#45;&gt;Node2 -->
<g id="edge1_Node000001_Node000002" class="edge">
<title>Node1&#45;&gt;Node2</title>
<g id="a_edge1_Node000001_Node000002"><a xlink:title=" ">
<path fill="none" stroke="#63b8ff" d="M104,-109.84C104,-102.21 104,-92.7 104,-84.45"/>
<polygon fill="#63b8ff" stroke="#63b8ff" points="107.5,-84.27 104,-74.27 100.5,-84.27 107.5,-84.27"/>
</a>
</g>
</g>
<!-- Node3 -->
<g id="Node000003" class="node">
<title>Node3</title>
<g id="a_Node000003"><a xlink:title=" ">
<polygon fill="#e0e0e0" stroke="#999999" points="62,-19 0,-19 0,0 62,0 62,-19"/>
<text text-anchor="middle" x="31" y="-7" font-family="Helvetica,sans-Serif" font-size="10.00">stdbool.h</text>
</a>
</g>
</g>
<!-- Node1&#45;&gt;Node3 -->
<g id="edge5_Node000001_Node000003" class="edge">
<title>Node1&#45;&gt;Node3</title>
<g id="a_edge5_Node000001_Node000003"><a xlink:title=" ">
<path fill="none" stroke="#63b8ff" d="M88.87,-109.71C79.43,-100.22 67.5,-87.14 59,-74 49.8,-59.77 42.26,-42.01 37.33,-28.9"/>
<polygon fill="#63b8ff" stroke="#63b8ff" points="40.5,-27.38 33.82,-19.15 33.91,-29.75 40.5,-27.38"/>
</a>
</g>
</g>
<!-- Node6 -->
<g id="Node000006" class="node">
<title>Node6</title>
<g id="a_Node000006"><a xlink:title=" ">
<polygon fill="#e0e0e0" stroke="#999999" points="208,-74 158,-74 158,-55 208,-55 208,-74"/>
<text text-anchor="middle" x="183" y="-62" font-family="Helvetica,sans-Serif" font-size="10.00">stdio.h</text>
</a>
</g>
</g>
<!-- Node1&#45;&gt;Node6 -->
<g id="edge6_Node000001_Node000006" class="edge">
<title>Node1&#45;&gt;Node6</title>
<g id="a_edge6_Node000001_Node000006"><a xlink:title=" ">
<path fill="none" stroke="#63b8ff" d="M123.12,-109.84C135.18,-100.91 150.71,-89.41 162.94,-80.35"/>
<polygon fill="#63b8ff" stroke="#63b8ff" points="165.21,-83.03 171.16,-74.27 161.04,-77.4 165.21,-83.03"/>
</a>
</g>
</g>
<!-- Node2&#45;&gt;Node3 -->
<g id="edge2_Node000002_Node000003" class="edge">
<title>Node2&#45;&gt;Node3</title>
<g id="a_edge2_Node000002_Node000003"><a xlink:title=" ">
<path fill="none" stroke="#63b8ff" d="M92.27,-54.98C81.27,-47 64.58,-34.88 51.4,-25.31"/>
<polygon fill="#63b8ff" stroke="#63b8ff" points="53.09,-22.21 42.94,-19.17 48.98,-27.88 53.09,-22.21"/>
</a>
</g>
</g>
<!-- Node4 -->
<g id="Node000004" class="node">
<title>Node4</title>
<g id="a_Node000004"><a xlink:title=" ">
<polygon fill="#e0e0e0" stroke="#999999" points="136,-19 80,-19 80,0 136,0 136,-19"/>
<text text-anchor="middle" x="108" y="-7" font-family="Helvetica,sans-Serif" font-size="10.00">stddef.h</text>
</a>
</g>
</g>
<!-- Node2&#45;&gt;Node4 -->
<g id="edge3_Node000002_Node000004" class="edge">
<title>Node2&#45;&gt;Node4</title>
<g id="a_edge3_Node000002_Node000004"><a xlink:title=" ">
<path fill="none" stroke="#63b8ff" d="M104.66,-54.75C105.18,-47.8 105.94,-37.85 106.59,-29.13"/>
<polygon fill="#63b8ff" stroke="#63b8ff" points="110.09,-29.32 107.35,-19.09 103.11,-28.8 110.09,-29.32"/>
</a>
</g>
</g>
<!-- Node5 -->
<g id="Node000005" class="node">
<title>Node5</title>
<g id="a_Node000005"><a xlink:title=" ">
<polygon fill="#e0e0e0" stroke="#999999" points="207.5,-19 154.5,-19 154.5,0 207.5,0 207.5,-19"/>
<text text-anchor="middle" x="181" y="-7" font-family="Helvetica,sans-Serif" font-size="10.00">stdint.h</text>
</a>
</g>
</g>
<!-- Node2&#45;&gt;Node5 -->
<g id="edge4_Node000002_Node000005" class="edge">
<title>Node2&#45;&gt;Node5</title>
<g id="a_edge4_Node000002_Node000005"><a xlink:title=" ">
<path fill="none" stroke="#63b8ff" d="M116.37,-54.98C128.09,-46.92 145.92,-34.65 159.89,-25.03"/>
<polygon fill="#63b8ff" stroke="#63b8ff" points="162.15,-27.72 168.4,-19.17 158.18,-21.96 162.15,-27.72"/>
</a>
</g>
</g>
</g>
</svg>
