<?xml version="1.0" encoding="UTF-8" standalone="no"?>
<!DOCTYPE svg PUBLIC "-//W3C//DTD SVG 1.1//EN"
 "http://www.w3.org/Graphics/SVG/1.1/DTD/svg11.dtd">
<!-- Generated by graphviz version 2.43.0 (0)
 -->
<!-- Title: eg/cookbook/Ch08_Rec01_CustomAllocators.c Pages: 1 -->
<svg width="312pt" height="203pt"
 viewBox="0.00 0.00 311.50 203.00" xmlns="http://www.w3.org/2000/svg" xmlns:xlink="http://www.w3.org/1999/xlink">

<svg id="main" version="1.1" xmlns="http://www.w3.org/2000/svg" xmlns:xlink="http://www.w3.org/1999/xlink" xml:space="preserve" onload="init(evt)">
<style type="text/css"><![CDATA[
.node, .edge {opacity: 0.7;}
.node.selected, .edge.selected {opacity: 1;}
.edge:hover path { stroke: red; }
.edge:hover polygon { stroke: red; fill: red; }
]]></style>
<script type="application/ecmascript" xlink:href="svg.min.js"/>
<svg id="graph" class="graph">
<g id="graph0" class="graph" transform="scale(1 1) rotate(0) translate(4 199)">
<title>eg/cookbook/Ch08_Rec01_CustomAllocators.c</title>
<!-- Node1 -->
<g id="Node000001" class="node">
<title>Node1</title>
<g id="a_Node000001"><a xlink:title="Cookbook Chapter 8, Recipe 1: Using Custom Memory Allocators.">
<polygon fill="#999999" stroke="#666666" points="166,-195 24,-195 24,-165 166,-165 166,-195"/>
<text text-anchor="start" x="32" y="-183" font-family="Helvetica,sans-Serif" font-size="10.00">eg/cookbook/Ch08_Rec01</text>
<text text-anchor="middle" x="95" y="-172" font-family="Helvetica,sans-Serif" font-size="10.00">_CustomAllocators.c</text>
</a>
</g>
</g>
<!-- Node2 -->
<g id="Node000002" class="node">
<title>Node2</title>
<g id="a_Node000002"><a xlink:title=" ">
<polygon fill="#e0e0e0" stroke="#999999" points="50,-129 0,-129 0,-110 50,-110 50,-129"/>
<text text-anchor="middle" x="25" y="-117" font-family="Helvetica,sans-Serif" font-size="10.00">stdio.h</text>
</a>
</g>
</g>
<!-- Node1&#45;&gt;Node2 -->
<g id="edge1_Node000001_Node000002" class="edge">
<title>Node1&#45;&gt;Node2</title>
<g id="a_edge1_Node000001_Node000002"><a xlink:title=" ">
<path fill="none" stroke="#63b8ff" d="M78.05,-164.84C67.58,-156.09 54.14,-144.85 43.41,-135.88"/>
<polygon fill="#63b8ff" stroke="#63b8ff" points="45.41,-132.99 35.49,-129.27 40.92,-138.36 45.41,-132.99"/>
</a>
</g>
</g>
<!-- Node3 -->
<g id="Node000003" class="node">
<title>Node3</title>
<g id="a_Node000003"><a xlink:title=" ">
<polygon fill="#e0e0e0" stroke="#999999" points="121.5,-129 68.5,-129 68.5,-110 121.5,-110 121.5,-129"/>
<text text-anchor="middle" x="95" y="-117" font-family="Helvetica,sans-Serif" font-size="10.00">stdlib.h</text>
</a>
</g>
</g>
<!-- Node1&#45;&gt;Node3 -->
<g id="edge2_Node000001_Node000003" class="edge">
<title>Node1&#45;&gt;Node3</title>
<g id="a_edge2_Node000001_Node000003"><a xlink:title=" ">
<path fill="none" stroke="#63b8ff" d="M95,-164.84C95,-157.21 95,-147.7 95,-139.45"/>
<polygon fill="#63b8ff" stroke="#63b8ff" points="98.5,-139.27 95,-129.27 91.5,-139.27 98.5,-139.27"/>
</a>
</g>
</g>
<!-- Node4 -->
<g id="Node000004" class="node">
<title>Node4</title>
<g id="a_Node000004"><a xlink:href="infix_8h.html" target="_top" xlink:title="The public interface for the infix FFI library.">
<polygon fill="white" stroke="#666666" points="210.5,-129 139.5,-129 139.5,-110 210.5,-110 210.5,-129"/>
<text text-anchor="middle" x="175" y="-117" font-family="Helvetica,sans-Serif" font-size="10.00">infix/infix.h</text>
</a>
</g>
</g>
<!-- Node1&#45;&gt;Node4 -->
<g id="edge3_Node000001_Node000004" class="edge">
<title>Node1&#45;&gt;Node4</title>
<g id="a_edge3_Node000001_Node000004"><a xlink:title=" ">
<path fill="none" stroke="#63b8ff" d="M114.37,-164.84C126.57,-155.91 142.31,-144.41 154.69,-135.35"/>
<polygon fill="#63b8ff" stroke="#63b8ff" points="157.01,-137.99 163.01,-129.27 152.87,-132.34 157.01,-137.99"/>
</a>
</g>
</g>
<!-- Node5 -->
<g id="Node000005" class="node">
<title>Node5</title>
<g id="a_Node000005"><a xlink:href="compat__c23_8h.html" target="_top" xlink:title="Provides forward compatibility macros for C23 features.">
<polygon fill="white" stroke="#666666" points="193.5,-74 62.5,-74 62.5,-55 193.5,-55 193.5,-74"/>
<text text-anchor="middle" x="128" y="-62" font-family="Helvetica,sans-Serif" font-size="10.00">common/compat_c23.h</text>
</a>
</g>
</g>
<!-- Node4&#45;&gt;Node5 -->
<g id="edge4_Node000004_Node000005" class="edge">
<title>Node4&#45;&gt;Node5</title>
<g id="a_edge4_Node000004_Node000005"><a xlink:title=" ">
<path fill="none" stroke="#63b8ff" d="M167.24,-109.75C160.53,-102.18 150.66,-91.05 142.49,-81.84"/>
<polygon fill="#63b8ff" stroke="#63b8ff" points="144.87,-79.25 135.62,-74.09 139.63,-83.89 144.87,-79.25"/>
</a>
</g>
</g>
<!-- Node6 -->
<g id="Node000006" class="node">
<title>Node6</title>
<g id="a_Node000006"><a xlink:title=" ">
<polygon fill="#e0e0e0" stroke="#999999" points="116,-19 54,-19 54,0 116,0 116,-19"/>
<text text-anchor="middle" x="85" y="-7" font-family="Helvetica,sans-Serif" font-size="10.00">stdbool.h</text>
</a>
</g>
</g>
<!-- Node4&#45;&gt;Node6 -->
<g id="edge7_Node000004_Node000006" class="edge">
<title>Node4&#45;&gt;Node6</title>
<g id="a_edge7_Node000004_Node000006"><a xlink:title=" ">
<path fill="none" stroke="#63b8ff" d="M139.24,-110.27C107.01,-102.04 63.18,-88.55 53,-74 42.35,-58.78 55.28,-39.51 67.74,-26.22"/>
<polygon fill="#63b8ff" stroke="#63b8ff" points="70.22,-28.69 74.85,-19.15 65.29,-23.72 70.22,-28.69"/>
</a>
</g>
</g>
<!-- Node7 -->
<g id="Node000007" class="node">
<title>Node7</title>
<g id="a_Node000007"><a xlink:title=" ">
<polygon fill="#e0e0e0" stroke="#999999" points="198,-19 142,-19 142,0 198,0 198,-19"/>
<text text-anchor="middle" x="170" y="-7" font-family="Helvetica,sans-Serif" font-size="10.00">stddef.h</text>
</a>
</g>
</g>
<!-- Node4&#45;&gt;Node7 -->
<g id="edge8_Node000004_Node000007" class="edge">
<title>Node4&#45;&gt;Node7</title>
<g id="a_edge8_Node000004_Node000007"><a xlink:title=" ">
<path fill="none" stroke="#63b8ff" d="M183.44,-109.67C193.92,-97.6 209.65,-75.14 203,-55 199.54,-44.54 192.57,-34.53 185.92,-26.66"/>
<polygon fill="#63b8ff" stroke="#63b8ff" points="188.33,-24.1 179.02,-19.04 183.14,-28.8 188.33,-24.1"/>
</a>
</g>
</g>
<!-- Node8 -->
<g id="Node000008" class="node">
<title>Node8</title>
<g id="a_Node000008"><a xlink:title=" ">
<polygon fill="#e0e0e0" stroke="#999999" points="303.5,-74 250.5,-74 250.5,-55 303.5,-55 303.5,-74"/>
<text text-anchor="middle" x="277" y="-62" font-family="Helvetica,sans-Serif" font-size="10.00">stdint.h</text>
</a>
</g>
</g>
<!-- Node4&#45;&gt;Node8 -->
<g id="edge9_Node000004_Node000008" class="edge">
<title>Node4&#45;&gt;Node8</title>
<g id="a_edge9_Node000004_Node000008"><a xlink:title=" ">
<path fill="none" stroke="#63b8ff" d="M191.39,-109.98C207.57,-101.57 232.57,-88.59 251.38,-78.81"/>
<polygon fill="#63b8ff" stroke="#63b8ff" points="253.05,-81.89 260.31,-74.17 249.83,-75.68 253.05,-81.89"/>
</a>
</g>
</g>
<!-- Node5&#45;&gt;Node6 -->
<g id="edge5_Node000005_Node000006" class="edge">
<title>Node5&#45;&gt;Node6</title>
<g id="a_edge5_Node000005_Node000006"><a xlink:title=" ">
<path fill="none" stroke="#63b8ff" d="M120.9,-54.75C114.83,-47.26 105.91,-36.28 98.49,-27.13"/>
<polygon fill="#63b8ff" stroke="#63b8ff" points="100.99,-24.65 91.97,-19.09 95.55,-29.06 100.99,-24.65"/>
</a>
</g>
</g>
<!-- Node5&#45;&gt;Node7 -->
<g id="edge6_Node000005_Node000007" class="edge">
<title>Node5&#45;&gt;Node7</title>
<g id="a_edge6_Node000005_Node000007"><a xlink:title=" ">
<path fill="none" stroke="#63b8ff" d="M134.94,-54.75C140.87,-47.26 149.57,-36.28 156.82,-27.13"/>
<polygon fill="#63b8ff" stroke="#63b8ff" points="159.73,-29.1 163.19,-19.09 154.24,-24.75 159.73,-29.1"/>
</a>
</g>
</g>
</g>
</svg>
</svg>

<style type='text/css'>
<![CDATA[
[data-mouse-over-selected='false'] { opacity: 0.7; }
[data-mouse-over-selected='true']  { opacity: 1.0; }
]]>
</style>
<script type="application/ecmascript"><![CDATA[
document.addEventListener('DOMContentLoaded', (event) => {
  highlightEdges();
  highlightAdjacentNodes();
});
]]></script>
</svg>
