<?xml version="1.0" encoding="UTF-8" standalone="no"?>
<!DOCTYPE svg PUBLIC "-//W3C//DTD SVG 1.1//EN"
 "http://www.w3.org/Graphics/SVG/1.1/DTD/svg11.dtd">
<!-- Generated by graphviz version 2.43.0 (0)
 -->
<!-- Title: src/common/compat_c23.h Pages: 1 -->
<!--zoomable 269 -->

<svg id="main" version="1.1" xmlns="http://www.w3.org/2000/svg" xmlns:xlink="http://www.w3.org/1999/xlink" xml:space="preserve" onload="init(evt)">
<style type="text/css"><![CDATA[
.node, .edge {opacity: 0.7;}
.node.selected, .edge.selected {opacity: 1;}
.edge:hover path { stroke: red; }
.edge:hover polygon { stroke: red; fill: red; }
]]></style>

<defs>
  <circle id="rim" cx="0" cy="0" r="7"/>
  <circle id="rim2" cx="0" cy="0" r="3.5"/>
  <g id="zoomPlus">
    <use xlink:href="#rim" fill="#404040"><set attributeName="fill" to="#808080" begin="zoomplus.mouseover" end="zoomplus.mouseout"/></use>
    <path d="M-4,0h8M0,-4v8" fill="none" stroke="white" stroke-width="1.5" pointer-events="none"/>
  </g>
  <g id="zoomMin">
    <use xlink:href="#rim" fill="#404040"><set attributeName="fill" to="#808080" begin="zoomminus.mouseover" end="zoomminus.mouseout"/></use>
    <path d="M-4,0h8" fill="none" stroke="white" stroke-width="1.5" pointer-events="none"/>
  </g>
  <g id="arrowUp" transform="translate(30 24)">
    <use xlink:href="#rim"/>
    <path pointer-events="none" fill="none" stroke="white" stroke-width="1.5" d="M0,-3.0v7 M-2.5,-0.5L0,-3.0L2.5,-0.5"/>
  </g>
  <g id="arrowRight" transform="rotate(90) translate(36 -43)">
    <use xlink:href="#rim"/>
    <path pointer-events="none" fill="none" stroke="white" stroke-width="1.5" d="M0,-3.0v7 M-2.5,-0.5L0,-3.0L2.5,-0.5"/>
  </g>
  <g id="arrowDown" transform="rotate(180) translate(-30 -48)">
    <use xlink:href="#rim"/>
    <path pointer-events="none" fill="none" stroke="white" stroke-width="1.5" d="M0,-3.0v7 M-2.5,-0.5L0,-3.0L2.5,-0.5"/>
  </g>
  <g id="arrowLeft" transform="rotate(270) translate(-36 17)">
    <use xlink:href="#rim"/>
    <path pointer-events="none" fill="none" stroke="white" stroke-width="1.5" d="M0,-3.0v7 M-2.5,-0.5L0,-3.0L2.5,-0.5"/>
  </g>
  <g id="resetDef">
    <use xlink:href="#rim2" fill="#404040"><set attributeName="fill" to="#808080" begin="reset.mouseover" end="reset.mouseout"/></use>
  </g>
</defs>
<script type="application/ecmascript">
var viewWidth = 1605;
var viewHeight = 269;
var sectionId = 'dynsection-1';
</script>
<script type="application/ecmascript" xlink:href="svg.min.js"/>
<svg id="graph" class="graph">
<g id="viewport">
<title>src/common/compat_c23.h</title>
<!-- Node1 -->
<g id="Node000001" class="node">
<title>Node1</title>
<g id="a_Node000001"><a xlink:title="Provides compatibility shims for C23 features in a C17/C11 project.">
<polygon fill="#999999" stroke="#666666" points="800.5,-261 652.5,-261 652.5,-242 800.5,-242 800.5,-261"/>
<text text-anchor="middle" x="726.5" y="-249" font-family="Helvetica,sans-Serif" font-size="10.00">src/common/compat_c23.h</text>
</a>
</g>
</g>
<!-- Node2 -->
<g id="Node000002" class="node">
<title>Node2</title>
<g id="a_Node000002"><a xlink:href="infix_8h.html" target="_top" xlink:title=" ">
<polygon fill="white" stroke="#666666" points="943,-206 834,-206 834,-187 943,-187 943,-206"/>
<text text-anchor="middle" x="888.5" y="-194" font-family="Helvetica,sans-Serif" font-size="10.00">include/infix/infix.h</text>
</a>
</g>
</g>
<!-- Node1&#45;&gt;Node2 -->
<g id="edge1_Node000001_Node000002" class="edge">
<title>Node1&#45;&gt;Node2</title>
<g id="a_edge1_Node000001_Node000002"><a xlink:title=" ">
<path fill="none" stroke="#63b8ff" d="M762.27,-238.8C792.5,-228.91 835.11,-214.97 862.27,-206.08"/>
<polygon fill="#63b8ff" stroke="#63b8ff" points="760.94,-235.55 752.53,-241.98 763.12,-242.2 760.94,-235.55"/>
</a>
</g>
</g>
<!-- Node20 -->
<g id="Node000020" class="node">
<title>Node20</title>
<g id="a_Node000020"><a xlink:href="utility_8h.html" target="_top" xlink:title="A header for conditionally compiled debugging utilities.">
<polygon fill="white" stroke="#666666" points="622.5,-151 506.5,-151 506.5,-132 622.5,-132 622.5,-151"/>
<text text-anchor="middle" x="564.5" y="-139" font-family="Helvetica,sans-Serif" font-size="10.00">src/common/utility.h</text>
</a>
</g>
</g>
<!-- Node1&#45;&gt;Node20 -->
<g id="edge30_Node000001_Node000020" class="edge">
<title>Node1&#45;&gt;Node20</title>
<g id="a_edge30_Node000001_Node000020"><a xlink:title=" ">
<path fill="none" stroke="#63b8ff" d="M705.19,-236.3C671.14,-213.59 605.45,-169.8 577.55,-151.2"/>
<polygon fill="#63b8ff" stroke="#63b8ff" points="703.25,-239.21 713.52,-241.84 707.14,-233.39 703.25,-239.21"/>
</a>
</g>
</g>
<!-- Node3 -->
<g id="Node000003" class="node">
<title>Node3</title>
<g id="a_Node000003"><a xlink:href="infix__internals_8h.html" target="_top" xlink:title="Declarations for internal&#45;only functions, types, and constants.">
<polygon fill="white" stroke="#666666" points="967.5,-151 809.5,-151 809.5,-132 967.5,-132 967.5,-151"/>
<text text-anchor="middle" x="888.5" y="-139" font-family="Helvetica,sans-Serif" font-size="10.00">src/common/infix_internals.h</text>
</a>
</g>
</g>
<!-- Node2&#45;&gt;Node3 -->
<g id="edge2_Node000002_Node000003" class="edge">
<title>Node2&#45;&gt;Node3</title>
<g id="a_edge2_Node000002_Node000003"><a xlink:title=" ">
<path fill="none" stroke="#63b8ff" d="M888.5,-176.66C888.5,-167.93 888.5,-157.99 888.5,-151.09"/>
<polygon fill="#63b8ff" stroke="#63b8ff" points="885,-176.75 888.5,-186.75 892,-176.75 885,-176.75"/>
</a>
</g>
</g>
<!-- Node13 -->
<g id="Node000013" class="node">
<title>Node13</title>
<g id="a_Node000013"><a xlink:href="error_8c.html" target="_top" xlink:title="Implements the thread&#45;local error reporting system.">
<polygon fill="white" stroke="#666666" points="1597,-90.5 1508,-90.5 1508,-71.5 1597,-71.5 1597,-90.5"/>
<text text-anchor="middle" x="1552.5" y="-78.5" font-family="Helvetica,sans-Serif" font-size="10.00">src/core/error.c</text>
</a>
</g>
</g>
<!-- Node2&#45;&gt;Node13 -->
<g id="edge29_Node000002_Node000013" class="edge">
<title>Node2&#45;&gt;Node13</title>
<g id="a_edge29_Node000002_Node000013"><a xlink:title=" ">
<path fill="none" stroke="#63b8ff" d="M953.3,-187.05C1065.29,-171.98 1302,-138.06 1499.5,-96 1506.95,-94.41 1514.91,-92.45 1522.35,-90.5"/>
<polygon fill="#63b8ff" stroke="#63b8ff" points="952.63,-183.61 943.19,-188.41 953.56,-190.55 952.63,-183.61"/>
</a>
</g>
</g>
<!-- Node4 -->
<g id="Node000004" class="node">
<title>Node4</title>
<g id="a_Node000004"><a xlink:href="abi__arm64_8c.html" target="_top" xlink:title="Implements the FFI logic for the AArch64 (ARM64) architecture.">
<polygon fill="white" stroke="#666666" points="248,-30 133,-30 133,0 248,0 248,-30"/>
<text text-anchor="start" x="141" y="-18" font-family="Helvetica,sans-Serif" font-size="10.00">src/arch/aarch64/abi</text>
<text text-anchor="middle" x="190.5" y="-7" font-family="Helvetica,sans-Serif" font-size="10.00">_arm64.c</text>
</a>
</g>
</g>
<!-- Node3&#45;&gt;Node4 -->
<g id="edge3_Node000003_Node000004" class="edge">
<title>Node3&#45;&gt;Node4</title>
<g id="a_edge3_Node000003_Node000004"><a xlink:title=" ">
<path fill="none" stroke="#63b8ff" d="M798.84,-139.68C699.88,-137.09 536.44,-127.8 399.5,-96 332.89,-80.53 259.09,-48.52 219.46,-30.02"/>
<polygon fill="#63b8ff" stroke="#63b8ff" points="799.02,-143.19 809.1,-139.94 799.19,-136.19 799.02,-143.19"/>
</a>
</g>
</g>
<!-- Node5 -->
<g id="Node000005" class="node">
<title>Node5</title>
<g id="a_Node000005"><a xlink:href="abi__arm64__emitters_8h.html" target="_top" xlink:title="Declares internal helper functions for emitting AArch64 machine code.">
<polygon fill="white" stroke="#666666" points="248,-96 133,-96 133,-66 248,-66 248,-96"/>
<text text-anchor="start" x="141" y="-84" font-family="Helvetica,sans-Serif" font-size="10.00">src/arch/aarch64/abi</text>
<text text-anchor="middle" x="190.5" y="-73" font-family="Helvetica,sans-Serif" font-size="10.00">_arm64_emitters.h</text>
</a>
</g>
</g>
<!-- Node3&#45;&gt;Node5 -->
<g id="edge4_Node000003_Node000005" class="edge">
<title>Node3&#45;&gt;Node5</title>
<g id="a_edge4_Node000003_Node000005"><a xlink:title=" ">
<path fill="none" stroke="#63b8ff" d="M798.95,-133.63C690.07,-125.19 500.75,-110.24 338.5,-96 308.68,-93.38 275.49,-90.26 248.12,-87.63"/>
<polygon fill="#63b8ff" stroke="#63b8ff" points="798.99,-137.14 809.23,-134.43 799.53,-130.16 798.99,-137.14"/>
</a>
</g>
</g>
<!-- Node7 -->
<g id="Node000007" class="node">
<title>Node7</title>
<g id="a_Node000007"><a xlink:href="abi__sysv__x64_8c.html" target="_top" xlink:title="Implements the FFI logic for the System V AMD64 ABI.">
<polygon fill="white" stroke="#666666" points="523.5,-30 401.5,-30 401.5,0 523.5,0 523.5,-30"/>
<text text-anchor="start" x="409.5" y="-18" font-family="Helvetica,sans-Serif" font-size="10.00">src/arch/x64/abi_sysv</text>
<text text-anchor="middle" x="462.5" y="-7" font-family="Helvetica,sans-Serif" font-size="10.00">_x64.c</text>
</a>
</g>
</g>
<!-- Node3&#45;&gt;Node7 -->
<g id="edge7_Node000003_Node000007" class="edge">
<title>Node3&#45;&gt;Node7</title>
<g id="a_edge7_Node000003_Node000007"><a xlink:title=" ">
<path fill="none" stroke="#63b8ff" d="M799.32,-138.57C667.97,-134.8 435.18,-124.18 409.5,-96 390.53,-75.19 419.71,-46.99 441.73,-30.23"/>
<polygon fill="#63b8ff" stroke="#63b8ff" points="799.28,-142.07 809.37,-138.85 799.47,-135.08 799.28,-142.07"/>
</a>
</g>
</g>
<!-- Node8 -->
<g id="Node000008" class="node">
<title>Node8</title>
<g id="a_Node000008"><a xlink:href="abi__win__x64_8c.html" target="_top" xlink:title="Implements the FFI logic for the Windows x64 calling convention.">
<polygon fill="white" stroke="#666666" points="657.5,-30 541.5,-30 541.5,0 657.5,0 657.5,-30"/>
<text text-anchor="start" x="549.5" y="-18" font-family="Helvetica,sans-Serif" font-size="10.00">src/arch/x64/abi_win</text>
<text text-anchor="middle" x="599.5" y="-7" font-family="Helvetica,sans-Serif" font-size="10.00">_x64.c</text>
</a>
</g>
</g>
<!-- Node3&#45;&gt;Node8 -->
<g id="edge8_Node000003_Node000008" class="edge">
<title>Node3&#45;&gt;Node8</title>
<g id="a_edge8_Node000003_Node000008"><a xlink:title=" ">
<path fill="none" stroke="#63b8ff" d="M921.37,-127.47C934.8,-120.33 948.92,-110.02 956.5,-96 962.84,-84.27 965.25,-76.06 956.5,-66 918.46,-22.26 748.53,-15.64 657.51,-15.32"/>
<polygon fill="#63b8ff" stroke="#63b8ff" points="919.73,-124.38 912.28,-131.92 922.8,-130.67 919.73,-124.38"/>
</a>
</g>
</g>
<!-- Node9 -->
<g id="Node000009" class="node">
<title>Node9</title>
<g id="a_Node000009"><a xlink:href="abi__x64__emitters_8h.html" target="_top" xlink:title="Declares internal helper functions for emitting x86&#45;64 machine code.">
<polygon fill="white" stroke="#666666" points="536,-96 419,-96 419,-66 536,-66 536,-96"/>
<text text-anchor="start" x="427" y="-84" font-family="Helvetica,sans-Serif" font-size="10.00">src/arch/x64/abi_x64</text>
<text text-anchor="middle" x="477.5" y="-73" font-family="Helvetica,sans-Serif" font-size="10.00">_emitters.h</text>
</a>
</g>
</g>
<!-- Node3&#45;&gt;Node9 -->
<g id="edge9_Node000003_Node000009" class="edge">
<title>Node3&#45;&gt;Node9</title>
<g id="a_edge9_Node000003_Node000009"><a xlink:title=" ">
<path fill="none" stroke="#63b8ff" d="M818.81,-130.58C739.26,-119.26 610.55,-100.94 536,-90.33"/>
<polygon fill="#63b8ff" stroke="#63b8ff" points="818.34,-134.05 828.74,-131.99 819.33,-127.12 818.34,-134.05"/>
</a>
</g>
</g>
<!-- Node11 -->
<g id="Node000011" class="node">
<title>Node11</title>
<g id="a_Node000011"><a xlink:href="arena_8c.html" target="_top" xlink:title="Implementation of the internal arena allocator.">
<polygon fill="white" stroke="#666666" points="1098.5,-90.5 1004.5,-90.5 1004.5,-71.5 1098.5,-71.5 1098.5,-90.5"/>
<text text-anchor="middle" x="1051.5" y="-78.5" font-family="Helvetica,sans-Serif" font-size="10.00">src/core/arena.c</text>
</a>
</g>
</g>
<!-- Node3&#45;&gt;Node11 -->
<g id="edge13_Node000003_Node000011" class="edge">
<title>Node3&#45;&gt;Node11</title>
<g id="a_edge13_Node000003_Node000011"><a xlink:title=" ">
<path fill="none" stroke="#63b8ff" d="M921.87,-128.52C953.38,-117.21 999.87,-100.53 1027.77,-90.52"/>
<polygon fill="#63b8ff" stroke="#63b8ff" points="920.43,-125.32 912.2,-131.99 922.8,-131.91 920.43,-125.32"/>
</a>
</g>
</g>
<!-- Node3&#45;&gt;Node13 -->
<g id="edge15_Node000003_Node000013" class="edge">
<title>Node3&#45;&gt;Node13</title>
<g id="a_edge15_Node000003_Node000013"><a xlink:title=" ">
<path fill="none" stroke="#63b8ff" d="M977.86,-139.17C1097.44,-136.21 1315.76,-126.68 1499.5,-96 1507.57,-94.65 1516.2,-92.63 1524.1,-90.54"/>
<polygon fill="#63b8ff" stroke="#63b8ff" points="977.58,-135.68 967.66,-139.41 977.74,-142.67 977.58,-135.68"/>
</a>
</g>
</g>
<!-- Node14 -->
<g id="Node000014" class="node">
<title>Node14</title>
<g id="a_Node000014"><a xlink:href="executor_8c.html" target="_top" xlink:title="Implements OS&#45;level memory management and the internal callback dispatcher.">
<polygon fill="white" stroke="#666666" points="811,-90.5 704,-90.5 704,-71.5 811,-71.5 811,-90.5"/>
<text text-anchor="middle" x="757.5" y="-78.5" font-family="Helvetica,sans-Serif" font-size="10.00">src/core/executor.c</text>
</a>
</g>
</g>
<!-- Node3&#45;&gt;Node14 -->
<g id="edge17_Node000003_Node000014" class="edge">
<title>Node3&#45;&gt;Node14</title>
<g id="a_edge17_Node000003_Node000014"><a xlink:title=" ">
<path fill="none" stroke="#63b8ff" d="M860.02,-127.78C834.74,-116.49 798.51,-100.31 776.57,-90.52"/>
<polygon fill="#63b8ff" stroke="#63b8ff" points="858.89,-131.11 869.45,-131.99 861.75,-124.72 858.89,-131.11"/>
</a>
</g>
</g>
<!-- Node15 -->
<g id="Node000015" class="node">
<title>Node15</title>
<g id="a_Node000015"><a xlink:href="loader_8c.html" target="_top" xlink:title="Implements the cross&#45;platform dynamic library loading and symbol resolution API.">
<polygon fill="white" stroke="#666666" points="1212.5,-90.5 1116.5,-90.5 1116.5,-71.5 1212.5,-71.5 1212.5,-90.5"/>
<text text-anchor="middle" x="1164.5" y="-78.5" font-family="Helvetica,sans-Serif" font-size="10.00">src/core/loader.c</text>
</a>
</g>
</g>
<!-- Node3&#45;&gt;Node15 -->
<g id="edge19_Node000003_Node000015" class="edge">
<title>Node3&#45;&gt;Node15</title>
<g id="a_edge19_Node000003_Node000015"><a xlink:title=" ">
<path fill="none" stroke="#63b8ff" d="M943.07,-130.05C987.46,-121.39 1051.66,-108.53 1107.5,-96 1115.06,-94.3 1123.15,-92.38 1130.8,-90.52"/>
<polygon fill="#63b8ff" stroke="#63b8ff" points="942.22,-126.65 933.07,-131.99 943.56,-133.52 942.22,-126.65"/>
</a>
</g>
</g>
<!-- Node16 -->
<g id="Node000016" class="node">
<title>Node16</title>
<g id="a_Node000016"><a xlink:href="signature_8c.html" target="_top" xlink:title="Implements the high&#45;level signature string parser.">
<polygon fill="white" stroke="#666666" points="1342.5,-90.5 1230.5,-90.5 1230.5,-71.5 1342.5,-71.5 1342.5,-90.5"/>
<text text-anchor="middle" x="1286.5" y="-78.5" font-family="Helvetica,sans-Serif" font-size="10.00">src/core/signature.c</text>
</a>
</g>
</g>
<!-- Node3&#45;&gt;Node16 -->
<g id="edge21_Node000003_Node000016" class="edge">
<title>Node3&#45;&gt;Node16</title>
<g id="a_edge21_Node000003_Node000016"><a xlink:title=" ">
<path fill="none" stroke="#63b8ff" d="M975.62,-130.77C1042.97,-122.79 1138.42,-110.47 1221.5,-96 1230.6,-94.41 1240.36,-92.45 1249.48,-90.51"/>
<polygon fill="#63b8ff" stroke="#63b8ff" points="975,-127.32 965.48,-131.97 975.82,-134.28 975,-127.32"/>
</a>
</g>
</g>
<!-- Node17 -->
<g id="Node000017" class="node">
<title>Node17</title>
<g id="a_Node000017"><a xlink:href="trampoline_8c.html" target="_top" xlink:title="The core engine for JIT compiling FFI trampolines.">
<polygon fill="white" stroke="#666666" points="948,-90.5 829,-90.5 829,-71.5 948,-71.5 948,-90.5"/>
<text text-anchor="middle" x="888.5" y="-78.5" font-family="Helvetica,sans-Serif" font-size="10.00">src/core/trampoline.c</text>
</a>
</g>
</g>
<!-- Node3&#45;&gt;Node17 -->
<g id="edge23_Node000003_Node000017" class="edge">
<title>Node3&#45;&gt;Node17</title>
<g id="a_edge23_Node000003_Node000017"><a xlink:title=" ">
<path fill="none" stroke="#63b8ff" d="M888.5,-121.66C888.5,-111.24 888.5,-98.8 888.5,-90.67"/>
<polygon fill="#63b8ff" stroke="#63b8ff" points="885,-121.87 888.5,-131.87 892,-121.87 885,-121.87"/>
</a>
</g>
</g>
<!-- Node18 -->
<g id="Node000018" class="node">
<title>Node18</title>
<g id="a_Node000018"><a xlink:href="type__registry_8c.html" target="_top" xlink:title="Implements the named type registry and definition parser.">
<polygon fill="white" stroke="#666666" points="1490,-90.5 1361,-90.5 1361,-71.5 1490,-71.5 1490,-90.5"/>
<text text-anchor="middle" x="1425.5" y="-78.5" font-family="Helvetica,sans-Serif" font-size="10.00">src/core/type_registry.c</text>
</a>
</g>
</g>
<!-- Node3&#45;&gt;Node18 -->
<g id="edge25_Node000003_Node000018" class="edge">
<title>Node3&#45;&gt;Node18</title>
<g id="a_edge25_Node000003_Node000018"><a xlink:title=" ">
<path fill="none" stroke="#63b8ff" d="M977.8,-134.34C1071.25,-127.34 1222.1,-114.42 1351.5,-96 1362.11,-94.49 1373.52,-92.51 1384.12,-90.52"/>
<polygon fill="#63b8ff" stroke="#63b8ff" points="977.53,-130.85 967.82,-135.09 978.05,-137.84 977.53,-130.85"/>
</a>
</g>
</g>
<!-- Node19 -->
<g id="Node000019" class="node">
<title>Node19</title>
<g id="a_Node000019"><a xlink:href="types_8c.html" target="_top" xlink:title="Implements the public API for creating and managing type descriptions.">
<polygon fill="white" stroke="#666666" points="686,-90.5 593,-90.5 593,-71.5 686,-71.5 686,-90.5"/>
<text text-anchor="middle" x="639.5" y="-78.5" font-family="Helvetica,sans-Serif" font-size="10.00">src/core/types.c</text>
</a>
</g>
</g>
<!-- Node3&#45;&gt;Node19 -->
<g id="edge27_Node000003_Node000019" class="edge">
<title>Node3&#45;&gt;Node19</title>
<g id="a_edge27_Node000003_Node000019"><a xlink:title=" ">
<path fill="none" stroke="#63b8ff" d="M840.31,-129.78C801.01,-120.96 744.09,-108 694.5,-96 687.41,-94.29 679.83,-92.39 672.62,-90.57"/>
<polygon fill="#63b8ff" stroke="#63b8ff" points="839.63,-133.22 850.15,-131.99 841.16,-126.38 839.63,-133.22"/>
</a>
</g>
</g>
<!-- Node5&#45;&gt;Node4 -->
<g id="edge5_Node000005_Node000004" class="edge">
<title>Node5&#45;&gt;Node4</title>
<g id="a_edge5_Node000005_Node000004"><a xlink:title=" ">
<path fill="none" stroke="#63b8ff" d="M190.5,-55.54C190.5,-46.96 190.5,-37.61 190.5,-30.16"/>
<polygon fill="#63b8ff" stroke="#63b8ff" points="187,-55.8 190.5,-65.8 194,-55.8 187,-55.8"/>
</a>
</g>
</g>
<!-- Node6 -->
<g id="Node000006" class="node">
<title>Node6</title>
<g id="a_Node000006"><a xlink:href="abi__arm64__emitters_8c.html" target="_top" xlink:title="Implements internal helper functions for emitting AArch64 machine code.">
<polygon fill="white" stroke="#666666" points="115,-30 0,-30 0,0 115,0 115,-30"/>
<text text-anchor="start" x="8" y="-18" font-family="Helvetica,sans-Serif" font-size="10.00">src/arch/aarch64/abi</text>
<text text-anchor="middle" x="57.5" y="-7" font-family="Helvetica,sans-Serif" font-size="10.00">_arm64_emitters.c</text>
</a>
</g>
</g>
<!-- Node5&#45;&gt;Node6 -->
<g id="edge6_Node000005_Node000006" class="edge">
<title>Node5&#45;&gt;Node6</title>
<g id="a_edge6_Node000005_Node000006"><a xlink:title=" ">
<path fill="none" stroke="#63b8ff" d="M152.08,-61.51C131.22,-51.47 105.83,-39.26 86.62,-30.01"/>
<polygon fill="#63b8ff" stroke="#63b8ff" points="150.78,-64.77 161.31,-65.95 153.82,-58.46 150.78,-64.77"/>
</a>
</g>
</g>
<!-- Node9&#45;&gt;Node7 -->
<g id="edge10_Node000009_Node000007" class="edge">
<title>Node9&#45;&gt;Node7</title>
<g id="a_edge10_Node000009_Node000007"><a xlink:title=" ">
<path fill="none" stroke="#63b8ff" d="M471.83,-55.83C469.81,-47.17 467.59,-37.7 465.82,-30.16"/>
<polygon fill="#63b8ff" stroke="#63b8ff" points="468.48,-56.86 474.17,-65.8 475.3,-55.26 468.48,-56.86"/>
</a>
</g>
</g>
<!-- Node9&#45;&gt;Node8 -->
<g id="edge11_Node000009_Node000008" class="edge">
<title>Node9&#45;&gt;Node8</title>
<g id="a_edge11_Node000009_Node000008"><a xlink:title=" ">
<path fill="none" stroke="#63b8ff" d="M513.26,-61.24C532.3,-51.25 555.32,-39.18 572.79,-30.01"/>
<polygon fill="#63b8ff" stroke="#63b8ff" points="511.5,-58.21 504.27,-65.95 514.75,-64.41 511.5,-58.21"/>
</a>
</g>
</g>
<!-- Node10 -->
<g id="Node000010" class="node">
<title>Node10</title>
<g id="a_Node000010"><a xlink:href="abi__x64__emitters_8c.html" target="_top" xlink:title="Implements internal helper functions for emitting x86&#45;64 machine code.">
<polygon fill="white" stroke="#666666" points="383,-30 266,-30 266,0 383,0 383,-30"/>
<text text-anchor="start" x="274" y="-18" font-family="Helvetica,sans-Serif" font-size="10.00">src/arch/x64/abi_x64</text>
<text text-anchor="middle" x="324.5" y="-7" font-family="Helvetica,sans-Serif" font-size="10.00">_emitters.c</text>
</a>
</g>
</g>
<!-- Node9&#45;&gt;Node10 -->
<g id="edge12_Node000009_Node000010" class="edge">
<title>Node9&#45;&gt;Node10</title>
<g id="a_edge12_Node000009_Node000010"><a xlink:title=" ">
<path fill="none" stroke="#63b8ff" d="M434.6,-62.05C410.36,-51.91 380.5,-39.43 358,-30.01"/>
<polygon fill="#63b8ff" stroke="#63b8ff" points="433.35,-65.32 443.92,-65.95 436.05,-58.87 433.35,-65.32"/>
</a>
</g>
</g>
<!-- Node12 -->
<g id="Node000012" class="node">
<title>Node12</title>
<g id="a_Node000012"><a xlink:href="infix_8c.html" target="_top" xlink:title="The unity build source file for the infix library.">
<polygon fill="white" stroke="#666666" points="1139,-24.5 1076,-24.5 1076,-5.5 1139,-5.5 1139,-24.5"/>
<text text-anchor="middle" x="1107.5" y="-12.5" font-family="Helvetica,sans-Serif" font-size="10.00">src/infix.c</text>
</a>
</g>
</g>
<!-- Node11&#45;&gt;Node12 -->
<g id="edge14_Node000011_Node000012" class="edge">
<title>Node11&#45;&gt;Node12</title>
<g id="a_edge14_Node000011_Node000012"><a xlink:title=" ">
<path fill="none" stroke="#63b8ff" d="M1065.83,-63.62C1076.61,-51.31 1090.97,-34.89 1099.71,-24.91"/>
<polygon fill="#63b8ff" stroke="#63b8ff" points="1063,-61.54 1059.05,-71.37 1068.27,-66.15 1063,-61.54"/>
</a>
</g>
</g>
<!-- Node13&#45;&gt;Node12 -->
<g id="edge16_Node000013_Node000012" class="edge">
<title>Node13&#45;&gt;Node12</title>
<g id="a_edge16_Node000013_Node000012"><a xlink:title=" ">
<path fill="none" stroke="#63b8ff" d="M1513.1,-68.98C1508.53,-67.89 1503.93,-66.86 1499.5,-66 1366.84,-40.14 1206.22,-24.47 1139.23,-18.62"/>
<polygon fill="#63b8ff" stroke="#63b8ff" points="1512.39,-72.41 1522.95,-71.46 1514.1,-65.63 1512.39,-72.41"/>
</a>
</g>
</g>
<!-- Node14&#45;&gt;Node12 -->
<g id="edge18_Node000014_Node000012" class="edge">
<title>Node14&#45;&gt;Node12</title>
<g id="a_edge18_Node000014_Node000012"><a xlink:title=" ">
<path fill="none" stroke="#63b8ff" d="M803.85,-69.27C809.12,-68.13 814.42,-67.01 819.5,-66 912.31,-47.48 1022.75,-29.41 1075.87,-20.96"/>
<polygon fill="#63b8ff" stroke="#63b8ff" points="802.84,-65.91 793.83,-71.48 804.34,-72.74 802.84,-65.91"/>
</a>
</g>
</g>
<!-- Node15&#45;&gt;Node12 -->
<g id="edge20_Node000015_Node000012" class="edge">
<title>Node15&#45;&gt;Node12</title>
<g id="a_edge20_Node000015_Node000012"><a xlink:title=" ">
<path fill="none" stroke="#63b8ff" d="M1149.91,-63.62C1138.94,-51.31 1124.33,-34.89 1115.43,-24.91"/>
<polygon fill="#63b8ff" stroke="#63b8ff" points="1147.55,-66.23 1156.81,-71.37 1152.78,-61.57 1147.55,-66.23"/>
</a>
</g>
</g>
<!-- Node16&#45;&gt;Node12 -->
<g id="edge22_Node000016_Node000012" class="edge">
<title>Node16&#45;&gt;Node12</title>
<g id="a_edge22_Node000016_Node000012"><a xlink:title=" ">
<path fill="none" stroke="#63b8ff" d="M1252.94,-68C1217.59,-55.36 1162.81,-35.78 1131.54,-24.6"/>
<polygon fill="#63b8ff" stroke="#63b8ff" points="1251.76,-71.3 1262.36,-71.37 1254.12,-64.71 1251.76,-71.3"/>
</a>
</g>
</g>
<!-- Node17&#45;&gt;Node12 -->
<g id="edge24_Node000017_Node000012" class="edge">
<title>Node17&#45;&gt;Node12</title>
<g id="a_edge24_Node000017_Node000012"><a xlink:title=" ">
<path fill="none" stroke="#63b8ff" d="M927.63,-68.56C970.8,-55.95 1039.26,-35.94 1078.08,-24.6"/>
<polygon fill="#63b8ff" stroke="#63b8ff" points="926.65,-65.2 918.04,-71.37 928.62,-71.92 926.65,-65.2"/>
</a>
</g>
</g>
<!-- Node18&#45;&gt;Node12 -->
<g id="edge26_Node000018_Node000012" class="edge">
<title>Node18&#45;&gt;Node12</title>
<g id="a_edge26_Node000018_Node000012"><a xlink:title=" ">
<path fill="none" stroke="#63b8ff" d="M1373.08,-69.45C1306.58,-56.07 1193.98,-33.4 1139.25,-22.39"/>
<polygon fill="#63b8ff" stroke="#63b8ff" points="1372.45,-72.89 1382.94,-71.44 1373.83,-66.03 1372.45,-72.89"/>
</a>
</g>
</g>
<!-- Node19&#45;&gt;Node12 -->
<g id="edge28_Node000019_Node000012" class="edge">
<title>Node19&#45;&gt;Node12</title>
<g id="a_edge28_Node000019_Node000012"><a xlink:title=" ">
<path fill="none" stroke="#63b8ff" d="M680.01,-69.06C684.87,-67.93 689.78,-66.88 694.5,-66 835.6,-39.61 1006.54,-24.06 1075.94,-18.42"/>
<polygon fill="#63b8ff" stroke="#63b8ff" points="679.07,-65.69 670.18,-71.45 680.72,-72.49 679.07,-65.69"/>
</a>
</g>
</g>
<!-- Node20&#45;&gt;Node4 -->
<g id="edge31_Node000020_Node000004" class="edge">
<title>Node20&#45;&gt;Node4</title>
<g id="a_edge31_Node000020_Node000004"><a xlink:title=" ">
<path fill="none" stroke="#63b8ff" d="M496.14,-138.54C378.51,-134.47 147.98,-123.08 123.5,-96 103.21,-73.56 137.9,-46.35 164.48,-30.15"/>
<polygon fill="#63b8ff" stroke="#63b8ff" points="496.36,-142.05 506.48,-138.89 496.6,-135.06 496.36,-142.05"/>
</a>
</g>
</g>
<!-- Node20&#45;&gt;Node6 -->
<g id="edge32_Node000020_Node000006" class="edge">
<title>Node20&#45;&gt;Node6</title>
<g id="a_edge32_Node000020_Node000006"><a xlink:title=" ">
<path fill="none" stroke="#63b8ff" d="M495.95,-140.62C386.12,-139.69 176.66,-132.94 113.5,-96 87.74,-80.94 70.93,-48.77 62.94,-30.14"/>
<polygon fill="#63b8ff" stroke="#63b8ff" points="496.23,-144.13 506.26,-140.7 496.28,-137.13 496.23,-144.13"/>
</a>
</g>
</g>
<!-- Node20&#45;&gt;Node7 -->
<g id="edge33_Node000020_Node000007" class="edge">
<title>Node20&#45;&gt;Node7</title>
<g id="a_edge33_Node000020_Node000007"><a xlink:title=" ">
<path fill="none" stroke="#63b8ff" d="M496.41,-133.25C448.91,-126.62 391.46,-114.91 376.5,-96 356.07,-70.17 395.64,-45.09 427.64,-30.1"/>
<polygon fill="#63b8ff" stroke="#63b8ff" points="496,-136.72 506.38,-134.58 496.93,-129.78 496,-136.72"/>
</a>
</g>
</g>
<!-- Node20&#45;&gt;Node8 -->
<g id="edge34_Node000020_Node000008" class="edge">
<title>Node20&#45;&gt;Node8</title>
<g id="a_edge34_Node000020_Node000008"><a xlink:title=" ">
<path fill="none" stroke="#63b8ff" d="M568.98,-121.62C572.65,-106.51 578.1,-84.81 583.5,-66 586.97,-53.91 591.35,-40.33 594.65,-30.37"/>
<polygon fill="#63b8ff" stroke="#63b8ff" points="565.49,-121.2 566.55,-131.74 572.29,-122.83 565.49,-121.2"/>
</a>
</g>
</g>
<!-- Node20&#45;&gt;Node10 -->
<g id="edge35_Node000020_Node000010" class="edge">
<title>Node20&#45;&gt;Node10</title>
<g id="a_edge35_Node000020_Node000010"><a xlink:title=" ">
<path fill="none" stroke="#63b8ff" d="M495.96,-138.95C455.08,-134.86 404.17,-123.87 367.5,-96 345.66,-79.4 333.64,-48.41 328.19,-30.26"/>
<polygon fill="#63b8ff" stroke="#63b8ff" points="495.85,-142.45 506.12,-139.84 496.47,-135.48 495.85,-142.45"/>
</a>
</g>
</g>
<!-- Node20&#45;&gt;Node14 -->
<g id="edge36_Node000020_Node000014" class="edge">
<title>Node20&#45;&gt;Node14</title>
<g id="a_edge36_Node000020_Node000014"><a xlink:title=" ">
<path fill="none" stroke="#63b8ff" d="M602.56,-128.96C639.89,-117.65 695.94,-100.66 729.4,-90.52"/>
<polygon fill="#63b8ff" stroke="#63b8ff" points="601.12,-125.74 592.56,-131.99 603.15,-132.44 601.12,-125.74"/>
</a>
</g>
</g>
<!-- Node20&#45;&gt;Node17 -->
<g id="edge37_Node000020_Node000017" class="edge">
<title>Node20&#45;&gt;Node17</title>
<g id="a_edge37_Node000020_Node000017"><a xlink:title=" ">
<path fill="none" stroke="#63b8ff" d="M625.87,-130.28C677.57,-121.55 753.47,-108.46 819.5,-96 828.51,-94.3 838.16,-92.4 847.31,-90.55"/>
<polygon fill="#63b8ff" stroke="#63b8ff" points="625.14,-126.85 615.86,-131.96 626.3,-133.75 625.14,-126.85"/>
</a>
</g>
</g>
<!-- Node20&#45;&gt;Node19 -->
<g id="edge38_Node000020_Node000019" class="edge">
<title>Node20&#45;&gt;Node19</title>
<g id="a_edge38_Node000020_Node000019"><a xlink:title=" ">
<path fill="none" stroke="#63b8ff" d="M583.68,-125.54C597.85,-114.49 616.63,-99.84 628.39,-90.67"/>
<polygon fill="#63b8ff" stroke="#63b8ff" points="581.3,-122.96 575.57,-131.87 585.6,-128.48 581.3,-122.96"/>
</a>
</g>
</g>
</g>
</svg>

<g id="navigator" transform="translate(0 0)" fill="#404254">
  <rect fill="#f2f5e9" fill-opacity="0.5" stroke="#606060" stroke-width=".5" x="0" y="0" width="60" height="60"/>
  <use id="zoomplus" xlink:href="#zoomPlus" x="17" y="9" onmousedown="handleZoom(evt,'in')"/>
  <use id="zoomminus" xlink:href="#zoomMin" x="42" y="9" onmousedown="handleZoom(evt,'out')"/>
  <use id="reset" xlink:href="#resetDef" x="30" y="36" onmousedown="handleReset()"/>
   <use id="arrowup" xlink:href="#arrowUp" x="0" y="0" onmousedown="handlePan(0,-1)"/>
  <use id="arrowright" xlink:href="#arrowRight" x="0" y="0" onmousedown="handlePan(1,0)"/>
  <use id="arrowdown" xlink:href="#arrowDown" x="0" y="0" onmousedown="handlePan(0,1)"/>
  <use id="arrowleft" xlink:href="#arrowLeft" x="0" y="0" onmousedown="handlePan(-1,0)"/>
</g>
<svg viewBox="0 0 15 15" width="100%" height="30px" preserveAspectRatio="xMaxYMin meet">
 <g id="arrow_out" transform="scale(0.3 0.3)">
  <a xlink:href="compat__c23_8h__dep__incl_org.svg" target="_base">
   <rect id="button" ry="5" rx="5" y="6" x="6" height="38" width="38"
        fill="#f2f5e9" fill-opacity="0.5" stroke="#606060" stroke-width="1.0"/>
   <path id="arrow"
     d="M 11.500037,31.436501 C 11.940474,20.09759 22.043105,11.32322 32.158766,21.979434 L 37.068811,17.246167 C 37.068811,17.246167 37.088388,32 37.088388,32 L 22.160133,31.978069 C 22.160133,31.978069 26.997745,27.140456 26.997745,27.140456 C 18.528582,18.264221 13.291696,25.230495 11.500037,31.436501 z"
     style="fill:#404040;"/>
  </a>
 </g>
</svg>

<style type='text/css'>
<![CDATA[
[data-mouse-over-selected='false'] { opacity: 0.7; }
[data-mouse-over-selected='true']  { opacity: 1.0; }
]]>
</style>
<script type="application/ecmascript"><![CDATA[
document.addEventListener('DOMContentLoaded', (event) => {
  highlightEdges();
  highlightAdjacentNodes();
});
]]></script>
</svg>
