<?xml version="1.0" encoding="UTF-8" standalone="no"?>
<!DOCTYPE svg PUBLIC "-//W3C//DTD SVG 1.1//EN"
 "http://www.w3.org/Graphics/SVG/1.1/DTD/svg11.dtd">
<!-- Generated by graphviz version 2.43.0 (0)
 -->
<!-- Title: src/common/compat_c23.h Pages: 1 -->
<svg width="8262pt" height="258pt"
 viewBox="0.00 0.00 8261.50 258.00" xmlns="http://www.w3.org/2000/svg" xmlns:xlink="http://www.w3.org/1999/xlink">
<g id="graph0" class="graph" transform="scale(1 1) rotate(0) translate(4 254)">
<title>src/common/compat_c23.h</title>
<!-- Node1 -->
<g id="Node000001" class="node">
<title>Node1</title>
<g id="a_Node000001"><a xlink:title="Provides forward compatibility macros for C23 features.">
<polygon fill="#999999" stroke="#666666" points="6379.5,-250 6231.5,-250 6231.5,-231 6379.5,-231 6379.5,-250"/>
<text text-anchor="middle" x="6305.5" y="-238" font-family="Helvetica,sans-Serif" font-size="10.00">src/common/compat_c23.h</text>
</a>
</g>
</g>
<!-- Node2 -->
<g id="Node000002" class="node">
<title>Node2</title>
<g id="a_Node000002"><a xlink:href="infix_8h.html" target="_top" xlink:title="The public interface for the infix FFI library.">
<polygon fill="#fff0f0" stroke="red" points="4353,-195 4244,-195 4244,-176 4353,-176 4353,-195"/>
<text text-anchor="middle" x="4298.5" y="-183" font-family="Helvetica,sans-Serif" font-size="10.00">include/infix/infix.h</text>
</a>
</g>
</g>
<!-- Node1&#45;&gt;Node2 -->
<g id="edge1_Node000001_Node000002" class="edge">
<title>Node1&#45;&gt;Node2</title>
<g id="a_edge1_Node000001_Node000002"><a xlink:title=" ">
<path fill="none" stroke="#63b8ff" d="M6221.18,-237.27C5883.04,-228.34 4630.28,-195.26 4353.05,-187.94"/>
<polygon fill="#63b8ff" stroke="#63b8ff" points="6221.3,-240.78 6231.39,-237.54 6221.49,-233.78 6221.3,-240.78"/>
</a>
</g>
</g>
<!-- Node104 -->
<g id="Node000104" class="node">
<title>Node104</title>
<g id="a_Node000104"><a xlink:href="platform_8h.html" target="_top" xlink:title="Declares internal, runtime CPU/OS feature detection functions.">
<polygon fill="#fff0f0" stroke="red" points="6371,-195 6240,-195 6240,-176 6371,-176 6371,-195"/>
<text text-anchor="middle" x="6305.5" y="-183" font-family="Helvetica,sans-Serif" font-size="10.00">src/common/platform.h</text>
</a>
</g>
</g>
<!-- Node1&#45;&gt;Node104 -->
<g id="edge50_Node000001_Node000104" class="edge">
<title>Node1&#45;&gt;Node104</title>
<g id="a_edge50_Node000001_Node000104"><a xlink:title=" ">
<path fill="none" stroke="#63b8ff" d="M6305.5,-220.66C6305.5,-211.93 6305.5,-201.99 6305.5,-195.09"/>
<polygon fill="#63b8ff" stroke="#63b8ff" points="6302,-220.75 6305.5,-230.75 6309,-220.75 6302,-220.75"/>
</a>
</g>
</g>
<!-- Node106 -->
<g id="Node000106" class="node">
<title>Node106</title>
<g id="a_Node000106"><a xlink:href="utility_8h.html" target="_top" xlink:title="A header for conditionally compiled debugging utilities.">
<polygon fill="#fff0f0" stroke="red" points="6505.5,-195 6389.5,-195 6389.5,-176 6505.5,-176 6505.5,-195"/>
<text text-anchor="middle" x="6447.5" y="-183" font-family="Helvetica,sans-Serif" font-size="10.00">src/common/utility.h</text>
</a>
</g>
</g>
<!-- Node1&#45;&gt;Node106 -->
<g id="edge52_Node000001_Node000106" class="edge">
<title>Node1&#45;&gt;Node106</title>
<g id="a_edge52_Node000001_Node000106"><a xlink:title=" ">
<path fill="none" stroke="#63b8ff" d="M6337.86,-227.42C6364.21,-217.59 6400.76,-203.95 6424.27,-195.17"/>
<polygon fill="#63b8ff" stroke="#63b8ff" points="6336.46,-224.21 6328.31,-230.98 6338.91,-230.77 6336.46,-224.21"/>
</a>
</g>
</g>
<!-- Node3 -->
<g id="Node000003" class="node">
<title>Node3</title>
<g id="a_Node000003"><a xlink:href="Ch01__OpaquePointers_8c.html" target="_top" xlink:title="Cookbook Chapter 1: Working with Opaque Pointers.">
<polygon fill="white" stroke="#666666" points="8077,-134.5 7880,-134.5 7880,-115.5 8077,-115.5 8077,-134.5"/>
<text text-anchor="middle" x="7978.5" y="-122.5" font-family="Helvetica,sans-Serif" font-size="10.00">eg/cookbook/Ch01_OpaquePointers.c</text>
</a>
</g>
</g>
<!-- Node2&#45;&gt;Node3 -->
<g id="edge2_Node000002_Node000003" class="edge">
<title>Node2&#45;&gt;Node3</title>
<g id="a_edge2_Node000002_Node000003"><a xlink:title=" ">
<path fill="none" stroke="#63b8ff" d="M4363.36,-184.12C4816.68,-181.44 7503.6,-164.6 7865.5,-140 7883.25,-138.79 7902.49,-136.7 7919.97,-134.5"/>
<polygon fill="#63b8ff" stroke="#63b8ff" points="4363.05,-180.63 4353.07,-184.19 4363.09,-187.63 4363.05,-180.63"/>
</a>
</g>
</g>
<!-- Node4 -->
<g id="Node000004" class="node">
<title>Node4</title>
<g id="a_Node000004"><a xlink:href="Ch01__OutParameters_8c.html" target="_top" xlink:title="Cookbook Chapter 1: Working with &quot;Out&quot; Parameters.">
<polygon fill="white" stroke="#666666" points="193,-134.5 0,-134.5 0,-115.5 193,-115.5 193,-134.5"/>
<text text-anchor="middle" x="96.5" y="-122.5" font-family="Helvetica,sans-Serif" font-size="10.00">eg/cookbook/Ch01_OutParameters.c</text>
</a>
</g>
</g>
<!-- Node2&#45;&gt;Node4 -->
<g id="edge3_Node000002_Node000004" class="edge">
<title>Node2&#45;&gt;Node4</title>
<g id="a_edge3_Node000002_Node000004"><a xlink:title=" ">
<path fill="none" stroke="#63b8ff" d="M4233.56,-184.27C3742.44,-182.45 620.59,-169.77 202.5,-140 185.84,-138.81 167.79,-136.73 151.39,-134.53"/>
<polygon fill="#63b8ff" stroke="#63b8ff" points="4233.65,-187.77 4243.66,-184.3 4233.67,-180.77 4233.65,-187.77"/>
</a>
</g>
</g>
<!-- Node5 -->
<g id="Node000005" class="node">
<title>Node5</title>
<g id="a_Node000005"><a xlink:href="Ch01__Pointers_8c.html" target="_top" xlink:title="Cookbook Chapter 1: Passing and Receiving Pointers.">
<polygon fill="white" stroke="#666666" points="371.5,-134.5 211.5,-134.5 211.5,-115.5 371.5,-115.5 371.5,-134.5"/>
<text text-anchor="middle" x="291.5" y="-122.5" font-family="Helvetica,sans-Serif" font-size="10.00">eg/cookbook/Ch01_Pointers.c</text>
</a>
</g>
</g>
<!-- Node2&#45;&gt;Node5 -->
<g id="edge4_Node000002_Node000005" class="edge">
<title>Node2&#45;&gt;Node5</title>
<g id="a_edge4_Node000002_Node000005"><a xlink:title=" ">
<path fill="none" stroke="#63b8ff" d="M4233.77,-184.33C3755.65,-183.01 779.3,-173.45 380.5,-140 366.47,-138.82 351.31,-136.74 337.54,-134.54"/>
<polygon fill="#63b8ff" stroke="#63b8ff" points="4233.94,-187.83 4243.95,-184.36 4233.96,-180.83 4233.94,-187.83"/>
</a>
</g>
</g>
<!-- Node6 -->
<g id="Node000006" class="node">
<title>Node6</title>
<g id="a_Node000006"><a xlink:href="Ch01__SimpleCall_8c.html" target="_top" xlink:title="Cookbook Chapter 1: Calling a Simple C Function.">
<polygon fill="white" stroke="#666666" points="563,-134.5 390,-134.5 390,-115.5 563,-115.5 563,-134.5"/>
<text text-anchor="middle" x="476.5" y="-122.5" font-family="Helvetica,sans-Serif" font-size="10.00">eg/cookbook/Ch01_SimpleCall.c</text>
</a>
</g>
</g>
<!-- Node2&#45;&gt;Node6 -->
<g id="edge5_Node000002_Node000006" class="edge">
<title>Node2&#45;&gt;Node6</title>
<g id="a_edge5_Node000002_Node000006"><a xlink:title=" ">
<path fill="none" stroke="#63b8ff" d="M4233.7,-184.25C3768.97,-182.36 951.03,-169.73 572.5,-140 557.39,-138.81 541.04,-136.73 526.18,-134.53"/>
<polygon fill="#63b8ff" stroke="#63b8ff" points="4233.9,-187.75 4243.92,-184.29 4233.93,-180.75 4233.9,-187.75"/>
</a>
</g>
</g>
<!-- Node7 -->
<g id="Node000007" class="node">
<title>Node7</title>
<g id="a_Node000007"><a xlink:href="Ch02__AdvancedRegistry_8c.html" target="_top" xlink:title="Cookbook Chapter 2: Advanced Named Types (Recursive &amp; Forward&#45;Declared)">
<polygon fill="white" stroke="#666666" points="741.5,-140 581.5,-140 581.5,-110 741.5,-110 741.5,-140"/>
<text text-anchor="start" x="589.5" y="-128" font-family="Helvetica,sans-Serif" font-size="10.00">eg/cookbook/Ch02_Advanced</text>
<text text-anchor="middle" x="661.5" y="-117" font-family="Helvetica,sans-Serif" font-size="10.00">Registry.c</text>
</a>
</g>
</g>
<!-- Node2&#45;&gt;Node7 -->
<g id="edge6_Node000002_Node000007" class="edge">
<title>Node2&#45;&gt;Node7</title>
<g id="a_edge6_Node000002_Node000007"><a xlink:title=" ">
<path fill="none" stroke="#63b8ff" d="M4233.62,-184.25C3781.59,-182.42 1109.93,-170.37 750.5,-140 747.69,-139.76 744.84,-139.49 741.97,-139.19"/>
<polygon fill="#63b8ff" stroke="#63b8ff" points="4233.87,-187.75 4243.88,-184.29 4233.9,-180.75 4233.87,-187.75"/>
</a>
</g>
</g>
<!-- Node8 -->
<g id="Node000008" class="node">
<title>Node8</title>
<g id="a_Node000008"><a xlink:href="Ch02__ArrayDecay_8c.html" target="_top" xlink:title="Cookbook Chapter 2: Working with Fixed&#45;Size Arrays.">
<polygon fill="white" stroke="#666666" points="935.5,-134.5 759.5,-134.5 759.5,-115.5 935.5,-115.5 935.5,-134.5"/>
<text text-anchor="middle" x="847.5" y="-122.5" font-family="Helvetica,sans-Serif" font-size="10.00">eg/cookbook/Ch02_ArrayDecay.c</text>
</a>
</g>
</g>
<!-- Node2&#45;&gt;Node8 -->
<g id="edge7_Node000002_Node000008" class="edge">
<title>Node2&#45;&gt;Node8</title>
<g id="a_edge7_Node000002_Node000008"><a xlink:title=" ">
<path fill="none" stroke="#63b8ff" d="M4233.76,-184.15C3796.62,-181.71 1283.55,-166.6 944.5,-140 929.23,-138.8 912.71,-136.72 897.71,-134.51"/>
<polygon fill="#63b8ff" stroke="#63b8ff" points="4233.98,-187.65 4244,-184.21 4234.02,-180.65 4233.98,-187.65"/>
</a>
</g>
</g>
<!-- Node9 -->
<g id="Node000009" class="node">
<title>Node9</title>
<g id="a_Node000009"><a xlink:href="Ch02__Bitfields_8c.html" target="_top" xlink:title="Cookbook Chapter 2: Working with Structs that Contain Bitfields.">
<polygon fill="white" stroke="#666666" points="1113.5,-134.5 953.5,-134.5 953.5,-115.5 1113.5,-115.5 1113.5,-134.5"/>
<text text-anchor="middle" x="1033.5" y="-122.5" font-family="Helvetica,sans-Serif" font-size="10.00">eg/cookbook/Ch02_Bitfields.c</text>
</a>
</g>
</g>
<!-- Node2&#45;&gt;Node9 -->
<g id="edge8_Node000002_Node000009" class="edge">
<title>Node2&#45;&gt;Node9</title>
<g id="a_edge8_Node000002_Node000009"><a xlink:title=" ">
<path fill="none" stroke="#63b8ff" d="M4233.54,-184.15C3809.44,-181.75 1442.45,-167.27 1122.5,-140 1108.47,-138.8 1093.31,-136.72 1079.54,-134.52"/>
<polygon fill="#63b8ff" stroke="#63b8ff" points="4233.76,-187.65 4243.78,-184.2 4233.8,-180.65 4233.76,-187.65"/>
</a>
</g>
</g>
<!-- Node10 -->
<g id="Node000010" class="node">
<title>Node10</title>
<g id="a_Node000010"><a xlink:href="Ch02__ComplexNumbers_8c.html" target="_top" xlink:title="Cookbook Chapter 2: Working with Complex Numbers.">
<polygon fill="white" stroke="#666666" points="1287,-140 1132,-140 1132,-110 1287,-110 1287,-140"/>
<text text-anchor="start" x="1140" y="-128" font-family="Helvetica,sans-Serif" font-size="10.00">eg/cookbook/Ch02_Complex</text>
<text text-anchor="middle" x="1209.5" y="-117" font-family="Helvetica,sans-Serif" font-size="10.00">Numbers.c</text>
</a>
</g>
</g>
<!-- Node2&#45;&gt;Node10 -->
<g id="edge9_Node000002_Node000010" class="edge">
<title>Node2&#45;&gt;Node10</title>
<g id="a_edge9_Node000002_Node000010"><a xlink:title=" ">
<path fill="none" stroke="#63b8ff" d="M4233.53,-184.11C3823.07,-181.57 1597.07,-166.64 1295.5,-140 1292.79,-139.76 1290.03,-139.49 1287.25,-139.18"/>
<polygon fill="#63b8ff" stroke="#63b8ff" points="4233.72,-187.61 4243.74,-184.17 4233.76,-180.61 4233.72,-187.61"/>
</a>
</g>
</g>
<!-- Node11 -->
<g id="Node000011" class="node">
<title>Node11</title>
<g id="a_Node000011"><a xlink:href="Ch02__Enums_8c.html" target="_top" xlink:title="Cookbook Chapter 2: Working with Enums.">
<polygon fill="white" stroke="#666666" points="1458,-134.5 1305,-134.5 1305,-115.5 1458,-115.5 1458,-134.5"/>
<text text-anchor="middle" x="1381.5" y="-122.5" font-family="Helvetica,sans-Serif" font-size="10.00">eg/cookbook/Ch02_Enums.c</text>
</a>
</g>
</g>
<!-- Node2&#45;&gt;Node11 -->
<g id="edge10_Node000002_Node000011" class="edge">
<title>Node2&#45;&gt;Node11</title>
<g id="a_edge10_Node000002_Node000011"><a xlink:title=" ">
<path fill="none" stroke="#63b8ff" d="M4233.54,-184.77C3864.68,-186.08 2030.21,-189.96 1467.5,-140 1453.94,-138.8 1439.28,-136.71 1425.98,-134.51"/>
<polygon fill="#63b8ff" stroke="#63b8ff" points="4233.79,-188.26 4243.77,-184.73 4233.76,-181.26 4233.79,-188.26"/>
</a>
</g>
</g>
<!-- Node12 -->
<g id="Node000012" class="node">
<title>Node12</title>
<g id="a_Node000012"><a xlink:href="Ch02__LargeStruct_8c.html" target="_top" xlink:title="Cookbook Chapter 2: Large Structs Passed by Reference.">
<polygon fill="white" stroke="#666666" points="1652.5,-134.5 1476.5,-134.5 1476.5,-115.5 1652.5,-115.5 1652.5,-134.5"/>
<text text-anchor="middle" x="1564.5" y="-122.5" font-family="Helvetica,sans-Serif" font-size="10.00">eg/cookbook/Ch02_LargeStruct.c</text>
</a>
</g>
</g>
<!-- Node2&#45;&gt;Node12 -->
<g id="edge11_Node000002_Node000012" class="edge">
<title>Node2&#45;&gt;Node12</title>
<g id="a_edge11_Node000002_Node000012"><a xlink:title=" ">
<path fill="none" stroke="#63b8ff" d="M4233.8,-184.52C3880.78,-184.46 2183.93,-181.94 1661.5,-140 1646.32,-138.78 1629.9,-136.7 1614.96,-134.52"/>
<polygon fill="#63b8ff" stroke="#63b8ff" points="4233.85,-188.02 4243.85,-184.52 4233.85,-181.02 4233.85,-188.02"/>
</a>
</g>
</g>
<!-- Node13 -->
<g id="Node000013" class="node">
<title>Node13</title>
<g id="a_Node000013"><a xlink:href="Ch02__PackedStructs_8c.html" target="_top" xlink:title="Cookbook Chapter 2: Working with Packed Structs.">
<polygon fill="white" stroke="#666666" points="1858.5,-134.5 1670.5,-134.5 1670.5,-115.5 1858.5,-115.5 1858.5,-134.5"/>
<text text-anchor="middle" x="1764.5" y="-122.5" font-family="Helvetica,sans-Serif" font-size="10.00">eg/cookbook/Ch02_PackedStructs.c</text>
</a>
</g>
</g>
<!-- Node2&#45;&gt;Node13 -->
<g id="edge12_Node000002_Node000013" class="edge">
<title>Node2&#45;&gt;Node13</title>
<g id="a_edge12_Node000002_Node000013"><a xlink:title=" ">
<path fill="none" stroke="#63b8ff" d="M4233.8,-184.34C3897.56,-183.35 2346.81,-176.83 1867.5,-140 1851.49,-138.77 1834.16,-136.7 1818.36,-134.53"/>
<polygon fill="#63b8ff" stroke="#63b8ff" points="4233.85,-187.84 4243.86,-184.37 4233.87,-180.84 4233.85,-187.84"/>
</a>
</g>
</g>
<!-- Node14 -->
<g id="Node000014" class="node">
<title>Node14</title>
<g id="a_Node000014"><a xlink:href="Ch02__ReturnStruct_8c.html" target="_top" xlink:title="Cookbook Chapter 2: Receiving a Struct from a Function.">
<polygon fill="white" stroke="#666666" points="2058,-134.5 1877,-134.5 1877,-115.5 2058,-115.5 2058,-134.5"/>
<text text-anchor="middle" x="1967.5" y="-122.5" font-family="Helvetica,sans-Serif" font-size="10.00">eg/cookbook/Ch02_ReturnStruct.c</text>
</a>
</g>
</g>
<!-- Node2&#45;&gt;Node14 -->
<g id="edge13_Node000002_Node000014" class="edge">
<title>Node2&#45;&gt;Node14</title>
<g id="a_edge13_Node000002_Node000014"><a xlink:title=" ">
<path fill="none" stroke="#63b8ff" d="M4233.49,-184.26C3913.53,-182.93 2503.86,-175.16 2066.5,-140 2051.1,-138.76 2034.44,-136.69 2019.26,-134.52"/>
<polygon fill="#63b8ff" stroke="#63b8ff" points="4233.51,-187.76 4243.53,-184.3 4233.54,-180.76 4233.51,-187.76"/>
</a>
</g>
</g>
<!-- Node15 -->
<g id="Node000015" class="node">
<title>Node15</title>
<g id="a_Node000015"><a xlink:href="Ch02__SIMD__AVX_8c.html" target="_top" xlink:title="Cookbook Chapter 2: Working with SIMD Vectors (x86&#45;64)">
<polygon fill="white" stroke="#666666" points="2213,-140 2076,-140 2076,-110 2213,-110 2213,-140"/>
<text text-anchor="start" x="2084" y="-128" font-family="Helvetica,sans-Serif" font-size="10.00">eg/cookbook/Ch02_SIMD</text>
<text text-anchor="middle" x="2144.5" y="-117" font-family="Helvetica,sans-Serif" font-size="10.00">_AVX.c</text>
</a>
</g>
</g>
<!-- Node2&#45;&gt;Node15 -->
<g id="edge14_Node000002_Node000015" class="edge">
<title>Node2&#45;&gt;Node15</title>
<g id="a_edge14_Node000002_Node000015"><a xlink:title=" ">
<path fill="none" stroke="#63b8ff" d="M4233.56,-184.49C3927.35,-184.26 2625.77,-180.82 2221.5,-140 2218.8,-139.73 2216.05,-139.41 2213.27,-139.06"/>
<polygon fill="#63b8ff" stroke="#63b8ff" points="4233.6,-187.99 4243.61,-184.5 4233.61,-180.99 4233.6,-187.99"/>
</a>
</g>
</g>
<!-- Node16 -->
<g id="Node000016" class="node">
<title>Node16</title>
<g id="a_Node000016"><a xlink:href="Ch02__SIMD__NEON_8c.html" target="_top" xlink:title="Cookbook Chapter 2: Working with SIMD Vectors (AArch64 NEON)">
<polygon fill="white" stroke="#666666" points="2368,-140 2231,-140 2231,-110 2368,-110 2368,-140"/>
<text text-anchor="start" x="2239" y="-128" font-family="Helvetica,sans-Serif" font-size="10.00">eg/cookbook/Ch02_SIMD</text>
<text text-anchor="middle" x="2299.5" y="-117" font-family="Helvetica,sans-Serif" font-size="10.00">_NEON.c</text>
</a>
</g>
</g>
<!-- Node2&#45;&gt;Node16 -->
<g id="edge15_Node000002_Node000016" class="edge">
<title>Node2&#45;&gt;Node16</title>
<g id="a_edge15_Node000002_Node000016"><a xlink:title=" ">
<path fill="none" stroke="#63b8ff" d="M4233.28,-184.36C3940.81,-183.54 2748.37,-177.88 2376.5,-140 2373.8,-139.72 2371.05,-139.41 2368.27,-139.05"/>
<polygon fill="#63b8ff" stroke="#63b8ff" points="4233.69,-187.86 4243.7,-184.39 4233.71,-180.86 4233.69,-187.86"/>
</a>
</g>
</g>
<!-- Node17 -->
<g id="Node000017" class="node">
<title>Node17</title>
<g id="a_Node000017"><a xlink:href="Ch02__SIMD__SVE_8c.html" target="_top" xlink:title="Cookbook Chapter 2: Working with SIMD Vectors (AArch64 SVE)">
<polygon fill="white" stroke="#666666" points="2523,-140 2386,-140 2386,-110 2523,-110 2523,-140"/>
<text text-anchor="start" x="2394" y="-128" font-family="Helvetica,sans-Serif" font-size="10.00">eg/cookbook/Ch02_SIMD</text>
<text text-anchor="middle" x="2454.5" y="-117" font-family="Helvetica,sans-Serif" font-size="10.00">_SVE.c</text>
</a>
</g>
</g>
<!-- Node2&#45;&gt;Node17 -->
<g id="edge16_Node000002_Node000017" class="edge">
<title>Node2&#45;&gt;Node17</title>
<g id="a_edge16_Node000002_Node000017"><a xlink:title=" ">
<path fill="none" stroke="#63b8ff" d="M4233.6,-184.21C3956.52,-182.77 2871.31,-174.96 2531.5,-140 2528.8,-139.72 2526.05,-139.4 2523.27,-139.05"/>
<polygon fill="#63b8ff" stroke="#63b8ff" points="4233.87,-187.71 4243.89,-184.26 4233.91,-180.71 4233.87,-187.71"/>
</a>
</g>
</g>
<!-- Node18 -->
<g id="Node000018" class="node">
<title>Node18</title>
<g id="a_Node000018"><a xlink:href="Ch02__StructByValue_8c.html" target="_top" xlink:title="Cookbook Chapter 2: Small Structs Passed by Value.">
<polygon fill="white" stroke="#666666" points="2694,-140 2541,-140 2541,-110 2694,-110 2694,-140"/>
<text text-anchor="start" x="2549" y="-128" font-family="Helvetica,sans-Serif" font-size="10.00">eg/cookbook/Ch02_StructBy</text>
<text text-anchor="middle" x="2617.5" y="-117" font-family="Helvetica,sans-Serif" font-size="10.00">Value.c</text>
</a>
</g>
</g>
<!-- Node2&#45;&gt;Node18 -->
<g id="edge17_Node000002_Node000018" class="edge">
<title>Node2&#45;&gt;Node18</title>
<g id="a_edge17_Node000002_Node000018"><a xlink:title=" ">
<path fill="none" stroke="#63b8ff" d="M4233.6,-183.85C3973.76,-181.05 3007.96,-168.9 2703.5,-140 2700.49,-139.71 2697.42,-139.39 2694.33,-139.03"/>
<polygon fill="#63b8ff" stroke="#63b8ff" points="4233.59,-187.35 4243.63,-183.95 4233.67,-180.35 4233.59,-187.35"/>
</a>
</g>
</g>
<!-- Node19 -->
<g id="Node000019" class="node">
<title>Node19</title>
<g id="a_Node000019"><a xlink:href="Ch02__Unions_8c.html" target="_top" xlink:title="Cookbook Chapter 2: Working with Unions.">
<polygon fill="white" stroke="#666666" points="2866.5,-134.5 2712.5,-134.5 2712.5,-115.5 2866.5,-115.5 2866.5,-134.5"/>
<text text-anchor="middle" x="2789.5" y="-122.5" font-family="Helvetica,sans-Serif" font-size="10.00">eg/cookbook/Ch02_Unions.c</text>
</a>
</g>
</g>
<!-- Node2&#45;&gt;Node19 -->
<g id="edge18_Node000002_Node000019" class="edge">
<title>Node2&#45;&gt;Node19</title>
<g id="a_edge18_Node000002_Node000019"><a xlink:title=" ">
<path fill="none" stroke="#63b8ff" d="M4233.92,-183.6C3992.69,-180.06 3144.57,-166 2875.5,-140 2862.25,-138.72 2847.95,-136.67 2834.88,-134.52"/>
<polygon fill="#63b8ff" stroke="#63b8ff" points="4233.88,-187.1 4243.93,-183.74 4233.99,-180.1 4233.88,-187.1"/>
</a>
</g>
</g>
<!-- Node20 -->
<g id="Node000020" class="node">
<title>Node20</title>
<g id="a_Node000020"><a xlink:href="Ch03__QsortCallback_8c.html" target="_top" xlink:title="Cookbook Chapter 3: Creating a Type&#45;Safe Callback for qsort">
<polygon fill="white" stroke="#666666" points="3072.5,-134.5 2884.5,-134.5 2884.5,-115.5 3072.5,-115.5 3072.5,-134.5"/>
<text text-anchor="middle" x="2978.5" y="-122.5" font-family="Helvetica,sans-Serif" font-size="10.00">eg/cookbook/Ch03_QsortCallback.c</text>
</a>
</g>
</g>
<!-- Node2&#45;&gt;Node20 -->
<g id="edge19_Node000002_Node000020" class="edge">
<title>Node2&#45;&gt;Node20</title>
<g id="a_edge19_Node000002_Node000020"><a xlink:title=" ">
<path fill="none" stroke="#63b8ff" d="M4233.59,-184.37C4051.52,-183.54 3520.6,-177.78 3081.5,-140 3065.95,-138.66 3049.15,-136.63 3033.71,-134.53"/>
<polygon fill="#63b8ff" stroke="#63b8ff" points="4233.78,-187.88 4243.8,-184.42 4233.81,-180.88 4233.78,-187.88"/>
</a>
</g>
</g>
<!-- Node21 -->
<g id="Node000021" class="node">
<title>Node21</title>
<g id="a_Node000021"><a xlink:href="Ch03__StatefulCallback_8c.html" target="_top" xlink:title="Cookbook Chapter 3: Creating a Stateful Callback.">
<polygon fill="white" stroke="#666666" points="3240.5,-140 3090.5,-140 3090.5,-110 3240.5,-110 3240.5,-140"/>
<text text-anchor="start" x="3098.5" y="-128" font-family="Helvetica,sans-Serif" font-size="10.00">eg/cookbook/Ch03_Stateful</text>
<text text-anchor="middle" x="3165.5" y="-117" font-family="Helvetica,sans-Serif" font-size="10.00">Callback.c</text>
</a>
</g>
</g>
<!-- Node2&#45;&gt;Node21 -->
<g id="edge20_Node000002_Node000021" class="edge">
<title>Node2&#45;&gt;Node21</title>
<g id="a_edge20_Node000002_Node000021"><a xlink:title=" ">
<path fill="none" stroke="#63b8ff" d="M4233.26,-184.51C4068.11,-183.93 3620.28,-178.62 3249.5,-140 3246.56,-139.69 3243.56,-139.35 3240.54,-138.98"/>
<polygon fill="#63b8ff" stroke="#63b8ff" points="4233.71,-188.01 4243.72,-184.54 4233.74,-181.01 4233.71,-188.01"/>
</a>
</g>
</g>
<!-- Node22 -->
<g id="Node000022" class="node">
<title>Node22</title>
<g id="a_Node000022"><a xlink:href="Ch04__CallbackAsArg_8c.html" target="_top" xlink:title="Cookbook Chapter 4: Receiving and Calling a Function Pointer.">
<polygon fill="white" stroke="#666666" points="3412.5,-140 3258.5,-140 3258.5,-110 3412.5,-110 3412.5,-140"/>
<text text-anchor="start" x="3266.5" y="-128" font-family="Helvetica,sans-Serif" font-size="10.00">eg/cookbook/Ch04_Callback</text>
<text text-anchor="middle" x="3335.5" y="-117" font-family="Helvetica,sans-Serif" font-size="10.00">AsArg.c</text>
</a>
</g>
</g>
<!-- Node2&#45;&gt;Node22 -->
<g id="edge21_Node000002_Node000022" class="edge">
<title>Node2&#45;&gt;Node22</title>
<g id="a_edge21_Node000002_Node000022"><a xlink:title=" ">
<path fill="none" stroke="#63b8ff" d="M4233.85,-183.67C4088.36,-181.25 3724.25,-172.22 3421.5,-140 3418.64,-139.7 3415.73,-139.36 3412.8,-139"/>
<polygon fill="#63b8ff" stroke="#63b8ff" points="4233.89,-187.17 4243.94,-183.83 4234,-180.17 4233.89,-187.17"/>
</a>
</g>
</g>
<!-- Node23 -->
<g id="Node000023" class="node">
<title>Node23</title>
<g id="a_Node000023"><a xlink:href="Ch04__LongDouble_8c.html" target="_top" xlink:title="Cookbook Chapter 4: Handling long double">
<polygon fill="white" stroke="#666666" points="3608.5,-134.5 3430.5,-134.5 3430.5,-115.5 3608.5,-115.5 3608.5,-134.5"/>
<text text-anchor="middle" x="3519.5" y="-122.5" font-family="Helvetica,sans-Serif" font-size="10.00">eg/cookbook/Ch04_LongDouble.c</text>
</a>
</g>
</g>
<!-- Node2&#45;&gt;Node23 -->
<g id="edge22_Node000002_Node000023" class="edge">
<title>Node2&#45;&gt;Node23</title>
<g id="a_edge22_Node000002_Node000023"><a xlink:title=" ">
<path fill="none" stroke="#63b8ff" d="M4233.42,-181.91C4112.07,-176.71 3843.08,-163.45 3617.5,-140 3603.31,-138.53 3588.02,-136.54 3573.84,-134.52"/>
<polygon fill="#63b8ff" stroke="#63b8ff" points="4233.51,-185.42 4243.65,-182.34 4233.81,-178.42 4233.51,-185.42"/>
</a>
</g>
</g>
<!-- Node24 -->
<g id="Node000024" class="node">
<title>Node24</title>
<g id="a_Node000024"><a xlink:href="Ch04__Reentrancy_8c.html" target="_top" xlink:title="Cookbook Chapter 4: Proving Reentrancy with Nested FFI Calls.">
<polygon fill="white" stroke="#666666" points="3800.5,-134.5 3626.5,-134.5 3626.5,-115.5 3800.5,-115.5 3800.5,-134.5"/>
<text text-anchor="middle" x="3713.5" y="-122.5" font-family="Helvetica,sans-Serif" font-size="10.00">eg/cookbook/Ch04_Reentrancy.c</text>
</a>
</g>
</g>
<!-- Node2&#45;&gt;Node24 -->
<g id="edge23_Node000002_Node000024" class="edge">
<title>Node2&#45;&gt;Node24</title>
<g id="a_edge23_Node000002_Node000024"><a xlink:title=" ">
<path fill="none" stroke="#63b8ff" d="M4233.58,-179.72C4139.81,-172.55 3961.07,-157.93 3809.5,-140 3796.12,-138.42 3781.73,-136.46 3768.26,-134.51"/>
<polygon fill="#63b8ff" stroke="#63b8ff" points="4233.53,-183.22 4243.76,-180.49 4234.06,-176.24 4233.53,-183.22"/>
</a>
</g>
</g>
<!-- Node25 -->
<g id="Node000025" class="node">
<title>Node25</title>
<g id="a_Node000025"><a xlink:href="Ch04__ThreadSafety_8c.html" target="_top" xlink:title="Cookbook Chapter 4: Proving Thread Safety.">
<polygon fill="white" stroke="#666666" points="4002.5,-134.5 3818.5,-134.5 3818.5,-115.5 4002.5,-115.5 4002.5,-134.5"/>
<text text-anchor="middle" x="3910.5" y="-122.5" font-family="Helvetica,sans-Serif" font-size="10.00">eg/cookbook/Ch04_ThreadSafety.c</text>
</a>
</g>
</g>
<!-- Node2&#45;&gt;Node25 -->
<g id="edge24_Node000002_Node000025" class="edge">
<title>Node2&#45;&gt;Node25</title>
<g id="a_edge24_Node000002_Node000025"><a xlink:title=" ">
<path fill="none" stroke="#63b8ff" d="M4233.52,-174.7C4158.9,-163.45 4037.68,-145.18 3966.88,-134.5"/>
<polygon fill="#63b8ff" stroke="#63b8ff" points="4233.32,-178.21 4243.73,-176.24 4234.37,-171.29 4233.32,-178.21"/>
</a>
</g>
</g>
<!-- Node26 -->
<g id="Node000026" class="node">
<title>Node26</title>
<g id="a_Node000026"><a xlink:href="Ch04__VTableCStyle_8c.html" target="_top" xlink:title="Cookbook Chapter 4: Calling a Function Pointer from a Struct.">
<polygon fill="white" stroke="#666666" points="4204.5,-134.5 4020.5,-134.5 4020.5,-115.5 4204.5,-115.5 4204.5,-134.5"/>
<text text-anchor="middle" x="4112.5" y="-122.5" font-family="Helvetica,sans-Serif" font-size="10.00">eg/cookbook/Ch04_VTableCStyle.c</text>
</a>
</g>
</g>
<!-- Node2&#45;&gt;Node26 -->
<g id="edge25_Node000002_Node000026" class="edge">
<title>Node2&#45;&gt;Node26</title>
<g id="a_edge25_Node000002_Node000026"><a xlink:title=" ">
<path fill="none" stroke="#63b8ff" d="M4261.82,-172.96C4225.84,-161.65 4171.83,-144.66 4139.58,-134.52"/>
<polygon fill="#63b8ff" stroke="#63b8ff" points="4260.86,-176.33 4271.45,-175.99 4262.96,-169.65 4260.86,-176.33"/>
</a>
</g>
</g>
<!-- Node27 -->
<g id="Node000027" class="node">
<title>Node27</title>
<g id="a_Node000027"><a xlink:href="Ch04__VariadicPrintf_8c.html" target="_top" xlink:title="Cookbook Chapter 4: Calling Variadic Functions like printf">
<polygon fill="white" stroke="#666666" points="4374,-140 4223,-140 4223,-110 4374,-110 4374,-140"/>
<text text-anchor="start" x="4231" y="-128" font-family="Helvetica,sans-Serif" font-size="10.00">eg/cookbook/Ch04_Variadic</text>
<text text-anchor="middle" x="4298.5" y="-117" font-family="Helvetica,sans-Serif" font-size="10.00">Printf.c</text>
</a>
</g>
</g>
<!-- Node2&#45;&gt;Node27 -->
<g id="edge26_Node000002_Node000027" class="edge">
<title>Node2&#45;&gt;Node27</title>
<g id="a_edge26_Node000002_Node000027"><a xlink:title=" ">
<path fill="none" stroke="#63b8ff" d="M4298.5,-165.65C4298.5,-157.36 4298.5,-147.78 4298.5,-140.11"/>
<polygon fill="#63b8ff" stroke="#63b8ff" points="4295,-165.87 4298.5,-175.87 4302,-165.87 4295,-165.87"/>
</a>
</g>
</g>
<!-- Node28 -->
<g id="Node000028" class="node">
<title>Node28</title>
<g id="a_Node000028"><a xlink:href="Ch05__CppMangledNames_8c.html" target="_top" xlink:title="Cookbook Chapter 5: Calling C++ Mangled Names.">
<polygon fill="white" stroke="#666666" points="4565,-140 4392,-140 4392,-110 4565,-110 4565,-140"/>
<text text-anchor="start" x="4400" y="-128" font-family="Helvetica,sans-Serif" font-size="10.00">eg/cookbook/Ch05_CppMangled</text>
<text text-anchor="middle" x="4478.5" y="-117" font-family="Helvetica,sans-Serif" font-size="10.00">Names.c</text>
</a>
</g>
</g>
<!-- Node2&#45;&gt;Node28 -->
<g id="edge27_Node000002_Node000028" class="edge">
<title>Node2&#45;&gt;Node28</title>
<g id="a_edge27_Node000002_Node000028"><a xlink:title=" ">
<path fill="none" stroke="#63b8ff" d="M4334.41,-172.83C4363.43,-163.4 4404.39,-150.09 4435.23,-140.06"/>
<polygon fill="#63b8ff" stroke="#63b8ff" points="4333.1,-169.57 4324.67,-175.99 4335.27,-176.23 4333.1,-169.57"/>
</a>
</g>
</g>
<!-- Node29 -->
<g id="Node000029" class="node">
<title>Node29</title>
<g id="a_Node000029"><a xlink:href="Ch05__CppTemplates_8c.html" target="_top" xlink:title="Cookbook Chapter 5: Interfacing with C++ Templates.">
<polygon fill="white" stroke="#666666" points="4772,-134.5 4583,-134.5 4583,-115.5 4772,-115.5 4772,-134.5"/>
<text text-anchor="middle" x="4677.5" y="-122.5" font-family="Helvetica,sans-Serif" font-size="10.00">eg/cookbook/Ch05_CppTemplates.c</text>
</a>
</g>
</g>
<!-- Node2&#45;&gt;Node29 -->
<g id="edge28_Node000002_Node000029" class="edge">
<title>Node2&#45;&gt;Node29</title>
<g id="a_edge28_Node000002_Node000029"><a xlink:title=" ">
<path fill="none" stroke="#63b8ff" d="M4363.19,-174.52C4436.09,-163.26 4553.39,-145.16 4622.2,-134.54"/>
<polygon fill="#63b8ff" stroke="#63b8ff" points="4362.55,-171.07 4353.21,-176.06 4363.62,-177.99 4362.55,-171.07"/>
</a>
</g>
</g>
<!-- Node30 -->
<g id="Node000030" class="node">
<title>Node30</title>
<g id="a_Node000030"><a xlink:href="Ch05__CppVirtualFunctions_8c.html" target="_top" xlink:title="Cookbook Chapter 5: Calling C++ Virtual Functions.">
<polygon fill="white" stroke="#666666" points="4953,-140 4790,-140 4790,-110 4953,-110 4953,-140"/>
<text text-anchor="start" x="4798" y="-128" font-family="Helvetica,sans-Serif" font-size="10.00">eg/cookbook/Ch05_CppVirtual</text>
<text text-anchor="middle" x="4871.5" y="-117" font-family="Helvetica,sans-Serif" font-size="10.00">Functions.c</text>
</a>
</g>
</g>
<!-- Node2&#45;&gt;Node30 -->
<g id="edge29_Node000002_Node000030" class="edge">
<title>Node2&#45;&gt;Node30</title>
<g id="a_edge29_Node000002_Node000030"><a xlink:title=" ">
<path fill="none" stroke="#63b8ff" d="M4363.25,-179.77C4455.91,-172.73 4631.57,-158.31 4780.5,-140 4783.51,-139.63 4786.58,-139.24 4789.68,-138.83"/>
<polygon fill="#63b8ff" stroke="#63b8ff" points="4362.9,-176.29 4353.19,-180.54 4363.43,-183.27 4362.9,-176.29"/>
</a>
</g>
</g>
<!-- Node31 -->
<g id="Node000031" class="node">
<title>Node31</title>
<g id="a_Node000031"><a xlink:href="Ch05__SemanticStrings_8c.html" target="_top" xlink:title="Cookbook Chapter 5: Handling Strings and Semantic Types.">
<polygon fill="white" stroke="#666666" points="5129.5,-140 4971.5,-140 4971.5,-110 5129.5,-110 5129.5,-140"/>
<text text-anchor="start" x="4979.5" y="-128" font-family="Helvetica,sans-Serif" font-size="10.00">eg/cookbook/Ch05_Semantic</text>
<text text-anchor="middle" x="5050.5" y="-117" font-family="Helvetica,sans-Serif" font-size="10.00">Strings.c</text>
</a>
</g>
</g>
<!-- Node2&#45;&gt;Node31 -->
<g id="edge30_Node000002_Node000031" class="edge">
<title>Node2&#45;&gt;Node31</title>
<g id="a_edge30_Node000002_Node000031"><a xlink:title=" ">
<path fill="none" stroke="#63b8ff" d="M4363.25,-182.07C4482.08,-177.18 4742.88,-164.48 4961.5,-140 4964.76,-139.63 4968.09,-139.23 4971.45,-138.81"/>
<polygon fill="#63b8ff" stroke="#63b8ff" points="4363.07,-178.57 4353.22,-182.48 4363.36,-185.57 4363.07,-178.57"/>
</a>
</g>
</g>
<!-- Node32 -->
<g id="Node000032" class="node">
<title>Node32</title>
<g id="a_Node000032"><a xlink:href="Ch06__GlobalVariables_8c.html" target="_top" xlink:title="Cookbook Chapter 6: Reading and Writing Global Variables.">
<polygon fill="white" stroke="#666666" points="5345,-134.5 5148,-134.5 5148,-115.5 5345,-115.5 5345,-134.5"/>
<text text-anchor="middle" x="5246.5" y="-122.5" font-family="Helvetica,sans-Serif" font-size="10.00">eg/cookbook/Ch06_GlobalVariables.c</text>
</a>
</g>
</g>
<!-- Node2&#45;&gt;Node32 -->
<g id="edge31_Node000002_Node000032" class="edge">
<title>Node2&#45;&gt;Node32</title>
<g id="a_edge31_Node000002_Node000032"><a xlink:title=" ">
<path fill="none" stroke="#63b8ff" d="M4363.36,-182.74C4504.52,-178.55 4850.12,-166.29 5138.5,-140 5154.32,-138.56 5171.38,-136.56 5187.17,-134.51"/>
<polygon fill="#63b8ff" stroke="#63b8ff" points="4363.04,-179.25 4353.15,-183.04 4363.24,-186.25 4363.04,-179.25"/>
</a>
</g>
</g>
<!-- Node33 -->
<g id="Node000033" class="node">
<title>Node33</title>
<g id="a_Node000033"><a xlink:href="Ch06__LibraryDependencies_8c.html" target="_top" xlink:title="Cookbook Chapter 6: Handling Library Dependencies.">
<polygon fill="white" stroke="#666666" points="5509.5,-140 5363.5,-140 5363.5,-110 5509.5,-110 5509.5,-140"/>
<text text-anchor="start" x="5371.5" y="-128" font-family="Helvetica,sans-Serif" font-size="10.00">eg/cookbook/Ch06_Library</text>
<text text-anchor="middle" x="5436.5" y="-117" font-family="Helvetica,sans-Serif" font-size="10.00">Dependencies.c</text>
</a>
</g>
</g>
<!-- Node2&#45;&gt;Node33 -->
<g id="edge32_Node000002_Node000033" class="edge">
<title>Node2&#45;&gt;Node33</title>
<g id="a_edge32_Node000002_Node000033"><a xlink:title=" ">
<path fill="none" stroke="#63b8ff" d="M4363.52,-184.58C4529.14,-184.16 4980.19,-179.2 5353.5,-140 5356.7,-139.66 5359.96,-139.28 5363.25,-138.87"/>
<polygon fill="#63b8ff" stroke="#63b8ff" points="4363.02,-181.08 4353.03,-184.6 4363.04,-188.08 4363.02,-181.08"/>
</a>
</g>
</g>
<!-- Node34 -->
<g id="Node000034" class="node">
<title>Node34</title>
<g id="a_Node000034"><a xlink:href="Ch06__SystemLibraries_8c.html" target="_top" xlink:title="Cookbook Chapter 6: Calling Native System Libraries.">
<polygon fill="white" stroke="#666666" points="5727,-134.5 5528,-134.5 5528,-115.5 5727,-115.5 5727,-134.5"/>
<text text-anchor="middle" x="5627.5" y="-122.5" font-family="Helvetica,sans-Serif" font-size="10.00">eg/cookbook/Ch06_SystemLibraries.c</text>
</a>
</g>
</g>
<!-- Node2&#45;&gt;Node34 -->
<g id="edge33_Node000002_Node000034" class="edge">
<title>Node2&#45;&gt;Node34</title>
<g id="a_edge33_Node000002_Node000034"><a xlink:title=" ">
<path fill="none" stroke="#63b8ff" d="M4363.23,-184.22C4545.41,-182.97 5077.92,-176.25 5518.5,-140 5534.95,-138.65 5552.73,-136.61 5569.06,-134.51"/>
<polygon fill="#63b8ff" stroke="#63b8ff" points="4363,-180.72 4353.02,-184.28 4363.04,-187.72 4363,-180.72"/>
</a>
</g>
</g>
<!-- Node35 -->
<g id="Node000035" class="node">
<title>Node35</title>
<g id="a_Node000035"><a xlink:href="Ch07__DynamicMarshalling_8c.html" target="_top" xlink:title="Cookbook Chapter 7: Dynamic Struct Marshalling.">
<polygon fill="white" stroke="#666666" points="5900,-140 5745,-140 5745,-110 5900,-110 5900,-140"/>
<text text-anchor="start" x="5753" y="-128" font-family="Helvetica,sans-Serif" font-size="10.00">eg/cookbook/Ch07_Dynamic</text>
<text text-anchor="middle" x="5822.5" y="-117" font-family="Helvetica,sans-Serif" font-size="10.00">Marshalling.c</text>
</a>
</g>
</g>
<!-- Node2&#45;&gt;Node35 -->
<g id="edge34_Node000002_Node000035" class="edge">
<title>Node2&#45;&gt;Node35</title>
<g id="a_edge34_Node000002_Node000035"><a xlink:title=" ">
<path fill="none" stroke="#63b8ff" d="M4363.3,-183.6C4606.34,-180.06 5463.61,-165.98 5735.5,-140 5738.55,-139.71 5741.65,-139.38 5744.78,-139.02"/>
<polygon fill="#63b8ff" stroke="#63b8ff" points="4363.16,-180.1 4353.21,-183.75 4363.26,-187.1 4363.16,-180.1"/>
</a>
</g>
</g>
<!-- Node36 -->
<g id="Node000036" class="node">
<title>Node36</title>
<g id="a_Node000036"><a xlink:href="Ch07__DynamicSignatures_8c.html" target="_top" xlink:title="Cookbook Chapter 7: Building a Signature String at Runtime.">
<polygon fill="white" stroke="#666666" points="6073,-140 5918,-140 5918,-110 6073,-110 6073,-140"/>
<text text-anchor="start" x="5926" y="-128" font-family="Helvetica,sans-Serif" font-size="10.00">eg/cookbook/Ch07_Dynamic</text>
<text text-anchor="middle" x="5995.5" y="-117" font-family="Helvetica,sans-Serif" font-size="10.00">Signatures.c</text>
</a>
</g>
</g>
<!-- Node2&#45;&gt;Node36 -->
<g id="edge35_Node000002_Node000036" class="edge">
<title>Node2&#45;&gt;Node36</title>
<g id="a_edge35_Node000002_Node000036"><a xlink:title=" ">
<path fill="none" stroke="#63b8ff" d="M4363.14,-183.85C4624.11,-181.06 5600.81,-168.88 5908.5,-140 5911.55,-139.71 5914.65,-139.39 5917.78,-139.03"/>
<polygon fill="#63b8ff" stroke="#63b8ff" points="4363.03,-180.35 4353.06,-183.96 4363.1,-187.35 4363.03,-180.35"/>
</a>
</g>
</g>
<!-- Node37 -->
<g id="Node000037" class="node">
<title>Node37</title>
<g id="a_Node000037"><a xlink:href="Ch07__IntrospectWrapper_8c.html" target="_top" xlink:title="Cookbook Chapter 7: Introspecting a Trampoline for a Wrapper.">
<polygon fill="white" stroke="#666666" points="6252,-140 6091,-140 6091,-110 6252,-110 6252,-140"/>
<text text-anchor="start" x="6099" y="-128" font-family="Helvetica,sans-Serif" font-size="10.00">eg/cookbook/Ch07_Introspect</text>
<text text-anchor="middle" x="6171.5" y="-117" font-family="Helvetica,sans-Serif" font-size="10.00">Wrapper.c</text>
</a>
</g>
</g>
<!-- Node2&#45;&gt;Node37 -->
<g id="edge36_Node000002_Node000037" class="edge">
<title>Node2&#45;&gt;Node37</title>
<g id="a_edge36_Node000002_Node000037"><a xlink:title=" ">
<path fill="none" stroke="#63b8ff" d="M4363.5,-184.01C4642.25,-181.71 5738,-170.87 6081.5,-140 6084.49,-139.73 6087.54,-139.42 6090.61,-139.09"/>
<polygon fill="#63b8ff" stroke="#63b8ff" points="4363.13,-180.51 4353.15,-184.09 4363.18,-187.51 4363.13,-180.51"/>
</a>
</g>
</g>
<!-- Node38 -->
<g id="Node000038" class="node">
<title>Node38</title>
<g id="a_Node000038"><a xlink:href="Ch07__SemanticAliases_8c.html" target="_top" xlink:title=" ">
<polygon fill="white" stroke="#666666" points="6428.5,-140 6270.5,-140 6270.5,-110 6428.5,-110 6428.5,-140"/>
<text text-anchor="start" x="6278.5" y="-128" font-family="Helvetica,sans-Serif" font-size="10.00">eg/cookbook/Ch07_Semantic</text>
<text text-anchor="middle" x="6349.5" y="-117" font-family="Helvetica,sans-Serif" font-size="10.00">Aliases.c</text>
</a>
</g>
</g>
<!-- Node2&#45;&gt;Node38 -->
<g id="edge37_Node000002_Node000038" class="edge">
<title>Node2&#45;&gt;Node38</title>
<g id="a_edge37_Node000002_Node000038"><a xlink:title=" ">
<path fill="none" stroke="#63b8ff" d="M4363.15,-184.19C4658.29,-182.62 5879.64,-174.12 6260.5,-140 6263.77,-139.71 6267.11,-139.37 6270.47,-138.99"/>
<polygon fill="#63b8ff" stroke="#63b8ff" points="4363.03,-180.69 4353.04,-184.25 4363.06,-187.69 4363.03,-180.69"/>
</a>
</g>
</g>
<!-- Node39 -->
<g id="Node000039" class="node">
<title>Node39</title>
<g id="a_Node000039"><a xlink:href="Ch08__ArenaCallFrame_8c.html" target="_top" xlink:title="Cookbook Chapter 8: Building a Dynamic Call Frame with an Arena.">
<polygon fill="white" stroke="#666666" points="6605,-140 6446,-140 6446,-110 6605,-110 6605,-140"/>
<text text-anchor="start" x="6454" y="-128" font-family="Helvetica,sans-Serif" font-size="10.00">eg/cookbook/Ch08_ArenaCall</text>
<text text-anchor="middle" x="6525.5" y="-117" font-family="Helvetica,sans-Serif" font-size="10.00">Frame.c</text>
</a>
</g>
</g>
<!-- Node2&#45;&gt;Node39 -->
<g id="edge38_Node000002_Node000039" class="edge">
<title>Node2&#45;&gt;Node39</title>
<g id="a_edge38_Node000002_Node000039"><a xlink:title=" ">
<path fill="none" stroke="#63b8ff" d="M4363.3,-184.35C4674.73,-183.44 6019.8,-177.39 6437.5,-140 6440.27,-139.75 6443.09,-139.47 6445.94,-139.16"/>
<polygon fill="#63b8ff" stroke="#63b8ff" points="4363.08,-180.85 4353.09,-184.38 4363.1,-187.85 4363.08,-180.85"/>
</a>
</g>
</g>
<!-- Node40 -->
<g id="Node000040" class="node">
<title>Node40</title>
<g id="a_Node000040"><a xlink:href="Ch08__CustomAllocators_8c.html" target="_top" xlink:title="Cookbook Chapter 8: Using Custom Memory Allocators.">
<polygon fill="white" stroke="#666666" points="6829.5,-134.5 6623.5,-134.5 6623.5,-115.5 6829.5,-115.5 6829.5,-134.5"/>
<text text-anchor="middle" x="6726.5" y="-122.5" font-family="Helvetica,sans-Serif" font-size="10.00">eg/cookbook/Ch08_CustomAllocators.c</text>
</a>
</g>
</g>
<!-- Node2&#45;&gt;Node40 -->
<g id="edge39_Node000002_Node000040" class="edge">
<title>Node2&#45;&gt;Node40</title>
<g id="a_edge39_Node000002_Node000040"><a xlink:title=" ">
<path fill="none" stroke="#63b8ff" d="M4363.49,-184.17C4690.53,-182.34 6158.46,-172.47 6613.5,-140 6631.05,-138.75 6650.05,-136.67 6667.38,-134.5"/>
<polygon fill="#63b8ff" stroke="#63b8ff" points="4363.22,-180.67 4353.24,-184.22 4363.26,-187.67 4363.22,-180.67"/>
</a>
</g>
</g>
<!-- Node41 -->
<g id="Node000041" class="node">
<title>Node41</title>
<g id="a_Node000041"><a xlink:href="Ch08__ManualAPI_8c.html" target="_top" xlink:title="Cookbook Chapter 8: The Full Manual API Lifecycle.">
<polygon fill="white" stroke="#666666" points="7019.5,-134.5 6847.5,-134.5 6847.5,-115.5 7019.5,-115.5 7019.5,-134.5"/>
<text text-anchor="middle" x="6933.5" y="-122.5" font-family="Helvetica,sans-Serif" font-size="10.00">eg/cookbook/Ch08_ManualAPI.c</text>
</a>
</g>
</g>
<!-- Node2&#45;&gt;Node41 -->
<g id="edge40_Node000002_Node000041" class="edge">
<title>Node2&#45;&gt;Node41</title>
<g id="a_edge40_Node000002_Node000041"><a xlink:title=" ">
<path fill="none" stroke="#63b8ff" d="M4363.3,-184.5C4708.73,-184.31 6336.57,-181.21 6838.5,-140 6853.29,-138.79 6869.28,-136.72 6883.84,-134.55"/>
<polygon fill="#63b8ff" stroke="#63b8ff" points="4363.22,-181 4353.22,-184.5 4363.22,-188 4363.22,-181"/>
</a>
</g>
</g>
<!-- Node42 -->
<g id="Node000042" class="node">
<title>Node42</title>
<g id="a_Node000042"><a xlink:href="Ch08__SharedArena_8c.html" target="_top" xlink:title="An example demonstrating the &quot;shared arena&quot; memory optimization.">
<polygon fill="white" stroke="#666666" points="7219.5,-134.5 7037.5,-134.5 7037.5,-115.5 7219.5,-115.5 7219.5,-134.5"/>
<text text-anchor="middle" x="7128.5" y="-122.5" font-family="Helvetica,sans-Serif" font-size="10.00">eg/cookbook/Ch08_SharedArena.c</text>
</a>
</g>
</g>
<!-- Node2&#45;&gt;Node42 -->
<g id="edge41_Node000002_Node000042" class="edge">
<title>Node2&#45;&gt;Node42</title>
<g id="a_edge41_Node000002_Node000042"><a xlink:title=" ">
<path fill="none" stroke="#63b8ff" d="M4363.42,-184.53C4724.27,-184.5 6486.53,-182.19 7028.5,-140 7044.14,-138.78 7061.07,-136.7 7076.47,-134.52"/>
<polygon fill="#63b8ff" stroke="#63b8ff" points="4363.15,-181.03 4353.15,-184.53 4363.15,-188.03 4363.15,-181.03"/>
</a>
</g>
</g>
<!-- Node43 -->
<g id="Node000043" class="node">
<title>Node43</title>
<g id="a_Node000043"><a xlink:href="Ch09__ErrorReporting_8c.html" target="_top" xlink:title="Cookbook Chapter 9: Advanced Error Reporting for the Parser.">
<polygon fill="white" stroke="#666666" points="7429,-134.5 7238,-134.5 7238,-115.5 7429,-115.5 7429,-134.5"/>
<text text-anchor="middle" x="7333.5" y="-122.5" font-family="Helvetica,sans-Serif" font-size="10.00">eg/cookbook/Ch09_ErrorReporting.c</text>
</a>
</g>
</g>
<!-- Node2&#45;&gt;Node43 -->
<g id="edge42_Node000002_Node000043" class="edge">
<title>Node2&#45;&gt;Node43</title>
<g id="a_edge42_Node000002_Node000043"><a xlink:title=" ">
<path fill="none" stroke="#63b8ff" d="M4363.28,-184.55C4739.25,-184.69 6644.18,-183.24 7228.5,-140 7244.91,-138.79 7262.69,-136.71 7278.86,-134.52"/>
<polygon fill="#63b8ff" stroke="#63b8ff" points="4363.13,-181.05 4353.13,-184.55 4363.13,-188.05 4363.13,-181.05"/>
</a>
</g>
</g>
<!-- Node44 -->
<g id="Node000044" class="node">
<title>Node44</title>
<g id="a_Node000044"><a xlink:href="Ch12__DirectMarshalling_8c.html" target="_top" xlink:title="Cookbook Chapter 12: High&#45;Performance Language Bindings.">
<polygon fill="white" stroke="#666666" points="7653.5,-134.5 7447.5,-134.5 7447.5,-115.5 7653.5,-115.5 7653.5,-134.5"/>
<text text-anchor="middle" x="7550.5" y="-122.5" font-family="Helvetica,sans-Serif" font-size="10.00">eg/cookbook/Ch12_DirectMarshalling.c</text>
</a>
</g>
</g>
<!-- Node2&#45;&gt;Node44 -->
<g id="edge43_Node000002_Node000044" class="edge">
<title>Node2&#45;&gt;Node44</title>
<g id="a_edge43_Node000002_Node000044"><a xlink:title=" ">
<path fill="none" stroke="#63b8ff" d="M4363.16,-184.55C4754.34,-184.68 6808.78,-183.27 7437.5,-140 7455.15,-138.79 7474.27,-136.71 7491.68,-134.52"/>
<polygon fill="#63b8ff" stroke="#63b8ff" points="4363.15,-181.05 4353.15,-184.54 4363.14,-188.05 4363.15,-181.05"/>
</a>
</g>
</g>
<!-- Node45 -->
<g id="Node000045" class="node">
<title>Node45</title>
<g id="a_Node000045"><a xlink:href="win32__msgbox_8c.html" target="_top" xlink:title=" ">
<polygon fill="white" stroke="#666666" points="7785,-134.5 7672,-134.5 7672,-115.5 7785,-115.5 7785,-134.5"/>
<text text-anchor="middle" x="7728.5" y="-122.5" font-family="Helvetica,sans-Serif" font-size="10.00">eg/win32_msgbox.c</text>
</a>
</g>
</g>
<!-- Node2&#45;&gt;Node45 -->
<g id="edge44_Node000002_Node000045" class="edge">
<title>Node2&#45;&gt;Node45</title>
<g id="a_edge44_Node000002_Node000045"><a xlink:title=" ">
<path fill="none" stroke="#63b8ff" d="M4363.46,-184.41C4802.06,-183.67 7323.5,-177.83 7662.5,-140 7672.98,-138.83 7684.24,-136.75 7694.45,-134.55"/>
<polygon fill="#63b8ff" stroke="#63b8ff" points="4363.18,-180.91 4353.19,-184.42 4363.19,-187.91 4363.18,-180.91"/>
</a>
</g>
</g>
<!-- Node46 -->
<g id="Node000046" class="node">
<title>Node46</title>
<g id="a_Node000046"><a xlink:href="fuzz__helpers_8h.html" target="_top" xlink:title="Common definitions, structures, and helpers for all fuzzer targets.">
<polygon fill="#fff0f0" stroke="red" points="7951.5,-74 7841.5,-74 7841.5,-55 7951.5,-55 7951.5,-74"/>
<text text-anchor="middle" x="7896.5" y="-62" font-family="Helvetica,sans-Serif" font-size="10.00">fuzz/fuzz_helpers.h</text>
</a>
</g>
</g>
<!-- Node2&#45;&gt;Node46 -->
<g id="edge45_Node000002_Node000046" class="edge">
<title>Node2&#45;&gt;Node46</title>
<g id="a_edge45_Node000002_Node000046"><a xlink:title=" ">
<path fill="none" stroke="#63b8ff" d="M4363.34,-184.39C4836.77,-183.5 7745.21,-176.57 7827.5,-140 7858.75,-126.11 7882.26,-90.49 7891.82,-74.05"/>
<polygon fill="#63b8ff" stroke="#63b8ff" points="4363.25,-180.89 4353.26,-184.41 4363.26,-187.89 4363.25,-180.89"/>
</a>
</g>
</g>
<!-- Node50 -->
<g id="Node000050" class="node">
<title>Node50</title>
<g id="a_Node000050"><a xlink:href="fuzz__signature_8c.html" target="_top" xlink:title="Fuzzer target for the high&#45;level signature parsing API.">
<polygon fill="white" stroke="#666666" points="7914,-19 7795,-19 7795,0 7914,0 7914,-19"/>
<text text-anchor="middle" x="7854.5" y="-7" font-family="Helvetica,sans-Serif" font-size="10.00">fuzz/fuzz_signature.c</text>
</a>
</g>
</g>
<!-- Node2&#45;&gt;Node50 -->
<g id="edge47_Node000002_Node000050" class="edge">
<title>Node2&#45;&gt;Node50</title>
<g id="a_edge47_Node000002_Node000050"><a xlink:title=" ">
<path fill="none" stroke="#63b8ff" d="M4363.21,-184.15C4837.24,-181.51 7756.11,-164.32 7793.5,-140 7828.34,-117.34 7814.62,-92.52 7832.5,-55 7838.43,-42.55 7845.54,-28.28 7850.04,-19.33"/>
<polygon fill="#63b8ff" stroke="#63b8ff" points="4363.1,-180.65 4353.12,-184.2 4363.14,-187.65 4363.1,-180.65"/>
</a>
</g>
</g>
<!-- Node54 -->
<g id="Node000054" class="node">
<title>Node54</title>
<g id="a_Node000054"><a xlink:href="infix__internals_8h.html" target="_top" xlink:title="Internal data structures, function prototypes, and constants.">
<polygon fill="#fff0f0" stroke="red" points="8253.5,-134.5 8095.5,-134.5 8095.5,-115.5 8253.5,-115.5 8253.5,-134.5"/>
<text text-anchor="middle" x="8174.5" y="-122.5" font-family="Helvetica,sans-Serif" font-size="10.00">src/common/infix_internals.h</text>
</a>
</g>
</g>
<!-- Node2&#45;&gt;Node54 -->
<g id="edge48_Node000002_Node000054" class="edge">
<title>Node2&#45;&gt;Node54</title>
<g id="a_edge48_Node000002_Node000054"><a xlink:title=" ">
<path fill="none" stroke="#63b8ff" d="M4363.62,-184.3C4833.7,-182.8 7700.74,-172.35 8085.5,-140 8099.53,-138.82 8114.69,-136.74 8128.46,-134.54"/>
<polygon fill="#63b8ff" stroke="#63b8ff" points="4363.27,-180.8 4353.29,-184.34 4363.3,-187.8 4363.27,-180.8"/>
</a>
</g>
</g>
<!-- Node46&#45;&gt;Node50 -->
<g id="edge46_Node000046_Node000050" class="edge">
<title>Node46&#45;&gt;Node50</title>
<g id="a_edge46_Node000046_Node000050"><a xlink:title=" ">
<path fill="none" stroke="#63b8ff" d="M7883.17,-46.67C7875.89,-37.5 7867.2,-26.52 7861.31,-19.09"/>
<polygon fill="#63b8ff" stroke="#63b8ff" points="7880.61,-49.08 7889.56,-54.75 7886.1,-44.74 7880.61,-49.08"/>
</a>
</g>
</g>
<!-- Node54&#45;&gt;Node46 -->
<g id="edge49_Node000054_Node000046" class="edge">
<title>Node54&#45;&gt;Node46</title>
<g id="a_edge49_Node000054_Node000046"><a xlink:title=" ">
<path fill="none" stroke="#63b8ff" d="M8124.09,-113.39C8070.41,-102.1 7986.51,-84.44 7936.97,-74.02"/>
<polygon fill="#63b8ff" stroke="#63b8ff" points="8123.57,-116.86 8134.08,-115.49 8125.01,-110.01 8123.57,-116.86"/>
</a>
</g>
</g>
<!-- Node104&#45;&gt;Node54 -->
<g id="edge51_Node000104_Node000054" class="edge">
<title>Node104&#45;&gt;Node54</title>
<g id="a_edge51_Node000104_Node000054"><a xlink:title=" ">
<path fill="none" stroke="#63b8ff" d="M6381.38,-176.02C7138.46,-125.99 7333.84,-206.75 8085.5,-140 8099.37,-138.77 8114.35,-136.7 8127.99,-134.53"/>
<polygon fill="#63b8ff" stroke="#63b8ff" points="6381.06,-172.54 6371.32,-176.69 6381.53,-179.52 6381.06,-172.54"/>
</a>
</g>
</g>
</g>
</svg>
