<?xml version="1.0" encoding="UTF-8" standalone="no"?>
<!DOCTYPE svg PUBLIC "-//W3C//DTD SVG 1.1//EN"
 "http://www.w3.org/Graphics/SVG/1.1/DTD/svg11.dtd">
<!-- Generated by graphviz version 2.43.0 (0)
 -->
<!-- Title: src/common/compat_c23.h Pages: 1 -->
<svg width="329pt" height="137pt"
 viewBox="0.00 0.00 328.50 137.00" xmlns="http://www.w3.org/2000/svg" xmlns:xlink="http://www.w3.org/1999/xlink">
<g id="graph0" class="graph" transform="scale(1 1) rotate(0) translate(4 133)">
<title>src/common/compat_c23.h</title>
<!-- Node1 -->
<g id="Node000001" class="node">
<title>Node1</title>
<g id="a_Node000001"><a xlink:title="Provides forward compatibility macros for C23 features.">
<polygon fill="#999999" stroke="#666666" points="261.5,-129 113.5,-129 113.5,-110 261.5,-110 261.5,-129"/>
<text text-anchor="middle" x="187.5" y="-117" font-family="Helvetica,sans-Serif" font-size="10.00">src/common/compat_c23.h</text>
</a>
</g>
</g>
<!-- Node2 -->
<g id="Node000002" class="node">
<title>Node2</title>
<g id="a_Node000002"><a xlink:href="infix__config_8h.html" target="_top" xlink:title="Platform, architecture, and ABI detection macros.">
<polygon fill="white" stroke="#666666" points="127,-74 0,-74 0,-55 127,-55 127,-74"/>
<text text-anchor="middle" x="63.5" y="-62" font-family="Helvetica,sans-Serif" font-size="10.00">common/infix_config.h</text>
</a>
</g>
</g>
<!-- Node1&#45;&gt;Node2 -->
<g id="edge1_Node000001_Node000002" class="edge">
<title>Node1&#45;&gt;Node2</title>
<g id="a_edge1_Node000001_Node000002"><a xlink:title=" ">
<path fill="none" stroke="#63b8ff" d="M167.58,-109.98C147.45,-101.38 116.12,-87.99 93.09,-78.15"/>
<polygon fill="#63b8ff" stroke="#63b8ff" points="94.36,-74.88 83.79,-74.17 91.6,-81.32 94.36,-74.88"/>
</a>
</g>
</g>
<!-- Node3 -->
<g id="Node000003" class="node">
<title>Node3</title>
<g id="a_Node000003"><a xlink:href="infix_8h.html" target="_top" xlink:title="The public interface for the infix FFI library.">
<polygon fill="white" stroke="#666666" points="255,-74 184,-74 184,-55 255,-55 255,-74"/>
<text text-anchor="middle" x="219.5" y="-62" font-family="Helvetica,sans-Serif" font-size="10.00">infix/infix.h</text>
</a>
</g>
</g>
<!-- Node1&#45;&gt;Node3 -->
<g id="edge2_Node000001_Node000003" class="edge">
<title>Node1&#45;&gt;Node3</title>
<g id="a_edge2_Node000001_Node000003"><a xlink:title=" ">
<path fill="none" stroke="#63b8ff" d="M192.78,-109.75C197.21,-102.42 203.66,-91.73 209.12,-82.7"/>
<polygon fill="#63b8ff" stroke="#63b8ff" points="212.14,-84.46 214.31,-74.09 206.15,-80.84 212.14,-84.46"/>
</a>
</g>
</g>
<!-- Node4 -->
<g id="Node000004" class="node">
<title>Node4</title>
<g id="a_Node000004"><a xlink:title=" ">
<polygon fill="#e0e0e0" stroke="#999999" points="174.5,-19 112.5,-19 112.5,0 174.5,0 174.5,-19"/>
<text text-anchor="middle" x="143.5" y="-7" font-family="Helvetica,sans-Serif" font-size="10.00">stdbool.h</text>
</a>
</g>
</g>
<!-- Node1&#45;&gt;Node4 -->
<g id="edge6_Node000001_Node000004" class="edge">
<title>Node1&#45;&gt;Node4</title>
<g id="a_edge6_Node000001_Node000004"><a xlink:title=" ">
<path fill="none" stroke="#63b8ff" d="M183.9,-109.66C176.71,-92.01 160.44,-52.09 150.89,-28.64"/>
<polygon fill="#63b8ff" stroke="#63b8ff" points="154.04,-27.1 147.03,-19.16 147.56,-29.74 154.04,-27.1"/>
</a>
</g>
</g>
<!-- Node5 -->
<g id="Node000005" class="node">
<title>Node5</title>
<g id="a_Node000005"><a xlink:title=" ">
<polygon fill="#e0e0e0" stroke="#999999" points="320.5,-19 264.5,-19 264.5,0 320.5,0 320.5,-19"/>
<text text-anchor="middle" x="292.5" y="-7" font-family="Helvetica,sans-Serif" font-size="10.00">stddef.h</text>
</a>
</g>
</g>
<!-- Node1&#45;&gt;Node5 -->
<g id="edge7_Node000001_Node000005" class="edge">
<title>Node1&#45;&gt;Node5</title>
<g id="a_edge7_Node000001_Node000005"><a xlink:title=" ">
<path fill="none" stroke="#63b8ff" d="M210.3,-109.9C227.15,-102.56 249.66,-90.55 264.5,-74 276.05,-61.12 283.45,-42.71 287.73,-29.02"/>
<polygon fill="#63b8ff" stroke="#63b8ff" points="291.14,-29.83 290.5,-19.26 284.4,-27.92 291.14,-29.83"/>
</a>
</g>
</g>
<!-- Node3&#45;&gt;Node4 -->
<g id="edge3_Node000003_Node000004" class="edge">
<title>Node3&#45;&gt;Node4</title>
<g id="a_edge3_Node000003_Node000004"><a xlink:title=" ">
<path fill="none" stroke="#63b8ff" d="M207.29,-54.98C195.72,-46.92 178.12,-34.65 164.34,-25.03"/>
<polygon fill="#63b8ff" stroke="#63b8ff" points="166.14,-22.02 155.93,-19.17 162.13,-27.76 166.14,-22.02"/>
</a>
</g>
</g>
<!-- Node3&#45;&gt;Node5 -->
<g id="edge4_Node000003_Node000005" class="edge">
<title>Node3&#45;&gt;Node5</title>
<g id="a_edge4_Node000003_Node000005"><a xlink:title=" ">
<path fill="none" stroke="#63b8ff" d="M231.23,-54.98C242.23,-47 258.92,-34.88 272.1,-25.31"/>
<polygon fill="#63b8ff" stroke="#63b8ff" points="274.52,-27.88 280.56,-19.17 270.41,-22.21 274.52,-27.88"/>
</a>
</g>
</g>
<!-- Node6 -->
<g id="Node000006" class="node">
<title>Node6</title>
<g id="a_Node000006"><a xlink:title=" ">
<polygon fill="#e0e0e0" stroke="#999999" points="246,-19 193,-19 193,0 246,0 246,-19"/>
<text text-anchor="middle" x="219.5" y="-7" font-family="Helvetica,sans-Serif" font-size="10.00">stdint.h</text>
</a>
</g>
</g>
<!-- Node3&#45;&gt;Node6 -->
<g id="edge5_Node000003_Node000006" class="edge">
<title>Node3&#45;&gt;Node6</title>
<g id="a_edge5_Node000003_Node000006"><a xlink:title=" ">
<path fill="none" stroke="#63b8ff" d="M219.5,-54.75C219.5,-47.8 219.5,-37.85 219.5,-29.13"/>
<polygon fill="#63b8ff" stroke="#63b8ff" points="223,-29.09 219.5,-19.09 216,-29.09 223,-29.09"/>
</a>
</g>
</g>
</g>
</svg>
