<?xml version="1.0" encoding="UTF-8" standalone="no"?>
<!DOCTYPE svg PUBLIC "-//W3C//DTD SVG 1.1//EN"
 "http://www.w3.org/Graphics/SVG/1.1/DTD/svg11.dtd">
<!-- Generated by graphviz version 2.43.0 (0)
 -->
<!-- Title: src/emit Pages: 1 -->
<svg width="242pt" height="141pt"
 viewBox="0.00 0.00 242.00 141.00" xmlns="http://www.w3.org/2000/svg" xmlns:xlink="http://www.w3.org/1999/xlink">
<g id="graph0" class="graph" transform="scale(1 1) rotate(0) translate(4 137)">
<title>src/emit</title>
<g id="clust1" class="cluster">
<title>clusterdir_68267d1309a1af8e8297ef4c3efbcdba</title>
<g id="a_clust1"><a xlink:href="dir_68267d1309a1af8e8297ef4c3efbcdba.html" target="_top" xlink:title="src">
<polygon fill="#edf0f7" stroke="#404040" stroke-dasharray="5,2" points="8,-8 8,-125 174,-125 174,-8 8,-8"/>
<text text-anchor="middle" x="91" y="-113" font-family="Helvetica,sans-Serif" font-size="10.00">src</text>
</a>
</g>
</g>
<g id="clust2" class="cluster">
<title>clusterdir_b42aa634350d12e14c32186afbae4365</title>
<g id="a_clust2"><a xlink:href="dir_b42aa634350d12e14c32186afbae4365.html" target="_top">
<polygon fill="#edf0f7" stroke="#404040" stroke-width="2" points="16,-63 16,-98 166,-98 166,-63 16,-63"/>
</a>
</g>
</g>
<!-- dir_fdedb0aba14d44ce9d99bc100e026e6a -->
<g id="node1" class="node">
<title>dir_fdedb0aba14d44ce9d99bc100e026e6a</title>
<g id="a_node1"><a xlink:href="dir_fdedb0aba14d44ce9d99bc100e026e6a.html" target="_top" xlink:title="common">
<polygon fill="#a2b4d6" stroke="#404040" points="120.5,-35 61.5,-35 61.5,-16 120.5,-16 120.5,-35"/>
<text text-anchor="middle" x="91" y="-23" font-family="Helvetica,sans-Serif" font-size="10.00">common</text>
</a>
</g>
</g>
<!-- dir_b42aa634350d12e14c32186afbae4365 -->
<g id="node2" class="node">
<title>dir_b42aa634350d12e14c32186afbae4365</title>
<text text-anchor="middle" x="91" y="-78" font-family="Helvetica,sans-Serif" font-size="10.00">emit</text>
</g>
<!-- dir_b42aa634350d12e14c32186afbae4365&#45;&gt;dir_fdedb0aba14d44ce9d99bc100e026e6a -->
<g id="edge2" class="edge">
<title>dir_b42aa634350d12e14c32186afbae4365&#45;&gt;dir_fdedb0aba14d44ce9d99bc100e026e6a</title>
<g id="a_edge2"><a xlink:href="dir_000009_000002.html" target="_top">
<path fill="none" stroke="#63b8ff" d="M91,-70.75C91,-63.8 91,-53.85 91,-45.13"/>
<polygon fill="#63b8ff" stroke="#63b8ff" points="94.5,-45.09 91,-35.09 87.5,-45.09 94.5,-45.09"/>
</a>
</g>
<g id="a_edge2&#45;headlabel"><a xlink:href="dir_000009_000002.html" target="_top" xlink:title="3">
<text text-anchor="middle" x="97.34" y="-46.18" font-family="Helvetica,sans-Serif" font-size="10.00" fill="#63b8ff">3</text>
</a>
</g>
</g>
<!-- dir_d44c64559bbebec7f509842c48db8b23 -->
<g id="node5" class="node">
<title>dir_d44c64559bbebec7f509842c48db8b23</title>
<g id="a_node5"><a xlink:href="dir_d44c64559bbebec7f509842c48db8b23.html" target="_top" xlink:title="include">
<polygon fill="#edf0f7" stroke="red" points="234,-35 182,-35 182,-16 234,-16 234,-35"/>
<text text-anchor="middle" x="208" y="-23" font-family="Helvetica,sans-Serif" font-size="10.00">include</text>
</a>
</g>
</g>
<!-- dir_b42aa634350d12e14c32186afbae4365&#45;&gt;dir_d44c64559bbebec7f509842c48db8b23 -->
<g id="edge1" class="edge">
<title>dir_b42aa634350d12e14c32186afbae4365&#45;&gt;dir_d44c64559bbebec7f509842c48db8b23</title>
<g id="a_edge1"><a xlink:href="dir_000009_000011.html" target="_top">
<path fill="none" stroke="#63b8ff" d="M104.74,-70.87C109.21,-68.21 114.25,-65.36 119,-63 137.13,-54 158.04,-45.34 175.04,-38.71"/>
<polygon fill="#63b8ff" stroke="#63b8ff" points="176.47,-41.92 184.55,-35.06 173.96,-35.38 176.47,-41.92"/>
</a>
</g>
<g id="a_edge1&#45;headlabel"><a xlink:href="dir_000009_000011.html" target="_top" xlink:title="6">
<text text-anchor="middle" x="174.13" y="-43.36" font-family="Helvetica,sans-Serif" font-size="10.00" fill="#63b8ff">6</text>
</a>
</g>
</g>
<!-- dir_1334d7dfb9d5cda24a06fe3ad2db0463 -->
<g id="node3" class="node">
<title>dir_1334d7dfb9d5cda24a06fe3ad2db0463</title>
<g id="a_node3"><a xlink:href="dir_1334d7dfb9d5cda24a06fe3ad2db0463.html" target="_top" xlink:title="elf">
<polygon fill="#a2b4d6" stroke="#404040" points="53.5,-90 24.5,-90 24.5,-71 53.5,-71 53.5,-90"/>
<text text-anchor="middle" x="39" y="-78" font-family="Helvetica,sans-Serif" font-size="10.00">elf</text>
</a>
</g>
</g>
<!-- dir_1334d7dfb9d5cda24a06fe3ad2db0463&#45;&gt;dir_fdedb0aba14d44ce9d99bc100e026e6a -->
<g id="edge4" class="edge">
<title>dir_1334d7dfb9d5cda24a06fe3ad2db0463&#45;&gt;dir_fdedb0aba14d44ce9d99bc100e026e6a</title>
<g id="a_edge4"><a xlink:href="dir_000007_000002.html" target="_top">
<path fill="none" stroke="#63b8ff" d="M47.59,-70.75C55.16,-63.03 66.38,-51.6 75.51,-42.28"/>
<polygon fill="#63b8ff" stroke="#63b8ff" points="78.07,-44.68 82.57,-35.09 73.07,-39.78 78.07,-44.68"/>
</a>
</g>
<g id="a_edge4&#45;headlabel"><a xlink:href="dir_000007_000002.html" target="_top" xlink:title="1">
<text text-anchor="middle" x="77.58" y="-46.73" font-family="Helvetica,sans-Serif" font-size="10.00" fill="#63b8ff">1</text>
</a>
</g>
</g>
<!-- dir_1334d7dfb9d5cda24a06fe3ad2db0463&#45;&gt;dir_d44c64559bbebec7f509842c48db8b23 -->
<g id="edge3" class="edge">
<title>dir_1334d7dfb9d5cda24a06fe3ad2db0463&#45;&gt;dir_d44c64559bbebec7f509842c48db8b23</title>
<g id="a_edge3"><a xlink:href="dir_000007_000011.html" target="_top">
<path fill="none" stroke="#63b8ff" d="M49.24,-70.87C53.05,-68.01 57.53,-65.05 62,-63 107.2,-42.29 124.51,-47.63 171.94,-36.45"/>
<polygon fill="#63b8ff" stroke="#63b8ff" points="172.98,-39.79 181.84,-33.98 171.29,-33 172.98,-39.79"/>
</a>
</g>
<g id="a_edge3&#45;headlabel"><a xlink:href="dir_000007_000011.html" target="_top" xlink:title="1">
<text text-anchor="middle" x="170.18" y="-40.92" font-family="Helvetica,sans-Serif" font-size="10.00" fill="#63b8ff">1</text>
</a>
</g>
</g>
<!-- dir_7346c2944bf48cd311718a39452b546a -->
<g id="node4" class="node">
<title>dir_7346c2944bf48cd311718a39452b546a</title>
<g id="a_node4"><a xlink:href="dir_7346c2944bf48cd311718a39452b546a.html" target="_top" xlink:title="pe">
<polygon fill="#a2b4d6" stroke="#404040" points="157.5,-90 128.5,-90 128.5,-71 157.5,-71 157.5,-90"/>
<text text-anchor="middle" x="143" y="-78" font-family="Helvetica,sans-Serif" font-size="10.00">pe</text>
</a>
</g>
</g>
<!-- dir_7346c2944bf48cd311718a39452b546a&#45;&gt;dir_fdedb0aba14d44ce9d99bc100e026e6a -->
<g id="edge6" class="edge">
<title>dir_7346c2944bf48cd311718a39452b546a&#45;&gt;dir_fdedb0aba14d44ce9d99bc100e026e6a</title>
<g id="a_edge6"><a xlink:href="dir_000016_000002.html" target="_top">
<path fill="none" stroke="#63b8ff" d="M134.41,-70.75C126.84,-63.03 115.62,-51.6 106.49,-42.28"/>
<polygon fill="#63b8ff" stroke="#63b8ff" points="108.93,-39.78 99.43,-35.09 103.93,-44.68 108.93,-39.78"/>
</a>
</g>
<g id="a_edge6&#45;headlabel"><a xlink:href="dir_000016_000002.html" target="_top" xlink:title="1">
<text text-anchor="middle" x="113.47" y="-37.85" font-family="Helvetica,sans-Serif" font-size="10.00" fill="#63b8ff">1</text>
</a>
</g>
</g>
<!-- dir_7346c2944bf48cd311718a39452b546a&#45;&gt;dir_d44c64559bbebec7f509842c48db8b23 -->
<g id="edge5" class="edge">
<title>dir_7346c2944bf48cd311718a39452b546a&#45;&gt;dir_d44c64559bbebec7f509842c48db8b23</title>
<g id="a_edge5"><a xlink:href="dir_000016_000011.html" target="_top">
<path fill="none" stroke="#63b8ff" d="M153.44,-70.98C163.15,-63.07 177.82,-51.11 189.5,-41.58"/>
<polygon fill="#63b8ff" stroke="#63b8ff" points="191.83,-44.2 197.37,-35.17 187.4,-38.78 191.83,-44.2"/>
</a>
</g>
<g id="a_edge5&#45;headlabel"><a xlink:href="dir_000016_000011.html" target="_top" xlink:title="1">
<text text-anchor="middle" x="190.84" y="-46.17" font-family="Helvetica,sans-Serif" font-size="10.00" fill="#63b8ff">1</text>
</a>
</g>
</g>
</g>
</svg>
