<?xml version="1.0" encoding="UTF-8" standalone="no"?>
<!DOCTYPE svg PUBLIC "-//W3C//DTD SVG 1.1//EN"
 "http://www.w3.org/Graphics/SVG/1.1/DTD/svg11.dtd">
<!-- Generated by graphviz version 2.43.0 (0)
 -->
<!-- Title: src/common/double_tap.h Pages: 1 -->
<!--zoomable 93 -->

<svg id="main" version="1.1" xmlns="http://www.w3.org/2000/svg" xmlns:xlink="http://www.w3.org/1999/xlink" xml:space="preserve" onload="init(evt)">
<style type="text/css"><![CDATA[
.node, .edge {opacity: 0.7;}
.node.selected, .edge.selected {opacity: 1;}
.edge:hover path { stroke: red; }
.edge:hover polygon { stroke: red; fill: red; }
]]></style>

<defs>
  <circle id="rim" cx="0" cy="0" r="7"/>
  <circle id="rim2" cx="0" cy="0" r="3.5"/>
  <g id="zoomPlus">
    <use xlink:href="#rim" fill="#404040"><set attributeName="fill" to="#808080" begin="zoomplus.mouseover" end="zoomplus.mouseout"/></use>
    <path d="M-4,0h8M0,-4v8" fill="none" stroke="white" stroke-width="1.5" pointer-events="none"/>
  </g>
  <g id="zoomMin">
    <use xlink:href="#rim" fill="#404040"><set attributeName="fill" to="#808080" begin="zoomminus.mouseover" end="zoomminus.mouseout"/></use>
    <path d="M-4,0h8" fill="none" stroke="white" stroke-width="1.5" pointer-events="none"/>
  </g>
  <g id="arrowUp" transform="translate(30 24)">
    <use xlink:href="#rim"/>
    <path pointer-events="none" fill="none" stroke="white" stroke-width="1.5" d="M0,-3.0v7 M-2.5,-0.5L0,-3.0L2.5,-0.5"/>
  </g>
  <g id="arrowRight" transform="rotate(90) translate(36 -43)">
    <use xlink:href="#rim"/>
    <path pointer-events="none" fill="none" stroke="white" stroke-width="1.5" d="M0,-3.0v7 M-2.5,-0.5L0,-3.0L2.5,-0.5"/>
  </g>
  <g id="arrowDown" transform="rotate(180) translate(-30 -48)">
    <use xlink:href="#rim"/>
    <path pointer-events="none" fill="none" stroke="white" stroke-width="1.5" d="M0,-3.0v7 M-2.5,-0.5L0,-3.0L2.5,-0.5"/>
  </g>
  <g id="arrowLeft" transform="rotate(270) translate(-36 17)">
    <use xlink:href="#rim"/>
    <path pointer-events="none" fill="none" stroke="white" stroke-width="1.5" d="M0,-3.0v7 M-2.5,-0.5L0,-3.0L2.5,-0.5"/>
  </g>
  <g id="resetDef">
    <use xlink:href="#rim2" fill="#404040"><set attributeName="fill" to="#808080" begin="reset.mouseover" end="reset.mouseout"/></use>
  </g>
</defs>
<script type="application/ecmascript">
var viewWidth = 4062;
var viewHeight = 93;
var sectionId = 'dynsection-0';
</script>
<script type="application/ecmascript" xlink:href="svg.min.js"/>
<svg id="graph" class="graph">
<g id="viewport">
<title>src/common/double_tap.h</title>
<!-- Node1 -->
<g id="Node000001" class="node">
<title>Node1</title>
<g id="a_Node000001"><a xlink:title="A lightweight, single&#45;header TAP (Test Anything Protocol) library.">
<polygon fill="#999999" stroke="#666666" points="1943.5,-85 1800.5,-85 1800.5,-66 1943.5,-66 1943.5,-85"/>
<text text-anchor="middle" x="1872" y="-73" font-family="Helvetica,sans-Serif" font-size="10.00">src/common/double_tap.h</text>
</a>
</g>
</g>
<!-- Node2 -->
<g id="Node000002" class="node">
<title>Node2</title>
<g id="a_Node000002"><a xlink:href="001__primitives_8c.html" target="_top" xlink:title="Unit test for creating trampolines for functions with primitive C types.">
<polygon fill="white" stroke="#666666" points="104,-24.5 0,-24.5 0,-5.5 104,-5.5 104,-24.5"/>
<text text-anchor="middle" x="52" y="-12.5" font-family="Helvetica,sans-Serif" font-size="10.00">t/001_primitives.c</text>
</a>
</g>
</g>
<!-- Node1&#45;&gt;Node2 -->
<g id="edge1_Node000001_Node000002" class="edge">
<title>Node1&#45;&gt;Node2</title>
<g id="a_edge1_Node000001_Node000002"><a xlink:title=" ">
<path fill="none" stroke="#63b8ff" d="M1789.75,-74.6C1488.19,-74.64 443.6,-71.69 113,-30 103.41,-28.79 93.11,-26.73 83.76,-24.56"/>
<polygon fill="#63b8ff" stroke="#63b8ff" points="1790.16,-78.1 1800.16,-74.6 1790.16,-71.1 1790.16,-78.1"/>
</a>
</g>
</g>
<!-- Node3 -->
<g id="Node000003" class="node">
<title>Node3</title>
<g id="a_Node000003"><a xlink:href="002__simple__calls_8c.html" target="_top" xlink:title="Unit test for basic forward trampoline calls with simple function signatures.">
<polygon fill="white" stroke="#666666" points="238,-24.5 122,-24.5 122,-5.5 238,-5.5 238,-24.5"/>
<text text-anchor="middle" x="180" y="-12.5" font-family="Helvetica,sans-Serif" font-size="10.00">t/002_simple_calls.c</text>
</a>
</g>
</g>
<!-- Node1&#45;&gt;Node3 -->
<g id="edge2_Node000001_Node000003" class="edge">
<title>Node1&#45;&gt;Node3</title>
<g id="a_edge2_Node000001_Node000003"><a xlink:title=" ">
<path fill="none" stroke="#63b8ff" d="M1789.84,-74.19C1503.51,-72.81 550.53,-65.58 247,-30 236.5,-28.77 225.2,-26.7 214.93,-24.53"/>
<polygon fill="#63b8ff" stroke="#63b8ff" points="1790.13,-77.69 1800.15,-74.24 1790.17,-70.69 1790.13,-77.69"/>
</a>
</g>
</g>
<!-- Node4 -->
<g id="Node000004" class="node">
<title>Node4</title>
<g id="a_Node000004"><a xlink:href="003__type__system__api_8c.html" target="_top" xlink:title="Unit test for the Manual API (infix_type_create_* functions).">
<polygon fill="white" stroke="#666666" points="394,-24.5 256,-24.5 256,-5.5 394,-5.5 394,-24.5"/>
<text text-anchor="middle" x="325" y="-12.5" font-family="Helvetica,sans-Serif" font-size="10.00">t/003_type_system_api.c</text>
</a>
</g>
</g>
<!-- Node1&#45;&gt;Node4 -->
<g id="edge3_Node000001_Node000004" class="edge">
<title>Node1&#45;&gt;Node4</title>
<g id="a_edge3_Node000001_Node000004"><a xlink:title=" ">
<path fill="none" stroke="#63b8ff" d="M1790.13,-73.61C1522.51,-70.45 675.16,-58.39 403,-30 390.96,-28.74 377.98,-26.7 366.13,-24.55"/>
<polygon fill="#63b8ff" stroke="#63b8ff" points="1790.12,-77.11 1800.16,-73.73 1790.21,-70.11 1790.12,-77.11"/>
</a>
</g>
</g>
<!-- Node5 -->
<g id="Node000005" class="node">
<title>Node5</title>
<g id="a_Node000005"><a xlink:href="004__signatures_8c.html" target="_top" xlink:title="Unit test for the signature string parser.">
<polygon fill="white" stroke="#666666" points="518,-24.5 412,-24.5 412,-5.5 518,-5.5 518,-24.5"/>
<text text-anchor="middle" x="465" y="-12.5" font-family="Helvetica,sans-Serif" font-size="10.00">t/004_signatures.c</text>
</a>
</g>
</g>
<!-- Node1&#45;&gt;Node5 -->
<g id="edge4_Node000001_Node000005" class="edge">
<title>Node1&#45;&gt;Node5</title>
<g id="a_edge4_Node000001_Node000005"><a xlink:title=" ">
<path fill="none" stroke="#63b8ff" d="M1790.21,-73.82C1537.81,-71.4 773.28,-61.59 527,-30 517.26,-28.75 506.8,-26.68 497.29,-24.5"/>
<polygon fill="#63b8ff" stroke="#63b8ff" points="1790.38,-77.32 1800.41,-73.92 1790.44,-70.32 1790.38,-77.32"/>
</a>
</g>
</g>
<!-- Node6 -->
<g id="Node000006" class="node">
<title>Node6</title>
<g id="a_Node000006"><a xlink:href="005__layouts_8c.html" target="_top" xlink:title="Unit test for the Manual API&#39;s struct and union layout calculations.">
<polygon fill="white" stroke="#666666" points="627.5,-24.5 536.5,-24.5 536.5,-5.5 627.5,-5.5 627.5,-24.5"/>
<text text-anchor="middle" x="582" y="-12.5" font-family="Helvetica,sans-Serif" font-size="10.00">t/005_layouts.c</text>
</a>
</g>
</g>
<!-- Node1&#45;&gt;Node6 -->
<g id="edge5_Node000001_Node000006" class="edge">
<title>Node1&#45;&gt;Node6</title>
<g id="a_edge5_Node000001_Node000006"><a xlink:title=" ">
<path fill="none" stroke="#63b8ff" d="M1789.92,-73.87C1551.15,-71.68 859.62,-62.62 636,-30 627.47,-28.76 618.35,-26.68 610.07,-24.51"/>
<polygon fill="#63b8ff" stroke="#63b8ff" points="1790.24,-77.38 1800.27,-73.97 1790.3,-70.38 1790.24,-77.38"/>
</a>
</g>
</g>
<!-- Node7 -->
<g id="Node000007" class="node">
<title>Node7</title>
<g id="a_Node000007"><a xlink:href="006__end__to__end__calls_8c.html" target="_top" xlink:title="End&#45;to&#45;end unit test for passing and returning aggregate types (structs).">
<polygon fill="white" stroke="#666666" points="784.5,-24.5 645.5,-24.5 645.5,-5.5 784.5,-5.5 784.5,-24.5"/>
<text text-anchor="middle" x="715" y="-12.5" font-family="Helvetica,sans-Serif" font-size="10.00">t/006_end_to_end_calls.c</text>
</a>
</g>
</g>
<!-- Node1&#45;&gt;Node7 -->
<g id="edge6_Node000001_Node000007" class="edge">
<title>Node1&#45;&gt;Node7</title>
<g id="a_edge6_Node000001_Node000007"><a xlink:title=" ">
<path fill="none" stroke="#63b8ff" d="M1790.28,-74.86C1609.92,-74.83 1164.36,-70.28 794,-30 781.95,-28.69 768.97,-26.65 757.08,-24.54"/>
<polygon fill="#63b8ff" stroke="#63b8ff" points="1790.49,-78.36 1800.48,-74.85 1790.48,-71.36 1790.49,-78.36"/>
</a>
</g>
</g>
<!-- Node8 -->
<g id="Node000008" class="node">
<title>Node8</title>
<g id="a_Node000008"><a xlink:href="007__type__registry_8c.html" target="_top" xlink:title="Unit test for the named type registry system.">
<polygon fill="white" stroke="#666666" points="921,-24.5 803,-24.5 803,-5.5 921,-5.5 921,-24.5"/>
<text text-anchor="middle" x="862" y="-12.5" font-family="Helvetica,sans-Serif" font-size="10.00">t/007_type_registry.c</text>
</a>
</g>
</g>
<!-- Node1&#45;&gt;Node8 -->
<g id="edge7_Node000001_Node000008" class="edge">
<title>Node1&#45;&gt;Node8</title>
<g id="a_edge7_Node000001_Node000008"><a xlink:title=" ">
<path fill="none" stroke="#63b8ff" d="M1789.99,-74.91C1625.97,-74.79 1246.12,-69.76 930,-30 919.6,-28.69 908.41,-26.66 898.17,-24.54"/>
<polygon fill="#63b8ff" stroke="#63b8ff" points="1790.48,-78.41 1800.48,-74.91 1790.48,-71.41 1790.48,-78.41"/>
</a>
</g>
</g>
<!-- Node9 -->
<g id="Node000009" class="node">
<title>Node9</title>
<g id="a_Node000009"><a xlink:href="101__by__value_8c.html" target="_top" xlink:title="Unit test for passing and returning aggregates and vectors by value.">
<polygon fill="white" stroke="#666666" points="1038.5,-24.5 939.5,-24.5 939.5,-5.5 1038.5,-5.5 1038.5,-24.5"/>
<text text-anchor="middle" x="989" y="-12.5" font-family="Helvetica,sans-Serif" font-size="10.00">t/101_by_value.c</text>
</a>
</g>
</g>
<!-- Node1&#45;&gt;Node9 -->
<g id="edge8_Node000001_Node000009" class="edge">
<title>Node1&#45;&gt;Node9</title>
<g id="a_edge8_Node000001_Node000009"><a xlink:title=" ">
<path fill="none" stroke="#63b8ff" d="M1789.97,-75.02C1641.12,-74.88 1316.92,-69.52 1047,-30 1038.08,-28.69 1028.53,-26.66 1019.8,-24.54"/>
<polygon fill="#63b8ff" stroke="#63b8ff" points="1790.38,-78.52 1800.39,-75.03 1790.39,-71.52 1790.38,-78.52"/>
</a>
</g>
</g>
<!-- Node10 -->
<g id="Node000010" class="node">
<title>Node10</title>
<g id="a_Node000010"><a xlink:href="102__by__reference_8c.html" target="_top" xlink:title="Unit test for passing and returning large aggregates by reference.">
<polygon fill="white" stroke="#666666" points="1175.5,-24.5 1056.5,-24.5 1056.5,-5.5 1175.5,-5.5 1175.5,-24.5"/>
<text text-anchor="middle" x="1116" y="-12.5" font-family="Helvetica,sans-Serif" font-size="10.00">t/102_by_reference.c</text>
</a>
</g>
</g>
<!-- Node1&#45;&gt;Node10 -->
<g id="edge9_Node000001_Node000010" class="edge">
<title>Node1&#45;&gt;Node10</title>
<g id="a_edge9_Node000001_Node000010"><a xlink:title=" ">
<path fill="none" stroke="#63b8ff" d="M1790.15,-72.87C1660.87,-69.47 1401.71,-59.31 1184,-30 1173.85,-28.63 1162.94,-26.63 1152.9,-24.56"/>
<polygon fill="#63b8ff" stroke="#63b8ff" points="1790.28,-76.37 1800.37,-73.13 1790.46,-69.37 1790.28,-76.37"/>
</a>
</g>
</g>
<!-- Node11 -->
<g id="Node000011" class="node">
<title>Node11</title>
<g id="a_Node000011"><a xlink:href="103__unions_8c.html" target="_top" xlink:title="Unit test for passing and returning unions by value.">
<polygon fill="white" stroke="#666666" points="1280.5,-24.5 1193.5,-24.5 1193.5,-5.5 1280.5,-5.5 1280.5,-24.5"/>
<text text-anchor="middle" x="1237" y="-12.5" font-family="Helvetica,sans-Serif" font-size="10.00">t/103_unions.c</text>
</a>
</g>
</g>
<!-- Node1&#45;&gt;Node11 -->
<g id="edge10_Node000001_Node000011" class="edge">
<title>Node1&#45;&gt;Node11</title>
<g id="a_edge10_Node000001_Node000011"><a xlink:title=" ">
<path fill="none" stroke="#63b8ff" d="M1789.95,-72.92C1676.74,-69.68 1466.59,-59.82 1290,-30 1281.93,-28.64 1273.3,-26.61 1265.4,-24.52"/>
<polygon fill="#63b8ff" stroke="#63b8ff" points="1790.17,-76.43 1800.27,-73.2 1790.37,-69.43 1790.17,-76.43"/>
</a>
</g>
</g>
<!-- Node12 -->
<g id="Node000012" class="node">
<title>Node12</title>
<g id="a_Node000012"><a xlink:href="201__basic_8c.html" target="_top" xlink:title="Unit test for FFI calls involving pointer types.">
<polygon fill="white" stroke="#666666" points="1379,-24.5 1299,-24.5 1299,-5.5 1379,-5.5 1379,-24.5"/>
<text text-anchor="middle" x="1339" y="-12.5" font-family="Helvetica,sans-Serif" font-size="10.00">t/201_basic.c</text>
</a>
</g>
</g>
<!-- Node1&#45;&gt;Node12 -->
<g id="edge11_Node000001_Node000012" class="edge">
<title>Node1&#45;&gt;Node12</title>
<g id="a_edge11_Node000001_Node000012"><a xlink:title=" ">
<path fill="none" stroke="#63b8ff" d="M1790.48,-71.65C1693.77,-67.19 1527.99,-56.2 1388,-30 1380.61,-28.62 1372.72,-26.61 1365.49,-24.54"/>
<polygon fill="#63b8ff" stroke="#63b8ff" points="1790.34,-75.14 1800.49,-72.09 1790.65,-68.15 1790.34,-75.14"/>
</a>
</g>
</g>
<!-- Node13 -->
<g id="Node000013" class="node">
<title>Node13</title>
<g id="a_Node000013"><a xlink:href="202__in__structs_8c.html" target="_top" xlink:title="Unit test for passing structs that contain pointer members.">
<polygon fill="white" stroke="#666666" points="1499,-24.5 1397,-24.5 1397,-5.5 1499,-5.5 1499,-24.5"/>
<text text-anchor="middle" x="1448" y="-12.5" font-family="Helvetica,sans-Serif" font-size="10.00">t/202_in_structs.c</text>
</a>
</g>
</g>
<!-- Node1&#45;&gt;Node13 -->
<g id="edge12_Node000001_Node000013" class="edge">
<title>Node1&#45;&gt;Node13</title>
<g id="a_edge12_Node000001_Node000013"><a xlink:title=" ">
<path fill="none" stroke="#63b8ff" d="M1789.99,-67.02C1715.97,-59.66 1604.24,-47.06 1508,-30 1499.47,-28.49 1490.33,-26.53 1481.82,-24.56"/>
<polygon fill="#63b8ff" stroke="#63b8ff" points="1789.88,-70.52 1800.18,-68.02 1790.57,-63.56 1789.88,-70.52"/>
</a>
</g>
</g>
<!-- Node14 -->
<g id="Node000014" class="node">
<title>Node14</title>
<g id="a_Node000014"><a xlink:href="203__complex_8c.html" target="_top" xlink:title="Unit test for FFI calls involving C99 _Complex types.">
<polygon fill="white" stroke="#666666" points="1614.5,-24.5 1517.5,-24.5 1517.5,-5.5 1614.5,-5.5 1614.5,-24.5"/>
<text text-anchor="middle" x="1566" y="-12.5" font-family="Helvetica,sans-Serif" font-size="10.00">t/203_complex.c</text>
</a>
</g>
</g>
<!-- Node1&#45;&gt;Node14 -->
<g id="edge13_Node000001_Node000014" class="edge">
<title>Node1&#45;&gt;Node14</title>
<g id="a_edge13_Node000001_Node000014"><a xlink:title=" ">
<path fill="none" stroke="#63b8ff" d="M1809.03,-64.26C1758.78,-55.84 1686.68,-43.18 1624,-30 1616.19,-28.36 1607.84,-26.44 1599.97,-24.56"/>
<polygon fill="#63b8ff" stroke="#63b8ff" points="1808.65,-67.75 1819.09,-65.94 1809.8,-60.84 1808.65,-67.75"/>
</a>
</g>
</g>
<!-- Node15 -->
<g id="Node000015" class="node">
<title>Node15</title>
<g id="a_Node000015"><a xlink:href="301__primitives_8c.html" target="_top" xlink:title="Unit test for reverse trampolines (callbacks) with primitive C types.">
<polygon fill="white" stroke="#666666" points="1737,-24.5 1633,-24.5 1633,-5.5 1737,-5.5 1737,-24.5"/>
<text text-anchor="middle" x="1685" y="-12.5" font-family="Helvetica,sans-Serif" font-size="10.00">t/301_primitives.c</text>
</a>
</g>
</g>
<!-- Node1&#45;&gt;Node15 -->
<g id="edge14_Node000001_Node000015" class="edge">
<title>Node1&#45;&gt;Node15</title>
<g id="a_edge14_Node000001_Node000015"><a xlink:title=" ">
<path fill="none" stroke="#63b8ff" d="M1835.12,-62.96C1798.95,-51.65 1744.65,-34.66 1712.22,-24.52"/>
<polygon fill="#63b8ff" stroke="#63b8ff" points="1834.22,-66.35 1844.81,-65.99 1836.31,-59.67 1834.22,-66.35"/>
</a>
</g>
</g>
<!-- Node16 -->
<g id="Node000016" class="node">
<title>Node16</title>
<g id="a_Node000016"><a xlink:href="302__aggregates_8c.html" target="_top" xlink:title="Unit test for reverse trampolines (callbacks) with aggregate types.">
<polygon fill="white" stroke="#666666" points="1865,-24.5 1755,-24.5 1755,-5.5 1865,-5.5 1865,-24.5"/>
<text text-anchor="middle" x="1810" y="-12.5" font-family="Helvetica,sans-Serif" font-size="10.00">t/302_aggregates.c</text>
</a>
</g>
</g>
<!-- Node1&#45;&gt;Node16 -->
<g id="edge15_Node000001_Node000016" class="edge">
<title>Node1&#45;&gt;Node16</title>
<g id="a_edge15_Node000001_Node000016"><a xlink:title=" ">
<path fill="none" stroke="#63b8ff" d="M1855.48,-58.91C1843.85,-47.94 1828.72,-33.67 1819.19,-24.67"/>
<polygon fill="#63b8ff" stroke="#63b8ff" points="1853.18,-61.55 1862.85,-65.87 1857.98,-56.46 1853.18,-61.55"/>
</a>
</g>
</g>
<!-- Node17 -->
<g id="Node000017" class="node">
<title>Node17</title>
<g id="a_Node000017"><a xlink:href="303__advanced_8c.html" target="_top" xlink:title="Unit test for advanced reverse trampoline (callback) scenarios.">
<polygon fill="white" stroke="#666666" points="1985,-24.5 1883,-24.5 1883,-5.5 1985,-5.5 1985,-24.5"/>
<text text-anchor="middle" x="1934" y="-12.5" font-family="Helvetica,sans-Serif" font-size="10.00">t/303_advanced.c</text>
</a>
</g>
</g>
<!-- Node1&#45;&gt;Node17 -->
<g id="edge16_Node000001_Node000017" class="edge">
<title>Node1&#45;&gt;Node17</title>
<g id="a_edge16_Node000001_Node000017"><a xlink:title=" ">
<path fill="none" stroke="#63b8ff" d="M1888.52,-58.91C1900.15,-47.94 1915.28,-33.67 1924.81,-24.67"/>
<polygon fill="#63b8ff" stroke="#63b8ff" points="1886.02,-56.46 1881.15,-65.87 1890.82,-61.55 1886.02,-56.46"/>
</a>
</g>
</g>
<!-- Node18 -->
<g id="Node000018" class="node">
<title>Node18</title>
<g id="a_Node000018"><a xlink:href="304__reverse__call__types_8c.html" target="_top" xlink:title="Unit test to explicitly compare the &quot;Callback&quot; vs. &quot;Closure&quot; reverse trampoline APIs.">
<polygon fill="white" stroke="#666666" points="2109,-30 2003,-30 2003,0 2109,0 2109,-30"/>
<text text-anchor="start" x="2011" y="-18" font-family="Helvetica,sans-Serif" font-size="10.00">t/304_reverse_call</text>
<text text-anchor="middle" x="2056" y="-7" font-family="Helvetica,sans-Serif" font-size="10.00">_types.c</text>
</a>
</g>
</g>
<!-- Node1&#45;&gt;Node18 -->
<g id="edge17_Node000001_Node000018" class="edge">
<title>Node1&#45;&gt;Node18</title>
<g id="a_edge17_Node000001_Node000018"><a xlink:title=" ">
<path fill="none" stroke="#63b8ff" d="M1908.32,-62.95C1938.01,-53.51 1980.11,-40.13 2011.76,-30.06"/>
<polygon fill="#63b8ff" stroke="#63b8ff" points="1907.22,-59.63 1898.76,-65.99 1909.35,-66.3 1907.22,-59.63"/>
</a>
</g>
</g>
<!-- Node19 -->
<g id="Node000019" class="node">
<title>Node19</title>
<g id="a_Node000019"><a xlink:href="401__large__stack_8c.html" target="_top" xlink:title="Unit test for FFI calls with a large number of arguments passed on the stack.">
<polygon fill="white" stroke="#666666" points="2238.5,-24.5 2127.5,-24.5 2127.5,-5.5 2238.5,-5.5 2238.5,-24.5"/>
<text text-anchor="middle" x="2183" y="-12.5" font-family="Helvetica,sans-Serif" font-size="10.00">t/401_large_stack.c</text>
</a>
</g>
</g>
<!-- Node1&#45;&gt;Node19 -->
<g id="edge18_Node000001_Node000019" class="edge">
<title>Node1&#45;&gt;Node19</title>
<g id="a_edge18_Node000001_Node000019"><a xlink:title=" ">
<path fill="none" stroke="#63b8ff" d="M1932.01,-64.22C1981.88,-55.54 2054.67,-42.54 2118,-30 2126.61,-28.3 2135.83,-26.37 2144.55,-24.5"/>
<polygon fill="#63b8ff" stroke="#63b8ff" points="1931.29,-60.79 1922.03,-65.95 1932.49,-67.69 1931.29,-60.79"/>
</a>
</g>
</g>
<!-- Node20 -->
<g id="Node000020" class="node">
<title>Node20</title>
<g id="a_Node000020"><a xlink:href="402__variadic__functions_8c.html" target="_top" xlink:title="Unit test for FFI calls to and from variadic C functions.">
<polygon fill="white" stroke="#666666" points="2401,-24.5 2257,-24.5 2257,-5.5 2401,-5.5 2401,-24.5"/>
<text text-anchor="middle" x="2329" y="-12.5" font-family="Helvetica,sans-Serif" font-size="10.00">t/402_variadic_functions.c</text>
</a>
</g>
</g>
<!-- Node1&#45;&gt;Node20 -->
<g id="edge19_Node000001_Node000020" class="edge">
<title>Node1&#45;&gt;Node20</title>
<g id="a_edge19_Node000001_Node000020"><a xlink:title=" ">
<path fill="none" stroke="#63b8ff" d="M1953.55,-66.12C2029.83,-57.98 2146.84,-44.72 2248,-30 2259.02,-28.4 2270.84,-26.47 2281.95,-24.57"/>
<polygon fill="#63b8ff" stroke="#63b8ff" points="1953.11,-62.64 1943.53,-67.18 1953.85,-69.61 1953.11,-62.64"/>
</a>
</g>
</g>
<!-- Node21 -->
<g id="Node000021" class="node">
<title>Node21</title>
<g id="a_Node000021"><a xlink:href="403__special__types_8c.html" target="_top" xlink:title="Unit test for FFI calls with special, non&#45;standard, or platform&#45;dependent primitive types.">
<polygon fill="white" stroke="#666666" points="2541,-24.5 2419,-24.5 2419,-5.5 2541,-5.5 2541,-24.5"/>
<text text-anchor="middle" x="2480" y="-12.5" font-family="Helvetica,sans-Serif" font-size="10.00">t/403_special_types.c</text>
</a>
</g>
</g>
<!-- Node1&#45;&gt;Node21 -->
<g id="edge20_Node000001_Node000021" class="edge">
<title>Node1&#45;&gt;Node21</title>
<g id="a_edge20_Node000001_Node000021"><a xlink:title=" ">
<path fill="none" stroke="#63b8ff" d="M1953.93,-70.66C2059.69,-65.02 2249.23,-52.65 2410,-30 2420.31,-28.55 2431.39,-26.54 2441.62,-24.5"/>
<polygon fill="#63b8ff" stroke="#63b8ff" points="1953.45,-67.18 1943.65,-71.2 1953.82,-74.17 1953.45,-67.18"/>
</a>
</g>
</g>
<!-- Node22 -->
<g id="Node000022" class="node">
<title>Node22</title>
<g id="a_Node000022"><a xlink:href="810__memory__stress_8c.html" target="_top" xlink:title="A stress test to detect memory leaks under heavy allocation/deallocation cycles.">
<polygon fill="white" stroke="#666666" points="2690.5,-24.5 2559.5,-24.5 2559.5,-5.5 2690.5,-5.5 2690.5,-24.5"/>
<text text-anchor="middle" x="2625" y="-12.5" font-family="Helvetica,sans-Serif" font-size="10.00">t/810_memory_stress.c</text>
</a>
</g>
</g>
<!-- Node1&#45;&gt;Node22 -->
<g id="edge21_Node000001_Node000022" class="edge">
<title>Node1&#45;&gt;Node22</title>
<g id="a_edge21_Node000001_Node000022"><a xlink:title=" ">
<path fill="none" stroke="#63b8ff" d="M1953.61,-72.28C2081.27,-68.1 2335.77,-56.93 2550,-30 2561.17,-28.6 2573.19,-26.58 2584.27,-24.52"/>
<polygon fill="#63b8ff" stroke="#63b8ff" points="1953.41,-68.78 1943.52,-72.6 1953.63,-75.78 1953.41,-68.78"/>
</a>
</g>
</g>
<!-- Node23 -->
<g id="Node000023" class="node">
<title>Node23</title>
<g id="a_Node000023"><a xlink:href="811__fault__injection_8c.html" target="_top" xlink:title="Unit test to verify resource cleanup under memory allocation failures.">
<polygon fill="white" stroke="#666666" points="2833.5,-24.5 2708.5,-24.5 2708.5,-5.5 2833.5,-5.5 2833.5,-24.5"/>
<text text-anchor="middle" x="2771" y="-12.5" font-family="Helvetica,sans-Serif" font-size="10.00">t/811_fault_injection.c</text>
</a>
</g>
</g>
<!-- Node1&#45;&gt;Node23 -->
<g id="edge22_Node000001_Node000023" class="edge">
<title>Node1&#45;&gt;Node23</title>
<g id="a_edge22_Node000001_Node000023"><a xlink:title=" ">
<path fill="none" stroke="#63b8ff" d="M1954.17,-73.91C2103.32,-72 2428.32,-63.91 2700,-30 2710.72,-28.66 2722.25,-26.64 2732.84,-24.55"/>
<polygon fill="#63b8ff" stroke="#63b8ff" points="1953.69,-70.42 1943.74,-74.04 1953.78,-77.42 1953.69,-70.42"/>
</a>
</g>
</g>
<!-- Node24 -->
<g id="Node000024" class="node">
<title>Node24</title>
<g id="a_Node000024"><a xlink:href="820__threading__helgrind_8c.html" target="_top" xlink:title="A stress test to detect data races and other threading issues.">
<polygon fill="white" stroke="#666666" points="2998,-24.5 2852,-24.5 2852,-5.5 2998,-5.5 2998,-24.5"/>
<text text-anchor="middle" x="2925" y="-12.5" font-family="Helvetica,sans-Serif" font-size="10.00">t/820_threading_helgrind.c</text>
</a>
</g>
</g>
<!-- Node1&#45;&gt;Node24 -->
<g id="edge23_Node000001_Node000024" class="edge">
<title>Node1&#45;&gt;Node24</title>
<g id="a_edge23_Node000001_Node000024"><a xlink:title=" ">
<path fill="none" stroke="#63b8ff" d="M1954.02,-74.15C2121.56,-72.68 2514.94,-65.39 2843,-30 2855.35,-28.67 2868.65,-26.65 2880.88,-24.56"/>
<polygon fill="#63b8ff" stroke="#63b8ff" points="1953.77,-70.65 1943.8,-74.23 1953.83,-77.65 1953.77,-70.65"/>
</a>
</g>
</g>
<!-- Node25 -->
<g id="Node000025" class="node">
<title>Node25</title>
<g id="a_Node000025"><a xlink:href="830__security_8c.html" target="_top" xlink:title="Unit test for security&#45;hardening features of the infix library.">
<polygon fill="white" stroke="#666666" points="3108,-24.5 3016,-24.5 3016,-5.5 3108,-5.5 3108,-24.5"/>
<text text-anchor="middle" x="3062" y="-12.5" font-family="Helvetica,sans-Serif" font-size="10.00">t/830_security.c</text>
</a>
</g>
</g>
<!-- Node1&#45;&gt;Node25 -->
<g id="edge24_Node000001_Node000025" class="edge">
<title>Node1&#45;&gt;Node25</title>
<g id="a_edge24_Node000001_Node000025"><a xlink:title=" ">
<path fill="none" stroke="#63b8ff" d="M1953.97,-73.52C2179.09,-70.47 2803.63,-59.54 3007,-30 3015.58,-28.75 3024.76,-26.71 3033.12,-24.56"/>
<polygon fill="#63b8ff" stroke="#63b8ff" points="1953.82,-70.02 1943.87,-73.66 1953.92,-77.02 1953.82,-70.02"/>
</a>
</g>
</g>
<!-- Node26 -->
<g id="Node000026" class="node">
<title>Node26</title>
<g id="a_Node000026"><a xlink:href="840__arena__allocator_8c.html" target="_top" xlink:title="Unit test for the internal arena allocator.">
<polygon fill="white" stroke="#666666" points="3256,-24.5 3126,-24.5 3126,-5.5 3256,-5.5 3256,-24.5"/>
<text text-anchor="middle" x="3191" y="-12.5" font-family="Helvetica,sans-Serif" font-size="10.00">t/840_arena_allocator.c</text>
</a>
</g>
</g>
<!-- Node1&#45;&gt;Node26 -->
<g id="edge25_Node000001_Node000026" class="edge">
<title>Node1&#45;&gt;Node26</title>
<g id="a_edge25_Node000001_Node000026"><a xlink:title=" ">
<path fill="none" stroke="#63b8ff" d="M1953.8,-73.19C2193.34,-69.11 2890.53,-55.32 3117,-30 3128.43,-28.72 3140.75,-26.67 3151.99,-24.52"/>
<polygon fill="#63b8ff" stroke="#63b8ff" points="1953.71,-69.69 1943.77,-73.36 1953.83,-76.69 1953.71,-69.69"/>
</a>
</g>
</g>
<!-- Node27 -->
<g id="Node000027" class="node">
<title>Node27</title>
<g id="a_Node000027"><a xlink:href="850__regression__cases_8c.html" target="_top" xlink:title="A suite of regression tests for bugs discovered by fuzzing.">
<polygon fill="white" stroke="#666666" points="3413.5,-24.5 3274.5,-24.5 3274.5,-5.5 3413.5,-5.5 3413.5,-24.5"/>
<text text-anchor="middle" x="3344" y="-12.5" font-family="Helvetica,sans-Serif" font-size="10.00">t/850_regression_cases.c</text>
</a>
</g>
</g>
<!-- Node1&#45;&gt;Node27 -->
<g id="edge26_Node000001_Node000027" class="edge">
<title>Node1&#45;&gt;Node27</title>
<g id="a_edge26_Node000001_Node000027"><a xlink:title=" ">
<path fill="none" stroke="#63b8ff" d="M1953.55,-73.43C2211.58,-69.81 3008.21,-56.72 3265,-30 3277.19,-28.73 3290.34,-26.68 3302.34,-24.54"/>
<polygon fill="#63b8ff" stroke="#63b8ff" points="1953.45,-69.93 1943.5,-73.57 1953.55,-76.93 1953.45,-69.93"/>
</a>
</g>
</g>
<!-- Node28 -->
<g id="Node000028" class="node">
<title>Node28</title>
<g id="a_Node000028"><a xlink:href="851__lifecycle__regression_8c.html" target="_top" xlink:title="Regression tests for specific memory lifecycle and ownership bugs.">
<polygon fill="white" stroke="#666666" points="3584,-24.5 3432,-24.5 3432,-5.5 3584,-5.5 3584,-24.5"/>
<text text-anchor="middle" x="3508" y="-12.5" font-family="Helvetica,sans-Serif" font-size="10.00">t/851_lifecycle_regression.c</text>
</a>
</g>
</g>
<!-- Node1&#45;&gt;Node28 -->
<g id="edge27_Node000001_Node000028" class="edge">
<title>Node1&#45;&gt;Node28</title>
<g id="a_edge27_Node000001_Node000028"><a xlink:title=" ">
<path fill="none" stroke="#63b8ff" d="M1954.08,-73.6C2231.65,-70.35 3133.94,-57.82 3423,-30 3436.1,-28.74 3450.24,-26.69 3463.15,-24.55"/>
<polygon fill="#63b8ff" stroke="#63b8ff" points="1953.65,-70.11 1943.69,-73.73 1953.73,-77.11 1953.65,-70.11"/>
</a>
</g>
</g>
<!-- Node29 -->
<g id="Node000029" class="node">
<title>Node29</title>
<g id="a_Node000029"><a xlink:href="860__error__handling_8c.html" target="_top" xlink:title="Unit test for the error reporting system.">
<polygon fill="white" stroke="#666666" points="3727.5,-24.5 3602.5,-24.5 3602.5,-5.5 3727.5,-5.5 3727.5,-24.5"/>
<text text-anchor="middle" x="3665" y="-12.5" font-family="Helvetica,sans-Serif" font-size="10.00">t/860_error_handling.c</text>
</a>
</g>
</g>
<!-- Node1&#45;&gt;Node29 -->
<g id="edge28_Node000001_Node000029" class="edge">
<title>Node1&#45;&gt;Node29</title>
<g id="a_edge28_Node000001_Node000029"><a xlink:title=" ">
<path fill="none" stroke="#63b8ff" d="M1953.94,-74.19C2250.8,-72.77 3269.46,-65.39 3593,-30 3604.27,-28.77 3616.4,-26.7 3627.44,-24.53"/>
<polygon fill="#63b8ff" stroke="#63b8ff" points="1953.67,-70.69 1943.69,-74.23 1953.7,-77.69 1953.67,-70.69"/>
</a>
</g>
</g>
<!-- Node30 -->
<g id="Node000030" class="node">
<title>Node30</title>
<g id="a_Node000030"><a xlink:href="901__call__overhead_8c.html" target="_top" xlink:title="A micro&#45;benchmark to measure the performance overhead of an FFI call.">
<polygon fill="white" stroke="#666666" points="3868.5,-24.5 3745.5,-24.5 3745.5,-5.5 3868.5,-5.5 3868.5,-24.5"/>
<text text-anchor="middle" x="3807" y="-12.5" font-family="Helvetica,sans-Serif" font-size="10.00">t/901_call_overhead.c</text>
</a>
</g>
</g>
<!-- Node1&#45;&gt;Node30 -->
<g id="edge29_Node000001_Node000030" class="edge">
<title>Node1&#45;&gt;Node30</title>
<g id="a_edge29_Node000001_Node000030"><a xlink:title=" ">
<path fill="none" stroke="#63b8ff" d="M1953.88,-74.44C2266.35,-73.9 3383.91,-69.22 3737,-30 3747.96,-28.78 3759.76,-26.72 3770.49,-24.55"/>
<polygon fill="#63b8ff" stroke="#63b8ff" points="1953.54,-70.94 1943.55,-74.45 1953.55,-77.94 1953.54,-70.94"/>
</a>
</g>
</g>
<!-- Node31 -->
<g id="Node000031" class="node">
<title>Node31</title>
<g id="a_Node000031"><a xlink:href="903__generation__benchmark_8c.html" target="_top" xlink:title="A micro&#45;benchmark to measure the performance of trampoline generation.">
<polygon fill="white" stroke="#666666" points="4053.5,-24.5 3886.5,-24.5 3886.5,-5.5 4053.5,-5.5 4053.5,-24.5"/>
<text text-anchor="middle" x="3970" y="-12.5" font-family="Helvetica,sans-Serif" font-size="10.00">t/903_generation_benchmark.c</text>
</a>
</g>
</g>
<!-- Node1&#45;&gt;Node31 -->
<g id="edge30_Node000001_Node000031" class="edge">
<title>Node1&#45;&gt;Node31</title>
<g id="a_edge30_Node000001_Node000031"><a xlink:title=" ">
<path fill="none" stroke="#63b8ff" d="M1953.94,-74.09C2281.15,-72.24 3494.99,-63.25 3878,-30 3892.33,-28.76 3907.81,-26.69 3921.92,-24.51"/>
<polygon fill="#63b8ff" stroke="#63b8ff" points="1953.57,-70.59 1943.59,-74.15 1953.61,-77.59 1953.57,-70.59"/>
</a>
</g>
</g>
</g>
</svg>

<g id="navigator" transform="translate(0 0)" fill="#404254">
  <rect fill="#f2f5e9" fill-opacity="0.5" stroke="#606060" stroke-width=".5" x="0" y="0" width="60" height="60"/>
  <use id="zoomplus" xlink:href="#zoomPlus" x="17" y="9" onmousedown="handleZoom(evt,'in')"/>
  <use id="zoomminus" xlink:href="#zoomMin" x="42" y="9" onmousedown="handleZoom(evt,'out')"/>
  <use id="reset" xlink:href="#resetDef" x="30" y="36" onmousedown="handleReset()"/>
   <use id="arrowup" xlink:href="#arrowUp" x="0" y="0" onmousedown="handlePan(0,-1)"/>
  <use id="arrowright" xlink:href="#arrowRight" x="0" y="0" onmousedown="handlePan(1,0)"/>
  <use id="arrowdown" xlink:href="#arrowDown" x="0" y="0" onmousedown="handlePan(0,1)"/>
  <use id="arrowleft" xlink:href="#arrowLeft" x="0" y="0" onmousedown="handlePan(-1,0)"/>
</g>
<svg viewBox="0 0 15 15" width="100%" height="30px" preserveAspectRatio="xMaxYMin meet">
 <g id="arrow_out" transform="scale(0.3 0.3)">
  <a xlink:href="double__tap_8h__dep__incl_org.svg" target="_base">
   <rect id="button" ry="5" rx="5" y="6" x="6" height="38" width="38"
        fill="#f2f5e9" fill-opacity="0.5" stroke="#606060" stroke-width="1.0"/>
   <path id="arrow"
     d="M 11.500037,31.436501 C 11.940474,20.09759 22.043105,11.32322 32.158766,21.979434 L 37.068811,17.246167 C 37.068811,17.246167 37.088388,32 37.088388,32 L 22.160133,31.978069 C 22.160133,31.978069 26.997745,27.140456 26.997745,27.140456 C 18.528582,18.264221 13.291696,25.230495 11.500037,31.436501 z"
     style="fill:#404040;"/>
  </a>
 </g>
</svg>

<style type='text/css'>
<![CDATA[
[data-mouse-over-selected='false'] { opacity: 0.7; }
[data-mouse-over-selected='true']  { opacity: 1.0; }
]]>
</style>
<script type="application/ecmascript"><![CDATA[
document.addEventListener('DOMContentLoaded', (event) => {
  highlightEdges();
  highlightAdjacentNodes();
});
]]></script>
</svg>
