<?xml version="1.0" encoding="UTF-8" standalone="no"?>
<!DOCTYPE svg PUBLIC "-//W3C//DTD SVG 1.1//EN"
 "http://www.w3.org/Graphics/SVG/1.1/DTD/svg11.dtd">
<!-- Generated by graphviz version 2.43.0 (0)
 -->
<!-- Title: src/common/double_tap.h Pages: 1 -->
<svg width="4241pt" height="93pt"
 viewBox="0.00 0.00 4240.50 93.00" xmlns="http://www.w3.org/2000/svg" xmlns:xlink="http://www.w3.org/1999/xlink">
<g id="graph0" class="graph" transform="scale(1 1) rotate(0) translate(4 89)">
<title>src/common/double_tap.h</title>
<!-- Node1 -->
<g id="Node000001" class="node">
<title>Node1</title>
<g id="a_Node000001"><a xlink:title="A lightweight, single&#45;header TAP (Test Anything Protocol) library.">
<polygon fill="#999999" stroke="#666666" points="2060.5,-85 1917.5,-85 1917.5,-66 2060.5,-66 2060.5,-85"/>
<text text-anchor="middle" x="1989" y="-73" font-family="Helvetica,sans-Serif" font-size="10.00">src/common/double_tap.h</text>
</a>
</g>
</g>
<!-- Node2 -->
<g id="Node000002" class="node">
<title>Node2</title>
<g id="a_Node000002"><a xlink:href="001__primitives_8c.html" target="_top" xlink:title="Unit test for creating trampolines for functions with primitive C types.">
<polygon fill="white" stroke="#666666" points="104,-24.5 0,-24.5 0,-5.5 104,-5.5 104,-24.5"/>
<text text-anchor="middle" x="52" y="-12.5" font-family="Helvetica,sans-Serif" font-size="10.00">t/001_primitives.c</text>
</a>
</g>
</g>
<!-- Node1&#45;&gt;Node2 -->
<g id="edge1_Node000001_Node000002" class="edge">
<title>Node1&#45;&gt;Node2</title>
<g id="a_edge1_Node000001_Node000002"><a xlink:title=" ">
<path fill="none" stroke="#63b8ff" d="M1906.87,-74.76C1592.79,-75.39 467.69,-74.45 113,-30 103.4,-28.8 93.11,-26.74 83.76,-24.57"/>
<polygon fill="#63b8ff" stroke="#63b8ff" points="1907.26,-78.26 1917.25,-74.73 1907.24,-71.26 1907.26,-78.26"/>
</a>
</g>
</g>
<!-- Node3 -->
<g id="Node000003" class="node">
<title>Node3</title>
<g id="a_Node000003"><a xlink:href="002__simple__calls_8c.html" target="_top" xlink:title="Unit test for basic forward trampoline calls with simple function signatures.">
<polygon fill="white" stroke="#666666" points="238,-24.5 122,-24.5 122,-5.5 238,-5.5 238,-24.5"/>
<text text-anchor="middle" x="180" y="-12.5" font-family="Helvetica,sans-Serif" font-size="10.00">t/002_simple_calls.c</text>
</a>
</g>
</g>
<!-- Node1&#45;&gt;Node3 -->
<g id="edge2_Node000001_Node000003" class="edge">
<title>Node1&#45;&gt;Node3</title>
<g id="a_edge2_Node000001_Node000003"><a xlink:title=" ">
<path fill="none" stroke="#63b8ff" d="M1907.06,-74.37C1607.84,-73.58 574.61,-68.1 247,-30 236.49,-28.78 225.2,-26.71 214.93,-24.54"/>
<polygon fill="#63b8ff" stroke="#63b8ff" points="1907.38,-77.87 1917.39,-74.39 1907.4,-70.87 1907.38,-77.87"/>
</a>
</g>
</g>
<!-- Node4 -->
<g id="Node000004" class="node">
<title>Node4</title>
<g id="a_Node000004"><a xlink:href="003__type__system__api_8c.html" target="_top" xlink:title="Unit test for the Manual API (infix_type_create_* functions).">
<polygon fill="white" stroke="#666666" points="394,-24.5 256,-24.5 256,-5.5 394,-5.5 394,-24.5"/>
<text text-anchor="middle" x="325" y="-12.5" font-family="Helvetica,sans-Serif" font-size="10.00">t/003_type_system_api.c</text>
</a>
</g>
</g>
<!-- Node1&#45;&gt;Node4 -->
<g id="edge3_Node000001_Node000004" class="edge">
<title>Node1&#45;&gt;Node4</title>
<g id="a_edge3_Node000001_Node000004"><a xlink:title=" ">
<path fill="none" stroke="#63b8ff" d="M1906.92,-73.82C1625.25,-71.23 699.03,-60.55 403,-30 390.96,-28.76 377.98,-26.71 366.13,-24.57"/>
<polygon fill="#63b8ff" stroke="#63b8ff" points="1907.04,-77.32 1917.07,-73.91 1907.1,-70.32 1907.04,-77.32"/>
</a>
</g>
</g>
<!-- Node5 -->
<g id="Node000005" class="node">
<title>Node5</title>
<g id="a_Node000005"><a xlink:href="004__signatures_8c.html" target="_top" xlink:title="Unit test for the signature string parser.">
<polygon fill="white" stroke="#666666" points="518,-24.5 412,-24.5 412,-5.5 518,-5.5 518,-24.5"/>
<text text-anchor="middle" x="465" y="-12.5" font-family="Helvetica,sans-Serif" font-size="10.00">t/004_signatures.c</text>
</a>
</g>
</g>
<!-- Node1&#45;&gt;Node5 -->
<g id="edge4_Node000001_Node000005" class="edge">
<title>Node1&#45;&gt;Node5</title>
<g id="a_edge4_Node000001_Node000005"><a xlink:title=" ">
<path fill="none" stroke="#63b8ff" d="M1907.07,-74.07C1640.11,-72.35 797.04,-64.28 527,-30 517.26,-28.76 506.79,-26.69 497.29,-24.52"/>
<polygon fill="#63b8ff" stroke="#63b8ff" points="1907.44,-77.57 1917.46,-74.14 1907.48,-70.57 1907.44,-77.57"/>
</a>
</g>
</g>
<!-- Node6 -->
<g id="Node000006" class="node">
<title>Node6</title>
<g id="a_Node000006"><a xlink:href="005__layouts_8c.html" target="_top" xlink:title="Unit test for the Manual API&#39;s struct and union layout calculations.">
<polygon fill="white" stroke="#666666" points="627.5,-24.5 536.5,-24.5 536.5,-5.5 627.5,-5.5 627.5,-24.5"/>
<text text-anchor="middle" x="582" y="-12.5" font-family="Helvetica,sans-Serif" font-size="10.00">t/005_layouts.c</text>
</a>
</g>
</g>
<!-- Node1&#45;&gt;Node6 -->
<g id="edge5_Node000001_Node000006" class="edge">
<title>Node1&#45;&gt;Node6</title>
<g id="a_edge5_Node000001_Node000006"><a xlink:title=" ">
<path fill="none" stroke="#63b8ff" d="M1907.12,-74.17C1653.53,-72.79 883.36,-65.69 636,-30 627.47,-28.77 618.34,-26.7 610.07,-24.53"/>
<polygon fill="#63b8ff" stroke="#63b8ff" points="1907.35,-77.68 1917.37,-74.23 1907.39,-70.68 1907.35,-77.68"/>
</a>
</g>
</g>
<!-- Node7 -->
<g id="Node000007" class="node">
<title>Node7</title>
<g id="a_Node000007"><a xlink:href="006__end__to__end__calls_8c.html" target="_top" xlink:title="End&#45;to&#45;end unit test for passing and returning aggregate types (structs).">
<polygon fill="white" stroke="#666666" points="784.5,-24.5 645.5,-24.5 645.5,-5.5 784.5,-5.5 784.5,-24.5"/>
<text text-anchor="middle" x="715" y="-12.5" font-family="Helvetica,sans-Serif" font-size="10.00">t/006_end_to_end_calls.c</text>
</a>
</g>
</g>
<!-- Node1&#45;&gt;Node7 -->
<g id="edge6_Node000001_Node000007" class="edge">
<title>Node1&#45;&gt;Node7</title>
<g id="a_edge6_Node000001_Node000007"><a xlink:title=" ">
<path fill="none" stroke="#63b8ff" d="M1907.3,-72.93C1674.49,-68.22 1010.51,-53.1 794,-30 781.95,-28.71 768.97,-26.69 757.08,-24.57"/>
<polygon fill="#63b8ff" stroke="#63b8ff" points="1907.33,-76.43 1917.4,-73.13 1907.47,-69.43 1907.33,-76.43"/>
</a>
</g>
</g>
<!-- Node8 -->
<g id="Node000008" class="node">
<title>Node8</title>
<g id="a_Node000008"><a xlink:href="007__type__registry_8c.html" target="_top" xlink:title="Unit test for the named type registry system.">
<polygon fill="white" stroke="#666666" points="921,-24.5 803,-24.5 803,-5.5 921,-5.5 921,-24.5"/>
<text text-anchor="middle" x="862" y="-12.5" font-family="Helvetica,sans-Serif" font-size="10.00">t/007_type_registry.c</text>
</a>
</g>
</g>
<!-- Node1&#45;&gt;Node8 -->
<g id="edge7_Node000001_Node000008" class="edge">
<title>Node1&#45;&gt;Node8</title>
<g id="a_edge7_Node000001_Node000008"><a xlink:title=" ">
<path fill="none" stroke="#63b8ff" d="M1907.04,-72.76C1692.63,-67.95 1118.68,-53.23 930,-30 919.59,-28.72 908.41,-26.69 898.17,-24.57"/>
<polygon fill="#63b8ff" stroke="#63b8ff" points="1907.21,-76.27 1917.29,-72.99 1907.37,-69.27 1907.21,-76.27"/>
</a>
</g>
</g>
<!-- Node9 -->
<g id="Node000009" class="node">
<title>Node9</title>
<g id="a_Node000009"><a xlink:href="008__registry__introspection_8c.html" target="_top" xlink:title="Unit test for the registry introspection and serialization APIs.">
<polygon fill="white" stroke="#666666" points="1100.5,-24.5 939.5,-24.5 939.5,-5.5 1100.5,-5.5 1100.5,-24.5"/>
<text text-anchor="middle" x="1020" y="-12.5" font-family="Helvetica,sans-Serif" font-size="10.00">t/008_registry_introspection.c</text>
</a>
</g>
</g>
<!-- Node1&#45;&gt;Node9 -->
<g id="edge8_Node000001_Node000009" class="edge">
<title>Node1&#45;&gt;Node9</title>
<g id="a_edge8_Node000001_Node000009"><a xlink:title=" ">
<path fill="none" stroke="#63b8ff" d="M1906.79,-73.23C1750.83,-70.19 1401.46,-60.31 1109,-30 1095.78,-28.63 1081.52,-26.63 1068.38,-24.56"/>
<polygon fill="#63b8ff" stroke="#63b8ff" points="1907.16,-76.74 1917.23,-73.43 1907.29,-69.74 1907.16,-76.74"/>
</a>
</g>
</g>
<!-- Node10 -->
<g id="Node000010" class="node">
<title>Node10</title>
<g id="a_Node000010"><a xlink:href="101__by__value_8c.html" target="_top" xlink:title="Unit test for passing and returning aggregates and vectors by value.">
<polygon fill="white" stroke="#666666" points="1217.5,-24.5 1118.5,-24.5 1118.5,-5.5 1217.5,-5.5 1217.5,-24.5"/>
<text text-anchor="middle" x="1168" y="-12.5" font-family="Helvetica,sans-Serif" font-size="10.00">t/101_by_value.c</text>
</a>
</g>
</g>
<!-- Node1&#45;&gt;Node10 -->
<g id="edge9_Node000001_Node000010" class="edge">
<title>Node1&#45;&gt;Node10</title>
<g id="a_edge9_Node000001_Node000010"><a xlink:title=" ">
<path fill="none" stroke="#63b8ff" d="M1907.06,-74.5C1766.8,-73.44 1472,-66.56 1226,-30 1217.09,-28.68 1207.53,-26.63 1198.8,-24.52"/>
<polygon fill="#63b8ff" stroke="#63b8ff" points="1907.27,-78 1917.3,-74.57 1907.32,-71 1907.27,-78"/>
</a>
</g>
</g>
<!-- Node11 -->
<g id="Node000011" class="node">
<title>Node11</title>
<g id="a_Node000011"><a xlink:href="102__by__reference_8c.html" target="_top" xlink:title="Unit test for passing and returning large aggregates by reference.">
<polygon fill="white" stroke="#666666" points="1354.5,-24.5 1235.5,-24.5 1235.5,-5.5 1354.5,-5.5 1354.5,-24.5"/>
<text text-anchor="middle" x="1295" y="-12.5" font-family="Helvetica,sans-Serif" font-size="10.00">t/102_by_reference.c</text>
</a>
</g>
</g>
<!-- Node1&#45;&gt;Node11 -->
<g id="edge10_Node000001_Node000011" class="edge">
<title>Node1&#45;&gt;Node11</title>
<g id="a_edge10_Node000001_Node000011"><a xlink:title=" ">
<path fill="none" stroke="#63b8ff" d="M1907.13,-72.13C1787.23,-67.87 1557.02,-56.75 1363,-30 1352.85,-28.6 1341.94,-26.59 1331.9,-24.52"/>
<polygon fill="#63b8ff" stroke="#63b8ff" points="1907.22,-75.63 1917.33,-72.48 1907.46,-68.64 1907.22,-75.63"/>
</a>
</g>
</g>
<!-- Node12 -->
<g id="Node000012" class="node">
<title>Node12</title>
<g id="a_Node000012"><a xlink:href="103__unions_8c.html" target="_top" xlink:title="Unit test for passing and returning unions by value.">
<polygon fill="white" stroke="#666666" points="1459.5,-24.5 1372.5,-24.5 1372.5,-5.5 1459.5,-5.5 1459.5,-24.5"/>
<text text-anchor="middle" x="1416" y="-12.5" font-family="Helvetica,sans-Serif" font-size="10.00">t/103_unions.c</text>
</a>
</g>
</g>
<!-- Node1&#45;&gt;Node12 -->
<g id="edge11_Node000001_Node000012" class="edge">
<title>Node1&#45;&gt;Node12</title>
<g id="a_edge11_Node000001_Node000012"><a xlink:title=" ">
<path fill="none" stroke="#63b8ff" d="M1907.42,-71.88C1804.55,-67.58 1622.57,-56.65 1469,-30 1461.03,-28.62 1452.51,-26.61 1444.68,-24.54"/>
<polygon fill="#63b8ff" stroke="#63b8ff" points="1907.29,-75.38 1917.43,-72.29 1907.58,-68.38 1907.29,-75.38"/>
</a>
</g>
</g>
<!-- Node13 -->
<g id="Node000013" class="node">
<title>Node13</title>
<g id="a_Node000013"><a xlink:href="201__basic_8c.html" target="_top" xlink:title="Unit test for FFI calls involving pointer types.">
<polygon fill="white" stroke="#666666" points="1558,-24.5 1478,-24.5 1478,-5.5 1558,-5.5 1558,-24.5"/>
<text text-anchor="middle" x="1518" y="-12.5" font-family="Helvetica,sans-Serif" font-size="10.00">t/201_basic.c</text>
</a>
</g>
</g>
<!-- Node1&#45;&gt;Node13 -->
<g id="edge12_Node000001_Node000013" class="edge">
<title>Node1&#45;&gt;Node13</title>
<g id="a_edge12_Node000001_Node000013"><a xlink:title=" ">
<path fill="none" stroke="#63b8ff" d="M1906.97,-70.07C1821.48,-64.47 1683.93,-52.69 1567,-30 1559.7,-28.58 1551.92,-26.59 1544.76,-24.55"/>
<polygon fill="#63b8ff" stroke="#63b8ff" points="1906.93,-73.57 1917.13,-70.72 1907.38,-66.59 1906.93,-73.57"/>
</a>
</g>
</g>
<!-- Node14 -->
<g id="Node000014" class="node">
<title>Node14</title>
<g id="a_Node000014"><a xlink:href="202__in__structs_8c.html" target="_top" xlink:title="Unit test for passing structs that contain pointer members.">
<polygon fill="white" stroke="#666666" points="1678,-24.5 1576,-24.5 1576,-5.5 1678,-5.5 1678,-24.5"/>
<text text-anchor="middle" x="1627" y="-12.5" font-family="Helvetica,sans-Serif" font-size="10.00">t/202_in_structs.c</text>
</a>
</g>
</g>
<!-- Node1&#45;&gt;Node14 -->
<g id="edge13_Node000001_Node000014" class="edge">
<title>Node1&#45;&gt;Node14</title>
<g id="a_edge13_Node000001_Node000014"><a xlink:title=" ">
<path fill="none" stroke="#63b8ff" d="M1910.1,-64.7C1848.99,-56.66 1762.34,-44.31 1687,-30 1678.7,-28.42 1669.81,-26.49 1661.48,-24.56"/>
<polygon fill="#63b8ff" stroke="#63b8ff" points="1909.69,-68.17 1920.06,-66 1910.6,-61.23 1909.69,-68.17"/>
</a>
</g>
</g>
<!-- Node15 -->
<g id="Node000015" class="node">
<title>Node15</title>
<g id="a_Node000015"><a xlink:href="203__complex_8c.html" target="_top" xlink:title="Unit test for FFI calls involving C99 _Complex types.">
<polygon fill="white" stroke="#666666" points="1793.5,-24.5 1696.5,-24.5 1696.5,-5.5 1793.5,-5.5 1793.5,-24.5"/>
<text text-anchor="middle" x="1745" y="-12.5" font-family="Helvetica,sans-Serif" font-size="10.00">t/203_complex.c</text>
</a>
</g>
</g>
<!-- Node1&#45;&gt;Node15 -->
<g id="edge14_Node000001_Node000015" class="edge">
<title>Node1&#45;&gt;Node15</title>
<g id="a_edge14_Node000001_Node000015"><a xlink:title=" ">
<path fill="none" stroke="#63b8ff" d="M1943.19,-63.57C1905.54,-54.58 1850.81,-41.49 1803,-30 1795.65,-28.23 1787.77,-26.34 1780.27,-24.53"/>
<polygon fill="#63b8ff" stroke="#63b8ff" points="1942.8,-67.07 1953.34,-65.99 1944.42,-60.26 1942.8,-67.07"/>
</a>
</g>
</g>
<!-- Node16 -->
<g id="Node000016" class="node">
<title>Node16</title>
<g id="a_Node000016"><a xlink:href="301__primitives_8c.html" target="_top" xlink:title="Unit test for reverse trampolines (callbacks) with primitive C types.">
<polygon fill="white" stroke="#666666" points="1916,-24.5 1812,-24.5 1812,-5.5 1916,-5.5 1916,-24.5"/>
<text text-anchor="middle" x="1864" y="-12.5" font-family="Helvetica,sans-Serif" font-size="10.00">t/301_primitives.c</text>
</a>
</g>
</g>
<!-- Node1&#45;&gt;Node16 -->
<g id="edge15_Node000001_Node000016" class="edge">
<title>Node1&#45;&gt;Node16</title>
<g id="a_edge15_Node000001_Node000016"><a xlink:title=" ">
<path fill="none" stroke="#63b8ff" d="M1961.51,-61.63C1937.4,-50.35 1903.04,-34.27 1882.2,-24.52"/>
<polygon fill="#63b8ff" stroke="#63b8ff" points="1960.28,-64.92 1970.82,-65.99 1963.25,-58.58 1960.28,-64.92"/>
</a>
</g>
</g>
<!-- Node17 -->
<g id="Node000017" class="node">
<title>Node17</title>
<g id="a_Node000017"><a xlink:href="302__aggregates_8c.html" target="_top" xlink:title="Unit test for reverse trampolines (callbacks) with aggregate types.">
<polygon fill="white" stroke="#666666" points="2044,-24.5 1934,-24.5 1934,-5.5 2044,-5.5 2044,-24.5"/>
<text text-anchor="middle" x="1989" y="-12.5" font-family="Helvetica,sans-Serif" font-size="10.00">t/302_aggregates.c</text>
</a>
</g>
</g>
<!-- Node1&#45;&gt;Node17 -->
<g id="edge16_Node000001_Node000017" class="edge">
<title>Node1&#45;&gt;Node17</title>
<g id="a_edge16_Node000001_Node000017"><a xlink:title=" ">
<path fill="none" stroke="#63b8ff" d="M1989,-55.66C1989,-45.24 1989,-32.8 1989,-24.67"/>
<polygon fill="#63b8ff" stroke="#63b8ff" points="1985.5,-55.87 1989,-65.87 1992.5,-55.87 1985.5,-55.87"/>
</a>
</g>
</g>
<!-- Node18 -->
<g id="Node000018" class="node">
<title>Node18</title>
<g id="a_Node000018"><a xlink:href="303__advanced_8c.html" target="_top" xlink:title="Unit test for advanced reverse trampoline (callback) scenarios.">
<polygon fill="white" stroke="#666666" points="2164,-24.5 2062,-24.5 2062,-5.5 2164,-5.5 2164,-24.5"/>
<text text-anchor="middle" x="2113" y="-12.5" font-family="Helvetica,sans-Serif" font-size="10.00">t/303_advanced.c</text>
</a>
</g>
</g>
<!-- Node1&#45;&gt;Node18 -->
<g id="edge17_Node000001_Node000018" class="edge">
<title>Node1&#45;&gt;Node18</title>
<g id="a_edge17_Node000001_Node000018"><a xlink:title=" ">
<path fill="none" stroke="#63b8ff" d="M2016.27,-61.63C2040.19,-50.35 2074.28,-34.27 2094.95,-24.52"/>
<polygon fill="#63b8ff" stroke="#63b8ff" points="2014.58,-58.56 2007.03,-65.99 2017.57,-64.89 2014.58,-58.56"/>
</a>
</g>
</g>
<!-- Node19 -->
<g id="Node000019" class="node">
<title>Node19</title>
<g id="a_Node000019"><a xlink:href="304__reverse__call__types_8c.html" target="_top" xlink:title="Unit test to explicitly compare the &quot;Callback&quot; vs. &quot;Closure&quot; reverse trampoline APIs.">
<polygon fill="white" stroke="#666666" points="2288,-30 2182,-30 2182,0 2288,0 2288,-30"/>
<text text-anchor="start" x="2190" y="-18" font-family="Helvetica,sans-Serif" font-size="10.00">t/304_reverse_call</text>
<text text-anchor="middle" x="2235" y="-7" font-family="Helvetica,sans-Serif" font-size="10.00">_types.c</text>
</a>
</g>
</g>
<!-- Node1&#45;&gt;Node19 -->
<g id="edge18_Node000001_Node000019" class="edge">
<title>Node1&#45;&gt;Node19</title>
<g id="a_edge18_Node000001_Node000019"><a xlink:title=" ">
<path fill="none" stroke="#63b8ff" d="M2034.66,-63.64C2076.37,-53.72 2138.05,-39.05 2181.94,-28.62"/>
<polygon fill="#63b8ff" stroke="#63b8ff" points="2033.69,-60.27 2024.77,-65.99 2035.31,-67.09 2033.69,-60.27"/>
</a>
</g>
</g>
<!-- Node20 -->
<g id="Node000020" class="node">
<title>Node20</title>
<g id="a_Node000020"><a xlink:href="401__large__stack_8c.html" target="_top" xlink:title="Unit test for FFI calls with a large number of arguments passed on the stack.">
<polygon fill="white" stroke="#666666" points="2417.5,-24.5 2306.5,-24.5 2306.5,-5.5 2417.5,-5.5 2417.5,-24.5"/>
<text text-anchor="middle" x="2362" y="-12.5" font-family="Helvetica,sans-Serif" font-size="10.00">t/401_large_stack.c</text>
</a>
</g>
</g>
<!-- Node1&#45;&gt;Node20 -->
<g id="edge19_Node000001_Node000020" class="edge">
<title>Node1&#45;&gt;Node20</title>
<g id="a_edge19_Node000001_Node000020"><a xlink:title=" ">
<path fill="none" stroke="#63b8ff" d="M2067.58,-64.66C2129.96,-56.48 2219.3,-43.96 2297,-30 2305.98,-28.39 2315.6,-26.44 2324.62,-24.51"/>
<polygon fill="#63b8ff" stroke="#63b8ff" points="2066.88,-61.22 2057.42,-65.98 2067.79,-68.16 2066.88,-61.22"/>
</a>
</g>
</g>
<!-- Node21 -->
<g id="Node000021" class="node">
<title>Node21</title>
<g id="a_Node000021"><a xlink:href="402__variadic__functions_8c.html" target="_top" xlink:title="Unit test for FFI calls to and from variadic C functions.">
<polygon fill="white" stroke="#666666" points="2580,-24.5 2436,-24.5 2436,-5.5 2580,-5.5 2580,-24.5"/>
<text text-anchor="middle" x="2508" y="-12.5" font-family="Helvetica,sans-Serif" font-size="10.00">t/402_variadic_functions.c</text>
</a>
</g>
</g>
<!-- Node1&#45;&gt;Node21 -->
<g id="edge20_Node000001_Node000021" class="edge">
<title>Node1&#45;&gt;Node21</title>
<g id="a_edge20_Node000001_Node000021"><a xlink:title=" ">
<path fill="none" stroke="#63b8ff" d="M2071.08,-67.89C2159.25,-60.38 2303.35,-46.95 2427,-30 2438.31,-28.45 2450.46,-26.5 2461.83,-24.55"/>
<polygon fill="#63b8ff" stroke="#63b8ff" points="2070.55,-64.42 2060.88,-68.75 2071.14,-71.39 2070.55,-64.42"/>
</a>
</g>
</g>
<!-- Node22 -->
<g id="Node000022" class="node">
<title>Node22</title>
<g id="a_Node000022"><a xlink:href="403__special__types_8c.html" target="_top" xlink:title="Unit test for FFI calls with special, non&#45;standard, or platform&#45;dependent primitive types.">
<polygon fill="white" stroke="#666666" points="2720,-24.5 2598,-24.5 2598,-5.5 2720,-5.5 2720,-24.5"/>
<text text-anchor="middle" x="2659" y="-12.5" font-family="Helvetica,sans-Serif" font-size="10.00">t/403_special_types.c</text>
</a>
</g>
</g>
<!-- Node1&#45;&gt;Node22 -->
<g id="edge21_Node000001_Node000022" class="edge">
<title>Node1&#45;&gt;Node22</title>
<g id="a_edge21_Node000001_Node000022"><a xlink:title=" ">
<path fill="none" stroke="#63b8ff" d="M2071.09,-71.62C2186.96,-66.83 2404.91,-55.14 2589,-30 2599.31,-28.59 2610.4,-26.6 2620.63,-24.56"/>
<polygon fill="#63b8ff" stroke="#63b8ff" points="2070.73,-68.13 2060.88,-72.04 2071.01,-75.13 2070.73,-68.13"/>
</a>
</g>
</g>
<!-- Node23 -->
<g id="Node000023" class="node">
<title>Node23</title>
<g id="a_Node000023"><a xlink:href="810__memory__stress_8c.html" target="_top" xlink:title="A stress test to detect memory leaks under heavy allocation/deallocation cycles.">
<polygon fill="white" stroke="#666666" points="2869.5,-24.5 2738.5,-24.5 2738.5,-5.5 2869.5,-5.5 2869.5,-24.5"/>
<text text-anchor="middle" x="2804" y="-12.5" font-family="Helvetica,sans-Serif" font-size="10.00">t/810_memory_stress.c</text>
</a>
</g>
</g>
<!-- Node1&#45;&gt;Node23 -->
<g id="edge22_Node000001_Node000023" class="edge">
<title>Node1&#45;&gt;Node23</title>
<g id="a_edge22_Node000001_Node000023"><a xlink:title=" ">
<path fill="none" stroke="#63b8ff" d="M2071.1,-72.9C2207.96,-69.48 2491.21,-59.23 2729,-30 2740.17,-28.63 2752.2,-26.62 2763.27,-24.56"/>
<polygon fill="#63b8ff" stroke="#63b8ff" points="2070.62,-69.41 2060.71,-73.15 2070.79,-76.41 2070.62,-69.41"/>
</a>
</g>
</g>
<!-- Node24 -->
<g id="Node000024" class="node">
<title>Node24</title>
<g id="a_Node000024"><a xlink:href="811__fault__injection_8c.html" target="_top" xlink:title="Unit test to verify resource cleanup under memory allocation failures.">
<polygon fill="white" stroke="#666666" points="3012.5,-24.5 2887.5,-24.5 2887.5,-5.5 3012.5,-5.5 3012.5,-24.5"/>
<text text-anchor="middle" x="2950" y="-12.5" font-family="Helvetica,sans-Serif" font-size="10.00">t/811_fault_injection.c</text>
</a>
</g>
</g>
<!-- Node1&#45;&gt;Node24 -->
<g id="edge23_Node000001_Node000024" class="edge">
<title>Node1&#45;&gt;Node24</title>
<g id="a_edge23_Node000001_Node000024"><a xlink:title=" ">
<path fill="none" stroke="#63b8ff" d="M2070.6,-74.36C2227.69,-73.22 2582.82,-66.41 2879,-30 2889.85,-28.67 2901.52,-26.62 2912.21,-24.5"/>
<polygon fill="#63b8ff" stroke="#63b8ff" points="2070.52,-70.86 2060.54,-74.43 2070.56,-77.86 2070.52,-70.86"/>
</a>
</g>
</g>
<!-- Node25 -->
<g id="Node000025" class="node">
<title>Node25</title>
<g id="a_Node000025"><a xlink:href="820__threading__helgrind_8c.html" target="_top" xlink:title="A stress test to detect data races and other threading issues.">
<polygon fill="white" stroke="#666666" points="3177,-24.5 3031,-24.5 3031,-5.5 3177,-5.5 3177,-24.5"/>
<text text-anchor="middle" x="3104" y="-12.5" font-family="Helvetica,sans-Serif" font-size="10.00">t/820_threading_helgrind.c</text>
</a>
</g>
</g>
<!-- Node1&#45;&gt;Node25 -->
<g id="edge24_Node000001_Node000025" class="edge">
<title>Node1&#45;&gt;Node25</title>
<g id="a_edge24_Node000001_Node000025"><a xlink:title=" ">
<path fill="none" stroke="#63b8ff" d="M2070.78,-74.47C2245.78,-73.65 2669.35,-67.55 3022,-30 3034.49,-28.67 3047.97,-26.63 3060.31,-24.51"/>
<polygon fill="#63b8ff" stroke="#63b8ff" points="2070.6,-70.97 2060.62,-74.52 2070.63,-77.97 2070.6,-70.97"/>
</a>
</g>
</g>
<!-- Node26 -->
<g id="Node000026" class="node">
<title>Node26</title>
<g id="a_Node000026"><a xlink:href="830__security_8c.html" target="_top" xlink:title="Unit test for security&#45;hardening features of the infix library.">
<polygon fill="white" stroke="#666666" points="3287,-24.5 3195,-24.5 3195,-5.5 3287,-5.5 3287,-24.5"/>
<text text-anchor="middle" x="3241" y="-12.5" font-family="Helvetica,sans-Serif" font-size="10.00">t/830_security.c</text>
</a>
</g>
</g>
<!-- Node1&#45;&gt;Node26 -->
<g id="edge25_Node000001_Node000026" class="edge">
<title>Node1&#45;&gt;Node26</title>
<g id="a_edge25_Node000001_Node000026"><a xlink:title=" ">
<path fill="none" stroke="#63b8ff" d="M2070.93,-73.72C2304.4,-71.12 2970.13,-61.13 3186,-30 3194.68,-28.75 3203.97,-26.68 3212.4,-24.5"/>
<polygon fill="#63b8ff" stroke="#63b8ff" points="2070.77,-70.22 2060.81,-73.83 2070.85,-77.22 2070.77,-70.22"/>
</a>
</g>
</g>
<!-- Node27 -->
<g id="Node000027" class="node">
<title>Node27</title>
<g id="a_Node000027"><a xlink:href="840__arena__allocator_8c.html" target="_top" xlink:title="Unit test for the internal arena allocator.">
<polygon fill="white" stroke="#666666" points="3435,-24.5 3305,-24.5 3305,-5.5 3435,-5.5 3435,-24.5"/>
<text text-anchor="middle" x="3370" y="-12.5" font-family="Helvetica,sans-Serif" font-size="10.00">t/840_arena_allocator.c</text>
</a>
</g>
</g>
<!-- Node1&#45;&gt;Node27 -->
<g id="edge26_Node000001_Node000027" class="edge">
<title>Node1&#45;&gt;Node27</title>
<g id="a_edge26_Node000001_Node000027"><a xlink:title=" ">
<path fill="none" stroke="#63b8ff" d="M2070.95,-73.35C2318.62,-69.62 3056.99,-56.52 3296,-30 3307.44,-28.73 3319.75,-26.68 3331,-24.54"/>
<polygon fill="#63b8ff" stroke="#63b8ff" points="2070.53,-69.86 2060.58,-73.51 2070.63,-76.86 2070.53,-69.86"/>
</a>
</g>
</g>
<!-- Node28 -->
<g id="Node000028" class="node">
<title>Node28</title>
<g id="a_Node000028"><a xlink:href="850__regression__cases_8c.html" target="_top" xlink:title="A suite of regression tests for bugs discovered by fuzzing.">
<polygon fill="white" stroke="#666666" points="3592.5,-24.5 3453.5,-24.5 3453.5,-5.5 3592.5,-5.5 3592.5,-24.5"/>
<text text-anchor="middle" x="3523" y="-12.5" font-family="Helvetica,sans-Serif" font-size="10.00">t/850_regression_cases.c</text>
</a>
</g>
</g>
<!-- Node1&#45;&gt;Node28 -->
<g id="edge27_Node000001_Node000028" class="edge">
<title>Node1&#45;&gt;Node28</title>
<g id="a_edge27_Node000001_Node000028"><a xlink:title=" ">
<path fill="none" stroke="#63b8ff" d="M2070.94,-73.56C2336.95,-70.25 3174.69,-57.83 3444,-30 3456.19,-28.74 3469.34,-26.69 3481.34,-24.55"/>
<polygon fill="#63b8ff" stroke="#63b8ff" points="2070.54,-70.06 2060.59,-73.68 2070.63,-77.06 2070.54,-70.06"/>
</a>
</g>
</g>
<!-- Node29 -->
<g id="Node000029" class="node">
<title>Node29</title>
<g id="a_Node000029"><a xlink:href="851__lifecycle__regression_8c.html" target="_top" xlink:title="Regression tests for specific memory lifecycle and ownership bugs.">
<polygon fill="white" stroke="#666666" points="3763,-24.5 3611,-24.5 3611,-5.5 3763,-5.5 3763,-24.5"/>
<text text-anchor="middle" x="3687" y="-12.5" font-family="Helvetica,sans-Serif" font-size="10.00">t/851_lifecycle_regression.c</text>
</a>
</g>
</g>
<!-- Node1&#45;&gt;Node29 -->
<g id="edge28_Node000001_Node000029" class="edge">
<title>Node1&#45;&gt;Node29</title>
<g id="a_edge28_Node000001_Node000029"><a xlink:title=" ">
<path fill="none" stroke="#63b8ff" d="M2070.99,-73.71C2355.64,-70.74 3300.2,-58.88 3602,-30 3615.1,-28.75 3629.24,-26.7 3642.15,-24.55"/>
<polygon fill="#63b8ff" stroke="#63b8ff" points="2070.71,-70.21 2060.74,-73.82 2070.78,-77.21 2070.71,-70.21"/>
</a>
</g>
</g>
<!-- Node30 -->
<g id="Node000030" class="node">
<title>Node30</title>
<g id="a_Node000030"><a xlink:href="860__error__handling_8c.html" target="_top" xlink:title="Unit test for the error reporting system.">
<polygon fill="white" stroke="#666666" points="3906.5,-24.5 3781.5,-24.5 3781.5,-5.5 3906.5,-5.5 3906.5,-24.5"/>
<text text-anchor="middle" x="3844" y="-12.5" font-family="Helvetica,sans-Serif" font-size="10.00">t/860_error_handling.c</text>
</a>
</g>
</g>
<!-- Node1&#45;&gt;Node30 -->
<g id="edge29_Node000001_Node000030" class="edge">
<title>Node1&#45;&gt;Node30</title>
<g id="a_edge29_Node000001_Node000030"><a xlink:title=" ">
<path fill="none" stroke="#63b8ff" d="M2070.84,-74.27C2374.4,-73.15 3435.67,-66.64 3772,-30 3783.27,-28.77 3795.4,-26.71 3806.44,-24.53"/>
<polygon fill="#63b8ff" stroke="#63b8ff" points="2070.78,-70.77 2060.8,-74.31 2070.81,-77.77 2070.78,-70.77"/>
</a>
</g>
</g>
<!-- Node31 -->
<g id="Node000031" class="node">
<title>Node31</title>
<g id="a_Node000031"><a xlink:href="901__call__overhead_8c.html" target="_top" xlink:title="A micro&#45;benchmark to measure the performance overhead of an FFI call.">
<polygon fill="white" stroke="#666666" points="4047.5,-24.5 3924.5,-24.5 3924.5,-5.5 4047.5,-5.5 4047.5,-24.5"/>
<text text-anchor="middle" x="3986" y="-12.5" font-family="Helvetica,sans-Serif" font-size="10.00">t/901_call_overhead.c</text>
</a>
</g>
</g>
<!-- Node1&#45;&gt;Node31 -->
<g id="edge30_Node000001_Node000031" class="edge">
<title>Node1&#45;&gt;Node31</title>
<g id="a_edge30_Node000001_Node000031"><a xlink:title=" ">
<path fill="none" stroke="#63b8ff" d="M2070.69,-74.51C2389.45,-74.26 3550.05,-70.51 3916,-30 3926.96,-28.79 3938.76,-26.72 3949.5,-24.55"/>
<polygon fill="#63b8ff" stroke="#63b8ff" points="2070.6,-71.01 2060.61,-74.52 2070.61,-78.01 2070.6,-71.01"/>
</a>
</g>
</g>
<!-- Node32 -->
<g id="Node000032" class="node">
<title>Node32</title>
<g id="a_Node000032"><a xlink:href="903__generation__benchmark_8c.html" target="_top" xlink:title="A micro&#45;benchmark to measure the performance of trampoline generation.">
<polygon fill="white" stroke="#666666" points="4232.5,-24.5 4065.5,-24.5 4065.5,-5.5 4232.5,-5.5 4232.5,-24.5"/>
<text text-anchor="middle" x="4149" y="-12.5" font-family="Helvetica,sans-Serif" font-size="10.00">t/903_generation_benchmark.c</text>
</a>
</g>
</g>
<!-- Node1&#45;&gt;Node32 -->
<g id="edge31_Node000001_Node000032" class="edge">
<title>Node1&#45;&gt;Node32</title>
<g id="a_edge31_Node000001_Node000032"><a xlink:title=" ">
<path fill="none" stroke="#63b8ff" d="M2070.72,-74.16C2403.94,-72.54 3661.06,-64.24 4057,-30 4071.33,-28.76 4086.81,-26.69 4100.92,-24.52"/>
<polygon fill="#63b8ff" stroke="#63b8ff" points="2070.65,-70.66 2060.66,-74.2 2070.68,-77.66 2070.65,-70.66"/>
</a>
</g>
</g>
</g>
</svg>
