<?xml version="1.0" encoding="UTF-8" standalone="no"?>
<!DOCTYPE svg PUBLIC "-//W3C//DTD SVG 1.1//EN"
 "http://www.w3.org/Graphics/SVG/1.1/DTD/svg11.dtd">
<!-- Generated by graphviz version 2.43.0 (0)
 -->
<!-- Title: src/common/double_tap.h Pages: 1 -->
<!--zoomable 93 -->

<svg id="main" version="1.1" xmlns="http://www.w3.org/2000/svg" xmlns:xlink="http://www.w3.org/1999/xlink" xml:space="preserve" onload="init(evt)">
<style type="text/css"><![CDATA[
.node, .edge {opacity: 0.7;}
.node.selected, .edge.selected {opacity: 1;}
.edge:hover path { stroke: red; }
.edge:hover polygon { stroke: red; fill: red; }
]]></style>

<defs>
  <circle id="rim" cx="0" cy="0" r="7"/>
  <circle id="rim2" cx="0" cy="0" r="3.5"/>
  <g id="zoomPlus">
    <use xlink:href="#rim" fill="#404040"><set attributeName="fill" to="#808080" begin="zoomplus.mouseover" end="zoomplus.mouseout"/></use>
    <path d="M-4,0h8M0,-4v8" fill="none" stroke="white" stroke-width="1.5" pointer-events="none"/>
  </g>
  <g id="zoomMin">
    <use xlink:href="#rim" fill="#404040"><set attributeName="fill" to="#808080" begin="zoomminus.mouseover" end="zoomminus.mouseout"/></use>
    <path d="M-4,0h8" fill="none" stroke="white" stroke-width="1.5" pointer-events="none"/>
  </g>
  <g id="arrowUp" transform="translate(30 24)">
    <use xlink:href="#rim"/>
    <path pointer-events="none" fill="none" stroke="white" stroke-width="1.5" d="M0,-3.0v7 M-2.5,-0.5L0,-3.0L2.5,-0.5"/>
  </g>
  <g id="arrowRight" transform="rotate(90) translate(36 -43)">
    <use xlink:href="#rim"/>
    <path pointer-events="none" fill="none" stroke="white" stroke-width="1.5" d="M0,-3.0v7 M-2.5,-0.5L0,-3.0L2.5,-0.5"/>
  </g>
  <g id="arrowDown" transform="rotate(180) translate(-30 -48)">
    <use xlink:href="#rim"/>
    <path pointer-events="none" fill="none" stroke="white" stroke-width="1.5" d="M0,-3.0v7 M-2.5,-0.5L0,-3.0L2.5,-0.5"/>
  </g>
  <g id="arrowLeft" transform="rotate(270) translate(-36 17)">
    <use xlink:href="#rim"/>
    <path pointer-events="none" fill="none" stroke="white" stroke-width="1.5" d="M0,-3.0v7 M-2.5,-0.5L0,-3.0L2.5,-0.5"/>
  </g>
  <g id="resetDef">
    <use xlink:href="#rim2" fill="#404040"><set attributeName="fill" to="#808080" begin="reset.mouseover" end="reset.mouseout"/></use>
  </g>
</defs>
<script type="application/ecmascript">
var viewWidth = 4956;
var viewHeight = 93;
var sectionId = 'dynsection-0';
</script>
<script type="application/ecmascript" xlink:href="svg.min.js"/>
<svg id="graph" class="graph">
<g id="viewport">
<title>src/common/double_tap.h</title>
<!-- Node1 -->
<g id="Node000001" class="node">
<title>Node1</title>
<g id="a_Node000001"><a xlink:title="A lightweight, single&#45;header TAP (Test Anything Protocol) library.">
<polygon fill="#999999" stroke="#666666" points="2387.5,-85 2244.5,-85 2244.5,-66 2387.5,-66 2387.5,-85"/>
<text text-anchor="middle" x="2316" y="-73" font-family="Helvetica,sans-Serif" font-size="10.00">src/common/double_tap.h</text>
</a>
</g>
</g>
<!-- Node2 -->
<g id="Node000002" class="node">
<title>Node2</title>
<g id="a_Node000002"><a xlink:href="001__primitives_8c.html" target="_top" xlink:title="Unit test for creating trampolines for functions with primitive C types.">
<polygon fill="white" stroke="#666666" points="104,-24.5 0,-24.5 0,-5.5 104,-5.5 104,-24.5"/>
<text text-anchor="middle" x="52" y="-12.5" font-family="Helvetica,sans-Serif" font-size="10.00">t/001_primitives.c</text>
</a>
</g>
</g>
<!-- Node1&#45;&gt;Node2 -->
<g id="edge1_Node000001_Node000002" class="edge">
<title>Node1&#45;&gt;Node2</title>
<g id="a_edge1_Node000001_Node000002"><a xlink:title=" ">
<path fill="none" stroke="#63b8ff" d="M2234.24,-73.84C1860.8,-70.71 326.16,-56.33 113,-30 103.29,-28.8 92.87,-26.71 83.44,-24.51"/>
<polygon fill="#63b8ff" stroke="#63b8ff" points="2234.4,-77.34 2244.43,-73.93 2234.46,-70.35 2234.4,-77.34"/>
</a>
</g>
</g>
<!-- Node3 -->
<g id="Node000003" class="node">
<title>Node3</title>
<g id="a_Node000003"><a xlink:href="002__simple__calls_8c.html" target="_top" xlink:title="Unit test for basic forward trampoline calls with simple function signatures.">
<polygon fill="white" stroke="#666666" points="238,-24.5 122,-24.5 122,-5.5 238,-5.5 238,-24.5"/>
<text text-anchor="middle" x="180" y="-12.5" font-family="Helvetica,sans-Serif" font-size="10.00">t/002_simple_calls.c</text>
</a>
</g>
</g>
<!-- Node1&#45;&gt;Node3 -->
<g id="edge2_Node000001_Node000003" class="edge">
<title>Node1&#45;&gt;Node3</title>
<g id="a_edge2_Node000001_Node000003"><a xlink:title=" ">
<path fill="none" stroke="#63b8ff" d="M2234.18,-74.76C1900.56,-75.49 642.04,-75.13 247,-30 236.49,-28.8 225.19,-26.74 214.92,-24.57"/>
<polygon fill="#63b8ff" stroke="#63b8ff" points="2234.26,-78.26 2244.25,-74.73 2234.24,-71.26 2234.26,-78.26"/>
</a>
</g>
</g>
<!-- Node4 -->
<g id="Node000004" class="node">
<title>Node4</title>
<g id="a_Node000004"><a xlink:href="003__type__system__api_8c.html" target="_top" xlink:title="Unit test for the Manual API (infix_type_create_* functions).">
<polygon fill="white" stroke="#666666" points="394,-24.5 256,-24.5 256,-5.5 394,-5.5 394,-24.5"/>
<text text-anchor="middle" x="325" y="-12.5" font-family="Helvetica,sans-Serif" font-size="10.00">t/003_type_system_api.c</text>
</a>
</g>
</g>
<!-- Node1&#45;&gt;Node4 -->
<g id="edge3_Node000001_Node000004" class="edge">
<title>Node1&#45;&gt;Node4</title>
<g id="a_edge3_Node000001_Node000004"><a xlink:title=" ">
<path fill="none" stroke="#63b8ff" d="M2234.39,-74.28C1917.27,-73.16 766.46,-66.62 403,-30 390.82,-28.77 377.68,-26.71 365.72,-24.53"/>
<polygon fill="#63b8ff" stroke="#63b8ff" points="2234.41,-77.78 2244.43,-74.31 2234.44,-70.78 2234.41,-77.78"/>
</a>
</g>
</g>
<!-- Node5 -->
<g id="Node000005" class="node">
<title>Node5</title>
<g id="a_Node000005"><a xlink:href="004__signatures_8c.html" target="_top" xlink:title="Unit test for the signature string parser.">
<polygon fill="white" stroke="#666666" points="518,-24.5 412,-24.5 412,-5.5 518,-5.5 518,-24.5"/>
<text text-anchor="middle" x="465" y="-12.5" font-family="Helvetica,sans-Serif" font-size="10.00">t/004_signatures.c</text>
</a>
</g>
</g>
<!-- Node1&#45;&gt;Node5 -->
<g id="edge4_Node000001_Node000005" class="edge">
<title>Node1&#45;&gt;Node5</title>
<g id="a_edge4_Node000001_Node000005"><a xlink:title=" ">
<path fill="none" stroke="#63b8ff" d="M2234.36,-74.61C1930.33,-74.67 864.06,-71.83 527,-30 517.25,-28.79 506.79,-26.73 497.29,-24.56"/>
<polygon fill="#63b8ff" stroke="#63b8ff" points="2234.42,-78.11 2244.42,-74.6 2234.42,-71.11 2234.42,-78.11"/>
</a>
</g>
</g>
<!-- Node6 -->
<g id="Node000006" class="node">
<title>Node6</title>
<g id="a_Node000006"><a xlink:href="005__layouts_8c.html" target="_top" xlink:title="Unit test for the Manual API&#39;s struct and union layout calculations.">
<polygon fill="white" stroke="#666666" points="627.5,-24.5 536.5,-24.5 536.5,-5.5 627.5,-5.5 627.5,-24.5"/>
<text text-anchor="middle" x="582" y="-12.5" font-family="Helvetica,sans-Serif" font-size="10.00">t/005_layouts.c</text>
</a>
</g>
</g>
<!-- Node1&#45;&gt;Node6 -->
<g id="edge5_Node000001_Node000006" class="edge">
<title>Node1&#45;&gt;Node6</title>
<g id="a_edge5_Node000001_Node000006"><a xlink:title=" ">
<path fill="none" stroke="#63b8ff" d="M2233.94,-74.79C1941.35,-75.44 949.9,-74.26 636,-30 627.46,-28.8 618.34,-26.74 610.06,-24.56"/>
<polygon fill="#63b8ff" stroke="#63b8ff" points="2234.06,-78.29 2244.05,-74.77 2234.05,-71.29 2234.06,-78.29"/>
</a>
</g>
</g>
<!-- Node7 -->
<g id="Node000007" class="node">
<title>Node7</title>
<g id="a_Node000007"><a xlink:href="006__end__to__end__calls_8c.html" target="_top" xlink:title="End&#45;to&#45;end unit test for passing and returning aggregate types (structs).">
<polygon fill="white" stroke="#666666" points="784.5,-24.5 645.5,-24.5 645.5,-5.5 784.5,-5.5 784.5,-24.5"/>
<text text-anchor="middle" x="715" y="-12.5" font-family="Helvetica,sans-Serif" font-size="10.00">t/006_end_to_end_calls.c</text>
</a>
</g>
</g>
<!-- Node1&#45;&gt;Node7 -->
<g id="edge6_Node000001_Node000007" class="edge">
<title>Node1&#45;&gt;Node7</title>
<g id="a_edge6_Node000001_Node000007"><a xlink:title=" ">
<path fill="none" stroke="#63b8ff" d="M2234.03,-73.68C1959.98,-70.71 1076.99,-59.06 794,-30 781.81,-28.75 768.66,-26.7 756.66,-24.56"/>
<polygon fill="#63b8ff" stroke="#63b8ff" points="2234.26,-77.19 2244.3,-73.79 2234.34,-70.19 2234.26,-77.19"/>
</a>
</g>
</g>
<!-- Node8 -->
<g id="Node000008" class="node">
<title>Node8</title>
<g id="a_Node000008"><a xlink:href="007__type__registry_8c.html" target="_top" xlink:title="Unit test for the named type registry system.">
<polygon fill="white" stroke="#666666" points="921,-24.5 803,-24.5 803,-5.5 921,-5.5 921,-24.5"/>
<text text-anchor="middle" x="862" y="-12.5" font-family="Helvetica,sans-Serif" font-size="10.00">t/007_type_registry.c</text>
</a>
</g>
</g>
<!-- Node1&#45;&gt;Node8 -->
<g id="edge7_Node000001_Node000008" class="edge">
<title>Node1&#45;&gt;Node8</title>
<g id="a_edge7_Node000001_Node000008"><a xlink:title=" ">
<path fill="none" stroke="#63b8ff" d="M2234.38,-73.71C1977.08,-70.94 1184.96,-60.11 930,-30 919.47,-28.76 908.14,-26.71 897.81,-24.57"/>
<polygon fill="#63b8ff" stroke="#63b8ff" points="2234.36,-77.21 2244.4,-73.82 2234.44,-70.21 2234.36,-77.21"/>
</a>
</g>
</g>
<!-- Node9 -->
<g id="Node000009" class="node">
<title>Node9</title>
<g id="a_Node000009"><a xlink:href="008__registry__introspection_8c.html" target="_top" xlink:title="Unit test for the registry introspection and serialization APIs.">
<polygon fill="white" stroke="#666666" points="1100.5,-24.5 939.5,-24.5 939.5,-5.5 1100.5,-5.5 1100.5,-24.5"/>
<text text-anchor="middle" x="1020" y="-12.5" font-family="Helvetica,sans-Serif" font-size="10.00">t/008_registry_introspection.c</text>
</a>
</g>
</g>
<!-- Node1&#45;&gt;Node9 -->
<g id="edge8_Node000001_Node000009" class="edge">
<title>Node1&#45;&gt;Node9</title>
<g id="a_edge8_Node000001_Node000009"><a xlink:title=" ">
<path fill="none" stroke="#63b8ff" d="M2234.21,-74.84C2039.04,-74.92 1530.89,-70.81 1109,-30 1095.46,-28.69 1080.84,-26.65 1067.44,-24.54"/>
<polygon fill="#63b8ff" stroke="#63b8ff" points="2234.38,-78.34 2244.38,-74.83 2234.38,-71.34 2234.38,-78.34"/>
</a>
</g>
</g>
<!-- Node10 -->
<g id="Node000010" class="node">
<title>Node10</title>
<g id="a_Node000010"><a xlink:href="009__bitfields__fam_8c.html" target="_top" xlink:title="Unit test for Bitfields and Flexible Array Members (FAM).">
<polygon fill="white" stroke="#666666" points="1237.5,-24.5 1118.5,-24.5 1118.5,-5.5 1237.5,-5.5 1237.5,-24.5"/>
<text text-anchor="middle" x="1178" y="-12.5" font-family="Helvetica,sans-Serif" font-size="10.00">t/009_bitfields_fam.c</text>
</a>
</g>
</g>
<!-- Node1&#45;&gt;Node10 -->
<g id="edge9_Node000001_Node000010" class="edge">
<title>Node1&#45;&gt;Node10</title>
<g id="a_edge9_Node000001_Node000010"><a xlink:title=" ">
<path fill="none" stroke="#63b8ff" d="M2233.96,-72.8C2017.93,-68.06 1436.87,-53.46 1246,-30 1235.47,-28.71 1224.15,-26.65 1213.82,-24.5"/>
<polygon fill="#63b8ff" stroke="#63b8ff" points="2234.21,-76.31 2244.28,-73.03 2234.36,-69.31 2234.21,-76.31"/>
</a>
</g>
</g>
<!-- Node11 -->
<g id="Node000011" class="node">
<title>Node11</title>
<g id="a_Node000011"><a xlink:href="101__by__value_8c.html" target="_top" xlink:title="Unit test for passing and returning aggregates and vectors by value.">
<polygon fill="white" stroke="#666666" points="1354.5,-24.5 1255.5,-24.5 1255.5,-5.5 1354.5,-5.5 1354.5,-24.5"/>
<text text-anchor="middle" x="1305" y="-12.5" font-family="Helvetica,sans-Serif" font-size="10.00">t/101_by_value.c</text>
</a>
</g>
</g>
<!-- Node1&#45;&gt;Node11 -->
<g id="edge10_Node000001_Node000011" class="edge">
<title>Node1&#45;&gt;Node11</title>
<g id="a_edge10_Node000001_Node000011"><a xlink:title=" ">
<path fill="none" stroke="#63b8ff" d="M2234.22,-72.68C2035.27,-67.93 1530.11,-53.85 1363,-30 1353.98,-28.71 1344.3,-26.66 1335.49,-24.51"/>
<polygon fill="#63b8ff" stroke="#63b8ff" points="2234.24,-76.18 2244.32,-72.92 2234.4,-69.18 2234.24,-76.18"/>
</a>
</g>
</g>
<!-- Node12 -->
<g id="Node000012" class="node">
<title>Node12</title>
<g id="a_Node000012"><a xlink:href="102__by__reference_8c.html" target="_top" xlink:title="Unit test for passing and returning large aggregates by reference.">
<polygon fill="white" stroke="#666666" points="1491.5,-24.5 1372.5,-24.5 1372.5,-5.5 1491.5,-5.5 1491.5,-24.5"/>
<text text-anchor="middle" x="1432" y="-12.5" font-family="Helvetica,sans-Serif" font-size="10.00">t/102_by_reference.c</text>
</a>
</g>
</g>
<!-- Node1&#45;&gt;Node12 -->
<g id="edge11_Node000001_Node000012" class="edge">
<title>Node1&#45;&gt;Node12</title>
<g id="a_edge11_Node000001_Node000012"><a xlink:title=" ">
<path fill="none" stroke="#63b8ff" d="M2234.14,-74.05C2086.72,-72.35 1767.08,-64.58 1500,-30 1489.72,-28.67 1478.67,-26.65 1468.53,-24.56"/>
<polygon fill="#63b8ff" stroke="#63b8ff" points="2234.42,-77.55 2244.45,-74.16 2234.49,-70.55 2234.42,-77.55"/>
</a>
</g>
</g>
<!-- Node13 -->
<g id="Node000013" class="node">
<title>Node13</title>
<g id="a_Node000013"><a xlink:href="103__unions_8c.html" target="_top" xlink:title="Unit test for passing and returning unions by value.">
<polygon fill="white" stroke="#666666" points="1596.5,-24.5 1509.5,-24.5 1509.5,-5.5 1596.5,-5.5 1596.5,-24.5"/>
<text text-anchor="middle" x="1553" y="-12.5" font-family="Helvetica,sans-Serif" font-size="10.00">t/103_unions.c</text>
</a>
</g>
</g>
<!-- Node1&#45;&gt;Node13 -->
<g id="edge12_Node000001_Node000013" class="edge">
<title>Node1&#45;&gt;Node13</title>
<g id="a_edge12_Node000001_Node000013"><a xlink:title=" ">
<path fill="none" stroke="#63b8ff" d="M2234.36,-74.55C2101.7,-73.48 1831.47,-66.48 1606,-30 1597.83,-28.68 1589.09,-26.64 1581.11,-24.52"/>
<polygon fill="#63b8ff" stroke="#63b8ff" points="2234.42,-78.05 2244.44,-74.62 2234.47,-71.05 2234.42,-78.05"/>
</a>
</g>
</g>
<!-- Node14 -->
<g id="Node000014" class="node">
<title>Node14</title>
<g id="a_Node000014"><a xlink:href="105__bitfields__fam__jit_8c.html" target="_top" xlink:title="End&#45;to&#45;end JIT execution tests for Bitfields and Flexible Array Members.">
<polygon fill="white" stroke="#666666" points="1725,-30 1615,-30 1615,0 1725,0 1725,-30"/>
<text text-anchor="start" x="1623" y="-18" font-family="Helvetica,sans-Serif" font-size="10.00">t/105_bitfields_fam</text>
<text text-anchor="middle" x="1670" y="-7" font-family="Helvetica,sans-Serif" font-size="10.00">_jit.c</text>
</a>
</g>
</g>
<!-- Node1&#45;&gt;Node14 -->
<g id="edge13_Node000001_Node000014" class="edge">
<title>Node1&#45;&gt;Node14</title>
<g id="a_edge13_Node000001_Node000014"><a xlink:title=" ">
<path fill="none" stroke="#63b8ff" d="M2234.12,-71.83C2121.11,-67.33 1911.19,-56.03 1734,-30 1731.07,-29.57 1728.08,-29.08 1725.07,-28.56"/>
<polygon fill="#63b8ff" stroke="#63b8ff" points="2234.29,-75.34 2244.42,-72.23 2234.56,-68.34 2234.29,-75.34"/>
</a>
</g>
</g>
<!-- Node15 -->
<g id="Node000015" class="node">
<title>Node15</title>
<g id="a_Node000015"><a xlink:href="201__basic_8c.html" target="_top" xlink:title="Unit test for FFI calls involving pointer types.">
<polygon fill="white" stroke="#666666" points="1823,-24.5 1743,-24.5 1743,-5.5 1823,-5.5 1823,-24.5"/>
<text text-anchor="middle" x="1783" y="-12.5" font-family="Helvetica,sans-Serif" font-size="10.00">t/201_basic.c</text>
</a>
</g>
</g>
<!-- Node1&#45;&gt;Node15 -->
<g id="edge14_Node000001_Node000015" class="edge">
<title>Node1&#45;&gt;Node15</title>
<g id="a_edge14_Node000001_Node000015"><a xlink:title=" ">
<path fill="none" stroke="#63b8ff" d="M2234.48,-71.65C2137.77,-67.19 1971.99,-56.2 1832,-30 1824.61,-28.62 1816.72,-26.61 1809.49,-24.54"/>
<polygon fill="#63b8ff" stroke="#63b8ff" points="2234.34,-75.14 2244.49,-72.09 2234.65,-68.15 2234.34,-75.14"/>
</a>
</g>
</g>
<!-- Node16 -->
<g id="Node000016" class="node">
<title>Node16</title>
<g id="a_Node000016"><a xlink:href="202__in__structs_8c.html" target="_top" xlink:title="Unit test for passing structs that contain pointer members.">
<polygon fill="white" stroke="#666666" points="1943,-24.5 1841,-24.5 1841,-5.5 1943,-5.5 1943,-24.5"/>
<text text-anchor="middle" x="1892" y="-12.5" font-family="Helvetica,sans-Serif" font-size="10.00">t/202_in_structs.c</text>
</a>
</g>
</g>
<!-- Node1&#45;&gt;Node16 -->
<g id="edge15_Node000001_Node000016" class="edge">
<title>Node1&#45;&gt;Node16</title>
<g id="a_edge15_Node000001_Node000016"><a xlink:title=" ">
<path fill="none" stroke="#63b8ff" d="M2233.99,-67.02C2159.97,-59.66 2048.24,-47.06 1952,-30 1943.47,-28.49 1934.33,-26.53 1925.82,-24.56"/>
<polygon fill="#63b8ff" stroke="#63b8ff" points="2233.88,-70.52 2244.18,-68.02 2234.57,-63.56 2233.88,-70.52"/>
</a>
</g>
</g>
<!-- Node17 -->
<g id="Node000017" class="node">
<title>Node17</title>
<g id="a_Node000017"><a xlink:href="203__complex_8c.html" target="_top" xlink:title="Unit test for FFI calls involving C99 _Complex types.">
<polygon fill="white" stroke="#666666" points="2058.5,-24.5 1961.5,-24.5 1961.5,-5.5 2058.5,-5.5 2058.5,-24.5"/>
<text text-anchor="middle" x="2010" y="-12.5" font-family="Helvetica,sans-Serif" font-size="10.00">t/203_complex.c</text>
</a>
</g>
</g>
<!-- Node1&#45;&gt;Node17 -->
<g id="edge16_Node000001_Node000017" class="edge">
<title>Node1&#45;&gt;Node17</title>
<g id="a_edge16_Node000001_Node000017"><a xlink:title=" ">
<path fill="none" stroke="#63b8ff" d="M2253.03,-64.26C2202.78,-55.84 2130.68,-43.18 2068,-30 2060.19,-28.36 2051.84,-26.44 2043.97,-24.56"/>
<polygon fill="#63b8ff" stroke="#63b8ff" points="2252.65,-67.75 2263.09,-65.94 2253.8,-60.84 2252.65,-67.75"/>
</a>
</g>
</g>
<!-- Node18 -->
<g id="Node000018" class="node">
<title>Node18</title>
<g id="a_Node000018"><a xlink:href="301__primitives_8c.html" target="_top" xlink:title="Unit test for reverse trampolines (callbacks) with primitive C types.">
<polygon fill="white" stroke="#666666" points="2181,-24.5 2077,-24.5 2077,-5.5 2181,-5.5 2181,-24.5"/>
<text text-anchor="middle" x="2129" y="-12.5" font-family="Helvetica,sans-Serif" font-size="10.00">t/301_primitives.c</text>
</a>
</g>
</g>
<!-- Node1&#45;&gt;Node18 -->
<g id="edge17_Node000001_Node000018" class="edge">
<title>Node1&#45;&gt;Node18</title>
<g id="a_edge17_Node000001_Node000018"><a xlink:title=" ">
<path fill="none" stroke="#63b8ff" d="M2279.12,-62.96C2242.95,-51.65 2188.65,-34.66 2156.22,-24.52"/>
<polygon fill="#63b8ff" stroke="#63b8ff" points="2278.22,-66.35 2288.81,-65.99 2280.31,-59.67 2278.22,-66.35"/>
</a>
</g>
</g>
<!-- Node19 -->
<g id="Node000019" class="node">
<title>Node19</title>
<g id="a_Node000019"><a xlink:href="302__aggregates_8c.html" target="_top" xlink:title="Unit test for reverse trampolines (callbacks) with aggregate types.">
<polygon fill="white" stroke="#666666" points="2309,-24.5 2199,-24.5 2199,-5.5 2309,-5.5 2309,-24.5"/>
<text text-anchor="middle" x="2254" y="-12.5" font-family="Helvetica,sans-Serif" font-size="10.00">t/302_aggregates.c</text>
</a>
</g>
</g>
<!-- Node1&#45;&gt;Node19 -->
<g id="edge18_Node000001_Node000019" class="edge">
<title>Node1&#45;&gt;Node19</title>
<g id="a_edge18_Node000001_Node000019"><a xlink:title=" ">
<path fill="none" stroke="#63b8ff" d="M2299.48,-58.91C2287.85,-47.94 2272.72,-33.67 2263.19,-24.67"/>
<polygon fill="#63b8ff" stroke="#63b8ff" points="2297.18,-61.55 2306.85,-65.87 2301.98,-56.46 2297.18,-61.55"/>
</a>
</g>
</g>
<!-- Node20 -->
<g id="Node000020" class="node">
<title>Node20</title>
<g id="a_Node000020"><a xlink:href="303__advanced_8c.html" target="_top" xlink:title="Unit test for advanced reverse trampoline (callback) scenarios.">
<polygon fill="white" stroke="#666666" points="2429,-24.5 2327,-24.5 2327,-5.5 2429,-5.5 2429,-24.5"/>
<text text-anchor="middle" x="2378" y="-12.5" font-family="Helvetica,sans-Serif" font-size="10.00">t/303_advanced.c</text>
</a>
</g>
</g>
<!-- Node1&#45;&gt;Node20 -->
<g id="edge19_Node000001_Node000020" class="edge">
<title>Node1&#45;&gt;Node20</title>
<g id="a_edge19_Node000001_Node000020"><a xlink:title=" ">
<path fill="none" stroke="#63b8ff" d="M2332.52,-58.91C2344.15,-47.94 2359.28,-33.67 2368.81,-24.67"/>
<polygon fill="#63b8ff" stroke="#63b8ff" points="2330.02,-56.46 2325.15,-65.87 2334.82,-61.55 2330.02,-56.46"/>
</a>
</g>
</g>
<!-- Node21 -->
<g id="Node000021" class="node">
<title>Node21</title>
<g id="a_Node000021"><a xlink:href="304__reverse__call__types_8c.html" target="_top" xlink:title="Unit test to explicitly compare the &quot;Callback&quot; vs. &quot;Closure&quot; reverse trampoline APIs.">
<polygon fill="white" stroke="#666666" points="2553,-30 2447,-30 2447,0 2553,0 2553,-30"/>
<text text-anchor="start" x="2455" y="-18" font-family="Helvetica,sans-Serif" font-size="10.00">t/304_reverse_call</text>
<text text-anchor="middle" x="2500" y="-7" font-family="Helvetica,sans-Serif" font-size="10.00">_types.c</text>
</a>
</g>
</g>
<!-- Node1&#45;&gt;Node21 -->
<g id="edge20_Node000001_Node000021" class="edge">
<title>Node1&#45;&gt;Node21</title>
<g id="a_edge20_Node000001_Node000021"><a xlink:title=" ">
<path fill="none" stroke="#63b8ff" d="M2352.32,-62.95C2382.01,-53.51 2424.11,-40.13 2455.76,-30.06"/>
<polygon fill="#63b8ff" stroke="#63b8ff" points="2351.22,-59.63 2342.76,-65.99 2353.35,-66.3 2351.22,-59.63"/>
</a>
</g>
</g>
<!-- Node22 -->
<g id="Node000022" class="node">
<title>Node22</title>
<g id="a_Node000022"><a xlink:href="401__large__stack_8c.html" target="_top" xlink:title="Unit test for FFI calls with a large number of arguments passed on the stack.">
<polygon fill="white" stroke="#666666" points="2682.5,-24.5 2571.5,-24.5 2571.5,-5.5 2682.5,-5.5 2682.5,-24.5"/>
<text text-anchor="middle" x="2627" y="-12.5" font-family="Helvetica,sans-Serif" font-size="10.00">t/401_large_stack.c</text>
</a>
</g>
</g>
<!-- Node1&#45;&gt;Node22 -->
<g id="edge21_Node000001_Node000022" class="edge">
<title>Node1&#45;&gt;Node22</title>
<g id="a_edge21_Node000001_Node000022"><a xlink:title=" ">
<path fill="none" stroke="#63b8ff" d="M2376.01,-64.22C2425.88,-55.54 2498.67,-42.54 2562,-30 2570.61,-28.3 2579.83,-26.37 2588.55,-24.5"/>
<polygon fill="#63b8ff" stroke="#63b8ff" points="2375.29,-60.79 2366.03,-65.95 2376.49,-67.69 2375.29,-60.79"/>
</a>
</g>
</g>
<!-- Node23 -->
<g id="Node000023" class="node">
<title>Node23</title>
<g id="a_Node000023"><a xlink:href="402__variadic__functions_8c.html" target="_top" xlink:title="Unit test for FFI calls to and from variadic C functions.">
<polygon fill="white" stroke="#666666" points="2845,-24.5 2701,-24.5 2701,-5.5 2845,-5.5 2845,-24.5"/>
<text text-anchor="middle" x="2773" y="-12.5" font-family="Helvetica,sans-Serif" font-size="10.00">t/402_variadic_functions.c</text>
</a>
</g>
</g>
<!-- Node1&#45;&gt;Node23 -->
<g id="edge22_Node000001_Node000023" class="edge">
<title>Node1&#45;&gt;Node23</title>
<g id="a_edge22_Node000001_Node000023"><a xlink:title=" ">
<path fill="none" stroke="#63b8ff" d="M2397.55,-66.12C2473.83,-57.98 2590.84,-44.72 2692,-30 2703.02,-28.4 2714.84,-26.47 2725.95,-24.57"/>
<polygon fill="#63b8ff" stroke="#63b8ff" points="2397.11,-62.64 2387.53,-67.18 2397.85,-69.61 2397.11,-62.64"/>
</a>
</g>
</g>
<!-- Node24 -->
<g id="Node000024" class="node">
<title>Node24</title>
<g id="a_Node000024"><a xlink:href="403__special__types_8c.html" target="_top" xlink:title="Unit test for FFI calls with special, non&#45;standard, or platform&#45;dependent primitive types.">
<polygon fill="white" stroke="#666666" points="2985,-24.5 2863,-24.5 2863,-5.5 2985,-5.5 2985,-24.5"/>
<text text-anchor="middle" x="2924" y="-12.5" font-family="Helvetica,sans-Serif" font-size="10.00">t/403_special_types.c</text>
</a>
</g>
</g>
<!-- Node1&#45;&gt;Node24 -->
<g id="edge23_Node000001_Node000024" class="edge">
<title>Node1&#45;&gt;Node24</title>
<g id="a_edge23_Node000001_Node000024"><a xlink:title=" ">
<path fill="none" stroke="#63b8ff" d="M2397.93,-70.66C2503.69,-65.02 2693.23,-52.65 2854,-30 2864.31,-28.55 2875.39,-26.54 2885.62,-24.5"/>
<polygon fill="#63b8ff" stroke="#63b8ff" points="2397.45,-67.18 2387.65,-71.2 2397.82,-74.17 2397.45,-67.18"/>
</a>
</g>
</g>
<!-- Node25 -->
<g id="Node000025" class="node">
<title>Node25</title>
<g id="a_Node000025"><a xlink:href="501__direct__marshalling_8c.html" target="_top" xlink:title="Test suite for the high&#45;performance direct marshalling API.">
<polygon fill="white" stroke="#666666" points="3149,-24.5 3003,-24.5 3003,-5.5 3149,-5.5 3149,-24.5"/>
<text text-anchor="middle" x="3076" y="-12.5" font-family="Helvetica,sans-Serif" font-size="10.00">t/501_direct_marshalling.c</text>
</a>
</g>
</g>
<!-- Node1&#45;&gt;Node25 -->
<g id="edge24_Node000001_Node000025" class="edge">
<title>Node1&#45;&gt;Node25</title>
<g id="a_edge24_Node000001_Node000025"><a xlink:title=" ">
<path fill="none" stroke="#63b8ff" d="M2398.07,-71.86C2525.83,-67.12 2779.85,-55.24 2994,-30 3006.05,-28.58 3019.02,-26.58 3031.01,-24.54"/>
<polygon fill="#63b8ff" stroke="#63b8ff" points="2397.84,-68.36 2387.97,-72.23 2398.1,-75.36 2397.84,-68.36"/>
</a>
</g>
</g>
<!-- Node26 -->
<g id="Node000026" class="node">
<title>Node26</title>
<g id="a_Node000026"><a xlink:href="810__memory__stress_8c.html" target="_top" xlink:title="A stress test to detect memory leaks under heavy allocation/deallocation cycles.">
<polygon fill="white" stroke="#666666" points="3298.5,-24.5 3167.5,-24.5 3167.5,-5.5 3298.5,-5.5 3298.5,-24.5"/>
<text text-anchor="middle" x="3233" y="-12.5" font-family="Helvetica,sans-Serif" font-size="10.00">t/810_memory_stress.c</text>
</a>
</g>
</g>
<!-- Node1&#45;&gt;Node26 -->
<g id="edge25_Node000001_Node000026" class="edge">
<title>Node1&#45;&gt;Node26</title>
<g id="a_edge25_Node000001_Node000026"><a xlink:title=" ">
<path fill="none" stroke="#63b8ff" d="M2397.62,-73.75C2548.36,-71.58 2880.39,-63.1 3158,-30 3169.31,-28.65 3181.49,-26.63 3192.67,-24.54"/>
<polygon fill="#63b8ff" stroke="#63b8ff" points="2397.47,-70.25 2387.52,-73.89 2397.57,-77.25 2397.47,-70.25"/>
</a>
</g>
</g>
<!-- Node27 -->
<g id="Node000027" class="node">
<title>Node27</title>
<g id="a_Node000027"><a xlink:href="811__fault__injection_8c.html" target="_top" xlink:title="Unit test to verify resource cleanup under memory allocation failures.">
<polygon fill="white" stroke="#666666" points="3441.5,-24.5 3316.5,-24.5 3316.5,-5.5 3441.5,-5.5 3441.5,-24.5"/>
<text text-anchor="middle" x="3379" y="-12.5" font-family="Helvetica,sans-Serif" font-size="10.00">t/811_fault_injection.c</text>
</a>
</g>
</g>
<!-- Node1&#45;&gt;Node27 -->
<g id="edge26_Node000001_Node000027" class="edge">
<title>Node1&#45;&gt;Node27</title>
<g id="a_edge26_Node000001_Node000027"><a xlink:title=" ">
<path fill="none" stroke="#63b8ff" d="M2397.7,-74.96C2567.76,-75.02 2971.9,-70.44 3308,-30 3318.85,-28.69 3330.53,-26.66 3341.22,-24.54"/>
<polygon fill="#63b8ff" stroke="#63b8ff" points="2397.58,-71.46 2387.58,-74.96 2397.57,-78.46 2397.58,-71.46"/>
</a>
</g>
</g>
<!-- Node28 -->
<g id="Node000028" class="node">
<title>Node28</title>
<g id="a_Node000028"><a xlink:href="812__shared__arena_8c.html" target="_top" xlink:title="Unit test for advanced arena&#45;based memory management features.">
<polygon fill="white" stroke="#666666" points="3580.5,-24.5 3459.5,-24.5 3459.5,-5.5 3580.5,-5.5 3580.5,-24.5"/>
<text text-anchor="middle" x="3520" y="-12.5" font-family="Helvetica,sans-Serif" font-size="10.00">t/812_shared_arena.c</text>
</a>
</g>
</g>
<!-- Node1&#45;&gt;Node28 -->
<g id="edge27_Node000001_Node000028" class="edge">
<title>Node1&#45;&gt;Node28</title>
<g id="a_edge27_Node000001_Node000028"><a xlink:title=" ">
<path fill="none" stroke="#63b8ff" d="M2397.9,-73C2622.84,-68.62 3246.97,-54.54 3451,-30 3461.68,-28.72 3473.17,-26.66 3483.65,-24.52"/>
<polygon fill="#63b8ff" stroke="#63b8ff" points="2397.74,-69.5 2387.81,-73.2 2397.88,-76.5 2397.74,-69.5"/>
</a>
</g>
</g>
<!-- Node29 -->
<g id="Node000029" class="node">
<title>Node29</title>
<g id="a_Node000029"><a xlink:href="820__threading__helgrind_8c.html" target="_top" xlink:title="A stress test to detect data races and other threading issues.">
<polygon fill="white" stroke="#666666" points="3745,-24.5 3599,-24.5 3599,-5.5 3745,-5.5 3745,-24.5"/>
<text text-anchor="middle" x="3672" y="-12.5" font-family="Helvetica,sans-Serif" font-size="10.00">t/820_threading_helgrind.c</text>
</a>
</g>
</g>
<!-- Node1&#45;&gt;Node29 -->
<g id="edge28_Node000001_Node000029" class="edge">
<title>Node1&#45;&gt;Node29</title>
<g id="a_edge28_Node000001_Node000029"><a xlink:title=" ">
<path fill="none" stroke="#63b8ff" d="M2397.98,-73.08C2641.4,-68.62 3357.49,-53.8 3590,-30 3602.64,-28.71 3616.28,-26.65 3628.74,-24.5"/>
<polygon fill="#63b8ff" stroke="#63b8ff" points="2397.72,-69.58 2387.78,-73.26 2397.84,-76.58 2397.72,-69.58"/>
</a>
</g>
</g>
<!-- Node30 -->
<g id="Node000030" class="node">
<title>Node30</title>
<g id="a_Node000030"><a xlink:href="830__security_8c.html" target="_top" xlink:title="Unit test for security&#45;hardening features of the infix library.">
<polygon fill="white" stroke="#666666" points="3855,-24.5 3763,-24.5 3763,-5.5 3855,-5.5 3855,-24.5"/>
<text text-anchor="middle" x="3809" y="-12.5" font-family="Helvetica,sans-Serif" font-size="10.00">t/830_security.c</text>
</a>
</g>
</g>
<!-- Node1&#45;&gt;Node30 -->
<g id="edge29_Node000001_Node000030" class="edge">
<title>Node1&#45;&gt;Node30</title>
<g id="a_edge29_Node000001_Node000030"><a xlink:title=" ">
<path fill="none" stroke="#63b8ff" d="M2397.99,-74.31C2662.18,-73.34 3489.34,-67.32 3754,-30 3762.68,-28.78 3771.98,-26.71 3780.41,-24.54"/>
<polygon fill="#63b8ff" stroke="#63b8ff" points="2397.69,-70.81 2387.71,-74.35 2397.72,-77.81 2397.69,-70.81"/>
</a>
</g>
</g>
<!-- Node31 -->
<g id="Node000031" class="node">
<title>Node31</title>
<g id="a_Node000031"><a xlink:href="840__arena__allocator_8c.html" target="_top" xlink:title="Unit test for the internal arena allocator.">
<polygon fill="white" stroke="#666666" points="4003,-24.5 3873,-24.5 3873,-5.5 4003,-5.5 4003,-24.5"/>
<text text-anchor="middle" x="3938" y="-12.5" font-family="Helvetica,sans-Serif" font-size="10.00">t/840_arena_allocator.c</text>
</a>
</g>
</g>
<!-- Node1&#45;&gt;Node31 -->
<g id="edge30_Node000001_Node000031" class="edge">
<title>Node1&#45;&gt;Node31</title>
<g id="a_edge30_Node000001_Node000031"><a xlink:title=" ">
<path fill="none" stroke="#63b8ff" d="M2397.95,-73.86C2675.07,-71.41 3575.85,-61.2 3864,-30 3875.57,-28.75 3888.04,-26.67 3899.38,-24.5"/>
<polygon fill="#63b8ff" stroke="#63b8ff" points="2397.54,-70.36 2387.57,-73.95 2397.6,-77.36 2397.54,-70.36"/>
</a>
</g>
</g>
<!-- Node32 -->
<g id="Node000032" class="node">
<title>Node32</title>
<g id="a_Node000032"><a xlink:href="850__regression__cases_8c.html" target="_top" xlink:title="A suite of regression tests for bugs discovered by fuzzing.">
<polygon fill="white" stroke="#666666" points="4160.5,-24.5 4021.5,-24.5 4021.5,-5.5 4160.5,-5.5 4160.5,-24.5"/>
<text text-anchor="middle" x="4091" y="-12.5" font-family="Helvetica,sans-Serif" font-size="10.00">t/850_regression_cases.c</text>
</a>
</g>
</g>
<!-- Node1&#45;&gt;Node32 -->
<g id="edge31_Node000001_Node000032" class="edge">
<title>Node1&#45;&gt;Node32</title>
<g id="a_edge31_Node000001_Node000032"><a xlink:title=" ">
<path fill="none" stroke="#63b8ff" d="M2397.73,-73.97C2691.49,-71.82 3693.24,-62.24 4012,-30 4024.33,-28.75 4037.64,-26.68 4049.75,-24.51"/>
<polygon fill="#63b8ff" stroke="#63b8ff" points="2397.56,-70.47 2387.58,-74.05 2397.61,-77.47 2397.56,-70.47"/>
</a>
</g>
</g>
<!-- Node33 -->
<g id="Node000033" class="node">
<title>Node33</title>
<g id="a_Node000033"><a xlink:href="851__lifecycle__regression_8c.html" target="_top" xlink:title="Regression tests for specific memory lifecycle and ownership bugs.">
<polygon fill="white" stroke="#666666" points="4331,-24.5 4179,-24.5 4179,-5.5 4331,-5.5 4331,-24.5"/>
<text text-anchor="middle" x="4255" y="-12.5" font-family="Helvetica,sans-Serif" font-size="10.00">t/851_lifecycle_regression.c</text>
</a>
</g>
</g>
<!-- Node1&#45;&gt;Node33 -->
<g id="edge32_Node000001_Node000033" class="edge">
<title>Node1&#45;&gt;Node33</title>
<g id="a_edge32_Node000001_Node000033"><a xlink:title=" ">
<path fill="none" stroke="#63b8ff" d="M2397.89,-74.05C2709.1,-72.11 3818.57,-63 4170,-30 4183.25,-28.76 4197.56,-26.68 4210.6,-24.51"/>
<polygon fill="#63b8ff" stroke="#63b8ff" points="2397.57,-70.55 2387.59,-74.12 2397.61,-77.55 2397.57,-70.55"/>
</a>
</g>
</g>
<!-- Node34 -->
<g id="Node000034" class="node">
<title>Node34</title>
<g id="a_Node000034"><a xlink:href="860__error__handling_8c.html" target="_top" xlink:title="Unit test for the error reporting system.">
<polygon fill="white" stroke="#666666" points="4474.5,-24.5 4349.5,-24.5 4349.5,-5.5 4474.5,-5.5 4474.5,-24.5"/>
<text text-anchor="middle" x="4412" y="-12.5" font-family="Helvetica,sans-Serif" font-size="10.00">t/860_error_handling.c</text>
</a>
</g>
</g>
<!-- Node1&#45;&gt;Node34 -->
<g id="edge33_Node000001_Node000034" class="edge">
<title>Node1&#45;&gt;Node34</title>
<g id="a_edge33_Node000001_Node000034"><a xlink:title=" ">
<path fill="none" stroke="#63b8ff" d="M2398.16,-74.56C2727.66,-74.5 3954.1,-71.46 4340,-30 4351.27,-28.79 4363.4,-26.73 4374.44,-24.55"/>
<polygon fill="#63b8ff" stroke="#63b8ff" points="2397.75,-71.06 2387.75,-74.56 2397.75,-78.06 2397.75,-71.06"/>
</a>
</g>
</g>
<!-- Node35 -->
<g id="Node000035" class="node">
<title>Node35</title>
<g id="a_Node000035"><a xlink:href="861__error__reporting_8c.html" target="_top" xlink:title=" ">
<polygon fill="white" stroke="#666666" points="4621,-24.5 4493,-24.5 4493,-5.5 4621,-5.5 4621,-24.5"/>
<text text-anchor="middle" x="4557" y="-12.5" font-family="Helvetica,sans-Serif" font-size="10.00">t/861_error_reporting.c</text>
</a>
</g>
</g>
<!-- Node1&#45;&gt;Node35 -->
<g id="edge34_Node000001_Node000035" class="edge">
<title>Node1&#45;&gt;Node35</title>
<g id="a_edge34_Node000001_Node000035"><a xlink:title=" ">
<path fill="none" stroke="#63b8ff" d="M2397.69,-74.67C2740.97,-75.1 4068.06,-73.84 4484,-30 4495.42,-28.8 4507.73,-26.74 4518.92,-24.56"/>
<polygon fill="#63b8ff" stroke="#63b8ff" points="2397.58,-71.17 2387.58,-74.66 2397.58,-78.17 2397.58,-71.17"/>
</a>
</g>
</g>
<!-- Node36 -->
<g id="Node000036" class="node">
<title>Node36</title>
<g id="a_Node000036"><a xlink:href="901__call__overhead_8c.html" target="_top" xlink:title="A micro&#45;benchmark to measure the performance overhead of an FFI call.">
<polygon fill="white" stroke="#666666" points="4762.5,-24.5 4639.5,-24.5 4639.5,-5.5 4762.5,-5.5 4762.5,-24.5"/>
<text text-anchor="middle" x="4701" y="-12.5" font-family="Helvetica,sans-Serif" font-size="10.00">t/901_call_overhead.c</text>
</a>
</g>
</g>
<!-- Node1&#45;&gt;Node36 -->
<g id="edge35_Node000001_Node000036" class="edge">
<title>Node1&#45;&gt;Node36</title>
<g id="a_edge35_Node000001_Node000036"><a xlink:title=" ">
<path fill="none" stroke="#63b8ff" d="M2397.53,-74.85C2754.77,-76.09 4183.84,-77.9 4630,-30 4641.24,-28.79 4653.36,-26.7 4664.34,-24.5"/>
<polygon fill="#63b8ff" stroke="#63b8ff" points="2397.54,-71.35 2387.53,-74.82 2397.52,-78.35 2397.54,-71.35"/>
</a>
</g>
</g>
<!-- Node37 -->
<g id="Node000037" class="node">
<title>Node37</title>
<g id="a_Node000037"><a xlink:href="903__generation__benchmark_8c.html" target="_top" xlink:title="A micro&#45;benchmark to measure the performance of trampoline generation.">
<polygon fill="white" stroke="#666666" points="4947.5,-24.5 4780.5,-24.5 4780.5,-5.5 4947.5,-5.5 4947.5,-24.5"/>
<text text-anchor="middle" x="4864" y="-12.5" font-family="Helvetica,sans-Serif" font-size="10.00">t/903_generation_benchmark.c</text>
</a>
</g>
</g>
<!-- Node1&#45;&gt;Node37 -->
<g id="edge36_Node000001_Node000037" class="edge">
<title>Node1&#45;&gt;Node37</title>
<g id="a_edge36_Node000001_Node000037"><a xlink:title=" ">
<path fill="none" stroke="#63b8ff" d="M2397.85,-74.48C2768.9,-74.17 4295.49,-70.39 4772,-30 4786.33,-28.79 4801.81,-26.72 4815.92,-24.55"/>
<polygon fill="#63b8ff" stroke="#63b8ff" points="2397.73,-70.98 2387.73,-74.49 2397.74,-77.98 2397.73,-70.98"/>
</a>
</g>
</g>
</g>
</svg>

<g id="navigator" transform="translate(0 0)" fill="#404254">
  <rect fill="#f2f5e9" fill-opacity="0.5" stroke="#606060" stroke-width=".5" x="0" y="0" width="60" height="60"/>
  <use id="zoomplus" xlink:href="#zoomPlus" x="17" y="9" onmousedown="handleZoom(evt,'in')"/>
  <use id="zoomminus" xlink:href="#zoomMin" x="42" y="9" onmousedown="handleZoom(evt,'out')"/>
  <use id="reset" xlink:href="#resetDef" x="30" y="36" onmousedown="handleReset()"/>
   <use id="arrowup" xlink:href="#arrowUp" x="0" y="0" onmousedown="handlePan(0,-1)"/>
  <use id="arrowright" xlink:href="#arrowRight" x="0" y="0" onmousedown="handlePan(1,0)"/>
  <use id="arrowdown" xlink:href="#arrowDown" x="0" y="0" onmousedown="handlePan(0,1)"/>
  <use id="arrowleft" xlink:href="#arrowLeft" x="0" y="0" onmousedown="handlePan(-1,0)"/>
</g>
<svg viewBox="0 0 15 15" width="100%" height="30px" preserveAspectRatio="xMaxYMin meet">
 <g id="arrow_out" transform="scale(0.3 0.3)">
  <a xlink:href="double__tap_8h__dep__incl_org.svg" target="_base">
   <rect id="button" ry="5" rx="5" y="6" x="6" height="38" width="38"
        fill="#f2f5e9" fill-opacity="0.5" stroke="#606060" stroke-width="1.0"/>
   <path id="arrow"
     d="M 11.500037,31.436501 C 11.940474,20.09759 22.043105,11.32322 32.158766,21.979434 L 37.068811,17.246167 C 37.068811,17.246167 37.088388,32 37.088388,32 L 22.160133,31.978069 C 22.160133,31.978069 26.997745,27.140456 26.997745,27.140456 C 18.528582,18.264221 13.291696,25.230495 11.500037,31.436501 z"
     style="fill:#404040;"/>
  </a>
 </g>
</svg>

<style type='text/css'>
<![CDATA[
[data-mouse-over-selected='false'] { opacity: 0.7; }
[data-mouse-over-selected='true']  { opacity: 1.0; }
]]>
</style>
<script type="application/ecmascript"><![CDATA[
document.addEventListener('DOMContentLoaded', (event) => {
  highlightEdges();
  highlightAdjacentNodes();
});
]]></script>
</svg>
