<?xml version="1.0" encoding="UTF-8" standalone="no"?>
<!DOCTYPE svg PUBLIC "-//W3C//DTD SVG 1.1//EN"
 "http://www.w3.org/Graphics/SVG/1.1/DTD/svg11.dtd">
<!-- Generated by graphviz version 2.43.0 (0)
 -->
<!-- Title: src/common/double_tap.h Pages: 1 -->
<!--zoomable 93 -->

<svg id="main" version="1.1" xmlns="http://www.w3.org/2000/svg" xmlns:xlink="http://www.w3.org/1999/xlink" xml:space="preserve" onload="init(evt)">
<style type="text/css"><![CDATA[
.node, .edge {opacity: 0.7;}
.node.selected, .edge.selected {opacity: 1;}
.edge:hover path { stroke: red; }
.edge:hover polygon { stroke: red; fill: red; }
]]></style>

<defs>
  <circle id="rim" cx="0" cy="0" r="7"/>
  <circle id="rim2" cx="0" cy="0" r="3.5"/>
  <g id="zoomPlus">
    <use xlink:href="#rim" fill="#404040"><set attributeName="fill" to="#808080" begin="zoomplus.mouseover" end="zoomplus.mouseout"/></use>
    <path d="M-4,0h8M0,-4v8" fill="none" stroke="white" stroke-width="1.5" pointer-events="none"/>
  </g>
  <g id="zoomMin">
    <use xlink:href="#rim" fill="#404040"><set attributeName="fill" to="#808080" begin="zoomminus.mouseover" end="zoomminus.mouseout"/></use>
    <path d="M-4,0h8" fill="none" stroke="white" stroke-width="1.5" pointer-events="none"/>
  </g>
  <g id="arrowUp" transform="translate(30 24)">
    <use xlink:href="#rim"/>
    <path pointer-events="none" fill="none" stroke="white" stroke-width="1.5" d="M0,-3.0v7 M-2.5,-0.5L0,-3.0L2.5,-0.5"/>
  </g>
  <g id="arrowRight" transform="rotate(90) translate(36 -43)">
    <use xlink:href="#rim"/>
    <path pointer-events="none" fill="none" stroke="white" stroke-width="1.5" d="M0,-3.0v7 M-2.5,-0.5L0,-3.0L2.5,-0.5"/>
  </g>
  <g id="arrowDown" transform="rotate(180) translate(-30 -48)">
    <use xlink:href="#rim"/>
    <path pointer-events="none" fill="none" stroke="white" stroke-width="1.5" d="M0,-3.0v7 M-2.5,-0.5L0,-3.0L2.5,-0.5"/>
  </g>
  <g id="arrowLeft" transform="rotate(270) translate(-36 17)">
    <use xlink:href="#rim"/>
    <path pointer-events="none" fill="none" stroke="white" stroke-width="1.5" d="M0,-3.0v7 M-2.5,-0.5L0,-3.0L2.5,-0.5"/>
  </g>
  <g id="resetDef">
    <use xlink:href="#rim2" fill="#404040"><set attributeName="fill" to="#808080" begin="reset.mouseover" end="reset.mouseout"/></use>
  </g>
</defs>
<script type="application/ecmascript">
var viewWidth = 6497;
var viewHeight = 93;
var sectionId = 'dynsection-0';
</script>
<script type="application/ecmascript" xlink:href="svg.min.js"/>
<svg id="graph" class="graph">
<g id="viewport">
<title>src/common/double_tap.h</title>
<!-- Node1 -->
<g id="Node000001" class="node">
<title>Node1</title>
<g id="a_Node000001"><a xlink:title="A lightweight, single&#45;header TAP (Test Anything Protocol) library.">
<polygon fill="#999999" stroke="#666666" points="3115.5,-85 2972.5,-85 2972.5,-66 3115.5,-66 3115.5,-85"/>
<text text-anchor="middle" x="3044" y="-73" font-family="Helvetica,sans-Serif" font-size="10.00">src/common/double_tap.h</text>
</a>
</g>
</g>
<!-- Node2 -->
<g id="Node000002" class="node">
<title>Node2</title>
<g id="a_Node000002"><a xlink:href="001__primitives_8c.html" target="_top" xlink:title="Unit test for creating trampolines for functions with primitive C types.">
<polygon fill="white" stroke="#666666" points="104,-24.5 0,-24.5 0,-5.5 104,-5.5 104,-24.5"/>
<text text-anchor="middle" x="52" y="-12.5" font-family="Helvetica,sans-Serif" font-size="10.00">t/001_primitives.c</text>
</a>
</g>
</g>
<!-- Node1&#45;&gt;Node2 -->
<g id="edge1_Node000001_Node000002" class="edge">
<title>Node1&#45;&gt;Node2</title>
<g id="a_edge1_Node000001_Node000002"><a xlink:title=" ">
<path fill="none" stroke="#63b8ff" d="M2962.05,-74.29C2517.24,-72.98 402.1,-64.97 113,-30 103.29,-28.83 92.87,-26.75 83.44,-24.54"/>
<polygon fill="#63b8ff" stroke="#63b8ff" points="2962.24,-77.79 2972.25,-74.31 2962.26,-70.79 2962.24,-77.79"/>
</a>
</g>
</g>
<!-- Node3 -->
<g id="Node000003" class="node">
<title>Node3</title>
<g id="a_Node000003"><a xlink:href="002__simple__calls_8c.html" target="_top" xlink:title="Unit test for basic forward trampoline calls with simple function signatures.">
<polygon fill="white" stroke="#666666" points="238,-24.5 122,-24.5 122,-5.5 238,-5.5 238,-24.5"/>
<text text-anchor="middle" x="180" y="-12.5" font-family="Helvetica,sans-Serif" font-size="10.00">t/002_simple_calls.c</text>
</a>
</g>
</g>
<!-- Node1&#45;&gt;Node3 -->
<g id="edge2_Node000001_Node000003" class="edge">
<title>Node1&#45;&gt;Node3</title>
<g id="a_edge2_Node000001_Node000003"><a xlink:title=" ">
<path fill="none" stroke="#63b8ff" d="M2962,-74.13C2529.47,-72.02 522.37,-60.68 247,-30 236.37,-28.82 224.93,-26.73 214.57,-24.53"/>
<polygon fill="#63b8ff" stroke="#63b8ff" points="2962.21,-77.63 2972.23,-74.17 2962.25,-70.63 2962.21,-77.63"/>
</a>
</g>
</g>
<!-- Node4 -->
<g id="Node000004" class="node">
<title>Node4</title>
<g id="a_Node000004"><a xlink:href="003__type__system__api_8c.html" target="_top" xlink:title="Unit test for the Manual API (infix_type_create_* functions).">
<polygon fill="white" stroke="#666666" points="394,-24.5 256,-24.5 256,-5.5 394,-5.5 394,-24.5"/>
<text text-anchor="middle" x="325" y="-12.5" font-family="Helvetica,sans-Serif" font-size="10.00">t/003_type_system_api.c</text>
</a>
</g>
</g>
<!-- Node1&#45;&gt;Node4 -->
<g id="edge3_Node000001_Node000004" class="edge">
<title>Node1&#45;&gt;Node4</title>
<g id="a_edge3_Node000001_Node000004"><a xlink:title=" ">
<path fill="none" stroke="#63b8ff" d="M2962.24,-73.91C2544.99,-70.77 662.48,-55.31 403,-30 390.68,-28.8 377.38,-26.71 365.31,-24.51"/>
<polygon fill="#63b8ff" stroke="#63b8ff" points="2962.38,-77.41 2972.41,-73.98 2962.44,-70.41 2962.38,-77.41"/>
</a>
</g>
</g>
<!-- Node5 -->
<g id="Node000005" class="node">
<title>Node5</title>
<g id="a_Node000005"><a xlink:href="004__signatures_8c.html" target="_top" xlink:title="Unit test for the signature string parser.">
<polygon fill="white" stroke="#666666" points="518,-24.5 412,-24.5 412,-5.5 518,-5.5 518,-24.5"/>
<text text-anchor="middle" x="465" y="-12.5" font-family="Helvetica,sans-Serif" font-size="10.00">t/004_signatures.c</text>
</a>
</g>
</g>
<!-- Node1&#45;&gt;Node5 -->
<g id="edge4_Node000001_Node000005" class="edge">
<title>Node1&#45;&gt;Node5</title>
<g id="a_edge4_Node000001_Node000005"><a xlink:title=" ">
<path fill="none" stroke="#63b8ff" d="M2962.14,-74.05C2556.66,-71.67 772.89,-59.62 527,-30 517.14,-28.81 506.55,-26.73 496.96,-24.53"/>
<polygon fill="#63b8ff" stroke="#63b8ff" points="2962.3,-77.55 2972.32,-74.11 2962.34,-70.55 2962.3,-77.55"/>
</a>
</g>
</g>
<!-- Node6 -->
<g id="Node000006" class="node">
<title>Node6</title>
<g id="a_Node000006"><a xlink:href="005__layouts_8c.html" target="_top" xlink:title="Unit test for the Manual API&#39;s struct and union layout calculations.">
<polygon fill="white" stroke="#666666" points="627.5,-24.5 536.5,-24.5 536.5,-5.5 627.5,-5.5 627.5,-24.5"/>
<text text-anchor="middle" x="582" y="-12.5" font-family="Helvetica,sans-Serif" font-size="10.00">t/005_layouts.c</text>
</a>
</g>
</g>
<!-- Node1&#45;&gt;Node6 -->
<g id="edge5_Node000001_Node000006" class="edge">
<title>Node1&#45;&gt;Node6</title>
<g id="a_edge5_Node000001_Node000006"><a xlink:title=" ">
<path fill="none" stroke="#63b8ff" d="M2962.17,-74.13C2567.49,-72.19 870.05,-62.05 636,-30 627.36,-28.82 618.13,-26.74 609.78,-24.53"/>
<polygon fill="#63b8ff" stroke="#63b8ff" points="2962.34,-77.63 2972.36,-74.18 2962.37,-70.63 2962.34,-77.63"/>
</a>
</g>
</g>
<!-- Node7 -->
<g id="Node000007" class="node">
<title>Node7</title>
<g id="a_Node000007"><a xlink:href="006__end__to__end__calls_8c.html" target="_top" xlink:title="End&#45;to&#45;end unit test for passing and returning aggregate types (structs).">
<polygon fill="white" stroke="#666666" points="784.5,-24.5 645.5,-24.5 645.5,-5.5 784.5,-5.5 784.5,-24.5"/>
<text text-anchor="middle" x="715" y="-12.5" font-family="Helvetica,sans-Serif" font-size="10.00">t/006_end_to_end_calls.c</text>
</a>
</g>
</g>
<!-- Node1&#45;&gt;Node7 -->
<g id="edge6_Node000001_Node000007" class="edge">
<title>Node1&#45;&gt;Node7</title>
<g id="a_edge6_Node000001_Node000007"><a xlink:title=" ">
<path fill="none" stroke="#63b8ff" d="M2962.16,-74.59C2610.64,-74.71 1227.18,-72.41 794,-30 781.66,-28.79 768.35,-26.73 756.24,-24.56"/>
<polygon fill="#63b8ff" stroke="#63b8ff" points="2962.26,-78.09 2972.25,-74.58 2962.25,-71.09 2962.26,-78.09"/>
</a>
</g>
</g>
<!-- Node8 -->
<g id="Node000008" class="node">
<title>Node8</title>
<g id="a_Node000008"><a xlink:href="007__type__registry_8c.html" target="_top" xlink:title="Unit test for the named type registry system.">
<polygon fill="white" stroke="#666666" points="921,-24.5 803,-24.5 803,-5.5 921,-5.5 921,-24.5"/>
<text text-anchor="middle" x="862" y="-12.5" font-family="Helvetica,sans-Serif" font-size="10.00">t/007_type_registry.c</text>
</a>
</g>
</g>
<!-- Node1&#45;&gt;Node8 -->
<g id="edge7_Node000001_Node000008" class="edge">
<title>Node1&#45;&gt;Node8</title>
<g id="a_edge7_Node000001_Node000008"><a xlink:title=" ">
<path fill="none" stroke="#63b8ff" d="M2962.11,-74.77C2623.86,-75.57 1334.38,-75.5 930,-30 919.34,-28.8 907.87,-26.74 897.45,-24.57"/>
<polygon fill="#63b8ff" stroke="#63b8ff" points="2962.32,-78.27 2972.32,-74.74 2962.31,-71.27 2962.32,-78.27"/>
</a>
</g>
</g>
<!-- Node9 -->
<g id="Node000009" class="node">
<title>Node9</title>
<g id="a_Node000009"><a xlink:href="008__registry__introspection_8c.html" target="_top" xlink:title="Unit test for the registry introspection and serialization APIs.">
<polygon fill="white" stroke="#666666" points="1100.5,-24.5 939.5,-24.5 939.5,-5.5 1100.5,-5.5 1100.5,-24.5"/>
<text text-anchor="middle" x="1020" y="-12.5" font-family="Helvetica,sans-Serif" font-size="10.00">t/008_registry_introspection.c</text>
</a>
</g>
</g>
<!-- Node1&#45;&gt;Node9 -->
<g id="edge8_Node000001_Node000009" class="edge">
<title>Node1&#45;&gt;Node9</title>
<g id="a_edge8_Node000001_Node000009"><a xlink:title=" ">
<path fill="none" stroke="#63b8ff" d="M2962.29,-74.07C2642.75,-72.17 1477.33,-63.06 1109,-30 1095.13,-28.76 1080.15,-26.68 1066.51,-24.51"/>
<polygon fill="#63b8ff" stroke="#63b8ff" points="2962.37,-77.57 2972.39,-74.13 2962.41,-70.57 2962.37,-77.57"/>
</a>
</g>
</g>
<!-- Node10 -->
<g id="Node000010" class="node">
<title>Node10</title>
<g id="a_Node000010"><a xlink:href="009__bitfields__fam_8c.html" target="_top" xlink:title="Unit test for Bitfields and Flexible Array Members (FAM).">
<polygon fill="white" stroke="#666666" points="1237.5,-24.5 1118.5,-24.5 1118.5,-5.5 1237.5,-5.5 1237.5,-24.5"/>
<text text-anchor="middle" x="1178" y="-12.5" font-family="Helvetica,sans-Serif" font-size="10.00">t/009_bitfields_fam.c</text>
</a>
</g>
</g>
<!-- Node1&#45;&gt;Node10 -->
<g id="edge9_Node000001_Node000010" class="edge">
<title>Node1&#45;&gt;Node10</title>
<g id="a_edge9_Node000001_Node000010"><a xlink:title=" ">
<path fill="none" stroke="#63b8ff" d="M2962.02,-74.38C2656.74,-73.64 1586.01,-68.29 1247,-30 1236.19,-28.78 1224.56,-26.71 1213.98,-24.54"/>
<polygon fill="#63b8ff" stroke="#63b8ff" points="2962.12,-77.88 2972.13,-74.4 2962.13,-70.88 2962.12,-77.88"/>
</a>
</g>
</g>
<!-- Node11 -->
<g id="Node000011" class="node">
<title>Node11</title>
<g id="a_Node000011"><a xlink:href="010__registry__scaling_8c.html" target="_top" xlink:title="Unit test for the registry&#39;s hash table auto&#45;scaling (rehashing).">
<polygon fill="white" stroke="#666666" points="1388,-24.5 1256,-24.5 1256,-5.5 1388,-5.5 1388,-24.5"/>
<text text-anchor="middle" x="1322" y="-12.5" font-family="Helvetica,sans-Serif" font-size="10.00">t/010_registry_scaling.c</text>
</a>
</g>
</g>
<!-- Node1&#45;&gt;Node11 -->
<g id="edge10_Node000001_Node000011" class="edge">
<title>Node1&#45;&gt;Node11</title>
<g id="a_edge10_Node000001_Node000011"><a xlink:title=" ">
<path fill="none" stroke="#63b8ff" d="M2961.74,-73.99C2672.84,-71.94 1705.37,-62.74 1397,-30 1385.28,-28.76 1372.64,-26.68 1361.14,-24.51"/>
<polygon fill="#63b8ff" stroke="#63b8ff" points="2962.12,-77.5 2972.14,-74.07 2962.17,-70.5 2962.12,-77.5"/>
</a>
</g>
</g>
<!-- Node12 -->
<g id="Node000012" class="node">
<title>Node12</title>
<g id="a_Node000012"><a xlink:href="011__bitfields_8c.html" target="_top" xlink:title="Unit test for bitfield support in structs.">
<polygon fill="white" stroke="#666666" points="1500,-24.5 1406,-24.5 1406,-5.5 1500,-5.5 1500,-24.5"/>
<text text-anchor="middle" x="1453" y="-12.5" font-family="Helvetica,sans-Serif" font-size="10.00">t/011_bitfields.c</text>
</a>
</g>
</g>
<!-- Node1&#45;&gt;Node12 -->
<g id="edge11_Node000001_Node000012" class="edge">
<title>Node1&#45;&gt;Node12</title>
<g id="a_edge11_Node000001_Node000012"><a xlink:title=" ">
<path fill="none" stroke="#63b8ff" d="M2961.71,-74.46C2685.58,-73.94 1793.39,-69.2 1509,-30 1500.16,-28.78 1490.7,-26.72 1482.12,-24.55"/>
<polygon fill="#63b8ff" stroke="#63b8ff" points="2962.05,-77.96 2972.06,-74.47 2962.06,-70.96 2962.05,-77.96"/>
</a>
</g>
</g>
<!-- Node13 -->
<g id="Node000013" class="node">
<title>Node13</title>
<g id="a_Node000013"><a xlink:href="101__by__value_8c.html" target="_top" xlink:title="Unit test for passing and returning aggregates and vectors by value.">
<polygon fill="white" stroke="#666666" points="1617.5,-24.5 1518.5,-24.5 1518.5,-5.5 1617.5,-5.5 1617.5,-24.5"/>
<text text-anchor="middle" x="1568" y="-12.5" font-family="Helvetica,sans-Serif" font-size="10.00">t/101_by_value.c</text>
</a>
</g>
</g>
<!-- Node1&#45;&gt;Node13 -->
<g id="edge12_Node000001_Node000013" class="edge">
<title>Node1&#45;&gt;Node13</title>
<g id="a_edge12_Node000001_Node000013"><a xlink:title=" ">
<path fill="none" stroke="#63b8ff" d="M2962.27,-74.14C2700.83,-72.64 1886.89,-65.2 1626,-30 1616.86,-28.77 1607.07,-26.7 1598.18,-24.53"/>
<polygon fill="#63b8ff" stroke="#63b8ff" points="2962.43,-77.64 2972.45,-74.2 2962.47,-70.64 2962.43,-77.64"/>
</a>
</g>
</g>
<!-- Node14 -->
<g id="Node000014" class="node">
<title>Node14</title>
<g id="a_Node000014"><a xlink:href="102__by__reference_8c.html" target="_top" xlink:title="Unit test for passing and returning large aggregates by reference.">
<polygon fill="white" stroke="#666666" points="1754.5,-24.5 1635.5,-24.5 1635.5,-5.5 1754.5,-5.5 1754.5,-24.5"/>
<text text-anchor="middle" x="1695" y="-12.5" font-family="Helvetica,sans-Serif" font-size="10.00">t/102_by_reference.c</text>
</a>
</g>
</g>
<!-- Node1&#45;&gt;Node14 -->
<g id="edge13_Node000001_Node000014" class="edge">
<title>Node1&#45;&gt;Node14</title>
<g id="a_edge13_Node000001_Node000014"><a xlink:title=" ">
<path fill="none" stroke="#63b8ff" d="M2961.96,-73.46C2717.5,-70.06 1996.49,-57.89 1763,-30 1752.47,-28.74 1741.14,-26.69 1730.81,-24.55"/>
<polygon fill="#63b8ff" stroke="#63b8ff" points="2962.15,-76.96 2972.2,-73.6 2962.25,-69.96 2962.15,-76.96"/>
</a>
</g>
</g>
<!-- Node15 -->
<g id="Node000015" class="node">
<title>Node15</title>
<g id="a_Node000015"><a xlink:href="103__unions_8c.html" target="_top" xlink:title="Unit test for passing and returning unions by value.">
<polygon fill="white" stroke="#666666" points="1859.5,-24.5 1772.5,-24.5 1772.5,-5.5 1859.5,-5.5 1859.5,-24.5"/>
<text text-anchor="middle" x="1816" y="-12.5" font-family="Helvetica,sans-Serif" font-size="10.00">t/103_unions.c</text>
</a>
</g>
</g>
<!-- Node1&#45;&gt;Node15 -->
<g id="edge14_Node000001_Node000015" class="edge">
<title>Node1&#45;&gt;Node15</title>
<g id="a_edge14_Node000001_Node000015"><a xlink:title=" ">
<path fill="none" stroke="#63b8ff" d="M2962,-73.74C2731.4,-71.24 2080.28,-61.51 1869,-30 1860.62,-28.75 1851.66,-26.68 1843.54,-24.51"/>
<polygon fill="#63b8ff" stroke="#63b8ff" points="2962.3,-77.25 2972.33,-73.85 2962.37,-70.25 2962.3,-77.25"/>
</a>
</g>
</g>
<!-- Node16 -->
<g id="Node000016" class="node">
<title>Node16</title>
<g id="a_Node000016"><a xlink:href="105__bitfields__fam__jit_8c.html" target="_top" xlink:title="End&#45;to&#45;end JIT execution tests for Bitfields and Flexible Array Members.">
<polygon fill="white" stroke="#666666" points="1988,-30 1878,-30 1878,0 1988,0 1988,-30"/>
<text text-anchor="start" x="1886" y="-18" font-family="Helvetica,sans-Serif" font-size="10.00">t/105_bitfields_fam</text>
<text text-anchor="middle" x="1933" y="-7" font-family="Helvetica,sans-Serif" font-size="10.00">_jit.c</text>
</a>
</g>
</g>
<!-- Node1&#45;&gt;Node16 -->
<g id="edge15_Node000001_Node000016" class="edge">
<title>Node1&#45;&gt;Node16</title>
<g id="a_edge15_Node000001_Node000016"><a xlink:title=" ">
<path fill="none" stroke="#63b8ff" d="M2962.2,-72.85C2749.58,-68.28 2183.17,-54.13 1997,-30 1994.07,-29.62 1991.07,-29.17 1988.05,-28.68"/>
<polygon fill="#63b8ff" stroke="#63b8ff" points="2962.28,-76.35 2972.36,-73.07 2962.43,-69.36 2962.28,-76.35"/>
</a>
</g>
</g>
<!-- Node17 -->
<g id="Node000017" class="node">
<title>Node17</title>
<g id="a_Node000017"><a xlink:href="201__basic_8c.html" target="_top" xlink:title="Unit test for FFI calls involving pointer types.">
<polygon fill="white" stroke="#666666" points="2086,-24.5 2006,-24.5 2006,-5.5 2086,-5.5 2086,-24.5"/>
<text text-anchor="middle" x="2046" y="-12.5" font-family="Helvetica,sans-Serif" font-size="10.00">t/201_basic.c</text>
</a>
</g>
</g>
<!-- Node1&#45;&gt;Node17 -->
<g id="edge16_Node000001_Node000017" class="edge">
<title>Node1&#45;&gt;Node17</title>
<g id="a_edge16_Node000001_Node000017"><a xlink:title=" ">
<path fill="none" stroke="#63b8ff" d="M2962.14,-73.09C2763.63,-69.29 2260.78,-57.19 2095,-30 2087.32,-28.74 2079.13,-26.69 2071.68,-24.55"/>
<polygon fill="#63b8ff" stroke="#63b8ff" points="2962.15,-76.59 2972.21,-73.28 2962.28,-69.59 2962.15,-76.59"/>
</a>
</g>
</g>
<!-- Node18 -->
<g id="Node000018" class="node">
<title>Node18</title>
<g id="a_Node000018"><a xlink:href="202__in__structs_8c.html" target="_top" xlink:title="Unit test for passing structs that contain pointer members.">
<polygon fill="white" stroke="#666666" points="2206,-24.5 2104,-24.5 2104,-5.5 2206,-5.5 2206,-24.5"/>
<text text-anchor="middle" x="2155" y="-12.5" font-family="Helvetica,sans-Serif" font-size="10.00">t/202_in_structs.c</text>
</a>
</g>
</g>
<!-- Node1&#45;&gt;Node18 -->
<g id="edge17_Node000001_Node000018" class="edge">
<title>Node1&#45;&gt;Node18</title>
<g id="a_edge17_Node000001_Node000018"><a xlink:title=" ">
<path fill="none" stroke="#63b8ff" d="M2962.34,-74.85C2813.15,-74.45 2486.82,-68.7 2215,-30 2205.79,-28.69 2195.91,-26.65 2186.88,-24.53"/>
<polygon fill="#63b8ff" stroke="#63b8ff" points="2962.34,-78.35 2972.34,-74.87 2962.35,-71.35 2962.34,-78.35"/>
</a>
</g>
</g>
<!-- Node19 -->
<g id="Node000019" class="node">
<title>Node19</title>
<g id="a_Node000019"><a xlink:href="203__complex_8c.html" target="_top" xlink:title="Unit test for FFI calls involving C99 _Complex types.">
<polygon fill="white" stroke="#666666" points="2321.5,-24.5 2224.5,-24.5 2224.5,-5.5 2321.5,-5.5 2321.5,-24.5"/>
<text text-anchor="middle" x="2273" y="-12.5" font-family="Helvetica,sans-Serif" font-size="10.00">t/203_complex.c</text>
</a>
</g>
</g>
<!-- Node1&#45;&gt;Node19 -->
<g id="edge18_Node000001_Node000019" class="edge">
<title>Node1&#45;&gt;Node19</title>
<g id="a_edge18_Node000001_Node000019"><a xlink:title=" ">
<path fill="none" stroke="#63b8ff" d="M2962.36,-74.02C2829.36,-72.21 2557.95,-64.21 2331,-30 2322.19,-28.67 2312.76,-26.66 2304.11,-24.57"/>
<polygon fill="#63b8ff" stroke="#63b8ff" points="2962.43,-77.52 2972.47,-74.15 2962.52,-70.52 2962.43,-77.52"/>
</a>
</g>
</g>
<!-- Node20 -->
<g id="Node000020" class="node">
<title>Node20</title>
<g id="a_Node000020"><a xlink:href="301__primitives_8c.html" target="_top" xlink:title="Unit test for reverse trampolines (callbacks) with primitive C types.">
<polygon fill="white" stroke="#666666" points="2444,-24.5 2340,-24.5 2340,-5.5 2444,-5.5 2444,-24.5"/>
<text text-anchor="middle" x="2392" y="-12.5" font-family="Helvetica,sans-Serif" font-size="10.00">t/301_primitives.c</text>
</a>
</g>
</g>
<!-- Node1&#45;&gt;Node20 -->
<g id="edge19_Node000001_Node000020" class="edge">
<title>Node1&#45;&gt;Node20</title>
<g id="a_edge19_Node000001_Node000020"><a xlink:title=" ">
<path fill="none" stroke="#63b8ff" d="M2962.1,-72.22C2847.61,-68.16 2633.47,-57.35 2453,-30 2443.87,-28.62 2434.08,-26.61 2425.07,-24.54"/>
<polygon fill="#63b8ff" stroke="#63b8ff" points="2962.08,-75.73 2972.2,-72.57 2962.32,-68.73 2962.08,-75.73"/>
</a>
</g>
</g>
<!-- Node21 -->
<g id="Node000021" class="node">
<title>Node21</title>
<g id="a_Node000021"><a xlink:href="302__aggregates_8c.html" target="_top" xlink:title="Unit test for reverse trampolines (callbacks) with aggregate types.">
<polygon fill="white" stroke="#666666" points="2572,-24.5 2462,-24.5 2462,-5.5 2572,-5.5 2572,-24.5"/>
<text text-anchor="middle" x="2517" y="-12.5" font-family="Helvetica,sans-Serif" font-size="10.00">t/302_aggregates.c</text>
</a>
</g>
</g>
<!-- Node1&#45;&gt;Node21 -->
<g id="edge20_Node000001_Node000021" class="edge">
<title>Node1&#45;&gt;Node21</title>
<g id="a_edge20_Node000001_Node000021"><a xlink:title=" ">
<path fill="none" stroke="#63b8ff" d="M2962.11,-69.6C2869.29,-63.36 2713.64,-50.81 2581,-30 2571.67,-28.54 2561.67,-26.55 2552.4,-24.54"/>
<polygon fill="#63b8ff" stroke="#63b8ff" points="2962.07,-73.1 2972.28,-70.27 2962.54,-66.12 2962.07,-73.1"/>
</a>
</g>
</g>
<!-- Node22 -->
<g id="Node000022" class="node">
<title>Node22</title>
<g id="a_Node000022"><a xlink:href="303__advanced_8c.html" target="_top" xlink:title="Unit test for advanced reverse trampoline (callback) scenarios.">
<polygon fill="white" stroke="#666666" points="2692,-24.5 2590,-24.5 2590,-5.5 2692,-5.5 2692,-24.5"/>
<text text-anchor="middle" x="2641" y="-12.5" font-family="Helvetica,sans-Serif" font-size="10.00">t/303_advanced.c</text>
</a>
</g>
</g>
<!-- Node1&#45;&gt;Node22 -->
<g id="edge21_Node000001_Node000022" class="edge">
<title>Node1&#45;&gt;Node22</title>
<g id="a_edge21_Node000001_Node000022"><a xlink:title=" ">
<path fill="none" stroke="#63b8ff" d="M2962.36,-66.24C2892.64,-58.63 2789.84,-46.09 2701,-30 2692.47,-28.46 2683.34,-26.49 2674.83,-24.52"/>
<polygon fill="#63b8ff" stroke="#63b8ff" points="2962.08,-69.73 2972.4,-67.33 2962.84,-62.77 2962.08,-69.73"/>
</a>
</g>
</g>
<!-- Node23 -->
<g id="Node000023" class="node">
<title>Node23</title>
<g id="a_Node000023"><a xlink:href="304__reverse__call__types_8c.html" target="_top" xlink:title="Unit test to explicitly compare the &quot;Callback&quot; vs. &quot;Closure&quot; reverse trampoline APIs.">
<polygon fill="white" stroke="#666666" points="2816,-30 2710,-30 2710,0 2816,0 2816,-30"/>
<text text-anchor="start" x="2718" y="-18" font-family="Helvetica,sans-Serif" font-size="10.00">t/304_reverse_call</text>
<text text-anchor="middle" x="2763" y="-7" font-family="Helvetica,sans-Serif" font-size="10.00">_types.c</text>
</a>
</g>
</g>
<!-- Node1&#45;&gt;Node23 -->
<g id="edge22_Node000001_Node000023" class="edge">
<title>Node1&#45;&gt;Node23</title>
<g id="a_edge22_Node000001_Node000023"><a xlink:title=" ">
<path fill="none" stroke="#63b8ff" d="M2990.74,-64.01C2946.35,-55.19 2881.49,-42.11 2825,-30 2822.09,-29.38 2819.1,-28.73 2816.08,-28.07"/>
<polygon fill="#63b8ff" stroke="#63b8ff" points="2990.24,-67.48 3000.73,-65.99 2991.6,-60.61 2990.24,-67.48"/>
</a>
</g>
</g>
<!-- Node24 -->
<g id="Node000024" class="node">
<title>Node24</title>
<g id="a_Node000024"><a xlink:href="305__bitfields__reverse_8c.html" target="_top" xlink:title="Unit test for receiving bitfield structs in reverse trampolines (callbacks).">
<polygon fill="white" stroke="#666666" points="2970,-24.5 2834,-24.5 2834,-5.5 2970,-5.5 2970,-24.5"/>
<text text-anchor="middle" x="2902" y="-12.5" font-family="Helvetica,sans-Serif" font-size="10.00">t/305_bitfields_reverse.c</text>
</a>
</g>
</g>
<!-- Node1&#45;&gt;Node24 -->
<g id="edge23_Node000001_Node000024" class="edge">
<title>Node1&#45;&gt;Node24</title>
<g id="a_edge23_Node000001_Node000024"><a xlink:title=" ">
<path fill="none" stroke="#63b8ff" d="M3013.86,-62.08C2986.43,-50.78 2946.66,-34.4 2922.67,-24.52"/>
<polygon fill="#63b8ff" stroke="#63b8ff" points="3012.77,-65.42 3023.35,-65.99 3015.44,-58.95 3012.77,-65.42"/>
</a>
</g>
</g>
<!-- Node25 -->
<g id="Node000025" class="node">
<title>Node25</title>
<g id="a_Node000025"><a xlink:href="401__large__stack_8c.html" target="_top" xlink:title="Unit test for FFI calls with a large number of arguments passed on the stack.">
<polygon fill="white" stroke="#666666" points="3099.5,-24.5 2988.5,-24.5 2988.5,-5.5 3099.5,-5.5 3099.5,-24.5"/>
<text text-anchor="middle" x="3044" y="-12.5" font-family="Helvetica,sans-Serif" font-size="10.00">t/401_large_stack.c</text>
</a>
</g>
</g>
<!-- Node1&#45;&gt;Node25 -->
<g id="edge24_Node000001_Node000025" class="edge">
<title>Node1&#45;&gt;Node25</title>
<g id="a_edge24_Node000001_Node000025"><a xlink:title=" ">
<path fill="none" stroke="#63b8ff" d="M3044,-55.66C3044,-45.24 3044,-32.8 3044,-24.67"/>
<polygon fill="#63b8ff" stroke="#63b8ff" points="3040.5,-55.87 3044,-65.87 3047.5,-55.87 3040.5,-55.87"/>
</a>
</g>
</g>
<!-- Node26 -->
<g id="Node000026" class="node">
<title>Node26</title>
<g id="a_Node000026"><a xlink:href="402__variadic__functions_8c.html" target="_top" xlink:title="Unit test for FFI calls to and from variadic C functions.">
<polygon fill="white" stroke="#666666" points="3262,-24.5 3118,-24.5 3118,-5.5 3262,-5.5 3262,-24.5"/>
<text text-anchor="middle" x="3190" y="-12.5" font-family="Helvetica,sans-Serif" font-size="10.00">t/402_variadic_functions.c</text>
</a>
</g>
</g>
<!-- Node1&#45;&gt;Node26 -->
<g id="edge25_Node000001_Node000026" class="edge">
<title>Node1&#45;&gt;Node26</title>
<g id="a_edge25_Node000001_Node000026"><a xlink:title=" ">
<path fill="none" stroke="#63b8ff" d="M3074.62,-62.23C3102.84,-50.92 3143.97,-34.44 3168.74,-24.52"/>
<polygon fill="#63b8ff" stroke="#63b8ff" points="3073.21,-59.03 3065.23,-65.99 3075.81,-65.52 3073.21,-59.03"/>
</a>
</g>
</g>
<!-- Node27 -->
<g id="Node000027" class="node">
<title>Node27</title>
<g id="a_Node000027"><a xlink:href="403__special__types_8c.html" target="_top" xlink:title="Unit test for FFI calls with special, non&#45;standard, or platform&#45;dependent primitive types.">
<polygon fill="white" stroke="#666666" points="3402,-24.5 3280,-24.5 3280,-5.5 3402,-5.5 3402,-24.5"/>
<text text-anchor="middle" x="3341" y="-12.5" font-family="Helvetica,sans-Serif" font-size="10.00">t/403_special_types.c</text>
</a>
</g>
</g>
<!-- Node1&#45;&gt;Node27 -->
<g id="edge26_Node000001_Node000027" class="edge">
<title>Node1&#45;&gt;Node27</title>
<g id="a_edge26_Node000001_Node000027"><a xlink:title=" ">
<path fill="none" stroke="#63b8ff" d="M3098,-63.97C3144,-54.99 3211.85,-41.71 3271,-30 3279.87,-28.24 3289.38,-26.35 3298.44,-24.54"/>
<polygon fill="#63b8ff" stroke="#63b8ff" points="3097.1,-60.58 3087.95,-65.94 3098.44,-67.46 3097.1,-60.58"/>
</a>
</g>
</g>
<!-- Node28 -->
<g id="Node000028" class="node">
<title>Node28</title>
<g id="a_Node000028"><a xlink:href="404__simd__vectors_8c.html" target="_top" xlink:title="Unit test for SIMD vector argument passing and return values.">
<polygon fill="white" stroke="#666666" points="3540,-24.5 3420,-24.5 3420,-5.5 3540,-5.5 3540,-24.5"/>
<text text-anchor="middle" x="3480" y="-12.5" font-family="Helvetica,sans-Serif" font-size="10.00">t/404_simd_vectors.c</text>
</a>
</g>
</g>
<!-- Node1&#45;&gt;Node28 -->
<g id="edge27_Node000001_Node000028" class="edge">
<title>Node1&#45;&gt;Node28</title>
<g id="a_edge27_Node000001_Node000028"><a xlink:title=" ">
<path fill="none" stroke="#63b8ff" d="M3125.88,-66.46C3200.43,-58.69 3313.42,-45.79 3411,-30 3420.65,-28.44 3431.01,-26.49 3440.69,-24.54"/>
<polygon fill="#63b8ff" stroke="#63b8ff" points="3125.21,-63.01 3115.62,-67.52 3125.93,-69.97 3125.21,-63.01"/>
</a>
</g>
</g>
<!-- Node29 -->
<g id="Node000029" class="node">
<title>Node29</title>
<g id="a_Node000029"><a xlink:href="405__simd__vectors__avx_8c.html" target="_top" xlink:title="Unit test for 256&#45;bit (AVX) SIMD vector support.">
<polygon fill="white" stroke="#666666" points="3670,-30 3558,-30 3558,0 3670,0 3670,-30"/>
<text text-anchor="start" x="3566" y="-18" font-family="Helvetica,sans-Serif" font-size="10.00">t/405_simd_vectors</text>
<text text-anchor="middle" x="3614" y="-7" font-family="Helvetica,sans-Serif" font-size="10.00">_avx.c</text>
</a>
</g>
</g>
<!-- Node1&#45;&gt;Node29 -->
<g id="edge28_Node000001_Node000029" class="edge">
<title>Node1&#45;&gt;Node29</title>
<g id="a_edge28_Node000001_Node000029"><a xlink:title=" ">
<path fill="none" stroke="#63b8ff" d="M3125.89,-70.42C3226.09,-64.71 3400.71,-52.41 3549,-30 3551.85,-29.57 3554.77,-29.09 3557.71,-28.57"/>
<polygon fill="#63b8ff" stroke="#63b8ff" points="3125.62,-66.93 3115.84,-70.98 3126.02,-73.92 3125.62,-66.93"/>
</a>
</g>
</g>
<!-- Node30 -->
<g id="Node000030" class="node">
<title>Node30</title>
<g id="a_Node000030"><a xlink:href="406__simd__forward_8c.html" target="_top" xlink:title="Unit test for forward SIMD vector calls.">
<polygon fill="white" stroke="#666666" points="3810,-24.5 3688,-24.5 3688,-5.5 3810,-5.5 3810,-24.5"/>
<text text-anchor="middle" x="3749" y="-12.5" font-family="Helvetica,sans-Serif" font-size="10.00">t/406_simd_forward.c</text>
</a>
</g>
</g>
<!-- Node1&#45;&gt;Node30 -->
<g id="edge29_Node000001_Node000030" class="edge">
<title>Node1&#45;&gt;Node30</title>
<g id="a_edge29_Node000001_Node000030"><a xlink:title=" ">
<path fill="none" stroke="#63b8ff" d="M3126.04,-72.09C3247.37,-67.77 3481.58,-56.55 3679,-30 3689.44,-28.6 3700.66,-26.58 3711,-24.52"/>
<polygon fill="#63b8ff" stroke="#63b8ff" points="3125.6,-68.6 3115.72,-72.45 3125.84,-75.6 3125.6,-68.6"/>
</a>
</g>
</g>
<!-- Node31 -->
<g id="Node000031" class="node">
<title>Node31</title>
<g id="a_Node000031"><a xlink:href="407__float16_8c.html" target="_top" xlink:title="Unit test for half&#45;precision floating&#45;point (float16_t) support.">
<polygon fill="white" stroke="#666666" points="3917.5,-24.5 3828.5,-24.5 3828.5,-5.5 3917.5,-5.5 3917.5,-24.5"/>
<text text-anchor="middle" x="3873" y="-12.5" font-family="Helvetica,sans-Serif" font-size="10.00">t/407_float16.c</text>
</a>
</g>
</g>
<!-- Node1&#45;&gt;Node31 -->
<g id="edge30_Node000001_Node000031" class="edge">
<title>Node1&#45;&gt;Node31</title>
<g id="a_edge30_Node000001_Node000031"><a xlink:title=" ">
<path fill="none" stroke="#63b8ff" d="M3125.91,-75.06C3267.92,-74.85 3568.63,-69.25 3819,-30 3827.32,-28.69 3836.23,-26.66 3844.35,-24.54"/>
<polygon fill="#63b8ff" stroke="#63b8ff" points="3125.55,-71.56 3115.55,-75.06 3125.55,-78.56 3125.55,-71.56"/>
</a>
</g>
</g>
<!-- Node32 -->
<g id="Node000032" class="node">
<title>Node32</title>
<g id="a_Node000032"><a xlink:href="501__direct__marshalling_8c.html" target="_top" xlink:title="Test suite for the high&#45;performance direct marshalling API.">
<polygon fill="white" stroke="#666666" points="4082,-24.5 3936,-24.5 3936,-5.5 4082,-5.5 4082,-24.5"/>
<text text-anchor="middle" x="4009" y="-12.5" font-family="Helvetica,sans-Serif" font-size="10.00">t/501_direct_marshalling.c</text>
</a>
</g>
</g>
<!-- Node1&#45;&gt;Node32 -->
<g id="edge31_Node000001_Node000032" class="edge">
<title>Node1&#45;&gt;Node32</title>
<g id="a_edge31_Node000001_Node000032"><a xlink:title=" ">
<path fill="none" stroke="#63b8ff" d="M3125.77,-73.62C3281.94,-71.22 3633.27,-62.36 3927,-30 3939.35,-28.64 3952.65,-26.61 3964.88,-24.52"/>
<polygon fill="#63b8ff" stroke="#63b8ff" points="3125.71,-70.12 3115.76,-73.77 3125.82,-77.12 3125.71,-70.12"/>
</a>
</g>
</g>
<!-- Node33 -->
<g id="Node000033" class="node">
<title>Node33</title>
<g id="a_Node000033"><a xlink:href="810__memory__stress_8c.html" target="_top" xlink:title="A stress test to detect memory leaks under heavy allocation/deallocation cycles.">
<polygon fill="white" stroke="#666666" points="4231.5,-24.5 4100.5,-24.5 4100.5,-5.5 4231.5,-5.5 4231.5,-24.5"/>
<text text-anchor="middle" x="4166" y="-12.5" font-family="Helvetica,sans-Serif" font-size="10.00">t/810_memory_stress.c</text>
</a>
</g>
</g>
<!-- Node1&#45;&gt;Node33 -->
<g id="edge32_Node000001_Node000033" class="edge">
<title>Node1&#45;&gt;Node33</title>
<g id="a_edge32_Node000001_Node000033"><a xlink:title=" ">
<path fill="none" stroke="#63b8ff" d="M3125.68,-74.97C3302.37,-75.11 3733.03,-70.81 4091,-30 4102.45,-28.69 4114.78,-26.66 4126.07,-24.54"/>
<polygon fill="#63b8ff" stroke="#63b8ff" points="3125.68,-71.47 3115.68,-74.95 3125.67,-78.47 3125.68,-71.47"/>
</a>
</g>
</g>
<!-- Node34 -->
<g id="Node000034" class="node">
<title>Node34</title>
<g id="a_Node000034"><a xlink:href="811__fault__injection_8c.html" target="_top" xlink:title="Unit test to verify resource cleanup under memory allocation failures.">
<polygon fill="white" stroke="#666666" points="4374.5,-24.5 4249.5,-24.5 4249.5,-5.5 4374.5,-5.5 4374.5,-24.5"/>
<text text-anchor="middle" x="4312" y="-12.5" font-family="Helvetica,sans-Serif" font-size="10.00">t/811_fault_injection.c</text>
</a>
</g>
</g>
<!-- Node1&#45;&gt;Node34 -->
<g id="edge33_Node000001_Node000034" class="edge">
<title>Node1&#45;&gt;Node34</title>
<g id="a_edge33_Node000001_Node000034"><a xlink:title=" ">
<path fill="none" stroke="#63b8ff" d="M3125.86,-73.14C3359.12,-68.99 4024.36,-55.23 4241,-30 4251.98,-28.72 4263.8,-26.67 4274.59,-24.52"/>
<polygon fill="#63b8ff" stroke="#63b8ff" points="3125.68,-69.64 3115.74,-73.32 3125.8,-76.64 3125.68,-69.64"/>
</a>
</g>
</g>
<!-- Node35 -->
<g id="Node000035" class="node">
<title>Node35</title>
<g id="a_Node000035"><a xlink:href="812__shared__arena_8c.html" target="_top" xlink:title="Unit test for advanced arena&#45;based memory management features.">
<polygon fill="white" stroke="#666666" points="4513.5,-24.5 4392.5,-24.5 4392.5,-5.5 4513.5,-5.5 4513.5,-24.5"/>
<text text-anchor="middle" x="4453" y="-12.5" font-family="Helvetica,sans-Serif" font-size="10.00">t/812_shared_arena.c</text>
</a>
</g>
</g>
<!-- Node1&#45;&gt;Node35 -->
<g id="edge34_Node000001_Node000035" class="edge">
<title>Node1&#45;&gt;Node35</title>
<g id="a_edge34_Node000001_Node000035"><a xlink:title=" ">
<path fill="none" stroke="#63b8ff" d="M3125.89,-73.57C3377.72,-70.44 4138.45,-58.78 4384,-30 4394.68,-28.75 4406.18,-26.7 4416.66,-24.56"/>
<polygon fill="#63b8ff" stroke="#63b8ff" points="3125.67,-70.08 3115.72,-73.7 3125.76,-77.07 3125.67,-70.08"/>
</a>
</g>
</g>
<!-- Node36 -->
<g id="Node000036" class="node">
<title>Node36</title>
<g id="a_Node000036"><a xlink:href="820__threading__helgrind_8c.html" target="_top" xlink:title="A stress test to detect data races and other threading issues.">
<polygon fill="white" stroke="#666666" points="4678,-24.5 4532,-24.5 4532,-5.5 4678,-5.5 4678,-24.5"/>
<text text-anchor="middle" x="4605" y="-12.5" font-family="Helvetica,sans-Serif" font-size="10.00">t/820_threading_helgrind.c</text>
</a>
</g>
</g>
<!-- Node1&#45;&gt;Node36 -->
<g id="edge35_Node000001_Node000036" class="edge">
<title>Node1&#45;&gt;Node36</title>
<g id="a_edge35_Node000001_Node000036"><a xlink:title=" ">
<path fill="none" stroke="#63b8ff" d="M3125.95,-73.54C3394.85,-70.14 4248.71,-57.41 4523,-30 4535.65,-28.74 4549.29,-26.69 4561.75,-24.54"/>
<polygon fill="#63b8ff" stroke="#63b8ff" points="3125.83,-70.04 3115.87,-73.66 3125.92,-77.04 3125.83,-70.04"/>
</a>
</g>
</g>
<!-- Node37 -->
<g id="Node000037" class="node">
<title>Node37</title>
<g id="a_Node000037"><a xlink:href="830__security_8c.html" target="_top" xlink:title="Unit test for security&#45;hardening features of the infix library.">
<polygon fill="white" stroke="#666666" points="4788,-24.5 4696,-24.5 4696,-5.5 4788,-5.5 4788,-24.5"/>
<text text-anchor="middle" x="4742" y="-12.5" font-family="Helvetica,sans-Serif" font-size="10.00">t/830_security.c</text>
</a>
</g>
</g>
<!-- Node1&#45;&gt;Node37 -->
<g id="edge36_Node000001_Node000037" class="edge">
<title>Node1&#45;&gt;Node37</title>
<g id="a_edge36_Node000001_Node000037"><a xlink:title=" ">
<path fill="none" stroke="#63b8ff" d="M3126.14,-74.69C3414.64,-74.96 4380.6,-72.6 4687,-30 4695.69,-28.79 4704.98,-26.73 4713.41,-24.56"/>
<polygon fill="#63b8ff" stroke="#63b8ff" points="3125.76,-71.19 3115.76,-74.67 3125.75,-78.19 3125.76,-71.19"/>
</a>
</g>
</g>
<!-- Node38 -->
<g id="Node000038" class="node">
<title>Node38</title>
<g id="a_Node000038"><a xlink:href="840__arena__allocator_8c.html" target="_top" xlink:title="Unit test for the internal arena allocator.">
<polygon fill="white" stroke="#666666" points="4936,-24.5 4806,-24.5 4806,-5.5 4936,-5.5 4936,-24.5"/>
<text text-anchor="middle" x="4871" y="-12.5" font-family="Helvetica,sans-Serif" font-size="10.00">t/840_arena_allocator.c</text>
</a>
</g>
</g>
<!-- Node1&#45;&gt;Node38 -->
<g id="edge37_Node000001_Node000038" class="edge">
<title>Node1&#45;&gt;Node38</title>
<g id="a_edge37_Node000001_Node000038"><a xlink:title=" ">
<path fill="none" stroke="#63b8ff" d="M3125.92,-74.18C3426.28,-72.72 4466.78,-65.19 4797,-30 4808.57,-28.77 4821.04,-26.7 4832.39,-24.53"/>
<polygon fill="#63b8ff" stroke="#63b8ff" points="3125.54,-70.68 3115.55,-74.23 3125.57,-77.68 3125.54,-70.68"/>
</a>
</g>
</g>
<!-- Node39 -->
<g id="Node000039" class="node">
<title>Node39</title>
<g id="a_Node000039"><a xlink:href="850__regression__cases_8c.html" target="_top" xlink:title="A suite of regression tests for bugs discovered by fuzzing.">
<polygon fill="white" stroke="#666666" points="5093.5,-24.5 4954.5,-24.5 4954.5,-5.5 5093.5,-5.5 5093.5,-24.5"/>
<text text-anchor="middle" x="5024" y="-12.5" font-family="Helvetica,sans-Serif" font-size="10.00">t/850_regression_cases.c</text>
</a>
</g>
</g>
<!-- Node1&#45;&gt;Node39 -->
<g id="edge38_Node000001_Node000039" class="edge">
<title>Node1&#45;&gt;Node39</title>
<g id="a_edge38_Node000001_Node000039"><a xlink:title=" ">
<path fill="none" stroke="#63b8ff" d="M3126.09,-74.24C3442.63,-72.98 4584.16,-65.99 4945,-30 4957.34,-28.77 4970.64,-26.7 4982.75,-24.53"/>
<polygon fill="#63b8ff" stroke="#63b8ff" points="3125.62,-70.74 3115.63,-74.28 3125.64,-77.74 3125.62,-70.74"/>
</a>
</g>
</g>
<!-- Node40 -->
<g id="Node000040" class="node">
<title>Node40</title>
<g id="a_Node000040"><a xlink:href="851__lifecycle__regression_8c.html" target="_top" xlink:title="Regression tests for specific memory lifecycle and ownership bugs.">
<polygon fill="white" stroke="#666666" points="5264,-24.5 5112,-24.5 5112,-5.5 5264,-5.5 5264,-24.5"/>
<text text-anchor="middle" x="5188" y="-12.5" font-family="Helvetica,sans-Serif" font-size="10.00">t/851_lifecycle_regression.c</text>
</a>
</g>
</g>
<!-- Node1&#45;&gt;Node40 -->
<g id="edge39_Node000001_Node000040" class="edge">
<title>Node1&#45;&gt;Node40</title>
<g id="a_edge39_Node000001_Node000040"><a xlink:title=" ">
<path fill="none" stroke="#63b8ff" d="M3125.66,-74.28C3457.9,-73.15 4709.11,-66.51 5103,-30 5116.25,-28.77 5130.57,-26.71 5143.6,-24.53"/>
<polygon fill="#63b8ff" stroke="#63b8ff" points="3125.62,-70.78 3115.63,-74.31 3125.64,-77.78 3125.62,-70.78"/>
</a>
</g>
</g>
<!-- Node41 -->
<g id="Node000041" class="node">
<title>Node41</title>
<g id="a_Node000041"><a xlink:href="852__rax__preservation_8c.html" target="_top" xlink:title="Regression test to verify rax preservation across reverse trampolines.">
<polygon fill="white" stroke="#666666" points="5419.5,-24.5 5282.5,-24.5 5282.5,-5.5 5419.5,-5.5 5419.5,-24.5"/>
<text text-anchor="middle" x="5351" y="-12.5" font-family="Helvetica,sans-Serif" font-size="10.00">t/852_rax_preservation.c</text>
</a>
</g>
</g>
<!-- Node1&#45;&gt;Node41 -->
<g id="edge40_Node000001_Node000041" class="edge">
<title>Node1&#45;&gt;Node41</title>
<g id="a_edge40_Node000001_Node000041"><a xlink:title=" ">
<path fill="none" stroke="#63b8ff" d="M3125.66,-74.59C3474.85,-74.73 4844.15,-72.5 5273,-30 5285.18,-28.79 5298.33,-26.73 5310.28,-24.56"/>
<polygon fill="#63b8ff" stroke="#63b8ff" points="3125.63,-71.09 3115.63,-74.59 3125.63,-78.09 3125.63,-71.09"/>
</a>
</g>
</g>
<!-- Node42 -->
<g id="Node000042" class="node">
<title>Node42</title>
<g id="a_Node000042"><a xlink:href="860__error__handling_8c.html" target="_top" xlink:title="Unit test for the error reporting system.">
<polygon fill="white" stroke="#666666" points="5562.5,-24.5 5437.5,-24.5 5437.5,-5.5 5562.5,-5.5 5562.5,-24.5"/>
<text text-anchor="middle" x="5500" y="-12.5" font-family="Helvetica,sans-Serif" font-size="10.00">t/860_error_handling.c</text>
</a>
</g>
</g>
<!-- Node1&#45;&gt;Node42 -->
<g id="edge41_Node000001_Node000042" class="edge">
<title>Node1&#45;&gt;Node42</title>
<g id="a_edge41_Node000001_Node000042"><a xlink:title=" ">
<path fill="none" stroke="#63b8ff" d="M3125.66,-73.83C3517.6,-70.5 5196.48,-54.9 5429,-30 5440.24,-28.8 5452.36,-26.71 5463.34,-24.51"/>
<polygon fill="#63b8ff" stroke="#63b8ff" points="3125.51,-70.33 3115.54,-73.92 3125.57,-77.33 3125.51,-70.33"/>
</a>
</g>
</g>
<!-- Node43 -->
<g id="Node000043" class="node">
<title>Node43</title>
<g id="a_Node000043"><a xlink:href="861__error__reporting_8c.html" target="_top" xlink:title=" ">
<polygon fill="white" stroke="#666666" points="5709,-24.5 5581,-24.5 5581,-5.5 5709,-5.5 5709,-24.5"/>
<text text-anchor="middle" x="5645" y="-12.5" font-family="Helvetica,sans-Serif" font-size="10.00">t/861_error_reporting.c</text>
</a>
</g>
</g>
<!-- Node1&#45;&gt;Node43 -->
<g id="edge42_Node000001_Node000043" class="edge">
<title>Node1&#45;&gt;Node43</title>
<g id="a_edge42_Node000001_Node000043"><a xlink:title=" ">
<path fill="none" stroke="#63b8ff" d="M3125.86,-73.9C3532.39,-70.79 5324.52,-55.72 5572,-30 5583.55,-28.8 5596,-26.71 5607.3,-24.51"/>
<polygon fill="#63b8ff" stroke="#63b8ff" points="3125.64,-70.4 3115.66,-73.97 3125.69,-77.4 3125.64,-70.4"/>
</a>
</g>
</g>
<!-- Node44 -->
<g id="Node000044" class="node">
<title>Node44</title>
<g id="a_Node000044"><a xlink:href="880__exports_8c.html" target="_top" xlink:title="Unit test for the dynamic library loading and symbol access API.">
<polygon fill="white" stroke="#666666" points="5819,-24.5 5727,-24.5 5727,-5.5 5819,-5.5 5819,-24.5"/>
<text text-anchor="middle" x="5773" y="-12.5" font-family="Helvetica,sans-Serif" font-size="10.00">t/880_exports.c</text>
</a>
</g>
</g>
<!-- Node1&#45;&gt;Node44 -->
<g id="edge43_Node000001_Node000044" class="edge">
<title>Node1&#45;&gt;Node44</title>
<g id="a_edge43_Node000001_Node000044"><a xlink:title=" ">
<path fill="none" stroke="#63b8ff" d="M3125.79,-74.27C3546.37,-72.94 5456.15,-65.02 5718,-30 5726.79,-28.82 5736.2,-26.75 5744.7,-24.54"/>
<polygon fill="#63b8ff" stroke="#63b8ff" points="3125.53,-70.77 3115.54,-74.3 3125.55,-77.77 3125.53,-70.77"/>
</a>
</g>
</g>
<!-- Node45 -->
<g id="Node000045" class="node">
<title>Node45</title>
<g id="a_Node000045"><a xlink:href="901__call__overhead_8c.html" target="_top" xlink:title="A micro&#45;benchmark to measure the performance overhead of an FFI call.">
<polygon fill="white" stroke="#666666" points="5960.5,-24.5 5837.5,-24.5 5837.5,-5.5 5960.5,-5.5 5960.5,-24.5"/>
<text text-anchor="middle" x="5899" y="-12.5" font-family="Helvetica,sans-Serif" font-size="10.00">t/901_call_overhead.c</text>
</a>
</g>
</g>
<!-- Node1&#45;&gt;Node45 -->
<g id="edge44_Node000001_Node000045" class="edge">
<title>Node1&#45;&gt;Node45</title>
<g id="a_edge44_Node000001_Node000045"><a xlink:title=" ">
<path fill="none" stroke="#63b8ff" d="M3125.96,-74.06C3557.18,-71.65 5553.82,-58.99 5828,-30 5839.24,-28.81 5851.36,-26.73 5862.34,-24.53"/>
<polygon fill="#63b8ff" stroke="#63b8ff" points="3125.74,-70.56 3115.76,-74.12 3125.78,-77.56 3125.74,-70.56"/>
</a>
</g>
</g>
<!-- Node46 -->
<g id="Node000046" class="node">
<title>Node46</title>
<g id="a_Node000046"><a xlink:href="902__cache__deduplication_8c.html" target="_top" xlink:title="Unit test for the trampoline deduplication (caching) system.">
<polygon fill="white" stroke="#666666" points="6133.5,-24.5 5978.5,-24.5 5978.5,-5.5 6133.5,-5.5 6133.5,-24.5"/>
<text text-anchor="middle" x="6056" y="-12.5" font-family="Helvetica,sans-Serif" font-size="10.00">t/902_cache_deduplication.c</text>
</a>
</g>
</g>
<!-- Node1&#45;&gt;Node46 -->
<g id="edge45_Node000001_Node000046" class="edge">
<title>Node1&#45;&gt;Node46</title>
<g id="a_edge45_Node000001_Node000046"><a xlink:title=" ">
<path fill="none" stroke="#63b8ff" d="M3125.78,-73.97C3569.66,-71 5680.42,-55.63 5970,-30 5983.56,-28.8 5998.22,-26.71 6011.52,-24.51"/>
<polygon fill="#63b8ff" stroke="#63b8ff" points="3125.58,-70.47 3115.6,-74.04 3125.63,-77.47 3125.58,-70.47"/>
</a>
</g>
</g>
<!-- Node47 -->
<g id="Node000047" class="node">
<title>Node47</title>
<g id="a_Node000047"><a xlink:href="903__generation__benchmark_8c.html" target="_top" xlink:title="A micro&#45;benchmark to measure the performance of trampoline generation.">
<polygon fill="white" stroke="#666666" points="6318.5,-24.5 6151.5,-24.5 6151.5,-5.5 6318.5,-5.5 6318.5,-24.5"/>
<text text-anchor="middle" x="6235" y="-12.5" font-family="Helvetica,sans-Serif" font-size="10.00">t/903_generation_benchmark.c</text>
</a>
</g>
</g>
<!-- Node1&#45;&gt;Node47 -->
<g id="edge46_Node000001_Node000047" class="edge">
<title>Node1&#45;&gt;Node47</title>
<g id="a_edge46_Node000001_Node000047"><a xlink:title=" ">
<path fill="none" stroke="#63b8ff" d="M3125.74,-74C3585.05,-71.07 5835.08,-55.52 6143,-30 6157.49,-28.8 6173.16,-26.71 6187.4,-24.51"/>
<polygon fill="#63b8ff" stroke="#63b8ff" points="3125.52,-70.5 3115.54,-74.06 3125.57,-77.5 3125.52,-70.5"/>
</a>
</g>
</g>
<!-- Node48 -->
<g id="Node000048" class="node">
<title>Node48</title>
<g id="a_Node000048"><a xlink:href="904__registry__benchmark_8c.html" target="_top" xlink:title="Measures the performance of infix_register_types with many definitions.">
<polygon fill="white" stroke="#666666" points="6489,-24.5 6337,-24.5 6337,-5.5 6489,-5.5 6489,-24.5"/>
<text text-anchor="middle" x="6413" y="-12.5" font-family="Helvetica,sans-Serif" font-size="10.00">t/904_registry_benchmark.c</text>
</a>
</g>
</g>
<!-- Node1&#45;&gt;Node48 -->
<g id="edge47_Node000001_Node000048" class="edge">
<title>Node1&#45;&gt;Node48</title>
<g id="a_edge47_Node000001_Node000048"><a xlink:title=" ">
<path fill="none" stroke="#63b8ff" d="M3125.98,-74.12C3602.01,-71.85 6000.82,-59 6328,-30 6341.41,-28.81 6355.89,-26.73 6369.04,-24.53"/>
<polygon fill="#63b8ff" stroke="#63b8ff" points="3125.75,-70.63 3115.76,-74.17 3125.78,-77.63 3125.75,-70.63"/>
</a>
</g>
</g>
</g>
</svg>

<g id="navigator" transform="translate(0 0)" fill="#404254">
  <rect fill="#f2f5e9" fill-opacity="0.5" stroke="#606060" stroke-width=".5" x="0" y="0" width="60" height="60"/>
  <use id="zoomplus" xlink:href="#zoomPlus" x="17" y="9" onmousedown="handleZoom(evt,'in')"/>
  <use id="zoomminus" xlink:href="#zoomMin" x="42" y="9" onmousedown="handleZoom(evt,'out')"/>
  <use id="reset" xlink:href="#resetDef" x="30" y="36" onmousedown="handleReset()"/>
   <use id="arrowup" xlink:href="#arrowUp" x="0" y="0" onmousedown="handlePan(0,-1)"/>
  <use id="arrowright" xlink:href="#arrowRight" x="0" y="0" onmousedown="handlePan(1,0)"/>
  <use id="arrowdown" xlink:href="#arrowDown" x="0" y="0" onmousedown="handlePan(0,1)"/>
  <use id="arrowleft" xlink:href="#arrowLeft" x="0" y="0" onmousedown="handlePan(-1,0)"/>
</g>
<svg viewBox="0 0 15 15" width="100%" height="30px" preserveAspectRatio="xMaxYMin meet">
 <g id="arrow_out" transform="scale(0.3 0.3)">
  <a xlink:href="double__tap_8h__dep__incl_org.svg" target="_base">
   <rect id="button" ry="5" rx="5" y="6" x="6" height="38" width="38"
        fill="#f2f5e9" fill-opacity="0.5" stroke="#606060" stroke-width="1.0"/>
   <path id="arrow"
     d="M 11.500037,31.436501 C 11.940474,20.09759 22.043105,11.32322 32.158766,21.979434 L 37.068811,17.246167 C 37.068811,17.246167 37.088388,32 37.088388,32 L 22.160133,31.978069 C 22.160133,31.978069 26.997745,27.140456 26.997745,27.140456 C 18.528582,18.264221 13.291696,25.230495 11.500037,31.436501 z"
     style="fill:#404040;"/>
  </a>
 </g>
</svg>

<style type='text/css'>
<![CDATA[
[data-mouse-over-selected='false'] { opacity: 0.7; }
[data-mouse-over-selected='true']  { opacity: 1.0; }
]]>
</style>
<script type="application/ecmascript"><![CDATA[
document.addEventListener('DOMContentLoaded', (event) => {
  highlightEdges();
  highlightAdjacentNodes();
});
]]></script>
</svg>
