<?xml version="1.0" encoding="UTF-8" standalone="no"?>
<!DOCTYPE svg PUBLIC "-//W3C//DTD SVG 1.1//EN"
 "http://www.w3.org/Graphics/SVG/1.1/DTD/svg11.dtd">
<!-- Generated by graphviz version 2.43.0 (0)
 -->
<!-- Title: src/common/double_tap.h Pages: 1 -->
<!--zoomable 93 -->

<svg id="main" version="1.1" xmlns="http://www.w3.org/2000/svg" xmlns:xlink="http://www.w3.org/1999/xlink" xml:space="preserve" onload="init(evt)">
<style type="text/css"><![CDATA[
.node, .edge {opacity: 0.7;}
.node.selected, .edge.selected {opacity: 1;}
.edge:hover path { stroke: red; }
.edge:hover polygon { stroke: red; fill: red; }
]]></style>

<defs>
  <circle id="rim" cx="0" cy="0" r="7"/>
  <circle id="rim2" cx="0" cy="0" r="3.5"/>
  <g id="zoomPlus">
    <use xlink:href="#rim" fill="#404040"><set attributeName="fill" to="#808080" begin="zoomplus.mouseover" end="zoomplus.mouseout"/></use>
    <path d="M-4,0h8M0,-4v8" fill="none" stroke="white" stroke-width="1.5" pointer-events="none"/>
  </g>
  <g id="zoomMin">
    <use xlink:href="#rim" fill="#404040"><set attributeName="fill" to="#808080" begin="zoomminus.mouseover" end="zoomminus.mouseout"/></use>
    <path d="M-4,0h8" fill="none" stroke="white" stroke-width="1.5" pointer-events="none"/>
  </g>
  <g id="arrowUp" transform="translate(30 24)">
    <use xlink:href="#rim"/>
    <path pointer-events="none" fill="none" stroke="white" stroke-width="1.5" d="M0,-3.0v7 M-2.5,-0.5L0,-3.0L2.5,-0.5"/>
  </g>
  <g id="arrowRight" transform="rotate(90) translate(36 -43)">
    <use xlink:href="#rim"/>
    <path pointer-events="none" fill="none" stroke="white" stroke-width="1.5" d="M0,-3.0v7 M-2.5,-0.5L0,-3.0L2.5,-0.5"/>
  </g>
  <g id="arrowDown" transform="rotate(180) translate(-30 -48)">
    <use xlink:href="#rim"/>
    <path pointer-events="none" fill="none" stroke="white" stroke-width="1.5" d="M0,-3.0v7 M-2.5,-0.5L0,-3.0L2.5,-0.5"/>
  </g>
  <g id="arrowLeft" transform="rotate(270) translate(-36 17)">
    <use xlink:href="#rim"/>
    <path pointer-events="none" fill="none" stroke="white" stroke-width="1.5" d="M0,-3.0v7 M-2.5,-0.5L0,-3.0L2.5,-0.5"/>
  </g>
  <g id="resetDef">
    <use xlink:href="#rim2" fill="#404040"><set attributeName="fill" to="#808080" begin="reset.mouseover" end="reset.mouseout"/></use>
  </g>
</defs>
<script type="application/ecmascript">
var viewWidth = 5355;
var viewHeight = 93;
var sectionId = 'dynsection-0';
</script>
<script type="application/ecmascript" xlink:href="svg.min.js"/>
<svg id="graph" class="graph">
<g id="viewport">
<title>src/common/double_tap.h</title>
<!-- Node1 -->
<g id="Node000001" class="node">
<title>Node1</title>
<g id="a_Node000001"><a xlink:title="A lightweight, single&#45;header TAP (Test Anything Protocol) library.">
<polygon fill="#999999" stroke="#666666" points="2600.5,-85 2457.5,-85 2457.5,-66 2600.5,-66 2600.5,-85"/>
<text text-anchor="middle" x="2529" y="-73" font-family="Helvetica,sans-Serif" font-size="10.00">src/common/double_tap.h</text>
</a>
</g>
</g>
<!-- Node2 -->
<g id="Node000002" class="node">
<title>Node2</title>
<g id="a_Node000002"><a xlink:href="001__primitives_8c.html" target="_top" xlink:title="Unit test for creating trampolines for functions with primitive C types.">
<polygon fill="white" stroke="#666666" points="104,-24.5 0,-24.5 0,-5.5 104,-5.5 104,-24.5"/>
<text text-anchor="middle" x="52" y="-12.5" font-family="Helvetica,sans-Serif" font-size="10.00">t/001_primitives.c</text>
</a>
</g>
</g>
<!-- Node1&#45;&gt;Node2 -->
<g id="edge1_Node000001_Node000002" class="edge">
<title>Node1&#45;&gt;Node2</title>
<g id="a_edge1_Node000001_Node000002"><a xlink:title=" ">
<path fill="none" stroke="#63b8ff" d="M2447.24,-74C2051.94,-71.45 348.32,-58.86 113,-30 103.29,-28.81 92.87,-26.73 83.44,-24.52"/>
<polygon fill="#63b8ff" stroke="#63b8ff" points="2447.42,-77.5 2457.44,-74.07 2447.46,-70.5 2447.42,-77.5"/>
</a>
</g>
</g>
<!-- Node3 -->
<g id="Node000003" class="node">
<title>Node3</title>
<g id="a_Node000003"><a xlink:href="002__simple__calls_8c.html" target="_top" xlink:title="Unit test for basic forward trampoline calls with simple function signatures.">
<polygon fill="white" stroke="#666666" points="238,-24.5 122,-24.5 122,-5.5 238,-5.5 238,-24.5"/>
<text text-anchor="middle" x="180" y="-12.5" font-family="Helvetica,sans-Serif" font-size="10.00">t/002_simple_calls.c</text>
</a>
</g>
</g>
<!-- Node1&#45;&gt;Node3 -->
<g id="edge2_Node000001_Node000003" class="edge">
<title>Node1&#45;&gt;Node3</title>
<g id="a_edge2_Node000001_Node000003"><a xlink:title=" ">
<path fill="none" stroke="#63b8ff" d="M2447.15,-73.81C2065.35,-70.47 468.61,-55.09 247,-30 236.37,-28.8 224.94,-26.71 214.57,-24.51"/>
<polygon fill="#63b8ff" stroke="#63b8ff" points="2447.26,-77.31 2457.29,-73.9 2447.32,-70.31 2447.26,-77.31"/>
</a>
</g>
</g>
<!-- Node4 -->
<g id="Node000004" class="node">
<title>Node4</title>
<g id="a_Node000004"><a xlink:href="003__type__system__api_8c.html" target="_top" xlink:title="Unit test for the Manual API (infix_type_create_* functions).">
<polygon fill="white" stroke="#666666" points="394,-24.5 256,-24.5 256,-5.5 394,-5.5 394,-24.5"/>
<text text-anchor="middle" x="325" y="-12.5" font-family="Helvetica,sans-Serif" font-size="10.00">t/003_type_system_api.c</text>
</a>
</g>
</g>
<!-- Node1&#45;&gt;Node4 -->
<g id="edge3_Node000001_Node000004" class="edge">
<title>Node1&#45;&gt;Node4</title>
<g id="a_edge3_Node000001_Node000004"><a xlink:title=" ">
<path fill="none" stroke="#63b8ff" d="M2447.24,-74.5C2108.07,-74.25 810.45,-70.58 403,-30 390.82,-28.79 377.68,-26.72 365.72,-24.55"/>
<polygon fill="#63b8ff" stroke="#63b8ff" points="2447.47,-78 2457.48,-74.51 2447.48,-71 2447.47,-78"/>
</a>
</g>
</g>
<!-- Node5 -->
<g id="Node000005" class="node">
<title>Node5</title>
<g id="a_Node000005"><a xlink:href="004__signatures_8c.html" target="_top" xlink:title="Unit test for the signature string parser.">
<polygon fill="white" stroke="#666666" points="518,-24.5 412,-24.5 412,-5.5 518,-5.5 518,-24.5"/>
<text text-anchor="middle" x="465" y="-12.5" font-family="Helvetica,sans-Serif" font-size="10.00">t/004_signatures.c</text>
</a>
</g>
</g>
<!-- Node1&#45;&gt;Node5 -->
<g id="edge4_Node000001_Node000005" class="edge">
<title>Node1&#45;&gt;Node5</title>
<g id="a_edge4_Node000001_Node000005"><a xlink:title=" ">
<path fill="none" stroke="#63b8ff" d="M2447.15,-74.86C2120.27,-75.97 907.83,-76.75 527,-30 517.25,-28.8 506.79,-26.75 497.28,-24.57"/>
<polygon fill="#63b8ff" stroke="#63b8ff" points="2447.49,-78.36 2457.48,-74.83 2447.47,-71.36 2447.49,-78.36"/>
</a>
</g>
</g>
<!-- Node6 -->
<g id="Node000006" class="node">
<title>Node6</title>
<g id="a_Node000006"><a xlink:href="005__layouts_8c.html" target="_top" xlink:title="Unit test for the Manual API&#39;s struct and union layout calculations.">
<polygon fill="white" stroke="#666666" points="627.5,-24.5 536.5,-24.5 536.5,-5.5 627.5,-5.5 627.5,-24.5"/>
<text text-anchor="middle" x="582" y="-12.5" font-family="Helvetica,sans-Serif" font-size="10.00">t/005_layouts.c</text>
</a>
</g>
</g>
<!-- Node1&#45;&gt;Node6 -->
<g id="edge5_Node000001_Node000006" class="edge">
<title>Node1&#45;&gt;Node6</title>
<g id="a_edge5_Node000001_Node000006"><a xlink:title=" ">
<path fill="none" stroke="#63b8ff" d="M2447.28,-73.69C2107.62,-70.16 816.7,-55.21 636,-30 627.37,-28.8 618.13,-26.71 609.78,-24.51"/>
<polygon fill="#63b8ff" stroke="#63b8ff" points="2447.26,-77.19 2457.29,-73.79 2447.33,-70.19 2447.26,-77.19"/>
</a>
</g>
</g>
<!-- Node7 -->
<g id="Node000007" class="node">
<title>Node7</title>
<g id="a_Node000007"><a xlink:href="006__end__to__end__calls_8c.html" target="_top" xlink:title="End&#45;to&#45;end unit test for passing and returning aggregate types (structs).">
<polygon fill="white" stroke="#666666" points="784.5,-24.5 645.5,-24.5 645.5,-5.5 784.5,-5.5 784.5,-24.5"/>
<text text-anchor="middle" x="715" y="-12.5" font-family="Helvetica,sans-Serif" font-size="10.00">t/006_end_to_end_calls.c</text>
</a>
</g>
</g>
<!-- Node1&#45;&gt;Node7 -->
<g id="edge6_Node000001_Node000007" class="edge">
<title>Node1&#45;&gt;Node7</title>
<g id="a_edge6_Node000001_Node000007"><a xlink:title=" ">
<path fill="none" stroke="#63b8ff" d="M2446.92,-74.03C2148.37,-72.05 1120.65,-62.95 794,-30 781.67,-28.76 768.36,-26.68 756.25,-24.51"/>
<polygon fill="#63b8ff" stroke="#63b8ff" points="2447.21,-77.53 2457.23,-74.09 2447.25,-70.53 2447.21,-77.53"/>
</a>
</g>
</g>
<!-- Node8 -->
<g id="Node000008" class="node">
<title>Node8</title>
<g id="a_Node000008"><a xlink:href="007__type__registry_8c.html" target="_top" xlink:title="Unit test for the named type registry system.">
<polygon fill="white" stroke="#666666" points="921,-24.5 803,-24.5 803,-5.5 921,-5.5 921,-24.5"/>
<text text-anchor="middle" x="862" y="-12.5" font-family="Helvetica,sans-Serif" font-size="10.00">t/007_type_registry.c</text>
</a>
</g>
</g>
<!-- Node1&#45;&gt;Node8 -->
<g id="edge7_Node000001_Node000008" class="edge">
<title>Node1&#45;&gt;Node8</title>
<g id="a_edge7_Node000001_Node000008"><a xlink:title=" ">
<path fill="none" stroke="#63b8ff" d="M2447.19,-74.12C2164.28,-72.5 1228.38,-64.6 930,-30 919.34,-28.76 907.88,-26.7 897.45,-24.52"/>
<polygon fill="#63b8ff" stroke="#63b8ff" points="2447.36,-77.62 2457.38,-74.17 2447.4,-70.62 2447.36,-77.62"/>
</a>
</g>
</g>
<!-- Node9 -->
<g id="Node000009" class="node">
<title>Node9</title>
<g id="a_Node000009"><a xlink:href="008__registry__introspection_8c.html" target="_top" xlink:title="Unit test for the registry introspection and serialization APIs.">
<polygon fill="white" stroke="#666666" points="1100.5,-24.5 939.5,-24.5 939.5,-5.5 1100.5,-5.5 1100.5,-24.5"/>
<text text-anchor="middle" x="1020" y="-12.5" font-family="Helvetica,sans-Serif" font-size="10.00">t/008_registry_introspection.c</text>
</a>
</g>
</g>
<!-- Node1&#45;&gt;Node9 -->
<g id="edge8_Node000001_Node000009" class="edge">
<title>Node1&#45;&gt;Node9</title>
<g id="a_edge8_Node000001_Node000009"><a xlink:title=" ">
<path fill="none" stroke="#63b8ff" d="M2447.25,-73.28C2185.74,-69.17 1371.47,-54.66 1109,-30 1095.3,-28.71 1080.5,-26.66 1066.97,-24.51"/>
<polygon fill="#63b8ff" stroke="#63b8ff" points="2447.38,-76.78 2457.43,-73.44 2447.49,-69.78 2447.38,-76.78"/>
</a>
</g>
</g>
<!-- Node10 -->
<g id="Node000010" class="node">
<title>Node10</title>
<g id="a_Node000010"><a xlink:href="009__bitfields__fam_8c.html" target="_top" xlink:title="Unit test for Bitfields and Flexible Array Members (FAM).">
<polygon fill="white" stroke="#666666" points="1237.5,-24.5 1118.5,-24.5 1118.5,-5.5 1237.5,-5.5 1237.5,-24.5"/>
<text text-anchor="middle" x="1178" y="-12.5" font-family="Helvetica,sans-Serif" font-size="10.00">t/009_bitfields_fam.c</text>
</a>
</g>
</g>
<!-- Node1&#45;&gt;Node10 -->
<g id="edge9_Node000001_Node000010" class="edge">
<title>Node1&#45;&gt;Node10</title>
<g id="a_edge9_Node000001_Node000010"><a xlink:title=" ">
<path fill="none" stroke="#63b8ff" d="M2446.9,-73.43C2202.26,-69.95 1480.71,-57.57 1247,-30 1236.32,-28.74 1224.83,-26.69 1214.34,-24.55"/>
<polygon fill="#63b8ff" stroke="#63b8ff" points="2447.1,-76.93 2457.14,-73.57 2447.19,-69.93 2447.1,-76.93"/>
</a>
</g>
</g>
<!-- Node11 -->
<g id="Node000011" class="node">
<title>Node11</title>
<g id="a_Node000011"><a xlink:href="010__registry__scaling_8c.html" target="_top" xlink:title="Unit test for the registry&#39;s hash table auto&#45;scaling (rehashing).">
<polygon fill="white" stroke="#666666" points="1388,-24.5 1256,-24.5 1256,-5.5 1388,-5.5 1388,-24.5"/>
<text text-anchor="middle" x="1322" y="-12.5" font-family="Helvetica,sans-Serif" font-size="10.00">t/010_registry_scaling.c</text>
</a>
</g>
</g>
<!-- Node1&#45;&gt;Node11 -->
<g id="edge10_Node000001_Node000011" class="edge">
<title>Node1&#45;&gt;Node11</title>
<g id="a_edge10_Node000001_Node000011"><a xlink:title=" ">
<path fill="none" stroke="#63b8ff" d="M2447.34,-72.83C2223.04,-68 1600.68,-52.89 1397,-30 1385.55,-28.71 1373.22,-26.68 1361.93,-24.57"/>
<polygon fill="#63b8ff" stroke="#63b8ff" points="2447.32,-76.33 2457.39,-73.05 2447.47,-69.33 2447.32,-76.33"/>
</a>
</g>
</g>
<!-- Node12 -->
<g id="Node000012" class="node">
<title>Node12</title>
<g id="a_Node000012"><a xlink:href="101__by__value_8c.html" target="_top" xlink:title="Unit test for passing and returning aggregates and vectors by value.">
<polygon fill="white" stroke="#666666" points="1505.5,-24.5 1406.5,-24.5 1406.5,-5.5 1505.5,-5.5 1505.5,-24.5"/>
<text text-anchor="middle" x="1456" y="-12.5" font-family="Helvetica,sans-Serif" font-size="10.00">t/101_by_value.c</text>
</a>
</g>
</g>
<!-- Node1&#45;&gt;Node12 -->
<g id="edge11_Node000001_Node000012" class="edge">
<title>Node1&#45;&gt;Node12</title>
<g id="a_edge11_Node000001_Node000012"><a xlink:title=" ">
<path fill="none" stroke="#63b8ff" d="M2447.13,-72.95C2239.01,-68.68 1693.48,-55.35 1514,-30 1504.97,-28.72 1495.3,-26.67 1486.49,-24.53"/>
<polygon fill="#63b8ff" stroke="#63b8ff" points="2447.31,-76.45 2457.38,-73.16 2447.45,-69.46 2447.31,-76.45"/>
</a>
</g>
</g>
<!-- Node13 -->
<g id="Node000013" class="node">
<title>Node13</title>
<g id="a_Node000013"><a xlink:href="102__by__reference_8c.html" target="_top" xlink:title="Unit test for passing and returning large aggregates by reference.">
<polygon fill="white" stroke="#666666" points="1642.5,-24.5 1523.5,-24.5 1523.5,-5.5 1642.5,-5.5 1642.5,-24.5"/>
<text text-anchor="middle" x="1583" y="-12.5" font-family="Helvetica,sans-Serif" font-size="10.00">t/102_by_reference.c</text>
</a>
</g>
</g>
<!-- Node1&#45;&gt;Node13 -->
<g id="edge12_Node000001_Node000013" class="edge">
<title>Node1&#45;&gt;Node13</title>
<g id="a_edge12_Node000001_Node000013"><a xlink:title=" ">
<path fill="none" stroke="#63b8ff" d="M2446.82,-74.5C2290.98,-73.58 1942,-67.11 1651,-30 1640.6,-28.67 1629.41,-26.63 1619.18,-24.51"/>
<polygon fill="#63b8ff" stroke="#63b8ff" points="2447.24,-78 2457.26,-74.56 2447.28,-71 2447.24,-78"/>
</a>
</g>
</g>
<!-- Node14 -->
<g id="Node000014" class="node">
<title>Node14</title>
<g id="a_Node000014"><a xlink:href="103__unions_8c.html" target="_top" xlink:title="Unit test for passing and returning unions by value.">
<polygon fill="white" stroke="#666666" points="1747.5,-24.5 1660.5,-24.5 1660.5,-5.5 1747.5,-5.5 1747.5,-24.5"/>
<text text-anchor="middle" x="1704" y="-12.5" font-family="Helvetica,sans-Serif" font-size="10.00">t/103_unions.c</text>
</a>
</g>
</g>
<!-- Node1&#45;&gt;Node14 -->
<g id="edge13_Node000001_Node000014" class="edge">
<title>Node1&#45;&gt;Node14</title>
<g id="a_edge13_Node000001_Node000014"><a xlink:title=" ">
<path fill="none" stroke="#63b8ff" d="M2447.11,-75.15C2305.51,-75.08 2006.15,-69.67 1757,-30 1748.82,-28.7 1740.08,-26.66 1732.11,-24.55"/>
<polygon fill="#63b8ff" stroke="#63b8ff" points="2447.44,-78.65 2457.44,-75.15 2447.44,-71.65 2447.44,-78.65"/>
</a>
</g>
</g>
<!-- Node15 -->
<g id="Node000015" class="node">
<title>Node15</title>
<g id="a_Node000015"><a xlink:href="105__bitfields__fam__jit_8c.html" target="_top" xlink:title="End&#45;to&#45;end JIT execution tests for Bitfields and Flexible Array Members.">
<polygon fill="white" stroke="#666666" points="1876,-30 1766,-30 1766,0 1876,0 1876,-30"/>
<text text-anchor="start" x="1774" y="-18" font-family="Helvetica,sans-Serif" font-size="10.00">t/105_bitfields_fam</text>
<text text-anchor="middle" x="1821" y="-7" font-family="Helvetica,sans-Serif" font-size="10.00">_jit.c</text>
</a>
</g>
</g>
<!-- Node1&#45;&gt;Node15 -->
<g id="edge14_Node000001_Node000015" class="edge">
<title>Node1&#45;&gt;Node15</title>
<g id="a_edge14_Node000001_Node000015"><a xlink:title=" ">
<path fill="none" stroke="#63b8ff" d="M2447.09,-72.68C2324.36,-69.08 2085.71,-58.73 1885,-30 1882.07,-29.58 1879.08,-29.1 1876.06,-28.58"/>
<polygon fill="#63b8ff" stroke="#63b8ff" points="2447.07,-76.18 2457.17,-72.96 2447.27,-69.18 2447.07,-76.18"/>
</a>
</g>
</g>
<!-- Node16 -->
<g id="Node000016" class="node">
<title>Node16</title>
<g id="a_Node000016"><a xlink:href="201__basic_8c.html" target="_top" xlink:title="Unit test for FFI calls involving pointer types.">
<polygon fill="white" stroke="#666666" points="1974,-24.5 1894,-24.5 1894,-5.5 1974,-5.5 1974,-24.5"/>
<text text-anchor="middle" x="1934" y="-12.5" font-family="Helvetica,sans-Serif" font-size="10.00">t/201_basic.c</text>
</a>
</g>
</g>
<!-- Node1&#45;&gt;Node16 -->
<g id="edge15_Node000001_Node000016" class="edge">
<title>Node1&#45;&gt;Node16</title>
<g id="a_edge15_Node000001_Node000016"><a xlink:title=" ">
<path fill="none" stroke="#63b8ff" d="M2447.19,-72.84C2339.84,-69.53 2145.94,-59.62 1983,-30 1975.51,-28.64 1967.53,-26.61 1960.22,-24.52"/>
<polygon fill="#63b8ff" stroke="#63b8ff" points="2447.2,-76.35 2457.3,-73.15 2447.41,-69.35 2447.2,-76.35"/>
</a>
</g>
</g>
<!-- Node17 -->
<g id="Node000017" class="node">
<title>Node17</title>
<g id="a_Node000017"><a xlink:href="202__in__structs_8c.html" target="_top" xlink:title="Unit test for passing structs that contain pointer members.">
<polygon fill="white" stroke="#666666" points="2094,-24.5 1992,-24.5 1992,-5.5 2094,-5.5 2094,-24.5"/>
<text text-anchor="middle" x="2043" y="-12.5" font-family="Helvetica,sans-Serif" font-size="10.00">t/202_in_structs.c</text>
</a>
</g>
</g>
<!-- Node1&#45;&gt;Node17 -->
<g id="edge16_Node000001_Node000017" class="edge">
<title>Node1&#45;&gt;Node17</title>
<g id="a_edge16_Node000001_Node000017"><a xlink:title=" ">
<path fill="none" stroke="#63b8ff" d="M2447.17,-69.01C2361.1,-62.52 2221.91,-50 2103,-30 2094.24,-28.53 2084.86,-26.54 2076.17,-24.52"/>
<polygon fill="#63b8ff" stroke="#63b8ff" points="2447.17,-72.52 2457.4,-69.77 2447.69,-65.54 2447.17,-72.52"/>
</a>
</g>
</g>
<!-- Node18 -->
<g id="Node000018" class="node">
<title>Node18</title>
<g id="a_Node000018"><a xlink:href="203__complex_8c.html" target="_top" xlink:title="Unit test for FFI calls involving C99 _Complex types.">
<polygon fill="white" stroke="#666666" points="2209.5,-24.5 2112.5,-24.5 2112.5,-5.5 2209.5,-5.5 2209.5,-24.5"/>
<text text-anchor="middle" x="2161" y="-12.5" font-family="Helvetica,sans-Serif" font-size="10.00">t/203_complex.c</text>
</a>
</g>
</g>
<!-- Node1&#45;&gt;Node18 -->
<g id="edge17_Node000001_Node000018" class="edge">
<title>Node1&#45;&gt;Node18</title>
<g id="a_edge17_Node000001_Node000018"><a xlink:title=" ">
<path fill="none" stroke="#63b8ff" d="M2447.04,-64.88C2384.35,-57 2295.88,-44.76 2219,-30 2210.86,-28.44 2202.15,-26.48 2194.01,-24.54"/>
<polygon fill="#63b8ff" stroke="#63b8ff" points="2446.91,-68.39 2457.27,-66.15 2447.78,-61.44 2446.91,-68.39"/>
</a>
</g>
</g>
<!-- Node19 -->
<g id="Node000019" class="node">
<title>Node19</title>
<g id="a_Node000019"><a xlink:href="301__primitives_8c.html" target="_top" xlink:title="Unit test for reverse trampolines (callbacks) with primitive C types.">
<polygon fill="white" stroke="#666666" points="2332,-24.5 2228,-24.5 2228,-5.5 2332,-5.5 2332,-24.5"/>
<text text-anchor="middle" x="2280" y="-12.5" font-family="Helvetica,sans-Serif" font-size="10.00">t/301_primitives.c</text>
</a>
</g>
</g>
<!-- Node1&#45;&gt;Node19 -->
<g id="edge18_Node000001_Node000019" class="edge">
<title>Node1&#45;&gt;Node19</title>
<g id="a_edge18_Node000001_Node000019"><a xlink:title=" ">
<path fill="none" stroke="#63b8ff" d="M2482.95,-63.68C2434.83,-52.38 2360.34,-34.88 2316.25,-24.52"/>
<polygon fill="#63b8ff" stroke="#63b8ff" points="2482.26,-67.11 2492.79,-65.99 2483.86,-60.3 2482.26,-67.11"/>
</a>
</g>
</g>
<!-- Node20 -->
<g id="Node000020" class="node">
<title>Node20</title>
<g id="a_Node000020"><a xlink:href="302__aggregates_8c.html" target="_top" xlink:title="Unit test for reverse trampolines (callbacks) with aggregate types.">
<polygon fill="white" stroke="#666666" points="2460,-24.5 2350,-24.5 2350,-5.5 2460,-5.5 2460,-24.5"/>
<text text-anchor="middle" x="2405" y="-12.5" font-family="Helvetica,sans-Serif" font-size="10.00">t/302_aggregates.c</text>
</a>
</g>
</g>
<!-- Node1&#45;&gt;Node20 -->
<g id="edge19_Node000001_Node000020" class="edge">
<title>Node1&#45;&gt;Node20</title>
<g id="a_edge19_Node000001_Node000020"><a xlink:title=" ">
<path fill="none" stroke="#63b8ff" d="M2501.73,-61.63C2477.81,-50.35 2443.72,-34.27 2423.05,-24.52"/>
<polygon fill="#63b8ff" stroke="#63b8ff" points="2500.43,-64.89 2510.97,-65.99 2503.42,-58.56 2500.43,-64.89"/>
</a>
</g>
</g>
<!-- Node21 -->
<g id="Node000021" class="node">
<title>Node21</title>
<g id="a_Node000021"><a xlink:href="303__advanced_8c.html" target="_top" xlink:title="Unit test for advanced reverse trampoline (callback) scenarios.">
<polygon fill="white" stroke="#666666" points="2580,-24.5 2478,-24.5 2478,-5.5 2580,-5.5 2580,-24.5"/>
<text text-anchor="middle" x="2529" y="-12.5" font-family="Helvetica,sans-Serif" font-size="10.00">t/303_advanced.c</text>
</a>
</g>
</g>
<!-- Node1&#45;&gt;Node21 -->
<g id="edge20_Node000001_Node000021" class="edge">
<title>Node1&#45;&gt;Node21</title>
<g id="a_edge20_Node000001_Node000021"><a xlink:title=" ">
<path fill="none" stroke="#63b8ff" d="M2529,-55.66C2529,-45.24 2529,-32.8 2529,-24.67"/>
<polygon fill="#63b8ff" stroke="#63b8ff" points="2525.5,-55.87 2529,-65.87 2532.5,-55.87 2525.5,-55.87"/>
</a>
</g>
</g>
<!-- Node22 -->
<g id="Node000022" class="node">
<title>Node22</title>
<g id="a_Node000022"><a xlink:href="304__reverse__call__types_8c.html" target="_top" xlink:title="Unit test to explicitly compare the &quot;Callback&quot; vs. &quot;Closure&quot; reverse trampoline APIs.">
<polygon fill="white" stroke="#666666" points="2704,-30 2598,-30 2598,0 2704,0 2704,-30"/>
<text text-anchor="start" x="2606" y="-18" font-family="Helvetica,sans-Serif" font-size="10.00">t/304_reverse_call</text>
<text text-anchor="middle" x="2651" y="-7" font-family="Helvetica,sans-Serif" font-size="10.00">_types.c</text>
</a>
</g>
</g>
<!-- Node1&#45;&gt;Node22 -->
<g id="edge21_Node000001_Node000022" class="edge">
<title>Node1&#45;&gt;Node22</title>
<g id="a_edge21_Node000001_Node000022"><a xlink:title=" ">
<path fill="none" stroke="#63b8ff" d="M2555.93,-61.59C2575.31,-52.29 2601.47,-39.75 2621.43,-30.18"/>
<polygon fill="#63b8ff" stroke="#63b8ff" points="2554.24,-58.51 2546.74,-65.99 2557.27,-64.83 2554.24,-58.51"/>
</a>
</g>
</g>
<!-- Node23 -->
<g id="Node000023" class="node">
<title>Node23</title>
<g id="a_Node000023"><a xlink:href="401__large__stack_8c.html" target="_top" xlink:title="Unit test for FFI calls with a large number of arguments passed on the stack.">
<polygon fill="white" stroke="#666666" points="2833.5,-24.5 2722.5,-24.5 2722.5,-5.5 2833.5,-5.5 2833.5,-24.5"/>
<text text-anchor="middle" x="2778" y="-12.5" font-family="Helvetica,sans-Serif" font-size="10.00">t/401_large_stack.c</text>
</a>
</g>
</g>
<!-- Node1&#45;&gt;Node23 -->
<g id="edge22_Node000001_Node000023" class="edge">
<title>Node1&#45;&gt;Node23</title>
<g id="a_edge22_Node000001_Node000023"><a xlink:title=" ">
<path fill="none" stroke="#63b8ff" d="M2575.05,-63.68C2623.17,-52.38 2697.66,-34.88 2741.75,-24.52"/>
<polygon fill="#63b8ff" stroke="#63b8ff" points="2574.14,-60.3 2565.21,-65.99 2575.74,-67.11 2574.14,-60.3"/>
</a>
</g>
</g>
<!-- Node24 -->
<g id="Node000024" class="node">
<title>Node24</title>
<g id="a_Node000024"><a xlink:href="402__variadic__functions_8c.html" target="_top" xlink:title="Unit test for FFI calls to and from variadic C functions.">
<polygon fill="white" stroke="#666666" points="2996,-24.5 2852,-24.5 2852,-5.5 2996,-5.5 2996,-24.5"/>
<text text-anchor="middle" x="2924" y="-12.5" font-family="Helvetica,sans-Serif" font-size="10.00">t/402_variadic_functions.c</text>
</a>
</g>
</g>
<!-- Node1&#45;&gt;Node24 -->
<g id="edge23_Node000001_Node000024" class="edge">
<title>Node1&#45;&gt;Node24</title>
<g id="a_edge23_Node000001_Node000024"><a xlink:title=" ">
<path fill="none" stroke="#63b8ff" d="M2603.08,-64.65C2666.77,-56.02 2761.04,-42.89 2843,-30 2853.71,-28.32 2865.21,-26.4 2876.07,-24.53"/>
<polygon fill="#63b8ff" stroke="#63b8ff" points="2602.57,-61.18 2593.13,-65.99 2603.51,-68.12 2602.57,-61.18"/>
</a>
</g>
</g>
<!-- Node25 -->
<g id="Node000025" class="node">
<title>Node25</title>
<g id="a_Node000025"><a xlink:href="403__special__types_8c.html" target="_top" xlink:title="Unit test for FFI calls with special, non&#45;standard, or platform&#45;dependent primitive types.">
<polygon fill="white" stroke="#666666" points="3136,-24.5 3014,-24.5 3014,-5.5 3136,-5.5 3136,-24.5"/>
<text text-anchor="middle" x="3075" y="-12.5" font-family="Helvetica,sans-Serif" font-size="10.00">t/403_special_types.c</text>
</a>
</g>
</g>
<!-- Node1&#45;&gt;Node25 -->
<g id="edge24_Node000001_Node000025" class="edge">
<title>Node1&#45;&gt;Node25</title>
<g id="a_edge24_Node000001_Node000025"><a xlink:title=" ">
<path fill="none" stroke="#63b8ff" d="M2610.77,-69.46C2705.84,-62.99 2867.33,-50.15 3005,-30 3015.06,-28.53 3025.85,-26.56 3035.88,-24.57"/>
<polygon fill="#63b8ff" stroke="#63b8ff" points="2610.39,-65.97 2600.65,-70.14 2610.86,-72.96 2610.39,-65.97"/>
</a>
</g>
</g>
<!-- Node26 -->
<g id="Node000026" class="node">
<title>Node26</title>
<g id="a_Node000026"><a xlink:href="404__simd__vectors_8c.html" target="_top" xlink:title="Unit test for SIMD vector argument passing and return values.">
<polygon fill="white" stroke="#666666" points="3274,-24.5 3154,-24.5 3154,-5.5 3274,-5.5 3274,-24.5"/>
<text text-anchor="middle" x="3214" y="-12.5" font-family="Helvetica,sans-Serif" font-size="10.00">t/404_simd_vectors.c</text>
</a>
</g>
</g>
<!-- Node1&#45;&gt;Node26 -->
<g id="edge25_Node000001_Node000026" class="edge">
<title>Node1&#45;&gt;Node26</title>
<g id="a_edge25_Node000001_Node000026"><a xlink:title=" ">
<path fill="none" stroke="#63b8ff" d="M2610.99,-71.92C2729.36,-67.43 2954.81,-56.05 3145,-30 3155.29,-28.59 3166.36,-26.57 3176.55,-24.51"/>
<polygon fill="#63b8ff" stroke="#63b8ff" points="2610.78,-68.42 2600.92,-72.29 2611.04,-75.42 2610.78,-68.42"/>
</a>
</g>
</g>
<!-- Node27 -->
<g id="Node000027" class="node">
<title>Node27</title>
<g id="a_Node000027"><a xlink:href="501__direct__marshalling_8c.html" target="_top" xlink:title="Test suite for the high&#45;performance direct marshalling API.">
<polygon fill="white" stroke="#666666" points="3438,-24.5 3292,-24.5 3292,-5.5 3438,-5.5 3438,-24.5"/>
<text text-anchor="middle" x="3365" y="-12.5" font-family="Helvetica,sans-Serif" font-size="10.00">t/501_direct_marshalling.c</text>
</a>
</g>
</g>
<!-- Node1&#45;&gt;Node27 -->
<g id="edge26_Node000001_Node000027" class="edge">
<title>Node1&#45;&gt;Node27</title>
<g id="a_edge26_Node000001_Node000027"><a xlink:title=" ">
<path fill="none" stroke="#63b8ff" d="M2610.82,-72.62C2749.52,-68.78 3039.45,-57.89 3283,-30 3295.2,-28.6 3308.33,-26.59 3320.44,-24.53"/>
<polygon fill="#63b8ff" stroke="#63b8ff" points="2610.6,-69.13 2600.7,-72.9 2610.79,-76.12 2610.6,-69.13"/>
</a>
</g>
</g>
<!-- Node28 -->
<g id="Node000028" class="node">
<title>Node28</title>
<g id="a_Node000028"><a xlink:href="810__memory__stress_8c.html" target="_top" xlink:title="A stress test to detect memory leaks under heavy allocation/deallocation cycles.">
<polygon fill="white" stroke="#666666" points="3587.5,-24.5 3456.5,-24.5 3456.5,-5.5 3587.5,-5.5 3587.5,-24.5"/>
<text text-anchor="middle" x="3522" y="-12.5" font-family="Helvetica,sans-Serif" font-size="10.00">t/810_memory_stress.c</text>
</a>
</g>
</g>
<!-- Node1&#45;&gt;Node28 -->
<g id="edge27_Node000001_Node000028" class="edge">
<title>Node1&#45;&gt;Node28</title>
<g id="a_edge27_Node000001_Node000028"><a xlink:title=" ">
<path fill="none" stroke="#63b8ff" d="M2610.98,-74.26C2771.85,-72.96 3139.95,-65.93 3447,-30 3458.31,-28.68 3470.49,-26.66 3481.67,-24.57"/>
<polygon fill="#63b8ff" stroke="#63b8ff" points="2610.66,-70.76 2600.69,-74.34 2610.72,-77.76 2610.66,-70.76"/>
</a>
</g>
</g>
<!-- Node29 -->
<g id="Node000029" class="node">
<title>Node29</title>
<g id="a_Node000029"><a xlink:href="811__fault__injection_8c.html" target="_top" xlink:title="Unit test to verify resource cleanup under memory allocation failures.">
<polygon fill="white" stroke="#666666" points="3730.5,-24.5 3605.5,-24.5 3605.5,-5.5 3730.5,-5.5 3730.5,-24.5"/>
<text text-anchor="middle" x="3668" y="-12.5" font-family="Helvetica,sans-Serif" font-size="10.00">t/811_fault_injection.c</text>
</a>
</g>
</g>
<!-- Node1&#45;&gt;Node29 -->
<g id="edge28_Node000001_Node000029" class="edge">
<title>Node1&#45;&gt;Node29</title>
<g id="a_edge28_Node000001_Node000029"><a xlink:title=" ">
<path fill="none" stroke="#63b8ff" d="M2610.68,-75.34C2789.92,-76.27 3230.93,-73.46 3597,-30 3607.85,-28.71 3619.53,-26.68 3630.22,-24.56"/>
<polygon fill="#63b8ff" stroke="#63b8ff" points="2610.56,-71.84 2600.54,-75.29 2610.52,-78.84 2610.56,-71.84"/>
</a>
</g>
</g>
<!-- Node30 -->
<g id="Node000030" class="node">
<title>Node30</title>
<g id="a_Node000030"><a xlink:href="812__shared__arena_8c.html" target="_top" xlink:title="Unit test for advanced arena&#45;based memory management features.">
<polygon fill="white" stroke="#666666" points="3869.5,-24.5 3748.5,-24.5 3748.5,-5.5 3869.5,-5.5 3869.5,-24.5"/>
<text text-anchor="middle" x="3809" y="-12.5" font-family="Helvetica,sans-Serif" font-size="10.00">t/812_shared_arena.c</text>
</a>
</g>
</g>
<!-- Node1&#45;&gt;Node30 -->
<g id="edge29_Node000001_Node000030" class="edge">
<title>Node1&#45;&gt;Node30</title>
<g id="a_edge29_Node000001_Node000030"><a xlink:title=" ">
<path fill="none" stroke="#63b8ff" d="M2610.99,-73.23C2846.25,-69.33 3520.64,-56.11 3740,-30 3750.68,-28.73 3762.17,-26.68 3772.65,-24.53"/>
<polygon fill="#63b8ff" stroke="#63b8ff" points="2610.73,-69.74 2600.79,-73.4 2610.85,-76.74 2610.73,-69.74"/>
</a>
</g>
</g>
<!-- Node31 -->
<g id="Node000031" class="node">
<title>Node31</title>
<g id="a_Node000031"><a xlink:href="820__threading__helgrind_8c.html" target="_top" xlink:title="A stress test to detect data races and other threading issues.">
<polygon fill="white" stroke="#666666" points="4034,-24.5 3888,-24.5 3888,-5.5 4034,-5.5 4034,-24.5"/>
<text text-anchor="middle" x="3961" y="-12.5" font-family="Helvetica,sans-Serif" font-size="10.00">t/820_threading_helgrind.c</text>
</a>
</g>
</g>
<!-- Node1&#45;&gt;Node31 -->
<g id="edge30_Node000001_Node000031" class="edge">
<title>Node1&#45;&gt;Node31</title>
<g id="a_edge30_Node000001_Node000031"><a xlink:title=" ">
<path fill="none" stroke="#63b8ff" d="M2611.03,-73.26C2864.18,-69.21 3631.05,-55.14 3879,-30 3891.64,-28.72 3905.29,-26.66 3917.74,-24.52"/>
<polygon fill="#63b8ff" stroke="#63b8ff" points="2610.74,-69.77 2600.8,-73.42 2610.85,-76.76 2610.74,-69.77"/>
</a>
</g>
</g>
<!-- Node32 -->
<g id="Node000032" class="node">
<title>Node32</title>
<g id="a_Node000032"><a xlink:href="830__security_8c.html" target="_top" xlink:title="Unit test for security&#45;hardening features of the infix library.">
<polygon fill="white" stroke="#666666" points="4144,-24.5 4052,-24.5 4052,-5.5 4144,-5.5 4144,-24.5"/>
<text text-anchor="middle" x="4098" y="-12.5" font-family="Helvetica,sans-Serif" font-size="10.00">t/830_security.c</text>
</a>
</g>
</g>
<!-- Node1&#45;&gt;Node32 -->
<g id="edge31_Node000001_Node000032" class="edge">
<title>Node1&#45;&gt;Node32</title>
<g id="a_edge31_Node000001_Node000032"><a xlink:title=" ">
<path fill="none" stroke="#63b8ff" d="M2611.11,-74.46C2884.56,-73.97 3762.91,-69.28 4043,-30 4051.68,-28.78 4060.98,-26.72 4069.41,-24.55"/>
<polygon fill="#63b8ff" stroke="#63b8ff" points="2610.85,-70.96 2600.86,-74.48 2610.87,-77.96 2610.85,-70.96"/>
</a>
</g>
</g>
<!-- Node33 -->
<g id="Node000033" class="node">
<title>Node33</title>
<g id="a_Node000033"><a xlink:href="840__arena__allocator_8c.html" target="_top" xlink:title="Unit test for the internal arena allocator.">
<polygon fill="white" stroke="#666666" points="4292,-24.5 4162,-24.5 4162,-5.5 4292,-5.5 4292,-24.5"/>
<text text-anchor="middle" x="4227" y="-12.5" font-family="Helvetica,sans-Serif" font-size="10.00">t/840_arena_allocator.c</text>
</a>
</g>
</g>
<!-- Node1&#45;&gt;Node33 -->
<g id="edge32_Node000001_Node000033" class="edge">
<title>Node1&#45;&gt;Node33</title>
<g id="a_edge32_Node000001_Node000033"><a xlink:title=" ">
<path fill="none" stroke="#63b8ff" d="M2611.09,-73.98C2897.17,-71.91 3849.33,-62.67 4153,-30 4164.57,-28.76 4177.04,-26.68 4188.38,-24.51"/>
<polygon fill="#63b8ff" stroke="#63b8ff" points="2610.76,-70.49 2600.79,-74.06 2610.81,-77.49 2610.76,-70.49"/>
</a>
</g>
</g>
<!-- Node34 -->
<g id="Node000034" class="node">
<title>Node34</title>
<g id="a_Node000034"><a xlink:href="850__regression__cases_8c.html" target="_top" xlink:title="A suite of regression tests for bugs discovered by fuzzing.">
<polygon fill="white" stroke="#666666" points="4449.5,-24.5 4310.5,-24.5 4310.5,-5.5 4449.5,-5.5 4449.5,-24.5"/>
<text text-anchor="middle" x="4380" y="-12.5" font-family="Helvetica,sans-Serif" font-size="10.00">t/850_regression_cases.c</text>
</a>
</g>
</g>
<!-- Node1&#45;&gt;Node34 -->
<g id="edge33_Node000001_Node000034" class="edge">
<title>Node1&#45;&gt;Node34</title>
<g id="a_edge33_Node000001_Node000034"><a xlink:title=" ">
<path fill="none" stroke="#63b8ff" d="M2610.83,-74.08C2913.13,-72.27 3966.65,-63.63 4301,-30 4313.33,-28.76 4326.64,-26.69 4338.75,-24.52"/>
<polygon fill="#63b8ff" stroke="#63b8ff" points="2610.8,-70.58 2600.83,-74.14 2610.85,-77.58 2610.8,-70.58"/>
</a>
</g>
</g>
<!-- Node35 -->
<g id="Node000035" class="node">
<title>Node35</title>
<g id="a_Node000035"><a xlink:href="851__lifecycle__regression_8c.html" target="_top" xlink:title="Regression tests for specific memory lifecycle and ownership bugs.">
<polygon fill="white" stroke="#666666" points="4620,-24.5 4468,-24.5 4468,-5.5 4620,-5.5 4620,-24.5"/>
<text text-anchor="middle" x="4544" y="-12.5" font-family="Helvetica,sans-Serif" font-size="10.00">t/851_lifecycle_regression.c</text>
</a>
</g>
</g>
<!-- Node1&#45;&gt;Node35 -->
<g id="edge34_Node000001_Node000035" class="edge">
<title>Node1&#45;&gt;Node35</title>
<g id="a_edge34_Node000001_Node000035"><a xlink:title=" ">
<path fill="none" stroke="#63b8ff" d="M2610.78,-74.14C2929.9,-72.51 4091.84,-64.3 4459,-30 4472.25,-28.76 4486.56,-26.69 4499.6,-24.52"/>
<polygon fill="#63b8ff" stroke="#63b8ff" points="2610.67,-70.64 2600.68,-74.19 2610.7,-77.64 2610.67,-70.64"/>
</a>
</g>
</g>
<!-- Node36 -->
<g id="Node000036" class="node">
<title>Node36</title>
<g id="a_Node000036"><a xlink:href="860__error__handling_8c.html" target="_top" xlink:title="Unit test for the error reporting system.">
<polygon fill="white" stroke="#666666" points="4763.5,-24.5 4638.5,-24.5 4638.5,-5.5 4763.5,-5.5 4763.5,-24.5"/>
<text text-anchor="middle" x="4701" y="-12.5" font-family="Helvetica,sans-Serif" font-size="10.00">t/860_error_handling.c</text>
</a>
</g>
</g>
<!-- Node1&#45;&gt;Node36 -->
<g id="edge35_Node000001_Node000036" class="edge">
<title>Node1&#45;&gt;Node36</title>
<g id="a_edge35_Node000001_Node000036"><a xlink:title=" ">
<path fill="none" stroke="#63b8ff" d="M2610.9,-74.63C2947.72,-74.9 4227.28,-72.99 4629,-30 4640.27,-28.79 4652.4,-26.73 4663.44,-24.56"/>
<polygon fill="#63b8ff" stroke="#63b8ff" points="2610.74,-71.13 2600.73,-74.63 2610.73,-78.13 2610.74,-71.13"/>
</a>
</g>
</g>
<!-- Node37 -->
<g id="Node000037" class="node">
<title>Node37</title>
<g id="a_Node000037"><a xlink:href="861__error__reporting_8c.html" target="_top" xlink:title=" ">
<polygon fill="white" stroke="#666666" points="4910,-24.5 4782,-24.5 4782,-5.5 4910,-5.5 4910,-24.5"/>
<text text-anchor="middle" x="4846" y="-12.5" font-family="Helvetica,sans-Serif" font-size="10.00">t/861_error_reporting.c</text>
</a>
</g>
</g>
<!-- Node1&#45;&gt;Node37 -->
<g id="edge36_Node000001_Node000037" class="edge">
<title>Node1&#45;&gt;Node37</title>
<g id="a_edge36_Node000001_Node000037"><a xlink:title=" ">
<path fill="none" stroke="#63b8ff" d="M2610.64,-74.74C2961.29,-75.47 4341.29,-75.35 4773,-30 4784.42,-28.8 4796.73,-26.74 4807.92,-24.57"/>
<polygon fill="#63b8ff" stroke="#63b8ff" points="2610.58,-71.24 2600.57,-74.71 2610.56,-78.24 2610.58,-71.24"/>
</a>
</g>
</g>
<!-- Node38 -->
<g id="Node000038" class="node">
<title>Node38</title>
<g id="a_Node000038"><a xlink:href="880__exports_8c.html" target="_top" xlink:title="Unit test for the dynamic library loading and symbol access API.">
<polygon fill="white" stroke="#666666" points="5020,-24.5 4928,-24.5 4928,-5.5 5020,-5.5 5020,-24.5"/>
<text text-anchor="middle" x="4974" y="-12.5" font-family="Helvetica,sans-Serif" font-size="10.00">t/880_exports.c</text>
</a>
</g>
</g>
<!-- Node1&#45;&gt;Node38 -->
<g id="edge37_Node000001_Node000038" class="edge">
<title>Node1&#45;&gt;Node38</title>
<g id="a_edge37_Node000001_Node000038"><a xlink:title=" ">
<path fill="none" stroke="#63b8ff" d="M2610.86,-74.1C3003.78,-72.01 4686.75,-61.29 4919,-30 4927.79,-28.82 4937.2,-26.73 4945.7,-24.53"/>
<polygon fill="#63b8ff" stroke="#63b8ff" points="2610.7,-70.6 2600.72,-74.15 2610.74,-77.6 2610.7,-70.6"/>
</a>
</g>
</g>
<!-- Node39 -->
<g id="Node000039" class="node">
<title>Node39</title>
<g id="a_Node000039"><a xlink:href="901__call__overhead_8c.html" target="_top" xlink:title="A micro&#45;benchmark to measure the performance overhead of an FFI call.">
<polygon fill="white" stroke="#666666" points="5161.5,-24.5 5038.5,-24.5 5038.5,-5.5 5161.5,-5.5 5161.5,-24.5"/>
<text text-anchor="middle" x="5100" y="-12.5" font-family="Helvetica,sans-Serif" font-size="10.00">t/901_call_overhead.c</text>
</a>
</g>
</g>
<!-- Node1&#45;&gt;Node39 -->
<g id="edge38_Node000001_Node000039" class="edge">
<title>Node1&#45;&gt;Node39</title>
<g id="a_edge38_Node000001_Node000039"><a xlink:title=" ">
<path fill="none" stroke="#63b8ff" d="M2610.95,-73.9C3014.9,-70.85 4784.53,-56.07 5029,-30 5040.24,-28.8 5052.36,-26.71 5063.34,-24.51"/>
<polygon fill="#63b8ff" stroke="#63b8ff" points="2610.79,-70.4 2600.81,-73.98 2610.84,-77.4 2610.79,-70.4"/>
</a>
</g>
</g>
<!-- Node40 -->
<g id="Node000040" class="node">
<title>Node40</title>
<g id="a_Node000040"><a xlink:href="903__generation__benchmark_8c.html" target="_top" xlink:title="A micro&#45;benchmark to measure the performance of trampoline generation.">
<polygon fill="white" stroke="#666666" points="5346.5,-24.5 5179.5,-24.5 5179.5,-5.5 5346.5,-5.5 5346.5,-24.5"/>
<text text-anchor="middle" x="5263" y="-12.5" font-family="Helvetica,sans-Serif" font-size="10.00">t/903_generation_benchmark.c</text>
</a>
</g>
</g>
<!-- Node1&#45;&gt;Node40 -->
<g id="edge39_Node000001_Node000040" class="edge">
<title>Node1&#45;&gt;Node40</title>
<g id="a_edge39_Node000001_Node000040"><a xlink:title=" ">
<path fill="none" stroke="#63b8ff" d="M2610.62,-74.6C2998.22,-74.86 4655.58,-73.36 5171,-30 5185.33,-28.79 5200.81,-26.74 5214.92,-24.56"/>
<polygon fill="#63b8ff" stroke="#63b8ff" points="2610.61,-71.1 2600.61,-74.59 2610.61,-78.1 2610.61,-71.1"/>
</a>
</g>
</g>
</g>
</svg>

<g id="navigator" transform="translate(0 0)" fill="#404254">
  <rect fill="#f2f5e9" fill-opacity="0.5" stroke="#606060" stroke-width=".5" x="0" y="0" width="60" height="60"/>
  <use id="zoomplus" xlink:href="#zoomPlus" x="17" y="9" onmousedown="handleZoom(evt,'in')"/>
  <use id="zoomminus" xlink:href="#zoomMin" x="42" y="9" onmousedown="handleZoom(evt,'out')"/>
  <use id="reset" xlink:href="#resetDef" x="30" y="36" onmousedown="handleReset()"/>
   <use id="arrowup" xlink:href="#arrowUp" x="0" y="0" onmousedown="handlePan(0,-1)"/>
  <use id="arrowright" xlink:href="#arrowRight" x="0" y="0" onmousedown="handlePan(1,0)"/>
  <use id="arrowdown" xlink:href="#arrowDown" x="0" y="0" onmousedown="handlePan(0,1)"/>
  <use id="arrowleft" xlink:href="#arrowLeft" x="0" y="0" onmousedown="handlePan(-1,0)"/>
</g>
<svg viewBox="0 0 15 15" width="100%" height="30px" preserveAspectRatio="xMaxYMin meet">
 <g id="arrow_out" transform="scale(0.3 0.3)">
  <a xlink:href="double__tap_8h__dep__incl_org.svg" target="_base">
   <rect id="button" ry="5" rx="5" y="6" x="6" height="38" width="38"
        fill="#f2f5e9" fill-opacity="0.5" stroke="#606060" stroke-width="1.0"/>
   <path id="arrow"
     d="M 11.500037,31.436501 C 11.940474,20.09759 22.043105,11.32322 32.158766,21.979434 L 37.068811,17.246167 C 37.068811,17.246167 37.088388,32 37.088388,32 L 22.160133,31.978069 C 22.160133,31.978069 26.997745,27.140456 26.997745,27.140456 C 18.528582,18.264221 13.291696,25.230495 11.500037,31.436501 z"
     style="fill:#404040;"/>
  </a>
 </g>
</svg>

<style type='text/css'>
<![CDATA[
[data-mouse-over-selected='false'] { opacity: 0.7; }
[data-mouse-over-selected='true']  { opacity: 1.0; }
]]>
</style>
<script type="application/ecmascript"><![CDATA[
document.addEventListener('DOMContentLoaded', (event) => {
  highlightEdges();
  highlightAdjacentNodes();
});
]]></script>
</svg>
