<?xml version="1.0" encoding="UTF-8" standalone="no"?>
<!DOCTYPE svg PUBLIC "-//W3C//DTD SVG 1.1//EN"
 "http://www.w3.org/Graphics/SVG/1.1/DTD/svg11.dtd">
<!-- Generated by graphviz version 2.43.0 (0)
 -->
<!-- Title: src/common/double_tap.h Pages: 1 -->
<!--zoomable 82 -->

<svg id="main" version="1.1" xmlns="http://www.w3.org/2000/svg" xmlns:xlink="http://www.w3.org/1999/xlink" xml:space="preserve" onload="init(evt)">
<style type="text/css"><![CDATA[
.node, .edge {opacity: 0.7;}
.node.selected, .edge.selected {opacity: 1;}
.edge:hover path { stroke: red; }
.edge:hover polygon { stroke: red; fill: red; }
]]></style>

<defs>
  <circle id="rim" cx="0" cy="0" r="7"/>
  <circle id="rim2" cx="0" cy="0" r="3.5"/>
  <g id="zoomPlus">
    <use xlink:href="#rim" fill="#404040"><set attributeName="fill" to="#808080" begin="zoomplus.mouseover" end="zoomplus.mouseout"/></use>
    <path d="M-4,0h8M0,-4v8" fill="none" stroke="white" stroke-width="1.5" pointer-events="none"/>
  </g>
  <g id="zoomMin">
    <use xlink:href="#rim" fill="#404040"><set attributeName="fill" to="#808080" begin="zoomminus.mouseover" end="zoomminus.mouseout"/></use>
    <path d="M-4,0h8" fill="none" stroke="white" stroke-width="1.5" pointer-events="none"/>
  </g>
  <g id="arrowUp" transform="translate(30 24)">
    <use xlink:href="#rim"/>
    <path pointer-events="none" fill="none" stroke="white" stroke-width="1.5" d="M0,-3.0v7 M-2.5,-0.5L0,-3.0L2.5,-0.5"/>
  </g>
  <g id="arrowRight" transform="rotate(90) translate(36 -43)">
    <use xlink:href="#rim"/>
    <path pointer-events="none" fill="none" stroke="white" stroke-width="1.5" d="M0,-3.0v7 M-2.5,-0.5L0,-3.0L2.5,-0.5"/>
  </g>
  <g id="arrowDown" transform="rotate(180) translate(-30 -48)">
    <use xlink:href="#rim"/>
    <path pointer-events="none" fill="none" stroke="white" stroke-width="1.5" d="M0,-3.0v7 M-2.5,-0.5L0,-3.0L2.5,-0.5"/>
  </g>
  <g id="arrowLeft" transform="rotate(270) translate(-36 17)">
    <use xlink:href="#rim"/>
    <path pointer-events="none" fill="none" stroke="white" stroke-width="1.5" d="M0,-3.0v7 M-2.5,-0.5L0,-3.0L2.5,-0.5"/>
  </g>
  <g id="resetDef">
    <use xlink:href="#rim2" fill="#404040"><set attributeName="fill" to="#808080" begin="reset.mouseover" end="reset.mouseout"/></use>
  </g>
</defs>
<script type="application/ecmascript">
var viewWidth = 3767;
var viewHeight = 82;
var sectionId = 'dynsection-0';
</script>
<script type="application/ecmascript" xlink:href="svg.min.js"/>
<svg id="graph" class="graph">
<g id="viewport">
<title>src/common/double_tap.h</title>
<!-- Node1 -->
<g id="Node000001" class="node">
<title>Node1</title>
<g id="a_Node000001"><a xlink:title="A simple, header&#45;only TAP14&#45;compatible testing framework for C.">
<polygon fill="#999999" stroke="#666666" points="1818.5,-74 1675.5,-74 1675.5,-55 1818.5,-55 1818.5,-74"/>
<text text-anchor="middle" x="1747" y="-62" font-family="Helvetica,sans-Serif" font-size="10.00">src/common/double_tap.h</text>
</a>
</g>
</g>
<!-- Node2 -->
<g id="Node000002" class="node">
<title>Node2</title>
<g id="a_Node000002"><a xlink:href="001__primitives_8c.html" target="_top" xlink:title="Tests FFI functionality with all supported primitive C types.">
<polygon fill="white" stroke="#666666" points="104,-19 0,-19 0,0 104,0 104,-19"/>
<text text-anchor="middle" x="52" y="-7" font-family="Helvetica,sans-Serif" font-size="10.00">t/001_primitives.c</text>
</a>
</g>
</g>
<!-- Node1&#45;&gt;Node2 -->
<g id="edge1_Node000001_Node000002" class="edge">
<title>Node1&#45;&gt;Node2</title>
<g id="a_edge1_Node000001_Node000002"><a xlink:title=" ">
<path fill="none" stroke="#63b8ff" d="M1664.95,-62.47C1377.88,-58.7 419.42,-44.44 113,-19 110.12,-18.76 107.17,-18.48 104.2,-18.16"/>
<polygon fill="#63b8ff" stroke="#63b8ff" points="1665.24,-65.98 1675.28,-62.61 1665.33,-58.98 1665.24,-65.98"/>
</a>
</g>
</g>
<!-- Node3 -->
<g id="Node000003" class="node">
<title>Node3</title>
<g id="a_Node000003"><a xlink:href="002__simple__calls_8c.html" target="_top" xlink:title="Tests basic FFI calls with simple function signatures.">
<polygon fill="white" stroke="#666666" points="238,-19 122,-19 122,0 238,0 238,-19"/>
<text text-anchor="middle" x="180" y="-7" font-family="Helvetica,sans-Serif" font-size="10.00">t/002_simple_calls.c</text>
</a>
</g>
</g>
<!-- Node1&#45;&gt;Node3 -->
<g id="edge2_Node000001_Node000003" class="edge">
<title>Node1&#45;&gt;Node3</title>
<g id="a_edge2_Node000001_Node000003"><a xlink:title=" ">
<path fill="none" stroke="#63b8ff" d="M1665.32,-63.84C1439.39,-64.19 787.08,-61.17 247,-19 244.08,-18.77 241.09,-18.51 238.07,-18.22"/>
<polygon fill="#63b8ff" stroke="#63b8ff" points="1665.44,-67.34 1675.44,-63.82 1665.43,-60.34 1665.44,-67.34"/>
</a>
</g>
</g>
<!-- Node4 -->
<g id="Node000004" class="node">
<title>Node4</title>
<g id="a_Node000004"><a xlink:href="003__type__system__api_8c.html" target="_top" xlink:title="Tests the infix_type_* API functions for correctness and error handling.">
<polygon fill="white" stroke="#666666" points="394,-19 256,-19 256,0 394,0 394,-19"/>
<text text-anchor="middle" x="325" y="-7" font-family="Helvetica,sans-Serif" font-size="10.00">t/003_type_system_api.c</text>
</a>
</g>
</g>
<!-- Node1&#45;&gt;Node4 -->
<g id="edge3_Node000001_Node000004" class="edge">
<title>Node1&#45;&gt;Node4</title>
<g id="a_edge3_Node000001_Node000004"><a xlink:title=" ">
<path fill="none" stroke="#63b8ff" d="M1665.12,-62.94C1455.15,-61.03 880.44,-52.87 403,-19 400.15,-18.8 397.24,-18.57 394.3,-18.33"/>
<polygon fill="#63b8ff" stroke="#63b8ff" points="1665.11,-66.44 1675.15,-63.03 1665.18,-59.44 1665.11,-66.44"/>
</a>
</g>
</g>
<!-- Node5 -->
<g id="Node000005" class="node">
<title>Node5</title>
<g id="a_Node000005"><a xlink:href="004__signatures_8c.html" target="_top" xlink:title="Hardened test suite for the high&#45;level signature API.">
<polygon fill="white" stroke="#666666" points="518,-19 412,-19 412,0 518,0 518,-19"/>
<text text-anchor="middle" x="465" y="-7" font-family="Helvetica,sans-Serif" font-size="10.00">t/004_signatures.c</text>
</a>
</g>
</g>
<!-- Node1&#45;&gt;Node5 -->
<g id="edge4_Node000001_Node000005" class="edge">
<title>Node1&#45;&gt;Node5</title>
<g id="a_edge4_Node000001_Node000005"><a xlink:title=" ">
<path fill="none" stroke="#63b8ff" d="M1665.09,-63.33C1468.47,-62.31 954.34,-55.99 527,-19 524.08,-18.75 521.08,-18.45 518.06,-18.13"/>
<polygon fill="#63b8ff" stroke="#63b8ff" points="1665.32,-66.83 1675.34,-63.38 1665.36,-59.83 1665.32,-66.83"/>
</a>
</g>
</g>
<!-- Node6 -->
<g id="Node000006" class="node">
<title>Node6</title>
<g id="a_Node000006"><a xlink:href="005__layouts_8c.html" target="_top" xlink:title="Tests the correctness of the ABI&#45;aware layout calculation for aggregates.">
<polygon fill="white" stroke="#666666" points="627.5,-19 536.5,-19 536.5,0 627.5,0 627.5,-19"/>
<text text-anchor="middle" x="582" y="-7" font-family="Helvetica,sans-Serif" font-size="10.00">t/005_layouts.c</text>
</a>
</g>
</g>
<!-- Node1&#45;&gt;Node6 -->
<g id="edge5_Node000001_Node000006" class="edge">
<title>Node1&#45;&gt;Node6</title>
<g id="a_edge5_Node000001_Node000006"><a xlink:title=" ">
<path fill="none" stroke="#63b8ff" d="M1665.16,-63.47C1480.92,-62.68 1019.69,-56.75 636,-19 633.26,-18.73 630.45,-18.41 627.62,-18.06"/>
<polygon fill="#63b8ff" stroke="#63b8ff" points="1665.3,-66.97 1675.31,-63.51 1665.33,-59.97 1665.3,-66.97"/>
</a>
</g>
</g>
<!-- Node7 -->
<g id="Node000007" class="node">
<title>Node7</title>
<g id="a_Node000007"><a xlink:href="006__end__to__end__calls_8c.html" target="_top" xlink:title="End&#45;to&#45;end integration tests for the entire FFI call process.">
<polygon fill="white" stroke="#666666" points="784.5,-19 645.5,-19 645.5,0 784.5,0 784.5,-19"/>
<text text-anchor="middle" x="715" y="-7" font-family="Helvetica,sans-Serif" font-size="10.00">t/006_end_to_end_calls.c</text>
</a>
</g>
</g>
<!-- Node1&#45;&gt;Node7 -->
<g id="edge6_Node000001_Node000007" class="edge">
<title>Node1&#45;&gt;Node7</title>
<g id="a_edge6_Node000001_Node000007"><a xlink:title=" ">
<path fill="none" stroke="#63b8ff" d="M1665.42,-61.35C1500.57,-56.65 1116.1,-43.83 794,-19 790.97,-18.77 787.89,-18.51 784.77,-18.24"/>
<polygon fill="#63b8ff" stroke="#63b8ff" points="1665.38,-64.86 1675.48,-61.64 1665.58,-57.86 1665.38,-64.86"/>
</a>
</g>
</g>
<!-- Node8 -->
<g id="Node000008" class="node">
<title>Node8</title>
<g id="a_Node000008"><a xlink:href="007__type__registry_8c.html" target="_top" xlink:title=" ">
<polygon fill="white" stroke="#666666" points="921,-19 803,-19 803,0 921,0 921,-19"/>
<text text-anchor="middle" x="862" y="-7" font-family="Helvetica,sans-Serif" font-size="10.00">t/007_type_registry.c</text>
</a>
</g>
</g>
<!-- Node1&#45;&gt;Node8 -->
<g id="edge7_Node000001_Node000008" class="edge">
<title>Node1&#45;&gt;Node8</title>
<g id="a_edge7_Node000001_Node000008"><a xlink:title=" ">
<path fill="none" stroke="#63b8ff" d="M1664.99,-60.93C1517.63,-55.89 1198.39,-43.05 930,-19 927.16,-18.75 924.25,-18.46 921.31,-18.16"/>
<polygon fill="#63b8ff" stroke="#63b8ff" points="1665.18,-64.44 1675.3,-61.28 1665.42,-57.44 1665.18,-64.44"/>
</a>
</g>
</g>
<!-- Node9 -->
<g id="Node000009" class="node">
<title>Node9</title>
<g id="a_Node000009"><a xlink:href="101__by__value_8c.html" target="_top" xlink:title="Tests passing and returning small aggregate types (structs) by value.">
<polygon fill="white" stroke="#666666" points="1038.5,-19 939.5,-19 939.5,0 1038.5,0 1038.5,-19"/>
<text text-anchor="middle" x="989" y="-7" font-family="Helvetica,sans-Serif" font-size="10.00">t/101_by_value.c</text>
</a>
</g>
</g>
<!-- Node1&#45;&gt;Node9 -->
<g id="edge8_Node000001_Node000009" class="edge">
<title>Node1&#45;&gt;Node9</title>
<g id="a_edge8_Node000001_Node000009"><a xlink:title=" ">
<path fill="none" stroke="#63b8ff" d="M1664.95,-60.47C1534.02,-55.14 1269.86,-42.37 1047,-19 1044.27,-18.71 1041.47,-18.39 1038.64,-18.05"/>
<polygon fill="#63b8ff" stroke="#63b8ff" points="1665.16,-63.98 1675.29,-60.88 1665.44,-56.98 1665.16,-63.98"/>
</a>
</g>
</g>
<!-- Node10 -->
<g id="Node000010" class="node">
<title>Node10</title>
<g id="a_Node000010"><a xlink:href="102__by__reference_8c.html" target="_top" xlink:title="Tests passing and returning aggregates that are handled by reference.">
<polygon fill="white" stroke="#666666" points="1175.5,-19 1056.5,-19 1056.5,0 1175.5,0 1175.5,-19"/>
<text text-anchor="middle" x="1116" y="-7" font-family="Helvetica,sans-Serif" font-size="10.00">t/102_by_reference.c</text>
</a>
</g>
</g>
<!-- Node1&#45;&gt;Node10 -->
<g id="edge9_Node000001_Node000010" class="edge">
<title>Node1&#45;&gt;Node10</title>
<g id="a_edge9_Node000001_Node000010"><a xlink:title=" ">
<path fill="none" stroke="#63b8ff" d="M1665.37,-58.22C1555.75,-50.86 1354.97,-36.43 1184,-19 1181.28,-18.72 1178.5,-18.43 1175.69,-18.12"/>
<polygon fill="#63b8ff" stroke="#63b8ff" points="1665.15,-61.71 1675.36,-58.89 1665.62,-54.73 1665.15,-61.71"/>
</a>
</g>
</g>
<!-- Node11 -->
<g id="Node000011" class="node">
<title>Node11</title>
<g id="a_Node000011"><a xlink:href="103__unions_8c.html" target="_top" xlink:title="Tests passing and returning C unions by value.">
<polygon fill="white" stroke="#666666" points="1280.5,-19 1193.5,-19 1193.5,0 1280.5,0 1280.5,-19"/>
<text text-anchor="middle" x="1237" y="-7" font-family="Helvetica,sans-Serif" font-size="10.00">t/103_unions.c</text>
</a>
</g>
</g>
<!-- Node1&#45;&gt;Node11 -->
<g id="edge10_Node000001_Node000011" class="edge">
<title>Node1&#45;&gt;Node11</title>
<g id="a_edge10_Node000001_Node000011"><a xlink:title=" ">
<path fill="none" stroke="#63b8ff" d="M1665.17,-57.07C1573.6,-49.52 1420.88,-35.85 1290,-19 1286.95,-18.61 1283.81,-18.17 1280.64,-17.72"/>
<polygon fill="#63b8ff" stroke="#63b8ff" points="1664.96,-60.56 1675.21,-57.89 1665.53,-53.59 1664.96,-60.56"/>
</a>
</g>
</g>
<!-- Node12 -->
<g id="Node000012" class="node">
<title>Node12</title>
<g id="a_Node000012"><a xlink:href="201__basic_8c.html" target="_top" xlink:title="Tests fundamental FFI operations involving pointers.">
<polygon fill="white" stroke="#666666" points="1379,-19 1299,-19 1299,0 1379,0 1379,-19"/>
<text text-anchor="middle" x="1339" y="-7" font-family="Helvetica,sans-Serif" font-size="10.00">t/201_basic.c</text>
</a>
</g>
</g>
<!-- Node1&#45;&gt;Node12 -->
<g id="edge11_Node000001_Node000012" class="edge">
<title>Node1&#45;&gt;Node12</title>
<g id="a_edge11_Node000001_Node000012"><a xlink:title=" ">
<path fill="none" stroke="#63b8ff" d="M1665.31,-54.52C1592.45,-46.23 1482.93,-33.11 1388,-19 1385.1,-18.57 1382.1,-18.1 1379.09,-17.62"/>
<polygon fill="#63b8ff" stroke="#63b8ff" points="1665.01,-58 1675.34,-55.65 1665.8,-51.05 1665.01,-58"/>
</a>
</g>
</g>
<!-- Node13 -->
<g id="Node000013" class="node">
<title>Node13</title>
<g id="a_Node000013"><a xlink:href="202__in__structs_8c.html" target="_top" xlink:title="Tests passing structs that contain pointer members.">
<polygon fill="white" stroke="#666666" points="1499,-19 1397,-19 1397,0 1499,0 1499,-19"/>
<text text-anchor="middle" x="1448" y="-7" font-family="Helvetica,sans-Serif" font-size="10.00">t/202_in_structs.c</text>
</a>
</g>
</g>
<!-- Node1&#45;&gt;Node13 -->
<g id="edge12_Node000001_Node000013" class="edge">
<title>Node1&#45;&gt;Node13</title>
<g id="a_edge12_Node000001_Node000013"><a xlink:title=" ">
<path fill="none" stroke="#63b8ff" d="M1688.83,-53.19C1632.77,-43.25 1548.94,-28.39 1496.42,-19.08"/>
<polygon fill="#63b8ff" stroke="#63b8ff" points="1688.5,-56.69 1698.96,-54.98 1689.72,-49.79 1688.5,-56.69"/>
</a>
</g>
</g>
<!-- Node14 -->
<g id="Node000014" class="node">
<title>Node14</title>
<g id="a_Node000014"><a xlink:href="203__complex_8c.html" target="_top" xlink:title=" ">
<polygon fill="white" stroke="#666666" points="1614.5,-19 1517.5,-19 1517.5,0 1614.5,0 1614.5,-19"/>
<text text-anchor="middle" x="1566" y="-7" font-family="Helvetica,sans-Serif" font-size="10.00">t/203_complex.c</text>
</a>
</g>
</g>
<!-- Node1&#45;&gt;Node14 -->
<g id="edge13_Node000001_Node000014" class="edge">
<title>Node1&#45;&gt;Node14</title>
<g id="a_edge13_Node000001_Node000014"><a xlink:title=" ">
<path fill="none" stroke="#63b8ff" d="M1707.92,-52.06C1674.09,-42.15 1625.92,-28.04 1595.31,-19.08"/>
<polygon fill="#63b8ff" stroke="#63b8ff" points="1707.34,-55.53 1717.92,-54.98 1709.31,-48.82 1707.34,-55.53"/>
</a>
</g>
</g>
<!-- Node15 -->
<g id="Node000015" class="node">
<title>Node15</title>
<g id="a_Node000015"><a xlink:href="301__primitives_8c.html" target="_top" xlink:title="Tests reverse trampolines (callbacks) with primitive type signatures.">
<polygon fill="white" stroke="#666666" points="1737,-19 1633,-19 1633,0 1737,0 1737,-19"/>
<text text-anchor="middle" x="1685" y="-7" font-family="Helvetica,sans-Serif" font-size="10.00">t/301_primitives.c</text>
</a>
</g>
</g>
<!-- Node1&#45;&gt;Node15 -->
<g id="edge14_Node000001_Node000015" class="edge">
<title>Node1&#45;&gt;Node15</title>
<g id="a_edge14_Node000001_Node000015"><a xlink:title=" ">
<path fill="none" stroke="#63b8ff" d="M1729.25,-48.32C1718.19,-38.87 1704.37,-27.06 1695.14,-19.17"/>
<polygon fill="#63b8ff" stroke="#63b8ff" points="1727.16,-51.15 1737.04,-54.98 1731.71,-45.83 1727.16,-51.15"/>
</a>
</g>
</g>
<!-- Node16 -->
<g id="Node000016" class="node">
<title>Node16</title>
<g id="a_Node000016"><a xlink:href="302__aggregates_8c.html" target="_top" xlink:title="Tests reverse trampolines (callbacks) with struct and union arguments/returns.">
<polygon fill="white" stroke="#666666" points="1865,-19 1755,-19 1755,0 1865,0 1865,-19"/>
<text text-anchor="middle" x="1810" y="-7" font-family="Helvetica,sans-Serif" font-size="10.00">t/302_aggregates.c</text>
</a>
</g>
</g>
<!-- Node1&#45;&gt;Node16 -->
<g id="edge15_Node000001_Node000016" class="edge">
<title>Node1&#45;&gt;Node16</title>
<g id="a_edge15_Node000001_Node000016"><a xlink:title=" ">
<path fill="none" stroke="#63b8ff" d="M1765.04,-48.32C1776.27,-38.87 1790.32,-27.06 1799.69,-19.17"/>
<polygon fill="#63b8ff" stroke="#63b8ff" points="1762.52,-45.87 1757.12,-54.98 1767.03,-51.23 1762.52,-45.87"/>
</a>
</g>
</g>
<!-- Node17 -->
<g id="Node000017" class="node">
<title>Node17</title>
<g id="a_Node000017"><a xlink:href="303__advanced_8c.html" target="_top" xlink:title="Tests advanced reverse trampoline (callback) patterns.">
<polygon fill="white" stroke="#666666" points="1985,-19 1883,-19 1883,0 1985,0 1985,-19"/>
<text text-anchor="middle" x="1934" y="-7" font-family="Helvetica,sans-Serif" font-size="10.00">t/303_advanced.c</text>
</a>
</g>
</g>
<!-- Node1&#45;&gt;Node17 -->
<g id="edge16_Node000001_Node000017" class="edge">
<title>Node1&#45;&gt;Node17</title>
<g id="a_edge16_Node000001_Node000017"><a xlink:title=" ">
<path fill="none" stroke="#63b8ff" d="M1786.93,-52.18C1821.9,-42.27 1871.96,-28.08 1903.72,-19.08"/>
<polygon fill="#63b8ff" stroke="#63b8ff" points="1785.71,-48.89 1777.04,-54.98 1787.62,-55.63 1785.71,-48.89"/>
</a>
</g>
</g>
<!-- Node18 -->
<g id="Node000018" class="node">
<title>Node18</title>
<g id="a_Node000018"><a xlink:href="401__large__stack_8c.html" target="_top" xlink:title="Tests FFI calls with a large number of arguments, forcing stack usage.">
<polygon fill="white" stroke="#666666" points="2114.5,-19 2003.5,-19 2003.5,0 2114.5,0 2114.5,-19"/>
<text text-anchor="middle" x="2059" y="-7" font-family="Helvetica,sans-Serif" font-size="10.00">t/401_large_stack.c</text>
</a>
</g>
</g>
<!-- Node1&#45;&gt;Node18 -->
<g id="edge17_Node000001_Node000018" class="edge">
<title>Node1&#45;&gt;Node18</title>
<g id="a_edge17_Node000001_Node000018"><a xlink:title=" ">
<path fill="none" stroke="#63b8ff" d="M1806.99,-53.31C1865.57,-43.36 1953.73,-28.38 2008.74,-19.04"/>
<polygon fill="#63b8ff" stroke="#63b8ff" points="1806.4,-49.86 1797.13,-54.98 1807.57,-56.76 1806.4,-49.86"/>
</a>
</g>
</g>
<!-- Node19 -->
<g id="Node000019" class="node">
<title>Node19</title>
<g id="a_Node000019"><a xlink:href="402__variadic__functions_8c.html" target="_top" xlink:title="Tests FFI calls for variadic functions.">
<polygon fill="white" stroke="#666666" points="2277,-19 2133,-19 2133,0 2277,0 2277,-19"/>
<text text-anchor="middle" x="2205" y="-7" font-family="Helvetica,sans-Serif" font-size="10.00">t/402_variadic_functions.c</text>
</a>
</g>
</g>
<!-- Node1&#45;&gt;Node19 -->
<g id="edge18_Node000001_Node000019" class="edge">
<title>Node1&#45;&gt;Node19</title>
<g id="a_edge18_Node000001_Node000019"><a xlink:title=" ">
<path fill="none" stroke="#63b8ff" d="M1828.59,-54.06C1915.01,-44.06 2050.14,-28.42 2132.81,-18.85"/>
<polygon fill="#63b8ff" stroke="#63b8ff" points="1828.09,-50.59 1818.56,-55.22 1828.9,-57.55 1828.09,-50.59"/>
</a>
</g>
</g>
<!-- Node20 -->
<g id="Node000020" class="node">
<title>Node20</title>
<g id="a_Node000020"><a xlink:href="403__special__types_8c.html" target="_top" xlink:title="Tests FFI calls with types that have unique ABI handling rules.">
<polygon fill="white" stroke="#666666" points="2417,-19 2295,-19 2295,0 2417,0 2417,-19"/>
<text text-anchor="middle" x="2356" y="-7" font-family="Helvetica,sans-Serif" font-size="10.00">t/403_special_types.c</text>
</a>
</g>
</g>
<!-- Node1&#45;&gt;Node20 -->
<g id="edge19_Node000001_Node000020" class="edge">
<title>Node1&#45;&gt;Node20</title>
<g id="a_edge19_Node000001_Node000020"><a xlink:title=" ">
<path fill="none" stroke="#63b8ff" d="M1828.85,-57.73C1934.56,-50.04 2124.18,-35.5 2286,-19 2288.92,-18.7 2291.91,-18.39 2294.93,-18.06"/>
<polygon fill="#63b8ff" stroke="#63b8ff" points="1828.3,-54.26 1818.57,-58.47 1828.8,-61.24 1828.3,-54.26"/>
</a>
</g>
</g>
<!-- Node21 -->
<g id="Node000021" class="node">
<title>Node21</title>
<g id="a_Node000021"><a xlink:href="810__memory__stress_8c.html" target="_top" xlink:title="A stress test for detecting memory leaks in the infix FFI library.">
<polygon fill="white" stroke="#666666" points="2566.5,-19 2435.5,-19 2435.5,0 2566.5,0 2566.5,-19"/>
<text text-anchor="middle" x="2501" y="-7" font-family="Helvetica,sans-Serif" font-size="10.00">t/810_memory_stress.c</text>
</a>
</g>
</g>
<!-- Node1&#45;&gt;Node21 -->
<g id="edge20_Node000001_Node000021" class="edge">
<title>Node1&#45;&gt;Node21</title>
<g id="a_edge20_Node000001_Node000021"><a xlink:title=" ">
<path fill="none" stroke="#63b8ff" d="M1829.04,-59.38C1956.78,-52.68 2210.91,-38.23 2426,-19 2429,-18.73 2432.07,-18.44 2435.17,-18.14"/>
<polygon fill="#63b8ff" stroke="#63b8ff" points="1828.75,-55.89 1818.94,-59.91 1829.11,-62.88 1828.75,-55.89"/>
</a>
</g>
</g>
<!-- Node22 -->
<g id="Node000022" class="node">
<title>Node22</title>
<g id="a_Node000022"><a xlink:href="811__fault__injection_8c.html" target="_top" xlink:title="An advanced stress test that uses fault injection to find memory leaks in the library&#39;s error&#45;handlin...">
<polygon fill="white" stroke="#666666" points="2709.5,-19 2584.5,-19 2584.5,0 2709.5,0 2709.5,-19"/>
<text text-anchor="middle" x="2647" y="-7" font-family="Helvetica,sans-Serif" font-size="10.00">t/811_fault_injection.c</text>
</a>
</g>
</g>
<!-- Node1&#45;&gt;Node22 -->
<g id="edge21_Node000001_Node000022" class="edge">
<title>Node1&#45;&gt;Node22</title>
<g id="a_edge21_Node000001_Node000022"><a xlink:title=" ">
<path fill="none" stroke="#63b8ff" d="M1829.05,-60.88C1978.04,-55.72 2302.91,-42.65 2576,-19 2578.72,-18.76 2581.5,-18.51 2584.3,-18.23"/>
<polygon fill="#63b8ff" stroke="#63b8ff" points="1828.51,-57.39 1818.63,-61.24 1828.75,-64.39 1828.51,-57.39"/>
</a>
</g>
</g>
<!-- Node23 -->
<g id="Node000023" class="node">
<title>Node23</title>
<g id="a_Node000023"><a xlink:href="820__threading__helgrind_8c.html" target="_top" xlink:title="A cross&#45;platform test for thread&#45;safety issues using Valgrind&#39;s Helgrind tool or other thread sanitiz...">
<polygon fill="white" stroke="#666666" points="2874,-19 2728,-19 2728,0 2874,0 2874,-19"/>
<text text-anchor="middle" x="2801" y="-7" font-family="Helvetica,sans-Serif" font-size="10.00">t/820_threading_helgrind.c</text>
</a>
</g>
</g>
<!-- Node1&#45;&gt;Node23 -->
<g id="edge22_Node000001_Node000023" class="edge">
<title>Node1&#45;&gt;Node23</title>
<g id="a_edge22_Node000001_Node000023"><a xlink:title=" ">
<path fill="none" stroke="#63b8ff" d="M1828.94,-61.34C1996.35,-56.58 2389.61,-43.59 2719,-19 2721.85,-18.79 2724.76,-18.56 2727.7,-18.31"/>
<polygon fill="#63b8ff" stroke="#63b8ff" points="1828.62,-57.85 1818.73,-61.63 1828.82,-64.85 1828.62,-57.85"/>
</a>
</g>
</g>
<!-- Node24 -->
<g id="Node000024" class="node">
<title>Node24</title>
<g id="a_Node000024"><a xlink:href="830__security_8c.html" target="_top" xlink:title="A test suite for security hardening and vulnerability prevention.">
<polygon fill="white" stroke="#666666" points="2984,-19 2892,-19 2892,0 2984,0 2984,-19"/>
<text text-anchor="middle" x="2938" y="-7" font-family="Helvetica,sans-Serif" font-size="10.00">t/830_security.c</text>
</a>
</g>
</g>
<!-- Node1&#45;&gt;Node24 -->
<g id="edge23_Node000001_Node000024" class="edge">
<title>Node1&#45;&gt;Node24</title>
<g id="a_edge23_Node000001_Node000024"><a xlink:title=" ">
<path fill="none" stroke="#63b8ff" d="M1828.66,-63.49C2015.67,-62.78 2489.22,-57.02 2883,-19 2885.89,-18.72 2888.85,-18.39 2891.83,-18.03"/>
<polygon fill="#63b8ff" stroke="#63b8ff" points="1828.62,-59.99 1818.63,-63.53 1828.65,-66.99 1828.62,-59.99"/>
</a>
</g>
</g>
<!-- Node25 -->
<g id="Node000025" class="node">
<title>Node25</title>
<g id="a_Node000025"><a xlink:href="840__arena__allocator_8c.html" target="_top" xlink:title="Unit tests for the internal arena allocator.">
<polygon fill="white" stroke="#666666" points="3132,-19 3002,-19 3002,0 3132,0 3132,-19"/>
<text text-anchor="middle" x="3067" y="-7" font-family="Helvetica,sans-Serif" font-size="10.00">t/840_arena_allocator.c</text>
</a>
</g>
</g>
<!-- Node1&#45;&gt;Node25 -->
<g id="edge24_Node000001_Node000025" class="edge">
<title>Node1&#45;&gt;Node25</title>
<g id="a_edge24_Node000001_Node000025"><a xlink:title=" ">
<path fill="none" stroke="#63b8ff" d="M1828.85,-62.8C2028.24,-60.62 2554.89,-51.93 2993,-19 2995.84,-18.79 2998.73,-18.55 3001.66,-18.29"/>
<polygon fill="#63b8ff" stroke="#63b8ff" points="1828.71,-59.3 1818.75,-62.91 1828.78,-66.3 1828.71,-59.3"/>
</a>
</g>
</g>
<!-- Node26 -->
<g id="Node000026" class="node">
<title>Node26</title>
<g id="a_Node000026"><a xlink:href="850__regression__cases_8c.html" target="_top" xlink:title="Contains a data&#45;driven suite of deterministic unit tests for specific bugs found by fuzzing.">
<polygon fill="white" stroke="#666666" points="3289.5,-19 3150.5,-19 3150.5,0 3289.5,0 3289.5,-19"/>
<text text-anchor="middle" x="3220" y="-7" font-family="Helvetica,sans-Serif" font-size="10.00">t/850_regression_cases.c</text>
</a>
</g>
</g>
<!-- Node1&#45;&gt;Node26 -->
<g id="edge25_Node000001_Node000026" class="edge">
<title>Node1&#45;&gt;Node26</title>
<g id="a_edge25_Node000001_Node000026"><a xlink:title=" ">
<path fill="none" stroke="#63b8ff" d="M1828.81,-63.04C2043.97,-61.35 2643.4,-53.66 3141,-19 3144.03,-18.79 3147.12,-18.55 3150.24,-18.29"/>
<polygon fill="#63b8ff" stroke="#63b8ff" points="1828.52,-59.54 1818.55,-63.12 1828.58,-66.54 1828.52,-59.54"/>
</a>
</g>
</g>
<!-- Node27 -->
<g id="Node000027" class="node">
<title>Node27</title>
<g id="a_Node000027"><a xlink:href="860__error__handling_8c.html" target="_top" xlink:title="Unit tests for the detailed error reporting system.">
<polygon fill="white" stroke="#666666" points="3432.5,-19 3307.5,-19 3307.5,0 3432.5,0 3432.5,-19"/>
<text text-anchor="middle" x="3370" y="-7" font-family="Helvetica,sans-Serif" font-size="10.00">t/860_error_handling.c</text>
</a>
</g>
</g>
<!-- Node1&#45;&gt;Node27 -->
<g id="edge26_Node000001_Node000027" class="edge">
<title>Node1&#45;&gt;Node27</title>
<g id="a_edge26_Node000001_Node000027"><a xlink:title=" ">
<path fill="none" stroke="#63b8ff" d="M1828.67,-63.76C2059.75,-63.93 2737.78,-60.55 3299,-19 3301.72,-18.8 3304.5,-18.57 3307.31,-18.32"/>
<polygon fill="#63b8ff" stroke="#63b8ff" points="1828.67,-60.26 1818.67,-63.75 1828.66,-67.26 1828.67,-60.26"/>
</a>
</g>
</g>
<!-- Node28 -->
<g id="Node000028" class="node">
<title>Node28</title>
<g id="a_Node000028"><a xlink:href="901__call__overhead_8c.html" target="_top" xlink:title="A microbenchmark to measure the performance overhead of an FFI call.">
<polygon fill="white" stroke="#666666" points="3573.5,-19 3450.5,-19 3450.5,0 3573.5,0 3573.5,-19"/>
<text text-anchor="middle" x="3512" y="-7" font-family="Helvetica,sans-Serif" font-size="10.00">t/901_call_overhead.c</text>
</a>
</g>
</g>
<!-- Node1&#45;&gt;Node28 -->
<g id="edge27_Node000001_Node000028" class="edge">
<title>Node1&#45;&gt;Node28</title>
<g id="a_edge27_Node000001_Node000028"><a xlink:title=" ">
<path fill="none" stroke="#63b8ff" d="M1828.82,-64.09C2073.84,-65.27 2823,-64.6 3442,-19 3444.69,-18.8 3447.43,-18.58 3450.19,-18.33"/>
<polygon fill="#63b8ff" stroke="#63b8ff" points="1828.6,-60.59 1818.58,-64.04 1828.56,-67.59 1828.6,-60.59"/>
</a>
</g>
</g>
<!-- Node29 -->
<g id="Node000029" class="node">
<title>Node29</title>
<g id="a_Node000029"><a xlink:href="903__generation__benchmark_8c.html" target="_top" xlink:title="A microbenchmark for FFI trampoline generation time.">
<polygon fill="white" stroke="#666666" points="3758.5,-19 3591.5,-19 3591.5,0 3758.5,0 3758.5,-19"/>
<text text-anchor="middle" x="3675" y="-7" font-family="Helvetica,sans-Serif" font-size="10.00">t/903_generation_benchmark.c</text>
</a>
</g>
</g>
<!-- Node1&#45;&gt;Node29 -->
<g id="edge28_Node000001_Node000029" class="edge">
<title>Node1&#45;&gt;Node29</title>
<g id="a_edge28_Node000001_Node000029"><a xlink:title=" ">
<path fill="none" stroke="#63b8ff" d="M1828.85,-63.5C2086.85,-63.06 2906.1,-58.43 3583,-19 3585.72,-18.84 3588.49,-18.67 3591.28,-18.48"/>
<polygon fill="#63b8ff" stroke="#63b8ff" points="1828.81,-60 1818.81,-63.51 1828.82,-67 1828.81,-60"/>
</a>
</g>
</g>
</g>
</svg>

<g id="navigator" transform="translate(0 0)" fill="#404254">
  <rect fill="#f2f5e9" fill-opacity="0.5" stroke="#606060" stroke-width=".5" x="0" y="0" width="60" height="60"/>
  <use id="zoomplus" xlink:href="#zoomPlus" x="17" y="9" onmousedown="handleZoom(evt,'in')"/>
  <use id="zoomminus" xlink:href="#zoomMin" x="42" y="9" onmousedown="handleZoom(evt,'out')"/>
  <use id="reset" xlink:href="#resetDef" x="30" y="36" onmousedown="handleReset()"/>
   <use id="arrowup" xlink:href="#arrowUp" x="0" y="0" onmousedown="handlePan(0,-1)"/>
  <use id="arrowright" xlink:href="#arrowRight" x="0" y="0" onmousedown="handlePan(1,0)"/>
  <use id="arrowdown" xlink:href="#arrowDown" x="0" y="0" onmousedown="handlePan(0,1)"/>
  <use id="arrowleft" xlink:href="#arrowLeft" x="0" y="0" onmousedown="handlePan(-1,0)"/>
</g>
<svg viewBox="0 0 15 15" width="100%" height="30px" preserveAspectRatio="xMaxYMin meet">
 <g id="arrow_out" transform="scale(0.3 0.3)">
  <a xlink:href="double__tap_8h__dep__incl_org.svg" target="_base">
   <rect id="button" ry="5" rx="5" y="6" x="6" height="38" width="38"
        fill="#f2f5e9" fill-opacity="0.5" stroke="#606060" stroke-width="1.0"/>
   <path id="arrow"
     d="M 11.500037,31.436501 C 11.940474,20.09759 22.043105,11.32322 32.158766,21.979434 L 37.068811,17.246167 C 37.068811,17.246167 37.088388,32 37.088388,32 L 22.160133,31.978069 C 22.160133,31.978069 26.997745,27.140456 26.997745,27.140456 C 18.528582,18.264221 13.291696,25.230495 11.500037,31.436501 z"
     style="fill:#404040;"/>
  </a>
 </g>
</svg>

<style type='text/css'>
<![CDATA[
[data-mouse-over-selected='false'] { opacity: 0.7; }
[data-mouse-over-selected='true']  { opacity: 1.0; }
]]>
</style>
<script type="application/ecmascript"><![CDATA[
document.addEventListener('DOMContentLoaded', (event) => {
  highlightEdges();
  highlightAdjacentNodes();
});
]]></script>
</svg>
