<?xml version="1.0" encoding="UTF-8" standalone="no"?>
<!DOCTYPE svg PUBLIC "-//W3C//DTD SVG 1.1//EN"
 "http://www.w3.org/Graphics/SVG/1.1/DTD/svg11.dtd">
<!-- Generated by graphviz version 2.43.0 (0)
 -->
<!-- Title: src/common/double_tap.h Pages: 1 -->
<svg width="4380pt" height="93pt"
 viewBox="0.00 0.00 4379.50 93.00" xmlns="http://www.w3.org/2000/svg" xmlns:xlink="http://www.w3.org/1999/xlink">
<g id="graph0" class="graph" transform="scale(1 1) rotate(0) translate(4 89)">
<title>src/common/double_tap.h</title>
<!-- Node1 -->
<g id="Node000001" class="node">
<title>Node1</title>
<g id="a_Node000001"><a xlink:title="A lightweight, single&#45;header TAP (Test Anything Protocol) library.">
<polygon fill="#999999" stroke="#666666" points="2122.5,-85 1979.5,-85 1979.5,-66 2122.5,-66 2122.5,-85"/>
<text text-anchor="middle" x="2051" y="-73" font-family="Helvetica,sans-Serif" font-size="10.00">src/common/double_tap.h</text>
</a>
</g>
</g>
<!-- Node2 -->
<g id="Node000002" class="node">
<title>Node2</title>
<g id="a_Node000002"><a xlink:href="001__primitives_8c.html" target="_top" xlink:title="Unit test for creating trampolines for functions with primitive C types.">
<polygon fill="white" stroke="#666666" points="104,-24.5 0,-24.5 0,-5.5 104,-5.5 104,-24.5"/>
<text text-anchor="middle" x="52" y="-12.5" font-family="Helvetica,sans-Serif" font-size="10.00">t/001_primitives.c</text>
</a>
</g>
</g>
<!-- Node1&#45;&gt;Node2 -->
<g id="edge1_Node000001_Node000002" class="edge">
<title>Node1&#45;&gt;Node2</title>
<g id="a_edge1_Node000001_Node000002"><a xlink:title=" ">
<path fill="none" stroke="#63b8ff" d="M1969.35,-74.83C1649.4,-75.77 480.63,-75.93 113,-30 103.4,-28.8 93.11,-26.74 83.76,-24.57"/>
<polygon fill="#63b8ff" stroke="#63b8ff" points="1969.48,-78.33 1979.47,-74.8 1969.46,-71.33 1969.48,-78.33"/>
</a>
</g>
</g>
<!-- Node3 -->
<g id="Node000003" class="node">
<title>Node3</title>
<g id="a_Node000003"><a xlink:href="002__simple__calls_8c.html" target="_top" xlink:title="Unit test for basic forward trampoline calls with simple function signatures.">
<polygon fill="white" stroke="#666666" points="238,-24.5 122,-24.5 122,-5.5 238,-5.5 238,-24.5"/>
<text text-anchor="middle" x="180" y="-12.5" font-family="Helvetica,sans-Serif" font-size="10.00">t/002_simple_calls.c</text>
</a>
</g>
</g>
<!-- Node1&#45;&gt;Node3 -->
<g id="edge2_Node000001_Node000003" class="edge">
<title>Node1&#45;&gt;Node3</title>
<g id="a_edge2_Node000001_Node000003"><a xlink:title=" ">
<path fill="none" stroke="#63b8ff" d="M1969.21,-74.45C1663.41,-73.97 587.41,-69.43 247,-30 236.49,-28.78 225.2,-26.72 214.92,-24.55"/>
<polygon fill="#63b8ff" stroke="#63b8ff" points="1969.33,-77.95 1979.33,-74.47 1969.34,-70.95 1969.33,-77.95"/>
</a>
</g>
</g>
<!-- Node4 -->
<g id="Node000004" class="node">
<title>Node4</title>
<g id="a_Node000004"><a xlink:href="003__type__system__api_8c.html" target="_top" xlink:title="Unit test for the Manual API (infix_type_create_* functions).">
<polygon fill="white" stroke="#666666" points="394,-24.5 256,-24.5 256,-5.5 394,-5.5 394,-24.5"/>
<text text-anchor="middle" x="325" y="-12.5" font-family="Helvetica,sans-Serif" font-size="10.00">t/003_type_system_api.c</text>
</a>
</g>
</g>
<!-- Node1&#45;&gt;Node4 -->
<g id="edge3_Node000001_Node000004" class="edge">
<title>Node1&#45;&gt;Node4</title>
<g id="a_edge3_Node000001_Node000004"><a xlink:title=" ">
<path fill="none" stroke="#63b8ff" d="M1968.7,-73.92C1679.64,-71.62 711.66,-61.69 403,-30 390.82,-28.75 377.68,-26.68 365.72,-24.5"/>
<polygon fill="#63b8ff" stroke="#63b8ff" points="1969.08,-77.42 1979.11,-74 1969.13,-70.42 1969.08,-77.42"/>
</a>
</g>
</g>
<!-- Node5 -->
<g id="Node000005" class="node">
<title>Node5</title>
<g id="a_Node000005"><a xlink:href="004__signatures_8c.html" target="_top" xlink:title="Unit test for the signature string parser.">
<polygon fill="white" stroke="#666666" points="518,-24.5 412,-24.5 412,-5.5 518,-5.5 518,-24.5"/>
<text text-anchor="middle" x="465" y="-12.5" font-family="Helvetica,sans-Serif" font-size="10.00">t/004_signatures.c</text>
</a>
</g>
</g>
<!-- Node1&#45;&gt;Node5 -->
<g id="edge4_Node000001_Node000005" class="edge">
<title>Node1&#45;&gt;Node5</title>
<g id="a_edge4_Node000001_Node000005"><a xlink:title=" ">
<path fill="none" stroke="#63b8ff" d="M1968.86,-74.19C1694.27,-72.82 809.61,-65.69 527,-30 517.26,-28.77 506.79,-26.7 497.29,-24.53"/>
<polygon fill="#63b8ff" stroke="#63b8ff" points="1969.14,-77.69 1979.15,-74.24 1969.17,-70.69 1969.14,-77.69"/>
</a>
</g>
</g>
<!-- Node6 -->
<g id="Node000006" class="node">
<title>Node6</title>
<g id="a_Node000006"><a xlink:href="005__layouts_8c.html" target="_top" xlink:title="Unit test for the Manual API&#39;s struct and union layout calculations.">
<polygon fill="white" stroke="#666666" points="627.5,-24.5 536.5,-24.5 536.5,-5.5 627.5,-5.5 627.5,-24.5"/>
<text text-anchor="middle" x="582" y="-12.5" font-family="Helvetica,sans-Serif" font-size="10.00">t/005_layouts.c</text>
</a>
</g>
</g>
<!-- Node1&#45;&gt;Node6 -->
<g id="edge5_Node000001_Node000006" class="edge">
<title>Node1&#45;&gt;Node6</title>
<g id="a_edge5_Node000001_Node000006"><a xlink:title=" ">
<path fill="none" stroke="#63b8ff" d="M1968.96,-74.31C1707.51,-73.34 895.89,-67.3 636,-30 627.47,-28.78 618.34,-26.71 610.07,-24.54"/>
<polygon fill="#63b8ff" stroke="#63b8ff" points="1969.13,-77.81 1979.14,-74.35 1969.16,-70.81 1969.13,-77.81"/>
</a>
</g>
</g>
<!-- Node7 -->
<g id="Node000007" class="node">
<title>Node7</title>
<g id="a_Node000007"><a xlink:href="006__end__to__end__calls_8c.html" target="_top" xlink:title="End&#45;to&#45;end unit test for passing and returning aggregate types (structs).">
<polygon fill="white" stroke="#666666" points="784.5,-24.5 645.5,-24.5 645.5,-5.5 784.5,-5.5 784.5,-24.5"/>
<text text-anchor="middle" x="715" y="-12.5" font-family="Helvetica,sans-Serif" font-size="10.00">t/006_end_to_end_calls.c</text>
</a>
</g>
</g>
<!-- Node1&#45;&gt;Node7 -->
<g id="edge6_Node000001_Node000007" class="edge">
<title>Node1&#45;&gt;Node7</title>
<g id="a_edge6_Node000001_Node000007"><a xlink:title=" ">
<path fill="none" stroke="#63b8ff" d="M1969.27,-73.1C1728.27,-68.75 1023.06,-54.23 794,-30 781.81,-28.71 768.67,-26.65 756.66,-24.51"/>
<polygon fill="#63b8ff" stroke="#63b8ff" points="1969.3,-76.6 1979.36,-73.28 1969.43,-69.61 1969.3,-76.6"/>
</a>
</g>
</g>
<!-- Node8 -->
<g id="Node000008" class="node">
<title>Node8</title>
<g id="a_Node000008"><a xlink:href="007__type__registry_8c.html" target="_top" xlink:title="Unit test for the named type registry system.">
<polygon fill="white" stroke="#666666" points="921,-24.5 803,-24.5 803,-5.5 921,-5.5 921,-24.5"/>
<text text-anchor="middle" x="862" y="-12.5" font-family="Helvetica,sans-Serif" font-size="10.00">t/007_type_registry.c</text>
</a>
</g>
</g>
<!-- Node1&#45;&gt;Node8 -->
<g id="edge7_Node000001_Node000008" class="edge">
<title>Node1&#45;&gt;Node8</title>
<g id="a_edge7_Node000001_Node000008"><a xlink:title=" ">
<path fill="none" stroke="#63b8ff" d="M1968.99,-72.98C1745.86,-68.58 1131.14,-54.53 930,-30 919.47,-28.72 908.15,-26.66 897.82,-24.52"/>
<polygon fill="#63b8ff" stroke="#63b8ff" points="1969.25,-76.49 1979.31,-73.19 1969.38,-69.49 1969.25,-76.49"/>
</a>
</g>
</g>
<!-- Node9 -->
<g id="Node000009" class="node">
<title>Node9</title>
<g id="a_Node000009"><a xlink:href="008__registry__introspection_8c.html" target="_top" xlink:title="Unit test for the registry introspection and serialization APIs.">
<polygon fill="white" stroke="#666666" points="1100.5,-24.5 939.5,-24.5 939.5,-5.5 1100.5,-5.5 1100.5,-24.5"/>
<text text-anchor="middle" x="1020" y="-12.5" font-family="Helvetica,sans-Serif" font-size="10.00">t/008_registry_introspection.c</text>
</a>
</g>
</g>
<!-- Node1&#45;&gt;Node9 -->
<g id="edge8_Node000001_Node000009" class="edge">
<title>Node1&#45;&gt;Node9</title>
<g id="a_edge8_Node000001_Node000009"><a xlink:title=" ">
<path fill="none" stroke="#63b8ff" d="M1968.82,-73.62C1804.9,-71.21 1425.77,-62.3 1109,-30 1095.62,-28.64 1081.18,-26.61 1067.91,-24.52"/>
<polygon fill="#63b8ff" stroke="#63b8ff" points="1969.26,-77.13 1979.31,-73.77 1969.36,-70.13 1969.26,-77.13"/>
</a>
</g>
</g>
<!-- Node10 -->
<g id="Node000010" class="node">
<title>Node10</title>
<g id="a_Node000010"><a xlink:href="101__by__value_8c.html" target="_top" xlink:title="Unit test for passing and returning aggregates and vectors by value.">
<polygon fill="white" stroke="#666666" points="1217.5,-24.5 1118.5,-24.5 1118.5,-5.5 1217.5,-5.5 1217.5,-24.5"/>
<text text-anchor="middle" x="1168" y="-12.5" font-family="Helvetica,sans-Serif" font-size="10.00">t/101_by_value.c</text>
</a>
</g>
</g>
<!-- Node1&#45;&gt;Node10 -->
<g id="edge9_Node000001_Node000010" class="edge">
<title>Node1&#45;&gt;Node10</title>
<g id="a_edge9_Node000001_Node000010"><a xlink:title=" ">
<path fill="none" stroke="#63b8ff" d="M1968.97,-75.02C1820.12,-74.88 1495.92,-69.52 1226,-30 1217.08,-28.69 1207.53,-26.66 1198.8,-24.54"/>
<polygon fill="#63b8ff" stroke="#63b8ff" points="1969.38,-78.52 1979.39,-75.03 1969.39,-71.52 1969.38,-78.52"/>
</a>
</g>
</g>
<!-- Node11 -->
<g id="Node000011" class="node">
<title>Node11</title>
<g id="a_Node000011"><a xlink:href="102__by__reference_8c.html" target="_top" xlink:title="Unit test for passing and returning large aggregates by reference.">
<polygon fill="white" stroke="#666666" points="1354.5,-24.5 1235.5,-24.5 1235.5,-5.5 1354.5,-5.5 1354.5,-24.5"/>
<text text-anchor="middle" x="1295" y="-12.5" font-family="Helvetica,sans-Serif" font-size="10.00">t/102_by_reference.c</text>
</a>
</g>
</g>
<!-- Node1&#45;&gt;Node11 -->
<g id="edge10_Node000001_Node000011" class="edge">
<title>Node1&#45;&gt;Node11</title>
<g id="a_edge10_Node000001_Node000011"><a xlink:title=" ">
<path fill="none" stroke="#63b8ff" d="M1969.15,-72.87C1839.87,-69.47 1580.71,-59.31 1363,-30 1352.85,-28.63 1341.94,-26.63 1331.9,-24.56"/>
<polygon fill="#63b8ff" stroke="#63b8ff" points="1969.28,-76.37 1979.37,-73.13 1969.46,-69.37 1969.28,-76.37"/>
</a>
</g>
</g>
<!-- Node12 -->
<g id="Node000012" class="node">
<title>Node12</title>
<g id="a_Node000012"><a xlink:href="103__unions_8c.html" target="_top" xlink:title="Unit test for passing and returning unions by value.">
<polygon fill="white" stroke="#666666" points="1459.5,-24.5 1372.5,-24.5 1372.5,-5.5 1459.5,-5.5 1459.5,-24.5"/>
<text text-anchor="middle" x="1416" y="-12.5" font-family="Helvetica,sans-Serif" font-size="10.00">t/103_unions.c</text>
</a>
</g>
</g>
<!-- Node1&#45;&gt;Node12 -->
<g id="edge11_Node000001_Node000012" class="edge">
<title>Node1&#45;&gt;Node12</title>
<g id="a_edge11_Node000001_Node000012"><a xlink:title=" ">
<path fill="none" stroke="#63b8ff" d="M1968.95,-72.92C1855.74,-69.68 1645.59,-59.82 1469,-30 1460.93,-28.64 1452.3,-26.61 1444.4,-24.52"/>
<polygon fill="#63b8ff" stroke="#63b8ff" points="1969.17,-76.43 1979.27,-73.2 1969.37,-69.43 1969.17,-76.43"/>
</a>
</g>
</g>
<!-- Node13 -->
<g id="Node000013" class="node">
<title>Node13</title>
<g id="a_Node000013"><a xlink:href="201__basic_8c.html" target="_top" xlink:title="Unit test for FFI calls involving pointer types.">
<polygon fill="white" stroke="#666666" points="1558,-24.5 1478,-24.5 1478,-5.5 1558,-5.5 1558,-24.5"/>
<text text-anchor="middle" x="1518" y="-12.5" font-family="Helvetica,sans-Serif" font-size="10.00">t/201_basic.c</text>
</a>
</g>
</g>
<!-- Node1&#45;&gt;Node13 -->
<g id="edge12_Node000001_Node000013" class="edge">
<title>Node1&#45;&gt;Node13</title>
<g id="a_edge12_Node000001_Node000013"><a xlink:title=" ">
<path fill="none" stroke="#63b8ff" d="M1969.48,-71.65C1872.77,-67.19 1706.99,-56.2 1567,-30 1559.61,-28.62 1551.72,-26.61 1544.49,-24.54"/>
<polygon fill="#63b8ff" stroke="#63b8ff" points="1969.34,-75.14 1979.49,-72.09 1969.65,-68.15 1969.34,-75.14"/>
</a>
</g>
</g>
<!-- Node14 -->
<g id="Node000014" class="node">
<title>Node14</title>
<g id="a_Node000014"><a xlink:href="202__in__structs_8c.html" target="_top" xlink:title="Unit test for passing structs that contain pointer members.">
<polygon fill="white" stroke="#666666" points="1678,-24.5 1576,-24.5 1576,-5.5 1678,-5.5 1678,-24.5"/>
<text text-anchor="middle" x="1627" y="-12.5" font-family="Helvetica,sans-Serif" font-size="10.00">t/202_in_structs.c</text>
</a>
</g>
</g>
<!-- Node1&#45;&gt;Node14 -->
<g id="edge13_Node000001_Node000014" class="edge">
<title>Node1&#45;&gt;Node14</title>
<g id="a_edge13_Node000001_Node000014"><a xlink:title=" ">
<path fill="none" stroke="#63b8ff" d="M1968.99,-67.02C1894.97,-59.66 1783.24,-47.06 1687,-30 1678.47,-28.49 1669.33,-26.53 1660.82,-24.56"/>
<polygon fill="#63b8ff" stroke="#63b8ff" points="1968.88,-70.52 1979.18,-68.02 1969.57,-63.56 1968.88,-70.52"/>
</a>
</g>
</g>
<!-- Node15 -->
<g id="Node000015" class="node">
<title>Node15</title>
<g id="a_Node000015"><a xlink:href="203__complex_8c.html" target="_top" xlink:title="Unit test for FFI calls involving C99 _Complex types.">
<polygon fill="white" stroke="#666666" points="1793.5,-24.5 1696.5,-24.5 1696.5,-5.5 1793.5,-5.5 1793.5,-24.5"/>
<text text-anchor="middle" x="1745" y="-12.5" font-family="Helvetica,sans-Serif" font-size="10.00">t/203_complex.c</text>
</a>
</g>
</g>
<!-- Node1&#45;&gt;Node15 -->
<g id="edge14_Node000001_Node000015" class="edge">
<title>Node1&#45;&gt;Node15</title>
<g id="a_edge14_Node000001_Node000015"><a xlink:title=" ">
<path fill="none" stroke="#63b8ff" d="M1988.03,-64.26C1937.78,-55.84 1865.68,-43.18 1803,-30 1795.19,-28.36 1786.84,-26.44 1778.97,-24.56"/>
<polygon fill="#63b8ff" stroke="#63b8ff" points="1987.65,-67.75 1998.09,-65.94 1988.8,-60.84 1987.65,-67.75"/>
</a>
</g>
</g>
<!-- Node16 -->
<g id="Node000016" class="node">
<title>Node16</title>
<g id="a_Node000016"><a xlink:href="301__primitives_8c.html" target="_top" xlink:title="Unit test for reverse trampolines (callbacks) with primitive C types.">
<polygon fill="white" stroke="#666666" points="1916,-24.5 1812,-24.5 1812,-5.5 1916,-5.5 1916,-24.5"/>
<text text-anchor="middle" x="1864" y="-12.5" font-family="Helvetica,sans-Serif" font-size="10.00">t/301_primitives.c</text>
</a>
</g>
</g>
<!-- Node1&#45;&gt;Node16 -->
<g id="edge15_Node000001_Node000016" class="edge">
<title>Node1&#45;&gt;Node16</title>
<g id="a_edge15_Node000001_Node000016"><a xlink:title=" ">
<path fill="none" stroke="#63b8ff" d="M2014.12,-62.96C1977.95,-51.65 1923.65,-34.66 1891.22,-24.52"/>
<polygon fill="#63b8ff" stroke="#63b8ff" points="2013.22,-66.35 2023.81,-65.99 2015.31,-59.67 2013.22,-66.35"/>
</a>
</g>
</g>
<!-- Node17 -->
<g id="Node000017" class="node">
<title>Node17</title>
<g id="a_Node000017"><a xlink:href="302__aggregates_8c.html" target="_top" xlink:title="Unit test for reverse trampolines (callbacks) with aggregate types.">
<polygon fill="white" stroke="#666666" points="2044,-24.5 1934,-24.5 1934,-5.5 2044,-5.5 2044,-24.5"/>
<text text-anchor="middle" x="1989" y="-12.5" font-family="Helvetica,sans-Serif" font-size="10.00">t/302_aggregates.c</text>
</a>
</g>
</g>
<!-- Node1&#45;&gt;Node17 -->
<g id="edge16_Node000001_Node000017" class="edge">
<title>Node1&#45;&gt;Node17</title>
<g id="a_edge16_Node000001_Node000017"><a xlink:title=" ">
<path fill="none" stroke="#63b8ff" d="M2034.48,-58.91C2022.85,-47.94 2007.72,-33.67 1998.19,-24.67"/>
<polygon fill="#63b8ff" stroke="#63b8ff" points="2032.18,-61.55 2041.85,-65.87 2036.98,-56.46 2032.18,-61.55"/>
</a>
</g>
</g>
<!-- Node18 -->
<g id="Node000018" class="node">
<title>Node18</title>
<g id="a_Node000018"><a xlink:href="303__advanced_8c.html" target="_top" xlink:title="Unit test for advanced reverse trampoline (callback) scenarios.">
<polygon fill="white" stroke="#666666" points="2164,-24.5 2062,-24.5 2062,-5.5 2164,-5.5 2164,-24.5"/>
<text text-anchor="middle" x="2113" y="-12.5" font-family="Helvetica,sans-Serif" font-size="10.00">t/303_advanced.c</text>
</a>
</g>
</g>
<!-- Node1&#45;&gt;Node18 -->
<g id="edge17_Node000001_Node000018" class="edge">
<title>Node1&#45;&gt;Node18</title>
<g id="a_edge17_Node000001_Node000018"><a xlink:title=" ">
<path fill="none" stroke="#63b8ff" d="M2067.52,-58.91C2079.15,-47.94 2094.28,-33.67 2103.81,-24.67"/>
<polygon fill="#63b8ff" stroke="#63b8ff" points="2065.02,-56.46 2060.15,-65.87 2069.82,-61.55 2065.02,-56.46"/>
</a>
</g>
</g>
<!-- Node19 -->
<g id="Node000019" class="node">
<title>Node19</title>
<g id="a_Node000019"><a xlink:href="304__reverse__call__types_8c.html" target="_top" xlink:title="Unit test to explicitly compare the &quot;Callback&quot; vs. &quot;Closure&quot; reverse trampoline APIs.">
<polygon fill="white" stroke="#666666" points="2288,-30 2182,-30 2182,0 2288,0 2288,-30"/>
<text text-anchor="start" x="2190" y="-18" font-family="Helvetica,sans-Serif" font-size="10.00">t/304_reverse_call</text>
<text text-anchor="middle" x="2235" y="-7" font-family="Helvetica,sans-Serif" font-size="10.00">_types.c</text>
</a>
</g>
</g>
<!-- Node1&#45;&gt;Node19 -->
<g id="edge18_Node000001_Node000019" class="edge">
<title>Node1&#45;&gt;Node19</title>
<g id="a_edge18_Node000001_Node000019"><a xlink:title=" ">
<path fill="none" stroke="#63b8ff" d="M2087.32,-62.95C2117.01,-53.51 2159.11,-40.13 2190.76,-30.06"/>
<polygon fill="#63b8ff" stroke="#63b8ff" points="2086.22,-59.63 2077.76,-65.99 2088.35,-66.3 2086.22,-59.63"/>
</a>
</g>
</g>
<!-- Node20 -->
<g id="Node000020" class="node">
<title>Node20</title>
<g id="a_Node000020"><a xlink:href="401__large__stack_8c.html" target="_top" xlink:title="Unit test for FFI calls with a large number of arguments passed on the stack.">
<polygon fill="white" stroke="#666666" points="2417.5,-24.5 2306.5,-24.5 2306.5,-5.5 2417.5,-5.5 2417.5,-24.5"/>
<text text-anchor="middle" x="2362" y="-12.5" font-family="Helvetica,sans-Serif" font-size="10.00">t/401_large_stack.c</text>
</a>
</g>
</g>
<!-- Node1&#45;&gt;Node20 -->
<g id="edge19_Node000001_Node000020" class="edge">
<title>Node1&#45;&gt;Node20</title>
<g id="a_edge19_Node000001_Node000020"><a xlink:title=" ">
<path fill="none" stroke="#63b8ff" d="M2111.01,-64.22C2160.88,-55.54 2233.67,-42.54 2297,-30 2305.61,-28.3 2314.83,-26.37 2323.55,-24.5"/>
<polygon fill="#63b8ff" stroke="#63b8ff" points="2110.29,-60.79 2101.03,-65.95 2111.49,-67.69 2110.29,-60.79"/>
</a>
</g>
</g>
<!-- Node21 -->
<g id="Node000021" class="node">
<title>Node21</title>
<g id="a_Node000021"><a xlink:href="402__variadic__functions_8c.html" target="_top" xlink:title="Unit test for FFI calls to and from variadic C functions.">
<polygon fill="white" stroke="#666666" points="2580,-24.5 2436,-24.5 2436,-5.5 2580,-5.5 2580,-24.5"/>
<text text-anchor="middle" x="2508" y="-12.5" font-family="Helvetica,sans-Serif" font-size="10.00">t/402_variadic_functions.c</text>
</a>
</g>
</g>
<!-- Node1&#45;&gt;Node21 -->
<g id="edge20_Node000001_Node000021" class="edge">
<title>Node1&#45;&gt;Node21</title>
<g id="a_edge20_Node000001_Node000021"><a xlink:title=" ">
<path fill="none" stroke="#63b8ff" d="M2132.55,-66.12C2208.83,-57.98 2325.84,-44.72 2427,-30 2438.02,-28.4 2449.84,-26.47 2460.95,-24.57"/>
<polygon fill="#63b8ff" stroke="#63b8ff" points="2132.11,-62.64 2122.53,-67.18 2132.85,-69.61 2132.11,-62.64"/>
</a>
</g>
</g>
<!-- Node22 -->
<g id="Node000022" class="node">
<title>Node22</title>
<g id="a_Node000022"><a xlink:href="403__special__types_8c.html" target="_top" xlink:title="Unit test for FFI calls with special, non&#45;standard, or platform&#45;dependent primitive types.">
<polygon fill="white" stroke="#666666" points="2720,-24.5 2598,-24.5 2598,-5.5 2720,-5.5 2720,-24.5"/>
<text text-anchor="middle" x="2659" y="-12.5" font-family="Helvetica,sans-Serif" font-size="10.00">t/403_special_types.c</text>
</a>
</g>
</g>
<!-- Node1&#45;&gt;Node22 -->
<g id="edge21_Node000001_Node000022" class="edge">
<title>Node1&#45;&gt;Node22</title>
<g id="a_edge21_Node000001_Node000022"><a xlink:title=" ">
<path fill="none" stroke="#63b8ff" d="M2132.93,-70.66C2238.69,-65.02 2428.23,-52.65 2589,-30 2599.31,-28.55 2610.39,-26.54 2620.62,-24.5"/>
<polygon fill="#63b8ff" stroke="#63b8ff" points="2132.45,-67.18 2122.65,-71.2 2132.82,-74.17 2132.45,-67.18"/>
</a>
</g>
</g>
<!-- Node23 -->
<g id="Node000023" class="node">
<title>Node23</title>
<g id="a_Node000023"><a xlink:href="810__memory__stress_8c.html" target="_top" xlink:title="A stress test to detect memory leaks under heavy allocation/deallocation cycles.">
<polygon fill="white" stroke="#666666" points="2869.5,-24.5 2738.5,-24.5 2738.5,-5.5 2869.5,-5.5 2869.5,-24.5"/>
<text text-anchor="middle" x="2804" y="-12.5" font-family="Helvetica,sans-Serif" font-size="10.00">t/810_memory_stress.c</text>
</a>
</g>
</g>
<!-- Node1&#45;&gt;Node23 -->
<g id="edge22_Node000001_Node000023" class="edge">
<title>Node1&#45;&gt;Node23</title>
<g id="a_edge22_Node000001_Node000023"><a xlink:title=" ">
<path fill="none" stroke="#63b8ff" d="M2132.61,-72.28C2260.27,-68.1 2514.77,-56.93 2729,-30 2740.17,-28.6 2752.19,-26.58 2763.27,-24.52"/>
<polygon fill="#63b8ff" stroke="#63b8ff" points="2132.41,-68.78 2122.52,-72.6 2132.63,-75.78 2132.41,-68.78"/>
</a>
</g>
</g>
<!-- Node24 -->
<g id="Node000024" class="node">
<title>Node24</title>
<g id="a_Node000024"><a xlink:href="811__fault__injection_8c.html" target="_top" xlink:title="Unit test to verify resource cleanup under memory allocation failures.">
<polygon fill="white" stroke="#666666" points="3012.5,-24.5 2887.5,-24.5 2887.5,-5.5 3012.5,-5.5 3012.5,-24.5"/>
<text text-anchor="middle" x="2950" y="-12.5" font-family="Helvetica,sans-Serif" font-size="10.00">t/811_fault_injection.c</text>
</a>
</g>
</g>
<!-- Node1&#45;&gt;Node24 -->
<g id="edge23_Node000001_Node000024" class="edge">
<title>Node1&#45;&gt;Node24</title>
<g id="a_edge23_Node000001_Node000024"><a xlink:title=" ">
<path fill="none" stroke="#63b8ff" d="M2133.17,-73.91C2282.32,-72 2607.32,-63.91 2879,-30 2889.72,-28.66 2901.25,-26.64 2911.84,-24.55"/>
<polygon fill="#63b8ff" stroke="#63b8ff" points="2132.69,-70.42 2122.74,-74.04 2132.78,-77.42 2132.69,-70.42"/>
</a>
</g>
</g>
<!-- Node25 -->
<g id="Node000025" class="node">
<title>Node25</title>
<g id="a_Node000025"><a xlink:href="812__shared__arena_8c.html" target="_top" xlink:title="Unit test for advanced arena&#45;based memory management features.">
<polygon fill="white" stroke="#666666" points="3151.5,-24.5 3030.5,-24.5 3030.5,-5.5 3151.5,-5.5 3151.5,-24.5"/>
<text text-anchor="middle" x="3091" y="-12.5" font-family="Helvetica,sans-Serif" font-size="10.00">t/812_shared_arena.c</text>
</a>
</g>
</g>
<!-- Node1&#45;&gt;Node25 -->
<g id="edge24_Node000001_Node000025" class="edge">
<title>Node1&#45;&gt;Node25</title>
<g id="a_edge24_Node000001_Node000025"><a xlink:title=" ">
<path fill="none" stroke="#63b8ff" d="M2132.81,-75C2300.34,-75.09 2694.32,-70.51 3022,-30 3032.55,-28.7 3043.9,-26.66 3054.29,-24.54"/>
<polygon fill="#63b8ff" stroke="#63b8ff" points="2132.59,-71.5 2122.58,-74.99 2132.58,-78.5 2132.59,-71.5"/>
</a>
</g>
</g>
<!-- Node26 -->
<g id="Node000026" class="node">
<title>Node26</title>
<g id="a_Node000026"><a xlink:href="820__threading__helgrind_8c.html" target="_top" xlink:title="A stress test to detect data races and other threading issues.">
<polygon fill="white" stroke="#666666" points="3316,-24.5 3170,-24.5 3170,-5.5 3316,-5.5 3316,-24.5"/>
<text text-anchor="middle" x="3243" y="-12.5" font-family="Helvetica,sans-Serif" font-size="10.00">t/820_threading_helgrind.c</text>
</a>
</g>
</g>
<!-- Node1&#45;&gt;Node26 -->
<g id="edge25_Node000001_Node000026" class="edge">
<title>Node1&#45;&gt;Node26</title>
<g id="a_edge25_Node000001_Node000026"><a xlink:title=" ">
<path fill="none" stroke="#63b8ff" d="M2132.8,-74.82C2316.95,-74.77 2777.91,-70.21 3161,-30 3173.5,-28.69 3186.97,-26.65 3199.31,-24.53"/>
<polygon fill="#63b8ff" stroke="#63b8ff" points="2132.65,-71.32 2122.65,-74.82 2132.65,-78.32 2132.65,-71.32"/>
</a>
</g>
</g>
<!-- Node27 -->
<g id="Node000027" class="node">
<title>Node27</title>
<g id="a_Node000027"><a xlink:href="830__security_8c.html" target="_top" xlink:title="Unit test for security&#45;hardening features of the infix library.">
<polygon fill="white" stroke="#666666" points="3426,-24.5 3334,-24.5 3334,-5.5 3426,-5.5 3426,-24.5"/>
<text text-anchor="middle" x="3380" y="-12.5" font-family="Helvetica,sans-Serif" font-size="10.00">t/830_security.c</text>
</a>
</g>
</g>
<!-- Node1&#45;&gt;Node27 -->
<g id="edge26_Node000001_Node000027" class="edge">
<title>Node1&#45;&gt;Node27</title>
<g id="a_edge26_Node000001_Node000027"><a xlink:title=" ">
<path fill="none" stroke="#63b8ff" d="M2133.08,-73.93C2376.8,-71.87 3093.63,-63.1 3325,-30 3333.68,-28.76 3342.97,-26.69 3351.4,-24.51"/>
<polygon fill="#63b8ff" stroke="#63b8ff" points="2132.85,-70.43 2122.88,-74.01 2132.9,-77.43 2132.85,-70.43"/>
</a>
</g>
</g>
<!-- Node28 -->
<g id="Node000028" class="node">
<title>Node28</title>
<g id="a_Node000028"><a xlink:href="840__arena__allocator_8c.html" target="_top" xlink:title="Unit test for the internal arena allocator.">
<polygon fill="white" stroke="#666666" points="3574,-24.5 3444,-24.5 3444,-5.5 3574,-5.5 3574,-24.5"/>
<text text-anchor="middle" x="3509" y="-12.5" font-family="Helvetica,sans-Serif" font-size="10.00">t/840_arena_allocator.c</text>
</a>
</g>
</g>
<!-- Node1&#45;&gt;Node28 -->
<g id="edge27_Node000001_Node000028" class="edge">
<title>Node1&#45;&gt;Node28</title>
<g id="a_edge27_Node000001_Node000028"><a xlink:title=" ">
<path fill="none" stroke="#63b8ff" d="M2132.93,-73.53C2390.27,-70.23 3180.32,-58.01 3435,-30 3446.44,-28.74 3458.76,-26.69 3470,-24.55"/>
<polygon fill="#63b8ff" stroke="#63b8ff" points="2132.86,-70.03 2122.91,-73.66 2132.95,-77.03 2132.86,-70.03"/>
</a>
</g>
</g>
<!-- Node29 -->
<g id="Node000029" class="node">
<title>Node29</title>
<g id="a_Node000029"><a xlink:href="850__regression__cases_8c.html" target="_top" xlink:title="A suite of regression tests for bugs discovered by fuzzing.">
<polygon fill="white" stroke="#666666" points="3731.5,-24.5 3592.5,-24.5 3592.5,-5.5 3731.5,-5.5 3731.5,-24.5"/>
<text text-anchor="middle" x="3662" y="-12.5" font-family="Helvetica,sans-Serif" font-size="10.00">t/850_regression_cases.c</text>
</a>
</g>
</g>
<!-- Node1&#45;&gt;Node29 -->
<g id="edge28_Node000001_Node000029" class="edge">
<title>Node1&#45;&gt;Node29</title>
<g id="a_edge28_Node000001_Node000029"><a xlink:title=" ">
<path fill="none" stroke="#63b8ff" d="M2133.03,-73.7C2408.34,-70.77 3297.98,-59.24 3583,-30 3595.19,-28.75 3608.34,-26.7 3620.34,-24.56"/>
<polygon fill="#63b8ff" stroke="#63b8ff" points="2132.68,-70.21 2122.72,-73.81 2132.76,-77.2 2132.68,-70.21"/>
</a>
</g>
</g>
<!-- Node30 -->
<g id="Node000030" class="node">
<title>Node30</title>
<g id="a_Node000030"><a xlink:href="851__lifecycle__regression_8c.html" target="_top" xlink:title="Regression tests for specific memory lifecycle and ownership bugs.">
<polygon fill="white" stroke="#666666" points="3902,-24.5 3750,-24.5 3750,-5.5 3902,-5.5 3902,-24.5"/>
<text text-anchor="middle" x="3826" y="-12.5" font-family="Helvetica,sans-Serif" font-size="10.00">t/851_lifecycle_regression.c</text>
</a>
</g>
</g>
<!-- Node1&#45;&gt;Node30 -->
<g id="edge29_Node000001_Node000030" class="edge">
<title>Node1&#45;&gt;Node30</title>
<g id="a_edge29_Node000001_Node000030"><a xlink:title=" ">
<path fill="none" stroke="#63b8ff" d="M2132.93,-73.83C2426.24,-71.2 3423.36,-60.2 3741,-30 3754.1,-28.75 3768.24,-26.71 3781.15,-24.57"/>
<polygon fill="#63b8ff" stroke="#63b8ff" points="2132.76,-70.33 2122.79,-73.92 2132.82,-77.33 2132.76,-70.33"/>
</a>
</g>
</g>
<!-- Node31 -->
<g id="Node000031" class="node">
<title>Node31</title>
<g id="a_Node000031"><a xlink:href="860__error__handling_8c.html" target="_top" xlink:title="Unit test for the error reporting system.">
<polygon fill="white" stroke="#666666" points="4045.5,-24.5 3920.5,-24.5 3920.5,-5.5 4045.5,-5.5 4045.5,-24.5"/>
<text text-anchor="middle" x="3983" y="-12.5" font-family="Helvetica,sans-Serif" font-size="10.00">t/860_error_handling.c</text>
</a>
</g>
</g>
<!-- Node1&#45;&gt;Node31 -->
<g id="edge30_Node000001_Node000031" class="edge">
<title>Node1&#45;&gt;Node31</title>
<g id="a_edge30_Node000001_Node000031"><a xlink:title=" ">
<path fill="none" stroke="#63b8ff" d="M2132.92,-74.37C2444.89,-73.6 3558.85,-68.18 3911,-30 3922.27,-28.78 3934.4,-26.71 3945.44,-24.54"/>
<polygon fill="#63b8ff" stroke="#63b8ff" points="2132.59,-70.87 2122.6,-74.4 2132.61,-77.87 2132.59,-70.87"/>
</a>
</g>
</g>
<!-- Node32 -->
<g id="Node000032" class="node">
<title>Node32</title>
<g id="a_Node000032"><a xlink:href="901__call__overhead_8c.html" target="_top" xlink:title="A micro&#45;benchmark to measure the performance overhead of an FFI call.">
<polygon fill="white" stroke="#666666" points="4186.5,-24.5 4063.5,-24.5 4063.5,-5.5 4186.5,-5.5 4186.5,-24.5"/>
<text text-anchor="middle" x="4125" y="-12.5" font-family="Helvetica,sans-Serif" font-size="10.00">t/901_call_overhead.c</text>
</a>
</g>
</g>
<!-- Node1&#45;&gt;Node32 -->
<g id="edge31_Node000001_Node000032" class="edge">
<title>Node1&#45;&gt;Node32</title>
<g id="a_edge31_Node000001_Node000032"><a xlink:title=" ">
<path fill="none" stroke="#63b8ff" d="M2132.9,-74.6C2459.98,-74.68 3673.24,-72.09 4055,-30 4065.96,-28.79 4077.76,-26.73 4088.5,-24.56"/>
<polygon fill="#63b8ff" stroke="#63b8ff" points="2132.57,-71.1 2122.57,-74.59 2132.56,-78.1 2132.57,-71.1"/>
</a>
</g>
</g>
<!-- Node33 -->
<g id="Node000033" class="node">
<title>Node33</title>
<g id="a_Node000033"><a xlink:href="903__generation__benchmark_8c.html" target="_top" xlink:title="A micro&#45;benchmark to measure the performance of trampoline generation.">
<polygon fill="white" stroke="#666666" points="4371.5,-24.5 4204.5,-24.5 4204.5,-5.5 4371.5,-5.5 4371.5,-24.5"/>
<text text-anchor="middle" x="4288" y="-12.5" font-family="Helvetica,sans-Serif" font-size="10.00">t/903_generation_benchmark.c</text>
</a>
</g>
</g>
<!-- Node1&#45;&gt;Node33 -->
<g id="edge32_Node000001_Node000033" class="edge">
<title>Node1&#45;&gt;Node33</title>
<g id="a_edge32_Node000001_Node000033"><a xlink:title=" ">
<path fill="none" stroke="#63b8ff" d="M2132.64,-74.23C2473.45,-72.88 3784.07,-65.46 4196,-30 4210.33,-28.77 4225.81,-26.7 4239.92,-24.53"/>
<polygon fill="#63b8ff" stroke="#63b8ff" points="2132.58,-70.73 2122.6,-74.27 2132.61,-77.73 2132.58,-70.73"/>
</a>
</g>
</g>
</g>
</svg>
