<?xml version="1.0" encoding="UTF-8" standalone="no"?>
<!DOCTYPE svg PUBLIC "-//W3C//DTD SVG 1.1//EN"
 "http://www.w3.org/Graphics/SVG/1.1/DTD/svg11.dtd">
<!-- Generated by graphviz version 2.43.0 (0)
 -->
<!-- Title: src/common/double_tap.h Pages: 1 -->
<!--zoomable 93 -->

<svg id="main" version="1.1" xmlns="http://www.w3.org/2000/svg" xmlns:xlink="http://www.w3.org/1999/xlink" xml:space="preserve" onload="init(evt)">
<style type="text/css"><![CDATA[
.node, .edge {opacity: 0.7;}
.node.selected, .edge.selected {opacity: 1;}
.edge:hover path { stroke: red; }
.edge:hover polygon { stroke: red; fill: red; }
]]></style>

<defs>
  <circle id="rim" cx="0" cy="0" r="7"/>
  <circle id="rim2" cx="0" cy="0" r="3.5"/>
  <g id="zoomPlus">
    <use xlink:href="#rim" fill="#404040"><set attributeName="fill" to="#808080" begin="zoomplus.mouseover" end="zoomplus.mouseout"/></use>
    <path d="M-4,0h8M0,-4v8" fill="none" stroke="white" stroke-width="1.5" pointer-events="none"/>
  </g>
  <g id="zoomMin">
    <use xlink:href="#rim" fill="#404040"><set attributeName="fill" to="#808080" begin="zoomminus.mouseover" end="zoomminus.mouseout"/></use>
    <path d="M-4,0h8" fill="none" stroke="white" stroke-width="1.5" pointer-events="none"/>
  </g>
  <g id="arrowUp" transform="translate(30 24)">
    <use xlink:href="#rim"/>
    <path pointer-events="none" fill="none" stroke="white" stroke-width="1.5" d="M0,-3.0v7 M-2.5,-0.5L0,-3.0L2.5,-0.5"/>
  </g>
  <g id="arrowRight" transform="rotate(90) translate(36 -43)">
    <use xlink:href="#rim"/>
    <path pointer-events="none" fill="none" stroke="white" stroke-width="1.5" d="M0,-3.0v7 M-2.5,-0.5L0,-3.0L2.5,-0.5"/>
  </g>
  <g id="arrowDown" transform="rotate(180) translate(-30 -48)">
    <use xlink:href="#rim"/>
    <path pointer-events="none" fill="none" stroke="white" stroke-width="1.5" d="M0,-3.0v7 M-2.5,-0.5L0,-3.0L2.5,-0.5"/>
  </g>
  <g id="arrowLeft" transform="rotate(270) translate(-36 17)">
    <use xlink:href="#rim"/>
    <path pointer-events="none" fill="none" stroke="white" stroke-width="1.5" d="M0,-3.0v7 M-2.5,-0.5L0,-3.0L2.5,-0.5"/>
  </g>
  <g id="resetDef">
    <use xlink:href="#rim2" fill="#404040"><set attributeName="fill" to="#808080" begin="reset.mouseover" end="reset.mouseout"/></use>
  </g>
</defs>
<script type="application/ecmascript">
var viewWidth = 4544;
var viewHeight = 93;
var sectionId = 'dynsection-0';
</script>
<script type="application/ecmascript" xlink:href="svg.min.js"/>
<svg id="graph" class="graph">
<g id="viewport">
<title>src/common/double_tap.h</title>
<!-- Node1 -->
<g id="Node000001" class="node">
<title>Node1</title>
<g id="a_Node000001"><a xlink:title="A lightweight, single&#45;header TAP (Test Anything Protocol) library.">
<polygon fill="#999999" stroke="#666666" points="2184.5,-85 2041.5,-85 2041.5,-66 2184.5,-66 2184.5,-85"/>
<text text-anchor="middle" x="2113" y="-73" font-family="Helvetica,sans-Serif" font-size="10.00">src/common/double_tap.h</text>
</a>
</g>
</g>
<!-- Node2 -->
<g id="Node000002" class="node">
<title>Node2</title>
<g id="a_Node000002"><a xlink:href="001__primitives_8c.html" target="_top" xlink:title="Unit test for creating trampolines for functions with primitive C types.">
<polygon fill="white" stroke="#666666" points="104,-24.5 0,-24.5 0,-5.5 104,-5.5 104,-24.5"/>
<text text-anchor="middle" x="52" y="-12.5" font-family="Helvetica,sans-Serif" font-size="10.00">t/001_primitives.c</text>
</a>
</g>
</g>
<!-- Node1&#45;&gt;Node2 -->
<g id="edge1_Node000001_Node000002" class="edge">
<title>Node1&#45;&gt;Node2</title>
<g id="a_edge1_Node000001_Node000002"><a xlink:title=" ">
<path fill="none" stroke="#63b8ff" d="M2030.95,-74.9C1703.98,-76.14 493.26,-77.37 113,-30 103.3,-28.79 92.88,-26.7 83.44,-24.5"/>
<polygon fill="#63b8ff" stroke="#63b8ff" points="2031.3,-78.4 2041.29,-74.86 2031.27,-71.4 2031.3,-78.4"/>
</a>
</g>
</g>
<!-- Node3 -->
<g id="Node000003" class="node">
<title>Node3</title>
<g id="a_Node000003"><a xlink:href="002__simple__calls_8c.html" target="_top" xlink:title="Unit test for basic forward trampoline calls with simple function signatures.">
<polygon fill="white" stroke="#666666" points="238,-24.5 122,-24.5 122,-5.5 238,-5.5 238,-24.5"/>
<text text-anchor="middle" x="180" y="-12.5" font-family="Helvetica,sans-Serif" font-size="10.00">t/002_simple_calls.c</text>
</a>
</g>
</g>
<!-- Node1&#45;&gt;Node3 -->
<g id="edge2_Node000001_Node000003" class="edge">
<title>Node1&#45;&gt;Node3</title>
<g id="a_edge2_Node000001_Node000003"><a xlink:title=" ">
<path fill="none" stroke="#63b8ff" d="M2031.07,-74.53C1718.39,-74.34 600.11,-70.76 247,-30 236.49,-28.79 225.19,-26.73 214.92,-24.55"/>
<polygon fill="#63b8ff" stroke="#63b8ff" points="2031.4,-78.03 2041.41,-74.54 2031.41,-71.03 2031.4,-78.03"/>
</a>
</g>
</g>
<!-- Node4 -->
<g id="Node000004" class="node">
<title>Node4</title>
<g id="a_Node000004"><a xlink:href="003__type__system__api_8c.html" target="_top" xlink:title="Unit test for the Manual API (infix_type_create_* functions).">
<polygon fill="white" stroke="#666666" points="394,-24.5 256,-24.5 256,-5.5 394,-5.5 394,-24.5"/>
<text text-anchor="middle" x="325" y="-12.5" font-family="Helvetica,sans-Serif" font-size="10.00">t/003_type_system_api.c</text>
</a>
</g>
</g>
<!-- Node1&#45;&gt;Node4 -->
<g id="edge3_Node000001_Node000004" class="edge">
<title>Node1&#45;&gt;Node4</title>
<g id="a_edge3_Node000001_Node000004"><a xlink:title=" ">
<path fill="none" stroke="#63b8ff" d="M2031.1,-74.02C1735.55,-72.01 724.54,-62.85 403,-30 390.82,-28.76 377.68,-26.68 365.72,-24.51"/>
<polygon fill="#63b8ff" stroke="#63b8ff" points="2031.28,-77.52 2041.3,-74.08 2031.33,-70.52 2031.28,-77.52"/>
</a>
</g>
</g>
<!-- Node5 -->
<g id="Node000005" class="node">
<title>Node5</title>
<g id="a_Node000005"><a xlink:href="004__signatures_8c.html" target="_top" xlink:title="Unit test for the signature string parser.">
<polygon fill="white" stroke="#666666" points="518,-24.5 412,-24.5 412,-5.5 518,-5.5 518,-24.5"/>
<text text-anchor="middle" x="465" y="-12.5" font-family="Helvetica,sans-Serif" font-size="10.00">t/004_signatures.c</text>
</a>
</g>
</g>
<!-- Node1&#45;&gt;Node5 -->
<g id="edge4_Node000001_Node000005" class="edge">
<title>Node1&#45;&gt;Node5</title>
<g id="a_edge4_Node000001_Node000005"><a xlink:title=" ">
<path fill="none" stroke="#63b8ff" d="M2031.35,-74.3C1750.08,-73.29 822.45,-67.14 527,-30 517.26,-28.77 506.79,-26.71 497.29,-24.54"/>
<polygon fill="#63b8ff" stroke="#63b8ff" points="2031.47,-77.8 2041.48,-74.34 2031.49,-70.8 2031.47,-77.8"/>
</a>
</g>
</g>
<!-- Node6 -->
<g id="Node000006" class="node">
<title>Node6</title>
<g id="a_Node000006"><a xlink:href="005__layouts_8c.html" target="_top" xlink:title="Unit test for the Manual API&#39;s struct and union layout calculations.">
<polygon fill="white" stroke="#666666" points="627.5,-24.5 536.5,-24.5 536.5,-5.5 627.5,-5.5 627.5,-24.5"/>
<text text-anchor="middle" x="582" y="-12.5" font-family="Helvetica,sans-Serif" font-size="10.00">t/005_layouts.c</text>
</a>
</g>
</g>
<!-- Node1&#45;&gt;Node6 -->
<g id="edge5_Node000001_Node000006" class="edge">
<title>Node1&#45;&gt;Node6</title>
<g id="a_edge5_Node000001_Node000006"><a xlink:title=" ">
<path fill="none" stroke="#63b8ff" d="M2031.05,-74.44C1762.17,-73.86 908.52,-68.93 636,-30 627.47,-28.78 618.34,-26.72 610.06,-24.54"/>
<polygon fill="#63b8ff" stroke="#63b8ff" points="2031.12,-77.94 2041.13,-74.46 2031.13,-70.94 2031.12,-77.94"/>
</a>
</g>
</g>
<!-- Node7 -->
<g id="Node000007" class="node">
<title>Node7</title>
<g id="a_Node000007"><a xlink:href="006__end__to__end__calls_8c.html" target="_top" xlink:title="End&#45;to&#45;end unit test for passing and returning aggregate types (structs).">
<polygon fill="white" stroke="#666666" points="784.5,-24.5 645.5,-24.5 645.5,-5.5 784.5,-5.5 784.5,-24.5"/>
<text text-anchor="middle" x="715" y="-12.5" font-family="Helvetica,sans-Serif" font-size="10.00">t/006_end_to_end_calls.c</text>
</a>
</g>
</g>
<!-- Node1&#45;&gt;Node7 -->
<g id="edge6_Node000001_Node000007" class="edge">
<title>Node1&#45;&gt;Node7</title>
<g id="a_edge6_Node000001_Node000007"><a xlink:title=" ">
<path fill="none" stroke="#63b8ff" d="M2031.12,-73.26C1782.02,-69.24 1035.61,-55.36 794,-30 781.81,-28.72 768.66,-26.67 756.66,-24.52"/>
<polygon fill="#63b8ff" stroke="#63b8ff" points="2031.13,-76.76 2041.19,-73.42 2031.25,-69.76 2031.13,-76.76"/>
</a>
</g>
</g>
<!-- Node8 -->
<g id="Node000008" class="node">
<title>Node8</title>
<g id="a_Node000008"><a xlink:href="007__type__registry_8c.html" target="_top" xlink:title="Unit test for the named type registry system.">
<polygon fill="white" stroke="#666666" points="921,-24.5 803,-24.5 803,-5.5 921,-5.5 921,-24.5"/>
<text text-anchor="middle" x="862" y="-12.5" font-family="Helvetica,sans-Serif" font-size="10.00">t/007_type_registry.c</text>
</a>
</g>
</g>
<!-- Node1&#45;&gt;Node8 -->
<g id="edge7_Node000001_Node000008" class="edge">
<title>Node1&#45;&gt;Node8</title>
<g id="a_edge7_Node000001_Node000008"><a xlink:title=" ">
<path fill="none" stroke="#63b8ff" d="M2031.28,-73.19C1799.98,-69.19 1143.74,-55.84 930,-30 919.47,-28.73 908.14,-26.67 897.81,-24.53"/>
<polygon fill="#63b8ff" stroke="#63b8ff" points="2031.25,-76.69 2041.31,-73.36 2031.37,-69.69 2031.25,-76.69"/>
</a>
</g>
</g>
<!-- Node9 -->
<g id="Node000009" class="node">
<title>Node9</title>
<g id="a_Node000009"><a xlink:href="008__registry__introspection_8c.html" target="_top" xlink:title="Unit test for the registry introspection and serialization APIs.">
<polygon fill="white" stroke="#666666" points="1100.5,-24.5 939.5,-24.5 939.5,-5.5 1100.5,-5.5 1100.5,-24.5"/>
<text text-anchor="middle" x="1020" y="-12.5" font-family="Helvetica,sans-Serif" font-size="10.00">t/008_registry_introspection.c</text>
</a>
</g>
</g>
<!-- Node1&#45;&gt;Node9 -->
<g id="edge8_Node000001_Node000009" class="edge">
<title>Node1&#45;&gt;Node9</title>
<g id="a_edge8_Node000001_Node000009"><a xlink:title=" ">
<path fill="none" stroke="#63b8ff" d="M2031.07,-73.96C1859.56,-72.16 1450.32,-64.3 1109,-30 1095.62,-28.65 1081.18,-26.63 1067.91,-24.54"/>
<polygon fill="#63b8ff" stroke="#63b8ff" points="2031.25,-77.47 2041.28,-74.07 2031.32,-70.47 2031.25,-77.47"/>
</a>
</g>
</g>
<!-- Node10 -->
<g id="Node000010" class="node">
<title>Node10</title>
<g id="a_Node000010"><a xlink:href="101__by__value_8c.html" target="_top" xlink:title="Unit test for passing and returning aggregates and vectors by value.">
<polygon fill="white" stroke="#666666" points="1217.5,-24.5 1118.5,-24.5 1118.5,-5.5 1217.5,-5.5 1217.5,-24.5"/>
<text text-anchor="middle" x="1168" y="-12.5" font-family="Helvetica,sans-Serif" font-size="10.00">t/101_by_value.c</text>
</a>
</g>
</g>
<!-- Node1&#45;&gt;Node10 -->
<g id="edge9_Node000001_Node000010" class="edge">
<title>Node1&#45;&gt;Node10</title>
<g id="a_edge9_Node000001_Node000010"><a xlink:title=" ">
<path fill="none" stroke="#63b8ff" d="M2031.23,-72.35C1842.31,-67.07 1379.97,-52.25 1226,-30 1217.08,-28.71 1207.52,-26.68 1198.8,-24.56"/>
<polygon fill="#63b8ff" stroke="#63b8ff" points="2031.28,-75.85 2041.37,-72.63 2031.47,-68.86 2031.28,-75.85"/>
</a>
</g>
</g>
<!-- Node11 -->
<g id="Node000011" class="node">
<title>Node11</title>
<g id="a_Node000011"><a xlink:href="102__by__reference_8c.html" target="_top" xlink:title="Unit test for passing and returning large aggregates by reference.">
<polygon fill="white" stroke="#666666" points="1354.5,-24.5 1235.5,-24.5 1235.5,-5.5 1354.5,-5.5 1354.5,-24.5"/>
<text text-anchor="middle" x="1295" y="-12.5" font-family="Helvetica,sans-Serif" font-size="10.00">t/102_by_reference.c</text>
</a>
</g>
</g>
<!-- Node1&#45;&gt;Node11 -->
<g id="edge10_Node000001_Node000011" class="edge">
<title>Node1&#45;&gt;Node11</title>
<g id="a_edge10_Node000001_Node000011"><a xlink:title=" ">
<path fill="none" stroke="#63b8ff" d="M2031.23,-73.49C1893,-70.92 1604.6,-61.87 1363,-30 1352.72,-28.64 1341.68,-26.62 1331.54,-24.53"/>
<polygon fill="#63b8ff" stroke="#63b8ff" points="2031.26,-76.99 2041.32,-73.67 2031.39,-69.99 2031.26,-76.99"/>
</a>
</g>
</g>
<!-- Node12 -->
<g id="Node000012" class="node">
<title>Node12</title>
<g id="a_Node000012"><a xlink:href="103__unions_8c.html" target="_top" xlink:title="Unit test for passing and returning unions by value.">
<polygon fill="white" stroke="#666666" points="1459.5,-24.5 1372.5,-24.5 1372.5,-5.5 1459.5,-5.5 1459.5,-24.5"/>
<text text-anchor="middle" x="1416" y="-12.5" font-family="Helvetica,sans-Serif" font-size="10.00">t/103_unions.c</text>
</a>
</g>
</g>
<!-- Node1&#45;&gt;Node12 -->
<g id="edge11_Node000001_Node000012" class="edge">
<title>Node1&#45;&gt;Node12</title>
<g id="a_edge11_Node000001_Node000012"><a xlink:title=" ">
<path fill="none" stroke="#63b8ff" d="M2031.42,-73.79C1908.62,-71.62 1669.32,-63.07 1469,-30 1460.92,-28.67 1452.29,-26.65 1444.39,-24.56"/>
<polygon fill="#63b8ff" stroke="#63b8ff" points="2031.44,-77.29 2041.49,-73.96 2031.55,-70.3 2031.44,-77.29"/>
</a>
</g>
</g>
<!-- Node13 -->
<g id="Node000013" class="node">
<title>Node13</title>
<g id="a_Node000013"><a xlink:href="201__basic_8c.html" target="_top" xlink:title="Unit test for FFI calls involving pointer types.">
<polygon fill="white" stroke="#666666" points="1558,-24.5 1478,-24.5 1478,-5.5 1558,-5.5 1558,-24.5"/>
<text text-anchor="middle" x="1518" y="-12.5" font-family="Helvetica,sans-Serif" font-size="10.00">t/201_basic.c</text>
</a>
</g>
</g>
<!-- Node1&#45;&gt;Node13 -->
<g id="edge12_Node000001_Node000013" class="edge">
<title>Node1&#45;&gt;Node13</title>
<g id="a_edge12_Node000001_Node000013"><a xlink:title=" ">
<path fill="none" stroke="#63b8ff" d="M2031.19,-72.84C1923.84,-69.53 1729.94,-59.62 1567,-30 1559.51,-28.64 1551.53,-26.61 1544.22,-24.52"/>
<polygon fill="#63b8ff" stroke="#63b8ff" points="2031.2,-76.35 2041.3,-73.15 2031.41,-69.35 2031.2,-76.35"/>
</a>
</g>
</g>
<!-- Node14 -->
<g id="Node000014" class="node">
<title>Node14</title>
<g id="a_Node000014"><a xlink:href="202__in__structs_8c.html" target="_top" xlink:title="Unit test for passing structs that contain pointer members.">
<polygon fill="white" stroke="#666666" points="1678,-24.5 1576,-24.5 1576,-5.5 1678,-5.5 1678,-24.5"/>
<text text-anchor="middle" x="1627" y="-12.5" font-family="Helvetica,sans-Serif" font-size="10.00">t/202_in_structs.c</text>
</a>
</g>
</g>
<!-- Node1&#45;&gt;Node14 -->
<g id="edge13_Node000001_Node000014" class="edge">
<title>Node1&#45;&gt;Node14</title>
<g id="a_edge13_Node000001_Node000014"><a xlink:title=" ">
<path fill="none" stroke="#63b8ff" d="M2031.17,-69.01C1945.1,-62.52 1805.91,-50 1687,-30 1678.24,-28.53 1668.86,-26.54 1660.17,-24.52"/>
<polygon fill="#63b8ff" stroke="#63b8ff" points="2031.17,-72.52 2041.4,-69.77 2031.69,-65.54 2031.17,-72.52"/>
</a>
</g>
</g>
<!-- Node15 -->
<g id="Node000015" class="node">
<title>Node15</title>
<g id="a_Node000015"><a xlink:href="203__complex_8c.html" target="_top" xlink:title="Unit test for FFI calls involving C99 _Complex types.">
<polygon fill="white" stroke="#666666" points="1793.5,-24.5 1696.5,-24.5 1696.5,-5.5 1793.5,-5.5 1793.5,-24.5"/>
<text text-anchor="middle" x="1745" y="-12.5" font-family="Helvetica,sans-Serif" font-size="10.00">t/203_complex.c</text>
</a>
</g>
</g>
<!-- Node1&#45;&gt;Node15 -->
<g id="edge14_Node000001_Node000015" class="edge">
<title>Node1&#45;&gt;Node15</title>
<g id="a_edge14_Node000001_Node000015"><a xlink:title=" ">
<path fill="none" stroke="#63b8ff" d="M2031.04,-64.88C1968.35,-57 1879.88,-44.76 1803,-30 1794.86,-28.44 1786.15,-26.48 1778.01,-24.54"/>
<polygon fill="#63b8ff" stroke="#63b8ff" points="2030.91,-68.39 2041.27,-66.15 2031.78,-61.44 2030.91,-68.39"/>
</a>
</g>
</g>
<!-- Node16 -->
<g id="Node000016" class="node">
<title>Node16</title>
<g id="a_Node000016"><a xlink:href="301__primitives_8c.html" target="_top" xlink:title="Unit test for reverse trampolines (callbacks) with primitive C types.">
<polygon fill="white" stroke="#666666" points="1916,-24.5 1812,-24.5 1812,-5.5 1916,-5.5 1916,-24.5"/>
<text text-anchor="middle" x="1864" y="-12.5" font-family="Helvetica,sans-Serif" font-size="10.00">t/301_primitives.c</text>
</a>
</g>
</g>
<!-- Node1&#45;&gt;Node16 -->
<g id="edge15_Node000001_Node000016" class="edge">
<title>Node1&#45;&gt;Node16</title>
<g id="a_edge15_Node000001_Node000016"><a xlink:title=" ">
<path fill="none" stroke="#63b8ff" d="M2066.95,-63.68C2018.83,-52.38 1944.34,-34.88 1900.25,-24.52"/>
<polygon fill="#63b8ff" stroke="#63b8ff" points="2066.26,-67.11 2076.79,-65.99 2067.86,-60.3 2066.26,-67.11"/>
</a>
</g>
</g>
<!-- Node17 -->
<g id="Node000017" class="node">
<title>Node17</title>
<g id="a_Node000017"><a xlink:href="302__aggregates_8c.html" target="_top" xlink:title="Unit test for reverse trampolines (callbacks) with aggregate types.">
<polygon fill="white" stroke="#666666" points="2044,-24.5 1934,-24.5 1934,-5.5 2044,-5.5 2044,-24.5"/>
<text text-anchor="middle" x="1989" y="-12.5" font-family="Helvetica,sans-Serif" font-size="10.00">t/302_aggregates.c</text>
</a>
</g>
</g>
<!-- Node1&#45;&gt;Node17 -->
<g id="edge16_Node000001_Node000017" class="edge">
<title>Node1&#45;&gt;Node17</title>
<g id="a_edge16_Node000001_Node000017"><a xlink:title=" ">
<path fill="none" stroke="#63b8ff" d="M2085.73,-61.63C2061.81,-50.35 2027.72,-34.27 2007.05,-24.52"/>
<polygon fill="#63b8ff" stroke="#63b8ff" points="2084.43,-64.89 2094.97,-65.99 2087.42,-58.56 2084.43,-64.89"/>
</a>
</g>
</g>
<!-- Node18 -->
<g id="Node000018" class="node">
<title>Node18</title>
<g id="a_Node000018"><a xlink:href="303__advanced_8c.html" target="_top" xlink:title="Unit test for advanced reverse trampoline (callback) scenarios.">
<polygon fill="white" stroke="#666666" points="2164,-24.5 2062,-24.5 2062,-5.5 2164,-5.5 2164,-24.5"/>
<text text-anchor="middle" x="2113" y="-12.5" font-family="Helvetica,sans-Serif" font-size="10.00">t/303_advanced.c</text>
</a>
</g>
</g>
<!-- Node1&#45;&gt;Node18 -->
<g id="edge17_Node000001_Node000018" class="edge">
<title>Node1&#45;&gt;Node18</title>
<g id="a_edge17_Node000001_Node000018"><a xlink:title=" ">
<path fill="none" stroke="#63b8ff" d="M2113,-55.66C2113,-45.24 2113,-32.8 2113,-24.67"/>
<polygon fill="#63b8ff" stroke="#63b8ff" points="2109.5,-55.87 2113,-65.87 2116.5,-55.87 2109.5,-55.87"/>
</a>
</g>
</g>
<!-- Node19 -->
<g id="Node000019" class="node">
<title>Node19</title>
<g id="a_Node000019"><a xlink:href="304__reverse__call__types_8c.html" target="_top" xlink:title="Unit test to explicitly compare the &quot;Callback&quot; vs. &quot;Closure&quot; reverse trampoline APIs.">
<polygon fill="white" stroke="#666666" points="2288,-30 2182,-30 2182,0 2288,0 2288,-30"/>
<text text-anchor="start" x="2190" y="-18" font-family="Helvetica,sans-Serif" font-size="10.00">t/304_reverse_call</text>
<text text-anchor="middle" x="2235" y="-7" font-family="Helvetica,sans-Serif" font-size="10.00">_types.c</text>
</a>
</g>
</g>
<!-- Node1&#45;&gt;Node19 -->
<g id="edge18_Node000001_Node000019" class="edge">
<title>Node1&#45;&gt;Node19</title>
<g id="a_edge18_Node000001_Node000019"><a xlink:title=" ">
<path fill="none" stroke="#63b8ff" d="M2139.93,-61.59C2159.31,-52.29 2185.47,-39.75 2205.43,-30.18"/>
<polygon fill="#63b8ff" stroke="#63b8ff" points="2138.24,-58.51 2130.74,-65.99 2141.27,-64.83 2138.24,-58.51"/>
</a>
</g>
</g>
<!-- Node20 -->
<g id="Node000020" class="node">
<title>Node20</title>
<g id="a_Node000020"><a xlink:href="401__large__stack_8c.html" target="_top" xlink:title="Unit test for FFI calls with a large number of arguments passed on the stack.">
<polygon fill="white" stroke="#666666" points="2417.5,-24.5 2306.5,-24.5 2306.5,-5.5 2417.5,-5.5 2417.5,-24.5"/>
<text text-anchor="middle" x="2362" y="-12.5" font-family="Helvetica,sans-Serif" font-size="10.00">t/401_large_stack.c</text>
</a>
</g>
</g>
<!-- Node1&#45;&gt;Node20 -->
<g id="edge19_Node000001_Node000020" class="edge">
<title>Node1&#45;&gt;Node20</title>
<g id="a_edge19_Node000001_Node000020"><a xlink:title=" ">
<path fill="none" stroke="#63b8ff" d="M2159.05,-63.68C2207.17,-52.38 2281.66,-34.88 2325.75,-24.52"/>
<polygon fill="#63b8ff" stroke="#63b8ff" points="2158.14,-60.3 2149.21,-65.99 2159.74,-67.11 2158.14,-60.3"/>
</a>
</g>
</g>
<!-- Node21 -->
<g id="Node000021" class="node">
<title>Node21</title>
<g id="a_Node000021"><a xlink:href="402__variadic__functions_8c.html" target="_top" xlink:title="Unit test for FFI calls to and from variadic C functions.">
<polygon fill="white" stroke="#666666" points="2580,-24.5 2436,-24.5 2436,-5.5 2580,-5.5 2580,-24.5"/>
<text text-anchor="middle" x="2508" y="-12.5" font-family="Helvetica,sans-Serif" font-size="10.00">t/402_variadic_functions.c</text>
</a>
</g>
</g>
<!-- Node1&#45;&gt;Node21 -->
<g id="edge20_Node000001_Node000021" class="edge">
<title>Node1&#45;&gt;Node21</title>
<g id="a_edge20_Node000001_Node000021"><a xlink:title=" ">
<path fill="none" stroke="#63b8ff" d="M2187.08,-64.65C2250.77,-56.02 2345.04,-42.89 2427,-30 2437.71,-28.32 2449.21,-26.4 2460.07,-24.53"/>
<polygon fill="#63b8ff" stroke="#63b8ff" points="2186.57,-61.18 2177.13,-65.99 2187.51,-68.12 2186.57,-61.18"/>
</a>
</g>
</g>
<!-- Node22 -->
<g id="Node000022" class="node">
<title>Node22</title>
<g id="a_Node000022"><a xlink:href="403__special__types_8c.html" target="_top" xlink:title="Unit test for FFI calls with special, non&#45;standard, or platform&#45;dependent primitive types.">
<polygon fill="white" stroke="#666666" points="2720,-24.5 2598,-24.5 2598,-5.5 2720,-5.5 2720,-24.5"/>
<text text-anchor="middle" x="2659" y="-12.5" font-family="Helvetica,sans-Serif" font-size="10.00">t/403_special_types.c</text>
</a>
</g>
</g>
<!-- Node1&#45;&gt;Node22 -->
<g id="edge21_Node000001_Node000022" class="edge">
<title>Node1&#45;&gt;Node22</title>
<g id="a_edge21_Node000001_Node000022"><a xlink:title=" ">
<path fill="none" stroke="#63b8ff" d="M2194.77,-69.46C2289.84,-62.99 2451.33,-50.15 2589,-30 2599.06,-28.53 2609.85,-26.56 2619.88,-24.57"/>
<polygon fill="#63b8ff" stroke="#63b8ff" points="2194.39,-65.97 2184.65,-70.14 2194.86,-72.96 2194.39,-65.97"/>
</a>
</g>
</g>
<!-- Node23 -->
<g id="Node000023" class="node">
<title>Node23</title>
<g id="a_Node000023"><a xlink:href="501__direct__marshalling_8c.html" target="_top" xlink:title="Test suite for the high&#45;performance direct marshalling API.">
<polygon fill="white" stroke="#666666" points="2884,-24.5 2738,-24.5 2738,-5.5 2884,-5.5 2884,-24.5"/>
<text text-anchor="middle" x="2811" y="-12.5" font-family="Helvetica,sans-Serif" font-size="10.00">t/501_direct_marshalling.c</text>
</a>
</g>
</g>
<!-- Node1&#45;&gt;Node23 -->
<g id="edge22_Node000001_Node000023" class="edge">
<title>Node1&#45;&gt;Node23</title>
<g id="a_edge22_Node000001_Node000023"><a xlink:title=" ">
<path fill="none" stroke="#63b8ff" d="M2194.89,-71.11C2313.13,-65.65 2538.43,-53.1 2729,-30 2740.9,-28.56 2753.7,-26.58 2765.57,-24.56"/>
<polygon fill="#63b8ff" stroke="#63b8ff" points="2194.65,-67.62 2184.82,-71.57 2194.97,-74.61 2194.65,-67.62"/>
</a>
</g>
</g>
<!-- Node24 -->
<g id="Node000024" class="node">
<title>Node24</title>
<g id="a_Node000024"><a xlink:href="810__memory__stress_8c.html" target="_top" xlink:title="A stress test to detect memory leaks under heavy allocation/deallocation cycles.">
<polygon fill="white" stroke="#666666" points="3033.5,-24.5 2902.5,-24.5 2902.5,-5.5 3033.5,-5.5 3033.5,-24.5"/>
<text text-anchor="middle" x="2968" y="-12.5" font-family="Helvetica,sans-Serif" font-size="10.00">t/810_memory_stress.c</text>
</a>
</g>
</g>
<!-- Node1&#45;&gt;Node24 -->
<g id="edge23_Node000001_Node000024" class="edge">
<title>Node1&#45;&gt;Node24</title>
<g id="a_edge23_Node000001_Node000024"><a xlink:title=" ">
<path fill="none" stroke="#63b8ff" d="M2194.91,-73.26C2337.33,-70.34 2639.64,-60.75 2893,-30 2904.31,-28.63 2916.48,-26.6 2927.67,-24.51"/>
<polygon fill="#63b8ff" stroke="#63b8ff" points="2194.45,-69.77 2184.52,-73.47 2194.59,-76.77 2194.45,-69.77"/>
</a>
</g>
</g>
<!-- Node25 -->
<g id="Node000025" class="node">
<title>Node25</title>
<g id="a_Node000025"><a xlink:href="811__fault__injection_8c.html" target="_top" xlink:title="Unit test to verify resource cleanup under memory allocation failures.">
<polygon fill="white" stroke="#666666" points="3176.5,-24.5 3051.5,-24.5 3051.5,-5.5 3176.5,-5.5 3176.5,-24.5"/>
<text text-anchor="middle" x="3114" y="-12.5" font-family="Helvetica,sans-Serif" font-size="10.00">t/811_fault_injection.c</text>
</a>
</g>
</g>
<!-- Node1&#45;&gt;Node25 -->
<g id="edge24_Node000001_Node000025" class="edge">
<title>Node1&#45;&gt;Node25</title>
<g id="a_edge24_Node000001_Node000025"><a xlink:title=" ">
<path fill="none" stroke="#63b8ff" d="M2195.17,-74.61C2357.71,-73.93 2731.53,-67.95 3043,-30 3053.85,-28.68 3065.53,-26.64 3076.21,-24.52"/>
<polygon fill="#63b8ff" stroke="#63b8ff" points="2194.76,-71.11 2184.77,-74.65 2194.78,-78.11 2194.76,-71.11"/>
</a>
</g>
</g>
<!-- Node26 -->
<g id="Node000026" class="node">
<title>Node26</title>
<g id="a_Node000026"><a xlink:href="812__shared__arena_8c.html" target="_top" xlink:title="Unit test for advanced arena&#45;based memory management features.">
<polygon fill="white" stroke="#666666" points="3315.5,-24.5 3194.5,-24.5 3194.5,-5.5 3315.5,-5.5 3315.5,-24.5"/>
<text text-anchor="middle" x="3255" y="-12.5" font-family="Helvetica,sans-Serif" font-size="10.00">t/812_shared_arena.c</text>
</a>
</g>
</g>
<!-- Node1&#45;&gt;Node26 -->
<g id="edge25_Node000001_Node000026" class="edge">
<title>Node1&#45;&gt;Node26</title>
<g id="a_edge25_Node000001_Node000026"><a xlink:title=" ">
<path fill="none" stroke="#63b8ff" d="M2194.55,-72.8C2410.62,-68.01 2994.35,-53.27 3186,-30 3196.56,-28.72 3207.91,-26.69 3218.29,-24.57"/>
<polygon fill="#63b8ff" stroke="#63b8ff" points="2194.47,-69.3 2184.55,-73.02 2194.62,-76.29 2194.47,-69.3"/>
</a>
</g>
</g>
<!-- Node27 -->
<g id="Node000027" class="node">
<title>Node27</title>
<g id="a_Node000027"><a xlink:href="820__threading__helgrind_8c.html" target="_top" xlink:title="A stress test to detect data races and other threading issues.">
<polygon fill="white" stroke="#666666" points="3480,-24.5 3334,-24.5 3334,-5.5 3480,-5.5 3480,-24.5"/>
<text text-anchor="middle" x="3407" y="-12.5" font-family="Helvetica,sans-Serif" font-size="10.00">t/820_threading_helgrind.c</text>
</a>
</g>
</g>
<!-- Node1&#45;&gt;Node27 -->
<g id="edge26_Node000001_Node000027" class="edge">
<title>Node1&#45;&gt;Node27</title>
<g id="a_edge26_Node000001_Node000027"><a xlink:title=" ">
<path fill="none" stroke="#63b8ff" d="M2194.81,-75.22C2390.61,-76.14 2901.39,-73.74 3325,-30 3337.5,-28.71 3350.97,-26.68 3363.31,-24.56"/>
<polygon fill="#63b8ff" stroke="#63b8ff" points="2194.63,-71.72 2184.61,-75.17 2194.59,-78.72 2194.63,-71.72"/>
</a>
</g>
</g>
<!-- Node28 -->
<g id="Node000028" class="node">
<title>Node28</title>
<g id="a_Node000028"><a xlink:href="830__security_8c.html" target="_top" xlink:title="Unit test for security&#45;hardening features of the infix library.">
<polygon fill="white" stroke="#666666" points="3590,-24.5 3498,-24.5 3498,-5.5 3590,-5.5 3590,-24.5"/>
<text text-anchor="middle" x="3544" y="-12.5" font-family="Helvetica,sans-Serif" font-size="10.00">t/830_security.c</text>
</a>
</g>
</g>
<!-- Node1&#45;&gt;Node28 -->
<g id="edge27_Node000001_Node000028" class="edge">
<title>Node1&#45;&gt;Node28</title>
<g id="a_edge27_Node000001_Node000028"><a xlink:title=" ">
<path fill="none" stroke="#63b8ff" d="M2194.92,-74.18C2451.42,-72.81 3236.91,-65.73 3489,-30 3497.68,-28.77 3506.98,-26.7 3515.41,-24.53"/>
<polygon fill="#63b8ff" stroke="#63b8ff" points="2194.55,-70.68 2184.56,-74.23 2194.58,-77.68 2194.55,-70.68"/>
</a>
</g>
</g>
<!-- Node29 -->
<g id="Node000029" class="node">
<title>Node29</title>
<g id="a_Node000029"><a xlink:href="840__arena__allocator_8c.html" target="_top" xlink:title="Unit test for the internal arena allocator.">
<polygon fill="white" stroke="#666666" points="3738,-24.5 3608,-24.5 3608,-5.5 3738,-5.5 3738,-24.5"/>
<text text-anchor="middle" x="3673" y="-12.5" font-family="Helvetica,sans-Serif" font-size="10.00">t/840_arena_allocator.c</text>
</a>
</g>
</g>
<!-- Node1&#45;&gt;Node29 -->
<g id="edge28_Node000001_Node000029" class="edge">
<title>Node1&#45;&gt;Node29</title>
<g id="a_edge28_Node000001_Node000029"><a xlink:title=" ">
<path fill="none" stroke="#63b8ff" d="M2194.9,-73.74C2464.61,-70.98 3323.51,-60 3599,-30 3610.44,-28.75 3622.76,-26.71 3634,-24.57"/>
<polygon fill="#63b8ff" stroke="#63b8ff" points="2194.75,-70.24 2184.79,-73.84 2194.82,-77.24 2194.75,-70.24"/>
</a>
</g>
</g>
<!-- Node30 -->
<g id="Node000030" class="node">
<title>Node30</title>
<g id="a_Node000030"><a xlink:href="850__regression__cases_8c.html" target="_top" xlink:title="A suite of regression tests for bugs discovered by fuzzing.">
<polygon fill="white" stroke="#666666" points="3895.5,-24.5 3756.5,-24.5 3756.5,-5.5 3895.5,-5.5 3895.5,-24.5"/>
<text text-anchor="middle" x="3826" y="-12.5" font-family="Helvetica,sans-Serif" font-size="10.00">t/850_regression_cases.c</text>
</a>
</g>
</g>
<!-- Node1&#45;&gt;Node30 -->
<g id="edge29_Node000001_Node000030" class="edge">
<title>Node1&#45;&gt;Node30</title>
<g id="a_edge29_Node000001_Node000030"><a xlink:title=" ">
<path fill="none" stroke="#63b8ff" d="M2195.09,-73.87C2482.28,-71.43 3441.1,-61.1 3747,-30 3759.19,-28.76 3772.34,-26.72 3784.34,-24.57"/>
<polygon fill="#63b8ff" stroke="#63b8ff" points="2194.72,-70.38 2184.75,-73.96 2194.78,-77.38 2194.72,-70.38"/>
</a>
</g>
</g>
<!-- Node31 -->
<g id="Node000031" class="node">
<title>Node31</title>
<g id="a_Node000031"><a xlink:href="851__lifecycle__regression_8c.html" target="_top" xlink:title="Regression tests for specific memory lifecycle and ownership bugs.">
<polygon fill="white" stroke="#666666" points="4066,-24.5 3914,-24.5 3914,-5.5 4066,-5.5 4066,-24.5"/>
<text text-anchor="middle" x="3990" y="-12.5" font-family="Helvetica,sans-Serif" font-size="10.00">t/851_lifecycle_regression.c</text>
</a>
</g>
</g>
<!-- Node1&#45;&gt;Node31 -->
<g id="edge30_Node000001_Node000031" class="edge">
<title>Node1&#45;&gt;Node31</title>
<g id="a_edge30_Node000001_Node000031"><a xlink:title=" ">
<path fill="none" stroke="#63b8ff" d="M2194.71,-73.97C2499,-71.78 3566.29,-61.94 3905,-30 3918.25,-28.75 3932.56,-26.68 3945.6,-24.5"/>
<polygon fill="#63b8ff" stroke="#63b8ff" points="2194.61,-70.47 2184.64,-74.05 2194.66,-77.47 2194.61,-70.47"/>
</a>
</g>
</g>
<!-- Node32 -->
<g id="Node000032" class="node">
<title>Node32</title>
<g id="a_Node000032"><a xlink:href="860__error__handling_8c.html" target="_top" xlink:title="Unit test for the error reporting system.">
<polygon fill="white" stroke="#666666" points="4209.5,-24.5 4084.5,-24.5 4084.5,-5.5 4209.5,-5.5 4209.5,-24.5"/>
<text text-anchor="middle" x="4147" y="-12.5" font-family="Helvetica,sans-Serif" font-size="10.00">t/860_error_handling.c</text>
</a>
</g>
</g>
<!-- Node1&#45;&gt;Node32 -->
<g id="edge31_Node000001_Node000032" class="edge">
<title>Node1&#45;&gt;Node32</title>
<g id="a_edge31_Node000001_Node000032"><a xlink:title=" ">
<path fill="none" stroke="#63b8ff" d="M2194.8,-74.49C2517.37,-74.17 3701.77,-70.23 4075,-30 4086.27,-28.79 4098.4,-26.72 4109.44,-24.55"/>
<polygon fill="#63b8ff" stroke="#63b8ff" points="2194.6,-70.99 2184.6,-74.5 2194.61,-77.99 2194.6,-70.99"/>
</a>
</g>
</g>
<!-- Node33 -->
<g id="Node000033" class="node">
<title>Node33</title>
<g id="a_Node000033"><a xlink:href="901__call__overhead_8c.html" target="_top" xlink:title="A micro&#45;benchmark to measure the performance overhead of an FFI call.">
<polygon fill="white" stroke="#666666" points="4350.5,-24.5 4227.5,-24.5 4227.5,-5.5 4350.5,-5.5 4350.5,-24.5"/>
<text text-anchor="middle" x="4289" y="-12.5" font-family="Helvetica,sans-Serif" font-size="10.00">t/901_call_overhead.c</text>
</a>
</g>
</g>
<!-- Node1&#45;&gt;Node33 -->
<g id="edge32_Node000001_Node000033" class="edge">
<title>Node1&#45;&gt;Node33</title>
<g id="a_edge32_Node000001_Node000033"><a xlink:title=" ">
<path fill="none" stroke="#63b8ff" d="M2194.85,-74.7C2532.23,-75.22 3816.14,-74.19 4219,-30 4229.96,-28.8 4241.77,-26.74 4252.5,-24.56"/>
<polygon fill="#63b8ff" stroke="#63b8ff" points="2194.68,-71.2 2184.68,-74.68 2194.67,-78.2 2194.68,-71.2"/>
</a>
</g>
</g>
<!-- Node34 -->
<g id="Node000034" class="node">
<title>Node34</title>
<g id="a_Node000034"><a xlink:href="903__generation__benchmark_8c.html" target="_top" xlink:title="A micro&#45;benchmark to measure the performance of trampoline generation.">
<polygon fill="white" stroke="#666666" points="4535.5,-24.5 4368.5,-24.5 4368.5,-5.5 4535.5,-5.5 4535.5,-24.5"/>
<text text-anchor="middle" x="4452" y="-12.5" font-family="Helvetica,sans-Serif" font-size="10.00">t/903_generation_benchmark.c</text>
</a>
</g>
</g>
<!-- Node1&#45;&gt;Node34 -->
<g id="edge33_Node000001_Node000034" class="edge">
<title>Node1&#45;&gt;Node34</title>
<g id="a_edge33_Node000001_Node000034"><a xlink:title=" ">
<path fill="none" stroke="#63b8ff" d="M2194.71,-74.32C2545.66,-73.32 3926.92,-67.08 4360,-30 4374.33,-28.77 4389.81,-26.71 4403.92,-24.53"/>
<polygon fill="#63b8ff" stroke="#63b8ff" points="2194.62,-70.82 2184.63,-74.35 2194.64,-77.82 2194.62,-70.82"/>
</a>
</g>
</g>
</g>
</svg>

<g id="navigator" transform="translate(0 0)" fill="#404254">
  <rect fill="#f2f5e9" fill-opacity="0.5" stroke="#606060" stroke-width=".5" x="0" y="0" width="60" height="60"/>
  <use id="zoomplus" xlink:href="#zoomPlus" x="17" y="9" onmousedown="handleZoom(evt,'in')"/>
  <use id="zoomminus" xlink:href="#zoomMin" x="42" y="9" onmousedown="handleZoom(evt,'out')"/>
  <use id="reset" xlink:href="#resetDef" x="30" y="36" onmousedown="handleReset()"/>
   <use id="arrowup" xlink:href="#arrowUp" x="0" y="0" onmousedown="handlePan(0,-1)"/>
  <use id="arrowright" xlink:href="#arrowRight" x="0" y="0" onmousedown="handlePan(1,0)"/>
  <use id="arrowdown" xlink:href="#arrowDown" x="0" y="0" onmousedown="handlePan(0,1)"/>
  <use id="arrowleft" xlink:href="#arrowLeft" x="0" y="0" onmousedown="handlePan(-1,0)"/>
</g>
<svg viewBox="0 0 15 15" width="100%" height="30px" preserveAspectRatio="xMaxYMin meet">
 <g id="arrow_out" transform="scale(0.3 0.3)">
  <a xlink:href="double__tap_8h__dep__incl_org.svg" target="_base">
   <rect id="button" ry="5" rx="5" y="6" x="6" height="38" width="38"
        fill="#f2f5e9" fill-opacity="0.5" stroke="#606060" stroke-width="1.0"/>
   <path id="arrow"
     d="M 11.500037,31.436501 C 11.940474,20.09759 22.043105,11.32322 32.158766,21.979434 L 37.068811,17.246167 C 37.068811,17.246167 37.088388,32 37.088388,32 L 22.160133,31.978069 C 22.160133,31.978069 26.997745,27.140456 26.997745,27.140456 C 18.528582,18.264221 13.291696,25.230495 11.500037,31.436501 z"
     style="fill:#404040;"/>
  </a>
 </g>
</svg>

<style type='text/css'>
<![CDATA[
[data-mouse-over-selected='false'] { opacity: 0.7; }
[data-mouse-over-selected='true']  { opacity: 1.0; }
]]>
</style>
<script type="application/ecmascript"><![CDATA[
document.addEventListener('DOMContentLoaded', (event) => {
  highlightEdges();
  highlightAdjacentNodes();
});
]]></script>
</svg>
