<?xml version="1.0" encoding="UTF-8" standalone="no"?>
<!DOCTYPE svg PUBLIC "-//W3C//DTD SVG 1.1//EN"
 "http://www.w3.org/Graphics/SVG/1.1/DTD/svg11.dtd">
<!-- Generated by graphviz version 2.43.0 (0)
 -->
<!-- Title: src/common/double_tap.h Pages: 1 -->
<!--zoomable 93 -->

<svg id="main" version="1.1" xmlns="http://www.w3.org/2000/svg" xmlns:xlink="http://www.w3.org/1999/xlink" xml:space="preserve" onload="init(evt)">
<style type="text/css"><![CDATA[
.node, .edge {opacity: 0.7;}
.node.selected, .edge.selected {opacity: 1;}
.edge:hover path { stroke: red; }
.edge:hover polygon { stroke: red; fill: red; }
]]></style>

<defs>
  <circle id="rim" cx="0" cy="0" r="7"/>
  <circle id="rim2" cx="0" cy="0" r="3.5"/>
  <g id="zoomPlus">
    <use xlink:href="#rim" fill="#404040"><set attributeName="fill" to="#808080" begin="zoomplus.mouseover" end="zoomplus.mouseout"/></use>
    <path d="M-4,0h8M0,-4v8" fill="none" stroke="white" stroke-width="1.5" pointer-events="none"/>
  </g>
  <g id="zoomMin">
    <use xlink:href="#rim" fill="#404040"><set attributeName="fill" to="#808080" begin="zoomminus.mouseover" end="zoomminus.mouseout"/></use>
    <path d="M-4,0h8" fill="none" stroke="white" stroke-width="1.5" pointer-events="none"/>
  </g>
  <g id="arrowUp" transform="translate(30 24)">
    <use xlink:href="#rim"/>
    <path pointer-events="none" fill="none" stroke="white" stroke-width="1.5" d="M0,-3.0v7 M-2.5,-0.5L0,-3.0L2.5,-0.5"/>
  </g>
  <g id="arrowRight" transform="rotate(90) translate(36 -43)">
    <use xlink:href="#rim"/>
    <path pointer-events="none" fill="none" stroke="white" stroke-width="1.5" d="M0,-3.0v7 M-2.5,-0.5L0,-3.0L2.5,-0.5"/>
  </g>
  <g id="arrowDown" transform="rotate(180) translate(-30 -48)">
    <use xlink:href="#rim"/>
    <path pointer-events="none" fill="none" stroke="white" stroke-width="1.5" d="M0,-3.0v7 M-2.5,-0.5L0,-3.0L2.5,-0.5"/>
  </g>
  <g id="arrowLeft" transform="rotate(270) translate(-36 17)">
    <use xlink:href="#rim"/>
    <path pointer-events="none" fill="none" stroke="white" stroke-width="1.5" d="M0,-3.0v7 M-2.5,-0.5L0,-3.0L2.5,-0.5"/>
  </g>
  <g id="resetDef">
    <use xlink:href="#rim2" fill="#404040"><set attributeName="fill" to="#808080" begin="reset.mouseover" end="reset.mouseout"/></use>
  </g>
</defs>
<script type="application/ecmascript">
var viewWidth = 4809;
var viewHeight = 93;
var sectionId = 'dynsection-0';
</script>
<script type="application/ecmascript" xlink:href="svg.min.js"/>
<svg id="graph" class="graph">
<g id="viewport">
<title>src/common/double_tap.h</title>
<!-- Node1 -->
<g id="Node000001" class="node">
<title>Node1</title>
<g id="a_Node000001"><a xlink:title="A lightweight, single&#45;header TAP (Test Anything Protocol) library.">
<polygon fill="#999999" stroke="#666666" points="2325.5,-85 2182.5,-85 2182.5,-66 2325.5,-66 2325.5,-85"/>
<text text-anchor="middle" x="2254" y="-73" font-family="Helvetica,sans-Serif" font-size="10.00">src/common/double_tap.h</text>
</a>
</g>
</g>
<!-- Node2 -->
<g id="Node000002" class="node">
<title>Node2</title>
<g id="a_Node000002"><a xlink:href="001__primitives_8c.html" target="_top" xlink:title="Unit test for creating trampolines for functions with primitive C types.">
<polygon fill="white" stroke="#666666" points="104,-24.5 0,-24.5 0,-5.5 104,-5.5 104,-24.5"/>
<text text-anchor="middle" x="52" y="-12.5" font-family="Helvetica,sans-Serif" font-size="10.00">t/001_primitives.c</text>
</a>
</g>
</g>
<!-- Node1&#45;&gt;Node2 -->
<g id="edge1_Node000001_Node000002" class="edge">
<title>Node1&#45;&gt;Node2</title>
<g id="a_edge1_Node000001_Node000002"><a xlink:title=" ">
<path fill="none" stroke="#63b8ff" d="M2172.43,-73.79C1805.86,-70.49 319.76,-55.6 113,-30 103.3,-28.8 92.87,-26.71 83.44,-24.51"/>
<polygon fill="#63b8ff" stroke="#63b8ff" points="2172.4,-77.29 2182.43,-73.88 2172.46,-70.29 2172.4,-77.29"/>
</a>
</g>
</g>
<!-- Node3 -->
<g id="Node000003" class="node">
<title>Node3</title>
<g id="a_Node000003"><a xlink:href="002__simple__calls_8c.html" target="_top" xlink:title="Unit test for basic forward trampoline calls with simple function signatures.">
<polygon fill="white" stroke="#666666" points="238,-24.5 122,-24.5 122,-5.5 238,-5.5 238,-24.5"/>
<text text-anchor="middle" x="180" y="-12.5" font-family="Helvetica,sans-Serif" font-size="10.00">t/002_simple_calls.c</text>
</a>
</g>
</g>
<!-- Node1&#45;&gt;Node3 -->
<g id="edge2_Node000001_Node000003" class="edge">
<title>Node1&#45;&gt;Node3</title>
<g id="a_edge2_Node000001_Node000003"><a xlink:title=" ">
<path fill="none" stroke="#63b8ff" d="M2171.96,-74.69C1844.35,-75.15 629.14,-73.79 247,-30 236.49,-28.8 225.19,-26.74 214.92,-24.56"/>
<polygon fill="#63b8ff" stroke="#63b8ff" points="2172.32,-78.19 2182.32,-74.68 2172.31,-71.19 2172.32,-78.19"/>
</a>
</g>
</g>
<!-- Node4 -->
<g id="Node000004" class="node">
<title>Node4</title>
<g id="a_Node000004"><a xlink:href="003__type__system__api_8c.html" target="_top" xlink:title="Unit test for the Manual API (infix_type_create_* functions).">
<polygon fill="white" stroke="#666666" points="394,-24.5 256,-24.5 256,-5.5 394,-5.5 394,-24.5"/>
<text text-anchor="middle" x="325" y="-12.5" font-family="Helvetica,sans-Serif" font-size="10.00">t/003_type_system_api.c</text>
</a>
</g>
</g>
<!-- Node1&#45;&gt;Node4 -->
<g id="edge3_Node000001_Node000004" class="edge">
<title>Node1&#45;&gt;Node4</title>
<g id="a_edge3_Node000001_Node000004"><a xlink:title=" ">
<path fill="none" stroke="#63b8ff" d="M2171.97,-74.2C1860.84,-72.82 753.51,-65.46 403,-30 390.82,-28.77 377.68,-26.7 365.72,-24.53"/>
<polygon fill="#63b8ff" stroke="#63b8ff" points="2172.25,-77.7 2182.26,-74.25 2172.28,-70.71 2172.25,-77.7"/>
</a>
</g>
</g>
<!-- Node5 -->
<g id="Node000005" class="node">
<title>Node5</title>
<g id="a_Node000005"><a xlink:href="004__signatures_8c.html" target="_top" xlink:title="Unit test for the signature string parser.">
<polygon fill="white" stroke="#666666" points="518,-24.5 412,-24.5 412,-5.5 518,-5.5 518,-24.5"/>
<text text-anchor="middle" x="465" y="-12.5" font-family="Helvetica,sans-Serif" font-size="10.00">t/004_signatures.c</text>
</a>
</g>
</g>
<!-- Node1&#45;&gt;Node5 -->
<g id="edge4_Node000001_Node000005" class="edge">
<title>Node1&#45;&gt;Node5</title>
<g id="a_edge4_Node000001_Node000005"><a xlink:title=" ">
<path fill="none" stroke="#63b8ff" d="M2171.73,-74.52C1873.71,-74.26 851.1,-70.37 527,-30 517.25,-28.79 506.79,-26.72 497.29,-24.55"/>
<polygon fill="#63b8ff" stroke="#63b8ff" points="2172.03,-78.02 2182.03,-74.53 2172.03,-71.02 2172.03,-78.02"/>
</a>
</g>
</g>
<!-- Node6 -->
<g id="Node000006" class="node">
<title>Node6</title>
<g id="a_Node000006"><a xlink:href="005__layouts_8c.html" target="_top" xlink:title="Unit test for the Manual API&#39;s struct and union layout calculations.">
<polygon fill="white" stroke="#666666" points="627.5,-24.5 536.5,-24.5 536.5,-5.5 627.5,-5.5 627.5,-24.5"/>
<text text-anchor="middle" x="582" y="-12.5" font-family="Helvetica,sans-Serif" font-size="10.00">t/005_layouts.c</text>
</a>
</g>
</g>
<!-- Node1&#45;&gt;Node6 -->
<g id="edge5_Node000001_Node000006" class="edge">
<title>Node1&#45;&gt;Node6</title>
<g id="a_edge5_Node000001_Node000006"><a xlink:title=" ">
<path fill="none" stroke="#63b8ff" d="M2172.13,-74.69C1886.81,-74.98 937.29,-72.64 636,-30 627.47,-28.79 618.34,-26.73 610.06,-24.56"/>
<polygon fill="#63b8ff" stroke="#63b8ff" points="2172.4,-78.19 2182.4,-74.68 2172.4,-71.19 2172.4,-78.19"/>
</a>
</g>
</g>
<!-- Node7 -->
<g id="Node000007" class="node">
<title>Node7</title>
<g id="a_Node000007"><a xlink:href="006__end__to__end__calls_8c.html" target="_top" xlink:title="End&#45;to&#45;end unit test for passing and returning aggregate types (structs).">
<polygon fill="white" stroke="#666666" points="784.5,-24.5 645.5,-24.5 645.5,-5.5 784.5,-5.5 784.5,-24.5"/>
<text text-anchor="middle" x="715" y="-12.5" font-family="Helvetica,sans-Serif" font-size="10.00">t/006_end_to_end_calls.c</text>
</a>
</g>
</g>
<!-- Node1&#45;&gt;Node7 -->
<g id="edge6_Node000001_Node000007" class="edge">
<title>Node1&#45;&gt;Node7</title>
<g id="a_edge6_Node000001_Node000007"><a xlink:title=" ">
<path fill="none" stroke="#63b8ff" d="M2171.78,-73.56C1904.86,-70.27 1064.24,-57.91 794,-30 781.81,-28.74 768.66,-26.69 756.66,-24.55"/>
<polygon fill="#63b8ff" stroke="#63b8ff" points="2172.12,-77.07 2182.17,-73.69 2172.21,-70.07 2172.12,-77.07"/>
</a>
</g>
</g>
<!-- Node8 -->
<g id="Node000008" class="node">
<title>Node8</title>
<g id="a_Node000008"><a xlink:href="007__type__registry_8c.html" target="_top" xlink:title="Unit test for the named type registry system.">
<polygon fill="white" stroke="#666666" points="921,-24.5 803,-24.5 803,-5.5 921,-5.5 921,-24.5"/>
<text text-anchor="middle" x="862" y="-12.5" font-family="Helvetica,sans-Serif" font-size="10.00">t/007_type_registry.c</text>
</a>
</g>
</g>
<!-- Node1&#45;&gt;Node8 -->
<g id="edge7_Node000001_Node000008" class="edge">
<title>Node1&#45;&gt;Node8</title>
<g id="a_edge7_Node000001_Node000008"><a xlink:title=" ">
<path fill="none" stroke="#63b8ff" d="M2172.21,-73.57C1922.5,-70.43 1172.3,-58.8 930,-30 919.47,-28.75 908.14,-26.7 897.81,-24.56"/>
<polygon fill="#63b8ff" stroke="#63b8ff" points="2172.26,-77.07 2182.31,-73.69 2172.35,-70.07 2172.26,-77.07"/>
</a>
</g>
</g>
<!-- Node9 -->
<g id="Node000009" class="node">
<title>Node9</title>
<g id="a_Node000009"><a xlink:href="008__registry__introspection_8c.html" target="_top" xlink:title="Unit test for the registry introspection and serialization APIs.">
<polygon fill="white" stroke="#666666" points="1100.5,-24.5 939.5,-24.5 939.5,-5.5 1100.5,-5.5 1100.5,-24.5"/>
<text text-anchor="middle" x="1020" y="-12.5" font-family="Helvetica,sans-Serif" font-size="10.00">t/008_registry_introspection.c</text>
</a>
</g>
</g>
<!-- Node1&#45;&gt;Node9 -->
<g id="edge8_Node000001_Node000009" class="edge">
<title>Node1&#45;&gt;Node9</title>
<g id="a_edge8_Node000001_Node000009"><a xlink:title=" ">
<path fill="none" stroke="#63b8ff" d="M2172.37,-74.6C1984.35,-74.13 1506.33,-68.84 1109,-30 1095.46,-28.68 1080.84,-26.64 1067.44,-24.52"/>
<polygon fill="#63b8ff" stroke="#63b8ff" points="2172.45,-78.1 2182.46,-74.63 2172.46,-71.1 2172.45,-78.1"/>
</a>
</g>
</g>
<!-- Node10 -->
<g id="Node000010" class="node">
<title>Node10</title>
<g id="a_Node000010"><a xlink:href="009__bitfields__fam_8c.html" target="_top" xlink:title="Unit test for Bitfields and Flexible Array Members (FAM).">
<polygon fill="white" stroke="#666666" points="1237.5,-24.5 1118.5,-24.5 1118.5,-5.5 1237.5,-5.5 1237.5,-24.5"/>
<text text-anchor="middle" x="1178" y="-12.5" font-family="Helvetica,sans-Serif" font-size="10.00">t/009_bitfields_fam.c</text>
</a>
</g>
</g>
<!-- Node1&#45;&gt;Node10 -->
<g id="edge9_Node000001_Node000010" class="edge">
<title>Node1&#45;&gt;Node10</title>
<g id="a_edge9_Node000001_Node000010"><a xlink:title=" ">
<path fill="none" stroke="#63b8ff" d="M2172.24,-75.28C2000.15,-75.95 1588.2,-72.51 1246,-30 1235.59,-28.71 1224.41,-26.68 1214.17,-24.56"/>
<polygon fill="#63b8ff" stroke="#63b8ff" points="2172.5,-78.78 2182.49,-75.23 2172.47,-71.78 2172.5,-78.78"/>
</a>
</g>
</g>
<!-- Node11 -->
<g id="Node000011" class="node">
<title>Node11</title>
<g id="a_Node000011"><a xlink:href="101__by__value_8c.html" target="_top" xlink:title="Unit test for passing and returning aggregates and vectors by value.">
<polygon fill="white" stroke="#666666" points="1354.5,-24.5 1255.5,-24.5 1255.5,-5.5 1354.5,-5.5 1354.5,-24.5"/>
<text text-anchor="middle" x="1305" y="-12.5" font-family="Helvetica,sans-Serif" font-size="10.00">t/101_by_value.c</text>
</a>
</g>
</g>
<!-- Node1&#45;&gt;Node11 -->
<g id="edge10_Node000001_Node000011" class="edge">
<title>Node1&#45;&gt;Node11</title>
<g id="a_edge10_Node000001_Node000011"><a xlink:title=" ">
<path fill="none" stroke="#63b8ff" d="M2172.2,-72.37C1982.66,-67.12 1517.76,-52.34 1363,-30 1354.08,-28.71 1344.52,-26.68 1335.8,-24.56"/>
<polygon fill="#63b8ff" stroke="#63b8ff" points="2172.29,-75.88 2182.38,-72.65 2172.48,-68.88 2172.29,-75.88"/>
</a>
</g>
</g>
<!-- Node12 -->
<g id="Node000012" class="node">
<title>Node12</title>
<g id="a_Node000012"><a xlink:href="102__by__reference_8c.html" target="_top" xlink:title="Unit test for passing and returning large aggregates by reference.">
<polygon fill="white" stroke="#666666" points="1491.5,-24.5 1372.5,-24.5 1372.5,-5.5 1491.5,-5.5 1491.5,-24.5"/>
<text text-anchor="middle" x="1432" y="-12.5" font-family="Helvetica,sans-Serif" font-size="10.00">t/102_by_reference.c</text>
</a>
</g>
</g>
<!-- Node1&#45;&gt;Node12 -->
<g id="edge11_Node000001_Node000012" class="edge">
<title>Node1&#45;&gt;Node12</title>
<g id="a_edge11_Node000001_Node000012"><a xlink:title=" ">
<path fill="none" stroke="#63b8ff" d="M2172.34,-73.53C2033.59,-71.02 1743.2,-62.04 1500,-30 1489.72,-28.65 1478.68,-26.62 1468.54,-24.53"/>
<polygon fill="#63b8ff" stroke="#63b8ff" points="2172.41,-77.03 2182.47,-73.7 2172.53,-70.03 2172.41,-77.03"/>
</a>
</g>
</g>
<!-- Node13 -->
<g id="Node000013" class="node">
<title>Node13</title>
<g id="a_Node000013"><a xlink:href="103__unions_8c.html" target="_top" xlink:title="Unit test for passing and returning unions by value.">
<polygon fill="white" stroke="#666666" points="1596.5,-24.5 1509.5,-24.5 1509.5,-5.5 1596.5,-5.5 1596.5,-24.5"/>
<text text-anchor="middle" x="1553" y="-12.5" font-family="Helvetica,sans-Serif" font-size="10.00">t/103_unions.c</text>
</a>
</g>
</g>
<!-- Node1&#45;&gt;Node13 -->
<g id="edge12_Node000001_Node000013" class="edge">
<title>Node1&#45;&gt;Node13</title>
<g id="a_edge12_Node000001_Node000013"><a xlink:title=" ">
<path fill="none" stroke="#63b8ff" d="M2171.91,-73.83C2048.35,-71.72 1807.56,-63.23 1606,-30 1597.92,-28.67 1589.29,-26.65 1581.39,-24.56"/>
<polygon fill="#63b8ff" stroke="#63b8ff" points="2172,-77.34 2182.05,-74 2172.11,-70.34 2172,-77.34"/>
</a>
</g>
</g>
<!-- Node14 -->
<g id="Node000014" class="node">
<title>Node14</title>
<g id="a_Node000014"><a xlink:href="105__bitfields__fam__jit_8c.html" target="_top" xlink:title="End&#45;to&#45;end JIT execution tests for Bitfields and Flexible Array Members.">
<polygon fill="white" stroke="#666666" points="1725,-30 1615,-30 1615,0 1725,0 1725,-30"/>
<text text-anchor="start" x="1623" y="-18" font-family="Helvetica,sans-Serif" font-size="10.00">t/105_bitfields_fam</text>
<text text-anchor="middle" x="1670" y="-7" font-family="Helvetica,sans-Serif" font-size="10.00">_jit.c</text>
</a>
</g>
</g>
<!-- Node1&#45;&gt;Node14 -->
<g id="edge13_Node000001_Node000014" class="edge">
<title>Node1&#45;&gt;Node14</title>
<g id="a_edge13_Node000001_Node000014"><a xlink:title=" ">
<path fill="none" stroke="#63b8ff" d="M2172.16,-70.79C2069.39,-65.38 1887.89,-53.32 1734,-30 1731.08,-29.56 1728.09,-29.06 1725.07,-28.52"/>
<polygon fill="#63b8ff" stroke="#63b8ff" points="2171.99,-74.29 2182.16,-71.31 2172.35,-67.3 2171.99,-74.29"/>
</a>
</g>
</g>
<!-- Node15 -->
<g id="Node000015" class="node">
<title>Node15</title>
<g id="a_Node000015"><a xlink:href="201__basic_8c.html" target="_top" xlink:title="Unit test for FFI calls involving pointer types.">
<polygon fill="white" stroke="#666666" points="1823,-24.5 1743,-24.5 1743,-5.5 1823,-5.5 1823,-24.5"/>
<text text-anchor="middle" x="1783" y="-12.5" font-family="Helvetica,sans-Serif" font-size="10.00">t/201_basic.c</text>
</a>
</g>
</g>
<!-- Node1&#45;&gt;Node15 -->
<g id="edge14_Node000001_Node000015" class="edge">
<title>Node1&#45;&gt;Node15</title>
<g id="a_edge14_Node000001_Node000015"><a xlink:title=" ">
<path fill="none" stroke="#63b8ff" d="M2171.97,-70.07C2086.48,-64.47 1948.93,-52.69 1832,-30 1824.7,-28.58 1816.92,-26.59 1809.76,-24.55"/>
<polygon fill="#63b8ff" stroke="#63b8ff" points="2171.93,-73.57 2182.13,-70.72 2172.38,-66.59 2171.93,-73.57"/>
</a>
</g>
</g>
<!-- Node16 -->
<g id="Node000016" class="node">
<title>Node16</title>
<g id="a_Node000016"><a xlink:href="202__in__structs_8c.html" target="_top" xlink:title="Unit test for passing structs that contain pointer members.">
<polygon fill="white" stroke="#666666" points="1943,-24.5 1841,-24.5 1841,-5.5 1943,-5.5 1943,-24.5"/>
<text text-anchor="middle" x="1892" y="-12.5" font-family="Helvetica,sans-Serif" font-size="10.00">t/202_in_structs.c</text>
</a>
</g>
</g>
<!-- Node1&#45;&gt;Node16 -->
<g id="edge15_Node000001_Node000016" class="edge">
<title>Node1&#45;&gt;Node16</title>
<g id="a_edge15_Node000001_Node000016"><a xlink:title=" ">
<path fill="none" stroke="#63b8ff" d="M2175.1,-64.7C2113.99,-56.66 2027.34,-44.31 1952,-30 1943.7,-28.42 1934.81,-26.49 1926.48,-24.56"/>
<polygon fill="#63b8ff" stroke="#63b8ff" points="2174.69,-68.17 2185.06,-66 2175.6,-61.23 2174.69,-68.17"/>
</a>
</g>
</g>
<!-- Node17 -->
<g id="Node000017" class="node">
<title>Node17</title>
<g id="a_Node000017"><a xlink:href="203__complex_8c.html" target="_top" xlink:title="Unit test for FFI calls involving C99 _Complex types.">
<polygon fill="white" stroke="#666666" points="2058.5,-24.5 1961.5,-24.5 1961.5,-5.5 2058.5,-5.5 2058.5,-24.5"/>
<text text-anchor="middle" x="2010" y="-12.5" font-family="Helvetica,sans-Serif" font-size="10.00">t/203_complex.c</text>
</a>
</g>
</g>
<!-- Node1&#45;&gt;Node17 -->
<g id="edge16_Node000001_Node000017" class="edge">
<title>Node1&#45;&gt;Node17</title>
<g id="a_edge16_Node000001_Node000017"><a xlink:title=" ">
<path fill="none" stroke="#63b8ff" d="M2208.19,-63.57C2170.54,-54.58 2115.81,-41.49 2068,-30 2060.65,-28.23 2052.77,-26.34 2045.27,-24.53"/>
<polygon fill="#63b8ff" stroke="#63b8ff" points="2207.8,-67.07 2218.34,-65.99 2209.42,-60.26 2207.8,-67.07"/>
</a>
</g>
</g>
<!-- Node18 -->
<g id="Node000018" class="node">
<title>Node18</title>
<g id="a_Node000018"><a xlink:href="301__primitives_8c.html" target="_top" xlink:title="Unit test for reverse trampolines (callbacks) with primitive C types.">
<polygon fill="white" stroke="#666666" points="2181,-24.5 2077,-24.5 2077,-5.5 2181,-5.5 2181,-24.5"/>
<text text-anchor="middle" x="2129" y="-12.5" font-family="Helvetica,sans-Serif" font-size="10.00">t/301_primitives.c</text>
</a>
</g>
</g>
<!-- Node1&#45;&gt;Node18 -->
<g id="edge17_Node000001_Node000018" class="edge">
<title>Node1&#45;&gt;Node18</title>
<g id="a_edge17_Node000001_Node000018"><a xlink:title=" ">
<path fill="none" stroke="#63b8ff" d="M2226.51,-61.63C2202.4,-50.35 2168.04,-34.27 2147.2,-24.52"/>
<polygon fill="#63b8ff" stroke="#63b8ff" points="2225.28,-64.92 2235.82,-65.99 2228.25,-58.58 2225.28,-64.92"/>
</a>
</g>
</g>
<!-- Node19 -->
<g id="Node000019" class="node">
<title>Node19</title>
<g id="a_Node000019"><a xlink:href="302__aggregates_8c.html" target="_top" xlink:title="Unit test for reverse trampolines (callbacks) with aggregate types.">
<polygon fill="white" stroke="#666666" points="2309,-24.5 2199,-24.5 2199,-5.5 2309,-5.5 2309,-24.5"/>
<text text-anchor="middle" x="2254" y="-12.5" font-family="Helvetica,sans-Serif" font-size="10.00">t/302_aggregates.c</text>
</a>
</g>
</g>
<!-- Node1&#45;&gt;Node19 -->
<g id="edge18_Node000001_Node000019" class="edge">
<title>Node1&#45;&gt;Node19</title>
<g id="a_edge18_Node000001_Node000019"><a xlink:title=" ">
<path fill="none" stroke="#63b8ff" d="M2254,-55.66C2254,-45.24 2254,-32.8 2254,-24.67"/>
<polygon fill="#63b8ff" stroke="#63b8ff" points="2250.5,-55.87 2254,-65.87 2257.5,-55.87 2250.5,-55.87"/>
</a>
</g>
</g>
<!-- Node20 -->
<g id="Node000020" class="node">
<title>Node20</title>
<g id="a_Node000020"><a xlink:href="303__advanced_8c.html" target="_top" xlink:title="Unit test for advanced reverse trampoline (callback) scenarios.">
<polygon fill="white" stroke="#666666" points="2429,-24.5 2327,-24.5 2327,-5.5 2429,-5.5 2429,-24.5"/>
<text text-anchor="middle" x="2378" y="-12.5" font-family="Helvetica,sans-Serif" font-size="10.00">t/303_advanced.c</text>
</a>
</g>
</g>
<!-- Node1&#45;&gt;Node20 -->
<g id="edge19_Node000001_Node000020" class="edge">
<title>Node1&#45;&gt;Node20</title>
<g id="a_edge19_Node000001_Node000020"><a xlink:title=" ">
<path fill="none" stroke="#63b8ff" d="M2281.27,-61.63C2305.19,-50.35 2339.28,-34.27 2359.95,-24.52"/>
<polygon fill="#63b8ff" stroke="#63b8ff" points="2279.58,-58.56 2272.03,-65.99 2282.57,-64.89 2279.58,-58.56"/>
</a>
</g>
</g>
<!-- Node21 -->
<g id="Node000021" class="node">
<title>Node21</title>
<g id="a_Node000021"><a xlink:href="304__reverse__call__types_8c.html" target="_top" xlink:title="Unit test to explicitly compare the &quot;Callback&quot; vs. &quot;Closure&quot; reverse trampoline APIs.">
<polygon fill="white" stroke="#666666" points="2553,-30 2447,-30 2447,0 2553,0 2553,-30"/>
<text text-anchor="start" x="2455" y="-18" font-family="Helvetica,sans-Serif" font-size="10.00">t/304_reverse_call</text>
<text text-anchor="middle" x="2500" y="-7" font-family="Helvetica,sans-Serif" font-size="10.00">_types.c</text>
</a>
</g>
</g>
<!-- Node1&#45;&gt;Node21 -->
<g id="edge20_Node000001_Node000021" class="edge">
<title>Node1&#45;&gt;Node21</title>
<g id="a_edge20_Node000001_Node000021"><a xlink:title=" ">
<path fill="none" stroke="#63b8ff" d="M2299.66,-63.64C2341.37,-53.72 2403.05,-39.05 2446.94,-28.62"/>
<polygon fill="#63b8ff" stroke="#63b8ff" points="2298.69,-60.27 2289.77,-65.99 2300.31,-67.09 2298.69,-60.27"/>
</a>
</g>
</g>
<!-- Node22 -->
<g id="Node000022" class="node">
<title>Node22</title>
<g id="a_Node000022"><a xlink:href="401__large__stack_8c.html" target="_top" xlink:title="Unit test for FFI calls with a large number of arguments passed on the stack.">
<polygon fill="white" stroke="#666666" points="2682.5,-24.5 2571.5,-24.5 2571.5,-5.5 2682.5,-5.5 2682.5,-24.5"/>
<text text-anchor="middle" x="2627" y="-12.5" font-family="Helvetica,sans-Serif" font-size="10.00">t/401_large_stack.c</text>
</a>
</g>
</g>
<!-- Node1&#45;&gt;Node22 -->
<g id="edge21_Node000001_Node000022" class="edge">
<title>Node1&#45;&gt;Node22</title>
<g id="a_edge21_Node000001_Node000022"><a xlink:title=" ">
<path fill="none" stroke="#63b8ff" d="M2332.58,-64.66C2394.96,-56.48 2484.3,-43.96 2562,-30 2570.98,-28.39 2580.6,-26.44 2589.62,-24.51"/>
<polygon fill="#63b8ff" stroke="#63b8ff" points="2331.88,-61.22 2322.42,-65.98 2332.79,-68.16 2331.88,-61.22"/>
</a>
</g>
</g>
<!-- Node23 -->
<g id="Node000023" class="node">
<title>Node23</title>
<g id="a_Node000023"><a xlink:href="402__variadic__functions_8c.html" target="_top" xlink:title="Unit test for FFI calls to and from variadic C functions.">
<polygon fill="white" stroke="#666666" points="2845,-24.5 2701,-24.5 2701,-5.5 2845,-5.5 2845,-24.5"/>
<text text-anchor="middle" x="2773" y="-12.5" font-family="Helvetica,sans-Serif" font-size="10.00">t/402_variadic_functions.c</text>
</a>
</g>
</g>
<!-- Node1&#45;&gt;Node23 -->
<g id="edge22_Node000001_Node000023" class="edge">
<title>Node1&#45;&gt;Node23</title>
<g id="a_edge22_Node000001_Node000023"><a xlink:title=" ">
<path fill="none" stroke="#63b8ff" d="M2336.08,-67.89C2424.25,-60.38 2568.35,-46.95 2692,-30 2703.31,-28.45 2715.46,-26.5 2726.83,-24.55"/>
<polygon fill="#63b8ff" stroke="#63b8ff" points="2335.55,-64.42 2325.88,-68.75 2336.14,-71.39 2335.55,-64.42"/>
</a>
</g>
</g>
<!-- Node24 -->
<g id="Node000024" class="node">
<title>Node24</title>
<g id="a_Node000024"><a xlink:href="403__special__types_8c.html" target="_top" xlink:title="Unit test for FFI calls with special, non&#45;standard, or platform&#45;dependent primitive types.">
<polygon fill="white" stroke="#666666" points="2985,-24.5 2863,-24.5 2863,-5.5 2985,-5.5 2985,-24.5"/>
<text text-anchor="middle" x="2924" y="-12.5" font-family="Helvetica,sans-Serif" font-size="10.00">t/403_special_types.c</text>
</a>
</g>
</g>
<!-- Node1&#45;&gt;Node24 -->
<g id="edge23_Node000001_Node000024" class="edge">
<title>Node1&#45;&gt;Node24</title>
<g id="a_edge23_Node000001_Node000024"><a xlink:title=" ">
<path fill="none" stroke="#63b8ff" d="M2336.09,-71.62C2451.96,-66.83 2669.91,-55.14 2854,-30 2864.31,-28.59 2875.4,-26.6 2885.63,-24.56"/>
<polygon fill="#63b8ff" stroke="#63b8ff" points="2335.73,-68.13 2325.88,-72.04 2336.01,-75.13 2335.73,-68.13"/>
</a>
</g>
</g>
<!-- Node25 -->
<g id="Node000025" class="node">
<title>Node25</title>
<g id="a_Node000025"><a xlink:href="501__direct__marshalling_8c.html" target="_top" xlink:title="Test suite for the high&#45;performance direct marshalling API.">
<polygon fill="white" stroke="#666666" points="3149,-24.5 3003,-24.5 3003,-5.5 3149,-5.5 3149,-24.5"/>
<text text-anchor="middle" x="3076" y="-12.5" font-family="Helvetica,sans-Serif" font-size="10.00">t/501_direct_marshalling.c</text>
</a>
</g>
</g>
<!-- Node1&#45;&gt;Node25 -->
<g id="edge24_Node000001_Node000025" class="edge">
<title>Node1&#45;&gt;Node25</title>
<g id="a_edge24_Node000001_Node000025"><a xlink:title=" ">
<path fill="none" stroke="#63b8ff" d="M2336.05,-72.49C2472.84,-68.48 2755.99,-57.39 2994,-30 3006.2,-28.6 3019.33,-26.58 3031.44,-24.52"/>
<polygon fill="#63b8ff" stroke="#63b8ff" points="2335.56,-69 2325.66,-72.79 2335.76,-76 2335.56,-69"/>
</a>
</g>
</g>
<!-- Node26 -->
<g id="Node000026" class="node">
<title>Node26</title>
<g id="a_Node000026"><a xlink:href="810__memory__stress_8c.html" target="_top" xlink:title="A stress test to detect memory leaks under heavy allocation/deallocation cycles.">
<polygon fill="white" stroke="#666666" points="3298.5,-24.5 3167.5,-24.5 3167.5,-5.5 3298.5,-5.5 3298.5,-24.5"/>
<text text-anchor="middle" x="3233" y="-12.5" font-family="Helvetica,sans-Serif" font-size="10.00">t/810_memory_stress.c</text>
</a>
</g>
</g>
<!-- Node1&#45;&gt;Node26 -->
<g id="edge25_Node000001_Node000026" class="edge">
<title>Node1&#45;&gt;Node26</title>
<g id="a_edge25_Node000001_Node000026"><a xlink:title=" ">
<path fill="none" stroke="#63b8ff" d="M2335.94,-74.17C2494.98,-72.72 2856.4,-65.41 3158,-30 3169.31,-28.67 3181.49,-26.66 3192.67,-24.56"/>
<polygon fill="#63b8ff" stroke="#63b8ff" points="2335.73,-70.67 2325.76,-74.26 2335.79,-77.67 2335.73,-70.67"/>
</a>
</g>
</g>
<!-- Node27 -->
<g id="Node000027" class="node">
<title>Node27</title>
<g id="a_Node000027"><a xlink:href="811__fault__injection_8c.html" target="_top" xlink:title="Unit test to verify resource cleanup under memory allocation failures.">
<polygon fill="white" stroke="#666666" points="3441.5,-24.5 3316.5,-24.5 3316.5,-5.5 3441.5,-5.5 3441.5,-24.5"/>
<text text-anchor="middle" x="3379" y="-12.5" font-family="Helvetica,sans-Serif" font-size="10.00">t/811_fault_injection.c</text>
</a>
</g>
</g>
<!-- Node1&#45;&gt;Node27 -->
<g id="edge26_Node000001_Node000027" class="edge">
<title>Node1&#45;&gt;Node27</title>
<g id="a_edge26_Node000001_Node000027"><a xlink:title=" ">
<path fill="none" stroke="#63b8ff" d="M2335.6,-75.28C2513.11,-76.05 2947.4,-72.91 3308,-30 3318.85,-28.71 3330.53,-26.68 3341.22,-24.56"/>
<polygon fill="#63b8ff" stroke="#63b8ff" points="2335.57,-71.78 2325.55,-75.23 2335.54,-78.78 2335.57,-71.78"/>
</a>
</g>
</g>
<!-- Node28 -->
<g id="Node000028" class="node">
<title>Node28</title>
<g id="a_Node000028"><a xlink:href="812__shared__arena_8c.html" target="_top" xlink:title="Unit test for advanced arena&#45;based memory management features.">
<polygon fill="white" stroke="#666666" points="3580.5,-24.5 3459.5,-24.5 3459.5,-5.5 3580.5,-5.5 3580.5,-24.5"/>
<text text-anchor="middle" x="3520" y="-12.5" font-family="Helvetica,sans-Serif" font-size="10.00">t/812_shared_arena.c</text>
</a>
</g>
</g>
<!-- Node1&#45;&gt;Node28 -->
<g id="edge27_Node000001_Node000028" class="edge">
<title>Node1&#45;&gt;Node28</title>
<g id="a_edge27_Node000001_Node000028"><a xlink:title=" ">
<path fill="none" stroke="#63b8ff" d="M2335.86,-73.2C2569.15,-69.2 3234.43,-55.82 3451,-30 3461.68,-28.73 3473.17,-26.67 3483.65,-24.53"/>
<polygon fill="#63b8ff" stroke="#63b8ff" points="2335.69,-69.7 2325.75,-73.37 2335.81,-76.7 2335.69,-69.7"/>
</a>
</g>
</g>
<!-- Node29 -->
<g id="Node000029" class="node">
<title>Node29</title>
<g id="a_Node000029"><a xlink:href="820__threading__helgrind_8c.html" target="_top" xlink:title="A stress test to detect data races and other threading issues.">
<polygon fill="white" stroke="#666666" points="3745,-24.5 3599,-24.5 3599,-5.5 3745,-5.5 3745,-24.5"/>
<text text-anchor="middle" x="3672" y="-12.5" font-family="Helvetica,sans-Serif" font-size="10.00">t/820_threading_helgrind.c</text>
</a>
</g>
</g>
<!-- Node1&#45;&gt;Node29 -->
<g id="edge28_Node000001_Node000029" class="edge">
<title>Node1&#45;&gt;Node29</title>
<g id="a_edge28_Node000001_Node000029"><a xlink:title=" ">
<path fill="none" stroke="#63b8ff" d="M2336.05,-73.23C2587.46,-69.1 3344.91,-54.89 3590,-30 3602.64,-28.72 3616.28,-26.66 3628.74,-24.52"/>
<polygon fill="#63b8ff" stroke="#63b8ff" points="2335.83,-69.73 2325.89,-73.39 2335.95,-76.73 2335.83,-69.73"/>
</a>
</g>
</g>
<!-- Node30 -->
<g id="Node000030" class="node">
<title>Node30</title>
<g id="a_Node000030"><a xlink:href="830__security_8c.html" target="_top" xlink:title="Unit test for security&#45;hardening features of the infix library.">
<polygon fill="white" stroke="#666666" points="3855,-24.5 3763,-24.5 3763,-5.5 3855,-5.5 3855,-24.5"/>
<text text-anchor="middle" x="3809" y="-12.5" font-family="Helvetica,sans-Serif" font-size="10.00">t/830_security.c</text>
</a>
</g>
</g>
<!-- Node1&#45;&gt;Node30 -->
<g id="edge29_Node000001_Node000030" class="edge">
<title>Node1&#45;&gt;Node30</title>
<g id="a_edge29_Node000001_Node000030"><a xlink:title=" ">
<path fill="none" stroke="#63b8ff" d="M2335.81,-74.44C2607.27,-73.86 3476.67,-68.93 3754,-30 3762.68,-28.78 3771.98,-26.72 3780.41,-24.54"/>
<polygon fill="#63b8ff" stroke="#63b8ff" points="2335.63,-70.94 2325.64,-74.46 2335.65,-77.94 2335.63,-70.94"/>
</a>
</g>
</g>
<!-- Node31 -->
<g id="Node000031" class="node">
<title>Node31</title>
<g id="a_Node000031"><a xlink:href="840__arena__allocator_8c.html" target="_top" xlink:title="Unit test for the internal arena allocator.">
<polygon fill="white" stroke="#666666" points="4003,-24.5 3873,-24.5 3873,-5.5 4003,-5.5 4003,-24.5"/>
<text text-anchor="middle" x="3938" y="-12.5" font-family="Helvetica,sans-Serif" font-size="10.00">t/840_arena_allocator.c</text>
</a>
</g>
</g>
<!-- Node1&#45;&gt;Node31 -->
<g id="edge30_Node000001_Node000031" class="edge">
<title>Node1&#45;&gt;Node31</title>
<g id="a_edge30_Node000001_Node000031"><a xlink:title=" ">
<path fill="none" stroke="#63b8ff" d="M2335.86,-73.96C2620.07,-71.83 3563.12,-62.41 3864,-30 3875.57,-28.75 3888.04,-26.68 3899.38,-24.51"/>
<polygon fill="#63b8ff" stroke="#63b8ff" points="2335.61,-70.46 2325.63,-74.04 2335.66,-77.46 2335.61,-70.46"/>
</a>
</g>
</g>
<!-- Node32 -->
<g id="Node000032" class="node">
<title>Node32</title>
<g id="a_Node000032"><a xlink:href="850__regression__cases_8c.html" target="_top" xlink:title="A suite of regression tests for bugs discovered by fuzzing.">
<polygon fill="white" stroke="#666666" points="4160.5,-24.5 4021.5,-24.5 4021.5,-5.5 4160.5,-5.5 4160.5,-24.5"/>
<text text-anchor="middle" x="4091" y="-12.5" font-family="Helvetica,sans-Serif" font-size="10.00">t/850_regression_cases.c</text>
</a>
</g>
</g>
<!-- Node1&#45;&gt;Node32 -->
<g id="edge31_Node000001_Node000032" class="edge">
<title>Node1&#45;&gt;Node32</title>
<g id="a_edge31_Node000001_Node000032"><a xlink:title=" ">
<path fill="none" stroke="#63b8ff" d="M2336.14,-74.06C2637.31,-72.18 3680.64,-63.36 4012,-30 4024.33,-28.76 4037.64,-26.69 4049.75,-24.51"/>
<polygon fill="#63b8ff" stroke="#63b8ff" points="2335.72,-70.56 2325.74,-74.12 2335.77,-77.56 2335.72,-70.56"/>
</a>
</g>
</g>
<!-- Node33 -->
<g id="Node000033" class="node">
<title>Node33</title>
<g id="a_Node000033"><a xlink:href="851__lifecycle__regression_8c.html" target="_top" xlink:title="Regression tests for specific memory lifecycle and ownership bugs.">
<polygon fill="white" stroke="#666666" points="4331,-24.5 4179,-24.5 4179,-5.5 4331,-5.5 4331,-24.5"/>
<text text-anchor="middle" x="4255" y="-12.5" font-family="Helvetica,sans-Serif" font-size="10.00">t/851_lifecycle_regression.c</text>
</a>
</g>
</g>
<!-- Node1&#45;&gt;Node33 -->
<g id="edge32_Node000001_Node000033" class="edge">
<title>Node1&#45;&gt;Node33</title>
<g id="a_edge32_Node000001_Node000033"><a xlink:title=" ">
<path fill="none" stroke="#63b8ff" d="M2335.72,-74.13C2653.29,-72.44 3805.71,-64.06 4170,-30 4183.25,-28.76 4197.56,-26.69 4210.6,-24.52"/>
<polygon fill="#63b8ff" stroke="#63b8ff" points="2335.65,-70.63 2325.67,-74.18 2335.69,-77.63 2335.65,-70.63"/>
</a>
</g>
</g>
<!-- Node34 -->
<g id="Node000034" class="node">
<title>Node34</title>
<g id="a_Node000034"><a xlink:href="860__error__handling_8c.html" target="_top" xlink:title="Unit test for the error reporting system.">
<polygon fill="white" stroke="#666666" points="4474.5,-24.5 4349.5,-24.5 4349.5,-5.5 4474.5,-5.5 4474.5,-24.5"/>
<text text-anchor="middle" x="4412" y="-12.5" font-family="Helvetica,sans-Serif" font-size="10.00">t/860_error_handling.c</text>
</a>
</g>
</g>
<!-- Node1&#45;&gt;Node34 -->
<g id="edge33_Node000001_Node000034" class="edge">
<title>Node1&#45;&gt;Node34</title>
<g id="a_edge33_Node000001_Node000034"><a xlink:title=" ">
<path fill="none" stroke="#63b8ff" d="M2335.63,-74.62C2670.64,-74.83 3941.07,-72.72 4340,-30 4351.27,-28.79 4363.4,-26.73 4374.44,-24.56"/>
<polygon fill="#63b8ff" stroke="#63b8ff" points="2335.53,-71.12 2325.52,-74.61 2335.52,-78.12 2335.53,-71.12"/>
</a>
</g>
</g>
<!-- Node35 -->
<g id="Node000035" class="node">
<title>Node35</title>
<g id="a_Node000035"><a xlink:href="901__call__overhead_8c.html" target="_top" xlink:title="A micro&#45;benchmark to measure the performance overhead of an FFI call.">
<polygon fill="white" stroke="#666666" points="4615.5,-24.5 4492.5,-24.5 4492.5,-5.5 4615.5,-5.5 4615.5,-24.5"/>
<text text-anchor="middle" x="4554" y="-12.5" font-family="Helvetica,sans-Serif" font-size="10.00">t/901_call_overhead.c</text>
</a>
</g>
</g>
<!-- Node1&#45;&gt;Node35 -->
<g id="edge34_Node000001_Node000035" class="edge">
<title>Node1&#45;&gt;Node35</title>
<g id="a_edge34_Node000001_Node000035"><a xlink:title=" ">
<path fill="none" stroke="#63b8ff" d="M2335.72,-74.81C2685.16,-75.84 4055.4,-76.76 4484,-30 4494.97,-28.8 4506.77,-26.75 4517.5,-24.57"/>
<polygon fill="#63b8ff" stroke="#63b8ff" points="2335.69,-71.31 2325.68,-74.78 2335.67,-78.31 2335.69,-71.31"/>
</a>
</g>
</g>
<!-- Node36 -->
<g id="Node000036" class="node">
<title>Node36</title>
<g id="a_Node000036"><a xlink:href="903__generation__benchmark_8c.html" target="_top" xlink:title="A micro&#45;benchmark to measure the performance of trampoline generation.">
<polygon fill="white" stroke="#666666" points="4800.5,-24.5 4633.5,-24.5 4633.5,-5.5 4800.5,-5.5 4800.5,-24.5"/>
<text text-anchor="middle" x="4717" y="-12.5" font-family="Helvetica,sans-Serif" font-size="10.00">t/903_generation_benchmark.c</text>
</a>
</g>
</g>
<!-- Node1&#45;&gt;Node36 -->
<g id="edge35_Node000001_Node000036" class="edge">
<title>Node1&#45;&gt;Node36</title>
<g id="a_edge35_Node000001_Node000036"><a xlink:title=" ">
<path fill="none" stroke="#63b8ff" d="M2335.68,-74.42C2698.46,-73.83 4166.12,-69.05 4625,-30 4639.33,-28.78 4654.81,-26.72 4668.92,-24.54"/>
<polygon fill="#63b8ff" stroke="#63b8ff" points="2335.52,-70.92 2325.52,-74.43 2335.53,-77.92 2335.52,-70.92"/>
</a>
</g>
</g>
</g>
</svg>

<g id="navigator" transform="translate(0 0)" fill="#404254">
  <rect fill="#f2f5e9" fill-opacity="0.5" stroke="#606060" stroke-width=".5" x="0" y="0" width="60" height="60"/>
  <use id="zoomplus" xlink:href="#zoomPlus" x="17" y="9" onmousedown="handleZoom(evt,'in')"/>
  <use id="zoomminus" xlink:href="#zoomMin" x="42" y="9" onmousedown="handleZoom(evt,'out')"/>
  <use id="reset" xlink:href="#resetDef" x="30" y="36" onmousedown="handleReset()"/>
   <use id="arrowup" xlink:href="#arrowUp" x="0" y="0" onmousedown="handlePan(0,-1)"/>
  <use id="arrowright" xlink:href="#arrowRight" x="0" y="0" onmousedown="handlePan(1,0)"/>
  <use id="arrowdown" xlink:href="#arrowDown" x="0" y="0" onmousedown="handlePan(0,1)"/>
  <use id="arrowleft" xlink:href="#arrowLeft" x="0" y="0" onmousedown="handlePan(-1,0)"/>
</g>
<svg viewBox="0 0 15 15" width="100%" height="30px" preserveAspectRatio="xMaxYMin meet">
 <g id="arrow_out" transform="scale(0.3 0.3)">
  <a xlink:href="double__tap_8h__dep__incl_org.svg" target="_base">
   <rect id="button" ry="5" rx="5" y="6" x="6" height="38" width="38"
        fill="#f2f5e9" fill-opacity="0.5" stroke="#606060" stroke-width="1.0"/>
   <path id="arrow"
     d="M 11.500037,31.436501 C 11.940474,20.09759 22.043105,11.32322 32.158766,21.979434 L 37.068811,17.246167 C 37.068811,17.246167 37.088388,32 37.088388,32 L 22.160133,31.978069 C 22.160133,31.978069 26.997745,27.140456 26.997745,27.140456 C 18.528582,18.264221 13.291696,25.230495 11.500037,31.436501 z"
     style="fill:#404040;"/>
  </a>
 </g>
</svg>

<style type='text/css'>
<![CDATA[
[data-mouse-over-selected='false'] { opacity: 0.7; }
[data-mouse-over-selected='true']  { opacity: 1.0; }
]]>
</style>
<script type="application/ecmascript"><![CDATA[
document.addEventListener('DOMContentLoaded', (event) => {
  highlightEdges();
  highlightAdjacentNodes();
});
]]></script>
</svg>
