<?xml version="1.0" encoding="UTF-8" standalone="no"?>
<!DOCTYPE svg PUBLIC "-//W3C//DTD SVG 1.1//EN"
 "http://www.w3.org/Graphics/SVG/1.1/DTD/svg11.dtd">
<!-- Generated by graphviz version 2.43.0 (0)
 -->
<!-- Title: eg/cookbook/lib/types.h Pages: 1 -->
<!--zoomable 93 -->

<svg id="main" version="1.1" xmlns="http://www.w3.org/2000/svg" xmlns:xlink="http://www.w3.org/1999/xlink" xml:space="preserve" onload="init(evt)">
<style type="text/css"><![CDATA[
.node, .edge {opacity: 0.7;}
.node.selected, .edge.selected {opacity: 1;}
.edge:hover path { stroke: red; }
.edge:hover polygon { stroke: red; fill: red; }
]]></style>

<defs>
  <circle id="rim" cx="0" cy="0" r="7"/>
  <circle id="rim2" cx="0" cy="0" r="3.5"/>
  <g id="zoomPlus">
    <use xlink:href="#rim" fill="#404040"><set attributeName="fill" to="#808080" begin="zoomplus.mouseover" end="zoomplus.mouseout"/></use>
    <path d="M-4,0h8M0,-4v8" fill="none" stroke="white" stroke-width="1.5" pointer-events="none"/>
  </g>
  <g id="zoomMin">
    <use xlink:href="#rim" fill="#404040"><set attributeName="fill" to="#808080" begin="zoomminus.mouseover" end="zoomminus.mouseout"/></use>
    <path d="M-4,0h8" fill="none" stroke="white" stroke-width="1.5" pointer-events="none"/>
  </g>
  <g id="arrowUp" transform="translate(30 24)">
    <use xlink:href="#rim"/>
    <path pointer-events="none" fill="none" stroke="white" stroke-width="1.5" d="M0,-3.0v7 M-2.5,-0.5L0,-3.0L2.5,-0.5"/>
  </g>
  <g id="arrowRight" transform="rotate(90) translate(36 -43)">
    <use xlink:href="#rim"/>
    <path pointer-events="none" fill="none" stroke="white" stroke-width="1.5" d="M0,-3.0v7 M-2.5,-0.5L0,-3.0L2.5,-0.5"/>
  </g>
  <g id="arrowDown" transform="rotate(180) translate(-30 -48)">
    <use xlink:href="#rim"/>
    <path pointer-events="none" fill="none" stroke="white" stroke-width="1.5" d="M0,-3.0v7 M-2.5,-0.5L0,-3.0L2.5,-0.5"/>
  </g>
  <g id="arrowLeft" transform="rotate(270) translate(-36 17)">
    <use xlink:href="#rim"/>
    <path pointer-events="none" fill="none" stroke="white" stroke-width="1.5" d="M0,-3.0v7 M-2.5,-0.5L0,-3.0L2.5,-0.5"/>
  </g>
  <g id="resetDef">
    <use xlink:href="#rim2" fill="#404040"><set attributeName="fill" to="#808080" begin="reset.mouseover" end="reset.mouseout"/></use>
  </g>
</defs>
<script type="application/ecmascript">
var viewWidth = 736;
var viewHeight = 93;
var sectionId = 'dynsection-1';
</script>
<script type="application/ecmascript" xlink:href="svg.min.js"/>
<svg id="graph" class="graph">
<g id="viewport">
<title>eg/cookbook/lib/types.h</title>
<!-- Node1 -->
<g id="Node000001" class="node">
<title>Node1</title>
<g id="a_Node000001"><a xlink:title="Defines common data structures used across the cookbook examples.">
<polygon fill="#999999" stroke="#666666" points="420.5,-85 287.5,-85 287.5,-66 420.5,-66 420.5,-85"/>
<text text-anchor="middle" x="354" y="-73" font-family="Helvetica,sans-Serif" font-size="10.00">eg/cookbook/lib/types.h</text>
</a>
</g>
</g>
<!-- Node2 -->
<g id="Node000002" class="node">
<title>Node2</title>
<g id="a_Node000002"><a xlink:href="06__small__struct__by__value_8c.html" target="_top" xlink:title="Recipe: Small Structs Passed by Value.">
<polygon fill="white" stroke="#666666" points="126,-30 0,-30 0,0 126,0 126,-30"/>
<text text-anchor="start" x="8" y="-18" font-family="Helvetica,sans-Serif" font-size="10.00">eg/cookbook/06_small</text>
<text text-anchor="middle" x="63" y="-7" font-family="Helvetica,sans-Serif" font-size="10.00">_struct_by_value.c</text>
</a>
</g>
</g>
<!-- Node1&#45;&gt;Node2 -->
<g id="edge1_Node000001_Node000002" class="edge">
<title>Node1&#45;&gt;Node2</title>
<g id="a_edge1_Node000001_Node000002"><a xlink:title=" ">
<path fill="none" stroke="#63b8ff" d="M301.87,-64.02C252.6,-54.12 178.6,-39.24 126.04,-28.67"/>
<polygon fill="#63b8ff" stroke="#63b8ff" points="301.19,-67.45 311.69,-65.99 302.57,-60.59 301.19,-67.45"/>
</a>
</g>
</g>
<!-- Node3 -->
<g id="Node000003" class="node">
<title>Node3</title>
<g id="a_Node000003"><a xlink:href="07__large__struct__by__reference_8c.html" target="_top" xlink:title="Recipe: Large Structs Passed by Reference.">
<polygon fill="white" stroke="#666666" points="271.5,-30 144.5,-30 144.5,0 271.5,0 271.5,-30"/>
<text text-anchor="start" x="152.5" y="-18" font-family="Helvetica,sans-Serif" font-size="10.00">eg/cookbook/07_large</text>
<text text-anchor="middle" x="208" y="-7" font-family="Helvetica,sans-Serif" font-size="10.00">_struct_by_reference.c</text>
</a>
</g>
</g>
<!-- Node1&#45;&gt;Node3 -->
<g id="edge2_Node000001_Node000003" class="edge">
<title>Node1&#45;&gt;Node3</title>
<g id="a_edge2_Node000001_Node000003"><a xlink:title=" ">
<path fill="none" stroke="#63b8ff" d="M323.32,-62.21C299.89,-52.82 267.56,-39.87 243.1,-30.06"/>
<polygon fill="#63b8ff" stroke="#63b8ff" points="322.19,-65.52 332.77,-65.99 324.79,-59.03 322.19,-65.52"/>
</a>
</g>
</g>
<!-- Node4 -->
<g id="Node000004" class="node">
<title>Node4</title>
<g id="a_Node000004"><a xlink:href="08__return__struct_8c.html" target="_top" xlink:title="Recipe: Receiving a Struct from a Function.">
<polygon fill="white" stroke="#666666" points="418,-30 290,-30 290,0 418,0 418,-30"/>
<text text-anchor="start" x="298" y="-18" font-family="Helvetica,sans-Serif" font-size="10.00">eg/cookbook/08_return</text>
<text text-anchor="middle" x="354" y="-7" font-family="Helvetica,sans-Serif" font-size="10.00">_struct.c</text>
</a>
</g>
</g>
<!-- Node1&#45;&gt;Node4 -->
<g id="edge3_Node000001_Node000004" class="edge">
<title>Node1&#45;&gt;Node4</title>
<g id="a_edge3_Node000001_Node000004"><a xlink:title=" ">
<path fill="none" stroke="#63b8ff" d="M354,-55.65C354,-47.36 354,-37.78 354,-30.11"/>
<polygon fill="#63b8ff" stroke="#63b8ff" points="350.5,-55.87 354,-65.87 357.5,-55.87 350.5,-55.87"/>
</a>
</g>
</g>
<!-- Node5 -->
<g id="Node000005" class="node">
<title>Node5</title>
<g id="a_Node000005"><a xlink:href="09__packed__struct_8c.html" target="_top" xlink:title="Recipe: Working with Packed Structs via the Signature API.">
<polygon fill="white" stroke="#666666" points="570,-30 436,-30 436,0 570,0 570,-30"/>
<text text-anchor="start" x="444" y="-18" font-family="Helvetica,sans-Serif" font-size="10.00">eg/cookbook/09_packed</text>
<text text-anchor="middle" x="503" y="-7" font-family="Helvetica,sans-Serif" font-size="10.00">_struct.c</text>
</a>
</g>
</g>
<!-- Node1&#45;&gt;Node5 -->
<g id="edge4_Node000001_Node000005" class="edge">
<title>Node1&#45;&gt;Node5</title>
<g id="a_edge4_Node000001_Node000005"><a xlink:title=" ">
<path fill="none" stroke="#63b8ff" d="M384.99,-62.33C408.93,-52.93 442.1,-39.91 467.18,-30.06"/>
<polygon fill="#63b8ff" stroke="#63b8ff" points="383.7,-59.08 375.67,-65.99 386.25,-65.6 383.7,-59.08"/>
</a>
</g>
</g>
<!-- Node6 -->
<g id="Node000006" class="node">
<title>Node6</title>
<g id="a_Node000006"><a xlink:href="10__unions_8c.html" target="_top" xlink:title="Recipe: Working with Unions.">
<polygon fill="white" stroke="#666666" points="728,-24.5 588,-24.5 588,-5.5 728,-5.5 728,-24.5"/>
<text text-anchor="middle" x="658" y="-12.5" font-family="Helvetica,sans-Serif" font-size="10.00">eg/cookbook/10_unions.c</text>
</a>
</g>
</g>
<!-- Node1&#45;&gt;Node6 -->
<g id="edge5_Node000001_Node000006" class="edge">
<title>Node1&#45;&gt;Node6</title>
<g id="a_edge5_Node000001_Node000006"><a xlink:title=" ">
<path fill="none" stroke="#63b8ff" d="M408.03,-64.1C466.68,-52.82 559.23,-35.01 613.74,-24.52"/>
<polygon fill="#63b8ff" stroke="#63b8ff" points="407.36,-60.67 398.2,-65.99 408.69,-67.54 407.36,-60.67"/>
</a>
</g>
</g>
</g>
</svg>

<g id="navigator" transform="translate(0 0)" fill="#404254">
  <rect fill="#f2f5e9" fill-opacity="0.5" stroke="#606060" stroke-width=".5" x="0" y="0" width="60" height="60"/>
  <use id="zoomplus" xlink:href="#zoomPlus" x="17" y="9" onmousedown="handleZoom(evt,'in')"/>
  <use id="zoomminus" xlink:href="#zoomMin" x="42" y="9" onmousedown="handleZoom(evt,'out')"/>
  <use id="reset" xlink:href="#resetDef" x="30" y="36" onmousedown="handleReset()"/>
   <use id="arrowup" xlink:href="#arrowUp" x="0" y="0" onmousedown="handlePan(0,-1)"/>
  <use id="arrowright" xlink:href="#arrowRight" x="0" y="0" onmousedown="handlePan(1,0)"/>
  <use id="arrowdown" xlink:href="#arrowDown" x="0" y="0" onmousedown="handlePan(0,1)"/>
  <use id="arrowleft" xlink:href="#arrowLeft" x="0" y="0" onmousedown="handlePan(-1,0)"/>
</g>
<svg viewBox="0 0 15 15" width="100%" height="30px" preserveAspectRatio="xMaxYMin meet">
 <g id="arrow_out" transform="scale(0.3 0.3)">
  <a xlink:href="eg_2cookbook_2lib_2types_8h__dep__incl_org.svg" target="_base">
   <rect id="button" ry="5" rx="5" y="6" x="6" height="38" width="38"
        fill="#f2f5e9" fill-opacity="0.5" stroke="#606060" stroke-width="1.0"/>
   <path id="arrow"
     d="M 11.500037,31.436501 C 11.940474,20.09759 22.043105,11.32322 32.158766,21.979434 L 37.068811,17.246167 C 37.068811,17.246167 37.088388,32 37.088388,32 L 22.160133,31.978069 C 22.160133,31.978069 26.997745,27.140456 26.997745,27.140456 C 18.528582,18.264221 13.291696,25.230495 11.500037,31.436501 z"
     style="fill:#404040;"/>
  </a>
 </g>
</svg>

<style type='text/css'>
<![CDATA[
[data-mouse-over-selected='false'] { opacity: 0.7; }
[data-mouse-over-selected='true']  { opacity: 1.0; }
]]>
</style>
<script type="application/ecmascript"><![CDATA[
document.addEventListener('DOMContentLoaded', (event) => {
  highlightEdges();
  highlightAdjacentNodes();
});
]]></script>
</svg>
