<?xml version="1.0" encoding="UTF-8" standalone="no"?>
<!DOCTYPE svg PUBLIC "-//W3C//DTD SVG 1.1//EN"
 "http://www.w3.org/Graphics/SVG/1.1/DTD/svg11.dtd">
<!-- Generated by graphviz version 2.43.0 (0)
 -->
<!-- Title: eg/cookbook/lib/types.h Pages: 1 -->
<svg width="736pt" height="93pt"
 viewBox="0.00 0.00 736.00 93.00" xmlns="http://www.w3.org/2000/svg" xmlns:xlink="http://www.w3.org/1999/xlink">
<g id="graph0" class="graph" transform="scale(1 1) rotate(0) translate(4 89)">
<title>eg/cookbook/lib/types.h</title>
<!-- Node1 -->
<g id="Node000001" class="node">
<title>Node1</title>
<g id="a_Node000001"><a xlink:title="Defines common data structures used across the cookbook examples.">
<polygon fill="#999999" stroke="#666666" points="420.5,-85 287.5,-85 287.5,-66 420.5,-66 420.5,-85"/>
<text text-anchor="middle" x="354" y="-73" font-family="Helvetica,sans-Serif" font-size="10.00">eg/cookbook/lib/types.h</text>
</a>
</g>
</g>
<!-- Node2 -->
<g id="Node000002" class="node">
<title>Node2</title>
<g id="a_Node000002"><a xlink:href="06__small__struct__by__value_8c.html" target="_top" xlink:title="Recipe: Small Structs Passed by Value.">
<polygon fill="white" stroke="#666666" points="126,-30 0,-30 0,0 126,0 126,-30"/>
<text text-anchor="start" x="8" y="-18" font-family="Helvetica,sans-Serif" font-size="10.00">eg/cookbook/06_small</text>
<text text-anchor="middle" x="63" y="-7" font-family="Helvetica,sans-Serif" font-size="10.00">_struct_by_value.c</text>
</a>
</g>
</g>
<!-- Node1&#45;&gt;Node2 -->
<g id="edge1_Node000001_Node000002" class="edge">
<title>Node1&#45;&gt;Node2</title>
<g id="a_edge1_Node000001_Node000002"><a xlink:title=" ">
<path fill="none" stroke="#63b8ff" d="M301.87,-64.02C252.6,-54.12 178.6,-39.24 126.04,-28.67"/>
<polygon fill="#63b8ff" stroke="#63b8ff" points="301.19,-67.45 311.69,-65.99 302.57,-60.59 301.19,-67.45"/>
</a>
</g>
</g>
<!-- Node3 -->
<g id="Node000003" class="node">
<title>Node3</title>
<g id="a_Node000003"><a xlink:href="07__large__struct__by__reference_8c.html" target="_top" xlink:title="Recipe: Large Structs Passed by Reference.">
<polygon fill="white" stroke="#666666" points="271.5,-30 144.5,-30 144.5,0 271.5,0 271.5,-30"/>
<text text-anchor="start" x="152.5" y="-18" font-family="Helvetica,sans-Serif" font-size="10.00">eg/cookbook/07_large</text>
<text text-anchor="middle" x="208" y="-7" font-family="Helvetica,sans-Serif" font-size="10.00">_struct_by_reference.c</text>
</a>
</g>
</g>
<!-- Node1&#45;&gt;Node3 -->
<g id="edge2_Node000001_Node000003" class="edge">
<title>Node1&#45;&gt;Node3</title>
<g id="a_edge2_Node000001_Node000003"><a xlink:title=" ">
<path fill="none" stroke="#63b8ff" d="M323.32,-62.21C299.89,-52.82 267.56,-39.87 243.1,-30.06"/>
<polygon fill="#63b8ff" stroke="#63b8ff" points="322.19,-65.52 332.77,-65.99 324.79,-59.03 322.19,-65.52"/>
</a>
</g>
</g>
<!-- Node4 -->
<g id="Node000004" class="node">
<title>Node4</title>
<g id="a_Node000004"><a xlink:href="08__return__struct_8c.html" target="_top" xlink:title="Recipe: Receiving a Struct from a Function.">
<polygon fill="white" stroke="#666666" points="418,-30 290,-30 290,0 418,0 418,-30"/>
<text text-anchor="start" x="298" y="-18" font-family="Helvetica,sans-Serif" font-size="10.00">eg/cookbook/08_return</text>
<text text-anchor="middle" x="354" y="-7" font-family="Helvetica,sans-Serif" font-size="10.00">_struct.c</text>
</a>
</g>
</g>
<!-- Node1&#45;&gt;Node4 -->
<g id="edge3_Node000001_Node000004" class="edge">
<title>Node1&#45;&gt;Node4</title>
<g id="a_edge3_Node000001_Node000004"><a xlink:title=" ">
<path fill="none" stroke="#63b8ff" d="M354,-55.65C354,-47.36 354,-37.78 354,-30.11"/>
<polygon fill="#63b8ff" stroke="#63b8ff" points="350.5,-55.87 354,-65.87 357.5,-55.87 350.5,-55.87"/>
</a>
</g>
</g>
<!-- Node5 -->
<g id="Node000005" class="node">
<title>Node5</title>
<g id="a_Node000005"><a xlink:href="09__packed__struct_8c.html" target="_top" xlink:title="Recipe: Working with Packed Structs via the Signature API.">
<polygon fill="white" stroke="#666666" points="570,-30 436,-30 436,0 570,0 570,-30"/>
<text text-anchor="start" x="444" y="-18" font-family="Helvetica,sans-Serif" font-size="10.00">eg/cookbook/09_packed</text>
<text text-anchor="middle" x="503" y="-7" font-family="Helvetica,sans-Serif" font-size="10.00">_struct.c</text>
</a>
</g>
</g>
<!-- Node1&#45;&gt;Node5 -->
<g id="edge4_Node000001_Node000005" class="edge">
<title>Node1&#45;&gt;Node5</title>
<g id="a_edge4_Node000001_Node000005"><a xlink:title=" ">
<path fill="none" stroke="#63b8ff" d="M384.99,-62.33C408.93,-52.93 442.1,-39.91 467.18,-30.06"/>
<polygon fill="#63b8ff" stroke="#63b8ff" points="383.7,-59.08 375.67,-65.99 386.25,-65.6 383.7,-59.08"/>
</a>
</g>
</g>
<!-- Node6 -->
<g id="Node000006" class="node">
<title>Node6</title>
<g id="a_Node000006"><a xlink:href="10__unions_8c.html" target="_top" xlink:title="Recipe: Working with Unions.">
<polygon fill="white" stroke="#666666" points="728,-24.5 588,-24.5 588,-5.5 728,-5.5 728,-24.5"/>
<text text-anchor="middle" x="658" y="-12.5" font-family="Helvetica,sans-Serif" font-size="10.00">eg/cookbook/10_unions.c</text>
</a>
</g>
</g>
<!-- Node1&#45;&gt;Node6 -->
<g id="edge5_Node000001_Node000006" class="edge">
<title>Node1&#45;&gt;Node6</title>
<g id="a_edge5_Node000001_Node000006"><a xlink:title=" ">
<path fill="none" stroke="#63b8ff" d="M408.03,-64.1C466.68,-52.82 559.23,-35.01 613.74,-24.52"/>
<polygon fill="#63b8ff" stroke="#63b8ff" points="407.36,-60.67 398.2,-65.99 408.69,-67.54 407.36,-60.67"/>
</a>
</g>
</g>
</g>
</svg>
