<?xml version="1.0" encoding="UTF-8" standalone="no"?>
<!DOCTYPE svg PUBLIC "-//W3C//DTD SVG 1.1//EN"
 "http://www.w3.org/Graphics/SVG/1.1/DTD/svg11.dtd">
<!-- Generated by graphviz version 2.43.0 (0)
 -->
<!-- Title: src/emit/emit_internals.h Pages: 1 -->
<svg width="371pt" height="192pt"
 viewBox="0.00 0.00 370.50 192.00" xmlns="http://www.w3.org/2000/svg" xmlns:xlink="http://www.w3.org/1999/xlink">
<g id="graph0" class="graph" transform="scale(1 1) rotate(0) translate(4 188)">
<title>src/emit/emit_internals.h</title>
<!-- Node1 -->
<g id="Node000001" class="node">
<title>Node1</title>
<g id="a_Node000001"><a xlink:title="Internal structures for the emit JIT code generation system.">
<polygon fill="#999999" stroke="#666666" points="279.5,-184 140.5,-184 140.5,-165 279.5,-165 279.5,-184"/>
<text text-anchor="middle" x="210" y="-172" font-family="Helvetica,sans-Serif" font-size="10.00">src/emit/emit_internals.h</text>
</a>
</g>
</g>
<!-- Node2 -->
<g id="Node000002" class="node">
<title>Node2</title>
<g id="a_Node000002"><a xlink:href="emit_8h.html" target="_top" xlink:title="Public API for the emit JIT code generation system.">
<polygon fill="white" stroke="#666666" points="164,-129 90,-129 90,-110 164,-110 164,-129"/>
<text text-anchor="middle" x="127" y="-117" font-family="Helvetica,sans-Serif" font-size="10.00">emit/emit.h</text>
</a>
</g>
</g>
<!-- Node1&#45;&gt;Node2 -->
<g id="edge1_Node000001_Node000002" class="edge">
<title>Node1&#45;&gt;Node2</title>
<g id="a_edge1_Node000001_Node000002"><a xlink:title=" ">
<path fill="none" stroke="#63b8ff" d="M196.66,-164.98C183.91,-156.84 164.45,-144.41 149.33,-134.76"/>
<polygon fill="#63b8ff" stroke="#63b8ff" points="150.89,-131.6 140.58,-129.17 147.12,-137.5 150.89,-131.6"/>
</a>
</g>
</g>
<!-- Node4 -->
<g id="Node000004" class="node">
<title>Node4</title>
<g id="a_Node000004"><a xlink:title=" ">
<polygon fill="#e0e0e0" stroke="#999999" points="62,-19 0,-19 0,0 62,0 62,-19"/>
<text text-anchor="middle" x="31" y="-7" font-family="Helvetica,sans-Serif" font-size="10.00">stdbool.h</text>
</a>
</g>
</g>
<!-- Node1&#45;&gt;Node4 -->
<g id="edge8_Node000001_Node000004" class="edge">
<title>Node1&#45;&gt;Node4</title>
<g id="a_edge8_Node000001_Node000004"><a xlink:title=" ">
<path fill="none" stroke="#63b8ff" d="M161.4,-165C135.42,-158.54 104.13,-147.5 81,-129 49.71,-103.97 37.72,-55.81 33.35,-29.24"/>
<polygon fill="#63b8ff" stroke="#63b8ff" points="36.76,-28.4 31.87,-19.01 29.83,-29.41 36.76,-28.4"/>
</a>
</g>
</g>
<!-- Node6 -->
<g id="Node000006" class="node">
<title>Node6</title>
<g id="a_Node000006"><a xlink:title=" ">
<polygon fill="#e0e0e0" stroke="#999999" points="207.5,-19 154.5,-19 154.5,0 207.5,0 207.5,-19"/>
<text text-anchor="middle" x="181" y="-7" font-family="Helvetica,sans-Serif" font-size="10.00">stdint.h</text>
</a>
</g>
</g>
<!-- Node1&#45;&gt;Node6 -->
<g id="edge9_Node000001_Node000006" class="edge">
<title>Node1&#45;&gt;Node6</title>
<g id="a_edge9_Node000001_Node000006"><a xlink:title=" ">
<path fill="none" stroke="#63b8ff" d="M208.44,-164.74C203.9,-139.2 190.6,-64.43 184.33,-29.23"/>
<polygon fill="#63b8ff" stroke="#63b8ff" points="187.76,-28.54 182.57,-19.31 180.87,-29.77 187.76,-28.54"/>
</a>
</g>
</g>
<!-- Node7 -->
<g id="Node000007" class="node">
<title>Node7</title>
<g id="a_Node000007"><a xlink:title=" ">
<polygon fill="#e0e0e0" stroke="#999999" points="291.5,-129 238.5,-129 238.5,-110 291.5,-110 291.5,-129"/>
<text text-anchor="middle" x="265" y="-117" font-family="Helvetica,sans-Serif" font-size="10.00">stdlib.h</text>
</a>
</g>
</g>
<!-- Node1&#45;&gt;Node7 -->
<g id="edge10_Node000001_Node000007" class="edge">
<title>Node1&#45;&gt;Node7</title>
<g id="a_edge10_Node000001_Node000007"><a xlink:title=" ">
<path fill="none" stroke="#63b8ff" d="M219.08,-164.75C227.09,-157.03 238.96,-145.6 248.62,-136.28"/>
<polygon fill="#63b8ff" stroke="#63b8ff" points="251.31,-138.55 256.09,-129.09 246.46,-133.51 251.31,-138.55"/>
</a>
</g>
</g>
<!-- Node8 -->
<g id="Node000008" class="node">
<title>Node8</title>
<g id="a_Node000008"><a xlink:title=" ">
<polygon fill="#e0e0e0" stroke="#999999" points="362.5,-129 309.5,-129 309.5,-110 362.5,-110 362.5,-129"/>
<text text-anchor="middle" x="336" y="-117" font-family="Helvetica,sans-Serif" font-size="10.00">string.h</text>
</a>
</g>
</g>
<!-- Node1&#45;&gt;Node8 -->
<g id="edge11_Node000001_Node000008" class="edge">
<title>Node1&#45;&gt;Node8</title>
<g id="a_edge11_Node000001_Node000008"><a xlink:title=" ">
<path fill="none" stroke="#63b8ff" d="M230.24,-164.98C250.7,-156.38 282.53,-142.99 305.93,-133.15"/>
<polygon fill="#63b8ff" stroke="#63b8ff" points="307.53,-136.27 315.39,-129.17 304.81,-129.82 307.53,-136.27"/>
</a>
</g>
</g>
<!-- Node3 -->
<g id="Node000003" class="node">
<title>Node3</title>
<g id="a_Node000003"><a xlink:href="infix_8h.html" target="_top" xlink:title="The public interface for the infix FFI library.">
<polygon fill="white" stroke="#666666" points="143.5,-74 72.5,-74 72.5,-55 143.5,-55 143.5,-74"/>
<text text-anchor="middle" x="108" y="-62" font-family="Helvetica,sans-Serif" font-size="10.00">infix/infix.h</text>
</a>
</g>
</g>
<!-- Node2&#45;&gt;Node3 -->
<g id="edge2_Node000002_Node000003" class="edge">
<title>Node2&#45;&gt;Node3</title>
<g id="a_edge2_Node000002_Node000003"><a xlink:title=" ">
<path fill="none" stroke="#63b8ff" d="M123.86,-109.75C121.32,-102.65 117.64,-92.4 114.47,-83.56"/>
<polygon fill="#63b8ff" stroke="#63b8ff" points="117.75,-82.32 111.08,-74.09 111.16,-84.68 117.75,-82.32"/>
</a>
</g>
</g>
<!-- Node2&#45;&gt;Node4 -->
<g id="edge6_Node000002_Node000004" class="edge">
<title>Node2&#45;&gt;Node4</title>
<g id="a_edge6_Node000002_Node000004"><a xlink:title=" ">
<path fill="none" stroke="#63b8ff" d="M110.29,-109.97C96.26,-102.14 76.4,-89.43 63,-74 51.38,-60.61 42.72,-42.26 37.37,-28.73"/>
<polygon fill="#63b8ff" stroke="#63b8ff" points="40.55,-27.25 33.78,-19.1 33.99,-29.69 40.55,-27.25"/>
</a>
</g>
</g>
<!-- Node2&#45;&gt;Node6 -->
<g id="edge7_Node000002_Node000006" class="edge">
<title>Node2&#45;&gt;Node6</title>
<g id="a_edge7_Node000002_Node000006"><a xlink:title=" ">
<path fill="none" stroke="#63b8ff" d="M132.48,-109.8C137.96,-100.95 146.49,-86.75 153,-74 160.62,-59.08 168.22,-41.63 173.58,-28.8"/>
<polygon fill="#63b8ff" stroke="#63b8ff" points="176.93,-29.85 177.5,-19.27 170.46,-27.19 176.93,-29.85"/>
</a>
</g>
</g>
<!-- Node3&#45;&gt;Node4 -->
<g id="edge3_Node000003_Node000004" class="edge">
<title>Node3&#45;&gt;Node4</title>
<g id="a_edge3_Node000003_Node000004"><a xlink:title=" ">
<path fill="none" stroke="#63b8ff" d="M95.63,-54.98C83.91,-46.92 66.08,-34.65 52.11,-25.03"/>
<polygon fill="#63b8ff" stroke="#63b8ff" points="53.82,-21.96 43.6,-19.17 49.85,-27.72 53.82,-21.96"/>
</a>
</g>
</g>
<!-- Node5 -->
<g id="Node000005" class="node">
<title>Node5</title>
<g id="a_Node000005"><a xlink:title=" ">
<polygon fill="#e0e0e0" stroke="#999999" points="136,-19 80,-19 80,0 136,0 136,-19"/>
<text text-anchor="middle" x="108" y="-7" font-family="Helvetica,sans-Serif" font-size="10.00">stddef.h</text>
</a>
</g>
</g>
<!-- Node3&#45;&gt;Node5 -->
<g id="edge4_Node000003_Node000005" class="edge">
<title>Node3&#45;&gt;Node5</title>
<g id="a_edge4_Node000003_Node000005"><a xlink:title=" ">
<path fill="none" stroke="#63b8ff" d="M108,-54.75C108,-47.8 108,-37.85 108,-29.13"/>
<polygon fill="#63b8ff" stroke="#63b8ff" points="111.5,-29.09 108,-19.09 104.5,-29.09 111.5,-29.09"/>
</a>
</g>
</g>
<!-- Node3&#45;&gt;Node6 -->
<g id="edge5_Node000003_Node000006" class="edge">
<title>Node3&#45;&gt;Node6</title>
<g id="a_edge5_Node000003_Node000006"><a xlink:title=" ">
<path fill="none" stroke="#63b8ff" d="M119.73,-54.98C130.73,-47 147.42,-34.88 160.6,-25.31"/>
<polygon fill="#63b8ff" stroke="#63b8ff" points="163.02,-27.88 169.06,-19.17 158.91,-22.21 163.02,-27.88"/>
</a>
</g>
</g>
</g>
</svg>
