<?xml version="1.0" encoding="UTF-8" standalone="no"?>
<!DOCTYPE svg PUBLIC "-//W3C//DTD SVG 1.1//EN"
 "http://www.w3.org/Graphics/SVG/1.1/DTD/svg11.dtd">
<!-- Generated by graphviz version 2.43.0 (0)
 -->
<!-- Title: src/emit/emit_math.c Pages: 1 -->
<svg width="422pt" height="247pt"
 viewBox="0.00 0.00 422.00 247.00" xmlns="http://www.w3.org/2000/svg" xmlns:xlink="http://www.w3.org/1999/xlink">
<g id="graph0" class="graph" transform="scale(1 1) rotate(0) translate(4 243)">
<title>src/emit/emit_math.c</title>
<!-- Node1 -->
<g id="Node000001" class="node">
<title>Node1</title>
<g id="a_Node000001"><a xlink:title="Math operations for JIT code generation (x86&#45;64 and ARM64).">
<polygon fill="#999999" stroke="#666666" points="320.5,-239 199.5,-239 199.5,-220 320.5,-220 320.5,-239"/>
<text text-anchor="middle" x="260" y="-227" font-family="Helvetica,sans-Serif" font-size="10.00">src/emit/emit_math.c</text>
</a>
</g>
</g>
<!-- Node2 -->
<g id="Node000002" class="node">
<title>Node2</title>
<g id="a_Node000002"><a xlink:href="emit__math_8h.html" target="_top" xlink:title="Math operations for JIT code generation.">
<polygon fill="white" stroke="#666666" points="156,-184 52,-184 52,-165 156,-165 156,-184"/>
<text text-anchor="middle" x="104" y="-172" font-family="Helvetica,sans-Serif" font-size="10.00">emit/emit_math.h</text>
</a>
</g>
</g>
<!-- Node1&#45;&gt;Node2 -->
<g id="edge1_Node000001_Node000002" class="edge">
<title>Node1&#45;&gt;Node2</title>
<g id="a_edge1_Node000001_Node000002"><a xlink:title=" ">
<path fill="none" stroke="#63b8ff" d="M234.94,-219.98C208.97,-211.16 168.19,-197.31 139.04,-187.41"/>
<polygon fill="#63b8ff" stroke="#63b8ff" points="139.85,-183.99 129.26,-184.08 137.6,-190.61 139.85,-183.99"/>
</a>
</g>
</g>
<!-- Node3 -->
<g id="Node000003" class="node">
<title>Node3</title>
<g id="a_Node000003"><a xlink:href="emit_8h.html" target="_top" xlink:title="Public API for the emit JIT code generation system.">
<polygon fill="white" stroke="#666666" points="128,-129 80,-129 80,-110 128,-110 128,-129"/>
<text text-anchor="middle" x="104" y="-117" font-family="Helvetica,sans-Serif" font-size="10.00">emit.h</text>
</a>
</g>
</g>
<!-- Node1&#45;&gt;Node3 -->
<g id="edge11_Node000001_Node000003" class="edge">
<title>Node1&#45;&gt;Node3</title>
<g id="a_edge11_Node000001_Node000003"><a xlink:title=" ">
<path fill="none" stroke="#63b8ff" d="M247.5,-219.84C220.8,-201.36 157.96,-157.86 125.01,-135.05"/>
<polygon fill="#63b8ff" stroke="#63b8ff" points="126.78,-132.01 116.56,-129.2 122.79,-137.77 126.78,-132.01"/>
</a>
</g>
</g>
<!-- Node8 -->
<g id="Node000008" class="node">
<title>Node8</title>
<g id="a_Node000008"><a xlink:href="emit__internals_8h.html" target="_top" xlink:title="Internal structures for the emit JIT code generation system.">
<polygon fill="white" stroke="#666666" points="308,-184 212,-184 212,-165 308,-165 308,-184"/>
<text text-anchor="middle" x="260" y="-172" font-family="Helvetica,sans-Serif" font-size="10.00">emit_internals.h</text>
</a>
</g>
</g>
<!-- Node1&#45;&gt;Node8 -->
<g id="edge12_Node000001_Node000008" class="edge">
<title>Node1&#45;&gt;Node8</title>
<g id="a_edge12_Node000001_Node000008"><a xlink:title=" ">
<path fill="none" stroke="#63b8ff" d="M260,-219.75C260,-212.8 260,-202.85 260,-194.13"/>
<polygon fill="#63b8ff" stroke="#63b8ff" points="263.5,-194.09 260,-184.09 256.5,-194.09 263.5,-194.09"/>
</a>
</g>
</g>
<!-- Node10 -->
<g id="Node000010" class="node">
<title>Node10</title>
<g id="a_Node000010"><a xlink:title=" ">
<polygon fill="#e0e0e0" stroke="#999999" points="412.5,-129 359.5,-129 359.5,-110 412.5,-110 412.5,-129"/>
<text text-anchor="middle" x="386" y="-117" font-family="Helvetica,sans-Serif" font-size="10.00">string.h</text>
</a>
</g>
</g>
<!-- Node1&#45;&gt;Node10 -->
<g id="edge19_Node000001_Node000010" class="edge">
<title>Node1&#45;&gt;Node10</title>
<g id="a_edge19_Node000001_Node000010"><a xlink:title=" ">
<path fill="none" stroke="#63b8ff" d="M271.57,-219.9C283.24,-211.13 301.68,-196.99 317,-184 335.47,-168.33 355.78,-149.42 369.55,-136.34"/>
<polygon fill="#63b8ff" stroke="#63b8ff" points="372.03,-138.81 376.84,-129.37 367.19,-133.75 372.03,-138.81"/>
</a>
</g>
</g>
<!-- Node11 -->
<g id="Node000011" class="node">
<title>Node11</title>
<g id="a_Node000011"><a xlink:title=" ">
<polygon fill="#e0e0e0" stroke="#999999" points="414,-184 364,-184 364,-165 414,-165 414,-184"/>
<text text-anchor="middle" x="389" y="-172" font-family="Helvetica,sans-Serif" font-size="10.00">stdio.h</text>
</a>
</g>
</g>
<!-- Node1&#45;&gt;Node11 -->
<g id="edge18_Node000001_Node000011" class="edge">
<title>Node1&#45;&gt;Node11</title>
<g id="a_edge18_Node000001_Node000011"><a xlink:title=" ">
<path fill="none" stroke="#63b8ff" d="M280.73,-219.98C301.76,-211.34 334.55,-197.87 358.54,-188.02"/>
<polygon fill="#63b8ff" stroke="#63b8ff" points="359.98,-191.21 367.9,-184.17 357.32,-184.73 359.98,-191.21"/>
</a>
</g>
</g>
<!-- Node2&#45;&gt;Node3 -->
<g id="edge2_Node000002_Node000003" class="edge">
<title>Node2&#45;&gt;Node3</title>
<g id="a_edge2_Node000002_Node000003"><a xlink:title=" ">
<path fill="none" stroke="#63b8ff" d="M104,-164.75C104,-157.8 104,-147.85 104,-139.13"/>
<polygon fill="#63b8ff" stroke="#63b8ff" points="107.5,-139.09 104,-129.09 100.5,-139.09 107.5,-139.09"/>
</a>
</g>
</g>
<!-- Node5 -->
<g id="Node000005" class="node">
<title>Node5</title>
<g id="a_Node000005"><a xlink:title=" ">
<polygon fill="#e0e0e0" stroke="#999999" points="62,-19 0,-19 0,0 62,0 62,-19"/>
<text text-anchor="middle" x="31" y="-7" font-family="Helvetica,sans-Serif" font-size="10.00">stdbool.h</text>
</a>
</g>
</g>
<!-- Node2&#45;&gt;Node5 -->
<g id="edge9_Node000002_Node000005" class="edge">
<title>Node2&#45;&gt;Node5</title>
<g id="a_edge9_Node000002_Node000005"><a xlink:title=" ">
<path fill="none" stroke="#63b8ff" d="M94.46,-164.79C77.7,-148.77 43.59,-112.71 31,-74 26.31,-59.57 26.66,-42.29 27.99,-29.41"/>
<polygon fill="#63b8ff" stroke="#63b8ff" points="31.47,-29.77 29.31,-19.4 24.53,-28.85 31.47,-29.77"/>
</a>
</g>
</g>
<!-- Node7 -->
<g id="Node000007" class="node">
<title>Node7</title>
<g id="a_Node000007"><a xlink:title=" ">
<polygon fill="#e0e0e0" stroke="#999999" points="233.5,-19 180.5,-19 180.5,0 233.5,0 233.5,-19"/>
<text text-anchor="middle" x="207" y="-7" font-family="Helvetica,sans-Serif" font-size="10.00">stdint.h</text>
</a>
</g>
</g>
<!-- Node2&#45;&gt;Node7 -->
<g id="edge10_Node000002_Node000007" class="edge">
<title>Node2&#45;&gt;Node7</title>
<g id="a_edge10_Node000002_Node000007"><a xlink:title=" ">
<path fill="none" stroke="#63b8ff" d="M113.18,-164.75C129.86,-148.4 165.34,-111.43 186,-74 193.89,-59.7 199.45,-41.95 202.86,-28.86"/>
<polygon fill="#63b8ff" stroke="#63b8ff" points="206.26,-29.67 205.22,-19.13 199.46,-28.02 206.26,-29.67"/>
</a>
</g>
</g>
<!-- Node4 -->
<g id="Node000004" class="node">
<title>Node4</title>
<g id="a_Node000004"><a xlink:href="infix_8h.html" target="_top" xlink:title="The public interface for the infix FFI library.">
<polygon fill="white" stroke="#666666" points="155.5,-74 84.5,-74 84.5,-55 155.5,-55 155.5,-74"/>
<text text-anchor="middle" x="120" y="-62" font-family="Helvetica,sans-Serif" font-size="10.00">infix/infix.h</text>
</a>
</g>
</g>
<!-- Node3&#45;&gt;Node4 -->
<g id="edge3_Node000003_Node000004" class="edge">
<title>Node3&#45;&gt;Node4</title>
<g id="a_edge3_Node000003_Node000004"><a xlink:title=" ">
<path fill="none" stroke="#63b8ff" d="M106.64,-109.75C108.76,-102.72 111.81,-92.62 114.46,-83.84"/>
<polygon fill="#63b8ff" stroke="#63b8ff" points="117.87,-84.67 117.41,-74.09 111.17,-82.65 117.87,-84.67"/>
</a>
</g>
</g>
<!-- Node3&#45;&gt;Node5 -->
<g id="edge7_Node000003_Node000005" class="edge">
<title>Node3&#45;&gt;Node5</title>
<g id="a_edge7_Node000003_Node000005"><a xlink:title=" ">
<path fill="none" stroke="#63b8ff" d="M85.19,-109.99C70.99,-102.56 52.27,-90.39 42,-74 33.64,-60.66 31.14,-42.79 30.6,-29.4"/>
<polygon fill="#63b8ff" stroke="#63b8ff" points="34.09,-29 30.52,-19.03 27.09,-29.05 34.09,-29"/>
</a>
</g>
</g>
<!-- Node3&#45;&gt;Node7 -->
<g id="edge8_Node000003_Node000007" class="edge">
<title>Node3&#45;&gt;Node7</title>
<g id="a_edge8_Node000003_Node000007"><a xlink:title=" ">
<path fill="none" stroke="#63b8ff" d="M118.41,-109.8C131.28,-101.6 150.18,-88.42 164,-74 177.34,-60.07 189.35,-41.58 197.26,-28.14"/>
<polygon fill="#63b8ff" stroke="#63b8ff" points="200.34,-29.81 202.26,-19.39 194.26,-26.34 200.34,-29.81"/>
</a>
</g>
</g>
<!-- Node4&#45;&gt;Node5 -->
<g id="edge4_Node000004_Node000005" class="edge">
<title>Node4&#45;&gt;Node5</title>
<g id="a_edge4_Node000004_Node000005"><a xlink:title=" ">
<path fill="none" stroke="#63b8ff" d="M105.7,-54.98C91.9,-46.77 70.76,-34.18 54.49,-24.49"/>
<polygon fill="#63b8ff" stroke="#63b8ff" points="55.94,-21.28 45.56,-19.17 52.36,-27.29 55.94,-21.28"/>
</a>
</g>
</g>
<!-- Node6 -->
<g id="Node000006" class="node">
<title>Node6</title>
<g id="a_Node000006"><a xlink:title=" ">
<polygon fill="#e0e0e0" stroke="#999999" points="148,-19 92,-19 92,0 148,0 148,-19"/>
<text text-anchor="middle" x="120" y="-7" font-family="Helvetica,sans-Serif" font-size="10.00">stddef.h</text>
</a>
</g>
</g>
<!-- Node4&#45;&gt;Node6 -->
<g id="edge5_Node000004_Node000006" class="edge">
<title>Node4&#45;&gt;Node6</title>
<g id="a_edge5_Node000004_Node000006"><a xlink:title=" ">
<path fill="none" stroke="#63b8ff" d="M120,-54.75C120,-47.8 120,-37.85 120,-29.13"/>
<polygon fill="#63b8ff" stroke="#63b8ff" points="123.5,-29.09 120,-19.09 116.5,-29.09 123.5,-29.09"/>
</a>
</g>
</g>
<!-- Node4&#45;&gt;Node7 -->
<g id="edge6_Node000004_Node000007" class="edge">
<title>Node4&#45;&gt;Node7</title>
<g id="a_edge6_Node000004_Node000007"><a xlink:title=" ">
<path fill="none" stroke="#63b8ff" d="M133.98,-54.98C147.47,-46.77 168.13,-34.18 184.04,-24.49"/>
<polygon fill="#63b8ff" stroke="#63b8ff" points="186.05,-27.36 192.77,-19.17 182.41,-21.38 186.05,-27.36"/>
</a>
</g>
</g>
<!-- Node8&#45;&gt;Node3 -->
<g id="edge13_Node000008_Node000003" class="edge">
<title>Node8&#45;&gt;Node3</title>
<g id="a_edge13_Node000008_Node000003"><a xlink:title=" ">
<path fill="none" stroke="#63b8ff" d="M234.94,-164.98C208.66,-156.06 167.22,-141.98 138.01,-132.05"/>
<polygon fill="#63b8ff" stroke="#63b8ff" points="138.83,-128.64 128.23,-128.73 136.57,-135.26 138.83,-128.64"/>
</a>
</g>
</g>
<!-- Node8&#45;&gt;Node5 -->
<g id="edge14_Node000008_Node000005" class="edge">
<title>Node8&#45;&gt;Node5</title>
<g id="a_edge14_Node000008_Node000005"><a xlink:title=" ">
<path fill="none" stroke="#63b8ff" d="M243.67,-164.98C199.78,-142.05 82.07,-80.32 75,-74 60.35,-60.91 48.06,-42.02 40.23,-28.24"/>
<polygon fill="#63b8ff" stroke="#63b8ff" points="43.2,-26.38 35.34,-19.27 37.05,-29.73 43.2,-26.38"/>
</a>
</g>
</g>
<!-- Node8&#45;&gt;Node7 -->
<g id="edge15_Node000008_Node000007" class="edge">
<title>Node8&#45;&gt;Node7</title>
<g id="a_edge15_Node000008_Node000007"><a xlink:title=" ">
<path fill="none" stroke="#63b8ff" d="M259.37,-164.85C257.67,-144.83 251.99,-94.04 236,-55 231.99,-45.2 225.74,-35.24 220.07,-27.24"/>
<polygon fill="#63b8ff" stroke="#63b8ff" points="222.84,-25.09 214.07,-19.14 217.22,-29.26 222.84,-25.09"/>
</a>
</g>
</g>
<!-- Node9 -->
<g id="Node000009" class="node">
<title>Node9</title>
<g id="a_Node000009"><a xlink:title=" ">
<polygon fill="#e0e0e0" stroke="#999999" points="341.5,-129 288.5,-129 288.5,-110 341.5,-110 341.5,-129"/>
<text text-anchor="middle" x="315" y="-117" font-family="Helvetica,sans-Serif" font-size="10.00">stdlib.h</text>
</a>
</g>
</g>
<!-- Node8&#45;&gt;Node9 -->
<g id="edge16_Node000008_Node000009" class="edge">
<title>Node8&#45;&gt;Node9</title>
<g id="a_edge16_Node000008_Node000009"><a xlink:title=" ">
<path fill="none" stroke="#63b8ff" d="M269.08,-164.75C277.09,-157.03 288.96,-145.6 298.62,-136.28"/>
<polygon fill="#63b8ff" stroke="#63b8ff" points="301.31,-138.55 306.09,-129.09 296.46,-133.51 301.31,-138.55"/>
</a>
</g>
</g>
<!-- Node8&#45;&gt;Node10 -->
<g id="edge17_Node000008_Node000010" class="edge">
<title>Node8&#45;&gt;Node10</title>
<g id="a_edge17_Node000008_Node000010"><a xlink:title=" ">
<path fill="none" stroke="#63b8ff" d="M280.24,-164.98C300.7,-156.38 332.53,-142.99 355.93,-133.15"/>
<polygon fill="#63b8ff" stroke="#63b8ff" points="357.53,-136.27 365.39,-129.17 354.81,-129.82 357.53,-136.27"/>
</a>
</g>
</g>
</g>
</svg>
