<?xml version="1.0" encoding="UTF-8" standalone="no"?>
<!DOCTYPE svg PUBLIC "-//W3C//DTD SVG 1.1//EN"
 "http://www.w3.org/Graphics/SVG/1.1/DTD/svg11.dtd">
<!-- Generated by graphviz version 2.43.0 (0)
 -->
<!-- Title: src/emit/emit.c Pages: 1 -->
<svg width="583pt" height="247pt"
 viewBox="0.00 0.00 583.27 247.00" xmlns="http://www.w3.org/2000/svg" xmlns:xlink="http://www.w3.org/1999/xlink">
<g id="graph0" class="graph" transform="scale(1 1) rotate(0) translate(4 243)">
<title>src/emit/emit.c</title>
<!-- Node1 -->
<g id="Node000001" class="node">
<title>Node1</title>
<g id="a_Node000001"><a xlink:title="Implementation of the emit API for generating machine code.">
<polygon fill="#999999" stroke="#666666" points="466.27,-239 376.27,-239 376.27,-220 466.27,-220 466.27,-239"/>
<text text-anchor="middle" x="421.27" y="-227" font-family="Helvetica,sans-Serif" font-size="10.00">src/emit/emit.c</text>
</a>
</g>
</g>
<!-- Node2 -->
<g id="Node000002" class="node">
<title>Node2</title>
<g id="a_Node000002"><a xlink:href="emit_8h.html" target="_top" xlink:title="Public API for the emit JIT code generation system.">
<polygon fill="white" stroke="#666666" points="331.27,-129 257.27,-129 257.27,-110 331.27,-110 331.27,-129"/>
<text text-anchor="middle" x="294.27" y="-117" font-family="Helvetica,sans-Serif" font-size="10.00">emit/emit.h</text>
</a>
</g>
</g>
<!-- Node1&#45;&gt;Node2 -->
<g id="edge1_Node000001_Node000002" class="edge">
<title>Node1&#45;&gt;Node2</title>
<g id="a_edge1_Node000001_Node000002"><a xlink:title=" ">
<path fill="none" stroke="#63b8ff" d="M390.37,-219.86C370.11,-212.91 344.16,-201.39 326.27,-184 313.42,-171.52 304.86,-152.8 299.85,-138.92"/>
<polygon fill="#63b8ff" stroke="#63b8ff" points="303.17,-137.81 296.7,-129.43 296.53,-140.02 303.17,-137.81"/>
</a>
</g>
</g>
<!-- Node7 -->
<g id="Node000007" class="node">
<title>Node7</title>
<g id="a_Node000007"><a xlink:href="compat__c23_8h.html" target="_top" xlink:title="Provides forward compatibility macros for C23 features.">
<polygon fill="white" stroke="#666666" points="235.77,-129 104.77,-129 104.77,-110 235.77,-110 235.77,-129"/>
<text text-anchor="middle" x="170.27" y="-117" font-family="Helvetica,sans-Serif" font-size="10.00">common/compat_c23.h</text>
</a>
</g>
</g>
<!-- Node1&#45;&gt;Node7 -->
<g id="edge8_Node000001_Node000007" class="edge">
<title>Node1&#45;&gt;Node7</title>
<g id="a_edge8_Node000001_Node000007"><a xlink:title=" ">
<path fill="none" stroke="#63b8ff" d="M398.17,-219.84C375.22,-211.13 339.1,-197.15 308.27,-184 269.21,-167.34 224.69,-146.52 197.03,-133.36"/>
<polygon fill="#63b8ff" stroke="#63b8ff" points="198.52,-130.19 187.99,-129.04 195.5,-136.51 198.52,-130.19"/>
</a>
</g>
</g>
<!-- Node9 -->
<g id="Node000009" class="node">
<title>Node9</title>
<g id="a_Node000009"><a xlink:href="emit__internals_8h.html" target="_top" xlink:title="Internal structures for the emit JIT code generation system.">
<polygon fill="white" stroke="#666666" points="431.27,-184 335.27,-184 335.27,-165 431.27,-165 431.27,-184"/>
<text text-anchor="middle" x="383.27" y="-172" font-family="Helvetica,sans-Serif" font-size="10.00">emit_internals.h</text>
</a>
</g>
</g>
<!-- Node1&#45;&gt;Node9 -->
<g id="edge13_Node000001_Node000009" class="edge">
<title>Node1&#45;&gt;Node9</title>
<g id="a_edge13_Node000001_Node000009"><a xlink:title=" ">
<path fill="none" stroke="#63b8ff" d="M414.99,-219.75C409.68,-212.34 401.91,-201.5 395.39,-192.41"/>
<polygon fill="#63b8ff" stroke="#63b8ff" points="398.09,-190.18 389.42,-184.09 392.41,-194.26 398.09,-190.18"/>
</a>
</g>
</g>
<!-- Node10 -->
<g id="Node000010" class="node">
<title>Node10</title>
<g id="a_Node000010"><a xlink:title=" ">
<polygon fill="#e0e0e0" stroke="#999999" points="485.77,-129 432.77,-129 432.77,-110 485.77,-110 485.77,-129"/>
<text text-anchor="middle" x="459.27" y="-117" font-family="Helvetica,sans-Serif" font-size="10.00">stdlib.h</text>
</a>
</g>
</g>
<!-- Node1&#45;&gt;Node10 -->
<g id="edge20_Node000001_Node000010" class="edge">
<title>Node1&#45;&gt;Node10</title>
<g id="a_edge20_Node000001_Node000010"><a xlink:title=" ">
<path fill="none" stroke="#63b8ff" d="M425.35,-219.75C429.41,-210.86 435.69,-196.64 440.27,-184 445.65,-169.1 450.74,-151.86 454.29,-139.11"/>
<polygon fill="#63b8ff" stroke="#63b8ff" points="457.73,-139.8 456.99,-129.23 450.98,-137.96 457.73,-139.8"/>
</a>
</g>
</g>
<!-- Node11 -->
<g id="Node000011" class="node">
<title>Node11</title>
<g id="a_Node000011"><a xlink:title=" ">
<polygon fill="#e0e0e0" stroke="#999999" points="556.77,-129 503.77,-129 503.77,-110 556.77,-110 556.77,-129"/>
<text text-anchor="middle" x="530.27" y="-117" font-family="Helvetica,sans-Serif" font-size="10.00">string.h</text>
</a>
</g>
</g>
<!-- Node1&#45;&gt;Node11 -->
<g id="edge21_Node000001_Node000011" class="edge">
<title>Node1&#45;&gt;Node11</title>
<g id="a_edge21_Node000001_Node000011"><a xlink:title=" ">
<path fill="none" stroke="#63b8ff" d="M430.19,-219.66C448.56,-201.46 490.86,-159.55 514.15,-136.47"/>
<polygon fill="#63b8ff" stroke="#63b8ff" points="516.89,-138.68 521.53,-129.16 511.96,-133.71 516.89,-138.68"/>
</a>
</g>
</g>
<!-- Node12 -->
<g id="Node000012" class="node">
<title>Node12</title>
<g id="a_Node000012"><a xlink:title=" ">
<polygon fill="#e0e0e0" stroke="#999999" points="575.27,-184 525.27,-184 525.27,-165 575.27,-165 575.27,-184"/>
<text text-anchor="middle" x="550.27" y="-172" font-family="Helvetica,sans-Serif" font-size="10.00">stdio.h</text>
</a>
</g>
</g>
<!-- Node1&#45;&gt;Node12 -->
<g id="edge19_Node000001_Node000012" class="edge">
<title>Node1&#45;&gt;Node12</title>
<g id="a_edge19_Node000001_Node000012"><a xlink:title=" ">
<path fill="none" stroke="#63b8ff" d="M441.99,-219.98C463.02,-211.34 495.81,-197.87 519.8,-188.02"/>
<polygon fill="#63b8ff" stroke="#63b8ff" points="521.24,-191.21 529.16,-184.17 518.58,-184.73 521.24,-191.21"/>
</a>
</g>
</g>
<!-- Node3 -->
<g id="Node000003" class="node">
<title>Node3</title>
<g id="a_Node000003"><a xlink:href="infix_8h.html" target="_top" xlink:title="The public interface for the infix FFI library.">
<polygon fill="white" stroke="#666666" points="269.77,-74 198.77,-74 198.77,-55 269.77,-55 269.77,-74"/>
<text text-anchor="middle" x="234.27" y="-62" font-family="Helvetica,sans-Serif" font-size="10.00">infix/infix.h</text>
</a>
</g>
</g>
<!-- Node2&#45;&gt;Node3 -->
<g id="edge2_Node000002_Node000003" class="edge">
<title>Node2&#45;&gt;Node3</title>
<g id="a_edge2_Node000002_Node000003"><a xlink:title=" ">
<path fill="none" stroke="#63b8ff" d="M284.63,-109.98C275.76,-102.15 262.39,-90.34 251.66,-80.86"/>
<polygon fill="#63b8ff" stroke="#63b8ff" points="253.89,-78.17 244.08,-74.17 249.26,-83.41 253.89,-78.17"/>
</a>
</g>
</g>
<!-- Node4 -->
<g id="Node000004" class="node">
<title>Node4</title>
<g id="a_Node000004"><a xlink:title=" ">
<polygon fill="#e0e0e0" stroke="#999999" points="297.27,-19 235.27,-19 235.27,0 297.27,0 297.27,-19"/>
<text text-anchor="middle" x="266.27" y="-7" font-family="Helvetica,sans-Serif" font-size="10.00">stdbool.h</text>
</a>
</g>
</g>
<!-- Node2&#45;&gt;Node4 -->
<g id="edge6_Node000002_Node000004" class="edge">
<title>Node2&#45;&gt;Node4</title>
<g id="a_edge6_Node000002_Node000004"><a xlink:title=" ">
<path fill="none" stroke="#63b8ff" d="M292.14,-109.86C289.11,-97.63 283.37,-74.58 278.27,-55 276.02,-46.38 273.45,-36.83 271.27,-28.8"/>
<polygon fill="#63b8ff" stroke="#63b8ff" points="274.61,-27.75 268.61,-19.02 267.86,-29.59 274.61,-27.75"/>
</a>
</g>
</g>
<!-- Node6 -->
<g id="Node000006" class="node">
<title>Node6</title>
<g id="a_Node000006"><a xlink:title=" ">
<polygon fill="#e0e0e0" stroke="#999999" points="400.77,-19 347.77,-19 347.77,0 400.77,0 400.77,-19"/>
<text text-anchor="middle" x="374.27" y="-7" font-family="Helvetica,sans-Serif" font-size="10.00">stdint.h</text>
</a>
</g>
</g>
<!-- Node2&#45;&gt;Node6 -->
<g id="edge7_Node000002_Node000006" class="edge">
<title>Node2&#45;&gt;Node6</title>
<g id="a_edge7_Node000002_Node000006"><a xlink:title=" ">
<path fill="none" stroke="#63b8ff" d="M300.81,-109.66C314.12,-91.69 344.53,-50.64 361.76,-27.38"/>
<polygon fill="#63b8ff" stroke="#63b8ff" points="364.71,-29.28 367.85,-19.16 359.09,-25.11 364.71,-29.28"/>
</a>
</g>
</g>
<!-- Node3&#45;&gt;Node4 -->
<g id="edge3_Node000003_Node000004" class="edge">
<title>Node3&#45;&gt;Node4</title>
<g id="a_edge3_Node000003_Node000004"><a xlink:title=" ">
<path fill="none" stroke="#63b8ff" d="M239.55,-54.75C243.98,-47.42 250.43,-36.73 255.88,-27.7"/>
<polygon fill="#63b8ff" stroke="#63b8ff" points="258.91,-29.46 261.08,-19.09 252.91,-25.84 258.91,-29.46"/>
</a>
</g>
</g>
<!-- Node5 -->
<g id="Node000005" class="node">
<title>Node5</title>
<g id="a_Node000005"><a xlink:title=" ">
<polygon fill="#e0e0e0" stroke="#999999" points="132.27,-19 76.27,-19 76.27,0 132.27,0 132.27,-19"/>
<text text-anchor="middle" x="104.27" y="-7" font-family="Helvetica,sans-Serif" font-size="10.00">stddef.h</text>
</a>
</g>
</g>
<!-- Node3&#45;&gt;Node5 -->
<g id="edge4_Node000003_Node000005" class="edge">
<title>Node3&#45;&gt;Node5</title>
<g id="a_edge4_Node000003_Node000005"><a xlink:title=" ">
<path fill="none" stroke="#63b8ff" d="M213.38,-54.98C192.18,-46.34 159.14,-32.87 134.96,-23.02"/>
<polygon fill="#63b8ff" stroke="#63b8ff" points="136.11,-19.7 125.53,-19.17 133.47,-26.19 136.11,-19.7"/>
</a>
</g>
</g>
<!-- Node3&#45;&gt;Node6 -->
<g id="edge5_Node000003_Node000006" class="edge">
<title>Node3&#45;&gt;Node6</title>
<g id="a_edge5_Node000003_Node000006"><a xlink:title=" ">
<path fill="none" stroke="#63b8ff" d="M256.76,-54.98C279.79,-46.27 315.8,-32.63 341.9,-22.75"/>
<polygon fill="#63b8ff" stroke="#63b8ff" points="343.25,-25.98 351.36,-19.17 340.77,-19.44 343.25,-25.98"/>
</a>
</g>
</g>
<!-- Node7&#45;&gt;Node3 -->
<g id="edge10_Node000007_Node000003" class="edge">
<title>Node7&#45;&gt;Node3</title>
<g id="a_edge10_Node000007_Node000003"><a xlink:title=" ">
<path fill="none" stroke="#63b8ff" d="M180.55,-109.98C190.1,-102.07 204.55,-90.11 216.05,-80.58"/>
<polygon fill="#63b8ff" stroke="#63b8ff" points="218.33,-83.24 223.8,-74.17 213.86,-77.85 218.33,-83.24"/>
</a>
</g>
</g>
<!-- Node7&#45;&gt;Node4 -->
<g id="edge11_Node000007_Node000004" class="edge">
<title>Node7&#45;&gt;Node4</title>
<g id="a_edge11_Node000007_Node000004"><a xlink:title=" ">
<path fill="none" stroke="#63b8ff" d="M170.86,-109.77C172.16,-96.59 176.28,-71.43 189.27,-55 200.44,-40.85 217.44,-30.36 232.63,-23.12"/>
<polygon fill="#63b8ff" stroke="#63b8ff" points="234.08,-26.31 241.78,-19.03 231.22,-19.91 234.08,-26.31"/>
</a>
</g>
</g>
<!-- Node7&#45;&gt;Node5 -->
<g id="edge12_Node000007_Node000005" class="edge">
<title>Node7&#45;&gt;Node5</title>
<g id="a_edge12_Node000007_Node000005"><a xlink:title=" ">
<path fill="none" stroke="#63b8ff" d="M109.74,-109.99C68.14,-102.75 18.17,-90.84 5.27,-74 -14.94,-47.63 30.53,-29.13 66.35,-19.15"/>
<polygon fill="#63b8ff" stroke="#63b8ff" points="67.37,-22.5 76.14,-16.56 65.58,-15.73 67.37,-22.5"/>
</a>
</g>
</g>
<!-- Node8 -->
<g id="Node000008" class="node">
<title>Node8</title>
<g id="a_Node000008"><a xlink:href="infix__config_8h.html" target="_top" xlink:title="Platform, architecture, and ABI detection macros.">
<polygon fill="white" stroke="#666666" points="141.77,-74 14.77,-74 14.77,-55 141.77,-55 141.77,-74"/>
<text text-anchor="middle" x="78.27" y="-62" font-family="Helvetica,sans-Serif" font-size="10.00">common/infix_config.h</text>
</a>
</g>
</g>
<!-- Node7&#45;&gt;Node8 -->
<g id="edge9_Node000007_Node000008" class="edge">
<title>Node7&#45;&gt;Node8</title>
<g id="a_edge9_Node000007_Node000008"><a xlink:title=" ">
<path fill="none" stroke="#63b8ff" d="M155.48,-109.98C141.08,-101.69 118.96,-88.94 102.07,-79.22"/>
<polygon fill="#63b8ff" stroke="#63b8ff" points="103.73,-76.13 93.32,-74.17 100.23,-82.19 103.73,-76.13"/>
</a>
</g>
</g>
<!-- Node9&#45;&gt;Node2 -->
<g id="edge14_Node000009_Node000002" class="edge">
<title>Node9&#45;&gt;Node2</title>
<g id="a_edge14_Node000009_Node000002"><a xlink:title=" ">
<path fill="none" stroke="#63b8ff" d="M368.97,-164.98C355.16,-156.77 334.02,-144.18 317.75,-134.49"/>
<polygon fill="#63b8ff" stroke="#63b8ff" points="319.21,-131.28 308.82,-129.17 315.63,-137.29 319.21,-131.28"/>
</a>
</g>
</g>
<!-- Node9&#45;&gt;Node4 -->
<g id="edge15_Node000009_Node000004" class="edge">
<title>Node9&#45;&gt;Node4</title>
<g id="a_edge15_Node000009_Node000004"><a xlink:title=" ">
<path fill="none" stroke="#63b8ff" d="M377.54,-164.79C369.41,-152.48 353.98,-129.32 340.27,-110 319.3,-80.47 293.93,-46.78 279,-27.15"/>
<polygon fill="#63b8ff" stroke="#63b8ff" points="281.78,-25.02 272.93,-19.19 276.21,-29.26 281.78,-25.02"/>
</a>
</g>
</g>
<!-- Node9&#45;&gt;Node6 -->
<g id="edge16_Node000009_Node000006" class="edge">
<title>Node9&#45;&gt;Node6</title>
<g id="a_edge16_Node000009_Node000006"><a xlink:title=" ">
<path fill="none" stroke="#63b8ff" d="M382.78,-164.74C381.38,-139.31 377.28,-65.08 375.32,-29.69"/>
<polygon fill="#63b8ff" stroke="#63b8ff" points="378.8,-29.1 374.75,-19.31 371.81,-29.48 378.8,-29.1"/>
</a>
</g>
</g>
<!-- Node9&#45;&gt;Node10 -->
<g id="edge17_Node000009_Node000010" class="edge">
<title>Node9&#45;&gt;Node10</title>
<g id="a_edge17_Node000009_Node000010"><a xlink:title=" ">
<path fill="none" stroke="#63b8ff" d="M395.48,-164.98C407.04,-156.92 424.64,-144.65 438.43,-135.03"/>
<polygon fill="#63b8ff" stroke="#63b8ff" points="440.63,-137.76 446.83,-129.17 436.63,-132.02 440.63,-137.76"/>
</a>
</g>
</g>
<!-- Node9&#45;&gt;Node11 -->
<g id="edge18_Node000009_Node000011" class="edge">
<title>Node9&#45;&gt;Node11</title>
<g id="a_edge18_Node000009_Node000011"><a xlink:title=" ">
<path fill="none" stroke="#63b8ff" d="M406.88,-164.98C431.17,-156.23 469.22,-142.51 496.64,-132.62"/>
<polygon fill="#63b8ff" stroke="#63b8ff" points="498,-135.85 506.22,-129.17 495.62,-129.27 498,-135.85"/>
</a>
</g>
</g>
</g>
</svg>
