<?xml version="1.0" encoding="UTF-8" standalone="no"?>
<!DOCTYPE svg PUBLIC "-//W3C//DTD SVG 1.1//EN"
 "http://www.w3.org/Graphics/SVG/1.1/DTD/svg11.dtd">
<!-- Generated by graphviz version 2.43.0 (0)
 -->
<!-- Title: src/emit/pe/emit_pe.c Pages: 1 -->
<svg width="549pt" height="192pt"
 viewBox="0.00 0.00 548.95 192.00" xmlns="http://www.w3.org/2000/svg" xmlns:xlink="http://www.w3.org/1999/xlink">
<g id="graph0" class="graph" transform="scale(1 1) rotate(0) translate(4 188)">
<title>src/emit/pe/emit_pe.c</title>
<!-- Node1 -->
<g id="Node000001" class="node">
<title>Node1</title>
<g id="a_Node000001"><a xlink:title="PE binary format support for emit system.">
<polygon fill="#999999" stroke="#666666" points="434.45,-184 312.45,-184 312.45,-165 434.45,-165 434.45,-184"/>
<text text-anchor="middle" x="373.45" y="-172" font-family="Helvetica,sans-Serif" font-size="10.00">src/emit/pe/emit_pe.c</text>
</a>
</g>
</g>
<!-- Node2 -->
<g id="Node000002" class="node">
<title>Node2</title>
<g id="a_Node000002"><a xlink:href="compat__c23_8h.html" target="_top" xlink:title="Provides forward compatibility macros for C23 features.">
<polygon fill="white" stroke="#666666" points="234.95,-129 103.95,-129 103.95,-110 234.95,-110 234.95,-129"/>
<text text-anchor="middle" x="169.45" y="-117" font-family="Helvetica,sans-Serif" font-size="10.00">common/compat_c23.h</text>
</a>
</g>
</g>
<!-- Node1&#45;&gt;Node2 -->
<g id="edge1_Node000001_Node000002" class="edge">
<title>Node1&#45;&gt;Node2</title>
<g id="a_edge1_Node000001_Node000002"><a xlink:title=" ">
<path fill="none" stroke="#63b8ff" d="M340.67,-164.98C305.83,-155.93 250.58,-141.58 212.31,-131.64"/>
<polygon fill="#63b8ff" stroke="#63b8ff" points="213.04,-128.21 202.48,-129.08 211.28,-134.98 213.04,-128.21"/>
</a>
</g>
</g>
<!-- Node8 -->
<g id="Node000008" class="node">
<title>Node8</title>
<g id="a_Node000008"><a xlink:href="emit_8h.html" target="_top" xlink:title="Public API for the emit JIT code generation system.">
<polygon fill="white" stroke="#666666" points="330.45,-129 256.45,-129 256.45,-110 330.45,-110 330.45,-129"/>
<text text-anchor="middle" x="293.45" y="-117" font-family="Helvetica,sans-Serif" font-size="10.00">emit/emit.h</text>
</a>
</g>
</g>
<!-- Node1&#45;&gt;Node8 -->
<g id="edge9_Node000001_Node000008" class="edge">
<title>Node1&#45;&gt;Node8</title>
<g id="a_edge9_Node000001_Node000008"><a xlink:title=" ">
<path fill="none" stroke="#63b8ff" d="M360.59,-164.98C348.3,-156.84 329.54,-144.41 314.97,-134.76"/>
<polygon fill="#63b8ff" stroke="#63b8ff" points="316.8,-131.78 306.54,-129.17 312.94,-137.61 316.8,-131.78"/>
</a>
</g>
</g>
<!-- Node9 -->
<g id="Node000009" class="node">
<title>Node9</title>
<g id="a_Node000009"><a xlink:title=" ">
<polygon fill="#e0e0e0" stroke="#999999" points="398.45,-129 348.45,-129 348.45,-110 398.45,-110 398.45,-129"/>
<text text-anchor="middle" x="373.45" y="-117" font-family="Helvetica,sans-Serif" font-size="10.00">stdio.h</text>
</a>
</g>
</g>
<!-- Node1&#45;&gt;Node9 -->
<g id="edge13_Node000001_Node000009" class="edge">
<title>Node1&#45;&gt;Node9</title>
<g id="a_edge13_Node000001_Node000009"><a xlink:title=" ">
<path fill="none" stroke="#63b8ff" d="M373.45,-164.75C373.45,-157.8 373.45,-147.85 373.45,-139.13"/>
<polygon fill="#63b8ff" stroke="#63b8ff" points="376.95,-139.09 373.45,-129.09 369.95,-139.09 376.95,-139.09"/>
</a>
</g>
</g>
<!-- Node10 -->
<g id="Node000010" class="node">
<title>Node10</title>
<g id="a_Node000010"><a xlink:title=" ">
<polygon fill="#e0e0e0" stroke="#999999" points="469.95,-129 416.95,-129 416.95,-110 469.95,-110 469.95,-129"/>
<text text-anchor="middle" x="443.45" y="-117" font-family="Helvetica,sans-Serif" font-size="10.00">stdlib.h</text>
</a>
</g>
</g>
<!-- Node1&#45;&gt;Node10 -->
<g id="edge14_Node000001_Node000010" class="edge">
<title>Node1&#45;&gt;Node10</title>
<g id="a_edge14_Node000001_Node000010"><a xlink:title=" ">
<path fill="none" stroke="#63b8ff" d="M384.69,-164.98C395.25,-157 411.25,-144.88 423.89,-135.31"/>
<polygon fill="#63b8ff" stroke="#63b8ff" points="426.14,-138 432,-129.17 421.91,-132.42 426.14,-138"/>
</a>
</g>
</g>
<!-- Node11 -->
<g id="Node000011" class="node">
<title>Node11</title>
<g id="a_Node000011"><a xlink:title=" ">
<polygon fill="#e0e0e0" stroke="#999999" points="540.95,-129 487.95,-129 487.95,-110 540.95,-110 540.95,-129"/>
<text text-anchor="middle" x="514.45" y="-117" font-family="Helvetica,sans-Serif" font-size="10.00">string.h</text>
</a>
</g>
</g>
<!-- Node1&#45;&gt;Node11 -->
<g id="edge15_Node000001_Node000011" class="edge">
<title>Node1&#45;&gt;Node11</title>
<g id="a_edge15_Node000001_Node000011"><a xlink:title=" ">
<path fill="none" stroke="#63b8ff" d="M396.1,-164.98C419.3,-156.27 455.57,-142.63 481.85,-132.75"/>
<polygon fill="#63b8ff" stroke="#63b8ff" points="483.25,-135.97 491.38,-129.17 480.79,-129.41 483.25,-135.97"/>
</a>
</g>
</g>
<!-- Node3 -->
<g id="Node000003" class="node">
<title>Node3</title>
<g id="a_Node000003"><a xlink:href="infix__config_8h.html" target="_top" xlink:title="Platform, architecture, and ABI detection macros.">
<polygon fill="white" stroke="#666666" points="140.95,-74 13.95,-74 13.95,-55 140.95,-55 140.95,-74"/>
<text text-anchor="middle" x="77.45" y="-62" font-family="Helvetica,sans-Serif" font-size="10.00">common/infix_config.h</text>
</a>
</g>
</g>
<!-- Node2&#45;&gt;Node3 -->
<g id="edge2_Node000002_Node000003" class="edge">
<title>Node2&#45;&gt;Node3</title>
<g id="a_edge2_Node000002_Node000003"><a xlink:title=" ">
<path fill="none" stroke="#63b8ff" d="M154.67,-109.98C140.27,-101.69 118.14,-88.94 101.26,-79.22"/>
<polygon fill="#63b8ff" stroke="#63b8ff" points="102.91,-76.13 92.5,-74.17 99.42,-82.19 102.91,-76.13"/>
</a>
</g>
</g>
<!-- Node4 -->
<g id="Node000004" class="node">
<title>Node4</title>
<g id="a_Node000004"><a xlink:href="infix_8h.html" target="_top" xlink:title="The public interface for the infix FFI library.">
<polygon fill="white" stroke="#666666" points="268.95,-74 197.95,-74 197.95,-55 268.95,-55 268.95,-74"/>
<text text-anchor="middle" x="233.45" y="-62" font-family="Helvetica,sans-Serif" font-size="10.00">infix/infix.h</text>
</a>
</g>
</g>
<!-- Node2&#45;&gt;Node4 -->
<g id="edge3_Node000002_Node000004" class="edge">
<title>Node2&#45;&gt;Node4</title>
<g id="a_edge3_Node000002_Node000004"><a xlink:title=" ">
<path fill="none" stroke="#63b8ff" d="M179.73,-109.98C189.28,-102.07 203.73,-90.11 215.23,-80.58"/>
<polygon fill="#63b8ff" stroke="#63b8ff" points="217.51,-83.24 222.98,-74.17 213.04,-77.85 217.51,-83.24"/>
</a>
</g>
</g>
<!-- Node5 -->
<g id="Node000005" class="node">
<title>Node5</title>
<g id="a_Node000005"><a xlink:title=" ">
<polygon fill="#e0e0e0" stroke="#999999" points="264.45,-19 202.45,-19 202.45,0 264.45,0 264.45,-19"/>
<text text-anchor="middle" x="233.45" y="-7" font-family="Helvetica,sans-Serif" font-size="10.00">stdbool.h</text>
</a>
</g>
</g>
<!-- Node2&#45;&gt;Node5 -->
<g id="edge7_Node000002_Node000005" class="edge">
<title>Node2&#45;&gt;Node5</title>
<g id="a_edge7_Node000002_Node000005"><a xlink:title=" ">
<path fill="none" stroke="#63b8ff" d="M170.85,-109.74C173.18,-96.97 178.71,-72.82 189.45,-55 196.06,-44.03 205.92,-33.72 214.62,-25.8"/>
<polygon fill="#63b8ff" stroke="#63b8ff" points="216.92,-28.44 222.17,-19.24 212.33,-23.16 216.92,-28.44"/>
</a>
</g>
</g>
<!-- Node6 -->
<g id="Node000006" class="node">
<title>Node6</title>
<g id="a_Node000006"><a xlink:title=" ">
<polygon fill="#e0e0e0" stroke="#999999" points="99.45,-19 43.45,-19 43.45,0 99.45,0 99.45,-19"/>
<text text-anchor="middle" x="71.45" y="-7" font-family="Helvetica,sans-Serif" font-size="10.00">stddef.h</text>
</a>
</g>
</g>
<!-- Node2&#45;&gt;Node6 -->
<g id="edge8_Node000002_Node000006" class="edge">
<title>Node2&#45;&gt;Node6</title>
<g id="a_edge8_Node000002_Node000006"><a xlink:title=" ">
<path fill="none" stroke="#63b8ff" d="M108.92,-109.99C67.32,-102.75 17.35,-90.84 4.45,-74 -10.52,-54.46 16.6,-35.5 40.68,-23.47"/>
<polygon fill="#63b8ff" stroke="#63b8ff" points="42.47,-26.5 50.01,-19.06 39.47,-20.17 42.47,-26.5"/>
</a>
</g>
</g>
<!-- Node4&#45;&gt;Node5 -->
<g id="edge4_Node000004_Node000005" class="edge">
<title>Node4&#45;&gt;Node5</title>
<g id="a_edge4_Node000004_Node000005"><a xlink:title=" ">
<path fill="none" stroke="#63b8ff" d="M233.45,-54.75C233.45,-47.8 233.45,-37.85 233.45,-29.13"/>
<polygon fill="#63b8ff" stroke="#63b8ff" points="236.95,-29.09 233.45,-19.09 229.95,-29.09 236.95,-29.09"/>
</a>
</g>
</g>
<!-- Node4&#45;&gt;Node6 -->
<g id="edge5_Node000004_Node000006" class="edge">
<title>Node4&#45;&gt;Node6</title>
<g id="a_edge5_Node000004_Node000006"><a xlink:title=" ">
<path fill="none" stroke="#63b8ff" d="M207.42,-54.98C180.34,-46.13 137.74,-32.19 107.44,-22.28"/>
<polygon fill="#63b8ff" stroke="#63b8ff" points="108.27,-18.87 97.68,-19.08 106.1,-25.52 108.27,-18.87"/>
</a>
</g>
</g>
<!-- Node7 -->
<g id="Node000007" class="node">
<title>Node7</title>
<g id="a_Node000007"><a xlink:title=" ">
<polygon fill="#e0e0e0" stroke="#999999" points="348.95,-19 295.95,-19 295.95,0 348.95,0 348.95,-19"/>
<text text-anchor="middle" x="322.45" y="-7" font-family="Helvetica,sans-Serif" font-size="10.00">stdint.h</text>
</a>
</g>
</g>
<!-- Node4&#45;&gt;Node7 -->
<g id="edge6_Node000004_Node000007" class="edge">
<title>Node4&#45;&gt;Node7</title>
<g id="a_edge6_Node000004_Node000007"><a xlink:title=" ">
<path fill="none" stroke="#63b8ff" d="M247.75,-54.98C261.55,-46.77 282.69,-34.18 298.96,-24.49"/>
<polygon fill="#63b8ff" stroke="#63b8ff" points="301.09,-27.29 307.89,-19.17 297.51,-21.28 301.09,-27.29"/>
</a>
</g>
</g>
<!-- Node8&#45;&gt;Node4 -->
<g id="edge10_Node000008_Node000004" class="edge">
<title>Node8&#45;&gt;Node4</title>
<g id="a_edge10_Node000008_Node000004"><a xlink:title=" ">
<path fill="none" stroke="#63b8ff" d="M283.81,-109.98C274.94,-102.15 261.57,-90.34 250.84,-80.86"/>
<polygon fill="#63b8ff" stroke="#63b8ff" points="253.08,-78.17 243.26,-74.17 248.44,-83.41 253.08,-78.17"/>
</a>
</g>
</g>
<!-- Node8&#45;&gt;Node5 -->
<g id="edge11_Node000008_Node000005" class="edge">
<title>Node8&#45;&gt;Node5</title>
<g id="a_edge11_Node000008_Node000005"><a xlink:title=" ">
<path fill="none" stroke="#63b8ff" d="M292.91,-109.73C291.79,-96.95 288.43,-72.78 278.45,-55 272.11,-43.7 262.06,-33.37 253.07,-25.51"/>
<polygon fill="#63b8ff" stroke="#63b8ff" points="255.18,-22.72 245.24,-19.04 250.71,-28.11 255.18,-22.72"/>
</a>
</g>
</g>
<!-- Node8&#45;&gt;Node7 -->
<g id="edge12_Node000008_Node000007" class="edge">
<title>Node8&#45;&gt;Node7</title>
<g id="a_edge12_Node000008_Node000007"><a xlink:title=" ">
<path fill="none" stroke="#63b8ff" d="M297.6,-109.83C301.67,-101 307.79,-86.82 311.45,-74 315.63,-59.34 318.48,-42.29 320.23,-29.55"/>
<polygon fill="#63b8ff" stroke="#63b8ff" points="323.75,-29.62 321.53,-19.26 316.8,-28.74 323.75,-29.62"/>
</a>
</g>
</g>
</g>
</svg>
