<?xml version="1.0" encoding="UTF-8" standalone="no"?>
<!DOCTYPE svg PUBLIC "-//W3C//DTD SVG 1.1//EN"
 "http://www.w3.org/Graphics/SVG/1.1/DTD/svg11.dtd">
<!-- Generated by graphviz version 2.43.0 (0)
 -->
<!-- Title: include/emit/emit.h Pages: 1 -->
<svg width="565pt" height="192pt"
 viewBox="0.00 0.00 564.50 192.00" xmlns="http://www.w3.org/2000/svg" xmlns:xlink="http://www.w3.org/1999/xlink">
<g id="graph0" class="graph" transform="scale(1 1) rotate(0) translate(4 188)">
<title>include/emit/emit.h</title>
<!-- Node1 -->
<g id="Node000001" class="node">
<title>Node1</title>
<g id="a_Node000001"><a xlink:title="Public API for the emit JIT code generation system.">
<polygon fill="#999999" stroke="#666666" points="374.5,-184 262.5,-184 262.5,-165 374.5,-165 374.5,-184"/>
<text text-anchor="middle" x="318.5" y="-172" font-family="Helvetica,sans-Serif" font-size="10.00">include/emit/emit.h</text>
</a>
</g>
</g>
<!-- Node2 -->
<g id="Node000002" class="node">
<title>Node2</title>
<g id="a_Node000002"><a xlink:href="emit__math_8h.html" target="_top" xlink:title="Math operations for JIT code generation.">
<polygon fill="white" stroke="#666666" points="143,-129 0,-129 0,-110 143,-110 143,-129"/>
<text text-anchor="middle" x="71.5" y="-117" font-family="Helvetica,sans-Serif" font-size="10.00">include/emit/emit_math.h</text>
</a>
</g>
</g>
<!-- Node1&#45;&gt;Node2 -->
<g id="edge1_Node000001_Node000002" class="edge">
<title>Node1&#45;&gt;Node2</title>
<g id="a_edge1_Node000001_Node000002"><a xlink:title=" ">
<path fill="none" stroke="#63b8ff" d="M269,-162.88C222.7,-152.94 154.43,-138.3 111.5,-129.08"/>
<polygon fill="#63b8ff" stroke="#63b8ff" points="268.3,-166.31 278.82,-164.98 269.77,-159.46 268.3,-166.31"/>
</a>
</g>
</g>
<!-- Node3 -->
<g id="Node000003" class="node">
<title>Node3</title>
<g id="a_Node000003"><a xlink:href="emit__math_8c.html" target="_top" xlink:title="Math operations for JIT code generation (x86&#45;64 and ARM64).">
<polygon fill="white" stroke="#666666" points="217,-74 96,-74 96,-55 217,-55 217,-74"/>
<text text-anchor="middle" x="156.5" y="-62" font-family="Helvetica,sans-Serif" font-size="10.00">src/emit/emit_math.c</text>
</a>
</g>
</g>
<!-- Node1&#45;&gt;Node3 -->
<g id="edge11_Node000001_Node000003" class="edge">
<title>Node1&#45;&gt;Node3</title>
<g id="a_edge11_Node000001_Node000003"><a xlink:title=" ">
<path fill="none" stroke="#63b8ff" d="M257.9,-162.31C234.82,-155.67 209.52,-145.24 190.5,-129 173,-114.06 163.09,-87.79 158.9,-74.2"/>
<polygon fill="#63b8ff" stroke="#63b8ff" points="257.06,-165.71 267.63,-164.93 258.88,-158.95 257.06,-165.71"/>
</a>
</g>
</g>
<!-- Node5 -->
<g id="Node000005" class="node">
<title>Node5</title>
<g id="a_Node000005"><a xlink:href="emit__elf_8c.html" target="_top" xlink:title="ELF binary format support for emit system.">
<polygon fill="white" stroke="#666666" points="467,-74 344,-74 344,-55 467,-55 467,-74"/>
<text text-anchor="middle" x="405.5" y="-62" font-family="Helvetica,sans-Serif" font-size="10.00">src/emit/elf/emit_elf.c</text>
</a>
</g>
</g>
<!-- Node1&#45;&gt;Node5 -->
<g id="edge4_Node000001_Node000005" class="edge">
<title>Node1&#45;&gt;Node5</title>
<g id="a_edge4_Node000001_Node000005"><a xlink:title=" ">
<path fill="none" stroke="#63b8ff" d="M335.81,-157.99C344.55,-149.77 355.06,-139.27 363.5,-129 378.6,-110.62 393.23,-86.69 400.59,-74.11"/>
<polygon fill="#63b8ff" stroke="#63b8ff" points="333.37,-155.48 328.39,-164.83 338.12,-160.63 333.37,-155.48"/>
</a>
</g>
</g>
<!-- Node6 -->
<g id="Node000006" class="node">
<title>Node6</title>
<g id="a_Node000006"><a xlink:href="emit_8c.html" target="_top" xlink:title="Implementation of the emit API for generating machine code.">
<polygon fill="white" stroke="#666666" points="325.5,-74 235.5,-74 235.5,-55 325.5,-55 325.5,-74"/>
<text text-anchor="middle" x="280.5" y="-62" font-family="Helvetica,sans-Serif" font-size="10.00">src/emit/emit.c</text>
</a>
</g>
</g>
<!-- Node1&#45;&gt;Node6 -->
<g id="edge6_Node000001_Node000006" class="edge">
<title>Node1&#45;&gt;Node6</title>
<g id="a_edge6_Node000001_Node000006"><a xlink:title=" ">
<path fill="none" stroke="#63b8ff" d="M334.59,-157.04C345.25,-144.06 355.86,-125.6 347.5,-110 338.26,-92.77 319.09,-81.08 303.61,-74.02"/>
<polygon fill="#63b8ff" stroke="#63b8ff" points="331.81,-154.9 327.78,-164.7 337.04,-159.56 331.81,-154.9"/>
</a>
</g>
</g>
<!-- Node7 -->
<g id="Node000007" class="node">
<title>Node7</title>
<g id="a_Node000007"><a xlink:href="emit__internals_8h.html" target="_top" xlink:title="Internal structures for the emit JIT code generation system.">
<polygon fill="white" stroke="#666666" points="339,-129 200,-129 200,-110 339,-110 339,-129"/>
<text text-anchor="middle" x="269.5" y="-117" font-family="Helvetica,sans-Serif" font-size="10.00">src/emit/emit_internals.h</text>
</a>
</g>
</g>
<!-- Node1&#45;&gt;Node7 -->
<g id="edge8_Node000001_Node000007" class="edge">
<title>Node1&#45;&gt;Node7</title>
<g id="a_edge8_Node000001_Node000007"><a xlink:title=" ">
<path fill="none" stroke="#63b8ff" d="M303.47,-157.24C294.88,-147.95 284.46,-136.68 277.44,-129.09"/>
<polygon fill="#63b8ff" stroke="#63b8ff" points="301.05,-159.78 310.41,-164.75 306.19,-155.03 301.05,-159.78"/>
</a>
</g>
</g>
<!-- Node8 -->
<g id="Node000008" class="node">
<title>Node8</title>
<g id="a_Node000008"><a xlink:href="emit__pe_8c.html" target="_top" xlink:title="PE binary format support for emit system.">
<polygon fill="white" stroke="#666666" points="556.5,-129 434.5,-129 434.5,-110 556.5,-110 556.5,-129"/>
<text text-anchor="middle" x="495.5" y="-117" font-family="Helvetica,sans-Serif" font-size="10.00">src/emit/pe/emit_pe.c</text>
</a>
</g>
</g>
<!-- Node1&#45;&gt;Node8 -->
<g id="edge12_Node000001_Node000008" class="edge">
<title>Node1&#45;&gt;Node8</title>
<g id="a_edge12_Node000001_Node000008"><a xlink:title=" ">
<path fill="none" stroke="#63b8ff" d="M356.72,-162.06C389.8,-152.15 436.91,-138.04 466.84,-129.08"/>
<polygon fill="#63b8ff" stroke="#63b8ff" points="355.51,-158.76 346.94,-164.98 357.52,-165.47 355.51,-158.76"/>
</a>
</g>
</g>
<!-- Node2&#45;&gt;Node3 -->
<g id="edge2_Node000002_Node000003" class="edge">
<title>Node2&#45;&gt;Node3</title>
<g id="a_edge2_Node000002_Node000003"><a xlink:title=" ">
<path fill="none" stroke="#63b8ff" d="M94.07,-104.42C109.5,-94.81 129.45,-82.37 142.59,-74.17"/>
<polygon fill="#63b8ff" stroke="#63b8ff" points="91.79,-101.72 85.16,-109.98 95.49,-107.66 91.79,-101.72"/>
</a>
</g>
</g>
<!-- Node4 -->
<g id="Node000004" class="node">
<title>Node4</title>
<g id="a_Node000004"><a xlink:href="infix_8c.html" target="_top" xlink:title="The unity build source file for the infix library.">
<polygon fill="white" stroke="#666666" points="374,-19 311,-19 311,0 374,0 374,-19"/>
<text text-anchor="middle" x="342.5" y="-7" font-family="Helvetica,sans-Serif" font-size="10.00">src/infix.c</text>
</a>
</g>
</g>
<!-- Node3&#45;&gt;Node4 -->
<g id="edge3_Node000003_Node000004" class="edge">
<title>Node3&#45;&gt;Node4</title>
<g id="a_edge3_Node000003_Node000004"><a xlink:title=" ">
<path fill="none" stroke="#63b8ff" d="M196.21,-52.18C231,-42.27 280.79,-28.08 312.38,-19.08"/>
<polygon fill="#63b8ff" stroke="#63b8ff" points="195.04,-48.88 186.38,-54.98 196.96,-55.61 195.04,-48.88"/>
</a>
</g>
</g>
<!-- Node5&#45;&gt;Node4 -->
<g id="edge5_Node000005_Node000004" class="edge">
<title>Node5&#45;&gt;Node4</title>
<g id="a_edge5_Node000005_Node000004"><a xlink:title=" ">
<path fill="none" stroke="#63b8ff" d="M387.46,-48.32C376.23,-38.87 362.18,-27.06 352.81,-19.17"/>
<polygon fill="#63b8ff" stroke="#63b8ff" points="385.47,-51.23 395.38,-54.98 389.98,-45.87 385.47,-51.23"/>
</a>
</g>
</g>
<!-- Node6&#45;&gt;Node4 -->
<g id="edge7_Node000006_Node000004" class="edge">
<title>Node6&#45;&gt;Node4</title>
<g id="a_edge7_Node000006_Node000004"><a xlink:title=" ">
<path fill="none" stroke="#63b8ff" d="M298.25,-48.32C309.31,-38.87 323.13,-27.06 332.36,-19.17"/>
<polygon fill="#63b8ff" stroke="#63b8ff" points="295.79,-45.83 290.46,-54.98 300.34,-51.15 295.79,-45.83"/>
</a>
</g>
</g>
<!-- Node7&#45;&gt;Node3 -->
<g id="edge10_Node000007_Node000003" class="edge">
<title>Node7&#45;&gt;Node3</title>
<g id="a_edge10_Node000007_Node000003"><a xlink:title=" ">
<path fill="none" stroke="#63b8ff" d="M242.07,-105.63C221.25,-95.87 193.2,-82.71 174.99,-74.17"/>
<polygon fill="#63b8ff" stroke="#63b8ff" points="240.8,-108.91 251.34,-109.98 243.78,-102.57 240.8,-108.91"/>
</a>
</g>
</g>
<!-- Node7&#45;&gt;Node6 -->
<g id="edge9_Node000007_Node000006" class="edge">
<title>Node7&#45;&gt;Node6</title>
<g id="a_edge9_Node000007_Node000006"><a xlink:title=" ">
<path fill="none" stroke="#63b8ff" d="M273.35,-99.95C275.18,-91.15 277.27,-81.06 278.72,-74.09"/>
<polygon fill="#63b8ff" stroke="#63b8ff" points="269.92,-99.25 271.32,-109.75 276.78,-100.67 269.92,-99.25"/>
</a>
</g>
</g>
<!-- Node8&#45;&gt;Node4 -->
<g id="edge13_Node000008_Node000004" class="edge">
<title>Node8&#45;&gt;Node4</title>
<g id="a_edge13_Node000008_Node000004"><a xlink:title=" ">
<path fill="none" stroke="#63b8ff" d="M494.11,-99.84C492.11,-85.79 487.26,-66.97 475.5,-55 448.54,-27.56 404.2,-17.04 374.2,-13.01"/>
<polygon fill="#63b8ff" stroke="#63b8ff" points="490.64,-100.28 495.18,-109.86 497.6,-99.54 490.64,-100.28"/>
</a>
</g>
</g>
</g>
</svg>
