<?xml version="1.0" encoding="UTF-8" standalone="no"?>
<!DOCTYPE svg PUBLIC "-//W3C//DTD SVG 1.1//EN"
 "http://www.w3.org/Graphics/SVG/1.1/DTD/svg11.dtd">
<!-- Generated by graphviz version 2.43.0 (0)
 -->
<!-- Title: src/core/error.c Pages: 1 -->
<svg width="466pt" height="302pt"
 viewBox="0.00 0.00 466.00 302.00" xmlns="http://www.w3.org/2000/svg" xmlns:xlink="http://www.w3.org/1999/xlink">
<g id="graph0" class="graph" transform="scale(1 1) rotate(0) translate(4 298)">
<title>src/core/error.c</title>
<!-- Node1 -->
<g id="Node000001" class="node">
<title>Node1</title>
<g id="a_Node000001"><a xlink:title="Implements the thread&#45;local error reporting system.">
<polygon fill="#999999" stroke="#666666" points="335,-294 246,-294 246,-275 335,-275 335,-294"/>
<text text-anchor="middle" x="290.5" y="-282" font-family="Helvetica,sans-Serif" font-size="10.00">src/core/error.c</text>
</a>
</g>
</g>
<!-- Node2 -->
<g id="Node000002" class="node">
<title>Node2</title>
<g id="a_Node000002"><a xlink:href="infix__internals_8h.html" target="_top" xlink:title="Internal data structures, function prototypes, and constants.">
<polygon fill="white" stroke="#666666" points="244.5,-239 104.5,-239 104.5,-220 244.5,-220 244.5,-239"/>
<text text-anchor="middle" x="174.5" y="-227" font-family="Helvetica,sans-Serif" font-size="10.00">common/infix_internals.h</text>
</a>
</g>
</g>
<!-- Node1&#45;&gt;Node2 -->
<g id="edge1_Node000001_Node000002" class="edge">
<title>Node1&#45;&gt;Node2</title>
<g id="a_edge1_Node000001_Node000002"><a xlink:title=" ">
<path fill="none" stroke="#63b8ff" d="M271.86,-274.98C253.2,-266.46 224.25,-253.23 202.76,-243.41"/>
<polygon fill="#63b8ff" stroke="#63b8ff" points="204.03,-240.14 193.48,-239.17 201.12,-246.51 204.03,-240.14"/>
</a>
</g>
</g>
<!-- Node6 -->
<g id="Node000006" class="node">
<title>Node6</title>
<g id="a_Node000006"><a xlink:href="infix_8h.html" target="_top" xlink:title="The public interface for the infix FFI library.">
<polygon fill="white" stroke="#666666" points="90,-74 19,-74 19,-55 90,-55 90,-74"/>
<text text-anchor="middle" x="54.5" y="-62" font-family="Helvetica,sans-Serif" font-size="10.00">infix/infix.h</text>
</a>
</g>
</g>
<!-- Node1&#45;&gt;Node6 -->
<g id="edge16_Node000001_Node000006" class="edge">
<title>Node1&#45;&gt;Node6</title>
<g id="a_edge16_Node000001_Node000006"><a xlink:title=" ">
<path fill="none" stroke="#63b8ff" d="M245.64,-278.55C194.99,-272.08 116.85,-259.13 95.5,-239 52.02,-198 50.8,-120.13 52.83,-84.35"/>
<polygon fill="#63b8ff" stroke="#63b8ff" points="56.33,-84.53 53.56,-74.31 49.35,-84.03 56.33,-84.53"/>
</a>
</g>
</g>
<!-- Node11 -->
<g id="Node000011" class="node">
<title>Node11</title>
<g id="a_Node000011"><a xlink:title=" ">
<polygon fill="#e0e0e0" stroke="#999999" points="318.5,-239 262.5,-239 262.5,-220 318.5,-220 318.5,-239"/>
<text text-anchor="middle" x="290.5" y="-227" font-family="Helvetica,sans-Serif" font-size="10.00">stdarg.h</text>
</a>
</g>
</g>
<!-- Node1&#45;&gt;Node11 -->
<g id="edge17_Node000001_Node000011" class="edge">
<title>Node1&#45;&gt;Node11</title>
<g id="a_edge17_Node000001_Node000011"><a xlink:title=" ">
<path fill="none" stroke="#63b8ff" d="M290.5,-274.75C290.5,-267.8 290.5,-257.85 290.5,-249.13"/>
<polygon fill="#63b8ff" stroke="#63b8ff" points="294,-249.09 290.5,-239.09 287,-249.09 294,-249.09"/>
</a>
</g>
</g>
<!-- Node12 -->
<g id="Node000012" class="node">
<title>Node12</title>
<g id="a_Node000012"><a xlink:title=" ">
<polygon fill="#e0e0e0" stroke="#999999" points="386.5,-239 336.5,-239 336.5,-220 386.5,-220 386.5,-239"/>
<text text-anchor="middle" x="361.5" y="-227" font-family="Helvetica,sans-Serif" font-size="10.00">stdio.h</text>
</a>
</g>
</g>
<!-- Node1&#45;&gt;Node12 -->
<g id="edge18_Node000001_Node000012" class="edge">
<title>Node1&#45;&gt;Node12</title>
<g id="a_edge18_Node000001_Node000012"><a xlink:title=" ">
<path fill="none" stroke="#63b8ff" d="M301.91,-274.98C312.61,-267 328.84,-254.88 341.66,-245.31"/>
<polygon fill="#63b8ff" stroke="#63b8ff" points="343.97,-247.96 349.89,-239.17 339.78,-242.35 343.97,-247.96"/>
</a>
</g>
</g>
<!-- Node13 -->
<g id="Node000013" class="node">
<title>Node13</title>
<g id="a_Node000013"><a xlink:title=" ">
<polygon fill="#e0e0e0" stroke="#999999" points="458,-239 405,-239 405,-220 458,-220 458,-239"/>
<text text-anchor="middle" x="431.5" y="-227" font-family="Helvetica,sans-Serif" font-size="10.00">string.h</text>
</a>
</g>
</g>
<!-- Node1&#45;&gt;Node13 -->
<g id="edge19_Node000001_Node000013" class="edge">
<title>Node1&#45;&gt;Node13</title>
<g id="a_edge19_Node000001_Node000013"><a xlink:title=" ">
<path fill="none" stroke="#63b8ff" d="M313.15,-274.98C336.35,-266.27 372.62,-252.63 398.9,-242.75"/>
<polygon fill="#63b8ff" stroke="#63b8ff" points="400.3,-245.97 408.43,-239.17 397.84,-239.41 400.3,-245.97"/>
</a>
</g>
</g>
<!-- Node3 -->
<g id="Node000003" class="node">
<title>Node3</title>
<g id="a_Node000003"><a xlink:href="infix__config_8h.html" target="_top" xlink:title="Platform, architecture, and ABI detection macros.">
<polygon fill="white" stroke="#666666" points="312,-74 185,-74 185,-55 312,-55 312,-74"/>
<text text-anchor="middle" x="248.5" y="-62" font-family="Helvetica,sans-Serif" font-size="10.00">common/infix_config.h</text>
</a>
</g>
</g>
<!-- Node2&#45;&gt;Node3 -->
<g id="edge2_Node000002_Node000003" class="edge">
<title>Node2&#45;&gt;Node3</title>
<g id="a_edge2_Node000002_Node000003"><a xlink:title=" ">
<path fill="none" stroke="#63b8ff" d="M176.03,-219.82C178.52,-207.14 184.24,-183.1 194.5,-165 205.06,-146.38 215.68,-147.47 226.5,-129 234.8,-114.84 240.62,-97.08 244.18,-83.94"/>
<polygon fill="#63b8ff" stroke="#63b8ff" points="247.59,-84.73 246.64,-74.18 240.8,-83.02 247.59,-84.73"/>
</a>
</g>
</g>
<!-- Node4 -->
<g id="Node000004" class="node">
<title>Node4</title>
<g id="a_Node000004"><a xlink:href="platform_8h.html" target="_top" xlink:title="Declares internal, runtime CPU/OS feature detection functions.">
<polygon fill="white" stroke="#666666" points="397,-184 284,-184 284,-165 397,-165 397,-184"/>
<text text-anchor="middle" x="340.5" y="-172" font-family="Helvetica,sans-Serif" font-size="10.00">common/platform.h</text>
</a>
</g>
</g>
<!-- Node2&#45;&gt;Node4 -->
<g id="edge3_Node000002_Node000004" class="edge">
<title>Node2&#45;&gt;Node4</title>
<g id="a_edge3_Node000002_Node000004"><a xlink:title=" ">
<path fill="none" stroke="#63b8ff" d="M201.17,-219.98C229.04,-211.09 272.95,-197.07 304.02,-187.15"/>
<polygon fill="#63b8ff" stroke="#63b8ff" points="305.16,-190.46 313.62,-184.08 303.03,-183.79 305.16,-190.46"/>
</a>
</g>
</g>
<!-- Node2&#45;&gt;Node6 -->
<g id="edge14_Node000002_Node000006" class="edge">
<title>Node2&#45;&gt;Node6</title>
<g id="a_edge14_Node000002_Node000006"><a xlink:title=" ">
<path fill="none" stroke="#63b8ff" d="M163.34,-219.81C143.49,-203.83 101.85,-167.83 77.5,-129 68.74,-115.03 62.66,-97.25 58.97,-84.06"/>
<polygon fill="#63b8ff" stroke="#63b8ff" points="62.32,-83.04 56.41,-74.24 55.54,-84.8 62.32,-83.04"/>
</a>
</g>
</g>
<!-- Node10 -->
<g id="Node000010" class="node">
<title>Node10</title>
<g id="a_Node000010"><a xlink:title=" ">
<polygon fill="#e0e0e0" stroke="#999999" points="266,-184 203,-184 203,-165 266,-165 266,-184"/>
<text text-anchor="middle" x="234.5" y="-172" font-family="Helvetica,sans-Serif" font-size="10.00">pthread.h</text>
</a>
</g>
</g>
<!-- Node2&#45;&gt;Node10 -->
<g id="edge15_Node000002_Node000010" class="edge">
<title>Node2&#45;&gt;Node10</title>
<g id="a_edge15_Node000002_Node000010"><a xlink:title=" ">
<path fill="none" stroke="#63b8ff" d="M184.14,-219.98C193.01,-212.15 206.37,-200.34 217.11,-190.86"/>
<polygon fill="#63b8ff" stroke="#63b8ff" points="219.51,-193.41 224.68,-184.17 214.87,-188.17 219.51,-193.41"/>
</a>
</g>
</g>
<!-- Node4&#45;&gt;Node3 -->
<g id="edge12_Node000004_Node000003" class="edge">
<title>Node4&#45;&gt;Node3</title>
<g id="a_edge12_Node000004_Node000003"><a xlink:title=" ">
<path fill="none" stroke="#63b8ff" d="M332.97,-164.66C317.6,-146.61 282.38,-105.28 262.62,-82.08"/>
<polygon fill="#63b8ff" stroke="#63b8ff" points="265.02,-79.5 255.88,-74.16 259.7,-84.04 265.02,-79.5"/>
</a>
</g>
</g>
<!-- Node5 -->
<g id="Node000005" class="node">
<title>Node5</title>
<g id="a_Node000005"><a xlink:href="compat__c23_8h.html" target="_top" xlink:title="Provides forward compatibility macros for C23 features.">
<polygon fill="white" stroke="#666666" points="217,-129 86,-129 86,-110 217,-110 217,-129"/>
<text text-anchor="middle" x="151.5" y="-117" font-family="Helvetica,sans-Serif" font-size="10.00">common/compat_c23.h</text>
</a>
</g>
</g>
<!-- Node4&#45;&gt;Node5 -->
<g id="edge4_Node000004_Node000005" class="edge">
<title>Node4&#45;&gt;Node5</title>
<g id="a_edge4_Node000004_Node000005"><a xlink:title=" ">
<path fill="none" stroke="#63b8ff" d="M310.13,-164.98C278.13,-156.01 227.54,-141.82 192.12,-131.89"/>
<polygon fill="#63b8ff" stroke="#63b8ff" points="192.68,-128.41 182.1,-129.08 190.79,-135.15 192.68,-128.41"/>
</a>
</g>
</g>
<!-- Node7 -->
<g id="Node000007" class="node">
<title>Node7</title>
<g id="a_Node000007"><a xlink:title=" ">
<polygon fill="#e0e0e0" stroke="#999999" points="207.5,-19 145.5,-19 145.5,0 207.5,0 207.5,-19"/>
<text text-anchor="middle" x="176.5" y="-7" font-family="Helvetica,sans-Serif" font-size="10.00">stdbool.h</text>
</a>
</g>
</g>
<!-- Node4&#45;&gt;Node7 -->
<g id="edge13_Node000004_Node000007" class="edge">
<title>Node4&#45;&gt;Node7</title>
<g id="a_edge13_Node000004_Node000007"><a xlink:title=" ">
<path fill="none" stroke="#63b8ff" d="M341.92,-164.79C344.9,-143.28 349.4,-87.07 321.5,-55 295.77,-25.42 250.92,-15.2 217.9,-11.82"/>
<polygon fill="#63b8ff" stroke="#63b8ff" points="217.89,-8.3 207.63,-10.95 217.3,-15.28 217.89,-8.3"/>
</a>
</g>
</g>
<!-- Node5&#45;&gt;Node3 -->
<g id="edge5_Node000005_Node000003" class="edge">
<title>Node5&#45;&gt;Node3</title>
<g id="a_edge5_Node000005_Node000003"><a xlink:title=" ">
<path fill="none" stroke="#63b8ff" d="M167.08,-109.98C182.27,-101.69 205.6,-88.94 223.4,-79.22"/>
<polygon fill="#63b8ff" stroke="#63b8ff" points="225.53,-82.04 232.63,-74.17 222.18,-75.89 225.53,-82.04"/>
</a>
</g>
</g>
<!-- Node5&#45;&gt;Node6 -->
<g id="edge6_Node000005_Node000006" class="edge">
<title>Node5&#45;&gt;Node6</title>
<g id="a_edge6_Node000005_Node000006"><a xlink:title=" ">
<path fill="none" stroke="#63b8ff" d="M135.92,-109.98C120.73,-101.69 97.4,-88.94 79.6,-79.22"/>
<polygon fill="#63b8ff" stroke="#63b8ff" points="80.82,-75.89 70.37,-74.17 77.47,-82.04 80.82,-75.89"/>
</a>
</g>
</g>
<!-- Node5&#45;&gt;Node7 -->
<g id="edge10_Node000005_Node000007" class="edge">
<title>Node5&#45;&gt;Node7</title>
<g id="a_edge10_Node000005_Node000007"><a xlink:title=" ">
<path fill="none" stroke="#63b8ff" d="M153.55,-109.66C157.61,-92.09 166.79,-52.45 172.23,-28.95"/>
<polygon fill="#63b8ff" stroke="#63b8ff" points="175.65,-29.69 174.5,-19.16 168.83,-28.11 175.65,-29.69"/>
</a>
</g>
</g>
<!-- Node8 -->
<g id="Node000008" class="node">
<title>Node8</title>
<g id="a_Node000008"><a xlink:title=" ">
<polygon fill="#e0e0e0" stroke="#999999" points="127.5,-19 71.5,-19 71.5,0 127.5,0 127.5,-19"/>
<text text-anchor="middle" x="99.5" y="-7" font-family="Helvetica,sans-Serif" font-size="10.00">stddef.h</text>
</a>
</g>
</g>
<!-- Node5&#45;&gt;Node8 -->
<g id="edge11_Node000005_Node000008" class="edge">
<title>Node5&#45;&gt;Node8</title>
<g id="a_edge11_Node000005_Node000008"><a xlink:title=" ">
<path fill="none" stroke="#63b8ff" d="M147.24,-109.66C138.71,-91.93 119.35,-51.73 108.08,-28.32"/>
<polygon fill="#63b8ff" stroke="#63b8ff" points="111.16,-26.65 103.67,-19.16 104.85,-29.69 111.16,-26.65"/>
</a>
</g>
</g>
<!-- Node6&#45;&gt;Node7 -->
<g id="edge7_Node000006_Node000007" class="edge">
<title>Node6&#45;&gt;Node7</title>
<g id="a_edge7_Node000006_Node000007"><a xlink:title=" ">
<path fill="none" stroke="#63b8ff" d="M74.1,-54.98C93.82,-46.42 124.45,-33.11 147.08,-23.28"/>
<polygon fill="#63b8ff" stroke="#63b8ff" points="148.76,-26.37 156.54,-19.17 145.98,-19.94 148.76,-26.37"/>
</a>
</g>
</g>
<!-- Node6&#45;&gt;Node8 -->
<g id="edge8_Node000006_Node000008" class="edge">
<title>Node6&#45;&gt;Node8</title>
<g id="a_edge8_Node000006_Node000008"><a xlink:title=" ">
<path fill="none" stroke="#63b8ff" d="M61.93,-54.75C68.35,-47.18 77.81,-36.05 85.62,-26.84"/>
<polygon fill="#63b8ff" stroke="#63b8ff" points="88.4,-28.98 92.21,-19.09 83.07,-24.45 88.4,-28.98"/>
</a>
</g>
</g>
<!-- Node9 -->
<g id="Node000009" class="node">
<title>Node9</title>
<g id="a_Node000009"><a xlink:title=" ">
<polygon fill="#e0e0e0" stroke="#999999" points="53,-19 0,-19 0,0 53,0 53,-19"/>
<text text-anchor="middle" x="26.5" y="-7" font-family="Helvetica,sans-Serif" font-size="10.00">stdint.h</text>
</a>
</g>
</g>
<!-- Node6&#45;&gt;Node9 -->
<g id="edge9_Node000006_Node000009" class="edge">
<title>Node6&#45;&gt;Node9</title>
<g id="a_edge9_Node000006_Node000009"><a xlink:title=" ">
<path fill="none" stroke="#63b8ff" d="M49.88,-54.75C46.04,-47.49 40.48,-36.95 35.74,-27.98"/>
<polygon fill="#63b8ff" stroke="#63b8ff" points="38.8,-26.3 31.04,-19.09 32.61,-29.57 38.8,-26.3"/>
</a>
</g>
</g>
</g>
</svg>
