<?xml version="1.0" encoding="UTF-8" standalone="no"?>
<!DOCTYPE svg PUBLIC "-//W3C//DTD SVG 1.1//EN"
 "http://www.w3.org/Graphics/SVG/1.1/DTD/svg11.dtd">
<!-- Generated by graphviz version 2.43.0 (0)
 -->
<!-- Title: src/jit/executor.c Pages: 1 -->
<svg width="923pt" height="247pt"
 viewBox="0.00 0.00 923.30 247.00" xmlns="http://www.w3.org/2000/svg" xmlns:xlink="http://www.w3.org/1999/xlink">
<g id="graph0" class="graph" transform="scale(1 1) rotate(0) translate(4 243)">
<title>src/jit/executor.c</title>
<!-- Node1 -->
<g id="Node000001" class="node">
<title>Node1</title>
<g id="a_Node000001"><a xlink:title="Implements platform&#45;specific memory management for JIT code and execution.">
<polygon fill="#999999" stroke="#666666" points="510.3,-239 414.3,-239 414.3,-220 510.3,-220 510.3,-239"/>
<text text-anchor="middle" x="462.3" y="-227" font-family="Helvetica,sans-Serif" font-size="10.00">src/jit/executor.c</text>
</a>
</g>
</g>
<!-- Node2 -->
<g id="Node000002" class="node">
<title>Node2</title>
<g id="a_Node000002"><a xlink:href="infix__internals_8h.html" target="_top" xlink:title="Internal data structures, function prototypes, and constants.">
<polygon fill="white" stroke="#666666" points="206.3,-184 66.3,-184 66.3,-165 206.3,-165 206.3,-184"/>
<text text-anchor="middle" x="136.3" y="-172" font-family="Helvetica,sans-Serif" font-size="10.00">common/infix_internals.h</text>
</a>
</g>
</g>
<!-- Node1&#45;&gt;Node2 -->
<g id="edge1_Node000001_Node000002" class="edge">
<title>Node1&#45;&gt;Node2</title>
<g id="a_edge1_Node000001_Node000002"><a xlink:title=" ">
<path fill="none" stroke="#63b8ff" d="M414.2,-220.68C357.07,-211.39 261.64,-195.88 198.83,-185.67"/>
<polygon fill="#63b8ff" stroke="#63b8ff" points="199.09,-182.16 188.66,-184.01 197.97,-189.07 199.09,-182.16"/>
</a>
</g>
</g>
<!-- Node8 -->
<g id="Node000008" class="node">
<title>Node8</title>
<g id="a_Node000008"><a xlink:title=" ">
<polygon fill="#e0e0e0" stroke="#999999" points="67.8,-74 14.8,-74 14.8,-55 67.8,-55 67.8,-74"/>
<text text-anchor="middle" x="41.3" y="-62" font-family="Helvetica,sans-Serif" font-size="10.00">stdint.h</text>
</a>
</g>
</g>
<!-- Node1&#45;&gt;Node8 -->
<g id="edge22_Node000001_Node000008" class="edge">
<title>Node1&#45;&gt;Node8</title>
<g id="a_edge22_Node000001_Node000008"><a xlink:title=" ">
<path fill="none" stroke="#63b8ff" d="M414.15,-227.18C320.89,-223.99 119.32,-213.76 57.3,-184 26.14,-169.04 15.53,-160.94 2.3,-129 -4.91,-111.58 8.73,-93.41 21.82,-80.99"/>
<polygon fill="#63b8ff" stroke="#63b8ff" points="24.5,-83.29 29.71,-74.06 19.88,-78.04 24.5,-83.29"/>
</a>
</g>
</g>
<!-- Node9 -->
<g id="Node000009" class="node">
<title>Node9</title>
<g id="a_Node000009"><a xlink:href="utility_8h.html" target="_top" xlink:title="A header for conditionally compiled debugging utilities.">
<polygon fill="white" stroke="#666666" points="344.3,-129 246.3,-129 246.3,-110 344.3,-110 344.3,-129"/>
<text text-anchor="middle" x="295.3" y="-117" font-family="Helvetica,sans-Serif" font-size="10.00">common/utility.h</text>
</a>
</g>
</g>
<!-- Node1&#45;&gt;Node9 -->
<g id="edge10_Node000001_Node000009" class="edge">
<title>Node1&#45;&gt;Node9</title>
<g id="a_edge10_Node000001_Node000009"><a xlink:title=" ">
<path fill="none" stroke="#63b8ff" d="M414.11,-225.11C358.8,-220.09 273.14,-208.51 253.3,-184 240.56,-168.25 258.13,-148.6 274.29,-135.36"/>
<polygon fill="#63b8ff" stroke="#63b8ff" points="276.66,-137.95 282.44,-129.08 272.38,-132.41 276.66,-137.95"/>
</a>
</g>
</g>
<!-- Node10 -->
<g id="Node000010" class="node">
<title>Node10</title>
<g id="a_Node000010"><a xlink:title=" ">
<polygon fill="#e0e0e0" stroke="#999999" points="312.3,-184 262.3,-184 262.3,-165 312.3,-165 312.3,-184"/>
<text text-anchor="middle" x="287.3" y="-172" font-family="Helvetica,sans-Serif" font-size="10.00">stdio.h</text>
</a>
</g>
</g>
<!-- Node1&#45;&gt;Node10 -->
<g id="edge13_Node000001_Node000010" class="edge">
<title>Node1&#45;&gt;Node10</title>
<g id="a_edge13_Node000001_Node000010"><a xlink:title=" ">
<path fill="none" stroke="#63b8ff" d="M434.19,-219.98C403.72,-210.76 355.05,-196.02 322.17,-186.06"/>
<polygon fill="#63b8ff" stroke="#63b8ff" points="323.1,-182.68 312.51,-183.13 321.07,-189.38 323.1,-182.68"/>
</a>
</g>
</g>
<!-- Node11 -->
<g id="Node000011" class="node">
<title>Node11</title>
<g id="a_Node000011"><a xlink:title=" ">
<polygon fill="#e0e0e0" stroke="#999999" points="383.8,-184 330.8,-184 330.8,-165 383.8,-165 383.8,-184"/>
<text text-anchor="middle" x="357.3" y="-172" font-family="Helvetica,sans-Serif" font-size="10.00">stdlib.h</text>
</a>
</g>
</g>
<!-- Node1&#45;&gt;Node11 -->
<g id="edge14_Node000001_Node000011" class="edge">
<title>Node1&#45;&gt;Node11</title>
<g id="a_edge14_Node000001_Node000011"><a xlink:title=" ">
<path fill="none" stroke="#63b8ff" d="M445.43,-219.98C428.7,-211.54 402.81,-198.47 383.41,-188.68"/>
<polygon fill="#63b8ff" stroke="#63b8ff" points="384.99,-185.55 374.48,-184.17 381.83,-191.8 384.99,-185.55"/>
</a>
</g>
</g>
<!-- Node12 -->
<g id="Node000012" class="node">
<title>Node12</title>
<g id="a_Node000012"><a xlink:title=" ">
<polygon fill="#e0e0e0" stroke="#999999" points="454.8,-184 401.8,-184 401.8,-165 454.8,-165 454.8,-184"/>
<text text-anchor="middle" x="428.3" y="-172" font-family="Helvetica,sans-Serif" font-size="10.00">string.h</text>
</a>
</g>
</g>
<!-- Node1&#45;&gt;Node12 -->
<g id="edge15_Node000001_Node000012" class="edge">
<title>Node1&#45;&gt;Node12</title>
<g id="a_edge15_Node000001_Node000012"><a xlink:title=" ">
<path fill="none" stroke="#63b8ff" d="M456.69,-219.75C451.99,-212.42 445.13,-201.73 439.34,-192.7"/>
<polygon fill="#63b8ff" stroke="#63b8ff" points="442.16,-190.62 433.81,-184.09 436.27,-194.4 442.16,-190.62"/>
</a>
</g>
</g>
<!-- Node13 -->
<g id="Node000013" class="node">
<title>Node13</title>
<g id="a_Node000013"><a xlink:title=" ">
<polygon fill="#e0e0e0" stroke="#999999" points="521.3,-184 473.3,-184 473.3,-165 521.3,-165 521.3,-184"/>
<text text-anchor="middle" x="497.3" y="-172" font-family="Helvetica,sans-Serif" font-size="10.00">time.h</text>
</a>
</g>
</g>
<!-- Node1&#45;&gt;Node13 -->
<g id="edge16_Node000001_Node000013" class="edge">
<title>Node1&#45;&gt;Node13</title>
<g id="a_edge16_Node000001_Node000013"><a xlink:title=" ">
<path fill="none" stroke="#63b8ff" d="M468.08,-219.75C472.93,-212.42 479.98,-201.73 485.95,-192.7"/>
<polygon fill="#63b8ff" stroke="#63b8ff" points="489.04,-194.36 491.63,-184.09 483.2,-190.5 489.04,-194.36"/>
</a>
</g>
</g>
<!-- Node14 -->
<g id="Node000014" class="node">
<title>Node14</title>
<g id="a_Node000014"><a xlink:title=" ">
<polygon fill="#e0e0e0" stroke="#999999" points="590.8,-184 539.8,-184 539.8,-165 590.8,-165 590.8,-184"/>
<text text-anchor="middle" x="565.3" y="-172" font-family="Helvetica,sans-Serif" font-size="10.00">errno.h</text>
</a>
</g>
</g>
<!-- Node1&#45;&gt;Node14 -->
<g id="edge17_Node000001_Node000014" class="edge">
<title>Node1&#45;&gt;Node14</title>
<g id="a_edge17_Node000001_Node000014"><a xlink:title=" ">
<path fill="none" stroke="#63b8ff" d="M478.85,-219.98C495.2,-211.57 520.44,-198.59 539.43,-188.81"/>
<polygon fill="#63b8ff" stroke="#63b8ff" points="541.16,-191.86 548.45,-184.17 537.96,-185.63 541.16,-191.86"/>
</a>
</g>
</g>
<!-- Node15 -->
<g id="Node000015" class="node">
<title>Node15</title>
<g id="a_Node000015"><a xlink:title=" ">
<polygon fill="#e0e0e0" stroke="#999999" points="655.8,-184 608.8,-184 608.8,-165 655.8,-165 655.8,-184"/>
<text text-anchor="middle" x="632.3" y="-172" font-family="Helvetica,sans-Serif" font-size="10.00">fcntl.h</text>
</a>
</g>
</g>
<!-- Node1&#45;&gt;Node15 -->
<g id="edge18_Node000001_Node000015" class="edge">
<title>Node1&#45;&gt;Node15</title>
<g id="a_edge18_Node000001_Node000015"><a xlink:title=" ">
<path fill="none" stroke="#63b8ff" d="M489.62,-219.98C519.34,-210.72 566.89,-195.89 598.84,-185.93"/>
<polygon fill="#63b8ff" stroke="#63b8ff" points="600.12,-189.2 608.62,-182.88 598.03,-182.52 600.12,-189.2"/>
</a>
</g>
</g>
<!-- Node16 -->
<g id="Node000016" class="node">
<title>Node16</title>
<g id="a_Node000016"><a xlink:title=" ">
<polygon fill="#e0e0e0" stroke="#999999" points="750.8,-184 673.8,-184 673.8,-165 750.8,-165 750.8,-184"/>
<text text-anchor="middle" x="712.3" y="-172" font-family="Helvetica,sans-Serif" font-size="10.00">sys/mman.h</text>
</a>
</g>
</g>
<!-- Node1&#45;&gt;Node16 -->
<g id="edge19_Node000001_Node000016" class="edge">
<title>Node1&#45;&gt;Node16</title>
<g id="a_edge19_Node000001_Node000016"><a xlink:title=" ">
<path fill="none" stroke="#63b8ff" d="M502.47,-219.98C546.32,-210.69 616.54,-195.8 663.52,-185.84"/>
<polygon fill="#63b8ff" stroke="#63b8ff" points="664.41,-189.23 673.47,-183.73 662.96,-182.38 664.41,-189.23"/>
</a>
</g>
</g>
<!-- Node17 -->
<g id="Node000017" class="node">
<title>Node17</title>
<g id="a_Node000017"><a xlink:title=" ">
<polygon fill="#e0e0e0" stroke="#999999" points="841.3,-184 769.3,-184 769.3,-165 841.3,-165 841.3,-184"/>
<text text-anchor="middle" x="805.3" y="-172" font-family="Helvetica,sans-Serif" font-size="10.00">sys/types.h</text>
</a>
</g>
</g>
<!-- Node1&#45;&gt;Node17 -->
<g id="edge20_Node000001_Node000017" class="edge">
<title>Node1&#45;&gt;Node17</title>
<g id="a_edge20_Node000001_Node000017"><a xlink:title=" ">
<path fill="none" stroke="#63b8ff" d="M510.39,-221.9C567.36,-213.95 665.38,-199.87 759.05,-184.16"/>
<polygon fill="#63b8ff" stroke="#63b8ff" points="759.7,-187.6 768.98,-182.49 758.53,-180.7 759.7,-187.6"/>
</a>
</g>
</g>
<!-- Node18 -->
<g id="Node000018" class="node">
<title>Node18</title>
<g id="a_Node000018"><a xlink:title=" ">
<polygon fill="#e0e0e0" stroke="#999999" points="915.3,-184 859.3,-184 859.3,-165 915.3,-165 915.3,-184"/>
<text text-anchor="middle" x="887.3" y="-172" font-family="Helvetica,sans-Serif" font-size="10.00">unistd.h</text>
</a>
</g>
</g>
<!-- Node1&#45;&gt;Node18 -->
<g id="edge21_Node000001_Node000018" class="edge">
<title>Node1&#45;&gt;Node18</title>
<g id="a_edge21_Node000001_Node000018"><a xlink:title=" ">
<path fill="none" stroke="#63b8ff" d="M510.33,-224.73C582.02,-218.72 721.38,-205.57 849.13,-184.02"/>
<polygon fill="#63b8ff" stroke="#63b8ff" points="849.82,-187.46 859.09,-182.32 848.64,-180.56 849.82,-187.46"/>
</a>
</g>
</g>
<!-- Node3 -->
<g id="Node000003" class="node">
<title>Node3</title>
<g id="a_Node000003"><a xlink:href="infix__config_8h.html" target="_top" xlink:title="Platform, architecture, and ABI detection macros.">
<polygon fill="white" stroke="#666666" points="138.8,-129 11.8,-129 11.8,-110 138.8,-110 138.8,-129"/>
<text text-anchor="middle" x="75.3" y="-117" font-family="Helvetica,sans-Serif" font-size="10.00">common/infix_config.h</text>
</a>
</g>
</g>
<!-- Node2&#45;&gt;Node3 -->
<g id="edge2_Node000002_Node000003" class="edge">
<title>Node2&#45;&gt;Node3</title>
<g id="a_edge2_Node000002_Node000003"><a xlink:title=" ">
<path fill="none" stroke="#63b8ff" d="M126.5,-164.98C117.49,-157.15 103.9,-145.34 92.99,-135.86"/>
<polygon fill="#63b8ff" stroke="#63b8ff" points="95.13,-133.09 85.28,-129.17 90.54,-138.37 95.13,-133.09"/>
</a>
</g>
</g>
<!-- Node4 -->
<g id="Node000004" class="node">
<title>Node4</title>
<g id="a_Node000004"><a xlink:href="infix_8h.html" target="_top" xlink:title="The public interface for the infix FFI library.">
<polygon fill="white" stroke="#666666" points="227.8,-129 156.8,-129 156.8,-110 227.8,-110 227.8,-129"/>
<text text-anchor="middle" x="192.3" y="-117" font-family="Helvetica,sans-Serif" font-size="10.00">infix/infix.h</text>
</a>
</g>
</g>
<!-- Node2&#45;&gt;Node4 -->
<g id="edge3_Node000002_Node000004" class="edge">
<title>Node2&#45;&gt;Node4</title>
<g id="a_edge3_Node000002_Node000004"><a xlink:title=" ">
<path fill="none" stroke="#63b8ff" d="M145.3,-164.98C153.5,-157.23 165.81,-145.58 175.78,-136.14"/>
<polygon fill="#63b8ff" stroke="#63b8ff" points="178.29,-138.59 183.14,-129.17 173.47,-133.5 178.29,-138.59"/>
</a>
</g>
</g>
<!-- Node5 -->
<g id="Node000005" class="node">
<title>Node5</title>
<g id="a_Node000005"><a xlink:href="compat__c23_8h.html" target="_top" xlink:title="Provides forward compatibility macros for C23 features.">
<polygon fill="white" stroke="#666666" points="351.8,-74 220.8,-74 220.8,-55 351.8,-55 351.8,-74"/>
<text text-anchor="middle" x="286.3" y="-62" font-family="Helvetica,sans-Serif" font-size="10.00">common/compat_c23.h</text>
</a>
</g>
</g>
<!-- Node4&#45;&gt;Node5 -->
<g id="edge4_Node000004_Node000005" class="edge">
<title>Node4&#45;&gt;Node5</title>
<g id="a_edge4_Node000004_Node000005"><a xlink:title=" ">
<path fill="none" stroke="#63b8ff" d="M207.41,-109.98C222.12,-101.69 244.73,-88.94 261.98,-79.22"/>
<polygon fill="#63b8ff" stroke="#63b8ff" points="263.94,-82.13 270.93,-74.17 260.5,-76.03 263.94,-82.13"/>
</a>
</g>
</g>
<!-- Node6 -->
<g id="Node000006" class="node">
<title>Node6</title>
<g id="a_Node000006"><a xlink:title=" ">
<polygon fill="#e0e0e0" stroke="#999999" points="213.3,-19 151.3,-19 151.3,0 213.3,0 213.3,-19"/>
<text text-anchor="middle" x="182.3" y="-7" font-family="Helvetica,sans-Serif" font-size="10.00">stdbool.h</text>
</a>
</g>
</g>
<!-- Node4&#45;&gt;Node6 -->
<g id="edge7_Node000004_Node000006" class="edge">
<title>Node4&#45;&gt;Node6</title>
<g id="a_edge7_Node000004_Node000006"><a xlink:title=" ">
<path fill="none" stroke="#63b8ff" d="M188.7,-109.82C185.25,-100.99 180.27,-86.81 178.3,-74 176.02,-59.12 177.3,-42.09 179,-29.41"/>
<polygon fill="#63b8ff" stroke="#63b8ff" points="182.51,-29.6 180.59,-19.18 175.59,-28.53 182.51,-29.6"/>
</a>
</g>
</g>
<!-- Node7 -->
<g id="Node000007" class="node">
<title>Node7</title>
<g id="a_Node000007"><a xlink:title=" ">
<polygon fill="#e0e0e0" stroke="#999999" points="314.3,-19 258.3,-19 258.3,0 314.3,0 314.3,-19"/>
<text text-anchor="middle" x="286.3" y="-7" font-family="Helvetica,sans-Serif" font-size="10.00">stddef.h</text>
</a>
</g>
</g>
<!-- Node4&#45;&gt;Node7 -->
<g id="edge8_Node000004_Node000007" class="edge">
<title>Node4&#45;&gt;Node7</title>
<g id="a_edge8_Node000004_Node000007"><a xlink:title=" ">
<path fill="none" stroke="#63b8ff" d="M193.09,-109.79C194.67,-96.65 199.29,-71.52 212.3,-55 223.19,-41.19 239.63,-30.69 254.26,-23.37"/>
<polygon fill="#63b8ff" stroke="#63b8ff" points="255.97,-26.43 263.53,-19.01 252.99,-20.1 255.97,-26.43"/>
</a>
</g>
</g>
<!-- Node4&#45;&gt;Node8 -->
<g id="edge9_Node000004_Node000008" class="edge">
<title>Node4&#45;&gt;Node8</title>
<g id="a_edge9_Node000004_Node000008"><a xlink:title=" ">
<path fill="none" stroke="#63b8ff" d="M168.04,-109.98C142.99,-101.19 103.67,-87.39 75.48,-77.49"/>
<polygon fill="#63b8ff" stroke="#63b8ff" points="76.6,-74.18 66.01,-74.17 74.28,-80.78 76.6,-74.18"/>
</a>
</g>
</g>
<!-- Node5&#45;&gt;Node6 -->
<g id="edge5_Node000005_Node000006" class="edge">
<title>Node5&#45;&gt;Node6</title>
<g id="a_edge5_Node000005_Node000006"><a xlink:title=" ">
<path fill="none" stroke="#63b8ff" d="M269.59,-54.98C253.09,-46.57 227.61,-33.59 208.43,-23.81"/>
<polygon fill="#63b8ff" stroke="#63b8ff" points="209.82,-20.59 199.32,-19.17 206.64,-26.83 209.82,-20.59"/>
</a>
</g>
</g>
<!-- Node5&#45;&gt;Node7 -->
<g id="edge6_Node000005_Node000007" class="edge">
<title>Node5&#45;&gt;Node7</title>
<g id="a_edge6_Node000005_Node000007"><a xlink:title=" ">
<path fill="none" stroke="#63b8ff" d="M286.3,-54.75C286.3,-47.8 286.3,-37.85 286.3,-29.13"/>
<polygon fill="#63b8ff" stroke="#63b8ff" points="289.8,-29.09 286.3,-19.09 282.8,-29.09 289.8,-29.09"/>
</a>
</g>
</g>
<!-- Node9&#45;&gt;Node5 -->
<g id="edge11_Node000009_Node000005" class="edge">
<title>Node9&#45;&gt;Node5</title>
<g id="a_edge11_Node000009_Node000005"><a xlink:title=" ">
<path fill="none" stroke="#63b8ff" d="M293.82,-109.75C292.64,-102.8 290.95,-92.85 289.47,-84.13"/>
<polygon fill="#63b8ff" stroke="#63b8ff" points="292.89,-83.36 287.76,-74.09 285.99,-84.53 292.89,-83.36"/>
</a>
</g>
</g>
<!-- Node9&#45;&gt;Node7 -->
<g id="edge12_Node000009_Node000007" class="edge">
<title>Node9&#45;&gt;Node7</title>
<g id="a_edge12_Node000009_Node000007"><a xlink:title=" ">
<path fill="none" stroke="#63b8ff" d="M316.75,-109.96C340.79,-99.02 374.76,-78.63 361.3,-55 353.01,-40.43 337.85,-30.14 323.33,-23.15"/>
<polygon fill="#63b8ff" stroke="#63b8ff" points="324.52,-19.85 313.95,-19.02 321.7,-26.25 324.52,-19.85"/>
</a>
</g>
</g>
</g>
</svg>
