<?xml version="1.0" encoding="UTF-8" standalone="no"?>
<!DOCTYPE svg PUBLIC "-//W3C//DTD SVG 1.1//EN"
 "http://www.w3.org/Graphics/SVG/1.1/DTD/svg11.dtd">
<!-- Generated by graphviz version 2.43.0 (0)
 -->
<!-- Title: src/jit/executor.c Pages: 1 -->
<svg width="1161pt" height="302pt"
 viewBox="0.00 0.00 1160.50 302.00" xmlns="http://www.w3.org/2000/svg" xmlns:xlink="http://www.w3.org/1999/xlink">
<g id="graph0" class="graph" transform="scale(1 1) rotate(0) translate(4 298)">
<title>src/jit/executor.c</title>
<!-- Node1 -->
<g id="Node000001" class="node">
<title>Node1</title>
<g id="a_Node000001"><a xlink:title="Implements platform&#45;specific memory management for JIT code and execution.">
<polygon fill="#999999" stroke="#666666" points="747.5,-294 651.5,-294 651.5,-275 747.5,-275 747.5,-294"/>
<text text-anchor="middle" x="699.5" y="-282" font-family="Helvetica,sans-Serif" font-size="10.00">src/jit/executor.c</text>
</a>
</g>
</g>
<!-- Node2 -->
<g id="Node000002" class="node">
<title>Node2</title>
<g id="a_Node000002"><a xlink:href="infix__internals_8h.html" target="_top" xlink:title="Internal data structures, function prototypes, and constants.">
<polygon fill="white" stroke="#666666" points="353.5,-239 213.5,-239 213.5,-220 353.5,-220 353.5,-239"/>
<text text-anchor="middle" x="283.5" y="-227" font-family="Helvetica,sans-Serif" font-size="10.00">common/infix_internals.h</text>
</a>
</g>
</g>
<!-- Node1&#45;&gt;Node2 -->
<g id="edge1_Node000001_Node000002" class="edge">
<title>Node1&#45;&gt;Node2</title>
<g id="a_edge1_Node000001_Node000002"><a xlink:title=" ">
<path fill="none" stroke="#63b8ff" d="M651.37,-277.37C580.06,-268.28 445.6,-251.15 360.5,-240.31"/>
<polygon fill="#63b8ff" stroke="#63b8ff" points="360.73,-236.81 350.37,-239.02 359.85,-243.76 360.73,-236.81"/>
</a>
</g>
</g>
<!-- Node9 -->
<g id="Node000009" class="node">
<title>Node9</title>
<g id="a_Node000009"><a xlink:title=" ">
<polygon fill="#e0e0e0" stroke="#999999" points="464,-19 411,-19 411,0 464,0 464,-19"/>
<text text-anchor="middle" x="437.5" y="-7" font-family="Helvetica,sans-Serif" font-size="10.00">stdint.h</text>
</a>
</g>
</g>
<!-- Node1&#45;&gt;Node9 -->
<g id="edge26_Node000001_Node000009" class="edge">
<title>Node1&#45;&gt;Node9</title>
<g id="a_edge26_Node000001_Node000009"><a xlink:title=" ">
<path fill="none" stroke="#63b8ff" d="M651.48,-278.94C597.25,-272.84 513.55,-260.25 490.5,-239 468.84,-219.03 471.5,-204.96 471.5,-175.5 471.5,-175.5 471.5,-175.5 471.5,-118.5 471.5,-85.39 456.78,-49.1 446.71,-28.14"/>
<polygon fill="#63b8ff" stroke="#63b8ff" points="449.83,-26.55 442.23,-19.17 443.57,-29.68 449.83,-26.55"/>
</a>
</g>
</g>
<!-- Node10 -->
<g id="Node000010" class="node">
<title>Node10</title>
<g id="a_Node000010"><a xlink:href="utility_8h.html" target="_top" xlink:title="A header for conditionally compiled debugging utilities.">
<polygon fill="white" stroke="#666666" points="443.5,-184 345.5,-184 345.5,-165 443.5,-165 443.5,-184"/>
<text text-anchor="middle" x="394.5" y="-172" font-family="Helvetica,sans-Serif" font-size="10.00">common/utility.h</text>
</a>
</g>
</g>
<!-- Node1&#45;&gt;Node10 -->
<g id="edge14_Node000001_Node000010" class="edge">
<title>Node1&#45;&gt;Node10</title>
<g id="a_edge14_Node000001_Node000010"><a xlink:title=" ">
<path fill="none" stroke="#63b8ff" d="M651.27,-283.02C600.35,-280.65 519.08,-271.5 457.5,-239 436.35,-227.84 417.84,-207.12 406.45,-192.38"/>
<polygon fill="#63b8ff" stroke="#63b8ff" points="409.09,-190.07 400.33,-184.12 403.47,-194.24 409.09,-190.07"/>
</a>
</g>
</g>
<!-- Node11 -->
<g id="Node000011" class="node">
<title>Node11</title>
<g id="a_Node000011"><a xlink:title=" ">
<polygon fill="#e0e0e0" stroke="#999999" points="549.5,-239 499.5,-239 499.5,-220 549.5,-220 549.5,-239"/>
<text text-anchor="middle" x="524.5" y="-227" font-family="Helvetica,sans-Serif" font-size="10.00">stdio.h</text>
</a>
</g>
</g>
<!-- Node1&#45;&gt;Node11 -->
<g id="edge17_Node000001_Node000011" class="edge">
<title>Node1&#45;&gt;Node11</title>
<g id="a_edge17_Node000001_Node000011"><a xlink:title=" ">
<path fill="none" stroke="#63b8ff" d="M671.38,-274.98C640.91,-265.76 592.25,-251.02 559.37,-241.06"/>
<polygon fill="#63b8ff" stroke="#63b8ff" points="560.29,-237.68 549.71,-238.13 558.26,-244.38 560.29,-237.68"/>
</a>
</g>
</g>
<!-- Node12 -->
<g id="Node000012" class="node">
<title>Node12</title>
<g id="a_Node000012"><a xlink:title=" ">
<polygon fill="#e0e0e0" stroke="#999999" points="621,-239 568,-239 568,-220 621,-220 621,-239"/>
<text text-anchor="middle" x="594.5" y="-227" font-family="Helvetica,sans-Serif" font-size="10.00">stdlib.h</text>
</a>
</g>
</g>
<!-- Node1&#45;&gt;Node12 -->
<g id="edge18_Node000001_Node000012" class="edge">
<title>Node1&#45;&gt;Node12</title>
<g id="a_edge18_Node000001_Node000012"><a xlink:title=" ">
<path fill="none" stroke="#63b8ff" d="M682.63,-274.98C665.89,-266.54 640,-253.47 620.61,-243.68"/>
<polygon fill="#63b8ff" stroke="#63b8ff" points="622.18,-240.55 611.68,-239.17 619.03,-246.8 622.18,-240.55"/>
</a>
</g>
</g>
<!-- Node13 -->
<g id="Node000013" class="node">
<title>Node13</title>
<g id="a_Node000013"><a xlink:title=" ">
<polygon fill="#e0e0e0" stroke="#999999" points="692,-239 639,-239 639,-220 692,-220 692,-239"/>
<text text-anchor="middle" x="665.5" y="-227" font-family="Helvetica,sans-Serif" font-size="10.00">string.h</text>
</a>
</g>
</g>
<!-- Node1&#45;&gt;Node13 -->
<g id="edge19_Node000001_Node000013" class="edge">
<title>Node1&#45;&gt;Node13</title>
<g id="a_edge19_Node000001_Node000013"><a xlink:title=" ">
<path fill="none" stroke="#63b8ff" d="M693.89,-274.75C689.18,-267.42 682.33,-256.73 676.53,-247.7"/>
<polygon fill="#63b8ff" stroke="#63b8ff" points="679.36,-245.62 671.01,-239.09 673.46,-249.4 679.36,-245.62"/>
</a>
</g>
</g>
<!-- Node14 -->
<g id="Node000014" class="node">
<title>Node14</title>
<g id="a_Node000014"><a xlink:title=" ">
<polygon fill="#e0e0e0" stroke="#999999" points="758.5,-239 710.5,-239 710.5,-220 758.5,-220 758.5,-239"/>
<text text-anchor="middle" x="734.5" y="-227" font-family="Helvetica,sans-Serif" font-size="10.00">time.h</text>
</a>
</g>
</g>
<!-- Node1&#45;&gt;Node14 -->
<g id="edge20_Node000001_Node000014" class="edge">
<title>Node1&#45;&gt;Node14</title>
<g id="a_edge20_Node000001_Node000014"><a xlink:title=" ">
<path fill="none" stroke="#63b8ff" d="M705.28,-274.75C710.12,-267.42 717.18,-256.73 723.14,-247.7"/>
<polygon fill="#63b8ff" stroke="#63b8ff" points="726.24,-249.36 728.83,-239.09 720.4,-245.5 726.24,-249.36"/>
</a>
</g>
</g>
<!-- Node15 -->
<g id="Node000015" class="node">
<title>Node15</title>
<g id="a_Node000015"><a xlink:title=" ">
<polygon fill="#e0e0e0" stroke="#999999" points="828,-239 777,-239 777,-220 828,-220 828,-239"/>
<text text-anchor="middle" x="802.5" y="-227" font-family="Helvetica,sans-Serif" font-size="10.00">errno.h</text>
</a>
</g>
</g>
<!-- Node1&#45;&gt;Node15 -->
<g id="edge21_Node000001_Node000015" class="edge">
<title>Node1&#45;&gt;Node15</title>
<g id="a_edge21_Node000001_Node000015"><a xlink:title=" ">
<path fill="none" stroke="#63b8ff" d="M716.05,-274.98C732.39,-266.57 757.63,-253.59 776.63,-243.81"/>
<polygon fill="#63b8ff" stroke="#63b8ff" points="778.36,-246.86 785.65,-239.17 775.16,-240.63 778.36,-246.86"/>
</a>
</g>
</g>
<!-- Node16 -->
<g id="Node000016" class="node">
<title>Node16</title>
<g id="a_Node000016"><a xlink:title=" ">
<polygon fill="#e0e0e0" stroke="#999999" points="893,-239 846,-239 846,-220 893,-220 893,-239"/>
<text text-anchor="middle" x="869.5" y="-227" font-family="Helvetica,sans-Serif" font-size="10.00">fcntl.h</text>
</a>
</g>
</g>
<!-- Node1&#45;&gt;Node16 -->
<g id="edge22_Node000001_Node000016" class="edge">
<title>Node1&#45;&gt;Node16</title>
<g id="a_edge22_Node000001_Node000016"><a xlink:title=" ">
<path fill="none" stroke="#63b8ff" d="M726.81,-274.98C756.54,-265.72 804.09,-250.89 836.04,-240.93"/>
<polygon fill="#63b8ff" stroke="#63b8ff" points="837.31,-244.2 845.82,-237.88 835.23,-237.52 837.31,-244.2"/>
</a>
</g>
</g>
<!-- Node17 -->
<g id="Node000017" class="node">
<title>Node17</title>
<g id="a_Node000017"><a xlink:title=" ">
<polygon fill="#e0e0e0" stroke="#999999" points="988,-239 911,-239 911,-220 988,-220 988,-239"/>
<text text-anchor="middle" x="949.5" y="-227" font-family="Helvetica,sans-Serif" font-size="10.00">sys/mman.h</text>
</a>
</g>
</g>
<!-- Node1&#45;&gt;Node17 -->
<g id="edge23_Node000001_Node000017" class="edge">
<title>Node1&#45;&gt;Node17</title>
<g id="a_edge23_Node000001_Node000017"><a xlink:title=" ">
<path fill="none" stroke="#63b8ff" d="M739.67,-274.98C783.52,-265.69 853.74,-250.8 900.72,-240.84"/>
<polygon fill="#63b8ff" stroke="#63b8ff" points="901.61,-244.23 910.67,-238.73 900.16,-237.38 901.61,-244.23"/>
</a>
</g>
</g>
<!-- Node18 -->
<g id="Node000018" class="node">
<title>Node18</title>
<g id="a_Node000018"><a xlink:title=" ">
<polygon fill="#e0e0e0" stroke="#999999" points="1078.5,-239 1006.5,-239 1006.5,-220 1078.5,-220 1078.5,-239"/>
<text text-anchor="middle" x="1042.5" y="-227" font-family="Helvetica,sans-Serif" font-size="10.00">sys/types.h</text>
</a>
</g>
</g>
<!-- Node1&#45;&gt;Node18 -->
<g id="edge24_Node000001_Node000018" class="edge">
<title>Node1&#45;&gt;Node18</title>
<g id="a_edge24_Node000001_Node000018"><a xlink:title=" ">
<path fill="none" stroke="#63b8ff" d="M747.59,-276.9C804.56,-268.95 902.57,-254.87 996.25,-239.16"/>
<polygon fill="#63b8ff" stroke="#63b8ff" points="996.89,-242.6 1006.17,-237.49 995.73,-235.7 996.89,-242.6"/>
</a>
</g>
</g>
<!-- Node19 -->
<g id="Node000019" class="node">
<title>Node19</title>
<g id="a_Node000019"><a xlink:title=" ">
<polygon fill="#e0e0e0" stroke="#999999" points="1152.5,-239 1096.5,-239 1096.5,-220 1152.5,-220 1152.5,-239"/>
<text text-anchor="middle" x="1124.5" y="-227" font-family="Helvetica,sans-Serif" font-size="10.00">unistd.h</text>
</a>
</g>
</g>
<!-- Node1&#45;&gt;Node19 -->
<g id="edge25_Node000001_Node000019" class="edge">
<title>Node1&#45;&gt;Node19</title>
<g id="a_edge25_Node000001_Node000019"><a xlink:title=" ">
<path fill="none" stroke="#63b8ff" d="M747.53,-279.73C819.21,-273.72 958.57,-260.57 1086.32,-239.02"/>
<polygon fill="#63b8ff" stroke="#63b8ff" points="1087.02,-242.46 1096.28,-237.32 1085.84,-235.56 1087.02,-242.46"/>
</a>
</g>
</g>
<!-- Node3 -->
<g id="Node000003" class="node">
<title>Node3</title>
<g id="a_Node000003"><a xlink:href="infix__config_8h.html" target="_top" xlink:title="Platform, architecture, and ABI detection macros.">
<polygon fill="white" stroke="#666666" points="127,-129 0,-129 0,-110 127,-110 127,-129"/>
<text text-anchor="middle" x="63.5" y="-117" font-family="Helvetica,sans-Serif" font-size="10.00">common/infix_config.h</text>
</a>
</g>
</g>
<!-- Node2&#45;&gt;Node3 -->
<g id="edge2_Node000002_Node000003" class="edge">
<title>Node2&#45;&gt;Node3</title>
<g id="a_edge2_Node000002_Node000003"><a xlink:title=" ">
<path fill="none" stroke="#63b8ff" d="M247.27,-219.98C219.33,-212.61 180.24,-200.52 148.5,-184 122.9,-170.67 96.79,-149.87 80.39,-135.74"/>
<polygon fill="#63b8ff" stroke="#63b8ff" points="82.58,-133 72.75,-129.03 77.96,-138.26 82.58,-133"/>
</a>
</g>
</g>
<!-- Node4 -->
<g id="Node000004" class="node">
<title>Node4</title>
<g id="a_Node000004"><a xlink:href="platform_8h.html" target="_top" xlink:title="Declares internal, runtime CPU/OS feature detection functions.">
<polygon fill="white" stroke="#666666" points="271,-184 158,-184 158,-165 271,-165 271,-184"/>
<text text-anchor="middle" x="214.5" y="-172" font-family="Helvetica,sans-Serif" font-size="10.00">common/platform.h</text>
</a>
</g>
</g>
<!-- Node2&#45;&gt;Node4 -->
<g id="edge3_Node000002_Node000004" class="edge">
<title>Node2&#45;&gt;Node4</title>
<g id="a_edge3_Node000002_Node000004"><a xlink:title=" ">
<path fill="none" stroke="#63b8ff" d="M272.41,-219.98C262.01,-212 246.24,-199.88 233.78,-190.31"/>
<polygon fill="#63b8ff" stroke="#63b8ff" points="235.85,-187.49 225.79,-184.17 231.59,-193.04 235.85,-187.49"/>
</a>
</g>
</g>
<!-- Node6 -->
<g id="Node000006" class="node">
<title>Node6</title>
<g id="a_Node000006"><a xlink:href="infix_8h.html" target="_top" xlink:title="The public interface for the infix FFI library.">
<polygon fill="white" stroke="#666666" points="366,-74 295,-74 295,-55 366,-55 366,-74"/>
<text text-anchor="middle" x="330.5" y="-62" font-family="Helvetica,sans-Serif" font-size="10.00">infix/infix.h</text>
</a>
</g>
</g>
<!-- Node2&#45;&gt;Node6 -->
<g id="edge13_Node000002_Node000006" class="edge">
<title>Node2&#45;&gt;Node6</title>
<g id="a_edge13_Node000002_Node000006"><a xlink:title=" ">
<path fill="none" stroke="#63b8ff" d="M287.85,-219.98C296.27,-203.11 314.7,-164.03 323.5,-129 327.18,-114.34 328.93,-97.29 329.75,-84.55"/>
<polygon fill="#63b8ff" stroke="#63b8ff" points="333.27,-84.43 330.29,-74.26 326.27,-84.07 333.27,-84.43"/>
</a>
</g>
</g>
<!-- Node4&#45;&gt;Node3 -->
<g id="edge11_Node000004_Node000003" class="edge">
<title>Node4&#45;&gt;Node3</title>
<g id="a_edge11_Node000004_Node000003"><a xlink:title=" ">
<path fill="none" stroke="#63b8ff" d="M190.24,-164.98C165.18,-156.19 125.87,-142.39 97.67,-132.49"/>
<polygon fill="#63b8ff" stroke="#63b8ff" points="98.8,-129.18 88.2,-129.17 96.48,-135.78 98.8,-129.18"/>
</a>
</g>
</g>
<!-- Node5 -->
<g id="Node000005" class="node">
<title>Node5</title>
<g id="a_Node000005"><a xlink:href="compat__c23_8h.html" target="_top" xlink:title="Provides forward compatibility macros for C23 features.">
<polygon fill="white" stroke="#666666" points="315,-129 184,-129 184,-110 315,-110 315,-129"/>
<text text-anchor="middle" x="249.5" y="-117" font-family="Helvetica,sans-Serif" font-size="10.00">common/compat_c23.h</text>
</a>
</g>
</g>
<!-- Node4&#45;&gt;Node5 -->
<g id="edge4_Node000004_Node000005" class="edge">
<title>Node4&#45;&gt;Node5</title>
<g id="a_edge4_Node000004_Node000005"><a xlink:title=" ">
<path fill="none" stroke="#63b8ff" d="M220.28,-164.75C225.12,-157.42 232.18,-146.73 238.14,-137.7"/>
<polygon fill="#63b8ff" stroke="#63b8ff" points="241.24,-139.36 243.83,-129.09 235.4,-135.5 241.24,-139.36"/>
</a>
</g>
</g>
<!-- Node7 -->
<g id="Node000007" class="node">
<title>Node7</title>
<g id="a_Node000007"><a xlink:title=" ">
<polygon fill="#e0e0e0" stroke="#999999" points="259.5,-19 197.5,-19 197.5,0 259.5,0 259.5,-19"/>
<text text-anchor="middle" x="228.5" y="-7" font-family="Helvetica,sans-Serif" font-size="10.00">stdbool.h</text>
</a>
</g>
</g>
<!-- Node4&#45;&gt;Node7 -->
<g id="edge12_Node000004_Node000007" class="edge">
<title>Node4&#45;&gt;Node7</title>
<g id="a_edge12_Node000004_Node000007"><a xlink:title=" ">
<path fill="none" stroke="#63b8ff" d="M202.86,-164.73C193.19,-156.67 180.15,-143.74 174.5,-129 171.48,-121.12 172.42,-118.18 174.5,-110 182.48,-78.57 202.61,-46.32 215.91,-27.36"/>
<polygon fill="#63b8ff" stroke="#63b8ff" points="218.79,-29.35 221.8,-19.19 213.11,-25.25 218.79,-29.35"/>
</a>
</g>
</g>
<!-- Node5&#45;&gt;Node6 -->
<g id="edge5_Node000005_Node000006" class="edge">
<title>Node5&#45;&gt;Node6</title>
<g id="a_edge5_Node000005_Node000006"><a xlink:title=" ">
<path fill="none" stroke="#63b8ff" d="M262.51,-109.98C274.96,-101.84 293.96,-89.41 308.71,-79.76"/>
<polygon fill="#63b8ff" stroke="#63b8ff" points="310.8,-82.57 317.25,-74.17 306.96,-76.72 310.8,-82.57"/>
</a>
</g>
</g>
<!-- Node5&#45;&gt;Node7 -->
<g id="edge9_Node000005_Node000007" class="edge">
<title>Node5&#45;&gt;Node7</title>
<g id="a_edge9_Node000005_Node000007"><a xlink:title=" ">
<path fill="none" stroke="#63b8ff" d="M247.78,-109.66C244.38,-92.17 236.73,-52.8 232.15,-29.27"/>
<polygon fill="#63b8ff" stroke="#63b8ff" points="235.53,-28.31 230.18,-19.16 228.66,-29.64 235.53,-28.31"/>
</a>
</g>
</g>
<!-- Node8 -->
<g id="Node000008" class="node">
<title>Node8</title>
<g id="a_Node000008"><a xlink:title=" ">
<polygon fill="#e0e0e0" stroke="#999999" points="358.5,-19 302.5,-19 302.5,0 358.5,0 358.5,-19"/>
<text text-anchor="middle" x="330.5" y="-7" font-family="Helvetica,sans-Serif" font-size="10.00">stddef.h</text>
</a>
</g>
</g>
<!-- Node5&#45;&gt;Node8 -->
<g id="edge10_Node000005_Node000008" class="edge">
<title>Node5&#45;&gt;Node8</title>
<g id="a_edge10_Node000005_Node000008"><a xlink:title=" ">
<path fill="none" stroke="#63b8ff" d="M253.47,-109.82C259.47,-97.15 271.63,-73.11 285.5,-55 293.58,-44.45 304.07,-33.93 312.89,-25.77"/>
<polygon fill="#63b8ff" stroke="#63b8ff" points="315.31,-28.3 320.4,-19.01 310.63,-23.1 315.31,-28.3"/>
</a>
</g>
</g>
<!-- Node6&#45;&gt;Node7 -->
<g id="edge6_Node000006_Node000007" class="edge">
<title>Node6&#45;&gt;Node7</title>
<g id="a_edge6_Node000006_Node000007"><a xlink:title=" ">
<path fill="none" stroke="#63b8ff" d="M314.11,-54.98C297.93,-46.57 272.93,-33.59 254.12,-23.81"/>
<polygon fill="#63b8ff" stroke="#63b8ff" points="255.67,-20.68 245.19,-19.17 252.45,-26.89 255.67,-20.68"/>
</a>
</g>
</g>
<!-- Node6&#45;&gt;Node8 -->
<g id="edge7_Node000006_Node000008" class="edge">
<title>Node6&#45;&gt;Node8</title>
<g id="a_edge7_Node000006_Node000008"><a xlink:title=" ">
<path fill="none" stroke="#63b8ff" d="M330.5,-54.75C330.5,-47.8 330.5,-37.85 330.5,-29.13"/>
<polygon fill="#63b8ff" stroke="#63b8ff" points="334,-29.09 330.5,-19.09 327,-29.09 334,-29.09"/>
</a>
</g>
</g>
<!-- Node6&#45;&gt;Node9 -->
<g id="edge8_Node000006_Node000009" class="edge">
<title>Node6&#45;&gt;Node9</title>
<g id="a_edge8_Node000006_Node000009"><a xlink:title=" ">
<path fill="none" stroke="#63b8ff" d="M347.69,-54.98C364.75,-46.54 391.13,-33.47 410.9,-23.68"/>
<polygon fill="#63b8ff" stroke="#63b8ff" points="412.59,-26.75 420,-19.17 409.48,-20.47 412.59,-26.75"/>
</a>
</g>
</g>
<!-- Node10&#45;&gt;Node5 -->
<g id="edge15_Node000010_Node000005" class="edge">
<title>Node10&#45;&gt;Node5</title>
<g id="a_edge15_Node000010_Node000005"><a xlink:title=" ">
<path fill="none" stroke="#63b8ff" d="M371.2,-164.98C347.25,-156.23 309.72,-142.51 282.67,-132.62"/>
<polygon fill="#63b8ff" stroke="#63b8ff" points="283.81,-129.32 273.22,-129.17 281.41,-135.89 283.81,-129.32"/>
</a>
</g>
</g>
<!-- Node10&#45;&gt;Node8 -->
<g id="edge16_Node000010_Node000008" class="edge">
<title>Node10&#45;&gt;Node8</title>
<g id="a_edge16_Node000010_Node000008"><a xlink:title=" ">
<path fill="none" stroke="#63b8ff" d="M394.77,-164.91C395.06,-144.6 393.72,-92.51 374.5,-55 368.73,-43.75 359.12,-33.53 350.34,-25.73"/>
<polygon fill="#63b8ff" stroke="#63b8ff" points="352.57,-23.03 342.66,-19.29 348.07,-28.39 352.57,-23.03"/>
</a>
</g>
</g>
</g>
</svg>
