<?xml version="1.0" encoding="UTF-8" standalone="no"?>
<!DOCTYPE svg PUBLIC "-//W3C//DTD SVG 1.1//EN"
 "http://www.w3.org/Graphics/SVG/1.1/DTD/svg11.dtd">
<!-- Generated by graphviz version 2.43.0 (0)
 -->
<!-- Title: fuzz/fuzz_helpers.h Pages: 1 -->
<svg width="715pt" height="302pt"
 viewBox="0.00 0.00 714.50 302.00" xmlns="http://www.w3.org/2000/svg" xmlns:xlink="http://www.w3.org/1999/xlink">
<g id="graph0" class="graph" transform="scale(1 1) rotate(0) translate(4 298)">
<title>fuzz/fuzz_helpers.h</title>
<!-- Node1 -->
<g id="Node000001" class="node">
<title>Node1</title>
<g id="a_Node000001"><a xlink:title="Common definitions, structures, and helpers for all fuzzer targets.">
<polygon fill="#999999" stroke="#666666" points="522,-294 412,-294 412,-275 522,-275 522,-294"/>
<text text-anchor="middle" x="467" y="-282" font-family="Helvetica,sans-Serif" font-size="10.00">fuzz/fuzz_helpers.h</text>
</a>
</g>
</g>
<!-- Node2 -->
<g id="Node000002" class="node">
<title>Node2</title>
<g id="a_Node000002"><a xlink:href="infix__internals_8h.html" target="_top" xlink:title="Internal data structures, function prototypes, and constants.">
<polygon fill="white" stroke="#666666" points="365,-239 225,-239 225,-220 365,-220 365,-239"/>
<text text-anchor="middle" x="295" y="-227" font-family="Helvetica,sans-Serif" font-size="10.00">common/infix_internals.h</text>
</a>
</g>
</g>
<!-- Node1&#45;&gt;Node2 -->
<g id="edge1_Node000001_Node000002" class="edge">
<title>Node1&#45;&gt;Node2</title>
<g id="a_edge1_Node000001_Node000002"><a xlink:title=" ">
<path fill="none" stroke="#63b8ff" d="M439.37,-274.98C410.49,-266.09 364.99,-252.07 332.8,-242.15"/>
<polygon fill="#63b8ff" stroke="#63b8ff" points="333.44,-238.68 322.85,-239.08 331.38,-245.37 333.44,-238.68"/>
</a>
</g>
</g>
<!-- Node6 -->
<g id="Node000006" class="node">
<title>Node6</title>
<g id="a_Node000006"><a xlink:href="infix_8h.html" target="_top" xlink:title="The public interface for the infix FFI library.">
<polygon fill="white" stroke="#666666" points="407.5,-74 336.5,-74 336.5,-55 407.5,-55 407.5,-74"/>
<text text-anchor="middle" x="372" y="-62" font-family="Helvetica,sans-Serif" font-size="10.00">infix/infix.h</text>
</a>
</g>
</g>
<!-- Node1&#45;&gt;Node6 -->
<g id="edge14_Node000001_Node000006" class="edge">
<title>Node1&#45;&gt;Node6</title>
<g id="a_edge14_Node000001_Node000006"><a xlink:title=" ">
<path fill="none" stroke="#63b8ff" d="M459.34,-274.82C452.05,-266.21 441.16,-252.4 434,-239 405.55,-185.75 385.35,-116.71 376.7,-84.11"/>
<polygon fill="#63b8ff" stroke="#63b8ff" points="380.02,-82.98 374.13,-74.18 373.25,-84.74 380.02,-82.98"/>
</a>
</g>
</g>
<!-- Node7 -->
<g id="Node000007" class="node">
<title>Node7</title>
<g id="a_Node000007"><a xlink:title=" ">
<polygon fill="#e0e0e0" stroke="#999999" points="240,-19 178,-19 178,0 240,0 240,-19"/>
<text text-anchor="middle" x="209" y="-7" font-family="Helvetica,sans-Serif" font-size="10.00">stdbool.h</text>
</a>
</g>
</g>
<!-- Node1&#45;&gt;Node7 -->
<g id="edge15_Node000001_Node000007" class="edge">
<title>Node1&#45;&gt;Node7</title>
<g id="a_edge15_Node000001_Node000007"><a xlink:title=" ">
<path fill="none" stroke="#63b8ff" d="M411.6,-282.27C287.89,-278.01 0,-259.13 0,-175.5 0,-175.5 0,-175.5 0,-118.5 0,-43.79 106.7,-20.71 167.63,-13.61"/>
<polygon fill="#63b8ff" stroke="#63b8ff" points="168.14,-17.08 177.71,-12.54 167.4,-10.12 168.14,-17.08"/>
</a>
</g>
</g>
<!-- Node8 -->
<g id="Node000008" class="node">
<title>Node8</title>
<g id="a_Node000008"><a xlink:title=" ">
<polygon fill="#e0e0e0" stroke="#999999" points="400,-19 344,-19 344,0 400,0 400,-19"/>
<text text-anchor="middle" x="372" y="-7" font-family="Helvetica,sans-Serif" font-size="10.00">stddef.h</text>
</a>
</g>
</g>
<!-- Node1&#45;&gt;Node8 -->
<g id="edge16_Node000001_Node000008" class="edge">
<title>Node1&#45;&gt;Node8</title>
<g id="a_edge16_Node000001_Node000008"><a xlink:title=" ">
<path fill="none" stroke="#63b8ff" d="M464.44,-274.91C459.25,-256.74 448,-213 448,-175.5 448,-175.5 448,-175.5 448,-118.5 448,-79.47 414.39,-44.58 391.87,-25.6"/>
<polygon fill="#63b8ff" stroke="#63b8ff" points="393.85,-22.7 383.88,-19.12 389.44,-28.14 393.85,-22.7"/>
</a>
</g>
</g>
<!-- Node9 -->
<g id="Node000009" class="node">
<title>Node9</title>
<g id="a_Node000009"><a xlink:title=" ">
<polygon fill="#e0e0e0" stroke="#999999" points="491.5,-19 438.5,-19 438.5,0 491.5,0 491.5,-19"/>
<text text-anchor="middle" x="465" y="-7" font-family="Helvetica,sans-Serif" font-size="10.00">stdint.h</text>
</a>
</g>
</g>
<!-- Node1&#45;&gt;Node9 -->
<g id="edge17_Node000001_Node000009" class="edge">
<title>Node1&#45;&gt;Node9</title>
<g id="a_edge17_Node000001_Node000009"><a xlink:title=" ">
<path fill="none" stroke="#63b8ff" d="M469.56,-274.91C474.75,-256.74 486,-213 486,-175.5 486,-175.5 486,-175.5 486,-118.5 486,-86.46 476.98,-50.03 470.77,-28.73"/>
<polygon fill="#63b8ff" stroke="#63b8ff" points="474.09,-27.62 467.83,-19.07 467.39,-29.65 474.09,-27.62"/>
</a>
</g>
</g>
<!-- Node10 -->
<g id="Node000010" class="node">
<title>Node10</title>
<g id="a_Node000010"><a xlink:title=" ">
<polygon fill="#e0e0e0" stroke="#999999" points="564,-239 514,-239 514,-220 564,-220 564,-239"/>
<text text-anchor="middle" x="539" y="-227" font-family="Helvetica,sans-Serif" font-size="10.00">stdio.h</text>
</a>
</g>
</g>
<!-- Node1&#45;&gt;Node10 -->
<g id="edge18_Node000001_Node000010" class="edge">
<title>Node1&#45;&gt;Node10</title>
<g id="a_edge18_Node000001_Node000010"><a xlink:title=" ">
<path fill="none" stroke="#63b8ff" d="M478.57,-274.98C489.42,-267 505.88,-254.88 518.88,-245.31"/>
<polygon fill="#63b8ff" stroke="#63b8ff" points="521.24,-247.92 527.22,-239.17 517.09,-242.28 521.24,-247.92"/>
</a>
</g>
</g>
<!-- Node11 -->
<g id="Node000011" class="node">
<title>Node11</title>
<g id="a_Node000011"><a xlink:title=" ">
<polygon fill="#e0e0e0" stroke="#999999" points="635.5,-239 582.5,-239 582.5,-220 635.5,-220 635.5,-239"/>
<text text-anchor="middle" x="609" y="-227" font-family="Helvetica,sans-Serif" font-size="10.00">stdlib.h</text>
</a>
</g>
</g>
<!-- Node1&#45;&gt;Node11 -->
<g id="edge19_Node000001_Node000011" class="edge">
<title>Node1&#45;&gt;Node11</title>
<g id="a_edge19_Node000001_Node000011"><a xlink:title=" ">
<path fill="none" stroke="#63b8ff" d="M489.81,-274.98C513.17,-266.27 549.7,-252.63 576.17,-242.75"/>
<polygon fill="#63b8ff" stroke="#63b8ff" points="577.63,-245.95 585.77,-239.17 575.18,-239.39 577.63,-245.95"/>
</a>
</g>
</g>
<!-- Node12 -->
<g id="Node000012" class="node">
<title>Node12</title>
<g id="a_Node000012"><a xlink:title=" ">
<polygon fill="#e0e0e0" stroke="#999999" points="706.5,-239 653.5,-239 653.5,-220 706.5,-220 706.5,-239"/>
<text text-anchor="middle" x="680" y="-227" font-family="Helvetica,sans-Serif" font-size="10.00">string.h</text>
</a>
</g>
</g>
<!-- Node1&#45;&gt;Node12 -->
<g id="edge20_Node000001_Node000012" class="edge">
<title>Node1&#45;&gt;Node12</title>
<g id="a_edge20_Node000001_Node000012"><a xlink:title=" ">
<path fill="none" stroke="#63b8ff" d="M501.22,-274.98C540.17,-265.29 603.53,-249.53 643.43,-239.6"/>
<polygon fill="#63b8ff" stroke="#63b8ff" points="644.42,-242.96 653.28,-237.15 642.73,-236.17 644.42,-242.96"/>
</a>
</g>
</g>
<!-- Node3 -->
<g id="Node000003" class="node">
<title>Node3</title>
<g id="a_Node000003"><a xlink:href="infix__config_8h.html" target="_top" xlink:title="Platform, architecture, and ABI detection macros.">
<polygon fill="white" stroke="#666666" points="155.5,-129 28.5,-129 28.5,-110 155.5,-110 155.5,-129"/>
<text text-anchor="middle" x="92" y="-117" font-family="Helvetica,sans-Serif" font-size="10.00">common/infix_config.h</text>
</a>
</g>
</g>
<!-- Node2&#45;&gt;Node3 -->
<g id="edge2_Node000002_Node000003" class="edge">
<title>Node2&#45;&gt;Node3</title>
<g id="a_edge2_Node000002_Node000003"><a xlink:title=" ">
<path fill="none" stroke="#63b8ff" d="M270.35,-219.94C248.04,-211.82 214.55,-198.7 187,-184 159.62,-169.4 130.24,-148.93 111.52,-135.22"/>
<polygon fill="#63b8ff" stroke="#63b8ff" points="113.36,-132.23 103.24,-129.09 109.19,-137.86 113.36,-132.23"/>
</a>
</g>
</g>
<!-- Node4 -->
<g id="Node000004" class="node">
<title>Node4</title>
<g id="a_Node000004"><a xlink:href="platform_8h.html" target="_top" xlink:title="Declares internal, runtime CPU/OS feature detection functions.">
<polygon fill="white" stroke="#666666" points="309.5,-184 196.5,-184 196.5,-165 309.5,-165 309.5,-184"/>
<text text-anchor="middle" x="253" y="-172" font-family="Helvetica,sans-Serif" font-size="10.00">common/platform.h</text>
</a>
</g>
</g>
<!-- Node2&#45;&gt;Node4 -->
<g id="edge3_Node000002_Node000004" class="edge">
<title>Node2&#45;&gt;Node4</title>
<g id="a_edge3_Node000002_Node000004"><a xlink:title=" ">
<path fill="none" stroke="#63b8ff" d="M288.06,-219.75C282.13,-212.26 273.43,-201.28 266.18,-192.13"/>
<polygon fill="#63b8ff" stroke="#63b8ff" points="268.76,-189.75 259.81,-184.09 263.27,-194.1 268.76,-189.75"/>
</a>
</g>
</g>
<!-- Node2&#45;&gt;Node6 -->
<g id="edge13_Node000002_Node000006" class="edge">
<title>Node2&#45;&gt;Node6</title>
<g id="a_edge13_Node000002_Node000006"><a xlink:title=" ">
<path fill="none" stroke="#63b8ff" d="M301.02,-219.82C312.48,-202.98 337.64,-164.4 353,-129 359.3,-114.47 364.32,-97.2 367.62,-84.34"/>
<polygon fill="#63b8ff" stroke="#63b8ff" points="371.08,-84.9 370.05,-74.36 364.28,-83.24 371.08,-84.9"/>
</a>
</g>
</g>
<!-- Node4&#45;&gt;Node3 -->
<g id="edge11_Node000004_Node000003" class="edge">
<title>Node4&#45;&gt;Node3</title>
<g id="a_edge11_Node000004_Node000003"><a xlink:title=" ">
<path fill="none" stroke="#63b8ff" d="M227.13,-164.98C200.22,-156.13 157.88,-142.19 127.77,-132.28"/>
<polygon fill="#63b8ff" stroke="#63b8ff" points="128.66,-128.88 118.07,-129.08 126.47,-135.53 128.66,-128.88"/>
</a>
</g>
</g>
<!-- Node5 -->
<g id="Node000005" class="node">
<title>Node5</title>
<g id="a_Node000005"><a xlink:href="compat__c23_8h.html" target="_top" xlink:title="Provides forward compatibility macros for C23 features.">
<polygon fill="white" stroke="#666666" points="343.5,-129 212.5,-129 212.5,-110 343.5,-110 343.5,-129"/>
<text text-anchor="middle" x="278" y="-117" font-family="Helvetica,sans-Serif" font-size="10.00">common/compat_c23.h</text>
</a>
</g>
</g>
<!-- Node4&#45;&gt;Node5 -->
<g id="edge4_Node000004_Node000005" class="edge">
<title>Node4&#45;&gt;Node5</title>
<g id="a_edge4_Node000004_Node000005"><a xlink:title=" ">
<path fill="none" stroke="#63b8ff" d="M257.13,-164.75C260.51,-157.57 265.42,-147.18 269.62,-138.27"/>
<polygon fill="#63b8ff" stroke="#63b8ff" points="272.85,-139.63 273.95,-129.09 266.52,-136.64 272.85,-139.63"/>
</a>
</g>
</g>
<!-- Node4&#45;&gt;Node7 -->
<g id="edge12_Node000004_Node000007" class="edge">
<title>Node4&#45;&gt;Node7</title>
<g id="a_edge12_Node000004_Node000007"><a xlink:title=" ">
<path fill="none" stroke="#63b8ff" d="M237.57,-164.8C225.65,-157.11 210.04,-144.69 203,-129 188.23,-96.08 196.48,-52.73 203.17,-28.63"/>
<polygon fill="#63b8ff" stroke="#63b8ff" points="206.53,-29.61 206.04,-19.03 199.82,-27.6 206.53,-29.61"/>
</a>
</g>
</g>
<!-- Node5&#45;&gt;Node6 -->
<g id="edge5_Node000005_Node000006" class="edge">
<title>Node5&#45;&gt;Node6</title>
<g id="a_edge5_Node000005_Node000006"><a xlink:title=" ">
<path fill="none" stroke="#63b8ff" d="M293.1,-109.98C307.82,-101.69 330.42,-88.94 347.67,-79.22"/>
<polygon fill="#63b8ff" stroke="#63b8ff" points="349.63,-82.13 356.62,-74.17 346.19,-76.03 349.63,-82.13"/>
</a>
</g>
</g>
<!-- Node5&#45;&gt;Node7 -->
<g id="edge9_Node000005_Node000007" class="edge">
<title>Node5&#45;&gt;Node7</title>
<g id="a_edge9_Node000005_Node000007"><a xlink:title=" ">
<path fill="none" stroke="#63b8ff" d="M272.35,-109.66C260.92,-91.77 234.88,-51 219.98,-27.69"/>
<polygon fill="#63b8ff" stroke="#63b8ff" points="222.87,-25.7 214.53,-19.16 216.97,-29.47 222.87,-25.7"/>
</a>
</g>
</g>
<!-- Node5&#45;&gt;Node8 -->
<g id="edge10_Node000005_Node000008" class="edge">
<title>Node5&#45;&gt;Node8</title>
<g id="a_edge10_Node000005_Node000008"><a xlink:title=" ">
<path fill="none" stroke="#63b8ff" d="M284,-110C292.92,-97.54 310.4,-73.78 327,-55 335.92,-44.92 346.6,-34.29 355.33,-25.96"/>
<polygon fill="#63b8ff" stroke="#63b8ff" points="357.8,-28.43 362.67,-19.02 353,-23.34 357.8,-28.43"/>
</a>
</g>
</g>
<!-- Node6&#45;&gt;Node7 -->
<g id="edge6_Node000006_Node000007" class="edge">
<title>Node6&#45;&gt;Node7</title>
<g id="a_edge6_Node000006_Node000007"><a xlink:title=" ">
<path fill="none" stroke="#63b8ff" d="M345.81,-54.98C318.56,-46.13 275.7,-32.19 245.22,-22.28"/>
<polygon fill="#63b8ff" stroke="#63b8ff" points="245.99,-18.85 235.39,-19.08 243.82,-25.5 245.99,-18.85"/>
</a>
</g>
</g>
<!-- Node6&#45;&gt;Node8 -->
<g id="edge7_Node000006_Node000008" class="edge">
<title>Node6&#45;&gt;Node8</title>
<g id="a_edge7_Node000006_Node000008"><a xlink:title=" ">
<path fill="none" stroke="#63b8ff" d="M372,-54.75C372,-47.8 372,-37.85 372,-29.13"/>
<polygon fill="#63b8ff" stroke="#63b8ff" points="375.5,-29.09 372,-19.09 368.5,-29.09 375.5,-29.09"/>
</a>
</g>
</g>
<!-- Node6&#45;&gt;Node9 -->
<g id="edge8_Node000006_Node000009" class="edge">
<title>Node6&#45;&gt;Node9</title>
<g id="a_edge8_Node000006_Node000009"><a xlink:title=" ">
<path fill="none" stroke="#63b8ff" d="M386.94,-54.98C401.5,-46.69 423.87,-33.94 440.93,-24.22"/>
<polygon fill="#63b8ff" stroke="#63b8ff" points="442.83,-27.16 449.79,-19.17 439.36,-21.08 442.83,-27.16"/>
</a>
</g>
</g>
</g>
</svg>
