<?xml version="1.0" encoding="UTF-8" standalone="no"?>
<!DOCTYPE svg PUBLIC "-//W3C//DTD SVG 1.1//EN"
 "http://www.w3.org/Graphics/SVG/1.1/DTD/svg11.dtd">
<!-- Generated by graphviz version 2.43.0 (0)
 -->
<!-- Title: fuzz/fuzz_signature.c Pages: 1 -->
<!--zoomable 302 -->

<svg id="main" version="1.1" xmlns="http://www.w3.org/2000/svg" xmlns:xlink="http://www.w3.org/1999/xlink" xml:space="preserve" onload="init(evt)">
<style type="text/css"><![CDATA[
.node, .edge {opacity: 0.7;}
.node.selected, .edge.selected {opacity: 1;}
.edge:hover path { stroke: red; }
.edge:hover polygon { stroke: red; fill: red; }
]]></style>

<defs>
  <circle id="rim" cx="0" cy="0" r="7"/>
  <circle id="rim2" cx="0" cy="0" r="3.5"/>
  <g id="zoomPlus">
    <use xlink:href="#rim" fill="#404040"><set attributeName="fill" to="#808080" begin="zoomplus.mouseover" end="zoomplus.mouseout"/></use>
    <path d="M-4,0h8M0,-4v8" fill="none" stroke="white" stroke-width="1.5" pointer-events="none"/>
  </g>
  <g id="zoomMin">
    <use xlink:href="#rim" fill="#404040"><set attributeName="fill" to="#808080" begin="zoomminus.mouseover" end="zoomminus.mouseout"/></use>
    <path d="M-4,0h8" fill="none" stroke="white" stroke-width="1.5" pointer-events="none"/>
  </g>
  <g id="arrowUp" transform="translate(30 24)">
    <use xlink:href="#rim"/>
    <path pointer-events="none" fill="none" stroke="white" stroke-width="1.5" d="M0,-3.0v7 M-2.5,-0.5L0,-3.0L2.5,-0.5"/>
  </g>
  <g id="arrowRight" transform="rotate(90) translate(36 -43)">
    <use xlink:href="#rim"/>
    <path pointer-events="none" fill="none" stroke="white" stroke-width="1.5" d="M0,-3.0v7 M-2.5,-0.5L0,-3.0L2.5,-0.5"/>
  </g>
  <g id="arrowDown" transform="rotate(180) translate(-30 -48)">
    <use xlink:href="#rim"/>
    <path pointer-events="none" fill="none" stroke="white" stroke-width="1.5" d="M0,-3.0v7 M-2.5,-0.5L0,-3.0L2.5,-0.5"/>
  </g>
  <g id="arrowLeft" transform="rotate(270) translate(-36 17)">
    <use xlink:href="#rim"/>
    <path pointer-events="none" fill="none" stroke="white" stroke-width="1.5" d="M0,-3.0v7 M-2.5,-0.5L0,-3.0L2.5,-0.5"/>
  </g>
  <g id="resetDef">
    <use xlink:href="#rim2" fill="#404040"><set attributeName="fill" to="#808080" begin="reset.mouseover" end="reset.mouseout"/></use>
  </g>
</defs>
<script type="application/ecmascript">
var viewWidth = 569;
var viewHeight = 302;
var sectionId = 'dynsection-0';
</script>
<script type="application/ecmascript" xlink:href="svg.min.js"/>
<svg id="graph" class="graph">
<g id="viewport">
<title>fuzz/fuzz_signature.c</title>
<!-- Node1 -->
<g id="Node000001" class="node">
<title>Node1</title>
<g id="a_Node000001"><a xlink:title="Fuzzer target for the high&#45;level signature parsing API.">
<polygon fill="#999999" stroke="#666666" points="159.29,-294 40.29,-294 40.29,-275 159.29,-275 159.29,-294"/>
<text text-anchor="middle" x="99.79" y="-282" font-family="Helvetica,sans-Serif" font-size="10.00">fuzz/fuzz_signature.c</text>
</a>
</g>
</g>
<!-- Node2 -->
<g id="Node000002" class="node">
<title>Node2</title>
<g id="a_Node000002"><a xlink:href="infix_8h.html" target="_top" xlink:title="The public interface for the infix FFI library.">
<polygon fill="white" stroke="#666666" points="308.29,-129 237.29,-129 237.29,-110 308.29,-110 308.29,-129"/>
<text text-anchor="middle" x="272.79" y="-117" font-family="Helvetica,sans-Serif" font-size="10.00">infix/infix.h</text>
</a>
</g>
</g>
<!-- Node1&#45;&gt;Node2 -->
<g id="edge1_Node000001_Node000002" class="edge">
<title>Node1&#45;&gt;Node2</title>
<g id="a_edge1_Node000001_Node000002"><a xlink:title=" ">
<path fill="none" stroke="#63b8ff" d="M86,-274.71C55.77,-254.41 -11.15,-203.08 20.79,-165 46.61,-134.23 161.69,-124.72 227.04,-121.8"/>
<polygon fill="#63b8ff" stroke="#63b8ff" points="227.24,-125.29 237.08,-121.38 226.95,-118.3 227.24,-125.29"/>
</a>
</g>
</g>
<!-- Node5 -->
<g id="Node000005" class="node">
<title>Node5</title>
<g id="a_Node000005"><a xlink:title=" ">
<polygon fill="#e0e0e0" stroke="#999999" points="512.79,-19 456.79,-19 456.79,0 512.79,0 512.79,-19"/>
<text text-anchor="middle" x="484.79" y="-7" font-family="Helvetica,sans-Serif" font-size="10.00">stddef.h</text>
</a>
</g>
</g>
<!-- Node1&#45;&gt;Node5 -->
<g id="edge8_Node000001_Node000005" class="edge">
<title>Node1&#45;&gt;Node5</title>
<g id="a_edge8_Node000001_Node000005"><a xlink:title=" ">
<path fill="none" stroke="#63b8ff" d="M159.59,-281.93C284.32,-277.03 560.79,-256.98 560.79,-175.5 560.79,-175.5 560.79,-175.5 560.79,-118.5 560.79,-79.47 527.18,-44.58 504.66,-25.6"/>
<polygon fill="#63b8ff" stroke="#63b8ff" points="506.64,-22.7 496.67,-19.12 502.24,-28.14 506.64,-22.7"/>
</a>
</g>
</g>
<!-- Node6 -->
<g id="Node000006" class="node">
<title>Node6</title>
<g id="a_Node000006"><a xlink:title=" ">
<polygon fill="#e0e0e0" stroke="#999999" points="209.29,-74 156.29,-74 156.29,-55 209.29,-55 209.29,-74"/>
<text text-anchor="middle" x="182.79" y="-62" font-family="Helvetica,sans-Serif" font-size="10.00">stdint.h</text>
</a>
</g>
</g>
<!-- Node1&#45;&gt;Node6 -->
<g id="edge9_Node000001_Node000006" class="edge">
<title>Node1&#45;&gt;Node6</title>
<g id="a_edge9_Node000001_Node000006"><a xlink:title=" ">
<path fill="none" stroke="#63b8ff" d="M74.73,-274.99C57.65,-267.93 35.84,-256.23 22.79,-239 2.59,-212.31 -8,-193.95 8.79,-165 38.31,-114.11 104.73,-87.04 146.43,-74.53"/>
<polygon fill="#63b8ff" stroke="#63b8ff" points="147.56,-77.84 156.21,-71.72 145.63,-71.11 147.56,-77.84"/>
</a>
</g>
</g>
<!-- Node7 -->
<g id="Node000007" class="node">
<title>Node7</title>
<g id="a_Node000007"><a xlink:title=" ">
<polygon fill="#e0e0e0" stroke="#999999" points="83.29,-184 30.29,-184 30.29,-165 83.29,-165 83.29,-184"/>
<text text-anchor="middle" x="56.79" y="-172" font-family="Helvetica,sans-Serif" font-size="10.00">stdlib.h</text>
</a>
</g>
</g>
<!-- Node1&#45;&gt;Node7 -->
<g id="edge10_Node000001_Node000007" class="edge">
<title>Node1&#45;&gt;Node7</title>
<g id="a_edge10_Node000001_Node000007"><a xlink:title=" ">
<path fill="none" stroke="#63b8ff" d="M96.27,-274.66C89.25,-257.01 73.35,-217.09 64.01,-193.64"/>
<polygon fill="#63b8ff" stroke="#63b8ff" points="67.19,-192.15 60.24,-184.16 60.69,-194.74 67.19,-192.15"/>
</a>
</g>
</g>
<!-- Node8 -->
<g id="Node000008" class="node">
<title>Node8</title>
<g id="a_Node000008"><a xlink:title=" ">
<polygon fill="#e0e0e0" stroke="#999999" points="154.29,-184 101.29,-184 101.29,-165 154.29,-165 154.29,-184"/>
<text text-anchor="middle" x="127.79" y="-172" font-family="Helvetica,sans-Serif" font-size="10.00">string.h</text>
</a>
</g>
</g>
<!-- Node1&#45;&gt;Node8 -->
<g id="edge11_Node000001_Node000008" class="edge">
<title>Node1&#45;&gt;Node8</title>
<g id="a_edge11_Node000001_Node000008"><a xlink:title=" ">
<path fill="none" stroke="#63b8ff" d="M102.08,-274.66C106.64,-257.09 116.92,-217.45 123.01,-193.95"/>
<polygon fill="#63b8ff" stroke="#63b8ff" points="126.43,-194.72 125.55,-184.16 119.65,-192.96 126.43,-194.72"/>
</a>
</g>
</g>
<!-- Node9 -->
<g id="Node000009" class="node">
<title>Node9</title>
<g id="a_Node000009"><a xlink:href="fuzz__helpers_8h.html" target="_top" xlink:title="Common definitions, structures, and helpers for all fuzzer targets.">
<polygon fill="white" stroke="#666666" points="279.29,-239 192.29,-239 192.29,-220 279.29,-220 279.29,-239"/>
<text text-anchor="middle" x="235.79" y="-227" font-family="Helvetica,sans-Serif" font-size="10.00">fuzz_helpers.h</text>
</a>
</g>
</g>
<!-- Node1&#45;&gt;Node9 -->
<g id="edge12_Node000001_Node000009" class="edge">
<title>Node1&#45;&gt;Node9</title>
<g id="a_edge12_Node000001_Node000009"><a xlink:title=" ">
<path fill="none" stroke="#63b8ff" d="M121.64,-274.98C143.92,-266.3 178.69,-252.75 204.01,-242.88"/>
<polygon fill="#63b8ff" stroke="#63b8ff" points="205.5,-246.06 213.54,-239.17 202.96,-239.54 205.5,-246.06"/>
</a>
</g>
</g>
<!-- Node3 -->
<g id="Node000003" class="node">
<title>Node3</title>
<g id="a_Node000003"><a xlink:href="compat__c23_8h.html" target="_top" xlink:title="Provides forward compatibility macros for C23 features.">
<polygon fill="white" stroke="#666666" points="418.29,-74 287.29,-74 287.29,-55 418.29,-55 418.29,-74"/>
<text text-anchor="middle" x="352.79" y="-62" font-family="Helvetica,sans-Serif" font-size="10.00">common/compat_c23.h</text>
</a>
</g>
</g>
<!-- Node2&#45;&gt;Node3 -->
<g id="edge2_Node000002_Node000003" class="edge">
<title>Node2&#45;&gt;Node3</title>
<g id="a_edge2_Node000002_Node000003"><a xlink:title=" ">
<path fill="none" stroke="#63b8ff" d="M285.65,-109.98C297.94,-101.84 316.7,-89.41 331.27,-79.76"/>
<polygon fill="#63b8ff" stroke="#63b8ff" points="333.3,-82.61 339.71,-74.17 329.44,-76.78 333.3,-82.61"/>
</a>
</g>
</g>
<!-- Node4 -->
<g id="Node000004" class="node">
<title>Node4</title>
<g id="a_Node000004"><a xlink:title=" ">
<polygon fill="#e0e0e0" stroke="#999999" points="383.79,-19 321.79,-19 321.79,0 383.79,0 383.79,-19"/>
<text text-anchor="middle" x="352.79" y="-7" font-family="Helvetica,sans-Serif" font-size="10.00">stdbool.h</text>
</a>
</g>
</g>
<!-- Node2&#45;&gt;Node4 -->
<g id="edge5_Node000002_Node000004" class="edge">
<title>Node2&#45;&gt;Node4</title>
<g id="a_edge5_Node000002_Node000004"><a xlink:title=" ">
<path fill="none" stroke="#63b8ff" d="M271.32,-109.93C269.55,-96.96 268.06,-72.06 278.79,-55 287.77,-40.74 303.12,-30.43 317.53,-23.34"/>
<polygon fill="#63b8ff" stroke="#63b8ff" points="319.12,-26.46 326.78,-19.14 316.23,-20.09 319.12,-26.46"/>
</a>
</g>
</g>
<!-- Node2&#45;&gt;Node5 -->
<g id="edge6_Node000002_Node000005" class="edge">
<title>Node2&#45;&gt;Node5</title>
<g id="a_edge6_Node000002_Node000005"><a xlink:title=" ">
<path fill="none" stroke="#63b8ff" d="M308.43,-110.68C347.7,-101.65 407.92,-86.44 427.79,-74 446.74,-62.13 463.16,-42.19 473.45,-27.81"/>
<polygon fill="#63b8ff" stroke="#63b8ff" points="476.51,-29.54 479.29,-19.31 470.74,-25.57 476.51,-29.54"/>
</a>
</g>
</g>
<!-- Node2&#45;&gt;Node6 -->
<g id="edge7_Node000002_Node000006" class="edge">
<title>Node2&#45;&gt;Node6</title>
<g id="a_edge7_Node000002_Node000006"><a xlink:title=" ">
<path fill="none" stroke="#63b8ff" d="M258.33,-109.98C244.38,-101.77 223,-89.18 206.54,-79.49"/>
<polygon fill="#63b8ff" stroke="#63b8ff" points="207.91,-76.23 197.52,-74.17 204.36,-82.26 207.91,-76.23"/>
</a>
</g>
</g>
<!-- Node3&#45;&gt;Node4 -->
<g id="edge3_Node000003_Node000004" class="edge">
<title>Node3&#45;&gt;Node4</title>
<g id="a_edge3_Node000003_Node000004"><a xlink:title=" ">
<path fill="none" stroke="#63b8ff" d="M352.79,-54.75C352.79,-47.8 352.79,-37.85 352.79,-29.13"/>
<polygon fill="#63b8ff" stroke="#63b8ff" points="356.29,-29.09 352.79,-19.09 349.29,-29.09 356.29,-29.09"/>
</a>
</g>
</g>
<!-- Node3&#45;&gt;Node5 -->
<g id="edge4_Node000003_Node000005" class="edge">
<title>Node3&#45;&gt;Node5</title>
<g id="a_edge4_Node000003_Node000005"><a xlink:title=" ">
<path fill="none" stroke="#63b8ff" d="M374,-54.98C395.52,-46.34 429.08,-32.87 453.62,-23.02"/>
<polygon fill="#63b8ff" stroke="#63b8ff" points="455.22,-26.14 463.2,-19.17 452.61,-19.65 455.22,-26.14"/>
</a>
</g>
</g>
<!-- Node9&#45;&gt;Node2 -->
<g id="edge16_Node000009_Node000002" class="edge">
<title>Node9&#45;&gt;Node2</title>
<g id="a_edge16_Node000009_Node000002"><a xlink:title=" ">
<path fill="none" stroke="#63b8ff" d="M244.92,-219.96C253.11,-211.66 264.59,-198.25 269.79,-184 275.06,-169.57 275.48,-152.05 274.78,-139.08"/>
<polygon fill="#63b8ff" stroke="#63b8ff" points="278.26,-138.71 273.96,-129.03 271.28,-139.28 278.26,-138.71"/>
</a>
</g>
</g>
<!-- Node9&#45;&gt;Node4 -->
<g id="edge17_Node000009_Node000004" class="edge">
<title>Node9&#45;&gt;Node4</title>
<g id="a_edge17_Node000009_Node000004"><a xlink:title=" ">
<path fill="none" stroke="#63b8ff" d="M279.41,-226.46C339.41,-222.65 442.63,-212.08 465.79,-184 503.83,-137.9 470.71,-96.6 427.79,-55 414.5,-42.12 396.81,-31.4 381.94,-23.7"/>
<polygon fill="#63b8ff" stroke="#63b8ff" points="383.17,-20.41 372.66,-19.09 380.06,-26.68 383.17,-20.41"/>
</a>
</g>
</g>
<!-- Node9&#45;&gt;Node5 -->
<g id="edge18_Node000009_Node000005" class="edge">
<title>Node9&#45;&gt;Node5</title>
<g id="a_edge18_Node000009_Node000005"><a xlink:title=" ">
<path fill="none" stroke="#63b8ff" d="M279.34,-226.82C343.17,-223.38 457.52,-213.2 484.79,-184 524.67,-141.31 504.13,-63.73 491.82,-28.62"/>
<polygon fill="#63b8ff" stroke="#63b8ff" points="495.09,-27.35 488.35,-19.17 488.52,-29.77 495.09,-27.35"/>
</a>
</g>
</g>
<!-- Node9&#45;&gt;Node6 -->
<g id="edge19_Node000009_Node000006" class="edge">
<title>Node9&#45;&gt;Node6</title>
<g id="a_edge19_Node000009_Node000006"><a xlink:title=" ">
<path fill="none" stroke="#63b8ff" d="M227.02,-219.81C219.09,-211.41 207.78,-197.94 201.79,-184 187.59,-150.93 183.9,-108.54 183.01,-84.46"/>
<polygon fill="#63b8ff" stroke="#63b8ff" points="186.5,-84.14 182.76,-74.23 179.5,-84.31 186.5,-84.14"/>
</a>
</g>
</g>
<!-- Node9&#45;&gt;Node7 -->
<g id="edge21_Node000009_Node000007" class="edge">
<title>Node9&#45;&gt;Node7</title>
<g id="a_edge21_Node000009_Node000007"><a xlink:title=" ">
<path fill="none" stroke="#63b8ff" d="M207.03,-219.98C176.13,-210.84 126.95,-196.27 93.33,-186.32"/>
<polygon fill="#63b8ff" stroke="#63b8ff" points="94.02,-182.87 83.44,-183.39 92.03,-189.58 94.02,-182.87"/>
</a>
</g>
</g>
<!-- Node9&#45;&gt;Node8 -->
<g id="edge22_Node000009_Node000008" class="edge">
<title>Node9&#45;&gt;Node8</title>
<g id="a_edge22_Node000009_Node000008"><a xlink:title=" ">
<path fill="none" stroke="#63b8ff" d="M218.44,-219.98C201.22,-211.54 174.59,-198.47 154.65,-188.68"/>
<polygon fill="#63b8ff" stroke="#63b8ff" points="155.98,-185.43 145.46,-184.17 152.9,-191.72 155.98,-185.43"/>
</a>
</g>
</g>
<!-- Node10 -->
<g id="Node000010" class="node">
<title>Node10</title>
<g id="a_Node000010"><a xlink:href="infix__internals_8h.html" target="_top" xlink:title="Internal data structures, function prototypes, and constants.">
<polygon fill="white" stroke="#666666" points="456.79,-184 316.79,-184 316.79,-165 456.79,-165 456.79,-184"/>
<text text-anchor="middle" x="386.79" y="-172" font-family="Helvetica,sans-Serif" font-size="10.00">common/infix_internals.h</text>
</a>
</g>
</g>
<!-- Node9&#45;&gt;Node10 -->
<g id="edge13_Node000009_Node000010" class="edge">
<title>Node9&#45;&gt;Node10</title>
<g id="a_edge13_Node000009_Node000010"><a xlink:title=" ">
<path fill="none" stroke="#63b8ff" d="M260.05,-219.98C285.11,-211.19 324.42,-197.39 352.62,-187.49"/>
<polygon fill="#63b8ff" stroke="#63b8ff" points="353.81,-190.78 362.09,-184.17 351.5,-184.18 353.81,-190.78"/>
</a>
</g>
</g>
<!-- Node12 -->
<g id="Node000012" class="node">
<title>Node12</title>
<g id="a_Node000012"><a xlink:title=" ">
<polygon fill="#e0e0e0" stroke="#999999" points="260.79,-184 210.79,-184 210.79,-165 260.79,-165 260.79,-184"/>
<text text-anchor="middle" x="235.79" y="-172" font-family="Helvetica,sans-Serif" font-size="10.00">stdio.h</text>
</a>
</g>
</g>
<!-- Node9&#45;&gt;Node12 -->
<g id="edge20_Node000009_Node000012" class="edge">
<title>Node9&#45;&gt;Node12</title>
<g id="a_edge20_Node000009_Node000012"><a xlink:title=" ">
<path fill="none" stroke="#63b8ff" d="M235.79,-219.75C235.79,-212.8 235.79,-202.85 235.79,-194.13"/>
<polygon fill="#63b8ff" stroke="#63b8ff" points="239.29,-194.09 235.79,-184.09 232.29,-194.09 239.29,-194.09"/>
</a>
</g>
</g>
<!-- Node10&#45;&gt;Node2 -->
<g id="edge15_Node000010_Node000002" class="edge">
<title>Node10&#45;&gt;Node2</title>
<g id="a_edge15_Node000010_Node000002"><a xlink:title=" ">
<path fill="none" stroke="#63b8ff" d="M368.48,-164.98C350.14,-156.46 321.68,-143.23 300.57,-133.41"/>
<polygon fill="#63b8ff" stroke="#63b8ff" points="301.99,-130.21 291.44,-129.17 299.03,-136.56 301.99,-130.21"/>
</a>
</g>
</g>
<!-- Node11 -->
<g id="Node000011" class="node">
<title>Node11</title>
<g id="a_Node000011"><a xlink:href="infix__config_8h.html" target="_top" xlink:title="Platform, architecture, and ABI detection macros.">
<polygon fill="white" stroke="#666666" points="453.29,-129 326.29,-129 326.29,-110 453.29,-110 453.29,-129"/>
<text text-anchor="middle" x="389.79" y="-117" font-family="Helvetica,sans-Serif" font-size="10.00">common/infix_config.h</text>
</a>
</g>
</g>
<!-- Node10&#45;&gt;Node11 -->
<g id="edge14_Node000010_Node000011" class="edge">
<title>Node10&#45;&gt;Node11</title>
<g id="a_edge14_Node000010_Node000011"><a xlink:title=" ">
<path fill="none" stroke="#63b8ff" d="M387.29,-164.75C387.68,-157.8 388.24,-147.85 388.74,-139.13"/>
<polygon fill="#63b8ff" stroke="#63b8ff" points="392.24,-139.27 389.31,-129.09 385.25,-138.88 392.24,-139.27"/>
</a>
</g>
</g>
</g>
</svg>

<g id="navigator" transform="translate(0 0)" fill="#404254">
  <rect fill="#f2f5e9" fill-opacity="0.5" stroke="#606060" stroke-width=".5" x="0" y="0" width="60" height="60"/>
  <use id="zoomplus" xlink:href="#zoomPlus" x="17" y="9" onmousedown="handleZoom(evt,'in')"/>
  <use id="zoomminus" xlink:href="#zoomMin" x="42" y="9" onmousedown="handleZoom(evt,'out')"/>
  <use id="reset" xlink:href="#resetDef" x="30" y="36" onmousedown="handleReset()"/>
   <use id="arrowup" xlink:href="#arrowUp" x="0" y="0" onmousedown="handlePan(0,-1)"/>
  <use id="arrowright" xlink:href="#arrowRight" x="0" y="0" onmousedown="handlePan(1,0)"/>
  <use id="arrowdown" xlink:href="#arrowDown" x="0" y="0" onmousedown="handlePan(0,1)"/>
  <use id="arrowleft" xlink:href="#arrowLeft" x="0" y="0" onmousedown="handlePan(-1,0)"/>
</g>
<svg viewBox="0 0 15 15" width="100%" height="30px" preserveAspectRatio="xMaxYMin meet">
 <g id="arrow_out" transform="scale(0.3 0.3)">
  <a xlink:href="fuzz__signature_8c__incl_org.svg" target="_base">
   <rect id="button" ry="5" rx="5" y="6" x="6" height="38" width="38"
        fill="#f2f5e9" fill-opacity="0.5" stroke="#606060" stroke-width="1.0"/>
   <path id="arrow"
     d="M 11.500037,31.436501 C 11.940474,20.09759 22.043105,11.32322 32.158766,21.979434 L 37.068811,17.246167 C 37.068811,17.246167 37.088388,32 37.088388,32 L 22.160133,31.978069 C 22.160133,31.978069 26.997745,27.140456 26.997745,27.140456 C 18.528582,18.264221 13.291696,25.230495 11.500037,31.436501 z"
     style="fill:#404040;"/>
  </a>
 </g>
</svg>

<style type='text/css'>
<![CDATA[
[data-mouse-over-selected='false'] { opacity: 0.7; }
[data-mouse-over-selected='true']  { opacity: 1.0; }
]]>
</style>
<script type="application/ecmascript"><![CDATA[
document.addEventListener('DOMContentLoaded', (event) => {
  highlightEdges();
  highlightAdjacentNodes();
});
]]></script>
</svg>
