<?xml version="1.0" encoding="UTF-8" standalone="no"?>
<!DOCTYPE svg PUBLIC "-//W3C//DTD SVG 1.1//EN"
 "http://www.w3.org/Graphics/SVG/1.1/DTD/svg11.dtd">
<!-- Generated by graphviz version 2.43.0 (0)
 -->
<!-- Title: fuzz/fuzz_roundtrip.c Pages: 1 -->
<svg width="564pt" height="357pt"
 viewBox="0.00 0.00 564.00 357.00" xmlns="http://www.w3.org/2000/svg" xmlns:xlink="http://www.w3.org/1999/xlink">
<g id="graph0" class="graph" transform="scale(1 1) rotate(0) translate(4 353)">
<title>fuzz/fuzz_roundtrip.c</title>
<!-- Node1 -->
<g id="Node000001" class="node">
<title>Node1</title>
<g id="a_Node000001"><a xlink:title="Fuzzer target for Type &#45;&gt; String &#45;&gt; Type round&#45;trip consistency.">
<polygon fill="#999999" stroke="#666666" points="517.5,-349 399.5,-349 399.5,-330 517.5,-330 517.5,-349"/>
<text text-anchor="middle" x="458.5" y="-337" font-family="Helvetica,sans-Serif" font-size="10.00">fuzz/fuzz_roundtrip.c</text>
</a>
</g>
</g>
<!-- Node2 -->
<g id="Node000002" class="node">
<title>Node2</title>
<g id="a_Node000002"><a xlink:href="fuzz__helpers_8h.html" target="_top" xlink:title="Common definitions, structures, and helpers for all fuzzer targets.">
<polygon fill="white" stroke="#666666" points="331,-294 244,-294 244,-275 331,-275 331,-294"/>
<text text-anchor="middle" x="287.5" y="-282" font-family="Helvetica,sans-Serif" font-size="10.00">fuzz_helpers.h</text>
</a>
</g>
</g>
<!-- Node1&#45;&gt;Node2 -->
<g id="edge1_Node000001_Node000002" class="edge">
<title>Node1&#45;&gt;Node2</title>
<g id="a_edge1_Node000001_Node000002"><a xlink:title=" ">
<path fill="none" stroke="#63b8ff" d="M431.03,-329.98C402.32,-321.09 357.08,-307.07 325.08,-297.15"/>
<polygon fill="#63b8ff" stroke="#63b8ff" points="325.78,-293.7 315.19,-294.08 323.7,-300.39 325.78,-293.7"/>
</a>
</g>
</g>
<!-- Node12 -->
<g id="Node000012" class="node">
<title>Node12</title>
<g id="a_Node000012"><a xlink:title=" ">
<polygon fill="#e0e0e0" stroke="#999999" points="485,-239 432,-239 432,-220 485,-220 485,-239"/>
<text text-anchor="middle" x="458.5" y="-227" font-family="Helvetica,sans-Serif" font-size="10.00">stdlib.h</text>
</a>
</g>
</g>
<!-- Node1&#45;&gt;Node12 -->
<g id="edge22_Node000001_Node000012" class="edge">
<title>Node1&#45;&gt;Node12</title>
<g id="a_edge22_Node000001_Node000012"><a xlink:title=" ">
<path fill="none" stroke="#63b8ff" d="M458.5,-329.66C458.5,-312.17 458.5,-272.8 458.5,-249.27"/>
<polygon fill="#63b8ff" stroke="#63b8ff" points="462,-249.16 458.5,-239.16 455,-249.16 462,-249.16"/>
</a>
</g>
</g>
<!-- Node13 -->
<g id="Node000013" class="node">
<title>Node13</title>
<g id="a_Node000013"><a xlink:title=" ">
<polygon fill="#e0e0e0" stroke="#999999" points="556,-239 503,-239 503,-220 556,-220 556,-239"/>
<text text-anchor="middle" x="529.5" y="-227" font-family="Helvetica,sans-Serif" font-size="10.00">string.h</text>
</a>
</g>
</g>
<!-- Node1&#45;&gt;Node13 -->
<g id="edge23_Node000001_Node000013" class="edge">
<title>Node1&#45;&gt;Node13</title>
<g id="a_edge23_Node000001_Node000013"><a xlink:title=" ">
<path fill="none" stroke="#63b8ff" d="M464.31,-329.66C476.07,-311.77 502.87,-271 518.2,-247.69"/>
<polygon fill="#63b8ff" stroke="#63b8ff" points="521.24,-249.44 523.81,-239.16 515.39,-245.59 521.24,-249.44"/>
</a>
</g>
</g>
<!-- Node3 -->
<g id="Node000003" class="node">
<title>Node3</title>
<g id="a_Node000003"><a xlink:href="infix__internals_8h.html" target="_top" xlink:title="Internal data structures, function prototypes, and constants.">
<polygon fill="white" stroke="#666666" points="357.5,-239 217.5,-239 217.5,-220 357.5,-220 357.5,-239"/>
<text text-anchor="middle" x="287.5" y="-227" font-family="Helvetica,sans-Serif" font-size="10.00">common/infix_internals.h</text>
</a>
</g>
</g>
<!-- Node2&#45;&gt;Node3 -->
<g id="edge2_Node000002_Node000003" class="edge">
<title>Node2&#45;&gt;Node3</title>
<g id="a_edge2_Node000002_Node000003"><a xlink:title=" ">
<path fill="none" stroke="#63b8ff" d="M287.5,-274.75C287.5,-267.8 287.5,-257.85 287.5,-249.13"/>
<polygon fill="#63b8ff" stroke="#63b8ff" points="291,-249.09 287.5,-239.09 284,-249.09 291,-249.09"/>
</a>
</g>
</g>
<!-- Node7 -->
<g id="Node000007" class="node">
<title>Node7</title>
<g id="a_Node000007"><a xlink:href="infix_8h.html" target="_top" xlink:title="The public interface for the infix FFI library.">
<polygon fill="white" stroke="#666666" points="155,-74 84,-74 84,-55 155,-55 155,-74"/>
<text text-anchor="middle" x="119.5" y="-62" font-family="Helvetica,sans-Serif" font-size="10.00">infix/infix.h</text>
</a>
</g>
</g>
<!-- Node2&#45;&gt;Node7 -->
<g id="edge15_Node000002_Node000007" class="edge">
<title>Node2&#45;&gt;Node7</title>
<g id="a_edge15_Node000002_Node000007"><a xlink:title=" ">
<path fill="none" stroke="#63b8ff" d="M243.74,-282.35C210.33,-279 165.85,-268.72 140.5,-239 102.82,-194.82 109.74,-119.74 115.63,-84.65"/>
<polygon fill="#63b8ff" stroke="#63b8ff" points="119.16,-84.85 117.53,-74.38 112.27,-83.58 119.16,-84.85"/>
</a>
</g>
</g>
<!-- Node8 -->
<g id="Node000008" class="node">
<title>Node8</title>
<g id="a_Node000008"><a xlink:title=" ">
<polygon fill="#e0e0e0" stroke="#999999" points="450.5,-19 388.5,-19 388.5,0 450.5,0 450.5,-19"/>
<text text-anchor="middle" x="419.5" y="-7" font-family="Helvetica,sans-Serif" font-size="10.00">stdbool.h</text>
</a>
</g>
</g>
<!-- Node2&#45;&gt;Node8 -->
<g id="edge16_Node000002_Node000008" class="edge">
<title>Node2&#45;&gt;Node8</title>
<g id="a_edge16_Node000002_Node000008"><a xlink:title=" ">
<path fill="none" stroke="#63b8ff" d="M307.75,-274.9C324.62,-267.11 348.68,-254.5 366.5,-239 412.92,-198.63 429.21,-186.71 450.5,-129 461.89,-98.12 464.05,-86.18 453.5,-55 449.94,-44.47 442.78,-34.48 435.95,-26.63"/>
<polygon fill="#63b8ff" stroke="#63b8ff" points="438.49,-24.23 429.11,-19.31 433.37,-29.01 438.49,-24.23"/>
</a>
</g>
</g>
<!-- Node9 -->
<g id="Node000009" class="node">
<title>Node9</title>
<g id="a_Node000009"><a xlink:title=" ">
<polygon fill="#e0e0e0" stroke="#999999" points="147.5,-19 91.5,-19 91.5,0 147.5,0 147.5,-19"/>
<text text-anchor="middle" x="119.5" y="-7" font-family="Helvetica,sans-Serif" font-size="10.00">stddef.h</text>
</a>
</g>
</g>
<!-- Node2&#45;&gt;Node9 -->
<g id="edge17_Node000002_Node000009" class="edge">
<title>Node2&#45;&gt;Node9</title>
<g id="a_edge17_Node000002_Node000009"><a xlink:title=" ">
<path fill="none" stroke="#63b8ff" d="M243.88,-283.07C173.69,-279.83 43.5,-262.13 43.5,-175.5 43.5,-175.5 43.5,-175.5 43.5,-118.5 43.5,-79.47 77.11,-44.58 99.63,-25.6"/>
<polygon fill="#63b8ff" stroke="#63b8ff" points="102.06,-28.14 107.62,-19.12 97.65,-22.7 102.06,-28.14"/>
</a>
</g>
</g>
<!-- Node10 -->
<g id="Node000010" class="node">
<title>Node10</title>
<g id="a_Node000010"><a xlink:title=" ">
<polygon fill="#e0e0e0" stroke="#999999" points="53,-19 0,-19 0,0 53,0 53,-19"/>
<text text-anchor="middle" x="26.5" y="-7" font-family="Helvetica,sans-Serif" font-size="10.00">stdint.h</text>
</a>
</g>
</g>
<!-- Node2&#45;&gt;Node10 -->
<g id="edge18_Node000002_Node000010" class="edge">
<title>Node2&#45;&gt;Node10</title>
<g id="a_edge18_Node000002_Node000010"><a xlink:title=" ">
<path fill="none" stroke="#63b8ff" d="M243.9,-283.85C194.94,-282.36 114.75,-274.09 56.5,-239 25.49,-220.32 5.5,-211.7 5.5,-175.5 5.5,-175.5 5.5,-175.5 5.5,-118.5 5.5,-86.46 14.52,-50.03 20.73,-28.73"/>
<polygon fill="#63b8ff" stroke="#63b8ff" points="24.11,-29.65 23.67,-19.07 17.41,-27.62 24.11,-29.65"/>
</a>
</g>
</g>
<!-- Node11 -->
<g id="Node000011" class="node">
<title>Node11</title>
<g id="a_Node000011"><a xlink:title=" ">
<polygon fill="#e0e0e0" stroke="#999999" points="199.5,-239 149.5,-239 149.5,-220 199.5,-220 199.5,-239"/>
<text text-anchor="middle" x="174.5" y="-227" font-family="Helvetica,sans-Serif" font-size="10.00">stdio.h</text>
</a>
</g>
</g>
<!-- Node2&#45;&gt;Node11 -->
<g id="edge19_Node000002_Node000011" class="edge">
<title>Node2&#45;&gt;Node11</title>
<g id="a_edge19_Node000002_Node000011"><a xlink:title=" ">
<path fill="none" stroke="#63b8ff" d="M269.34,-274.98C251.25,-266.5 223.22,-253.35 202.31,-243.54"/>
<polygon fill="#63b8ff" stroke="#63b8ff" points="203.53,-240.25 192.99,-239.17 200.55,-246.59 203.53,-240.25"/>
</a>
</g>
</g>
<!-- Node2&#45;&gt;Node12 -->
<g id="edge20_Node000002_Node000012" class="edge">
<title>Node2&#45;&gt;Node12</title>
<g id="a_edge20_Node000002_Node000012"><a xlink:title=" ">
<path fill="none" stroke="#63b8ff" d="M314.97,-274.98C344.02,-265.98 389.99,-251.73 422.06,-241.8"/>
<polygon fill="#63b8ff" stroke="#63b8ff" points="423.42,-245.04 431.94,-238.73 421.35,-238.35 423.42,-245.04"/>
</a>
</g>
</g>
<!-- Node2&#45;&gt;Node13 -->
<g id="edge21_Node000002_Node000013" class="edge">
<title>Node2&#45;&gt;Node13</title>
<g id="a_edge21_Node000002_Node000013"><a xlink:title=" ">
<path fill="none" stroke="#63b8ff" d="M328.2,-274.95C367.68,-266.6 429.54,-253.38 492.64,-239.16"/>
<polygon fill="#63b8ff" stroke="#63b8ff" points="493.79,-242.49 502.78,-236.87 492.25,-235.66 493.79,-242.49"/>
</a>
</g>
</g>
<!-- Node4 -->
<g id="Node000004" class="node">
<title>Node4</title>
<g id="a_Node000004"><a xlink:href="infix__config_8h.html" target="_top" xlink:title="Platform, architecture, and ABI detection macros.">
<polygon fill="white" stroke="#666666" points="275,-129 148,-129 148,-110 275,-110 275,-129"/>
<text text-anchor="middle" x="211.5" y="-117" font-family="Helvetica,sans-Serif" font-size="10.00">common/infix_config.h</text>
</a>
</g>
</g>
<!-- Node3&#45;&gt;Node4 -->
<g id="edge3_Node000003_Node000004" class="edge">
<title>Node3&#45;&gt;Node4</title>
<g id="a_edge3_Node000003_Node000004"><a xlink:title=" ">
<path fill="none" stroke="#63b8ff" d="M281.28,-219.66C268.64,-201.69 239.75,-160.64 223.38,-137.38"/>
<polygon fill="#63b8ff" stroke="#63b8ff" points="226.21,-135.32 217.59,-129.16 220.49,-139.35 226.21,-135.32"/>
</a>
</g>
</g>
<!-- Node5 -->
<g id="Node000005" class="node">
<title>Node5</title>
<g id="a_Node000005"><a xlink:href="platform_8h.html" target="_top" xlink:title="Declares internal, runtime CPU/OS feature detection functions.">
<polygon fill="white" stroke="#666666" points="399,-184 286,-184 286,-165 399,-165 399,-184"/>
<text text-anchor="middle" x="342.5" y="-172" font-family="Helvetica,sans-Serif" font-size="10.00">common/platform.h</text>
</a>
</g>
</g>
<!-- Node3&#45;&gt;Node5 -->
<g id="edge4_Node000003_Node000005" class="edge">
<title>Node3&#45;&gt;Node5</title>
<g id="a_edge4_Node000003_Node000005"><a xlink:title=" ">
<path fill="none" stroke="#63b8ff" d="M296.58,-219.75C304.59,-212.03 316.46,-200.6 326.12,-191.28"/>
<polygon fill="#63b8ff" stroke="#63b8ff" points="328.81,-193.55 333.59,-184.09 323.96,-188.51 328.81,-193.55"/>
</a>
</g>
</g>
<!-- Node3&#45;&gt;Node7 -->
<g id="edge14_Node000003_Node000007" class="edge">
<title>Node3&#45;&gt;Node7</title>
<g id="a_edge14_Node000003_Node000007"><a xlink:title=" ">
<path fill="none" stroke="#63b8ff" d="M266.05,-219.89C233.6,-205.78 172.24,-174.66 138.5,-129 128.78,-115.84 123.99,-97.71 121.66,-84.19"/>
<polygon fill="#63b8ff" stroke="#63b8ff" points="125.1,-83.53 120.23,-74.13 118.17,-84.52 125.1,-83.53"/>
</a>
</g>
</g>
<!-- Node5&#45;&gt;Node4 -->
<g id="edge12_Node000005_Node000004" class="edge">
<title>Node5&#45;&gt;Node4</title>
<g id="a_edge12_Node000005_Node000004"><a xlink:title=" ">
<path fill="none" stroke="#63b8ff" d="M321.45,-164.98C300.09,-156.34 266.8,-142.87 242.44,-133.02"/>
<polygon fill="#63b8ff" stroke="#63b8ff" points="243.51,-129.68 232.93,-129.17 240.89,-136.17 243.51,-129.68"/>
</a>
</g>
</g>
<!-- Node6 -->
<g id="Node000006" class="node">
<title>Node6</title>
<g id="a_Node000006"><a xlink:href="compat__c23_8h.html" target="_top" xlink:title="Provides forward compatibility macros for C23 features.">
<polygon fill="white" stroke="#666666" points="424,-129 293,-129 293,-110 424,-110 424,-129"/>
<text text-anchor="middle" x="358.5" y="-117" font-family="Helvetica,sans-Serif" font-size="10.00">common/compat_c23.h</text>
</a>
</g>
</g>
<!-- Node5&#45;&gt;Node6 -->
<g id="edge5_Node000005_Node000006" class="edge">
<title>Node5&#45;&gt;Node6</title>
<g id="a_edge5_Node000005_Node000006"><a xlink:title=" ">
<path fill="none" stroke="#63b8ff" d="M345.14,-164.75C347.26,-157.72 350.31,-147.62 352.96,-138.84"/>
<polygon fill="#63b8ff" stroke="#63b8ff" points="356.37,-139.67 355.91,-129.09 349.67,-137.65 356.37,-139.67"/>
</a>
</g>
</g>
<!-- Node5&#45;&gt;Node8 -->
<g id="edge13_Node000005_Node000008" class="edge">
<title>Node5&#45;&gt;Node8</title>
<g id="a_edge13_Node000005_Node000008"><a xlink:title=" ">
<path fill="none" stroke="#63b8ff" d="M380.51,-164.85C399.62,-158.37 421.1,-147.36 432.5,-129 451.9,-97.77 438.12,-52.83 427.86,-28.24"/>
<polygon fill="#63b8ff" stroke="#63b8ff" points="431.04,-26.77 423.79,-19.05 424.64,-29.61 431.04,-26.77"/>
</a>
</g>
</g>
<!-- Node6&#45;&gt;Node7 -->
<g id="edge6_Node000006_Node000007" class="edge">
<title>Node6&#45;&gt;Node7</title>
<g id="a_edge6_Node000006_Node000007"><a xlink:title=" ">
<path fill="none" stroke="#63b8ff" d="M320.1,-109.98C277.78,-100.6 209.76,-85.52 164.85,-75.56"/>
<polygon fill="#63b8ff" stroke="#63b8ff" points="165.59,-72.14 155.07,-73.39 164.08,-78.97 165.59,-72.14"/>
</a>
</g>
</g>
<!-- Node6&#45;&gt;Node8 -->
<g id="edge10_Node000006_Node000008" class="edge">
<title>Node6&#45;&gt;Node8</title>
<g id="a_edge10_Node000006_Node000008"><a xlink:title=" ">
<path fill="none" stroke="#63b8ff" d="M363.49,-109.66C373.55,-91.85 396.42,-51.37 409.61,-28.01"/>
<polygon fill="#63b8ff" stroke="#63b8ff" points="412.74,-29.59 414.61,-19.16 406.64,-26.14 412.74,-29.59"/>
</a>
</g>
</g>
<!-- Node6&#45;&gt;Node9 -->
<g id="edge11_Node000006_Node000009" class="edge">
<title>Node6&#45;&gt;Node9</title>
<g id="a_edge11_Node000006_Node000009"><a xlink:title=" ">
<path fill="none" stroke="#63b8ff" d="M339.35,-109.84C297.29,-90.84 196.71,-45.39 147.53,-23.17"/>
<polygon fill="#63b8ff" stroke="#63b8ff" points="148.97,-19.98 138.41,-19.05 146.09,-26.35 148.97,-19.98"/>
</a>
</g>
</g>
<!-- Node7&#45;&gt;Node8 -->
<g id="edge7_Node000007_Node000008" class="edge">
<title>Node7&#45;&gt;Node8</title>
<g id="a_edge7_Node000007_Node000008"><a xlink:title=" ">
<path fill="none" stroke="#63b8ff" d="M155.09,-57.21C211.02,-47.33 319.21,-28.22 378.38,-17.76"/>
<polygon fill="#63b8ff" stroke="#63b8ff" points="379.25,-21.17 388.49,-15.98 378.03,-14.27 379.25,-21.17"/>
</a>
</g>
</g>
<!-- Node7&#45;&gt;Node9 -->
<g id="edge8_Node000007_Node000009" class="edge">
<title>Node7&#45;&gt;Node9</title>
<g id="a_edge8_Node000007_Node000009"><a xlink:title=" ">
<path fill="none" stroke="#63b8ff" d="M119.5,-54.75C119.5,-47.8 119.5,-37.85 119.5,-29.13"/>
<polygon fill="#63b8ff" stroke="#63b8ff" points="123,-29.09 119.5,-19.09 116,-29.09 123,-29.09"/>
</a>
</g>
</g>
<!-- Node7&#45;&gt;Node10 -->
<g id="edge9_Node000007_Node000010" class="edge">
<title>Node7&#45;&gt;Node10</title>
<g id="a_edge9_Node000007_Node000010"><a xlink:title=" ">
<path fill="none" stroke="#63b8ff" d="M104.56,-54.98C90,-46.69 67.63,-33.94 50.57,-24.22"/>
<polygon fill="#63b8ff" stroke="#63b8ff" points="52.14,-21.08 41.71,-19.17 48.67,-27.16 52.14,-21.08"/>
</a>
</g>
</g>
</g>
</svg>
