<?xml version="1.0" encoding="UTF-8" standalone="no"?>
<!DOCTYPE svg PUBLIC "-//W3C//DTD SVG 1.1//EN"
 "http://www.w3.org/Graphics/SVG/1.1/DTD/svg11.dtd">
<!-- Generated by graphviz version 2.43.0 (0)
 -->
<!-- Title: fuzz/fuzz_signature.c Pages: 1 -->
<svg width="615pt" height="357pt"
 viewBox="0.00 0.00 614.50 357.00" xmlns="http://www.w3.org/2000/svg" xmlns:xlink="http://www.w3.org/1999/xlink">
<g id="graph0" class="graph" transform="scale(1 1) rotate(0) translate(4 353)">
<title>fuzz/fuzz_signature.c</title>
<!-- Node1 -->
<g id="Node000001" class="node">
<title>Node1</title>
<g id="a_Node000001"><a xlink:title="Fuzzer target for the high&#45;level signature parsing API.">
<polygon fill="#999999" stroke="#666666" points="241.5,-349 122.5,-349 122.5,-330 241.5,-330 241.5,-349"/>
<text text-anchor="middle" x="182" y="-337" font-family="Helvetica,sans-Serif" font-size="10.00">fuzz/fuzz_signature.c</text>
</a>
</g>
</g>
<!-- Node2 -->
<g id="Node000002" class="node">
<title>Node2</title>
<g id="a_Node000002"><a xlink:href="infix_8h.html" target="_top" xlink:title="The public interface for the infix FFI library.">
<polygon fill="white" stroke="#666666" points="251.5,-74 180.5,-74 180.5,-55 251.5,-55 251.5,-74"/>
<text text-anchor="middle" x="216" y="-62" font-family="Helvetica,sans-Serif" font-size="10.00">infix/infix.h</text>
</a>
</g>
</g>
<!-- Node1&#45;&gt;Node2 -->
<g id="edge1_Node000001_Node000002" class="edge">
<title>Node1&#45;&gt;Node2</title>
<g id="a_edge1_Node000001_Node000002"><a xlink:title=" ">
<path fill="none" stroke="#63b8ff" d="M163.05,-329.9C132.56,-314.61 76,-279.63 76,-230.5 76,-230.5 76,-230.5 76,-173.5 76,-122.63 134.66,-92.36 176.04,-77.34"/>
<polygon fill="#63b8ff" stroke="#63b8ff" points="177.32,-80.6 185.62,-74.02 175.03,-73.99 177.32,-80.6"/>
</a>
</g>
</g>
<!-- Node4 -->
<g id="Node000004" class="node">
<title>Node4</title>
<g id="a_Node000004"><a xlink:title=" ">
<polygon fill="#e0e0e0" stroke="#999999" points="212,-19 156,-19 156,0 212,0 212,-19"/>
<text text-anchor="middle" x="184" y="-7" font-family="Helvetica,sans-Serif" font-size="10.00">stddef.h</text>
</a>
</g>
</g>
<!-- Node1&#45;&gt;Node4 -->
<g id="edge5_Node000001_Node000004" class="edge">
<title>Node1&#45;&gt;Node4</title>
<g id="a_edge5_Node000001_Node000004"><a xlink:title=" ">
<path fill="none" stroke="#63b8ff" d="M149.68,-329.91C107.23,-316.44 38,-285.97 38,-230.5 38,-230.5 38,-230.5 38,-173.5 38,-102.33 116.18,-48.04 158.12,-24.03"/>
<polygon fill="#63b8ff" stroke="#63b8ff" points="159.93,-27.03 166.97,-19.11 156.53,-20.91 159.93,-27.03"/>
</a>
</g>
</g>
<!-- Node5 -->
<g id="Node000005" class="node">
<title>Node5</title>
<g id="a_Node000005"><a xlink:title=" ">
<polygon fill="#e0e0e0" stroke="#999999" points="102.5,-19 49.5,-19 49.5,0 102.5,0 102.5,-19"/>
<text text-anchor="middle" x="76" y="-7" font-family="Helvetica,sans-Serif" font-size="10.00">stdint.h</text>
</a>
</g>
</g>
<!-- Node1&#45;&gt;Node5 -->
<g id="edge6_Node000001_Node000005" class="edge">
<title>Node1&#45;&gt;Node5</title>
<g id="a_edge6_Node000001_Node000005"><a xlink:title=" ">
<path fill="none" stroke="#63b8ff" d="M127.89,-329.92C74.24,-317.97 0,-290.57 0,-230.5 0,-230.5 0,-230.5 0,-118.5 0,-79.47 33.61,-44.58 56.13,-25.6"/>
<polygon fill="#63b8ff" stroke="#63b8ff" points="58.56,-28.14 64.12,-19.12 54.15,-22.7 58.56,-28.14"/>
</a>
</g>
</g>
<!-- Node6 -->
<g id="Node000006" class="node">
<title>Node6</title>
<g id="a_Node000006"><a xlink:title=" ">
<polygon fill="#e0e0e0" stroke="#999999" points="535.5,-239 482.5,-239 482.5,-220 535.5,-220 535.5,-239"/>
<text text-anchor="middle" x="509" y="-227" font-family="Helvetica,sans-Serif" font-size="10.00">stdlib.h</text>
</a>
</g>
</g>
<!-- Node1&#45;&gt;Node6 -->
<g id="edge7_Node000001_Node000006" class="edge">
<title>Node1&#45;&gt;Node6</title>
<g id="a_edge7_Node000001_Node000006"><a xlink:title=" ">
<path fill="none" stroke="#63b8ff" d="M215.54,-329.94C247.69,-321.52 297.49,-307.95 340,-294 388.85,-277.98 444.48,-256.42 478.15,-242.99"/>
<polygon fill="#63b8ff" stroke="#63b8ff" points="479.88,-246.07 487.86,-239.1 477.28,-239.57 479.88,-246.07"/>
</a>
</g>
</g>
<!-- Node7 -->
<g id="Node000007" class="node">
<title>Node7</title>
<g id="a_Node000007"><a xlink:title=" ">
<polygon fill="#e0e0e0" stroke="#999999" points="606.5,-239 553.5,-239 553.5,-220 606.5,-220 606.5,-239"/>
<text text-anchor="middle" x="580" y="-227" font-family="Helvetica,sans-Serif" font-size="10.00">string.h</text>
</a>
</g>
</g>
<!-- Node1&#45;&gt;Node7 -->
<g id="edge8_Node000001_Node000007" class="edge">
<title>Node1&#45;&gt;Node7</title>
<g id="a_edge8_Node000001_Node000007"><a xlink:title=" ">
<path fill="none" stroke="#63b8ff" d="M225.14,-329.93C265.42,-321.65 327.12,-308.31 380,-294 438.88,-278.07 506.29,-255.82 545.89,-242.32"/>
<polygon fill="#63b8ff" stroke="#63b8ff" points="547.24,-245.56 555.57,-239.01 544.98,-238.94 547.24,-245.56"/>
</a>
</g>
</g>
<!-- Node8 -->
<g id="Node000008" class="node">
<title>Node8</title>
<g id="a_Node000008"><a xlink:href="fuzz__helpers_8h.html" target="_top" xlink:title="Common definitions, structures, and helpers for all fuzzer targets.">
<polygon fill="white" stroke="#666666" points="331.5,-294 244.5,-294 244.5,-275 331.5,-275 331.5,-294"/>
<text text-anchor="middle" x="288" y="-282" font-family="Helvetica,sans-Serif" font-size="10.00">fuzz_helpers.h</text>
</a>
</g>
</g>
<!-- Node1&#45;&gt;Node8 -->
<g id="edge9_Node000001_Node000008" class="edge">
<title>Node1&#45;&gt;Node8</title>
<g id="a_edge9_Node000001_Node000008"><a xlink:title=" ">
<path fill="none" stroke="#63b8ff" d="M199.03,-329.98C215.93,-321.54 242.06,-308.47 261.64,-298.68"/>
<polygon fill="#63b8ff" stroke="#63b8ff" points="263.28,-301.77 270.66,-294.17 260.15,-295.51 263.28,-301.77"/>
</a>
</g>
</g>
<!-- Node3 -->
<g id="Node000003" class="node">
<title>Node3</title>
<g id="a_Node000003"><a xlink:title=" ">
<polygon fill="#e0e0e0" stroke="#999999" points="559,-19 497,-19 497,0 559,0 559,-19"/>
<text text-anchor="middle" x="528" y="-7" font-family="Helvetica,sans-Serif" font-size="10.00">stdbool.h</text>
</a>
</g>
</g>
<!-- Node2&#45;&gt;Node3 -->
<g id="edge2_Node000002_Node000003" class="edge">
<title>Node2&#45;&gt;Node3</title>
<g id="a_edge2_Node000002_Node000003"><a xlink:title=" ">
<path fill="none" stroke="#63b8ff" d="M251.79,-57.42C310.04,-47.52 425.04,-27.99 486.68,-17.52"/>
<polygon fill="#63b8ff" stroke="#63b8ff" points="487.55,-20.92 496.82,-15.8 486.38,-14.02 487.55,-20.92"/>
</a>
</g>
</g>
<!-- Node2&#45;&gt;Node4 -->
<g id="edge3_Node000002_Node000004" class="edge">
<title>Node2&#45;&gt;Node4</title>
<g id="a_edge3_Node000002_Node000004"><a xlink:title=" ">
<path fill="none" stroke="#63b8ff" d="M210.72,-54.75C206.29,-47.42 199.84,-36.73 194.38,-27.7"/>
<polygon fill="#63b8ff" stroke="#63b8ff" points="197.35,-25.84 189.19,-19.09 191.36,-29.46 197.35,-25.84"/>
</a>
</g>
</g>
<!-- Node2&#45;&gt;Node5 -->
<g id="edge4_Node000002_Node000005" class="edge">
<title>Node2&#45;&gt;Node5</title>
<g id="a_edge4_Node000002_Node000005"><a xlink:title=" ">
<path fill="none" stroke="#63b8ff" d="M193.51,-54.98C170.48,-46.27 134.46,-32.63 108.37,-22.75"/>
<polygon fill="#63b8ff" stroke="#63b8ff" points="109.49,-19.44 98.9,-19.17 107.02,-25.98 109.49,-19.44"/>
</a>
</g>
</g>
<!-- Node8&#45;&gt;Node2 -->
<g id="edge20_Node000008_Node000002" class="edge">
<title>Node8&#45;&gt;Node2</title>
<g id="a_edge20_Node000008_Node000002"><a xlink:title=" ">
<path fill="none" stroke="#63b8ff" d="M257.73,-274.92C240.16,-268.21 219.48,-256.94 209,-239 180.03,-189.43 198.04,-117.58 209.16,-84.04"/>
<polygon fill="#63b8ff" stroke="#63b8ff" points="212.6,-84.82 212.59,-74.22 205.99,-82.51 212.6,-84.82"/>
</a>
</g>
</g>
<!-- Node8&#45;&gt;Node3 -->
<g id="edge21_Node000008_Node000003" class="edge">
<title>Node8&#45;&gt;Node3</title>
<g id="a_edge21_Node000008_Node000003"><a xlink:title=" ">
<path fill="none" stroke="#63b8ff" d="M303.33,-274.82C330.24,-259.66 385.01,-229.08 405,-220 477.39,-187.13 525.94,-201.3 559,-129 572.69,-99.07 572.55,-86.18 562,-55 558.44,-44.47 551.28,-34.48 544.45,-26.63"/>
<polygon fill="#63b8ff" stroke="#63b8ff" points="546.99,-24.23 537.61,-19.31 541.87,-29.01 546.99,-24.23"/>
</a>
</g>
</g>
<!-- Node8&#45;&gt;Node4 -->
<g id="edge22_Node000008_Node000004" class="edge">
<title>Node8&#45;&gt;Node4</title>
<g id="a_edge22_Node000008_Node000004"><a xlink:title=" ">
<path fill="none" stroke="#63b8ff" d="M259.16,-274.95C219.24,-261.12 152,-229.77 152,-175.5 152,-175.5 152,-175.5 152,-118.5 152,-85.71 165.73,-49.54 175.2,-28.49"/>
<polygon fill="#63b8ff" stroke="#63b8ff" points="178.48,-29.74 179.55,-19.2 172.14,-26.77 178.48,-29.74"/>
</a>
</g>
</g>
<!-- Node8&#45;&gt;Node5 -->
<g id="edge23_Node000008_Node000005" class="edge">
<title>Node8&#45;&gt;Node5</title>
<g id="a_edge23_Node000008_Node000005"><a xlink:title=" ">
<path fill="none" stroke="#63b8ff" d="M244.45,-276.41C219.33,-270.3 188.71,-259.14 168,-239 106.37,-179.05 84.8,-72.35 78.38,-29.29"/>
<polygon fill="#63b8ff" stroke="#63b8ff" points="81.84,-28.77 77,-19.35 74.91,-29.73 81.84,-28.77"/>
</a>
</g>
</g>
<!-- Node8&#45;&gt;Node6 -->
<g id="edge25_Node000008_Node000006" class="edge">
<title>Node8&#45;&gt;Node6</title>
<g id="a_edge25_Node000008_Node000006"><a xlink:title=" ">
<path fill="none" stroke="#63b8ff" d="M323.51,-274.98C364.34,-265.19 431.04,-249.2 472.34,-239.29"/>
<polygon fill="#63b8ff" stroke="#63b8ff" points="473.36,-242.65 482.27,-236.91 471.73,-235.84 473.36,-242.65"/>
</a>
</g>
</g>
<!-- Node8&#45;&gt;Node7 -->
<g id="edge26_Node000008_Node000007" class="edge">
<title>Node8&#45;&gt;Node7</title>
<g id="a_edge26_Node000008_Node000007"><a xlink:title=" ">
<path fill="none" stroke="#63b8ff" d="M331.82,-276.83C381.01,-269.13 463.41,-255.64 543.08,-239.29"/>
<polygon fill="#63b8ff" stroke="#63b8ff" points="544.21,-242.64 553.29,-237.18 542.79,-235.78 544.21,-242.64"/>
</a>
</g>
</g>
<!-- Node9 -->
<g id="Node000009" class="node">
<title>Node9</title>
<g id="a_Node000009"><a xlink:href="infix__internals_8h.html" target="_top" xlink:title="Internal data structures, function prototypes, and constants.">
<polygon fill="white" stroke="#666666" points="358,-239 218,-239 218,-220 358,-220 358,-239"/>
<text text-anchor="middle" x="288" y="-227" font-family="Helvetica,sans-Serif" font-size="10.00">common/infix_internals.h</text>
</a>
</g>
</g>
<!-- Node8&#45;&gt;Node9 -->
<g id="edge10_Node000008_Node000009" class="edge">
<title>Node8&#45;&gt;Node9</title>
<g id="a_edge10_Node000008_Node000009"><a xlink:title=" ">
<path fill="none" stroke="#63b8ff" d="M288,-274.75C288,-267.8 288,-257.85 288,-249.13"/>
<polygon fill="#63b8ff" stroke="#63b8ff" points="291.5,-249.09 288,-239.09 284.5,-249.09 291.5,-249.09"/>
</a>
</g>
</g>
<!-- Node13 -->
<g id="Node000013" class="node">
<title>Node13</title>
<g id="a_Node000013"><a xlink:title=" ">
<polygon fill="#e0e0e0" stroke="#999999" points="464,-239 414,-239 414,-220 464,-220 464,-239"/>
<text text-anchor="middle" x="439" y="-227" font-family="Helvetica,sans-Serif" font-size="10.00">stdio.h</text>
</a>
</g>
</g>
<!-- Node8&#45;&gt;Node13 -->
<g id="edge24_Node000008_Node000013" class="edge">
<title>Node8&#45;&gt;Node13</title>
<g id="a_edge24_Node000008_Node000013"><a xlink:title=" ">
<path fill="none" stroke="#63b8ff" d="M312.26,-274.98C337.32,-266.19 376.63,-252.39 404.83,-242.49"/>
<polygon fill="#63b8ff" stroke="#63b8ff" points="406.02,-245.78 414.3,-239.17 403.7,-239.18 406.02,-245.78"/>
</a>
</g>
</g>
<!-- Node9&#45;&gt;Node2 -->
<g id="edge19_Node000009_Node000002" class="edge">
<title>Node9&#45;&gt;Node2</title>
<g id="a_edge19_Node000009_Node000002"><a xlink:title=" ">
<path fill="none" stroke="#63b8ff" d="M284.13,-219.74C272.8,-194.09 239.54,-118.78 224.07,-83.78"/>
<polygon fill="#63b8ff" stroke="#63b8ff" points="227.13,-82.04 219.89,-74.31 220.73,-84.87 227.13,-82.04"/>
</a>
</g>
</g>
<!-- Node10 -->
<g id="Node000010" class="node">
<title>Node10</title>
<g id="a_Node000010"><a xlink:href="infix__config_8h.html" target="_top" xlink:title="Platform, architecture, and ABI detection macros.">
<polygon fill="white" stroke="#666666" points="383.5,-129 256.5,-129 256.5,-110 383.5,-110 383.5,-129"/>
<text text-anchor="middle" x="320" y="-117" font-family="Helvetica,sans-Serif" font-size="10.00">common/infix_config.h</text>
</a>
</g>
</g>
<!-- Node9&#45;&gt;Node10 -->
<g id="edge11_Node000009_Node000010" class="edge">
<title>Node9&#45;&gt;Node10</title>
<g id="a_edge11_Node000009_Node000010"><a xlink:title=" ">
<path fill="none" stroke="#63b8ff" d="M290.62,-219.66C295.82,-202.09 307.57,-162.45 314.53,-138.95"/>
<polygon fill="#63b8ff" stroke="#63b8ff" points="317.95,-139.74 317.43,-129.16 311.24,-137.75 317.95,-139.74"/>
</a>
</g>
</g>
<!-- Node11 -->
<g id="Node000011" class="node">
<title>Node11</title>
<g id="a_Node000011"><a xlink:href="platform_8h.html" target="_top" xlink:title="Declares internal, runtime CPU/OS feature detection functions.">
<polygon fill="white" stroke="#666666" points="492.5,-184 379.5,-184 379.5,-165 492.5,-165 492.5,-184"/>
<text text-anchor="middle" x="436" y="-172" font-family="Helvetica,sans-Serif" font-size="10.00">common/platform.h</text>
</a>
</g>
</g>
<!-- Node9&#45;&gt;Node11 -->
<g id="edge12_Node000009_Node000011" class="edge">
<title>Node9&#45;&gt;Node11</title>
<g id="a_edge12_Node000009_Node000011"><a xlink:title=" ">
<path fill="none" stroke="#63b8ff" d="M311.78,-219.98C336.23,-211.23 374.53,-197.51 402.15,-187.62"/>
<polygon fill="#63b8ff" stroke="#63b8ff" points="403.55,-190.84 411.79,-184.17 401.19,-184.25 403.55,-190.84"/>
</a>
</g>
</g>
<!-- Node11&#45;&gt;Node3 -->
<g id="edge18_Node000011_Node000003" class="edge">
<title>Node11&#45;&gt;Node3</title>
<g id="a_edge18_Node000011_Node000003"><a xlink:title=" ">
<path fill="none" stroke="#63b8ff" d="M486.59,-164.94C507.4,-158.65 529.51,-147.78 542,-129 562.37,-98.36 547.73,-53.19 536.86,-28.4"/>
<polygon fill="#63b8ff" stroke="#63b8ff" points="539.94,-26.72 532.55,-19.13 533.59,-29.67 539.94,-26.72"/>
</a>
</g>
</g>
<!-- Node11&#45;&gt;Node10 -->
<g id="edge17_Node000011_Node000010" class="edge">
<title>Node11&#45;&gt;Node10</title>
<g id="a_edge17_Node000011_Node000010"><a xlink:title=" ">
<path fill="none" stroke="#63b8ff" d="M417.36,-164.98C398.7,-156.46 369.75,-143.23 348.26,-133.41"/>
<polygon fill="#63b8ff" stroke="#63b8ff" points="349.53,-130.14 338.98,-129.17 346.62,-136.51 349.53,-130.14"/>
</a>
</g>
</g>
<!-- Node12 -->
<g id="Node000012" class="node">
<title>Node12</title>
<g id="a_Node000012"><a xlink:href="compat__c23_8h.html" target="_top" xlink:title="Provides forward compatibility macros for C23 features.">
<polygon fill="white" stroke="#666666" points="532.5,-129 401.5,-129 401.5,-110 532.5,-110 532.5,-129"/>
<text text-anchor="middle" x="467" y="-117" font-family="Helvetica,sans-Serif" font-size="10.00">common/compat_c23.h</text>
</a>
</g>
</g>
<!-- Node11&#45;&gt;Node12 -->
<g id="edge13_Node000011_Node000012" class="edge">
<title>Node11&#45;&gt;Node12</title>
<g id="a_edge13_Node000011_Node000012"><a xlink:title=" ">
<path fill="none" stroke="#63b8ff" d="M441.12,-164.75C445.36,-157.49 451.53,-146.95 456.78,-137.98"/>
<polygon fill="#63b8ff" stroke="#63b8ff" points="459.95,-139.49 461.98,-129.09 453.91,-135.95 459.95,-139.49"/>
</a>
</g>
</g>
<!-- Node12&#45;&gt;Node2 -->
<g id="edge14_Node000012_Node000002" class="edge">
<title>Node12&#45;&gt;Node2</title>
<g id="a_edge14_Node000012_Node000002"><a xlink:title=" ">
<path fill="none" stroke="#63b8ff" d="M426.67,-109.98C381.61,-100.47 308.82,-85.1 261.69,-75.15"/>
<polygon fill="#63b8ff" stroke="#63b8ff" points="262.26,-71.69 251.76,-73.05 260.82,-78.54 262.26,-71.69"/>
</a>
</g>
</g>
<!-- Node12&#45;&gt;Node3 -->
<g id="edge15_Node000012_Node000003" class="edge">
<title>Node12&#45;&gt;Node3</title>
<g id="a_edge15_Node000012_Node000003"><a xlink:title=" ">
<path fill="none" stroke="#63b8ff" d="M471.99,-109.66C482.05,-91.85 504.92,-51.37 518.11,-28.01"/>
<polygon fill="#63b8ff" stroke="#63b8ff" points="521.24,-29.59 523.11,-19.16 515.14,-26.14 521.24,-29.59"/>
</a>
</g>
</g>
<!-- Node12&#45;&gt;Node4 -->
<g id="edge16_Node000012_Node000004" class="edge">
<title>Node12&#45;&gt;Node4</title>
<g id="a_edge16_Node000012_Node000004"><a xlink:title=" ">
<path fill="none" stroke="#63b8ff" d="M444.32,-109.84C394.1,-90.68 273.43,-44.63 215.75,-22.62"/>
<polygon fill="#63b8ff" stroke="#63b8ff" points="216.99,-19.34 206.4,-19.05 214.49,-25.88 216.99,-19.34"/>
</a>
</g>
</g>
</g>
</svg>
