<?xml version="1.0" encoding="UTF-8" standalone="no"?>
<!DOCTYPE svg PUBLIC "-//W3C//DTD SVG 1.1//EN"
 "http://www.w3.org/Graphics/SVG/1.1/DTD/svg11.dtd">
<!-- Generated by graphviz version 2.43.0 (0)
 -->
<!-- Title: fuzz/fuzz_helpers.h Pages: 1 -->
<svg width="903pt" height="82pt"
 viewBox="0.00 0.00 903.00 82.00" xmlns="http://www.w3.org/2000/svg" xmlns:xlink="http://www.w3.org/1999/xlink">
<g id="graph0" class="graph" transform="scale(1 1) rotate(0) translate(4 78)">
<title>fuzz/fuzz_helpers.h</title>
<!-- Node1 -->
<g id="Node000001" class="node">
<title>Node1</title>
<g id="a_Node000001"><a xlink:title="Common definitions, structures, and helpers for all fuzzer targets.">
<polygon fill="#999999" stroke="#666666" points="469.5,-74 359.5,-74 359.5,-55 469.5,-55 469.5,-74"/>
<text text-anchor="middle" x="414.5" y="-62" font-family="Helvetica,sans-Serif" font-size="10.00">fuzz/fuzz_helpers.h</text>
</a>
</g>
</g>
<!-- Node2 -->
<g id="Node000002" class="node">
<title>Node2</title>
<g id="a_Node000002"><a xlink:href="fuzz__abi_8c.html" target="_top" xlink:title="Fuzzer target for the ABI classification layer.">
<polygon fill="white" stroke="#666666" points="89,-19 0,-19 0,0 89,0 89,-19"/>
<text text-anchor="middle" x="44.5" y="-7" font-family="Helvetica,sans-Serif" font-size="10.00">fuzz/fuzz_abi.c</text>
</a>
</g>
</g>
<!-- Node1&#45;&gt;Node2 -->
<g id="edge1_Node000001_Node000002" class="edge">
<title>Node1&#45;&gt;Node2</title>
<g id="a_edge1_Node000001_Node000002"><a xlink:title=" ">
<path fill="none" stroke="#63b8ff" d="M349.51,-54.75C285.39,-46.04 184.62,-32.1 97.5,-19 94.74,-18.58 91.89,-18.15 89.02,-17.71"/>
<polygon fill="#63b8ff" stroke="#63b8ff" points="349.1,-58.23 359.48,-56.11 350.04,-51.29 349.1,-58.23"/>
</a>
</g>
</g>
<!-- Node3 -->
<g id="Node000003" class="node">
<title>Node3</title>
<g id="a_Node000003"><a xlink:href="fuzz__direct_8c.html" target="_top" xlink:title="Fuzzer target for the Direct Marshalling API generation logic.">
<polygon fill="white" stroke="#666666" points="208,-19 107,-19 107,0 208,0 208,-19"/>
<text text-anchor="middle" x="157.5" y="-7" font-family="Helvetica,sans-Serif" font-size="10.00">fuzz/fuzz_direct.c</text>
</a>
</g>
</g>
<!-- Node1&#45;&gt;Node3 -->
<g id="edge2_Node000001_Node000003" class="edge">
<title>Node1&#45;&gt;Node3</title>
<g id="a_edge2_Node000001_Node000003"><a xlink:title=" ">
<path fill="none" stroke="#63b8ff" d="M363.3,-52.94C315.12,-43.01 243.88,-28.31 199.12,-19.08"/>
<polygon fill="#63b8ff" stroke="#63b8ff" points="362.71,-56.39 373.21,-54.98 364.12,-49.54 362.71,-56.39"/>
</a>
</g>
</g>
<!-- Node4 -->
<g id="Node000004" class="node">
<title>Node4</title>
<g id="a_Node000004"><a xlink:href="fuzz__helpers_8c.html" target="_top" xlink:title="Implements the core logic for generating random infix_type graphs from fuzzer input.">
<polygon fill="white" stroke="#666666" points="336.5,-19 226.5,-19 226.5,0 336.5,0 336.5,-19"/>
<text text-anchor="middle" x="281.5" y="-7" font-family="Helvetica,sans-Serif" font-size="10.00">fuzz/fuzz_helpers.c</text>
</a>
</g>
</g>
<!-- Node1&#45;&gt;Node4 -->
<g id="edge3_Node000001_Node000004" class="edge">
<title>Node1&#45;&gt;Node4</title>
<g id="a_edge3_Node000001_Node000004"><a xlink:title=" ">
<path fill="none" stroke="#63b8ff" d="M383.53,-51.16C358.91,-41.35 325.09,-27.87 303.26,-19.17"/>
<polygon fill="#63b8ff" stroke="#63b8ff" points="382.55,-54.53 393.13,-54.98 385.14,-48.03 382.55,-54.53"/>
</a>
</g>
</g>
<!-- Node5 -->
<g id="Node000005" class="node">
<title>Node5</title>
<g id="a_Node000005"><a xlink:href="fuzz__signature_8c.html" target="_top" xlink:title="Fuzzer target for the high&#45;level signature parsing API.">
<polygon fill="white" stroke="#666666" points="474,-19 355,-19 355,0 474,0 474,-19"/>
<text text-anchor="middle" x="414.5" y="-7" font-family="Helvetica,sans-Serif" font-size="10.00">fuzz/fuzz_signature.c</text>
</a>
</g>
</g>
<!-- Node1&#45;&gt;Node5 -->
<g id="edge4_Node000001_Node000005" class="edge">
<title>Node1&#45;&gt;Node5</title>
<g id="a_edge4_Node000001_Node000005"><a xlink:title=" ">
<path fill="none" stroke="#63b8ff" d="M414.5,-44.66C414.5,-35.93 414.5,-25.99 414.5,-19.09"/>
<polygon fill="#63b8ff" stroke="#63b8ff" points="411,-44.75 414.5,-54.75 418,-44.75 411,-44.75"/>
</a>
</g>
</g>
<!-- Node6 -->
<g id="Node000006" class="node">
<title>Node6</title>
<g id="a_Node000006"><a xlink:href="fuzz__trampoline_8c.html" target="_top" xlink:title="Fuzzer target for the trampoline generation functions, including shared arena logic.">
<polygon fill="white" stroke="#666666" points="619,-19 492,-19 492,0 619,0 619,-19"/>
<text text-anchor="middle" x="555.5" y="-7" font-family="Helvetica,sans-Serif" font-size="10.00">fuzz/fuzz_trampoline.c</text>
</a>
</g>
</g>
<!-- Node1&#45;&gt;Node6 -->
<g id="edge5_Node000001_Node000006" class="edge">
<title>Node1&#45;&gt;Node6</title>
<g id="a_edge5_Node000001_Node000006"><a xlink:title=" ">
<path fill="none" stroke="#63b8ff" d="M446.64,-51.42C472.79,-41.59 509.09,-27.95 532.43,-19.17"/>
<polygon fill="#63b8ff" stroke="#63b8ff" points="445.28,-48.19 437.15,-54.98 447.75,-54.74 445.28,-48.19"/>
</a>
</g>
</g>
<!-- Node7 -->
<g id="Node000007" class="node">
<title>Node7</title>
<g id="a_Node000007"><a xlink:href="fuzz__types_8c.html" target="_top" xlink:title="Fuzzer target for the random type generation logic.">
<polygon fill="white" stroke="#666666" points="738,-19 637,-19 637,0 738,0 738,-19"/>
<text text-anchor="middle" x="687.5" y="-7" font-family="Helvetica,sans-Serif" font-size="10.00">fuzz/fuzz_types.c</text>
</a>
</g>
</g>
<!-- Node1&#45;&gt;Node7 -->
<g id="edge6_Node000001_Node000007" class="edge">
<title>Node1&#45;&gt;Node7</title>
<g id="a_edge6_Node000001_Node000007"><a xlink:title=" ">
<path fill="none" stroke="#63b8ff" d="M468.25,-53.07C519.43,-43.13 595.54,-28.35 643.29,-19.08"/>
<polygon fill="#63b8ff" stroke="#63b8ff" points="467.51,-49.64 458.36,-54.98 468.85,-56.51 467.51,-49.64"/>
</a>
</g>
</g>
<!-- Node8 -->
<g id="Node000008" class="node">
<title>Node8</title>
<g id="a_Node000008"><a xlink:href="850__regression__cases_8c.html" target="_top" xlink:title="A suite of regression tests for bugs discovered by fuzzing.">
<polygon fill="white" stroke="#666666" points="895,-19 756,-19 756,0 895,0 895,-19"/>
<text text-anchor="middle" x="825.5" y="-7" font-family="Helvetica,sans-Serif" font-size="10.00">t/850_regression_cases.c</text>
</a>
</g>
</g>
<!-- Node1&#45;&gt;Node8 -->
<g id="edge7_Node000001_Node000008" class="edge">
<title>Node1&#45;&gt;Node8</title>
<g id="a_edge7_Node000001_Node000008"><a xlink:title=" ">
<path fill="none" stroke="#63b8ff" d="M479.49,-55.12C555.97,-45.26 682.26,-28.97 759.27,-19.04"/>
<polygon fill="#63b8ff" stroke="#63b8ff" points="478.97,-51.66 469.5,-56.41 479.87,-58.6 478.97,-51.66"/>
</a>
</g>
</g>
</g>
</svg>
