<?xml version="1.0" encoding="UTF-8" standalone="no"?>
<!DOCTYPE svg PUBLIC "-//W3C//DTD SVG 1.1//EN"
 "http://www.w3.org/Graphics/SVG/1.1/DTD/svg11.dtd">
<!-- Generated by graphviz version 2.43.0 (0)
 -->
<!-- Title: fuzz/fuzz_signature.c Pages: 1 -->
<svg width="643pt" height="302pt"
 viewBox="0.00 0.00 642.50 302.00" xmlns="http://www.w3.org/2000/svg" xmlns:xlink="http://www.w3.org/1999/xlink">
<g id="graph0" class="graph" transform="scale(1 1) rotate(0) translate(4 298)">
<title>fuzz/fuzz_signature.c</title>
<!-- Node1 -->
<g id="Node000001" class="node">
<title>Node1</title>
<g id="a_Node000001"><a xlink:title="Fuzzer target for the high&#45;level signature parsing API.">
<polygon fill="#999999" stroke="#666666" points="239.5,-294 120.5,-294 120.5,-275 239.5,-275 239.5,-294"/>
<text text-anchor="middle" x="180" y="-282" font-family="Helvetica,sans-Serif" font-size="10.00">fuzz/fuzz_signature.c</text>
</a>
</g>
</g>
<!-- Node2 -->
<g id="Node000002" class="node">
<title>Node2</title>
<g id="a_Node000002"><a xlink:href="infix_8h.html" target="_top" xlink:title="The public interface for the infix FFI library.">
<polygon fill="white" stroke="#666666" points="264.5,-129 193.5,-129 193.5,-110 264.5,-110 264.5,-129"/>
<text text-anchor="middle" x="229" y="-117" font-family="Helvetica,sans-Serif" font-size="10.00">infix/infix.h</text>
</a>
</g>
</g>
<!-- Node1&#45;&gt;Node2 -->
<g id="edge1_Node000001_Node000002" class="edge">
<title>Node1&#45;&gt;Node2</title>
<g id="a_edge1_Node000001_Node000002"><a xlink:title=" ">
<path fill="none" stroke="#63b8ff" d="M182.63,-274.74C190.31,-249.2 212.79,-174.43 223.37,-139.23"/>
<polygon fill="#63b8ff" stroke="#63b8ff" points="226.83,-139.89 226.35,-129.31 220.12,-137.88 226.83,-139.89"/>
</a>
</g>
</g>
<!-- Node5 -->
<g id="Node000005" class="node">
<title>Node5</title>
<g id="a_Node000005"><a xlink:title=" ">
<polygon fill="#e0e0e0" stroke="#999999" points="121,-19 65,-19 65,0 121,0 121,-19"/>
<text text-anchor="middle" x="93" y="-7" font-family="Helvetica,sans-Serif" font-size="10.00">stddef.h</text>
</a>
</g>
</g>
<!-- Node1&#45;&gt;Node5 -->
<g id="edge8_Node000001_Node000005" class="edge">
<title>Node1&#45;&gt;Node5</title>
<g id="a_edge8_Node000001_Node000005"><a xlink:title=" ">
<path fill="none" stroke="#63b8ff" d="M127.45,-274.95C74.32,-262.95 0,-235.45 0,-175.5 0,-175.5 0,-175.5 0,-118.5 0,-76.48 40.92,-42.69 68.47,-24.7"/>
<polygon fill="#63b8ff" stroke="#63b8ff" points="70.61,-27.49 77.22,-19.21 66.89,-21.56 70.61,-27.49"/>
</a>
</g>
</g>
<!-- Node6 -->
<g id="Node000006" class="node">
<title>Node6</title>
<g id="a_Node000006"><a xlink:title=" ">
<polygon fill="#e0e0e0" stroke="#999999" points="119.5,-74 66.5,-74 66.5,-55 119.5,-55 119.5,-74"/>
<text text-anchor="middle" x="93" y="-62" font-family="Helvetica,sans-Serif" font-size="10.00">stdint.h</text>
</a>
</g>
</g>
<!-- Node1&#45;&gt;Node6 -->
<g id="edge9_Node000001_Node000006" class="edge">
<title>Node1&#45;&gt;Node6</title>
<g id="a_edge9_Node000001_Node000006"><a xlink:title=" ">
<path fill="none" stroke="#63b8ff" d="M176.59,-274.95C163.73,-242.74 118.04,-128.23 100.2,-83.55"/>
<polygon fill="#63b8ff" stroke="#63b8ff" points="103.44,-82.21 96.48,-74.22 96.94,-84.81 103.44,-82.21"/>
</a>
</g>
</g>
<!-- Node7 -->
<g id="Node000007" class="node">
<title>Node7</title>
<g id="a_Node000007"><a xlink:title=" ">
<polygon fill="#e0e0e0" stroke="#999999" points="563.5,-184 510.5,-184 510.5,-165 563.5,-165 563.5,-184"/>
<text text-anchor="middle" x="537" y="-172" font-family="Helvetica,sans-Serif" font-size="10.00">stdlib.h</text>
</a>
</g>
</g>
<!-- Node1&#45;&gt;Node7 -->
<g id="edge10_Node000001_Node000007" class="edge">
<title>Node1&#45;&gt;Node7</title>
<g id="a_edge10_Node000001_Node000007"><a xlink:title=" ">
<path fill="none" stroke="#63b8ff" d="M208.31,-274.94C272.44,-255.53 428.77,-208.24 500.24,-186.62"/>
<polygon fill="#63b8ff" stroke="#63b8ff" points="501.6,-189.87 510.15,-183.62 499.57,-183.17 501.6,-189.87"/>
</a>
</g>
</g>
<!-- Node8 -->
<g id="Node000008" class="node">
<title>Node8</title>
<g id="a_Node000008"><a xlink:title=" ">
<polygon fill="#e0e0e0" stroke="#999999" points="634.5,-184 581.5,-184 581.5,-165 634.5,-165 634.5,-184"/>
<text text-anchor="middle" x="608" y="-172" font-family="Helvetica,sans-Serif" font-size="10.00">string.h</text>
</a>
</g>
</g>
<!-- Node1&#45;&gt;Node8 -->
<g id="edge11_Node000001_Node000008" class="edge">
<title>Node1&#45;&gt;Node8</title>
<g id="a_edge11_Node000001_Node000008"><a xlink:title=" ">
<path fill="none" stroke="#63b8ff" d="M218.92,-274.97C257.97,-266.31 319.8,-252.32 373,-239 443.51,-221.35 525.35,-198.75 571.47,-185.82"/>
<polygon fill="#63b8ff" stroke="#63b8ff" points="572.62,-189.14 581.3,-183.06 570.73,-182.4 572.62,-189.14"/>
</a>
</g>
</g>
<!-- Node9 -->
<g id="Node000009" class="node">
<title>Node9</title>
<g id="a_Node000009"><a xlink:href="fuzz__helpers_8h.html" target="_top" xlink:title="Common definitions, structures, and helpers for all fuzzer targets.">
<polygon fill="white" stroke="#666666" points="299.5,-239 212.5,-239 212.5,-220 299.5,-220 299.5,-239"/>
<text text-anchor="middle" x="256" y="-227" font-family="Helvetica,sans-Serif" font-size="10.00">fuzz_helpers.h</text>
</a>
</g>
</g>
<!-- Node1&#45;&gt;Node9 -->
<g id="edge12_Node000001_Node000009" class="edge">
<title>Node1&#45;&gt;Node9</title>
<g id="a_edge12_Node000001_Node000009"><a xlink:title=" ">
<path fill="none" stroke="#63b8ff" d="M192.21,-274.98C203.78,-266.92 221.38,-254.65 235.16,-245.03"/>
<polygon fill="#63b8ff" stroke="#63b8ff" points="237.37,-247.76 243.57,-239.17 233.36,-242.02 237.37,-247.76"/>
</a>
</g>
</g>
<!-- Node3 -->
<g id="Node000003" class="node">
<title>Node3</title>
<g id="a_Node000003"><a xlink:href="compat__c23_8h.html" target="_top" xlink:title="Provides forward compatibility macros for C23 features.">
<polygon fill="white" stroke="#666666" points="345.5,-74 214.5,-74 214.5,-55 345.5,-55 345.5,-74"/>
<text text-anchor="middle" x="280" y="-62" font-family="Helvetica,sans-Serif" font-size="10.00">common/compat_c23.h</text>
</a>
</g>
</g>
<!-- Node2&#45;&gt;Node3 -->
<g id="edge2_Node000002_Node000003" class="edge">
<title>Node2&#45;&gt;Node3</title>
<g id="a_edge2_Node000002_Node000003"><a xlink:title=" ">
<path fill="none" stroke="#63b8ff" d="M237.42,-109.75C244.77,-102.11 255.63,-90.82 264.54,-81.56"/>
<polygon fill="#63b8ff" stroke="#63b8ff" points="267.32,-83.72 271.74,-74.09 262.28,-78.87 267.32,-83.72"/>
</a>
</g>
</g>
<!-- Node4 -->
<g id="Node000004" class="node">
<title>Node4</title>
<g id="a_Node000004"><a xlink:title=" ">
<polygon fill="#e0e0e0" stroke="#999999" points="358,-19 296,-19 296,0 358,0 358,-19"/>
<text text-anchor="middle" x="327" y="-7" font-family="Helvetica,sans-Serif" font-size="10.00">stdbool.h</text>
</a>
</g>
</g>
<!-- Node2&#45;&gt;Node4 -->
<g id="edge5_Node000002_Node000004" class="edge">
<title>Node2&#45;&gt;Node4</title>
<g id="a_edge5_Node000002_Node000004"><a xlink:title=" ">
<path fill="none" stroke="#63b8ff" d="M220.69,-109.63C209.64,-96.71 192.84,-72.38 205,-55 223.05,-29.2 257.72,-18.31 285.5,-13.73"/>
<polygon fill="#63b8ff" stroke="#63b8ff" points="286.35,-17.15 295.76,-12.27 285.36,-10.22 286.35,-17.15"/>
</a>
</g>
</g>
<!-- Node2&#45;&gt;Node5 -->
<g id="edge6_Node000002_Node000005" class="edge">
<title>Node2&#45;&gt;Node5</title>
<g id="a_edge6_Node000002_Node000005"><a xlink:title=" ">
<path fill="none" stroke="#63b8ff" d="M217.87,-109.66C194.64,-91.22 140.78,-48.45 111.98,-25.57"/>
<polygon fill="#63b8ff" stroke="#63b8ff" points="113.91,-22.64 103.9,-19.16 109.56,-28.12 113.91,-22.64"/>
</a>
</g>
</g>
<!-- Node2&#45;&gt;Node6 -->
<g id="edge7_Node000002_Node000006" class="edge">
<title>Node2&#45;&gt;Node6</title>
<g id="a_edge7_Node000002_Node000006"><a xlink:title=" ">
<path fill="none" stroke="#63b8ff" d="M207.15,-109.98C184.88,-101.3 150.1,-87.75 124.78,-77.88"/>
<polygon fill="#63b8ff" stroke="#63b8ff" points="125.84,-74.54 115.25,-74.17 123.29,-81.06 125.84,-74.54"/>
</a>
</g>
</g>
<!-- Node3&#45;&gt;Node4 -->
<g id="edge3_Node000003_Node000004" class="edge">
<title>Node3&#45;&gt;Node4</title>
<g id="a_edge3_Node000003_Node000004"><a xlink:title=" ">
<path fill="none" stroke="#63b8ff" d="M287.76,-54.75C294.47,-47.18 304.34,-36.05 312.51,-26.84"/>
<polygon fill="#63b8ff" stroke="#63b8ff" points="315.37,-28.89 319.38,-19.09 310.13,-24.25 315.37,-28.89"/>
</a>
</g>
</g>
<!-- Node3&#45;&gt;Node5 -->
<g id="edge4_Node000003_Node000005" class="edge">
<title>Node3&#45;&gt;Node5</title>
<g id="a_edge4_Node000003_Node000005"><a xlink:title=" ">
<path fill="none" stroke="#63b8ff" d="M249.96,-54.98C217.63,-45.82 166.15,-31.23 131.02,-21.28"/>
<polygon fill="#63b8ff" stroke="#63b8ff" points="131.71,-17.83 121.13,-18.47 129.8,-24.57 131.71,-17.83"/>
</a>
</g>
</g>
<!-- Node9&#45;&gt;Node2 -->
<g id="edge20_Node000009_Node000002" class="edge">
<title>Node9&#45;&gt;Node2</title>
<g id="a_edge20_Node000009_Node000002"><a xlink:title=" ">
<path fill="none" stroke="#63b8ff" d="M252.94,-219.71C249.9,-210.79 245.25,-196.54 242,-184 238.12,-169 234.65,-151.77 232.28,-139.05"/>
<polygon fill="#63b8ff" stroke="#63b8ff" points="235.72,-138.41 230.49,-129.19 228.83,-139.66 235.72,-138.41"/>
</a>
</g>
</g>
<!-- Node9&#45;&gt;Node4 -->
<g id="edge21_Node000009_Node000004" class="edge">
<title>Node9&#45;&gt;Node4</title>
<g id="a_edge21_Node000009_Node000004"><a xlink:title=" ">
<path fill="none" stroke="#63b8ff" d="M257.39,-219.83C259.68,-207.17 265.02,-183.15 275,-165 300.81,-118.07 335.26,-124.17 354,-74 360.06,-57.77 350.66,-39.61 341.33,-26.88"/>
<polygon fill="#63b8ff" stroke="#63b8ff" points="344.04,-24.67 335.07,-19.03 338.56,-29.03 344.04,-24.67"/>
</a>
</g>
</g>
<!-- Node9&#45;&gt;Node5 -->
<g id="edge22_Node000009_Node000005" class="edge">
<title>Node9&#45;&gt;Node5</title>
<g id="a_edge22_Node000009_Node000005"><a xlink:title=" ">
<path fill="none" stroke="#63b8ff" d="M234.72,-219.92C191.39,-201.11 93.88,-151.63 57,-74 49.07,-57.32 61.84,-39.05 74.31,-26.41"/>
<polygon fill="#63b8ff" stroke="#63b8ff" points="76.95,-28.72 81.85,-19.33 72.16,-23.62 76.95,-28.72"/>
</a>
</g>
</g>
<!-- Node9&#45;&gt;Node6 -->
<g id="edge23_Node000009_Node000006" class="edge">
<title>Node9&#45;&gt;Node6</title>
<g id="a_edge23_Node000009_Node000006"><a xlink:title=" ">
<path fill="none" stroke="#63b8ff" d="M247.24,-219.74C221.03,-193.53 143.01,-115.51 109.07,-81.57"/>
<polygon fill="#63b8ff" stroke="#63b8ff" points="111.35,-78.9 101.81,-74.31 106.4,-83.85 111.35,-78.9"/>
</a>
</g>
</g>
<!-- Node9&#45;&gt;Node7 -->
<g id="edge25_Node000009_Node000007" class="edge">
<title>Node9&#45;&gt;Node7</title>
<g id="a_edge25_Node000009_Node000007"><a xlink:title=" ">
<path fill="none" stroke="#63b8ff" d="M299.5,-221.3C346.58,-213.36 424.07,-199.83 500.5,-184.01"/>
<polygon fill="#63b8ff" stroke="#63b8ff" points="501.22,-187.43 510.3,-181.97 499.79,-180.58 501.22,-187.43"/>
</a>
</g>
</g>
<!-- Node9&#45;&gt;Node8 -->
<g id="edge26_Node000009_Node000008" class="edge">
<title>Node9&#45;&gt;Node8</title>
<g id="a_edge26_Node000009_Node000008"><a xlink:title=" ">
<path fill="none" stroke="#63b8ff" d="M299.65,-223.64C358.9,-216.76 468.25,-203.07 571.36,-183.95"/>
<polygon fill="#63b8ff" stroke="#63b8ff" points="572.14,-187.37 581.32,-182.09 570.85,-180.49 572.14,-187.37"/>
</a>
</g>
</g>
<!-- Node10 -->
<g id="Node000010" class="node">
<title>Node10</title>
<g id="a_Node000010"><a xlink:href="infix__internals_8h.html" target="_top" xlink:title="Internal data structures, function prototypes, and constants.">
<polygon fill="white" stroke="#666666" points="492,-184 352,-184 352,-165 492,-165 492,-184"/>
<text text-anchor="middle" x="422" y="-172" font-family="Helvetica,sans-Serif" font-size="10.00">common/infix_internals.h</text>
</a>
</g>
</g>
<!-- Node9&#45;&gt;Node10 -->
<g id="edge13_Node000009_Node000010" class="edge">
<title>Node9&#45;&gt;Node10</title>
<g id="a_edge13_Node000009_Node000010"><a xlink:title=" ">
<path fill="none" stroke="#63b8ff" d="M282.67,-219.98C310.54,-211.09 354.45,-197.07 385.52,-187.15"/>
<polygon fill="#63b8ff" stroke="#63b8ff" points="386.66,-190.46 395.12,-184.08 384.53,-183.79 386.66,-190.46"/>
</a>
</g>
</g>
<!-- Node13 -->
<g id="Node000013" class="node">
<title>Node13</title>
<g id="a_Node000013"><a xlink:title=" ">
<polygon fill="#e0e0e0" stroke="#999999" points="334,-184 284,-184 284,-165 334,-165 334,-184"/>
<text text-anchor="middle" x="309" y="-172" font-family="Helvetica,sans-Serif" font-size="10.00">stdio.h</text>
</a>
</g>
</g>
<!-- Node9&#45;&gt;Node13 -->
<g id="edge24_Node000009_Node000013" class="edge">
<title>Node9&#45;&gt;Node13</title>
<g id="a_edge24_Node000009_Node000013"><a xlink:title=" ">
<path fill="none" stroke="#63b8ff" d="M264.75,-219.75C272.47,-212.03 283.9,-200.6 293.22,-191.28"/>
<polygon fill="#63b8ff" stroke="#63b8ff" points="295.81,-193.64 300.41,-184.09 290.86,-188.69 295.81,-193.64"/>
</a>
</g>
</g>
<!-- Node10&#45;&gt;Node2 -->
<g id="edge19_Node000010_Node000002" class="edge">
<title>Node10&#45;&gt;Node2</title>
<g id="a_edge19_Node000010_Node000002"><a xlink:title=" ">
<path fill="none" stroke="#63b8ff" d="M390.99,-164.98C358.17,-155.97 306.2,-141.7 270.01,-131.76"/>
<polygon fill="#63b8ff" stroke="#63b8ff" points="270.82,-128.36 260.25,-129.08 268.97,-135.11 270.82,-128.36"/>
</a>
</g>
</g>
<!-- Node11 -->
<g id="Node000011" class="node">
<title>Node11</title>
<g id="a_Node000011"><a xlink:href="infix__config_8h.html" target="_top" xlink:title="Platform, architecture, and ABI detection macros.">
<polygon fill="white" stroke="#666666" points="567.5,-74 440.5,-74 440.5,-55 567.5,-55 567.5,-74"/>
<text text-anchor="middle" x="504" y="-62" font-family="Helvetica,sans-Serif" font-size="10.00">common/infix_config.h</text>
</a>
</g>
</g>
<!-- Node10&#45;&gt;Node11 -->
<g id="edge14_Node000010_Node000011" class="edge">
<title>Node10&#45;&gt;Node11</title>
<g id="a_edge14_Node000010_Node000011"><a xlink:title=" ">
<path fill="none" stroke="#63b8ff" d="M437.18,-164.85C449.86,-156.94 467.66,-144.19 479,-129 489.08,-115.5 495.68,-97.41 499.55,-83.99"/>
<polygon fill="#63b8ff" stroke="#63b8ff" points="503.01,-84.58 502.18,-74.02 496.24,-82.8 503.01,-84.58"/>
</a>
</g>
</g>
<!-- Node12 -->
<g id="Node000012" class="node">
<title>Node12</title>
<g id="a_Node000012"><a xlink:href="platform_8h.html" target="_top" xlink:title="Declares internal, runtime CPU/OS feature detection functions.">
<polygon fill="white" stroke="#666666" points="470.5,-129 357.5,-129 357.5,-110 470.5,-110 470.5,-129"/>
<text text-anchor="middle" x="414" y="-117" font-family="Helvetica,sans-Serif" font-size="10.00">common/platform.h</text>
</a>
</g>
</g>
<!-- Node10&#45;&gt;Node12 -->
<g id="edge15_Node000010_Node000012" class="edge">
<title>Node10&#45;&gt;Node12</title>
<g id="a_edge15_Node000010_Node000012"><a xlink:title=" ">
<path fill="none" stroke="#63b8ff" d="M420.68,-164.75C419.63,-157.8 418.13,-147.85 416.81,-139.13"/>
<polygon fill="#63b8ff" stroke="#63b8ff" points="420.25,-138.45 415.3,-129.09 413.33,-139.5 420.25,-138.45"/>
</a>
</g>
</g>
<!-- Node12&#45;&gt;Node3 -->
<g id="edge16_Node000012_Node000003" class="edge">
<title>Node12&#45;&gt;Node3</title>
<g id="a_edge16_Node000012_Node000003"><a xlink:title=" ">
<path fill="none" stroke="#63b8ff" d="M392.47,-109.98C370.53,-101.3 336.26,-87.75 311.31,-77.88"/>
<polygon fill="#63b8ff" stroke="#63b8ff" points="312.51,-74.59 301.92,-74.17 309.93,-81.1 312.51,-74.59"/>
</a>
</g>
</g>
<!-- Node12&#45;&gt;Node4 -->
<g id="edge18_Node000012_Node000004" class="edge">
<title>Node12&#45;&gt;Node4</title>
<g id="a_edge18_Node000012_Node000004"><a xlink:title=" ">
<path fill="none" stroke="#63b8ff" d="M412.09,-109.93C408.87,-96.96 401.37,-72.07 388,-55 378.34,-42.67 364.4,-32.15 352.28,-24.44"/>
<polygon fill="#63b8ff" stroke="#63b8ff" points="353.84,-21.29 343.48,-19.11 350.22,-27.28 353.84,-21.29"/>
</a>
</g>
</g>
<!-- Node12&#45;&gt;Node11 -->
<g id="edge17_Node000012_Node000011" class="edge">
<title>Node12&#45;&gt;Node11</title>
<g id="a_edge17_Node000012_Node000011"><a xlink:title=" ">
<path fill="none" stroke="#63b8ff" d="M428.46,-109.98C442.42,-101.77 463.79,-89.18 480.25,-79.49"/>
<polygon fill="#63b8ff" stroke="#63b8ff" points="482.44,-82.26 489.28,-74.17 478.88,-76.23 482.44,-82.26"/>
</a>
</g>
</g>
</g>
</svg>
