<?xml version="1.0" encoding="UTF-8" standalone="no"?>
<!DOCTYPE svg PUBLIC "-//W3C//DTD SVG 1.1//EN"
 "http://www.w3.org/Graphics/SVG/1.1/DTD/svg11.dtd">
<!-- Generated by graphviz version 2.43.0 (0)
 -->
<!-- Title: fuzz/fuzz_helpers.h Pages: 1 -->
<svg width="703pt" height="302pt"
 viewBox="0.00 0.00 702.50 302.00" xmlns="http://www.w3.org/2000/svg" xmlns:xlink="http://www.w3.org/1999/xlink">
<g id="graph0" class="graph" transform="scale(1 1) rotate(0) translate(4 298)">
<title>fuzz/fuzz_helpers.h</title>
<!-- Node1 -->
<g id="Node000001" class="node">
<title>Node1</title>
<g id="a_Node000001"><a xlink:title="Common definitions, structures, and helpers for all fuzzer targets.">
<polygon fill="#999999" stroke="#666666" points="510,-294 400,-294 400,-275 510,-275 510,-294"/>
<text text-anchor="middle" x="455" y="-282" font-family="Helvetica,sans-Serif" font-size="10.00">fuzz/fuzz_helpers.h</text>
</a>
</g>
</g>
<!-- Node2 -->
<g id="Node000002" class="node">
<title>Node2</title>
<g id="a_Node000002"><a xlink:href="infix__internals_8h.html" target="_top" xlink:title="Internal data structures, function prototypes, and constants.">
<polygon fill="white" stroke="#666666" points="298,-239 158,-239 158,-220 298,-220 298,-239"/>
<text text-anchor="middle" x="228" y="-227" font-family="Helvetica,sans-Serif" font-size="10.00">common/infix_internals.h</text>
</a>
</g>
</g>
<!-- Node1&#45;&gt;Node2 -->
<g id="edge1_Node000001_Node000002" class="edge">
<title>Node1&#45;&gt;Node2</title>
<g id="a_edge1_Node000001_Node000002"><a xlink:title=" ">
<path fill="none" stroke="#63b8ff" d="M418.53,-274.98C379.43,-265.86 317.23,-251.33 274.61,-241.38"/>
<polygon fill="#63b8ff" stroke="#63b8ff" points="275.29,-237.95 264.76,-239.08 273.7,-244.76 275.29,-237.95"/>
</a>
</g>
</g>
<!-- Node6 -->
<g id="Node000006" class="node">
<title>Node6</title>
<g id="a_Node000006"><a xlink:href="infix_8h.html" target="_top" xlink:title="The public interface for the infix FFI library.">
<polygon fill="white" stroke="#666666" points="407.5,-74 336.5,-74 336.5,-55 407.5,-55 407.5,-74"/>
<text text-anchor="middle" x="372" y="-62" font-family="Helvetica,sans-Serif" font-size="10.00">infix/infix.h</text>
</a>
</g>
</g>
<!-- Node1&#45;&gt;Node6 -->
<g id="edge16_Node000001_Node000006" class="edge">
<title>Node1&#45;&gt;Node6</title>
<g id="a_edge16_Node000001_Node000006"><a xlink:title=" ">
<path fill="none" stroke="#63b8ff" d="M447.16,-274.92C439.73,-266.38 428.74,-252.62 422,-239 395.77,-185.97 381.04,-116.82 375.11,-84.15"/>
<polygon fill="#63b8ff" stroke="#63b8ff" points="378.54,-83.45 373.37,-74.2 371.64,-84.66 378.54,-83.45"/>
</a>
</g>
</g>
<!-- Node7 -->
<g id="Node000007" class="node">
<title>Node7</title>
<g id="a_Node000007"><a xlink:title=" ">
<polygon fill="#e0e0e0" stroke="#999999" points="361,-19 299,-19 299,0 361,0 361,-19"/>
<text text-anchor="middle" x="330" y="-7" font-family="Helvetica,sans-Serif" font-size="10.00">stdbool.h</text>
</a>
</g>
</g>
<!-- Node1&#45;&gt;Node7 -->
<g id="edge17_Node000001_Node000007" class="edge">
<title>Node1&#45;&gt;Node7</title>
<g id="a_edge17_Node000001_Node000007"><a xlink:title=" ">
<path fill="none" stroke="#63b8ff" d="M452.44,-274.91C447.25,-256.74 436,-213 436,-175.5 436,-175.5 436,-175.5 436,-118.5 436,-89.04 435.85,-77.64 417,-55 404.75,-40.29 386.39,-29.9 369.69,-22.88"/>
<polygon fill="#63b8ff" stroke="#63b8ff" points="370.7,-19.52 360.11,-19.13 368.15,-26.03 370.7,-19.52"/>
</a>
</g>
</g>
<!-- Node8 -->
<g id="Node000008" class="node">
<title>Node8</title>
<g id="a_Node000008"><a xlink:title=" ">
<polygon fill="#e0e0e0" stroke="#999999" points="256,-19 200,-19 200,0 256,0 256,-19"/>
<text text-anchor="middle" x="228" y="-7" font-family="Helvetica,sans-Serif" font-size="10.00">stddef.h</text>
</a>
</g>
</g>
<!-- Node1&#45;&gt;Node8 -->
<g id="edge18_Node000001_Node000008" class="edge">
<title>Node1&#45;&gt;Node8</title>
<g id="a_edge18_Node000001_Node000008"><a xlink:title=" ">
<path fill="none" stroke="#63b8ff" d="M399.66,-281.93C278.4,-276.99 0,-256.79 0,-175.5 0,-175.5 0,-175.5 0,-118.5 0,-35.73 124.25,-16.31 189.3,-11.81"/>
<polygon fill="#63b8ff" stroke="#63b8ff" points="189.81,-15.29 199.58,-11.19 189.39,-8.3 189.81,-15.29"/>
</a>
</g>
</g>
<!-- Node9 -->
<g id="Node000009" class="node">
<title>Node9</title>
<g id="a_Node000009"><a xlink:title=" ">
<polygon fill="#e0e0e0" stroke="#999999" points="477.5,-19 424.5,-19 424.5,0 477.5,0 477.5,-19"/>
<text text-anchor="middle" x="451" y="-7" font-family="Helvetica,sans-Serif" font-size="10.00">stdint.h</text>
</a>
</g>
</g>
<!-- Node1&#45;&gt;Node9 -->
<g id="edge19_Node000001_Node000009" class="edge">
<title>Node1&#45;&gt;Node9</title>
<g id="a_edge19_Node000001_Node000009"><a xlink:title=" ">
<path fill="none" stroke="#63b8ff" d="M457.56,-274.91C462.75,-256.74 474,-213 474,-175.5 474,-175.5 474,-175.5 474,-118.5 474,-86.34 464.12,-49.95 457.31,-28.69"/>
<polygon fill="#63b8ff" stroke="#63b8ff" points="460.58,-27.43 454.1,-19.05 453.94,-29.64 460.58,-27.43"/>
</a>
</g>
</g>
<!-- Node11 -->
<g id="Node000011" class="node">
<title>Node11</title>
<g id="a_Node000011"><a xlink:title=" ">
<polygon fill="#e0e0e0" stroke="#999999" points="552,-239 502,-239 502,-220 552,-220 552,-239"/>
<text text-anchor="middle" x="527" y="-227" font-family="Helvetica,sans-Serif" font-size="10.00">stdio.h</text>
</a>
</g>
</g>
<!-- Node1&#45;&gt;Node11 -->
<g id="edge20_Node000001_Node000011" class="edge">
<title>Node1&#45;&gt;Node11</title>
<g id="a_edge20_Node000001_Node000011"><a xlink:title=" ">
<path fill="none" stroke="#63b8ff" d="M466.57,-274.98C477.42,-267 493.88,-254.88 506.88,-245.31"/>
<polygon fill="#63b8ff" stroke="#63b8ff" points="509.24,-247.92 515.22,-239.17 505.09,-242.28 509.24,-247.92"/>
</a>
</g>
</g>
<!-- Node12 -->
<g id="Node000012" class="node">
<title>Node12</title>
<g id="a_Node000012"><a xlink:title=" ">
<polygon fill="#e0e0e0" stroke="#999999" points="623.5,-239 570.5,-239 570.5,-220 623.5,-220 623.5,-239"/>
<text text-anchor="middle" x="597" y="-227" font-family="Helvetica,sans-Serif" font-size="10.00">stdlib.h</text>
</a>
</g>
</g>
<!-- Node1&#45;&gt;Node12 -->
<g id="edge21_Node000001_Node000012" class="edge">
<title>Node1&#45;&gt;Node12</title>
<g id="a_edge21_Node000001_Node000012"><a xlink:title=" ">
<path fill="none" stroke="#63b8ff" d="M477.81,-274.98C501.17,-266.27 537.7,-252.63 564.17,-242.75"/>
<polygon fill="#63b8ff" stroke="#63b8ff" points="565.63,-245.95 573.77,-239.17 563.18,-239.39 565.63,-245.95"/>
</a>
</g>
</g>
<!-- Node13 -->
<g id="Node000013" class="node">
<title>Node13</title>
<g id="a_Node000013"><a xlink:title=" ">
<polygon fill="#e0e0e0" stroke="#999999" points="694.5,-239 641.5,-239 641.5,-220 694.5,-220 694.5,-239"/>
<text text-anchor="middle" x="668" y="-227" font-family="Helvetica,sans-Serif" font-size="10.00">string.h</text>
</a>
</g>
</g>
<!-- Node1&#45;&gt;Node13 -->
<g id="edge22_Node000001_Node000013" class="edge">
<title>Node1&#45;&gt;Node13</title>
<g id="a_edge22_Node000001_Node000013"><a xlink:title=" ">
<path fill="none" stroke="#63b8ff" d="M489.22,-274.98C528.17,-265.29 591.53,-249.53 631.43,-239.6"/>
<polygon fill="#63b8ff" stroke="#63b8ff" points="632.42,-242.96 641.28,-237.15 630.73,-236.17 632.42,-242.96"/>
</a>
</g>
</g>
<!-- Node3 -->
<g id="Node000003" class="node">
<title>Node3</title>
<g id="a_Node000003"><a xlink:href="infix__config_8h.html" target="_top" xlink:title="Platform, architecture, and ABI detection macros.">
<polygon fill="white" stroke="#666666" points="197.5,-74 70.5,-74 70.5,-55 197.5,-55 197.5,-74"/>
<text text-anchor="middle" x="134" y="-62" font-family="Helvetica,sans-Serif" font-size="10.00">common/infix_config.h</text>
</a>
</g>
</g>
<!-- Node2&#45;&gt;Node3 -->
<g id="edge2_Node000002_Node000003" class="edge">
<title>Node2&#45;&gt;Node3</title>
<g id="a_edge2_Node000002_Node000003"><a xlink:title=" ">
<path fill="none" stroke="#63b8ff" d="M209.6,-219.87C195,-212.22 174.97,-199.82 162,-184 138.29,-155.08 133.98,-109.54 133.58,-84.16"/>
<polygon fill="#63b8ff" stroke="#63b8ff" points="137.08,-84.07 133.61,-74.05 130.08,-84.04 137.08,-84.07"/>
</a>
</g>
</g>
<!-- Node4 -->
<g id="Node000004" class="node">
<title>Node4</title>
<g id="a_Node000004"><a xlink:href="platform_8h.html" target="_top" xlink:title="Declares internal, runtime CPU/OS feature detection functions.">
<polygon fill="white" stroke="#666666" points="284.5,-184 171.5,-184 171.5,-165 284.5,-165 284.5,-184"/>
<text text-anchor="middle" x="228" y="-172" font-family="Helvetica,sans-Serif" font-size="10.00">common/platform.h</text>
</a>
</g>
</g>
<!-- Node2&#45;&gt;Node4 -->
<g id="edge3_Node000002_Node000004" class="edge">
<title>Node2&#45;&gt;Node4</title>
<g id="a_edge3_Node000002_Node000004"><a xlink:title=" ">
<path fill="none" stroke="#63b8ff" d="M228,-219.75C228,-212.8 228,-202.85 228,-194.13"/>
<polygon fill="#63b8ff" stroke="#63b8ff" points="231.5,-194.09 228,-184.09 224.5,-194.09 231.5,-194.09"/>
</a>
</g>
</g>
<!-- Node2&#45;&gt;Node6 -->
<g id="edge14_Node000002_Node000006" class="edge">
<title>Node2&#45;&gt;Node6</title>
<g id="a_edge14_Node000002_Node000006"><a xlink:title=" ">
<path fill="none" stroke="#63b8ff" d="M243.96,-219.92C257.95,-211.87 278.3,-198.89 293,-184 323.86,-152.75 349.93,-107.82 363,-83.23"/>
<polygon fill="#63b8ff" stroke="#63b8ff" points="366.27,-84.53 367.78,-74.04 360.06,-81.3 366.27,-84.53"/>
</a>
</g>
</g>
<!-- Node10 -->
<g id="Node000010" class="node">
<title>Node10</title>
<g id="a_Node000010"><a xlink:title=" ">
<polygon fill="#e0e0e0" stroke="#999999" points="91.5,-184 28.5,-184 28.5,-165 91.5,-165 91.5,-184"/>
<text text-anchor="middle" x="60" y="-172" font-family="Helvetica,sans-Serif" font-size="10.00">pthread.h</text>
</a>
</g>
</g>
<!-- Node2&#45;&gt;Node10 -->
<g id="edge15_Node000002_Node000010" class="edge">
<title>Node2&#45;&gt;Node10</title>
<g id="a_edge15_Node000002_Node000010"><a xlink:title=" ">
<path fill="none" stroke="#63b8ff" d="M201.01,-219.98C172.8,-211.09 128.36,-197.07 96.92,-187.15"/>
<polygon fill="#63b8ff" stroke="#63b8ff" points="97.79,-183.75 87.2,-184.08 95.69,-190.43 97.79,-183.75"/>
</a>
</g>
</g>
<!-- Node4&#45;&gt;Node3 -->
<g id="edge12_Node000004_Node000003" class="edge">
<title>Node4&#45;&gt;Node3</title>
<g id="a_edge12_Node000004_Node000003"><a xlink:title=" ">
<path fill="none" stroke="#63b8ff" d="M204.5,-164.97C187.86,-157.78 166.23,-145.94 153,-129 142.93,-116.1 138.18,-97.94 135.96,-84.35"/>
<polygon fill="#63b8ff" stroke="#63b8ff" points="139.4,-83.67 134.61,-74.21 132.46,-84.59 139.4,-83.67"/>
</a>
</g>
</g>
<!-- Node5 -->
<g id="Node000005" class="node">
<title>Node5</title>
<g id="a_Node000005"><a xlink:href="compat__c23_8h.html" target="_top" xlink:title="Provides forward compatibility macros for C23 features.">
<polygon fill="white" stroke="#666666" points="293.5,-129 162.5,-129 162.5,-110 293.5,-110 293.5,-129"/>
<text text-anchor="middle" x="228" y="-117" font-family="Helvetica,sans-Serif" font-size="10.00">common/compat_c23.h</text>
</a>
</g>
</g>
<!-- Node4&#45;&gt;Node5 -->
<g id="edge4_Node000004_Node000005" class="edge">
<title>Node4&#45;&gt;Node5</title>
<g id="a_edge4_Node000004_Node000005"><a xlink:title=" ">
<path fill="none" stroke="#63b8ff" d="M228,-164.75C228,-157.8 228,-147.85 228,-139.13"/>
<polygon fill="#63b8ff" stroke="#63b8ff" points="231.5,-139.09 228,-129.09 224.5,-139.09 231.5,-139.09"/>
</a>
</g>
</g>
<!-- Node4&#45;&gt;Node7 -->
<g id="edge13_Node000004_Node000007" class="edge">
<title>Node4&#45;&gt;Node7</title>
<g id="a_edge13_Node000004_Node000007"><a xlink:title=" ">
<path fill="none" stroke="#63b8ff" d="M251.84,-164.96C268.35,-157.84 289.53,-146.07 302,-129 313.5,-113.25 322.97,-58.65 327.36,-29.38"/>
<polygon fill="#63b8ff" stroke="#63b8ff" points="330.86,-29.61 328.83,-19.21 323.93,-28.61 330.86,-29.61"/>
</a>
</g>
</g>
<!-- Node5&#45;&gt;Node3 -->
<g id="edge5_Node000005_Node000003" class="edge">
<title>Node5&#45;&gt;Node3</title>
<g id="a_edge5_Node000005_Node000003"><a xlink:title=" ">
<path fill="none" stroke="#63b8ff" d="M212.9,-109.98C198.18,-101.69 175.58,-88.94 158.33,-79.22"/>
<polygon fill="#63b8ff" stroke="#63b8ff" points="159.81,-76.03 149.38,-74.17 156.37,-82.13 159.81,-76.03"/>
</a>
</g>
</g>
<!-- Node5&#45;&gt;Node6 -->
<g id="edge6_Node000005_Node000006" class="edge">
<title>Node5&#45;&gt;Node6</title>
<g id="a_edge6_Node000005_Node000006"><a xlink:title=" ">
<path fill="none" stroke="#63b8ff" d="M251.14,-109.98C274.82,-101.27 311.87,-87.63 338.71,-77.75"/>
<polygon fill="#63b8ff" stroke="#63b8ff" points="340.27,-80.91 348.44,-74.17 337.85,-74.34 340.27,-80.91"/>
</a>
</g>
</g>
<!-- Node5&#45;&gt;Node7 -->
<g id="edge10_Node000005_Node000007" class="edge">
<title>Node5&#45;&gt;Node7</title>
<g id="a_edge10_Node000005_Node000007"><a xlink:title=" ">
<path fill="none" stroke="#63b8ff" d="M236.35,-109.66C253.54,-91.46 293.12,-49.55 314.92,-26.47"/>
<polygon fill="#63b8ff" stroke="#63b8ff" points="317.5,-28.83 321.82,-19.16 312.41,-24.03 317.5,-28.83"/>
</a>
</g>
</g>
<!-- Node5&#45;&gt;Node8 -->
<g id="edge11_Node000005_Node000008" class="edge">
<title>Node5&#45;&gt;Node8</title>
<g id="a_edge11_Node000005_Node000008"><a xlink:title=" ">
<path fill="none" stroke="#63b8ff" d="M228,-109.66C228,-92.17 228,-52.8 228,-29.27"/>
<polygon fill="#63b8ff" stroke="#63b8ff" points="231.5,-29.16 228,-19.16 224.5,-29.16 231.5,-29.16"/>
</a>
</g>
</g>
<!-- Node6&#45;&gt;Node7 -->
<g id="edge7_Node000006_Node000007" class="edge">
<title>Node6&#45;&gt;Node7</title>
<g id="a_edge7_Node000006_Node000007"><a xlink:title=" ">
<path fill="none" stroke="#63b8ff" d="M365.06,-54.75C359.13,-47.26 350.43,-36.28 343.18,-27.13"/>
<polygon fill="#63b8ff" stroke="#63b8ff" points="345.76,-24.75 336.81,-19.09 340.27,-29.1 345.76,-24.75"/>
</a>
</g>
</g>
<!-- Node6&#45;&gt;Node8 -->
<g id="edge8_Node000006_Node000008" class="edge">
<title>Node6&#45;&gt;Node8</title>
<g id="a_edge8_Node000006_Node000008"><a xlink:title=" ">
<path fill="none" stroke="#63b8ff" d="M348.86,-54.98C325.18,-46.27 288.13,-32.63 261.29,-22.75"/>
<polygon fill="#63b8ff" stroke="#63b8ff" points="262.15,-19.34 251.56,-19.17 259.73,-25.91 262.15,-19.34"/>
</a>
</g>
</g>
<!-- Node6&#45;&gt;Node9 -->
<g id="edge9_Node000006_Node000009" class="edge">
<title>Node6&#45;&gt;Node9</title>
<g id="a_edge9_Node000006_Node000009"><a xlink:title=" ">
<path fill="none" stroke="#63b8ff" d="M384.69,-54.98C396.83,-46.84 415.36,-34.41 429.75,-24.76"/>
<polygon fill="#63b8ff" stroke="#63b8ff" points="431.72,-27.65 438.08,-19.17 427.82,-21.84 431.72,-27.65"/>
</a>
</g>
</g>
</g>
</svg>
