<?xml version="1.0" encoding="UTF-8" standalone="no"?>
<!DOCTYPE svg PUBLIC "-//W3C//DTD SVG 1.1//EN"
 "http://www.w3.org/Graphics/SVG/1.1/DTD/svg11.dtd">
<!-- Generated by graphviz version 2.43.0 (0)
 -->
<!-- Title: fuzz/fuzz_roundtrip.c Pages: 1 -->
<svg width="620pt" height="302pt"
 viewBox="0.00 0.00 620.20 302.00" xmlns="http://www.w3.org/2000/svg" xmlns:xlink="http://www.w3.org/1999/xlink">
<g id="graph0" class="graph" transform="scale(1 1) rotate(0) translate(4 298)">
<title>fuzz/fuzz_roundtrip.c</title>
<!-- Node1 -->
<g id="Node000001" class="node">
<title>Node1</title>
<g id="a_Node000001"><a xlink:title="Fuzzer target for Type &#45;&gt; String &#45;&gt; Type round&#45;trip consistency.">
<polygon fill="#999999" stroke="#666666" points="573.7,-294 455.7,-294 455.7,-275 573.7,-275 573.7,-294"/>
<text text-anchor="middle" x="514.7" y="-282" font-family="Helvetica,sans-Serif" font-size="10.00">fuzz/fuzz_roundtrip.c</text>
</a>
</g>
</g>
<!-- Node2 -->
<g id="Node000002" class="node">
<title>Node2</title>
<g id="a_Node000002"><a xlink:href="fuzz__helpers_8h.html" target="_top" xlink:title="Common definitions, structures, and helpers for all fuzzer targets.">
<polygon fill="white" stroke="#666666" points="374.2,-239 287.2,-239 287.2,-220 374.2,-220 374.2,-239"/>
<text text-anchor="middle" x="330.7" y="-227" font-family="Helvetica,sans-Serif" font-size="10.00">fuzz_helpers.h</text>
</a>
</g>
</g>
<!-- Node1&#45;&gt;Node2 -->
<g id="edge1_Node000001_Node000002" class="edge">
<title>Node1&#45;&gt;Node2</title>
<g id="a_edge1_Node000001_Node000002"><a xlink:title=" ">
<path fill="none" stroke="#63b8ff" d="M485.14,-274.98C453.98,-266.01 404.73,-251.82 370.25,-241.89"/>
<polygon fill="#63b8ff" stroke="#63b8ff" points="371.08,-238.49 360.5,-239.08 369.14,-245.21 371.08,-238.49"/>
</a>
</g>
</g>
<!-- Node12 -->
<g id="Node000012" class="node">
<title>Node12</title>
<g id="a_Node000012"><a xlink:title=" ">
<polygon fill="#e0e0e0" stroke="#999999" points="541.2,-184 488.2,-184 488.2,-165 541.2,-165 541.2,-184"/>
<text text-anchor="middle" x="514.7" y="-172" font-family="Helvetica,sans-Serif" font-size="10.00">stdlib.h</text>
</a>
</g>
</g>
<!-- Node1&#45;&gt;Node12 -->
<g id="edge22_Node000001_Node000012" class="edge">
<title>Node1&#45;&gt;Node12</title>
<g id="a_edge22_Node000001_Node000012"><a xlink:title=" ">
<path fill="none" stroke="#63b8ff" d="M514.7,-274.66C514.7,-257.17 514.7,-217.8 514.7,-194.27"/>
<polygon fill="#63b8ff" stroke="#63b8ff" points="518.2,-194.16 514.7,-184.16 511.2,-194.16 518.2,-194.16"/>
</a>
</g>
</g>
<!-- Node13 -->
<g id="Node000013" class="node">
<title>Node13</title>
<g id="a_Node000013"><a xlink:title=" ">
<polygon fill="#e0e0e0" stroke="#999999" points="612.2,-184 559.2,-184 559.2,-165 612.2,-165 612.2,-184"/>
<text text-anchor="middle" x="585.7" y="-172" font-family="Helvetica,sans-Serif" font-size="10.00">string.h</text>
</a>
</g>
</g>
<!-- Node1&#45;&gt;Node13 -->
<g id="edge23_Node000001_Node000013" class="edge">
<title>Node1&#45;&gt;Node13</title>
<g id="a_edge23_Node000001_Node000013"><a xlink:title=" ">
<path fill="none" stroke="#63b8ff" d="M520.51,-274.66C532.27,-256.77 559.08,-216 574.4,-192.69"/>
<polygon fill="#63b8ff" stroke="#63b8ff" points="577.44,-194.44 580.01,-184.16 571.59,-190.59 577.44,-194.44"/>
</a>
</g>
</g>
<!-- Node3 -->
<g id="Node000003" class="node">
<title>Node3</title>
<g id="a_Node000003"><a xlink:href="infix__internals_8h.html" target="_top" xlink:title="Internal data structures, function prototypes, and constants.">
<polygon fill="white" stroke="#666666" points="400.7,-184 260.7,-184 260.7,-165 400.7,-165 400.7,-184"/>
<text text-anchor="middle" x="330.7" y="-172" font-family="Helvetica,sans-Serif" font-size="10.00">common/infix_internals.h</text>
</a>
</g>
</g>
<!-- Node2&#45;&gt;Node3 -->
<g id="edge2_Node000002_Node000003" class="edge">
<title>Node2&#45;&gt;Node3</title>
<g id="a_edge2_Node000002_Node000003"><a xlink:title=" ">
<path fill="none" stroke="#63b8ff" d="M330.7,-219.75C330.7,-212.8 330.7,-202.85 330.7,-194.13"/>
<polygon fill="#63b8ff" stroke="#63b8ff" points="334.2,-194.09 330.7,-184.09 327.2,-194.09 334.2,-194.09"/>
</a>
</g>
</g>
<!-- Node7 -->
<g id="Node000007" class="node">
<title>Node7</title>
<g id="a_Node000007"><a xlink:title=" ">
<polygon fill="#e0e0e0" stroke="#999999" points="375.7,-19 313.7,-19 313.7,0 375.7,0 375.7,-19"/>
<text text-anchor="middle" x="344.7" y="-7" font-family="Helvetica,sans-Serif" font-size="10.00">stdbool.h</text>
</a>
</g>
</g>
<!-- Node2&#45;&gt;Node7 -->
<g id="edge16_Node000002_Node000007" class="edge">
<title>Node2&#45;&gt;Node7</title>
<g id="a_edge16_Node000002_Node000007"><a xlink:title=" ">
<path fill="none" stroke="#63b8ff" d="M351.44,-219.91C368.38,-212.2 392.28,-199.7 409.7,-184 449.73,-147.92 454.93,-127.58 460.7,-74 461.61,-65.6 465.49,-61.96 460.7,-55 443.98,-30.68 412,-19.64 385.84,-14.64"/>
<polygon fill="#63b8ff" stroke="#63b8ff" points="386.22,-11.15 375.78,-12.95 385.06,-18.06 386.22,-11.15"/>
</a>
</g>
</g>
<!-- Node8 -->
<g id="Node000008" class="node">
<title>Node8</title>
<g id="a_Node000008"><a xlink:title=" ">
<polygon fill="#e0e0e0" stroke="#999999" points="121.7,-19 65.7,-19 65.7,0 121.7,0 121.7,-19"/>
<text text-anchor="middle" x="93.7" y="-7" font-family="Helvetica,sans-Serif" font-size="10.00">stddef.h</text>
</a>
</g>
</g>
<!-- Node2&#45;&gt;Node8 -->
<g id="edge17_Node000002_Node000008" class="edge">
<title>Node2&#45;&gt;Node8</title>
<g id="a_edge17_Node000002_Node000008"><a xlink:title=" ">
<path fill="none" stroke="#63b8ff" d="M287.18,-224.7C210.15,-215.22 53.16,-182.78 2.7,-74 -9.75,-47.15 25.52,-29.66 55.72,-19.96"/>
<polygon fill="#63b8ff" stroke="#63b8ff" points="57.11,-23.2 65.69,-16.97 55.1,-16.49 57.11,-23.2"/>
</a>
</g>
</g>
<!-- Node9 -->
<g id="Node000009" class="node">
<title>Node9</title>
<g id="a_Node000009"><a xlink:href="infix_8h.html" target="_top" xlink:title="The public interface for the infix FFI library.">
<polygon fill="white" stroke="#666666" points="183.2,-129 112.2,-129 112.2,-110 183.2,-110 183.2,-129"/>
<text text-anchor="middle" x="147.7" y="-117" font-family="Helvetica,sans-Serif" font-size="10.00">infix/infix.h</text>
</a>
</g>
</g>
<!-- Node2&#45;&gt;Node9 -->
<g id="edge15_Node000002_Node000009" class="edge">
<title>Node2&#45;&gt;Node9</title>
<g id="a_edge15_Node000002_Node000009"><a xlink:title=" ">
<path fill="none" stroke="#63b8ff" d="M287.14,-224.01C255.57,-218.83 213.38,-207.73 183.7,-184 169.19,-172.4 159.49,-153.25 153.86,-139.01"/>
<polygon fill="#63b8ff" stroke="#63b8ff" points="157.03,-137.49 150.32,-129.29 150.45,-139.88 157.03,-137.49"/>
</a>
</g>
</g>
<!-- Node10 -->
<g id="Node000010" class="node">
<title>Node10</title>
<g id="a_Node000010"><a xlink:title=" ">
<polygon fill="#e0e0e0" stroke="#999999" points="65.2,-74 12.2,-74 12.2,-55 65.2,-55 65.2,-74"/>
<text text-anchor="middle" x="38.7" y="-62" font-family="Helvetica,sans-Serif" font-size="10.00">stdint.h</text>
</a>
</g>
</g>
<!-- Node2&#45;&gt;Node10 -->
<g id="edge18_Node000002_Node000010" class="edge">
<title>Node2&#45;&gt;Node10</title>
<g id="a_edge18_Node000002_Node000010"><a xlink:title=" ">
<path fill="none" stroke="#63b8ff" d="M287.05,-222.47C252.33,-216.38 203.33,-204.79 164.7,-184 116.21,-157.9 72.54,-108.39 51.66,-82.4"/>
<polygon fill="#63b8ff" stroke="#63b8ff" points="54.2,-79.95 45.26,-74.26 48.7,-84.28 54.2,-79.95"/>
</a>
</g>
</g>
<!-- Node11 -->
<g id="Node000011" class="node">
<title>Node11</title>
<g id="a_Node000011"><a xlink:title=" ">
<polygon fill="#e0e0e0" stroke="#999999" points="242.7,-184 192.7,-184 192.7,-165 242.7,-165 242.7,-184"/>
<text text-anchor="middle" x="217.7" y="-172" font-family="Helvetica,sans-Serif" font-size="10.00">stdio.h</text>
</a>
</g>
</g>
<!-- Node2&#45;&gt;Node11 -->
<g id="edge19_Node000002_Node000011" class="edge">
<title>Node2&#45;&gt;Node11</title>
<g id="a_edge19_Node000002_Node000011"><a xlink:title=" ">
<path fill="none" stroke="#63b8ff" d="M312.55,-219.98C294.45,-211.5 266.42,-198.35 245.52,-188.54"/>
<polygon fill="#63b8ff" stroke="#63b8ff" points="246.73,-185.25 236.19,-184.17 243.76,-191.59 246.73,-185.25"/>
</a>
</g>
</g>
<!-- Node2&#45;&gt;Node12 -->
<g id="edge20_Node000002_Node000012" class="edge">
<title>Node2&#45;&gt;Node12</title>
<g id="a_edge20_Node000002_Node000012"><a xlink:title=" ">
<path fill="none" stroke="#63b8ff" d="M360.27,-219.98C392.44,-210.72 443.91,-195.89 478.49,-185.93"/>
<polygon fill="#63b8ff" stroke="#63b8ff" points="479.56,-189.27 488.2,-183.13 477.62,-182.54 479.56,-189.27"/>
</a>
</g>
</g>
<!-- Node2&#45;&gt;Node13 -->
<g id="edge21_Node000002_Node000013" class="edge">
<title>Node2&#45;&gt;Node13</title>
<g id="a_edge21_Node000002_Node000013"><a xlink:title=" ">
<path fill="none" stroke="#63b8ff" d="M374.42,-220.04C416.61,-211.78 482.53,-198.62 549.16,-184.06"/>
<polygon fill="#63b8ff" stroke="#63b8ff" points="549.97,-187.47 558.99,-181.91 548.47,-180.63 549.97,-187.47"/>
</a>
</g>
</g>
<!-- Node4 -->
<g id="Node000004" class="node">
<title>Node4</title>
<g id="a_Node000004"><a xlink:href="infix__config_8h.html" target="_top" xlink:title="Platform, architecture, and ABI detection macros.">
<polygon fill="white" stroke="#666666" points="436.2,-74 309.2,-74 309.2,-55 436.2,-55 436.2,-74"/>
<text text-anchor="middle" x="372.7" y="-62" font-family="Helvetica,sans-Serif" font-size="10.00">common/infix_config.h</text>
</a>
</g>
</g>
<!-- Node3&#45;&gt;Node4 -->
<g id="edge3_Node000003_Node000004" class="edge">
<title>Node3&#45;&gt;Node4</title>
<g id="a_edge3_Node000003_Node000004"><a xlink:title=" ">
<path fill="none" stroke="#63b8ff" d="M325.64,-164.87C318.95,-152.25 308.98,-128.28 317.7,-110 323.8,-97.23 335.55,-86.94 346.62,-79.49"/>
<polygon fill="#63b8ff" stroke="#63b8ff" points="348.6,-82.38 355.25,-74.12 344.91,-76.43 348.6,-82.38"/>
</a>
</g>
</g>
<!-- Node5 -->
<g id="Node000005" class="node">
<title>Node5</title>
<g id="a_Node000005"><a xlink:href="platform_8h.html" target="_top" xlink:title="Declares internal, runtime CPU/OS feature detection functions.">
<polygon fill="white" stroke="#666666" points="440.2,-129 327.2,-129 327.2,-110 440.2,-110 440.2,-129"/>
<text text-anchor="middle" x="383.7" y="-117" font-family="Helvetica,sans-Serif" font-size="10.00">common/platform.h</text>
</a>
</g>
</g>
<!-- Node3&#45;&gt;Node5 -->
<g id="edge4_Node000003_Node000005" class="edge">
<title>Node3&#45;&gt;Node5</title>
<g id="a_edge4_Node000003_Node000005"><a xlink:title=" ">
<path fill="none" stroke="#63b8ff" d="M339.46,-164.75C347.17,-157.03 358.61,-145.6 367.92,-136.28"/>
<polygon fill="#63b8ff" stroke="#63b8ff" points="370.52,-138.64 375.12,-129.09 365.57,-133.69 370.52,-138.64"/>
</a>
</g>
</g>
<!-- Node3&#45;&gt;Node9 -->
<g id="edge10_Node000003_Node000009" class="edge">
<title>Node3&#45;&gt;Node9</title>
<g id="a_edge10_Node000003_Node000009"><a xlink:title=" ">
<path fill="none" stroke="#63b8ff" d="M301.3,-164.98C270.31,-156.01 221.33,-141.82 187.03,-131.89"/>
<polygon fill="#63b8ff" stroke="#63b8ff" points="187.92,-128.5 177.34,-129.08 185.97,-135.23 187.92,-128.5"/>
</a>
</g>
</g>
<!-- Node5&#45;&gt;Node4 -->
<g id="edge8_Node000005_Node000004" class="edge">
<title>Node5&#45;&gt;Node4</title>
<g id="a_edge8_Node000005_Node000004"><a xlink:title=" ">
<path fill="none" stroke="#63b8ff" d="M381.89,-109.75C380.45,-102.8 378.38,-92.85 376.57,-84.13"/>
<polygon fill="#63b8ff" stroke="#63b8ff" points="379.95,-83.17 374.49,-74.09 373.09,-84.59 379.95,-83.17"/>
</a>
</g>
</g>
<!-- Node6 -->
<g id="Node000006" class="node">
<title>Node6</title>
<g id="a_Node000006"><a xlink:href="compat__c23_8h.html" target="_top" xlink:title="Provides forward compatibility macros for C23 features.">
<polygon fill="white" stroke="#666666" points="291.2,-74 160.2,-74 160.2,-55 291.2,-55 291.2,-74"/>
<text text-anchor="middle" x="225.7" y="-62" font-family="Helvetica,sans-Serif" font-size="10.00">common/compat_c23.h</text>
</a>
</g>
</g>
<!-- Node5&#45;&gt;Node6 -->
<g id="edge5_Node000005_Node000006" class="edge">
<title>Node5&#45;&gt;Node6</title>
<g id="a_edge5_Node000005_Node000006"><a xlink:title=" ">
<path fill="none" stroke="#63b8ff" d="M358.32,-109.98C331.91,-101.13 290.36,-87.19 260.81,-77.28"/>
<polygon fill="#63b8ff" stroke="#63b8ff" points="261.88,-73.94 251.29,-74.08 259.66,-80.58 261.88,-73.94"/>
</a>
</g>
</g>
<!-- Node5&#45;&gt;Node7 -->
<g id="edge9_Node000005_Node000007" class="edge">
<title>Node5&#45;&gt;Node7</title>
<g id="a_edge9_Node000005_Node000007"><a xlink:title=" ">
<path fill="none" stroke="#63b8ff" d="M402.93,-109.99C425.81,-98.63 459.19,-77.31 444.7,-55 431.66,-34.91 407.22,-23.82 385.77,-17.73"/>
<polygon fill="#63b8ff" stroke="#63b8ff" points="386.41,-14.28 375.86,-15.2 384.68,-21.07 386.41,-14.28"/>
</a>
</g>
</g>
<!-- Node6&#45;&gt;Node7 -->
<g id="edge6_Node000006_Node000007" class="edge">
<title>Node6&#45;&gt;Node7</title>
<g id="a_edge6_Node000006_Node000007"><a xlink:title=" ">
<path fill="none" stroke="#63b8ff" d="M244.82,-54.98C264.05,-46.42 293.94,-33.11 316.01,-23.28"/>
<polygon fill="#63b8ff" stroke="#63b8ff" points="317.53,-26.44 325.24,-19.17 314.68,-20.04 317.53,-26.44"/>
</a>
</g>
</g>
<!-- Node6&#45;&gt;Node8 -->
<g id="edge7_Node000006_Node000008" class="edge">
<title>Node6&#45;&gt;Node8</title>
<g id="a_edge7_Node000006_Node000008"><a xlink:title=" ">
<path fill="none" stroke="#63b8ff" d="M204.5,-54.98C182.97,-46.34 149.42,-32.87 124.88,-23.02"/>
<polygon fill="#63b8ff" stroke="#63b8ff" points="125.88,-19.65 115.3,-19.17 123.27,-26.14 125.88,-19.65"/>
</a>
</g>
</g>
<!-- Node9&#45;&gt;Node6 -->
<g id="edge11_Node000009_Node000006" class="edge">
<title>Node9&#45;&gt;Node6</title>
<g id="a_edge11_Node000009_Node000006"><a xlink:title=" ">
<path fill="none" stroke="#63b8ff" d="M160.24,-109.98C172.11,-101.92 190.17,-89.65 204.32,-80.03"/>
<polygon fill="#63b8ff" stroke="#63b8ff" points="206.64,-82.69 212.94,-74.17 202.71,-76.9 206.64,-82.69"/>
</a>
</g>
</g>
<!-- Node9&#45;&gt;Node7 -->
<g id="edge12_Node000009_Node000007" class="edge">
<title>Node9&#45;&gt;Node7</title>
<g id="a_edge12_Node000009_Node000007"><a xlink:title=" ">
<path fill="none" stroke="#63b8ff" d="M145.19,-109.95C141.83,-96.57 137.68,-70.58 150.7,-55 169.94,-31.99 252.25,-19.73 303.28,-14.22"/>
<polygon fill="#63b8ff" stroke="#63b8ff" points="303.76,-17.68 313.35,-13.17 303.04,-10.72 303.76,-17.68"/>
</a>
</g>
</g>
<!-- Node9&#45;&gt;Node8 -->
<g id="edge13_Node000009_Node000008" class="edge">
<title>Node9&#45;&gt;Node8</title>
<g id="a_edge13_Node000009_Node000008"><a xlink:title=" ">
<path fill="none" stroke="#63b8ff" d="M140.85,-109.68C134.31,-100.96 124.47,-87.08 117.7,-74 110.18,-59.44 103.74,-41.96 99.44,-29.03"/>
<polygon fill="#63b8ff" stroke="#63b8ff" points="102.74,-27.85 96.35,-19.4 96.07,-29.99 102.74,-27.85"/>
</a>
</g>
</g>
<!-- Node9&#45;&gt;Node10 -->
<g id="edge14_Node000009_Node000010" class="edge">
<title>Node9&#45;&gt;Node10</title>
<g id="a_edge14_Node000009_Node000010"><a xlink:title=" ">
<path fill="none" stroke="#63b8ff" d="M130.19,-109.98C112.74,-101.5 85.7,-88.35 65.53,-78.54"/>
<polygon fill="#63b8ff" stroke="#63b8ff" points="67.06,-75.4 56.54,-74.17 64,-81.69 67.06,-75.4"/>
</a>
</g>
</g>
</g>
</svg>
