<?xml version="1.0" encoding="UTF-8" standalone="no"?>
<!DOCTYPE svg PUBLIC "-//W3C//DTD SVG 1.1//EN"
 "http://www.w3.org/Graphics/SVG/1.1/DTD/svg11.dtd">
<!-- Generated by graphviz version 2.43.0 (0)
 -->
<!-- Title: fuzz/fuzz_direct.c Pages: 1 -->
<!--zoomable 302 -->

<svg id="main" version="1.1" xmlns="http://www.w3.org/2000/svg" xmlns:xlink="http://www.w3.org/1999/xlink" xml:space="preserve" onload="init(evt)">
<style type="text/css"><![CDATA[
.node, .edge {opacity: 0.7;}
.node.selected, .edge.selected {opacity: 1;}
.edge:hover path { stroke: red; }
.edge:hover polygon { stroke: red; fill: red; }
]]></style>

<defs>
  <circle id="rim" cx="0" cy="0" r="7"/>
  <circle id="rim2" cx="0" cy="0" r="3.5"/>
  <g id="zoomPlus">
    <use xlink:href="#rim" fill="#404040"><set attributeName="fill" to="#808080" begin="zoomplus.mouseover" end="zoomplus.mouseout"/></use>
    <path d="M-4,0h8M0,-4v8" fill="none" stroke="white" stroke-width="1.5" pointer-events="none"/>
  </g>
  <g id="zoomMin">
    <use xlink:href="#rim" fill="#404040"><set attributeName="fill" to="#808080" begin="zoomminus.mouseover" end="zoomminus.mouseout"/></use>
    <path d="M-4,0h8" fill="none" stroke="white" stroke-width="1.5" pointer-events="none"/>
  </g>
  <g id="arrowUp" transform="translate(30 24)">
    <use xlink:href="#rim"/>
    <path pointer-events="none" fill="none" stroke="white" stroke-width="1.5" d="M0,-3.0v7 M-2.5,-0.5L0,-3.0L2.5,-0.5"/>
  </g>
  <g id="arrowRight" transform="rotate(90) translate(36 -43)">
    <use xlink:href="#rim"/>
    <path pointer-events="none" fill="none" stroke="white" stroke-width="1.5" d="M0,-3.0v7 M-2.5,-0.5L0,-3.0L2.5,-0.5"/>
  </g>
  <g id="arrowDown" transform="rotate(180) translate(-30 -48)">
    <use xlink:href="#rim"/>
    <path pointer-events="none" fill="none" stroke="white" stroke-width="1.5" d="M0,-3.0v7 M-2.5,-0.5L0,-3.0L2.5,-0.5"/>
  </g>
  <g id="arrowLeft" transform="rotate(270) translate(-36 17)">
    <use xlink:href="#rim"/>
    <path pointer-events="none" fill="none" stroke="white" stroke-width="1.5" d="M0,-3.0v7 M-2.5,-0.5L0,-3.0L2.5,-0.5"/>
  </g>
  <g id="resetDef">
    <use xlink:href="#rim2" fill="#404040"><set attributeName="fill" to="#808080" begin="reset.mouseover" end="reset.mouseout"/></use>
  </g>
</defs>
<script type="application/ecmascript">
var viewWidth = 617;
var viewHeight = 302;
var sectionId = 'dynsection-0';
</script>
<script type="application/ecmascript" xlink:href="svg.min.js"/>
<svg id="graph" class="graph">
<g id="viewport">
<title>fuzz/fuzz_direct.c</title>
<!-- Node1 -->
<g id="Node000001" class="node">
<title>Node1</title>
<g id="a_Node000001"><a xlink:title="Fuzzer target for the Direct Marshalling API generation logic.">
<polygon fill="#999999" stroke="#666666" points="563.18,-294 462.18,-294 462.18,-275 563.18,-275 563.18,-294"/>
<text text-anchor="middle" x="512.68" y="-282" font-family="Helvetica,sans-Serif" font-size="10.00">fuzz/fuzz_direct.c</text>
</a>
</g>
</g>
<!-- Node2 -->
<g id="Node000002" class="node">
<title>Node2</title>
<g id="a_Node000002"><a xlink:href="fuzz__helpers_8h.html" target="_top" xlink:title="Common definitions, structures, and helpers for all fuzzer targets.">
<polygon fill="white" stroke="#666666" points="376.18,-239 289.18,-239 289.18,-220 376.18,-220 376.18,-239"/>
<text text-anchor="middle" x="332.68" y="-227" font-family="Helvetica,sans-Serif" font-size="10.00">fuzz_helpers.h</text>
</a>
</g>
</g>
<!-- Node1&#45;&gt;Node2 -->
<g id="edge1_Node000001_Node000002" class="edge">
<title>Node1&#45;&gt;Node2</title>
<g id="a_edge1_Node000001_Node000002"><a xlink:title=" ">
<path fill="none" stroke="#63b8ff" d="M483.76,-274.98C453.41,-266.05 405.51,-251.94 371.8,-242.02"/>
<polygon fill="#63b8ff" stroke="#63b8ff" points="372.41,-238.55 361.83,-239.08 370.43,-245.26 372.41,-238.55"/>
</a>
</g>
</g>
<!-- Node11 -->
<g id="Node000011" class="node">
<title>Node11</title>
<g id="a_Node000011"><a xlink:title=" ">
<polygon fill="#e0e0e0" stroke="#999999" points="537.68,-184 487.68,-184 487.68,-165 537.68,-165 537.68,-184"/>
<text text-anchor="middle" x="512.68" y="-172" font-family="Helvetica,sans-Serif" font-size="10.00">stdio.h</text>
</a>
</g>
</g>
<!-- Node1&#45;&gt;Node11 -->
<g id="edge22_Node000001_Node000011" class="edge">
<title>Node1&#45;&gt;Node11</title>
<g id="a_edge22_Node000001_Node000011"><a xlink:title=" ">
<path fill="none" stroke="#63b8ff" d="M512.68,-274.66C512.68,-257.17 512.68,-217.8 512.68,-194.27"/>
<polygon fill="#63b8ff" stroke="#63b8ff" points="516.18,-194.16 512.68,-184.16 509.18,-194.16 516.18,-194.16"/>
</a>
</g>
</g>
<!-- Node13 -->
<g id="Node000013" class="node">
<title>Node13</title>
<g id="a_Node000013"><a xlink:title=" ">
<polygon fill="#e0e0e0" stroke="#999999" points="609.18,-184 556.18,-184 556.18,-165 609.18,-165 609.18,-184"/>
<text text-anchor="middle" x="582.68" y="-172" font-family="Helvetica,sans-Serif" font-size="10.00">string.h</text>
</a>
</g>
</g>
<!-- Node1&#45;&gt;Node13 -->
<g id="edge23_Node000001_Node000013" class="edge">
<title>Node1&#45;&gt;Node13</title>
<g id="a_edge23_Node000001_Node000013"><a xlink:title=" ">
<path fill="none" stroke="#63b8ff" d="M518.41,-274.66C530.01,-256.77 556.43,-216 571.54,-192.69"/>
<polygon fill="#63b8ff" stroke="#63b8ff" points="574.57,-194.45 577.07,-184.16 568.7,-190.65 574.57,-194.45"/>
</a>
</g>
</g>
<!-- Node3 -->
<g id="Node000003" class="node">
<title>Node3</title>
<g id="a_Node000003"><a xlink:href="infix__internals_8h.html" target="_top" xlink:title="Internal data structures, function prototypes, and constants.">
<polygon fill="white" stroke="#666666" points="402.68,-184 262.68,-184 262.68,-165 402.68,-165 402.68,-184"/>
<text text-anchor="middle" x="332.68" y="-172" font-family="Helvetica,sans-Serif" font-size="10.00">common/infix_internals.h</text>
</a>
</g>
</g>
<!-- Node2&#45;&gt;Node3 -->
<g id="edge2_Node000002_Node000003" class="edge">
<title>Node2&#45;&gt;Node3</title>
<g id="a_edge2_Node000002_Node000003"><a xlink:title=" ">
<path fill="none" stroke="#63b8ff" d="M332.68,-219.75C332.68,-212.8 332.68,-202.85 332.68,-194.13"/>
<polygon fill="#63b8ff" stroke="#63b8ff" points="336.18,-194.09 332.68,-184.09 329.18,-194.09 336.18,-194.09"/>
</a>
</g>
</g>
<!-- Node7 -->
<g id="Node000007" class="node">
<title>Node7</title>
<g id="a_Node000007"><a xlink:title=" ">
<polygon fill="#e0e0e0" stroke="#999999" points="375.68,-19 313.68,-19 313.68,0 375.68,0 375.68,-19"/>
<text text-anchor="middle" x="344.68" y="-7" font-family="Helvetica,sans-Serif" font-size="10.00">stdbool.h</text>
</a>
</g>
</g>
<!-- Node2&#45;&gt;Node7 -->
<g id="edge16_Node000002_Node000007" class="edge">
<title>Node2&#45;&gt;Node7</title>
<g id="a_edge16_Node000002_Node000007"><a xlink:title=" ">
<path fill="none" stroke="#63b8ff" d="M353.47,-219.96C370.44,-212.29 394.36,-199.81 411.68,-184 451.22,-147.93 455.41,-127.26 460.68,-74 461.52,-65.6 465.47,-61.96 460.68,-55 443.96,-30.68 411.98,-19.64 385.82,-14.64"/>
<polygon fill="#63b8ff" stroke="#63b8ff" points="386.2,-11.15 375.76,-12.95 385.04,-18.06 386.2,-11.15"/>
</a>
</g>
</g>
<!-- Node8 -->
<g id="Node000008" class="node">
<title>Node8</title>
<g id="a_Node000008"><a xlink:title=" ">
<polygon fill="#e0e0e0" stroke="#999999" points="121.68,-19 65.68,-19 65.68,0 121.68,0 121.68,-19"/>
<text text-anchor="middle" x="93.68" y="-7" font-family="Helvetica,sans-Serif" font-size="10.00">stddef.h</text>
</a>
</g>
</g>
<!-- Node2&#45;&gt;Node8 -->
<g id="edge17_Node000002_Node000008" class="edge">
<title>Node2&#45;&gt;Node8</title>
<g id="a_edge17_Node000002_Node000008"><a xlink:title=" ">
<path fill="none" stroke="#63b8ff" d="M289.15,-224.86C211.67,-215.63 53.25,-183.56 2.68,-74 -9.72,-47.13 25.54,-29.64 55.72,-19.95"/>
<polygon fill="#63b8ff" stroke="#63b8ff" points="57.11,-23.19 65.68,-16.96 55.1,-16.48 57.11,-23.19"/>
</a>
</g>
</g>
<!-- Node9 -->
<g id="Node000009" class="node">
<title>Node9</title>
<g id="a_Node000009"><a xlink:href="infix_8h.html" target="_top" xlink:title="The public interface for the infix FFI library.">
<polygon fill="white" stroke="#666666" points="182.18,-129 111.18,-129 111.18,-110 182.18,-110 182.18,-129"/>
<text text-anchor="middle" x="146.68" y="-117" font-family="Helvetica,sans-Serif" font-size="10.00">infix/infix.h</text>
</a>
</g>
</g>
<!-- Node2&#45;&gt;Node9 -->
<g id="edge15_Node000002_Node000009" class="edge">
<title>Node2&#45;&gt;Node9</title>
<g id="a_edge15_Node000002_Node000009"><a xlink:title=" ">
<path fill="none" stroke="#63b8ff" d="M288.88,-224.55C256.31,-219.65 212.36,-208.65 181.68,-184 167.29,-172.44 157.91,-153.29 152.51,-139.04"/>
<polygon fill="#63b8ff" stroke="#63b8ff" points="155.72,-137.61 149.15,-129.3 149.1,-139.9 155.72,-137.61"/>
</a>
</g>
</g>
<!-- Node10 -->
<g id="Node000010" class="node">
<title>Node10</title>
<g id="a_Node000010"><a xlink:title=" ">
<polygon fill="#e0e0e0" stroke="#999999" points="65.18,-74 12.18,-74 12.18,-55 65.18,-55 65.18,-74"/>
<text text-anchor="middle" x="38.68" y="-62" font-family="Helvetica,sans-Serif" font-size="10.00">stdint.h</text>
</a>
</g>
</g>
<!-- Node2&#45;&gt;Node10 -->
<g id="edge18_Node000002_Node000010" class="edge">
<title>Node2&#45;&gt;Node10</title>
<g id="a_edge18_Node000002_Node000010"><a xlink:title=" ">
<path fill="none" stroke="#63b8ff" d="M289.02,-222.93C253.37,-217.04 202.55,-205.52 162.68,-184 114.63,-158.07 71.79,-108.48 51.36,-82.44"/>
<polygon fill="#63b8ff" stroke="#63b8ff" points="53.96,-80.08 45.09,-74.28 48.41,-84.35 53.96,-80.08"/>
</a>
</g>
</g>
<!-- Node2&#45;&gt;Node11 -->
<g id="edge19_Node000002_Node000011" class="edge">
<title>Node2&#45;&gt;Node11</title>
<g id="a_edge19_Node000002_Node000011"><a xlink:title=" ">
<path fill="none" stroke="#63b8ff" d="M361.6,-219.98C393.22,-210.68 443.86,-195.76 477.69,-185.8"/>
<polygon fill="#63b8ff" stroke="#63b8ff" points="479.01,-189.07 487.61,-182.88 477.03,-182.35 479.01,-189.07"/>
</a>
</g>
</g>
<!-- Node12 -->
<g id="Node000012" class="node">
<title>Node12</title>
<g id="a_Node000012"><a xlink:title=" ">
<polygon fill="#e0e0e0" stroke="#999999" points="244.18,-184 191.18,-184 191.18,-165 244.18,-165 244.18,-184"/>
<text text-anchor="middle" x="217.68" y="-172" font-family="Helvetica,sans-Serif" font-size="10.00">stdlib.h</text>
</a>
</g>
</g>
<!-- Node2&#45;&gt;Node12 -->
<g id="edge20_Node000002_Node000012" class="edge">
<title>Node2&#45;&gt;Node12</title>
<g id="a_edge20_Node000002_Node000012"><a xlink:title=" ">
<path fill="none" stroke="#63b8ff" d="M314.21,-219.98C295.71,-211.46 267,-198.23 245.7,-188.41"/>
<polygon fill="#63b8ff" stroke="#63b8ff" points="247.04,-185.18 236.5,-184.17 244.11,-191.53 247.04,-185.18"/>
</a>
</g>
</g>
<!-- Node2&#45;&gt;Node13 -->
<g id="edge21_Node000002_Node000013" class="edge">
<title>Node2&#45;&gt;Node13</title>
<g id="a_edge21_Node000002_Node000013"><a xlink:title=" ">
<path fill="none" stroke="#63b8ff" d="M375.39,-219.97C416.52,-211.68 480.75,-198.52 545.92,-184.12"/>
<polygon fill="#63b8ff" stroke="#63b8ff" points="546.96,-187.48 555.97,-181.89 545.44,-180.64 546.96,-187.48"/>
</a>
</g>
</g>
<!-- Node4 -->
<g id="Node000004" class="node">
<title>Node4</title>
<g id="a_Node000004"><a xlink:href="infix__config_8h.html" target="_top" xlink:title="Platform, architecture, and ABI detection macros.">
<polygon fill="white" stroke="#666666" points="436.18,-74 309.18,-74 309.18,-55 436.18,-55 436.18,-74"/>
<text text-anchor="middle" x="372.68" y="-62" font-family="Helvetica,sans-Serif" font-size="10.00">common/infix_config.h</text>
</a>
</g>
</g>
<!-- Node3&#45;&gt;Node4 -->
<g id="edge3_Node000003_Node000004" class="edge">
<title>Node3&#45;&gt;Node4</title>
<g id="a_edge3_Node000003_Node000004"><a xlink:title=" ">
<path fill="none" stroke="#63b8ff" d="M327.42,-164.89C320.46,-152.31 310.01,-128.38 318.68,-110 324.7,-97.26 336.35,-86.92 347.29,-79.44"/>
<polygon fill="#63b8ff" stroke="#63b8ff" points="349.22,-82.36 355.79,-74.05 345.47,-76.44 349.22,-82.36"/>
</a>
</g>
</g>
<!-- Node5 -->
<g id="Node000005" class="node">
<title>Node5</title>
<g id="a_Node000005"><a xlink:href="platform_8h.html" target="_top" xlink:title="Declares internal, runtime CPU/OS feature detection functions.">
<polygon fill="white" stroke="#666666" points="441.18,-129 328.18,-129 328.18,-110 441.18,-110 441.18,-129"/>
<text text-anchor="middle" x="384.68" y="-117" font-family="Helvetica,sans-Serif" font-size="10.00">common/platform.h</text>
</a>
</g>
</g>
<!-- Node3&#45;&gt;Node5 -->
<g id="edge4_Node000003_Node000005" class="edge">
<title>Node3&#45;&gt;Node5</title>
<g id="a_edge4_Node000003_Node000005"><a xlink:title=" ">
<path fill="none" stroke="#63b8ff" d="M341.27,-164.75C348.84,-157.03 360.06,-145.6 369.2,-136.28"/>
<polygon fill="#63b8ff" stroke="#63b8ff" points="371.75,-138.68 376.26,-129.09 366.75,-133.78 371.75,-138.68"/>
</a>
</g>
</g>
<!-- Node3&#45;&gt;Node9 -->
<g id="edge10_Node000003_Node000009" class="edge">
<title>Node3&#45;&gt;Node9</title>
<g id="a_edge10_Node000003_Node000009"><a xlink:title=" ">
<path fill="none" stroke="#63b8ff" d="M302.8,-164.98C271.3,-156.01 221.52,-141.82 186.66,-131.89"/>
<polygon fill="#63b8ff" stroke="#63b8ff" points="187.38,-128.46 176.8,-129.08 185.46,-135.19 187.38,-128.46"/>
</a>
</g>
</g>
<!-- Node5&#45;&gt;Node4 -->
<g id="edge8_Node000005_Node000004" class="edge">
<title>Node5&#45;&gt;Node4</title>
<g id="a_edge8_Node000005_Node000004"><a xlink:title=" ">
<path fill="none" stroke="#63b8ff" d="M382.7,-109.75C381.11,-102.72 378.82,-92.62 376.84,-83.84"/>
<polygon fill="#63b8ff" stroke="#63b8ff" points="380.25,-83.07 374.63,-74.09 373.42,-84.62 380.25,-83.07"/>
</a>
</g>
</g>
<!-- Node6 -->
<g id="Node000006" class="node">
<title>Node6</title>
<g id="a_Node000006"><a xlink:href="compat__c23_8h.html" target="_top" xlink:title="Provides forward compatibility macros for C23 features.">
<polygon fill="white" stroke="#666666" points="291.18,-74 160.18,-74 160.18,-55 291.18,-55 291.18,-74"/>
<text text-anchor="middle" x="225.68" y="-62" font-family="Helvetica,sans-Serif" font-size="10.00">common/compat_c23.h</text>
</a>
</g>
</g>
<!-- Node5&#45;&gt;Node6 -->
<g id="edge5_Node000005_Node000006" class="edge">
<title>Node5&#45;&gt;Node6</title>
<g id="a_edge5_Node000005_Node000006"><a xlink:title=" ">
<path fill="none" stroke="#63b8ff" d="M359.14,-109.98C332.56,-101.13 290.75,-87.19 261.01,-77.28"/>
<polygon fill="#63b8ff" stroke="#63b8ff" points="262.02,-73.92 251.43,-74.08 259.81,-80.56 262.02,-73.92"/>
</a>
</g>
</g>
<!-- Node5&#45;&gt;Node7 -->
<g id="edge9_Node000005_Node000007" class="edge">
<title>Node5&#45;&gt;Node7</title>
<g id="a_edge9_Node000005_Node000007"><a xlink:title=" ">
<path fill="none" stroke="#63b8ff" d="M403.63,-109.94C426.17,-98.51 459.06,-77.13 444.68,-55 431.64,-34.91 407.2,-23.82 385.75,-17.73"/>
<polygon fill="#63b8ff" stroke="#63b8ff" points="386.39,-14.28 375.84,-15.2 384.66,-21.07 386.39,-14.28"/>
</a>
</g>
</g>
<!-- Node6&#45;&gt;Node7 -->
<g id="edge6_Node000006_Node000007" class="edge">
<title>Node6&#45;&gt;Node7</title>
<g id="a_edge6_Node000006_Node000007"><a xlink:title=" ">
<path fill="none" stroke="#63b8ff" d="M244.8,-54.98C264.03,-46.42 293.92,-33.11 315.99,-23.28"/>
<polygon fill="#63b8ff" stroke="#63b8ff" points="317.51,-26.44 325.22,-19.17 314.66,-20.04 317.51,-26.44"/>
</a>
</g>
</g>
<!-- Node6&#45;&gt;Node8 -->
<g id="edge7_Node000006_Node000008" class="edge">
<title>Node6&#45;&gt;Node8</title>
<g id="a_edge7_Node000006_Node000008"><a xlink:title=" ">
<path fill="none" stroke="#63b8ff" d="M204.48,-54.98C182.95,-46.34 149.4,-32.87 124.86,-23.02"/>
<polygon fill="#63b8ff" stroke="#63b8ff" points="125.86,-19.65 115.28,-19.17 123.25,-26.14 125.86,-19.65"/>
</a>
</g>
</g>
<!-- Node9&#45;&gt;Node6 -->
<g id="edge11_Node000009_Node000006" class="edge">
<title>Node9&#45;&gt;Node6</title>
<g id="a_edge11_Node000009_Node000006"><a xlink:title=" ">
<path fill="none" stroke="#63b8ff" d="M159.38,-109.98C171.51,-101.84 190.04,-89.41 204.43,-79.76"/>
<polygon fill="#63b8ff" stroke="#63b8ff" points="206.41,-82.65 212.76,-74.17 202.51,-76.84 206.41,-82.65"/>
</a>
</g>
</g>
<!-- Node9&#45;&gt;Node7 -->
<g id="edge12_Node000009_Node000007" class="edge">
<title>Node9&#45;&gt;Node7</title>
<g id="a_edge12_Node000009_Node000007"><a xlink:title=" ">
<path fill="none" stroke="#63b8ff" d="M144.33,-109.93C141.22,-96.52 137.53,-70.49 150.68,-55 170.09,-32.15 252.34,-19.83 303.31,-14.26"/>
<polygon fill="#63b8ff" stroke="#63b8ff" points="303.79,-17.73 313.37,-13.21 303.06,-10.77 303.79,-17.73"/>
</a>
</g>
</g>
<!-- Node9&#45;&gt;Node8 -->
<g id="edge13_Node000009_Node000008" class="edge">
<title>Node9&#45;&gt;Node8</title>
<g id="a_edge13_Node000009_Node000008"><a xlink:title=" ">
<path fill="none" stroke="#63b8ff" d="M140.32,-109.97C134.02,-101.25 124.36,-87.16 117.68,-74 110.27,-59.38 103.83,-41.91 99.49,-29"/>
<polygon fill="#63b8ff" stroke="#63b8ff" points="102.79,-27.81 96.37,-19.38 96.13,-29.97 102.79,-27.81"/>
</a>
</g>
</g>
<!-- Node9&#45;&gt;Node10 -->
<g id="edge14_Node000009_Node000010" class="edge">
<title>Node9&#45;&gt;Node10</title>
<g id="a_edge14_Node000009_Node000010"><a xlink:title=" ">
<path fill="none" stroke="#63b8ff" d="M129.33,-109.98C112.11,-101.54 85.49,-88.47 65.54,-78.68"/>
<polygon fill="#63b8ff" stroke="#63b8ff" points="66.87,-75.43 56.35,-74.17 63.79,-81.72 66.87,-75.43"/>
</a>
</g>
</g>
</g>
</svg>

<g id="navigator" transform="translate(0 0)" fill="#404254">
  <rect fill="#f2f5e9" fill-opacity="0.5" stroke="#606060" stroke-width=".5" x="0" y="0" width="60" height="60"/>
  <use id="zoomplus" xlink:href="#zoomPlus" x="17" y="9" onmousedown="handleZoom(evt,'in')"/>
  <use id="zoomminus" xlink:href="#zoomMin" x="42" y="9" onmousedown="handleZoom(evt,'out')"/>
  <use id="reset" xlink:href="#resetDef" x="30" y="36" onmousedown="handleReset()"/>
   <use id="arrowup" xlink:href="#arrowUp" x="0" y="0" onmousedown="handlePan(0,-1)"/>
  <use id="arrowright" xlink:href="#arrowRight" x="0" y="0" onmousedown="handlePan(1,0)"/>
  <use id="arrowdown" xlink:href="#arrowDown" x="0" y="0" onmousedown="handlePan(0,1)"/>
  <use id="arrowleft" xlink:href="#arrowLeft" x="0" y="0" onmousedown="handlePan(-1,0)"/>
</g>
<svg viewBox="0 0 15 15" width="100%" height="30px" preserveAspectRatio="xMaxYMin meet">
 <g id="arrow_out" transform="scale(0.3 0.3)">
  <a xlink:href="fuzz__direct_8c__incl_org.svg" target="_base">
   <rect id="button" ry="5" rx="5" y="6" x="6" height="38" width="38"
        fill="#f2f5e9" fill-opacity="0.5" stroke="#606060" stroke-width="1.0"/>
   <path id="arrow"
     d="M 11.500037,31.436501 C 11.940474,20.09759 22.043105,11.32322 32.158766,21.979434 L 37.068811,17.246167 C 37.068811,17.246167 37.088388,32 37.088388,32 L 22.160133,31.978069 C 22.160133,31.978069 26.997745,27.140456 26.997745,27.140456 C 18.528582,18.264221 13.291696,25.230495 11.500037,31.436501 z"
     style="fill:#404040;"/>
  </a>
 </g>
</svg>

<style type='text/css'>
<![CDATA[
[data-mouse-over-selected='false'] { opacity: 0.7; }
[data-mouse-over-selected='true']  { opacity: 1.0; }
]]>
</style>
<script type="application/ecmascript"><![CDATA[
document.addEventListener('DOMContentLoaded', (event) => {
  highlightEdges();
  highlightAdjacentNodes();
});
]]></script>
</svg>
