<?xml version="1.0" encoding="UTF-8" standalone="no"?>
<!DOCTYPE svg PUBLIC "-//W3C//DTD SVG 1.1//EN"
 "http://www.w3.org/Graphics/SVG/1.1/DTD/svg11.dtd">
<!-- Generated by graphviz version 2.43.0 (0)
 -->
<!-- Title: fuzz/fuzz_roundtrip.c Pages: 1 -->
<svg width="576pt" height="357pt"
 viewBox="0.00 0.00 576.00 357.00" xmlns="http://www.w3.org/2000/svg" xmlns:xlink="http://www.w3.org/1999/xlink">
<g id="graph0" class="graph" transform="scale(1 1) rotate(0) translate(4 353)">
<title>fuzz/fuzz_roundtrip.c</title>
<!-- Node1 -->
<g id="Node000001" class="node">
<title>Node1</title>
<g id="a_Node000001"><a xlink:title="Fuzzer target for Type &#45;&gt; String &#45;&gt; Type round&#45;trip consistency.">
<polygon fill="#999999" stroke="#666666" points="529.5,-349 411.5,-349 411.5,-330 529.5,-330 529.5,-349"/>
<text text-anchor="middle" x="470.5" y="-337" font-family="Helvetica,sans-Serif" font-size="10.00">fuzz/fuzz_roundtrip.c</text>
</a>
</g>
</g>
<!-- Node2 -->
<g id="Node000002" class="node">
<title>Node2</title>
<g id="a_Node000002"><a xlink:href="fuzz__helpers_8h.html" target="_top" xlink:title="Common definitions, structures, and helpers for all fuzzer targets.">
<polygon fill="white" stroke="#666666" points="349,-294 262,-294 262,-275 349,-275 349,-294"/>
<text text-anchor="middle" x="305.5" y="-282" font-family="Helvetica,sans-Serif" font-size="10.00">fuzz_helpers.h</text>
</a>
</g>
</g>
<!-- Node1&#45;&gt;Node2 -->
<g id="edge1_Node000001_Node000002" class="edge">
<title>Node1&#45;&gt;Node2</title>
<g id="a_edge1_Node000001_Node000002"><a xlink:title=" ">
<path fill="none" stroke="#63b8ff" d="M443.99,-329.98C416.29,-321.09 372.64,-307.07 341.76,-297.15"/>
<polygon fill="#63b8ff" stroke="#63b8ff" points="342.81,-293.81 332.22,-294.08 340.67,-300.47 342.81,-293.81"/>
</a>
</g>
</g>
<!-- Node13 -->
<g id="Node000013" class="node">
<title>Node13</title>
<g id="a_Node000013"><a xlink:title=" ">
<polygon fill="#e0e0e0" stroke="#999999" points="497,-239 444,-239 444,-220 497,-220 497,-239"/>
<text text-anchor="middle" x="470.5" y="-227" font-family="Helvetica,sans-Serif" font-size="10.00">stdlib.h</text>
</a>
</g>
</g>
<!-- Node1&#45;&gt;Node13 -->
<g id="edge24_Node000001_Node000013" class="edge">
<title>Node1&#45;&gt;Node13</title>
<g id="a_edge24_Node000001_Node000013"><a xlink:title=" ">
<path fill="none" stroke="#63b8ff" d="M470.5,-329.66C470.5,-312.17 470.5,-272.8 470.5,-249.27"/>
<polygon fill="#63b8ff" stroke="#63b8ff" points="474,-249.16 470.5,-239.16 467,-249.16 474,-249.16"/>
</a>
</g>
</g>
<!-- Node14 -->
<g id="Node000014" class="node">
<title>Node14</title>
<g id="a_Node000014"><a xlink:title=" ">
<polygon fill="#e0e0e0" stroke="#999999" points="568,-239 515,-239 515,-220 568,-220 568,-239"/>
<text text-anchor="middle" x="541.5" y="-227" font-family="Helvetica,sans-Serif" font-size="10.00">string.h</text>
</a>
</g>
</g>
<!-- Node1&#45;&gt;Node14 -->
<g id="edge25_Node000001_Node000014" class="edge">
<title>Node1&#45;&gt;Node14</title>
<g id="a_edge25_Node000001_Node000014"><a xlink:title=" ">
<path fill="none" stroke="#63b8ff" d="M476.31,-329.66C488.07,-311.77 514.87,-271 530.2,-247.69"/>
<polygon fill="#63b8ff" stroke="#63b8ff" points="533.24,-249.44 535.81,-239.16 527.39,-245.59 533.24,-249.44"/>
</a>
</g>
</g>
<!-- Node3 -->
<g id="Node000003" class="node">
<title>Node3</title>
<g id="a_Node000003"><a xlink:href="infix__internals_8h.html" target="_top" xlink:title="Internal data structures, function prototypes, and constants.">
<polygon fill="white" stroke="#666666" points="375.5,-239 235.5,-239 235.5,-220 375.5,-220 375.5,-239"/>
<text text-anchor="middle" x="305.5" y="-227" font-family="Helvetica,sans-Serif" font-size="10.00">common/infix_internals.h</text>
</a>
</g>
</g>
<!-- Node2&#45;&gt;Node3 -->
<g id="edge2_Node000002_Node000003" class="edge">
<title>Node2&#45;&gt;Node3</title>
<g id="a_edge2_Node000002_Node000003"><a xlink:title=" ">
<path fill="none" stroke="#63b8ff" d="M305.5,-274.75C305.5,-267.8 305.5,-257.85 305.5,-249.13"/>
<polygon fill="#63b8ff" stroke="#63b8ff" points="309,-249.09 305.5,-239.09 302,-249.09 309,-249.09"/>
</a>
</g>
</g>
<!-- Node7 -->
<g id="Node000007" class="node">
<title>Node7</title>
<g id="a_Node000007"><a xlink:href="infix_8h.html" target="_top" xlink:title="The public interface for the infix FFI library.">
<polygon fill="white" stroke="#666666" points="151,-74 80,-74 80,-55 151,-55 151,-74"/>
<text text-anchor="middle" x="115.5" y="-62" font-family="Helvetica,sans-Serif" font-size="10.00">infix/infix.h</text>
</a>
</g>
</g>
<!-- Node2&#45;&gt;Node7 -->
<g id="edge17_Node000002_Node000007" class="edge">
<title>Node2&#45;&gt;Node7</title>
<g id="a_edge17_Node000002_Node000007"><a xlink:title=" ">
<path fill="none" stroke="#63b8ff" d="M261.72,-280.56C229.41,-276.18 186.38,-265.4 158.5,-239 114.98,-197.8 112.65,-120.04 114.13,-84.31"/>
<polygon fill="#63b8ff" stroke="#63b8ff" points="117.63,-84.47 114.7,-74.29 110.64,-84.08 117.63,-84.47"/>
</a>
</g>
</g>
<!-- Node8 -->
<g id="Node000008" class="node">
<title>Node8</title>
<g id="a_Node000008"><a xlink:title=" ">
<polygon fill="#e0e0e0" stroke="#999999" points="267.5,-19 205.5,-19 205.5,0 267.5,0 267.5,-19"/>
<text text-anchor="middle" x="236.5" y="-7" font-family="Helvetica,sans-Serif" font-size="10.00">stdbool.h</text>
</a>
</g>
</g>
<!-- Node2&#45;&gt;Node8 -->
<g id="edge18_Node000002_Node000008" class="edge">
<title>Node2&#45;&gt;Node8</title>
<g id="a_edge18_Node000002_Node000008"><a xlink:title=" ">
<path fill="none" stroke="#63b8ff" d="M332.57,-274.86C350.01,-267.9 371.74,-256.38 384.5,-239 433.77,-171.9 470.94,-120.45 419.5,-55 402.23,-33.03 326.42,-20.56 277.95,-14.7"/>
<polygon fill="#63b8ff" stroke="#63b8ff" points="278.1,-11.19 267.76,-13.51 277.29,-18.14 278.1,-11.19"/>
</a>
</g>
</g>
<!-- Node9 -->
<g id="Node000009" class="node">
<title>Node9</title>
<g id="a_Node000009"><a xlink:title=" ">
<polygon fill="#e0e0e0" stroke="#999999" points="143.5,-19 87.5,-19 87.5,0 143.5,0 143.5,-19"/>
<text text-anchor="middle" x="115.5" y="-7" font-family="Helvetica,sans-Serif" font-size="10.00">stddef.h</text>
</a>
</g>
</g>
<!-- Node2&#45;&gt;Node9 -->
<g id="edge19_Node000002_Node000009" class="edge">
<title>Node2&#45;&gt;Node9</title>
<g id="a_edge19_Node000002_Node000009"><a xlink:title=" ">
<path fill="none" stroke="#63b8ff" d="M261.86,-284.11C188.04,-282.6 46.5,-267.7 46.5,-175.5 46.5,-175.5 46.5,-175.5 46.5,-118.5 46.5,-88.33 54.06,-80.3 70.5,-55 77.56,-44.14 87.66,-33.84 96.51,-25.89"/>
<polygon fill="#63b8ff" stroke="#63b8ff" points="98.86,-28.48 104.15,-19.31 94.29,-23.18 98.86,-28.48"/>
</a>
</g>
</g>
<!-- Node10 -->
<g id="Node000010" class="node">
<title>Node10</title>
<g id="a_Node000010"><a xlink:title=" ">
<polygon fill="#e0e0e0" stroke="#999999" points="53,-19 0,-19 0,0 53,0 53,-19"/>
<text text-anchor="middle" x="26.5" y="-7" font-family="Helvetica,sans-Serif" font-size="10.00">stdint.h</text>
</a>
</g>
</g>
<!-- Node2&#45;&gt;Node10 -->
<g id="edge20_Node000002_Node000010" class="edge">
<title>Node2&#45;&gt;Node10</title>
<g id="a_edge20_Node000002_Node000010"><a xlink:title=" ">
<path fill="none" stroke="#63b8ff" d="M261.9,-279.23C200.93,-272.64 93.93,-258.69 60.5,-239 29.07,-220.49 8.5,-211.98 8.5,-175.5 8.5,-175.5 8.5,-175.5 8.5,-118.5 8.5,-86.61 16.23,-50.14 21.56,-28.78"/>
<polygon fill="#63b8ff" stroke="#63b8ff" points="24.95,-29.66 24.07,-19.1 18.17,-27.9 24.95,-29.66"/>
</a>
</g>
</g>
<!-- Node12 -->
<g id="Node000012" class="node">
<title>Node12</title>
<g id="a_Node000012"><a xlink:title=" ">
<polygon fill="#e0e0e0" stroke="#999999" points="217.5,-239 167.5,-239 167.5,-220 217.5,-220 217.5,-239"/>
<text text-anchor="middle" x="192.5" y="-227" font-family="Helvetica,sans-Serif" font-size="10.00">stdio.h</text>
</a>
</g>
</g>
<!-- Node2&#45;&gt;Node12 -->
<g id="edge21_Node000002_Node000012" class="edge">
<title>Node2&#45;&gt;Node12</title>
<g id="a_edge21_Node000002_Node000012"><a xlink:title=" ">
<path fill="none" stroke="#63b8ff" d="M287.34,-274.98C269.25,-266.5 241.22,-253.35 220.31,-243.54"/>
<polygon fill="#63b8ff" stroke="#63b8ff" points="221.53,-240.25 210.99,-239.17 218.55,-246.59 221.53,-240.25"/>
</a>
</g>
</g>
<!-- Node2&#45;&gt;Node13 -->
<g id="edge22_Node000002_Node000013" class="edge">
<title>Node2&#45;&gt;Node13</title>
<g id="a_edge22_Node000002_Node000013"><a xlink:title=" ">
<path fill="none" stroke="#63b8ff" d="M332.01,-274.98C359.71,-266.09 403.36,-252.07 434.24,-242.15"/>
<polygon fill="#63b8ff" stroke="#63b8ff" points="435.33,-245.47 443.78,-239.08 433.19,-238.81 435.33,-245.47"/>
</a>
</g>
</g>
<!-- Node2&#45;&gt;Node14 -->
<g id="edge23_Node000002_Node000014" class="edge">
<title>Node2&#45;&gt;Node14</title>
<g id="a_edge23_Node000002_Node000014"><a xlink:title=" ">
<path fill="none" stroke="#63b8ff" d="M344.62,-274.95C382.92,-266.55 443.17,-253.24 504.86,-239.12"/>
<polygon fill="#63b8ff" stroke="#63b8ff" points="505.81,-242.5 514.77,-236.85 504.24,-235.67 505.81,-242.5"/>
</a>
</g>
</g>
<!-- Node4 -->
<g id="Node000004" class="node">
<title>Node4</title>
<g id="a_Node000004"><a xlink:href="infix__config_8h.html" target="_top" xlink:title="Platform, architecture, and ABI detection macros.">
<polygon fill="white" stroke="#666666" points="411,-74 284,-74 284,-55 411,-55 411,-74"/>
<text text-anchor="middle" x="347.5" y="-62" font-family="Helvetica,sans-Serif" font-size="10.00">common/infix_config.h</text>
</a>
</g>
</g>
<!-- Node3&#45;&gt;Node4 -->
<g id="edge3_Node000003_Node000004" class="edge">
<title>Node3&#45;&gt;Node4</title>
<g id="a_edge3_Node000003_Node000004"><a xlink:title=" ">
<path fill="none" stroke="#63b8ff" d="M327.62,-219.95C342.7,-212.82 361.51,-201.06 370.5,-184 387.78,-151.23 370.23,-107.23 357.71,-83.12"/>
<polygon fill="#63b8ff" stroke="#63b8ff" points="360.65,-81.18 352.77,-74.09 354.51,-84.55 360.65,-81.18"/>
</a>
</g>
</g>
<!-- Node5 -->
<g id="Node000005" class="node">
<title>Node5</title>
<g id="a_Node000005"><a xlink:href="platform_8h.html" target="_top" xlink:title="Declares internal, runtime CPU/OS feature detection functions.">
<polygon fill="white" stroke="#666666" points="362,-184 249,-184 249,-165 362,-165 362,-184"/>
<text text-anchor="middle" x="305.5" y="-172" font-family="Helvetica,sans-Serif" font-size="10.00">common/platform.h</text>
</a>
</g>
</g>
<!-- Node3&#45;&gt;Node5 -->
<g id="edge4_Node000003_Node000005" class="edge">
<title>Node3&#45;&gt;Node5</title>
<g id="a_edge4_Node000003_Node000005"><a xlink:title=" ">
<path fill="none" stroke="#63b8ff" d="M305.5,-219.75C305.5,-212.8 305.5,-202.85 305.5,-194.13"/>
<polygon fill="#63b8ff" stroke="#63b8ff" points="309,-194.09 305.5,-184.09 302,-194.09 309,-194.09"/>
</a>
</g>
</g>
<!-- Node3&#45;&gt;Node7 -->
<g id="edge15_Node000003_Node000007" class="edge">
<title>Node3&#45;&gt;Node7</title>
<g id="a_edge15_Node000003_Node000007"><a xlink:title=" ">
<path fill="none" stroke="#63b8ff" d="M235.12,-220.76C208.29,-214.61 179.21,-203.62 158.5,-184 130.13,-157.12 120.41,-110.08 117.13,-84.09"/>
<polygon fill="#63b8ff" stroke="#63b8ff" points="120.61,-83.63 116.06,-74.06 113.65,-84.38 120.61,-83.63"/>
</a>
</g>
</g>
<!-- Node11 -->
<g id="Node000011" class="node">
<title>Node11</title>
<g id="a_Node000011"><a xlink:title=" ">
<polygon fill="#e0e0e0" stroke="#999999" points="231,-184 168,-184 168,-165 231,-165 231,-184"/>
<text text-anchor="middle" x="199.5" y="-172" font-family="Helvetica,sans-Serif" font-size="10.00">pthread.h</text>
</a>
</g>
</g>
<!-- Node3&#45;&gt;Node11 -->
<g id="edge16_Node000003_Node000011" class="edge">
<title>Node3&#45;&gt;Node11</title>
<g id="a_edge16_Node000003_Node000011"><a xlink:title=" ">
<path fill="none" stroke="#63b8ff" d="M288.47,-219.98C271.57,-211.54 245.44,-198.47 225.86,-188.68"/>
<polygon fill="#63b8ff" stroke="#63b8ff" points="227.35,-185.51 216.84,-184.17 224.22,-191.77 227.35,-185.51"/>
</a>
</g>
</g>
<!-- Node5&#45;&gt;Node4 -->
<g id="edge13_Node000005_Node000004" class="edge">
<title>Node5&#45;&gt;Node4</title>
<g id="a_edge13_Node000005_Node000004"><a xlink:title=" ">
<path fill="none" stroke="#63b8ff" d="M309.43,-164.7C313.38,-155.76 319.57,-141.5 324.5,-129 330.48,-113.83 336.75,-96.4 341.23,-83.65"/>
<polygon fill="#63b8ff" stroke="#63b8ff" points="344.54,-84.78 344.53,-74.19 337.93,-82.48 344.54,-84.78"/>
</a>
</g>
</g>
<!-- Node6 -->
<g id="Node000006" class="node">
<title>Node6</title>
<g id="a_Node000006"><a xlink:href="compat__c23_8h.html" target="_top" xlink:title="Provides forward compatibility macros for C23 features.">
<polygon fill="white" stroke="#666666" points="282,-129 151,-129 151,-110 282,-110 282,-129"/>
<text text-anchor="middle" x="216.5" y="-117" font-family="Helvetica,sans-Serif" font-size="10.00">common/compat_c23.h</text>
</a>
</g>
</g>
<!-- Node5&#45;&gt;Node6 -->
<g id="edge5_Node000005_Node000006" class="edge">
<title>Node5&#45;&gt;Node6</title>
<g id="a_edge5_Node000005_Node000006"><a xlink:title=" ">
<path fill="none" stroke="#63b8ff" d="M291.2,-164.98C277.4,-156.77 256.26,-144.18 239.99,-134.49"/>
<polygon fill="#63b8ff" stroke="#63b8ff" points="241.44,-131.28 231.06,-129.17 237.86,-137.29 241.44,-131.28"/>
</a>
</g>
</g>
<!-- Node5&#45;&gt;Node8 -->
<g id="edge14_Node000005_Node000008" class="edge">
<title>Node5&#45;&gt;Node8</title>
<g id="a_edge14_Node000005_Node000008"><a xlink:title=" ">
<path fill="none" stroke="#63b8ff" d="M304.17,-164.65C302.13,-152.18 297.69,-128.84 290.5,-110 278.93,-79.68 259.82,-47.08 247.71,-27.76"/>
<polygon fill="#63b8ff" stroke="#63b8ff" points="250.57,-25.73 242.24,-19.17 244.66,-29.49 250.57,-25.73"/>
</a>
</g>
</g>
<!-- Node6&#45;&gt;Node4 -->
<g id="edge6_Node000006_Node000004" class="edge">
<title>Node6&#45;&gt;Node4</title>
<g id="a_edge6_Node000006_Node000004"><a xlink:title=" ">
<path fill="none" stroke="#63b8ff" d="M237.55,-109.98C258.91,-101.34 292.2,-87.87 316.56,-78.02"/>
<polygon fill="#63b8ff" stroke="#63b8ff" points="318.11,-81.17 326.07,-74.17 315.49,-74.68 318.11,-81.17"/>
</a>
</g>
</g>
<!-- Node6&#45;&gt;Node7 -->
<g id="edge7_Node000006_Node000007" class="edge">
<title>Node6&#45;&gt;Node7</title>
<g id="a_edge7_Node000006_Node000007"><a xlink:title=" ">
<path fill="none" stroke="#63b8ff" d="M200.27,-109.98C184.32,-101.61 159.72,-88.7 141.12,-78.95"/>
<polygon fill="#63b8ff" stroke="#63b8ff" points="142.5,-75.72 132.02,-74.17 139.25,-81.92 142.5,-75.72"/>
</a>
</g>
</g>
<!-- Node6&#45;&gt;Node8 -->
<g id="edge11_Node000006_Node000008" class="edge">
<title>Node6&#45;&gt;Node8</title>
<g id="a_edge11_Node000006_Node000008"><a xlink:title=" ">
<path fill="none" stroke="#63b8ff" d="M218.14,-109.66C221.38,-92.17 228.67,-52.8 233.02,-29.27"/>
<polygon fill="#63b8ff" stroke="#63b8ff" points="236.52,-29.63 234.9,-19.16 229.63,-28.35 236.52,-29.63"/>
</a>
</g>
</g>
<!-- Node6&#45;&gt;Node9 -->
<g id="edge12_Node000006_Node000009" class="edge">
<title>Node6&#45;&gt;Node9</title>
<g id="a_edge12_Node000006_Node000009"><a xlink:title=" ">
<path fill="none" stroke="#63b8ff" d="M208.89,-109.75C198.08,-97.4 177.58,-74.19 159.5,-55 150.47,-45.41 140.12,-34.92 131.73,-26.54"/>
<polygon fill="#63b8ff" stroke="#63b8ff" points="133.95,-23.81 124.39,-19.24 129.02,-28.78 133.95,-23.81"/>
</a>
</g>
</g>
<!-- Node7&#45;&gt;Node8 -->
<g id="edge8_Node000007_Node000008" class="edge">
<title>Node7&#45;&gt;Node8</title>
<g id="a_edge8_Node000007_Node000008"><a xlink:title=" ">
<path fill="none" stroke="#63b8ff" d="M134.94,-54.98C154.49,-46.42 184.88,-33.11 207.32,-23.28"/>
<polygon fill="#63b8ff" stroke="#63b8ff" points="208.95,-26.39 216.71,-19.17 206.14,-19.98 208.95,-26.39"/>
</a>
</g>
</g>
<!-- Node7&#45;&gt;Node9 -->
<g id="edge9_Node000007_Node000009" class="edge">
<title>Node7&#45;&gt;Node9</title>
<g id="a_edge9_Node000007_Node000009"><a xlink:title=" ">
<path fill="none" stroke="#63b8ff" d="M115.5,-54.75C115.5,-47.8 115.5,-37.85 115.5,-29.13"/>
<polygon fill="#63b8ff" stroke="#63b8ff" points="119,-29.09 115.5,-19.09 112,-29.09 119,-29.09"/>
</a>
</g>
</g>
<!-- Node7&#45;&gt;Node10 -->
<g id="edge10_Node000007_Node000010" class="edge">
<title>Node7&#45;&gt;Node10</title>
<g id="a_edge10_Node000007_Node000010"><a xlink:title=" ">
<path fill="none" stroke="#63b8ff" d="M101.2,-54.98C87.4,-46.77 66.26,-34.18 49.99,-24.49"/>
<polygon fill="#63b8ff" stroke="#63b8ff" points="51.44,-21.28 41.06,-19.17 47.86,-27.29 51.44,-21.28"/>
</a>
</g>
</g>
</g>
</svg>
