<?xml version="1.0" encoding="UTF-8" standalone="no"?>
<!DOCTYPE svg PUBLIC "-//W3C//DTD SVG 1.1//EN"
 "http://www.w3.org/Graphics/SVG/1.1/DTD/svg11.dtd">
<!-- Generated by graphviz version 2.43.0 (0)
 -->
<!-- Title: fuzz/fuzz_signature.c Pages: 1 -->
<!--zoomable 357 -->

<svg id="main" version="1.1" xmlns="http://www.w3.org/2000/svg" xmlns:xlink="http://www.w3.org/1999/xlink" xml:space="preserve" onload="init(evt)">
<style type="text/css"><![CDATA[
.node, .edge {opacity: 0.7;}
.node.selected, .edge.selected {opacity: 1;}
.edge:hover path { stroke: red; }
.edge:hover polygon { stroke: red; fill: red; }
]]></style>

<defs>
  <circle id="rim" cx="0" cy="0" r="7"/>
  <circle id="rim2" cx="0" cy="0" r="3.5"/>
  <g id="zoomPlus">
    <use xlink:href="#rim" fill="#404040"><set attributeName="fill" to="#808080" begin="zoomplus.mouseover" end="zoomplus.mouseout"/></use>
    <path d="M-4,0h8M0,-4v8" fill="none" stroke="white" stroke-width="1.5" pointer-events="none"/>
  </g>
  <g id="zoomMin">
    <use xlink:href="#rim" fill="#404040"><set attributeName="fill" to="#808080" begin="zoomminus.mouseover" end="zoomminus.mouseout"/></use>
    <path d="M-4,0h8" fill="none" stroke="white" stroke-width="1.5" pointer-events="none"/>
  </g>
  <g id="arrowUp" transform="translate(30 24)">
    <use xlink:href="#rim"/>
    <path pointer-events="none" fill="none" stroke="white" stroke-width="1.5" d="M0,-3.0v7 M-2.5,-0.5L0,-3.0L2.5,-0.5"/>
  </g>
  <g id="arrowRight" transform="rotate(90) translate(36 -43)">
    <use xlink:href="#rim"/>
    <path pointer-events="none" fill="none" stroke="white" stroke-width="1.5" d="M0,-3.0v7 M-2.5,-0.5L0,-3.0L2.5,-0.5"/>
  </g>
  <g id="arrowDown" transform="rotate(180) translate(-30 -48)">
    <use xlink:href="#rim"/>
    <path pointer-events="none" fill="none" stroke="white" stroke-width="1.5" d="M0,-3.0v7 M-2.5,-0.5L0,-3.0L2.5,-0.5"/>
  </g>
  <g id="arrowLeft" transform="rotate(270) translate(-36 17)">
    <use xlink:href="#rim"/>
    <path pointer-events="none" fill="none" stroke="white" stroke-width="1.5" d="M0,-3.0v7 M-2.5,-0.5L0,-3.0L2.5,-0.5"/>
  </g>
  <g id="resetDef">
    <use xlink:href="#rim2" fill="#404040"><set attributeName="fill" to="#808080" begin="reset.mouseover" end="reset.mouseout"/></use>
  </g>
</defs>
<script type="application/ecmascript">
var viewWidth = 605;
var viewHeight = 357;
var sectionId = 'dynsection-0';
</script>
<script type="application/ecmascript" xlink:href="svg.min.js"/>
<svg id="graph" class="graph">
<g id="viewport">
<title>fuzz/fuzz_signature.c</title>
<!-- Node1 -->
<g id="Node000001" class="node">
<title>Node1</title>
<g id="a_Node000001"><a xlink:title="Fuzzer target for the high&#45;level signature parsing API.">
<polygon fill="#999999" stroke="#666666" points="453.5,-349 334.5,-349 334.5,-330 453.5,-330 453.5,-349"/>
<text text-anchor="middle" x="394" y="-337" font-family="Helvetica,sans-Serif" font-size="10.00">fuzz/fuzz_signature.c</text>
</a>
</g>
</g>
<!-- Node2 -->
<g id="Node000002" class="node">
<title>Node2</title>
<g id="a_Node000002"><a xlink:href="infix_8h.html" target="_top" xlink:title="The public interface for the infix FFI library.">
<polygon fill="white" stroke="#666666" points="213.5,-74 142.5,-74 142.5,-55 213.5,-55 213.5,-74"/>
<text text-anchor="middle" x="178" y="-62" font-family="Helvetica,sans-Serif" font-size="10.00">infix/infix.h</text>
</a>
</g>
</g>
<!-- Node1&#45;&gt;Node2 -->
<g id="edge1_Node000001_Node000002" class="edge">
<title>Node1&#45;&gt;Node2</title>
<g id="a_edge1_Node000001_Node000002"><a xlink:title=" ">
<path fill="none" stroke="#63b8ff" d="M334.19,-330.63C242.07,-316.82 76,-284.43 76,-230.5 76,-230.5 76,-230.5 76,-173.5 76,-129.56 121.18,-96.27 151.4,-78.92"/>
<polygon fill="#63b8ff" stroke="#63b8ff" points="153.16,-81.94 160.23,-74.05 149.79,-75.81 153.16,-81.94"/>
</a>
</g>
</g>
<!-- Node4 -->
<g id="Node000004" class="node">
<title>Node4</title>
<g id="a_Node000004"><a xlink:title=" ">
<polygon fill="#e0e0e0" stroke="#999999" points="442,-19 386,-19 386,0 442,0 442,-19"/>
<text text-anchor="middle" x="414" y="-7" font-family="Helvetica,sans-Serif" font-size="10.00">stddef.h</text>
</a>
</g>
</g>
<!-- Node1&#45;&gt;Node4 -->
<g id="edge5_Node000001_Node000004" class="edge">
<title>Node1&#45;&gt;Node4</title>
<g id="a_edge5_Node000001_Node000004"><a xlink:title=" ">
<path fill="none" stroke="#63b8ff" d="M453.54,-332.09C513.43,-321.96 597,-296.07 597,-230.5 597,-230.5 597,-230.5 597,-118.5 597,-51.78 505.68,-25.43 452.06,-15.71"/>
<polygon fill="#63b8ff" stroke="#63b8ff" points="452.64,-12.26 442.19,-14.03 451.46,-19.16 452.64,-12.26"/>
</a>
</g>
</g>
<!-- Node5 -->
<g id="Node000005" class="node">
<title>Node5</title>
<g id="a_Node000005"><a xlink:title=" ">
<polygon fill="#e0e0e0" stroke="#999999" points="64.5,-19 11.5,-19 11.5,0 64.5,0 64.5,-19"/>
<text text-anchor="middle" x="38" y="-7" font-family="Helvetica,sans-Serif" font-size="10.00">stdint.h</text>
</a>
</g>
</g>
<!-- Node1&#45;&gt;Node5 -->
<g id="edge6_Node000001_Node000005" class="edge">
<title>Node1&#45;&gt;Node5</title>
<g id="a_edge6_Node000001_Node000005"><a xlink:title=" ">
<path fill="none" stroke="#63b8ff" d="M334.16,-334.53C223.94,-325.57 0,-298.94 0,-230.5 0,-230.5 0,-230.5 0,-118.5 0,-85.02 16.45,-48.84 27.7,-28.01"/>
<polygon fill="#63b8ff" stroke="#63b8ff" points="30.87,-29.53 32.72,-19.1 24.76,-26.1 30.87,-29.53"/>
</a>
</g>
</g>
<!-- Node6 -->
<g id="Node000006" class="node">
<title>Node6</title>
<g id="a_Node000006"><a xlink:title=" ">
<polygon fill="#e0e0e0" stroke="#999999" points="497.5,-239 444.5,-239 444.5,-220 497.5,-220 497.5,-239"/>
<text text-anchor="middle" x="471" y="-227" font-family="Helvetica,sans-Serif" font-size="10.00">stdlib.h</text>
</a>
</g>
</g>
<!-- Node1&#45;&gt;Node6 -->
<g id="edge7_Node000001_Node000006" class="edge">
<title>Node1&#45;&gt;Node6</title>
<g id="a_edge7_Node000001_Node000006"><a xlink:title=" ">
<path fill="none" stroke="#63b8ff" d="M400.3,-329.66C413.11,-311.69 442.38,-270.64 458.96,-247.38"/>
<polygon fill="#63b8ff" stroke="#63b8ff" points="461.87,-249.33 464.83,-239.16 456.17,-245.27 461.87,-249.33"/>
</a>
</g>
</g>
<!-- Node7 -->
<g id="Node000007" class="node">
<title>Node7</title>
<g id="a_Node000007"><a xlink:title=" ">
<polygon fill="#e0e0e0" stroke="#999999" points="568.5,-239 515.5,-239 515.5,-220 568.5,-220 568.5,-239"/>
<text text-anchor="middle" x="542" y="-227" font-family="Helvetica,sans-Serif" font-size="10.00">string.h</text>
</a>
</g>
</g>
<!-- Node1&#45;&gt;Node7 -->
<g id="edge8_Node000001_Node000007" class="edge">
<title>Node1&#45;&gt;Node7</title>
<g id="a_edge8_Node000001_Node000007"><a xlink:title=" ">
<path fill="none" stroke="#63b8ff" d="M405.86,-329.84C431.08,-311.44 490.29,-268.23 521.67,-245.34"/>
<polygon fill="#63b8ff" stroke="#63b8ff" points="524.07,-247.92 530.08,-239.2 519.94,-242.26 524.07,-247.92"/>
</a>
</g>
</g>
<!-- Node8 -->
<g id="Node000008" class="node">
<title>Node8</title>
<g id="a_Node000008"><a xlink:href="fuzz__helpers_8h.html" target="_top" xlink:title="Common definitions, structures, and helpers for all fuzzer targets.">
<polygon fill="white" stroke="#666666" points="361.5,-294 274.5,-294 274.5,-275 361.5,-275 361.5,-294"/>
<text text-anchor="middle" x="318" y="-282" font-family="Helvetica,sans-Serif" font-size="10.00">fuzz_helpers.h</text>
</a>
</g>
</g>
<!-- Node1&#45;&gt;Node8 -->
<g id="edge9_Node000001_Node000008" class="edge">
<title>Node1&#45;&gt;Node8</title>
<g id="a_edge9_Node000001_Node000008"><a xlink:title=" ">
<path fill="none" stroke="#63b8ff" d="M381.79,-329.98C370.22,-321.92 352.62,-309.65 338.84,-300.03"/>
<polygon fill="#63b8ff" stroke="#63b8ff" points="340.64,-297.02 330.43,-294.17 336.63,-302.76 340.64,-297.02"/>
</a>
</g>
</g>
<!-- Node3 -->
<g id="Node000003" class="node">
<title>Node3</title>
<g id="a_Node000003"><a xlink:title=" ">
<polygon fill="#e0e0e0" stroke="#999999" points="241,-19 179,-19 179,0 241,0 241,-19"/>
<text text-anchor="middle" x="210" y="-7" font-family="Helvetica,sans-Serif" font-size="10.00">stdbool.h</text>
</a>
</g>
</g>
<!-- Node2&#45;&gt;Node3 -->
<g id="edge2_Node000002_Node000003" class="edge">
<title>Node2&#45;&gt;Node3</title>
<g id="a_edge2_Node000002_Node000003"><a xlink:title=" ">
<path fill="none" stroke="#63b8ff" d="M183.28,-54.75C187.71,-47.42 194.16,-36.73 199.62,-27.7"/>
<polygon fill="#63b8ff" stroke="#63b8ff" points="202.64,-29.46 204.81,-19.09 196.65,-25.84 202.64,-29.46"/>
</a>
</g>
</g>
<!-- Node2&#45;&gt;Node4 -->
<g id="edge3_Node000002_Node000004" class="edge">
<title>Node2&#45;&gt;Node4</title>
<g id="a_edge3_Node000002_Node000004"><a xlink:title=" ">
<path fill="none" stroke="#63b8ff" d="M213.59,-55.51C257.31,-45.69 331.18,-29.1 375.99,-19.04"/>
<polygon fill="#63b8ff" stroke="#63b8ff" points="376.91,-22.42 385.9,-16.81 375.38,-15.59 376.91,-22.42"/>
</a>
</g>
</g>
<!-- Node2&#45;&gt;Node5 -->
<g id="edge4_Node000002_Node000005" class="edge">
<title>Node2&#45;&gt;Node5</title>
<g id="a_edge4_Node000002_Node000005"><a xlink:title=" ">
<path fill="none" stroke="#63b8ff" d="M155.51,-54.98C132.48,-46.27 96.46,-32.63 70.37,-22.75"/>
<polygon fill="#63b8ff" stroke="#63b8ff" points="71.49,-19.44 60.9,-19.17 69.02,-25.98 71.49,-19.44"/>
</a>
</g>
</g>
<!-- Node8&#45;&gt;Node2 -->
<g id="edge22_Node000008_Node000002" class="edge">
<title>Node8&#45;&gt;Node2</title>
<g id="a_edge22_Node000008_Node000002"><a xlink:title=" ">
<path fill="none" stroke="#63b8ff" d="M295.36,-274.94C263.25,-261.36 206.05,-231.45 185,-184 170.42,-151.15 172.46,-108.07 175.24,-83.94"/>
<polygon fill="#63b8ff" stroke="#63b8ff" points="178.71,-84.39 176.55,-74.01 171.77,-83.47 178.71,-84.39"/>
</a>
</g>
</g>
<!-- Node8&#45;&gt;Node3 -->
<g id="edge23_Node000008_Node000003" class="edge">
<title>Node8&#45;&gt;Node3</title>
<g id="a_edge23_Node000008_Node000003"><a xlink:title=" ">
<path fill="none" stroke="#63b8ff" d="M274.16,-278.04C226.09,-271.2 153.09,-258.02 133,-239 111.61,-218.75 114,-204.96 114,-175.5 114,-175.5 114,-175.5 114,-118.5 114,-89.04 114.74,-78.11 133,-55 144.18,-40.85 161.18,-30.36 176.36,-23.12"/>
<polygon fill="#63b8ff" stroke="#63b8ff" points="177.81,-26.31 185.52,-19.03 174.96,-19.91 177.81,-26.31"/>
</a>
</g>
</g>
<!-- Node8&#45;&gt;Node4 -->
<g id="edge24_Node000008_Node000004" class="edge">
<title>Node8&#45;&gt;Node4</title>
<g id="a_edge24_Node000008_Node000004"><a xlink:title=" ">
<path fill="none" stroke="#63b8ff" d="M338.07,-274.99C368.61,-260.92 426.14,-229.72 454,-184 484.8,-133.47 515.98,-106.6 487,-55 478.89,-40.56 463.99,-30.26 449.75,-23.22"/>
<polygon fill="#63b8ff" stroke="#63b8ff" points="451.12,-20 440.57,-19.06 448.23,-26.38 451.12,-20"/>
</a>
</g>
</g>
<!-- Node8&#45;&gt;Node5 -->
<g id="edge25_Node000008_Node000005" class="edge">
<title>Node8&#45;&gt;Node5</title>
<g id="a_edge25_Node000008_Node000005"><a xlink:title=" ">
<path fill="none" stroke="#63b8ff" d="M274.47,-279.94C231.99,-275.11 166.43,-264.01 115,-239 75.11,-219.6 38,-219.86 38,-175.5 38,-175.5 38,-175.5 38,-118.5 38,-87.19 38,-50.77 38,-29.23"/>
<polygon fill="#63b8ff" stroke="#63b8ff" points="41.5,-29.18 38,-19.18 34.5,-29.18 41.5,-29.18"/>
</a>
</g>
</g>
<!-- Node8&#45;&gt;Node6 -->
<g id="edge27_Node000008_Node000006" class="edge">
<title>Node8&#45;&gt;Node6</title>
<g id="a_edge27_Node000008_Node000006"><a xlink:title=" ">
<path fill="none" stroke="#63b8ff" d="M342.58,-274.98C368.05,-266.16 408.04,-252.31 436.63,-242.41"/>
<polygon fill="#63b8ff" stroke="#63b8ff" points="437.92,-245.66 446.23,-239.08 435.63,-239.05 437.92,-245.66"/>
</a>
</g>
</g>
<!-- Node8&#45;&gt;Node7 -->
<g id="edge28_Node000008_Node000007" class="edge">
<title>Node8&#45;&gt;Node7</title>
<g id="a_edge28_Node000008_Node000007"><a xlink:title=" ">
<path fill="none" stroke="#63b8ff" d="M354.6,-274.96C390.61,-266.55 447.41,-253.22 505.21,-239.42"/>
<polygon fill="#63b8ff" stroke="#63b8ff" points="506.34,-242.75 515.25,-237.02 504.71,-235.94 506.34,-242.75"/>
</a>
</g>
</g>
<!-- Node9 -->
<g id="Node000009" class="node">
<title>Node9</title>
<g id="a_Node000009"><a xlink:href="infix__internals_8h.html" target="_top" xlink:title="Internal data structures, function prototypes, and constants.">
<polygon fill="white" stroke="#666666" points="388,-239 248,-239 248,-220 388,-220 388,-239"/>
<text text-anchor="middle" x="318" y="-227" font-family="Helvetica,sans-Serif" font-size="10.00">common/infix_internals.h</text>
</a>
</g>
</g>
<!-- Node8&#45;&gt;Node9 -->
<g id="edge10_Node000008_Node000009" class="edge">
<title>Node8&#45;&gt;Node9</title>
<g id="a_edge10_Node000008_Node000009"><a xlink:title=" ">
<path fill="none" stroke="#63b8ff" d="M318,-274.75C318,-267.8 318,-257.85 318,-249.13"/>
<polygon fill="#63b8ff" stroke="#63b8ff" points="321.5,-249.09 318,-239.09 314.5,-249.09 321.5,-249.09"/>
</a>
</g>
</g>
<!-- Node14 -->
<g id="Node000014" class="node">
<title>Node14</title>
<g id="a_Node000014"><a xlink:title=" ">
<polygon fill="#e0e0e0" stroke="#999999" points="192,-239 142,-239 142,-220 192,-220 192,-239"/>
<text text-anchor="middle" x="167" y="-227" font-family="Helvetica,sans-Serif" font-size="10.00">stdio.h</text>
</a>
</g>
</g>
<!-- Node8&#45;&gt;Node14 -->
<g id="edge26_Node000008_Node000014" class="edge">
<title>Node8&#45;&gt;Node14</title>
<g id="a_edge26_Node000008_Node000014"><a xlink:title=" ">
<path fill="none" stroke="#63b8ff" d="M293.74,-274.98C268.68,-266.19 229.37,-252.39 201.17,-242.49"/>
<polygon fill="#63b8ff" stroke="#63b8ff" points="202.3,-239.18 191.7,-239.17 199.98,-245.78 202.3,-239.18"/>
</a>
</g>
</g>
<!-- Node9&#45;&gt;Node2 -->
<g id="edge20_Node000009_Node000002" class="edge">
<title>Node9&#45;&gt;Node2</title>
<g id="a_edge20_Node000009_Node000002"><a xlink:title=" ">
<path fill="none" stroke="#63b8ff" d="M311.59,-220C302.08,-207.54 283.47,-183.78 266,-165 250.15,-147.97 243.68,-146.18 228,-129 214.17,-113.84 199.82,-95.28 190.06,-82.15"/>
<polygon fill="#63b8ff" stroke="#63b8ff" points="192.84,-80.02 184.1,-74.03 187.2,-84.17 192.84,-80.02"/>
</a>
</g>
</g>
<!-- Node10 -->
<g id="Node000010" class="node">
<title>Node10</title>
<g id="a_Node000010"><a xlink:href="infix__config_8h.html" target="_top" xlink:title="Platform, architecture, and ABI detection macros.">
<polygon fill="white" stroke="#666666" points="477.5,-74 350.5,-74 350.5,-55 477.5,-55 477.5,-74"/>
<text text-anchor="middle" x="414" y="-62" font-family="Helvetica,sans-Serif" font-size="10.00">common/infix_config.h</text>
</a>
</g>
</g>
<!-- Node9&#45;&gt;Node10 -->
<g id="edge11_Node000009_Node000010" class="edge">
<title>Node9&#45;&gt;Node10</title>
<g id="a_edge11_Node000009_Node000010"><a xlink:title=" ">
<path fill="none" stroke="#63b8ff" d="M379.39,-219.96C400.93,-213.69 422.99,-202.82 436,-184 457.24,-153.3 438.19,-107.83 424.69,-83.09"/>
<polygon fill="#63b8ff" stroke="#63b8ff" points="427.56,-81.07 419.55,-74.14 421.49,-84.56 427.56,-81.07"/>
</a>
</g>
</g>
<!-- Node11 -->
<g id="Node000011" class="node">
<title>Node11</title>
<g id="a_Node000011"><a xlink:href="platform_8h.html" target="_top" xlink:title="Declares internal, runtime CPU/OS feature detection functions.">
<polygon fill="white" stroke="#666666" points="427.5,-184 314.5,-184 314.5,-165 427.5,-165 427.5,-184"/>
<text text-anchor="middle" x="371" y="-172" font-family="Helvetica,sans-Serif" font-size="10.00">common/platform.h</text>
</a>
</g>
</g>
<!-- Node9&#45;&gt;Node11 -->
<g id="edge12_Node000009_Node000011" class="edge">
<title>Node9&#45;&gt;Node11</title>
<g id="a_edge12_Node000009_Node000011"><a xlink:title=" ">
<path fill="none" stroke="#63b8ff" d="M326.75,-219.75C334.47,-212.03 345.9,-200.6 355.22,-191.28"/>
<polygon fill="#63b8ff" stroke="#63b8ff" points="357.81,-193.64 362.41,-184.09 352.86,-188.69 357.81,-193.64"/>
</a>
</g>
</g>
<!-- Node13 -->
<g id="Node000013" class="node">
<title>Node13</title>
<g id="a_Node000013"><a xlink:title=" ">
<polygon fill="#e0e0e0" stroke="#999999" points="257.5,-184 194.5,-184 194.5,-165 257.5,-165 257.5,-184"/>
<text text-anchor="middle" x="226" y="-172" font-family="Helvetica,sans-Serif" font-size="10.00">pthread.h</text>
</a>
</g>
</g>
<!-- Node9&#45;&gt;Node13 -->
<g id="edge21_Node000009_Node000013" class="edge">
<title>Node9&#45;&gt;Node13</title>
<g id="a_edge21_Node000009_Node000013"><a xlink:title=" ">
<path fill="none" stroke="#63b8ff" d="M303.22,-219.98C288.82,-211.69 266.69,-198.94 249.81,-189.22"/>
<polygon fill="#63b8ff" stroke="#63b8ff" points="251.46,-186.13 241.05,-184.17 247.97,-192.19 251.46,-186.13"/>
</a>
</g>
</g>
<!-- Node11&#45;&gt;Node3 -->
<g id="edge19_Node000011_Node000003" class="edge">
<title>Node11&#45;&gt;Node3</title>
<g id="a_edge19_Node000011_Node000003"><a xlink:title=" ">
<path fill="none" stroke="#63b8ff" d="M329.6,-164.93C306.92,-158.39 279.7,-147.3 261,-129 246.09,-114.42 225.89,-58.35 215.98,-28.87"/>
<polygon fill="#63b8ff" stroke="#63b8ff" points="219.18,-27.41 212.72,-19.01 212.54,-29.6 219.18,-27.41"/>
</a>
</g>
</g>
<!-- Node11&#45;&gt;Node10 -->
<g id="edge18_Node000011_Node000010" class="edge">
<title>Node11&#45;&gt;Node10</title>
<g id="a_edge18_Node000011_Node000010"><a xlink:title=" ">
<path fill="none" stroke="#63b8ff" d="M381.77,-164.9C391.08,-156.76 403.97,-143.62 410,-129 415.86,-114.78 416.53,-97.25 415.92,-84.21"/>
<polygon fill="#63b8ff" stroke="#63b8ff" points="419.4,-83.81 415.16,-74.11 412.42,-84.34 419.4,-83.81"/>
</a>
</g>
</g>
<!-- Node12 -->
<g id="Node000012" class="node">
<title>Node12</title>
<g id="a_Node000012"><a xlink:href="compat__c23_8h.html" target="_top" xlink:title="Provides forward compatibility macros for C23 features.">
<polygon fill="white" stroke="#666666" points="401.5,-129 270.5,-129 270.5,-110 401.5,-110 401.5,-129"/>
<text text-anchor="middle" x="336" y="-117" font-family="Helvetica,sans-Serif" font-size="10.00">common/compat_c23.h</text>
</a>
</g>
</g>
<!-- Node11&#45;&gt;Node12 -->
<g id="edge13_Node000011_Node000012" class="edge">
<title>Node11&#45;&gt;Node12</title>
<g id="a_edge13_Node000011_Node000012"><a xlink:title=" ">
<path fill="none" stroke="#63b8ff" d="M365.22,-164.75C360.38,-157.42 353.32,-146.73 347.36,-137.7"/>
<polygon fill="#63b8ff" stroke="#63b8ff" points="350.1,-135.5 341.67,-129.09 344.26,-139.36 350.1,-135.5"/>
</a>
</g>
</g>
<!-- Node12&#45;&gt;Node2 -->
<g id="edge15_Node000012_Node000002" class="edge">
<title>Node12&#45;&gt;Node2</title>
<g id="a_edge15_Node000012_Node000002"><a xlink:title=" ">
<path fill="none" stroke="#63b8ff" d="M310.61,-109.98C284.2,-101.13 242.65,-87.19 213.11,-77.28"/>
<polygon fill="#63b8ff" stroke="#63b8ff" points="214.18,-73.94 203.58,-74.08 211.95,-80.58 214.18,-73.94"/>
</a>
</g>
</g>
<!-- Node12&#45;&gt;Node3 -->
<g id="edge16_Node000012_Node000003" class="edge">
<title>Node12&#45;&gt;Node3</title>
<g id="a_edge16_Node000012_Node000003"><a xlink:title=" ">
<path fill="none" stroke="#63b8ff" d="M325.69,-109.66C304.26,-91.3 254.7,-48.81 227.93,-25.87"/>
<polygon fill="#63b8ff" stroke="#63b8ff" points="229.97,-23.01 220.1,-19.16 225.42,-28.32 229.97,-23.01"/>
</a>
</g>
</g>
<!-- Node12&#45;&gt;Node4 -->
<g id="edge17_Node000012_Node000004" class="edge">
<title>Node12&#45;&gt;Node4</title>
<g id="a_edge17_Node000012_Node000004"><a xlink:title=" ">
<path fill="none" stroke="#63b8ff" d="M334.37,-109.95C332.38,-97.01 330.46,-72.15 341,-55 349.8,-40.68 365.09,-30.33 379.41,-23.23"/>
<polygon fill="#63b8ff" stroke="#63b8ff" points="380.96,-26.37 388.6,-19.02 378.05,-20 380.96,-26.37"/>
</a>
</g>
</g>
<!-- Node12&#45;&gt;Node10 -->
<g id="edge14_Node000012_Node000010" class="edge">
<title>Node12&#45;&gt;Node10</title>
<g id="a_edge14_Node000012_Node000010"><a xlink:title=" ">
<path fill="none" stroke="#63b8ff" d="M348.53,-109.98C360.4,-101.92 378.46,-89.65 392.61,-80.03"/>
<polygon fill="#63b8ff" stroke="#63b8ff" points="394.94,-82.69 401.24,-74.17 391,-76.9 394.94,-82.69"/>
</a>
</g>
</g>
</g>
</svg>

<g id="navigator" transform="translate(0 0)" fill="#404254">
  <rect fill="#f2f5e9" fill-opacity="0.5" stroke="#606060" stroke-width=".5" x="0" y="0" width="60" height="60"/>
  <use id="zoomplus" xlink:href="#zoomPlus" x="17" y="9" onmousedown="handleZoom(evt,'in')"/>
  <use id="zoomminus" xlink:href="#zoomMin" x="42" y="9" onmousedown="handleZoom(evt,'out')"/>
  <use id="reset" xlink:href="#resetDef" x="30" y="36" onmousedown="handleReset()"/>
   <use id="arrowup" xlink:href="#arrowUp" x="0" y="0" onmousedown="handlePan(0,-1)"/>
  <use id="arrowright" xlink:href="#arrowRight" x="0" y="0" onmousedown="handlePan(1,0)"/>
  <use id="arrowdown" xlink:href="#arrowDown" x="0" y="0" onmousedown="handlePan(0,1)"/>
  <use id="arrowleft" xlink:href="#arrowLeft" x="0" y="0" onmousedown="handlePan(-1,0)"/>
</g>
<svg viewBox="0 0 15 15" width="100%" height="30px" preserveAspectRatio="xMaxYMin meet">
 <g id="arrow_out" transform="scale(0.3 0.3)">
  <a xlink:href="fuzz__signature_8c__incl_org.svg" target="_base">
   <rect id="button" ry="5" rx="5" y="6" x="6" height="38" width="38"
        fill="#f2f5e9" fill-opacity="0.5" stroke="#606060" stroke-width="1.0"/>
   <path id="arrow"
     d="M 11.500037,31.436501 C 11.940474,20.09759 22.043105,11.32322 32.158766,21.979434 L 37.068811,17.246167 C 37.068811,17.246167 37.088388,32 37.088388,32 L 22.160133,31.978069 C 22.160133,31.978069 26.997745,27.140456 26.997745,27.140456 C 18.528582,18.264221 13.291696,25.230495 11.500037,31.436501 z"
     style="fill:#404040;"/>
  </a>
 </g>
</svg>

<style type='text/css'>
<![CDATA[
[data-mouse-over-selected='false'] { opacity: 0.7; }
[data-mouse-over-selected='true']  { opacity: 1.0; }
]]>
</style>
<script type="application/ecmascript"><![CDATA[
document.addEventListener('DOMContentLoaded', (event) => {
  highlightEdges();
  highlightAdjacentNodes();
});
]]></script>
</svg>
