<?xml version="1.0" encoding="UTF-8" standalone="no"?>
<!DOCTYPE svg PUBLIC "-//W3C//DTD SVG 1.1//EN"
 "http://www.w3.org/Graphics/SVG/1.1/DTD/svg11.dtd">
<!-- Generated by graphviz version 2.43.0 (0)
 -->
<!-- Title: fuzz/fuzz_helpers.h Pages: 1 -->
<svg width="1039pt" height="82pt"
 viewBox="0.00 0.00 1039.00 82.00" xmlns="http://www.w3.org/2000/svg" xmlns:xlink="http://www.w3.org/1999/xlink">
<g id="graph0" class="graph" transform="scale(1 1) rotate(0) translate(4 78)">
<title>fuzz/fuzz_helpers.h</title>
<!-- Node1 -->
<g id="Node000001" class="node">
<title>Node1</title>
<g id="a_Node000001"><a xlink:title="Common definitions, structures, and helpers for all fuzzer targets.">
<polygon fill="#999999" stroke="#666666" points="536.5,-74 426.5,-74 426.5,-55 536.5,-55 536.5,-74"/>
<text text-anchor="middle" x="481.5" y="-62" font-family="Helvetica,sans-Serif" font-size="10.00">fuzz/fuzz_helpers.h</text>
</a>
</g>
</g>
<!-- Node2 -->
<g id="Node000002" class="node">
<title>Node2</title>
<g id="a_Node000002"><a xlink:href="fuzz__abi_8c.html" target="_top" xlink:title="Fuzzer target for the ABI classification layer.">
<polygon fill="white" stroke="#666666" points="89,-19 0,-19 0,0 89,0 89,-19"/>
<text text-anchor="middle" x="44.5" y="-7" font-family="Helvetica,sans-Serif" font-size="10.00">fuzz/fuzz_abi.c</text>
</a>
</g>
</g>
<!-- Node1&#45;&gt;Node2 -->
<g id="edge1_Node000001_Node000002" class="edge">
<title>Node1&#45;&gt;Node2</title>
<g id="a_edge1_Node000001_Node000002"><a xlink:title=" ">
<path fill="none" stroke="#63b8ff" d="M416.43,-56.84C339.97,-48.8 209.32,-34.44 97.5,-19 94.73,-18.62 91.88,-18.21 89.01,-17.78"/>
<polygon fill="#63b8ff" stroke="#63b8ff" points="416.09,-60.32 426.4,-57.88 416.82,-53.36 416.09,-60.32"/>
</a>
</g>
</g>
<!-- Node3 -->
<g id="Node000003" class="node">
<title>Node3</title>
<g id="a_Node000003"><a xlink:href="fuzz__direct_8c.html" target="_top" xlink:title="Fuzzer target for the Direct Marshalling API generation logic.">
<polygon fill="white" stroke="#666666" points="208,-19 107,-19 107,0 208,0 208,-19"/>
<text text-anchor="middle" x="157.5" y="-7" font-family="Helvetica,sans-Serif" font-size="10.00">fuzz/fuzz_direct.c</text>
</a>
</g>
</g>
<!-- Node1&#45;&gt;Node3 -->
<g id="edge2_Node000001_Node000003" class="edge">
<title>Node1&#45;&gt;Node3</title>
<g id="a_edge2_Node000001_Node000003"><a xlink:title=" ">
<path fill="none" stroke="#63b8ff" d="M419.49,-53.36C358.08,-43.31 265.19,-28.12 208.09,-18.78"/>
<polygon fill="#63b8ff" stroke="#63b8ff" points="419.01,-56.82 429.44,-54.98 420.14,-49.92 419.01,-56.82"/>
</a>
</g>
</g>
<!-- Node4 -->
<g id="Node000004" class="node">
<title>Node4</title>
<g id="a_Node000004"><a xlink:href="fuzz__helpers_8c.html" target="_top" xlink:title="Implements the core logic for generating random infix_type graphs from fuzzer input.">
<polygon fill="white" stroke="#666666" points="336.5,-19 226.5,-19 226.5,0 336.5,0 336.5,-19"/>
<text text-anchor="middle" x="281.5" y="-7" font-family="Helvetica,sans-Serif" font-size="10.00">fuzz/fuzz_helpers.c</text>
</a>
</g>
</g>
<!-- Node1&#45;&gt;Node4 -->
<g id="edge3_Node000001_Node000004" class="edge">
<title>Node1&#45;&gt;Node4</title>
<g id="a_edge3_Node000001_Node000004"><a xlink:title=" ">
<path fill="none" stroke="#63b8ff" d="M439.28,-52.31C401.85,-42.39 348,-28.12 313.89,-19.08"/>
<polygon fill="#63b8ff" stroke="#63b8ff" points="438.8,-55.81 449.37,-54.98 440.6,-49.04 438.8,-55.81"/>
</a>
</g>
</g>
<!-- Node5 -->
<g id="Node000005" class="node">
<title>Node5</title>
<g id="a_Node000005"><a xlink:href="fuzz__roundtrip_8c.html" target="_top" xlink:title="Fuzzer target for Type &#45;&gt; String &#45;&gt; Type round&#45;trip consistency.">
<polygon fill="white" stroke="#666666" points="472.5,-19 354.5,-19 354.5,0 472.5,0 472.5,-19"/>
<text text-anchor="middle" x="413.5" y="-7" font-family="Helvetica,sans-Serif" font-size="10.00">fuzz/fuzz_roundtrip.c</text>
</a>
</g>
</g>
<!-- Node1&#45;&gt;Node5 -->
<g id="edge4_Node000001_Node000005" class="edge">
<title>Node1&#45;&gt;Node5</title>
<g id="a_edge4_Node000001_Node000005"><a xlink:title=" ">
<path fill="none" stroke="#63b8ff" d="M462.38,-48.6C450.2,-39.11 434.84,-27.13 424.62,-19.17"/>
<polygon fill="#63b8ff" stroke="#63b8ff" points="460.54,-51.6 470.57,-54.98 464.84,-46.08 460.54,-51.6"/>
</a>
</g>
</g>
<!-- Node6 -->
<g id="Node000006" class="node">
<title>Node6</title>
<g id="a_Node000006"><a xlink:href="fuzz__signature_8c.html" target="_top" xlink:title="Fuzzer target for the high&#45;level signature parsing API.">
<polygon fill="white" stroke="#666666" points="610,-19 491,-19 491,0 610,0 610,-19"/>
<text text-anchor="middle" x="550.5" y="-7" font-family="Helvetica,sans-Serif" font-size="10.00">fuzz/fuzz_signature.c</text>
</a>
</g>
</g>
<!-- Node1&#45;&gt;Node6 -->
<g id="edge5_Node000001_Node000006" class="edge">
<title>Node1&#45;&gt;Node6</title>
<g id="a_edge5_Node000001_Node000006"><a xlink:title=" ">
<path fill="none" stroke="#63b8ff" d="M500.54,-48.88C512.96,-39.34 528.74,-27.21 539.21,-19.17"/>
<polygon fill="#63b8ff" stroke="#63b8ff" points="498.38,-46.12 492.59,-54.98 502.65,-51.67 498.38,-46.12"/>
</a>
</g>
</g>
<!-- Node7 -->
<g id="Node000007" class="node">
<title>Node7</title>
<g id="a_Node000007"><a xlink:href="fuzz__trampoline_8c.html" target="_top" xlink:title="Fuzzer target for the trampoline generation functions, including shared arena logic.">
<polygon fill="white" stroke="#666666" points="755,-19 628,-19 628,0 755,0 755,-19"/>
<text text-anchor="middle" x="691.5" y="-7" font-family="Helvetica,sans-Serif" font-size="10.00">fuzz/fuzz_trampoline.c</text>
</a>
</g>
</g>
<!-- Node1&#45;&gt;Node7 -->
<g id="edge6_Node000001_Node000007" class="edge">
<title>Node1&#45;&gt;Node7</title>
<g id="a_edge6_Node000001_Node000007"><a xlink:title=" ">
<path fill="none" stroke="#63b8ff" d="M525.08,-52.5C564.4,-42.58 621.45,-28.18 657.5,-19.08"/>
<polygon fill="#63b8ff" stroke="#63b8ff" points="524.08,-49.14 515.24,-54.98 525.79,-55.93 524.08,-49.14"/>
</a>
</g>
</g>
<!-- Node8 -->
<g id="Node000008" class="node">
<title>Node8</title>
<g id="a_Node000008"><a xlink:href="fuzz__types_8c.html" target="_top" xlink:title="Fuzzer target for the random type generation logic.">
<polygon fill="white" stroke="#666666" points="874,-19 773,-19 773,0 874,0 874,-19"/>
<text text-anchor="middle" x="823.5" y="-7" font-family="Helvetica,sans-Serif" font-size="10.00">fuzz/fuzz_types.c</text>
</a>
</g>
</g>
<!-- Node1&#45;&gt;Node8 -->
<g id="edge7_Node000001_Node000008" class="edge">
<title>Node1&#45;&gt;Node8</title>
<g id="a_edge7_Node000001_Node000008"><a xlink:title=" ">
<path fill="none" stroke="#63b8ff" d="M546.71,-53.4C612.53,-43.19 712.8,-27.65 772.87,-18.35"/>
<polygon fill="#63b8ff" stroke="#63b8ff" points="545.79,-49.99 536.45,-54.98 546.87,-56.91 545.79,-49.99"/>
</a>
</g>
</g>
<!-- Node9 -->
<g id="Node000009" class="node">
<title>Node9</title>
<g id="a_Node000009"><a xlink:href="850__regression__cases_8c.html" target="_top" xlink:title="A suite of regression tests for bugs discovered by fuzzing.">
<polygon fill="white" stroke="#666666" points="1031,-19 892,-19 892,0 1031,0 1031,-19"/>
<text text-anchor="middle" x="961.5" y="-7" font-family="Helvetica,sans-Serif" font-size="10.00">t/850_regression_cases.c</text>
</a>
</g>
</g>
<!-- Node1&#45;&gt;Node9 -->
<g id="edge8_Node000001_Node000009" class="edge">
<title>Node1&#45;&gt;Node9</title>
<g id="a_edge8_Node000001_Node000009"><a xlink:title=" ">
<path fill="none" stroke="#63b8ff" d="M546.66,-56.31C636.83,-46.35 798.99,-28.44 891.61,-18.22"/>
<polygon fill="#63b8ff" stroke="#63b8ff" points="546.12,-52.84 536.56,-57.42 546.89,-59.8 546.12,-52.84"/>
</a>
</g>
</g>
</g>
</svg>
