<?xml version="1.0" encoding="UTF-8" standalone="no"?>
<!DOCTYPE svg PUBLIC "-//W3C//DTD SVG 1.1//EN"
 "http://www.w3.org/Graphics/SVG/1.1/DTD/svg11.dtd">
<!-- Generated by graphviz version 2.43.0 (0)
 -->
<!-- Title: fuzz/fuzz_trampoline.c Pages: 1 -->
<svg width="751pt" height="302pt"
 viewBox="0.00 0.00 751.00 302.00" xmlns="http://www.w3.org/2000/svg" xmlns:xlink="http://www.w3.org/1999/xlink">
<g id="graph0" class="graph" transform="scale(1 1) rotate(0) translate(4 298)">
<title>fuzz/fuzz_trampoline.c</title>
<!-- Node1 -->
<g id="Node000001" class="node">
<title>Node1</title>
<g id="a_Node000001"><a xlink:title="Fuzzer target for the trampoline generation functions.">
<polygon fill="#999999" stroke="#666666" points="559,-294 432,-294 432,-275 559,-275 559,-294"/>
<text text-anchor="middle" x="495.5" y="-282" font-family="Helvetica,sans-Serif" font-size="10.00">fuzz/fuzz_trampoline.c</text>
</a>
</g>
</g>
<!-- Node2 -->
<g id="Node000002" class="node">
<title>Node2</title>
<g id="a_Node000002"><a xlink:href="fuzz__helpers_8h.html" target="_top" xlink:title="Common definitions, structures, and helpers for all fuzzer targets.">
<polygon fill="white" stroke="#666666" points="539,-239 452,-239 452,-220 539,-220 539,-239"/>
<text text-anchor="middle" x="495.5" y="-227" font-family="Helvetica,sans-Serif" font-size="10.00">fuzz_helpers.h</text>
</a>
</g>
</g>
<!-- Node1&#45;&gt;Node2 -->
<g id="edge1_Node000001_Node000002" class="edge">
<title>Node1&#45;&gt;Node2</title>
<g id="a_edge1_Node000001_Node000002"><a xlink:title=" ">
<path fill="none" stroke="#63b8ff" d="M495.5,-274.75C495.5,-267.8 495.5,-257.85 495.5,-249.13"/>
<polygon fill="#63b8ff" stroke="#63b8ff" points="499,-249.09 495.5,-239.09 492,-249.09 499,-249.09"/>
</a>
</g>
</g>
<!-- Node3 -->
<g id="Node000003" class="node">
<title>Node3</title>
<g id="a_Node000003"><a xlink:href="infix__internals_8h.html" target="_top" xlink:title="Internal data structures, function prototypes, and constants.">
<polygon fill="white" stroke="#666666" points="205.5,-184 65.5,-184 65.5,-165 205.5,-165 205.5,-184"/>
<text text-anchor="middle" x="135.5" y="-172" font-family="Helvetica,sans-Serif" font-size="10.00">common/infix_internals.h</text>
</a>
</g>
</g>
<!-- Node2&#45;&gt;Node3 -->
<g id="edge2_Node000002_Node000003" class="edge">
<title>Node2&#45;&gt;Node3</title>
<g id="a_edge2_Node000002_Node000003"><a xlink:title=" ">
<path fill="none" stroke="#63b8ff" d="M451.72,-222.05C389.88,-212.95 276.41,-196.24 203.54,-185.52"/>
<polygon fill="#63b8ff" stroke="#63b8ff" points="203.94,-182.04 193.53,-184.04 202.92,-188.96 203.94,-182.04"/>
</a>
</g>
</g>
<!-- Node7 -->
<g id="Node000007" class="node">
<title>Node7</title>
<g id="a_Node000007"><a xlink:title=" ">
<polygon fill="#e0e0e0" stroke="#999999" points="271.5,-19 209.5,-19 209.5,0 271.5,0 271.5,-19"/>
<text text-anchor="middle" x="240.5" y="-7" font-family="Helvetica,sans-Serif" font-size="10.00">stdbool.h</text>
</a>
</g>
</g>
<!-- Node2&#45;&gt;Node7 -->
<g id="edge16_Node000002_Node000007" class="edge">
<title>Node2&#45;&gt;Node7</title>
<g id="a_edge16_Node000002_Node000007"><a xlink:title=" ">
<path fill="none" stroke="#63b8ff" d="M454.46,-219.99C389.6,-204.08 265.35,-163.06 212.5,-74 203.42,-58.7 214.13,-39.92 224.82,-26.77"/>
<polygon fill="#63b8ff" stroke="#63b8ff" points="227.65,-28.85 231.64,-19.04 222.4,-24.23 227.65,-28.85"/>
</a>
</g>
</g>
<!-- Node8 -->
<g id="Node000008" class="node">
<title>Node8</title>
<g id="a_Node000008"><a xlink:title=" ">
<polygon fill="#e0e0e0" stroke="#999999" points="447.5,-19 391.5,-19 391.5,0 447.5,0 447.5,-19"/>
<text text-anchor="middle" x="419.5" y="-7" font-family="Helvetica,sans-Serif" font-size="10.00">stddef.h</text>
</a>
</g>
</g>
<!-- Node2&#45;&gt;Node8 -->
<g id="edge17_Node000002_Node000008" class="edge">
<title>Node2&#45;&gt;Node8</title>
<g id="a_edge17_Node000002_Node000008"><a xlink:title=" ">
<path fill="none" stroke="#63b8ff" d="M499.68,-219.7C511.88,-192.68 544.44,-109.37 510.5,-55 498.92,-36.45 477.13,-25.42 457.77,-18.99"/>
<polygon fill="#63b8ff" stroke="#63b8ff" points="458.52,-15.56 447.94,-16.02 456.5,-22.26 458.52,-15.56"/>
</a>
</g>
</g>
<!-- Node9 -->
<g id="Node000009" class="node">
<title>Node9</title>
<g id="a_Node000009"><a xlink:href="infix_8h.html" target="_top" xlink:title="The public interface for the infix FFI library.">
<polygon fill="white" stroke="#666666" points="431,-129 360,-129 360,-110 431,-110 431,-129"/>
<text text-anchor="middle" x="395.5" y="-117" font-family="Helvetica,sans-Serif" font-size="10.00">infix/infix.h</text>
</a>
</g>
</g>
<!-- Node2&#45;&gt;Node9 -->
<g id="edge15_Node000002_Node000009" class="edge">
<title>Node2&#45;&gt;Node9</title>
<g id="a_edge15_Node000002_Node000009"><a xlink:title=" ">
<path fill="none" stroke="#63b8ff" d="M487.32,-219.66C470.53,-201.54 431.99,-159.91 410.57,-136.77"/>
<polygon fill="#63b8ff" stroke="#63b8ff" points="412.88,-134.12 403.52,-129.16 407.74,-138.87 412.88,-134.12"/>
</a>
</g>
</g>
<!-- Node10 -->
<g id="Node000010" class="node">
<title>Node10</title>
<g id="a_Node000010"><a xlink:title=" ">
<polygon fill="#e0e0e0" stroke="#999999" points="501,-74 448,-74 448,-55 501,-55 501,-74"/>
<text text-anchor="middle" x="474.5" y="-62" font-family="Helvetica,sans-Serif" font-size="10.00">stdint.h</text>
</a>
</g>
</g>
<!-- Node2&#45;&gt;Node10 -->
<g id="edge18_Node000002_Node000010" class="edge">
<title>Node2&#45;&gt;Node10</title>
<g id="a_edge18_Node000002_Node000010"><a xlink:title=" ">
<path fill="none" stroke="#63b8ff" d="M494.37,-219.74C491.08,-194.2 481.45,-119.43 476.91,-84.23"/>
<polygon fill="#63b8ff" stroke="#63b8ff" points="480.38,-83.78 475.63,-74.31 473.44,-84.67 480.38,-83.78"/>
</a>
</g>
</g>
<!-- Node11 -->
<g id="Node000011" class="node">
<title>Node11</title>
<g id="a_Node000011"><a xlink:title=" ">
<polygon fill="#e0e0e0" stroke="#999999" points="600.5,-184 550.5,-184 550.5,-165 600.5,-165 600.5,-184"/>
<text text-anchor="middle" x="575.5" y="-172" font-family="Helvetica,sans-Serif" font-size="10.00">stdio.h</text>
</a>
</g>
</g>
<!-- Node2&#45;&gt;Node11 -->
<g id="edge19_Node000002_Node000011" class="edge">
<title>Node2&#45;&gt;Node11</title>
<g id="a_edge19_Node000002_Node000011"><a xlink:title=" ">
<path fill="none" stroke="#63b8ff" d="M508.35,-219.98C520.64,-211.84 539.41,-199.41 553.98,-189.76"/>
<polygon fill="#63b8ff" stroke="#63b8ff" points="556.01,-192.61 562.41,-184.17 552.14,-186.78 556.01,-192.61"/>
</a>
</g>
</g>
<!-- Node12 -->
<g id="Node000012" class="node">
<title>Node12</title>
<g id="a_Node000012"><a xlink:title=" ">
<polygon fill="#e0e0e0" stroke="#999999" points="672,-184 619,-184 619,-165 672,-165 672,-184"/>
<text text-anchor="middle" x="645.5" y="-172" font-family="Helvetica,sans-Serif" font-size="10.00">stdlib.h</text>
</a>
</g>
</g>
<!-- Node2&#45;&gt;Node12 -->
<g id="edge20_Node000002_Node000012" class="edge">
<title>Node2&#45;&gt;Node12</title>
<g id="a_edge20_Node000002_Node000012"><a xlink:title=" ">
<path fill="none" stroke="#63b8ff" d="M519.6,-219.98C544.38,-211.23 583.2,-197.51 611.19,-187.62"/>
<polygon fill="#63b8ff" stroke="#63b8ff" points="612.7,-190.8 620.96,-184.17 610.37,-184.2 612.7,-190.8"/>
</a>
</g>
</g>
<!-- Node13 -->
<g id="Node000013" class="node">
<title>Node13</title>
<g id="a_Node000013"><a xlink:title=" ">
<polygon fill="#e0e0e0" stroke="#999999" points="743,-184 690,-184 690,-165 743,-165 743,-184"/>
<text text-anchor="middle" x="716.5" y="-172" font-family="Helvetica,sans-Serif" font-size="10.00">string.h</text>
</a>
</g>
</g>
<!-- Node2&#45;&gt;Node13 -->
<g id="edge21_Node000002_Node000013" class="edge">
<title>Node2&#45;&gt;Node13</title>
<g id="a_edge21_Node000002_Node000013"><a xlink:title=" ">
<path fill="none" stroke="#63b8ff" d="M531.51,-219.92C566.94,-211.48 622.83,-198.13 679.85,-184.39"/>
<polygon fill="#63b8ff" stroke="#63b8ff" points="680.85,-187.75 689.75,-182.01 679.21,-180.95 680.85,-187.75"/>
</a>
</g>
</g>
<!-- Node4 -->
<g id="Node000004" class="node">
<title>Node4</title>
<g id="a_Node000004"><a xlink:href="infix__config_8h.html" target="_top" xlink:title="Platform, architecture, and ABI detection macros.">
<polygon fill="white" stroke="#666666" points="127,-74 0,-74 0,-55 127,-55 127,-74"/>
<text text-anchor="middle" x="63.5" y="-62" font-family="Helvetica,sans-Serif" font-size="10.00">common/infix_config.h</text>
</a>
</g>
</g>
<!-- Node3&#45;&gt;Node4 -->
<g id="edge3_Node000003_Node000004" class="edge">
<title>Node3&#45;&gt;Node4</title>
<g id="a_edge3_Node000003_Node000004"><a xlink:title=" ">
<path fill="none" stroke="#63b8ff" d="M121.33,-164.99C109.34,-157.09 92.53,-144.26 82.5,-129 73.61,-115.48 68.75,-97.65 66.18,-84.33"/>
<polygon fill="#63b8ff" stroke="#63b8ff" points="69.62,-83.68 64.52,-74.39 62.72,-84.83 69.62,-83.68"/>
</a>
</g>
</g>
<!-- Node5 -->
<g id="Node000005" class="node">
<title>Node5</title>
<g id="a_Node000005"><a xlink:href="platform_8h.html" target="_top" xlink:title="Declares internal, runtime CPU/OS feature detection functions.">
<polygon fill="white" stroke="#666666" points="205,-129 92,-129 92,-110 205,-110 205,-129"/>
<text text-anchor="middle" x="148.5" y="-117" font-family="Helvetica,sans-Serif" font-size="10.00">common/platform.h</text>
</a>
</g>
</g>
<!-- Node3&#45;&gt;Node5 -->
<g id="edge4_Node000003_Node000005" class="edge">
<title>Node3&#45;&gt;Node5</title>
<g id="a_edge4_Node000003_Node000005"><a xlink:title=" ">
<path fill="none" stroke="#63b8ff" d="M137.65,-164.75C139.37,-157.72 141.85,-147.62 144,-138.84"/>
<polygon fill="#63b8ff" stroke="#63b8ff" points="147.41,-139.63 146.39,-129.09 140.61,-137.97 147.41,-139.63"/>
</a>
</g>
</g>
<!-- Node3&#45;&gt;Node9 -->
<g id="edge10_Node000003_Node000009" class="edge">
<title>Node3&#45;&gt;Node9</title>
<g id="a_edge10_Node000003_Node000009"><a xlink:title=" ">
<path fill="none" stroke="#63b8ff" d="M177.27,-164.98C224.45,-155.37 300.97,-139.77 349.73,-129.83"/>
<polygon fill="#63b8ff" stroke="#63b8ff" points="350.59,-133.23 359.69,-127.8 349.19,-126.37 350.59,-133.23"/>
</a>
</g>
</g>
<!-- Node5&#45;&gt;Node4 -->
<g id="edge8_Node000005_Node000004" class="edge">
<title>Node5&#45;&gt;Node4</title>
<g id="a_edge8_Node000005_Node000004"><a xlink:title=" ">
<path fill="none" stroke="#63b8ff" d="M134.84,-109.98C121.66,-101.77 101.47,-89.18 85.93,-79.49"/>
<polygon fill="#63b8ff" stroke="#63b8ff" points="87.74,-76.49 77.41,-74.17 84.04,-82.43 87.74,-76.49"/>
</a>
</g>
</g>
<!-- Node6 -->
<g id="Node000006" class="node">
<title>Node6</title>
<g id="a_Node000006"><a xlink:href="compat__c23_8h.html" target="_top" xlink:title="Provides forward compatibility macros for C23 features.">
<polygon fill="white" stroke="#666666" points="353,-74 222,-74 222,-55 353,-55 353,-74"/>
<text text-anchor="middle" x="287.5" y="-62" font-family="Helvetica,sans-Serif" font-size="10.00">common/compat_c23.h</text>
</a>
</g>
</g>
<!-- Node5&#45;&gt;Node6 -->
<g id="edge5_Node000005_Node000006" class="edge">
<title>Node5&#45;&gt;Node6</title>
<g id="a_edge5_Node000005_Node000006"><a xlink:title=" ">
<path fill="none" stroke="#63b8ff" d="M170.83,-109.98C193.7,-101.27 229.46,-87.63 255.36,-77.75"/>
<polygon fill="#63b8ff" stroke="#63b8ff" points="256.66,-81 264.76,-74.17 254.17,-74.46 256.66,-81"/>
</a>
</g>
</g>
<!-- Node5&#45;&gt;Node7 -->
<g id="edge9_Node000005_Node000007" class="edge">
<title>Node5&#45;&gt;Node7</title>
<g id="a_edge9_Node000005_Node000007"><a xlink:title=" ">
<path fill="none" stroke="#63b8ff" d="M151.18,-109.94C155.54,-96.99 165.16,-72.12 179.5,-55 189.7,-42.83 203.9,-32.21 216.04,-24.41"/>
<polygon fill="#63b8ff" stroke="#63b8ff" points="218.13,-27.23 224.81,-19 214.46,-21.26 218.13,-27.23"/>
</a>
</g>
</g>
<!-- Node6&#45;&gt;Node7 -->
<g id="edge6_Node000006_Node000007" class="edge">
<title>Node6&#45;&gt;Node7</title>
<g id="a_edge6_Node000006_Node000007"><a xlink:title=" ">
<path fill="none" stroke="#63b8ff" d="M279.74,-54.75C273.03,-47.18 263.16,-36.05 254.99,-26.84"/>
<polygon fill="#63b8ff" stroke="#63b8ff" points="257.37,-24.25 248.12,-19.09 252.13,-28.89 257.37,-24.25"/>
</a>
</g>
</g>
<!-- Node6&#45;&gt;Node8 -->
<g id="edge7_Node000006_Node000008" class="edge">
<title>Node6&#45;&gt;Node8</title>
<g id="a_edge7_Node000006_Node000008"><a xlink:title=" ">
<path fill="none" stroke="#63b8ff" d="M308.71,-54.98C330.23,-46.34 363.78,-32.87 388.33,-23.02"/>
<polygon fill="#63b8ff" stroke="#63b8ff" points="389.93,-26.14 397.91,-19.17 387.32,-19.65 389.93,-26.14"/>
</a>
</g>
</g>
<!-- Node9&#45;&gt;Node6 -->
<g id="edge11_Node000009_Node000006" class="edge">
<title>Node9&#45;&gt;Node6</title>
<g id="a_edge11_Node000009_Node000006"><a xlink:title=" ">
<path fill="none" stroke="#63b8ff" d="M378.15,-109.98C360.93,-101.54 334.3,-88.47 314.35,-78.68"/>
<polygon fill="#63b8ff" stroke="#63b8ff" points="315.69,-75.43 305.17,-74.17 312.6,-81.72 315.69,-75.43"/>
</a>
</g>
</g>
<!-- Node9&#45;&gt;Node7 -->
<g id="edge12_Node000009_Node000007" class="edge">
<title>Node9&#45;&gt;Node7</title>
<g id="a_edge12_Node000009_Node000007"><a xlink:title=" ">
<path fill="none" stroke="#63b8ff" d="M393.06,-109.84C388.83,-96.3 378.86,-70.1 361.5,-55 339.01,-35.44 307.18,-24.19 281.81,-17.9"/>
<polygon fill="#63b8ff" stroke="#63b8ff" points="282.27,-14.41 271.74,-15.57 280.69,-21.23 282.27,-14.41"/>
</a>
</g>
</g>
<!-- Node9&#45;&gt;Node8 -->
<g id="edge13_Node000009_Node000008" class="edge">
<title>Node9&#45;&gt;Node8</title>
<g id="a_edge13_Node000009_Node000008"><a xlink:title=" ">
<path fill="none" stroke="#63b8ff" d="M397.46,-109.66C401.37,-92.09 410.18,-52.45 415.4,-28.95"/>
<polygon fill="#63b8ff" stroke="#63b8ff" points="418.82,-29.68 417.58,-19.16 411.99,-28.16 418.82,-29.68"/>
</a>
</g>
</g>
<!-- Node9&#45;&gt;Node10 -->
<g id="edge14_Node000009_Node000010" class="edge">
<title>Node9&#45;&gt;Node10</title>
<g id="a_edge14_Node000009_Node000010"><a xlink:title=" ">
<path fill="none" stroke="#63b8ff" d="M408.19,-109.98C420.33,-101.84 438.86,-89.41 453.25,-79.76"/>
<polygon fill="#63b8ff" stroke="#63b8ff" points="455.22,-82.65 461.58,-74.17 451.32,-76.84 455.22,-82.65"/>
</a>
</g>
</g>
</g>
</svg>
