<?xml version="1.0" encoding="UTF-8" standalone="no"?>
<!DOCTYPE svg PUBLIC "-//W3C//DTD SVG 1.1//EN"
 "http://www.w3.org/Graphics/SVG/1.1/DTD/svg11.dtd">
<!-- Generated by graphviz version 2.43.0 (0)
 -->
<!-- Title: Public API Pages: 1 -->
<svg width="275pt" height="323pt"
 viewBox="0.00 0.00 275.00 323.00" xmlns="http://www.w3.org/2000/svg" xmlns:xlink="http://www.w3.org/1999/xlink">

<svg id="main" version="1.1" xmlns="http://www.w3.org/2000/svg" xmlns:xlink="http://www.w3.org/1999/xlink" xml:space="preserve" onload="init(evt)">
<style type="text/css"><![CDATA[
.node, .edge {opacity: 0.7;}
.node.selected, .edge.selected {opacity: 1;}
.edge:hover path { stroke: red; }
.edge:hover polygon { stroke: red; fill: red; }
]]></style>
<script type="application/ecmascript" xlink:href="svg.min.js"/>
<svg id="graph" class="graph">
<g id="graph0" class="graph" transform="scale(1 1) rotate(0) translate(4 319)">
<title>Public API</title>
<!-- Node8 -->
<g id="Node000008" class="node">
<title>Node8</title>
<g id="a_Node000008"><a xlink:href="group__error__api.html" target="_top" xlink:title="Public structures and enumerations for detailed error reporting.">
<polygon fill="white" stroke="#666666" points="229,-315 139,-315 139,-296 229,-296 229,-315"/>
<text text-anchor="middle" x="184" y="-303" font-family="Helvetica,sans-Serif" font-size="10.00">Error Reporting</text>
</a>
</g>
</g>
<!-- Node9 -->
<g id="Node000009" class="node">
<title>Node9</title>
<g id="a_Node000009"><a xlink:href="group__exports__api.html" target="_top" xlink:title="Functions for interacting with shared libraries and their global variables.">
<polygon fill="white" stroke="#666666" points="267,-278 101,-278 101,-259 267,-259 267,-278"/>
<text text-anchor="middle" x="184" y="-266" font-family="Helvetica,sans-Serif" font-size="10.00">Dynamic Library &amp; Globals API</text>
</a>
</g>
</g>
<!-- Node2 -->
<g id="Node000002" class="node">
<title>Node2</title>
<g id="a_Node000002"><a xlink:href="group__high__level__api.html" target="_top" xlink:title="Recommended functions for creating trampolines from a signature string.">
<polygon fill="white" stroke="#666666" points="252.5,-241 115.5,-241 115.5,-222 252.5,-222 252.5,-241"/>
<text text-anchor="middle" x="184" y="-229" font-family="Helvetica,sans-Serif" font-size="10.00">High&#45;Level Signature API</text>
</a>
</g>
</g>
<!-- Node6 -->
<g id="Node000006" class="node">
<title>Node6</title>
<g id="a_Node000006"><a xlink:href="group__introspection__api.html" target="_top" xlink:title="Functions for querying the properties of trampolines and types.">
<polygon fill="white" stroke="#666666" points="233.5,-204 134.5,-204 134.5,-185 233.5,-185 233.5,-204"/>
<text text-anchor="middle" x="184" y="-192" font-family="Helvetica,sans-Serif" font-size="10.00">Introspection API</text>
</a>
</g>
</g>
<!-- Node3 -->
<g id="Node000003" class="node">
<title>Node3</title>
<g id="a_Node000003"><a xlink:href="group__manual__api.html" target="_top" xlink:title="Advanced functions for manually building infix_type objects.">
<polygon fill="white" stroke="#666666" points="255,-167 113,-167 113,-148 255,-148 255,-167"/>
<text text-anchor="middle" x="184" y="-155" font-family="Helvetica,sans-Serif" font-size="10.00">Manual Type&#45;Creation API</text>
</a>
</g>
</g>
<!-- Node7 -->
<g id="Node000007" class="node">
<title>Node7</title>
<g id="a_Node000007"><a xlink:href="group__memory__management.html" target="_top" xlink:title="The arena allocator and configurable memory functions.">
<polygon fill="white" stroke="#666666" points="246.5,-130 121.5,-130 121.5,-111 246.5,-111 246.5,-130"/>
<text text-anchor="middle" x="184" y="-118" font-family="Helvetica,sans-Serif" font-size="10.00">Memory Management</text>
</a>
</g>
</g>
<!-- Node1 -->
<g id="Node000001" class="node">
<title>Node1</title>
<g id="a_Node000001"><a xlink:title="The primary public&#45;facing functions for using the infix library.">
<polygon fill="#999999" stroke="#666666" points="65,-167 0,-167 0,-148 65,-148 65,-167"/>
<text text-anchor="middle" x="32.5" y="-155" font-family="Helvetica,sans-Serif" font-size="10.00">Public API</text>
</a>
</g>
</g>
<!-- Node1&#45;&gt;Node8 -->
<g id="edge7" class="edge">
<title>Node1&#45;&gt;Node8</title>
<path fill="none" stroke="black" d="M37.98,-176.86C45.69,-205.65 64.31,-259.38 101,-287.5 111.76,-295.75 125.52,-300.38 138.69,-302.93"/>
<polygon fill="black" stroke="black" points="41.37,-175.99 35.54,-167.15 34.58,-177.7 41.37,-175.99"/>
</g>
<!-- Node1&#45;&gt;Node9 -->
<g id="edge8" class="edge">
<title>Node1&#45;&gt;Node9</title>
<path fill="none" stroke="black" d="M41.94,-176.28C52.57,-197.69 72.9,-232.11 101,-250.5 106.24,-253.93 112.04,-256.72 118.05,-258.98"/>
<polygon fill="black" stroke="black" points="45.08,-174.73 37.63,-167.2 38.75,-177.73 45.08,-174.73"/>
</g>
<!-- Node1&#45;&gt;Node2 -->
<g id="edge1" class="edge">
<title>Node1&#45;&gt;Node2</title>
<path fill="none" stroke="black" d="M49.18,-174.29C61.94,-186.96 81.06,-203.76 101,-213.5 107.94,-216.89 115.52,-219.65 123.18,-221.89"/>
<polygon fill="black" stroke="black" points="51.59,-171.75 42.1,-167.04 46.58,-176.64 51.59,-171.75"/>
</g>
<!-- Node1&#45;&gt;Node6 -->
<g id="edge5" class="edge">
<title>Node1&#45;&gt;Node6</title>
<path fill="none" stroke="black" d="M75.11,-169.62C83.65,-171.99 92.6,-174.4 101,-176.5 112.74,-179.44 125.48,-182.36 137.35,-184.97"/>
<polygon fill="black" stroke="black" points="75.91,-166.21 65.33,-166.87 74.01,-172.95 75.91,-166.21"/>
</g>
<!-- Node1&#45;&gt;Node3 -->
<g id="edge2" class="edge">
<title>Node1&#45;&gt;Node3</title>
<path fill="none" stroke="black" d="M75.49,-157.5C87.13,-157.5 100.11,-157.5 112.89,-157.5"/>
<polygon fill="black" stroke="black" points="75.21,-154 65.21,-157.5 75.21,-161 75.21,-154"/>
</g>
<!-- Node1&#45;&gt;Node7 -->
<g id="edge6" class="edge">
<title>Node1&#45;&gt;Node7</title>
<path fill="none" stroke="black" d="M74.9,-146.23C83.51,-143.95 92.54,-141.61 101,-139.5 113.76,-136.32 127.69,-133.03 140.38,-130.1"/>
<polygon fill="black" stroke="black" points="73.8,-142.9 65.04,-148.86 75.6,-149.66 73.8,-142.9"/>
</g>
<!-- Node4 -->
<g id="Node000004" class="node">
<title>Node4</title>
<g id="a_Node000004"><a xlink:href="group__registry__api.html" target="_top" xlink:title="Functions for defining, managing, and using a registry of named types.">
<polygon fill="white" stroke="#666666" points="254,-93 114,-93 114,-74 254,-74 254,-93"/>
<text text-anchor="middle" x="184" y="-81" font-family="Helvetica,sans-Serif" font-size="10.00">Named Type Registry API</text>
</a>
</g>
</g>
<!-- Node1&#45;&gt;Node4 -->
<g id="edge3" class="edge">
<title>Node1&#45;&gt;Node4</title>
<path fill="none" stroke="black" d="M49.71,-140.65C62.51,-128.31 81.44,-112.09 101,-102.5 108.87,-98.64 117.56,-95.55 126.25,-93.07"/>
<polygon fill="black" stroke="black" points="47.19,-138.22 42.57,-147.75 52.13,-143.18 47.19,-138.22"/>
</g>
<!-- Node5 -->
<g id="Node000005" class="node">
<title>Node5</title>
<g id="a_Node000005"><a xlink:href="group__type__system.html" target="_top" xlink:title="Structures and functions for describing C data types.">
<polygon fill="white" stroke="#666666" points="223.5,-56 144.5,-56 144.5,-37 223.5,-37 223.5,-56"/>
<text text-anchor="middle" x="184" y="-44" font-family="Helvetica,sans-Serif" font-size="10.00">Type System</text>
</a>
</g>
</g>
<!-- Node1&#45;&gt;Node5 -->
<g id="edge4" class="edge">
<title>Node1&#45;&gt;Node5</title>
<path fill="none" stroke="black" d="M42.18,-138.69C52.93,-117.54 73.28,-83.77 101,-65.5 113.81,-57.06 129.91,-52.34 144.44,-49.72"/>
<polygon fill="black" stroke="black" points="38.9,-137.42 37.68,-147.94 45.2,-140.48 38.9,-137.42"/>
</g>
<!-- Node10 -->
<g id="Node000010" class="node">
<title>Node10</title>
<g id="a_Node000010"><a xlink:href="group__version__macros.html" target="_top" xlink:title="Macros defining the semantic version of the infix library.">
<polygon fill="white" stroke="#666666" points="240.5,-19 127.5,-19 127.5,0 240.5,0 240.5,-19"/>
<text text-anchor="middle" x="184" y="-7" font-family="Helvetica,sans-Serif" font-size="10.00">Version Information</text>
</a>
</g>
</g>
<!-- Node1&#45;&gt;Node10 -->
<g id="edge9" class="edge">
<title>Node1&#45;&gt;Node10</title>
<path fill="none" stroke="black" d="M38.17,-137.97C46.06,-109.37 64.81,-56.48 101,-28.5 108.63,-22.6 117.78,-18.48 127.15,-15.61"/>
<polygon fill="black" stroke="black" points="34.7,-137.4 35.59,-147.95 41.48,-139.15 34.7,-137.4"/>
</g>
</g>
</svg>
</svg>

<style type='text/css'>
<![CDATA[
[data-mouse-over-selected='false'] { opacity: 0.7; }
[data-mouse-over-selected='true']  { opacity: 1.0; }
]]>
</style>
<script type="application/ecmascript"><![CDATA[
document.addEventListener('DOMContentLoaded', (event) => {
  highlightEdges();
  highlightAdjacentNodes();
});
]]></script>
</svg>
