<?xml version="1.0" encoding="UTF-8" standalone="no"?>
<!DOCTYPE svg PUBLIC "-//W3C//DTD SVG 1.1//EN"
 "http://www.w3.org/Graphics/SVG/1.1/DTD/svg11.dtd">
<!-- Generated by graphviz version 2.43.0 (0)
 -->
<!-- Title: Public API Pages: 1 -->
<svg width="275pt" height="360pt"
 viewBox="0.00 0.00 275.00 360.00" xmlns="http://www.w3.org/2000/svg" xmlns:xlink="http://www.w3.org/1999/xlink">
<g id="graph0" class="graph" transform="scale(1 1) rotate(0) translate(4 356)">
<title>Public API</title>
<!-- Node8 -->
<g id="Node000008" class="node">
<title>Node8</title>
<g id="a_Node000008"><a xlink:href="group__error__api.html" target="_top" xlink:title="Public structures and enumerations for detailed error reporting.">
<polygon fill="white" stroke="#666666" points="229,-352 139,-352 139,-333 229,-333 229,-352"/>
<text text-anchor="middle" x="184" y="-340" font-family="Helvetica,sans-Serif" font-size="10.00">Error Reporting</text>
</a>
</g>
</g>
<!-- Node9 -->
<g id="Node000009" class="node">
<title>Node9</title>
<g id="a_Node000009"><a xlink:href="group__exports__api.html" target="_top" xlink:title="Functions for interacting with shared libraries and their global variables.">
<polygon fill="white" stroke="#666666" points="267,-315 101,-315 101,-296 267,-296 267,-315"/>
<text text-anchor="middle" x="184" y="-303" font-family="Helvetica,sans-Serif" font-size="10.00">Dynamic Library &amp; Globals API</text>
</a>
</g>
</g>
<!-- Node2 -->
<g id="Node000002" class="node">
<title>Node2</title>
<g id="a_Node000002"><a xlink:href="group__high__level__api.html" target="_top" xlink:title="Recommended functions for creating trampolines from a signature string.">
<polygon fill="white" stroke="#666666" points="252.5,-278 115.5,-278 115.5,-259 252.5,-259 252.5,-278"/>
<text text-anchor="middle" x="184" y="-266" font-family="Helvetica,sans-Serif" font-size="10.00">High&#45;Level Signature API</text>
</a>
</g>
</g>
<!-- Node6 -->
<g id="Node000006" class="node">
<title>Node6</title>
<g id="a_Node000006"><a xlink:href="group__introspection__api.html" target="_top" xlink:title="Functions for querying the properties of trampolines and types.">
<polygon fill="white" stroke="#666666" points="233.5,-241 134.5,-241 134.5,-222 233.5,-222 233.5,-241"/>
<text text-anchor="middle" x="184" y="-229" font-family="Helvetica,sans-Serif" font-size="10.00">Introspection API</text>
</a>
</g>
</g>
<!-- Node11 -->
<g id="Node000011" class="node">
<title>Node11</title>
<g id="a_Node000011"><a xlink:href="group__library__api.html" target="_top" xlink:title="Functions for loading shared libraries and looking up symbols.">
<polygon fill="white" stroke="#666666" points="242,-204 126,-204 126,-185 242,-185 242,-204"/>
<text text-anchor="middle" x="184" y="-192" font-family="Helvetica,sans-Serif" font-size="10.00">Dynamic Library API</text>
</a>
</g>
</g>
<!-- Node3 -->
<g id="Node000003" class="node">
<title>Node3</title>
<g id="a_Node000003"><a xlink:href="group__manual__api.html" target="_top" xlink:title="Advanced functions for manually building infix_type objects.">
<polygon fill="white" stroke="#666666" points="255,-167 113,-167 113,-148 255,-148 255,-167"/>
<text text-anchor="middle" x="184" y="-155" font-family="Helvetica,sans-Serif" font-size="10.00">Manual Type&#45;Creation API</text>
</a>
</g>
</g>
<!-- Node7 -->
<g id="Node000007" class="node">
<title>Node7</title>
<g id="a_Node000007"><a xlink:href="group__memory__management.html" target="_top" xlink:title="The arena allocator and configurable memory functions.">
<polygon fill="white" stroke="#666666" points="246.5,-130 121.5,-130 121.5,-111 246.5,-111 246.5,-130"/>
<text text-anchor="middle" x="184" y="-118" font-family="Helvetica,sans-Serif" font-size="10.00">Memory Management</text>
</a>
</g>
</g>
<!-- Node1 -->
<g id="Node000001" class="node">
<title>Node1</title>
<g id="a_Node000001"><a xlink:title="The primary public&#45;facing functions for using the infix library.">
<polygon fill="#999999" stroke="#666666" points="65,-185 0,-185 0,-166 65,-166 65,-185"/>
<text text-anchor="middle" x="32.5" y="-173" font-family="Helvetica,sans-Serif" font-size="10.00">Public API</text>
</a>
</g>
</g>
<!-- Node1&#45;&gt;Node8 -->
<g id="edge7" class="edge">
<title>Node1&#45;&gt;Node8</title>
<path fill="none" stroke="black" d="M36.67,-195.34C42.91,-227.62 59.94,-291.24 101,-324.5 111.65,-333.12 125.53,-337.84 138.84,-340.36"/>
<polygon fill="black" stroke="black" points="40.08,-194.56 34.89,-185.33 33.19,-195.79 40.08,-194.56"/>
</g>
<!-- Node1&#45;&gt;Node9 -->
<g id="edge8" class="edge">
<title>Node1&#45;&gt;Node9</title>
<path fill="none" stroke="black" d="M39.66,-194.71C48.83,-220.07 68.56,-264.23 101,-287.5 105.74,-290.9 111,-293.67 116.5,-295.94"/>
<polygon fill="black" stroke="black" points="42.93,-193.43 36.37,-185.1 36.3,-195.7 42.93,-193.43"/>
</g>
<!-- Node1&#45;&gt;Node2 -->
<g id="edge1" class="edge">
<title>Node1&#45;&gt;Node2</title>
<path fill="none" stroke="black" d="M44.94,-193.73C56.81,-211.07 76.98,-236.52 101,-250.5 106.92,-253.95 113.43,-256.73 120.12,-258.99"/>
<polygon fill="black" stroke="black" points="47.66,-191.48 39.23,-185.06 41.81,-195.33 47.66,-191.48"/>
</g>
<!-- Node1&#45;&gt;Node6 -->
<g id="edge5" class="edge">
<title>Node1&#45;&gt;Node6</title>
<path fill="none" stroke="black" d="M56.18,-190.51C68.9,-198.35 85.33,-207.52 101,-213.5 111.49,-217.5 123.08,-220.72 134.17,-223.27"/>
<polygon fill="black" stroke="black" points="57.96,-187.49 47.64,-185.11 54.22,-193.41 57.96,-187.49"/>
</g>
<!-- Node1&#45;&gt;Node11 -->
<g id="edge10" class="edge">
<title>Node1&#45;&gt;Node11</title>
<path fill="none" stroke="black" d="M75.15,-180.79C90.89,-182.79 109.08,-185.11 125.99,-187.25"/>
<polygon fill="black" stroke="black" points="75.57,-177.32 65.21,-179.53 74.68,-184.26 75.57,-177.32"/>
</g>
<!-- Node1&#45;&gt;Node3 -->
<g id="edge2" class="edge">
<title>Node1&#45;&gt;Node3</title>
<path fill="none" stroke="black" d="M75.49,-170.44C87.13,-169.04 100.11,-167.48 112.89,-165.94"/>
<polygon fill="black" stroke="black" points="74.71,-167.01 65.21,-171.68 75.55,-173.96 74.71,-167.01"/>
</g>
<!-- Node1&#45;&gt;Node7 -->
<g id="edge6" class="edge">
<title>Node1&#45;&gt;Node7</title>
<path fill="none" stroke="black" d="M57.67,-160.61C70.23,-153.4 86.04,-145.11 101,-139.5 110.99,-135.75 121.95,-132.6 132.51,-130"/>
<polygon fill="black" stroke="black" points="55.61,-157.76 48.77,-165.85 59.17,-163.79 55.61,-157.76"/>
</g>
<!-- Node4 -->
<g id="Node000004" class="node">
<title>Node4</title>
<g id="a_Node000004"><a xlink:href="group__registry__api.html" target="_top" xlink:title="Functions for defining, managing, and using a registry of named types.">
<polygon fill="white" stroke="#666666" points="254,-93 114,-93 114,-74 254,-74 254,-93"/>
<text text-anchor="middle" x="184" y="-81" font-family="Helvetica,sans-Serif" font-size="10.00">Named Type Registry API</text>
</a>
</g>
</g>
<!-- Node1&#45;&gt;Node4 -->
<g id="edge3" class="edge">
<title>Node1&#45;&gt;Node4</title>
<path fill="none" stroke="black" d="M45.28,-157.55C57.29,-140.72 77.45,-116.18 101,-102.5 107.7,-98.61 115.14,-95.52 122.72,-93.06"/>
<polygon fill="black" stroke="black" points="42.27,-155.76 39.48,-165.98 48.03,-159.72 42.27,-155.76"/>
</g>
<!-- Node5 -->
<g id="Node000005" class="node">
<title>Node5</title>
<g id="a_Node000005"><a xlink:href="group__type__system.html" target="_top" xlink:title="Structures and functions for describing C data types.">
<polygon fill="white" stroke="#666666" points="223.5,-56 144.5,-56 144.5,-37 223.5,-37 223.5,-56"/>
<text text-anchor="middle" x="184" y="-44" font-family="Helvetica,sans-Serif" font-size="10.00">Type System</text>
</a>
</g>
</g>
<!-- Node1&#45;&gt;Node5 -->
<g id="edge4" class="edge">
<title>Node1&#45;&gt;Node5</title>
<path fill="none" stroke="black" d="M39.94,-156.31C49.32,-131.4 69.18,-88.41 101,-65.5 113.57,-56.45 129.79,-51.64 144.48,-49.1"/>
<polygon fill="black" stroke="black" points="36.63,-155.18 36.56,-165.77 43.22,-157.53 36.63,-155.18"/>
</g>
<!-- Node10 -->
<g id="Node000010" class="node">
<title>Node10</title>
<g id="a_Node000010"><a xlink:href="group__version__macros.html" target="_top" xlink:title="Macros defining the semantic version of the infix library.">
<polygon fill="white" stroke="#666666" points="240.5,-19 127.5,-19 127.5,0 240.5,0 240.5,-19"/>
<text text-anchor="middle" x="184" y="-7" font-family="Helvetica,sans-Serif" font-size="10.00">Version Information</text>
</a>
</g>
</g>
<!-- Node1&#45;&gt;Node10 -->
<g id="edge9" class="edge">
<title>Node1&#45;&gt;Node10</title>
<path fill="none" stroke="black" d="M36.79,-155.97C43.22,-124.19 60.5,-61.52 101,-28.5 108.59,-22.31 117.82,-18.06 127.32,-15.16"/>
<polygon fill="black" stroke="black" points="33.35,-155.35 34.95,-165.83 40.23,-156.64 33.35,-155.35"/>
</g>
</g>
</svg>
