<?xml version="1.0" encoding="UTF-8" standalone="no"?>
<!DOCTYPE svg PUBLIC "-//W3C//DTD SVG 1.1//EN"
 "http://www.w3.org/Graphics/SVG/1.1/DTD/svg11.dtd">
<!-- Generated by graphviz version 2.43.0 (0)
 -->
<!-- Title: Introspection API Pages: 1 -->
<svg width="395pt" height="27pt"
 viewBox="0.00 0.00 395.00 27.00" xmlns="http://www.w3.org/2000/svg" xmlns:xlink="http://www.w3.org/1999/xlink">
<g id="graph0" class="graph" transform="scale(1 1) rotate(0) translate(4 23)">
<title>Introspection API</title>
<!-- Node2 -->
<g id="Node000002" class="node">
<title>Node2</title>
<g id="a_Node000002"><a xlink:href="group__high__level__api.html" target="_top" xlink:title="The primary, recommended API for creating trampolines from human&#45;readable strings.">
<polygon fill="white" stroke="#666666" points="137,-19 0,-19 0,0 137,0 137,-19"/>
<text text-anchor="middle" x="68.5" y="-7" font-family="Helvetica,sans-Serif" font-size="10.00">High&#45;Level Signature API</text>
</a>
</g>
</g>
<!-- Node1 -->
<g id="Node000001" class="node">
<title>Node1</title>
<g id="a_Node000001"><a xlink:title="Functions for inspecting the properties of trampolines and infix_type objects at runtime.">
<polygon fill="#999999" stroke="#666666" points="272,-19 173,-19 173,0 272,0 272,-19"/>
<text text-anchor="middle" x="222.5" y="-7" font-family="Helvetica,sans-Serif" font-size="10.00">Introspection API</text>
</a>
</g>
</g>
<!-- Node2&#45;&gt;Node1 -->
<g id="edge1" class="edge">
<title>Node2&#45;&gt;Node1</title>
<path fill="none" stroke="black" d="M147.26,-9.5C155.97,-9.5 164.65,-9.5 172.84,-9.5"/>
<polygon fill="black" stroke="black" points="147.05,-6 137.05,-9.5 147.05,-13 147.05,-6"/>
</g>
<!-- Node3 -->
<g id="Node000003" class="node">
<title>Node3</title>
<g id="a_Node000003"><a xlink:href="group__type__system.html" target="_top" xlink:title="The core data structures and APIs for describing C types and function signatures.">
<polygon fill="white" stroke="#666666" points="387,-19 308,-19 308,0 387,0 387,-19"/>
<text text-anchor="middle" x="347.5" y="-7" font-family="Helvetica,sans-Serif" font-size="10.00">Type System</text>
</a>
</g>
</g>
<!-- Node1&#45;&gt;Node3 -->
<g id="edge2" class="edge">
<title>Node1&#45;&gt;Node3</title>
<path fill="none" stroke="black" d="M282.2,-9.5C290.86,-9.5 299.59,-9.5 307.71,-9.5"/>
<polygon fill="black" stroke="black" points="282.11,-6 272.11,-9.5 282.11,-13 282.11,-6"/>
</g>
</g>
</svg>
