<?xml version="1.0" encoding="UTF-8" standalone="no"?>
<!DOCTYPE svg PUBLIC "-//W3C//DTD SVG 1.1//EN"
 "http://www.w3.org/Graphics/SVG/1.1/DTD/svg11.dtd">
<!-- Generated by graphviz version 2.43.0 (0)
 -->
<!-- Title: High&#45;Level Signature API Pages: 1 -->
<svg width="347pt" height="323pt"
 viewBox="0.00 0.00 347.00 323.00" xmlns="http://www.w3.org/2000/svg" xmlns:xlink="http://www.w3.org/1999/xlink">

<svg id="main" version="1.1" xmlns="http://www.w3.org/2000/svg" xmlns:xlink="http://www.w3.org/1999/xlink" xml:space="preserve" onload="init(evt)">
<style type="text/css"><![CDATA[
.node, .edge {opacity: 0.7;}
.node.selected, .edge.selected {opacity: 1;}
.edge:hover path { stroke: red; }
.edge:hover polygon { stroke: red; fill: red; }
]]></style>
<script type="application/ecmascript" xlink:href="svg.min.js"/>
<svg id="graph" class="graph">
<g id="graph0" class="graph" transform="scale(1 1) rotate(0) translate(4 319)">
<title>High&#45;Level Signature API</title>
<!-- Node10 -->
<g id="Node000010" class="node">
<title>Node10</title>
<g id="a_Node000010"><a xlink:href="group__direct__marshalling__api.html" target="_top" xlink:title="An advanced, high&#45;performance API for language bindings.">
<polygon fill="white" stroke="#666666" points="318.5,-315 193.5,-315 193.5,-296 318.5,-296 318.5,-315"/>
<text text-anchor="middle" x="256" y="-303" font-family="Helvetica,sans-Serif" font-size="10.00">Direct Marshalling API</text>
</a>
</g>
</g>
<!-- Node9 -->
<g id="Node000009" class="node">
<title>Node9</title>
<g id="a_Node000009"><a xlink:href="group__error__api.html" target="_top" xlink:title="Functions and types for detailed, thread&#45;safe error reporting.">
<polygon fill="white" stroke="#666666" points="308.5,-278 203.5,-278 203.5,-259 308.5,-259 308.5,-278"/>
<text text-anchor="middle" x="256" y="-266" font-family="Helvetica,sans-Serif" font-size="10.00">Error Handling API</text>
</a>
</g>
</g>
<!-- Node6 -->
<g id="Node000006" class="node">
<title>Node6</title>
<g id="a_Node000006"><a xlink:href="group__exports__api.html" target="_top" xlink:title="Cross&#45;platform functions for loading shared libraries and accessing exported symbols.">
<polygon fill="white" stroke="#666666" points="339,-241 173,-241 173,-222 339,-222 339,-241"/>
<text text-anchor="middle" x="256" y="-229" font-family="Helvetica,sans-Serif" font-size="10.00">Dynamic Library &amp; Globals API</text>
</a>
</g>
</g>
<!-- Node1 -->
<g id="Node000001" class="node">
<title>Node1</title>
<g id="a_Node000001"><a xlink:title="The primary, recommended API for creating trampolines from human&#45;readable strings.">
<polygon fill="#999999" stroke="#666666" points="137,-167 0,-167 0,-148 137,-148 137,-167"/>
<text text-anchor="middle" x="68.5" y="-155" font-family="Helvetica,sans-Serif" font-size="10.00">High&#45;Level Signature API</text>
</a>
</g>
</g>
<!-- Node1&#45;&gt;Node10 -->
<g id="edge9" class="edge">
<title>Node1&#45;&gt;Node10</title>
<path fill="none" stroke="black" d="M78.92,-176.19C94.42,-204.92 128.1,-259.52 173,-287.5 179.19,-291.35 186.08,-294.39 193.18,-296.78"/>
<polygon fill="black" stroke="black" points="81.95,-174.43 74.21,-167.2 75.75,-177.68 81.95,-174.43"/>
</g>
<!-- Node1&#45;&gt;Node9 -->
<g id="edge8" class="edge">
<title>Node1&#45;&gt;Node9</title>
<path fill="none" stroke="black" d="M83.87,-175.07C102.26,-196.32 136.16,-231.6 173,-250.5 182.34,-255.29 192.91,-258.81 203.28,-261.39"/>
<polygon fill="black" stroke="black" points="86.32,-172.54 77.19,-167.16 80.97,-177.06 86.32,-172.54"/>
</g>
<!-- Node1&#45;&gt;Node6 -->
<g id="edge5" class="edge">
<title>Node1&#45;&gt;Node6</title>
<path fill="none" stroke="black" d="M92.55,-172.42C112.96,-185.02 143.94,-202.69 173,-213.5 181.88,-216.8 191.54,-219.59 201,-221.91"/>
<polygon fill="black" stroke="black" points="94.29,-169.38 83.96,-167.03 90.57,-175.31 94.29,-169.38"/>
</g>
<!-- Node8 -->
<g id="Node000008" class="node">
<title>Node8</title>
<g id="a_Node000008"><a xlink:href="group__introspection__api.html" target="_top" xlink:title="Functions for inspecting the properties of trampolines and infix_type objects at runtime.">
<polygon fill="white" stroke="#666666" points="305.5,-204 206.5,-204 206.5,-185 305.5,-185 305.5,-204"/>
<text text-anchor="middle" x="256" y="-192" font-family="Helvetica,sans-Serif" font-size="10.00">Introspection API</text>
</a>
</g>
</g>
<!-- Node1&#45;&gt;Node8 -->
<g id="edge7" class="edge">
<title>Node1&#45;&gt;Node8</title>
<path fill="none" stroke="black" d="M127.24,-169.02C152.87,-174.13 182.69,-180.08 207.07,-184.94"/>
<polygon fill="black" stroke="black" points="127.76,-165.55 117.27,-167.03 126.39,-172.42 127.76,-165.55"/>
</g>
<!-- Node7 -->
<g id="Node000007" class="node">
<title>Node7</title>
<g id="a_Node000007"><a xlink:href="group__manual__api.html" target="_top" xlink:title="A lower&#45;level, programmatic API for creating trampolines from infix_type objects.">
<polygon fill="white" stroke="#666666" points="291.5,-167 220.5,-167 220.5,-148 291.5,-148 291.5,-167"/>
<text text-anchor="middle" x="256" y="-155" font-family="Helvetica,sans-Serif" font-size="10.00">Manual API</text>
</a>
</g>
</g>
<!-- Node1&#45;&gt;Node7 -->
<g id="edge6" class="edge">
<title>Node1&#45;&gt;Node7</title>
<path fill="none" stroke="black" d="M147.31,-157.5C172.8,-157.5 199.85,-157.5 220.45,-157.5"/>
<polygon fill="black" stroke="black" points="147.26,-154 137.26,-157.5 147.26,-161 147.26,-154"/>
</g>
<!-- Node3 -->
<g id="Node000003" class="node">
<title>Node3</title>
<g id="a_Node000003"><a xlink:href="group__memory__management.html" target="_top" xlink:title="APIs for memory management, including custom allocators and arenas.">
<polygon fill="white" stroke="#666666" points="318.5,-130 193.5,-130 193.5,-111 318.5,-111 318.5,-130"/>
<text text-anchor="middle" x="256" y="-118" font-family="Helvetica,sans-Serif" font-size="10.00">Memory Management</text>
</a>
</g>
</g>
<!-- Node1&#45;&gt;Node3 -->
<g id="edge2" class="edge">
<title>Node1&#45;&gt;Node3</title>
<path fill="none" stroke="black" d="M127.24,-145.98C152.87,-140.87 182.69,-134.92 207.07,-130.06"/>
<polygon fill="black" stroke="black" points="126.39,-142.58 117.27,-147.97 127.76,-149.45 126.39,-142.58"/>
</g>
<!-- Node4 -->
<g id="Node000004" class="node">
<title>Node4</title>
<g id="a_Node000004"><a xlink:href="group__registry__api.html" target="_top" xlink:title="APIs for defining, storing, and reusing complex types by name.">
<polygon fill="white" stroke="#666666" points="316.5,-93 195.5,-93 195.5,-74 316.5,-74 316.5,-93"/>
<text text-anchor="middle" x="256" y="-81" font-family="Helvetica,sans-Serif" font-size="10.00">Named Type Registry</text>
</a>
</g>
</g>
<!-- Node1&#45;&gt;Node4 -->
<g id="edge3" class="edge">
<title>Node1&#45;&gt;Node4</title>
<path fill="none" stroke="black" d="M93.33,-142.53C113.78,-130.25 144.41,-113.2 173,-102.5 182.99,-98.76 193.95,-95.61 204.52,-93.01"/>
<polygon fill="black" stroke="black" points="91.4,-139.6 84.69,-147.8 95.05,-145.58 91.4,-139.6"/>
</g>
<!-- Node5 -->
<g id="Node000005" class="node">
<title>Node5</title>
<g id="a_Node000005"><a xlink:href="group__registry__introspection__api.html" target="_top" xlink:title="APIs for inspecting and serializing the contents of a named type registry.">
<polygon fill="white" stroke="#666666" points="327.5,-56 184.5,-56 184.5,-37 327.5,-37 327.5,-56"/>
<text text-anchor="middle" x="256" y="-44" font-family="Helvetica,sans-Serif" font-size="10.00">Registry Introspection API</text>
</a>
</g>
</g>
<!-- Node1&#45;&gt;Node5 -->
<g id="edge4" class="edge">
<title>Node1&#45;&gt;Node5</title>
<path fill="none" stroke="black" d="M83.95,-140.19C102.42,-119.24 136.4,-84.42 173,-65.5 180.53,-61.61 188.86,-58.5 197.23,-56.03"/>
<polygon fill="black" stroke="black" points="81.11,-138.13 77.24,-147.99 86.42,-142.7 81.11,-138.13"/>
</g>
<!-- Node2 -->
<g id="Node000002" class="node">
<title>Node2</title>
<g id="a_Node000002"><a xlink:href="group__type__system.html" target="_top" xlink:title="The core data structures and APIs for describing C types and function signatures.">
<polygon fill="white" stroke="#666666" points="295.5,-19 216.5,-19 216.5,0 295.5,0 295.5,-19"/>
<text text-anchor="middle" x="256" y="-7" font-family="Helvetica,sans-Serif" font-size="10.00">Type System</text>
</a>
</g>
</g>
<!-- Node1&#45;&gt;Node2 -->
<g id="edge1" class="edge">
<title>Node1&#45;&gt;Node2</title>
<path fill="none" stroke="black" d="M79,-139.01C94.6,-110.59 128.42,-56.52 173,-28.5 185.87,-20.41 201.81,-15.76 216.21,-13.09"/>
<polygon fill="black" stroke="black" points="75.87,-137.44 74.25,-147.91 82.05,-140.73 75.87,-137.44"/>
</g>
</g>
</svg>
</svg>

<style type='text/css'>
<![CDATA[
[data-mouse-over-selected='false'] { opacity: 0.7; }
[data-mouse-over-selected='true']  { opacity: 1.0; }
]]>
</style>
<script type="application/ecmascript"><![CDATA[
document.addEventListener('DOMContentLoaded', (event) => {
  highlightEdges();
  highlightAdjacentNodes();
});
]]></script>
</svg>
