<?xml version="1.0" encoding="UTF-8" standalone="no"?>
<!DOCTYPE svg PUBLIC "-//W3C//DTD SVG 1.1//EN"
 "http://www.w3.org/Graphics/SVG/1.1/DTD/svg11.dtd">
<!-- Generated by graphviz version 2.43.0 (0)
 -->
<!-- Title: Public API Pages: 1 -->
<svg width="251pt" height="286pt"
 viewBox="0.00 0.00 251.00 286.00" xmlns="http://www.w3.org/2000/svg" xmlns:xlink="http://www.w3.org/1999/xlink">
<g id="graph0" class="graph" transform="scale(1 1) rotate(0) translate(4 282)">
<title>Public API</title>
<!-- Node8 -->
<g id="Node000008" class="node">
<title>Node8</title>
<g id="a_Node000008"><a xlink:href="group__error__api.html" target="_top" xlink:title="Public structures and enumerations for detailed error reporting.">
<polygon fill="white" stroke="#666666" points="217,-278 127,-278 127,-259 217,-259 217,-278"/>
<text text-anchor="middle" x="172" y="-266" font-family="Helvetica,sans-Serif" font-size="10.00">Error Reporting</text>
</a>
</g>
</g>
<!-- Node2 -->
<g id="Node000002" class="node">
<title>Node2</title>
<g id="a_Node000002"><a xlink:href="group__high__level__api.html" target="_top" xlink:title="Recommended functions for creating trampolines from a signature string.">
<polygon fill="white" stroke="#666666" points="240.5,-241 103.5,-241 103.5,-222 240.5,-222 240.5,-241"/>
<text text-anchor="middle" x="172" y="-229" font-family="Helvetica,sans-Serif" font-size="10.00">High&#45;Level Signature API</text>
</a>
</g>
</g>
<!-- Node6 -->
<g id="Node000006" class="node">
<title>Node6</title>
<g id="a_Node000006"><a xlink:href="group__introspection__api.html" target="_top" xlink:title="Functions for querying the properties of trampolines and types.">
<polygon fill="white" stroke="#666666" points="221.5,-204 122.5,-204 122.5,-185 221.5,-185 221.5,-204"/>
<text text-anchor="middle" x="172" y="-192" font-family="Helvetica,sans-Serif" font-size="10.00">Introspection API</text>
</a>
</g>
</g>
<!-- Node3 -->
<g id="Node000003" class="node">
<title>Node3</title>
<g id="a_Node000003"><a xlink:href="group__manual__api.html" target="_top" xlink:title="Advanced functions for manually building infix_type objects.">
<polygon fill="white" stroke="#666666" points="243,-167 101,-167 101,-148 243,-148 243,-167"/>
<text text-anchor="middle" x="172" y="-155" font-family="Helvetica,sans-Serif" font-size="10.00">Manual Type&#45;Creation API</text>
</a>
</g>
</g>
<!-- Node7 -->
<g id="Node000007" class="node">
<title>Node7</title>
<g id="a_Node000007"><a xlink:href="group__memory__management.html" target="_top" xlink:title="The arena allocator and configurable memory functions.">
<polygon fill="white" stroke="#666666" points="234.5,-130 109.5,-130 109.5,-111 234.5,-111 234.5,-130"/>
<text text-anchor="middle" x="172" y="-118" font-family="Helvetica,sans-Serif" font-size="10.00">Memory Management</text>
</a>
</g>
</g>
<!-- Node1 -->
<g id="Node000001" class="node">
<title>Node1</title>
<g id="a_Node000001"><a xlink:title="The primary public&#45;facing functions for using the infix library.">
<polygon fill="#999999" stroke="#666666" points="65,-148 0,-148 0,-129 65,-129 65,-148"/>
<text text-anchor="middle" x="32.5" y="-136" font-family="Helvetica,sans-Serif" font-size="10.00">Public API</text>
</a>
</g>
</g>
<!-- Node1&#45;&gt;Node8 -->
<g id="edge7" class="edge">
<title>Node1&#45;&gt;Node8</title>
<path fill="none" stroke="black" d="M39.79,-157.54C49.09,-182.71 68.97,-226.65 101,-250.5 108.55,-256.12 117.68,-259.99 126.82,-262.66"/>
<polygon fill="black" stroke="black" points="43.06,-156.29 36.44,-148.01 36.45,-158.61 43.06,-156.29"/>
</g>
<!-- Node1&#45;&gt;Node2 -->
<g id="edge1" class="edge">
<title>Node1&#45;&gt;Node2</title>
<path fill="none" stroke="black" d="M45.25,-156.82C57.22,-174.02 77.36,-199.17 101,-213.5 106.69,-216.95 113.02,-219.74 119.49,-222"/>
<polygon fill="black" stroke="black" points="47.94,-154.56 39.46,-148.21 42.13,-158.46 47.94,-154.56"/>
</g>
<!-- Node1&#45;&gt;Node6 -->
<g id="edge5" class="edge">
<title>Node1&#45;&gt;Node6</title>
<path fill="none" stroke="black" d="M56.51,-153.44C69.23,-161.18 85.54,-170.28 101,-176.5 109.15,-179.78 118.08,-182.61 126.75,-184.99"/>
<polygon fill="black" stroke="black" points="58.29,-150.43 47.96,-148.11 54.59,-156.37 58.29,-150.43"/>
</g>
<!-- Node1&#45;&gt;Node3 -->
<g id="edge2" class="edge">
<title>Node1&#45;&gt;Node3</title>
<path fill="none" stroke="black" d="M75.09,-144.25C83.63,-145.43 92.84,-146.7 102.06,-147.97"/>
<polygon fill="black" stroke="black" points="75.43,-140.76 65.05,-142.86 74.47,-147.69 75.43,-140.76"/>
</g>
<!-- Node1&#45;&gt;Node7 -->
<g id="edge6" class="edge">
<title>Node1&#45;&gt;Node7</title>
<path fill="none" stroke="black" d="M75.02,-133.06C85.82,-131.65 97.68,-130.1 109.27,-128.58"/>
<polygon fill="black" stroke="black" points="74.51,-129.6 65.05,-134.37 75.42,-136.54 74.51,-129.6"/>
</g>
<!-- Node4 -->
<g id="Node000004" class="node">
<title>Node4</title>
<g id="a_Node000004"><a xlink:href="group__registry__api.html" target="_top" xlink:title="Functions for defining, managing, and using a registry of named types.">
<polygon fill="white" stroke="#666666" points="242,-93 102,-93 102,-74 242,-74 242,-93"/>
<text text-anchor="middle" x="172" y="-81" font-family="Helvetica,sans-Serif" font-size="10.00">Named Type Registry API</text>
</a>
</g>
</g>
<!-- Node1&#45;&gt;Node4 -->
<g id="edge3" class="edge">
<title>Node1&#45;&gt;Node4</title>
<path fill="none" stroke="black" d="M58.01,-123.7C70.55,-116.59 86.24,-108.35 101,-102.5 110.13,-98.88 120.2,-95.7 129.78,-93.03"/>
<polygon fill="black" stroke="black" points="56,-120.83 49.11,-128.87 59.52,-126.88 56,-120.83"/>
</g>
<!-- Node5 -->
<g id="Node000005" class="node">
<title>Node5</title>
<g id="a_Node000005"><a xlink:href="group__type__system.html" target="_top" xlink:title="Structures and functions for describing C data types.">
<polygon fill="white" stroke="#666666" points="211.5,-56 132.5,-56 132.5,-37 211.5,-37 211.5,-56"/>
<text text-anchor="middle" x="172" y="-44" font-family="Helvetica,sans-Serif" font-size="10.00">Type System</text>
</a>
</g>
</g>
<!-- Node1&#45;&gt;Node5 -->
<g id="edge4" class="edge">
<title>Node1&#45;&gt;Node5</title>
<path fill="none" stroke="black" d="M45.59,-120.47C57.7,-103.8 77.83,-79.54 101,-65.5 110.48,-59.76 121.71,-55.72 132.37,-52.89"/>
<polygon fill="black" stroke="black" points="42.6,-118.65 39.72,-128.84 48.33,-122.67 42.6,-118.65"/>
</g>
<!-- Node9 -->
<g id="Node000009" class="node">
<title>Node9</title>
<g id="a_Node000009"><a xlink:href="group__version__macros.html" target="_top" xlink:title="Macros defining the semantic version of the infix library.">
<polygon fill="white" stroke="#666666" points="228.5,-19 115.5,-19 115.5,0 228.5,0 228.5,-19"/>
<text text-anchor="middle" x="172" y="-7" font-family="Helvetica,sans-Serif" font-size="10.00">Version Information</text>
</a>
</g>
</g>
<!-- Node1&#45;&gt;Node9 -->
<g id="edge8" class="edge">
<title>Node1&#45;&gt;Node9</title>
<path fill="none" stroke="black" d="M40.2,-119.16C49.77,-94.39 69.75,-51.9 101,-28.5 106.14,-24.65 112.01,-21.58 118.12,-19.13"/>
<polygon fill="black" stroke="black" points="36.79,-118.27 36.63,-128.87 43.36,-120.69 36.79,-118.27"/>
</g>
</g>
</svg>
