<?xml version="1.0" encoding="UTF-8" standalone="no"?>
<!DOCTYPE svg PUBLIC "-//W3C//DTD SVG 1.1//EN"
 "http://www.w3.org/Graphics/SVG/1.1/DTD/svg11.dtd">
<!-- Generated by graphviz version 2.43.0 (0)
 -->
<!-- Title: High&#45;Level Signature API Pages: 1 -->
<svg width="347pt" height="249pt"
 viewBox="0.00 0.00 347.00 249.00" xmlns="http://www.w3.org/2000/svg" xmlns:xlink="http://www.w3.org/1999/xlink">

<svg id="main" version="1.1" xmlns="http://www.w3.org/2000/svg" xmlns:xlink="http://www.w3.org/1999/xlink" xml:space="preserve" onload="init(evt)">
<style type="text/css"><![CDATA[
.node, .edge {opacity: 0.7;}
.node.selected, .edge.selected {opacity: 1;}
.edge:hover path { stroke: red; }
.edge:hover polygon { stroke: red; fill: red; }
]]></style>
<script type="application/ecmascript" xlink:href="svg.min.js"/>
<svg id="graph" class="graph">
<g id="graph0" class="graph" transform="scale(1 1) rotate(0) translate(4 245)">
<title>High&#45;Level Signature API</title>
<!-- Node8 -->
<g id="Node000008" class="node">
<title>Node8</title>
<g id="a_Node000008"><a xlink:href="group__error__api.html" target="_top" xlink:title="Functions and types for detailed, thread&#45;safe error reporting.">
<polygon fill="white" stroke="#666666" points="308.5,-241 203.5,-241 203.5,-222 308.5,-222 308.5,-241"/>
<text text-anchor="middle" x="256" y="-229" font-family="Helvetica,sans-Serif" font-size="10.00">Error Handling API</text>
</a>
</g>
</g>
<!-- Node5 -->
<g id="Node000005" class="node">
<title>Node5</title>
<g id="a_Node000005"><a xlink:href="group__exports__api.html" target="_top" xlink:title="Cross&#45;platform functions for loading shared libraries and accessing exported symbols.">
<polygon fill="white" stroke="#666666" points="339,-204 173,-204 173,-185 339,-185 339,-204"/>
<text text-anchor="middle" x="256" y="-192" font-family="Helvetica,sans-Serif" font-size="10.00">Dynamic Library &amp; Globals API</text>
</a>
</g>
</g>
<!-- Node1 -->
<g id="Node000001" class="node">
<title>Node1</title>
<g id="a_Node000001"><a xlink:title="The primary, recommended API for creating trampolines from human&#45;readable strings.">
<polygon fill="#999999" stroke="#666666" points="137,-130 0,-130 0,-111 137,-111 137,-130"/>
<text text-anchor="middle" x="68.5" y="-118" font-family="Helvetica,sans-Serif" font-size="10.00">High&#45;Level Signature API</text>
</a>
</g>
</g>
<!-- Node1&#45;&gt;Node8 -->
<g id="edge7" class="edge">
<title>Node1&#45;&gt;Node8</title>
<path fill="none" stroke="black" d="M83.87,-138.07C102.26,-159.32 136.16,-194.6 173,-213.5 182.34,-218.29 192.91,-221.81 203.28,-224.39"/>
<polygon fill="black" stroke="black" points="86.32,-135.54 77.19,-130.16 80.97,-140.06 86.32,-135.54"/>
</g>
<!-- Node1&#45;&gt;Node5 -->
<g id="edge4" class="edge">
<title>Node1&#45;&gt;Node5</title>
<path fill="none" stroke="black" d="M92.55,-135.42C112.96,-148.02 143.94,-165.69 173,-176.5 181.88,-179.8 191.54,-182.59 201,-184.91"/>
<polygon fill="black" stroke="black" points="94.29,-132.38 83.96,-130.03 90.57,-138.31 94.29,-132.38"/>
</g>
<!-- Node7 -->
<g id="Node000007" class="node">
<title>Node7</title>
<g id="a_Node000007"><a xlink:href="group__introspection__api.html" target="_top" xlink:title="Functions for inspecting the properties of trampolines and infix_type objects at runtime.">
<polygon fill="white" stroke="#666666" points="305.5,-167 206.5,-167 206.5,-148 305.5,-148 305.5,-167"/>
<text text-anchor="middle" x="256" y="-155" font-family="Helvetica,sans-Serif" font-size="10.00">Introspection API</text>
</a>
</g>
</g>
<!-- Node1&#45;&gt;Node7 -->
<g id="edge6" class="edge">
<title>Node1&#45;&gt;Node7</title>
<path fill="none" stroke="black" d="M127.24,-132.02C152.87,-137.13 182.69,-143.08 207.07,-147.94"/>
<polygon fill="black" stroke="black" points="127.76,-128.55 117.27,-130.03 126.39,-135.42 127.76,-128.55"/>
</g>
<!-- Node6 -->
<g id="Node000006" class="node">
<title>Node6</title>
<g id="a_Node000006"><a xlink:href="group__manual__api.html" target="_top" xlink:title="A lower&#45;level, programmatic API for creating trampolines from infix_type objects.">
<polygon fill="white" stroke="#666666" points="291.5,-130 220.5,-130 220.5,-111 291.5,-111 291.5,-130"/>
<text text-anchor="middle" x="256" y="-118" font-family="Helvetica,sans-Serif" font-size="10.00">Manual API</text>
</a>
</g>
</g>
<!-- Node1&#45;&gt;Node6 -->
<g id="edge5" class="edge">
<title>Node1&#45;&gt;Node6</title>
<path fill="none" stroke="black" d="M147.31,-120.5C172.8,-120.5 199.85,-120.5 220.45,-120.5"/>
<polygon fill="black" stroke="black" points="147.26,-117 137.26,-120.5 147.26,-124 147.26,-117"/>
</g>
<!-- Node3 -->
<g id="Node000003" class="node">
<title>Node3</title>
<g id="a_Node000003"><a xlink:href="group__memory__management.html" target="_top" xlink:title="APIs for memory management, including custom allocators and arenas.">
<polygon fill="white" stroke="#666666" points="318.5,-93 193.5,-93 193.5,-74 318.5,-74 318.5,-93"/>
<text text-anchor="middle" x="256" y="-81" font-family="Helvetica,sans-Serif" font-size="10.00">Memory Management</text>
</a>
</g>
</g>
<!-- Node1&#45;&gt;Node3 -->
<g id="edge2" class="edge">
<title>Node1&#45;&gt;Node3</title>
<path fill="none" stroke="black" d="M127.24,-108.98C152.87,-103.87 182.69,-97.92 207.07,-93.06"/>
<polygon fill="black" stroke="black" points="126.39,-105.58 117.27,-110.97 127.76,-112.45 126.39,-105.58"/>
</g>
<!-- Node4 -->
<g id="Node000004" class="node">
<title>Node4</title>
<g id="a_Node000004"><a xlink:href="group__registry__api.html" target="_top" xlink:title="APIs for defining, storing, and reusing complex types by name.">
<polygon fill="white" stroke="#666666" points="316.5,-56 195.5,-56 195.5,-37 316.5,-37 316.5,-56"/>
<text text-anchor="middle" x="256" y="-44" font-family="Helvetica,sans-Serif" font-size="10.00">Named Type Registry</text>
</a>
</g>
</g>
<!-- Node1&#45;&gt;Node4 -->
<g id="edge3" class="edge">
<title>Node1&#45;&gt;Node4</title>
<path fill="none" stroke="black" d="M93.33,-105.53C113.78,-93.25 144.41,-76.2 173,-65.5 182.99,-61.76 193.95,-58.61 204.52,-56.01"/>
<polygon fill="black" stroke="black" points="91.4,-102.6 84.69,-110.8 95.05,-108.58 91.4,-102.6"/>
</g>
<!-- Node2 -->
<g id="Node000002" class="node">
<title>Node2</title>
<g id="a_Node000002"><a xlink:href="group__type__system.html" target="_top" xlink:title="The core data structures and APIs for describing C types and function signatures.">
<polygon fill="white" stroke="#666666" points="295.5,-19 216.5,-19 216.5,0 295.5,0 295.5,-19"/>
<text text-anchor="middle" x="256" y="-7" font-family="Helvetica,sans-Serif" font-size="10.00">Type System</text>
</a>
</g>
</g>
<!-- Node1&#45;&gt;Node2 -->
<g id="edge1" class="edge">
<title>Node1&#45;&gt;Node2</title>
<path fill="none" stroke="black" d="M83.95,-103.19C102.42,-82.24 136.4,-47.42 173,-28.5 186.37,-21.59 202.26,-17.16 216.47,-14.34"/>
<polygon fill="black" stroke="black" points="81.11,-101.13 77.24,-110.99 86.42,-105.7 81.11,-101.13"/>
</g>
</g>
</svg>
</svg>

<style type='text/css'>
<![CDATA[
[data-mouse-over-selected='false'] { opacity: 0.7; }
[data-mouse-over-selected='true']  { opacity: 1.0; }
]]>
</style>
<script type="application/ecmascript"><![CDATA[
document.addEventListener('DOMContentLoaded', (event) => {
  highlightEdges();
  highlightAdjacentNodes();
});
]]></script>
</svg>
