<?xml version="1.0" encoding="UTF-8" standalone="no"?>
<!DOCTYPE svg PUBLIC "-//W3C//DTD SVG 1.1//EN"
 "http://www.w3.org/Graphics/SVG/1.1/DTD/svg11.dtd">
<!-- Generated by graphviz version 2.43.0 (0)
 -->
<!-- Title: eg/cookbook/lib/handle_lib.h Pages: 1 -->
<svg width="292pt" height="104pt"
 viewBox="0.00 0.00 291.50 104.00" xmlns="http://www.w3.org/2000/svg" xmlns:xlink="http://www.w3.org/1999/xlink">
<g id="graph0" class="graph" transform="scale(1 1) rotate(0) translate(4 100)">
<title>eg/cookbook/lib/handle_lib.h</title>
<!-- Node1 -->
<g id="Node000001" class="node">
<title>Node1</title>
<g id="a_Node000001"><a xlink:title=" ">
<polygon fill="#999999" stroke="#666666" points="207.5,-96 77.5,-96 77.5,-66 207.5,-66 207.5,-96"/>
<text text-anchor="start" x="85.5" y="-84" font-family="Helvetica,sans-Serif" font-size="10.00">eg/cookbook/lib/handle</text>
<text text-anchor="middle" x="142.5" y="-73" font-family="Helvetica,sans-Serif" font-size="10.00">_lib.h</text>
</a>
</g>
</g>
<!-- Node2 -->
<g id="Node000002" class="node">
<title>Node2</title>
<g id="a_Node000002"><a xlink:href="03__opaque__pointers_8c.html" target="_top" xlink:title="Recipe: Working with Opaque Pointers (Incomplete Types).">
<polygon fill="white" stroke="#666666" points="135,-30 0,-30 0,0 135,0 135,-30"/>
<text text-anchor="start" x="8" y="-18" font-family="Helvetica,sans-Serif" font-size="10.00">eg/cookbook/03_opaque</text>
<text text-anchor="middle" x="67.5" y="-7" font-family="Helvetica,sans-Serif" font-size="10.00">_pointers.c</text>
</a>
</g>
</g>
<!-- Node1&#45;&gt;Node2 -->
<g id="edge1_Node000001_Node000002" class="edge">
<title>Node1&#45;&gt;Node2</title>
<g id="a_edge1_Node000001_Node000002"><a xlink:title=" ">
<path fill="none" stroke="#63b8ff" d="M118.13,-59.2C106.99,-49.7 94.09,-38.69 84.1,-30.16"/>
<polygon fill="#63b8ff" stroke="#63b8ff" points="115.98,-61.97 125.86,-65.8 120.52,-56.64 115.98,-61.97"/>
</a>
</g>
</g>
<!-- Node3 -->
<g id="Node000003" class="node">
<title>Node3</title>
<g id="a_Node000003"><a xlink:href="handle__lib_8c.html" target="_top" xlink:title=" ">
<polygon fill="white" stroke="#666666" points="283.5,-30 153.5,-30 153.5,0 283.5,0 283.5,-30"/>
<text text-anchor="start" x="161.5" y="-18" font-family="Helvetica,sans-Serif" font-size="10.00">eg/cookbook/lib/handle</text>
<text text-anchor="middle" x="218.5" y="-7" font-family="Helvetica,sans-Serif" font-size="10.00">_lib.c</text>
</a>
</g>
</g>
<!-- Node1&#45;&gt;Node3 -->
<g id="edge2_Node000001_Node000003" class="edge">
<title>Node1&#45;&gt;Node3</title>
<g id="a_edge2_Node000001_Node000003"><a xlink:title=" ">
<path fill="none" stroke="#63b8ff" d="M167.2,-59.2C178.48,-49.7 191.55,-38.69 201.68,-30.16"/>
<polygon fill="#63b8ff" stroke="#63b8ff" points="164.76,-56.68 159.37,-65.8 169.27,-62.03 164.76,-56.68"/>
</a>
</g>
</g>
</g>
</svg>
