<?xml version="1.0" encoding="UTF-8" standalone="no"?>
<!DOCTYPE svg PUBLIC "-//W3C//DTD SVG 1.1//EN"
 "http://www.w3.org/Graphics/SVG/1.1/DTD/svg11.dtd">
<!-- Generated by graphviz version 2.43.0 (0)
 -->
<!-- Title: src/common/infix_config.h Pages: 1 -->
<svg width="2945pt" height="269pt"
 viewBox="0.00 0.00 2944.79 269.00" xmlns="http://www.w3.org/2000/svg" xmlns:xlink="http://www.w3.org/1999/xlink">
<g id="graph0" class="graph" transform="scale(1 1) rotate(0) translate(4 265)">
<title>src/common/infix_config.h</title>
<!-- Node1 -->
<g id="Node000001" class="node">
<title>Node1</title>
<g id="a_Node000001"><a xlink:title="Platform, architecture, and ABI detection macros.">
<polygon fill="#999999" stroke="#666666" points="2238.79,-261 2094.79,-261 2094.79,-242 2238.79,-242 2238.79,-261"/>
<text text-anchor="middle" x="2166.79" y="-249" font-family="Helvetica,sans-Serif" font-size="10.00">src/common/infix_config.h</text>
</a>
</g>
</g>
<!-- Node2 -->
<g id="Node000002" class="node">
<title>Node2</title>
<g id="a_Node000002"><a xlink:href="infix__internals_8h.html" target="_top" xlink:title="Internal data structures, function prototypes, and constants.">
<polygon fill="white" stroke="#666666" points="1379.79,-151 1221.79,-151 1221.79,-132 1379.79,-132 1379.79,-151"/>
<text text-anchor="middle" x="1300.79" y="-139" font-family="Helvetica,sans-Serif" font-size="10.00">src/common/infix_internals.h</text>
</a>
</g>
</g>
<!-- Node1&#45;&gt;Node2 -->
<g id="edge1_Node000001_Node000002" class="edge">
<title>Node1&#45;&gt;Node2</title>
<g id="a_edge1_Node000001_Node000002"><a xlink:title=" ">
<path fill="none" stroke="#63b8ff" d="M2088.45,-240.73C1920.37,-219.77 1527.51,-170.77 1368.95,-151"/>
<polygon fill="#63b8ff" stroke="#63b8ff" points="2088.11,-244.22 2098.47,-241.98 2088.98,-237.27 2088.11,-244.22"/>
</a>
</g>
</g>
<!-- Node30 -->
<g id="Node000030" class="node">
<title>Node30</title>
<g id="a_Node000030"><a xlink:href="501__direct__marshalling_8c.html" target="_top" xlink:title="Test suite for the high&#45;performance direct marshalling API.">
<polygon fill="white" stroke="#666666" points="2081.79,-90.5 1935.79,-90.5 1935.79,-71.5 2081.79,-71.5 2081.79,-90.5"/>
<text text-anchor="middle" x="2008.79" y="-78.5" font-family="Helvetica,sans-Serif" font-size="10.00">t/501_direct_marshalling.c</text>
</a>
</g>
</g>
<!-- Node1&#45;&gt;Node30 -->
<g id="edge50_Node000001_Node000030" class="edge">
<title>Node1&#45;&gt;Node30</title>
<g id="a_edge50_Node000001_Node000030"><a xlink:title=" ">
<path fill="none" stroke="#63b8ff" d="M2084.44,-243.59C2032.77,-237.36 1972.98,-225.99 1956.79,-206 1926.8,-169 1977.63,-112.23 1999.51,-90.69"/>
<polygon fill="#63b8ff" stroke="#63b8ff" points="2084.31,-247.1 2094.65,-244.77 2085.11,-240.15 2084.31,-247.1"/>
</a>
</g>
</g>
<!-- Node31 -->
<g id="Node000031" class="node">
<title>Node31</title>
<g id="a_Node000031"><a xlink:href="830__security_8c.html" target="_top" xlink:title="Unit test for security&#45;hardening features of the infix library.">
<polygon fill="white" stroke="#666666" points="2191.79,-90.5 2099.79,-90.5 2099.79,-71.5 2191.79,-71.5 2191.79,-90.5"/>
<text text-anchor="middle" x="2145.79" y="-78.5" font-family="Helvetica,sans-Serif" font-size="10.00">t/830_security.c</text>
</a>
</g>
</g>
<!-- Node1&#45;&gt;Node31 -->
<g id="edge53_Node000001_Node000031" class="edge">
<title>Node1&#45;&gt;Node31</title>
<g id="a_edge53_Node000001_Node000031"><a xlink:title=" ">
<path fill="none" stroke="#63b8ff" d="M2084.55,-242.88C2035.21,-236.42 1979.13,-225.07 1963.79,-206 1958.49,-199.42 1959.56,-194.31 1963.79,-187 1995.44,-132.19 2067.78,-103.45 2111.13,-90.61"/>
<polygon fill="#63b8ff" stroke="#63b8ff" points="2084.28,-246.38 2094.64,-244.15 2085.15,-239.43 2084.28,-246.38"/>
</a>
</g>
</g>
<!-- Node33 -->
<g id="Node000033" class="node">
<title>Node33</title>
<g id="a_Node000033"><a xlink:href="platform_8h.html" target="_top" xlink:title="Declares internal, runtime CPU/OS feature detection functions.">
<polygon fill="white" stroke="#666666" points="1366.29,-206 1235.29,-206 1235.29,-187 1366.29,-187 1366.29,-206"/>
<text text-anchor="middle" x="1300.79" y="-194" font-family="Helvetica,sans-Serif" font-size="10.00">src/common/platform.h</text>
</a>
</g>
</g>
<!-- Node1&#45;&gt;Node33 -->
<g id="edge42_Node000001_Node000033" class="edge">
<title>Node1&#45;&gt;Node33</title>
<g id="a_edge42_Node000001_Node000033"><a xlink:title=" ">
<path fill="none" stroke="#63b8ff" d="M2084.22,-245.45C1912.92,-234.96 1521.89,-211.03 1366.36,-201.51"/>
<polygon fill="#63b8ff" stroke="#63b8ff" points="2084.25,-248.95 2094.44,-246.07 2084.67,-241.97 2084.25,-248.95"/>
</a>
</g>
</g>
<!-- Node35 -->
<g id="Node000035" class="node">
<title>Node35</title>
<g id="a_Node000035"><a xlink:href="001__primitives_8c.html" target="_top" xlink:title="Unit test for creating trampolines for functions with primitive C types.">
<polygon fill="white" stroke="#666666" points="2076.79,-206 1972.79,-206 1972.79,-187 2076.79,-187 2076.79,-206"/>
<text text-anchor="middle" x="2024.79" y="-194" font-family="Helvetica,sans-Serif" font-size="10.00">t/001_primitives.c</text>
</a>
</g>
</g>
<!-- Node1&#45;&gt;Node35 -->
<g id="edge46_Node000001_Node000035" class="edge">
<title>Node1&#45;&gt;Node35</title>
<g id="a_edge46_Node000001_Node000035"><a xlink:title=" ">
<path fill="none" stroke="#63b8ff" d="M2134.42,-238.42C2108.08,-228.59 2071.53,-214.95 2048.02,-206.17"/>
<polygon fill="#63b8ff" stroke="#63b8ff" points="2133.38,-241.77 2143.97,-241.98 2135.83,-235.21 2133.38,-241.77"/>
</a>
</g>
</g>
<!-- Node36 -->
<g id="Node000036" class="node">
<title>Node36</title>
<g id="a_Node000036"><a xlink:href="402__variadic__functions_8c.html" target="_top" xlink:title="Unit test for FFI calls to and from variadic C functions.">
<polygon fill="white" stroke="#666666" points="2238.79,-206 2094.79,-206 2094.79,-187 2238.79,-187 2238.79,-206"/>
<text text-anchor="middle" x="2166.79" y="-194" font-family="Helvetica,sans-Serif" font-size="10.00">t/402_variadic_functions.c</text>
</a>
</g>
</g>
<!-- Node1&#45;&gt;Node36 -->
<g id="edge47_Node000001_Node000036" class="edge">
<title>Node1&#45;&gt;Node36</title>
<g id="a_edge47_Node000001_Node000036"><a xlink:title=" ">
<path fill="none" stroke="#63b8ff" d="M2166.79,-231.66C2166.79,-222.93 2166.79,-212.99 2166.79,-206.09"/>
<polygon fill="#63b8ff" stroke="#63b8ff" points="2163.29,-231.75 2166.79,-241.75 2170.29,-231.75 2163.29,-231.75"/>
</a>
</g>
</g>
<!-- Node37 -->
<g id="Node000037" class="node">
<title>Node37</title>
<g id="a_Node000037"><a xlink:href="403__special__types_8c.html" target="_top" xlink:title="Unit test for FFI calls with special, non&#45;standard, or platform&#45;dependent primitive types.">
<polygon fill="white" stroke="#666666" points="2378.79,-206 2256.79,-206 2256.79,-187 2378.79,-187 2378.79,-206"/>
<text text-anchor="middle" x="2317.79" y="-194" font-family="Helvetica,sans-Serif" font-size="10.00">t/403_special_types.c</text>
</a>
</g>
</g>
<!-- Node1&#45;&gt;Node37 -->
<g id="edge48_Node000001_Node000037" class="edge">
<title>Node1&#45;&gt;Node37</title>
<g id="a_edge48_Node000001_Node000037"><a xlink:title=" ">
<path fill="none" stroke="#63b8ff" d="M2200.83,-238.55C2228.87,-228.71 2267.97,-214.98 2293.08,-206.17"/>
<polygon fill="#63b8ff" stroke="#63b8ff" points="2199.32,-235.37 2191.05,-241.98 2201.64,-241.98 2199.32,-235.37"/>
</a>
</g>
</g>
<!-- Node38 -->
<g id="Node000038" class="node">
<title>Node38</title>
<g id="a_Node000038"><a xlink:href="404__simd__vectors_8c.html" target="_top" xlink:title="Unit test for SIMD vector argument passing and return values.">
<polygon fill="white" stroke="#666666" points="2516.79,-206 2396.79,-206 2396.79,-187 2516.79,-187 2516.79,-206"/>
<text text-anchor="middle" x="2456.79" y="-194" font-family="Helvetica,sans-Serif" font-size="10.00">t/404_simd_vectors.c</text>
</a>
</g>
</g>
<!-- Node1&#45;&gt;Node38 -->
<g id="edge49_Node000001_Node000038" class="edge">
<title>Node1&#45;&gt;Node38</title>
<g id="a_edge49_Node000001_Node000038"><a xlink:title=" ">
<path fill="none" stroke="#63b8ff" d="M2223.54,-240.13C2277.91,-230.19 2358.99,-215.37 2409.83,-206.08"/>
<polygon fill="#63b8ff" stroke="#63b8ff" points="2222.59,-236.74 2213.38,-241.98 2223.85,-243.63 2222.59,-236.74"/>
</a>
</g>
</g>
<!-- Node39 -->
<g id="Node000039" class="node">
<title>Node39</title>
<g id="a_Node000039"><a xlink:href="820__threading__helgrind_8c.html" target="_top" xlink:title="A stress test to detect data races and other threading issues.">
<polygon fill="white" stroke="#666666" points="2680.79,-206 2534.79,-206 2534.79,-187 2680.79,-187 2680.79,-206"/>
<text text-anchor="middle" x="2607.79" y="-194" font-family="Helvetica,sans-Serif" font-size="10.00">t/820_threading_helgrind.c</text>
</a>
</g>
</g>
<!-- Node1&#45;&gt;Node39 -->
<g id="edge51_Node000001_Node000039" class="edge">
<title>Node1&#45;&gt;Node39</title>
<g id="a_edge51_Node000001_Node000039"><a xlink:title=" ">
<path fill="none" stroke="#63b8ff" d="M2247.76,-240.77C2330.51,-230.82 2457.78,-215.53 2536.74,-206.04"/>
<polygon fill="#63b8ff" stroke="#63b8ff" points="2247.15,-237.32 2237.64,-241.98 2247.99,-244.27 2247.15,-237.32"/>
</a>
</g>
</g>
<!-- Node40 -->
<g id="Node000040" class="node">
<title>Node40</title>
<g id="a_Node000040"><a xlink:href="821__threading__bare_8c.html" target="_top" xlink:title="A minimal, dependency&#45;free version of the thread&#45;safety stress test.">
<polygon fill="white" stroke="#666666" points="2826.79,-206 2698.79,-206 2698.79,-187 2826.79,-187 2826.79,-206"/>
<text text-anchor="middle" x="2762.79" y="-194" font-family="Helvetica,sans-Serif" font-size="10.00">t/821_threading_bare.c</text>
</a>
</g>
</g>
<!-- Node1&#45;&gt;Node40 -->
<g id="edge52_Node000001_Node000040" class="edge">
<title>Node1&#45;&gt;Node40</title>
<g id="a_edge52_Node000001_Node000040"><a xlink:title=" ">
<path fill="none" stroke="#63b8ff" d="M2249.22,-244.28C2352.33,-236.32 2534.26,-221.67 2689.79,-206 2692.71,-205.71 2695.69,-205.4 2698.7,-205.08"/>
<polygon fill="#63b8ff" stroke="#63b8ff" points="2248.89,-240.8 2239.19,-245.05 2249.43,-247.78 2248.89,-240.8"/>
</a>
</g>
</g>
<!-- Node41 -->
<g id="Node000041" class="node">
<title>Node41</title>
<g id="a_Node000041"><a xlink:href="880__exports_8c.html" target="_top" xlink:title="Unit test for the dynamic library loading and symbol access API.">
<polygon fill="white" stroke="#666666" points="2936.79,-206 2844.79,-206 2844.79,-187 2936.79,-187 2936.79,-206"/>
<text text-anchor="middle" x="2890.79" y="-194" font-family="Helvetica,sans-Serif" font-size="10.00">t/880_exports.c</text>
</a>
</g>
</g>
<!-- Node1&#45;&gt;Node41 -->
<g id="edge54_Node000001_Node000041" class="edge">
<title>Node1&#45;&gt;Node41</title>
<g id="a_edge54_Node000001_Node000041"><a xlink:title=" ">
<path fill="none" stroke="#63b8ff" d="M2249.24,-247.32C2375.72,-241.93 2625.13,-229.24 2835.79,-206 2838.67,-205.68 2841.63,-205.32 2844.61,-204.93"/>
<polygon fill="#63b8ff" stroke="#63b8ff" points="2249.08,-243.83 2239.24,-247.75 2249.37,-250.82 2249.08,-243.83"/>
</a>
</g>
</g>
<!-- Node3 -->
<g id="Node000003" class="node">
<title>Node3</title>
<g id="a_Node000003"><a xlink:href="fuzz__helpers_8h.html" target="_top" xlink:title="Common definitions, structures, and helpers for all fuzzer targets.">
<polygon fill="white" stroke="#666666" points="1533.79,-90.5 1423.79,-90.5 1423.79,-71.5 1533.79,-71.5 1533.79,-90.5"/>
<text text-anchor="middle" x="1478.79" y="-78.5" font-family="Helvetica,sans-Serif" font-size="10.00">fuzz/fuzz_helpers.h</text>
</a>
</g>
</g>
<!-- Node2&#45;&gt;Node3 -->
<g id="edge2_Node000002_Node000003" class="edge">
<title>Node2&#45;&gt;Node3</title>
<g id="a_edge2_Node000002_Node000003"><a xlink:title=" ">
<path fill="none" stroke="#63b8ff" d="M1336.33,-128.82C1370.76,-117.5 1422.14,-100.62 1452.87,-90.52"/>
<polygon fill="#63b8ff" stroke="#63b8ff" points="1335.08,-125.55 1326.67,-131.99 1337.26,-132.2 1335.08,-125.55"/>
</a>
</g>
</g>
<!-- Node12 -->
<g id="Node000012" class="node">
<title>Node12</title>
<g id="a_Node000012"><a xlink:href="abi__arm64_8c.html" target="_top" xlink:title="Implements the FFI logic for the AArch64 (ARM64) architecture.">
<polygon fill="white" stroke="#666666" points="1808.29,-30 1693.29,-30 1693.29,0 1808.29,0 1808.29,-30"/>
<text text-anchor="start" x="1701.29" y="-18" font-family="Helvetica,sans-Serif" font-size="10.00">src/arch/aarch64/abi</text>
<text text-anchor="middle" x="1750.79" y="-7" font-family="Helvetica,sans-Serif" font-size="10.00">_arm64.c</text>
</a>
</g>
</g>
<!-- Node2&#45;&gt;Node12 -->
<g id="edge11_Node000002_Node000012" class="edge">
<title>Node2&#45;&gt;Node12</title>
<g id="a_edge11_Node000002_Node000012"><a xlink:title=" ">
<path fill="none" stroke="#63b8ff" d="M1390.14,-134.49C1437.2,-128.78 1494.93,-117.66 1542.79,-96 1562.39,-87.13 1561.67,-75.88 1580.79,-66 1600.73,-55.69 1653.22,-40.87 1694.65,-30.05"/>
<polygon fill="#63b8ff" stroke="#63b8ff" points="1389.49,-131.04 1379.96,-135.66 1390.29,-137.99 1389.49,-131.04"/>
</a>
</g>
</g>
<!-- Node13 -->
<g id="Node000013" class="node">
<title>Node13</title>
<g id="a_Node000013"><a xlink:href="abi__arm64__emitters_8h.html" target="_top" xlink:title="Declares internal helper functions for emitting AArch64 machine code.">
<polygon fill="white" stroke="#666666" points="1705.29,-96 1590.29,-96 1590.29,-66 1705.29,-66 1705.29,-96"/>
<text text-anchor="start" x="1598.29" y="-84" font-family="Helvetica,sans-Serif" font-size="10.00">src/arch/aarch64/abi</text>
<text text-anchor="middle" x="1647.79" y="-73" font-family="Helvetica,sans-Serif" font-size="10.00">_arm64_emitters.h</text>
</a>
</g>
</g>
<!-- Node2&#45;&gt;Node13 -->
<g id="edge12_Node000002_Node000013" class="edge">
<title>Node2&#45;&gt;Node13</title>
<g id="a_edge12_Node000002_Node000013"><a xlink:title=" ">
<path fill="none" stroke="#63b8ff" d="M1366.8,-130.42C1422.57,-121.76 1504.51,-108.69 1575.79,-96 1580.42,-95.17 1585.23,-94.29 1590.05,-93.39"/>
<polygon fill="#63b8ff" stroke="#63b8ff" points="1366.05,-126.99 1356.7,-131.98 1367.12,-133.91 1366.05,-126.99"/>
</a>
</g>
</g>
<!-- Node15 -->
<g id="Node000015" class="node">
<title>Node15</title>
<g id="a_Node000015"><a xlink:href="abi__sysv__x64_8c.html" target="_top" xlink:title="Implements the FFI logic for the System V AMD64 ABI.">
<polygon fill="white" stroke="#666666" points="2081.79,-30 1959.79,-30 1959.79,0 2081.79,0 2081.79,-30"/>
<text text-anchor="start" x="1967.79" y="-18" font-family="Helvetica,sans-Serif" font-size="10.00">src/arch/x64/abi_sysv</text>
<text text-anchor="middle" x="2020.79" y="-7" font-family="Helvetica,sans-Serif" font-size="10.00">_x64.c</text>
</a>
</g>
</g>
<!-- Node2&#45;&gt;Node15 -->
<g id="edge15_Node000002_Node000015" class="edge">
<title>Node2&#45;&gt;Node15</title>
<g id="a_edge15_Node000002_Node000015"><a xlink:title=" ">
<path fill="none" stroke="#63b8ff" d="M1390.32,-136.52C1493.74,-130.94 1656.95,-118.8 1713.79,-96 1734.08,-87.86 1732.8,-74.88 1752.79,-66 1834.12,-29.85 1862.34,-46.61 1949.79,-30 1952.99,-29.39 1956.28,-28.76 1959.6,-28.12"/>
<polygon fill="#63b8ff" stroke="#63b8ff" points="1389.99,-133.03 1380.19,-137.06 1390.36,-140.02 1389.99,-133.03"/>
</a>
</g>
</g>
<!-- Node16 -->
<g id="Node000016" class="node">
<title>Node16</title>
<g id="a_Node000016"><a xlink:href="abi__win__x64_8c.html" target="_top" xlink:title="Implements the FFI logic for the Windows x64 calling convention.">
<polygon fill="white" stroke="#666666" points="2351.79,-30 2235.79,-30 2235.79,0 2351.79,0 2351.79,-30"/>
<text text-anchor="start" x="2243.79" y="-18" font-family="Helvetica,sans-Serif" font-size="10.00">src/arch/x64/abi_win</text>
<text text-anchor="middle" x="2293.79" y="-7" font-family="Helvetica,sans-Serif" font-size="10.00">_x64.c</text>
</a>
</g>
</g>
<!-- Node2&#45;&gt;Node16 -->
<g id="edge16_Node000002_Node000016" class="edge">
<title>Node2&#45;&gt;Node16</title>
<g id="a_edge16_Node000002_Node000016"><a xlink:title=" ">
<path fill="none" stroke="#63b8ff" d="M1390.27,-139.94C1531.57,-138.01 1799.38,-129.85 1887.79,-96 1908.21,-88.18 1906.54,-74.26 1926.79,-66 2051.12,-15.25 2094.27,-51.75 2226.79,-30 2229.72,-29.52 2232.71,-29 2235.74,-28.45"/>
<polygon fill="#63b8ff" stroke="#63b8ff" points="1389.86,-136.44 1379.91,-140.07 1389.95,-143.44 1389.86,-136.44"/>
</a>
</g>
</g>
<!-- Node17 -->
<g id="Node000017" class="node">
<title>Node17</title>
<g id="a_Node000017"><a xlink:href="abi__x64__emitters_8h.html" target="_top" xlink:title="Declares internal helper functions for emitting x86&#45;64 machine code.">
<polygon fill="white" stroke="#666666" points="1879.29,-96 1762.29,-96 1762.29,-66 1879.29,-66 1879.29,-96"/>
<text text-anchor="start" x="1770.29" y="-84" font-family="Helvetica,sans-Serif" font-size="10.00">src/arch/x64/abi_x64</text>
<text text-anchor="middle" x="1820.79" y="-73" font-family="Helvetica,sans-Serif" font-size="10.00">_emitters.h</text>
</a>
</g>
</g>
<!-- Node2&#45;&gt;Node17 -->
<g id="edge17_Node000002_Node000017" class="edge">
<title>Node2&#45;&gt;Node17</title>
<g id="a_edge17_Node000002_Node000017"><a xlink:title=" ">
<path fill="none" stroke="#63b8ff" d="M1390.4,-133.97C1480.85,-126.82 1624.43,-113.93 1747.79,-96 1752.38,-95.33 1757.13,-94.57 1761.9,-93.77"/>
<polygon fill="#63b8ff" stroke="#63b8ff" points="1389.87,-130.5 1380.18,-134.77 1390.42,-137.48 1389.87,-130.5"/>
</a>
</g>
</g>
<!-- Node19 -->
<g id="Node000019" class="node">
<title>Node19</title>
<g id="a_Node000019"><a xlink:href="arena_8c.html" target="_top" xlink:title="Implements a simple, fast arena (or region&#45;based) allocator.">
<polygon fill="white" stroke="#666666" points="235.79,-90.5 141.79,-90.5 141.79,-71.5 235.79,-71.5 235.79,-90.5"/>
<text text-anchor="middle" x="188.79" y="-78.5" font-family="Helvetica,sans-Serif" font-size="10.00">src/core/arena.c</text>
</a>
</g>
</g>
<!-- Node2&#45;&gt;Node19 -->
<g id="edge21_Node000002_Node000019" class="edge">
<title>Node2&#45;&gt;Node19</title>
<g id="a_edge21_Node000002_Node000019"><a xlink:title=" ">
<path fill="none" stroke="#63b8ff" d="M1211.54,-139.07C992.03,-135.17 430.26,-122.81 244.79,-96 236.06,-94.74 226.71,-92.69 218.21,-90.54"/>
<polygon fill="#63b8ff" stroke="#63b8ff" points="1211.67,-142.57 1221.73,-139.25 1211.79,-135.57 1211.67,-142.57"/>
</a>
</g>
</g>
<!-- Node21 -->
<g id="Node000021" class="node">
<title>Node21</title>
<g id="a_Node000021"><a xlink:href="error_8c.html" target="_top" xlink:title="Implements the thread&#45;local error reporting system.">
<polygon fill="white" stroke="#666666" points="788.29,-90.5 699.29,-90.5 699.29,-71.5 788.29,-71.5 788.29,-90.5"/>
<text text-anchor="middle" x="743.79" y="-78.5" font-family="Helvetica,sans-Serif" font-size="10.00">src/core/error.c</text>
</a>
</g>
</g>
<!-- Node2&#45;&gt;Node21 -->
<g id="edge23_Node000002_Node000021" class="edge">
<title>Node2&#45;&gt;Node21</title>
<g id="a_edge23_Node000002_Node000021"><a xlink:title=" ">
<path fill="none" stroke="#63b8ff" d="M1211.25,-137.05C1110.21,-132.13 941.23,-120.77 797.79,-96 789.67,-94.6 780.99,-92.59 773.02,-90.52"/>
<polygon fill="#63b8ff" stroke="#63b8ff" points="1211.26,-140.56 1221.42,-137.54 1211.6,-133.56 1211.26,-140.56"/>
</a>
</g>
</g>
<!-- Node22 -->
<g id="Node000022" class="node">
<title>Node22</title>
<g id="a_Node000022"><a xlink:href="loader_8c.html" target="_top" xlink:title="Implements cross&#45;platform dynamic library loading.">
<polygon fill="white" stroke="#666666" points="902.79,-90.5 806.79,-90.5 806.79,-71.5 902.79,-71.5 902.79,-90.5"/>
<text text-anchor="middle" x="854.79" y="-78.5" font-family="Helvetica,sans-Serif" font-size="10.00">src/core/loader.c</text>
</a>
</g>
</g>
<!-- Node2&#45;&gt;Node22 -->
<g id="edge25_Node000002_Node000022" class="edge">
<title>Node2&#45;&gt;Node22</title>
<g id="a_edge25_Node000002_Node000022"><a xlink:title=" ">
<path fill="none" stroke="#63b8ff" d="M1211.34,-133.52C1132.19,-126.57 1013.76,-114.28 911.79,-96 903.56,-94.53 894.76,-92.56 886.59,-90.57"/>
<polygon fill="#63b8ff" stroke="#63b8ff" points="1211.49,-137.04 1221.75,-134.42 1212.09,-130.07 1211.49,-137.04"/>
</a>
</g>
</g>
<!-- Node23 -->
<g id="Node000023" class="node">
<title>Node23</title>
<g id="a_Node000023"><a xlink:href="signature_8c.html" target="_top" xlink:title="Implements the infix signature string parser and type printer.">
<polygon fill="white" stroke="#666666" points="1032.79,-90.5 920.79,-90.5 920.79,-71.5 1032.79,-71.5 1032.79,-90.5"/>
<text text-anchor="middle" x="976.79" y="-78.5" font-family="Helvetica,sans-Serif" font-size="10.00">src/core/signature.c</text>
</a>
</g>
</g>
<!-- Node2&#45;&gt;Node23 -->
<g id="edge27_Node000002_Node000023" class="edge">
<title>Node2&#45;&gt;Node23</title>
<g id="a_edge27_Node000002_Node000023"><a xlink:title=" ">
<path fill="none" stroke="#63b8ff" d="M1236.92,-130.29C1184.41,-121.72 1108.14,-108.84 1041.79,-96 1033.17,-94.33 1023.94,-92.42 1015.23,-90.56"/>
<polygon fill="#63b8ff" stroke="#63b8ff" points="1236.66,-133.8 1247.09,-131.95 1237.79,-126.89 1236.66,-133.8"/>
</a>
</g>
</g>
<!-- Node24 -->
<g id="Node000024" class="node">
<title>Node24</title>
<g id="a_Node000024"><a xlink:href="type__registry_8c.html" target="_top" xlink:title="Implements the named type registry system.">
<polygon fill="white" stroke="#666666" points="1180.29,-90.5 1051.29,-90.5 1051.29,-71.5 1180.29,-71.5 1180.29,-90.5"/>
<text text-anchor="middle" x="1115.79" y="-78.5" font-family="Helvetica,sans-Serif" font-size="10.00">src/core/type_registry.c</text>
</a>
</g>
</g>
<!-- Node2&#45;&gt;Node24 -->
<g id="edge29_Node000002_Node000024" class="edge">
<title>Node2&#45;&gt;Node24</title>
<g id="a_edge29_Node000002_Node000024"><a xlink:title=" ">
<path fill="none" stroke="#63b8ff" d="M1264.3,-128.96C1228.52,-117.65 1174.79,-100.66 1142.72,-90.52"/>
<polygon fill="#63b8ff" stroke="#63b8ff" points="1263.29,-132.32 1273.88,-131.99 1265.41,-125.64 1263.29,-132.32"/>
</a>
</g>
</g>
<!-- Node25 -->
<g id="Node000025" class="node">
<title>Node25</title>
<g id="a_Node000025"><a xlink:href="types_8c.html" target="_top" xlink:title="Implements the public API for creating and managing type descriptions.">
<polygon fill="white" stroke="#666666" points="1291.29,-90.5 1198.29,-90.5 1198.29,-71.5 1291.29,-71.5 1291.29,-90.5"/>
<text text-anchor="middle" x="1244.79" y="-78.5" font-family="Helvetica,sans-Serif" font-size="10.00">src/core/types.c</text>
</a>
</g>
</g>
<!-- Node2&#45;&gt;Node25 -->
<g id="edge31_Node000002_Node000025" class="edge">
<title>Node2&#45;&gt;Node25</title>
<g id="a_edge31_Node000002_Node000025"><a xlink:title=" ">
<path fill="none" stroke="#63b8ff" d="M1285.56,-124.59C1275.1,-113.67 1261.62,-99.58 1253.08,-90.67"/>
<polygon fill="#63b8ff" stroke="#63b8ff" points="1283.08,-127.06 1292.52,-131.87 1288.14,-122.22 1283.08,-127.06"/>
</a>
</g>
</g>
<!-- Node26 -->
<g id="Node000026" class="node">
<title>Node26</title>
<g id="a_Node000026"><a xlink:href="executor_8c.html" target="_top" xlink:title="Implements platform&#45;specific memory management for JIT code and execution.">
<polygon fill="white" stroke="#666666" points="1405.79,-90.5 1309.79,-90.5 1309.79,-71.5 1405.79,-71.5 1405.79,-90.5"/>
<text text-anchor="middle" x="1357.79" y="-78.5" font-family="Helvetica,sans-Serif" font-size="10.00">src/jit/executor.c</text>
</a>
</g>
</g>
<!-- Node2&#45;&gt;Node26 -->
<g id="edge33_Node000002_Node000026" class="edge">
<title>Node2&#45;&gt;Node26</title>
<g id="a_edge33_Node000002_Node000026"><a xlink:title=" ">
<path fill="none" stroke="#63b8ff" d="M1316.29,-124.59C1326.93,-113.67 1340.65,-99.58 1349.34,-90.67"/>
<polygon fill="#63b8ff" stroke="#63b8ff" points="1313.67,-122.26 1309.2,-131.87 1318.68,-127.15 1313.67,-122.26"/>
</a>
</g>
</g>
<!-- Node27 -->
<g id="Node000027" class="node">
<title>Node27</title>
<g id="a_Node000027"><a xlink:href="trampoline_8c.html" target="_top" xlink:title="The core JIT engine for generating forward and reverse trampolines.">
<polygon fill="white" stroke="#666666" points="123.79,-90.5 15.79,-90.5 15.79,-71.5 123.79,-71.5 123.79,-90.5"/>
<text text-anchor="middle" x="69.79" y="-78.5" font-family="Helvetica,sans-Serif" font-size="10.00">src/jit/trampoline.c</text>
</a>
</g>
</g>
<!-- Node2&#45;&gt;Node27 -->
<g id="edge35_Node000002_Node000027" class="edge">
<title>Node2&#45;&gt;Node27</title>
<g id="a_edge35_Node000002_Node000027"><a xlink:title=" ">
<path fill="none" stroke="#63b8ff" d="M1211.43,-139.18C975.72,-135.38 341.01,-122.88 132.79,-96 123.01,-94.74 112.51,-92.69 102.94,-90.54"/>
<polygon fill="#63b8ff" stroke="#63b8ff" points="1211.62,-142.69 1221.67,-139.35 1211.73,-135.69 1211.62,-142.69"/>
</a>
</g>
</g>
<!-- Node28 -->
<g id="Node000028" class="node">
<title>Node28</title>
<g id="a_Node000028"><a xlink:href="008__registry__introspection_8c.html" target="_top" xlink:title="Unit test for the registry introspection and serialization APIs.">
<polygon fill="white" stroke="#666666" points="415.29,-90.5 254.29,-90.5 254.29,-71.5 415.29,-71.5 415.29,-90.5"/>
<text text-anchor="middle" x="334.79" y="-78.5" font-family="Helvetica,sans-Serif" font-size="10.00">t/008_registry_introspection.c</text>
</a>
</g>
</g>
<!-- Node2&#45;&gt;Node28 -->
<g id="edge37_Node000002_Node000028" class="edge">
<title>Node2&#45;&gt;Node28</title>
<g id="a_edge37_Node000002_Node000028"><a xlink:title=" ">
<path fill="none" stroke="#63b8ff" d="M1211.46,-139.07C1052.62,-135.84 710.72,-125.76 423.79,-96 410.56,-94.63 396.31,-92.62 383.16,-90.56"/>
<polygon fill="#63b8ff" stroke="#63b8ff" points="1211.59,-142.57 1221.66,-139.27 1211.73,-135.58 1211.59,-142.57"/>
</a>
</g>
</g>
<!-- Node29 -->
<g id="Node000029" class="node">
<title>Node29</title>
<g id="a_Node000029"><a xlink:href="101__by__value_8c.html" target="_top" xlink:title="Unit test for passing and returning aggregates and vectors by value.">
<polygon fill="white" stroke="#666666" points="532.29,-90.5 433.29,-90.5 433.29,-71.5 532.29,-71.5 532.29,-90.5"/>
<text text-anchor="middle" x="482.79" y="-78.5" font-family="Helvetica,sans-Serif" font-size="10.00">t/101_by_value.c</text>
</a>
</g>
</g>
<!-- Node2&#45;&gt;Node29 -->
<g id="edge38_Node000002_Node000029" class="edge">
<title>Node2&#45;&gt;Node29</title>
<g id="a_edge38_Node000002_Node000029"><a xlink:title=" ">
<path fill="none" stroke="#63b8ff" d="M1211.23,-140.29C1068.74,-138.82 781.95,-131.26 541.79,-96 532.72,-94.67 523.01,-92.63 514.13,-90.51"/>
<polygon fill="#63b8ff" stroke="#63b8ff" points="1211.62,-143.79 1221.65,-140.39 1211.69,-136.79 1211.62,-143.79"/>
</a>
</g>
</g>
<!-- Node2&#45;&gt;Node30 -->
<g id="edge39_Node000002_Node000030" class="edge">
<title>Node2&#45;&gt;Node30</title>
<g id="a_edge39_Node000002_Node000030"><a xlink:title=" ">
<path fill="none" stroke="#63b8ff" d="M1390.21,-136.57C1511.09,-130.69 1733.21,-117.89 1921.79,-96 1934.4,-94.54 1947.98,-92.55 1960.57,-90.53"/>
<polygon fill="#63b8ff" stroke="#63b8ff" points="1389.73,-133.09 1379.91,-137.06 1390.06,-140.08 1389.73,-133.09"/>
</a>
</g>
</g>
<!-- Node2&#45;&gt;Node31 -->
<g id="edge40_Node000002_Node000031" class="edge">
<title>Node2&#45;&gt;Node31</title>
<g id="a_edge40_Node000002_Node000031"><a xlink:title=" ">
<path fill="none" stroke="#63b8ff" d="M1390.11,-141.06C1537.12,-140.72 1838.87,-134.79 2090.79,-96 2099.26,-94.7 2108.32,-92.66 2116.6,-90.54"/>
<polygon fill="#63b8ff" stroke="#63b8ff" points="1389.79,-137.56 1379.8,-141.07 1389.8,-144.56 1389.79,-137.56"/>
</a>
</g>
</g>
<!-- Node32 -->
<g id="Node000032" class="node">
<title>Node32</title>
<g id="a_Node000032"><a xlink:href="840__arena__allocator_8c.html" target="_top" xlink:title="Unit test for the internal arena allocator.">
<polygon fill="white" stroke="#666666" points="680.79,-90.5 550.79,-90.5 550.79,-71.5 680.79,-71.5 680.79,-90.5"/>
<text text-anchor="middle" x="615.79" y="-78.5" font-family="Helvetica,sans-Serif" font-size="10.00">t/840_arena_allocator.c</text>
</a>
</g>
</g>
<!-- Node2&#45;&gt;Node32 -->
<g id="edge41_Node000002_Node000032" class="edge">
<title>Node2&#45;&gt;Node32</title>
<g id="a_edge41_Node000002_Node000032"><a xlink:title=" ">
<path fill="none" stroke="#63b8ff" d="M1211.22,-137.18C1091.85,-132.03 874.24,-120.09 689.79,-96 678.89,-94.58 667.18,-92.58 656.36,-90.54"/>
<polygon fill="#63b8ff" stroke="#63b8ff" points="1211.26,-140.69 1221.4,-137.62 1211.56,-133.69 1211.26,-140.69"/>
</a>
</g>
</g>
<!-- Node4 -->
<g id="Node000004" class="node">
<title>Node4</title>
<g id="a_Node000004"><a xlink:href="fuzz__abi_8c.html" target="_top" xlink:title="Fuzzer target for the ABI classification layer.">
<polygon fill="white" stroke="#666666" points="1154.29,-24.5 1065.29,-24.5 1065.29,-5.5 1154.29,-5.5 1154.29,-24.5"/>
<text text-anchor="middle" x="1109.79" y="-12.5" font-family="Helvetica,sans-Serif" font-size="10.00">fuzz/fuzz_abi.c</text>
</a>
</g>
</g>
<!-- Node3&#45;&gt;Node4 -->
<g id="edge3_Node000003_Node000004" class="edge">
<title>Node3&#45;&gt;Node4</title>
<g id="a_edge3_Node000003_Node000004"><a xlink:title=" ">
<path fill="none" stroke="#63b8ff" d="M1431.81,-69.31C1426.09,-68.13 1420.31,-67 1414.79,-66 1303.45,-45.9 1273.67,-52.49 1162.79,-30 1155.23,-28.47 1147.15,-26.5 1139.63,-24.53"/>
<polygon fill="#63b8ff" stroke="#63b8ff" points="1431.48,-72.82 1441.99,-71.47 1432.93,-65.97 1431.48,-72.82"/>
</a>
</g>
</g>
<!-- Node5 -->
<g id="Node000005" class="node">
<title>Node5</title>
<g id="a_Node000005"><a xlink:href="fuzz__direct_8c.html" target="_top" xlink:title="Fuzzer target for the Direct Marshalling API generation logic.">
<polygon fill="white" stroke="#666666" points="1273.29,-24.5 1172.29,-24.5 1172.29,-5.5 1273.29,-5.5 1273.29,-24.5"/>
<text text-anchor="middle" x="1222.79" y="-12.5" font-family="Helvetica,sans-Serif" font-size="10.00">fuzz/fuzz_direct.c</text>
</a>
</g>
</g>
<!-- Node3&#45;&gt;Node5 -->
<g id="edge4_Node000003_Node000005" class="edge">
<title>Node3&#45;&gt;Node5</title>
<g id="a_edge4_Node000003_Node000005"><a xlink:title=" ">
<path fill="none" stroke="#63b8ff" d="M1434.56,-68.94C1384.08,-56.32 1302.62,-35.96 1256.84,-24.51"/>
<polygon fill="#63b8ff" stroke="#63b8ff" points="1433.98,-72.41 1444.53,-71.44 1435.67,-65.61 1433.98,-72.41"/>
</a>
</g>
</g>
<!-- Node6 -->
<g id="Node000006" class="node">
<title>Node6</title>
<g id="a_Node000006"><a xlink:href="fuzz__helpers_8c.html" target="_top" xlink:title="Implements the core logic for generating random infix_type graphs from fuzzer input.">
<polygon fill="white" stroke="#666666" points="1401.79,-24.5 1291.79,-24.5 1291.79,-5.5 1401.79,-5.5 1401.79,-24.5"/>
<text text-anchor="middle" x="1346.79" y="-12.5" font-family="Helvetica,sans-Serif" font-size="10.00">fuzz/fuzz_helpers.c</text>
</a>
</g>
</g>
<!-- Node3&#45;&gt;Node6 -->
<g id="edge5_Node000003_Node000006" class="edge">
<title>Node3&#45;&gt;Node6</title>
<g id="a_edge5_Node000003_Node000006"><a xlink:title=" ">
<path fill="none" stroke="#63b8ff" d="M1451.69,-66.86C1425.68,-54.25 1387.13,-35.56 1364.73,-24.7"/>
<polygon fill="#63b8ff" stroke="#63b8ff" points="1450.46,-70.16 1460.98,-71.37 1453.51,-63.86 1450.46,-70.16"/>
</a>
</g>
</g>
<!-- Node7 -->
<g id="Node000007" class="node">
<title>Node7</title>
<g id="a_Node000007"><a xlink:href="fuzz__roundtrip_8c.html" target="_top" xlink:title="Fuzzer target for Type &#45;&gt; String &#45;&gt; Type round&#45;trip consistency.">
<polygon fill="white" stroke="#666666" points="1537.79,-24.5 1419.79,-24.5 1419.79,-5.5 1537.79,-5.5 1537.79,-24.5"/>
<text text-anchor="middle" x="1478.79" y="-12.5" font-family="Helvetica,sans-Serif" font-size="10.00">fuzz/fuzz_roundtrip.c</text>
</a>
</g>
</g>
<!-- Node3&#45;&gt;Node7 -->
<g id="edge6_Node000003_Node000007" class="edge">
<title>Node3&#45;&gt;Node7</title>
<g id="a_edge6_Node000003_Node000007"><a xlink:title=" ">
<path fill="none" stroke="#63b8ff" d="M1478.79,-61.08C1478.79,-49.13 1478.79,-34.22 1478.79,-24.91"/>
<polygon fill="#63b8ff" stroke="#63b8ff" points="1475.29,-61.37 1478.79,-71.37 1482.29,-61.37 1475.29,-61.37"/>
</a>
</g>
</g>
<!-- Node8 -->
<g id="Node000008" class="node">
<title>Node8</title>
<g id="a_Node000008"><a xlink:href="fuzz__signature_8c.html" target="_top" xlink:title="Fuzzer target for the high&#45;level signature parsing API.">
<polygon fill="white" stroke="#666666" points="1675.29,-24.5 1556.29,-24.5 1556.29,-5.5 1675.29,-5.5 1675.29,-24.5"/>
<text text-anchor="middle" x="1615.79" y="-12.5" font-family="Helvetica,sans-Serif" font-size="10.00">fuzz/fuzz_signature.c</text>
</a>
</g>
</g>
<!-- Node3&#45;&gt;Node8 -->
<g id="edge7_Node000003_Node000008" class="edge">
<title>Node3&#45;&gt;Node8</title>
<g id="a_edge7_Node000003_Node000008"><a xlink:title=" ">
<path fill="none" stroke="#63b8ff" d="M1506.55,-67.03C1533.55,-54.42 1573.81,-35.61 1597.16,-24.7"/>
<polygon fill="#63b8ff" stroke="#63b8ff" points="1504.84,-63.97 1497.26,-71.37 1507.8,-70.31 1504.84,-63.97"/>
</a>
</g>
</g>
<!-- Node9 -->
<g id="Node000009" class="node">
<title>Node9</title>
<g id="a_Node000009"><a xlink:href="fuzz__trampoline_8c.html" target="_top" xlink:title="Fuzzer target for the trampoline generation functions, including shared arena logic.">
<polygon fill="white" stroke="#666666" points="771.29,-24.5 644.29,-24.5 644.29,-5.5 771.29,-5.5 771.29,-24.5"/>
<text text-anchor="middle" x="707.79" y="-12.5" font-family="Helvetica,sans-Serif" font-size="10.00">fuzz/fuzz_trampoline.c</text>
</a>
</g>
</g>
<!-- Node3&#45;&gt;Node9 -->
<g id="edge8_Node000003_Node000009" class="edge">
<title>Node3&#45;&gt;Node9</title>
<g id="a_edge8_Node000003_Node000009"><a xlink:title=" ">
<path fill="none" stroke="#63b8ff" d="M1434.34,-69.33C1427.81,-68.04 1421.15,-66.87 1414.79,-66 1134.72,-27.68 1060.28,-65.06 779.79,-30 768.92,-28.64 757.23,-26.62 746.49,-24.52"/>
<polygon fill="#63b8ff" stroke="#63b8ff" points="1433.92,-72.82 1444.42,-71.43 1435.35,-65.96 1433.92,-72.82"/>
</a>
</g>
</g>
<!-- Node10 -->
<g id="Node000010" class="node">
<title>Node10</title>
<g id="a_Node000010"><a xlink:href="fuzz__types_8c.html" target="_top" xlink:title="Fuzzer target for the random type generation logic.">
<polygon fill="white" stroke="#666666" points="890.29,-24.5 789.29,-24.5 789.29,-5.5 890.29,-5.5 890.29,-24.5"/>
<text text-anchor="middle" x="839.79" y="-12.5" font-family="Helvetica,sans-Serif" font-size="10.00">fuzz/fuzz_types.c</text>
</a>
</g>
</g>
<!-- Node3&#45;&gt;Node10 -->
<g id="edge9_Node000003_Node000010" class="edge">
<title>Node3&#45;&gt;Node10</title>
<g id="a_edge9_Node000003_Node000010"><a xlink:title=" ">
<path fill="none" stroke="#63b8ff" d="M1434.1,-69.36C1427.65,-68.07 1421.07,-66.9 1414.79,-66 1187.22,-33.35 1126.05,-64.65 898.79,-30 889.84,-28.64 880.24,-26.61 871.44,-24.52"/>
<polygon fill="#63b8ff" stroke="#63b8ff" points="1433.57,-72.82 1444.08,-71.44 1435,-65.97 1433.57,-72.82"/>
</a>
</g>
</g>
<!-- Node11 -->
<g id="Node000011" class="node">
<title>Node11</title>
<g id="a_Node000011"><a xlink:href="850__regression__cases_8c.html" target="_top" xlink:title="A suite of regression tests for bugs discovered by fuzzing.">
<polygon fill="white" stroke="#666666" points="1047.29,-24.5 908.29,-24.5 908.29,-5.5 1047.29,-5.5 1047.29,-24.5"/>
<text text-anchor="middle" x="977.79" y="-12.5" font-family="Helvetica,sans-Serif" font-size="10.00">t/850_regression_cases.c</text>
</a>
</g>
</g>
<!-- Node3&#45;&gt;Node11 -->
<g id="edge10_Node000003_Node000011" class="edge">
<title>Node3&#45;&gt;Node11</title>
<g id="a_edge10_Node000003_Node000011"><a xlink:title=" ">
<path fill="none" stroke="#63b8ff" d="M1433.17,-69.35C1427.01,-68.11 1420.76,-66.95 1414.79,-66 1256.42,-40.82 1214.6,-52.18 1055.79,-30 1044.75,-28.46 1032.89,-26.49 1021.83,-24.52"/>
<polygon fill="#63b8ff" stroke="#63b8ff" points="1432.87,-72.86 1443.38,-71.49 1434.31,-66.01 1432.87,-72.86"/>
</a>
</g>
</g>
<!-- Node13&#45;&gt;Node12 -->
<g id="edge13_Node000013_Node000012" class="edge">
<title>Node13&#45;&gt;Node12</title>
<g id="a_edge13_Node000013_Node000012"><a xlink:title=" ">
<path fill="none" stroke="#63b8ff" d="M1679.3,-60.42C1695.11,-50.6 1713.89,-38.93 1728.23,-30.01"/>
<polygon fill="#63b8ff" stroke="#63b8ff" points="1677.04,-57.7 1670.39,-65.95 1680.73,-63.65 1677.04,-57.7"/>
</a>
</g>
</g>
<!-- Node14 -->
<g id="Node000014" class="node">
<title>Node14</title>
<g id="a_Node000014"><a xlink:href="abi__arm64__emitters_8c.html" target="_top" xlink:title="Implements internal helper functions for emitting AArch64 machine code.">
<polygon fill="white" stroke="#666666" points="1941.29,-30 1826.29,-30 1826.29,0 1941.29,0 1941.29,-30"/>
<text text-anchor="start" x="1834.29" y="-18" font-family="Helvetica,sans-Serif" font-size="10.00">src/arch/aarch64/abi</text>
<text text-anchor="middle" x="1883.79" y="-7" font-family="Helvetica,sans-Serif" font-size="10.00">_arm64_emitters.c</text>
</a>
</g>
</g>
<!-- Node13&#45;&gt;Node14 -->
<g id="edge14_Node000013_Node000014" class="edge">
<title>Node13&#45;&gt;Node14</title>
<g id="a_edge14_Node000013_Node000014"><a xlink:title=" ">
<path fill="none" stroke="#63b8ff" d="M1709.54,-63.25C1747.67,-52.91 1796.02,-39.8 1832.11,-30.01"/>
<polygon fill="#63b8ff" stroke="#63b8ff" points="1708.31,-59.96 1699.58,-65.95 1710.14,-66.72 1708.31,-59.96"/>
</a>
</g>
</g>
<!-- Node17&#45;&gt;Node15 -->
<g id="edge18_Node000017_Node000015" class="edge">
<title>Node17&#45;&gt;Node15</title>
<g id="a_edge18_Node000017_Node000015"><a xlink:title=" ">
<path fill="none" stroke="#63b8ff" d="M1874.36,-62.86C1906.47,-52.58 1946.8,-39.68 1977,-30.01"/>
<polygon fill="#63b8ff" stroke="#63b8ff" points="1873.13,-59.57 1864.68,-65.95 1875.27,-66.24 1873.13,-59.57"/>
</a>
</g>
</g>
<!-- Node17&#45;&gt;Node16 -->
<g id="edge19_Node000017_Node000016" class="edge">
<title>Node17&#45;&gt;Node16</title>
<g id="a_edge19_Node000017_Node000016"><a xlink:title=" ">
<path fill="none" stroke="#63b8ff" d="M1889.88,-66.6C1891.19,-66.39 1892.49,-66.19 1893.79,-66 2041.01,-43.96 2079.75,-53.25 2226.79,-30 2229.72,-29.54 2232.72,-29.03 2235.75,-28.49"/>
<polygon fill="#63b8ff" stroke="#63b8ff" points="1888.98,-63.2 1879.68,-68.28 1890.12,-70.11 1888.98,-63.2"/>
</a>
</g>
</g>
<!-- Node18 -->
<g id="Node000018" class="node">
<title>Node18</title>
<g id="a_Node000018"><a xlink:href="abi__x64__emitters_8c.html" target="_top" xlink:title="Implements internal helper functions for emitting x86&#45;64 machine code.">
<polygon fill="white" stroke="#666666" points="2217.29,-30 2100.29,-30 2100.29,0 2217.29,0 2217.29,-30"/>
<text text-anchor="start" x="2108.29" y="-18" font-family="Helvetica,sans-Serif" font-size="10.00">src/arch/x64/abi_x64</text>
<text text-anchor="middle" x="2158.79" y="-7" font-family="Helvetica,sans-Serif" font-size="10.00">_emitters.c</text>
</a>
</g>
</g>
<!-- Node17&#45;&gt;Node18 -->
<g id="edge20_Node000017_Node000018" class="edge">
<title>Node17&#45;&gt;Node18</title>
<g id="a_edge20_Node000017_Node000018"><a xlink:title=" ">
<path fill="none" stroke="#63b8ff" d="M1889.34,-66.83C1890.84,-66.55 1892.32,-66.27 1893.79,-66 1981.27,-49.62 2003.41,-46.98 2090.79,-30 2093.86,-29.4 2097.01,-28.78 2100.2,-28.15"/>
<polygon fill="#63b8ff" stroke="#63b8ff" points="1888.52,-63.43 1879.35,-68.72 1889.82,-70.3 1888.52,-63.43"/>
</a>
</g>
</g>
<!-- Node20 -->
<g id="Node000020" class="node">
<title>Node20</title>
<g id="a_Node000020"><a xlink:href="infix_8c.html" target="_top" xlink:title="The unity build source file for the infix library.">
<polygon fill="white" stroke="#666666" points="626.29,-24.5 563.29,-24.5 563.29,-5.5 626.29,-5.5 626.29,-24.5"/>
<text text-anchor="middle" x="594.79" y="-12.5" font-family="Helvetica,sans-Serif" font-size="10.00">src/infix.c</text>
</a>
</g>
</g>
<!-- Node19&#45;&gt;Node20 -->
<g id="edge22_Node000019_Node000020" class="edge">
<title>Node19&#45;&gt;Node20</title>
<g id="a_edge22_Node000019_Node000020"><a xlink:title=" ">
<path fill="none" stroke="#63b8ff" d="M230.42,-69.09C235.25,-67.97 240.11,-66.92 244.79,-66 361.34,-43.17 501.66,-26.29 563.23,-19.4"/>
<polygon fill="#63b8ff" stroke="#63b8ff" points="229.55,-65.7 220.64,-71.43 231.18,-72.5 229.55,-65.7"/>
</a>
</g>
</g>
<!-- Node21&#45;&gt;Node20 -->
<g id="edge24_Node000021_Node000020" class="edge">
<title>Node21&#45;&gt;Node20</title>
<g id="a_edge24_Node000021_Node000020"><a xlink:title=" ">
<path fill="none" stroke="#63b8ff" d="M714.35,-67.36C684.99,-54.75 640.66,-35.71 615.04,-24.7"/>
<polygon fill="#63b8ff" stroke="#63b8ff" points="713.12,-70.64 723.69,-71.37 715.88,-64.21 713.12,-70.64"/>
</a>
</g>
</g>
<!-- Node22&#45;&gt;Node20 -->
<g id="edge26_Node000022_Node000020" class="edge">
<title>Node22&#45;&gt;Node20</title>
<g id="a_edge26_Node000022_Node000020"><a xlink:title=" ">
<path fill="none" stroke="#63b8ff" d="M810.09,-69.12C805.6,-68.06 801.1,-67 796.79,-66 724.93,-49.35 705.72,-50.22 634.79,-30 629.27,-28.43 623.4,-26.51 617.9,-24.61"/>
<polygon fill="#63b8ff" stroke="#63b8ff" points="809.31,-72.54 819.85,-71.46 810.93,-65.73 809.31,-72.54"/>
</a>
</g>
</g>
<!-- Node23&#45;&gt;Node20 -->
<g id="edge28_Node000023_Node000020" class="edge">
<title>Node23&#45;&gt;Node20</title>
<g id="a_edge28_Node000023_Node000020"><a xlink:title=" ">
<path fill="none" stroke="#63b8ff" d="M929.75,-69.39C923.72,-68.17 917.62,-67 911.79,-66 789.44,-44.91 755.58,-58.66 634.79,-30 628.77,-28.57 622.4,-26.58 616.55,-24.54"/>
<polygon fill="#63b8ff" stroke="#63b8ff" points="929.26,-72.86 939.77,-71.47 930.69,-66.01 929.26,-72.86"/>
</a>
</g>
</g>
<!-- Node24&#45;&gt;Node20 -->
<g id="edge30_Node000024_Node000020" class="edge">
<title>Node24&#45;&gt;Node20</title>
<g id="a_edge30_Node000024_Node000020"><a xlink:title=" ">
<path fill="none" stroke="#63b8ff" d="M1064.55,-69.63C1056.94,-68.28 1049.17,-67.02 1041.79,-66 861.91,-41.09 812.3,-68.29 634.79,-30 628.6,-28.67 622.06,-26.65 616.09,-24.56"/>
<polygon fill="#63b8ff" stroke="#63b8ff" points="1063.95,-73.08 1074.42,-71.43 1065.21,-66.19 1063.95,-73.08"/>
</a>
</g>
</g>
<!-- Node25&#45;&gt;Node20 -->
<g id="edge32_Node000025_Node000020" class="edge">
<title>Node25&#45;&gt;Node20</title>
<g id="a_edge32_Node000025_Node000020"><a xlink:title=" ">
<path fill="none" stroke="#63b8ff" d="M1204.71,-69.06C1199.39,-67.88 1193.97,-66.81 1188.79,-66 945,-27.92 876.57,-79.21 634.79,-30 628.44,-28.71 621.73,-26.65 615.66,-24.51"/>
<polygon fill="#63b8ff" stroke="#63b8ff" points="1204.23,-72.54 1214.76,-71.44 1205.84,-65.73 1204.23,-72.54"/>
</a>
</g>
</g>
<!-- Node26&#45;&gt;Node20 -->
<g id="edge34_Node000026_Node000020" class="edge">
<title>Node26&#45;&gt;Node20</title>
<g id="a_edge34_Node000026_Node000020"><a xlink:title=" ">
<path fill="none" stroke="#63b8ff" d="M1316.89,-69.15C1311.18,-67.92 1305.36,-66.82 1299.79,-66 1006.92,-23.1 925.14,-87.46 634.79,-30 628.43,-28.74 621.72,-26.7 615.65,-24.55"/>
<polygon fill="#63b8ff" stroke="#63b8ff" points="1316.46,-72.64 1326.99,-71.46 1318.02,-65.81 1316.46,-72.64"/>
</a>
</g>
</g>
<!-- Node27&#45;&gt;Node20 -->
<g id="edge36_Node000027_Node000020" class="edge">
<title>Node27&#45;&gt;Node20</title>
<g id="a_edge36_Node000027_Node000020"><a xlink:title=" ">
<path fill="none" stroke="#63b8ff" d="M114.91,-69.34C120.9,-68.11 126.98,-66.96 132.79,-66 293.59,-39.52 488.27,-23.7 563.25,-18.2"/>
<polygon fill="#63b8ff" stroke="#63b8ff" points="114.02,-65.95 104.97,-71.46 115.48,-72.8 114.02,-65.95"/>
</a>
</g>
</g>
<!-- Node33&#45;&gt;Node2 -->
<g id="edge43_Node000033_Node000002" class="edge">
<title>Node33&#45;&gt;Node2</title>
<g id="a_edge43_Node000033_Node000002"><a xlink:title=" ">
<path fill="none" stroke="#63b8ff" d="M1300.79,-176.66C1300.79,-167.93 1300.79,-157.99 1300.79,-151.09"/>
<polygon fill="#63b8ff" stroke="#63b8ff" points="1297.29,-176.75 1300.79,-186.75 1304.29,-176.75 1297.29,-176.75"/>
</a>
</g>
</g>
<!-- Node34 -->
<g id="Node000034" class="node">
<title>Node34</title>
<g id="a_Node000034"><a xlink:href="platform_8c.html" target="_top" xlink:title="Implements runtime detection of CPU and OS features.">
<polygon fill="white" stroke="#666666" points="650.79,-151 542.79,-151 542.79,-132 650.79,-132 650.79,-151"/>
<text text-anchor="middle" x="596.79" y="-139" font-family="Helvetica,sans-Serif" font-size="10.00">src/core/platform.c</text>
</a>
</g>
</g>
<!-- Node33&#45;&gt;Node34 -->
<g id="edge44_Node000033_Node000034" class="edge">
<title>Node33&#45;&gt;Node34</title>
<g id="a_edge44_Node000033_Node000034"><a xlink:title=" ">
<path fill="none" stroke="#63b8ff" d="M1225.19,-189.81C1082.29,-179.05 775.75,-155.97 651.14,-146.59"/>
<polygon fill="#63b8ff" stroke="#63b8ff" points="1224.95,-193.3 1235.19,-190.56 1225.48,-186.32 1224.95,-193.3"/>
</a>
</g>
</g>
<!-- Node34&#45;&gt;Node20 -->
<g id="edge45_Node000034_Node000020" class="edge">
<title>Node34&#45;&gt;Node20</title>
<g id="a_edge45_Node000034_Node000020"><a xlink:title=" ">
<path fill="none" stroke="#63b8ff" d="M532.55,-140.47C387.01,-139.72 41.96,-133.93 6.79,-96 -2.28,-86.22 -2.23,-75.82 6.79,-66 44.64,-24.78 446.23,-17.5 563.07,-16.25"/>
<polygon fill="#63b8ff" stroke="#63b8ff" points="532.66,-143.97 542.68,-140.51 532.7,-136.97 532.66,-143.97"/>
</a>
</g>
</g>
</g>
</svg>
