<?xml version="1.0" encoding="UTF-8" standalone="no"?>
<!DOCTYPE svg PUBLIC "-//W3C//DTD SVG 1.1//EN"
 "http://www.w3.org/Graphics/SVG/1.1/DTD/svg11.dtd">
<!-- Generated by graphviz version 2.43.0 (0)
 -->
<!-- Title: src/common/infix_config.h Pages: 1 -->
<!--zoomable 269 -->

<svg id="main" version="1.1" xmlns="http://www.w3.org/2000/svg" xmlns:xlink="http://www.w3.org/1999/xlink" xml:space="preserve" onload="init(evt)">
<style type="text/css"><![CDATA[
.node, .edge {opacity: 0.7;}
.node.selected, .edge.selected {opacity: 1;}
.edge:hover path { stroke: red; }
.edge:hover polygon { stroke: red; fill: red; }
]]></style>

<defs>
  <circle id="rim" cx="0" cy="0" r="7"/>
  <circle id="rim2" cx="0" cy="0" r="3.5"/>
  <g id="zoomPlus">
    <use xlink:href="#rim" fill="#404040"><set attributeName="fill" to="#808080" begin="zoomplus.mouseover" end="zoomplus.mouseout"/></use>
    <path d="M-4,0h8M0,-4v8" fill="none" stroke="white" stroke-width="1.5" pointer-events="none"/>
  </g>
  <g id="zoomMin">
    <use xlink:href="#rim" fill="#404040"><set attributeName="fill" to="#808080" begin="zoomminus.mouseover" end="zoomminus.mouseout"/></use>
    <path d="M-4,0h8" fill="none" stroke="white" stroke-width="1.5" pointer-events="none"/>
  </g>
  <g id="arrowUp" transform="translate(30 24)">
    <use xlink:href="#rim"/>
    <path pointer-events="none" fill="none" stroke="white" stroke-width="1.5" d="M0,-3.0v7 M-2.5,-0.5L0,-3.0L2.5,-0.5"/>
  </g>
  <g id="arrowRight" transform="rotate(90) translate(36 -43)">
    <use xlink:href="#rim"/>
    <path pointer-events="none" fill="none" stroke="white" stroke-width="1.5" d="M0,-3.0v7 M-2.5,-0.5L0,-3.0L2.5,-0.5"/>
  </g>
  <g id="arrowDown" transform="rotate(180) translate(-30 -48)">
    <use xlink:href="#rim"/>
    <path pointer-events="none" fill="none" stroke="white" stroke-width="1.5" d="M0,-3.0v7 M-2.5,-0.5L0,-3.0L2.5,-0.5"/>
  </g>
  <g id="arrowLeft" transform="rotate(270) translate(-36 17)">
    <use xlink:href="#rim"/>
    <path pointer-events="none" fill="none" stroke="white" stroke-width="1.5" d="M0,-3.0v7 M-2.5,-0.5L0,-3.0L2.5,-0.5"/>
  </g>
  <g id="resetDef">
    <use xlink:href="#rim2" fill="#404040"><set attributeName="fill" to="#808080" begin="reset.mouseover" end="reset.mouseout"/></use>
  </g>
</defs>
<script type="application/ecmascript">
var viewWidth = 2821;
var viewHeight = 269;
var sectionId = 'dynsection-0';
</script>
<script type="application/ecmascript" xlink:href="svg.min.js"/>
<svg id="graph" class="graph">
<g id="viewport">
<title>src/common/infix_config.h</title>
<!-- Node1 -->
<g id="Node000001" class="node">
<title>Node1</title>
<g id="a_Node000001"><a xlink:title="Platform, architecture, and ABI detection macros.">
<polygon fill="#999999" stroke="#666666" points="2131.5,-261 1987.5,-261 1987.5,-242 2131.5,-242 2131.5,-261"/>
<text text-anchor="middle" x="2059.5" y="-249" font-family="Helvetica,sans-Serif" font-size="10.00">src/common/infix_config.h</text>
</a>
</g>
</g>
<!-- Node2 -->
<g id="Node000002" class="node">
<title>Node2</title>
<g id="a_Node000002"><a xlink:href="infix__internals_8h.html" target="_top" xlink:title="Internal data structures, function prototypes, and constants.">
<polygon fill="white" stroke="#666666" points="1766.5,-151 1608.5,-151 1608.5,-132 1766.5,-132 1766.5,-151"/>
<text text-anchor="middle" x="1687.5" y="-139" font-family="Helvetica,sans-Serif" font-size="10.00">src/common/infix_internals.h</text>
</a>
</g>
</g>
<!-- Node1&#45;&gt;Node2 -->
<g id="edge1_Node000001_Node000002" class="edge">
<title>Node1&#45;&gt;Node2</title>
<g id="a_edge1_Node000001_Node000002"><a xlink:title=" ">
<path fill="none" stroke="#63b8ff" d="M1977.32,-250.09C1886.32,-247.96 1747.21,-239.15 1707.5,-206 1691,-192.22 1687.92,-164.94 1687.47,-151.06"/>
<polygon fill="#63b8ff" stroke="#63b8ff" points="1977.27,-253.59 1987.34,-250.31 1977.42,-246.6 1977.27,-253.59"/>
</a>
</g>
</g>
<!-- Node30 -->
<g id="Node000030" class="node">
<title>Node30</title>
<g id="a_Node000030"><a xlink:href="platform_8h.html" target="_top" xlink:title="Declares internal, runtime CPU/OS feature detection functions.">
<polygon fill="white" stroke="#666666" points="1847,-206 1716,-206 1716,-187 1847,-187 1847,-206"/>
<text text-anchor="middle" x="1781.5" y="-194" font-family="Helvetica,sans-Serif" font-size="10.00">src/common/platform.h</text>
</a>
</g>
</g>
<!-- Node1&#45;&gt;Node30 -->
<g id="edge39_Node000001_Node000030" class="edge">
<title>Node1&#45;&gt;Node30</title>
<g id="a_edge39_Node000001_Node000030"><a xlink:title=" ">
<path fill="none" stroke="#63b8ff" d="M2004.77,-240.07C1952.65,-230.13 1875.15,-215.35 1826.52,-206.08"/>
<polygon fill="#63b8ff" stroke="#63b8ff" points="2004.36,-243.55 2014.83,-241.98 2005.67,-236.67 2004.36,-243.55"/>
</a>
</g>
</g>
<!-- Node32 -->
<g id="Node000032" class="node">
<title>Node32</title>
<g id="a_Node000032"><a xlink:href="001__primitives_8c.html" target="_top" xlink:title="Unit test for creating trampolines for functions with primitive C types.">
<polygon fill="white" stroke="#666666" points="1969.5,-206 1865.5,-206 1865.5,-187 1969.5,-187 1969.5,-206"/>
<text text-anchor="middle" x="1917.5" y="-194" font-family="Helvetica,sans-Serif" font-size="10.00">t/001_primitives.c</text>
</a>
</g>
</g>
<!-- Node1&#45;&gt;Node32 -->
<g id="edge43_Node000001_Node000032" class="edge">
<title>Node1&#45;&gt;Node32</title>
<g id="a_edge43_Node000001_Node000032"><a xlink:title=" ">
<path fill="none" stroke="#63b8ff" d="M2027.14,-238.42C2000.79,-228.59 1964.24,-214.95 1940.73,-206.17"/>
<polygon fill="#63b8ff" stroke="#63b8ff" points="2026.09,-241.77 2036.69,-241.98 2028.54,-235.21 2026.09,-241.77"/>
</a>
</g>
</g>
<!-- Node33 -->
<g id="Node000033" class="node">
<title>Node33</title>
<g id="a_Node000033"><a xlink:href="402__variadic__functions_8c.html" target="_top" xlink:title="Unit test for FFI calls to and from variadic C functions.">
<polygon fill="white" stroke="#666666" points="2131.5,-206 1987.5,-206 1987.5,-187 2131.5,-187 2131.5,-206"/>
<text text-anchor="middle" x="2059.5" y="-194" font-family="Helvetica,sans-Serif" font-size="10.00">t/402_variadic_functions.c</text>
</a>
</g>
</g>
<!-- Node1&#45;&gt;Node33 -->
<g id="edge44_Node000001_Node000033" class="edge">
<title>Node1&#45;&gt;Node33</title>
<g id="a_edge44_Node000001_Node000033"><a xlink:title=" ">
<path fill="none" stroke="#63b8ff" d="M2059.5,-231.66C2059.5,-222.93 2059.5,-212.99 2059.5,-206.09"/>
<polygon fill="#63b8ff" stroke="#63b8ff" points="2056,-231.75 2059.5,-241.75 2063,-231.75 2056,-231.75"/>
</a>
</g>
</g>
<!-- Node34 -->
<g id="Node000034" class="node">
<title>Node34</title>
<g id="a_Node000034"><a xlink:href="403__special__types_8c.html" target="_top" xlink:title="Unit test for FFI calls with special, non&#45;standard, or platform&#45;dependent primitive types.">
<polygon fill="white" stroke="#666666" points="2271.5,-206 2149.5,-206 2149.5,-187 2271.5,-187 2271.5,-206"/>
<text text-anchor="middle" x="2210.5" y="-194" font-family="Helvetica,sans-Serif" font-size="10.00">t/403_special_types.c</text>
</a>
</g>
</g>
<!-- Node1&#45;&gt;Node34 -->
<g id="edge45_Node000001_Node000034" class="edge">
<title>Node1&#45;&gt;Node34</title>
<g id="a_edge45_Node000001_Node000034"><a xlink:title=" ">
<path fill="none" stroke="#63b8ff" d="M2093.55,-238.55C2121.59,-228.71 2160.68,-214.98 2185.8,-206.17"/>
<polygon fill="#63b8ff" stroke="#63b8ff" points="2092.04,-235.37 2083.76,-241.98 2094.36,-241.98 2092.04,-235.37"/>
</a>
</g>
</g>
<!-- Node35 -->
<g id="Node000035" class="node">
<title>Node35</title>
<g id="a_Node000035"><a xlink:href="820__threading__helgrind_8c.html" target="_top" xlink:title="A stress test to detect data races and other threading issues.">
<polygon fill="white" stroke="#666666" points="2435.5,-206 2289.5,-206 2289.5,-187 2435.5,-187 2435.5,-206"/>
<text text-anchor="middle" x="2362.5" y="-194" font-family="Helvetica,sans-Serif" font-size="10.00">t/820_threading_helgrind.c</text>
</a>
</g>
</g>
<!-- Node1&#45;&gt;Node35 -->
<g id="edge46_Node000001_Node000035" class="edge">
<title>Node1&#45;&gt;Node35</title>
<g id="a_edge46_Node000001_Node000035"><a xlink:title=" ">
<path fill="none" stroke="#63b8ff" d="M2118.11,-240.25C2175.01,-230.3 2260.37,-215.36 2313.69,-206.04"/>
<polygon fill="#63b8ff" stroke="#63b8ff" points="2117.43,-236.81 2108.18,-241.98 2118.64,-243.71 2117.43,-236.81"/>
</a>
</g>
</g>
<!-- Node36 -->
<g id="Node000036" class="node">
<title>Node36</title>
<g id="a_Node000036"><a xlink:href="821__threading__bare_8c.html" target="_top" xlink:title="A minimal, dependency&#45;free version of the thread&#45;safety stress test.">
<polygon fill="white" stroke="#666666" points="2581.5,-206 2453.5,-206 2453.5,-187 2581.5,-187 2581.5,-206"/>
<text text-anchor="middle" x="2517.5" y="-194" font-family="Helvetica,sans-Serif" font-size="10.00">t/821_threading_bare.c</text>
</a>
</g>
</g>
<!-- Node1&#45;&gt;Node36 -->
<g id="edge47_Node000001_Node000036" class="edge">
<title>Node1&#45;&gt;Node36</title>
<g id="a_edge47_Node000001_Node000036"><a xlink:title=" ">
<path fill="none" stroke="#63b8ff" d="M2141.76,-241.01C2219.71,-232.02 2340.08,-218.11 2444.5,-206 2447.42,-205.66 2450.4,-205.32 2453.41,-204.97"/>
<polygon fill="#63b8ff" stroke="#63b8ff" points="2141.06,-237.57 2131.52,-242.19 2141.86,-244.52 2141.06,-237.57"/>
</a>
</g>
</g>
<!-- Node3 -->
<g id="Node000003" class="node">
<title>Node3</title>
<g id="a_Node000003"><a xlink:href="fuzz__helpers_8h.html" target="_top" xlink:title="Common definitions, structures, and helpers for all fuzzer targets.">
<polygon fill="white" stroke="#666666" points="491.5,-90.5 381.5,-90.5 381.5,-71.5 491.5,-71.5 491.5,-90.5"/>
<text text-anchor="middle" x="436.5" y="-78.5" font-family="Helvetica,sans-Serif" font-size="10.00">fuzz/fuzz_helpers.h</text>
</a>
</g>
</g>
<!-- Node2&#45;&gt;Node3 -->
<g id="edge2_Node000002_Node000003" class="edge">
<title>Node2&#45;&gt;Node3</title>
<g id="a_edge2_Node000002_Node000003"><a xlink:title=" ">
<path fill="none" stroke="#63b8ff" d="M1598.1,-136.32C1355.27,-124.96 688.57,-93.79 491.84,-84.59"/>
<polygon fill="#63b8ff" stroke="#63b8ff" points="1598.14,-139.83 1608.3,-136.8 1598.47,-132.83 1598.14,-139.83"/>
</a>
</g>
</g>
<!-- Node10 -->
<g id="Node000010" class="node">
<title>Node10</title>
<g id="a_Node000010"><a xlink:href="abi__arm64_8c.html" target="_top" xlink:title="Implements the FFI logic for the AArch64 (ARM64) architecture.">
<polygon fill="white" stroke="#666666" points="909,-30 794,-30 794,0 909,0 909,-30"/>
<text text-anchor="start" x="802" y="-18" font-family="Helvetica,sans-Serif" font-size="10.00">src/arch/aarch64/abi</text>
<text text-anchor="middle" x="851.5" y="-7" font-family="Helvetica,sans-Serif" font-size="10.00">_arm64.c</text>
</a>
</g>
</g>
<!-- Node2&#45;&gt;Node10 -->
<g id="edge9_Node000002_Node000010" class="edge">
<title>Node2&#45;&gt;Node10</title>
<g id="a_edge9_Node000002_Node000010"><a xlink:title=" ">
<path fill="none" stroke="#63b8ff" d="M1598.01,-139.33C1408.02,-136.28 976.83,-126.09 917.5,-96 889.08,-81.58 868.41,-48.86 858.36,-30.03"/>
<polygon fill="#63b8ff" stroke="#63b8ff" points="1598.19,-142.84 1608.25,-139.49 1598.3,-135.84 1598.19,-142.84"/>
</a>
</g>
</g>
<!-- Node11 -->
<g id="Node000011" class="node">
<title>Node11</title>
<g id="a_Node000011"><a xlink:href="abi__arm64__emitters_8h.html" target="_top" xlink:title="Declares internal helper functions for emitting AArch64 machine code.">
<polygon fill="white" stroke="#666666" points="1042,-96 927,-96 927,-66 1042,-66 1042,-96"/>
<text text-anchor="start" x="935" y="-84" font-family="Helvetica,sans-Serif" font-size="10.00">src/arch/aarch64/abi</text>
<text text-anchor="middle" x="984.5" y="-73" font-family="Helvetica,sans-Serif" font-size="10.00">_arm64_emitters.h</text>
</a>
</g>
</g>
<!-- Node2&#45;&gt;Node11 -->
<g id="edge10_Node000002_Node000011" class="edge">
<title>Node2&#45;&gt;Node11</title>
<g id="a_edge10_Node000002_Node000011"><a xlink:title=" ">
<path fill="none" stroke="#63b8ff" d="M1598.32,-135.91C1479.98,-129.37 1264.67,-115.92 1081.5,-96 1068.73,-94.61 1055.05,-92.82 1042.12,-90.99"/>
<polygon fill="#63b8ff" stroke="#63b8ff" points="1598.24,-139.41 1608.41,-136.46 1598.62,-132.42 1598.24,-139.41"/>
</a>
</g>
</g>
<!-- Node13 -->
<g id="Node000013" class="node">
<title>Node13</title>
<g id="a_Node000013"><a xlink:href="abi__sysv__x64_8c.html" target="_top" xlink:title="Implements the FFI logic for the System V AMD64 ABI.">
<polygon fill="white" stroke="#666666" points="1182.5,-30 1060.5,-30 1060.5,0 1182.5,0 1182.5,-30"/>
<text text-anchor="start" x="1068.5" y="-18" font-family="Helvetica,sans-Serif" font-size="10.00">src/arch/x64/abi_sysv</text>
<text text-anchor="middle" x="1121.5" y="-7" font-family="Helvetica,sans-Serif" font-size="10.00">_x64.c</text>
</a>
</g>
</g>
<!-- Node2&#45;&gt;Node13 -->
<g id="edge13_Node000002_Node000013" class="edge">
<title>Node2&#45;&gt;Node13</title>
<g id="a_edge13_Node000002_Node000013"><a xlink:title=" ">
<path fill="none" stroke="#63b8ff" d="M1598.14,-140.08C1445.22,-138.41 1146.61,-130.7 1114.5,-96 1098.12,-78.3 1107.07,-47.99 1114.6,-30.19"/>
<polygon fill="#63b8ff" stroke="#63b8ff" points="1598.41,-143.58 1608.45,-140.18 1598.48,-136.58 1598.41,-143.58"/>
</a>
</g>
</g>
<!-- Node14 -->
<g id="Node000014" class="node">
<title>Node14</title>
<g id="a_Node000014"><a xlink:href="abi__win__x64_8c.html" target="_top" xlink:title="Implements the FFI logic for the Windows x64 calling convention.">
<polygon fill="white" stroke="#666666" points="1452.5,-30 1336.5,-30 1336.5,0 1452.5,0 1452.5,-30"/>
<text text-anchor="start" x="1344.5" y="-18" font-family="Helvetica,sans-Serif" font-size="10.00">src/arch/x64/abi_win</text>
<text text-anchor="middle" x="1394.5" y="-7" font-family="Helvetica,sans-Serif" font-size="10.00">_x64.c</text>
</a>
</g>
</g>
<!-- Node2&#45;&gt;Node14 -->
<g id="edge14_Node000002_Node000014" class="edge">
<title>Node2&#45;&gt;Node14</title>
<g id="a_edge14_Node000002_Node000014"><a xlink:title=" ">
<path fill="none" stroke="#63b8ff" d="M1598.19,-136.74C1486.9,-131.11 1308.78,-118.67 1288.5,-96 1264.13,-68.77 1310.57,-44.59 1349.48,-30.12"/>
<polygon fill="#63b8ff" stroke="#63b8ff" points="1598.25,-140.24 1608.41,-137.24 1598.6,-133.25 1598.25,-140.24"/>
</a>
</g>
</g>
<!-- Node15 -->
<g id="Node000015" class="node">
<title>Node15</title>
<g id="a_Node000015"><a xlink:href="abi__x64__emitters_8h.html" target="_top" xlink:title="Declares internal helper functions for emitting x86&#45;64 machine code.">
<polygon fill="white" stroke="#666666" points="1241,-96 1124,-96 1124,-66 1241,-66 1241,-96"/>
<text text-anchor="start" x="1132" y="-84" font-family="Helvetica,sans-Serif" font-size="10.00">src/arch/x64/abi_x64</text>
<text text-anchor="middle" x="1182.5" y="-73" font-family="Helvetica,sans-Serif" font-size="10.00">_emitters.h</text>
</a>
</g>
</g>
<!-- Node2&#45;&gt;Node15 -->
<g id="edge15_Node000002_Node000015" class="edge">
<title>Node2&#45;&gt;Node15</title>
<g id="a_edge15_Node000002_Node000015"><a xlink:title=" ">
<path fill="none" stroke="#63b8ff" d="M1598.25,-133.58C1510.7,-126.26 1373.53,-113.36 1255.5,-96 1250.9,-95.32 1246.16,-94.56 1241.39,-93.75"/>
<polygon fill="#63b8ff" stroke="#63b8ff" points="1598.16,-137.09 1608.41,-134.43 1598.74,-130.11 1598.16,-137.09"/>
</a>
</g>
</g>
<!-- Node17 -->
<g id="Node000017" class="node">
<title>Node17</title>
<g id="a_Node000017"><a xlink:href="arena_8c.html" target="_top" xlink:title="Implements a simple, fast arena (or region&#45;based) allocator.">
<polygon fill="white" stroke="#666666" points="1391.5,-90.5 1297.5,-90.5 1297.5,-71.5 1391.5,-71.5 1391.5,-90.5"/>
<text text-anchor="middle" x="1344.5" y="-78.5" font-family="Helvetica,sans-Serif" font-size="10.00">src/core/arena.c</text>
</a>
</g>
</g>
<!-- Node2&#45;&gt;Node17 -->
<g id="edge19_Node000002_Node000017" class="edge">
<title>Node2&#45;&gt;Node17</title>
<g id="a_edge19_Node000002_Node000017"><a xlink:title=" ">
<path fill="none" stroke="#63b8ff" d="M1611.18,-130.6C1553.16,-122.6 1471.48,-110.35 1400.5,-96 1392.64,-94.41 1384.23,-92.45 1376.37,-90.5"/>
<polygon fill="#63b8ff" stroke="#63b8ff" points="1610.99,-134.1 1621.37,-131.99 1611.94,-127.17 1610.99,-134.1"/>
</a>
</g>
</g>
<!-- Node19 -->
<g id="Node000019" class="node">
<title>Node19</title>
<g id="a_Node000019"><a xlink:href="error_8c.html" target="_top" xlink:title="Implements the thread&#45;local error reporting system.">
<polygon fill="white" stroke="#666666" points="1499,-90.5 1410,-90.5 1410,-71.5 1499,-71.5 1499,-90.5"/>
<text text-anchor="middle" x="1454.5" y="-78.5" font-family="Helvetica,sans-Serif" font-size="10.00">src/core/error.c</text>
</a>
</g>
</g>
<!-- Node2&#45;&gt;Node19 -->
<g id="edge21_Node000002_Node000019" class="edge">
<title>Node2&#45;&gt;Node19</title>
<g id="a_edge21_Node000002_Node000019"><a xlink:title=" ">
<path fill="none" stroke="#63b8ff" d="M1643.05,-129.58C1606.82,-120.65 1554.32,-107.63 1508.5,-96 1501.65,-94.26 1494.31,-92.37 1487.33,-90.57"/>
<polygon fill="#63b8ff" stroke="#63b8ff" points="1642.28,-132.99 1652.82,-131.99 1643.95,-126.2 1642.28,-132.99"/>
</a>
</g>
</g>
<!-- Node20 -->
<g id="Node000020" class="node">
<title>Node20</title>
<g id="a_Node000020"><a xlink:href="loader_8c.html" target="_top" xlink:title="Implements cross&#45;platform dynamic library loading.">
<polygon fill="white" stroke="#666666" points="1613.5,-90.5 1517.5,-90.5 1517.5,-71.5 1613.5,-71.5 1613.5,-90.5"/>
<text text-anchor="middle" x="1565.5" y="-78.5" font-family="Helvetica,sans-Serif" font-size="10.00">src/core/loader.c</text>
</a>
</g>
</g>
<!-- Node2&#45;&gt;Node20 -->
<g id="edge23_Node000002_Node000020" class="edge">
<title>Node2&#45;&gt;Node20</title>
<g id="a_edge23_Node000002_Node000020"><a xlink:title=" ">
<path fill="none" stroke="#63b8ff" d="M1660.67,-127.63C1637.14,-116.35 1603.6,-100.27 1583.26,-90.52"/>
<polygon fill="#63b8ff" stroke="#63b8ff" points="1659.23,-130.83 1669.76,-131.99 1662.26,-124.51 1659.23,-130.83"/>
</a>
</g>
</g>
<!-- Node21 -->
<g id="Node000021" class="node">
<title>Node21</title>
<g id="a_Node000021"><a xlink:href="signature_8c.html" target="_top" xlink:title="Implements the infix signature string parser and type printer.">
<polygon fill="white" stroke="#666666" points="1743.5,-90.5 1631.5,-90.5 1631.5,-71.5 1743.5,-71.5 1743.5,-90.5"/>
<text text-anchor="middle" x="1687.5" y="-78.5" font-family="Helvetica,sans-Serif" font-size="10.00">src/core/signature.c</text>
</a>
</g>
</g>
<!-- Node2&#45;&gt;Node21 -->
<g id="edge25_Node000002_Node000021" class="edge">
<title>Node2&#45;&gt;Node21</title>
<g id="a_edge25_Node000002_Node000021"><a xlink:title=" ">
<path fill="none" stroke="#63b8ff" d="M1687.5,-121.66C1687.5,-111.24 1687.5,-98.8 1687.5,-90.67"/>
<polygon fill="#63b8ff" stroke="#63b8ff" points="1684,-121.87 1687.5,-131.87 1691,-121.87 1684,-121.87"/>
</a>
</g>
</g>
<!-- Node22 -->
<g id="Node000022" class="node">
<title>Node22</title>
<g id="a_Node000022"><a xlink:href="type__registry_8c.html" target="_top" xlink:title="Implements the named type registry system.">
<polygon fill="white" stroke="#666666" points="1891,-90.5 1762,-90.5 1762,-71.5 1891,-71.5 1891,-90.5"/>
<text text-anchor="middle" x="1826.5" y="-78.5" font-family="Helvetica,sans-Serif" font-size="10.00">src/core/type_registry.c</text>
</a>
</g>
</g>
<!-- Node2&#45;&gt;Node22 -->
<g id="edge27_Node000002_Node000022" class="edge">
<title>Node2&#45;&gt;Node22</title>
<g id="a_edge27_Node000002_Node000022"><a xlink:title=" ">
<path fill="none" stroke="#63b8ff" d="M1717.01,-128.08C1743.86,-116.78 1782.78,-100.4 1806.26,-90.52"/>
<polygon fill="#63b8ff" stroke="#63b8ff" points="1715.57,-124.89 1707.71,-131.99 1718.29,-131.34 1715.57,-124.89"/>
</a>
</g>
</g>
<!-- Node23 -->
<g id="Node000023" class="node">
<title>Node23</title>
<g id="a_Node000023"><a xlink:href="types_8c.html" target="_top" xlink:title="Implements the public API for creating and managing type descriptions.">
<polygon fill="white" stroke="#666666" points="2002,-90.5 1909,-90.5 1909,-71.5 2002,-71.5 2002,-90.5"/>
<text text-anchor="middle" x="1955.5" y="-78.5" font-family="Helvetica,sans-Serif" font-size="10.00">src/core/types.c</text>
</a>
</g>
</g>
<!-- Node2&#45;&gt;Node23 -->
<g id="edge29_Node000002_Node000023" class="edge">
<title>Node2&#45;&gt;Node23</title>
<g id="a_edge29_Node000002_Node000023"><a xlink:title=" ">
<path fill="none" stroke="#63b8ff" d="M1741.27,-129.94C1784.42,-121.3 1846.5,-108.51 1900.5,-96 1907.8,-94.31 1915.61,-92.39 1922.98,-90.52"/>
<polygon fill="#63b8ff" stroke="#63b8ff" points="1740.39,-126.54 1731.27,-131.93 1741.76,-133.41 1740.39,-126.54"/>
</a>
</g>
</g>
<!-- Node24 -->
<g id="Node000024" class="node">
<title>Node24</title>
<g id="a_Node000024"><a xlink:href="executor_8c.html" target="_top" xlink:title="Implements platform&#45;specific memory management for JIT code and execution.">
<polygon fill="white" stroke="#666666" points="2116.5,-90.5 2020.5,-90.5 2020.5,-71.5 2116.5,-71.5 2116.5,-90.5"/>
<text text-anchor="middle" x="2068.5" y="-78.5" font-family="Helvetica,sans-Serif" font-size="10.00">src/jit/executor.c</text>
</a>
</g>
</g>
<!-- Node2&#45;&gt;Node24 -->
<g id="edge31_Node000002_Node000024" class="edge">
<title>Node2&#45;&gt;Node24</title>
<g id="a_edge31_Node000002_Node000024"><a xlink:title=" ">
<path fill="none" stroke="#63b8ff" d="M1776.7,-130.79C1842.01,-123.06 1932.62,-111.06 2011.5,-96 2019.61,-94.45 2028.29,-92.48 2036.37,-90.51"/>
<polygon fill="#63b8ff" stroke="#63b8ff" points="1775.96,-127.35 1766.44,-131.99 1776.78,-134.3 1775.96,-127.35"/>
</a>
</g>
</g>
<!-- Node25 -->
<g id="Node000025" class="node">
<title>Node25</title>
<g id="a_Node000025"><a xlink:href="trampoline_8c.html" target="_top" xlink:title="The core JIT engine for generating forward and reverse trampolines.">
<polygon fill="white" stroke="#666666" points="2242.5,-90.5 2134.5,-90.5 2134.5,-71.5 2242.5,-71.5 2242.5,-90.5"/>
<text text-anchor="middle" x="2188.5" y="-78.5" font-family="Helvetica,sans-Serif" font-size="10.00">src/jit/trampoline.c</text>
</a>
</g>
</g>
<!-- Node2&#45;&gt;Node25 -->
<g id="edge33_Node000002_Node000025" class="edge">
<title>Node2&#45;&gt;Node25</title>
<g id="a_edge33_Node000002_Node000025"><a xlink:title=" ">
<path fill="none" stroke="#63b8ff" d="M1776.62,-134.53C1865.41,-127.85 2005.43,-115.37 2125.5,-96 2134.68,-94.52 2144.53,-92.53 2153.65,-90.51"/>
<polygon fill="#63b8ff" stroke="#63b8ff" points="1776.3,-131.04 1766.59,-135.27 1776.82,-138.02 1776.3,-131.04"/>
</a>
</g>
</g>
<!-- Node26 -->
<g id="Node000026" class="node">
<title>Node26</title>
<g id="a_Node000026"><a xlink:href="008__registry__introspection_8c.html" target="_top" xlink:title="Unit test for the registry introspection and serialization APIs.">
<polygon fill="white" stroke="#666666" points="2422,-90.5 2261,-90.5 2261,-71.5 2422,-71.5 2422,-90.5"/>
<text text-anchor="middle" x="2341.5" y="-78.5" font-family="Helvetica,sans-Serif" font-size="10.00">t/008_registry_introspection.c</text>
</a>
</g>
</g>
<!-- Node2&#45;&gt;Node26 -->
<g id="edge35_Node000002_Node000026" class="edge">
<title>Node2&#45;&gt;Node26</title>
<g id="a_edge35_Node000002_Node000026"><a xlink:title=" ">
<path fill="none" stroke="#63b8ff" d="M1776.79,-135.55C1888.16,-128.88 2084.29,-115.57 2251.5,-96 2264.38,-94.49 2278.24,-92.51 2291.14,-90.52"/>
<polygon fill="#63b8ff" stroke="#63b8ff" points="1776.39,-132.06 1766.61,-136.15 1776.8,-139.05 1776.39,-132.06"/>
</a>
</g>
</g>
<!-- Node27 -->
<g id="Node000027" class="node">
<title>Node27</title>
<g id="a_Node000027"><a xlink:href="101__by__value_8c.html" target="_top" xlink:title="Unit test for passing and returning aggregates and vectors by value.">
<polygon fill="white" stroke="#666666" points="2539,-90.5 2440,-90.5 2440,-71.5 2539,-71.5 2539,-90.5"/>
<text text-anchor="middle" x="2489.5" y="-78.5" font-family="Helvetica,sans-Serif" font-size="10.00">t/101_by_value.c</text>
</a>
</g>
</g>
<!-- Node2&#45;&gt;Node27 -->
<g id="edge36_Node000002_Node000027" class="edge">
<title>Node2&#45;&gt;Node27</title>
<g id="a_edge36_Node000002_Node000027"><a xlink:title=" ">
<path fill="none" stroke="#63b8ff" d="M1776.98,-140.25C1917.24,-138.71 2197.09,-131.02 2431.5,-96 2440.41,-94.67 2449.97,-92.63 2458.7,-90.51"/>
<polygon fill="#63b8ff" stroke="#63b8ff" points="1776.68,-136.75 1766.71,-140.35 1776.75,-143.75 1776.68,-136.75"/>
</a>
</g>
</g>
<!-- Node28 -->
<g id="Node000028" class="node">
<title>Node28</title>
<g id="a_Node000028"><a xlink:href="830__security_8c.html" target="_top" xlink:title="Unit test for security&#45;hardening features of the infix library.">
<polygon fill="white" stroke="#666666" points="2649.5,-90.5 2557.5,-90.5 2557.5,-71.5 2649.5,-71.5 2649.5,-90.5"/>
<text text-anchor="middle" x="2603.5" y="-78.5" font-family="Helvetica,sans-Serif" font-size="10.00">t/830_security.c</text>
</a>
</g>
</g>
<!-- Node2&#45;&gt;Node28 -->
<g id="edge37_Node000002_Node000028" class="edge">
<title>Node2&#45;&gt;Node28</title>
<g id="a_edge37_Node000002_Node000028"><a xlink:title=" ">
<path fill="none" stroke="#63b8ff" d="M1776.85,-138.12C1966.06,-132.72 2401.82,-118.23 2548.5,-96 2556.98,-94.72 2566.04,-92.69 2574.32,-90.57"/>
<polygon fill="#63b8ff" stroke="#63b8ff" points="1776.55,-134.63 1766.66,-138.41 1776.75,-141.63 1776.55,-134.63"/>
</a>
</g>
</g>
<!-- Node29 -->
<g id="Node000029" class="node">
<title>Node29</title>
<g id="a_Node000029"><a xlink:href="840__arena__allocator_8c.html" target="_top" xlink:title="Unit test for the internal arena allocator.">
<polygon fill="white" stroke="#666666" points="2797.5,-90.5 2667.5,-90.5 2667.5,-71.5 2797.5,-71.5 2797.5,-90.5"/>
<text text-anchor="middle" x="2732.5" y="-78.5" font-family="Helvetica,sans-Serif" font-size="10.00">t/840_arena_allocator.c</text>
</a>
</g>
</g>
<!-- Node2&#45;&gt;Node29 -->
<g id="edge38_Node000002_Node000029" class="edge">
<title>Node2&#45;&gt;Node29</title>
<g id="a_edge38_Node000002_Node000029"><a xlink:title=" ">
<path fill="none" stroke="#63b8ff" d="M1777.03,-140.61C1948.64,-139.89 2335.53,-133.76 2658.5,-96 2669.8,-94.68 2681.96,-92.64 2693.1,-90.52"/>
<polygon fill="#63b8ff" stroke="#63b8ff" points="1776.77,-137.11 1766.79,-140.65 1776.8,-144.11 1776.77,-137.11"/>
</a>
</g>
</g>
<!-- Node4 -->
<g id="Node000004" class="node">
<title>Node4</title>
<g id="a_Node000004"><a xlink:href="fuzz__abi_8c.html" target="_top" xlink:title="Fuzzer target for the ABI classification layer.">
<polygon fill="white" stroke="#666666" points="89,-24.5 0,-24.5 0,-5.5 89,-5.5 89,-24.5"/>
<text text-anchor="middle" x="44.5" y="-12.5" font-family="Helvetica,sans-Serif" font-size="10.00">fuzz/fuzz_abi.c</text>
</a>
</g>
</g>
<!-- Node3&#45;&gt;Node4 -->
<g id="edge3_Node000003_Node000004" class="edge">
<title>Node3&#45;&gt;Node4</title>
<g id="a_edge3_Node000003_Node000004"><a xlink:title=" ">
<path fill="none" stroke="#63b8ff" d="M371.26,-72.45C302.93,-64.05 192.64,-49.11 98.5,-30 90.91,-28.46 82.79,-26.51 75.21,-24.57"/>
<polygon fill="#63b8ff" stroke="#63b8ff" points="371.1,-75.95 381.45,-73.69 371.95,-69.01 371.1,-75.95"/>
</a>
</g>
</g>
<!-- Node5 -->
<g id="Node000005" class="node">
<title>Node5</title>
<g id="a_Node000005"><a xlink:href="fuzz__helpers_8c.html" target="_top" xlink:title="Implements the core logic for generating random infix_type graphs from fuzzer input.">
<polygon fill="white" stroke="#666666" points="217.5,-24.5 107.5,-24.5 107.5,-5.5 217.5,-5.5 217.5,-24.5"/>
<text text-anchor="middle" x="162.5" y="-12.5" font-family="Helvetica,sans-Serif" font-size="10.00">fuzz/fuzz_helpers.c</text>
</a>
</g>
</g>
<!-- Node3&#45;&gt;Node5 -->
<g id="edge4_Node000003_Node000005" class="edge">
<title>Node3&#45;&gt;Node5</title>
<g id="a_edge4_Node000003_Node000005"><a xlink:title=" ">
<path fill="none" stroke="#63b8ff" d="M389.84,-69.1C335.87,-56.49 248.16,-36.01 198.95,-24.51"/>
<polygon fill="#63b8ff" stroke="#63b8ff" points="389.3,-72.57 399.83,-71.44 390.89,-65.75 389.3,-72.57"/>
</a>
</g>
</g>
<!-- Node6 -->
<g id="Node000006" class="node">
<title>Node6</title>
<g id="a_Node000006"><a xlink:href="fuzz__signature_8c.html" target="_top" xlink:title="Fuzzer target for the high&#45;level signature parsing API.">
<polygon fill="white" stroke="#666666" points="355,-24.5 236,-24.5 236,-5.5 355,-5.5 355,-24.5"/>
<text text-anchor="middle" x="295.5" y="-12.5" font-family="Helvetica,sans-Serif" font-size="10.00">fuzz/fuzz_signature.c</text>
</a>
</g>
</g>
<!-- Node3&#45;&gt;Node6 -->
<g id="edge5_Node000003_Node000006" class="edge">
<title>Node3&#45;&gt;Node6</title>
<g id="a_edge5_Node000003_Node000006"><a xlink:title=" ">
<path fill="none" stroke="#63b8ff" d="M408.29,-67.19C380.5,-54.58 338.81,-35.66 314.66,-24.7"/>
<polygon fill="#63b8ff" stroke="#63b8ff" points="406.93,-70.42 417.48,-71.37 409.82,-64.05 406.93,-70.42"/>
</a>
</g>
</g>
<!-- Node7 -->
<g id="Node000007" class="node">
<title>Node7</title>
<g id="a_Node000007"><a xlink:href="fuzz__trampoline_8c.html" target="_top" xlink:title="Fuzzer target for the trampoline generation functions, including shared arena logic.">
<polygon fill="white" stroke="#666666" points="500,-24.5 373,-24.5 373,-5.5 500,-5.5 500,-24.5"/>
<text text-anchor="middle" x="436.5" y="-12.5" font-family="Helvetica,sans-Serif" font-size="10.00">fuzz/fuzz_trampoline.c</text>
</a>
</g>
</g>
<!-- Node3&#45;&gt;Node7 -->
<g id="edge6_Node000003_Node000007" class="edge">
<title>Node3&#45;&gt;Node7</title>
<g id="a_edge6_Node000003_Node000007"><a xlink:title=" ">
<path fill="none" stroke="#63b8ff" d="M436.5,-61.08C436.5,-49.13 436.5,-34.22 436.5,-24.91"/>
<polygon fill="#63b8ff" stroke="#63b8ff" points="433,-61.37 436.5,-71.37 440,-61.37 433,-61.37"/>
</a>
</g>
</g>
<!-- Node8 -->
<g id="Node000008" class="node">
<title>Node8</title>
<g id="a_Node000008"><a xlink:href="fuzz__types_8c.html" target="_top" xlink:title="Fuzzer target for the random type generation logic.">
<polygon fill="white" stroke="#666666" points="619,-24.5 518,-24.5 518,-5.5 619,-5.5 619,-24.5"/>
<text text-anchor="middle" x="568.5" y="-12.5" font-family="Helvetica,sans-Serif" font-size="10.00">fuzz/fuzz_types.c</text>
</a>
</g>
</g>
<!-- Node3&#45;&gt;Node8 -->
<g id="edge7_Node000003_Node000008" class="edge">
<title>Node3&#45;&gt;Node8</title>
<g id="a_edge7_Node000003_Node000008"><a xlink:title=" ">
<path fill="none" stroke="#63b8ff" d="M463.6,-66.86C489.61,-54.25 528.15,-35.56 550.56,-24.7"/>
<polygon fill="#63b8ff" stroke="#63b8ff" points="461.77,-63.86 454.3,-71.37 464.83,-70.16 461.77,-63.86"/>
</a>
</g>
</g>
<!-- Node9 -->
<g id="Node000009" class="node">
<title>Node9</title>
<g id="a_Node000009"><a xlink:href="850__regression__cases_8c.html" target="_top" xlink:title="A suite of regression tests for bugs discovered by fuzzing.">
<polygon fill="white" stroke="#666666" points="776,-24.5 637,-24.5 637,-5.5 776,-5.5 776,-24.5"/>
<text text-anchor="middle" x="706.5" y="-12.5" font-family="Helvetica,sans-Serif" font-size="10.00">t/850_regression_cases.c</text>
</a>
</g>
</g>
<!-- Node3&#45;&gt;Node9 -->
<g id="edge8_Node000003_Node000009" class="edge">
<title>Node3&#45;&gt;Node9</title>
<g id="a_edge8_Node000003_Node000009"><a xlink:title=" ">
<path fill="none" stroke="#63b8ff" d="M482.48,-69.1C535.66,-56.49 622.09,-36.01 670.58,-24.51"/>
<polygon fill="#63b8ff" stroke="#63b8ff" points="481.56,-65.72 472.63,-71.44 483.17,-72.53 481.56,-65.72"/>
</a>
</g>
</g>
<!-- Node11&#45;&gt;Node10 -->
<g id="edge11_Node000011_Node000010" class="edge">
<title>Node11&#45;&gt;Node10</title>
<g id="a_edge11_Node000011_Node000010"><a xlink:title=" ">
<path fill="none" stroke="#63b8ff" d="M946.08,-61.51C925.22,-51.47 899.83,-39.26 880.62,-30.01"/>
<polygon fill="#63b8ff" stroke="#63b8ff" points="944.78,-64.77 955.31,-65.95 947.82,-58.46 944.78,-64.77"/>
</a>
</g>
</g>
<!-- Node12 -->
<g id="Node000012" class="node">
<title>Node12</title>
<g id="a_Node000012"><a xlink:href="abi__arm64__emitters_8c.html" target="_top" xlink:title="Implements internal helper functions for emitting AArch64 machine code.">
<polygon fill="white" stroke="#666666" points="1042,-30 927,-30 927,0 1042,0 1042,-30"/>
<text text-anchor="start" x="935" y="-18" font-family="Helvetica,sans-Serif" font-size="10.00">src/arch/aarch64/abi</text>
<text text-anchor="middle" x="984.5" y="-7" font-family="Helvetica,sans-Serif" font-size="10.00">_arm64_emitters.c</text>
</a>
</g>
</g>
<!-- Node11&#45;&gt;Node12 -->
<g id="edge12_Node000011_Node000012" class="edge">
<title>Node11&#45;&gt;Node12</title>
<g id="a_edge12_Node000011_Node000012"><a xlink:title=" ">
<path fill="none" stroke="#63b8ff" d="M984.5,-55.54C984.5,-46.96 984.5,-37.61 984.5,-30.16"/>
<polygon fill="#63b8ff" stroke="#63b8ff" points="981,-55.8 984.5,-65.8 988,-55.8 981,-55.8"/>
</a>
</g>
</g>
<!-- Node15&#45;&gt;Node13 -->
<g id="edge16_Node000015_Node000013" class="edge">
<title>Node15&#45;&gt;Node13</title>
<g id="a_edge16_Node000015_Node000013"><a xlink:title=" ">
<path fill="none" stroke="#63b8ff" d="M1161.88,-58.37C1153.01,-49.06 1142.89,-38.44 1135,-30.16"/>
<polygon fill="#63b8ff" stroke="#63b8ff" points="1159.53,-60.97 1168.96,-65.8 1164.6,-56.14 1159.53,-60.97"/>
</a>
</g>
</g>
<!-- Node15&#45;&gt;Node14 -->
<g id="edge17_Node000015_Node000014" class="edge">
<title>Node15&#45;&gt;Node14</title>
<g id="a_edge17_Node000015_Node000014"><a xlink:title=" ">
<path fill="none" stroke="#63b8ff" d="M1238.85,-62.99C1272.96,-52.69 1315.94,-39.72 1348.08,-30.01"/>
<polygon fill="#63b8ff" stroke="#63b8ff" points="1237.59,-59.71 1229.02,-65.95 1239.61,-66.42 1237.59,-59.71"/>
</a>
</g>
</g>
<!-- Node16 -->
<g id="Node000016" class="node">
<title>Node16</title>
<g id="a_Node000016"><a xlink:href="abi__x64__emitters_8c.html" target="_top" xlink:title="Implements internal helper functions for emitting x86&#45;64 machine code.">
<polygon fill="white" stroke="#666666" points="1318,-30 1201,-30 1201,0 1318,0 1318,-30"/>
<text text-anchor="start" x="1209" y="-18" font-family="Helvetica,sans-Serif" font-size="10.00">src/arch/x64/abi_x64</text>
<text text-anchor="middle" x="1259.5" y="-7" font-family="Helvetica,sans-Serif" font-size="10.00">_emitters.c</text>
</a>
</g>
</g>
<!-- Node15&#45;&gt;Node16 -->
<g id="edge18_Node000015_Node000016" class="edge">
<title>Node15&#45;&gt;Node16</title>
<g id="a_edge18_Node000015_Node000016"><a xlink:title=" ">
<path fill="none" stroke="#63b8ff" d="M1207.52,-59.2C1218.95,-49.7 1232.2,-38.69 1242.46,-30.16"/>
<polygon fill="#63b8ff" stroke="#63b8ff" points="1205.04,-56.71 1199.59,-65.8 1209.52,-62.1 1205.04,-56.71"/>
</a>
</g>
</g>
<!-- Node18 -->
<g id="Node000018" class="node">
<title>Node18</title>
<g id="a_Node000018"><a xlink:href="infix_8c.html" target="_top" xlink:title="The unity build source file for the infix library.">
<polygon fill="white" stroke="#666666" points="1858,-24.5 1795,-24.5 1795,-5.5 1858,-5.5 1858,-24.5"/>
<text text-anchor="middle" x="1826.5" y="-12.5" font-family="Helvetica,sans-Serif" font-size="10.00">src/infix.c</text>
</a>
</g>
</g>
<!-- Node17&#45;&gt;Node18 -->
<g id="edge20_Node000017_Node000018" class="edge">
<title>Node17&#45;&gt;Node18</title>
<g id="a_edge20_Node000017_Node000018"><a xlink:title=" ">
<path fill="none" stroke="#63b8ff" d="M1385.75,-69.05C1390.7,-67.93 1395.7,-66.88 1400.5,-66 1546.64,-39.27 1723.72,-23.84 1794.76,-18.33"/>
<polygon fill="#63b8ff" stroke="#63b8ff" points="1384.66,-65.72 1375.74,-71.44 1386.28,-72.53 1384.66,-65.72"/>
</a>
</g>
</g>
<!-- Node19&#45;&gt;Node18 -->
<g id="edge22_Node000019_Node000018" class="edge">
<title>Node19&#45;&gt;Node18</title>
<g id="a_edge22_Node000019_Node000018"><a xlink:title=" ">
<path fill="none" stroke="#63b8ff" d="M1495.02,-69.04C1499.55,-67.95 1504.11,-66.91 1508.5,-66 1612.47,-44.4 1737.27,-27.32 1794.72,-19.95"/>
<polygon fill="#63b8ff" stroke="#63b8ff" points="1494.08,-65.67 1485.22,-71.48 1495.77,-72.46 1494.08,-65.67"/>
</a>
</g>
</g>
<!-- Node20&#45;&gt;Node18 -->
<g id="edge24_Node000020_Node000018" class="edge">
<title>Node20&#45;&gt;Node18</title>
<g id="a_edge24_Node000020_Node000018"><a xlink:title=" ">
<path fill="none" stroke="#63b8ff" d="M1609.98,-69.07C1614.21,-68.03 1618.44,-67 1622.5,-66 1683.41,-51.05 1754.56,-33.62 1794.7,-23.79"/>
<polygon fill="#63b8ff" stroke="#63b8ff" points="1609.04,-65.7 1600.16,-71.48 1610.71,-72.5 1609.04,-65.7"/>
</a>
</g>
</g>
<!-- Node21&#45;&gt;Node18 -->
<g id="edge26_Node000021_Node000018" class="edge">
<title>Node21&#45;&gt;Node18</title>
<g id="a_edge26_Node000021_Node000018"><a xlink:title=" ">
<path fill="none" stroke="#63b8ff" d="M1715.67,-67.03C1743.07,-54.42 1783.91,-35.61 1807.61,-24.7"/>
<polygon fill="#63b8ff" stroke="#63b8ff" points="1713.87,-64.01 1706.25,-71.37 1716.79,-70.37 1713.87,-64.01"/>
</a>
</g>
</g>
<!-- Node22&#45;&gt;Node18 -->
<g id="edge28_Node000022_Node000018" class="edge">
<title>Node22&#45;&gt;Node18</title>
<g id="a_edge28_Node000022_Node000018"><a xlink:title=" ">
<path fill="none" stroke="#63b8ff" d="M1826.5,-61.08C1826.5,-49.13 1826.5,-34.22 1826.5,-24.91"/>
<polygon fill="#63b8ff" stroke="#63b8ff" points="1823,-61.37 1826.5,-71.37 1830,-61.37 1823,-61.37"/>
</a>
</g>
</g>
<!-- Node23&#45;&gt;Node18 -->
<g id="edge30_Node000023_Node000018" class="edge">
<title>Node23&#45;&gt;Node18</title>
<g id="a_edge30_Node000023_Node000018"><a xlink:title=" ">
<path fill="none" stroke="#63b8ff" d="M1929.02,-66.86C1903.6,-54.25 1865.93,-35.56 1844.03,-24.7"/>
<polygon fill="#63b8ff" stroke="#63b8ff" points="1927.59,-70.06 1938.1,-71.37 1930.7,-63.79 1927.59,-70.06"/>
</a>
</g>
</g>
<!-- Node24&#45;&gt;Node18 -->
<g id="edge32_Node000024_Node000018" class="edge">
<title>Node24&#45;&gt;Node18</title>
<g id="a_edge32_Node000024_Node000018"><a xlink:title=" ">
<path fill="none" stroke="#63b8ff" d="M2026.36,-68.86C1978.48,-56.19 1901.42,-35.81 1858.31,-24.41"/>
<polygon fill="#63b8ff" stroke="#63b8ff" points="2025.55,-72.26 2036.11,-71.44 2027.34,-65.49 2025.55,-72.26"/>
</a>
</g>
</g>
<!-- Node25&#45;&gt;Node18 -->
<g id="edge34_Node000025_Node000018" class="edge">
<title>Node25&#45;&gt;Node18</title>
<g id="a_edge34_Node000025_Node000018"><a xlink:title=" ">
<path fill="none" stroke="#63b8ff" d="M2141.81,-69.34C2136.32,-68.17 2130.79,-67.03 2125.5,-66 2028.38,-47.1 1912.65,-28.99 1858.02,-20.71"/>
<polygon fill="#63b8ff" stroke="#63b8ff" points="2141.08,-72.76 2151.59,-71.45 2142.56,-65.92 2141.08,-72.76"/>
</a>
</g>
</g>
<!-- Node30&#45;&gt;Node2 -->
<g id="edge40_Node000030_Node000002" class="edge">
<title>Node30&#45;&gt;Node2</title>
<g id="a_edge40_Node000030_Node000002"><a xlink:title=" ">
<path fill="none" stroke="#63b8ff" d="M1757.5,-181.97C1740.31,-172.28 1717.69,-159.52 1702.88,-151.17"/>
<polygon fill="#63b8ff" stroke="#63b8ff" points="1755.97,-185.12 1766.4,-186.98 1759.41,-179.02 1755.97,-185.12"/>
</a>
</g>
</g>
<!-- Node31 -->
<g id="Node000031" class="node">
<title>Node31</title>
<g id="a_Node000031"><a xlink:href="platform_8c.html" target="_top" xlink:title="Implements runtime detection of CPU and OS features.">
<polygon fill="white" stroke="#666666" points="2385.5,-151 2277.5,-151 2277.5,-132 2385.5,-132 2385.5,-151"/>
<text text-anchor="middle" x="2331.5" y="-139" font-family="Helvetica,sans-Serif" font-size="10.00">src/core/platform.c</text>
</a>
</g>
</g>
<!-- Node30&#45;&gt;Node31 -->
<g id="edge41_Node000030_Node000031" class="edge">
<title>Node30&#45;&gt;Node31</title>
<g id="a_edge41_Node000030_Node000031"><a xlink:title=" ">
<path fill="none" stroke="#63b8ff" d="M1857.31,-186.94C2016.27,-170.56 2190.91,-154.85 2277.33,-147.23"/>
<polygon fill="#63b8ff" stroke="#63b8ff" points="1856.93,-183.46 1847.34,-187.96 1857.65,-190.42 1856.93,-183.46"/>
</a>
</g>
</g>
<!-- Node31&#45;&gt;Node18 -->
<g id="edge42_Node000031_Node000018" class="edge">
<title>Node31&#45;&gt;Node18</title>
<g id="a_edge42_Node000031_Node000018"><a xlink:title=" ">
<path fill="none" stroke="#63b8ff" d="M2395.81,-139.19C2519.2,-136 2779.38,-125.78 2806.5,-96 2815.48,-86.14 2815.68,-75.67 2806.5,-66 2773.07,-30.82 2022.66,-18.65 1858.18,-16.4"/>
<polygon fill="#63b8ff" stroke="#63b8ff" points="2395.65,-135.69 2385.74,-139.44 2395.83,-142.69 2395.65,-135.69"/>
</a>
</g>
</g>
</g>
</svg>

<g id="navigator" transform="translate(0 0)" fill="#404254">
  <rect fill="#f2f5e9" fill-opacity="0.5" stroke="#606060" stroke-width=".5" x="0" y="0" width="60" height="60"/>
  <use id="zoomplus" xlink:href="#zoomPlus" x="17" y="9" onmousedown="handleZoom(evt,'in')"/>
  <use id="zoomminus" xlink:href="#zoomMin" x="42" y="9" onmousedown="handleZoom(evt,'out')"/>
  <use id="reset" xlink:href="#resetDef" x="30" y="36" onmousedown="handleReset()"/>
   <use id="arrowup" xlink:href="#arrowUp" x="0" y="0" onmousedown="handlePan(0,-1)"/>
  <use id="arrowright" xlink:href="#arrowRight" x="0" y="0" onmousedown="handlePan(1,0)"/>
  <use id="arrowdown" xlink:href="#arrowDown" x="0" y="0" onmousedown="handlePan(0,1)"/>
  <use id="arrowleft" xlink:href="#arrowLeft" x="0" y="0" onmousedown="handlePan(-1,0)"/>
</g>
<svg viewBox="0 0 15 15" width="100%" height="30px" preserveAspectRatio="xMaxYMin meet">
 <g id="arrow_out" transform="scale(0.3 0.3)">
  <a xlink:href="infix__config_8h__dep__incl_org.svg" target="_base">
   <rect id="button" ry="5" rx="5" y="6" x="6" height="38" width="38"
        fill="#f2f5e9" fill-opacity="0.5" stroke="#606060" stroke-width="1.0"/>
   <path id="arrow"
     d="M 11.500037,31.436501 C 11.940474,20.09759 22.043105,11.32322 32.158766,21.979434 L 37.068811,17.246167 C 37.068811,17.246167 37.088388,32 37.088388,32 L 22.160133,31.978069 C 22.160133,31.978069 26.997745,27.140456 26.997745,27.140456 C 18.528582,18.264221 13.291696,25.230495 11.500037,31.436501 z"
     style="fill:#404040;"/>
  </a>
 </g>
</svg>

<style type='text/css'>
<![CDATA[
[data-mouse-over-selected='false'] { opacity: 0.7; }
[data-mouse-over-selected='true']  { opacity: 1.0; }
]]>
</style>
<script type="application/ecmascript"><![CDATA[
document.addEventListener('DOMContentLoaded', (event) => {
  highlightEdges();
  highlightAdjacentNodes();
});
]]></script>
</svg>
