<?xml version="1.0" encoding="UTF-8" standalone="no"?>
<!DOCTYPE svg PUBLIC "-//W3C//DTD SVG 1.1//EN"
 "http://www.w3.org/Graphics/SVG/1.1/DTD/svg11.dtd">
<!-- Generated by graphviz version 2.43.0 (0)
 -->
<!-- Title: src/common/infix_internals.h Pages: 1 -->
<!--zoomable 159 -->

<svg id="main" version="1.1" xmlns="http://www.w3.org/2000/svg" xmlns:xlink="http://www.w3.org/1999/xlink" xml:space="preserve" onload="init(evt)">
<style type="text/css"><![CDATA[
.node, .edge {opacity: 0.7;}
.node.selected, .edge.selected {opacity: 1;}
.edge:hover path { stroke: red; }
.edge:hover polygon { stroke: red; fill: red; }
]]></style>

<defs>
  <circle id="rim" cx="0" cy="0" r="7"/>
  <circle id="rim2" cx="0" cy="0" r="3.5"/>
  <g id="zoomPlus">
    <use xlink:href="#rim" fill="#404040"><set attributeName="fill" to="#808080" begin="zoomplus.mouseover" end="zoomplus.mouseout"/></use>
    <path d="M-4,0h8M0,-4v8" fill="none" stroke="white" stroke-width="1.5" pointer-events="none"/>
  </g>
  <g id="zoomMin">
    <use xlink:href="#rim" fill="#404040"><set attributeName="fill" to="#808080" begin="zoomminus.mouseover" end="zoomminus.mouseout"/></use>
    <path d="M-4,0h8" fill="none" stroke="white" stroke-width="1.5" pointer-events="none"/>
  </g>
  <g id="arrowUp" transform="translate(30 24)">
    <use xlink:href="#rim"/>
    <path pointer-events="none" fill="none" stroke="white" stroke-width="1.5" d="M0,-3.0v7 M-2.5,-0.5L0,-3.0L2.5,-0.5"/>
  </g>
  <g id="arrowRight" transform="rotate(90) translate(36 -43)">
    <use xlink:href="#rim"/>
    <path pointer-events="none" fill="none" stroke="white" stroke-width="1.5" d="M0,-3.0v7 M-2.5,-0.5L0,-3.0L2.5,-0.5"/>
  </g>
  <g id="arrowDown" transform="rotate(180) translate(-30 -48)">
    <use xlink:href="#rim"/>
    <path pointer-events="none" fill="none" stroke="white" stroke-width="1.5" d="M0,-3.0v7 M-2.5,-0.5L0,-3.0L2.5,-0.5"/>
  </g>
  <g id="arrowLeft" transform="rotate(270) translate(-36 17)">
    <use xlink:href="#rim"/>
    <path pointer-events="none" fill="none" stroke="white" stroke-width="1.5" d="M0,-3.0v7 M-2.5,-0.5L0,-3.0L2.5,-0.5"/>
  </g>
  <g id="resetDef">
    <use xlink:href="#rim2" fill="#404040"><set attributeName="fill" to="#808080" begin="reset.mouseover" end="reset.mouseout"/></use>
  </g>
</defs>
<script type="application/ecmascript">
var viewWidth = 2805;
var viewHeight = 159;
var sectionId = 'dynsection-1';
</script>
<script type="application/ecmascript" xlink:href="svg.min.js"/>
<svg id="graph" class="graph">
<g id="viewport">
<title>src/common/infix_internals.h</title>
<!-- Node1 -->
<g id="Node000001" class="node">
<title>Node1</title>
<g id="a_Node000001"><a xlink:title="Internal data structures, function prototypes, and constants.">
<polygon fill="#999999" stroke="#666666" points="1749.5,-151 1591.5,-151 1591.5,-132 1749.5,-132 1749.5,-151"/>
<text text-anchor="middle" x="1670.5" y="-139" font-family="Helvetica,sans-Serif" font-size="10.00">src/common/infix_internals.h</text>
</a>
</g>
</g>
<!-- Node2 -->
<g id="Node000002" class="node">
<title>Node2</title>
<g id="a_Node000002"><a xlink:href="fuzz__helpers_8h.html" target="_top" xlink:title="Common definitions, structures, and helpers for all fuzzer targets.">
<polygon fill="white" stroke="#666666" points="491.5,-90.5 381.5,-90.5 381.5,-71.5 491.5,-71.5 491.5,-90.5"/>
<text text-anchor="middle" x="436.5" y="-78.5" font-family="Helvetica,sans-Serif" font-size="10.00">fuzz/fuzz_helpers.h</text>
</a>
</g>
</g>
<!-- Node1&#45;&gt;Node2 -->
<g id="edge1_Node000001_Node000002" class="edge">
<title>Node1&#45;&gt;Node2</title>
<g id="a_edge1_Node000001_Node000002"><a xlink:title=" ">
<path fill="none" stroke="#63b8ff" d="M1581.34,-136.27C1341.25,-124.89 686.14,-93.83 491.65,-84.61"/>
<polygon fill="#63b8ff" stroke="#63b8ff" points="1581.28,-139.77 1591.43,-136.75 1581.61,-132.78 1581.28,-139.77"/>
</a>
</g>
</g>
<!-- Node9 -->
<g id="Node000009" class="node">
<title>Node9</title>
<g id="a_Node000009"><a xlink:href="abi__arm64_8c.html" target="_top" xlink:title="Implements the FFI logic for the AArch64 (ARM64) architecture.">
<polygon fill="white" stroke="#666666" points="909,-30 794,-30 794,0 909,0 909,-30"/>
<text text-anchor="start" x="802" y="-18" font-family="Helvetica,sans-Serif" font-size="10.00">src/arch/aarch64/abi</text>
<text text-anchor="middle" x="851.5" y="-7" font-family="Helvetica,sans-Serif" font-size="10.00">_arm64.c</text>
</a>
</g>
</g>
<!-- Node1&#45;&gt;Node9 -->
<g id="edge8_Node000001_Node000009" class="edge">
<title>Node1&#45;&gt;Node9</title>
<g id="a_edge8_Node000001_Node000009"><a xlink:title=" ">
<path fill="none" stroke="#63b8ff" d="M1581.26,-139.21C1394.58,-135.93 975.33,-125.37 917.5,-96 889.09,-81.57 868.41,-48.85 858.36,-30.03"/>
<polygon fill="#63b8ff" stroke="#63b8ff" points="1581.26,-142.71 1591.32,-139.38 1581.38,-135.71 1581.26,-142.71"/>
</a>
</g>
</g>
<!-- Node10 -->
<g id="Node000010" class="node">
<title>Node10</title>
<g id="a_Node000010"><a xlink:href="abi__arm64__emitters_8h.html" target="_top" xlink:title="Declares internal helper functions for emitting AArch64 machine code.">
<polygon fill="white" stroke="#666666" points="1042,-96 927,-96 927,-66 1042,-66 1042,-96"/>
<text text-anchor="start" x="935" y="-84" font-family="Helvetica,sans-Serif" font-size="10.00">src/arch/aarch64/abi</text>
<text text-anchor="middle" x="984.5" y="-73" font-family="Helvetica,sans-Serif" font-size="10.00">_arm64_emitters.h</text>
</a>
</g>
</g>
<!-- Node1&#45;&gt;Node10 -->
<g id="edge9_Node000001_Node000010" class="edge">
<title>Node1&#45;&gt;Node10</title>
<g id="a_edge9_Node000001_Node000010"><a xlink:title=" ">
<path fill="none" stroke="#63b8ff" d="M1581.06,-135.64C1465.48,-128.92 1258.12,-115.4 1081.5,-96 1068.73,-94.6 1055.06,-92.8 1042.12,-90.97"/>
<polygon fill="#63b8ff" stroke="#63b8ff" points="1581.08,-139.15 1591.27,-136.23 1581.49,-132.16 1581.08,-139.15"/>
</a>
</g>
</g>
<!-- Node12 -->
<g id="Node000012" class="node">
<title>Node12</title>
<g id="a_Node000012"><a xlink:href="abi__sysv__x64_8c.html" target="_top" xlink:title="Implements the FFI logic for the System V AMD64 ABI.">
<polygon fill="white" stroke="#666666" points="1182.5,-30 1060.5,-30 1060.5,0 1182.5,0 1182.5,-30"/>
<text text-anchor="start" x="1068.5" y="-18" font-family="Helvetica,sans-Serif" font-size="10.00">src/arch/x64/abi_sysv</text>
<text text-anchor="middle" x="1121.5" y="-7" font-family="Helvetica,sans-Serif" font-size="10.00">_x64.c</text>
</a>
</g>
</g>
<!-- Node1&#45;&gt;Node12 -->
<g id="edge12_Node000001_Node000012" class="edge">
<title>Node1&#45;&gt;Node12</title>
<g id="a_edge12_Node000001_Node000012"><a xlink:title=" ">
<path fill="none" stroke="#63b8ff" d="M1581.19,-139.84C1432.03,-137.8 1145.44,-129.52 1114.5,-96 1098.14,-78.28 1107.09,-47.97 1114.61,-30.19"/>
<polygon fill="#63b8ff" stroke="#63b8ff" points="1581.2,-143.34 1591.25,-139.97 1581.29,-136.34 1581.2,-143.34"/>
</a>
</g>
</g>
<!-- Node13 -->
<g id="Node000013" class="node">
<title>Node13</title>
<g id="a_Node000013"><a xlink:href="abi__win__x64_8c.html" target="_top" xlink:title="Implements the FFI logic for the Windows x64 calling convention.">
<polygon fill="white" stroke="#666666" points="1452.5,-30 1336.5,-30 1336.5,0 1452.5,0 1452.5,-30"/>
<text text-anchor="start" x="1344.5" y="-18" font-family="Helvetica,sans-Serif" font-size="10.00">src/arch/x64/abi_win</text>
<text text-anchor="middle" x="1394.5" y="-7" font-family="Helvetica,sans-Serif" font-size="10.00">_x64.c</text>
</a>
</g>
</g>
<!-- Node1&#45;&gt;Node13 -->
<g id="edge13_Node000001_Node000013" class="edge">
<title>Node1&#45;&gt;Node13</title>
<g id="a_edge13_Node000001_Node000013"><a xlink:title=" ">
<path fill="none" stroke="#63b8ff" d="M1581.09,-136.24C1474.31,-130.22 1307.64,-117.5 1288.5,-96 1264.2,-68.71 1310.62,-44.54 1349.51,-30.1"/>
<polygon fill="#63b8ff" stroke="#63b8ff" points="1581.05,-139.75 1591.22,-136.8 1581.43,-132.76 1581.05,-139.75"/>
</a>
</g>
</g>
<!-- Node14 -->
<g id="Node000014" class="node">
<title>Node14</title>
<g id="a_Node000014"><a xlink:href="abi__x64__emitters_8h.html" target="_top" xlink:title="Declares internal helper functions for emitting x86&#45;64 machine code.">
<polygon fill="white" stroke="#666666" points="1241,-96 1124,-96 1124,-66 1241,-66 1241,-96"/>
<text text-anchor="start" x="1132" y="-84" font-family="Helvetica,sans-Serif" font-size="10.00">src/arch/x64/abi_x64</text>
<text text-anchor="middle" x="1182.5" y="-73" font-family="Helvetica,sans-Serif" font-size="10.00">_emitters.h</text>
</a>
</g>
</g>
<!-- Node1&#45;&gt;Node14 -->
<g id="edge14_Node000001_Node000014" class="edge">
<title>Node1&#45;&gt;Node14</title>
<g id="a_edge14_Node000001_Node000014"><a xlink:title=" ">
<path fill="none" stroke="#63b8ff" d="M1581.43,-133.09C1497.2,-125.59 1367.41,-112.7 1255.5,-96 1250.91,-95.31 1246.16,-94.54 1241.4,-93.73"/>
<polygon fill="#63b8ff" stroke="#63b8ff" points="1581.2,-136.59 1591.47,-133.98 1581.81,-129.62 1581.2,-136.59"/>
</a>
</g>
</g>
<!-- Node16 -->
<g id="Node000016" class="node">
<title>Node16</title>
<g id="a_Node000016"><a xlink:href="arena_8c.html" target="_top" xlink:title="Implements a simple, fast arena (or region&#45;based) allocator.">
<polygon fill="white" stroke="#666666" points="2134.5,-90.5 2040.5,-90.5 2040.5,-71.5 2134.5,-71.5 2134.5,-90.5"/>
<text text-anchor="middle" x="2087.5" y="-78.5" font-family="Helvetica,sans-Serif" font-size="10.00">src/core/arena.c</text>
</a>
</g>
</g>
<!-- Node1&#45;&gt;Node16 -->
<g id="edge18_Node000001_Node000016" class="edge">
<title>Node1&#45;&gt;Node16</title>
<g id="a_edge18_Node000001_Node000016"><a xlink:title=" ">
<path fill="none" stroke="#63b8ff" d="M1759.92,-132.55C1833.26,-125.29 1939.59,-113.09 2031.5,-96 2039.58,-94.5 2048.23,-92.52 2056.25,-90.53"/>
<polygon fill="#63b8ff" stroke="#63b8ff" points="1759.41,-129.08 1749.8,-133.54 1760.09,-136.05 1759.41,-129.08"/>
</a>
</g>
</g>
<!-- Node18 -->
<g id="Node000018" class="node">
<title>Node18</title>
<g id="a_Node000018"><a xlink:href="error_8c.html" target="_top" xlink:title="Implements the thread&#45;local error reporting system.">
<polygon fill="white" stroke="#666666" points="2242,-90.5 2153,-90.5 2153,-71.5 2242,-71.5 2242,-90.5"/>
<text text-anchor="middle" x="2197.5" y="-78.5" font-family="Helvetica,sans-Serif" font-size="10.00">src/core/error.c</text>
</a>
</g>
</g>
<!-- Node1&#45;&gt;Node18 -->
<g id="edge20_Node000001_Node000018" class="edge">
<title>Node1&#45;&gt;Node18</title>
<g id="a_edge20_Node000001_Node000018"><a xlink:title=" ">
<path fill="none" stroke="#63b8ff" d="M1759.89,-136.36C1855.42,-130.94 2011.03,-119.25 2143.5,-96 2151.51,-94.59 2160.08,-92.6 2167.98,-90.56"/>
<polygon fill="#63b8ff" stroke="#63b8ff" points="1759.48,-132.87 1749.69,-136.92 1759.86,-139.86 1759.48,-132.87"/>
</a>
</g>
</g>
<!-- Node19 -->
<g id="Node000019" class="node">
<title>Node19</title>
<g id="a_Node000019"><a xlink:href="loader_8c.html" target="_top" xlink:title="Implements cross&#45;platform dynamic library loading.">
<polygon fill="white" stroke="#666666" points="1393.5,-90.5 1297.5,-90.5 1297.5,-71.5 1393.5,-71.5 1393.5,-90.5"/>
<text text-anchor="middle" x="1345.5" y="-78.5" font-family="Helvetica,sans-Serif" font-size="10.00">src/core/loader.c</text>
</a>
</g>
</g>
<!-- Node1&#45;&gt;Node19 -->
<g id="edge22_Node000001_Node000019" class="edge">
<title>Node1&#45;&gt;Node19</title>
<g id="a_edge22_Node000001_Node000019"><a xlink:title=" ">
<path fill="none" stroke="#63b8ff" d="M1600.98,-130.45C1546.73,-122.24 1469.56,-109.78 1402.5,-96 1394.71,-94.4 1386.38,-92.48 1378.56,-90.57"/>
<polygon fill="#63b8ff" stroke="#63b8ff" points="1600.77,-133.95 1611.18,-131.98 1601.81,-127.03 1600.77,-133.95"/>
</a>
</g>
</g>
<!-- Node20 -->
<g id="Node000020" class="node">
<title>Node20</title>
<g id="a_Node000020"><a xlink:href="signature_8c.html" target="_top" xlink:title="Implements the infix signature string parser and type printer.">
<polygon fill="white" stroke="#666666" points="1523.5,-90.5 1411.5,-90.5 1411.5,-71.5 1523.5,-71.5 1523.5,-90.5"/>
<text text-anchor="middle" x="1467.5" y="-78.5" font-family="Helvetica,sans-Serif" font-size="10.00">src/core/signature.c</text>
</a>
</g>
</g>
<!-- Node1&#45;&gt;Node20 -->
<g id="edge24_Node000001_Node000020" class="edge">
<title>Node1&#45;&gt;Node20</title>
<g id="a_edge24_Node000001_Node000020"><a xlink:title=" ">
<path fill="none" stroke="#63b8ff" d="M1631.22,-129.18C1591.96,-117.87 1532.48,-100.72 1497.05,-90.52"/>
<polygon fill="#63b8ff" stroke="#63b8ff" points="1630.4,-132.59 1640.98,-131.99 1632.34,-125.86 1630.4,-132.59"/>
</a>
</g>
</g>
<!-- Node21 -->
<g id="Node000021" class="node">
<title>Node21</title>
<g id="a_Node000021"><a xlink:href="type__registry_8c.html" target="_top" xlink:title="Implements the named type registry system.">
<polygon fill="white" stroke="#666666" points="1671,-90.5 1542,-90.5 1542,-71.5 1671,-71.5 1671,-90.5"/>
<text text-anchor="middle" x="1606.5" y="-78.5" font-family="Helvetica,sans-Serif" font-size="10.00">src/core/type_registry.c</text>
</a>
</g>
</g>
<!-- Node1&#45;&gt;Node21 -->
<g id="edge26_Node000001_Node000021" class="edge">
<title>Node1&#45;&gt;Node21</title>
<g id="a_edge26_Node000001_Node000021"><a xlink:title=" ">
<path fill="none" stroke="#63b8ff" d="M1653.44,-124.91C1641.44,-113.94 1625.83,-99.67 1615.98,-90.67"/>
<polygon fill="#63b8ff" stroke="#63b8ff" points="1651.31,-127.7 1661.06,-131.87 1656.04,-122.54 1651.31,-127.7"/>
</a>
</g>
</g>
<!-- Node22 -->
<g id="Node000022" class="node">
<title>Node22</title>
<g id="a_Node000022"><a xlink:href="types_8c.html" target="_top" xlink:title="Implements the public API for creating and managing type descriptions.">
<polygon fill="white" stroke="#666666" points="1782,-90.5 1689,-90.5 1689,-71.5 1782,-71.5 1782,-90.5"/>
<text text-anchor="middle" x="1735.5" y="-78.5" font-family="Helvetica,sans-Serif" font-size="10.00">src/core/types.c</text>
</a>
</g>
</g>
<!-- Node1&#45;&gt;Node22 -->
<g id="edge28_Node000001_Node000022" class="edge">
<title>Node1&#45;&gt;Node22</title>
<g id="a_edge28_Node000001_Node000022"><a xlink:title=" ">
<path fill="none" stroke="#63b8ff" d="M1687.82,-124.91C1700.01,-113.94 1715.87,-99.67 1725.87,-90.67"/>
<polygon fill="#63b8ff" stroke="#63b8ff" points="1685.18,-122.58 1680.09,-131.87 1689.87,-127.78 1685.18,-122.58"/>
</a>
</g>
</g>
<!-- Node23 -->
<g id="Node000023" class="node">
<title>Node23</title>
<g id="a_Node000023"><a xlink:href="executor_8c.html" target="_top" xlink:title="Implements platform&#45;specific memory management for JIT code and execution.">
<polygon fill="white" stroke="#666666" points="1896.5,-90.5 1800.5,-90.5 1800.5,-71.5 1896.5,-71.5 1896.5,-90.5"/>
<text text-anchor="middle" x="1848.5" y="-78.5" font-family="Helvetica,sans-Serif" font-size="10.00">src/jit/executor.c</text>
</a>
</g>
</g>
<!-- Node1&#45;&gt;Node23 -->
<g id="edge30_Node000001_Node000023" class="edge">
<title>Node1&#45;&gt;Node23</title>
<g id="a_edge30_Node000001_Node000023"><a xlink:title=" ">
<path fill="none" stroke="#63b8ff" d="M1706.05,-128.82C1740.48,-117.5 1791.86,-100.62 1822.59,-90.52"/>
<polygon fill="#63b8ff" stroke="#63b8ff" points="1704.79,-125.55 1696.38,-131.99 1706.98,-132.2 1704.79,-125.55"/>
</a>
</g>
</g>
<!-- Node24 -->
<g id="Node000024" class="node">
<title>Node24</title>
<g id="a_Node000024"><a xlink:href="trampoline_8c.html" target="_top" xlink:title="The core JIT engine for generating forward and reverse trampolines.">
<polygon fill="white" stroke="#666666" points="2022.5,-90.5 1914.5,-90.5 1914.5,-71.5 2022.5,-71.5 2022.5,-90.5"/>
<text text-anchor="middle" x="1968.5" y="-78.5" font-family="Helvetica,sans-Serif" font-size="10.00">src/jit/trampoline.c</text>
</a>
</g>
</g>
<!-- Node1&#45;&gt;Node24 -->
<g id="edge32_Node000001_Node000024" class="edge">
<title>Node1&#45;&gt;Node24</title>
<g id="a_edge32_Node000001_Node000024"><a xlink:title=" ">
<path fill="none" stroke="#63b8ff" d="M1727.97,-130.14C1775.61,-121.43 1845.06,-108.43 1905.5,-96 1913.73,-94.31 1922.55,-92.4 1930.9,-90.56"/>
<polygon fill="#63b8ff" stroke="#63b8ff" points="1727.06,-126.75 1717.85,-131.99 1728.31,-133.63 1727.06,-126.75"/>
</a>
</g>
</g>
<!-- Node25 -->
<g id="Node000025" class="node">
<title>Node25</title>
<g id="a_Node000025"><a xlink:href="008__registry__introspection_8c.html" target="_top" xlink:title="Unit test for the registry introspection and serialization APIs.">
<polygon fill="white" stroke="#666666" points="2421,-90.5 2260,-90.5 2260,-71.5 2421,-71.5 2421,-90.5"/>
<text text-anchor="middle" x="2340.5" y="-78.5" font-family="Helvetica,sans-Serif" font-size="10.00">t/008_registry_introspection.c</text>
</a>
</g>
</g>
<!-- Node1&#45;&gt;Node25 -->
<g id="edge34_Node000001_Node000025" class="edge">
<title>Node1&#45;&gt;Node25</title>
<g id="a_edge34_Node000001_Node000025"><a xlink:title=" ">
<path fill="none" stroke="#63b8ff" d="M1759.73,-135.88C1873.96,-129.45 2077.88,-116.27 2251.5,-96 2264.24,-94.51 2277.95,-92.54 2290.7,-90.55"/>
<polygon fill="#63b8ff" stroke="#63b8ff" points="1759.42,-132.39 1749.63,-136.44 1759.81,-139.38 1759.42,-132.39"/>
</a>
</g>
</g>
<!-- Node26 -->
<g id="Node000026" class="node">
<title>Node26</title>
<g id="a_Node000026"><a xlink:href="101__by__value_8c.html" target="_top" xlink:title="Unit test for passing and returning aggregates and vectors by value.">
<polygon fill="white" stroke="#666666" points="2538,-90.5 2439,-90.5 2439,-71.5 2538,-71.5 2538,-90.5"/>
<text text-anchor="middle" x="2488.5" y="-78.5" font-family="Helvetica,sans-Serif" font-size="10.00">t/101_by_value.c</text>
</a>
</g>
</g>
<!-- Node1&#45;&gt;Node26 -->
<g id="edge35_Node000001_Node000026" class="edge">
<title>Node1&#45;&gt;Node26</title>
<g id="a_edge35_Node000001_Node000026"><a xlink:title=" ">
<path fill="none" stroke="#63b8ff" d="M1759.76,-140.41C1902.32,-139.12 2189.85,-131.8 2430.5,-96 2439.41,-94.67 2448.97,-92.63 2457.7,-90.51"/>
<polygon fill="#63b8ff" stroke="#63b8ff" points="1759.72,-136.91 1749.75,-140.5 1759.78,-143.91 1759.72,-136.91"/>
</a>
</g>
</g>
<!-- Node27 -->
<g id="Node000027" class="node">
<title>Node27</title>
<g id="a_Node000027"><a xlink:href="830__security_8c.html" target="_top" xlink:title="Unit test for security&#45;hardening features of the infix library.">
<polygon fill="white" stroke="#666666" points="2648.5,-90.5 2556.5,-90.5 2556.5,-71.5 2648.5,-71.5 2648.5,-90.5"/>
<text text-anchor="middle" x="2602.5" y="-78.5" font-family="Helvetica,sans-Serif" font-size="10.00">t/830_security.c</text>
</a>
</g>
</g>
<!-- Node1&#45;&gt;Node27 -->
<g id="edge36_Node000001_Node000027" class="edge">
<title>Node1&#45;&gt;Node27</title>
<g id="a_edge36_Node000001_Node000027"><a xlink:title=" ">
<path fill="none" stroke="#63b8ff" d="M1759.79,-138.22C1951.59,-132.96 2397.65,-118.64 2547.5,-96 2556.07,-94.7 2565.25,-92.65 2573.61,-90.5"/>
<polygon fill="#63b8ff" stroke="#63b8ff" points="1759.65,-134.72 1749.74,-138.49 1759.84,-141.72 1759.65,-134.72"/>
</a>
</g>
</g>
<!-- Node28 -->
<g id="Node000028" class="node">
<title>Node28</title>
<g id="a_Node000028"><a xlink:href="840__arena__allocator_8c.html" target="_top" xlink:title="Unit test for the internal arena allocator.">
<polygon fill="white" stroke="#666666" points="2796.5,-90.5 2666.5,-90.5 2666.5,-71.5 2796.5,-71.5 2796.5,-90.5"/>
<text text-anchor="middle" x="2731.5" y="-78.5" font-family="Helvetica,sans-Serif" font-size="10.00">t/840_arena_allocator.c</text>
</a>
</g>
</g>
<!-- Node1&#45;&gt;Node28 -->
<g id="edge37_Node000001_Node000028" class="edge">
<title>Node1&#45;&gt;Node28</title>
<g id="a_edge37_Node000001_Node000028"><a xlink:title=" ">
<path fill="none" stroke="#63b8ff" d="M1759.92,-140.71C1933.55,-140.17 2328.21,-134.38 2657.5,-96 2668.8,-94.68 2680.96,-92.64 2692.1,-90.53"/>
<polygon fill="#63b8ff" stroke="#63b8ff" points="1759.8,-137.21 1749.81,-140.73 1759.82,-144.21 1759.8,-137.21"/>
</a>
</g>
</g>
<!-- Node3 -->
<g id="Node000003" class="node">
<title>Node3</title>
<g id="a_Node000003"><a xlink:href="fuzz__abi_8c.html" target="_top" xlink:title="Fuzzer target for the ABI classification layer.">
<polygon fill="white" stroke="#666666" points="89,-24.5 0,-24.5 0,-5.5 89,-5.5 89,-24.5"/>
<text text-anchor="middle" x="44.5" y="-12.5" font-family="Helvetica,sans-Serif" font-size="10.00">fuzz/fuzz_abi.c</text>
</a>
</g>
</g>
<!-- Node2&#45;&gt;Node3 -->
<g id="edge2_Node000002_Node000003" class="edge">
<title>Node2&#45;&gt;Node3</title>
<g id="a_edge2_Node000002_Node000003"><a xlink:title=" ">
<path fill="none" stroke="#63b8ff" d="M371.26,-72.45C302.93,-64.05 192.64,-49.11 98.5,-30 90.91,-28.46 82.79,-26.51 75.21,-24.57"/>
<polygon fill="#63b8ff" stroke="#63b8ff" points="371.1,-75.95 381.45,-73.69 371.95,-69.01 371.1,-75.95"/>
</a>
</g>
</g>
<!-- Node4 -->
<g id="Node000004" class="node">
<title>Node4</title>
<g id="a_Node000004"><a xlink:href="fuzz__helpers_8c.html" target="_top" xlink:title="Implements the core logic for generating random infix_type graphs from fuzzer input.">
<polygon fill="white" stroke="#666666" points="217.5,-24.5 107.5,-24.5 107.5,-5.5 217.5,-5.5 217.5,-24.5"/>
<text text-anchor="middle" x="162.5" y="-12.5" font-family="Helvetica,sans-Serif" font-size="10.00">fuzz/fuzz_helpers.c</text>
</a>
</g>
</g>
<!-- Node2&#45;&gt;Node4 -->
<g id="edge3_Node000002_Node000004" class="edge">
<title>Node2&#45;&gt;Node4</title>
<g id="a_edge3_Node000002_Node000004"><a xlink:title=" ">
<path fill="none" stroke="#63b8ff" d="M389.84,-69.1C335.87,-56.49 248.16,-36.01 198.95,-24.51"/>
<polygon fill="#63b8ff" stroke="#63b8ff" points="389.3,-72.57 399.83,-71.44 390.89,-65.75 389.3,-72.57"/>
</a>
</g>
</g>
<!-- Node5 -->
<g id="Node000005" class="node">
<title>Node5</title>
<g id="a_Node000005"><a xlink:href="fuzz__signature_8c.html" target="_top" xlink:title="Fuzzer target for the high&#45;level signature parsing API.">
<polygon fill="white" stroke="#666666" points="355,-24.5 236,-24.5 236,-5.5 355,-5.5 355,-24.5"/>
<text text-anchor="middle" x="295.5" y="-12.5" font-family="Helvetica,sans-Serif" font-size="10.00">fuzz/fuzz_signature.c</text>
</a>
</g>
</g>
<!-- Node2&#45;&gt;Node5 -->
<g id="edge4_Node000002_Node000005" class="edge">
<title>Node2&#45;&gt;Node5</title>
<g id="a_edge4_Node000002_Node000005"><a xlink:title=" ">
<path fill="none" stroke="#63b8ff" d="M408.29,-67.19C380.5,-54.58 338.81,-35.66 314.66,-24.7"/>
<polygon fill="#63b8ff" stroke="#63b8ff" points="406.93,-70.42 417.48,-71.37 409.82,-64.05 406.93,-70.42"/>
</a>
</g>
</g>
<!-- Node6 -->
<g id="Node000006" class="node">
<title>Node6</title>
<g id="a_Node000006"><a xlink:href="fuzz__trampoline_8c.html" target="_top" xlink:title="Fuzzer target for the trampoline generation functions, including shared arena logic.">
<polygon fill="white" stroke="#666666" points="500,-24.5 373,-24.5 373,-5.5 500,-5.5 500,-24.5"/>
<text text-anchor="middle" x="436.5" y="-12.5" font-family="Helvetica,sans-Serif" font-size="10.00">fuzz/fuzz_trampoline.c</text>
</a>
</g>
</g>
<!-- Node2&#45;&gt;Node6 -->
<g id="edge5_Node000002_Node000006" class="edge">
<title>Node2&#45;&gt;Node6</title>
<g id="a_edge5_Node000002_Node000006"><a xlink:title=" ">
<path fill="none" stroke="#63b8ff" d="M436.5,-61.08C436.5,-49.13 436.5,-34.22 436.5,-24.91"/>
<polygon fill="#63b8ff" stroke="#63b8ff" points="433,-61.37 436.5,-71.37 440,-61.37 433,-61.37"/>
</a>
</g>
</g>
<!-- Node7 -->
<g id="Node000007" class="node">
<title>Node7</title>
<g id="a_Node000007"><a xlink:href="fuzz__types_8c.html" target="_top" xlink:title="Fuzzer target for the random type generation logic.">
<polygon fill="white" stroke="#666666" points="619,-24.5 518,-24.5 518,-5.5 619,-5.5 619,-24.5"/>
<text text-anchor="middle" x="568.5" y="-12.5" font-family="Helvetica,sans-Serif" font-size="10.00">fuzz/fuzz_types.c</text>
</a>
</g>
</g>
<!-- Node2&#45;&gt;Node7 -->
<g id="edge6_Node000002_Node000007" class="edge">
<title>Node2&#45;&gt;Node7</title>
<g id="a_edge6_Node000002_Node000007"><a xlink:title=" ">
<path fill="none" stroke="#63b8ff" d="M463.6,-66.86C489.61,-54.25 528.15,-35.56 550.56,-24.7"/>
<polygon fill="#63b8ff" stroke="#63b8ff" points="461.77,-63.86 454.3,-71.37 464.83,-70.16 461.77,-63.86"/>
</a>
</g>
</g>
<!-- Node8 -->
<g id="Node000008" class="node">
<title>Node8</title>
<g id="a_Node000008"><a xlink:href="850__regression__cases_8c.html" target="_top" xlink:title="A suite of regression tests for bugs discovered by fuzzing.">
<polygon fill="white" stroke="#666666" points="776,-24.5 637,-24.5 637,-5.5 776,-5.5 776,-24.5"/>
<text text-anchor="middle" x="706.5" y="-12.5" font-family="Helvetica,sans-Serif" font-size="10.00">t/850_regression_cases.c</text>
</a>
</g>
</g>
<!-- Node2&#45;&gt;Node8 -->
<g id="edge7_Node000002_Node000008" class="edge">
<title>Node2&#45;&gt;Node8</title>
<g id="a_edge7_Node000002_Node000008"><a xlink:title=" ">
<path fill="none" stroke="#63b8ff" d="M482.48,-69.1C535.66,-56.49 622.09,-36.01 670.58,-24.51"/>
<polygon fill="#63b8ff" stroke="#63b8ff" points="481.56,-65.72 472.63,-71.44 483.17,-72.53 481.56,-65.72"/>
</a>
</g>
</g>
<!-- Node10&#45;&gt;Node9 -->
<g id="edge10_Node000010_Node000009" class="edge">
<title>Node10&#45;&gt;Node9</title>
<g id="a_edge10_Node000010_Node000009"><a xlink:title=" ">
<path fill="none" stroke="#63b8ff" d="M946.08,-61.51C925.22,-51.47 899.83,-39.26 880.62,-30.01"/>
<polygon fill="#63b8ff" stroke="#63b8ff" points="944.78,-64.77 955.31,-65.95 947.82,-58.46 944.78,-64.77"/>
</a>
</g>
</g>
<!-- Node11 -->
<g id="Node000011" class="node">
<title>Node11</title>
<g id="a_Node000011"><a xlink:href="abi__arm64__emitters_8c.html" target="_top" xlink:title="Implements internal helper functions for emitting AArch64 machine code.">
<polygon fill="white" stroke="#666666" points="1042,-30 927,-30 927,0 1042,0 1042,-30"/>
<text text-anchor="start" x="935" y="-18" font-family="Helvetica,sans-Serif" font-size="10.00">src/arch/aarch64/abi</text>
<text text-anchor="middle" x="984.5" y="-7" font-family="Helvetica,sans-Serif" font-size="10.00">_arm64_emitters.c</text>
</a>
</g>
</g>
<!-- Node10&#45;&gt;Node11 -->
<g id="edge11_Node000010_Node000011" class="edge">
<title>Node10&#45;&gt;Node11</title>
<g id="a_edge11_Node000010_Node000011"><a xlink:title=" ">
<path fill="none" stroke="#63b8ff" d="M984.5,-55.54C984.5,-46.96 984.5,-37.61 984.5,-30.16"/>
<polygon fill="#63b8ff" stroke="#63b8ff" points="981,-55.8 984.5,-65.8 988,-55.8 981,-55.8"/>
</a>
</g>
</g>
<!-- Node14&#45;&gt;Node12 -->
<g id="edge15_Node000014_Node000012" class="edge">
<title>Node14&#45;&gt;Node12</title>
<g id="a_edge15_Node000014_Node000012"><a xlink:title=" ">
<path fill="none" stroke="#63b8ff" d="M1161.88,-58.37C1153.01,-49.06 1142.89,-38.44 1135,-30.16"/>
<polygon fill="#63b8ff" stroke="#63b8ff" points="1159.53,-60.97 1168.96,-65.8 1164.6,-56.14 1159.53,-60.97"/>
</a>
</g>
</g>
<!-- Node14&#45;&gt;Node13 -->
<g id="edge16_Node000014_Node000013" class="edge">
<title>Node14&#45;&gt;Node13</title>
<g id="a_edge16_Node000014_Node000013"><a xlink:title=" ">
<path fill="none" stroke="#63b8ff" d="M1238.85,-62.99C1272.96,-52.69 1315.94,-39.72 1348.08,-30.01"/>
<polygon fill="#63b8ff" stroke="#63b8ff" points="1237.59,-59.71 1229.02,-65.95 1239.61,-66.42 1237.59,-59.71"/>
</a>
</g>
</g>
<!-- Node15 -->
<g id="Node000015" class="node">
<title>Node15</title>
<g id="a_Node000015"><a xlink:href="abi__x64__emitters_8c.html" target="_top" xlink:title="Implements internal helper functions for emitting x86&#45;64 machine code.">
<polygon fill="white" stroke="#666666" points="1318,-30 1201,-30 1201,0 1318,0 1318,-30"/>
<text text-anchor="start" x="1209" y="-18" font-family="Helvetica,sans-Serif" font-size="10.00">src/arch/x64/abi_x64</text>
<text text-anchor="middle" x="1259.5" y="-7" font-family="Helvetica,sans-Serif" font-size="10.00">_emitters.c</text>
</a>
</g>
</g>
<!-- Node14&#45;&gt;Node15 -->
<g id="edge17_Node000014_Node000015" class="edge">
<title>Node14&#45;&gt;Node15</title>
<g id="a_edge17_Node000014_Node000015"><a xlink:title=" ">
<path fill="none" stroke="#63b8ff" d="M1207.52,-59.2C1218.95,-49.7 1232.2,-38.69 1242.46,-30.16"/>
<polygon fill="#63b8ff" stroke="#63b8ff" points="1205.04,-56.71 1199.59,-65.8 1209.52,-62.1 1205.04,-56.71"/>
</a>
</g>
</g>
<!-- Node17 -->
<g id="Node000017" class="node">
<title>Node17</title>
<g id="a_Node000017"><a xlink:href="infix_8c.html" target="_top" xlink:title="The unity build source file for the infix library.">
<polygon fill="white" stroke="#666666" points="1824,-24.5 1761,-24.5 1761,-5.5 1824,-5.5 1824,-24.5"/>
<text text-anchor="middle" x="1792.5" y="-12.5" font-family="Helvetica,sans-Serif" font-size="10.00">src/infix.c</text>
</a>
</g>
</g>
<!-- Node16&#45;&gt;Node17 -->
<g id="edge19_Node000016_Node000017" class="edge">
<title>Node16&#45;&gt;Node17</title>
<g id="a_edge19_Node000016_Node000017"><a xlink:title=" ">
<path fill="none" stroke="#63b8ff" d="M2044.36,-69.04C2040.02,-67.99 2035.68,-66.96 2031.5,-66 1957.54,-49.03 1870.16,-31.34 1824.29,-22.24"/>
<polygon fill="#63b8ff" stroke="#63b8ff" points="2043.84,-72.51 2054.39,-71.5 2045.51,-65.71 2043.84,-72.51"/>
</a>
</g>
</g>
<!-- Node18&#45;&gt;Node17 -->
<g id="edge21_Node000018_Node000017" class="edge">
<title>Node18&#45;&gt;Node17</title>
<g id="a_edge21_Node000018_Node000017"><a xlink:title=" ">
<path fill="none" stroke="#63b8ff" d="M2157.17,-69.02C2152.57,-67.92 2147.95,-66.89 2143.5,-66 2026.71,-42.62 1885.94,-26.02 1824.17,-19.3"/>
<polygon fill="#63b8ff" stroke="#63b8ff" points="2156.53,-72.47 2167.08,-71.48 2158.22,-65.67 2156.53,-72.47"/>
</a>
</g>
</g>
<!-- Node19&#45;&gt;Node17 -->
<g id="edge23_Node000019_Node000017" class="edge">
<title>Node19&#45;&gt;Node17</title>
<g id="a_edge23_Node000019_Node000017"><a xlink:title=" ">
<path fill="none" stroke="#63b8ff" d="M1387.69,-69.07C1392.66,-67.95 1397.68,-66.9 1402.5,-66 1534.7,-41.37 1694.39,-25.04 1760.97,-18.82"/>
<polygon fill="#63b8ff" stroke="#63b8ff" points="1386.55,-65.74 1377.62,-71.44 1388.15,-72.56 1386.55,-65.74"/>
</a>
</g>
</g>
<!-- Node20&#45;&gt;Node17 -->
<g id="edge25_Node000020_Node000017" class="edge">
<title>Node20&#45;&gt;Node17</title>
<g id="a_edge25_Node000020_Node000017"><a xlink:title=" ">
<path fill="none" stroke="#63b8ff" d="M1516.15,-69.4C1521.66,-68.23 1527.2,-67.08 1532.5,-66 1614.7,-49.25 1711.83,-30.97 1760.84,-21.85"/>
<polygon fill="#63b8ff" stroke="#63b8ff" points="1515.36,-65.99 1506.31,-71.49 1516.82,-72.83 1515.36,-65.99"/>
</a>
</g>
</g>
<!-- Node21&#45;&gt;Node17 -->
<g id="edge27_Node000021_Node000017" class="edge">
<title>Node21&#45;&gt;Node17</title>
<g id="a_edge27_Node000021_Node000017"><a xlink:title=" ">
<path fill="none" stroke="#63b8ff" d="M1641.37,-68C1678.1,-55.36 1735.03,-35.78 1767.52,-24.6"/>
<polygon fill="#63b8ff" stroke="#63b8ff" points="1639.9,-64.81 1631.58,-71.37 1642.18,-71.42 1639.9,-64.81"/>
</a>
</g>
</g>
<!-- Node22&#45;&gt;Node17 -->
<g id="edge29_Node000022_Node000017" class="edge">
<title>Node22&#45;&gt;Node17</title>
<g id="a_edge29_Node000022_Node000017"><a xlink:title=" ">
<path fill="none" stroke="#63b8ff" d="M1750.09,-63.62C1761.06,-51.31 1775.67,-34.89 1784.57,-24.91"/>
<polygon fill="#63b8ff" stroke="#63b8ff" points="1747.22,-61.57 1743.19,-71.37 1752.45,-66.23 1747.22,-61.57"/>
</a>
</g>
</g>
<!-- Node23&#45;&gt;Node17 -->
<g id="edge31_Node000023_Node000017" class="edge">
<title>Node23&#45;&gt;Node17</title>
<g id="a_edge31_Node000023_Node000017"><a xlink:title=" ">
<path fill="none" stroke="#63b8ff" d="M1834.17,-63.62C1823.39,-51.31 1809.03,-34.89 1800.29,-24.91"/>
<polygon fill="#63b8ff" stroke="#63b8ff" points="1831.73,-66.15 1840.95,-71.37 1837,-61.54 1831.73,-66.15"/>
</a>
</g>
</g>
<!-- Node24&#45;&gt;Node17 -->
<g id="edge33_Node000024_Node000017" class="edge">
<title>Node24&#45;&gt;Node17</title>
<g id="a_edge33_Node000024_Node000017"><a xlink:title=" ">
<path fill="none" stroke="#63b8ff" d="M1935.06,-67.84C1900.29,-55.2 1846.75,-35.73 1816.14,-24.6"/>
<polygon fill="#63b8ff" stroke="#63b8ff" points="1934.17,-71.24 1944.76,-71.37 1936.56,-64.66 1934.17,-71.24"/>
</a>
</g>
</g>
</g>
</svg>

<g id="navigator" transform="translate(0 0)" fill="#404254">
  <rect fill="#f2f5e9" fill-opacity="0.5" stroke="#606060" stroke-width=".5" x="0" y="0" width="60" height="60"/>
  <use id="zoomplus" xlink:href="#zoomPlus" x="17" y="9" onmousedown="handleZoom(evt,'in')"/>
  <use id="zoomminus" xlink:href="#zoomMin" x="42" y="9" onmousedown="handleZoom(evt,'out')"/>
  <use id="reset" xlink:href="#resetDef" x="30" y="36" onmousedown="handleReset()"/>
   <use id="arrowup" xlink:href="#arrowUp" x="0" y="0" onmousedown="handlePan(0,-1)"/>
  <use id="arrowright" xlink:href="#arrowRight" x="0" y="0" onmousedown="handlePan(1,0)"/>
  <use id="arrowdown" xlink:href="#arrowDown" x="0" y="0" onmousedown="handlePan(0,1)"/>
  <use id="arrowleft" xlink:href="#arrowLeft" x="0" y="0" onmousedown="handlePan(-1,0)"/>
</g>
<svg viewBox="0 0 15 15" width="100%" height="30px" preserveAspectRatio="xMaxYMin meet">
 <g id="arrow_out" transform="scale(0.3 0.3)">
  <a xlink:href="infix__internals_8h__dep__incl_org.svg" target="_base">
   <rect id="button" ry="5" rx="5" y="6" x="6" height="38" width="38"
        fill="#f2f5e9" fill-opacity="0.5" stroke="#606060" stroke-width="1.0"/>
   <path id="arrow"
     d="M 11.500037,31.436501 C 11.940474,20.09759 22.043105,11.32322 32.158766,21.979434 L 37.068811,17.246167 C 37.068811,17.246167 37.088388,32 37.088388,32 L 22.160133,31.978069 C 22.160133,31.978069 26.997745,27.140456 26.997745,27.140456 C 18.528582,18.264221 13.291696,25.230495 11.500037,31.436501 z"
     style="fill:#404040;"/>
  </a>
 </g>
</svg>

<style type='text/css'>
<![CDATA[
[data-mouse-over-selected='false'] { opacity: 0.7; }
[data-mouse-over-selected='true']  { opacity: 1.0; }
]]>
</style>
<script type="application/ecmascript"><![CDATA[
document.addEventListener('DOMContentLoaded', (event) => {
  highlightEdges();
  highlightAdjacentNodes();
});
]]></script>
</svg>
