<?xml version="1.0" encoding="UTF-8" standalone="no"?>
<!DOCTYPE svg PUBLIC "-//W3C//DTD SVG 1.1//EN"
 "http://www.w3.org/Graphics/SVG/1.1/DTD/svg11.dtd">
<!-- Generated by graphviz version 2.43.0 (0)
 -->
<!-- Title: src/common/infix_internals.h Pages: 1 -->
<!--zoomable 159 -->

<svg id="main" version="1.1" xmlns="http://www.w3.org/2000/svg" xmlns:xlink="http://www.w3.org/1999/xlink" xml:space="preserve" onload="init(evt)">
<style type="text/css"><![CDATA[
.node, .edge {opacity: 0.7;}
.node.selected, .edge.selected {opacity: 1;}
.edge:hover path { stroke: red; }
.edge:hover polygon { stroke: red; fill: red; }
]]></style>

<defs>
  <circle id="rim" cx="0" cy="0" r="7"/>
  <circle id="rim2" cx="0" cy="0" r="3.5"/>
  <g id="zoomPlus">
    <use xlink:href="#rim" fill="#404040"><set attributeName="fill" to="#808080" begin="zoomplus.mouseover" end="zoomplus.mouseout"/></use>
    <path d="M-4,0h8M0,-4v8" fill="none" stroke="white" stroke-width="1.5" pointer-events="none"/>
  </g>
  <g id="zoomMin">
    <use xlink:href="#rim" fill="#404040"><set attributeName="fill" to="#808080" begin="zoomminus.mouseover" end="zoomminus.mouseout"/></use>
    <path d="M-4,0h8" fill="none" stroke="white" stroke-width="1.5" pointer-events="none"/>
  </g>
  <g id="arrowUp" transform="translate(30 24)">
    <use xlink:href="#rim"/>
    <path pointer-events="none" fill="none" stroke="white" stroke-width="1.5" d="M0,-3.0v7 M-2.5,-0.5L0,-3.0L2.5,-0.5"/>
  </g>
  <g id="arrowRight" transform="rotate(90) translate(36 -43)">
    <use xlink:href="#rim"/>
    <path pointer-events="none" fill="none" stroke="white" stroke-width="1.5" d="M0,-3.0v7 M-2.5,-0.5L0,-3.0L2.5,-0.5"/>
  </g>
  <g id="arrowDown" transform="rotate(180) translate(-30 -48)">
    <use xlink:href="#rim"/>
    <path pointer-events="none" fill="none" stroke="white" stroke-width="1.5" d="M0,-3.0v7 M-2.5,-0.5L0,-3.0L2.5,-0.5"/>
  </g>
  <g id="arrowLeft" transform="rotate(270) translate(-36 17)">
    <use xlink:href="#rim"/>
    <path pointer-events="none" fill="none" stroke="white" stroke-width="1.5" d="M0,-3.0v7 M-2.5,-0.5L0,-3.0L2.5,-0.5"/>
  </g>
  <g id="resetDef">
    <use xlink:href="#rim2" fill="#404040"><set attributeName="fill" to="#808080" begin="reset.mouseover" end="reset.mouseout"/></use>
  </g>
</defs>
<script type="application/ecmascript">
var viewWidth = 3089;
var viewHeight = 159;
var sectionId = 'dynsection-1';
</script>
<script type="application/ecmascript" xlink:href="svg.min.js"/>
<svg id="graph" class="graph">
<g id="viewport">
<title>src/common/infix_internals.h</title>
<!-- Node1 -->
<g id="Node000001" class="node">
<title>Node1</title>
<g id="a_Node000001"><a xlink:title="Internal data structures, function prototypes, and constants.">
<polygon fill="#999999" stroke="#666666" points="1932.5,-151 1774.5,-151 1774.5,-132 1932.5,-132 1932.5,-151"/>
<text text-anchor="middle" x="1853.5" y="-139" font-family="Helvetica,sans-Serif" font-size="10.00">src/common/infix_internals.h</text>
</a>
</g>
</g>
<!-- Node2 -->
<g id="Node000002" class="node">
<title>Node2</title>
<g id="a_Node000002"><a xlink:href="fuzz__helpers_8h.html" target="_top" xlink:title="Common definitions, structures, and helpers for all fuzzer targets.">
<polygon fill="white" stroke="#666666" points="560.5,-90.5 450.5,-90.5 450.5,-71.5 560.5,-71.5 560.5,-90.5"/>
<text text-anchor="middle" x="505.5" y="-78.5" font-family="Helvetica,sans-Serif" font-size="10.00">fuzz/fuzz_helpers.h</text>
</a>
</g>
</g>
<!-- Node1&#45;&gt;Node2 -->
<g id="edge1_Node000001_Node000002" class="edge">
<title>Node1&#45;&gt;Node2</title>
<g id="a_edge1_Node000001_Node000002"><a xlink:title=" ">
<path fill="none" stroke="#63b8ff" d="M1764.15,-136.62C1506.79,-125.45 768.92,-93.43 560.77,-84.4"/>
<polygon fill="#63b8ff" stroke="#63b8ff" points="1764.07,-140.12 1774.21,-137.06 1764.37,-133.13 1764.07,-140.12"/>
</a>
</g>
</g>
<!-- Node10 -->
<g id="Node000010" class="node">
<title>Node10</title>
<g id="a_Node000010"><a xlink:href="abi__arm64_8c.html" target="_top" xlink:title="Implements the FFI logic for the AArch64 (ARM64) architecture.">
<polygon fill="white" stroke="#666666" points="1028,-30 913,-30 913,0 1028,0 1028,-30"/>
<text text-anchor="start" x="921" y="-18" font-family="Helvetica,sans-Serif" font-size="10.00">src/arch/aarch64/abi</text>
<text text-anchor="middle" x="970.5" y="-7" font-family="Helvetica,sans-Serif" font-size="10.00">_arm64.c</text>
</a>
</g>
</g>
<!-- Node1&#45;&gt;Node10 -->
<g id="edge9_Node000001_Node000010" class="edge">
<title>Node1&#45;&gt;Node10</title>
<g id="a_edge9_Node000001_Node000010"><a xlink:title=" ">
<path fill="none" stroke="#63b8ff" d="M1764.32,-139.66C1565.84,-137.23 1100.1,-128.12 1036.5,-96 1008.05,-81.63 987.39,-48.89 977.35,-30.05"/>
<polygon fill="#63b8ff" stroke="#63b8ff" points="1764.38,-143.16 1774.42,-139.78 1764.47,-136.17 1764.38,-143.16"/>
</a>
</g>
</g>
<!-- Node11 -->
<g id="Node000011" class="node">
<title>Node11</title>
<g id="a_Node000011"><a xlink:href="abi__arm64__emitters_8h.html" target="_top" xlink:title="Declares internal helper functions for emitting AArch64 machine code.">
<polygon fill="white" stroke="#666666" points="1161,-96 1046,-96 1046,-66 1161,-66 1161,-96"/>
<text text-anchor="start" x="1054" y="-84" font-family="Helvetica,sans-Serif" font-size="10.00">src/arch/aarch64/abi</text>
<text text-anchor="middle" x="1103.5" y="-73" font-family="Helvetica,sans-Serif" font-size="10.00">_arm64_emitters.h</text>
</a>
</g>
</g>
<!-- Node1&#45;&gt;Node11 -->
<g id="edge10_Node000001_Node000011" class="edge">
<title>Node1&#45;&gt;Node11</title>
<g id="a_edge10_Node000001_Node000011"><a xlink:title=" ">
<path fill="none" stroke="#63b8ff" d="M1764.07,-136.54C1638.11,-130.48 1401.36,-117.31 1200.5,-96 1187.73,-94.64 1174.05,-92.87 1161.11,-91.04"/>
<polygon fill="#63b8ff" stroke="#63b8ff" points="1764.27,-140.05 1774.43,-137.04 1764.61,-133.06 1764.27,-140.05"/>
</a>
</g>
</g>
<!-- Node13 -->
<g id="Node000013" class="node">
<title>Node13</title>
<g id="a_Node000013"><a xlink:href="abi__sysv__x64_8c.html" target="_top" xlink:title="Implements the FFI logic for the System V AMD64 ABI.">
<polygon fill="white" stroke="#666666" points="1301.5,-30 1179.5,-30 1179.5,0 1301.5,0 1301.5,-30"/>
<text text-anchor="start" x="1187.5" y="-18" font-family="Helvetica,sans-Serif" font-size="10.00">src/arch/x64/abi_sysv</text>
<text text-anchor="middle" x="1240.5" y="-7" font-family="Helvetica,sans-Serif" font-size="10.00">_x64.c</text>
</a>
</g>
</g>
<!-- Node1&#45;&gt;Node13 -->
<g id="edge13_Node000001_Node000013" class="edge">
<title>Node1&#45;&gt;Node13</title>
<g id="a_edge13_Node000001_Node000013"><a xlink:title=" ">
<path fill="none" stroke="#63b8ff" d="M1764.44,-140.66C1601.52,-140.02 1268.88,-134.01 1233.5,-96 1217.07,-78.34 1226.04,-48.02 1233.59,-30.21"/>
<polygon fill="#63b8ff" stroke="#63b8ff" points="1764.43,-144.16 1774.45,-140.69 1764.46,-137.16 1764.43,-144.16"/>
</a>
</g>
</g>
<!-- Node14 -->
<g id="Node000014" class="node">
<title>Node14</title>
<g id="a_Node000014"><a xlink:href="abi__win__x64_8c.html" target="_top" xlink:title="Implements the FFI logic for the Windows x64 calling convention.">
<polygon fill="white" stroke="#666666" points="1571.5,-30 1455.5,-30 1455.5,0 1571.5,0 1571.5,-30"/>
<text text-anchor="start" x="1463.5" y="-18" font-family="Helvetica,sans-Serif" font-size="10.00">src/arch/x64/abi_win</text>
<text text-anchor="middle" x="1513.5" y="-7" font-family="Helvetica,sans-Serif" font-size="10.00">_x64.c</text>
</a>
</g>
</g>
<!-- Node1&#45;&gt;Node14 -->
<g id="edge14_Node000001_Node000014" class="edge">
<title>Node1&#45;&gt;Node14</title>
<g id="a_edge14_Node000001_Node000014"><a xlink:title=" ">
<path fill="none" stroke="#63b8ff" d="M1764.01,-137.89C1640.67,-133.34 1430.93,-121.88 1407.5,-96 1382.9,-68.82 1429.75,-44.54 1468.78,-30.05"/>
<polygon fill="#63b8ff" stroke="#63b8ff" points="1764.08,-141.39 1774.2,-138.25 1764.33,-134.39 1764.08,-141.39"/>
</a>
</g>
</g>
<!-- Node15 -->
<g id="Node000015" class="node">
<title>Node15</title>
<g id="a_Node000015"><a xlink:href="abi__x64__emitters_8h.html" target="_top" xlink:title="Declares internal helper functions for emitting x86&#45;64 machine code.">
<polygon fill="white" stroke="#666666" points="1360,-96 1243,-96 1243,-66 1360,-66 1360,-96"/>
<text text-anchor="start" x="1251" y="-84" font-family="Helvetica,sans-Serif" font-size="10.00">src/arch/x64/abi_x64</text>
<text text-anchor="middle" x="1301.5" y="-73" font-family="Helvetica,sans-Serif" font-size="10.00">_emitters.h</text>
</a>
</g>
</g>
<!-- Node1&#45;&gt;Node15 -->
<g id="edge15_Node000001_Node000015" class="edge">
<title>Node1&#45;&gt;Node15</title>
<g id="a_edge15_Node000001_Node000015"><a xlink:title=" ">
<path fill="none" stroke="#63b8ff" d="M1764.4,-134.81C1667.98,-128.06 1509.87,-115.22 1374.5,-96 1369.9,-95.35 1365.15,-94.6 1360.38,-93.8"/>
<polygon fill="#63b8ff" stroke="#63b8ff" points="1764.18,-138.31 1774.4,-135.51 1764.67,-131.32 1764.18,-138.31"/>
</a>
</g>
</g>
<!-- Node17 -->
<g id="Node000017" class="node">
<title>Node17</title>
<g id="a_Node000017"><a xlink:href="arena_8c.html" target="_top" xlink:title="Implements a simple, fast arena (or region&#45;based) allocator.">
<polygon fill="white" stroke="#666666" points="2139.5,-90.5 2045.5,-90.5 2045.5,-71.5 2139.5,-71.5 2139.5,-90.5"/>
<text text-anchor="middle" x="2092.5" y="-78.5" font-family="Helvetica,sans-Serif" font-size="10.00">src/core/arena.c</text>
</a>
</g>
</g>
<!-- Node1&#45;&gt;Node17 -->
<g id="edge19_Node000001_Node000017" class="edge">
<title>Node1&#45;&gt;Node17</title>
<g id="a_edge19_Node000001_Node000017"><a xlink:title=" ">
<path fill="none" stroke="#63b8ff" d="M1898.93,-129.54C1935.97,-120.58 1989.64,-107.56 2036.5,-96 2043.6,-94.25 2051.21,-92.36 2058.45,-90.55"/>
<polygon fill="#63b8ff" stroke="#63b8ff" points="1897.84,-126.2 1888.94,-131.95 1899.48,-133.01 1897.84,-126.2"/>
</a>
</g>
</g>
<!-- Node19 -->
<g id="Node000019" class="node">
<title>Node19</title>
<g id="a_Node000019"><a xlink:href="error_8c.html" target="_top" xlink:title="Implements the thread&#45;local error reporting system.">
<polygon fill="white" stroke="#666666" points="2247,-90.5 2158,-90.5 2158,-71.5 2247,-71.5 2247,-90.5"/>
<text text-anchor="middle" x="2202.5" y="-78.5" font-family="Helvetica,sans-Serif" font-size="10.00">src/core/error.c</text>
</a>
</g>
</g>
<!-- Node1&#45;&gt;Node19 -->
<g id="edge21_Node000001_Node000019" class="edge">
<title>Node1&#45;&gt;Node19</title>
<g id="a_edge21_Node000001_Node000019"><a xlink:title=" ">
<path fill="none" stroke="#63b8ff" d="M1933.99,-130.66C1993.52,-122.82 2076.43,-110.74 2148.5,-96 2156.09,-94.45 2164.21,-92.5 2171.79,-90.55"/>
<polygon fill="#63b8ff" stroke="#63b8ff" points="1933.36,-127.21 1923.9,-131.97 1934.27,-134.15 1933.36,-127.21"/>
</a>
</g>
</g>
<!-- Node20 -->
<g id="Node000020" class="node">
<title>Node20</title>
<g id="a_Node000020"><a xlink:href="loader_8c.html" target="_top" xlink:title="Implements cross&#45;platform dynamic library loading.">
<polygon fill="white" stroke="#666666" points="2361.5,-90.5 2265.5,-90.5 2265.5,-71.5 2361.5,-71.5 2361.5,-90.5"/>
<text text-anchor="middle" x="2313.5" y="-78.5" font-family="Helvetica,sans-Serif" font-size="10.00">src/core/loader.c</text>
</a>
</g>
</g>
<!-- Node1&#45;&gt;Node20 -->
<g id="edge23_Node000001_Node000020" class="edge">
<title>Node1&#45;&gt;Node20</title>
<g id="a_edge23_Node000001_Node000020"><a xlink:title=" ">
<path fill="none" stroke="#63b8ff" d="M1942.73,-134.02C2024.71,-127.27 2149.38,-114.99 2256.5,-96 2264.83,-94.52 2273.75,-92.53 2282,-90.52"/>
<polygon fill="#63b8ff" stroke="#63b8ff" points="1942.38,-130.54 1932.7,-134.83 1942.95,-137.51 1942.38,-130.54"/>
</a>
</g>
</g>
<!-- Node21 -->
<g id="Node000021" class="node">
<title>Node21</title>
<g id="a_Node000021"><a xlink:href="signature_8c.html" target="_top" xlink:title="Implements the infix signature string parser and type printer.">
<polygon fill="white" stroke="#666666" points="1528.5,-90.5 1416.5,-90.5 1416.5,-71.5 1528.5,-71.5 1528.5,-90.5"/>
<text text-anchor="middle" x="1472.5" y="-78.5" font-family="Helvetica,sans-Serif" font-size="10.00">src/core/signature.c</text>
</a>
</g>
</g>
<!-- Node1&#45;&gt;Node21 -->
<g id="edge25_Node000001_Node000021" class="edge">
<title>Node1&#45;&gt;Node21</title>
<g id="a_edge25_Node000001_Node000021"><a xlink:title=" ">
<path fill="none" stroke="#63b8ff" d="M1772.33,-130.71C1708.35,-122.6 1616.98,-110.14 1537.5,-96 1528.52,-94.4 1518.89,-92.46 1509.87,-90.53"/>
<polygon fill="#63b8ff" stroke="#63b8ff" points="1772,-134.19 1782.36,-131.97 1772.87,-127.25 1772,-134.19"/>
</a>
</g>
</g>
<!-- Node22 -->
<g id="Node000022" class="node">
<title>Node22</title>
<g id="a_Node000022"><a xlink:href="type__registry_8c.html" target="_top" xlink:title="Implements the named type registry system.">
<polygon fill="white" stroke="#666666" points="1676,-90.5 1547,-90.5 1547,-71.5 1676,-71.5 1676,-90.5"/>
<text text-anchor="middle" x="1611.5" y="-78.5" font-family="Helvetica,sans-Serif" font-size="10.00">src/core/type_registry.c</text>
</a>
</g>
</g>
<!-- Node1&#45;&gt;Node22 -->
<g id="edge27_Node000001_Node000022" class="edge">
<title>Node1&#45;&gt;Node22</title>
<g id="a_edge27_Node000001_Node000022"><a xlink:title=" ">
<path fill="none" stroke="#63b8ff" d="M1808.45,-129.61C1761.68,-118.3 1689.5,-100.85 1646.73,-90.52"/>
<polygon fill="#63b8ff" stroke="#63b8ff" points="1807.77,-133.05 1818.31,-131.99 1809.41,-126.24 1807.77,-133.05"/>
</a>
</g>
</g>
<!-- Node23 -->
<g id="Node000023" class="node">
<title>Node23</title>
<g id="a_Node000023"><a xlink:href="types_8c.html" target="_top" xlink:title="Implements the public API for creating and managing type descriptions.">
<polygon fill="white" stroke="#666666" points="1787,-90.5 1694,-90.5 1694,-71.5 1787,-71.5 1787,-90.5"/>
<text text-anchor="middle" x="1740.5" y="-78.5" font-family="Helvetica,sans-Serif" font-size="10.00">src/core/types.c</text>
</a>
</g>
</g>
<!-- Node1&#45;&gt;Node23 -->
<g id="edge29_Node000001_Node000023" class="edge">
<title>Node1&#45;&gt;Node23</title>
<g id="a_edge29_Node000001_Node000023"><a xlink:title=" ">
<path fill="none" stroke="#63b8ff" d="M1827.86,-127.23C1806.22,-116.03 1775.88,-100.32 1757.24,-90.67"/>
<polygon fill="#63b8ff" stroke="#63b8ff" points="1826.34,-130.38 1836.83,-131.87 1829.56,-124.16 1826.34,-130.38"/>
</a>
</g>
</g>
<!-- Node24 -->
<g id="Node000024" class="node">
<title>Node24</title>
<g id="a_Node000024"><a xlink:href="executor_8c.html" target="_top" xlink:title="Implements platform&#45;specific memory management for JIT code and execution.">
<polygon fill="white" stroke="#666666" points="1901.5,-90.5 1805.5,-90.5 1805.5,-71.5 1901.5,-71.5 1901.5,-90.5"/>
<text text-anchor="middle" x="1853.5" y="-78.5" font-family="Helvetica,sans-Serif" font-size="10.00">src/jit/executor.c</text>
</a>
</g>
</g>
<!-- Node1&#45;&gt;Node24 -->
<g id="edge31_Node000001_Node000024" class="edge">
<title>Node1&#45;&gt;Node24</title>
<g id="a_edge31_Node000001_Node000024"><a xlink:title=" ">
<path fill="none" stroke="#63b8ff" d="M1853.5,-121.66C1853.5,-111.24 1853.5,-98.8 1853.5,-90.67"/>
<polygon fill="#63b8ff" stroke="#63b8ff" points="1850,-121.87 1853.5,-131.87 1857,-121.87 1850,-121.87"/>
</a>
</g>
</g>
<!-- Node25 -->
<g id="Node000025" class="node">
<title>Node25</title>
<g id="a_Node000025"><a xlink:href="trampoline_8c.html" target="_top" xlink:title="The core JIT engine for generating forward and reverse trampolines.">
<polygon fill="white" stroke="#666666" points="2027.5,-90.5 1919.5,-90.5 1919.5,-71.5 2027.5,-71.5 2027.5,-90.5"/>
<text text-anchor="middle" x="1973.5" y="-78.5" font-family="Helvetica,sans-Serif" font-size="10.00">src/jit/trampoline.c</text>
</a>
</g>
</g>
<!-- Node1&#45;&gt;Node25 -->
<g id="edge33_Node000001_Node000025" class="edge">
<title>Node1&#45;&gt;Node25</title>
<g id="a_edge33_Node000001_Node000025"><a xlink:title=" ">
<path fill="none" stroke="#63b8ff" d="M1880.2,-127.48C1903.33,-116.21 1936.11,-100.23 1956.03,-90.52"/>
<polygon fill="#63b8ff" stroke="#63b8ff" points="1878.4,-124.47 1870.95,-131.99 1881.47,-130.76 1878.4,-124.47"/>
</a>
</g>
</g>
<!-- Node26 -->
<g id="Node000026" class="node">
<title>Node26</title>
<g id="a_Node000026"><a xlink:href="008__registry__introspection_8c.html" target="_top" xlink:title="Unit test for the registry introspection and serialization APIs.">
<polygon fill="white" stroke="#666666" points="2541,-90.5 2380,-90.5 2380,-71.5 2541,-71.5 2541,-90.5"/>
<text text-anchor="middle" x="2460.5" y="-78.5" font-family="Helvetica,sans-Serif" font-size="10.00">t/008_registry_introspection.c</text>
</a>
</g>
</g>
<!-- Node1&#45;&gt;Node26 -->
<g id="edge35_Node000001_Node000026" class="edge">
<title>Node1&#45;&gt;Node26</title>
<g id="a_edge35_Node000001_Node000026"><a xlink:title=" ">
<path fill="none" stroke="#63b8ff" d="M1942.57,-134.69C2045.75,-127.54 2220.76,-114.07 2370.5,-96 2383.22,-94.47 2396.9,-92.5 2409.66,-90.53"/>
<polygon fill="#63b8ff" stroke="#63b8ff" points="1942.24,-131.21 1932.5,-135.39 1942.72,-138.19 1942.24,-131.21"/>
</a>
</g>
</g>
<!-- Node27 -->
<g id="Node000027" class="node">
<title>Node27</title>
<g id="a_Node000027"><a xlink:href="101__by__value_8c.html" target="_top" xlink:title="Unit test for passing and returning aggregates and vectors by value.">
<polygon fill="white" stroke="#666666" points="2658,-90.5 2559,-90.5 2559,-71.5 2658,-71.5 2658,-90.5"/>
<text text-anchor="middle" x="2608.5" y="-78.5" font-family="Helvetica,sans-Serif" font-size="10.00">t/101_by_value.c</text>
</a>
</g>
</g>
<!-- Node1&#45;&gt;Node27 -->
<g id="edge36_Node000001_Node000027" class="edge">
<title>Node1&#45;&gt;Node27</title>
<g id="a_edge36_Node000001_Node000027"><a xlink:title=" ">
<path fill="none" stroke="#63b8ff" d="M1942.78,-139.73C2075.88,-137.47 2333.9,-128.8 2550.5,-96 2559.31,-94.67 2568.74,-92.65 2577.39,-90.56"/>
<polygon fill="#63b8ff" stroke="#63b8ff" points="1942.57,-136.23 1932.63,-139.89 1942.69,-143.23 1942.57,-136.23"/>
</a>
</g>
</g>
<!-- Node28 -->
<g id="Node000028" class="node">
<title>Node28</title>
<g id="a_Node000028"><a xlink:href="501__direct__marshalling_8c.html" target="_top" xlink:title="Test suite for the high&#45;performance direct marshalling API.">
<polygon fill="white" stroke="#666666" points="2822.5,-90.5 2676.5,-90.5 2676.5,-71.5 2822.5,-71.5 2822.5,-90.5"/>
<text text-anchor="middle" x="2749.5" y="-78.5" font-family="Helvetica,sans-Serif" font-size="10.00">t/501_direct_marshalling.c</text>
</a>
</g>
</g>
<!-- Node1&#45;&gt;Node28 -->
<g id="edge37_Node000001_Node000028" class="edge">
<title>Node1&#45;&gt;Node28</title>
<g id="a_edge37_Node000001_Node000028"><a xlink:title=" ">
<path fill="none" stroke="#63b8ff" d="M1942.7,-138.96C2092.76,-135.63 2405.07,-125.48 2667.5,-96 2679.7,-94.63 2692.84,-92.63 2704.95,-90.56"/>
<polygon fill="#63b8ff" stroke="#63b8ff" points="1942.54,-135.46 1932.61,-139.18 1942.69,-142.46 1942.54,-135.46"/>
</a>
</g>
</g>
<!-- Node29 -->
<g id="Node000029" class="node">
<title>Node29</title>
<g id="a_Node000029"><a xlink:href="830__security_8c.html" target="_top" xlink:title="Unit test for security&#45;hardening features of the infix library.">
<polygon fill="white" stroke="#666666" points="2932.5,-90.5 2840.5,-90.5 2840.5,-71.5 2932.5,-71.5 2932.5,-90.5"/>
<text text-anchor="middle" x="2886.5" y="-78.5" font-family="Helvetica,sans-Serif" font-size="10.00">t/830_security.c</text>
</a>
</g>
</g>
<!-- Node1&#45;&gt;Node29 -->
<g id="edge38_Node000001_Node000029" class="edge">
<title>Node1&#45;&gt;Node29</title>
<g id="a_edge38_Node000001_Node000029"><a xlink:title=" ">
<path fill="none" stroke="#63b8ff" d="M1943.13,-138.76C2151.12,-134.34 2661.72,-121.2 2831.5,-96 2840.08,-94.73 2849.26,-92.67 2857.61,-90.53"/>
<polygon fill="#63b8ff" stroke="#63b8ff" points="1942.78,-135.26 1932.86,-138.97 1942.93,-142.26 1942.78,-135.26"/>
</a>
</g>
</g>
<!-- Node30 -->
<g id="Node000030" class="node">
<title>Node30</title>
<g id="a_Node000030"><a xlink:href="840__arena__allocator_8c.html" target="_top" xlink:title="Unit test for the internal arena allocator.">
<polygon fill="white" stroke="#666666" points="3080.5,-90.5 2950.5,-90.5 2950.5,-71.5 3080.5,-71.5 3080.5,-90.5"/>
<text text-anchor="middle" x="3015.5" y="-78.5" font-family="Helvetica,sans-Serif" font-size="10.00">t/840_arena_allocator.c</text>
</a>
</g>
</g>
<!-- Node1&#45;&gt;Node30 -->
<g id="edge39_Node000001_Node000030" class="edge">
<title>Node1&#45;&gt;Node30</title>
<g id="a_edge39_Node000001_Node000030"><a xlink:title=" ">
<path fill="none" stroke="#63b8ff" d="M1942.66,-141.25C2128.87,-141.85 2572.41,-138.23 2941.5,-96 2952.8,-94.71 2964.97,-92.68 2976.11,-90.56"/>
<polygon fill="#63b8ff" stroke="#63b8ff" points="1942.66,-137.75 1932.65,-141.21 1942.63,-144.75 1942.66,-137.75"/>
</a>
</g>
</g>
<!-- Node3 -->
<g id="Node000003" class="node">
<title>Node3</title>
<g id="a_Node000003"><a xlink:href="fuzz__abi_8c.html" target="_top" xlink:title="Fuzzer target for the ABI classification layer.">
<polygon fill="white" stroke="#666666" points="246,-24.5 157,-24.5 157,-5.5 246,-5.5 246,-24.5"/>
<text text-anchor="middle" x="201.5" y="-12.5" font-family="Helvetica,sans-Serif" font-size="10.00">fuzz/fuzz_abi.c</text>
</a>
</g>
</g>
<!-- Node2&#45;&gt;Node3 -->
<g id="edge2_Node000002_Node000003" class="edge">
<title>Node2&#45;&gt;Node3</title>
<g id="a_edge2_Node000002_Node000003"><a xlink:title=" ">
<path fill="none" stroke="#63b8ff" d="M448.28,-69.64C397.26,-60.16 320.65,-45.31 254.5,-30 247.36,-28.35 239.72,-26.42 232.53,-24.54"/>
<polygon fill="#63b8ff" stroke="#63b8ff" points="447.66,-73.09 458.13,-71.46 448.93,-66.2 447.66,-73.09"/>
</a>
</g>
</g>
<!-- Node4 -->
<g id="Node000004" class="node">
<title>Node4</title>
<g id="a_Node000004"><a xlink:href="fuzz__direct_8c.html" target="_top" xlink:title="Fuzzer target for the Direct Marshalling API generation logic.">
<polygon fill="white" stroke="#666666" points="365,-24.5 264,-24.5 264,-5.5 365,-5.5 365,-24.5"/>
<text text-anchor="middle" x="314.5" y="-12.5" font-family="Helvetica,sans-Serif" font-size="10.00">fuzz/fuzz_direct.c</text>
</a>
</g>
</g>
<!-- Node2&#45;&gt;Node4 -->
<g id="edge3_Node000002_Node000004" class="edge">
<title>Node2&#45;&gt;Node4</title>
<g id="a_edge3_Node000002_Node000004"><a xlink:title=" ">
<path fill="none" stroke="#63b8ff" d="M470.17,-68.16C432.47,-55.53 373.66,-35.82 340.16,-24.6"/>
<polygon fill="#63b8ff" stroke="#63b8ff" points="469.15,-71.51 479.74,-71.37 471.37,-64.87 469.15,-71.51"/>
</a>
</g>
</g>
<!-- Node5 -->
<g id="Node000005" class="node">
<title>Node5</title>
<g id="a_Node000005"><a xlink:href="fuzz__helpers_8c.html" target="_top" xlink:title="Implements the core logic for generating random infix_type graphs from fuzzer input.">
<polygon fill="white" stroke="#666666" points="493.5,-24.5 383.5,-24.5 383.5,-5.5 493.5,-5.5 493.5,-24.5"/>
<text text-anchor="middle" x="438.5" y="-12.5" font-family="Helvetica,sans-Serif" font-size="10.00">fuzz/fuzz_helpers.c</text>
</a>
</g>
</g>
<!-- Node2&#45;&gt;Node5 -->
<g id="edge4_Node000002_Node000005" class="edge">
<title>Node2&#45;&gt;Node5</title>
<g id="a_edge4_Node000002_Node000005"><a xlink:title=" ">
<path fill="none" stroke="#63b8ff" d="M489.1,-64.33C476.12,-51.94 458.48,-35.09 447.82,-24.91"/>
<polygon fill="#63b8ff" stroke="#63b8ff" points="486.82,-66.99 496.46,-71.37 491.65,-61.93 486.82,-66.99"/>
</a>
</g>
</g>
<!-- Node6 -->
<g id="Node000006" class="node">
<title>Node6</title>
<g id="a_Node000006"><a xlink:href="fuzz__signature_8c.html" target="_top" xlink:title="Fuzzer target for the high&#45;level signature parsing API.">
<polygon fill="white" stroke="#666666" points="631,-24.5 512,-24.5 512,-5.5 631,-5.5 631,-24.5"/>
<text text-anchor="middle" x="571.5" y="-12.5" font-family="Helvetica,sans-Serif" font-size="10.00">fuzz/fuzz_signature.c</text>
</a>
</g>
</g>
<!-- Node2&#45;&gt;Node6 -->
<g id="edge5_Node000002_Node000006" class="edge">
<title>Node2&#45;&gt;Node6</title>
<g id="a_edge5_Node000002_Node000006"><a xlink:title=" ">
<path fill="none" stroke="#63b8ff" d="M521.66,-64.33C534.44,-51.94 551.82,-35.09 562.32,-24.91"/>
<polygon fill="#63b8ff" stroke="#63b8ff" points="519.14,-61.89 514.4,-71.37 524.02,-66.92 519.14,-61.89"/>
</a>
</g>
</g>
<!-- Node7 -->
<g id="Node000007" class="node">
<title>Node7</title>
<g id="a_Node000007"><a xlink:href="fuzz__trampoline_8c.html" target="_top" xlink:title="Fuzzer target for the trampoline generation functions, including shared arena logic.">
<polygon fill="white" stroke="#666666" points="776,-24.5 649,-24.5 649,-5.5 776,-5.5 776,-24.5"/>
<text text-anchor="middle" x="712.5" y="-12.5" font-family="Helvetica,sans-Serif" font-size="10.00">fuzz/fuzz_trampoline.c</text>
</a>
</g>
</g>
<!-- Node2&#45;&gt;Node7 -->
<g id="edge6_Node000002_Node000007" class="edge">
<title>Node2&#45;&gt;Node7</title>
<g id="a_edge6_Node000002_Node000007"><a xlink:title=" ">
<path fill="none" stroke="#63b8ff" d="M543.01,-68.4C583.83,-55.78 648.15,-35.89 684.7,-24.6"/>
<polygon fill="#63b8ff" stroke="#63b8ff" points="541.94,-65.07 533.42,-71.37 544,-71.76 541.94,-65.07"/>
</a>
</g>
</g>
<!-- Node8 -->
<g id="Node000008" class="node">
<title>Node8</title>
<g id="a_Node000008"><a xlink:href="fuzz__types_8c.html" target="_top" xlink:title="Fuzzer target for the random type generation logic.">
<polygon fill="white" stroke="#666666" points="895,-24.5 794,-24.5 794,-5.5 895,-5.5 895,-24.5"/>
<text text-anchor="middle" x="844.5" y="-12.5" font-family="Helvetica,sans-Serif" font-size="10.00">fuzz/fuzz_types.c</text>
</a>
</g>
</g>
<!-- Node2&#45;&gt;Node8 -->
<g id="edge7_Node000002_Node000008" class="edge">
<title>Node2&#45;&gt;Node8</title>
<g id="a_edge7_Node000002_Node000008"><a xlink:title=" ">
<path fill="none" stroke="#63b8ff" d="M567.47,-69.84C624.12,-60.33 710.16,-45.32 784.5,-30 792.57,-28.34 801.21,-26.41 809.35,-24.52"/>
<polygon fill="#63b8ff" stroke="#63b8ff" points="566.88,-66.39 557.59,-71.5 568.03,-73.3 566.88,-66.39"/>
</a>
</g>
</g>
<!-- Node9 -->
<g id="Node000009" class="node">
<title>Node9</title>
<g id="a_Node000009"><a xlink:href="850__regression__cases_8c.html" target="_top" xlink:title="A suite of regression tests for bugs discovered by fuzzing.">
<polygon fill="white" stroke="#666666" points="139,-24.5 0,-24.5 0,-5.5 139,-5.5 139,-24.5"/>
<text text-anchor="middle" x="69.5" y="-12.5" font-family="Helvetica,sans-Serif" font-size="10.00">t/850_regression_cases.c</text>
</a>
</g>
</g>
<!-- Node2&#45;&gt;Node9 -->
<g id="edge8_Node000002_Node000009" class="edge">
<title>Node2&#45;&gt;Node9</title>
<g id="a_edge8_Node000002_Node000009"><a xlink:title=" ">
<path fill="none" stroke="#63b8ff" d="M439.95,-71.62C368.07,-62.25 249.39,-46.25 147.5,-30 137.04,-28.33 125.81,-26.4 115.23,-24.51"/>
<polygon fill="#63b8ff" stroke="#63b8ff" points="439.84,-75.14 450.2,-72.95 440.74,-68.19 439.84,-75.14"/>
</a>
</g>
</g>
<!-- Node11&#45;&gt;Node10 -->
<g id="edge11_Node000011_Node000010" class="edge">
<title>Node11&#45;&gt;Node10</title>
<g id="a_edge11_Node000011_Node000010"><a xlink:title=" ">
<path fill="none" stroke="#63b8ff" d="M1065.08,-61.51C1044.22,-51.47 1018.83,-39.26 999.62,-30.01"/>
<polygon fill="#63b8ff" stroke="#63b8ff" points="1063.78,-64.77 1074.31,-65.95 1066.82,-58.46 1063.78,-64.77"/>
</a>
</g>
</g>
<!-- Node12 -->
<g id="Node000012" class="node">
<title>Node12</title>
<g id="a_Node000012"><a xlink:href="abi__arm64__emitters_8c.html" target="_top" xlink:title="Implements internal helper functions for emitting AArch64 machine code.">
<polygon fill="white" stroke="#666666" points="1161,-30 1046,-30 1046,0 1161,0 1161,-30"/>
<text text-anchor="start" x="1054" y="-18" font-family="Helvetica,sans-Serif" font-size="10.00">src/arch/aarch64/abi</text>
<text text-anchor="middle" x="1103.5" y="-7" font-family="Helvetica,sans-Serif" font-size="10.00">_arm64_emitters.c</text>
</a>
</g>
</g>
<!-- Node11&#45;&gt;Node12 -->
<g id="edge12_Node000011_Node000012" class="edge">
<title>Node11&#45;&gt;Node12</title>
<g id="a_edge12_Node000011_Node000012"><a xlink:title=" ">
<path fill="none" stroke="#63b8ff" d="M1103.5,-55.54C1103.5,-46.96 1103.5,-37.61 1103.5,-30.16"/>
<polygon fill="#63b8ff" stroke="#63b8ff" points="1100,-55.8 1103.5,-65.8 1107,-55.8 1100,-55.8"/>
</a>
</g>
</g>
<!-- Node15&#45;&gt;Node13 -->
<g id="edge16_Node000015_Node000013" class="edge">
<title>Node15&#45;&gt;Node13</title>
<g id="a_edge16_Node000015_Node000013"><a xlink:title=" ">
<path fill="none" stroke="#63b8ff" d="M1280.88,-58.37C1272.01,-49.06 1261.89,-38.44 1254,-30.16"/>
<polygon fill="#63b8ff" stroke="#63b8ff" points="1278.53,-60.97 1287.96,-65.8 1283.6,-56.14 1278.53,-60.97"/>
</a>
</g>
</g>
<!-- Node15&#45;&gt;Node14 -->
<g id="edge17_Node000015_Node000014" class="edge">
<title>Node15&#45;&gt;Node14</title>
<g id="a_edge17_Node000015_Node000014"><a xlink:title=" ">
<path fill="none" stroke="#63b8ff" d="M1357.85,-62.99C1391.96,-52.69 1434.94,-39.72 1467.08,-30.01"/>
<polygon fill="#63b8ff" stroke="#63b8ff" points="1356.59,-59.71 1348.02,-65.95 1358.61,-66.42 1356.59,-59.71"/>
</a>
</g>
</g>
<!-- Node16 -->
<g id="Node000016" class="node">
<title>Node16</title>
<g id="a_Node000016"><a xlink:href="abi__x64__emitters_8c.html" target="_top" xlink:title="Implements internal helper functions for emitting x86&#45;64 machine code.">
<polygon fill="white" stroke="#666666" points="1437,-30 1320,-30 1320,0 1437,0 1437,-30"/>
<text text-anchor="start" x="1328" y="-18" font-family="Helvetica,sans-Serif" font-size="10.00">src/arch/x64/abi_x64</text>
<text text-anchor="middle" x="1378.5" y="-7" font-family="Helvetica,sans-Serif" font-size="10.00">_emitters.c</text>
</a>
</g>
</g>
<!-- Node15&#45;&gt;Node16 -->
<g id="edge18_Node000015_Node000016" class="edge">
<title>Node15&#45;&gt;Node16</title>
<g id="a_edge18_Node000015_Node000016"><a xlink:title=" ">
<path fill="none" stroke="#63b8ff" d="M1326.52,-59.2C1337.95,-49.7 1351.2,-38.69 1361.46,-30.16"/>
<polygon fill="#63b8ff" stroke="#63b8ff" points="1324.04,-56.71 1318.59,-65.8 1328.52,-62.1 1324.04,-56.71"/>
</a>
</g>
</g>
<!-- Node18 -->
<g id="Node000018" class="node">
<title>Node18</title>
<g id="a_Node000018"><a xlink:href="infix_8c.html" target="_top" xlink:title="The unity build source file for the infix library.">
<polygon fill="white" stroke="#666666" points="1945,-24.5 1882,-24.5 1882,-5.5 1945,-5.5 1945,-24.5"/>
<text text-anchor="middle" x="1913.5" y="-12.5" font-family="Helvetica,sans-Serif" font-size="10.00">src/infix.c</text>
</a>
</g>
</g>
<!-- Node17&#45;&gt;Node18 -->
<g id="edge20_Node000017_Node000018" class="edge">
<title>Node17&#45;&gt;Node18</title>
<g id="a_edge20_Node000017_Node000018"><a xlink:title=" ">
<path fill="none" stroke="#63b8ff" d="M2058.94,-68C2023.59,-55.36 1968.81,-35.78 1937.54,-24.6"/>
<polygon fill="#63b8ff" stroke="#63b8ff" points="2057.76,-71.3 2068.36,-71.37 2060.12,-64.71 2057.76,-71.3"/>
</a>
</g>
</g>
<!-- Node19&#45;&gt;Node18 -->
<g id="edge22_Node000019_Node000018" class="edge">
<title>Node19&#45;&gt;Node18</title>
<g id="a_edge22_Node000019_Node000018"><a xlink:title=" ">
<path fill="none" stroke="#63b8ff" d="M2160.55,-68.93C2156.49,-67.92 2152.42,-66.92 2148.5,-66 2076.03,-48.91 1990.37,-31.34 1945.15,-22.27"/>
<polygon fill="#63b8ff" stroke="#63b8ff" points="2160.02,-72.41 2170.58,-71.48 2161.75,-65.62 2160.02,-72.41"/>
</a>
</g>
</g>
<!-- Node20&#45;&gt;Node18 -->
<g id="edge24_Node000020_Node000018" class="edge">
<title>Node20&#45;&gt;Node18</title>
<g id="a_edge24_Node000020_Node000018"><a xlink:title=" ">
<path fill="none" stroke="#63b8ff" d="M2271.11,-69.11C2266.2,-67.99 2261.25,-66.93 2256.5,-66 2142.8,-43.8 2006.15,-26.72 1945.36,-19.61"/>
<polygon fill="#63b8ff" stroke="#63b8ff" points="2270.53,-72.57 2281.07,-71.46 2272.14,-65.76 2270.53,-72.57"/>
</a>
</g>
</g>
<!-- Node21&#45;&gt;Node18 -->
<g id="edge26_Node000021_Node000018" class="edge">
<title>Node21&#45;&gt;Node18</title>
<g id="a_edge26_Node000021_Node000018"><a xlink:title=" ">
<path fill="none" stroke="#63b8ff" d="M1519.54,-69.4C1525.57,-68.18 1531.67,-67.01 1537.5,-66 1664.5,-43.92 1817.12,-26.37 1881.93,-19.34"/>
<polygon fill="#63b8ff" stroke="#63b8ff" points="1518.6,-66.02 1509.52,-71.49 1520.03,-72.88 1518.6,-66.02"/>
</a>
</g>
</g>
<!-- Node22&#45;&gt;Node18 -->
<g id="edge28_Node000022_Node000018" class="edge">
<title>Node22&#45;&gt;Node18</title>
<g id="a_edge28_Node000022_Node000018"><a xlink:title=" ">
<path fill="none" stroke="#63b8ff" d="M1661.95,-69.31C1724.49,-56.05 1829.21,-33.86 1881.61,-22.76"/>
<polygon fill="#63b8ff" stroke="#63b8ff" points="1660.97,-65.94 1651.92,-71.44 1662.42,-72.79 1660.97,-65.94"/>
</a>
</g>
</g>
<!-- Node23&#45;&gt;Node18 -->
<g id="edge30_Node000023_Node000018" class="edge">
<title>Node23&#45;&gt;Node18</title>
<g id="a_edge30_Node000023_Node000018"><a xlink:title=" ">
<path fill="none" stroke="#63b8ff" d="M1773.37,-67.84C1807.55,-55.2 1860.17,-35.73 1890.26,-24.6"/>
<polygon fill="#63b8ff" stroke="#63b8ff" points="1772,-64.62 1763.83,-71.37 1774.42,-71.18 1772,-64.62"/>
</a>
</g>
</g>
<!-- Node24&#45;&gt;Node18 -->
<g id="edge32_Node000024_Node000018" class="edge">
<title>Node24&#45;&gt;Node18</title>
<g id="a_edge32_Node000024_Node000018"><a xlink:title=" ">
<path fill="none" stroke="#63b8ff" d="M1868.52,-63.98C1880.1,-51.62 1895.7,-34.99 1905.15,-24.91"/>
<polygon fill="#63b8ff" stroke="#63b8ff" points="1865.88,-61.68 1861.59,-71.37 1870.98,-66.47 1865.88,-61.68"/>
</a>
</g>
</g>
<!-- Node25&#45;&gt;Node18 -->
<g id="edge34_Node000025_Node000018" class="edge">
<title>Node25&#45;&gt;Node18</title>
<g id="a_edge34_Node000025_Node000018"><a xlink:title=" ">
<path fill="none" stroke="#63b8ff" d="M1958.48,-63.98C1946.9,-51.62 1931.3,-34.99 1921.85,-24.91"/>
<polygon fill="#63b8ff" stroke="#63b8ff" points="1956.02,-66.47 1965.41,-71.37 1961.12,-61.68 1956.02,-66.47"/>
</a>
</g>
</g>
</g>
</svg>

<g id="navigator" transform="translate(0 0)" fill="#404254">
  <rect fill="#f2f5e9" fill-opacity="0.5" stroke="#606060" stroke-width=".5" x="0" y="0" width="60" height="60"/>
  <use id="zoomplus" xlink:href="#zoomPlus" x="17" y="9" onmousedown="handleZoom(evt,'in')"/>
  <use id="zoomminus" xlink:href="#zoomMin" x="42" y="9" onmousedown="handleZoom(evt,'out')"/>
  <use id="reset" xlink:href="#resetDef" x="30" y="36" onmousedown="handleReset()"/>
   <use id="arrowup" xlink:href="#arrowUp" x="0" y="0" onmousedown="handlePan(0,-1)"/>
  <use id="arrowright" xlink:href="#arrowRight" x="0" y="0" onmousedown="handlePan(1,0)"/>
  <use id="arrowdown" xlink:href="#arrowDown" x="0" y="0" onmousedown="handlePan(0,1)"/>
  <use id="arrowleft" xlink:href="#arrowLeft" x="0" y="0" onmousedown="handlePan(-1,0)"/>
</g>
<svg viewBox="0 0 15 15" width="100%" height="30px" preserveAspectRatio="xMaxYMin meet">
 <g id="arrow_out" transform="scale(0.3 0.3)">
  <a xlink:href="infix__internals_8h__dep__incl_org.svg" target="_base">
   <rect id="button" ry="5" rx="5" y="6" x="6" height="38" width="38"
        fill="#f2f5e9" fill-opacity="0.5" stroke="#606060" stroke-width="1.0"/>
   <path id="arrow"
     d="M 11.500037,31.436501 C 11.940474,20.09759 22.043105,11.32322 32.158766,21.979434 L 37.068811,17.246167 C 37.068811,17.246167 37.088388,32 37.088388,32 L 22.160133,31.978069 C 22.160133,31.978069 26.997745,27.140456 26.997745,27.140456 C 18.528582,18.264221 13.291696,25.230495 11.500037,31.436501 z"
     style="fill:#404040;"/>
  </a>
 </g>
</svg>

<style type='text/css'>
<![CDATA[
[data-mouse-over-selected='false'] { opacity: 0.7; }
[data-mouse-over-selected='true']  { opacity: 1.0; }
]]>
</style>
<script type="application/ecmascript"><![CDATA[
document.addEventListener('DOMContentLoaded', (event) => {
  highlightEdges();
  highlightAdjacentNodes();
});
]]></script>
</svg>
