<?xml version="1.0" encoding="UTF-8" standalone="no"?>
<!DOCTYPE svg PUBLIC "-//W3C//DTD SVG 1.1//EN"
 "http://www.w3.org/Graphics/SVG/1.1/DTD/svg11.dtd">
<!-- Generated by graphviz version 2.43.0 (0)
 -->
<!-- Title: src/common/infix_config.h Pages: 1 -->
<!--zoomable 214 -->

<svg id="main" version="1.1" xmlns="http://www.w3.org/2000/svg" xmlns:xlink="http://www.w3.org/1999/xlink" xml:space="preserve" onload="init(evt)">
<style type="text/css"><![CDATA[
.node, .edge {opacity: 0.7;}
.node.selected, .edge.selected {opacity: 1;}
.edge:hover path { stroke: red; }
.edge:hover polygon { stroke: red; fill: red; }
]]></style>

<defs>
  <circle id="rim" cx="0" cy="0" r="7"/>
  <circle id="rim2" cx="0" cy="0" r="3.5"/>
  <g id="zoomPlus">
    <use xlink:href="#rim" fill="#404040"><set attributeName="fill" to="#808080" begin="zoomplus.mouseover" end="zoomplus.mouseout"/></use>
    <path d="M-4,0h8M0,-4v8" fill="none" stroke="white" stroke-width="1.5" pointer-events="none"/>
  </g>
  <g id="zoomMin">
    <use xlink:href="#rim" fill="#404040"><set attributeName="fill" to="#808080" begin="zoomminus.mouseover" end="zoomminus.mouseout"/></use>
    <path d="M-4,0h8" fill="none" stroke="white" stroke-width="1.5" pointer-events="none"/>
  </g>
  <g id="arrowUp" transform="translate(30 24)">
    <use xlink:href="#rim"/>
    <path pointer-events="none" fill="none" stroke="white" stroke-width="1.5" d="M0,-3.0v7 M-2.5,-0.5L0,-3.0L2.5,-0.5"/>
  </g>
  <g id="arrowRight" transform="rotate(90) translate(36 -43)">
    <use xlink:href="#rim"/>
    <path pointer-events="none" fill="none" stroke="white" stroke-width="1.5" d="M0,-3.0v7 M-2.5,-0.5L0,-3.0L2.5,-0.5"/>
  </g>
  <g id="arrowDown" transform="rotate(180) translate(-30 -48)">
    <use xlink:href="#rim"/>
    <path pointer-events="none" fill="none" stroke="white" stroke-width="1.5" d="M0,-3.0v7 M-2.5,-0.5L0,-3.0L2.5,-0.5"/>
  </g>
  <g id="arrowLeft" transform="rotate(270) translate(-36 17)">
    <use xlink:href="#rim"/>
    <path pointer-events="none" fill="none" stroke="white" stroke-width="1.5" d="M0,-3.0v7 M-2.5,-0.5L0,-3.0L2.5,-0.5"/>
  </g>
  <g id="resetDef">
    <use xlink:href="#rim2" fill="#404040"><set attributeName="fill" to="#808080" begin="reset.mouseover" end="reset.mouseout"/></use>
  </g>
</defs>
<script type="application/ecmascript">
var viewWidth = 1690;
var viewHeight = 214;
var sectionId = 'dynsection-0';
</script>
<script type="application/ecmascript" xlink:href="svg.min.js"/>
<svg id="graph" class="graph">
<g id="viewport">
<title>src/common/infix_config.h</title>
<!-- Node1 -->
<g id="Node000001" class="node">
<title>Node1</title>
<g id="a_Node000001"><a xlink:title="Internal&#45;only header for platform, architecture, and ABI detection.">
<polygon fill="#999999" stroke="#666666" points="1231.5,-206 1087.5,-206 1087.5,-187 1231.5,-187 1231.5,-206"/>
<text text-anchor="middle" x="1159.5" y="-194" font-family="Helvetica,sans-Serif" font-size="10.00">src/common/infix_config.h</text>
</a>
</g>
</g>
<!-- Node2 -->
<g id="Node000002" class="node">
<title>Node2</title>
<g id="a_Node000002"><a xlink:href="infix__internals_8h.html" target="_top" xlink:title="Declarations for internal&#45;only functions, types, and constants.">
<polygon fill="white" stroke="#666666" points="829.5,-151 671.5,-151 671.5,-132 829.5,-132 829.5,-151"/>
<text text-anchor="middle" x="750.5" y="-139" font-family="Helvetica,sans-Serif" font-size="10.00">src/common/infix_internals.h</text>
</a>
</g>
</g>
<!-- Node1&#45;&gt;Node2 -->
<g id="edge1_Node000001_Node000002" class="edge">
<title>Node1&#45;&gt;Node2</title>
<g id="a_edge1_Node000001_Node000002"><a xlink:title=" ">
<path fill="none" stroke="#63b8ff" d="M1083.7,-185.68C1006.93,-175.73 889.4,-160.5 816.39,-151.04"/>
<polygon fill="#63b8ff" stroke="#63b8ff" points="1083.42,-189.17 1093.79,-186.98 1084.32,-182.23 1083.42,-189.17"/>
</a>
</g>
</g>
<!-- Node21 -->
<g id="Node000021" class="node">
<title>Node21</title>
<g id="a_Node000021"><a xlink:href="001__primitives_8c.html" target="_top" xlink:title="Tests FFI functionality with all supported primitive C types.">
<polygon fill="white" stroke="#666666" points="951.5,-151 847.5,-151 847.5,-132 951.5,-132 951.5,-151"/>
<text text-anchor="middle" x="899.5" y="-139" font-family="Helvetica,sans-Serif" font-size="10.00">t/001_primitives.c</text>
</a>
</g>
</g>
<!-- Node1&#45;&gt;Node21 -->
<g id="edge30_Node000001_Node000021" class="edge">
<title>Node1&#45;&gt;Node21</title>
<g id="a_edge30_Node000001_Node000021"><a xlink:title=" ">
<path fill="none" stroke="#63b8ff" d="M1107.7,-184.94C1058.96,-175.01 986.89,-160.31 941.6,-151.08"/>
<polygon fill="#63b8ff" stroke="#63b8ff" points="1107.23,-188.42 1117.73,-186.98 1108.63,-181.56 1107.23,-188.42"/>
</a>
</g>
</g>
<!-- Node22 -->
<g id="Node000022" class="node">
<title>Node22</title>
<g id="a_Node000022"><a xlink:href="101__by__value_8c.html" target="_top" xlink:title="Tests passing and returning small aggregate types (structs) by value.">
<polygon fill="white" stroke="#666666" points="1069,-151 970,-151 970,-132 1069,-132 1069,-151"/>
<text text-anchor="middle" x="1019.5" y="-139" font-family="Helvetica,sans-Serif" font-size="10.00">t/101_by_value.c</text>
</a>
</g>
</g>
<!-- Node1&#45;&gt;Node22 -->
<g id="edge31_Node000001_Node000022" class="edge">
<title>Node1&#45;&gt;Node22</title>
<g id="a_edge31_Node000001_Node000022"><a xlink:title=" ">
<path fill="none" stroke="#63b8ff" d="M1127.59,-183.42C1101.62,-173.59 1065.58,-159.95 1042.4,-151.17"/>
<polygon fill="#63b8ff" stroke="#63b8ff" points="1126.42,-186.72 1137.01,-186.98 1128.89,-180.17 1126.42,-186.72"/>
</a>
</g>
</g>
<!-- Node23 -->
<g id="Node000023" class="node">
<title>Node23</title>
<g id="a_Node000023"><a xlink:href="402__variadic__functions_8c.html" target="_top" xlink:title="Tests FFI calls for variadic functions.">
<polygon fill="white" stroke="#666666" points="1231.5,-151 1087.5,-151 1087.5,-132 1231.5,-132 1231.5,-151"/>
<text text-anchor="middle" x="1159.5" y="-139" font-family="Helvetica,sans-Serif" font-size="10.00">t/402_variadic_functions.c</text>
</a>
</g>
</g>
<!-- Node1&#45;&gt;Node23 -->
<g id="edge32_Node000001_Node000023" class="edge">
<title>Node1&#45;&gt;Node23</title>
<g id="a_edge32_Node000001_Node000023"><a xlink:title=" ">
<path fill="none" stroke="#63b8ff" d="M1159.5,-176.66C1159.5,-167.93 1159.5,-157.99 1159.5,-151.09"/>
<polygon fill="#63b8ff" stroke="#63b8ff" points="1156,-176.75 1159.5,-186.75 1163,-176.75 1156,-176.75"/>
</a>
</g>
</g>
<!-- Node24 -->
<g id="Node000024" class="node">
<title>Node24</title>
<g id="a_Node000024"><a xlink:href="403__special__types_8c.html" target="_top" xlink:title="Tests FFI calls with types that have unique ABI handling rules.">
<polygon fill="white" stroke="#666666" points="1371.5,-151 1249.5,-151 1249.5,-132 1371.5,-132 1371.5,-151"/>
<text text-anchor="middle" x="1310.5" y="-139" font-family="Helvetica,sans-Serif" font-size="10.00">t/403_special_types.c</text>
</a>
</g>
</g>
<!-- Node1&#45;&gt;Node24 -->
<g id="edge33_Node000001_Node000024" class="edge">
<title>Node1&#45;&gt;Node24</title>
<g id="a_edge33_Node000001_Node000024"><a xlink:title=" ">
<path fill="none" stroke="#63b8ff" d="M1193.55,-183.55C1221.59,-173.71 1260.68,-159.98 1285.8,-151.17"/>
<polygon fill="#63b8ff" stroke="#63b8ff" points="1192.04,-180.37 1183.76,-186.98 1194.36,-186.98 1192.04,-180.37"/>
</a>
</g>
</g>
<!-- Node25 -->
<g id="Node000025" class="node">
<title>Node25</title>
<g id="a_Node000025"><a xlink:href="820__threading__helgrind_8c.html" target="_top" xlink:title="A cross&#45;platform test for thread&#45;safety issues using Valgrind&#39;s Helgrind tool or other thread sanitiz...">
<polygon fill="white" stroke="#666666" points="1535.5,-151 1389.5,-151 1389.5,-132 1535.5,-132 1535.5,-151"/>
<text text-anchor="middle" x="1462.5" y="-139" font-family="Helvetica,sans-Serif" font-size="10.00">t/820_threading_helgrind.c</text>
</a>
</g>
</g>
<!-- Node1&#45;&gt;Node25 -->
<g id="edge34_Node000001_Node000025" class="edge">
<title>Node1&#45;&gt;Node25</title>
<g id="a_edge34_Node000001_Node000025"><a xlink:title=" ">
<path fill="none" stroke="#63b8ff" d="M1218.11,-185.25C1275.01,-175.3 1360.37,-160.36 1413.69,-151.04"/>
<polygon fill="#63b8ff" stroke="#63b8ff" points="1217.43,-181.81 1208.18,-186.98 1218.64,-188.71 1217.43,-181.81"/>
</a>
</g>
</g>
<!-- Node26 -->
<g id="Node000026" class="node">
<title>Node26</title>
<g id="a_Node000026"><a xlink:href="821__threading__bare_8c.html" target="_top" xlink:title="A &quot;barebones&quot; thread&#45;safety test with no testing framework dependency.">
<polygon fill="white" stroke="#666666" points="1681.5,-151 1553.5,-151 1553.5,-132 1681.5,-132 1681.5,-151"/>
<text text-anchor="middle" x="1617.5" y="-139" font-family="Helvetica,sans-Serif" font-size="10.00">t/821_threading_bare.c</text>
</a>
</g>
</g>
<!-- Node1&#45;&gt;Node26 -->
<g id="edge35_Node000001_Node000026" class="edge">
<title>Node1&#45;&gt;Node26</title>
<g id="a_edge35_Node000001_Node000026"><a xlink:title=" ">
<path fill="none" stroke="#63b8ff" d="M1241.76,-186.01C1319.71,-177.02 1440.08,-163.11 1544.5,-151 1547.42,-150.66 1550.4,-150.32 1553.41,-149.97"/>
<polygon fill="#63b8ff" stroke="#63b8ff" points="1241.06,-182.57 1231.52,-187.19 1241.86,-189.52 1241.06,-182.57"/>
</a>
</g>
</g>
<!-- Node3 -->
<g id="Node000003" class="node">
<title>Node3</title>
<g id="a_Node000003"><a xlink:href="abi__arm64_8c.html" target="_top" xlink:title="Implements the FFI logic for the AArch64 (ARM64) architecture.">
<polygon fill="white" stroke="#666666" points="115,-30 0,-30 0,0 115,0 115,-30"/>
<text text-anchor="start" x="8" y="-18" font-family="Helvetica,sans-Serif" font-size="10.00">src/arch/aarch64/abi</text>
<text text-anchor="middle" x="57.5" y="-7" font-family="Helvetica,sans-Serif" font-size="10.00">_arm64.c</text>
</a>
</g>
</g>
<!-- Node2&#45;&gt;Node3 -->
<g id="edge2_Node000002_Node000003" class="edge">
<title>Node2&#45;&gt;Node3</title>
<g id="a_edge2_Node000002_Node000003"><a xlink:title=" ">
<path fill="none" stroke="#63b8ff" d="M661.04,-138.04C499.16,-133.02 170.04,-119.99 123.5,-96 95.33,-81.48 74.7,-49.11 64.56,-30.3"/>
<polygon fill="#63b8ff" stroke="#63b8ff" points="661.35,-141.55 671.45,-138.36 661.56,-134.55 661.35,-141.55"/>
</a>
</g>
</g>
<!-- Node4 -->
<g id="Node000004" class="node">
<title>Node4</title>
<g id="a_Node000004"><a xlink:href="abi__arm64__emitters_8h.html" target="_top" xlink:title="Declares internal helper functions for emitting AArch64 machine code.">
<polygon fill="white" stroke="#666666" points="248,-96 133,-96 133,-66 248,-66 248,-96"/>
<text text-anchor="start" x="141" y="-84" font-family="Helvetica,sans-Serif" font-size="10.00">src/arch/aarch64/abi</text>
<text text-anchor="middle" x="190.5" y="-73" font-family="Helvetica,sans-Serif" font-size="10.00">_arm64_emitters.h</text>
</a>
</g>
</g>
<!-- Node2&#45;&gt;Node4 -->
<g id="edge3_Node000002_Node000004" class="edge">
<title>Node2&#45;&gt;Node4</title>
<g id="a_edge3_Node000002_Node000004"><a xlink:title=" ">
<path fill="none" stroke="#63b8ff" d="M661.14,-131.71C572.8,-122.95 433.78,-108.97 313.5,-96 292.13,-93.7 268.69,-91.06 248.05,-88.69"/>
<polygon fill="#63b8ff" stroke="#63b8ff" points="660.83,-135.2 671.13,-132.7 661.52,-128.23 660.83,-135.2"/>
</a>
</g>
</g>
<!-- Node6 -->
<g id="Node000006" class="node">
<title>Node6</title>
<g id="a_Node000006"><a xlink:href="abi__sysv__x64_8c.html" target="_top" xlink:title="Implements the FFI logic for the System V AMD64 ABI.">
<polygon fill="white" stroke="#666666" points="388.5,-30 266.5,-30 266.5,0 388.5,0 388.5,-30"/>
<text text-anchor="start" x="274.5" y="-18" font-family="Helvetica,sans-Serif" font-size="10.00">src/arch/x64/abi_sysv</text>
<text text-anchor="middle" x="327.5" y="-7" font-family="Helvetica,sans-Serif" font-size="10.00">_x64.c</text>
</a>
</g>
</g>
<!-- Node2&#45;&gt;Node6 -->
<g id="edge6_Node000002_Node000006" class="edge">
<title>Node2&#45;&gt;Node6</title>
<g id="a_edge6_Node000002_Node000006"><a xlink:title=" ">
<path fill="none" stroke="#63b8ff" d="M660.84,-136.04C549,-129.66 369.58,-116.39 346.5,-96 327.89,-79.55 325.8,-48.51 326.37,-30.3"/>
<polygon fill="#63b8ff" stroke="#63b8ff" points="660.93,-139.55 671.11,-136.62 661.33,-132.57 660.93,-139.55"/>
</a>
</g>
</g>
<!-- Node7 -->
<g id="Node000007" class="node">
<title>Node7</title>
<g id="a_Node000007"><a xlink:href="abi__win__x64_8c.html" target="_top" xlink:title="Implements the FFI logic for the Windows x64 calling convention.">
<polygon fill="white" stroke="#666666" points="658.5,-30 542.5,-30 542.5,0 658.5,0 658.5,-30"/>
<text text-anchor="start" x="550.5" y="-18" font-family="Helvetica,sans-Serif" font-size="10.00">src/arch/x64/abi_win</text>
<text text-anchor="middle" x="600.5" y="-7" font-family="Helvetica,sans-Serif" font-size="10.00">_x64.c</text>
</a>
</g>
</g>
<!-- Node2&#45;&gt;Node7 -->
<g id="edge7_Node000002_Node000007" class="edge">
<title>Node2&#45;&gt;Node7</title>
<g id="a_edge7_Node000002_Node000007"><a xlink:title=" ">
<path fill="none" stroke="#63b8ff" d="M661.16,-134.73C604.44,-129 538.45,-117.75 520.5,-96 500.06,-71.23 538.36,-45.47 568.71,-30.08"/>
<polygon fill="#63b8ff" stroke="#63b8ff" points="660.97,-138.23 671.26,-135.71 661.65,-131.26 660.97,-138.23"/>
</a>
</g>
</g>
<!-- Node8 -->
<g id="Node000008" class="node">
<title>Node8</title>
<g id="a_Node000008"><a xlink:href="abi__x64__emitters_8h.html" target="_top" xlink:title="Declares internal helper functions for emitting x86&#45;64 machine code.">
<polygon fill="white" stroke="#666666" points="473,-96 356,-96 356,-66 473,-66 473,-96"/>
<text text-anchor="start" x="364" y="-84" font-family="Helvetica,sans-Serif" font-size="10.00">src/arch/x64/abi_x64</text>
<text text-anchor="middle" x="414.5" y="-73" font-family="Helvetica,sans-Serif" font-size="10.00">_emitters.h</text>
</a>
</g>
</g>
<!-- Node2&#45;&gt;Node8 -->
<g id="edge8_Node000002_Node000008" class="edge">
<title>Node2&#45;&gt;Node8</title>
<g id="a_edge8_Node000002_Node000008"><a xlink:title=" ">
<path fill="none" stroke="#63b8ff" d="M688.06,-130.33C634.73,-121.55 556,-108.36 487.5,-96 482.8,-95.15 477.94,-94.26 473.05,-93.35"/>
<polygon fill="#63b8ff" stroke="#63b8ff" points="687.61,-133.8 698.05,-131.97 688.75,-126.9 687.61,-133.8"/>
</a>
</g>
</g>
<!-- Node10 -->
<g id="Node000010" class="node">
<title>Node10</title>
<g id="a_Node000010"><a xlink:href="arena_8c.html" target="_top" xlink:title="Implementation of the internal arena allocator.">
<polygon fill="white" stroke="#666666" points="1496.5,-90.5 1402.5,-90.5 1402.5,-71.5 1496.5,-71.5 1496.5,-90.5"/>
<text text-anchor="middle" x="1449.5" y="-78.5" font-family="Helvetica,sans-Serif" font-size="10.00">src/core/arena.c</text>
</a>
</g>
</g>
<!-- Node2&#45;&gt;Node10 -->
<g id="edge12_Node000002_Node000010" class="edge">
<title>Node2&#45;&gt;Node10</title>
<g id="a_edge12_Node000002_Node000010"><a xlink:title=" ">
<path fill="none" stroke="#63b8ff" d="M839.64,-131.94C1086.61,-112.68 1152.49,-133.63 1393.5,-96 1402.02,-94.67 1411.13,-92.65 1419.48,-90.56"/>
<polygon fill="#63b8ff" stroke="#63b8ff" points="839.34,-128.46 829.64,-132.74 839.89,-135.43 839.34,-128.46"/>
</a>
</g>
</g>
<!-- Node13 -->
<g id="Node000013" class="node">
<title>Node13</title>
<g id="a_Node000013"><a xlink:href="error_8c.html" target="_top" xlink:title="Implements the thread&#45;local error reporting system.">
<polygon fill="white" stroke="#666666" points="619,-90.5 530,-90.5 530,-71.5 619,-71.5 619,-90.5"/>
<text text-anchor="middle" x="574.5" y="-78.5" font-family="Helvetica,sans-Serif" font-size="10.00">src/core/error.c</text>
</a>
</g>
</g>
<!-- Node2&#45;&gt;Node13 -->
<g id="edge15_Node000002_Node000013" class="edge">
<title>Node2&#45;&gt;Node13</title>
<g id="a_edge15_Node000002_Node000013"><a xlink:title=" ">
<path fill="none" stroke="#63b8ff" d="M715.35,-128.82C681.31,-117.5 630.51,-100.62 600.12,-90.52"/>
<polygon fill="#63b8ff" stroke="#63b8ff" points="714.31,-132.16 724.91,-131.99 716.52,-125.52 714.31,-132.16"/>
</a>
</g>
</g>
<!-- Node14 -->
<g id="Node000014" class="node">
<title>Node14</title>
<g id="a_Node000014"><a xlink:href="executor_8c.html" target="_top" xlink:title="Implements OS&#45;level memory management and the internal callback dispatcher.">
<polygon fill="white" stroke="#666666" points="744,-90.5 637,-90.5 637,-71.5 744,-71.5 744,-90.5"/>
<text text-anchor="middle" x="690.5" y="-78.5" font-family="Helvetica,sans-Serif" font-size="10.00">src/core/executor.c</text>
</a>
</g>
</g>
<!-- Node2&#45;&gt;Node14 -->
<g id="edge17_Node000002_Node000014" class="edge">
<title>Node2&#45;&gt;Node14</title>
<g id="a_edge17_Node000002_Node000014"><a xlink:title=" ">
<path fill="none" stroke="#63b8ff" d="M734.18,-124.59C722.98,-113.67 708.53,-99.58 699.39,-90.67"/>
<polygon fill="#63b8ff" stroke="#63b8ff" points="732.04,-127.39 741.65,-131.87 736.93,-122.38 732.04,-127.39"/>
</a>
</g>
</g>
<!-- Node15 -->
<g id="Node000015" class="node">
<title>Node15</title>
<g id="a_Node000015"><a xlink:href="loader_8c.html" target="_top" xlink:title="Implements the cross&#45;platform dynamic library loading and symbol resolution API.">
<polygon fill="white" stroke="#666666" points="858.5,-90.5 762.5,-90.5 762.5,-71.5 858.5,-71.5 858.5,-90.5"/>
<text text-anchor="middle" x="810.5" y="-78.5" font-family="Helvetica,sans-Serif" font-size="10.00">src/core/loader.c</text>
</a>
</g>
</g>
<!-- Node2&#45;&gt;Node15 -->
<g id="edge19_Node000002_Node000015" class="edge">
<title>Node2&#45;&gt;Node15</title>
<g id="a_edge19_Node000002_Node000015"><a xlink:title=" ">
<path fill="none" stroke="#63b8ff" d="M766.82,-124.59C778.02,-113.67 792.47,-99.58 801.61,-90.67"/>
<polygon fill="#63b8ff" stroke="#63b8ff" points="764.07,-122.38 759.35,-131.87 768.96,-127.39 764.07,-122.38"/>
</a>
</g>
</g>
<!-- Node16 -->
<g id="Node000016" class="node">
<title>Node16</title>
<g id="a_Node000016"><a xlink:href="signature_8c.html" target="_top" xlink:title="Implements the high&#45;level signature string parser.">
<polygon fill="white" stroke="#666666" points="988.5,-90.5 876.5,-90.5 876.5,-71.5 988.5,-71.5 988.5,-90.5"/>
<text text-anchor="middle" x="932.5" y="-78.5" font-family="Helvetica,sans-Serif" font-size="10.00">src/core/signature.c</text>
</a>
</g>
</g>
<!-- Node2&#45;&gt;Node16 -->
<g id="edge21_Node000002_Node000016" class="edge">
<title>Node2&#45;&gt;Node16</title>
<g id="a_edge21_Node000002_Node000016"><a xlink:title=" ">
<path fill="none" stroke="#63b8ff" d="M786.85,-128.82C822.05,-117.5 874.58,-100.62 906,-90.52"/>
<polygon fill="#63b8ff" stroke="#63b8ff" points="785.41,-125.6 776.96,-131.99 787.56,-132.27 785.41,-125.6"/>
</a>
</g>
</g>
<!-- Node17 -->
<g id="Node000017" class="node">
<title>Node17</title>
<g id="a_Node000017"><a xlink:href="trampoline_8c.html" target="_top" xlink:title="The core engine for JIT compiling FFI trampolines.">
<polygon fill="white" stroke="#666666" points="1126,-90.5 1007,-90.5 1007,-71.5 1126,-71.5 1126,-90.5"/>
<text text-anchor="middle" x="1066.5" y="-78.5" font-family="Helvetica,sans-Serif" font-size="10.00">src/core/trampoline.c</text>
</a>
</g>
</g>
<!-- Node2&#45;&gt;Node17 -->
<g id="edge23_Node000002_Node000017" class="edge">
<title>Node2&#45;&gt;Node17</title>
<g id="a_edge23_Node000002_Node000017"><a xlink:title=" ">
<path fill="none" stroke="#63b8ff" d="M809.77,-130.2C859.85,-121.4 933.44,-108.27 997.5,-96 1006.5,-94.28 1016.15,-92.36 1025.3,-90.51"/>
<polygon fill="#63b8ff" stroke="#63b8ff" points="809.01,-126.78 799.77,-131.95 810.22,-133.67 809.01,-126.78"/>
</a>
</g>
</g>
<!-- Node18 -->
<g id="Node000018" class="node">
<title>Node18</title>
<g id="a_Node000018"><a xlink:href="type__registry_8c.html" target="_top" xlink:title="Implements the named type registry and definition parser.">
<polygon fill="white" stroke="#666666" points="1273,-90.5 1144,-90.5 1144,-71.5 1273,-71.5 1273,-90.5"/>
<text text-anchor="middle" x="1208.5" y="-78.5" font-family="Helvetica,sans-Serif" font-size="10.00">src/core/type_registry.c</text>
</a>
</g>
</g>
<!-- Node2&#45;&gt;Node18 -->
<g id="edge25_Node000002_Node000018" class="edge">
<title>Node2&#45;&gt;Node18</title>
<g id="a_edge25_Node000002_Node000018"><a xlink:title=" ">
<path fill="none" stroke="#63b8ff" d="M839.54,-130.99C935.02,-120.64 1080.34,-104.47 1135.5,-96 1145.7,-94.43 1156.66,-92.48 1166.9,-90.53"/>
<polygon fill="#63b8ff" stroke="#63b8ff" points="839.16,-127.51 829.59,-132.06 839.91,-134.47 839.16,-127.51"/>
</a>
</g>
</g>
<!-- Node19 -->
<g id="Node000019" class="node">
<title>Node19</title>
<g id="a_Node000019"><a xlink:href="types_8c.html" target="_top" xlink:title="Implements the public API for creating and managing type descriptions.">
<polygon fill="white" stroke="#666666" points="1384,-90.5 1291,-90.5 1291,-71.5 1384,-71.5 1384,-90.5"/>
<text text-anchor="middle" x="1337.5" y="-78.5" font-family="Helvetica,sans-Serif" font-size="10.00">src/core/types.c</text>
</a>
</g>
</g>
<!-- Node2&#45;&gt;Node19 -->
<g id="edge27_Node000002_Node000019" class="edge">
<title>Node2&#45;&gt;Node19</title>
<g id="a_edge27_Node000002_Node000019"><a xlink:title=" ">
<path fill="none" stroke="#63b8ff" d="M839.78,-131.91C1037.45,-114.94 1090.45,-127.99 1282.5,-96 1290.76,-94.62 1299.6,-92.62 1307.72,-90.55"/>
<polygon fill="#63b8ff" stroke="#63b8ff" points="839.31,-128.44 829.65,-132.8 839.92,-135.41 839.31,-128.44"/>
</a>
</g>
</g>
<!-- Node20 -->
<g id="Node000020" class="node">
<title>Node20</title>
<g id="a_Node000020"><a xlink:href="830__security_8c.html" target="_top" xlink:title="A test suite for security hardening and vulnerability prevention.">
<polygon fill="white" stroke="#666666" points="1606.5,-90.5 1514.5,-90.5 1514.5,-71.5 1606.5,-71.5 1606.5,-90.5"/>
<text text-anchor="middle" x="1560.5" y="-78.5" font-family="Helvetica,sans-Serif" font-size="10.00">t/830_security.c</text>
</a>
</g>
</g>
<!-- Node2&#45;&gt;Node20 -->
<g id="edge29_Node000002_Node000020" class="edge">
<title>Node2&#45;&gt;Node20</title>
<g id="a_edge29_Node000002_Node000020"><a xlink:title=" ">
<path fill="none" stroke="#63b8ff" d="M839.83,-131.94C1136.31,-110.41 1215.32,-140.33 1505.5,-96 1513.97,-94.71 1523.04,-92.67 1531.32,-90.56"/>
<polygon fill="#63b8ff" stroke="#63b8ff" points="839.35,-128.47 829.64,-132.7 839.87,-135.45 839.35,-128.47"/>
</a>
</g>
</g>
<!-- Node4&#45;&gt;Node3 -->
<g id="edge4_Node000004_Node000003" class="edge">
<title>Node4&#45;&gt;Node3</title>
<g id="a_edge4_Node000004_Node000003"><a xlink:title=" ">
<path fill="none" stroke="#63b8ff" d="M152.08,-61.51C131.22,-51.47 105.83,-39.26 86.62,-30.01"/>
<polygon fill="#63b8ff" stroke="#63b8ff" points="150.78,-64.77 161.31,-65.95 153.82,-58.46 150.78,-64.77"/>
</a>
</g>
</g>
<!-- Node5 -->
<g id="Node000005" class="node">
<title>Node5</title>
<g id="a_Node000005"><a xlink:href="abi__arm64__emitters_8c.html" target="_top" xlink:title="Implements internal helper functions for emitting AArch64 machine code.">
<polygon fill="white" stroke="#666666" points="248,-30 133,-30 133,0 248,0 248,-30"/>
<text text-anchor="start" x="141" y="-18" font-family="Helvetica,sans-Serif" font-size="10.00">src/arch/aarch64/abi</text>
<text text-anchor="middle" x="190.5" y="-7" font-family="Helvetica,sans-Serif" font-size="10.00">_arm64_emitters.c</text>
</a>
</g>
</g>
<!-- Node4&#45;&gt;Node5 -->
<g id="edge5_Node000004_Node000005" class="edge">
<title>Node4&#45;&gt;Node5</title>
<g id="a_edge5_Node000004_Node000005"><a xlink:title=" ">
<path fill="none" stroke="#63b8ff" d="M190.5,-55.54C190.5,-46.96 190.5,-37.61 190.5,-30.16"/>
<polygon fill="#63b8ff" stroke="#63b8ff" points="187,-55.8 190.5,-65.8 194,-55.8 187,-55.8"/>
</a>
</g>
</g>
<!-- Node8&#45;&gt;Node6 -->
<g id="edge9_Node000008_Node000006" class="edge">
<title>Node8&#45;&gt;Node6</title>
<g id="a_edge9_Node000008_Node000006"><a xlink:title=" ">
<path fill="none" stroke="#63b8ff" d="M386.98,-59.75C373.89,-50.13 358.57,-38.86 346.75,-30.16"/>
<polygon fill="#63b8ff" stroke="#63b8ff" points="385.06,-62.69 395.19,-65.8 389.21,-57.05 385.06,-62.69"/>
</a>
</g>
</g>
<!-- Node8&#45;&gt;Node7 -->
<g id="edge10_Node000008_Node000007" class="edge">
<title>Node8&#45;&gt;Node7</title>
<g id="a_edge10_Node000008_Node000007"><a xlink:title=" ">
<path fill="none" stroke="#63b8ff" d="M465.1,-62.59C494.84,-52.36 531.94,-39.59 559.78,-30.01"/>
<polygon fill="#63b8ff" stroke="#63b8ff" points="463.64,-59.39 455.32,-65.95 465.91,-66.01 463.64,-59.39"/>
</a>
</g>
</g>
<!-- Node9 -->
<g id="Node000009" class="node">
<title>Node9</title>
<g id="a_Node000009"><a xlink:href="abi__x64__emitters_8c.html" target="_top" xlink:title="Implements internal helper functions for emitting x86&#45;64 machine code.">
<polygon fill="white" stroke="#666666" points="524,-30 407,-30 407,0 524,0 524,-30"/>
<text text-anchor="start" x="415" y="-18" font-family="Helvetica,sans-Serif" font-size="10.00">src/arch/x64/abi_x64</text>
<text text-anchor="middle" x="465.5" y="-7" font-family="Helvetica,sans-Serif" font-size="10.00">_emitters.c</text>
</a>
</g>
</g>
<!-- Node8&#45;&gt;Node9 -->
<g id="edge11_Node000008_Node000009" class="edge">
<title>Node8&#45;&gt;Node9</title>
<g id="a_edge11_Node000008_Node000009"><a xlink:title=" ">
<path fill="none" stroke="#63b8ff" d="M432.18,-57.81C439.49,-48.64 447.75,-38.28 454.21,-30.16"/>
<polygon fill="#63b8ff" stroke="#63b8ff" points="429.31,-55.79 425.82,-65.8 434.79,-60.16 429.31,-55.79"/>
</a>
</g>
</g>
<!-- Node11 -->
<g id="Node000011" class="node">
<title>Node11</title>
<g id="a_Node000011"><a xlink:href="infix_8c.html" target="_top" xlink:title="The unity build source file for the infix library.">
<polygon fill="white" stroke="#666666" points="1031,-24.5 968,-24.5 968,-5.5 1031,-5.5 1031,-24.5"/>
<text text-anchor="middle" x="999.5" y="-12.5" font-family="Helvetica,sans-Serif" font-size="10.00">src/infix.c</text>
</a>
</g>
</g>
<!-- Node10&#45;&gt;Node11 -->
<g id="edge13_Node000010_Node000011" class="edge">
<title>Node10&#45;&gt;Node11</title>
<g id="a_edge13_Node000010_Node000011"><a xlink:title=" ">
<path fill="none" stroke="#63b8ff" d="M1408.24,-69.1C1403.29,-67.96 1398.3,-66.9 1393.5,-66 1259.83,-40.9 1098.24,-24.8 1031.11,-18.73"/>
<polygon fill="#63b8ff" stroke="#63b8ff" points="1407.71,-72.57 1418.25,-71.49 1409.34,-65.76 1407.71,-72.57"/>
</a>
</g>
</g>
<!-- Node12 -->
<g id="Node000012" class="node">
<title>Node12</title>
<g id="a_Node000012"><a xlink:href="840__arena__allocator_8c.html" target="_top" xlink:title="Unit tests for the internal arena allocator.">
<polygon fill="white" stroke="#666666" points="1514.5,-24.5 1384.5,-24.5 1384.5,-5.5 1514.5,-5.5 1514.5,-24.5"/>
<text text-anchor="middle" x="1449.5" y="-12.5" font-family="Helvetica,sans-Serif" font-size="10.00">t/840_arena_allocator.c</text>
</a>
</g>
</g>
<!-- Node10&#45;&gt;Node12 -->
<g id="edge14_Node000010_Node000012" class="edge">
<title>Node10&#45;&gt;Node12</title>
<g id="a_edge14_Node000010_Node000012"><a xlink:title=" ">
<path fill="none" stroke="#63b8ff" d="M1449.5,-61.08C1449.5,-49.13 1449.5,-34.22 1449.5,-24.91"/>
<polygon fill="#63b8ff" stroke="#63b8ff" points="1446,-61.37 1449.5,-71.37 1453,-61.37 1446,-61.37"/>
</a>
</g>
</g>
<!-- Node13&#45;&gt;Node11 -->
<g id="edge16_Node000013_Node000011" class="edge">
<title>Node13&#45;&gt;Node11</title>
<g id="a_edge16_Node000013_Node000011"><a xlink:title=" ">
<path fill="none" stroke="#63b8ff" d="M613.91,-69.01C618.47,-67.91 623.07,-66.88 627.5,-66 752.46,-41.2 903.51,-25.12 967.93,-18.9"/>
<polygon fill="#63b8ff" stroke="#63b8ff" points="612.9,-65.66 604.06,-71.49 614.61,-72.44 612.9,-65.66"/>
</a>
</g>
</g>
<!-- Node14&#45;&gt;Node11 -->
<g id="edge18_Node000014_Node000011" class="edge">
<title>Node14&#45;&gt;Node11</title>
<g id="a_edge18_Node000014_Node000011"><a xlink:title=" ">
<path fill="none" stroke="#63b8ff" d="M738.26,-69.29C743.4,-68.17 748.56,-67.05 753.5,-66 830.23,-49.68 920.68,-31.59 967.62,-22.29"/>
<polygon fill="#63b8ff" stroke="#63b8ff" points="737.47,-65.88 728.45,-71.45 738.97,-72.72 737.47,-65.88"/>
</a>
</g>
</g>
<!-- Node15&#45;&gt;Node11 -->
<g id="edge20_Node000015_Node000011" class="edge">
<title>Node15&#45;&gt;Node11</title>
<g id="a_edge20_Node000015_Node000011"><a xlink:title=" ">
<path fill="none" stroke="#63b8ff" d="M845.93,-68C883.26,-55.36 941.1,-35.78 974.11,-24.6"/>
<polygon fill="#63b8ff" stroke="#63b8ff" points="844.34,-64.85 835.99,-71.37 846.58,-71.48 844.34,-64.85"/>
</a>
</g>
</g>
<!-- Node16&#45;&gt;Node11 -->
<g id="edge22_Node000016_Node000011" class="edge">
<title>Node16&#45;&gt;Node11</title>
<g id="a_edge22_Node000016_Node000011"><a xlink:title=" ">
<path fill="none" stroke="#63b8ff" d="M948.9,-64.33C961.88,-51.94 979.52,-35.09 990.18,-24.91"/>
<polygon fill="#63b8ff" stroke="#63b8ff" points="946.35,-61.93 941.54,-71.37 951.18,-66.99 946.35,-61.93"/>
</a>
</g>
</g>
<!-- Node17&#45;&gt;Node11 -->
<g id="edge24_Node000017_Node000011" class="edge">
<title>Node17&#45;&gt;Node11</title>
<g id="a_edge24_Node000017_Node000011"><a xlink:title=" ">
<path fill="none" stroke="#63b8ff" d="M1050.1,-64.33C1037.12,-51.94 1019.48,-35.09 1008.82,-24.91"/>
<polygon fill="#63b8ff" stroke="#63b8ff" points="1047.82,-66.99 1057.46,-71.37 1052.65,-61.93 1047.82,-66.99"/>
</a>
</g>
</g>
<!-- Node18&#45;&gt;Node11 -->
<g id="edge26_Node000018_Node000011" class="edge">
<title>Node18&#45;&gt;Node11</title>
<g id="a_edge26_Node000018_Node000011"><a xlink:title=" ">
<path fill="none" stroke="#63b8ff" d="M1170.63,-68.4C1129.41,-55.78 1064.47,-35.89 1027.57,-24.6"/>
<polygon fill="#63b8ff" stroke="#63b8ff" points="1169.73,-71.79 1180.31,-71.37 1171.78,-65.09 1169.73,-71.79"/>
</a>
</g>
</g>
<!-- Node19&#45;&gt;Node11 -->
<g id="edge28_Node000019_Node000011" class="edge">
<title>Node19&#45;&gt;Node11</title>
<g id="a_edge28_Node000019_Node000011"><a xlink:title=" ">
<path fill="none" stroke="#63b8ff" d="M1295.86,-69.05C1291.36,-67.98 1286.84,-66.94 1282.5,-66 1191.78,-46.47 1083.49,-28.92 1031.06,-20.79"/>
<polygon fill="#63b8ff" stroke="#63b8ff" points="1295.06,-72.46 1305.6,-71.45 1296.73,-65.66 1295.06,-72.46"/>
</a>
</g>
</g>
</g>
</svg>

<g id="navigator" transform="translate(0 0)" fill="#404254">
  <rect fill="#f2f5e9" fill-opacity="0.5" stroke="#606060" stroke-width=".5" x="0" y="0" width="60" height="60"/>
  <use id="zoomplus" xlink:href="#zoomPlus" x="17" y="9" onmousedown="handleZoom(evt,'in')"/>
  <use id="zoomminus" xlink:href="#zoomMin" x="42" y="9" onmousedown="handleZoom(evt,'out')"/>
  <use id="reset" xlink:href="#resetDef" x="30" y="36" onmousedown="handleReset()"/>
   <use id="arrowup" xlink:href="#arrowUp" x="0" y="0" onmousedown="handlePan(0,-1)"/>
  <use id="arrowright" xlink:href="#arrowRight" x="0" y="0" onmousedown="handlePan(1,0)"/>
  <use id="arrowdown" xlink:href="#arrowDown" x="0" y="0" onmousedown="handlePan(0,1)"/>
  <use id="arrowleft" xlink:href="#arrowLeft" x="0" y="0" onmousedown="handlePan(-1,0)"/>
</g>
<svg viewBox="0 0 15 15" width="100%" height="30px" preserveAspectRatio="xMaxYMin meet">
 <g id="arrow_out" transform="scale(0.3 0.3)">
  <a xlink:href="infix__config_8h__dep__incl_org.svg" target="_base">
   <rect id="button" ry="5" rx="5" y="6" x="6" height="38" width="38"
        fill="#f2f5e9" fill-opacity="0.5" stroke="#606060" stroke-width="1.0"/>
   <path id="arrow"
     d="M 11.500037,31.436501 C 11.940474,20.09759 22.043105,11.32322 32.158766,21.979434 L 37.068811,17.246167 C 37.068811,17.246167 37.088388,32 37.088388,32 L 22.160133,31.978069 C 22.160133,31.978069 26.997745,27.140456 26.997745,27.140456 C 18.528582,18.264221 13.291696,25.230495 11.500037,31.436501 z"
     style="fill:#404040;"/>
  </a>
 </g>
</svg>

<style type='text/css'>
<![CDATA[
[data-mouse-over-selected='false'] { opacity: 0.7; }
[data-mouse-over-selected='true']  { opacity: 1.0; }
]]>
</style>
<script type="application/ecmascript"><![CDATA[
document.addEventListener('DOMContentLoaded', (event) => {
  highlightEdges();
  highlightAdjacentNodes();
});
]]></script>
</svg>
