<?xml version="1.0" encoding="UTF-8" standalone="no"?>
<!DOCTYPE svg PUBLIC "-//W3C//DTD SVG 1.1//EN"
 "http://www.w3.org/Graphics/SVG/1.1/DTD/svg11.dtd">
<!-- Generated by graphviz version 2.43.0 (0)
 -->
<!-- Title: src/common/infix_internals.h Pages: 1 -->
<!--zoomable 159 -->

<svg id="main" version="1.1" xmlns="http://www.w3.org/2000/svg" xmlns:xlink="http://www.w3.org/1999/xlink" xml:space="preserve" onload="init(evt)">
<style type="text/css"><![CDATA[
.node, .edge {opacity: 0.7;}
.node.selected, .edge.selected {opacity: 1;}
.edge:hover path { stroke: red; }
.edge:hover polygon { stroke: red; fill: red; }
]]></style>

<defs>
  <circle id="rim" cx="0" cy="0" r="7"/>
  <circle id="rim2" cx="0" cy="0" r="3.5"/>
  <g id="zoomPlus">
    <use xlink:href="#rim" fill="#404040"><set attributeName="fill" to="#808080" begin="zoomplus.mouseover" end="zoomplus.mouseout"/></use>
    <path d="M-4,0h8M0,-4v8" fill="none" stroke="white" stroke-width="1.5" pointer-events="none"/>
  </g>
  <g id="zoomMin">
    <use xlink:href="#rim" fill="#404040"><set attributeName="fill" to="#808080" begin="zoomminus.mouseover" end="zoomminus.mouseout"/></use>
    <path d="M-4,0h8" fill="none" stroke="white" stroke-width="1.5" pointer-events="none"/>
  </g>
  <g id="arrowUp" transform="translate(30 24)">
    <use xlink:href="#rim"/>
    <path pointer-events="none" fill="none" stroke="white" stroke-width="1.5" d="M0,-3.0v7 M-2.5,-0.5L0,-3.0L2.5,-0.5"/>
  </g>
  <g id="arrowRight" transform="rotate(90) translate(36 -43)">
    <use xlink:href="#rim"/>
    <path pointer-events="none" fill="none" stroke="white" stroke-width="1.5" d="M0,-3.0v7 M-2.5,-0.5L0,-3.0L2.5,-0.5"/>
  </g>
  <g id="arrowDown" transform="rotate(180) translate(-30 -48)">
    <use xlink:href="#rim"/>
    <path pointer-events="none" fill="none" stroke="white" stroke-width="1.5" d="M0,-3.0v7 M-2.5,-0.5L0,-3.0L2.5,-0.5"/>
  </g>
  <g id="arrowLeft" transform="rotate(270) translate(-36 17)">
    <use xlink:href="#rim"/>
    <path pointer-events="none" fill="none" stroke="white" stroke-width="1.5" d="M0,-3.0v7 M-2.5,-0.5L0,-3.0L2.5,-0.5"/>
  </g>
  <g id="resetDef">
    <use xlink:href="#rim2" fill="#404040"><set attributeName="fill" to="#808080" begin="reset.mouseover" end="reset.mouseout"/></use>
  </g>
</defs>
<script type="application/ecmascript">
var viewWidth = 3949;
var viewHeight = 159;
var sectionId = 'dynsection-1';
</script>
<script type="application/ecmascript" xlink:href="svg.min.js"/>
<svg id="graph" class="graph">
<g id="viewport">
<title>src/common/infix_internals.h</title>
<!-- Node1 -->
<g id="Node000001" class="node">
<title>Node1</title>
<g id="a_Node000001"><a xlink:title="Internal data structures, function prototypes, and constants.">
<polygon fill="#999999" stroke="#666666" points="2374.5,-151 2216.5,-151 2216.5,-132 2374.5,-132 2374.5,-151"/>
<text text-anchor="middle" x="2295.5" y="-139" font-family="Helvetica,sans-Serif" font-size="10.00">src/common/infix_internals.h</text>
</a>
</g>
</g>
<!-- Node2 -->
<g id="Node000002" class="node">
<title>Node2</title>
<g id="a_Node000002"><a xlink:href="fuzz__helpers_8h.html" target="_top" xlink:title="Common definitions, structures, and helpers for all fuzzer targets.">
<polygon fill="white" stroke="#666666" points="605.5,-90.5 495.5,-90.5 495.5,-71.5 605.5,-71.5 605.5,-90.5"/>
<text text-anchor="middle" x="550.5" y="-78.5" font-family="Helvetica,sans-Serif" font-size="10.00">fuzz/fuzz_helpers.h</text>
</a>
</g>
</g>
<!-- Node1&#45;&gt;Node2 -->
<g id="edge1_Node000001_Node000002" class="edge">
<title>Node1&#45;&gt;Node2</title>
<g id="a_edge1_Node000001_Node000002"><a xlink:title=" ">
<path fill="none" stroke="#63b8ff" d="M2205.9,-137.5C1893.32,-127.02 856.44,-92.26 605.53,-83.84"/>
<polygon fill="#63b8ff" stroke="#63b8ff" points="2206.16,-141.01 2216.27,-137.84 2206.4,-134.01 2206.16,-141.01"/>
</a>
</g>
</g>
<!-- Node11 -->
<g id="Node000011" class="node">
<title>Node11</title>
<g id="a_Node000011"><a xlink:href="abi__arm64_8c.html" target="_top" xlink:title="Implements the FFI logic for the AArch64 (ARM64) architecture.">
<polygon fill="white" stroke="#666666" points="1164,-30 1049,-30 1049,0 1164,0 1164,-30"/>
<text text-anchor="start" x="1057" y="-18" font-family="Helvetica,sans-Serif" font-size="10.00">src/arch/aarch64/abi</text>
<text text-anchor="middle" x="1106.5" y="-7" font-family="Helvetica,sans-Serif" font-size="10.00">_arm64.c</text>
</a>
</g>
</g>
<!-- Node1&#45;&gt;Node11 -->
<g id="edge10_Node000001_Node000011" class="edge">
<title>Node1&#45;&gt;Node11</title>
<g id="a_edge10_Node000001_Node000011"><a xlink:title=" ">
<path fill="none" stroke="#63b8ff" d="M2206.33,-141.12C1956.84,-142.29 1263.99,-141.36 1172.5,-96 1143.95,-81.84 1123.33,-49.02 1113.32,-30.11"/>
<polygon fill="#63b8ff" stroke="#63b8ff" points="2206.46,-144.62 2216.44,-141.07 2206.42,-137.62 2206.46,-144.62"/>
</a>
</g>
</g>
<!-- Node12 -->
<g id="Node000012" class="node">
<title>Node12</title>
<g id="a_Node000012"><a xlink:href="abi__arm64__emitters_8h.html" target="_top" xlink:title="Declares internal helper functions for emitting AArch64 machine code.">
<polygon fill="white" stroke="#666666" points="1297,-96 1182,-96 1182,-66 1297,-66 1297,-96"/>
<text text-anchor="start" x="1190" y="-84" font-family="Helvetica,sans-Serif" font-size="10.00">src/arch/aarch64/abi</text>
<text text-anchor="middle" x="1239.5" y="-73" font-family="Helvetica,sans-Serif" font-size="10.00">_arm64_emitters.h</text>
</a>
</g>
</g>
<!-- Node1&#45;&gt;Node12 -->
<g id="edge11_Node000001_Node000012" class="edge">
<title>Node1&#45;&gt;Node12</title>
<g id="a_edge11_Node000001_Node000012"><a xlink:title=" ">
<path fill="none" stroke="#63b8ff" d="M2206.41,-138.59C2038.77,-134.5 1665.08,-122.95 1351.5,-96 1333.83,-94.48 1314.66,-92.29 1297.25,-90.08"/>
<polygon fill="#63b8ff" stroke="#63b8ff" points="2206.34,-142.09 2216.42,-138.84 2206.51,-135.09 2206.34,-142.09"/>
</a>
</g>
</g>
<!-- Node14 -->
<g id="Node000014" class="node">
<title>Node14</title>
<g id="a_Node000014"><a xlink:href="abi__riscv64_8c.html" target="_top" xlink:title="Implements the FFI logic for the RISC&#45;V RV64GC (lp64d) architecture.">
<polygon fill="white" stroke="#666666" points="1414,-30 1315,-30 1315,0 1414,0 1414,-30"/>
<text text-anchor="start" x="1323" y="-18" font-family="Helvetica,sans-Serif" font-size="10.00">src/arch/riscv/abi</text>
<text text-anchor="middle" x="1364.5" y="-7" font-family="Helvetica,sans-Serif" font-size="10.00">_riscv64.c</text>
</a>
</g>
</g>
<!-- Node1&#45;&gt;Node14 -->
<g id="edge14_Node000001_Node000014" class="edge">
<title>Node1&#45;&gt;Node14</title>
<g id="a_edge14_Node000001_Node000014"><a xlink:title=" ">
<path fill="none" stroke="#63b8ff" d="M2206.41,-138.97C1983.48,-134.75 1417.03,-121.58 1385.5,-96 1365.98,-80.17 1363.34,-48.6 1363.62,-30.2"/>
<polygon fill="#63b8ff" stroke="#63b8ff" points="2206.38,-142.47 2216.45,-139.15 2206.51,-135.47 2206.38,-142.47"/>
</a>
</g>
</g>
<!-- Node15 -->
<g id="Node000015" class="node">
<title>Node15</title>
<g id="a_Node000015"><a xlink:href="abi__riscv64__emitters_8h.html" target="_top" xlink:title="Public interface for emitting RISC&#45;V (RV64GC) instructions.">
<polygon fill="white" stroke="#666666" points="1508,-96 1395,-96 1395,-66 1508,-66 1508,-96"/>
<text text-anchor="start" x="1403" y="-84" font-family="Helvetica,sans-Serif" font-size="10.00">src/arch/riscv/abi</text>
<text text-anchor="middle" x="1451.5" y="-73" font-family="Helvetica,sans-Serif" font-size="10.00">_riscv64_emitters.h</text>
</a>
</g>
</g>
<!-- Node1&#45;&gt;Node15 -->
<g id="edge15_Node000001_Node000015" class="edge">
<title>Node1&#45;&gt;Node15</title>
<g id="a_edge15_Node000001_Node000015"><a xlink:title=" ">
<path fill="none" stroke="#63b8ff" d="M2206.32,-139.33C2062.05,-136.56 1768.8,-127.22 1522.5,-96 1517.89,-95.42 1513.13,-94.71 1508.35,-93.92"/>
<polygon fill="#63b8ff" stroke="#63b8ff" points="2206.38,-142.83 2216.44,-139.52 2206.51,-135.84 2206.38,-142.83"/>
</a>
</g>
</g>
<!-- Node17 -->
<g id="Node000017" class="node">
<title>Node17</title>
<g id="a_Node000017"><a xlink:href="abi__sysv__x64_8c.html" target="_top" xlink:title="Implements the FFI logic for the System V AMD64 ABI.">
<polygon fill="white" stroke="#666666" points="1684.5,-30 1562.5,-30 1562.5,0 1684.5,0 1684.5,-30"/>
<text text-anchor="start" x="1570.5" y="-18" font-family="Helvetica,sans-Serif" font-size="10.00">src/arch/x64/abi_sysv</text>
<text text-anchor="middle" x="1623.5" y="-7" font-family="Helvetica,sans-Serif" font-size="10.00">_x64.c</text>
</a>
</g>
</g>
<!-- Node1&#45;&gt;Node17 -->
<g id="edge18_Node000001_Node000017" class="edge">
<title>Node1&#45;&gt;Node17</title>
<g id="a_edge18_Node000001_Node000017"><a xlink:title=" ">
<path fill="none" stroke="#63b8ff" d="M2206.29,-138.36C2014.32,-133.33 1577.5,-119.36 1555.5,-96 1534.63,-73.84 1569.93,-46.55 1596.99,-30.25"/>
<polygon fill="#63b8ff" stroke="#63b8ff" points="2206.27,-141.86 2216.36,-138.62 2206.45,-134.87 2206.27,-141.86"/>
</a>
</g>
</g>
<!-- Node18 -->
<g id="Node000018" class="node">
<title>Node18</title>
<g id="a_Node000018"><a xlink:href="abi__win__x64_8c.html" target="_top" xlink:title="Implements the FFI logic for the Windows x64 calling convention.">
<polygon fill="white" stroke="#666666" points="1954.5,-30 1838.5,-30 1838.5,0 1954.5,0 1954.5,-30"/>
<text text-anchor="start" x="1846.5" y="-18" font-family="Helvetica,sans-Serif" font-size="10.00">src/arch/x64/abi_win</text>
<text text-anchor="middle" x="1896.5" y="-7" font-family="Helvetica,sans-Serif" font-size="10.00">_x64.c</text>
</a>
</g>
</g>
<!-- Node1&#45;&gt;Node18 -->
<g id="edge19_Node000001_Node000018" class="edge">
<title>Node1&#45;&gt;Node18</title>
<g id="a_edge19_Node000001_Node000018"><a xlink:title=" ">
<path fill="none" stroke="#63b8ff" d="M2206.06,-139.98C2054.65,-138.16 1761.12,-130.2 1729.5,-96 1720.45,-86.21 1721.54,-76.7 1729.5,-66 1736.3,-56.87 1792.82,-41.19 1838.25,-29.82"/>
<polygon fill="#63b8ff" stroke="#63b8ff" points="2206.23,-143.48 2216.27,-140.1 2206.31,-136.48 2206.23,-143.48"/>
</a>
</g>
</g>
<!-- Node19 -->
<g id="Node000019" class="node">
<title>Node19</title>
<g id="a_Node000019"><a xlink:href="abi__x64__emitters_8h.html" target="_top" xlink:title="Declares internal helper functions for emitting x86&#45;64 machine code.">
<polygon fill="white" stroke="#666666" points="1682,-96 1565,-96 1565,-66 1682,-66 1682,-96"/>
<text text-anchor="start" x="1573" y="-84" font-family="Helvetica,sans-Serif" font-size="10.00">src/arch/x64/abi_x64</text>
<text text-anchor="middle" x="1623.5" y="-73" font-family="Helvetica,sans-Serif" font-size="10.00">_emitters.h</text>
</a>
</g>
</g>
<!-- Node1&#45;&gt;Node19 -->
<g id="edge20_Node000001_Node000019" class="edge">
<title>Node1&#45;&gt;Node19</title>
<g id="a_edge20_Node000001_Node000019"><a xlink:title=" ">
<path fill="none" stroke="#63b8ff" d="M2206.21,-137.08C2088.88,-131.86 1876.55,-119.87 1696.5,-96 1691.89,-95.39 1687.14,-94.67 1682.37,-93.89"/>
<polygon fill="#63b8ff" stroke="#63b8ff" points="2206.09,-140.58 2216.23,-137.52 2206.39,-133.59 2206.09,-140.58"/>
</a>
</g>
</g>
<!-- Node21 -->
<g id="Node000021" class="node">
<title>Node21</title>
<g id="a_Node000021"><a xlink:href="allocator_8c.html" target="_top" xlink:title="The process&#45;wide allocator table used for all of infix&#39;s internal heap allocations.">
<polygon fill="white" stroke="#666666" points="2475.5,-90.5 2367.5,-90.5 2367.5,-71.5 2475.5,-71.5 2475.5,-90.5"/>
<text text-anchor="middle" x="2421.5" y="-78.5" font-family="Helvetica,sans-Serif" font-size="10.00">src/core/allocator.c</text>
</a>
</g>
</g>
<!-- Node1&#45;&gt;Node21 -->
<g id="edge24_Node000001_Node000021" class="edge">
<title>Node1&#45;&gt;Node21</title>
<g id="a_edge24_Node000001_Node000021"><a xlink:title=" ">
<path fill="none" stroke="#63b8ff" d="M2323.21,-127.63C2347.51,-116.35 2382.15,-100.27 2403.16,-90.52"/>
<polygon fill="#63b8ff" stroke="#63b8ff" points="2321.42,-124.61 2313.82,-131.99 2324.37,-130.96 2321.42,-124.61"/>
</a>
</g>
</g>
<!-- Node23 -->
<g id="Node000023" class="node">
<title>Node23</title>
<g id="a_Node000023"><a xlink:href="arena_8c.html" target="_top" xlink:title="Implements a simple, fast arena (or region&#45;based) allocator.">
<polygon fill="white" stroke="#666666" points="2587.5,-90.5 2493.5,-90.5 2493.5,-71.5 2587.5,-71.5 2587.5,-90.5"/>
<text text-anchor="middle" x="2540.5" y="-78.5" font-family="Helvetica,sans-Serif" font-size="10.00">src/core/arena.c</text>
</a>
</g>
</g>
<!-- Node1&#45;&gt;Node23 -->
<g id="edge26_Node000001_Node000023" class="edge">
<title>Node1&#45;&gt;Node23</title>
<g id="a_edge26_Node000001_Node000023"><a xlink:title=" ">
<path fill="none" stroke="#63b8ff" d="M2342.31,-129.67C2380.58,-120.77 2436.09,-107.75 2484.5,-96 2491.71,-94.25 2499.43,-92.34 2506.76,-90.51"/>
<polygon fill="#63b8ff" stroke="#63b8ff" points="2341.42,-126.28 2332.48,-131.95 2343.01,-133.1 2341.42,-126.28"/>
</a>
</g>
</g>
<!-- Node24 -->
<g id="Node000024" class="node">
<title>Node24</title>
<g id="a_Node000024"><a xlink:href="cache_8c.html" target="_top" xlink:title="Implements trampoline deduplication and caching.">
<polygon fill="white" stroke="#666666" points="2701,-90.5 2606,-90.5 2606,-71.5 2701,-71.5 2701,-90.5"/>
<text text-anchor="middle" x="2653.5" y="-78.5" font-family="Helvetica,sans-Serif" font-size="10.00">src/core/cache.c</text>
</a>
</g>
</g>
<!-- Node1&#45;&gt;Node24 -->
<g id="edge28_Node000001_Node000024" class="edge">
<title>Node1&#45;&gt;Node24</title>
<g id="a_edge28_Node000001_Node000024"><a xlink:title=" ">
<path fill="none" stroke="#63b8ff" d="M2375.99,-130.69C2436.81,-122.78 2522.23,-110.58 2596.5,-96 2604.5,-94.43 2613.07,-92.47 2621.06,-90.53"/>
<polygon fill="#63b8ff" stroke="#63b8ff" points="2375.53,-127.22 2366.07,-131.97 2376.43,-134.16 2375.53,-127.22"/>
</a>
</g>
</g>
<!-- Node25 -->
<g id="Node000025" class="node">
<title>Node25</title>
<g id="a_Node000025"><a xlink:href="error_8c.html" target="_top" xlink:title="Implements the thread&#45;local error reporting system.">
<polygon fill="white" stroke="#666666" points="2808,-90.5 2719,-90.5 2719,-71.5 2808,-71.5 2808,-90.5"/>
<text text-anchor="middle" x="2763.5" y="-78.5" font-family="Helvetica,sans-Serif" font-size="10.00">src/core/error.c</text>
</a>
</g>
</g>
<!-- Node1&#45;&gt;Node25 -->
<g id="edge30_Node000001_Node000025" class="edge">
<title>Node1&#45;&gt;Node25</title>
<g id="a_edge30_Node000001_Node000025"><a xlink:title=" ">
<path fill="none" stroke="#63b8ff" d="M2384.87,-134.85C2469.3,-128.58 2599.23,-116.54 2710.5,-96 2718.36,-94.55 2726.77,-92.54 2734.52,-90.5"/>
<polygon fill="#63b8ff" stroke="#63b8ff" points="2384.52,-131.36 2374.8,-135.58 2385.03,-138.34 2384.52,-131.36"/>
</a>
</g>
</g>
<!-- Node26 -->
<g id="Node000026" class="node">
<title>Node26</title>
<g id="a_Node000026"><a xlink:href="loader_8c.html" target="_top" xlink:title="Implements cross&#45;platform dynamic library loading.">
<polygon fill="white" stroke="#666666" points="2922.5,-90.5 2826.5,-90.5 2826.5,-71.5 2922.5,-71.5 2922.5,-90.5"/>
<text text-anchor="middle" x="2874.5" y="-78.5" font-family="Helvetica,sans-Serif" font-size="10.00">src/core/loader.c</text>
</a>
</g>
</g>
<!-- Node1&#45;&gt;Node26 -->
<g id="edge32_Node000001_Node000026" class="edge">
<title>Node1&#45;&gt;Node26</title>
<g id="a_edge32_Node000001_Node000026"><a xlink:title=" ">
<path fill="none" stroke="#63b8ff" d="M2384.86,-137.12C2489.23,-132.19 2666.8,-120.77 2817.5,-96 2826.05,-94.59 2835.2,-92.58 2843.62,-90.51"/>
<polygon fill="#63b8ff" stroke="#63b8ff" points="2384.51,-133.63 2374.68,-137.59 2384.83,-140.62 2384.51,-133.63"/>
</a>
</g>
</g>
<!-- Node27 -->
<g id="Node000027" class="node">
<title>Node27</title>
<g id="a_Node000027"><a xlink:href="signature_8c.html" target="_top" xlink:title="Implements the infix signature string parser and type printer.">
<polygon fill="white" stroke="#666666" points="1850.5,-90.5 1738.5,-90.5 1738.5,-71.5 1850.5,-71.5 1850.5,-90.5"/>
<text text-anchor="middle" x="1794.5" y="-78.5" font-family="Helvetica,sans-Serif" font-size="10.00">src/core/signature.c</text>
</a>
</g>
</g>
<!-- Node1&#45;&gt;Node27 -->
<g id="edge34_Node000001_Node000027" class="edge">
<title>Node1&#45;&gt;Node27</title>
<g id="a_edge34_Node000001_Node000027"><a xlink:title=" ">
<path fill="none" stroke="#63b8ff" d="M2206.41,-134.3C2118.03,-127.47 1978.9,-114.89 1859.5,-96 1850.15,-94.52 1840.12,-92.55 1830.81,-90.56"/>
<polygon fill="#63b8ff" stroke="#63b8ff" points="2206.16,-137.79 2216.4,-135.07 2206.69,-130.81 2206.16,-137.79"/>
</a>
</g>
</g>
<!-- Node28 -->
<g id="Node000028" class="node">
<title>Node28</title>
<g id="a_Node000028"><a xlink:href="type__registry_8c.html" target="_top" xlink:title="Implements the named type registry system.">
<polygon fill="white" stroke="#666666" points="1998,-90.5 1869,-90.5 1869,-71.5 1998,-71.5 1998,-90.5"/>
<text text-anchor="middle" x="1933.5" y="-78.5" font-family="Helvetica,sans-Serif" font-size="10.00">src/core/type_registry.c</text>
</a>
</g>
</g>
<!-- Node1&#45;&gt;Node28 -->
<g id="edge36_Node000001_Node000028" class="edge">
<title>Node1&#45;&gt;Node28</title>
<g id="a_edge36_Node000001_Node000028"><a xlink:title=" ">
<path fill="none" stroke="#63b8ff" d="M2225.64,-130.48C2167.04,-121.89 2081.18,-108.91 2006.5,-96 1996.84,-94.33 1986.48,-92.42 1976.69,-90.55"/>
<polygon fill="#63b8ff" stroke="#63b8ff" points="2225.49,-133.99 2235.9,-131.97 2226.51,-127.07 2225.49,-133.99"/>
</a>
</g>
</g>
<!-- Node29 -->
<g id="Node000029" class="node">
<title>Node29</title>
<g id="a_Node000029"><a xlink:href="types_8c.html" target="_top" xlink:title="Implements the public API for creating and managing type descriptions.">
<polygon fill="white" stroke="#666666" points="2109,-90.5 2016,-90.5 2016,-71.5 2109,-71.5 2109,-90.5"/>
<text text-anchor="middle" x="2062.5" y="-78.5" font-family="Helvetica,sans-Serif" font-size="10.00">src/core/types.c</text>
</a>
</g>
</g>
<!-- Node1&#45;&gt;Node29 -->
<g id="edge38_Node000001_Node000029" class="edge">
<title>Node1&#45;&gt;Node29</title>
<g id="a_edge38_Node000001_Node000029"><a xlink:title=" ">
<path fill="none" stroke="#63b8ff" d="M2251.84,-129.54C2206.8,-118.23 2137.51,-100.83 2096.42,-90.52"/>
<polygon fill="#63b8ff" stroke="#63b8ff" points="2251.07,-132.95 2261.62,-131.99 2252.77,-126.16 2251.07,-132.95"/>
</a>
</g>
</g>
<!-- Node30 -->
<g id="Node000030" class="node">
<title>Node30</title>
<g id="a_Node000030"><a xlink:href="executor_8c.html" target="_top" xlink:title="Implements platform&#45;specific memory management for JIT code and execution.">
<polygon fill="white" stroke="#666666" points="2223.5,-90.5 2127.5,-90.5 2127.5,-71.5 2223.5,-71.5 2223.5,-90.5"/>
<text text-anchor="middle" x="2175.5" y="-78.5" font-family="Helvetica,sans-Serif" font-size="10.00">src/jit/executor.c</text>
</a>
</g>
</g>
<!-- Node1&#45;&gt;Node30 -->
<g id="edge40_Node000001_Node000030" class="edge">
<title>Node1&#45;&gt;Node30</title>
<g id="a_edge40_Node000001_Node000030"><a xlink:title=" ">
<path fill="none" stroke="#63b8ff" d="M2268.8,-127.48C2245.67,-116.21 2212.89,-100.23 2192.97,-90.52"/>
<polygon fill="#63b8ff" stroke="#63b8ff" points="2267.53,-130.76 2278.05,-131.99 2270.6,-124.47 2267.53,-130.76"/>
</a>
</g>
</g>
<!-- Node31 -->
<g id="Node000031" class="node">
<title>Node31</title>
<g id="a_Node000031"><a xlink:href="trampoline_8c.html" target="_top" xlink:title="The core JIT engine for generating forward and reverse trampolines.">
<polygon fill="white" stroke="#666666" points="2349.5,-90.5 2241.5,-90.5 2241.5,-71.5 2349.5,-71.5 2349.5,-90.5"/>
<text text-anchor="middle" x="2295.5" y="-78.5" font-family="Helvetica,sans-Serif" font-size="10.00">src/jit/trampoline.c</text>
</a>
</g>
</g>
<!-- Node1&#45;&gt;Node31 -->
<g id="edge42_Node000001_Node000031" class="edge">
<title>Node1&#45;&gt;Node31</title>
<g id="a_edge42_Node000001_Node000031"><a xlink:title=" ">
<path fill="none" stroke="#63b8ff" d="M2295.5,-121.66C2295.5,-111.24 2295.5,-98.8 2295.5,-90.67"/>
<polygon fill="#63b8ff" stroke="#63b8ff" points="2292,-121.87 2295.5,-131.87 2299,-121.87 2292,-121.87"/>
</a>
</g>
</g>
<!-- Node32 -->
<g id="Node000032" class="node">
<title>Node32</title>
<g id="a_Node000032"><a xlink:href="008__registry__introspection_8c.html" target="_top" xlink:title="Unit test for the registry introspection and serialization APIs.">
<polygon fill="white" stroke="#666666" points="3102,-90.5 2941,-90.5 2941,-71.5 3102,-71.5 3102,-90.5"/>
<text text-anchor="middle" x="3021.5" y="-78.5" font-family="Helvetica,sans-Serif" font-size="10.00">t/008_registry_introspection.c</text>
</a>
</g>
</g>
<!-- Node1&#45;&gt;Node32 -->
<g id="edge44_Node000001_Node000032" class="edge">
<title>Node1&#45;&gt;Node32</title>
<g id="a_edge44_Node000001_Node000032"><a xlink:title=" ">
<path fill="none" stroke="#63b8ff" d="M2384.66,-136.64C2507.88,-130.77 2737.06,-117.89 2931.5,-96 2944.54,-94.53 2958.59,-92.54 2971.62,-90.53"/>
<polygon fill="#63b8ff" stroke="#63b8ff" points="2384.34,-133.15 2374.52,-137.12 2384.67,-140.14 2384.34,-133.15"/>
</a>
</g>
</g>
<!-- Node33 -->
<g id="Node000033" class="node">
<title>Node33</title>
<g id="a_Node000033"><a xlink:href="101__by__value_8c.html" target="_top" xlink:title="Unit test for passing and returning aggregates and vectors by value.">
<polygon fill="white" stroke="#666666" points="3219,-90.5 3120,-90.5 3120,-71.5 3219,-71.5 3219,-90.5"/>
<text text-anchor="middle" x="3169.5" y="-78.5" font-family="Helvetica,sans-Serif" font-size="10.00">t/101_by_value.c</text>
</a>
</g>
</g>
<!-- Node1&#45;&gt;Node33 -->
<g id="edge45_Node000001_Node000033" class="edge">
<title>Node1&#45;&gt;Node33</title>
<g id="a_edge45_Node000001_Node000033"><a xlink:title=" ">
<path fill="none" stroke="#63b8ff" d="M2384.88,-140.94C2535.57,-140.49 2849.41,-134.45 3111.5,-96 3120.42,-94.69 3129.97,-92.66 3138.7,-90.54"/>
<polygon fill="#63b8ff" stroke="#63b8ff" points="2384.74,-137.44 2374.75,-140.96 2384.76,-144.44 2384.74,-137.44"/>
</a>
</g>
</g>
<!-- Node34 -->
<g id="Node000034" class="node">
<title>Node34</title>
<g id="a_Node000034"><a xlink:href="501__direct__marshalling_8c.html" target="_top" xlink:title="Test suite for the high&#45;performance direct marshalling API.">
<polygon fill="white" stroke="#666666" points="3383.5,-90.5 3237.5,-90.5 3237.5,-71.5 3383.5,-71.5 3383.5,-90.5"/>
<text text-anchor="middle" x="3310.5" y="-78.5" font-family="Helvetica,sans-Serif" font-size="10.00">t/501_direct_marshalling.c</text>
</a>
</g>
</g>
<!-- Node1&#45;&gt;Node34 -->
<g id="edge46_Node000001_Node000034" class="edge">
<title>Node1&#45;&gt;Node34</title>
<g id="a_edge46_Node000001_Node000034"><a xlink:title=" ">
<path fill="none" stroke="#63b8ff" d="M2384.89,-139.84C2551.36,-137.82 2919.99,-129.57 3228.5,-96 3240.85,-94.66 3254.15,-92.64 3266.38,-90.54"/>
<polygon fill="#63b8ff" stroke="#63b8ff" points="2384.66,-136.34 2374.7,-139.96 2384.74,-143.34 2384.66,-136.34"/>
</a>
</g>
</g>
<!-- Node35 -->
<g id="Node000035" class="node">
<title>Node35</title>
<g id="a_Node000035"><a xlink:href="813__custom__allocator_8c.html" target="_top" xlink:title="Unit test for the runtime pluggable allocator API (infix_set_allocator).">
<polygon fill="white" stroke="#666666" points="3539.5,-90.5 3401.5,-90.5 3401.5,-71.5 3539.5,-71.5 3539.5,-90.5"/>
<text text-anchor="middle" x="3470.5" y="-78.5" font-family="Helvetica,sans-Serif" font-size="10.00">t/813_custom_allocator.c</text>
</a>
</g>
</g>
<!-- Node1&#45;&gt;Node35 -->
<g id="edge47_Node000001_Node000035" class="edge">
<title>Node1&#45;&gt;Node35</title>
<g id="a_edge47_Node000001_Node000035"><a xlink:title=" ">
<path fill="none" stroke="#63b8ff" d="M2384.67,-141.01C2571.94,-141.18 3019.7,-136.82 3392.5,-96 3404.4,-94.7 3417.22,-92.66 3428.96,-90.54"/>
<polygon fill="#63b8ff" stroke="#63b8ff" points="2384.6,-137.51 2374.6,-141 2384.59,-144.51 2384.6,-137.51"/>
</a>
</g>
</g>
<!-- Node36 -->
<g id="Node000036" class="node">
<title>Node36</title>
<g id="a_Node000036"><a xlink:href="830__security_8c.html" target="_top" xlink:title="Unit test for security&#45;hardening features of the infix library.">
<polygon fill="white" stroke="#666666" points="3649.5,-90.5 3557.5,-90.5 3557.5,-71.5 3649.5,-71.5 3649.5,-90.5"/>
<text text-anchor="middle" x="3603.5" y="-78.5" font-family="Helvetica,sans-Serif" font-size="10.00">t/830_security.c</text>
</a>
</g>
</g>
<!-- Node1&#45;&gt;Node36 -->
<g id="edge48_Node000001_Node000036" class="edge">
<title>Node1&#45;&gt;Node36</title>
<g id="a_edge48_Node000001_Node000036"><a xlink:title=" ">
<path fill="none" stroke="#63b8ff" d="M2384.88,-139.81C2632.45,-137.49 3323.62,-128.24 3548.5,-96 3557.18,-94.76 3566.47,-92.68 3574.9,-90.51"/>
<polygon fill="#63b8ff" stroke="#63b8ff" points="2384.81,-136.31 2374.84,-139.9 2384.87,-143.31 2384.81,-136.31"/>
</a>
</g>
</g>
<!-- Node37 -->
<g id="Node000037" class="node">
<title>Node37</title>
<g id="a_Node000037"><a xlink:href="840__arena__allocator_8c.html" target="_top" xlink:title="Unit test for the internal arena allocator.">
<polygon fill="white" stroke="#666666" points="3797.5,-90.5 3667.5,-90.5 3667.5,-71.5 3797.5,-71.5 3797.5,-90.5"/>
<text text-anchor="middle" x="3732.5" y="-78.5" font-family="Helvetica,sans-Serif" font-size="10.00">t/840_arena_allocator.c</text>
</a>
</g>
</g>
<!-- Node1&#45;&gt;Node37 -->
<g id="edge49_Node000001_Node000037" class="edge">
<title>Node1&#45;&gt;Node37</title>
<g id="a_edge49_Node000001_Node000037"><a xlink:title=" ">
<path fill="none" stroke="#63b8ff" d="M2384.74,-139.39C2646.67,-135.83 3410.45,-123.35 3658.5,-96 3669.94,-94.74 3682.25,-92.69 3693.5,-90.55"/>
<polygon fill="#63b8ff" stroke="#63b8ff" points="2384.46,-135.89 2374.51,-139.52 2384.56,-142.89 2384.46,-135.89"/>
</a>
</g>
</g>
<!-- Node38 -->
<g id="Node000038" class="node">
<title>Node38</title>
<g id="a_Node000038"><a xlink:href="862__packed__layout_8c.html" target="_top" xlink:title="Regression test for packed struct layout and by&#45;value returns.">
<polygon fill="white" stroke="#666666" points="3941,-90.5 3816,-90.5 3816,-71.5 3941,-71.5 3941,-90.5"/>
<text text-anchor="middle" x="3878.5" y="-78.5" font-family="Helvetica,sans-Serif" font-size="10.00">t/862_packed_layout.c</text>
</a>
</g>
</g>
<!-- Node1&#45;&gt;Node38 -->
<g id="edge50_Node000001_Node000038" class="edge">
<title>Node1&#45;&gt;Node38</title>
<g id="a_edge50_Node000001_Node000038"><a xlink:title=" ">
<path fill="none" stroke="#63b8ff" d="M2385.1,-139.77C2666.21,-137.19 3528.56,-126.91 3806.5,-96 3817.76,-94.75 3829.9,-92.67 3840.94,-90.5"/>
<polygon fill="#63b8ff" stroke="#63b8ff" points="2384.91,-136.28 2374.94,-139.87 2384.98,-143.28 2384.91,-136.28"/>
</a>
</g>
</g>
<!-- Node3 -->
<g id="Node000003" class="node">
<title>Node3</title>
<g id="a_Node000003"><a xlink:href="fuzz__abi_8c.html" target="_top" xlink:title="Fuzzer target for the ABI classification layer.">
<polygon fill="white" stroke="#666666" points="89,-24.5 0,-24.5 0,-5.5 89,-5.5 89,-24.5"/>
<text text-anchor="middle" x="44.5" y="-12.5" font-family="Helvetica,sans-Serif" font-size="10.00">fuzz/fuzz_abi.c</text>
</a>
</g>
</g>
<!-- Node2&#45;&gt;Node3 -->
<g id="edge2_Node000002_Node000003" class="edge">
<title>Node2&#45;&gt;Node3</title>
<g id="a_edge2_Node000002_Node000003"><a xlink:title=" ">
<path fill="none" stroke="#63b8ff" d="M485.23,-75.85C396.79,-69.53 234.24,-55.46 97.5,-30 89.73,-28.55 81.43,-26.57 73.76,-24.56"/>
<polygon fill="#63b8ff" stroke="#63b8ff" points="485.15,-79.35 495.38,-76.56 485.65,-72.37 485.15,-79.35"/>
</a>
</g>
</g>
<!-- Node4 -->
<g id="Node000004" class="node">
<title>Node4</title>
<g id="a_Node000004"><a xlink:href="fuzz__direct_8c.html" target="_top" xlink:title="Fuzzer target for the Direct Marshalling API generation logic.">
<polygon fill="white" stroke="#666666" points="208,-24.5 107,-24.5 107,-5.5 208,-5.5 208,-24.5"/>
<text text-anchor="middle" x="157.5" y="-12.5" font-family="Helvetica,sans-Serif" font-size="10.00">fuzz/fuzz_direct.c</text>
</a>
</g>
</g>
<!-- Node2&#45;&gt;Node4 -->
<g id="edge3_Node000002_Node000004" class="edge">
<title>Node2&#45;&gt;Node4</title>
<g id="a_edge3_Node000002_Node000004"><a xlink:title=" ">
<path fill="none" stroke="#63b8ff" d="M485.43,-71.8C418.12,-62.95 310.07,-47.72 217.5,-30 209.2,-28.41 200.31,-26.47 191.98,-24.54"/>
<polygon fill="#63b8ff" stroke="#63b8ff" points="485.1,-75.29 495.47,-73.11 486.01,-68.35 485.1,-75.29"/>
</a>
</g>
</g>
<!-- Node5 -->
<g id="Node000005" class="node">
<title>Node5</title>
<g id="a_Node000005"><a xlink:href="fuzz__helpers_8c.html" target="_top" xlink:title="Implements the core logic for generating random infix_type graphs from fuzzer input.">
<polygon fill="white" stroke="#666666" points="336.5,-24.5 226.5,-24.5 226.5,-5.5 336.5,-5.5 336.5,-24.5"/>
<text text-anchor="middle" x="281.5" y="-12.5" font-family="Helvetica,sans-Serif" font-size="10.00">fuzz/fuzz_helpers.c</text>
</a>
</g>
</g>
<!-- Node2&#45;&gt;Node5 -->
<g id="edge4_Node000002_Node000005" class="edge">
<title>Node2&#45;&gt;Node5</title>
<g id="a_edge4_Node000002_Node000005"><a xlink:title=" ">
<path fill="none" stroke="#63b8ff" d="M504.69,-69.1C451.7,-56.49 365.59,-36.01 317.29,-24.51"/>
<polygon fill="#63b8ff" stroke="#63b8ff" points="503.96,-72.53 514.5,-71.44 505.58,-65.72 503.96,-72.53"/>
</a>
</g>
</g>
<!-- Node6 -->
<g id="Node000006" class="node">
<title>Node6</title>
<g id="a_Node000006"><a xlink:href="fuzz__roundtrip_8c.html" target="_top" xlink:title="Fuzzer target for Type &#45;&gt; String &#45;&gt; Type round&#45;trip consistency.">
<polygon fill="white" stroke="#666666" points="472.5,-24.5 354.5,-24.5 354.5,-5.5 472.5,-5.5 472.5,-24.5"/>
<text text-anchor="middle" x="413.5" y="-12.5" font-family="Helvetica,sans-Serif" font-size="10.00">fuzz/fuzz_roundtrip.c</text>
</a>
</g>
</g>
<!-- Node2&#45;&gt;Node6 -->
<g id="edge5_Node000002_Node000006" class="edge">
<title>Node2&#45;&gt;Node6</title>
<g id="a_edge5_Node000002_Node000006"><a xlink:title=" ">
<path fill="none" stroke="#63b8ff" d="M522.73,-67.03C495.73,-54.42 455.48,-35.61 432.12,-24.7"/>
<polygon fill="#63b8ff" stroke="#63b8ff" points="521.48,-70.31 532.02,-71.37 524.44,-63.97 521.48,-70.31"/>
</a>
</g>
</g>
<!-- Node7 -->
<g id="Node000007" class="node">
<title>Node7</title>
<g id="a_Node000007"><a xlink:href="fuzz__signature_8c.html" target="_top" xlink:title="Fuzzer target for the high&#45;level signature parsing API.">
<polygon fill="white" stroke="#666666" points="610,-24.5 491,-24.5 491,-5.5 610,-5.5 610,-24.5"/>
<text text-anchor="middle" x="550.5" y="-12.5" font-family="Helvetica,sans-Serif" font-size="10.00">fuzz/fuzz_signature.c</text>
</a>
</g>
</g>
<!-- Node2&#45;&gt;Node7 -->
<g id="edge6_Node000002_Node000007" class="edge">
<title>Node2&#45;&gt;Node7</title>
<g id="a_edge6_Node000002_Node000007"><a xlink:title=" ">
<path fill="none" stroke="#63b8ff" d="M550.5,-61.08C550.5,-49.13 550.5,-34.22 550.5,-24.91"/>
<polygon fill="#63b8ff" stroke="#63b8ff" points="547,-61.37 550.5,-71.37 554,-61.37 547,-61.37"/>
</a>
</g>
</g>
<!-- Node8 -->
<g id="Node000008" class="node">
<title>Node8</title>
<g id="a_Node000008"><a xlink:href="fuzz__trampoline_8c.html" target="_top" xlink:title="Fuzzer target for the trampoline generation functions, including shared arena logic.">
<polygon fill="white" stroke="#666666" points="755,-24.5 628,-24.5 628,-5.5 755,-5.5 755,-24.5"/>
<text text-anchor="middle" x="691.5" y="-12.5" font-family="Helvetica,sans-Serif" font-size="10.00">fuzz/fuzz_trampoline.c</text>
</a>
</g>
</g>
<!-- Node2&#45;&gt;Node8 -->
<g id="edge7_Node000002_Node000008" class="edge">
<title>Node2&#45;&gt;Node8</title>
<g id="a_edge7_Node000002_Node000008"><a xlink:title=" ">
<path fill="none" stroke="#63b8ff" d="M578.71,-67.19C606.5,-54.58 648.19,-35.66 672.34,-24.7"/>
<polygon fill="#63b8ff" stroke="#63b8ff" points="577.18,-64.05 569.52,-71.37 580.07,-70.42 577.18,-64.05"/>
</a>
</g>
</g>
<!-- Node9 -->
<g id="Node000009" class="node">
<title>Node9</title>
<g id="a_Node000009"><a xlink:href="fuzz__types_8c.html" target="_top" xlink:title="Fuzzer target for the random type generation logic.">
<polygon fill="white" stroke="#666666" points="874,-24.5 773,-24.5 773,-5.5 874,-5.5 874,-24.5"/>
<text text-anchor="middle" x="823.5" y="-12.5" font-family="Helvetica,sans-Serif" font-size="10.00">fuzz/fuzz_types.c</text>
</a>
</g>
</g>
<!-- Node2&#45;&gt;Node9 -->
<g id="edge8_Node000002_Node000009" class="edge">
<title>Node2&#45;&gt;Node9</title>
<g id="a_edge8_Node000002_Node000009"><a xlink:title=" ">
<path fill="none" stroke="#63b8ff" d="M596.99,-69.1C650.76,-56.49 738.16,-36.01 787.18,-24.51"/>
<polygon fill="#63b8ff" stroke="#63b8ff" points="595.97,-65.74 587.03,-71.44 597.57,-72.56 595.97,-65.74"/>
</a>
</g>
</g>
<!-- Node10 -->
<g id="Node000010" class="node">
<title>Node10</title>
<g id="a_Node000010"><a xlink:href="850__regression__cases_8c.html" target="_top" xlink:title="A suite of regression tests for bugs discovered by fuzzing.">
<polygon fill="white" stroke="#666666" points="1031,-24.5 892,-24.5 892,-5.5 1031,-5.5 1031,-24.5"/>
<text text-anchor="middle" x="961.5" y="-12.5" font-family="Helvetica,sans-Serif" font-size="10.00">t/850_regression_cases.c</text>
</a>
</g>
</g>
<!-- Node2&#45;&gt;Node10 -->
<g id="edge9_Node000002_Node000010" class="edge">
<title>Node2&#45;&gt;Node10</title>
<g id="a_edge9_Node000002_Node000010"><a xlink:title=" ">
<path fill="none" stroke="#63b8ff" d="M615.78,-70.68C682.79,-60.99 790.04,-45.15 882.5,-30 892.81,-28.31 903.86,-26.41 914.33,-24.57"/>
<polygon fill="#63b8ff" stroke="#63b8ff" points="615.19,-67.23 605.79,-72.12 616.19,-74.16 615.19,-67.23"/>
</a>
</g>
</g>
<!-- Node12&#45;&gt;Node11 -->
<g id="edge12_Node000012_Node000011" class="edge">
<title>Node12&#45;&gt;Node11</title>
<g id="a_edge12_Node000012_Node000011"><a xlink:title=" ">
<path fill="none" stroke="#63b8ff" d="M1201.08,-61.51C1180.22,-51.47 1154.83,-39.26 1135.62,-30.01"/>
<polygon fill="#63b8ff" stroke="#63b8ff" points="1199.78,-64.77 1210.31,-65.95 1202.82,-58.46 1199.78,-64.77"/>
</a>
</g>
</g>
<!-- Node13 -->
<g id="Node000013" class="node">
<title>Node13</title>
<g id="a_Node000013"><a xlink:href="abi__arm64__emitters_8c.html" target="_top" xlink:title="Implements internal helper functions for emitting AArch64 machine code.">
<polygon fill="white" stroke="#666666" points="1297,-30 1182,-30 1182,0 1297,0 1297,-30"/>
<text text-anchor="start" x="1190" y="-18" font-family="Helvetica,sans-Serif" font-size="10.00">src/arch/aarch64/abi</text>
<text text-anchor="middle" x="1239.5" y="-7" font-family="Helvetica,sans-Serif" font-size="10.00">_arm64_emitters.c</text>
</a>
</g>
</g>
<!-- Node12&#45;&gt;Node13 -->
<g id="edge13_Node000012_Node000013" class="edge">
<title>Node12&#45;&gt;Node13</title>
<g id="a_edge13_Node000012_Node000013"><a xlink:title=" ">
<path fill="none" stroke="#63b8ff" d="M1239.5,-55.54C1239.5,-46.96 1239.5,-37.61 1239.5,-30.16"/>
<polygon fill="#63b8ff" stroke="#63b8ff" points="1236,-55.8 1239.5,-65.8 1243,-55.8 1236,-55.8"/>
</a>
</g>
</g>
<!-- Node15&#45;&gt;Node14 -->
<g id="edge16_Node000015_Node000014" class="edge">
<title>Node15&#45;&gt;Node14</title>
<g id="a_edge16_Node000015_Node000014"><a xlink:title=" ">
<path fill="none" stroke="#63b8ff" d="M1423.98,-59.75C1410.89,-50.13 1395.57,-38.86 1383.75,-30.16"/>
<polygon fill="#63b8ff" stroke="#63b8ff" points="1422.06,-62.69 1432.19,-65.8 1426.21,-57.05 1422.06,-62.69"/>
</a>
</g>
</g>
<!-- Node16 -->
<g id="Node000016" class="node">
<title>Node16</title>
<g id="a_Node000016"><a xlink:href="abi__riscv64__emitters_8c.html" target="_top" xlink:title="Emits single RISC&#45;V (RV64GC) instructions into a code_buffer.">
<polygon fill="white" stroke="#666666" points="1544.5,-30 1432.5,-30 1432.5,0 1544.5,0 1544.5,-30"/>
<text text-anchor="start" x="1440.5" y="-18" font-family="Helvetica,sans-Serif" font-size="10.00">src/arch/riscv/abi</text>
<text text-anchor="middle" x="1488.5" y="-7" font-family="Helvetica,sans-Serif" font-size="10.00">_riscv64_emitters.c</text>
</a>
</g>
</g>
<!-- Node15&#45;&gt;Node16 -->
<g id="edge17_Node000015_Node000016" class="edge">
<title>Node15&#45;&gt;Node16</title>
<g id="a_edge17_Node000015_Node000016"><a xlink:title=" ">
<path fill="none" stroke="#63b8ff" d="M1464.82,-56.96C1470,-48 1475.76,-38.03 1480.31,-30.16"/>
<polygon fill="#63b8ff" stroke="#63b8ff" points="1461.69,-55.39 1459.71,-65.8 1467.75,-58.89 1461.69,-55.39"/>
</a>
</g>
</g>
<!-- Node19&#45;&gt;Node17 -->
<g id="edge21_Node000019_Node000017" class="edge">
<title>Node19&#45;&gt;Node17</title>
<g id="a_edge21_Node000019_Node000017"><a xlink:title=" ">
<path fill="none" stroke="#63b8ff" d="M1623.5,-55.54C1623.5,-46.96 1623.5,-37.61 1623.5,-30.16"/>
<polygon fill="#63b8ff" stroke="#63b8ff" points="1620,-55.8 1623.5,-65.8 1627,-55.8 1620,-55.8"/>
</a>
</g>
</g>
<!-- Node19&#45;&gt;Node18 -->
<g id="edge22_Node000019_Node000018" class="edge">
<title>Node19&#45;&gt;Node18</title>
<g id="a_edge22_Node000019_Node000018"><a xlink:title=" ">
<path fill="none" stroke="#63b8ff" d="M1692.03,-63.93C1737.02,-53.39 1795.23,-39.74 1838.03,-29.71"/>
<polygon fill="#63b8ff" stroke="#63b8ff" points="1691,-60.58 1682.07,-66.27 1692.6,-67.4 1691,-60.58"/>
</a>
</g>
</g>
<!-- Node20 -->
<g id="Node000020" class="node">
<title>Node20</title>
<g id="a_Node000020"><a xlink:href="abi__x64__emitters_8c.html" target="_top" xlink:title="Implements internal helper functions for emitting x86&#45;64 machine code.">
<polygon fill="white" stroke="#666666" points="1820,-30 1703,-30 1703,0 1820,0 1820,-30"/>
<text text-anchor="start" x="1711" y="-18" font-family="Helvetica,sans-Serif" font-size="10.00">src/arch/x64/abi_x64</text>
<text text-anchor="middle" x="1761.5" y="-7" font-family="Helvetica,sans-Serif" font-size="10.00">_emitters.c</text>
</a>
</g>
</g>
<!-- Node19&#45;&gt;Node20 -->
<g id="edge23_Node000019_Node000020" class="edge">
<title>Node19&#45;&gt;Node20</title>
<g id="a_edge23_Node000019_Node000020"><a xlink:title=" ">
<path fill="none" stroke="#63b8ff" d="M1663.07,-61.65C1684.77,-51.58 1711.26,-39.3 1731.29,-30.01"/>
<polygon fill="#63b8ff" stroke="#63b8ff" points="1661.38,-58.57 1653.78,-65.95 1664.33,-64.92 1661.38,-58.57"/>
</a>
</g>
</g>
<!-- Node22 -->
<g id="Node000022" class="node">
<title>Node22</title>
<g id="a_Node000022"><a xlink:href="infix_8c.html" target="_top" xlink:title="The unity build source file for the infix library.">
<polygon fill="white" stroke="#666666" points="2390,-24.5 2327,-24.5 2327,-5.5 2390,-5.5 2390,-24.5"/>
<text text-anchor="middle" x="2358.5" y="-12.5" font-family="Helvetica,sans-Serif" font-size="10.00">src/infix.c</text>
</a>
</g>
</g>
<!-- Node21&#45;&gt;Node22 -->
<g id="edge25_Node000021_Node000022" class="edge">
<title>Node21&#45;&gt;Node22</title>
<g id="a_edge25_Node000021_Node000022"><a xlink:title=" ">
<path fill="none" stroke="#63b8ff" d="M2405.73,-63.98C2393.56,-51.62 2377.19,-34.99 2367.27,-24.91"/>
<polygon fill="#63b8ff" stroke="#63b8ff" points="2403.49,-66.7 2413,-71.37 2408.48,-61.79 2403.49,-66.7"/>
</a>
</g>
</g>
<!-- Node23&#45;&gt;Node22 -->
<g id="edge27_Node000023_Node000022" class="edge">
<title>Node23&#45;&gt;Node22</title>
<g id="a_edge27_Node000023_Node000022"><a xlink:title=" ">
<path fill="none" stroke="#63b8ff" d="M2506.38,-68C2470.44,-55.36 2414.74,-35.78 2382.95,-24.6"/>
<polygon fill="#63b8ff" stroke="#63b8ff" points="2505.36,-71.35 2515.95,-71.37 2507.68,-64.75 2505.36,-71.35"/>
</a>
</g>
</g>
<!-- Node24&#45;&gt;Node22 -->
<g id="edge29_Node000024_Node000022" class="edge">
<title>Node24&#45;&gt;Node22</title>
<g id="a_edge29_Node000024_Node000022"><a xlink:title=" ">
<path fill="none" stroke="#63b8ff" d="M2609.41,-69.01C2605.05,-67.98 2600.69,-66.95 2596.5,-66 2522.81,-49.22 2435.81,-31.46 2390.14,-22.29"/>
<polygon fill="#63b8ff" stroke="#63b8ff" points="2608.94,-72.5 2619.49,-71.45 2610.59,-65.7 2608.94,-72.5"/>
</a>
</g>
</g>
<!-- Node25&#45;&gt;Node22 -->
<g id="edge31_Node000025_Node000022" class="edge">
<title>Node25&#45;&gt;Node22</title>
<g id="a_edge31_Node000025_Node000022"><a xlink:title=" ">
<path fill="none" stroke="#63b8ff" d="M2723.92,-69C2719.41,-67.91 2714.87,-66.88 2710.5,-66 2593.44,-42.31 2452.23,-25.87 2390.27,-19.25"/>
<polygon fill="#63b8ff" stroke="#63b8ff" points="2723.1,-72.41 2733.65,-71.46 2724.81,-65.62 2723.1,-72.41"/>
</a>
</g>
</g>
<!-- Node26&#45;&gt;Node22 -->
<g id="edge33_Node000026_Node000022" class="edge">
<title>Node26&#45;&gt;Node22</title>
<g id="a_edge33_Node000026_Node000022"><a xlink:title=" ">
<path fill="none" stroke="#63b8ff" d="M2833.1,-69.15C2827.87,-67.98 2822.58,-66.9 2817.5,-66 2658.24,-37.89 2464.93,-23.03 2390.15,-18"/>
<polygon fill="#63b8ff" stroke="#63b8ff" points="2832.47,-72.6 2843,-71.47 2834.06,-65.78 2832.47,-72.6"/>
</a>
</g>
</g>
<!-- Node27&#45;&gt;Node22 -->
<g id="edge35_Node000027_Node000022" class="edge">
<title>Node27&#45;&gt;Node22</title>
<g id="a_edge35_Node000027_Node000022"><a xlink:title=" ">
<path fill="none" stroke="#63b8ff" d="M1840.61,-69.4C1846.93,-68.14 1853.36,-66.97 1859.5,-66 2034.96,-38.4 2247.65,-23.04 2326.82,-17.93"/>
<polygon fill="#63b8ff" stroke="#63b8ff" points="1839.89,-65.98 1830.81,-71.43 1841.31,-72.83 1839.89,-65.98"/>
</a>
</g>
</g>
<!-- Node28&#45;&gt;Node22 -->
<g id="edge37_Node000028_Node000022" class="edge">
<title>Node28&#45;&gt;Node22</title>
<g id="a_edge37_Node000028_Node000022"><a xlink:title=" ">
<path fill="none" stroke="#63b8ff" d="M1986.18,-69.58C1993.01,-68.32 1999.91,-67.1 2006.5,-66 2124.31,-46.35 2265.13,-27.84 2326.87,-19.97"/>
<polygon fill="#63b8ff" stroke="#63b8ff" points="1985.47,-66.16 1976.28,-71.44 1986.76,-73.04 1985.47,-66.16"/>
</a>
</g>
</g>
<!-- Node29&#45;&gt;Node22 -->
<g id="edge39_Node000029_Node000022" class="edge">
<title>Node29&#45;&gt;Node22</title>
<g id="a_edge39_Node000029_Node000022"><a xlink:title=" ">
<path fill="none" stroke="#63b8ff" d="M2105.64,-69.03C2109.98,-67.98 2114.32,-66.96 2118.5,-66 2192.97,-48.94 2281,-31.22 2326.96,-22.16"/>
<polygon fill="#63b8ff" stroke="#63b8ff" points="2104.49,-65.71 2095.61,-71.49 2106.16,-72.51 2104.49,-65.71"/>
</a>
</g>
</g>
<!-- Node30&#45;&gt;Node22 -->
<g id="edge41_Node000030_Node000022" class="edge">
<title>Node30&#45;&gt;Node22</title>
<g id="a_edge41_Node000030_Node000022"><a xlink:title=" ">
<path fill="none" stroke="#63b8ff" d="M2209.81,-68C2245.95,-55.36 2301.95,-35.78 2333.92,-24.6"/>
<polygon fill="#63b8ff" stroke="#63b8ff" points="2208.46,-64.76 2200.18,-71.37 2210.78,-71.37 2208.46,-64.76"/>
</a>
</g>
</g>
<!-- Node31&#45;&gt;Node22 -->
<g id="edge43_Node000031_Node000022" class="edge">
<title>Node31&#45;&gt;Node22</title>
<g id="a_edge43_Node000031_Node000022"><a xlink:title=" ">
<path fill="none" stroke="#63b8ff" d="M2311.27,-63.98C2323.44,-51.62 2339.81,-34.99 2349.73,-24.91"/>
<polygon fill="#63b8ff" stroke="#63b8ff" points="2308.52,-61.79 2304,-71.37 2313.51,-66.7 2308.52,-61.79"/>
</a>
</g>
</g>
</g>
</svg>

<g id="navigator" transform="translate(0 0)" fill="#404254">
  <rect fill="#f2f5e9" fill-opacity="0.5" stroke="#606060" stroke-width=".5" x="0" y="0" width="60" height="60"/>
  <use id="zoomplus" xlink:href="#zoomPlus" x="17" y="9" onmousedown="handleZoom(evt,'in')"/>
  <use id="zoomminus" xlink:href="#zoomMin" x="42" y="9" onmousedown="handleZoom(evt,'out')"/>
  <use id="reset" xlink:href="#resetDef" x="30" y="36" onmousedown="handleReset()"/>
   <use id="arrowup" xlink:href="#arrowUp" x="0" y="0" onmousedown="handlePan(0,-1)"/>
  <use id="arrowright" xlink:href="#arrowRight" x="0" y="0" onmousedown="handlePan(1,0)"/>
  <use id="arrowdown" xlink:href="#arrowDown" x="0" y="0" onmousedown="handlePan(0,1)"/>
  <use id="arrowleft" xlink:href="#arrowLeft" x="0" y="0" onmousedown="handlePan(-1,0)"/>
</g>
<svg viewBox="0 0 15 15" width="100%" height="30px" preserveAspectRatio="xMaxYMin meet">
 <g id="arrow_out" transform="scale(0.3 0.3)">
  <a xlink:href="infix__internals_8h__dep__incl_org.svg" target="_base">
   <rect id="button" ry="5" rx="5" y="6" x="6" height="38" width="38"
        fill="#f2f5e9" fill-opacity="0.5" stroke="#606060" stroke-width="1.0"/>
   <path id="arrow"
     d="M 11.500037,31.436501 C 11.940474,20.09759 22.043105,11.32322 32.158766,21.979434 L 37.068811,17.246167 C 37.068811,17.246167 37.088388,32 37.088388,32 L 22.160133,31.978069 C 22.160133,31.978069 26.997745,27.140456 26.997745,27.140456 C 18.528582,18.264221 13.291696,25.230495 11.500037,31.436501 z"
     style="fill:#404040;"/>
  </a>
 </g>
</svg>

<style type='text/css'>
<![CDATA[
[data-mouse-over-selected='false'] { opacity: 0.7; }
[data-mouse-over-selected='true']  { opacity: 1.0; }
]]>
</style>
<script type="application/ecmascript"><![CDATA[
document.addEventListener('DOMContentLoaded', (event) => {
  highlightEdges();
  highlightAdjacentNodes();
});
]]></script>
</svg>
