<?xml version="1.0" encoding="UTF-8" standalone="no"?>
<!DOCTYPE svg PUBLIC "-//W3C//DTD SVG 1.1//EN"
 "http://www.w3.org/Graphics/SVG/1.1/DTD/svg11.dtd">
<!-- Generated by graphviz version 2.43.0 (0)
 -->
<!-- Title: src/infix.c Pages: 1 -->
<!--zoomable 302 -->

<svg id="main" version="1.1" xmlns="http://www.w3.org/2000/svg" xmlns:xlink="http://www.w3.org/1999/xlink" xml:space="preserve" onload="init(evt)">
<style type="text/css"><![CDATA[
.node, .edge {opacity: 0.7;}
.node.selected, .edge.selected {opacity: 1;}
.edge:hover path { stroke: red; }
.edge:hover polygon { stroke: red; fill: red; }
]]></style>

<defs>
  <circle id="rim" cx="0" cy="0" r="7"/>
  <circle id="rim2" cx="0" cy="0" r="3.5"/>
  <g id="zoomPlus">
    <use xlink:href="#rim" fill="#404040"><set attributeName="fill" to="#808080" begin="zoomplus.mouseover" end="zoomplus.mouseout"/></use>
    <path d="M-4,0h8M0,-4v8" fill="none" stroke="white" stroke-width="1.5" pointer-events="none"/>
  </g>
  <g id="zoomMin">
    <use xlink:href="#rim" fill="#404040"><set attributeName="fill" to="#808080" begin="zoomminus.mouseover" end="zoomminus.mouseout"/></use>
    <path d="M-4,0h8" fill="none" stroke="white" stroke-width="1.5" pointer-events="none"/>
  </g>
  <g id="arrowUp" transform="translate(30 24)">
    <use xlink:href="#rim"/>
    <path pointer-events="none" fill="none" stroke="white" stroke-width="1.5" d="M0,-3.0v7 M-2.5,-0.5L0,-3.0L2.5,-0.5"/>
  </g>
  <g id="arrowRight" transform="rotate(90) translate(36 -43)">
    <use xlink:href="#rim"/>
    <path pointer-events="none" fill="none" stroke="white" stroke-width="1.5" d="M0,-3.0v7 M-2.5,-0.5L0,-3.0L2.5,-0.5"/>
  </g>
  <g id="arrowDown" transform="rotate(180) translate(-30 -48)">
    <use xlink:href="#rim"/>
    <path pointer-events="none" fill="none" stroke="white" stroke-width="1.5" d="M0,-3.0v7 M-2.5,-0.5L0,-3.0L2.5,-0.5"/>
  </g>
  <g id="arrowLeft" transform="rotate(270) translate(-36 17)">
    <use xlink:href="#rim"/>
    <path pointer-events="none" fill="none" stroke="white" stroke-width="1.5" d="M0,-3.0v7 M-2.5,-0.5L0,-3.0L2.5,-0.5"/>
  </g>
  <g id="resetDef">
    <use xlink:href="#rim2" fill="#404040"><set attributeName="fill" to="#808080" begin="reset.mouseover" end="reset.mouseout"/></use>
  </g>
</defs>
<script type="application/ecmascript">
var viewWidth = 1372;
var viewHeight = 302;
var sectionId = 'dynsection-0';
</script>
<script type="application/ecmascript" xlink:href="svg.min.js"/>
<svg id="graph" class="graph">
<g id="viewport">
<title>src/infix.c</title>
<!-- Node1 -->
<g id="Node000001" class="node">
<title>Node1</title>
<g id="a_Node000001"><a xlink:title="The unity build source file for the infix library.">
<polygon fill="#999999" stroke="#666666" points="544.5,-294 481.5,-294 481.5,-275 544.5,-275 544.5,-294"/>
<text text-anchor="middle" x="513" y="-282" font-family="Helvetica,sans-Serif" font-size="10.00">src/infix.c</text>
</a>
</g>
</g>
<!-- Node2 -->
<g id="Node000002" class="node">
<title>Node2</title>
<g id="a_Node000002"><a xlink:href="error_8c.html" target="_top" xlink:title="Implements the thread&#45;local error reporting system.">
<polygon fill="white" stroke="#666666" points="212.5,-239 141.5,-239 141.5,-220 212.5,-220 212.5,-239"/>
<text text-anchor="middle" x="177" y="-227" font-family="Helvetica,sans-Serif" font-size="10.00">core/error.c</text>
</a>
</g>
</g>
<!-- Node1&#45;&gt;Node2 -->
<g id="edge1_Node000001_Node000002" class="edge">
<title>Node1&#45;&gt;Node2</title>
<g id="a_edge1_Node000001_Node000002"><a xlink:title=" ">
<path fill="none" stroke="#63b8ff" d="M481.08,-278.99C429.19,-271.58 323.08,-256.09 222.83,-239.09"/>
<polygon fill="#63b8ff" stroke="#63b8ff" points="223.29,-235.62 212.84,-237.39 222.11,-242.52 223.29,-235.62"/>
</a>
</g>
</g>
<!-- Node12 -->
<g id="Node000012" class="node">
<title>Node12</title>
<g id="a_Node000012"><a xlink:href="arena_8c.html" target="_top" xlink:title="Implementation of the internal arena allocator.">
<polygon fill="white" stroke="#666666" points="551.5,-239 474.5,-239 474.5,-220 551.5,-220 551.5,-239"/>
<text text-anchor="middle" x="513" y="-227" font-family="Helvetica,sans-Serif" font-size="10.00">core/arena.c</text>
</a>
</g>
</g>
<!-- Node1&#45;&gt;Node12 -->
<g id="edge14_Node000001_Node000012" class="edge">
<title>Node1&#45;&gt;Node12</title>
<g id="a_edge14_Node000001_Node000012"><a xlink:title=" ">
<path fill="none" stroke="#63b8ff" d="M513,-274.75C513,-267.8 513,-257.85 513,-249.13"/>
<polygon fill="#63b8ff" stroke="#63b8ff" points="516.5,-249.09 513,-239.09 509.5,-249.09 516.5,-249.09"/>
</a>
</g>
</g>
<!-- Node14 -->
<g id="Node000014" class="node">
<title>Node14</title>
<g id="a_Node000014"><a xlink:href="executor_8c.html" target="_top" xlink:title="Implements OS&#45;level memory management and the internal callback dispatcher.">
<polygon fill="white" stroke="#666666" points="968,-239 878,-239 878,-220 968,-220 968,-239"/>
<text text-anchor="middle" x="923" y="-227" font-family="Helvetica,sans-Serif" font-size="10.00">core/executor.c</text>
</a>
</g>
</g>
<!-- Node1&#45;&gt;Node14 -->
<g id="edge19_Node000001_Node000014" class="edge">
<title>Node1&#45;&gt;Node14</title>
<g id="a_edge19_Node000001_Node000014"><a xlink:title=" ">
<path fill="none" stroke="#63b8ff" d="M544.96,-279.85C605.69,-272.84 742.21,-256.73 867.76,-239.14"/>
<polygon fill="#63b8ff" stroke="#63b8ff" points="868.52,-242.56 877.93,-237.7 867.54,-235.63 868.52,-242.56"/>
</a>
</g>
</g>
<!-- Node23 -->
<g id="Node000023" class="node">
<title>Node23</title>
<g id="a_Node000023"><a xlink:href="type__registry_8c.html" target="_top" xlink:title="Implements the named type registry and definition parser.">
<polygon fill="white" stroke="#666666" points="343,-239 231,-239 231,-220 343,-220 343,-239"/>
<text text-anchor="middle" x="287" y="-227" font-family="Helvetica,sans-Serif" font-size="10.00">core/type_registry.c</text>
</a>
</g>
</g>
<!-- Node1&#45;&gt;Node23 -->
<g id="edge34_Node000001_Node000023" class="edge">
<title>Node1&#45;&gt;Node23</title>
<g id="a_edge34_Node000001_Node000023"><a xlink:title=" ">
<path fill="none" stroke="#63b8ff" d="M481.1,-276.02C442.61,-266.99 377.58,-251.74 333.5,-241.41"/>
<polygon fill="#63b8ff" stroke="#63b8ff" points="334.14,-237.96 323.61,-239.08 332.54,-244.78 334.14,-237.96"/>
</a>
</g>
</g>
<!-- Node25 -->
<g id="Node000025" class="node">
<title>Node25</title>
<g id="a_Node000025"><a xlink:href="signature_8c.html" target="_top" xlink:title="Implements the high&#45;level signature string parser.">
<polygon fill="white" stroke="#666666" points="456.5,-239 361.5,-239 361.5,-220 456.5,-220 456.5,-239"/>
<text text-anchor="middle" x="409" y="-227" font-family="Helvetica,sans-Serif" font-size="10.00">core/signature.c</text>
</a>
</g>
</g>
<!-- Node1&#45;&gt;Node25 -->
<g id="edge38_Node000001_Node000025" class="edge">
<title>Node1&#45;&gt;Node25</title>
<g id="a_edge38_Node000001_Node000025"><a xlink:title=" ">
<path fill="none" stroke="#63b8ff" d="M496.29,-274.98C479.79,-266.57 454.3,-253.59 435.12,-243.81"/>
<polygon fill="#63b8ff" stroke="#63b8ff" points="436.51,-240.59 426.01,-239.17 433.33,-246.83 436.51,-240.59"/>
</a>
</g>
</g>
<!-- Node26 -->
<g id="Node000026" class="node">
<title>Node26</title>
<g id="a_Node000026"><a xlink:href="loader_8c.html" target="_top" xlink:title="Implements the cross&#45;platform dynamic library loading and symbol resolution API.">
<polygon fill="white" stroke="#666666" points="123.5,-239 44.5,-239 44.5,-220 123.5,-220 123.5,-239"/>
<text text-anchor="middle" x="84" y="-227" font-family="Helvetica,sans-Serif" font-size="10.00">core/loader.c</text>
</a>
</g>
</g>
<!-- Node1&#45;&gt;Node26 -->
<g id="edge46_Node000001_Node000026" class="edge">
<title>Node1&#45;&gt;Node26</title>
<g id="a_edge46_Node000001_Node000026"><a xlink:title=" ">
<path fill="none" stroke="#63b8ff" d="M481.39,-280.39C417.74,-274.01 269.32,-258.49 133.71,-239.02"/>
<polygon fill="#63b8ff" stroke="#63b8ff" points="133.95,-235.52 123.55,-237.55 132.95,-242.45 133.95,-235.52"/>
</a>
</g>
</g>
<!-- Node28 -->
<g id="Node000028" class="node">
<title>Node28</title>
<g id="a_Node000028"><a xlink:href="types_8c.html" target="_top" xlink:title="Implements the public API for creating and managing type descriptions.">
<polygon fill="white" stroke="#666666" points="646,-239 570,-239 570,-220 646,-220 646,-239"/>
<text text-anchor="middle" x="608" y="-227" font-family="Helvetica,sans-Serif" font-size="10.00">core/types.c</text>
</a>
</g>
</g>
<!-- Node1&#45;&gt;Node28 -->
<g id="edge49_Node000001_Node000028" class="edge">
<title>Node1&#45;&gt;Node28</title>
<g id="a_edge49_Node000001_Node000028"><a xlink:title=" ">
<path fill="none" stroke="#63b8ff" d="M528.26,-274.98C543.13,-266.69 565.98,-253.94 583.42,-244.22"/>
<polygon fill="#63b8ff" stroke="#63b8ff" points="585.43,-247.1 592.46,-239.17 582.02,-240.99 585.43,-247.1"/>
</a>
</g>
</g>
<!-- Node30 -->
<g id="Node000030" class="node">
<title>Node30</title>
<g id="a_Node000030"><a xlink:href="utility_8c.html" target="_top" xlink:title="Implementation of debugging utility functions.">
<polygon fill="white" stroke="#666666" points="860,-239 784,-239 784,-220 860,-220 860,-239"/>
<text text-anchor="middle" x="822" y="-227" font-family="Helvetica,sans-Serif" font-size="10.00">core/utility.c</text>
</a>
</g>
</g>
<!-- Node1&#45;&gt;Node30 -->
<g id="edge56_Node000001_Node000030" class="edge">
<title>Node1&#45;&gt;Node30</title>
<g id="a_edge56_Node000001_Node000030"><a xlink:title=" ">
<path fill="none" stroke="#63b8ff" d="M544.88,-278.2C592.44,-270.26 685.06,-254.72 773.82,-239.19"/>
<polygon fill="#63b8ff" stroke="#63b8ff" points="774.54,-242.62 783.79,-237.45 773.33,-235.72 774.54,-242.62"/>
</a>
</g>
</g>
<!-- Node31 -->
<g id="Node000031" class="node">
<title>Node31</title>
<g id="a_Node000031"><a xlink:href="trampoline_8c.html" target="_top" xlink:title="The core engine for JIT compiling FFI trampolines.">
<polygon fill="white" stroke="#666666" points="766,-239 664,-239 664,-220 766,-220 766,-239"/>
<text text-anchor="middle" x="715" y="-227" font-family="Helvetica,sans-Serif" font-size="10.00">core/trampoline.c</text>
</a>
</g>
</g>
<!-- Node1&#45;&gt;Node31 -->
<g id="edge57_Node000001_Node000031" class="edge">
<title>Node1&#45;&gt;Node31</title>
<g id="a_edge57_Node000001_Node000031"><a xlink:title=" ">
<path fill="none" stroke="#63b8ff" d="M544.56,-275.22C578.99,-266.19 634.28,-251.68 672.51,-241.65"/>
<polygon fill="#63b8ff" stroke="#63b8ff" points="673.54,-245 682.32,-239.07 671.76,-238.23 673.54,-245"/>
</a>
</g>
</g>
<!-- Node3 -->
<g id="Node000003" class="node">
<title>Node3</title>
<g id="a_Node000003"><a xlink:href="infix__internals_8h.html" target="_top" xlink:title="Declarations for internal&#45;only functions, types, and constants.">
<polygon fill="white" stroke="#666666" points="430,-184 290,-184 290,-165 430,-165 430,-184"/>
<text text-anchor="middle" x="360" y="-172" font-family="Helvetica,sans-Serif" font-size="10.00">common/infix_internals.h</text>
</a>
</g>
</g>
<!-- Node2&#45;&gt;Node3 -->
<g id="edge2_Node000002_Node000003" class="edge">
<title>Node2&#45;&gt;Node3</title>
<g id="a_edge2_Node000002_Node000003"><a xlink:title=" ">
<path fill="none" stroke="#63b8ff" d="M206.4,-219.98C237.39,-211.01 286.38,-196.82 320.67,-186.89"/>
<polygon fill="#63b8ff" stroke="#63b8ff" points="321.74,-190.23 330.37,-184.08 319.79,-183.5 321.74,-190.23"/>
</a>
</g>
</g>
<!-- Node5 -->
<g id="Node000005" class="node">
<title>Node5</title>
<g id="a_Node000005"><a xlink:href="infix_8h.html" target="_top" xlink:title=" ">
<polygon fill="white" stroke="#666666" points="361.5,-129 290.5,-129 290.5,-110 361.5,-110 361.5,-129"/>
<text text-anchor="middle" x="326" y="-117" font-family="Helvetica,sans-Serif" font-size="10.00">infix/infix.h</text>
</a>
</g>
</g>
<!-- Node2&#45;&gt;Node5 -->
<g id="edge11_Node000002_Node000005" class="edge">
<title>Node2&#45;&gt;Node5</title>
<g id="a_edge11_Node000002_Node000005"><a xlink:title=" ">
<path fill="none" stroke="#63b8ff" d="M150.28,-219.98C120.13,-208.99 77.66,-188.47 97,-165 119.77,-137.38 220.29,-126.69 280.32,-122.71"/>
<polygon fill="#63b8ff" stroke="#63b8ff" points="280.55,-126.2 290.31,-122.09 280.11,-119.22 280.55,-126.2"/>
</a>
</g>
</g>
<!-- Node10 -->
<g id="Node000010" class="node">
<title>Node10</title>
<g id="a_Node000010"><a xlink:title=" ">
<polygon fill="#e0e0e0" stroke="#999999" points="162,-184 106,-184 106,-165 162,-165 162,-184"/>
<text text-anchor="middle" x="134" y="-172" font-family="Helvetica,sans-Serif" font-size="10.00">stdarg.h</text>
</a>
</g>
</g>
<!-- Node2&#45;&gt;Node10 -->
<g id="edge12_Node000002_Node000010" class="edge">
<title>Node2&#45;&gt;Node10</title>
<g id="a_edge12_Node000002_Node000010"><a xlink:title=" ">
<path fill="none" stroke="#63b8ff" d="M169.9,-219.75C163.83,-212.26 154.91,-201.28 147.49,-192.13"/>
<polygon fill="#63b8ff" stroke="#63b8ff" points="149.99,-189.65 140.97,-184.09 144.55,-194.06 149.99,-189.65"/>
</a>
</g>
</g>
<!-- Node11 -->
<g id="Node000011" class="node">
<title>Node11</title>
<g id="a_Node000011"><a xlink:title=" ">
<polygon fill="#e0e0e0" stroke="#999999" points="539.5,-184 486.5,-184 486.5,-165 539.5,-165 539.5,-184"/>
<text text-anchor="middle" x="513" y="-172" font-family="Helvetica,sans-Serif" font-size="10.00">string.h</text>
</a>
</g>
</g>
<!-- Node2&#45;&gt;Node11 -->
<g id="edge13_Node000002_Node000011" class="edge">
<title>Node2&#45;&gt;Node11</title>
<g id="a_edge13_Node000002_Node000011"><a xlink:title=" ">
<path fill="none" stroke="#63b8ff" d="M212.84,-221.61C215.94,-221.05 219.02,-220.51 222,-220 313.34,-204.39 421.27,-188.57 476.47,-180.67"/>
<polygon fill="#63b8ff" stroke="#63b8ff" points="477.06,-184.12 486.47,-179.24 476.07,-177.19 477.06,-184.12"/>
</a>
</g>
</g>
<!-- Node4 -->
<g id="Node000004" class="node">
<title>Node4</title>
<g id="a_Node000004"><a xlink:href="infix__config_8h.html" target="_top" xlink:title="Internal&#45;only header for platform, architecture, and ABI detection.">
<polygon fill="white" stroke="#666666" points="506.5,-129 379.5,-129 379.5,-110 506.5,-110 506.5,-129"/>
<text text-anchor="middle" x="443" y="-117" font-family="Helvetica,sans-Serif" font-size="10.00">common/infix_config.h</text>
</a>
</g>
</g>
<!-- Node3&#45;&gt;Node4 -->
<g id="edge3_Node000003_Node000004" class="edge">
<title>Node3&#45;&gt;Node4</title>
<g id="a_edge3_Node000003_Node000004"><a xlink:title=" ">
<path fill="none" stroke="#63b8ff" d="M373.34,-164.98C386.09,-156.84 405.55,-144.41 420.67,-134.76"/>
<polygon fill="#63b8ff" stroke="#63b8ff" points="422.88,-137.5 429.42,-129.17 419.11,-131.6 422.88,-137.5"/>
</a>
</g>
</g>
<!-- Node3&#45;&gt;Node5 -->
<g id="edge4_Node000003_Node000005" class="edge">
<title>Node3&#45;&gt;Node5</title>
<g id="a_edge4_Node000003_Node000005"><a xlink:title=" ">
<path fill="none" stroke="#63b8ff" d="M354.39,-164.75C349.68,-157.42 342.83,-146.73 337.03,-137.7"/>
<polygon fill="#63b8ff" stroke="#63b8ff" points="339.86,-135.62 331.51,-129.09 333.96,-139.4 339.86,-135.62"/>
</a>
</g>
</g>
<!-- Node6 -->
<g id="Node000006" class="node">
<title>Node6</title>
<g id="a_Node000006"><a xlink:title=" ">
<polygon fill="#e0e0e0" stroke="#999999" points="344,-19 282,-19 282,0 344,0 344,-19"/>
<text text-anchor="middle" x="313" y="-7" font-family="Helvetica,sans-Serif" font-size="10.00">stdbool.h</text>
</a>
</g>
</g>
<!-- Node5&#45;&gt;Node6 -->
<g id="edge5_Node000005_Node000006" class="edge">
<title>Node5&#45;&gt;Node6</title>
<g id="a_edge5_Node000005_Node000006"><a xlink:title=" ">
<path fill="none" stroke="#63b8ff" d="M324.94,-109.66C322.83,-92.17 318.09,-52.8 315.26,-29.27"/>
<polygon fill="#63b8ff" stroke="#63b8ff" points="318.71,-28.67 314.04,-19.16 311.76,-29.51 318.71,-28.67"/>
</a>
</g>
</g>
<!-- Node7 -->
<g id="Node000007" class="node">
<title>Node7</title>
<g id="a_Node000007"><a xlink:title=" ">
<polygon fill="#e0e0e0" stroke="#999999" points="529,-19 473,-19 473,0 529,0 529,-19"/>
<text text-anchor="middle" x="501" y="-7" font-family="Helvetica,sans-Serif" font-size="10.00">stddef.h</text>
</a>
</g>
</g>
<!-- Node5&#45;&gt;Node7 -->
<g id="edge6_Node000005_Node000007" class="edge">
<title>Node5&#45;&gt;Node7</title>
<g id="a_edge6_Node000005_Node000007"><a xlink:title=" ">
<path fill="none" stroke="#63b8ff" d="M361.83,-110.2C405.14,-99.87 473.33,-82.56 482,-74 493.89,-62.26 498.4,-43.41 500.09,-29.3"/>
<polygon fill="#63b8ff" stroke="#63b8ff" points="503.58,-29.47 500.91,-19.21 496.61,-28.89 503.58,-29.47"/>
</a>
</g>
</g>
<!-- Node8 -->
<g id="Node000008" class="node">
<title>Node8</title>
<g id="a_Node000008"><a xlink:title=" ">
<polygon fill="#e0e0e0" stroke="#999999" points="599.5,-74 546.5,-74 546.5,-55 599.5,-55 599.5,-74"/>
<text text-anchor="middle" x="573" y="-62" font-family="Helvetica,sans-Serif" font-size="10.00">stdint.h</text>
</a>
</g>
</g>
<!-- Node5&#45;&gt;Node8 -->
<g id="edge7_Node000005_Node000008" class="edge">
<title>Node5&#45;&gt;Node8</title>
<g id="a_edge7_Node000005_Node000008"><a xlink:title=" ">
<path fill="none" stroke="#63b8ff" d="M361.65,-110.85C408.23,-100.86 489.37,-83.45 536.41,-73.35"/>
<polygon fill="#63b8ff" stroke="#63b8ff" points="537.42,-76.71 546.46,-71.19 535.95,-69.87 537.42,-76.71"/>
</a>
</g>
</g>
<!-- Node9 -->
<g id="Node000009" class="node">
<title>Node9</title>
<g id="a_Node000009"><a xlink:href="compat__c23_8h.html" target="_top" xlink:title="Provides compatibility shims for C23 features in a C17/C11 project.">
<polygon fill="white" stroke="#666666" points="472.5,-74 341.5,-74 341.5,-55 472.5,-55 472.5,-74"/>
<text text-anchor="middle" x="407" y="-62" font-family="Helvetica,sans-Serif" font-size="10.00">common/compat_c23.h</text>
</a>
</g>
</g>
<!-- Node5&#45;&gt;Node9 -->
<g id="edge8_Node000005_Node000009" class="edge">
<title>Node5&#45;&gt;Node9</title>
<g id="a_edge8_Node000005_Node000009"><a xlink:title=" ">
<path fill="none" stroke="#63b8ff" d="M339.01,-109.98C351.46,-101.84 370.46,-89.41 385.21,-79.76"/>
<polygon fill="#63b8ff" stroke="#63b8ff" points="387.3,-82.57 393.75,-74.17 383.46,-76.72 387.3,-82.57"/>
</a>
</g>
</g>
<!-- Node9&#45;&gt;Node6 -->
<g id="edge9_Node000009_Node000006" class="edge">
<title>Node9&#45;&gt;Node6</title>
<g id="a_edge9_Node000009_Node000006"><a xlink:title=" ">
<path fill="none" stroke="#63b8ff" d="M391.9,-54.98C377.18,-46.69 354.58,-33.94 337.33,-24.22"/>
<polygon fill="#63b8ff" stroke="#63b8ff" points="338.81,-21.03 328.38,-19.17 335.37,-27.13 338.81,-21.03"/>
</a>
</g>
</g>
<!-- Node9&#45;&gt;Node7 -->
<g id="edge10_Node000009_Node000007" class="edge">
<title>Node9&#45;&gt;Node7</title>
<g id="a_edge10_Node000009_Node000007"><a xlink:title=" ">
<path fill="none" stroke="#63b8ff" d="M422.1,-54.98C436.82,-46.69 459.42,-33.94 476.67,-24.22"/>
<polygon fill="#63b8ff" stroke="#63b8ff" points="478.63,-27.13 485.62,-19.17 475.19,-21.03 478.63,-27.13"/>
</a>
</g>
</g>
<!-- Node12&#45;&gt;Node3 -->
<g id="edge15_Node000012_Node000003" class="edge">
<title>Node12&#45;&gt;Node3</title>
<g id="a_edge15_Node000012_Node000003"><a xlink:title=" ">
<path fill="none" stroke="#63b8ff" d="M488.42,-219.98C462.95,-211.16 422.96,-197.31 394.37,-187.41"/>
<polygon fill="#63b8ff" stroke="#63b8ff" points="395.37,-184.05 384.77,-184.08 393.08,-190.66 395.37,-184.05"/>
</a>
</g>
</g>
<!-- Node12&#45;&gt;Node8 -->
<g id="edge16_Node000012_Node000008" class="edge">
<title>Node12&#45;&gt;Node8</title>
<g id="a_edge16_Node000012_Node000008"><a xlink:title=" ">
<path fill="none" stroke="#63b8ff" d="M502.32,-219.73C489.07,-207.73 469.25,-185.35 478,-165 487.19,-143.63 499.77,-145.67 516,-129 531.09,-113.5 547.51,-95.02 558.83,-82.01"/>
<polygon fill="#63b8ff" stroke="#63b8ff" points="561.58,-84.18 565.47,-74.33 556.28,-79.6 561.58,-84.18"/>
</a>
</g>
</g>
<!-- Node12&#45;&gt;Node11 -->
<g id="edge18_Node000012_Node000011" class="edge">
<title>Node12&#45;&gt;Node11</title>
<g id="a_edge18_Node000012_Node000011"><a xlink:title=" ">
<path fill="none" stroke="#63b8ff" d="M513,-219.75C513,-212.8 513,-202.85 513,-194.13"/>
<polygon fill="#63b8ff" stroke="#63b8ff" points="516.5,-194.09 513,-184.09 509.5,-194.09 516.5,-194.09"/>
</a>
</g>
</g>
<!-- Node13 -->
<g id="Node000013" class="node">
<title>Node13</title>
<g id="a_Node000013"><a xlink:title=" ">
<polygon fill="#e0e0e0" stroke="#999999" points="610.5,-184 557.5,-184 557.5,-165 610.5,-165 610.5,-184"/>
<text text-anchor="middle" x="584" y="-172" font-family="Helvetica,sans-Serif" font-size="10.00">stdlib.h</text>
</a>
</g>
</g>
<!-- Node12&#45;&gt;Node13 -->
<g id="edge17_Node000012_Node000013" class="edge">
<title>Node12&#45;&gt;Node13</title>
<g id="a_edge17_Node000012_Node000013"><a xlink:title=" ">
<path fill="none" stroke="#63b8ff" d="M524.41,-219.98C535.11,-212 551.34,-199.88 564.16,-190.31"/>
<polygon fill="#63b8ff" stroke="#63b8ff" points="566.47,-192.96 572.39,-184.17 562.28,-187.35 566.47,-192.96"/>
</a>
</g>
</g>
<!-- Node14&#45;&gt;Node3 -->
<g id="edge20_Node000014_Node000003" class="edge">
<title>Node14&#45;&gt;Node3</title>
<g id="a_edge20_Node000014_Node000003"><a xlink:title=" ">
<path fill="none" stroke="#63b8ff" d="M877.95,-221.17C874.93,-220.75 871.92,-220.36 869,-220 788.28,-210.13 562.1,-191.57 440.22,-181.83"/>
<polygon fill="#63b8ff" stroke="#63b8ff" points="440.44,-178.34 430.19,-181.03 439.88,-185.32 440.44,-178.34"/>
</a>
</g>
</g>
<!-- Node14&#45;&gt;Node8 -->
<g id="edge33_Node000014_Node000008" class="edge">
<title>Node14&#45;&gt;Node8</title>
<g id="a_edge33_Node000014_Node000008"><a xlink:title=" ">
<path fill="none" stroke="#63b8ff" d="M968.09,-227.44C1070.62,-224.2 1309.41,-211.6 1269,-165 1225.21,-114.5 746.8,-77.57 609.59,-67.96"/>
<polygon fill="#63b8ff" stroke="#63b8ff" points="609.79,-64.47 599.57,-67.27 609.31,-71.45 609.79,-64.47"/>
</a>
</g>
</g>
<!-- Node14&#45;&gt;Node11 -->
<g id="edge26_Node000014_Node000011" class="edge">
<title>Node14&#45;&gt;Node11</title>
<g id="a_edge26_Node000014_Node000011"><a xlink:title=" ">
<path fill="none" stroke="#63b8ff" d="M877.94,-221.26C874.92,-220.82 871.92,-220.39 869,-220 730.35,-201.3 691.73,-208.16 549.62,-183.89"/>
<polygon fill="#63b8ff" stroke="#63b8ff" points="550.11,-180.43 539.66,-182.17 548.92,-187.32 550.11,-180.43"/>
</a>
</g>
</g>
<!-- Node14&#45;&gt;Node13 -->
<g id="edge25_Node000014_Node000013" class="edge">
<title>Node14&#45;&gt;Node13</title>
<g id="a_edge25_Node000014_Node000013"><a xlink:title=" ">
<path fill="none" stroke="#63b8ff" d="M877.93,-221.36C874.91,-220.9 871.91,-220.44 869,-220 761.57,-203.78 731.54,-204.79 620.59,-183.96"/>
<polygon fill="#63b8ff" stroke="#63b8ff" points="621.16,-180.5 610.68,-182.08 619.85,-187.38 621.16,-180.5"/>
</a>
</g>
</g>
<!-- Node15 -->
<g id="Node000015" class="node">
<title>Node15</title>
<g id="a_Node000015"><a xlink:href="utility_8h.html" target="_top" xlink:title="A header for conditionally compiled debugging utilities.">
<polygon fill="white" stroke="#666666" points="866,-184 768,-184 768,-165 866,-165 866,-184"/>
<text text-anchor="middle" x="817" y="-172" font-family="Helvetica,sans-Serif" font-size="10.00">common/utility.h</text>
</a>
</g>
</g>
<!-- Node14&#45;&gt;Node15 -->
<g id="edge21_Node000014_Node000015" class="edge">
<title>Node14&#45;&gt;Node15</title>
<g id="a_edge21_Node000014_Node000015"><a xlink:title=" ">
<path fill="none" stroke="#63b8ff" d="M905.97,-219.98C889.07,-211.54 862.94,-198.47 843.36,-188.68"/>
<polygon fill="#63b8ff" stroke="#63b8ff" points="844.85,-185.51 834.34,-184.17 841.72,-191.77 844.85,-185.51"/>
</a>
</g>
</g>
<!-- Node16 -->
<g id="Node000016" class="node">
<title>Node16</title>
<g id="a_Node000016"><a xlink:title=" ">
<polygon fill="#e0e0e0" stroke="#999999" points="750,-184 700,-184 700,-165 750,-165 750,-184"/>
<text text-anchor="middle" x="725" y="-172" font-family="Helvetica,sans-Serif" font-size="10.00">stdio.h</text>
</a>
</g>
</g>
<!-- Node14&#45;&gt;Node16 -->
<g id="edge24_Node000014_Node000016" class="edge">
<title>Node14&#45;&gt;Node16</title>
<g id="a_edge24_Node000014_Node000016"><a xlink:title=" ">
<path fill="none" stroke="#63b8ff" d="M891.19,-219.98C855.32,-210.38 797.16,-194.82 760.02,-184.87"/>
<polygon fill="#63b8ff" stroke="#63b8ff" points="760.7,-181.43 750.14,-182.23 758.89,-188.2 760.7,-181.43"/>
</a>
</g>
</g>
<!-- Node17 -->
<g id="Node000017" class="node">
<title>Node17</title>
<g id="a_Node000017"><a xlink:title=" ">
<polygon fill="#e0e0e0" stroke="#999999" points="1364,-184 1316,-184 1316,-165 1364,-165 1364,-184"/>
<text text-anchor="middle" x="1340" y="-172" font-family="Helvetica,sans-Serif" font-size="10.00">time.h</text>
</a>
</g>
</g>
<!-- Node14&#45;&gt;Node17 -->
<g id="edge27_Node000014_Node000017" class="edge">
<title>Node14&#45;&gt;Node17</title>
<g id="a_edge27_Node000014_Node000017"><a xlink:title=" ">
<path fill="none" stroke="#63b8ff" d="M968.14,-224.72C1039.39,-218.41 1182.15,-204.38 1302,-184 1303.27,-183.78 1304.57,-183.55 1305.88,-183.31"/>
<polygon fill="#63b8ff" stroke="#63b8ff" points="1306.84,-186.68 1315.95,-181.27 1305.46,-179.82 1306.84,-186.68"/>
</a>
</g>
</g>
<!-- Node18 -->
<g id="Node000018" class="node">
<title>Node18</title>
<g id="a_Node000018"><a xlink:title=" ">
<polygon fill="#e0e0e0" stroke="#999999" points="1104.5,-184 1053.5,-184 1053.5,-165 1104.5,-165 1104.5,-184"/>
<text text-anchor="middle" x="1079" y="-172" font-family="Helvetica,sans-Serif" font-size="10.00">errno.h</text>
</a>
</g>
</g>
<!-- Node14&#45;&gt;Node18 -->
<g id="edge28_Node000014_Node000018" class="edge">
<title>Node14&#45;&gt;Node18</title>
<g id="a_edge28_Node000014_Node000018"><a xlink:title=" ">
<path fill="none" stroke="#63b8ff" d="M948.06,-219.98C974.03,-211.16 1014.81,-197.31 1043.96,-187.41"/>
<polygon fill="#63b8ff" stroke="#63b8ff" points="1045.4,-190.61 1053.74,-184.08 1043.15,-183.99 1045.4,-190.61"/>
</a>
</g>
</g>
<!-- Node19 -->
<g id="Node000019" class="node">
<title>Node19</title>
<g id="a_Node000019"><a xlink:title=" ">
<polygon fill="#e0e0e0" stroke="#999999" points="1169.5,-184 1122.5,-184 1122.5,-165 1169.5,-165 1169.5,-184"/>
<text text-anchor="middle" x="1146" y="-172" font-family="Helvetica,sans-Serif" font-size="10.00">fcntl.h</text>
</a>
</g>
</g>
<!-- Node14&#45;&gt;Node19 -->
<g id="edge29_Node000014_Node000019" class="edge">
<title>Node14&#45;&gt;Node19</title>
<g id="a_edge29_Node000014_Node000019"><a xlink:title=" ">
<path fill="none" stroke="#63b8ff" d="M961.13,-219.98C997.63,-211.74 1054.49,-198.7 1112.23,-184.39"/>
<polygon fill="#63b8ff" stroke="#63b8ff" points="1113.4,-187.71 1122.26,-181.89 1111.71,-180.91 1113.4,-187.71"/>
</a>
</g>
</g>
<!-- Node20 -->
<g id="Node000020" class="node">
<title>Node20</title>
<g id="a_Node000020"><a xlink:title=" ">
<polygon fill="#e0e0e0" stroke="#999999" points="1035.5,-184 958.5,-184 958.5,-165 1035.5,-165 1035.5,-184"/>
<text text-anchor="middle" x="997" y="-172" font-family="Helvetica,sans-Serif" font-size="10.00">sys/mman.h</text>
</a>
</g>
</g>
<!-- Node14&#45;&gt;Node20 -->
<g id="edge30_Node000014_Node000020" class="edge">
<title>Node14&#45;&gt;Node20</title>
<g id="a_edge30_Node000014_Node000020"><a xlink:title=" ">
<path fill="none" stroke="#63b8ff" d="M934.89,-219.98C946.15,-211.92 963.29,-199.65 976.71,-190.03"/>
<polygon fill="#63b8ff" stroke="#63b8ff" points="978.8,-192.84 984.89,-184.17 974.73,-187.15 978.8,-192.84"/>
</a>
</g>
</g>
<!-- Node21 -->
<g id="Node000021" class="node">
<title>Node21</title>
<g id="a_Node000021"><a xlink:title=" ">
<polygon fill="#e0e0e0" stroke="#999999" points="1260,-184 1188,-184 1188,-165 1260,-165 1260,-184"/>
<text text-anchor="middle" x="1224" y="-172" font-family="Helvetica,sans-Serif" font-size="10.00">sys/types.h</text>
</a>
</g>
</g>
<!-- Node14&#45;&gt;Node21 -->
<g id="edge31_Node000014_Node000021" class="edge">
<title>Node14&#45;&gt;Node21</title>
<g id="a_edge31_Node000014_Node000021"><a xlink:title=" ">
<path fill="none" stroke="#63b8ff" d="M968.35,-220.82C1017.45,-212.46 1098.34,-198.56 1177.51,-184.25"/>
<polygon fill="#63b8ff" stroke="#63b8ff" points="1178.44,-187.64 1187.66,-182.41 1177.2,-180.75 1178.44,-187.64"/>
</a>
</g>
</g>
<!-- Node22 -->
<g id="Node000022" class="node">
<title>Node22</title>
<g id="a_Node000022"><a xlink:title=" ">
<polygon fill="#e0e0e0" stroke="#999999" points="940,-184 884,-184 884,-165 940,-165 940,-184"/>
<text text-anchor="middle" x="912" y="-172" font-family="Helvetica,sans-Serif" font-size="10.00">unistd.h</text>
</a>
</g>
</g>
<!-- Node14&#45;&gt;Node22 -->
<g id="edge32_Node000014_Node000022" class="edge">
<title>Node14&#45;&gt;Node22</title>
<g id="a_edge32_Node000014_Node000022"><a xlink:title=" ">
<path fill="none" stroke="#63b8ff" d="M921.18,-219.75C919.74,-212.8 917.68,-202.85 915.87,-194.13"/>
<polygon fill="#63b8ff" stroke="#63b8ff" points="919.24,-193.17 913.78,-184.09 912.39,-194.59 919.24,-193.17"/>
</a>
</g>
</g>
<!-- Node15&#45;&gt;Node7 -->
<g id="edge23_Node000015_Node000007" class="edge">
<title>Node15&#45;&gt;Node7</title>
<g id="a_edge23_Node000015_Node000007"><a xlink:title=" ">
<path fill="none" stroke="#63b8ff" d="M803.21,-164.82C770.33,-144.32 684.43,-91.84 609,-55 584.19,-42.88 555.22,-31.07 533.54,-22.66"/>
<polygon fill="#63b8ff" stroke="#63b8ff" points="534.72,-19.36 524.13,-19.05 532.21,-25.9 534.72,-19.36"/>
</a>
</g>
</g>
<!-- Node15&#45;&gt;Node9 -->
<g id="edge22_Node000015_Node000009" class="edge">
<title>Node15&#45;&gt;Node9</title>
<g id="a_edge22_Node000015_Node000009"><a xlink:title=" ">
<path fill="none" stroke="#63b8ff" d="M784.49,-164.94C710.85,-145.54 531.38,-98.26 449.27,-76.63"/>
<polygon fill="#63b8ff" stroke="#63b8ff" points="450.08,-73.23 439.52,-74.07 448.3,-80 450.08,-73.23"/>
</a>
</g>
</g>
<!-- Node23&#45;&gt;Node3 -->
<g id="edge35_Node000023_Node000003" class="edge">
<title>Node23&#45;&gt;Node3</title>
<g id="a_edge35_Node000023_Node000003"><a xlink:title=" ">
<path fill="none" stroke="#63b8ff" d="M298.73,-219.98C309.73,-212 326.42,-199.88 339.6,-190.31"/>
<polygon fill="#63b8ff" stroke="#63b8ff" points="342.02,-192.88 348.06,-184.17 337.91,-187.21 342.02,-192.88"/>
</a>
</g>
</g>
<!-- Node23&#45;&gt;Node11 -->
<g id="edge37_Node000023_Node000011" class="edge">
<title>Node23&#45;&gt;Node11</title>
<g id="a_edge37_Node000023_Node000011"><a xlink:title=" ">
<path fill="none" stroke="#63b8ff" d="M323.31,-219.98C365.38,-210.12 434.32,-193.95 476.48,-184.06"/>
<polygon fill="#63b8ff" stroke="#63b8ff" points="477.4,-187.44 486.33,-181.75 475.8,-180.63 477.4,-187.44"/>
</a>
</g>
</g>
<!-- Node24 -->
<g id="Node000024" class="node">
<title>Node24</title>
<g id="a_Node000024"><a xlink:title=" ">
<polygon fill="#e0e0e0" stroke="#999999" points="233.5,-184 180.5,-184 180.5,-165 233.5,-165 233.5,-184"/>
<text text-anchor="middle" x="207" y="-172" font-family="Helvetica,sans-Serif" font-size="10.00">ctype.h</text>
</a>
</g>
</g>
<!-- Node23&#45;&gt;Node24 -->
<g id="edge36_Node000023_Node000024" class="edge">
<title>Node23&#45;&gt;Node24</title>
<g id="a_edge36_Node000023_Node000024"><a xlink:title=" ">
<path fill="none" stroke="#63b8ff" d="M274.15,-219.98C261.86,-211.84 243.09,-199.41 228.52,-189.76"/>
<polygon fill="#63b8ff" stroke="#63b8ff" points="230.36,-186.78 220.09,-184.17 226.49,-192.61 230.36,-186.78"/>
</a>
</g>
</g>
<!-- Node25&#45;&gt;Node3 -->
<g id="edge39_Node000025_Node000003" class="edge">
<title>Node25&#45;&gt;Node3</title>
<g id="a_edge39_Node000025_Node000003"><a xlink:title=" ">
<path fill="none" stroke="#63b8ff" d="M400.91,-219.75C393.84,-212.11 383.41,-200.82 374.85,-191.56"/>
<polygon fill="#63b8ff" stroke="#63b8ff" points="377.3,-189.06 367.94,-184.09 372.16,-193.81 377.3,-189.06"/>
</a>
</g>
</g>
<!-- Node25&#45;&gt;Node6 -->
<g id="edge42_Node000025_Node000006" class="edge">
<title>Node25&#45;&gt;Node6</title>
<g id="a_edge42_Node000025_Node000006"><a xlink:title=" ">
<path fill="none" stroke="#63b8ff" d="M369.23,-219.97C335.69,-211.87 291.5,-198.76 281,-184 246.59,-135.61 282.65,-61.01 302.18,-27.65"/>
<polygon fill="#63b8ff" stroke="#63b8ff" points="305.21,-29.41 307.39,-19.04 299.22,-25.78 305.21,-29.41"/>
</a>
</g>
</g>
<!-- Node25&#45;&gt;Node10 -->
<g id="edge41_Node000025_Node000010" class="edge">
<title>Node25&#45;&gt;Node10</title>
<g id="a_edge41_Node000025_Node000010"><a xlink:title=" ">
<path fill="none" stroke="#63b8ff" d="M361.24,-220.03C313.31,-211.42 237.41,-197.45 172,-184 171.9,-183.98 171.8,-183.96 171.7,-183.94"/>
<polygon fill="#63b8ff" stroke="#63b8ff" points="172.71,-180.57 162.2,-181.92 171.25,-187.42 172.71,-180.57"/>
</a>
</g>
</g>
<!-- Node25&#45;&gt;Node11 -->
<g id="edge45_Node000025_Node000011" class="edge">
<title>Node25&#45;&gt;Node11</title>
<g id="a_edge45_Node000025_Node000011"><a xlink:title=" ">
<path fill="none" stroke="#63b8ff" d="M425.71,-219.98C442.21,-211.57 467.7,-198.59 486.88,-188.81"/>
<polygon fill="#63b8ff" stroke="#63b8ff" points="488.67,-191.83 495.99,-184.17 485.49,-185.59 488.67,-191.83"/>
</a>
</g>
</g>
<!-- Node25&#45;&gt;Node13 -->
<g id="edge44_Node000025_Node000013" class="edge">
<title>Node25&#45;&gt;Node13</title>
<g id="a_edge44_Node000025_Node000013"><a xlink:title=" ">
<path fill="none" stroke="#63b8ff" d="M437.12,-219.98C467.15,-210.89 514.86,-196.44 547.71,-186.49"/>
<polygon fill="#63b8ff" stroke="#63b8ff" points="548.83,-189.81 557.39,-183.56 546.8,-183.11 548.83,-189.81"/>
</a>
</g>
</g>
<!-- Node25&#45;&gt;Node16 -->
<g id="edge43_Node000025_Node000016" class="edge">
<title>Node25&#45;&gt;Node16</title>
<g id="a_edge43_Node000025_Node000016"><a xlink:title=" ">
<path fill="none" stroke="#63b8ff" d="M456.56,-221.23C524.66,-210.79 645.84,-192.08 689.77,-184"/>
<polygon fill="#63b8ff" stroke="#63b8ff" points="690.65,-187.4 699.81,-182.06 689.32,-180.52 690.65,-187.4"/>
</a>
</g>
</g>
<!-- Node25&#45;&gt;Node24 -->
<g id="edge40_Node000025_Node000024" class="edge">
<title>Node25&#45;&gt;Node24</title>
<g id="a_edge40_Node000025_Node000024"><a xlink:title=" ">
<path fill="none" stroke="#63b8ff" d="M376.55,-219.98C340.25,-210.46 281.61,-195.08 243.68,-185.12"/>
<polygon fill="#63b8ff" stroke="#63b8ff" points="244.13,-181.62 233.57,-182.47 242.35,-188.39 244.13,-181.62"/>
</a>
</g>
</g>
<!-- Node26&#45;&gt;Node3 -->
<g id="edge47_Node000026_Node000003" class="edge">
<title>Node26&#45;&gt;Node3</title>
<g id="a_edge47_Node000026_Node000003"><a xlink:title=" ">
<path fill="none" stroke="#63b8ff" d="M123.54,-220.91C171.29,-211.74 251.86,-196.27 305.48,-185.97"/>
<polygon fill="#63b8ff" stroke="#63b8ff" points="306.34,-189.37 315.5,-184.05 305.02,-182.49 306.34,-189.37"/>
</a>
</g>
</g>
<!-- Node27 -->
<g id="Node000027" class="node">
<title>Node27</title>
<g id="a_Node000027"><a xlink:title=" ">
<polygon fill="#e0e0e0" stroke="#999999" points="50,-184 0,-184 0,-165 50,-165 50,-184"/>
<text text-anchor="middle" x="25" y="-172" font-family="Helvetica,sans-Serif" font-size="10.00">dlfcn.h</text>
</a>
</g>
</g>
<!-- Node26&#45;&gt;Node27 -->
<g id="edge48_Node000026_Node000027" class="edge">
<title>Node26&#45;&gt;Node27</title>
<g id="a_edge48_Node000026_Node000027"><a xlink:title=" ">
<path fill="none" stroke="#63b8ff" d="M74.52,-219.98C65.8,-212.15 52.66,-200.34 42.1,-190.86"/>
<polygon fill="#63b8ff" stroke="#63b8ff" points="44.43,-188.25 34.65,-184.17 39.75,-193.46 44.43,-188.25"/>
</a>
</g>
</g>
<!-- Node28&#45;&gt;Node3 -->
<g id="edge50_Node000028_Node000003" class="edge">
<title>Node28&#45;&gt;Node3</title>
<g id="a_edge50_Node000028_Node000003"><a xlink:title=" ">
<path fill="none" stroke="#63b8ff" d="M569.79,-220.33C526.88,-211.16 457.08,-196.25 409.9,-186.16"/>
<polygon fill="#63b8ff" stroke="#63b8ff" points="410.4,-182.69 399.89,-184.03 408.94,-189.54 410.4,-182.69"/>
</a>
</g>
</g>
<!-- Node28&#45;&gt;Node11 -->
<g id="edge55_Node000028_Node000011" class="edge">
<title>Node28&#45;&gt;Node11</title>
<g id="a_edge55_Node000028_Node000011"><a xlink:title=" ">
<path fill="none" stroke="#63b8ff" d="M592.74,-219.98C577.87,-211.69 555.02,-198.94 537.58,-189.22"/>
<polygon fill="#63b8ff" stroke="#63b8ff" points="538.98,-185.99 528.54,-184.17 535.57,-192.1 538.98,-185.99"/>
</a>
</g>
</g>
<!-- Node28&#45;&gt;Node13 -->
<g id="edge54_Node000028_Node000013" class="edge">
<title>Node28&#45;&gt;Node13</title>
<g id="a_edge54_Node000028_Node000013"><a xlink:title=" ">
<path fill="none" stroke="#63b8ff" d="M604.04,-219.75C600.79,-212.57 596.08,-202.18 592.05,-193.27"/>
<polygon fill="#63b8ff" stroke="#63b8ff" points="595.2,-191.75 587.89,-184.09 588.83,-194.64 595.2,-191.75"/>
</a>
</g>
</g>
<!-- Node28&#45;&gt;Node15 -->
<g id="edge51_Node000028_Node000015" class="edge">
<title>Node28&#45;&gt;Node15</title>
<g id="a_edge51_Node000028_Node000015"><a xlink:title=" ">
<path fill="none" stroke="#63b8ff" d="M641.58,-219.98C677.35,-210.91 734.12,-196.52 773.34,-186.57"/>
<polygon fill="#63b8ff" stroke="#63b8ff" points="774.32,-189.93 783.16,-184.08 772.6,-183.15 774.32,-189.93"/>
</a>
</g>
</g>
<!-- Node28&#45;&gt;Node16 -->
<g id="edge53_Node000028_Node000016" class="edge">
<title>Node28&#45;&gt;Node16</title>
<g id="a_edge53_Node000028_Node000016"><a xlink:title=" ">
<path fill="none" stroke="#63b8ff" d="M626.8,-219.98C645.62,-211.46 674.82,-198.23 696.5,-188.41"/>
<polygon fill="#63b8ff" stroke="#63b8ff" points="698.2,-191.48 705.86,-184.17 695.31,-185.11 698.2,-191.48"/>
</a>
</g>
</g>
<!-- Node29 -->
<g id="Node000029" class="node">
<title>Node29</title>
<g id="a_Node000029"><a xlink:title=" ">
<polygon fill="#e0e0e0" stroke="#999999" points="681.5,-184 628.5,-184 628.5,-165 681.5,-165 681.5,-184"/>
<text text-anchor="middle" x="655" y="-172" font-family="Helvetica,sans-Serif" font-size="10.00">limits.h</text>
</a>
</g>
</g>
<!-- Node28&#45;&gt;Node29 -->
<g id="edge52_Node000028_Node000029" class="edge">
<title>Node28&#45;&gt;Node29</title>
<g id="a_edge52_Node000028_Node000029"><a xlink:title=" ">
<path fill="none" stroke="#63b8ff" d="M615.76,-219.75C622.47,-212.18 632.34,-201.05 640.51,-191.84"/>
<polygon fill="#63b8ff" stroke="#63b8ff" points="643.37,-193.89 647.38,-184.09 638.13,-189.25 643.37,-193.89"/>
</a>
</g>
</g>
<!-- Node31&#45;&gt;Node3 -->
<g id="edge58_Node000031_Node000003" class="edge">
<title>Node31&#45;&gt;Node3</title>
<g id="a_edge58_Node000031_Node000003"><a xlink:title=" ">
<path fill="none" stroke="#63b8ff" d="M663.76,-220.85C601.48,-211.55 496.2,-195.83 427.4,-185.56"/>
<polygon fill="#63b8ff" stroke="#63b8ff" points="427.51,-182.04 417.11,-184.03 426.48,-188.96 427.51,-182.04"/>
</a>
</g>
</g>
<!-- Node31&#45;&gt;Node11 -->
<g id="edge62_Node000031_Node000011" class="edge">
<title>Node31&#45;&gt;Node11</title>
<g id="a_edge62_Node000031_Node000011"><a xlink:title=" ">
<path fill="none" stroke="#63b8ff" d="M682.55,-219.98C646.25,-210.46 587.61,-195.08 549.68,-185.12"/>
<polygon fill="#63b8ff" stroke="#63b8ff" points="550.13,-181.62 539.57,-182.47 548.35,-188.39 550.13,-181.62"/>
</a>
</g>
</g>
<!-- Node31&#45;&gt;Node13 -->
<g id="edge61_Node000031_Node000013" class="edge">
<title>Node31&#45;&gt;Node13</title>
<g id="a_edge61_Node000031_Node000013"><a xlink:title=" ">
<path fill="none" stroke="#63b8ff" d="M693.95,-219.98C672.59,-211.34 639.3,-197.87 614.94,-188.02"/>
<polygon fill="#63b8ff" stroke="#63b8ff" points="616.01,-184.68 605.43,-184.17 613.39,-191.17 616.01,-184.68"/>
</a>
</g>
</g>
<!-- Node31&#45;&gt;Node15 -->
<g id="edge59_Node000031_Node000015" class="edge">
<title>Node31&#45;&gt;Node15</title>
<g id="a_edge59_Node000031_Node000015"><a xlink:title=" ">
<path fill="none" stroke="#63b8ff" d="M731.39,-219.98C747.57,-211.57 772.57,-198.59 791.38,-188.81"/>
<polygon fill="#63b8ff" stroke="#63b8ff" points="793.05,-191.89 800.31,-184.17 789.83,-185.68 793.05,-191.89"/>
</a>
</g>
</g>
<!-- Node31&#45;&gt;Node16 -->
<g id="edge60_Node000031_Node000016" class="edge">
<title>Node31&#45;&gt;Node16</title>
<g id="a_edge60_Node000031_Node000016"><a xlink:title=" ">
<path fill="none" stroke="#63b8ff" d="M716.65,-219.75C717.96,-212.8 719.84,-202.85 721.48,-194.13"/>
<polygon fill="#63b8ff" stroke="#63b8ff" points="724.96,-194.56 723.38,-184.09 718.09,-193.27 724.96,-194.56"/>
</a>
</g>
</g>
<!-- Node31&#45;&gt;Node20 -->
<g id="edge63_Node000031_Node000020" class="edge">
<title>Node31&#45;&gt;Node20</title>
<g id="a_edge63_Node000031_Node000020"><a xlink:title=" ">
<path fill="none" stroke="#63b8ff" d="M760.31,-219.98C811.69,-210.33 895.16,-194.64 948.02,-184.71"/>
<polygon fill="#63b8ff" stroke="#63b8ff" points="948.98,-188.09 958.16,-182.8 947.68,-181.21 948.98,-188.09"/>
</a>
</g>
</g>
<!-- Node31&#45;&gt;Node22 -->
<g id="edge64_Node000031_Node000022" class="edge">
<title>Node31&#45;&gt;Node22</title>
<g id="a_edge64_Node000031_Node000022"><a xlink:title=" ">
<path fill="none" stroke="#63b8ff" d="M746.65,-219.98C781.35,-210.65 837,-195.68 874.02,-185.72"/>
<polygon fill="#63b8ff" stroke="#63b8ff" points="875.19,-189.03 883.94,-183.05 873.37,-182.27 875.19,-189.03"/>
</a>
</g>
</g>
</g>
</svg>

<g id="navigator" transform="translate(0 0)" fill="#404254">
  <rect fill="#f2f5e9" fill-opacity="0.5" stroke="#606060" stroke-width=".5" x="0" y="0" width="60" height="60"/>
  <use id="zoomplus" xlink:href="#zoomPlus" x="17" y="9" onmousedown="handleZoom(evt,'in')"/>
  <use id="zoomminus" xlink:href="#zoomMin" x="42" y="9" onmousedown="handleZoom(evt,'out')"/>
  <use id="reset" xlink:href="#resetDef" x="30" y="36" onmousedown="handleReset()"/>
   <use id="arrowup" xlink:href="#arrowUp" x="0" y="0" onmousedown="handlePan(0,-1)"/>
  <use id="arrowright" xlink:href="#arrowRight" x="0" y="0" onmousedown="handlePan(1,0)"/>
  <use id="arrowdown" xlink:href="#arrowDown" x="0" y="0" onmousedown="handlePan(0,1)"/>
  <use id="arrowleft" xlink:href="#arrowLeft" x="0" y="0" onmousedown="handlePan(-1,0)"/>
</g>
<svg viewBox="0 0 15 15" width="100%" height="30px" preserveAspectRatio="xMaxYMin meet">
 <g id="arrow_out" transform="scale(0.3 0.3)">
  <a xlink:href="infix_8c__incl_org.svg" target="_base">
   <rect id="button" ry="5" rx="5" y="6" x="6" height="38" width="38"
        fill="#f2f5e9" fill-opacity="0.5" stroke="#606060" stroke-width="1.0"/>
   <path id="arrow"
     d="M 11.500037,31.436501 C 11.940474,20.09759 22.043105,11.32322 32.158766,21.979434 L 37.068811,17.246167 C 37.068811,17.246167 37.088388,32 37.088388,32 L 22.160133,31.978069 C 22.160133,31.978069 26.997745,27.140456 26.997745,27.140456 C 18.528582,18.264221 13.291696,25.230495 11.500037,31.436501 z"
     style="fill:#404040;"/>
  </a>
 </g>
</svg>

<style type='text/css'>
<![CDATA[
[data-mouse-over-selected='false'] { opacity: 0.7; }
[data-mouse-over-selected='true']  { opacity: 1.0; }
]]>
</style>
<script type="application/ecmascript"><![CDATA[
document.addEventListener('DOMContentLoaded', (event) => {
  highlightEdges();
  highlightAdjacentNodes();
});
]]></script>
</svg>
