<?xml version="1.0" encoding="UTF-8" standalone="no"?>
<!DOCTYPE svg PUBLIC "-//W3C//DTD SVG 1.1//EN"
 "http://www.w3.org/Graphics/SVG/1.1/DTD/svg11.dtd">
<!-- Generated by graphviz version 2.43.0 (0)
 -->
<!-- Title: src/infix.c Pages: 1 -->
<svg width="1520pt" height="357pt"
 viewBox="0.00 0.00 1519.50 357.00" xmlns="http://www.w3.org/2000/svg" xmlns:xlink="http://www.w3.org/1999/xlink">
<g id="graph0" class="graph" transform="scale(1 1) rotate(0) translate(4 353)">
<title>src/infix.c</title>
<!-- Node1 -->
<g id="Node000001" class="node">
<title>Node1</title>
<g id="a_Node000001"><a xlink:title="The unity build source file for the infix library.">
<polygon fill="#999999" stroke="#666666" points="602,-349 539,-349 539,-330 602,-330 602,-349"/>
<text text-anchor="middle" x="570.5" y="-337" font-family="Helvetica,sans-Serif" font-size="10.00">src/infix.c</text>
</a>
</g>
</g>
<!-- Node2 -->
<g id="Node000002" class="node">
<title>Node2</title>
<g id="a_Node000002"><a xlink:href="error_8c.html" target="_top" xlink:title="Implements the thread&#45;local error reporting system.">
<polygon fill="white" stroke="#666666" points="419,-294 348,-294 348,-275 419,-275 419,-294"/>
<text text-anchor="middle" x="383.5" y="-282" font-family="Helvetica,sans-Serif" font-size="10.00">core/error.c</text>
</a>
</g>
</g>
<!-- Node1&#45;&gt;Node2 -->
<g id="edge1_Node000001_Node000002" class="edge">
<title>Node1&#45;&gt;Node2</title>
<g id="a_edge1_Node000001_Node000002"><a xlink:title=" ">
<path fill="none" stroke="#63b8ff" d="M540.46,-329.98C508.79,-321.01 458.73,-306.82 423.69,-296.89"/>
<polygon fill="#63b8ff" stroke="#63b8ff" points="424.36,-293.44 413.78,-294.08 422.45,-300.18 424.36,-293.44"/>
</a>
</g>
</g>
<!-- Node15 -->
<g id="Node000015" class="node">
<title>Node15</title>
<g id="a_Node000015"><a xlink:href="arena_8c.html" target="_top" xlink:title="Implements a simple, fast arena (or region&#45;based) allocator.">
<polygon fill="white" stroke="#666666" points="609,-294 532,-294 532,-275 609,-275 609,-294"/>
<text text-anchor="middle" x="570.5" y="-282" font-family="Helvetica,sans-Serif" font-size="10.00">core/arena.c</text>
</a>
</g>
</g>
<!-- Node1&#45;&gt;Node15 -->
<g id="edge21_Node000001_Node000015" class="edge">
<title>Node1&#45;&gt;Node15</title>
<g id="a_edge21_Node000001_Node000015"><a xlink:title=" ">
<path fill="none" stroke="#63b8ff" d="M570.5,-329.75C570.5,-322.8 570.5,-312.85 570.5,-304.13"/>
<polygon fill="#63b8ff" stroke="#63b8ff" points="574,-304.09 570.5,-294.09 567,-304.09 574,-304.09"/>
</a>
</g>
</g>
<!-- Node17 -->
<g id="Node000017" class="node">
<title>Node17</title>
<g id="a_Node000017"><a xlink:href="executor_8c.html" target="_top" xlink:title="Implements platform&#45;specific memory management for JIT code and execution.">
<polygon fill="white" stroke="#666666" points="951,-294 872,-294 872,-275 951,-275 951,-294"/>
<text text-anchor="middle" x="911.5" y="-282" font-family="Helvetica,sans-Serif" font-size="10.00">jit/executor.c</text>
</a>
</g>
</g>
<!-- Node1&#45;&gt;Node17 -->
<g id="edge26_Node000001_Node000017" class="edge">
<title>Node1&#45;&gt;Node17</title>
<g id="a_edge26_Node000001_Node000017"><a xlink:title=" ">
<path fill="none" stroke="#63b8ff" d="M602.27,-333.56C661.84,-324.3 790.69,-304.28 861.83,-293.22"/>
<polygon fill="#63b8ff" stroke="#63b8ff" points="862.54,-296.65 871.89,-291.66 861.47,-289.73 862.54,-296.65"/>
</a>
</g>
</g>
<!-- Node25 -->
<g id="Node000025" class="node">
<title>Node25</title>
<g id="a_Node000025"><a xlink:href="type__registry_8c.html" target="_top" xlink:title="Implements the named type registry system.">
<polygon fill="white" stroke="#666666" points="216.5,-294 104.5,-294 104.5,-275 216.5,-275 216.5,-294"/>
<text text-anchor="middle" x="160.5" y="-282" font-family="Helvetica,sans-Serif" font-size="10.00">core/type_registry.c</text>
</a>
</g>
</g>
<!-- Node1&#45;&gt;Node25 -->
<g id="edge42_Node000001_Node000025" class="edge">
<title>Node1&#45;&gt;Node25</title>
<g id="a_edge42_Node000001_Node000025"><a xlink:title=" ">
<path fill="none" stroke="#63b8ff" d="M538.63,-334.41C479.43,-326.8 348.22,-309.93 226.74,-294.16"/>
<polygon fill="#63b8ff" stroke="#63b8ff" points="226.89,-290.65 216.52,-292.83 225.99,-297.59 226.89,-290.65"/>
</a>
</g>
</g>
<!-- Node27 -->
<g id="Node000027" class="node">
<title>Node27</title>
<g id="a_Node000027"><a xlink:href="signature_8c.html" target="_top" xlink:title="Implements the infix signature string parser and type printer.">
<polygon fill="white" stroke="#666666" points="330,-294 235,-294 235,-275 330,-275 330,-294"/>
<text text-anchor="middle" x="282.5" y="-282" font-family="Helvetica,sans-Serif" font-size="10.00">core/signature.c</text>
</a>
</g>
</g>
<!-- Node1&#45;&gt;Node27 -->
<g id="edge46_Node000001_Node000027" class="edge">
<title>Node1&#45;&gt;Node27</title>
<g id="a_edge46_Node000001_Node000027"><a xlink:title=" ">
<path fill="none" stroke="#63b8ff" d="M538.86,-332.68C490.79,-323.83 398.66,-306.88 338.93,-295.88"/>
<polygon fill="#63b8ff" stroke="#63b8ff" points="339.37,-292.41 328.9,-294.04 338.11,-299.29 339.37,-292.41"/>
</a>
</g>
</g>
<!-- Node28 -->
<g id="Node000028" class="node">
<title>Node28</title>
<g id="a_Node000028"><a xlink:href="loader_8c.html" target="_top" xlink:title="Implements cross&#45;platform dynamic library loading.">
<polygon fill="white" stroke="#666666" points="1048,-294 969,-294 969,-275 1048,-275 1048,-294"/>
<text text-anchor="middle" x="1008.5" y="-282" font-family="Helvetica,sans-Serif" font-size="10.00">core/loader.c</text>
</a>
</g>
</g>
<!-- Node1&#45;&gt;Node28 -->
<g id="edge54_Node000001_Node000028" class="edge">
<title>Node1&#45;&gt;Node28</title>
<g id="a_edge54_Node000001_Node000028"><a xlink:title=" ">
<path fill="none" stroke="#63b8ff" d="M602.18,-335.55C667.16,-329.37 820.41,-314.04 959.02,-294.14"/>
<polygon fill="#63b8ff" stroke="#63b8ff" points="959.58,-297.59 968.98,-292.7 958.58,-290.67 959.58,-297.59"/>
</a>
</g>
</g>
<!-- Node30 -->
<g id="Node000030" class="node">
<title>Node30</title>
<g id="a_Node000030"><a xlink:href="types_8c.html" target="_top" xlink:title="Implements the public API for creating and managing type descriptions.">
<polygon fill="white" stroke="#666666" points="703.5,-294 627.5,-294 627.5,-275 703.5,-275 703.5,-294"/>
<text text-anchor="middle" x="665.5" y="-282" font-family="Helvetica,sans-Serif" font-size="10.00">core/types.c</text>
</a>
</g>
</g>
<!-- Node1&#45;&gt;Node30 -->
<g id="edge57_Node000001_Node000030" class="edge">
<title>Node1&#45;&gt;Node30</title>
<g id="a_edge57_Node000001_Node000030"><a xlink:title=" ">
<path fill="none" stroke="#63b8ff" d="M585.76,-329.98C600.63,-321.69 623.48,-308.94 640.92,-299.22"/>
<polygon fill="#63b8ff" stroke="#63b8ff" points="642.93,-302.1 649.96,-294.17 639.52,-295.99 642.93,-302.1"/>
</a>
</g>
</g>
<!-- Node32 -->
<g id="Node000032" class="node">
<title>Node32</title>
<g id="a_Node000032"><a xlink:href="utility_8c.html" target="_top" xlink:title="Implements internal debugging utilities.">
<polygon fill="white" stroke="#666666" points="1142.5,-294 1066.5,-294 1066.5,-275 1142.5,-275 1142.5,-294"/>
<text text-anchor="middle" x="1104.5" y="-282" font-family="Helvetica,sans-Serif" font-size="10.00">core/utility.c</text>
</a>
</g>
</g>
<!-- Node1&#45;&gt;Node32 -->
<g id="edge64_Node000001_Node000032" class="edge">
<title>Node1&#45;&gt;Node32</title>
<g id="a_edge64_Node000001_Node000032"><a xlink:title=" ">
<path fill="none" stroke="#63b8ff" d="M602.23,-336.57C678.61,-331.71 878.89,-317.76 1056.29,-294.05"/>
<polygon fill="#63b8ff" stroke="#63b8ff" points="1056.88,-297.5 1066.32,-292.69 1055.95,-290.56 1056.88,-297.5"/>
</a>
</g>
</g>
<!-- Node33 -->
<g id="Node000033" class="node">
<title>Node33</title>
<g id="a_Node000033"><a xlink:href="platform_8c.html" target="_top" xlink:title="Implements runtime detection of CPU and OS features.">
<polygon fill="white" stroke="#666666" points="91,-239 0,-239 0,-220 91,-220 91,-239"/>
<text text-anchor="middle" x="45.5" y="-227" font-family="Helvetica,sans-Serif" font-size="10.00">core/platform.c</text>
</a>
</g>
</g>
<!-- Node1&#45;&gt;Node33 -->
<g id="edge65_Node000001_Node000033" class="edge">
<title>Node1&#45;&gt;Node33</title>
<g id="a_edge65_Node000001_Node000033"><a xlink:title=" ">
<path fill="none" stroke="#63b8ff" d="M538.74,-338.73C445.16,-338.92 172.24,-335.79 95.5,-294 76.7,-283.76 62.55,-263.17 54.18,-248.2"/>
<polygon fill="#63b8ff" stroke="#63b8ff" points="57.28,-246.57 49.53,-239.35 51.08,-249.83 57.28,-246.57"/>
</a>
</g>
</g>
<!-- Node34 -->
<g id="Node000034" class="node">
<title>Node34</title>
<g id="a_Node000034"><a xlink:href="cache_8c.html" target="_top" xlink:title="Implements trampoline deduplication and caching.">
<polygon fill="white" stroke="#666666" points="514,-294 437,-294 437,-275 514,-275 514,-294"/>
<text text-anchor="middle" x="475.5" y="-282" font-family="Helvetica,sans-Serif" font-size="10.00">core/cache.c</text>
</a>
</g>
</g>
<!-- Node1&#45;&gt;Node34 -->
<g id="edge69_Node000001_Node000034" class="edge">
<title>Node1&#45;&gt;Node34</title>
<g id="a_edge69_Node000001_Node000034"><a xlink:title=" ">
<path fill="none" stroke="#63b8ff" d="M555.24,-329.98C540.37,-321.69 517.52,-308.94 500.08,-299.22"/>
<polygon fill="#63b8ff" stroke="#63b8ff" points="501.48,-295.99 491.04,-294.17 498.07,-302.1 501.48,-295.99"/>
</a>
</g>
</g>
<!-- Node35 -->
<g id="Node000035" class="node">
<title>Node35</title>
<g id="a_Node000035"><a xlink:href="trampoline_8c.html" target="_top" xlink:title="The core JIT engine for generating forward and reverse trampolines.">
<polygon fill="white" stroke="#666666" points="813,-294 722,-294 722,-275 813,-275 813,-294"/>
<text text-anchor="middle" x="767.5" y="-282" font-family="Helvetica,sans-Serif" font-size="10.00">jit/trampoline.c</text>
</a>
</g>
</g>
<!-- Node1&#45;&gt;Node35 -->
<g id="edge73_Node000001_Node000035" class="edge">
<title>Node1&#45;&gt;Node35</title>
<g id="a_edge73_Node000001_Node000035"><a xlink:title=" ">
<path fill="none" stroke="#63b8ff" d="M602.15,-329.98C635.66,-320.97 688.7,-306.7 725.64,-296.76"/>
<polygon fill="#63b8ff" stroke="#63b8ff" points="726.85,-300.06 735.6,-294.08 725.03,-293.3 726.85,-300.06"/>
</a>
</g>
</g>
<!-- Node3 -->
<g id="Node000003" class="node">
<title>Node3</title>
<g id="a_Node000003"><a xlink:href="infix__internals_8h.html" target="_top" xlink:title="Internal data structures, function prototypes, and constants.">
<polygon fill="white" stroke="#666666" points="542.5,-239 402.5,-239 402.5,-220 542.5,-220 542.5,-239"/>
<text text-anchor="middle" x="472.5" y="-227" font-family="Helvetica,sans-Serif" font-size="10.00">common/infix_internals.h</text>
</a>
</g>
</g>
<!-- Node2&#45;&gt;Node3 -->
<g id="edge2_Node000002_Node000003" class="edge">
<title>Node2&#45;&gt;Node3</title>
<g id="a_edge2_Node000002_Node000003"><a xlink:title=" ">
<path fill="none" stroke="#63b8ff" d="M397.8,-274.98C411.6,-266.77 432.74,-254.18 449.01,-244.49"/>
<polygon fill="#63b8ff" stroke="#63b8ff" points="451.14,-247.29 457.94,-239.17 447.56,-241.28 451.14,-247.29"/>
</a>
</g>
</g>
<!-- Node7 -->
<g id="Node000007" class="node">
<title>Node7</title>
<g id="a_Node000007"><a xlink:href="infix_8h.html" target="_top" xlink:title="The public interface for the infix FFI library.">
<polygon fill="white" stroke="#666666" points="427,-74 356,-74 356,-55 427,-55 427,-74"/>
<text text-anchor="middle" x="391.5" y="-62" font-family="Helvetica,sans-Serif" font-size="10.00">infix/infix.h</text>
</a>
</g>
</g>
<!-- Node2&#45;&gt;Node7 -->
<g id="edge17_Node000002_Node000007" class="edge">
<title>Node2&#45;&gt;Node7</title>
<g id="a_edge17_Node000002_Node000007"><a xlink:title=" ">
<path fill="none" stroke="#63b8ff" d="M362.98,-275C348.48,-267.77 330.15,-255.86 321.5,-239 306.48,-209.74 311.58,-196.36 321.5,-165 332.06,-131.65 358.26,-99.8 375.44,-81.47"/>
<polygon fill="#63b8ff" stroke="#63b8ff" points="378.18,-83.67 382.61,-74.05 373.14,-78.81 378.18,-83.67"/>
</a>
</g>
</g>
<!-- Node12 -->
<g id="Node000012" class="node">
<title>Node12</title>
<g id="a_Node000012"><a xlink:title=" ">
<polygon fill="#e0e0e0" stroke="#999999" points="274.5,-239 218.5,-239 218.5,-220 274.5,-220 274.5,-239"/>
<text text-anchor="middle" x="246.5" y="-227" font-family="Helvetica,sans-Serif" font-size="10.00">stdarg.h</text>
</a>
</g>
</g>
<!-- Node2&#45;&gt;Node12 -->
<g id="edge18_Node000002_Node000012" class="edge">
<title>Node2&#45;&gt;Node12</title>
<g id="a_edge18_Node000002_Node000012"><a xlink:title=" ">
<path fill="none" stroke="#63b8ff" d="M361.49,-274.98C339.05,-266.3 304.02,-252.75 278.51,-242.88"/>
<polygon fill="#63b8ff" stroke="#63b8ff" points="279.5,-239.51 268.91,-239.17 276.98,-246.04 279.5,-239.51"/>
</a>
</g>
</g>
<!-- Node13 -->
<g id="Node000013" class="node">
<title>Node13</title>
<g id="a_Node000013"><a xlink:title=" ">
<polygon fill="#e0e0e0" stroke="#999999" points="791.5,-239 741.5,-239 741.5,-220 791.5,-220 791.5,-239"/>
<text text-anchor="middle" x="766.5" y="-227" font-family="Helvetica,sans-Serif" font-size="10.00">stdio.h</text>
</a>
</g>
</g>
<!-- Node2&#45;&gt;Node13 -->
<g id="edge19_Node000002_Node000013" class="edge">
<title>Node2&#45;&gt;Node13</title>
<g id="a_edge19_Node000002_Node000013"><a xlink:title=" ">
<path fill="none" stroke="#63b8ff" d="M419,-276.41C421.87,-275.91 424.73,-275.43 427.5,-275 559.22,-254.53 596.5,-263.17 731.44,-238.97"/>
<polygon fill="#63b8ff" stroke="#63b8ff" points="732.12,-242.41 741.33,-237.17 730.86,-235.52 732.12,-242.41"/>
</a>
</g>
</g>
<!-- Node14 -->
<g id="Node000014" class="node">
<title>Node14</title>
<g id="a_Node000014"><a xlink:title=" ">
<polygon fill="#e0e0e0" stroke="#999999" points="384,-239 331,-239 331,-220 384,-220 384,-239"/>
<text text-anchor="middle" x="357.5" y="-227" font-family="Helvetica,sans-Serif" font-size="10.00">string.h</text>
</a>
</g>
</g>
<!-- Node2&#45;&gt;Node14 -->
<g id="edge20_Node000002_Node000014" class="edge">
<title>Node2&#45;&gt;Node14</title>
<g id="a_edge20_Node000002_Node000014"><a xlink:title=" ">
<path fill="none" stroke="#63b8ff" d="M379.21,-274.75C375.69,-267.57 370.59,-257.18 366.22,-248.27"/>
<polygon fill="#63b8ff" stroke="#63b8ff" points="369.26,-246.53 361.71,-239.09 362.98,-249.61 369.26,-246.53"/>
</a>
</g>
</g>
<!-- Node4 -->
<g id="Node000004" class="node">
<title>Node4</title>
<g id="a_Node000004"><a xlink:href="infix__config_8h.html" target="_top" xlink:title="Platform, architecture, and ABI detection macros.">
<polygon fill="white" stroke="#666666" points="649,-74 522,-74 522,-55 649,-55 649,-74"/>
<text text-anchor="middle" x="585.5" y="-62" font-family="Helvetica,sans-Serif" font-size="10.00">common/infix_config.h</text>
</a>
</g>
</g>
<!-- Node3&#45;&gt;Node4 -->
<g id="edge3_Node000003_Node000004" class="edge">
<title>Node3&#45;&gt;Node4</title>
<g id="a_edge3_Node000003_Node000004"><a xlink:title=" ">
<path fill="none" stroke="#63b8ff" d="M485.88,-219.95C508.5,-204.69 553.94,-170.47 575.5,-129 582.67,-115.21 585,-97.64 585.63,-84.48"/>
<polygon fill="#63b8ff" stroke="#63b8ff" points="589.13,-84.32 585.83,-74.25 582.13,-84.18 589.13,-84.32"/>
</a>
</g>
</g>
<!-- Node5 -->
<g id="Node000005" class="node">
<title>Node5</title>
<g id="a_Node000005"><a xlink:href="platform_8h.html" target="_top" xlink:title="Declares internal, runtime CPU/OS feature detection functions.">
<polygon fill="white" stroke="#666666" points="444,-184 331,-184 331,-165 444,-165 444,-184"/>
<text text-anchor="middle" x="387.5" y="-172" font-family="Helvetica,sans-Serif" font-size="10.00">common/platform.h</text>
</a>
</g>
</g>
<!-- Node3&#45;&gt;Node5 -->
<g id="edge4_Node000003_Node000005" class="edge">
<title>Node3&#45;&gt;Node5</title>
<g id="a_edge4_Node000003_Node000005"><a xlink:title=" ">
<path fill="none" stroke="#63b8ff" d="M458.84,-219.98C445.66,-211.77 425.47,-199.18 409.93,-189.49"/>
<polygon fill="#63b8ff" stroke="#63b8ff" points="411.74,-186.49 401.41,-184.17 408.04,-192.43 411.74,-186.49"/>
</a>
</g>
</g>
<!-- Node3&#45;&gt;Node7 -->
<g id="edge15_Node000003_Node000007" class="edge">
<title>Node3&#45;&gt;Node7</title>
<g id="a_edge15_Node000003_Node000007"><a xlink:title=" ">
<path fill="none" stroke="#63b8ff" d="M471.5,-219.95C469.64,-207.02 464.66,-182.17 452.5,-165 437.09,-143.24 418.77,-151.53 404.5,-129 396.02,-115.62 392.94,-97.75 391.88,-84.38"/>
<polygon fill="#63b8ff" stroke="#63b8ff" points="395.36,-83.83 391.38,-74.01 388.36,-84.17 395.36,-83.83"/>
</a>
</g>
</g>
<!-- Node11 -->
<g id="Node000011" class="node">
<title>Node11</title>
<g id="a_Node000011"><a xlink:title=" ">
<polygon fill="#e0e0e0" stroke="#999999" points="649,-184 586,-184 586,-165 649,-165 649,-184"/>
<text text-anchor="middle" x="617.5" y="-172" font-family="Helvetica,sans-Serif" font-size="10.00">pthread.h</text>
</a>
</g>
</g>
<!-- Node3&#45;&gt;Node11 -->
<g id="edge16_Node000003_Node000011" class="edge">
<title>Node3&#45;&gt;Node11</title>
<g id="a_edge16_Node000003_Node000011"><a xlink:title=" ">
<path fill="none" stroke="#63b8ff" d="M495.8,-219.98C519.75,-211.23 557.28,-197.51 584.33,-187.62"/>
<polygon fill="#63b8ff" stroke="#63b8ff" points="585.59,-190.89 593.78,-184.17 583.19,-184.32 585.59,-190.89"/>
</a>
</g>
</g>
<!-- Node5&#45;&gt;Node4 -->
<g id="edge13_Node000005_Node000004" class="edge">
<title>Node5&#45;&gt;Node4</title>
<g id="a_edge13_Node000005_Node000004"><a xlink:title=" ">
<path fill="none" stroke="#63b8ff" d="M444.37,-170.17C479.48,-165.46 523.57,-154.45 554.5,-129 568.39,-117.57 576.54,-98.4 580.97,-84.11"/>
<polygon fill="#63b8ff" stroke="#63b8ff" points="584.38,-84.91 583.66,-74.34 577.63,-83.05 584.38,-84.91"/>
</a>
</g>
</g>
<!-- Node6 -->
<g id="Node000006" class="node">
<title>Node6</title>
<g id="a_Node000006"><a xlink:href="compat__c23_8h.html" target="_top" xlink:title="Provides forward compatibility macros for C23 features.">
<polygon fill="white" stroke="#666666" points="545,-129 414,-129 414,-110 545,-110 545,-129"/>
<text text-anchor="middle" x="479.5" y="-117" font-family="Helvetica,sans-Serif" font-size="10.00">common/compat_c23.h</text>
</a>
</g>
</g>
<!-- Node5&#45;&gt;Node6 -->
<g id="edge5_Node000005_Node000006" class="edge">
<title>Node5&#45;&gt;Node6</title>
<g id="a_edge5_Node000005_Node000006"><a xlink:title=" ">
<path fill="none" stroke="#63b8ff" d="M402.28,-164.98C416.68,-156.69 438.81,-143.94 455.69,-134.22"/>
<polygon fill="#63b8ff" stroke="#63b8ff" points="457.53,-137.19 464.45,-129.17 454.04,-131.13 457.53,-137.19"/>
</a>
</g>
</g>
<!-- Node8 -->
<g id="Node000008" class="node">
<title>Node8</title>
<g id="a_Node000008"><a xlink:title=" ">
<polygon fill="#e0e0e0" stroke="#999999" points="363.5,-19 301.5,-19 301.5,0 363.5,0 363.5,-19"/>
<text text-anchor="middle" x="332.5" y="-7" font-family="Helvetica,sans-Serif" font-size="10.00">stdbool.h</text>
</a>
</g>
</g>
<!-- Node5&#45;&gt;Node8 -->
<g id="edge14_Node000005_Node000008" class="edge">
<title>Node5&#45;&gt;Node8</title>
<g id="a_edge14_Node000005_Node000008"><a xlink:title=" ">
<path fill="none" stroke="#63b8ff" d="M383.36,-164.9C375.3,-147.89 357.35,-108.58 346.5,-74 341.85,-59.17 338.15,-41.93 335.73,-29.15"/>
<polygon fill="#63b8ff" stroke="#63b8ff" points="339.16,-28.47 333.93,-19.25 332.27,-29.72 339.16,-28.47"/>
</a>
</g>
</g>
<!-- Node6&#45;&gt;Node4 -->
<g id="edge6_Node000006_Node000004" class="edge">
<title>Node6&#45;&gt;Node4</title>
<g id="a_edge6_Node000006_Node000004"><a xlink:title=" ">
<path fill="none" stroke="#63b8ff" d="M496.53,-109.98C513.43,-101.54 539.56,-88.47 559.14,-78.68"/>
<polygon fill="#63b8ff" stroke="#63b8ff" points="560.78,-81.77 568.16,-74.17 557.65,-75.51 560.78,-81.77"/>
</a>
</g>
</g>
<!-- Node6&#45;&gt;Node7 -->
<g id="edge7_Node000006_Node000007" class="edge">
<title>Node6&#45;&gt;Node7</title>
<g id="a_edge7_Node000006_Node000007"><a xlink:title=" ">
<path fill="none" stroke="#63b8ff" d="M465.36,-109.98C451.71,-101.77 430.81,-89.18 414.72,-79.49"/>
<polygon fill="#63b8ff" stroke="#63b8ff" points="416.27,-76.33 405.9,-74.17 412.66,-82.33 416.27,-76.33"/>
</a>
</g>
</g>
<!-- Node6&#45;&gt;Node8 -->
<g id="edge11_Node000006_Node000008" class="edge">
<title>Node6&#45;&gt;Node8</title>
<g id="a_edge11_Node000006_Node000008"><a xlink:title=" ">
<path fill="none" stroke="#63b8ff" d="M475.55,-109.97C468.97,-96.6 454.59,-70.64 435.5,-55 417.37,-40.15 393.53,-29.43 373.35,-22.24"/>
<polygon fill="#63b8ff" stroke="#63b8ff" points="374.38,-18.89 363.78,-18.99 372.13,-25.52 374.38,-18.89"/>
</a>
</g>
</g>
<!-- Node9 -->
<g id="Node000009" class="node">
<title>Node9</title>
<g id="a_Node000009"><a xlink:title=" ">
<polygon fill="#e0e0e0" stroke="#999999" points="521.5,-19 465.5,-19 465.5,0 521.5,0 521.5,-19"/>
<text text-anchor="middle" x="493.5" y="-7" font-family="Helvetica,sans-Serif" font-size="10.00">stddef.h</text>
</a>
</g>
</g>
<!-- Node6&#45;&gt;Node9 -->
<g id="edge12_Node000006_Node000009" class="edge">
<title>Node6&#45;&gt;Node9</title>
<g id="a_edge12_Node000006_Node000009"><a xlink:title=" ">
<path fill="none" stroke="#63b8ff" d="M480.65,-109.66C482.91,-92.17 488.02,-52.8 491.07,-29.27"/>
<polygon fill="#63b8ff" stroke="#63b8ff" points="494.56,-29.53 492.38,-19.16 487.62,-28.63 494.56,-29.53"/>
</a>
</g>
</g>
<!-- Node7&#45;&gt;Node8 -->
<g id="edge8_Node000007_Node000008" class="edge">
<title>Node7&#45;&gt;Node8</title>
<g id="a_edge8_Node000007_Node000008"><a xlink:title=" ">
<path fill="none" stroke="#63b8ff" d="M382.02,-54.98C373.3,-47.15 360.16,-35.34 349.6,-25.86"/>
<polygon fill="#63b8ff" stroke="#63b8ff" points="351.93,-23.25 342.15,-19.17 347.25,-28.46 351.93,-23.25"/>
</a>
</g>
</g>
<!-- Node7&#45;&gt;Node9 -->
<g id="edge9_Node000007_Node000009" class="edge">
<title>Node7&#45;&gt;Node9</title>
<g id="a_edge9_Node000007_Node000009"><a xlink:title=" ">
<path fill="none" stroke="#63b8ff" d="M407.89,-54.98C424.07,-46.57 449.07,-33.59 467.88,-23.81"/>
<polygon fill="#63b8ff" stroke="#63b8ff" points="469.55,-26.89 476.81,-19.17 466.33,-20.68 469.55,-26.89"/>
</a>
</g>
</g>
<!-- Node10 -->
<g id="Node000010" class="node">
<title>Node10</title>
<g id="a_Node000010"><a xlink:title=" ">
<polygon fill="#e0e0e0" stroke="#999999" points="443,-19 390,-19 390,0 443,0 443,-19"/>
<text text-anchor="middle" x="416.5" y="-7" font-family="Helvetica,sans-Serif" font-size="10.00">stdint.h</text>
</a>
</g>
</g>
<!-- Node7&#45;&gt;Node10 -->
<g id="edge10_Node000007_Node000010" class="edge">
<title>Node7&#45;&gt;Node10</title>
<g id="a_edge10_Node000007_Node000010"><a xlink:title=" ">
<path fill="none" stroke="#63b8ff" d="M395.63,-54.75C399.01,-47.57 403.92,-37.18 408.12,-28.27"/>
<polygon fill="#63b8ff" stroke="#63b8ff" points="411.35,-29.63 412.45,-19.09 405.02,-26.64 411.35,-29.63"/>
</a>
</g>
</g>
<!-- Node15&#45;&gt;Node3 -->
<g id="edge22_Node000015_Node000003" class="edge">
<title>Node15&#45;&gt;Node3</title>
<g id="a_edge22_Node000015_Node000003"><a xlink:title=" ">
<path fill="none" stroke="#63b8ff" d="M554.75,-274.98C539.27,-266.61 515.41,-253.7 497.36,-243.95"/>
<polygon fill="#63b8ff" stroke="#63b8ff" points="498.99,-240.85 488.53,-239.17 495.66,-247.01 498.99,-240.85"/>
</a>
</g>
</g>
<!-- Node15&#45;&gt;Node10 -->
<g id="edge23_Node000015_Node000010" class="edge">
<title>Node15&#45;&gt;Node10</title>
<g id="a_edge23_Node000015_Node000010"><a xlink:title=" ">
<path fill="none" stroke="#63b8ff" d="M571.17,-274.7C572.61,-261.44 577.04,-236.16 590.5,-220 612.39,-193.72 640.86,-213.3 658.5,-184 688.07,-134.88 695.31,-98.95 658.5,-55 629.22,-20.04 501.25,-27.74 456.5,-19 455.42,-18.79 454.32,-18.57 453.22,-18.35"/>
<polygon fill="#63b8ff" stroke="#63b8ff" points="453.65,-14.87 443.16,-16.29 452.25,-21.73 453.65,-14.87"/>
</a>
</g>
</g>
<!-- Node15&#45;&gt;Node14 -->
<g id="edge25_Node000015_Node000014" class="edge">
<title>Node15&#45;&gt;Node14</title>
<g id="a_edge25_Node000015_Node000014"><a xlink:title=" ">
<path fill="none" stroke="#63b8ff" d="M536.28,-274.98C497.33,-265.29 433.97,-249.53 394.07,-239.6"/>
<polygon fill="#63b8ff" stroke="#63b8ff" points="394.77,-236.17 384.22,-237.15 393.08,-242.96 394.77,-236.17"/>
</a>
</g>
</g>
<!-- Node16 -->
<g id="Node000016" class="node">
<title>Node16</title>
<g id="a_Node000016"><a xlink:title=" ">
<polygon fill="#e0e0e0" stroke="#999999" points="652,-239 599,-239 599,-220 652,-220 652,-239"/>
<text text-anchor="middle" x="625.5" y="-227" font-family="Helvetica,sans-Serif" font-size="10.00">stdlib.h</text>
</a>
</g>
</g>
<!-- Node15&#45;&gt;Node16 -->
<g id="edge24_Node000015_Node000016" class="edge">
<title>Node15&#45;&gt;Node16</title>
<g id="a_edge24_Node000015_Node000016"><a xlink:title=" ">
<path fill="none" stroke="#63b8ff" d="M579.58,-274.75C587.59,-267.03 599.46,-255.6 609.12,-246.28"/>
<polygon fill="#63b8ff" stroke="#63b8ff" points="611.81,-248.55 616.59,-239.09 606.96,-243.51 611.81,-248.55"/>
</a>
</g>
</g>
<!-- Node17&#45;&gt;Node3 -->
<g id="edge27_Node000017_Node000003" class="edge">
<title>Node17&#45;&gt;Node3</title>
<g id="a_edge27_Node000017_Node000003"><a xlink:title=" ">
<path fill="none" stroke="#63b8ff" d="M871.77,-278.7C799.88,-270.02 646.95,-251.56 552.62,-240.17"/>
<polygon fill="#63b8ff" stroke="#63b8ff" points="552.89,-236.68 542.54,-238.96 552.05,-243.63 552.89,-236.68"/>
</a>
</g>
</g>
<!-- Node17&#45;&gt;Node10 -->
<g id="edge41_Node000017_Node000010" class="edge">
<title>Node17&#45;&gt;Node10</title>
<g id="a_edge41_Node000017_Node000010"><a xlink:title=" ">
<path fill="none" stroke="#63b8ff" d="M951.04,-276.38C954.24,-275.89 957.42,-275.42 960.5,-275 1041.48,-264.01 1256.73,-281.56 1326.5,-239 1355.18,-221.51 1367.5,-209.09 1367.5,-175.5 1367.5,-175.5 1367.5,-175.5 1367.5,-118.5 1367.5,-16.68 557.04,-35.13 456.5,-19 455.41,-18.83 454.31,-18.64 453.2,-18.45"/>
<polygon fill="#63b8ff" stroke="#63b8ff" points="453.59,-14.96 443.11,-16.54 452.29,-21.84 453.59,-14.96"/>
</a>
</g>
</g>
<!-- Node17&#45;&gt;Node11 -->
<g id="edge37_Node000017_Node000011" class="edge">
<title>Node17&#45;&gt;Node11</title>
<g id="a_edge37_Node000017_Node000011"><a xlink:title=" ">
<path fill="none" stroke="#63b8ff" d="M951.04,-276.4C954.24,-275.9 957.42,-275.42 960.5,-275 1038.49,-264.24 1364.36,-277.43 1310.5,-220 1288.15,-196.17 806.53,-180.78 659.65,-176.63"/>
<polygon fill="#63b8ff" stroke="#63b8ff" points="659.36,-173.12 649.26,-176.34 659.16,-180.12 659.36,-173.12"/>
</a>
</g>
</g>
<!-- Node17&#45;&gt;Node13 -->
<g id="edge31_Node000017_Node000013" class="edge">
<title>Node17&#45;&gt;Node13</title>
<g id="a_edge31_Node000017_Node000013"><a xlink:title=" ">
<path fill="none" stroke="#63b8ff" d="M888.2,-274.98C864.25,-266.23 826.72,-252.51 799.67,-242.62"/>
<polygon fill="#63b8ff" stroke="#63b8ff" points="800.81,-239.32 790.22,-239.17 798.41,-245.89 800.81,-239.32"/>
</a>
</g>
</g>
<!-- Node17&#45;&gt;Node14 -->
<g id="edge33_Node000017_Node000014" class="edge">
<title>Node17&#45;&gt;Node14</title>
<g id="a_edge33_Node000017_Node000014"><a xlink:title=" ">
<path fill="none" stroke="#63b8ff" d="M871.64,-279.59C856.28,-278.12 838.58,-276.44 822.5,-275 635.19,-258.2 584.19,-268.69 394.19,-238.85"/>
<polygon fill="#63b8ff" stroke="#63b8ff" points="394.57,-235.37 384.15,-237.26 393.48,-242.28 394.57,-235.37"/>
</a>
</g>
</g>
<!-- Node17&#45;&gt;Node16 -->
<g id="edge32_Node000017_Node000016" class="edge">
<title>Node17&#45;&gt;Node16</title>
<g id="a_edge32_Node000017_Node000016"><a xlink:title=" ">
<path fill="none" stroke="#63b8ff" d="M871.97,-277.16C824.6,-269.41 742.61,-255.52 662.47,-239.1"/>
<polygon fill="#63b8ff" stroke="#63b8ff" points="662.7,-235.57 652.2,-236.98 661.29,-242.43 662.7,-235.57"/>
</a>
</g>
</g>
<!-- Node18 -->
<g id="Node000018" class="node">
<title>Node18</title>
<g id="a_Node000018"><a xlink:href="utility_8h.html" target="_top" xlink:title="A header for conditionally compiled debugging utilities.">
<polygon fill="white" stroke="#666666" points="907.5,-239 809.5,-239 809.5,-220 907.5,-220 907.5,-239"/>
<text text-anchor="middle" x="858.5" y="-227" font-family="Helvetica,sans-Serif" font-size="10.00">common/utility.h</text>
</a>
</g>
</g>
<!-- Node17&#45;&gt;Node18 -->
<g id="edge28_Node000017_Node000018" class="edge">
<title>Node17&#45;&gt;Node18</title>
<g id="a_edge28_Node000017_Node000018"><a xlink:title=" ">
<path fill="none" stroke="#63b8ff" d="M902.75,-274.75C895.03,-267.03 883.6,-255.6 874.28,-246.28"/>
<polygon fill="#63b8ff" stroke="#63b8ff" points="876.64,-243.69 867.09,-239.09 871.69,-248.64 876.64,-243.69"/>
</a>
</g>
</g>
<!-- Node19 -->
<g id="Node000019" class="node">
<title>Node19</title>
<g id="a_Node000019"><a xlink:title=" ">
<polygon fill="#e0e0e0" stroke="#999999" points="1443.5,-239 1395.5,-239 1395.5,-220 1443.5,-220 1443.5,-239"/>
<text text-anchor="middle" x="1419.5" y="-227" font-family="Helvetica,sans-Serif" font-size="10.00">time.h</text>
</a>
</g>
</g>
<!-- Node17&#45;&gt;Node19 -->
<g id="edge34_Node000017_Node000019" class="edge">
<title>Node17&#45;&gt;Node19</title>
<g id="a_edge34_Node000017_Node000019"><a xlink:title=" ">
<path fill="none" stroke="#63b8ff" d="M951.04,-276.34C954.23,-275.85 957.42,-275.4 960.5,-275 1146.74,-250.93 1195.89,-267.56 1381.5,-239 1382.78,-238.8 1384.08,-238.59 1385.39,-238.36"/>
<polygon fill="#63b8ff" stroke="#63b8ff" points="1386.33,-241.74 1395.47,-236.39 1384.98,-234.87 1386.33,-241.74"/>
</a>
</g>
</g>
<!-- Node20 -->
<g id="Node000020" class="node">
<title>Node20</title>
<g id="a_Node000020"><a xlink:title=" ">
<polygon fill="#e0e0e0" stroke="#999999" points="1146,-239 1095,-239 1095,-220 1146,-220 1146,-239"/>
<text text-anchor="middle" x="1120.5" y="-227" font-family="Helvetica,sans-Serif" font-size="10.00">errno.h</text>
</a>
</g>
</g>
<!-- Node17&#45;&gt;Node20 -->
<g id="edge35_Node000017_Node000020" class="edge">
<title>Node17&#45;&gt;Node20</title>
<g id="a_edge35_Node000017_Node000020"><a xlink:title=" ">
<path fill="none" stroke="#63b8ff" d="M945.08,-274.98C983.42,-265.26 1045.89,-249.42 1085.01,-239.5"/>
<polygon fill="#63b8ff" stroke="#63b8ff" points="1086.08,-242.84 1094.91,-236.99 1084.35,-236.06 1086.08,-242.84"/>
</a>
</g>
</g>
<!-- Node21 -->
<g id="Node000021" class="node">
<title>Node21</title>
<g id="a_Node000021"><a xlink:title=" ">
<polygon fill="#e0e0e0" stroke="#999999" points="1211,-239 1164,-239 1164,-220 1211,-220 1211,-239"/>
<text text-anchor="middle" x="1187.5" y="-227" font-family="Helvetica,sans-Serif" font-size="10.00">fcntl.h</text>
</a>
</g>
</g>
<!-- Node17&#45;&gt;Node21 -->
<g id="edge36_Node000017_Node000021" class="edge">
<title>Node17&#45;&gt;Node21</title>
<g id="a_edge36_Node000017_Node000021"><a xlink:title=" ">
<path fill="none" stroke="#63b8ff" d="M951.1,-276.46C1009.17,-266.1 1114.17,-247.28 1153.87,-239.14"/>
<polygon fill="#63b8ff" stroke="#63b8ff" points="1154.74,-242.54 1163.79,-237.02 1153.28,-235.69 1154.74,-242.54"/>
</a>
</g>
</g>
<!-- Node22 -->
<g id="Node000022" class="node">
<title>Node22</title>
<g id="a_Node000022"><a xlink:title=" ">
<polygon fill="#e0e0e0" stroke="#999999" points="1077,-239 1000,-239 1000,-220 1077,-220 1077,-239"/>
<text text-anchor="middle" x="1038.5" y="-227" font-family="Helvetica,sans-Serif" font-size="10.00">sys/mman.h</text>
</a>
</g>
</g>
<!-- Node17&#45;&gt;Node22 -->
<g id="edge38_Node000017_Node000022" class="edge">
<title>Node17&#45;&gt;Node22</title>
<g id="a_edge38_Node000017_Node000022"><a xlink:title=" ">
<path fill="none" stroke="#63b8ff" d="M931.9,-274.98C952.52,-266.38 984.61,-252.99 1008.19,-243.15"/>
<polygon fill="#63b8ff" stroke="#63b8ff" points="1009.84,-246.25 1017.72,-239.17 1007.15,-239.79 1009.84,-246.25"/>
</a>
</g>
</g>
<!-- Node23 -->
<g id="Node000023" class="node">
<title>Node23</title>
<g id="a_Node000023"><a xlink:title=" ">
<polygon fill="#e0e0e0" stroke="#999999" points="1301.5,-239 1229.5,-239 1229.5,-220 1301.5,-220 1301.5,-239"/>
<text text-anchor="middle" x="1265.5" y="-227" font-family="Helvetica,sans-Serif" font-size="10.00">sys/types.h</text>
</a>
</g>
</g>
<!-- Node17&#45;&gt;Node23 -->
<g id="edge39_Node000017_Node000023" class="edge">
<title>Node17&#45;&gt;Node23</title>
<g id="a_edge39_Node000017_Node000023"><a xlink:title=" ">
<path fill="none" stroke="#63b8ff" d="M951.06,-276.52C954.25,-275.99 957.43,-275.48 960.5,-275 1072.61,-257.52 1103.69,-257.8 1219.23,-239.14"/>
<polygon fill="#63b8ff" stroke="#63b8ff" points="1219.87,-242.58 1229.18,-237.52 1218.75,-235.67 1219.87,-242.58"/>
</a>
</g>
</g>
<!-- Node24 -->
<g id="Node000024" class="node">
<title>Node24</title>
<g id="a_Node000024"><a xlink:title=" ">
<polygon fill="#e0e0e0" stroke="#999999" points="981.5,-239 925.5,-239 925.5,-220 981.5,-220 981.5,-239"/>
<text text-anchor="middle" x="953.5" y="-227" font-family="Helvetica,sans-Serif" font-size="10.00">unistd.h</text>
</a>
</g>
</g>
<!-- Node17&#45;&gt;Node24 -->
<g id="edge40_Node000017_Node000024" class="edge">
<title>Node17&#45;&gt;Node24</title>
<g id="a_edge40_Node000017_Node000024"><a xlink:title=" ">
<path fill="none" stroke="#63b8ff" d="M918.44,-274.75C924.37,-267.26 933.07,-256.28 940.32,-247.13"/>
<polygon fill="#63b8ff" stroke="#63b8ff" points="943.23,-249.1 946.69,-239.09 937.74,-244.75 943.23,-249.1"/>
</a>
</g>
</g>
<!-- Node18&#45;&gt;Node6 -->
<g id="edge29_Node000018_Node000006" class="edge">
<title>Node18&#45;&gt;Node6</title>
<g id="a_edge29_Node000018_Node000006"><a xlink:title=" ">
<path fill="none" stroke="#63b8ff" d="M833.4,-219.96C795.66,-207.26 721.95,-182.94 658.5,-165 614,-152.42 562.74,-139.87 526.51,-131.32"/>
<polygon fill="#63b8ff" stroke="#63b8ff" points="527.24,-127.9 516.71,-129.02 525.64,-134.71 527.24,-127.9"/>
</a>
</g>
</g>
<!-- Node18&#45;&gt;Node9 -->
<g id="edge30_Node000018_Node000009" class="edge">
<title>Node18&#45;&gt;Node9</title>
<g id="a_edge30_Node000018_Node000009"><a xlink:title=" ">
<path fill="none" stroke="#63b8ff" d="M907.75,-221.08C1050.66,-198.57 1451.06,-128.13 1381.5,-55 1351.83,-23.81 699.44,-13.19 532.26,-10.97"/>
<polygon fill="#63b8ff" stroke="#63b8ff" points="532,-7.47 521.96,-10.84 531.91,-14.47 532,-7.47"/>
</a>
</g>
</g>
<!-- Node25&#45;&gt;Node3 -->
<g id="edge43_Node000025_Node000003" class="edge">
<title>Node25&#45;&gt;Node3</title>
<g id="a_edge43_Node000025_Node000003"><a xlink:title=" ">
<path fill="none" stroke="#63b8ff" d="M210.63,-274.98C265.59,-265.65 353.73,-250.67 412.37,-240.71"/>
<polygon fill="#63b8ff" stroke="#63b8ff" points="412.97,-244.16 422.24,-239.04 411.79,-237.26 412.97,-244.16"/>
</a>
</g>
</g>
<!-- Node25&#45;&gt;Node14 -->
<g id="edge45_Node000025_Node000014" class="edge">
<title>Node25&#45;&gt;Node14</title>
<g id="a_edge45_Node000025_Node000014"><a xlink:title=" ">
<path fill="none" stroke="#63b8ff" d="M192.15,-274.98C227.35,-265.52 284.1,-250.25 321.1,-240.29"/>
<polygon fill="#63b8ff" stroke="#63b8ff" points="322.23,-243.61 330.98,-237.63 320.41,-236.85 322.23,-243.61"/>
</a>
</g>
</g>
<!-- Node26 -->
<g id="Node000026" class="node">
<title>Node26</title>
<g id="a_Node000026"><a xlink:title=" ">
<polygon fill="#e0e0e0" stroke="#999999" points="162,-239 109,-239 109,-220 162,-220 162,-239"/>
<text text-anchor="middle" x="135.5" y="-227" font-family="Helvetica,sans-Serif" font-size="10.00">ctype.h</text>
</a>
</g>
</g>
<!-- Node25&#45;&gt;Node26 -->
<g id="edge44_Node000025_Node000026" class="edge">
<title>Node25&#45;&gt;Node26</title>
<g id="a_edge44_Node000025_Node000026"><a xlink:title=" ">
<path fill="none" stroke="#63b8ff" d="M156.37,-274.75C152.99,-267.57 148.08,-257.18 143.88,-248.27"/>
<polygon fill="#63b8ff" stroke="#63b8ff" points="146.98,-246.64 139.55,-239.09 140.65,-249.63 146.98,-246.64"/>
</a>
</g>
</g>
<!-- Node27&#45;&gt;Node3 -->
<g id="edge47_Node000027_Node000003" class="edge">
<title>Node27&#45;&gt;Node3</title>
<g id="a_edge47_Node000027_Node000003"><a xlink:title=" ">
<path fill="none" stroke="#63b8ff" d="M313.03,-274.98C345.2,-266.01 396.06,-251.82 431.67,-241.89"/>
<polygon fill="#63b8ff" stroke="#63b8ff" points="433.04,-245.14 441.73,-239.08 431.16,-238.4 433.04,-245.14"/>
</a>
</g>
</g>
<!-- Node27&#45;&gt;Node8 -->
<g id="edge50_Node000027_Node000008" class="edge">
<title>Node27&#45;&gt;Node8</title>
<g id="a_edge50_Node000027_Node000008"><a xlink:title=" ">
<path fill="none" stroke="#63b8ff" d="M255.93,-274.94C239.37,-268.06 219.38,-256.6 209.5,-239 205.37,-231.64 207.3,-228.15 209.5,-220 230.88,-140.75 290.83,-60.92 318.36,-27.19"/>
<polygon fill="#63b8ff" stroke="#63b8ff" points="321.23,-29.22 324.91,-19.29 315.84,-24.75 321.23,-29.22"/>
</a>
</g>
</g>
<!-- Node27&#45;&gt;Node12 -->
<g id="edge49_Node000027_Node000012" class="edge">
<title>Node27&#45;&gt;Node12</title>
<g id="a_edge49_Node000027_Node000012"><a xlink:title=" ">
<path fill="none" stroke="#63b8ff" d="M276.56,-274.75C271.52,-267.34 264.16,-256.5 257.99,-247.41"/>
<polygon fill="#63b8ff" stroke="#63b8ff" points="260.85,-245.39 252.33,-239.09 255.06,-249.33 260.85,-245.39"/>
</a>
</g>
</g>
<!-- Node27&#45;&gt;Node13 -->
<g id="edge51_Node000027_Node000013" class="edge">
<title>Node27&#45;&gt;Node13</title>
<g id="a_edge51_Node000027_Node000013"><a xlink:title=" ">
<path fill="none" stroke="#63b8ff" d="M330.13,-276.07C332.96,-275.69 335.77,-275.33 338.5,-275 509.82,-254.19 557.38,-267.88 731.34,-238.94"/>
<polygon fill="#63b8ff" stroke="#63b8ff" points="732.06,-242.36 741.34,-237.25 730.9,-235.46 732.06,-242.36"/>
</a>
</g>
</g>
<!-- Node27&#45;&gt;Node14 -->
<g id="edge53_Node000027_Node000014" class="edge">
<title>Node27&#45;&gt;Node14</title>
<g id="a_edge53_Node000027_Node000014"><a xlink:title=" ">
<path fill="none" stroke="#63b8ff" d="M294.55,-274.98C305.96,-266.92 323.33,-254.65 336.93,-245.03"/>
<polygon fill="#63b8ff" stroke="#63b8ff" points="339.08,-247.8 345.23,-239.17 335.04,-242.08 339.08,-247.8"/>
</a>
</g>
</g>
<!-- Node27&#45;&gt;Node16 -->
<g id="edge52_Node000027_Node000016" class="edge">
<title>Node27&#45;&gt;Node16</title>
<g id="a_edge52_Node000027_Node000016"><a xlink:title=" ">
<path fill="none" stroke="#63b8ff" d="M330.19,-276.13C399.45,-265.43 526.38,-245.82 588.83,-236.17"/>
<polygon fill="#63b8ff" stroke="#63b8ff" points="589.65,-239.58 599,-234.6 588.58,-232.66 589.65,-239.58"/>
</a>
</g>
</g>
<!-- Node27&#45;&gt;Node26 -->
<g id="edge48_Node000027_Node000026" class="edge">
<title>Node27&#45;&gt;Node26</title>
<g id="a_edge48_Node000027_Node000026"><a xlink:title=" ">
<path fill="none" stroke="#63b8ff" d="M258.88,-274.98C234.6,-266.23 196.55,-252.51 169.13,-242.62"/>
<polygon fill="#63b8ff" stroke="#63b8ff" points="170.14,-239.27 159.55,-239.17 167.77,-245.85 170.14,-239.27"/>
</a>
</g>
</g>
<!-- Node28&#45;&gt;Node3 -->
<g id="edge55_Node000028_Node000003" class="edge">
<title>Node28&#45;&gt;Node3</title>
<g id="a_edge55_Node000028_Node000003"><a xlink:title=" ">
<path fill="none" stroke="#63b8ff" d="M968.99,-276.23C966.12,-275.79 963.27,-275.37 960.5,-275 883.89,-264.74 670.18,-246.63 552.59,-236.98"/>
<polygon fill="#63b8ff" stroke="#63b8ff" points="552.81,-233.48 542.56,-236.16 552.24,-240.46 552.81,-233.48"/>
</a>
</g>
</g>
<!-- Node29 -->
<g id="Node000029" class="node">
<title>Node29</title>
<g id="a_Node000029"><a xlink:title=" ">
<polygon fill="#e0e0e0" stroke="#999999" points="1511.5,-239 1461.5,-239 1461.5,-220 1511.5,-220 1511.5,-239"/>
<text text-anchor="middle" x="1486.5" y="-227" font-family="Helvetica,sans-Serif" font-size="10.00">dlfcn.h</text>
</a>
</g>
</g>
<!-- Node28&#45;&gt;Node29 -->
<g id="edge56_Node000028_Node000029" class="edge">
<title>Node28&#45;&gt;Node29</title>
<g id="a_edge56_Node000028_Node000029"><a xlink:title=" ">
<path fill="none" stroke="#63b8ff" d="M1048.04,-276.36C1051.23,-275.87 1054.42,-275.41 1057.5,-275 1229.02,-252.34 1276.93,-267.86 1451.31,-238.94"/>
<polygon fill="#63b8ff" stroke="#63b8ff" points="1452.06,-242.36 1461.34,-237.25 1450.9,-235.46 1452.06,-242.36"/>
</a>
</g>
</g>
<!-- Node30&#45;&gt;Node3 -->
<g id="edge58_Node000030_Node000003" class="edge">
<title>Node30&#45;&gt;Node3</title>
<g id="a_edge58_Node000030_Node000003"><a xlink:title=" ">
<path fill="none" stroke="#63b8ff" d="M634.49,-274.98C601.67,-265.97 549.7,-251.7 513.51,-241.76"/>
<polygon fill="#63b8ff" stroke="#63b8ff" points="514.32,-238.36 503.75,-239.08 512.47,-245.11 514.32,-238.36"/>
</a>
</g>
</g>
<!-- Node30&#45;&gt;Node13 -->
<g id="edge61_Node000030_Node000013" class="edge">
<title>Node30&#45;&gt;Node13</title>
<g id="a_edge61_Node000030_Node000013"><a xlink:title=" ">
<path fill="none" stroke="#63b8ff" d="M681.73,-274.98C697.68,-266.61 722.28,-253.7 740.88,-243.95"/>
<polygon fill="#63b8ff" stroke="#63b8ff" points="742.75,-246.92 749.98,-239.17 739.5,-240.72 742.75,-246.92"/>
</a>
</g>
</g>
<!-- Node30&#45;&gt;Node14 -->
<g id="edge63_Node000030_Node000014" class="edge">
<title>Node30&#45;&gt;Node14</title>
<g id="a_edge63_Node000030_Node000014"><a xlink:title=" ">
<path fill="none" stroke="#63b8ff" d="M627.29,-276.52C624.32,-276 621.36,-275.49 618.5,-275 521.79,-258.52 494.53,-258.62 394.14,-238.99"/>
<polygon fill="#63b8ff" stroke="#63b8ff" points="394.68,-235.53 384.19,-237.03 393.32,-242.4 394.68,-235.53"/>
</a>
</g>
</g>
<!-- Node30&#45;&gt;Node16 -->
<g id="edge62_Node000030_Node000016" class="edge">
<title>Node30&#45;&gt;Node16</title>
<g id="a_edge62_Node000030_Node000016"><a xlink:title=" ">
<path fill="none" stroke="#63b8ff" d="M658.89,-274.75C653.24,-267.26 644.96,-256.28 638.05,-247.13"/>
<polygon fill="#63b8ff" stroke="#63b8ff" points="640.8,-244.96 631.98,-239.09 635.21,-249.18 640.8,-244.96"/>
</a>
</g>
</g>
<!-- Node30&#45;&gt;Node18 -->
<g id="edge59_Node000030_Node000018" class="edge">
<title>Node30&#45;&gt;Node18</title>
<g id="a_edge59_Node000030_Node000018"><a xlink:title=" ">
<path fill="none" stroke="#63b8ff" d="M696.51,-274.98C729.33,-265.97 781.3,-251.7 817.49,-241.76"/>
<polygon fill="#63b8ff" stroke="#63b8ff" points="818.53,-245.11 827.25,-239.08 816.68,-238.36 818.53,-245.11"/>
</a>
</g>
</g>
<!-- Node31 -->
<g id="Node000031" class="node">
<title>Node31</title>
<g id="a_Node000031"><a xlink:title=" ">
<polygon fill="#e0e0e0" stroke="#999999" points="723,-239 670,-239 670,-220 723,-220 723,-239"/>
<text text-anchor="middle" x="696.5" y="-227" font-family="Helvetica,sans-Serif" font-size="10.00">limits.h</text>
</a>
</g>
</g>
<!-- Node30&#45;&gt;Node31 -->
<g id="edge60_Node000030_Node000031" class="edge">
<title>Node30&#45;&gt;Node31</title>
<g id="a_edge60_Node000030_Node000031"><a xlink:title=" ">
<path fill="none" stroke="#63b8ff" d="M670.62,-274.75C674.86,-267.49 681.03,-256.95 686.28,-247.98"/>
<polygon fill="#63b8ff" stroke="#63b8ff" points="689.45,-249.49 691.48,-239.09 683.41,-245.95 689.45,-249.49"/>
</a>
</g>
</g>
<!-- Node33&#45;&gt;Node5 -->
<g id="edge66_Node000033_Node000005" class="edge">
<title>Node33&#45;&gt;Node5</title>
<g id="a_edge66_Node000033_Node000005"><a xlink:title=" ">
<path fill="none" stroke="#63b8ff" d="M91.16,-221.3C93.98,-220.86 96.78,-220.42 99.5,-220 175.78,-208.1 263.44,-194.58 321.82,-185.59"/>
<polygon fill="#63b8ff" stroke="#63b8ff" points="322.66,-189.01 332.01,-184.03 321.6,-182.09 322.66,-189.01"/>
</a>
</g>
</g>
<!-- Node33&#45;&gt;Node7 -->
<g id="edge67_Node000033_Node000007" class="edge">
<title>Node33&#45;&gt;Node7</title>
<g id="a_edge67_Node000033_Node000007"><a xlink:title=" ">
<path fill="none" stroke="#63b8ff" d="M91.22,-219.94C144.93,-209.6 228.3,-192.53 240.5,-184 272.63,-161.55 258.56,-135.3 288.5,-110 306.15,-95.09 329.55,-84.44 349.58,-77.31"/>
<polygon fill="#63b8ff" stroke="#63b8ff" points="350.76,-80.61 359.11,-74.09 348.52,-73.98 350.76,-80.61"/>
</a>
</g>
</g>
<!-- Node33&#45;&gt;Node10 -->
<g id="edge68_Node000033_Node000010" class="edge">
<title>Node33&#45;&gt;Node10</title>
<g id="a_edge68_Node000033_Node000010"><a xlink:title=" ">
<path fill="none" stroke="#63b8ff" d="M60.04,-219.95C116.6,-186.72 322.21,-65.9 392.64,-24.52"/>
<polygon fill="#63b8ff" stroke="#63b8ff" points="394.81,-27.31 401.65,-19.22 391.26,-21.27 394.81,-27.31"/>
</a>
</g>
</g>
<!-- Node34&#45;&gt;Node3 -->
<g id="edge70_Node000034_Node000003" class="edge">
<title>Node34&#45;&gt;Node3</title>
<g id="a_edge70_Node000034_Node000003"><a xlink:title=" ">
<path fill="none" stroke="#63b8ff" d="M475,-274.75C474.61,-267.8 474.05,-257.85 473.55,-249.13"/>
<polygon fill="#63b8ff" stroke="#63b8ff" points="477.05,-248.88 472.99,-239.09 470.06,-249.27 477.05,-248.88"/>
</a>
</g>
</g>
<!-- Node34&#45;&gt;Node14 -->
<g id="edge72_Node000034_Node000014" class="edge">
<title>Node34&#45;&gt;Node14</title>
<g id="a_edge72_Node000034_Node000014"><a xlink:title=" ">
<path fill="none" stroke="#63b8ff" d="M456.54,-274.98C437.47,-266.42 407.84,-253.11 385.95,-243.28"/>
<polygon fill="#63b8ff" stroke="#63b8ff" points="387.36,-240.07 376.8,-239.17 384.49,-246.46 387.36,-240.07"/>
</a>
</g>
</g>
<!-- Node34&#45;&gt;Node16 -->
<g id="edge71_Node000034_Node000016" class="edge">
<title>Node34&#45;&gt;Node16</title>
<g id="a_edge71_Node000034_Node000016"><a xlink:title=" ">
<path fill="none" stroke="#63b8ff" d="M499.6,-274.98C524.38,-266.23 563.2,-252.51 591.19,-242.62"/>
<polygon fill="#63b8ff" stroke="#63b8ff" points="592.7,-245.8 600.96,-239.17 590.37,-239.2 592.7,-245.8"/>
</a>
</g>
</g>
<!-- Node35&#45;&gt;Node3 -->
<g id="edge74_Node000035_Node000003" class="edge">
<title>Node35&#45;&gt;Node3</title>
<g id="a_edge74_Node000035_Node000003"><a xlink:title=" ">
<path fill="none" stroke="#63b8ff" d="M721.73,-275.28C670.08,-266 585.99,-250.89 529.96,-240.82"/>
<polygon fill="#63b8ff" stroke="#63b8ff" points="530.31,-237.33 519.84,-239.01 529.07,-244.22 530.31,-237.33"/>
</a>
</g>
</g>
<!-- Node35&#45;&gt;Node13 -->
<g id="edge76_Node000035_Node000013" class="edge">
<title>Node35&#45;&gt;Node13</title>
<g id="a_edge76_Node000035_Node000013"><a xlink:title=" ">
<path fill="none" stroke="#63b8ff" d="M767.33,-274.75C767.2,-267.8 767.02,-257.85 766.85,-249.13"/>
<polygon fill="#63b8ff" stroke="#63b8ff" points="770.35,-249.02 766.66,-239.09 763.35,-249.15 770.35,-249.02"/>
</a>
</g>
</g>
<!-- Node35&#45;&gt;Node14 -->
<g id="edge78_Node000035_Node000014" class="edge">
<title>Node35&#45;&gt;Node14</title>
<g id="a_edge78_Node000035_Node000014"><a xlink:title=" ">
<path fill="none" stroke="#63b8ff" d="M721.9,-276.31C718.72,-275.85 715.56,-275.41 712.5,-275 574.26,-256.52 535.78,-263.12 394.1,-238.89"/>
<polygon fill="#63b8ff" stroke="#63b8ff" points="394.61,-235.43 384.16,-237.17 393.42,-242.32 394.61,-235.43"/>
</a>
</g>
</g>
<!-- Node35&#45;&gt;Node16 -->
<g id="edge77_Node000035_Node000016" class="edge">
<title>Node35&#45;&gt;Node16</title>
<g id="a_edge77_Node000035_Node000016"><a xlink:title=" ">
<path fill="none" stroke="#63b8ff" d="M744.69,-274.98C721.33,-266.27 684.8,-252.63 658.33,-242.75"/>
<polygon fill="#63b8ff" stroke="#63b8ff" points="659.32,-239.39 648.73,-239.17 656.87,-245.95 659.32,-239.39"/>
</a>
</g>
</g>
<!-- Node35&#45;&gt;Node18 -->
<g id="edge75_Node000035_Node000018" class="edge">
<title>Node35&#45;&gt;Node18</title>
<g id="a_edge75_Node000035_Node000018"><a xlink:title=" ">
<path fill="none" stroke="#63b8ff" d="M782.12,-274.98C796.36,-266.69 818.25,-253.94 834.95,-244.22"/>
<polygon fill="#63b8ff" stroke="#63b8ff" points="836.73,-247.23 843.61,-239.17 833.21,-241.18 836.73,-247.23"/>
</a>
</g>
</g>
<!-- Node35&#45;&gt;Node22 -->
<g id="edge79_Node000035_Node000022" class="edge">
<title>Node35&#45;&gt;Node22</title>
<g id="a_edge79_Node000035_Node000022"><a xlink:title=" ">
<path fill="none" stroke="#63b8ff" d="M811.04,-274.98C859.89,-265.43 938.94,-249.97 989.8,-240.02"/>
<polygon fill="#63b8ff" stroke="#63b8ff" points="990.75,-243.4 999.89,-238.05 989.41,-236.53 990.75,-243.4"/>
</a>
</g>
</g>
<!-- Node35&#45;&gt;Node24 -->
<g id="edge80_Node000035_Node000024" class="edge">
<title>Node35&#45;&gt;Node24</title>
<g id="a_edge80_Node000035_Node000024"><a xlink:title=" ">
<path fill="none" stroke="#63b8ff" d="M797.38,-274.98C829.44,-265.85 880.45,-251.32 915.37,-241.36"/>
<polygon fill="#63b8ff" stroke="#63b8ff" points="916.56,-244.67 925.21,-238.56 914.64,-237.93 916.56,-244.67"/>
</a>
</g>
</g>
</g>
</svg>
