<?xml version="1.0" encoding="UTF-8" standalone="no"?>
<!DOCTYPE svg PUBLIC "-//W3C//DTD SVG 1.1//EN"
 "http://www.w3.org/Graphics/SVG/1.1/DTD/svg11.dtd">
<!-- Generated by graphviz version 2.43.0 (0)
 -->
<!-- Title: src/infix.c Pages: 1 -->
<!--zoomable 302 -->

<svg id="main" version="1.1" xmlns="http://www.w3.org/2000/svg" xmlns:xlink="http://www.w3.org/1999/xlink" xml:space="preserve" onload="init(evt)">
<style type="text/css"><![CDATA[
.node, .edge {opacity: 0.7;}
.node.selected, .edge.selected {opacity: 1;}
.edge:hover path { stroke: red; }
.edge:hover polygon { stroke: red; fill: red; }
]]></style>

<defs>
  <circle id="rim" cx="0" cy="0" r="7"/>
  <circle id="rim2" cx="0" cy="0" r="3.5"/>
  <g id="zoomPlus">
    <use xlink:href="#rim" fill="#404040"><set attributeName="fill" to="#808080" begin="zoomplus.mouseover" end="zoomplus.mouseout"/></use>
    <path d="M-4,0h8M0,-4v8" fill="none" stroke="white" stroke-width="1.5" pointer-events="none"/>
  </g>
  <g id="zoomMin">
    <use xlink:href="#rim" fill="#404040"><set attributeName="fill" to="#808080" begin="zoomminus.mouseover" end="zoomminus.mouseout"/></use>
    <path d="M-4,0h8" fill="none" stroke="white" stroke-width="1.5" pointer-events="none"/>
  </g>
  <g id="arrowUp" transform="translate(30 24)">
    <use xlink:href="#rim"/>
    <path pointer-events="none" fill="none" stroke="white" stroke-width="1.5" d="M0,-3.0v7 M-2.5,-0.5L0,-3.0L2.5,-0.5"/>
  </g>
  <g id="arrowRight" transform="rotate(90) translate(36 -43)">
    <use xlink:href="#rim"/>
    <path pointer-events="none" fill="none" stroke="white" stroke-width="1.5" d="M0,-3.0v7 M-2.5,-0.5L0,-3.0L2.5,-0.5"/>
  </g>
  <g id="arrowDown" transform="rotate(180) translate(-30 -48)">
    <use xlink:href="#rim"/>
    <path pointer-events="none" fill="none" stroke="white" stroke-width="1.5" d="M0,-3.0v7 M-2.5,-0.5L0,-3.0L2.5,-0.5"/>
  </g>
  <g id="arrowLeft" transform="rotate(270) translate(-36 17)">
    <use xlink:href="#rim"/>
    <path pointer-events="none" fill="none" stroke="white" stroke-width="1.5" d="M0,-3.0v7 M-2.5,-0.5L0,-3.0L2.5,-0.5"/>
  </g>
  <g id="resetDef">
    <use xlink:href="#rim2" fill="#404040"><set attributeName="fill" to="#808080" begin="reset.mouseover" end="reset.mouseout"/></use>
  </g>
</defs>
<script type="application/ecmascript">
var viewWidth = 1373;
var viewHeight = 302;
var sectionId = 'dynsection-0';
</script>
<script type="application/ecmascript" xlink:href="svg.min.js"/>
<svg id="graph" class="graph">
<g id="viewport">
<title>src/infix.c</title>
<!-- Node1 -->
<g id="Node000001" class="node">
<title>Node1</title>
<g id="a_Node000001"><a xlink:title="The unity build source file for the infix library.">
<polygon fill="#999999" stroke="#666666" points="557,-294 494,-294 494,-275 557,-275 557,-294"/>
<text text-anchor="middle" x="525.5" y="-282" font-family="Helvetica,sans-Serif" font-size="10.00">src/infix.c</text>
</a>
</g>
</g>
<!-- Node2 -->
<g id="Node000002" class="node">
<title>Node2</title>
<g id="a_Node000002"><a xlink:href="error_8c.html" target="_top" xlink:title="Implements the thread&#45;local error reporting system.">
<polygon fill="white" stroke="#666666" points="374,-239 303,-239 303,-220 374,-220 374,-239"/>
<text text-anchor="middle" x="338.5" y="-227" font-family="Helvetica,sans-Serif" font-size="10.00">core/error.c</text>
</a>
</g>
</g>
<!-- Node1&#45;&gt;Node2 -->
<g id="edge1_Node000001_Node000002" class="edge">
<title>Node1&#45;&gt;Node2</title>
<g id="a_edge1_Node000001_Node000002"><a xlink:title=" ">
<path fill="none" stroke="#63b8ff" d="M495.46,-274.98C463.79,-266.01 413.73,-251.82 378.69,-241.89"/>
<polygon fill="#63b8ff" stroke="#63b8ff" points="379.36,-238.44 368.78,-239.08 377.45,-245.18 379.36,-238.44"/>
</a>
</g>
</g>
<!-- Node13 -->
<g id="Node000013" class="node">
<title>Node13</title>
<g id="a_Node000013"><a xlink:href="arena_8c.html" target="_top" xlink:title="Implements a simple, fast arena (or region&#45;based) allocator.">
<polygon fill="white" stroke="#666666" points="469,-239 392,-239 392,-220 469,-220 469,-239"/>
<text text-anchor="middle" x="430.5" y="-227" font-family="Helvetica,sans-Serif" font-size="10.00">core/arena.c</text>
</a>
</g>
</g>
<!-- Node1&#45;&gt;Node13 -->
<g id="edge15_Node000001_Node000013" class="edge">
<title>Node1&#45;&gt;Node13</title>
<g id="a_edge15_Node000001_Node000013"><a xlink:title=" ">
<path fill="none" stroke="#63b8ff" d="M510.24,-274.98C495.37,-266.69 472.52,-253.94 455.08,-244.22"/>
<polygon fill="#63b8ff" stroke="#63b8ff" points="456.48,-240.99 446.04,-239.17 453.07,-247.1 456.48,-240.99"/>
</a>
</g>
</g>
<!-- Node15 -->
<g id="Node000015" class="node">
<title>Node15</title>
<g id="a_Node000015"><a xlink:href="executor_8c.html" target="_top" xlink:title="Implements platform&#45;specific memory management for JIT code and execution.">
<polygon fill="white" stroke="#666666" points="962,-239 883,-239 883,-220 962,-220 962,-239"/>
<text text-anchor="middle" x="922.5" y="-227" font-family="Helvetica,sans-Serif" font-size="10.00">jit/executor.c</text>
</a>
</g>
</g>
<!-- Node1&#45;&gt;Node15 -->
<g id="edge20_Node000001_Node000015" class="edge">
<title>Node1&#45;&gt;Node15</title>
<g id="a_edge20_Node000001_Node000015"><a xlink:title=" ">
<path fill="none" stroke="#63b8ff" d="M557.23,-279.92C616.88,-273.09 749.99,-257.36 872.98,-239.01"/>
<polygon fill="#63b8ff" stroke="#63b8ff" points="873.57,-242.46 882.94,-237.52 872.54,-235.54 873.57,-242.46"/>
</a>
</g>
</g>
<!-- Node23 -->
<g id="Node000023" class="node">
<title>Node23</title>
<g id="a_Node000023"><a xlink:href="type__registry_8c.html" target="_top" xlink:title="Implements the named type registry system.">
<polygon fill="white" stroke="#666666" points="171.5,-239 59.5,-239 59.5,-220 171.5,-220 171.5,-239"/>
<text text-anchor="middle" x="115.5" y="-227" font-family="Helvetica,sans-Serif" font-size="10.00">core/type_registry.c</text>
</a>
</g>
</g>
<!-- Node1&#45;&gt;Node23 -->
<g id="edge35_Node000001_Node000023" class="edge">
<title>Node1&#45;&gt;Node23</title>
<g id="a_edge35_Node000001_Node000023"><a xlink:title=" ">
<path fill="none" stroke="#63b8ff" d="M493.63,-279.41C434.43,-271.8 303.22,-254.93 181.74,-239.16"/>
<polygon fill="#63b8ff" stroke="#63b8ff" points="181.89,-235.65 171.52,-237.83 180.99,-242.59 181.89,-235.65"/>
</a>
</g>
</g>
<!-- Node25 -->
<g id="Node000025" class="node">
<title>Node25</title>
<g id="a_Node000025"><a xlink:href="signature_8c.html" target="_top" xlink:title="Implements the infix signature string parser and type printer.">
<polygon fill="white" stroke="#666666" points="285,-239 190,-239 190,-220 285,-220 285,-239"/>
<text text-anchor="middle" x="237.5" y="-227" font-family="Helvetica,sans-Serif" font-size="10.00">core/signature.c</text>
</a>
</g>
</g>
<!-- Node1&#45;&gt;Node25 -->
<g id="edge39_Node000001_Node000025" class="edge">
<title>Node1&#45;&gt;Node25</title>
<g id="a_edge39_Node000001_Node000025"><a xlink:title=" ">
<path fill="none" stroke="#63b8ff" d="M493.86,-277.68C445.79,-268.83 353.66,-251.88 293.93,-240.88"/>
<polygon fill="#63b8ff" stroke="#63b8ff" points="294.37,-237.41 283.9,-239.04 293.11,-244.29 294.37,-237.41"/>
</a>
</g>
</g>
<!-- Node26 -->
<g id="Node000026" class="node">
<title>Node26</title>
<g id="a_Node000026"><a xlink:href="loader_8c.html" target="_top" xlink:title="Implements cross&#45;platform dynamic library loading.">
<polygon fill="white" stroke="#666666" points="661,-239 582,-239 582,-220 661,-220 661,-239"/>
<text text-anchor="middle" x="621.5" y="-227" font-family="Helvetica,sans-Serif" font-size="10.00">core/loader.c</text>
</a>
</g>
</g>
<!-- Node1&#45;&gt;Node26 -->
<g id="edge47_Node000001_Node000026" class="edge">
<title>Node1&#45;&gt;Node26</title>
<g id="a_edge47_Node000001_Node000026"><a xlink:title=" ">
<path fill="none" stroke="#63b8ff" d="M540.92,-274.98C555.95,-266.69 579.04,-253.94 596.66,-244.22"/>
<polygon fill="#63b8ff" stroke="#63b8ff" points="598.73,-247.07 605.8,-239.17 595.35,-240.94 598.73,-247.07"/>
</a>
</g>
</g>
<!-- Node28 -->
<g id="Node000028" class="node">
<title>Node28</title>
<g id="a_Node000028"><a xlink:href="types_8c.html" target="_top" xlink:title="Implements the public API for creating and managing type descriptions.">
<polygon fill="white" stroke="#666666" points="563.5,-239 487.5,-239 487.5,-220 563.5,-220 563.5,-239"/>
<text text-anchor="middle" x="525.5" y="-227" font-family="Helvetica,sans-Serif" font-size="10.00">core/types.c</text>
</a>
</g>
</g>
<!-- Node1&#45;&gt;Node28 -->
<g id="edge50_Node000001_Node000028" class="edge">
<title>Node1&#45;&gt;Node28</title>
<g id="a_edge50_Node000001_Node000028"><a xlink:title=" ">
<path fill="none" stroke="#63b8ff" d="M525.5,-274.75C525.5,-267.8 525.5,-257.85 525.5,-249.13"/>
<polygon fill="#63b8ff" stroke="#63b8ff" points="529,-249.09 525.5,-239.09 522,-249.09 529,-249.09"/>
</a>
</g>
</g>
<!-- Node30 -->
<g id="Node000030" class="node">
<title>Node30</title>
<g id="a_Node000030"><a xlink:href="utility_8c.html" target="_top" xlink:title="Implements internal debugging utilities.">
<polygon fill="white" stroke="#666666" points="864.5,-239 788.5,-239 788.5,-220 864.5,-220 864.5,-239"/>
<text text-anchor="middle" x="826.5" y="-227" font-family="Helvetica,sans-Serif" font-size="10.00">core/utility.c</text>
</a>
</g>
</g>
<!-- Node1&#45;&gt;Node30 -->
<g id="edge57_Node000001_Node000030" class="edge">
<title>Node1&#45;&gt;Node30</title>
<g id="a_edge57_Node000001_Node000030"><a xlink:title=" ">
<path fill="none" stroke="#63b8ff" d="M557.19,-278.01C603.48,-269.97 692.57,-254.45 778.38,-239.19"/>
<polygon fill="#63b8ff" stroke="#63b8ff" points="779.05,-242.63 788.28,-237.43 777.83,-235.74 779.05,-242.63"/>
</a>
</g>
</g>
<!-- Node31 -->
<g id="Node000031" class="node">
<title>Node31</title>
<g id="a_Node000031"><a xlink:href="trampoline_8c.html" target="_top" xlink:title="The core JIT engine for generating forward and reverse trampolines.">
<polygon fill="white" stroke="#666666" points="770,-239 679,-239 679,-220 770,-220 770,-239"/>
<text text-anchor="middle" x="724.5" y="-227" font-family="Helvetica,sans-Serif" font-size="10.00">jit/trampoline.c</text>
</a>
</g>
</g>
<!-- Node1&#45;&gt;Node31 -->
<g id="edge58_Node000001_Node000031" class="edge">
<title>Node1&#45;&gt;Node31</title>
<g id="a_edge58_Node000001_Node000031"><a xlink:title=" ">
<path fill="none" stroke="#63b8ff" d="M557.03,-275.1C590.89,-266.08 644.87,-251.71 682.35,-241.73"/>
<polygon fill="#63b8ff" stroke="#63b8ff" points="683.69,-244.99 692.46,-239.03 681.89,-238.23 683.69,-244.99"/>
</a>
</g>
</g>
<!-- Node3 -->
<g id="Node000003" class="node">
<title>Node3</title>
<g id="a_Node000003"><a xlink:href="infix__internals_8h.html" target="_top" xlink:title="Internal data structures, function prototypes, and constants.">
<polygon fill="white" stroke="#666666" points="433.5,-184 293.5,-184 293.5,-165 433.5,-165 433.5,-184"/>
<text text-anchor="middle" x="363.5" y="-172" font-family="Helvetica,sans-Serif" font-size="10.00">common/infix_internals.h</text>
</a>
</g>
</g>
<!-- Node2&#45;&gt;Node3 -->
<g id="edge2_Node000002_Node000003" class="edge">
<title>Node2&#45;&gt;Node3</title>
<g id="a_edge2_Node000002_Node000003"><a xlink:title=" ">
<path fill="none" stroke="#63b8ff" d="M342.63,-219.75C346.01,-212.57 350.92,-202.18 355.12,-193.27"/>
<polygon fill="#63b8ff" stroke="#63b8ff" points="358.35,-194.63 359.45,-184.09 352.02,-191.64 358.35,-194.63"/>
</a>
</g>
</g>
<!-- Node5 -->
<g id="Node000005" class="node">
<title>Node5</title>
<g id="a_Node000005"><a xlink:href="infix_8h.html" target="_top" xlink:title="The public interface for the infix FFI library.">
<polygon fill="white" stroke="#666666" points="250,-129 179,-129 179,-110 250,-110 250,-129"/>
<text text-anchor="middle" x="214.5" y="-117" font-family="Helvetica,sans-Serif" font-size="10.00">infix/infix.h</text>
</a>
</g>
</g>
<!-- Node2&#45;&gt;Node5 -->
<g id="edge11_Node000002_Node000005" class="edge">
<title>Node2&#45;&gt;Node5</title>
<g id="a_edge11_Node000002_Node000005"><a xlink:title=" ">
<path fill="none" stroke="#63b8ff" d="M302.84,-220.74C269.47,-212.66 223.18,-199.1 212.5,-184 203.35,-171.07 205.1,-152.66 208.39,-138.99"/>
<polygon fill="#63b8ff" stroke="#63b8ff" points="211.8,-139.82 211.19,-129.24 205.07,-137.89 211.8,-139.82"/>
</a>
</g>
</g>
<!-- Node10 -->
<g id="Node000010" class="node">
<title>Node10</title>
<g id="a_Node000010"><a xlink:title=" ">
<polygon fill="#e0e0e0" stroke="#999999" points="165.5,-184 109.5,-184 109.5,-165 165.5,-165 165.5,-184"/>
<text text-anchor="middle" x="137.5" y="-172" font-family="Helvetica,sans-Serif" font-size="10.00">stdarg.h</text>
</a>
</g>
</g>
<!-- Node2&#45;&gt;Node10 -->
<g id="edge12_Node000002_Node000010" class="edge">
<title>Node2&#45;&gt;Node10</title>
<g id="a_edge12_Node000002_Node000010"><a xlink:title=" ">
<path fill="none" stroke="#63b8ff" d="M306.21,-219.98C270.7,-210.62 213.7,-195.59 175.93,-185.63"/>
<polygon fill="#63b8ff" stroke="#63b8ff" points="176.38,-182.13 165.82,-182.97 174.59,-188.9 176.38,-182.13"/>
</a>
</g>
</g>
<!-- Node11 -->
<g id="Node000011" class="node">
<title>Node11</title>
<g id="a_Node000011"><a xlink:title=" ">
<polygon fill="#e0e0e0" stroke="#999999" points="539.5,-184 489.5,-184 489.5,-165 539.5,-165 539.5,-184"/>
<text text-anchor="middle" x="514.5" y="-172" font-family="Helvetica,sans-Serif" font-size="10.00">stdio.h</text>
</a>
</g>
</g>
<!-- Node2&#45;&gt;Node11 -->
<g id="edge13_Node000002_Node000011" class="edge">
<title>Node2&#45;&gt;Node11</title>
<g id="a_edge13_Node000002_Node000011"><a xlink:title=" ">
<path fill="none" stroke="#63b8ff" d="M366.78,-219.98C397.51,-210.73 446.64,-195.93 479.72,-185.97"/>
<polygon fill="#63b8ff" stroke="#63b8ff" points="480.86,-189.28 489.43,-183.05 478.84,-182.58 480.86,-189.28"/>
</a>
</g>
</g>
<!-- Node12 -->
<g id="Node000012" class="node">
<title>Node12</title>
<g id="a_Node000012"><a xlink:title=" ">
<polygon fill="#e0e0e0" stroke="#999999" points="275,-184 222,-184 222,-165 275,-165 275,-184"/>
<text text-anchor="middle" x="248.5" y="-172" font-family="Helvetica,sans-Serif" font-size="10.00">string.h</text>
</a>
</g>
</g>
<!-- Node2&#45;&gt;Node12 -->
<g id="edge14_Node000002_Node000012" class="edge">
<title>Node2&#45;&gt;Node12</title>
<g id="a_edge14_Node000002_Node000012"><a xlink:title=" ">
<path fill="none" stroke="#63b8ff" d="M324.04,-219.98C310.08,-211.77 288.71,-199.18 272.25,-189.49"/>
<polygon fill="#63b8ff" stroke="#63b8ff" points="273.62,-186.23 263.22,-184.17 270.06,-192.26 273.62,-186.23"/>
</a>
</g>
</g>
<!-- Node4 -->
<g id="Node000004" class="node">
<title>Node4</title>
<g id="a_Node000004"><a xlink:href="infix__config_8h.html" target="_top" xlink:title="Platform, architecture, and ABI detection macros.">
<polygon fill="white" stroke="#666666" points="395,-129 268,-129 268,-110 395,-110 395,-129"/>
<text text-anchor="middle" x="331.5" y="-117" font-family="Helvetica,sans-Serif" font-size="10.00">common/infix_config.h</text>
</a>
</g>
</g>
<!-- Node3&#45;&gt;Node4 -->
<g id="edge3_Node000003_Node000004" class="edge">
<title>Node3&#45;&gt;Node4</title>
<g id="a_edge3_Node000003_Node000004"><a xlink:title=" ">
<path fill="none" stroke="#63b8ff" d="M358.22,-164.75C353.79,-157.42 347.34,-146.73 341.88,-137.7"/>
<polygon fill="#63b8ff" stroke="#63b8ff" points="344.85,-135.84 336.69,-129.09 338.86,-139.46 344.85,-135.84"/>
</a>
</g>
</g>
<!-- Node3&#45;&gt;Node5 -->
<g id="edge4_Node000003_Node000005" class="edge">
<title>Node3&#45;&gt;Node5</title>
<g id="a_edge4_Node000003_Node000005"><a xlink:title=" ">
<path fill="none" stroke="#63b8ff" d="M339.56,-164.98C314.94,-156.23 276.38,-142.51 248.58,-132.62"/>
<polygon fill="#63b8ff" stroke="#63b8ff" points="249.47,-129.22 238.88,-129.17 247.12,-135.82 249.47,-129.22"/>
</a>
</g>
</g>
<!-- Node6 -->
<g id="Node000006" class="node">
<title>Node6</title>
<g id="a_Node000006"><a xlink:href="compat__c23_8h.html" target="_top" xlink:title="Provides forward compatibility macros for C23 features.">
<polygon fill="white" stroke="#666666" points="327,-74 196,-74 196,-55 327,-55 327,-74"/>
<text text-anchor="middle" x="261.5" y="-62" font-family="Helvetica,sans-Serif" font-size="10.00">common/compat_c23.h</text>
</a>
</g>
</g>
<!-- Node5&#45;&gt;Node6 -->
<g id="edge5_Node000005_Node000006" class="edge">
<title>Node5&#45;&gt;Node6</title>
<g id="a_edge5_Node000005_Node000006"><a xlink:title=" ">
<path fill="none" stroke="#63b8ff" d="M222.26,-109.75C228.97,-102.18 238.84,-91.05 247.01,-81.84"/>
<polygon fill="#63b8ff" stroke="#63b8ff" points="249.87,-83.89 253.88,-74.09 244.63,-79.25 249.87,-83.89"/>
</a>
</g>
</g>
<!-- Node7 -->
<g id="Node000007" class="node">
<title>Node7</title>
<g id="a_Node000007"><a xlink:title=" ">
<polygon fill="#e0e0e0" stroke="#999999" points="198.5,-19 136.5,-19 136.5,0 198.5,0 198.5,-19"/>
<text text-anchor="middle" x="167.5" y="-7" font-family="Helvetica,sans-Serif" font-size="10.00">stdbool.h</text>
</a>
</g>
</g>
<!-- Node5&#45;&gt;Node7 -->
<g id="edge8_Node000005_Node000007" class="edge">
<title>Node5&#45;&gt;Node7</title>
<g id="a_edge8_Node000005_Node000007"><a xlink:title=" ">
<path fill="none" stroke="#63b8ff" d="M207.95,-109.7C201.73,-101.01 192.46,-87.13 186.5,-74 179.95,-59.57 174.95,-42.3 171.73,-29.41"/>
<polygon fill="#63b8ff" stroke="#63b8ff" points="175.07,-28.32 169.36,-19.4 168.25,-29.94 175.07,-28.32"/>
</a>
</g>
</g>
<!-- Node8 -->
<g id="Node000008" class="node">
<title>Node8</title>
<g id="a_Node000008"><a xlink:title=" ">
<polygon fill="#e0e0e0" stroke="#999999" points="383.5,-19 327.5,-19 327.5,0 383.5,0 383.5,-19"/>
<text text-anchor="middle" x="355.5" y="-7" font-family="Helvetica,sans-Serif" font-size="10.00">stddef.h</text>
</a>
</g>
</g>
<!-- Node5&#45;&gt;Node8 -->
<g id="edge9_Node000005_Node000008" class="edge">
<title>Node5&#45;&gt;Node8</title>
<g id="a_edge9_Node000005_Node000008"><a xlink:title=" ">
<path fill="none" stroke="#63b8ff" d="M247.28,-109.97C278.69,-101.19 323.1,-87 335.5,-74 347.08,-61.86 351.96,-43.06 354.01,-29.07"/>
<polygon fill="#63b8ff" stroke="#63b8ff" points="357.49,-29.42 355.13,-19.09 350.54,-28.64 357.49,-29.42"/>
</a>
</g>
</g>
<!-- Node9 -->
<g id="Node000009" class="node">
<title>Node9</title>
<g id="a_Node000009"><a xlink:title=" ">
<polygon fill="#e0e0e0" stroke="#999999" points="488,-74 435,-74 435,-55 488,-55 488,-74"/>
<text text-anchor="middle" x="461.5" y="-62" font-family="Helvetica,sans-Serif" font-size="10.00">stdint.h</text>
</a>
</g>
</g>
<!-- Node5&#45;&gt;Node9 -->
<g id="edge10_Node000005_Node000009" class="edge">
<title>Node5&#45;&gt;Node9</title>
<g id="a_edge10_Node000005_Node000009"><a xlink:title=" ">
<path fill="none" stroke="#63b8ff" d="M250.15,-110.85C296.73,-100.86 377.87,-83.45 424.91,-73.35"/>
<polygon fill="#63b8ff" stroke="#63b8ff" points="425.92,-76.71 434.96,-71.19 424.45,-69.87 425.92,-76.71"/>
</a>
</g>
</g>
<!-- Node6&#45;&gt;Node7 -->
<g id="edge6_Node000006_Node000007" class="edge">
<title>Node6&#45;&gt;Node7</title>
<g id="a_edge6_Node000006_Node000007"><a xlink:title=" ">
<path fill="none" stroke="#63b8ff" d="M246.4,-54.98C231.68,-46.69 209.08,-33.94 191.83,-24.22"/>
<polygon fill="#63b8ff" stroke="#63b8ff" points="193.31,-21.03 182.88,-19.17 189.87,-27.13 193.31,-21.03"/>
</a>
</g>
</g>
<!-- Node6&#45;&gt;Node8 -->
<g id="edge7_Node000006_Node000008" class="edge">
<title>Node6&#45;&gt;Node8</title>
<g id="a_edge7_Node000006_Node000008"><a xlink:title=" ">
<path fill="none" stroke="#63b8ff" d="M276.6,-54.98C291.32,-46.69 313.92,-33.94 331.17,-24.22"/>
<polygon fill="#63b8ff" stroke="#63b8ff" points="333.13,-27.13 340.12,-19.17 329.69,-21.03 333.13,-27.13"/>
</a>
</g>
</g>
<!-- Node13&#45;&gt;Node3 -->
<g id="edge16_Node000013_Node000003" class="edge">
<title>Node13&#45;&gt;Node3</title>
<g id="a_edge16_Node000013_Node000003"><a xlink:title=" ">
<path fill="none" stroke="#63b8ff" d="M419.74,-219.98C409.73,-212.07 394.61,-200.11 382.57,-190.58"/>
<polygon fill="#63b8ff" stroke="#63b8ff" points="384.47,-187.63 374.46,-184.17 380.13,-193.12 384.47,-187.63"/>
</a>
</g>
</g>
<!-- Node13&#45;&gt;Node9 -->
<g id="edge17_Node000013_Node000009" class="edge">
<title>Node13&#45;&gt;Node9</title>
<g id="a_edge17_Node000013_Node000009"><a xlink:title=" ">
<path fill="none" stroke="#63b8ff" d="M433.16,-219.7C435.8,-210.77 439.82,-196.52 442.5,-184 450.01,-148.98 456,-107.57 459.13,-84.14"/>
<polygon fill="#63b8ff" stroke="#63b8ff" points="462.6,-84.55 460.42,-74.18 455.66,-83.64 462.6,-84.55"/>
</a>
</g>
</g>
<!-- Node13&#45;&gt;Node12 -->
<g id="edge19_Node000013_Node000012" class="edge">
<title>Node13&#45;&gt;Node12</title>
<g id="a_edge19_Node000013_Node000012"><a xlink:title=" ">
<path fill="none" stroke="#63b8ff" d="M401.26,-219.98C369.52,-210.74 318.82,-195.98 284.62,-186.02"/>
<polygon fill="#63b8ff" stroke="#63b8ff" points="285.59,-182.65 275.01,-183.22 283.63,-189.38 285.59,-182.65"/>
</a>
</g>
</g>
<!-- Node14 -->
<g id="Node000014" class="node">
<title>Node14</title>
<g id="a_Node000014"><a xlink:title=" ">
<polygon fill="#e0e0e0" stroke="#999999" points="682,-184 629,-184 629,-165 682,-165 682,-184"/>
<text text-anchor="middle" x="655.5" y="-172" font-family="Helvetica,sans-Serif" font-size="10.00">stdlib.h</text>
</a>
</g>
</g>
<!-- Node13&#45;&gt;Node14 -->
<g id="edge18_Node000013_Node000014" class="edge">
<title>Node13&#45;&gt;Node14</title>
<g id="a_edge18_Node000013_Node000014"><a xlink:title=" ">
<path fill="none" stroke="#63b8ff" d="M467.3,-219.97C503.5,-211.57 560.6,-198.25 618.67,-184.42"/>
<polygon fill="#63b8ff" stroke="#63b8ff" points="619.84,-187.74 628.75,-182.02 618.21,-180.93 619.84,-187.74"/>
</a>
</g>
</g>
<!-- Node15&#45;&gt;Node3 -->
<g id="edge21_Node000015_Node000003" class="edge">
<title>Node15&#45;&gt;Node3</title>
<g id="a_edge21_Node000015_Node000003"><a xlink:title=" ">
<path fill="none" stroke="#63b8ff" d="M882.96,-221.35C879.77,-220.86 876.58,-220.4 873.5,-220 792.7,-209.49 566.04,-191.21 443.9,-181.68"/>
<polygon fill="#63b8ff" stroke="#63b8ff" points="444.09,-178.18 433.85,-180.9 443.54,-185.16 444.09,-178.18"/>
</a>
</g>
</g>
<!-- Node15&#45;&gt;Node9 -->
<g id="edge34_Node000015_Node000009" class="edge">
<title>Node15&#45;&gt;Node9</title>
<g id="a_edge34_Node000015_Node000009"><a xlink:title=" ">
<path fill="none" stroke="#63b8ff" d="M962.12,-228.2C1031.47,-226.75 1170.33,-219.38 1200.5,-184 1205.98,-177.57 1206.06,-171.36 1200.5,-165 1153.58,-111.34 640.44,-76.37 497.99,-67.64"/>
<polygon fill="#63b8ff" stroke="#63b8ff" points="498.2,-64.15 488,-67.04 497.77,-71.13 498.2,-64.15"/>
</a>
</g>
</g>
<!-- Node15&#45;&gt;Node11 -->
<g id="edge25_Node000015_Node000011" class="edge">
<title>Node15&#45;&gt;Node11</title>
<g id="a_edge25_Node000015_Node000011"><a xlink:title=" ">
<path fill="none" stroke="#63b8ff" d="M882.95,-221.43C879.76,-220.92 876.58,-220.44 873.5,-220 730.06,-199.61 692.19,-209.15 549.5,-184 549.4,-183.98 549.3,-183.96 549.2,-183.95"/>
<polygon fill="#63b8ff" stroke="#63b8ff" points="550.15,-180.57 539.65,-182.02 548.76,-187.43 550.15,-180.57"/>
</a>
</g>
</g>
<!-- Node15&#45;&gt;Node12 -->
<g id="edge27_Node000015_Node000012" class="edge">
<title>Node15&#45;&gt;Node12</title>
<g id="a_edge27_Node000015_Node000012"><a xlink:title=" ">
<path fill="none" stroke="#63b8ff" d="M882.97,-221.26C879.78,-220.79 876.59,-220.36 873.5,-220 616.32,-189.93 545.74,-221.45 285.28,-183.81"/>
<polygon fill="#63b8ff" stroke="#63b8ff" points="285.54,-180.31 275.14,-182.32 284.52,-187.24 285.54,-180.31"/>
</a>
</g>
</g>
<!-- Node15&#45;&gt;Node14 -->
<g id="edge26_Node000015_Node000014" class="edge">
<title>Node15&#45;&gt;Node14</title>
<g id="a_edge26_Node000015_Node000014"><a xlink:title=" ">
<path fill="none" stroke="#63b8ff" d="M882.75,-221.36C838.62,-213.32 765.06,-199.58 692.04,-184.04"/>
<polygon fill="#63b8ff" stroke="#63b8ff" points="692.72,-180.61 682.21,-181.94 691.25,-187.45 692.72,-180.61"/>
</a>
</g>
</g>
<!-- Node16 -->
<g id="Node000016" class="node">
<title>Node16</title>
<g id="a_Node000016"><a xlink:href="utility_8h.html" target="_top" xlink:title="A header for conditionally compiled debugging utilities.">
<polygon fill="white" stroke="#666666" points="866.5,-184 768.5,-184 768.5,-165 866.5,-165 866.5,-184"/>
<text text-anchor="middle" x="817.5" y="-172" font-family="Helvetica,sans-Serif" font-size="10.00">common/utility.h</text>
</a>
</g>
</g>
<!-- Node15&#45;&gt;Node16 -->
<g id="edge22_Node000015_Node000016" class="edge">
<title>Node15&#45;&gt;Node16</title>
<g id="a_edge22_Node000015_Node000016"><a xlink:title=" ">
<path fill="none" stroke="#63b8ff" d="M905.63,-219.98C888.89,-211.54 863,-198.47 843.61,-188.68"/>
<polygon fill="#63b8ff" stroke="#63b8ff" points="845.18,-185.55 834.68,-184.17 842.03,-191.8 845.18,-185.55"/>
</a>
</g>
</g>
<!-- Node17 -->
<g id="Node000017" class="node">
<title>Node17</title>
<g id="a_Node000017"><a xlink:title=" ">
<polygon fill="#e0e0e0" stroke="#999999" points="1295.5,-184 1247.5,-184 1247.5,-165 1295.5,-165 1295.5,-184"/>
<text text-anchor="middle" x="1271.5" y="-172" font-family="Helvetica,sans-Serif" font-size="10.00">time.h</text>
</a>
</g>
</g>
<!-- Node15&#45;&gt;Node17 -->
<g id="edge28_Node000015_Node000017" class="edge">
<title>Node15&#45;&gt;Node17</title>
<g id="a_edge28_Node000015_Node000017"><a xlink:title=" ">
<path fill="none" stroke="#63b8ff" d="M962.43,-223.8C1021.77,-216.58 1136.66,-201.73 1233.5,-184 1234.77,-183.77 1236.07,-183.52 1237.37,-183.27"/>
<polygon fill="#63b8ff" stroke="#63b8ff" points="1238.35,-186.64 1247.44,-181.18 1236.93,-179.78 1238.35,-186.64"/>
</a>
</g>
</g>
<!-- Node18 -->
<g id="Node000018" class="node">
<title>Node18</title>
<g id="a_Node000018"><a xlink:title=" ">
<polygon fill="#e0e0e0" stroke="#999999" points="1365,-184 1314,-184 1314,-165 1365,-165 1365,-184"/>
<text text-anchor="middle" x="1339.5" y="-172" font-family="Helvetica,sans-Serif" font-size="10.00">errno.h</text>
</a>
</g>
</g>
<!-- Node15&#45;&gt;Node18 -->
<g id="edge29_Node000015_Node000018" class="edge">
<title>Node15&#45;&gt;Node18</title>
<g id="a_edge29_Node000015_Node000018"><a xlink:title=" ">
<path fill="none" stroke="#63b8ff" d="M962.05,-225.5C1029.89,-220 1172.94,-206.89 1303.76,-183.9"/>
<polygon fill="#63b8ff" stroke="#63b8ff" points="1304.73,-187.28 1313.96,-182.08 1303.5,-180.39 1304.73,-187.28"/>
</a>
</g>
</g>
<!-- Node19 -->
<g id="Node000019" class="node">
<title>Node19</title>
<g id="a_Node000019"><a xlink:title=" ">
<polygon fill="#e0e0e0" stroke="#999999" points="1101,-184 1054,-184 1054,-165 1101,-165 1101,-184"/>
<text text-anchor="middle" x="1077.5" y="-172" font-family="Helvetica,sans-Serif" font-size="10.00">fcntl.h</text>
</a>
</g>
</g>
<!-- Node15&#45;&gt;Node19 -->
<g id="edge30_Node000015_Node000019" class="edge">
<title>Node15&#45;&gt;Node19</title>
<g id="a_edge30_Node000015_Node000019"><a xlink:title=" ">
<path fill="none" stroke="#63b8ff" d="M947.4,-219.98C973.66,-211.01 1015.17,-196.81 1044.22,-186.88"/>
<polygon fill="#63b8ff" stroke="#63b8ff" points="1045.6,-190.11 1053.93,-183.56 1043.33,-183.48 1045.6,-190.11"/>
</a>
</g>
</g>
<!-- Node20 -->
<g id="Node000020" class="node">
<title>Node20</title>
<g id="a_Node000020"><a xlink:title=" ">
<polygon fill="#e0e0e0" stroke="#999999" points="1036,-184 959,-184 959,-165 1036,-165 1036,-184"/>
<text text-anchor="middle" x="997.5" y="-172" font-family="Helvetica,sans-Serif" font-size="10.00">sys/mman.h</text>
</a>
</g>
</g>
<!-- Node15&#45;&gt;Node20 -->
<g id="edge31_Node000015_Node000020" class="edge">
<title>Node15&#45;&gt;Node20</title>
<g id="a_edge31_Node000015_Node000020"><a xlink:title=" ">
<path fill="none" stroke="#63b8ff" d="M934.55,-219.98C945.96,-211.92 963.33,-199.65 976.93,-190.03"/>
<polygon fill="#63b8ff" stroke="#63b8ff" points="979.08,-192.8 985.23,-184.17 975.04,-187.08 979.08,-192.8"/>
</a>
</g>
</g>
<!-- Node21 -->
<g id="Node000021" class="node">
<title>Node21</title>
<g id="a_Node000021"><a xlink:title=" ">
<polygon fill="#e0e0e0" stroke="#999999" points="1191.5,-184 1119.5,-184 1119.5,-165 1191.5,-165 1191.5,-184"/>
<text text-anchor="middle" x="1155.5" y="-172" font-family="Helvetica,sans-Serif" font-size="10.00">sys/types.h</text>
</a>
</g>
</g>
<!-- Node15&#45;&gt;Node21 -->
<g id="edge32_Node000015_Node000021" class="edge">
<title>Node15&#45;&gt;Node21</title>
<g id="a_edge32_Node000015_Node000021"><a xlink:title=" ">
<path fill="none" stroke="#63b8ff" d="M959.94,-219.98C1000.63,-210.73 1065.7,-195.93 1109.48,-185.97"/>
<polygon fill="#63b8ff" stroke="#63b8ff" points="1110.33,-189.36 1119.31,-183.73 1108.78,-182.54 1110.33,-189.36"/>
</a>
</g>
</g>
<!-- Node22 -->
<g id="Node000022" class="node">
<title>Node22</title>
<g id="a_Node000022"><a xlink:title=" ">
<polygon fill="#e0e0e0" stroke="#999999" points="940.5,-184 884.5,-184 884.5,-165 940.5,-165 940.5,-184"/>
<text text-anchor="middle" x="912.5" y="-172" font-family="Helvetica,sans-Serif" font-size="10.00">unistd.h</text>
</a>
</g>
</g>
<!-- Node15&#45;&gt;Node22 -->
<g id="edge33_Node000015_Node000022" class="edge">
<title>Node15&#45;&gt;Node22</title>
<g id="a_edge33_Node000015_Node000022"><a xlink:title=" ">
<path fill="none" stroke="#63b8ff" d="M920.85,-219.75C919.54,-212.8 917.66,-202.85 916.02,-194.13"/>
<polygon fill="#63b8ff" stroke="#63b8ff" points="919.41,-193.27 914.12,-184.09 912.54,-194.56 919.41,-193.27"/>
</a>
</g>
</g>
<!-- Node16&#45;&gt;Node6 -->
<g id="edge23_Node000016_Node000006" class="edge">
<title>Node16&#45;&gt;Node6</title>
<g id="a_edge23_Node000016_Node000006"><a xlink:title=" ">
<path fill="none" stroke="#63b8ff" d="M773.41,-164.94C672.53,-145.34 425.21,-97.3 315.47,-75.98"/>
<polygon fill="#63b8ff" stroke="#63b8ff" points="316.08,-72.54 305.6,-74.07 314.75,-79.41 316.08,-72.54"/>
</a>
</g>
</g>
<!-- Node16&#45;&gt;Node8 -->
<g id="edge24_Node000016_Node000008" class="edge">
<title>Node16&#45;&gt;Node8</title>
<g id="a_edge24_Node000016_Node000008"><a xlink:title=" ">
<path fill="none" stroke="#63b8ff" d="M795.53,-164.92C743.85,-144.85 610.46,-93.59 497.5,-55 462.4,-43.01 422.01,-30.47 393.3,-21.77"/>
<polygon fill="#63b8ff" stroke="#63b8ff" points="394.24,-18.4 383.66,-18.86 392.22,-25.1 394.24,-18.4"/>
</a>
</g>
</g>
<!-- Node23&#45;&gt;Node3 -->
<g id="edge36_Node000023_Node000003" class="edge">
<title>Node23&#45;&gt;Node3</title>
<g id="a_edge36_Node000023_Node000003"><a xlink:title=" ">
<path fill="none" stroke="#63b8ff" d="M155.35,-219.98C198.33,-210.8 266.87,-196.15 313.46,-186.19"/>
<polygon fill="#63b8ff" stroke="#63b8ff" points="314.29,-189.59 323.34,-184.08 312.83,-182.75 314.29,-189.59"/>
</a>
</g>
</g>
<!-- Node23&#45;&gt;Node12 -->
<g id="edge38_Node000023_Node000012" class="edge">
<title>Node23&#45;&gt;Node12</title>
<g id="a_edge38_Node000023_Node000012"><a xlink:title=" ">
<path fill="none" stroke="#63b8ff" d="M136.87,-219.98C158.65,-211.3 192.66,-197.75 217.42,-187.88"/>
<polygon fill="#63b8ff" stroke="#63b8ff" points="218.75,-191.12 226.74,-184.17 216.16,-184.62 218.75,-191.12"/>
</a>
</g>
</g>
<!-- Node24 -->
<g id="Node000024" class="node">
<title>Node24</title>
<g id="a_Node000024"><a xlink:title=" ">
<polygon fill="#e0e0e0" stroke="#999999" points="53,-184 0,-184 0,-165 53,-165 53,-184"/>
<text text-anchor="middle" x="26.5" y="-172" font-family="Helvetica,sans-Serif" font-size="10.00">ctype.h</text>
</a>
</g>
</g>
<!-- Node23&#45;&gt;Node24 -->
<g id="edge37_Node000023_Node000024" class="edge">
<title>Node23&#45;&gt;Node24</title>
<g id="a_edge37_Node000023_Node000024"><a xlink:title=" ">
<path fill="none" stroke="#63b8ff" d="M101.2,-219.98C87.4,-211.77 66.26,-199.18 49.99,-189.49"/>
<polygon fill="#63b8ff" stroke="#63b8ff" points="51.44,-186.28 41.06,-184.17 47.86,-192.29 51.44,-186.28"/>
</a>
</g>
</g>
<!-- Node25&#45;&gt;Node3 -->
<g id="edge40_Node000025_Node000003" class="edge">
<title>Node25&#45;&gt;Node3</title>
<g id="a_edge40_Node000025_Node000003"><a xlink:title=" ">
<path fill="none" stroke="#63b8ff" d="M257.74,-219.98C278.2,-211.38 310.03,-197.99 333.43,-188.15"/>
<polygon fill="#63b8ff" stroke="#63b8ff" points="335.03,-191.27 342.89,-184.17 332.31,-184.82 335.03,-191.27"/>
</a>
</g>
</g>
<!-- Node25&#45;&gt;Node7 -->
<g id="edge43_Node000025_Node000007" class="edge">
<title>Node25&#45;&gt;Node7</title>
<g id="a_edge43_Node000025_Node000007"><a xlink:title=" ">
<path fill="none" stroke="#63b8ff" d="M193.22,-219.97C157.57,-212.1 111.64,-199.33 100.5,-184 63.41,-132.95 122,-58.73 151.8,-26.46"/>
<polygon fill="#63b8ff" stroke="#63b8ff" points="154.34,-28.87 158.68,-19.21 149.26,-24.06 154.34,-28.87"/>
</a>
</g>
</g>
<!-- Node25&#45;&gt;Node10 -->
<g id="edge42_Node000025_Node000010" class="edge">
<title>Node25&#45;&gt;Node10</title>
<g id="a_edge42_Node000025_Node000010"><a xlink:title=" ">
<path fill="none" stroke="#63b8ff" d="M221.43,-219.98C205.64,-211.61 181.28,-198.7 162.87,-188.95"/>
<polygon fill="#63b8ff" stroke="#63b8ff" points="164.33,-185.76 153.86,-184.17 161.06,-191.95 164.33,-185.76"/>
</a>
</g>
</g>
<!-- Node25&#45;&gt;Node11 -->
<g id="edge44_Node000025_Node000011" class="edge">
<title>Node25&#45;&gt;Node11</title>
<g id="a_edge44_Node000025_Node000011"><a xlink:title=" ">
<path fill="none" stroke="#63b8ff" d="M282,-219.98C336.83,-209.49 428.87,-191.88 479.12,-182.27"/>
<polygon fill="#63b8ff" stroke="#63b8ff" points="480.02,-185.66 489.18,-180.34 478.7,-178.79 480.02,-185.66"/>
</a>
</g>
</g>
<!-- Node25&#45;&gt;Node12 -->
<g id="edge46_Node000025_Node000012" class="edge">
<title>Node25&#45;&gt;Node12</title>
<g id="a_edge46_Node000025_Node000012"><a xlink:title=" ">
<path fill="none" stroke="#63b8ff" d="M239.32,-219.75C240.76,-212.8 242.82,-202.85 244.63,-194.13"/>
<polygon fill="#63b8ff" stroke="#63b8ff" points="248.11,-194.59 246.72,-184.09 241.26,-193.17 248.11,-194.59"/>
</a>
</g>
</g>
<!-- Node25&#45;&gt;Node14 -->
<g id="edge45_Node000025_Node000014" class="edge">
<title>Node25&#45;&gt;Node14</title>
<g id="a_edge45_Node000025_Node000014"><a xlink:title=" ">
<path fill="none" stroke="#63b8ff" d="M285.14,-221.13C287.97,-220.74 290.77,-220.36 293.5,-220 435.22,-201.45 474.73,-208.95 618.73,-184.12"/>
<polygon fill="#63b8ff" stroke="#63b8ff" points="619.57,-187.52 628.82,-182.35 618.37,-180.63 619.57,-187.52"/>
</a>
</g>
</g>
<!-- Node25&#45;&gt;Node24 -->
<g id="edge41_Node000025_Node000024" class="edge">
<title>Node25&#45;&gt;Node24</title>
<g id="a_edge41_Node000025_Node000024"><a xlink:title=" ">
<path fill="none" stroke="#63b8ff" d="M203.6,-219.98C165.13,-210.32 102.6,-194.62 63.06,-184.68"/>
<polygon fill="#63b8ff" stroke="#63b8ff" points="63.84,-181.27 53.29,-182.23 62.13,-188.06 63.84,-181.27"/>
</a>
</g>
</g>
<!-- Node26&#45;&gt;Node3 -->
<g id="edge48_Node000026_Node000003" class="edge">
<title>Node26&#45;&gt;Node3</title>
<g id="a_edge48_Node000026_Node000003"><a xlink:title=" ">
<path fill="none" stroke="#63b8ff" d="M581.75,-220.33C537.02,-211.15 464.19,-196.19 415.1,-186.1"/>
<polygon fill="#63b8ff" stroke="#63b8ff" points="415.5,-182.61 405,-184.03 414.09,-189.47 415.5,-182.61"/>
</a>
</g>
</g>
<!-- Node27 -->
<g id="Node000027" class="node">
<title>Node27</title>
<g id="a_Node000027"><a xlink:title=" ">
<polygon fill="#e0e0e0" stroke="#999999" points="750.5,-184 700.5,-184 700.5,-165 750.5,-165 750.5,-184"/>
<text text-anchor="middle" x="725.5" y="-172" font-family="Helvetica,sans-Serif" font-size="10.00">dlfcn.h</text>
</a>
</g>
</g>
<!-- Node26&#45;&gt;Node27 -->
<g id="edge49_Node000026_Node000027" class="edge">
<title>Node26&#45;&gt;Node27</title>
<g id="a_edge49_Node000026_Node000027"><a xlink:title=" ">
<path fill="none" stroke="#63b8ff" d="M638.21,-219.98C654.71,-211.57 680.2,-198.59 699.38,-188.81"/>
<polygon fill="#63b8ff" stroke="#63b8ff" points="701.17,-191.83 708.49,-184.17 697.99,-185.59 701.17,-191.83"/>
</a>
</g>
</g>
<!-- Node28&#45;&gt;Node3 -->
<g id="edge51_Node000028_Node000003" class="edge">
<title>Node28&#45;&gt;Node3</title>
<g id="a_edge51_Node000028_Node000003"><a xlink:title=" ">
<path fill="none" stroke="#63b8ff" d="M499.47,-219.98C472.39,-211.13 429.79,-197.19 399.49,-187.28"/>
<polygon fill="#63b8ff" stroke="#63b8ff" points="400.32,-183.87 389.73,-184.08 398.15,-190.52 400.32,-183.87"/>
</a>
</g>
</g>
<!-- Node28&#45;&gt;Node11 -->
<g id="edge54_Node000028_Node000011" class="edge">
<title>Node28&#45;&gt;Node11</title>
<g id="a_edge54_Node000028_Node000011"><a xlink:title=" ">
<path fill="none" stroke="#63b8ff" d="M523.68,-219.75C522.24,-212.8 520.18,-202.85 518.37,-194.13"/>
<polygon fill="#63b8ff" stroke="#63b8ff" points="521.74,-193.17 516.28,-184.09 514.89,-194.59 521.74,-193.17"/>
</a>
</g>
</g>
<!-- Node28&#45;&gt;Node12 -->
<g id="edge56_Node000028_Node000012" class="edge">
<title>Node28&#45;&gt;Node12</title>
<g id="a_edge56_Node000028_Node000012"><a xlink:title=" ">
<path fill="none" stroke="#63b8ff" d="M487.41,-221.57C430.2,-211.15 325.23,-191.98 285.09,-183.98"/>
<polygon fill="#63b8ff" stroke="#63b8ff" points="285.7,-180.54 275.2,-181.96 284.3,-187.39 285.7,-180.54"/>
</a>
</g>
</g>
<!-- Node28&#45;&gt;Node14 -->
<g id="edge55_Node000028_Node000014" class="edge">
<title>Node28&#45;&gt;Node14</title>
<g id="a_edge55_Node000028_Node000014"><a xlink:title=" ">
<path fill="none" stroke="#63b8ff" d="M546.39,-219.98C567.58,-211.34 600.63,-197.87 624.8,-188.02"/>
<polygon fill="#63b8ff" stroke="#63b8ff" points="626.29,-191.19 634.23,-184.17 623.65,-184.7 626.29,-191.19"/>
</a>
</g>
</g>
<!-- Node28&#45;&gt;Node16 -->
<g id="edge52_Node000028_Node000016" class="edge">
<title>Node28&#45;&gt;Node16</title>
<g id="a_edge52_Node000028_Node000016"><a xlink:title=" ">
<path fill="none" stroke="#63b8ff" d="M563.67,-221.57C613.84,-212.47 702.38,-196.39 760.5,-185.85"/>
<polygon fill="#63b8ff" stroke="#63b8ff" points="761.41,-189.24 770.63,-184.01 760.16,-182.35 761.41,-189.24"/>
</a>
</g>
</g>
<!-- Node29 -->
<g id="Node000029" class="node">
<title>Node29</title>
<g id="a_Node000029"><a xlink:title=" ">
<polygon fill="#e0e0e0" stroke="#999999" points="611,-184 558,-184 558,-165 611,-165 611,-184"/>
<text text-anchor="middle" x="584.5" y="-172" font-family="Helvetica,sans-Serif" font-size="10.00">limits.h</text>
</a>
</g>
</g>
<!-- Node28&#45;&gt;Node29 -->
<g id="edge53_Node000028_Node000029" class="edge">
<title>Node28&#45;&gt;Node29</title>
<g id="a_edge53_Node000028_Node000029"><a xlink:title=" ">
<path fill="none" stroke="#63b8ff" d="M534.98,-219.98C543.7,-212.15 556.84,-200.34 567.4,-190.86"/>
<polygon fill="#63b8ff" stroke="#63b8ff" points="569.75,-193.46 574.85,-184.17 565.07,-188.25 569.75,-193.46"/>
</a>
</g>
</g>
<!-- Node31&#45;&gt;Node3 -->
<g id="edge59_Node000031_Node000003" class="edge">
<title>Node31&#45;&gt;Node3</title>
<g id="a_edge59_Node000031_Node000003"><a xlink:title=" ">
<path fill="none" stroke="#63b8ff" d="M678.84,-221.27C676.02,-220.84 673.22,-220.41 670.5,-220 589.41,-207.74 496.17,-194.32 433.92,-185.46"/>
<polygon fill="#63b8ff" stroke="#63b8ff" points="434.22,-181.97 423.82,-184.02 433.23,-188.9 434.22,-181.97"/>
</a>
</g>
</g>
<!-- Node31&#45;&gt;Node11 -->
<g id="edge61_Node000031_Node000011" class="edge">
<title>Node31&#45;&gt;Node11</title>
<g id="a_edge61_Node000031_Node000011"><a xlink:title=" ">
<path fill="none" stroke="#63b8ff" d="M690.76,-219.98C652.02,-210.21 588.77,-194.25 549.51,-184.34"/>
<polygon fill="#63b8ff" stroke="#63b8ff" points="550.14,-180.89 539.59,-181.83 548.43,-187.67 550.14,-180.89"/>
</a>
</g>
</g>
<!-- Node31&#45;&gt;Node12 -->
<g id="edge63_Node000031_Node000012" class="edge">
<title>Node31&#45;&gt;Node12</title>
<g id="a_edge63_Node000031_Node000012"><a xlink:title=" ">
<path fill="none" stroke="#63b8ff" d="M678.86,-221.11C676.04,-220.72 673.23,-220.34 670.5,-220 502.79,-199 456.29,-211.37 285.26,-183.88"/>
<polygon fill="#63b8ff" stroke="#63b8ff" points="285.59,-180.38 275.15,-182.23 284.46,-187.29 285.59,-180.38"/>
</a>
</g>
</g>
<!-- Node31&#45;&gt;Node14 -->
<g id="edge62_Node000031_Node000014" class="edge">
<title>Node31&#45;&gt;Node14</title>
<g id="a_edge62_Node000031_Node000014"><a xlink:title=" ">
<path fill="none" stroke="#63b8ff" d="M713.41,-219.98C703.01,-212 687.24,-199.88 674.78,-190.31"/>
<polygon fill="#63b8ff" stroke="#63b8ff" points="676.85,-187.49 666.79,-184.17 672.59,-193.04 676.85,-187.49"/>
</a>
</g>
</g>
<!-- Node31&#45;&gt;Node16 -->
<g id="edge60_Node000031_Node000016" class="edge">
<title>Node31&#45;&gt;Node16</title>
<g id="a_edge60_Node000031_Node000016"><a xlink:title=" ">
<path fill="none" stroke="#63b8ff" d="M739.44,-219.98C754,-211.69 776.37,-198.94 793.43,-189.22"/>
<polygon fill="#63b8ff" stroke="#63b8ff" points="795.33,-192.16 802.29,-184.17 791.86,-186.08 795.33,-192.16"/>
</a>
</g>
</g>
<!-- Node31&#45;&gt;Node20 -->
<g id="edge64_Node000031_Node000020" class="edge">
<title>Node31&#45;&gt;Node20</title>
<g id="a_edge64_Node000031_Node000020"><a xlink:title=" ">
<path fill="none" stroke="#63b8ff" d="M768.36,-219.98C817.68,-210.41 897.54,-194.91 948.76,-184.96"/>
<polygon fill="#63b8ff" stroke="#63b8ff" points="949.46,-188.39 958.61,-183.05 948.13,-181.52 949.46,-188.39"/>
</a>
</g>
</g>
<!-- Node31&#45;&gt;Node22 -->
<g id="edge65_Node000031_Node000022" class="edge">
<title>Node31&#45;&gt;Node22</title>
<g id="a_edge65_Node000031_Node000022"><a xlink:title=" ">
<path fill="none" stroke="#63b8ff" d="M754.71,-219.98C787.2,-210.82 838.96,-196.23 874.27,-186.28"/>
<polygon fill="#63b8ff" stroke="#63b8ff" points="875.54,-189.56 884.21,-183.47 873.64,-182.82 875.54,-189.56"/>
</a>
</g>
</g>
</g>
</svg>

<g id="navigator" transform="translate(0 0)" fill="#404254">
  <rect fill="#f2f5e9" fill-opacity="0.5" stroke="#606060" stroke-width=".5" x="0" y="0" width="60" height="60"/>
  <use id="zoomplus" xlink:href="#zoomPlus" x="17" y="9" onmousedown="handleZoom(evt,'in')"/>
  <use id="zoomminus" xlink:href="#zoomMin" x="42" y="9" onmousedown="handleZoom(evt,'out')"/>
  <use id="reset" xlink:href="#resetDef" x="30" y="36" onmousedown="handleReset()"/>
   <use id="arrowup" xlink:href="#arrowUp" x="0" y="0" onmousedown="handlePan(0,-1)"/>
  <use id="arrowright" xlink:href="#arrowRight" x="0" y="0" onmousedown="handlePan(1,0)"/>
  <use id="arrowdown" xlink:href="#arrowDown" x="0" y="0" onmousedown="handlePan(0,1)"/>
  <use id="arrowleft" xlink:href="#arrowLeft" x="0" y="0" onmousedown="handlePan(-1,0)"/>
</g>
<svg viewBox="0 0 15 15" width="100%" height="30px" preserveAspectRatio="xMaxYMin meet">
 <g id="arrow_out" transform="scale(0.3 0.3)">
  <a xlink:href="infix_8c__incl_org.svg" target="_base">
   <rect id="button" ry="5" rx="5" y="6" x="6" height="38" width="38"
        fill="#f2f5e9" fill-opacity="0.5" stroke="#606060" stroke-width="1.0"/>
   <path id="arrow"
     d="M 11.500037,31.436501 C 11.940474,20.09759 22.043105,11.32322 32.158766,21.979434 L 37.068811,17.246167 C 37.068811,17.246167 37.088388,32 37.088388,32 L 22.160133,31.978069 C 22.160133,31.978069 26.997745,27.140456 26.997745,27.140456 C 18.528582,18.264221 13.291696,25.230495 11.500037,31.436501 z"
     style="fill:#404040;"/>
  </a>
 </g>
</svg>

<style type='text/css'>
<![CDATA[
[data-mouse-over-selected='false'] { opacity: 0.7; }
[data-mouse-over-selected='true']  { opacity: 1.0; }
]]>
</style>
<script type="application/ecmascript"><![CDATA[
document.addEventListener('DOMContentLoaded', (event) => {
  highlightEdges();
  highlightAdjacentNodes();
});
]]></script>
</svg>
