<?xml version="1.0" encoding="UTF-8" standalone="no"?>
<!DOCTYPE svg PUBLIC "-//W3C//DTD SVG 1.1//EN"
 "http://www.w3.org/Graphics/SVG/1.1/DTD/svg11.dtd">
<!-- Generated by graphviz version 2.43.0 (0)
 -->
<!-- Title: src/common/infix_config.h Pages: 1 -->
<!--zoomable 269 -->

<svg id="main" version="1.1" xmlns="http://www.w3.org/2000/svg" xmlns:xlink="http://www.w3.org/1999/xlink" xml:space="preserve" onload="init(evt)">
<style type="text/css"><![CDATA[
.node, .edge {opacity: 0.7;}
.node.selected, .edge.selected {opacity: 1;}
.edge:hover path { stroke: red; }
.edge:hover polygon { stroke: red; fill: red; }
]]></style>

<defs>
  <circle id="rim" cx="0" cy="0" r="7"/>
  <circle id="rim2" cx="0" cy="0" r="3.5"/>
  <g id="zoomPlus">
    <use xlink:href="#rim" fill="#404040"><set attributeName="fill" to="#808080" begin="zoomplus.mouseover" end="zoomplus.mouseout"/></use>
    <path d="M-4,0h8M0,-4v8" fill="none" stroke="white" stroke-width="1.5" pointer-events="none"/>
  </g>
  <g id="zoomMin">
    <use xlink:href="#rim" fill="#404040"><set attributeName="fill" to="#808080" begin="zoomminus.mouseover" end="zoomminus.mouseout"/></use>
    <path d="M-4,0h8" fill="none" stroke="white" stroke-width="1.5" pointer-events="none"/>
  </g>
  <g id="arrowUp" transform="translate(30 24)">
    <use xlink:href="#rim"/>
    <path pointer-events="none" fill="none" stroke="white" stroke-width="1.5" d="M0,-3.0v7 M-2.5,-0.5L0,-3.0L2.5,-0.5"/>
  </g>
  <g id="arrowRight" transform="rotate(90) translate(36 -43)">
    <use xlink:href="#rim"/>
    <path pointer-events="none" fill="none" stroke="white" stroke-width="1.5" d="M0,-3.0v7 M-2.5,-0.5L0,-3.0L2.5,-0.5"/>
  </g>
  <g id="arrowDown" transform="rotate(180) translate(-30 -48)">
    <use xlink:href="#rim"/>
    <path pointer-events="none" fill="none" stroke="white" stroke-width="1.5" d="M0,-3.0v7 M-2.5,-0.5L0,-3.0L2.5,-0.5"/>
  </g>
  <g id="arrowLeft" transform="rotate(270) translate(-36 17)">
    <use xlink:href="#rim"/>
    <path pointer-events="none" fill="none" stroke="white" stroke-width="1.5" d="M0,-3.0v7 M-2.5,-0.5L0,-3.0L2.5,-0.5"/>
  </g>
  <g id="resetDef">
    <use xlink:href="#rim2" fill="#404040"><set attributeName="fill" to="#808080" begin="reset.mouseover" end="reset.mouseout"/></use>
  </g>
</defs>
<script type="application/ecmascript">
var viewWidth = 3497;
var viewHeight = 269;
var sectionId = 'dynsection-0';
</script>
<script type="application/ecmascript" xlink:href="svg.min.js"/>
<svg id="graph" class="graph">
<g id="viewport">
<title>src/common/infix_config.h</title>
<!-- Node1 -->
<g id="Node000001" class="node">
<title>Node1</title>
<g id="a_Node000001"><a xlink:title="Platform, architecture, and ABI detection macros.">
<polygon fill="#999999" stroke="#666666" points="2967.5,-261 2823.5,-261 2823.5,-242 2967.5,-242 2967.5,-261"/>
<text text-anchor="middle" x="2895.5" y="-249" font-family="Helvetica,sans-Serif" font-size="10.00">src/common/infix_config.h</text>
</a>
</g>
</g>
<!-- Node2 -->
<g id="Node000002" class="node">
<title>Node2</title>
<g id="a_Node000002"><a xlink:href="infix__internals_8h.html" target="_top" xlink:title="Internal data structures, function prototypes, and constants.">
<polygon fill="white" stroke="#666666" points="2160.5,-151 2002.5,-151 2002.5,-132 2160.5,-132 2160.5,-151"/>
<text text-anchor="middle" x="2081.5" y="-139" font-family="Helvetica,sans-Serif" font-size="10.00">src/common/infix_internals.h</text>
</a>
</g>
</g>
<!-- Node1&#45;&gt;Node2 -->
<g id="edge1_Node000001_Node000002" class="edge">
<title>Node1&#45;&gt;Node2</title>
<g id="a_edge1_Node000001_Node000002"><a xlink:title=" ">
<path fill="none" stroke="#63b8ff" d="M2821.16,-240.64C2662.77,-219.62 2294.38,-170.75 2145.57,-151"/>
<polygon fill="#63b8ff" stroke="#63b8ff" points="2820.91,-244.13 2831.29,-241.98 2821.83,-237.2 2820.91,-244.13"/>
</a>
</g>
</g>
<!-- Node30 -->
<g id="Node000030" class="node">
<title>Node30</title>
<g id="a_Node000030"><a xlink:href="501__direct__marshalling_8c.html" target="_top" xlink:title="Test suite for the high&#45;performance direct marshalling API.">
<polygon fill="white" stroke="#666666" points="3254.5,-90.5 3108.5,-90.5 3108.5,-71.5 3254.5,-71.5 3254.5,-90.5"/>
<text text-anchor="middle" x="3181.5" y="-78.5" font-family="Helvetica,sans-Serif" font-size="10.00">t/501_direct_marshalling.c</text>
</a>
</g>
</g>
<!-- Node1&#45;&gt;Node30 -->
<g id="edge49_Node000001_Node000030" class="edge">
<title>Node1&#45;&gt;Node30</title>
<g id="a_edge49_Node000001_Node000030"><a xlink:title=" ">
<path fill="none" stroke="#63b8ff" d="M2822.57,-239.91C2781.39,-230.73 2742.07,-214.48 2763.5,-187 2786.54,-157.46 3029.3,-109.89 3133.94,-90.57"/>
<polygon fill="#63b8ff" stroke="#63b8ff" points="2821.98,-243.36 2832.48,-241.98 2823.41,-236.5 2821.98,-243.36"/>
</a>
</g>
</g>
<!-- Node33 -->
<g id="Node000033" class="node">
<title>Node33</title>
<g id="a_Node000033"><a xlink:href="platform_8h.html" target="_top" xlink:title="Declares internal, runtime CPU/OS feature detection functions.">
<polygon fill="white" stroke="#666666" points="2716,-206 2585,-206 2585,-187 2716,-187 2716,-206"/>
<text text-anchor="middle" x="2650.5" y="-194" font-family="Helvetica,sans-Serif" font-size="10.00">src/common/platform.h</text>
</a>
</g>
</g>
<!-- Node1&#45;&gt;Node33 -->
<g id="edge42_Node000001_Node000033" class="edge">
<title>Node1&#45;&gt;Node33</title>
<g id="a_edge42_Node000001_Node000033"><a xlink:title=" ">
<path fill="none" stroke="#63b8ff" d="M2846.11,-239.82C2800.2,-229.88 2732.67,-215.28 2690.17,-206.08"/>
<polygon fill="#63b8ff" stroke="#63b8ff" points="2845.62,-243.29 2856.14,-241.98 2847.1,-236.45 2845.62,-243.29"/>
</a>
</g>
</g>
<!-- Node35 -->
<g id="Node000035" class="node">
<title>Node35</title>
<g id="a_Node000035"><a xlink:href="001__primitives_8c.html" target="_top" xlink:title="Unit test for creating trampolines for functions with primitive C types.">
<polygon fill="white" stroke="#666666" points="2876.5,-206 2772.5,-206 2772.5,-187 2876.5,-187 2876.5,-206"/>
<text text-anchor="middle" x="2824.5" y="-194" font-family="Helvetica,sans-Serif" font-size="10.00">t/001_primitives.c</text>
</a>
</g>
</g>
<!-- Node1&#45;&gt;Node35 -->
<g id="edge46_Node000001_Node000035" class="edge">
<title>Node1&#45;&gt;Node35</title>
<g id="a_edge46_Node000001_Node000035"><a xlink:title=" ">
<path fill="none" stroke="#63b8ff" d="M2875.91,-235.88C2863.13,-226.34 2846.89,-214.21 2836.11,-206.17"/>
<polygon fill="#63b8ff" stroke="#63b8ff" points="2873.99,-238.81 2884.09,-241.98 2878.17,-233.2 2873.99,-238.81"/>
</a>
</g>
</g>
<!-- Node36 -->
<g id="Node000036" class="node">
<title>Node36</title>
<g id="a_Node000036"><a xlink:href="402__variadic__functions_8c.html" target="_top" xlink:title="Unit test for FFI calls to and from variadic C functions.">
<polygon fill="white" stroke="#666666" points="3038.5,-206 2894.5,-206 2894.5,-187 3038.5,-187 3038.5,-206"/>
<text text-anchor="middle" x="2966.5" y="-194" font-family="Helvetica,sans-Serif" font-size="10.00">t/402_variadic_functions.c</text>
</a>
</g>
</g>
<!-- Node1&#45;&gt;Node36 -->
<g id="edge47_Node000001_Node000036" class="edge">
<title>Node1&#45;&gt;Node36</title>
<g id="a_edge47_Node000001_Node000036"><a xlink:title=" ">
<path fill="none" stroke="#63b8ff" d="M2915.09,-235.88C2927.87,-226.34 2944.11,-214.21 2954.89,-206.17"/>
<polygon fill="#63b8ff" stroke="#63b8ff" points="2912.83,-233.2 2906.91,-241.98 2917.01,-238.81 2912.83,-233.2"/>
</a>
</g>
</g>
<!-- Node37 -->
<g id="Node000037" class="node">
<title>Node37</title>
<g id="a_Node000037"><a xlink:href="403__special__types_8c.html" target="_top" xlink:title="Unit test for FFI calls with special, non&#45;standard, or platform&#45;dependent primitive types.">
<polygon fill="white" stroke="#666666" points="3178.5,-206 3056.5,-206 3056.5,-187 3178.5,-187 3178.5,-206"/>
<text text-anchor="middle" x="3117.5" y="-194" font-family="Helvetica,sans-Serif" font-size="10.00">t/403_special_types.c</text>
</a>
</g>
</g>
<!-- Node1&#45;&gt;Node37 -->
<g id="edge48_Node000001_Node000037" class="edge">
<title>Node1&#45;&gt;Node37</title>
<g id="a_edge48_Node000001_Node000037"><a xlink:title=" ">
<path fill="none" stroke="#63b8ff" d="M2941.04,-239.63C2982.63,-229.7 3043.28,-215.22 3081.55,-206.08"/>
<polygon fill="#63b8ff" stroke="#63b8ff" points="2940.08,-236.26 2931.17,-241.98 2941.71,-243.07 2940.08,-236.26"/>
</a>
</g>
</g>
<!-- Node38 -->
<g id="Node000038" class="node">
<title>Node38</title>
<g id="a_Node000038"><a xlink:href="820__threading__helgrind_8c.html" target="_top" xlink:title="A stress test to detect data races and other threading issues.">
<polygon fill="white" stroke="#666666" points="3342.5,-206 3196.5,-206 3196.5,-187 3342.5,-187 3342.5,-206"/>
<text text-anchor="middle" x="3269.5" y="-194" font-family="Helvetica,sans-Serif" font-size="10.00">t/820_threading_helgrind.c</text>
</a>
</g>
</g>
<!-- Node1&#45;&gt;Node38 -->
<g id="edge50_Node000001_Node000038" class="edge">
<title>Node1&#45;&gt;Node38</title>
<g id="a_edge50_Node000001_Node000038"><a xlink:title=" ">
<path fill="none" stroke="#63b8ff" d="M2965.67,-240.56C3035.89,-230.61 3142.76,-215.46 3209.25,-206.04"/>
<polygon fill="#63b8ff" stroke="#63b8ff" points="2965,-237.12 2955.59,-241.98 2965.98,-244.05 2965,-237.12"/>
</a>
</g>
</g>
<!-- Node39 -->
<g id="Node000039" class="node">
<title>Node39</title>
<g id="a_Node000039"><a xlink:href="821__threading__bare_8c.html" target="_top" xlink:title="A minimal, dependency&#45;free version of the thread&#45;safety stress test.">
<polygon fill="white" stroke="#666666" points="3488.5,-206 3360.5,-206 3360.5,-187 3488.5,-187 3488.5,-206"/>
<text text-anchor="middle" x="3424.5" y="-194" font-family="Helvetica,sans-Serif" font-size="10.00">t/821_threading_bare.c</text>
</a>
</g>
</g>
<!-- Node1&#45;&gt;Node39 -->
<g id="edge51_Node000001_Node000039" class="edge">
<title>Node1&#45;&gt;Node39</title>
<g id="a_edge51_Node000001_Node000039"><a xlink:title=" ">
<path fill="none" stroke="#63b8ff" d="M2977.82,-242.93C3069.18,-234.42 3220.95,-219.97 3351.5,-206 3354.42,-205.69 3357.4,-205.36 3360.41,-205.03"/>
<polygon fill="#63b8ff" stroke="#63b8ff" points="2977.44,-239.45 2967.81,-243.86 2978.09,-246.42 2977.44,-239.45"/>
</a>
</g>
</g>
<!-- Node3 -->
<g id="Node000003" class="node">
<title>Node3</title>
<g id="a_Node000003"><a xlink:href="fuzz__helpers_8h.html" target="_top" xlink:title="Common definitions, structures, and helpers for all fuzzer targets.">
<polygon fill="white" stroke="#666666" points="605.5,-90.5 495.5,-90.5 495.5,-71.5 605.5,-71.5 605.5,-90.5"/>
<text text-anchor="middle" x="550.5" y="-78.5" font-family="Helvetica,sans-Serif" font-size="10.00">fuzz/fuzz_helpers.h</text>
</a>
</g>
</g>
<!-- Node2&#45;&gt;Node3 -->
<g id="edge2_Node000002_Node000003" class="edge">
<title>Node2&#45;&gt;Node3</title>
<g id="a_edge2_Node000002_Node000003"><a xlink:title=" ">
<path fill="none" stroke="#63b8ff" d="M1992.17,-137.09C1708.68,-126.25 834.51,-92.85 605.75,-84.11"/>
<polygon fill="#63b8ff" stroke="#63b8ff" points="1992.28,-140.59 2002.41,-137.48 1992.55,-133.6 1992.28,-140.59"/>
</a>
</g>
</g>
<!-- Node12 -->
<g id="Node000012" class="node">
<title>Node12</title>
<g id="a_Node000012"><a xlink:href="abi__arm64_8c.html" target="_top" xlink:title="Implements the FFI logic for the AArch64 (ARM64) architecture.">
<polygon fill="white" stroke="#666666" points="1164,-30 1049,-30 1049,0 1164,0 1164,-30"/>
<text text-anchor="start" x="1057" y="-18" font-family="Helvetica,sans-Serif" font-size="10.00">src/arch/aarch64/abi</text>
<text text-anchor="middle" x="1106.5" y="-7" font-family="Helvetica,sans-Serif" font-size="10.00">_arm64.c</text>
</a>
</g>
</g>
<!-- Node2&#45;&gt;Node12 -->
<g id="edge11_Node000002_Node000012" class="edge">
<title>Node2&#45;&gt;Node12</title>
<g id="a_edge11_Node000002_Node000012"><a xlink:title=" ">
<path fill="none" stroke="#63b8ff" d="M1992.08,-140.2C1777.23,-138.91 1244.41,-132.07 1172.5,-96 1144.01,-81.71 1123.37,-48.94 1113.34,-30.07"/>
<polygon fill="#63b8ff" stroke="#63b8ff" points="1992.35,-143.71 2002.37,-140.26 1992.39,-136.71 1992.35,-143.71"/>
</a>
</g>
</g>
<!-- Node13 -->
<g id="Node000013" class="node">
<title>Node13</title>
<g id="a_Node000013"><a xlink:href="abi__arm64__emitters_8h.html" target="_top" xlink:title="Declares internal helper functions for emitting AArch64 machine code.">
<polygon fill="white" stroke="#666666" points="1297,-96 1182,-96 1182,-66 1297,-66 1297,-96"/>
<text text-anchor="start" x="1190" y="-84" font-family="Helvetica,sans-Serif" font-size="10.00">src/arch/aarch64/abi</text>
<text text-anchor="middle" x="1239.5" y="-73" font-family="Helvetica,sans-Serif" font-size="10.00">_arm64_emitters.h</text>
</a>
</g>
</g>
<!-- Node2&#45;&gt;Node13 -->
<g id="edge12_Node000002_Node000013" class="edge">
<title>Node2&#45;&gt;Node13</title>
<g id="a_edge12_Node000002_Node000013"><a xlink:title=" ">
<path fill="none" stroke="#63b8ff" d="M1992.24,-137.58C1852.24,-132.46 1572.61,-120.05 1336.5,-96 1323.72,-94.7 1310.04,-92.95 1297.11,-91.12"/>
<polygon fill="#63b8ff" stroke="#63b8ff" points="1992.36,-141.09 2002.48,-137.95 1992.62,-134.09 1992.36,-141.09"/>
</a>
</g>
</g>
<!-- Node15 -->
<g id="Node000015" class="node">
<title>Node15</title>
<g id="a_Node000015"><a xlink:href="abi__sysv__x64_8c.html" target="_top" xlink:title="Implements the FFI logic for the System V AMD64 ABI.">
<polygon fill="white" stroke="#666666" points="1437.5,-30 1315.5,-30 1315.5,0 1437.5,0 1437.5,-30"/>
<text text-anchor="start" x="1323.5" y="-18" font-family="Helvetica,sans-Serif" font-size="10.00">src/arch/x64/abi_sysv</text>
<text text-anchor="middle" x="1376.5" y="-7" font-family="Helvetica,sans-Serif" font-size="10.00">_x64.c</text>
</a>
</g>
</g>
<!-- Node2&#45;&gt;Node15 -->
<g id="edge15_Node000002_Node000015" class="edge">
<title>Node2&#45;&gt;Node15</title>
<g id="a_edge15_Node000002_Node000015"><a xlink:title=" ">
<path fill="none" stroke="#63b8ff" d="M1992.29,-138.14C1805.89,-132.78 1390.51,-118.37 1369.5,-96 1352.99,-78.42 1361.99,-48.07 1369.56,-30.23"/>
<polygon fill="#63b8ff" stroke="#63b8ff" points="1992.25,-141.64 2002.35,-138.43 1992.45,-134.64 1992.25,-141.64"/>
</a>
</g>
</g>
<!-- Node16 -->
<g id="Node000016" class="node">
<title>Node16</title>
<g id="a_Node000016"><a xlink:href="abi__win__x64_8c.html" target="_top" xlink:title="Implements the FFI logic for the Windows x64 calling convention.">
<polygon fill="white" stroke="#666666" points="1707.5,-30 1591.5,-30 1591.5,0 1707.5,0 1707.5,-30"/>
<text text-anchor="start" x="1599.5" y="-18" font-family="Helvetica,sans-Serif" font-size="10.00">src/arch/x64/abi_win</text>
<text text-anchor="middle" x="1649.5" y="-7" font-family="Helvetica,sans-Serif" font-size="10.00">_x64.c</text>
</a>
</g>
</g>
<!-- Node2&#45;&gt;Node16 -->
<g id="edge16_Node000002_Node000016" class="edge">
<title>Node2&#45;&gt;Node16</title>
<g id="a_edge16_Node000002_Node000016"><a xlink:title=" ">
<path fill="none" stroke="#63b8ff" d="M1992.1,-139.57C1846.96,-137.13 1573.2,-128.26 1543.5,-96 1518.59,-68.95 1565.87,-44.55 1605.05,-30"/>
<polygon fill="#63b8ff" stroke="#63b8ff" points="1992.26,-143.08 2002.32,-139.74 1992.38,-136.08 1992.26,-143.08"/>
</a>
</g>
</g>
<!-- Node17 -->
<g id="Node000017" class="node">
<title>Node17</title>
<g id="a_Node000017"><a xlink:href="abi__x64__emitters_8h.html" target="_top" xlink:title="Declares internal helper functions for emitting x86&#45;64 machine code.">
<polygon fill="white" stroke="#666666" points="1496,-96 1379,-96 1379,-66 1496,-66 1496,-96"/>
<text text-anchor="start" x="1387" y="-84" font-family="Helvetica,sans-Serif" font-size="10.00">src/arch/x64/abi_x64</text>
<text text-anchor="middle" x="1437.5" y="-73" font-family="Helvetica,sans-Serif" font-size="10.00">_emitters.h</text>
</a>
</g>
</g>
<!-- Node2&#45;&gt;Node17 -->
<g id="edge17_Node000002_Node000017" class="edge">
<title>Node2&#45;&gt;Node17</title>
<g id="a_edge17_Node000002_Node000017"><a xlink:title=" ">
<path fill="none" stroke="#63b8ff" d="M1991.93,-136.62C1879.22,-131.02 1679.89,-118.77 1510.5,-96 1505.9,-95.38 1501.14,-94.66 1496.37,-93.88"/>
<polygon fill="#63b8ff" stroke="#63b8ff" points="1992.07,-140.13 2002.23,-137.12 1992.41,-133.14 1992.07,-140.13"/>
</a>
</g>
</g>
<!-- Node19 -->
<g id="Node000019" class="node">
<title>Node19</title>
<g id="a_Node000019"><a xlink:href="arena_8c.html" target="_top" xlink:title="Implements a simple, fast arena (or region&#45;based) allocator.">
<polygon fill="white" stroke="#666666" points="1646.5,-90.5 1552.5,-90.5 1552.5,-71.5 1646.5,-71.5 1646.5,-90.5"/>
<text text-anchor="middle" x="1599.5" y="-78.5" font-family="Helvetica,sans-Serif" font-size="10.00">src/core/arena.c</text>
</a>
</g>
</g>
<!-- Node2&#45;&gt;Node19 -->
<g id="edge21_Node000002_Node000019" class="edge">
<title>Node2&#45;&gt;Node19</title>
<g id="a_edge21_Node000002_Node000019"><a xlink:title=" ">
<path fill="none" stroke="#63b8ff" d="M1992.08,-134.84C1905.53,-128.5 1770.85,-116.34 1655.5,-96 1647.31,-94.56 1638.54,-92.58 1630.43,-90.56"/>
<polygon fill="#63b8ff" stroke="#63b8ff" points="1991.9,-138.34 2002.13,-135.57 1992.41,-131.35 1991.9,-138.34"/>
</a>
</g>
</g>
<!-- Node21 -->
<g id="Node000021" class="node">
<title>Node21</title>
<g id="a_Node000021"><a xlink:href="error_8c.html" target="_top" xlink:title="Implements the thread&#45;local error reporting system.">
<polygon fill="white" stroke="#666666" points="1754,-90.5 1665,-90.5 1665,-71.5 1754,-71.5 1754,-90.5"/>
<text text-anchor="middle" x="1709.5" y="-78.5" font-family="Helvetica,sans-Serif" font-size="10.00">src/core/error.c</text>
</a>
</g>
</g>
<!-- Node2&#45;&gt;Node21 -->
<g id="edge23_Node000002_Node000021" class="edge">
<title>Node2&#45;&gt;Node21</title>
<g id="a_edge23_Node000002_Node000021"><a xlink:title=" ">
<path fill="none" stroke="#63b8ff" d="M1992.28,-130.79C1928.28,-123.15 1840.18,-111.25 1763.5,-96 1755.81,-94.47 1747.57,-92.51 1739.92,-90.54"/>
<polygon fill="#63b8ff" stroke="#63b8ff" points="1992,-134.28 2002.34,-131.98 1992.82,-127.33 1992,-134.28"/>
</a>
</g>
</g>
<!-- Node22 -->
<g id="Node000022" class="node">
<title>Node22</title>
<g id="a_Node000022"><a xlink:href="loader_8c.html" target="_top" xlink:title="Implements cross&#45;platform dynamic library loading.">
<polygon fill="white" stroke="#666666" points="1868.5,-90.5 1772.5,-90.5 1772.5,-71.5 1868.5,-71.5 1868.5,-90.5"/>
<text text-anchor="middle" x="1820.5" y="-78.5" font-family="Helvetica,sans-Serif" font-size="10.00">src/core/loader.c</text>
</a>
</g>
</g>
<!-- Node2&#45;&gt;Node22 -->
<g id="edge25_Node000002_Node000022" class="edge">
<title>Node2&#45;&gt;Node22</title>
<g id="a_edge25_Node000002_Node000022"><a xlink:title=" ">
<path fill="none" stroke="#63b8ff" d="M2030.96,-129.86C1989.63,-121.06 1929.7,-108.1 1877.5,-96 1870.05,-94.27 1862.08,-92.36 1854.52,-90.51"/>
<polygon fill="#63b8ff" stroke="#63b8ff" points="2030.28,-133.29 2040.79,-131.95 2031.73,-126.44 2030.28,-133.29"/>
</a>
</g>
</g>
<!-- Node23 -->
<g id="Node000023" class="node">
<title>Node23</title>
<g id="a_Node000023"><a xlink:href="signature_8c.html" target="_top" xlink:title="Implements the infix signature string parser and type printer.">
<polygon fill="white" stroke="#666666" points="1998.5,-90.5 1886.5,-90.5 1886.5,-71.5 1998.5,-71.5 1998.5,-90.5"/>
<text text-anchor="middle" x="1942.5" y="-78.5" font-family="Helvetica,sans-Serif" font-size="10.00">src/core/signature.c</text>
</a>
</g>
</g>
<!-- Node2&#45;&gt;Node23 -->
<g id="edge27_Node000002_Node000023" class="edge">
<title>Node2&#45;&gt;Node23</title>
<g id="a_edge27_Node000002_Node000023"><a xlink:title=" ">
<path fill="none" stroke="#63b8ff" d="M2051.99,-128.08C2025.14,-116.78 1986.22,-100.4 1962.74,-90.52"/>
<polygon fill="#63b8ff" stroke="#63b8ff" points="2050.71,-131.34 2061.29,-131.99 2053.43,-124.89 2050.71,-131.34"/>
</a>
</g>
</g>
<!-- Node24 -->
<g id="Node000024" class="node">
<title>Node24</title>
<g id="a_Node000024"><a xlink:href="type__registry_8c.html" target="_top" xlink:title="Implements the named type registry system.">
<polygon fill="white" stroke="#666666" points="2146,-90.5 2017,-90.5 2017,-71.5 2146,-71.5 2146,-90.5"/>
<text text-anchor="middle" x="2081.5" y="-78.5" font-family="Helvetica,sans-Serif" font-size="10.00">src/core/type_registry.c</text>
</a>
</g>
</g>
<!-- Node2&#45;&gt;Node24 -->
<g id="edge29_Node000002_Node000024" class="edge">
<title>Node2&#45;&gt;Node24</title>
<g id="a_edge29_Node000002_Node000024"><a xlink:title=" ">
<path fill="none" stroke="#63b8ff" d="M2081.5,-121.66C2081.5,-111.24 2081.5,-98.8 2081.5,-90.67"/>
<polygon fill="#63b8ff" stroke="#63b8ff" points="2078,-121.87 2081.5,-131.87 2085,-121.87 2078,-121.87"/>
</a>
</g>
</g>
<!-- Node25 -->
<g id="Node000025" class="node">
<title>Node25</title>
<g id="a_Node000025"><a xlink:href="types_8c.html" target="_top" xlink:title="Implements the public API for creating and managing type descriptions.">
<polygon fill="white" stroke="#666666" points="2257,-90.5 2164,-90.5 2164,-71.5 2257,-71.5 2257,-90.5"/>
<text text-anchor="middle" x="2210.5" y="-78.5" font-family="Helvetica,sans-Serif" font-size="10.00">src/core/types.c</text>
</a>
</g>
</g>
<!-- Node2&#45;&gt;Node25 -->
<g id="edge31_Node000002_Node000025" class="edge">
<title>Node2&#45;&gt;Node25</title>
<g id="a_edge31_Node000002_Node000025"><a xlink:title=" ">
<path fill="none" stroke="#63b8ff" d="M2109.54,-127.78C2134.44,-116.49 2170.12,-100.31 2191.72,-90.52"/>
<polygon fill="#63b8ff" stroke="#63b8ff" points="2107.92,-124.68 2100.26,-131.99 2110.81,-131.05 2107.92,-124.68"/>
</a>
</g>
</g>
<!-- Node26 -->
<g id="Node000026" class="node">
<title>Node26</title>
<g id="a_Node000026"><a xlink:href="executor_8c.html" target="_top" xlink:title="Implements platform&#45;specific memory management for JIT code and execution.">
<polygon fill="white" stroke="#666666" points="2371.5,-90.5 2275.5,-90.5 2275.5,-71.5 2371.5,-71.5 2371.5,-90.5"/>
<text text-anchor="middle" x="2323.5" y="-78.5" font-family="Helvetica,sans-Serif" font-size="10.00">src/jit/executor.c</text>
</a>
</g>
</g>
<!-- Node2&#45;&gt;Node26 -->
<g id="edge33_Node000002_Node000026" class="edge">
<title>Node2&#45;&gt;Node26</title>
<g id="a_edge33_Node000002_Node000026"><a xlink:title=" ">
<path fill="none" stroke="#63b8ff" d="M2126.55,-129.61C2173.32,-118.3 2245.5,-100.85 2288.27,-90.52"/>
<polygon fill="#63b8ff" stroke="#63b8ff" points="2125.59,-126.24 2116.69,-131.99 2127.23,-133.05 2125.59,-126.24"/>
</a>
</g>
</g>
<!-- Node27 -->
<g id="Node000027" class="node">
<title>Node27</title>
<g id="a_Node000027"><a xlink:href="trampoline_8c.html" target="_top" xlink:title="The core JIT engine for generating forward and reverse trampolines.">
<polygon fill="white" stroke="#666666" points="2497.5,-90.5 2389.5,-90.5 2389.5,-71.5 2497.5,-71.5 2497.5,-90.5"/>
<text text-anchor="middle" x="2443.5" y="-78.5" font-family="Helvetica,sans-Serif" font-size="10.00">src/jit/trampoline.c</text>
</a>
</g>
</g>
<!-- Node2&#45;&gt;Node27 -->
<g id="edge35_Node000002_Node000027" class="edge">
<title>Node2&#45;&gt;Node27</title>
<g id="a_edge35_Node000002_Node000027"><a xlink:title=" ">
<path fill="none" stroke="#63b8ff" d="M2158.17,-130.61C2218.72,-122.44 2305.26,-109.94 2380.5,-96 2389.2,-94.39 2398.53,-92.44 2407.28,-90.51"/>
<polygon fill="#63b8ff" stroke="#63b8ff" points="2157.38,-127.19 2147.93,-131.99 2158.31,-134.13 2157.38,-127.19"/>
</a>
</g>
</g>
<!-- Node28 -->
<g id="Node000028" class="node">
<title>Node28</title>
<g id="a_Node000028"><a xlink:href="008__registry__introspection_8c.html" target="_top" xlink:title="Unit test for the registry introspection and serialization APIs.">
<polygon fill="white" stroke="#666666" points="2677,-90.5 2516,-90.5 2516,-71.5 2677,-71.5 2677,-90.5"/>
<text text-anchor="middle" x="2596.5" y="-78.5" font-family="Helvetica,sans-Serif" font-size="10.00">t/008_registry_introspection.c</text>
</a>
</g>
</g>
<!-- Node2&#45;&gt;Node28 -->
<g id="edge37_Node000002_Node000028" class="edge">
<title>Node2&#45;&gt;Node28</title>
<g id="a_edge37_Node000002_Node000028"><a xlink:title=" ">
<path fill="none" stroke="#63b8ff" d="M2170.75,-132.46C2256.85,-124.4 2390.8,-111.05 2506.5,-96 2518.89,-94.39 2532.2,-92.44 2544.69,-90.51"/>
<polygon fill="#63b8ff" stroke="#63b8ff" points="2170.38,-128.98 2160.75,-133.4 2171.03,-135.95 2170.38,-128.98"/>
</a>
</g>
</g>
<!-- Node29 -->
<g id="Node000029" class="node">
<title>Node29</title>
<g id="a_Node000029"><a xlink:href="101__by__value_8c.html" target="_top" xlink:title="Unit test for passing and returning aggregates and vectors by value.">
<polygon fill="white" stroke="#666666" points="2794,-90.5 2695,-90.5 2695,-71.5 2794,-71.5 2794,-90.5"/>
<text text-anchor="middle" x="2744.5" y="-78.5" font-family="Helvetica,sans-Serif" font-size="10.00">t/101_by_value.c</text>
</a>
</g>
</g>
<!-- Node2&#45;&gt;Node29 -->
<g id="edge38_Node000002_Node000029" class="edge">
<title>Node2&#45;&gt;Node29</title>
<g id="a_edge38_Node000002_Node000029"><a xlink:title=" ">
<path fill="none" stroke="#63b8ff" d="M2170.71,-138.37C2289.01,-134.53 2504.01,-124.04 2685.5,-96 2694.34,-94.63 2703.82,-92.63 2712.53,-90.57"/>
<polygon fill="#63b8ff" stroke="#63b8ff" points="2170.5,-134.87 2160.62,-138.69 2170.73,-141.87 2170.5,-134.87"/>
</a>
</g>
</g>
<!-- Node2&#45;&gt;Node30 -->
<g id="edge39_Node000002_Node000030" class="edge">
<title>Node2&#45;&gt;Node30</title>
<g id="a_edge39_Node000002_Node000030"><a xlink:title=" ">
<path fill="none" stroke="#63b8ff" d="M2170.73,-138.56C2343.11,-134.35 2733.81,-122.52 3061.5,-96 3079.17,-94.57 3098.24,-92.56 3115.88,-90.51"/>
<polygon fill="#63b8ff" stroke="#63b8ff" points="2170.61,-135.06 2160.69,-138.8 2170.78,-142.06 2170.61,-135.06"/>
</a>
</g>
</g>
<!-- Node31 -->
<g id="Node000031" class="node">
<title>Node31</title>
<g id="a_Node000031"><a xlink:href="830__security_8c.html" target="_top" xlink:title="Unit test for security&#45;hardening features of the infix library.">
<polygon fill="white" stroke="#666666" points="2904.5,-90.5 2812.5,-90.5 2812.5,-71.5 2904.5,-71.5 2904.5,-90.5"/>
<text text-anchor="middle" x="2858.5" y="-78.5" font-family="Helvetica,sans-Serif" font-size="10.00">t/830_security.c</text>
</a>
</g>
</g>
<!-- Node2&#45;&gt;Node31 -->
<g id="edge40_Node000002_Node000031" class="edge">
<title>Node2&#45;&gt;Node31</title>
<g id="a_edge40_Node000002_Node000031"><a xlink:title=" ">
<path fill="none" stroke="#63b8ff" d="M2170.57,-140.37C2307.47,-138.96 2577.45,-131.41 2803.5,-96 2811.97,-94.67 2821.03,-92.63 2829.31,-90.51"/>
<polygon fill="#63b8ff" stroke="#63b8ff" points="2170.52,-136.87 2160.55,-140.46 2170.58,-143.87 2170.52,-136.87"/>
</a>
</g>
</g>
<!-- Node32 -->
<g id="Node000032" class="node">
<title>Node32</title>
<g id="a_Node000032"><a xlink:href="840__arena__allocator_8c.html" target="_top" xlink:title="Unit test for the internal arena allocator.">
<polygon fill="white" stroke="#666666" points="3052.5,-90.5 2922.5,-90.5 2922.5,-71.5 3052.5,-71.5 3052.5,-90.5"/>
<text text-anchor="middle" x="2987.5" y="-78.5" font-family="Helvetica,sans-Serif" font-size="10.00">t/840_arena_allocator.c</text>
</a>
</g>
</g>
<!-- Node2&#45;&gt;Node32 -->
<g id="edge41_Node000002_Node000032" class="edge">
<title>Node2&#45;&gt;Node32</title>
<g id="a_edge41_Node000002_Node000032"><a xlink:title=" ">
<path fill="none" stroke="#63b8ff" d="M2170.93,-139.63C2323.7,-137.26 2644.49,-128.49 2913.5,-96 2924.66,-94.65 2936.68,-92.63 2947.71,-90.54"/>
<polygon fill="#63b8ff" stroke="#63b8ff" points="2170.62,-136.13 2160.67,-139.78 2170.72,-143.13 2170.62,-136.13"/>
</a>
</g>
</g>
<!-- Node4 -->
<g id="Node000004" class="node">
<title>Node4</title>
<g id="a_Node000004"><a xlink:href="fuzz__abi_8c.html" target="_top" xlink:title="Fuzzer target for the ABI classification layer.">
<polygon fill="white" stroke="#666666" points="89,-24.5 0,-24.5 0,-5.5 89,-5.5 89,-24.5"/>
<text text-anchor="middle" x="44.5" y="-12.5" font-family="Helvetica,sans-Serif" font-size="10.00">fuzz/fuzz_abi.c</text>
</a>
</g>
</g>
<!-- Node3&#45;&gt;Node4 -->
<g id="edge3_Node000003_Node000004" class="edge">
<title>Node3&#45;&gt;Node4</title>
<g id="a_edge3_Node000003_Node000004"><a xlink:title=" ">
<path fill="none" stroke="#63b8ff" d="M485.23,-75.85C396.79,-69.53 234.24,-55.46 97.5,-30 89.73,-28.55 81.43,-26.57 73.76,-24.56"/>
<polygon fill="#63b8ff" stroke="#63b8ff" points="485.15,-79.35 495.38,-76.56 485.65,-72.37 485.15,-79.35"/>
</a>
</g>
</g>
<!-- Node5 -->
<g id="Node000005" class="node">
<title>Node5</title>
<g id="a_Node000005"><a xlink:href="fuzz__direct_8c.html" target="_top" xlink:title="Fuzzer target for the Direct Marshalling API generation logic.">
<polygon fill="white" stroke="#666666" points="208,-24.5 107,-24.5 107,-5.5 208,-5.5 208,-24.5"/>
<text text-anchor="middle" x="157.5" y="-12.5" font-family="Helvetica,sans-Serif" font-size="10.00">fuzz/fuzz_direct.c</text>
</a>
</g>
</g>
<!-- Node3&#45;&gt;Node5 -->
<g id="edge4_Node000003_Node000005" class="edge">
<title>Node3&#45;&gt;Node5</title>
<g id="a_edge4_Node000003_Node000005"><a xlink:title=" ">
<path fill="none" stroke="#63b8ff" d="M485.43,-71.8C418.12,-62.95 310.07,-47.72 217.5,-30 209.2,-28.41 200.31,-26.47 191.98,-24.54"/>
<polygon fill="#63b8ff" stroke="#63b8ff" points="485.1,-75.29 495.47,-73.11 486.01,-68.35 485.1,-75.29"/>
</a>
</g>
</g>
<!-- Node6 -->
<g id="Node000006" class="node">
<title>Node6</title>
<g id="a_Node000006"><a xlink:href="fuzz__helpers_8c.html" target="_top" xlink:title="Implements the core logic for generating random infix_type graphs from fuzzer input.">
<polygon fill="white" stroke="#666666" points="336.5,-24.5 226.5,-24.5 226.5,-5.5 336.5,-5.5 336.5,-24.5"/>
<text text-anchor="middle" x="281.5" y="-12.5" font-family="Helvetica,sans-Serif" font-size="10.00">fuzz/fuzz_helpers.c</text>
</a>
</g>
</g>
<!-- Node3&#45;&gt;Node6 -->
<g id="edge5_Node000003_Node000006" class="edge">
<title>Node3&#45;&gt;Node6</title>
<g id="a_edge5_Node000003_Node000006"><a xlink:title=" ">
<path fill="none" stroke="#63b8ff" d="M504.69,-69.1C451.7,-56.49 365.59,-36.01 317.29,-24.51"/>
<polygon fill="#63b8ff" stroke="#63b8ff" points="503.96,-72.53 514.5,-71.44 505.58,-65.72 503.96,-72.53"/>
</a>
</g>
</g>
<!-- Node7 -->
<g id="Node000007" class="node">
<title>Node7</title>
<g id="a_Node000007"><a xlink:href="fuzz__roundtrip_8c.html" target="_top" xlink:title="Fuzzer target for Type &#45;&gt; String &#45;&gt; Type round&#45;trip consistency.">
<polygon fill="white" stroke="#666666" points="472.5,-24.5 354.5,-24.5 354.5,-5.5 472.5,-5.5 472.5,-24.5"/>
<text text-anchor="middle" x="413.5" y="-12.5" font-family="Helvetica,sans-Serif" font-size="10.00">fuzz/fuzz_roundtrip.c</text>
</a>
</g>
</g>
<!-- Node3&#45;&gt;Node7 -->
<g id="edge6_Node000003_Node000007" class="edge">
<title>Node3&#45;&gt;Node7</title>
<g id="a_edge6_Node000003_Node000007"><a xlink:title=" ">
<path fill="none" stroke="#63b8ff" d="M522.73,-67.03C495.73,-54.42 455.48,-35.61 432.12,-24.7"/>
<polygon fill="#63b8ff" stroke="#63b8ff" points="521.48,-70.31 532.02,-71.37 524.44,-63.97 521.48,-70.31"/>
</a>
</g>
</g>
<!-- Node8 -->
<g id="Node000008" class="node">
<title>Node8</title>
<g id="a_Node000008"><a xlink:href="fuzz__signature_8c.html" target="_top" xlink:title="Fuzzer target for the high&#45;level signature parsing API.">
<polygon fill="white" stroke="#666666" points="610,-24.5 491,-24.5 491,-5.5 610,-5.5 610,-24.5"/>
<text text-anchor="middle" x="550.5" y="-12.5" font-family="Helvetica,sans-Serif" font-size="10.00">fuzz/fuzz_signature.c</text>
</a>
</g>
</g>
<!-- Node3&#45;&gt;Node8 -->
<g id="edge7_Node000003_Node000008" class="edge">
<title>Node3&#45;&gt;Node8</title>
<g id="a_edge7_Node000003_Node000008"><a xlink:title=" ">
<path fill="none" stroke="#63b8ff" d="M550.5,-61.08C550.5,-49.13 550.5,-34.22 550.5,-24.91"/>
<polygon fill="#63b8ff" stroke="#63b8ff" points="547,-61.37 550.5,-71.37 554,-61.37 547,-61.37"/>
</a>
</g>
</g>
<!-- Node9 -->
<g id="Node000009" class="node">
<title>Node9</title>
<g id="a_Node000009"><a xlink:href="fuzz__trampoline_8c.html" target="_top" xlink:title="Fuzzer target for the trampoline generation functions, including shared arena logic.">
<polygon fill="white" stroke="#666666" points="755,-24.5 628,-24.5 628,-5.5 755,-5.5 755,-24.5"/>
<text text-anchor="middle" x="691.5" y="-12.5" font-family="Helvetica,sans-Serif" font-size="10.00">fuzz/fuzz_trampoline.c</text>
</a>
</g>
</g>
<!-- Node3&#45;&gt;Node9 -->
<g id="edge8_Node000003_Node000009" class="edge">
<title>Node3&#45;&gt;Node9</title>
<g id="a_edge8_Node000003_Node000009"><a xlink:title=" ">
<path fill="none" stroke="#63b8ff" d="M578.71,-67.19C606.5,-54.58 648.19,-35.66 672.34,-24.7"/>
<polygon fill="#63b8ff" stroke="#63b8ff" points="577.18,-64.05 569.52,-71.37 580.07,-70.42 577.18,-64.05"/>
</a>
</g>
</g>
<!-- Node10 -->
<g id="Node000010" class="node">
<title>Node10</title>
<g id="a_Node000010"><a xlink:href="fuzz__types_8c.html" target="_top" xlink:title="Fuzzer target for the random type generation logic.">
<polygon fill="white" stroke="#666666" points="874,-24.5 773,-24.5 773,-5.5 874,-5.5 874,-24.5"/>
<text text-anchor="middle" x="823.5" y="-12.5" font-family="Helvetica,sans-Serif" font-size="10.00">fuzz/fuzz_types.c</text>
</a>
</g>
</g>
<!-- Node3&#45;&gt;Node10 -->
<g id="edge9_Node000003_Node000010" class="edge">
<title>Node3&#45;&gt;Node10</title>
<g id="a_edge9_Node000003_Node000010"><a xlink:title=" ">
<path fill="none" stroke="#63b8ff" d="M596.99,-69.1C650.76,-56.49 738.16,-36.01 787.18,-24.51"/>
<polygon fill="#63b8ff" stroke="#63b8ff" points="595.97,-65.74 587.03,-71.44 597.57,-72.56 595.97,-65.74"/>
</a>
</g>
</g>
<!-- Node11 -->
<g id="Node000011" class="node">
<title>Node11</title>
<g id="a_Node000011"><a xlink:href="850__regression__cases_8c.html" target="_top" xlink:title="A suite of regression tests for bugs discovered by fuzzing.">
<polygon fill="white" stroke="#666666" points="1031,-24.5 892,-24.5 892,-5.5 1031,-5.5 1031,-24.5"/>
<text text-anchor="middle" x="961.5" y="-12.5" font-family="Helvetica,sans-Serif" font-size="10.00">t/850_regression_cases.c</text>
</a>
</g>
</g>
<!-- Node3&#45;&gt;Node11 -->
<g id="edge10_Node000003_Node000011" class="edge">
<title>Node3&#45;&gt;Node11</title>
<g id="a_edge10_Node000003_Node000011"><a xlink:title=" ">
<path fill="none" stroke="#63b8ff" d="M615.78,-70.68C682.79,-60.99 790.04,-45.15 882.5,-30 892.81,-28.31 903.86,-26.41 914.33,-24.57"/>
<polygon fill="#63b8ff" stroke="#63b8ff" points="615.19,-67.23 605.79,-72.12 616.19,-74.16 615.19,-67.23"/>
</a>
</g>
</g>
<!-- Node13&#45;&gt;Node12 -->
<g id="edge13_Node000013_Node000012" class="edge">
<title>Node13&#45;&gt;Node12</title>
<g id="a_edge13_Node000013_Node000012"><a xlink:title=" ">
<path fill="none" stroke="#63b8ff" d="M1201.08,-61.51C1180.22,-51.47 1154.83,-39.26 1135.62,-30.01"/>
<polygon fill="#63b8ff" stroke="#63b8ff" points="1199.78,-64.77 1210.31,-65.95 1202.82,-58.46 1199.78,-64.77"/>
</a>
</g>
</g>
<!-- Node14 -->
<g id="Node000014" class="node">
<title>Node14</title>
<g id="a_Node000014"><a xlink:href="abi__arm64__emitters_8c.html" target="_top" xlink:title="Implements internal helper functions for emitting AArch64 machine code.">
<polygon fill="white" stroke="#666666" points="1297,-30 1182,-30 1182,0 1297,0 1297,-30"/>
<text text-anchor="start" x="1190" y="-18" font-family="Helvetica,sans-Serif" font-size="10.00">src/arch/aarch64/abi</text>
<text text-anchor="middle" x="1239.5" y="-7" font-family="Helvetica,sans-Serif" font-size="10.00">_arm64_emitters.c</text>
</a>
</g>
</g>
<!-- Node13&#45;&gt;Node14 -->
<g id="edge14_Node000013_Node000014" class="edge">
<title>Node13&#45;&gt;Node14</title>
<g id="a_edge14_Node000013_Node000014"><a xlink:title=" ">
<path fill="none" stroke="#63b8ff" d="M1239.5,-55.54C1239.5,-46.96 1239.5,-37.61 1239.5,-30.16"/>
<polygon fill="#63b8ff" stroke="#63b8ff" points="1236,-55.8 1239.5,-65.8 1243,-55.8 1236,-55.8"/>
</a>
</g>
</g>
<!-- Node17&#45;&gt;Node15 -->
<g id="edge18_Node000017_Node000015" class="edge">
<title>Node17&#45;&gt;Node15</title>
<g id="a_edge18_Node000017_Node000015"><a xlink:title=" ">
<path fill="none" stroke="#63b8ff" d="M1416.88,-58.37C1408.01,-49.06 1397.89,-38.44 1390,-30.16"/>
<polygon fill="#63b8ff" stroke="#63b8ff" points="1414.53,-60.97 1423.96,-65.8 1419.6,-56.14 1414.53,-60.97"/>
</a>
</g>
</g>
<!-- Node17&#45;&gt;Node16 -->
<g id="edge19_Node000017_Node000016" class="edge">
<title>Node17&#45;&gt;Node16</title>
<g id="a_edge19_Node000017_Node000016"><a xlink:title=" ">
<path fill="none" stroke="#63b8ff" d="M1493.85,-62.99C1527.96,-52.69 1570.94,-39.72 1603.08,-30.01"/>
<polygon fill="#63b8ff" stroke="#63b8ff" points="1492.59,-59.71 1484.02,-65.95 1494.61,-66.42 1492.59,-59.71"/>
</a>
</g>
</g>
<!-- Node18 -->
<g id="Node000018" class="node">
<title>Node18</title>
<g id="a_Node000018"><a xlink:href="abi__x64__emitters_8c.html" target="_top" xlink:title="Implements internal helper functions for emitting x86&#45;64 machine code.">
<polygon fill="white" stroke="#666666" points="1573,-30 1456,-30 1456,0 1573,0 1573,-30"/>
<text text-anchor="start" x="1464" y="-18" font-family="Helvetica,sans-Serif" font-size="10.00">src/arch/x64/abi_x64</text>
<text text-anchor="middle" x="1514.5" y="-7" font-family="Helvetica,sans-Serif" font-size="10.00">_emitters.c</text>
</a>
</g>
</g>
<!-- Node17&#45;&gt;Node18 -->
<g id="edge20_Node000017_Node000018" class="edge">
<title>Node17&#45;&gt;Node18</title>
<g id="a_edge20_Node000017_Node000018"><a xlink:title=" ">
<path fill="none" stroke="#63b8ff" d="M1462.52,-59.2C1473.95,-49.7 1487.2,-38.69 1497.46,-30.16"/>
<polygon fill="#63b8ff" stroke="#63b8ff" points="1460.04,-56.71 1454.59,-65.8 1464.52,-62.1 1460.04,-56.71"/>
</a>
</g>
</g>
<!-- Node20 -->
<g id="Node000020" class="node">
<title>Node20</title>
<g id="a_Node000020"><a xlink:href="infix_8c.html" target="_top" xlink:title="The unity build source file for the infix library.">
<polygon fill="white" stroke="#666666" points="2113,-24.5 2050,-24.5 2050,-5.5 2113,-5.5 2113,-24.5"/>
<text text-anchor="middle" x="2081.5" y="-12.5" font-family="Helvetica,sans-Serif" font-size="10.00">src/infix.c</text>
</a>
</g>
</g>
<!-- Node19&#45;&gt;Node20 -->
<g id="edge22_Node000019_Node000020" class="edge">
<title>Node19&#45;&gt;Node20</title>
<g id="a_edge22_Node000019_Node000020"><a xlink:title=" ">
<path fill="none" stroke="#63b8ff" d="M1640.75,-69.05C1645.7,-67.93 1650.7,-66.88 1655.5,-66 1801.64,-39.27 1978.72,-23.84 2049.76,-18.33"/>
<polygon fill="#63b8ff" stroke="#63b8ff" points="1639.66,-65.72 1630.74,-71.44 1641.28,-72.53 1639.66,-65.72"/>
</a>
</g>
</g>
<!-- Node21&#45;&gt;Node20 -->
<g id="edge24_Node000021_Node000020" class="edge">
<title>Node21&#45;&gt;Node20</title>
<g id="a_edge24_Node000021_Node000020"><a xlink:title=" ">
<path fill="none" stroke="#63b8ff" d="M1750.02,-69.04C1754.55,-67.95 1759.11,-66.91 1763.5,-66 1867.47,-44.4 1992.27,-27.32 2049.72,-19.95"/>
<polygon fill="#63b8ff" stroke="#63b8ff" points="1749.08,-65.67 1740.22,-71.48 1750.77,-72.46 1749.08,-65.67"/>
</a>
</g>
</g>
<!-- Node22&#45;&gt;Node20 -->
<g id="edge26_Node000022_Node000020" class="edge">
<title>Node22&#45;&gt;Node20</title>
<g id="a_edge26_Node000022_Node000020"><a xlink:title=" ">
<path fill="none" stroke="#63b8ff" d="M1864.98,-69.07C1869.21,-68.03 1873.44,-67 1877.5,-66 1938.41,-51.05 2009.56,-33.62 2049.7,-23.79"/>
<polygon fill="#63b8ff" stroke="#63b8ff" points="1864.04,-65.7 1855.16,-71.48 1865.71,-72.5 1864.04,-65.7"/>
</a>
</g>
</g>
<!-- Node23&#45;&gt;Node20 -->
<g id="edge28_Node000023_Node000020" class="edge">
<title>Node23&#45;&gt;Node20</title>
<g id="a_edge28_Node000023_Node000020"><a xlink:title=" ">
<path fill="none" stroke="#63b8ff" d="M1970.67,-67.03C1998.07,-54.42 2038.91,-35.61 2062.61,-24.7"/>
<polygon fill="#63b8ff" stroke="#63b8ff" points="1968.87,-64.01 1961.25,-71.37 1971.79,-70.37 1968.87,-64.01"/>
</a>
</g>
</g>
<!-- Node24&#45;&gt;Node20 -->
<g id="edge30_Node000024_Node000020" class="edge">
<title>Node24&#45;&gt;Node20</title>
<g id="a_edge30_Node000024_Node000020"><a xlink:title=" ">
<path fill="none" stroke="#63b8ff" d="M2081.5,-61.08C2081.5,-49.13 2081.5,-34.22 2081.5,-24.91"/>
<polygon fill="#63b8ff" stroke="#63b8ff" points="2078,-61.37 2081.5,-71.37 2085,-61.37 2078,-61.37"/>
</a>
</g>
</g>
<!-- Node25&#45;&gt;Node20 -->
<g id="edge32_Node000025_Node000020" class="edge">
<title>Node25&#45;&gt;Node20</title>
<g id="a_edge32_Node000025_Node000020"><a xlink:title=" ">
<path fill="none" stroke="#63b8ff" d="M2184.02,-66.86C2158.6,-54.25 2120.93,-35.56 2099.03,-24.7"/>
<polygon fill="#63b8ff" stroke="#63b8ff" points="2182.59,-70.06 2193.1,-71.37 2185.7,-63.79 2182.59,-70.06"/>
</a>
</g>
</g>
<!-- Node26&#45;&gt;Node20 -->
<g id="edge34_Node000026_Node000020" class="edge">
<title>Node26&#45;&gt;Node20</title>
<g id="a_edge34_Node000026_Node000020"><a xlink:title=" ">
<path fill="none" stroke="#63b8ff" d="M2281.36,-68.86C2233.48,-56.19 2156.42,-35.81 2113.31,-24.41"/>
<polygon fill="#63b8ff" stroke="#63b8ff" points="2280.55,-72.26 2291.11,-71.44 2282.34,-65.49 2280.55,-72.26"/>
</a>
</g>
</g>
<!-- Node27&#45;&gt;Node20 -->
<g id="edge36_Node000027_Node000020" class="edge">
<title>Node27&#45;&gt;Node20</title>
<g id="a_edge36_Node000027_Node000020"><a xlink:title=" ">
<path fill="none" stroke="#63b8ff" d="M2396.81,-69.34C2391.32,-68.17 2385.79,-67.03 2380.5,-66 2283.38,-47.1 2167.65,-28.99 2113.02,-20.71"/>
<polygon fill="#63b8ff" stroke="#63b8ff" points="2396.08,-72.76 2406.59,-71.45 2397.56,-65.92 2396.08,-72.76"/>
</a>
</g>
</g>
<!-- Node33&#45;&gt;Node2 -->
<g id="edge43_Node000033_Node000002" class="edge">
<title>Node33&#45;&gt;Node2</title>
<g id="a_edge43_Node000033_Node000002"><a xlink:title=" ">
<path fill="none" stroke="#63b8ff" d="M2574.81,-188.45C2467.13,-178.42 2270.62,-160.12 2160.93,-149.9"/>
<polygon fill="#63b8ff" stroke="#63b8ff" points="2574.67,-191.95 2584.95,-189.39 2575.32,-184.98 2574.67,-191.95"/>
</a>
</g>
</g>
<!-- Node34 -->
<g id="Node000034" class="node">
<title>Node34</title>
<g id="a_Node000034"><a xlink:href="platform_8c.html" target="_top" xlink:title="Implements runtime detection of CPU and OS features.">
<polygon fill="white" stroke="#666666" points="2710.5,-151 2602.5,-151 2602.5,-132 2710.5,-132 2710.5,-151"/>
<text text-anchor="middle" x="2656.5" y="-139" font-family="Helvetica,sans-Serif" font-size="10.00">src/core/platform.c</text>
</a>
</g>
</g>
<!-- Node33&#45;&gt;Node34 -->
<g id="edge44_Node000033_Node000034" class="edge">
<title>Node33&#45;&gt;Node34</title>
<g id="a_edge44_Node000033_Node000034"><a xlink:title=" ">
<path fill="none" stroke="#63b8ff" d="M2652.63,-176.66C2653.62,-167.93 2654.75,-157.99 2655.53,-151.09"/>
<polygon fill="#63b8ff" stroke="#63b8ff" points="2649.14,-176.42 2651.49,-186.75 2656.09,-177.21 2649.14,-176.42"/>
</a>
</g>
</g>
<!-- Node34&#45;&gt;Node20 -->
<g id="edge45_Node000034_Node000020" class="edge">
<title>Node34&#45;&gt;Node20</title>
<g id="a_edge45_Node000034_Node000020"><a xlink:title=" ">
<path fill="none" stroke="#63b8ff" d="M2720.67,-133.1C2724,-132.73 2727.29,-132.36 2730.5,-132 2804.03,-123.78 3012.09,-151.07 3061.5,-96 3070.4,-86.08 3070.68,-75.67 3061.5,-66 3028.07,-30.82 2277.66,-18.65 2113.18,-16.4"/>
<polygon fill="#63b8ff" stroke="#63b8ff" points="2720.19,-129.64 2710.65,-134.24 2720.98,-136.59 2720.19,-129.64"/>
</a>
</g>
</g>
</g>
</svg>

<g id="navigator" transform="translate(0 0)" fill="#404254">
  <rect fill="#f2f5e9" fill-opacity="0.5" stroke="#606060" stroke-width=".5" x="0" y="0" width="60" height="60"/>
  <use id="zoomplus" xlink:href="#zoomPlus" x="17" y="9" onmousedown="handleZoom(evt,'in')"/>
  <use id="zoomminus" xlink:href="#zoomMin" x="42" y="9" onmousedown="handleZoom(evt,'out')"/>
  <use id="reset" xlink:href="#resetDef" x="30" y="36" onmousedown="handleReset()"/>
   <use id="arrowup" xlink:href="#arrowUp" x="0" y="0" onmousedown="handlePan(0,-1)"/>
  <use id="arrowright" xlink:href="#arrowRight" x="0" y="0" onmousedown="handlePan(1,0)"/>
  <use id="arrowdown" xlink:href="#arrowDown" x="0" y="0" onmousedown="handlePan(0,1)"/>
  <use id="arrowleft" xlink:href="#arrowLeft" x="0" y="0" onmousedown="handlePan(-1,0)"/>
</g>
<svg viewBox="0 0 15 15" width="100%" height="30px" preserveAspectRatio="xMaxYMin meet">
 <g id="arrow_out" transform="scale(0.3 0.3)">
  <a xlink:href="infix__config_8h__dep__incl_org.svg" target="_base">
   <rect id="button" ry="5" rx="5" y="6" x="6" height="38" width="38"
        fill="#f2f5e9" fill-opacity="0.5" stroke="#606060" stroke-width="1.0"/>
   <path id="arrow"
     d="M 11.500037,31.436501 C 11.940474,20.09759 22.043105,11.32322 32.158766,21.979434 L 37.068811,17.246167 C 37.068811,17.246167 37.088388,32 37.088388,32 L 22.160133,31.978069 C 22.160133,31.978069 26.997745,27.140456 26.997745,27.140456 C 18.528582,18.264221 13.291696,25.230495 11.500037,31.436501 z"
     style="fill:#404040;"/>
  </a>
 </g>
</svg>

<style type='text/css'>
<![CDATA[
[data-mouse-over-selected='false'] { opacity: 0.7; }
[data-mouse-over-selected='true']  { opacity: 1.0; }
]]>
</style>
<script type="application/ecmascript"><![CDATA[
document.addEventListener('DOMContentLoaded', (event) => {
  highlightEdges();
  highlightAdjacentNodes();
});
]]></script>
</svg>
