<?xml version="1.0" encoding="UTF-8" standalone="no"?>
<!DOCTYPE svg PUBLIC "-//W3C//DTD SVG 1.1//EN"
 "http://www.w3.org/Graphics/SVG/1.1/DTD/svg11.dtd">
<!-- Generated by graphviz version 2.43.0 (0)
 -->
<!-- Title: src/infix.c Pages: 1 -->
<!--zoomable 302 -->

<svg id="main" version="1.1" xmlns="http://www.w3.org/2000/svg" xmlns:xlink="http://www.w3.org/1999/xlink" xml:space="preserve" onload="init(evt)">
<style type="text/css"><![CDATA[
.node, .edge {opacity: 0.7;}
.node.selected, .edge.selected {opacity: 1;}
.edge:hover path { stroke: red; }
.edge:hover polygon { stroke: red; fill: red; }
]]></style>

<defs>
  <circle id="rim" cx="0" cy="0" r="7"/>
  <circle id="rim2" cx="0" cy="0" r="3.5"/>
  <g id="zoomPlus">
    <use xlink:href="#rim" fill="#404040"><set attributeName="fill" to="#808080" begin="zoomplus.mouseover" end="zoomplus.mouseout"/></use>
    <path d="M-4,0h8M0,-4v8" fill="none" stroke="white" stroke-width="1.5" pointer-events="none"/>
  </g>
  <g id="zoomMin">
    <use xlink:href="#rim" fill="#404040"><set attributeName="fill" to="#808080" begin="zoomminus.mouseover" end="zoomminus.mouseout"/></use>
    <path d="M-4,0h8" fill="none" stroke="white" stroke-width="1.5" pointer-events="none"/>
  </g>
  <g id="arrowUp" transform="translate(30 24)">
    <use xlink:href="#rim"/>
    <path pointer-events="none" fill="none" stroke="white" stroke-width="1.5" d="M0,-3.0v7 M-2.5,-0.5L0,-3.0L2.5,-0.5"/>
  </g>
  <g id="arrowRight" transform="rotate(90) translate(36 -43)">
    <use xlink:href="#rim"/>
    <path pointer-events="none" fill="none" stroke="white" stroke-width="1.5" d="M0,-3.0v7 M-2.5,-0.5L0,-3.0L2.5,-0.5"/>
  </g>
  <g id="arrowDown" transform="rotate(180) translate(-30 -48)">
    <use xlink:href="#rim"/>
    <path pointer-events="none" fill="none" stroke="white" stroke-width="1.5" d="M0,-3.0v7 M-2.5,-0.5L0,-3.0L2.5,-0.5"/>
  </g>
  <g id="arrowLeft" transform="rotate(270) translate(-36 17)">
    <use xlink:href="#rim"/>
    <path pointer-events="none" fill="none" stroke="white" stroke-width="1.5" d="M0,-3.0v7 M-2.5,-0.5L0,-3.0L2.5,-0.5"/>
  </g>
  <g id="resetDef">
    <use xlink:href="#rim2" fill="#404040"><set attributeName="fill" to="#808080" begin="reset.mouseover" end="reset.mouseout"/></use>
  </g>
</defs>
<script type="application/ecmascript">
var viewWidth = 1443;
var viewHeight = 302;
var sectionId = 'dynsection-0';
</script>
<script type="application/ecmascript" xlink:href="svg.min.js"/>
<svg id="graph" class="graph">
<g id="viewport">
<title>src/infix.c</title>
<!-- Node1 -->
<g id="Node000001" class="node">
<title>Node1</title>
<g id="a_Node000001"><a xlink:title="The unity build source file for the infix library.">
<polygon fill="#999999" stroke="#666666" points="566,-294 503,-294 503,-275 566,-275 566,-294"/>
<text text-anchor="middle" x="534.5" y="-282" font-family="Helvetica,sans-Serif" font-size="10.00">src/infix.c</text>
</a>
</g>
</g>
<!-- Node2 -->
<g id="Node000002" class="node">
<title>Node2</title>
<g id="a_Node000002"><a xlink:href="error_8c.html" target="_top" xlink:title="Implements the thread&#45;local error reporting system.">
<polygon fill="white" stroke="#666666" points="524,-239 453,-239 453,-220 524,-220 524,-239"/>
<text text-anchor="middle" x="488.5" y="-227" font-family="Helvetica,sans-Serif" font-size="10.00">core/error.c</text>
</a>
</g>
</g>
<!-- Node1&#45;&gt;Node2 -->
<g id="edge1_Node000001_Node000002" class="edge">
<title>Node1&#45;&gt;Node2</title>
<g id="a_edge1_Node000001_Node000002"><a xlink:title=" ">
<path fill="none" stroke="#63b8ff" d="M526.9,-274.75C520.34,-267.18 510.68,-256.05 502.69,-246.84"/>
<polygon fill="#63b8ff" stroke="#63b8ff" points="505.15,-244.35 495.95,-239.09 499.87,-248.94 505.15,-244.35"/>
</a>
</g>
</g>
<!-- Node14 -->
<g id="Node000014" class="node">
<title>Node14</title>
<g id="a_Node000014"><a xlink:href="arena_8c.html" target="_top" xlink:title="Implements a simple, fast arena (or region&#45;based) allocator.">
<polygon fill="white" stroke="#666666" points="619,-239 542,-239 542,-220 619,-220 619,-239"/>
<text text-anchor="middle" x="580.5" y="-227" font-family="Helvetica,sans-Serif" font-size="10.00">core/arena.c</text>
</a>
</g>
</g>
<!-- Node1&#45;&gt;Node14 -->
<g id="edge19_Node000001_Node000014" class="edge">
<title>Node1&#45;&gt;Node14</title>
<g id="a_edge19_Node000001_Node000014"><a xlink:title=" ">
<path fill="none" stroke="#63b8ff" d="M542.1,-274.75C548.66,-267.18 558.32,-256.05 566.31,-246.84"/>
<polygon fill="#63b8ff" stroke="#63b8ff" points="569.13,-248.94 573.05,-239.09 563.85,-244.35 569.13,-248.94"/>
</a>
</g>
</g>
<!-- Node16 -->
<g id="Node000016" class="node">
<title>Node16</title>
<g id="a_Node000016"><a xlink:href="executor_8c.html" target="_top" xlink:title="Implements platform&#45;specific memory management for JIT code and execution.">
<polygon fill="white" stroke="#666666" points="1032,-239 953,-239 953,-220 1032,-220 1032,-239"/>
<text text-anchor="middle" x="992.5" y="-227" font-family="Helvetica,sans-Serif" font-size="10.00">jit/executor.c</text>
</a>
</g>
</g>
<!-- Node1&#45;&gt;Node16 -->
<g id="edge24_Node000001_Node000016" class="edge">
<title>Node1&#45;&gt;Node16</title>
<g id="a_edge24_Node000001_Node000016"><a xlink:title=" ">
<path fill="none" stroke="#63b8ff" d="M566.02,-280.08C632.62,-272.83 792.55,-255.23 926.5,-239 931.67,-238.37 937.07,-237.7 942.45,-237.03"/>
<polygon fill="#63b8ff" stroke="#63b8ff" points="943.25,-240.45 952.73,-235.72 942.36,-233.51 943.25,-240.45"/>
</a>
</g>
</g>
<!-- Node24 -->
<g id="Node000024" class="node">
<title>Node24</title>
<g id="a_Node000024"><a xlink:href="type__registry_8c.html" target="_top" xlink:title="Implements the named type registry system.">
<polygon fill="white" stroke="#666666" points="321.5,-239 209.5,-239 209.5,-220 321.5,-220 321.5,-239"/>
<text text-anchor="middle" x="265.5" y="-227" font-family="Helvetica,sans-Serif" font-size="10.00">core/type_registry.c</text>
</a>
</g>
</g>
<!-- Node1&#45;&gt;Node24 -->
<g id="edge39_Node000001_Node000024" class="edge">
<title>Node1&#45;&gt;Node24</title>
<g id="a_edge39_Node000001_Node000024"><a xlink:title=" ">
<path fill="none" stroke="#63b8ff" d="M502.85,-277.26C457.61,-268.35 373.87,-251.85 318.93,-241.03"/>
<polygon fill="#63b8ff" stroke="#63b8ff" points="319.51,-237.57 309.02,-239.07 318.15,-244.44 319.51,-237.57"/>
</a>
</g>
</g>
<!-- Node26 -->
<g id="Node000026" class="node">
<title>Node26</title>
<g id="a_Node000026"><a xlink:href="signature_8c.html" target="_top" xlink:title="Implements the infix signature string parser and type printer.">
<polygon fill="white" stroke="#666666" points="435,-239 340,-239 340,-220 435,-220 435,-239"/>
<text text-anchor="middle" x="387.5" y="-227" font-family="Helvetica,sans-Serif" font-size="10.00">core/signature.c</text>
</a>
</g>
</g>
<!-- Node1&#45;&gt;Node26 -->
<g id="edge43_Node000001_Node000026" class="edge">
<title>Node1&#45;&gt;Node26</title>
<g id="a_edge43_Node000001_Node000026"><a xlink:title=" ">
<path fill="none" stroke="#63b8ff" d="M510.88,-274.98C486.6,-266.23 448.55,-252.51 421.13,-242.62"/>
<polygon fill="#63b8ff" stroke="#63b8ff" points="422.14,-239.27 411.55,-239.17 419.77,-245.85 422.14,-239.27"/>
</a>
</g>
</g>
<!-- Node27 -->
<g id="Node000027" class="node">
<title>Node27</title>
<g id="a_Node000027"><a xlink:href="loader_8c.html" target="_top" xlink:title="Implements cross&#45;platform dynamic library loading.">
<polygon fill="white" stroke="#666666" points="192,-239 113,-239 113,-220 192,-220 192,-239"/>
<text text-anchor="middle" x="152.5" y="-227" font-family="Helvetica,sans-Serif" font-size="10.00">core/loader.c</text>
</a>
</g>
</g>
<!-- Node1&#45;&gt;Node27 -->
<g id="edge51_Node000001_Node000027" class="edge">
<title>Node1&#45;&gt;Node27</title>
<g id="a_edge51_Node000001_Node000027"><a xlink:title=" ">
<path fill="none" stroke="#63b8ff" d="M502.66,-279.72C444.87,-272.76 318.62,-257.09 202.18,-239.21"/>
<polygon fill="#63b8ff" stroke="#63b8ff" points="202.45,-235.71 192.03,-237.64 201.38,-242.62 202.45,-235.71"/>
</a>
</g>
</g>
<!-- Node29 -->
<g id="Node000029" class="node">
<title>Node29</title>
<g id="a_Node000029"><a xlink:href="types_8c.html" target="_top" xlink:title="Implements the public API for creating and managing type descriptions.">
<polygon fill="white" stroke="#666666" points="713.5,-239 637.5,-239 637.5,-220 713.5,-220 713.5,-239"/>
<text text-anchor="middle" x="675.5" y="-227" font-family="Helvetica,sans-Serif" font-size="10.00">core/types.c</text>
</a>
</g>
</g>
<!-- Node1&#45;&gt;Node29 -->
<g id="edge54_Node000001_Node000029" class="edge">
<title>Node1&#45;&gt;Node29</title>
<g id="a_edge54_Node000001_Node000029"><a xlink:title=" ">
<path fill="none" stroke="#63b8ff" d="M557.15,-274.98C580.35,-266.27 616.62,-252.63 642.9,-242.75"/>
<polygon fill="#63b8ff" stroke="#63b8ff" points="644.3,-245.97 652.43,-239.17 641.84,-239.41 644.3,-245.97"/>
</a>
</g>
</g>
<!-- Node31 -->
<g id="Node000031" class="node">
<title>Node31</title>
<g id="a_Node000031"><a xlink:href="utility_8c.html" target="_top" xlink:title="Implements internal debugging utilities.">
<polygon fill="white" stroke="#666666" points="807.5,-239 731.5,-239 731.5,-220 807.5,-220 807.5,-239"/>
<text text-anchor="middle" x="769.5" y="-227" font-family="Helvetica,sans-Serif" font-size="10.00">core/utility.c</text>
</a>
</g>
</g>
<!-- Node1&#45;&gt;Node31 -->
<g id="edge61_Node000001_Node000031" class="edge">
<title>Node1&#45;&gt;Node31</title>
<g id="a_edge61_Node000001_Node000031"><a xlink:title=" ">
<path fill="none" stroke="#63b8ff" d="M566.19,-276.35C606.23,-267.32 675.48,-251.7 721.89,-241.24"/>
<polygon fill="#63b8ff" stroke="#63b8ff" points="722.73,-244.64 731.72,-239.02 721.19,-237.81 722.73,-244.64"/>
</a>
</g>
</g>
<!-- Node32 -->
<g id="Node000032" class="node">
<title>Node32</title>
<g id="a_Node000032"><a xlink:href="platform_8c.html" target="_top" xlink:title="Implements runtime detection of CPU and OS features.">
<polygon fill="white" stroke="#666666" points="91,-239 0,-239 0,-220 91,-220 91,-239"/>
<text text-anchor="middle" x="45.5" y="-227" font-family="Helvetica,sans-Serif" font-size="10.00">core/platform.c</text>
</a>
</g>
</g>
<!-- Node1&#45;&gt;Node32 -->
<g id="edge62_Node000001_Node000032" class="edge">
<title>Node1&#45;&gt;Node32</title>
<g id="a_edge62_Node000001_Node000032"><a xlink:title=" ">
<path fill="none" stroke="#63b8ff" d="M502.89,-280.67C431.68,-274.18 253.28,-257.41 104.5,-239 103.42,-238.87 102.33,-238.73 101.24,-238.59"/>
<polygon fill="#63b8ff" stroke="#63b8ff" points="101.59,-235.11 91.21,-237.27 100.67,-242.05 101.59,-235.11"/>
</a>
</g>
</g>
<!-- Node33 -->
<g id="Node000033" class="node">
<title>Node33</title>
<g id="a_Node000033"><a xlink:href="trampoline_8c.html" target="_top" xlink:title="The core JIT engine for generating forward and reverse trampolines.">
<polygon fill="white" stroke="#666666" points="917,-239 826,-239 826,-220 917,-220 917,-239"/>
<text text-anchor="middle" x="871.5" y="-227" font-family="Helvetica,sans-Serif" font-size="10.00">jit/trampoline.c</text>
</a>
</g>
</g>
<!-- Node1&#45;&gt;Node33 -->
<g id="edge64_Node000001_Node000033" class="edge">
<title>Node1&#45;&gt;Node33</title>
<g id="a_edge64_Node000001_Node000033"><a xlink:title=" ">
<path fill="none" stroke="#63b8ff" d="M566.2,-278.51C623.36,-269.52 744.36,-250.5 815.67,-239.28"/>
<polygon fill="#63b8ff" stroke="#63b8ff" points="816.48,-242.7 825.81,-237.69 815.39,-235.78 816.48,-242.7"/>
</a>
</g>
</g>
<!-- Node3 -->
<g id="Node000003" class="node">
<title>Node3</title>
<g id="a_Node000003"><a xlink:href="infix__internals_8h.html" target="_top" xlink:title="Internal data structures, function prototypes, and constants.">
<polygon fill="white" stroke="#666666" points="460.5,-184 320.5,-184 320.5,-165 460.5,-165 460.5,-184"/>
<text text-anchor="middle" x="390.5" y="-172" font-family="Helvetica,sans-Serif" font-size="10.00">common/infix_internals.h</text>
</a>
</g>
</g>
<!-- Node2&#45;&gt;Node3 -->
<g id="edge2_Node000002_Node000003" class="edge">
<title>Node2&#45;&gt;Node3</title>
<g id="a_edge2_Node000002_Node000003"><a xlink:title=" ">
<path fill="none" stroke="#63b8ff" d="M472.75,-219.98C457.27,-211.61 433.41,-198.7 415.36,-188.95"/>
<polygon fill="#63b8ff" stroke="#63b8ff" points="416.99,-185.85 406.53,-184.17 413.66,-192.01 416.99,-185.85"/>
</a>
</g>
</g>
<!-- Node9 -->
<g id="Node000009" class="node">
<title>Node9</title>
<g id="a_Node000009"><a xlink:href="infix_8h.html" target="_top" xlink:title="The public interface for the infix FFI library.">
<polygon fill="white" stroke="#666666" points="498,-129 427,-129 427,-110 498,-110 498,-129"/>
<text text-anchor="middle" x="462.5" y="-117" font-family="Helvetica,sans-Serif" font-size="10.00">infix/infix.h</text>
</a>
</g>
</g>
<!-- Node2&#45;&gt;Node9 -->
<g id="edge15_Node000002_Node000009" class="edge">
<title>Node2&#45;&gt;Node9</title>
<g id="a_edge15_Node000002_Node000009"><a xlink:title=" ">
<path fill="none" stroke="#63b8ff" d="M486.37,-219.66C482.14,-202.09 472.6,-162.45 466.94,-138.95"/>
<polygon fill="#63b8ff" stroke="#63b8ff" points="470.33,-138.06 464.58,-129.16 463.52,-139.7 470.33,-138.06"/>
</a>
</g>
</g>
<!-- Node11 -->
<g id="Node000011" class="node">
<title>Node11</title>
<g id="a_Node000011"><a xlink:title=" ">
<polygon fill="#e0e0e0" stroke="#999999" points="302.5,-184 246.5,-184 246.5,-165 302.5,-165 302.5,-184"/>
<text text-anchor="middle" x="274.5" y="-172" font-family="Helvetica,sans-Serif" font-size="10.00">stdarg.h</text>
</a>
</g>
</g>
<!-- Node2&#45;&gt;Node11 -->
<g id="edge16_Node000002_Node000011" class="edge">
<title>Node2&#45;&gt;Node11</title>
<g id="a_edge16_Node000002_Node000011"><a xlink:title=" ">
<path fill="none" stroke="#63b8ff" d="M454.12,-219.98C415.42,-210.4 352.74,-194.88 312.59,-184.93"/>
<polygon fill="#63b8ff" stroke="#63b8ff" points="313.2,-181.48 302.65,-182.47 311.51,-188.27 313.2,-181.48"/>
</a>
</g>
</g>
<!-- Node12 -->
<g id="Node000012" class="node">
<title>Node12</title>
<g id="a_Node000012"><a xlink:title=" ">
<polygon fill="#e0e0e0" stroke="#999999" points="676.5,-184 626.5,-184 626.5,-165 676.5,-165 676.5,-184"/>
<text text-anchor="middle" x="651.5" y="-172" font-family="Helvetica,sans-Serif" font-size="10.00">stdio.h</text>
</a>
</g>
</g>
<!-- Node2&#45;&gt;Node12 -->
<g id="edge17_Node000002_Node000012" class="edge">
<title>Node2&#45;&gt;Node12</title>
<g id="a_edge17_Node000002_Node000012"><a xlink:title=" ">
<path fill="none" stroke="#63b8ff" d="M514.69,-219.98C542.34,-210.99 586.08,-196.77 616.63,-186.84"/>
<polygon fill="#63b8ff" stroke="#63b8ff" points="618.02,-190.07 626.45,-183.65 615.85,-183.41 618.02,-190.07"/>
</a>
</g>
</g>
<!-- Node13 -->
<g id="Node000013" class="node">
<title>Node13</title>
<g id="a_Node000013"><a xlink:title=" ">
<polygon fill="#e0e0e0" stroke="#999999" points="608,-184 555,-184 555,-165 608,-165 608,-184"/>
<text text-anchor="middle" x="581.5" y="-172" font-family="Helvetica,sans-Serif" font-size="10.00">string.h</text>
</a>
</g>
</g>
<!-- Node2&#45;&gt;Node13 -->
<g id="edge18_Node000002_Node000013" class="edge">
<title>Node2&#45;&gt;Node13</title>
<g id="a_edge18_Node000002_Node000013"><a xlink:title=" ">
<path fill="none" stroke="#63b8ff" d="M503.44,-219.98C518,-211.69 540.37,-198.94 557.43,-189.22"/>
<polygon fill="#63b8ff" stroke="#63b8ff" points="559.33,-192.16 566.29,-184.17 555.86,-186.08 559.33,-192.16"/>
</a>
</g>
</g>
<!-- Node4 -->
<g id="Node000004" class="node">
<title>Node4</title>
<g id="a_Node000004"><a xlink:href="infix__config_8h.html" target="_top" xlink:title="Platform, architecture, and ABI detection macros.">
<polygon fill="white" stroke="#666666" points="412,-74 285,-74 285,-55 412,-55 412,-74"/>
<text text-anchor="middle" x="348.5" y="-62" font-family="Helvetica,sans-Serif" font-size="10.00">common/infix_config.h</text>
</a>
</g>
</g>
<!-- Node3&#45;&gt;Node4 -->
<g id="edge3_Node000003_Node000004" class="edge">
<title>Node3&#45;&gt;Node4</title>
<g id="a_edge3_Node000003_Node000004"><a xlink:title=" ">
<path fill="none" stroke="#63b8ff" d="M388.42,-164.7C385.36,-152.27 379.17,-128.99 371.5,-110 367.8,-100.83 362.84,-91.02 358.48,-82.95"/>
<polygon fill="#63b8ff" stroke="#63b8ff" points="361.5,-81.18 353.58,-74.14 355.38,-84.58 361.5,-81.18"/>
</a>
</g>
</g>
<!-- Node5 -->
<g id="Node000005" class="node">
<title>Node5</title>
<g id="a_Node000005"><a xlink:href="platform_8h.html" target="_top" xlink:title="Declares internal, runtime CPU/OS feature detection functions.">
<polygon fill="white" stroke="#666666" points="362,-129 249,-129 249,-110 362,-110 362,-129"/>
<text text-anchor="middle" x="305.5" y="-117" font-family="Helvetica,sans-Serif" font-size="10.00">common/platform.h</text>
</a>
</g>
</g>
<!-- Node3&#45;&gt;Node5 -->
<g id="edge4_Node000003_Node000005" class="edge">
<title>Node3&#45;&gt;Node5</title>
<g id="a_edge4_Node000003_Node000005"><a xlink:title=" ">
<path fill="none" stroke="#63b8ff" d="M376.84,-164.98C363.66,-156.77 343.47,-144.18 327.93,-134.49"/>
<polygon fill="#63b8ff" stroke="#63b8ff" points="329.74,-131.49 319.41,-129.17 326.04,-137.43 329.74,-131.49"/>
</a>
</g>
</g>
<!-- Node3&#45;&gt;Node9 -->
<g id="edge10_Node000003_Node000009" class="edge">
<title>Node3&#45;&gt;Node9</title>
<g id="a_edge10_Node000003_Node000009"><a xlink:title=" ">
<path fill="none" stroke="#63b8ff" d="M402.07,-164.98C412.92,-157 429.38,-144.88 442.38,-135.31"/>
<polygon fill="#63b8ff" stroke="#63b8ff" points="444.74,-137.92 450.72,-129.17 440.59,-132.28 444.74,-137.92"/>
</a>
</g>
</g>
<!-- Node5&#45;&gt;Node4 -->
<g id="edge8_Node000005_Node000004" class="edge">
<title>Node5&#45;&gt;Node4</title>
<g id="a_edge8_Node000005_Node000004"><a xlink:title=" ">
<path fill="none" stroke="#63b8ff" d="M312.6,-109.75C318.67,-102.26 327.59,-91.28 335.01,-82.13"/>
<polygon fill="#63b8ff" stroke="#63b8ff" points="337.95,-84.06 341.53,-74.09 332.51,-79.65 337.95,-84.06"/>
</a>
</g>
</g>
<!-- Node6 -->
<g id="Node000006" class="node">
<title>Node6</title>
<g id="a_Node000006"><a xlink:href="compat__c23_8h.html" target="_top" xlink:title="Provides forward compatibility macros for C23 features.">
<polygon fill="white" stroke="#666666" points="600,-74 469,-74 469,-55 600,-55 600,-74"/>
<text text-anchor="middle" x="534.5" y="-62" font-family="Helvetica,sans-Serif" font-size="10.00">common/compat_c23.h</text>
</a>
</g>
</g>
<!-- Node5&#45;&gt;Node6 -->
<g id="edge5_Node000005_Node000006" class="edge">
<title>Node5&#45;&gt;Node6</title>
<g id="a_edge5_Node000005_Node000006"><a xlink:title=" ">
<path fill="none" stroke="#63b8ff" d="M342.29,-109.98C381.74,-100.86 444.48,-86.33 487.48,-76.38"/>
<polygon fill="#63b8ff" stroke="#63b8ff" points="488.47,-79.75 497.42,-74.08 486.89,-72.93 488.47,-79.75"/>
</a>
</g>
</g>
<!-- Node7 -->
<g id="Node000007" class="node">
<title>Node7</title>
<g id="a_Node000007"><a xlink:title=" ">
<polygon fill="#e0e0e0" stroke="#999999" points="379.5,-19 317.5,-19 317.5,0 379.5,0 379.5,-19"/>
<text text-anchor="middle" x="348.5" y="-7" font-family="Helvetica,sans-Serif" font-size="10.00">stdbool.h</text>
</a>
</g>
</g>
<!-- Node5&#45;&gt;Node7 -->
<g id="edge9_Node000005_Node000007" class="edge">
<title>Node5&#45;&gt;Node7</title>
<g id="a_edge9_Node000005_Node000007"><a xlink:title=" ">
<path fill="none" stroke="#63b8ff" d="M296.14,-109.65C284.12,-97.18 265.99,-73.84 276.5,-55 284.54,-40.58 299.4,-30.24 313.54,-23.18"/>
<polygon fill="#63b8ff" stroke="#63b8ff" points="315.01,-26.36 322.65,-19.01 312.1,-19.99 315.01,-26.36"/>
</a>
</g>
</g>
<!-- Node6&#45;&gt;Node7 -->
<g id="edge6_Node000006_Node000007" class="edge">
<title>Node6&#45;&gt;Node7</title>
<g id="a_edge6_Node000006_Node000007"><a xlink:title=" ">
<path fill="none" stroke="#63b8ff" d="M504.62,-54.98C473.12,-46.01 423.33,-31.82 388.47,-21.89"/>
<polygon fill="#63b8ff" stroke="#63b8ff" points="389.19,-18.46 378.62,-19.08 387.28,-25.19 389.19,-18.46"/>
</a>
</g>
</g>
<!-- Node8 -->
<g id="Node000008" class="node">
<title>Node8</title>
<g id="a_Node000008"><a xlink:title=" ">
<polygon fill="#e0e0e0" stroke="#999999" points="656.5,-19 600.5,-19 600.5,0 656.5,0 656.5,-19"/>
<text text-anchor="middle" x="628.5" y="-7" font-family="Helvetica,sans-Serif" font-size="10.00">stddef.h</text>
</a>
</g>
</g>
<!-- Node6&#45;&gt;Node8 -->
<g id="edge7_Node000006_Node000008" class="edge">
<title>Node6&#45;&gt;Node8</title>
<g id="a_edge7_Node000006_Node000008"><a xlink:title=" ">
<path fill="none" stroke="#63b8ff" d="M549.6,-54.98C564.32,-46.69 586.92,-33.94 604.17,-24.22"/>
<polygon fill="#63b8ff" stroke="#63b8ff" points="606.13,-27.13 613.12,-19.17 602.69,-21.03 606.13,-27.13"/>
</a>
</g>
</g>
<!-- Node9&#45;&gt;Node6 -->
<g id="edge11_Node000009_Node000006" class="edge">
<title>Node9&#45;&gt;Node6</title>
<g id="a_edge11_Node000009_Node000006"><a xlink:title=" ">
<path fill="none" stroke="#63b8ff" d="M474.07,-109.98C484.92,-102 501.38,-89.88 514.38,-80.31"/>
<polygon fill="#63b8ff" stroke="#63b8ff" points="516.74,-82.92 522.72,-74.17 512.59,-77.28 516.74,-82.92"/>
</a>
</g>
</g>
<!-- Node9&#45;&gt;Node7 -->
<g id="edge12_Node000009_Node000007" class="edge">
<title>Node9&#45;&gt;Node7</title>
<g id="a_edge12_Node000009_Node000007"><a xlink:title=" ">
<path fill="none" stroke="#63b8ff" d="M458.49,-109.83C452.11,-96.73 438.61,-71.67 421.5,-55 408.42,-42.25 391.05,-31.48 376.53,-23.73"/>
<polygon fill="#63b8ff" stroke="#63b8ff" points="377.98,-20.53 367.48,-19.08 374.78,-26.76 377.98,-20.53"/>
</a>
</g>
</g>
<!-- Node9&#45;&gt;Node8 -->
<g id="edge13_Node000009_Node000008" class="edge">
<title>Node9&#45;&gt;Node8</title>
<g id="a_edge13_Node000009_Node000008"><a xlink:title=" ">
<path fill="none" stroke="#63b8ff" d="M498.09,-111.75C536.36,-103.82 593.83,-89.72 609.5,-74 621.29,-62.17 625.82,-43.33 627.53,-29.24"/>
<polygon fill="#63b8ff" stroke="#63b8ff" points="631.03,-29.44 628.38,-19.18 624.05,-28.85 631.03,-29.44"/>
</a>
</g>
</g>
<!-- Node10 -->
<g id="Node000010" class="node">
<title>Node10</title>
<g id="a_Node000010"><a xlink:title=" ">
<polygon fill="#e0e0e0" stroke="#999999" points="710,-74 657,-74 657,-55 710,-55 710,-74"/>
<text text-anchor="middle" x="683.5" y="-62" font-family="Helvetica,sans-Serif" font-size="10.00">stdint.h</text>
</a>
</g>
</g>
<!-- Node9&#45;&gt;Node10 -->
<g id="edge14_Node000009_Node000010" class="edge">
<title>Node9&#45;&gt;Node10</title>
<g id="a_edge14_Node000009_Node000010"><a xlink:title=" ">
<path fill="none" stroke="#63b8ff" d="M498.01,-109.98C538.84,-100.19 605.54,-84.2 646.84,-74.29"/>
<polygon fill="#63b8ff" stroke="#63b8ff" points="647.86,-77.65 656.77,-71.91 646.23,-70.84 647.86,-77.65"/>
</a>
</g>
</g>
<!-- Node14&#45;&gt;Node3 -->
<g id="edge20_Node000014_Node000003" class="edge">
<title>Node14&#45;&gt;Node3</title>
<g id="a_edge20_Node000014_Node000003"><a xlink:title=" ">
<path fill="none" stroke="#63b8ff" d="M549.97,-219.98C517.8,-211.01 466.94,-196.82 431.33,-186.89"/>
<polygon fill="#63b8ff" stroke="#63b8ff" points="431.84,-183.4 421.27,-184.08 429.96,-190.14 431.84,-183.4"/>
</a>
</g>
</g>
<!-- Node14&#45;&gt;Node10 -->
<g id="edge21_Node000014_Node000010" class="edge">
<title>Node14&#45;&gt;Node10</title>
<g id="a_edge21_Node000014_Node000010"><a xlink:title=" ">
<path fill="none" stroke="#63b8ff" d="M570.14,-219.93C556.78,-207.78 536.39,-184.83 546.5,-165 568.43,-121.97 618.63,-93.19 651.79,-78.09"/>
<polygon fill="#63b8ff" stroke="#63b8ff" points="653.32,-81.25 661.07,-74.02 650.5,-74.84 653.32,-81.25"/>
</a>
</g>
</g>
<!-- Node14&#45;&gt;Node13 -->
<g id="edge23_Node000014_Node000013" class="edge">
<title>Node14&#45;&gt;Node13</title>
<g id="a_edge23_Node000014_Node000013"><a xlink:title=" ">
<path fill="none" stroke="#63b8ff" d="M580.67,-219.75C580.8,-212.8 580.98,-202.85 581.15,-194.13"/>
<polygon fill="#63b8ff" stroke="#63b8ff" points="584.65,-194.15 581.34,-184.09 577.65,-194.02 584.65,-194.15"/>
</a>
</g>
</g>
<!-- Node15 -->
<g id="Node000015" class="node">
<title>Node15</title>
<g id="a_Node000015"><a xlink:title=" ">
<polygon fill="#e0e0e0" stroke="#999999" points="748,-184 695,-184 695,-165 748,-165 748,-184"/>
<text text-anchor="middle" x="721.5" y="-172" font-family="Helvetica,sans-Serif" font-size="10.00">stdlib.h</text>
</a>
</g>
</g>
<!-- Node14&#45;&gt;Node15 -->
<g id="edge22_Node000014_Node000015" class="edge">
<title>Node14&#45;&gt;Node15</title>
<g id="a_edge22_Node000014_Node000015"><a xlink:title=" ">
<path fill="none" stroke="#63b8ff" d="M603.15,-219.98C626.35,-211.27 662.62,-197.63 688.9,-187.75"/>
<polygon fill="#63b8ff" stroke="#63b8ff" points="690.3,-190.97 698.43,-184.17 687.84,-184.41 690.3,-190.97"/>
</a>
</g>
</g>
<!-- Node16&#45;&gt;Node3 -->
<g id="edge25_Node000016_Node000003" class="edge">
<title>Node16&#45;&gt;Node3</title>
<g id="a_edge25_Node000016_Node000003"><a xlink:title=" ">
<path fill="none" stroke="#63b8ff" d="M952.75,-223.08C944.1,-221.99 935,-220.9 926.5,-220 765.19,-202.93 576,-188.53 471.03,-181.04"/>
<polygon fill="#63b8ff" stroke="#63b8ff" points="471.06,-177.54 460.83,-180.32 470.56,-184.52 471.06,-177.54"/>
</a>
</g>
</g>
<!-- Node16&#45;&gt;Node10 -->
<g id="edge38_Node000016_Node000010" class="edge">
<title>Node16&#45;&gt;Node10</title>
<g id="a_edge38_Node000016_Node000010"><a xlink:title=" ">
<path fill="none" stroke="#63b8ff" d="M1032.32,-222.72C1076.94,-214.55 1139.92,-196.95 1114.5,-165 1065.14,-102.94 814.95,-76.26 720.06,-68.26"/>
<polygon fill="#63b8ff" stroke="#63b8ff" points="720.32,-64.77 710.06,-67.44 719.74,-71.75 720.32,-64.77"/>
</a>
</g>
</g>
<!-- Node16&#45;&gt;Node12 -->
<g id="edge29_Node000016_Node000012" class="edge">
<title>Node16&#45;&gt;Node12</title>
<g id="a_edge29_Node000016_Node000012"><a xlink:title=" ">
<path fill="none" stroke="#63b8ff" d="M952.79,-223.2C882.02,-213.67 736.77,-193.74 686.5,-184 686.4,-183.98 686.3,-183.96 686.2,-183.94"/>
<polygon fill="#63b8ff" stroke="#63b8ff" points="687.18,-180.57 676.67,-181.91 685.72,-187.42 687.18,-180.57"/>
</a>
</g>
</g>
<!-- Node16&#45;&gt;Node13 -->
<g id="edge31_Node000016_Node000013" class="edge">
<title>Node16&#45;&gt;Node13</title>
<g id="a_edge31_Node000016_Node000013"><a xlink:title=" ">
<path fill="none" stroke="#63b8ff" d="M952.72,-223.3C944.08,-222.19 934.99,-221.04 926.5,-220 792.48,-203.56 755.4,-207.71 618.22,-183.92"/>
<polygon fill="#63b8ff" stroke="#63b8ff" points="618.62,-180.44 608.17,-182.16 617.41,-187.33 618.62,-180.44"/>
</a>
</g>
</g>
<!-- Node16&#45;&gt;Node15 -->
<g id="edge30_Node000016_Node000015" class="edge">
<title>Node16&#45;&gt;Node15</title>
<g id="a_edge30_Node000016_Node000015"><a xlink:title=" ">
<path fill="none" stroke="#63b8ff" d="M952.89,-221.56C908.1,-213.58 832.76,-199.8 758.24,-184.08"/>
<polygon fill="#63b8ff" stroke="#63b8ff" points="758.72,-180.6 748.21,-181.95 757.26,-187.45 758.72,-180.6"/>
</a>
</g>
</g>
<!-- Node17 -->
<g id="Node000017" class="node">
<title>Node17</title>
<g id="a_Node000017"><a xlink:href="utility_8h.html" target="_top" xlink:title="A header for conditionally compiled debugging utilities.">
<polygon fill="white" stroke="#666666" points="935.5,-184 837.5,-184 837.5,-165 935.5,-165 935.5,-184"/>
<text text-anchor="middle" x="886.5" y="-172" font-family="Helvetica,sans-Serif" font-size="10.00">common/utility.h</text>
</a>
</g>
</g>
<!-- Node16&#45;&gt;Node17 -->
<g id="edge26_Node000016_Node000017" class="edge">
<title>Node16&#45;&gt;Node17</title>
<g id="a_edge26_Node000016_Node000017"><a xlink:title=" ">
<path fill="none" stroke="#63b8ff" d="M975.47,-219.98C958.57,-211.54 932.44,-198.47 912.86,-188.68"/>
<polygon fill="#63b8ff" stroke="#63b8ff" points="914.35,-185.51 903.84,-184.17 911.22,-191.77 914.35,-185.51"/>
</a>
</g>
</g>
<!-- Node18 -->
<g id="Node000018" class="node">
<title>Node18</title>
<g id="a_Node000018"><a xlink:title=" ">
<polygon fill="#e0e0e0" stroke="#999999" points="1434.5,-184 1386.5,-184 1386.5,-165 1434.5,-165 1434.5,-184"/>
<text text-anchor="middle" x="1410.5" y="-172" font-family="Helvetica,sans-Serif" font-size="10.00">time.h</text>
</a>
</g>
</g>
<!-- Node16&#45;&gt;Node18 -->
<g id="edge32_Node000016_Node000018" class="edge">
<title>Node16&#45;&gt;Node18</title>
<g id="a_edge32_Node000016_Node000018"><a xlink:title=" ">
<path fill="none" stroke="#63b8ff" d="M1032.12,-225.72C1100.49,-220.54 1245.18,-207.85 1376.59,-183.92"/>
<polygon fill="#63b8ff" stroke="#63b8ff" points="1377.24,-187.36 1386.43,-182.1 1375.97,-180.48 1377.24,-187.36"/>
</a>
</g>
</g>
<!-- Node19 -->
<g id="Node000019" class="node">
<title>Node19</title>
<g id="a_Node000019"><a xlink:title=" ">
<polygon fill="#e0e0e0" stroke="#999999" points="1213,-184 1162,-184 1162,-165 1213,-165 1213,-184"/>
<text text-anchor="middle" x="1187.5" y="-172" font-family="Helvetica,sans-Serif" font-size="10.00">errno.h</text>
</a>
</g>
</g>
<!-- Node16&#45;&gt;Node19 -->
<g id="edge33_Node000016_Node000019" class="edge">
<title>Node16&#45;&gt;Node19</title>
<g id="a_edge33_Node000016_Node000019"><a xlink:title=" ">
<path fill="none" stroke="#63b8ff" d="M1023.83,-219.98C1058.86,-210.46 1115.48,-195.08 1152.09,-185.12"/>
<polygon fill="#63b8ff" stroke="#63b8ff" points="1153.12,-188.47 1161.85,-182.47 1151.28,-181.72 1153.12,-188.47"/>
</a>
</g>
</g>
<!-- Node20 -->
<g id="Node000020" class="node">
<title>Node20</title>
<g id="a_Node000020"><a xlink:title=" ">
<polygon fill="#e0e0e0" stroke="#999999" points="1278,-184 1231,-184 1231,-165 1278,-165 1278,-184"/>
<text text-anchor="middle" x="1254.5" y="-172" font-family="Helvetica,sans-Serif" font-size="10.00">fcntl.h</text>
</a>
</g>
</g>
<!-- Node16&#45;&gt;Node20 -->
<g id="edge34_Node000016_Node000020" class="edge">
<title>Node16&#45;&gt;Node20</title>
<g id="a_edge34_Node000016_Node000020"><a xlink:title=" ">
<path fill="none" stroke="#63b8ff" d="M1032.15,-221.68C1076.06,-213.94 1149.16,-200.5 1220.7,-184.3"/>
<polygon fill="#63b8ff" stroke="#63b8ff" points="1221.81,-187.63 1230.78,-181.99 1220.25,-180.81 1221.81,-187.63"/>
</a>
</g>
</g>
<!-- Node21 -->
<g id="Node000021" class="node">
<title>Node21</title>
<g id="a_Node000021"><a xlink:title=" ">
<polygon fill="#e0e0e0" stroke="#999999" points="1031,-184 954,-184 954,-165 1031,-165 1031,-184"/>
<text text-anchor="middle" x="992.5" y="-172" font-family="Helvetica,sans-Serif" font-size="10.00">sys/mman.h</text>
</a>
</g>
</g>
<!-- Node16&#45;&gt;Node21 -->
<g id="edge35_Node000016_Node000021" class="edge">
<title>Node16&#45;&gt;Node21</title>
<g id="a_edge35_Node000016_Node000021"><a xlink:title=" ">
<path fill="none" stroke="#63b8ff" d="M992.5,-219.75C992.5,-212.8 992.5,-202.85 992.5,-194.13"/>
<polygon fill="#63b8ff" stroke="#63b8ff" points="996,-194.09 992.5,-184.09 989,-194.09 996,-194.09"/>
</a>
</g>
</g>
<!-- Node22 -->
<g id="Node000022" class="node">
<title>Node22</title>
<g id="a_Node000022"><a xlink:title=" ">
<polygon fill="#e0e0e0" stroke="#999999" points="1368.5,-184 1296.5,-184 1296.5,-165 1368.5,-165 1368.5,-184"/>
<text text-anchor="middle" x="1332.5" y="-172" font-family="Helvetica,sans-Serif" font-size="10.00">sys/types.h</text>
</a>
</g>
</g>
<!-- Node16&#45;&gt;Node22 -->
<g id="edge36_Node000016_Node000022" class="edge">
<title>Node16&#45;&gt;Node22</title>
<g id="a_edge36_Node000016_Node000022"><a xlink:title=" ">
<path fill="none" stroke="#63b8ff" d="M1032.18,-222.99C1087.01,-215.27 1189.27,-200.5 1286.21,-184.17"/>
<polygon fill="#63b8ff" stroke="#63b8ff" points="1286.9,-187.6 1296.17,-182.48 1285.73,-180.7 1286.9,-187.6"/>
</a>
</g>
</g>
<!-- Node23 -->
<g id="Node000023" class="node">
<title>Node23</title>
<g id="a_Node000023"><a xlink:title=" ">
<polygon fill="#e0e0e0" stroke="#999999" points="1105.5,-184 1049.5,-184 1049.5,-165 1105.5,-165 1105.5,-184"/>
<text text-anchor="middle" x="1077.5" y="-172" font-family="Helvetica,sans-Serif" font-size="10.00">unistd.h</text>
</a>
</g>
</g>
<!-- Node16&#45;&gt;Node23 -->
<g id="edge37_Node000016_Node000023" class="edge">
<title>Node16&#45;&gt;Node23</title>
<g id="a_edge37_Node000016_Node000023"><a xlink:title=" ">
<path fill="none" stroke="#63b8ff" d="M1006.16,-219.98C1019.34,-211.77 1039.53,-199.18 1055.07,-189.49"/>
<polygon fill="#63b8ff" stroke="#63b8ff" points="1056.96,-192.43 1063.59,-184.17 1053.26,-186.49 1056.96,-192.43"/>
</a>
</g>
</g>
<!-- Node17&#45;&gt;Node6 -->
<g id="edge27_Node000017_Node000006" class="edge">
<title>Node17&#45;&gt;Node6</title>
<g id="a_edge27_Node000017_Node000006"><a xlink:title=" ">
<path fill="none" stroke="#63b8ff" d="M858.58,-164.94C795.82,-145.68 643.48,-98.94 572.31,-77.1"/>
<polygon fill="#63b8ff" stroke="#63b8ff" points="573,-73.65 562.42,-74.07 570.95,-80.35 573,-73.65"/>
</a>
</g>
</g>
<!-- Node17&#45;&gt;Node8 -->
<g id="edge28_Node000017_Node000008" class="edge">
<title>Node17&#45;&gt;Node8</title>
<g id="a_edge28_Node000017_Node000008"><a xlink:title=" ">
<path fill="none" stroke="#63b8ff" d="M875.58,-164.8C849.52,-144.25 781.24,-91.67 719.5,-55 699.6,-43.18 676.1,-31.75 657.97,-23.43"/>
<polygon fill="#63b8ff" stroke="#63b8ff" points="659.06,-20.09 648.51,-19.15 656.18,-26.46 659.06,-20.09"/>
</a>
</g>
</g>
<!-- Node24&#45;&gt;Node3 -->
<g id="edge40_Node000024_Node000003" class="edge">
<title>Node24&#45;&gt;Node3</title>
<g id="a_edge40_Node000024_Node000003"><a xlink:title=" ">
<path fill="none" stroke="#63b8ff" d="M285.58,-219.98C305.87,-211.38 337.46,-197.99 360.67,-188.15"/>
<polygon fill="#63b8ff" stroke="#63b8ff" points="362.21,-191.3 370.05,-184.17 359.48,-184.85 362.21,-191.3"/>
</a>
</g>
</g>
<!-- Node24&#45;&gt;Node13 -->
<g id="edge42_Node000024_Node000013" class="edge">
<title>Node24&#45;&gt;Node13</title>
<g id="a_edge42_Node000024_Node000013"><a xlink:title=" ">
<path fill="none" stroke="#63b8ff" d="M316.27,-219.98C380.16,-209.27 488.34,-191.12 544.77,-181.66"/>
<polygon fill="#63b8ff" stroke="#63b8ff" points="545.4,-185.1 554.68,-180 544.24,-178.2 545.4,-185.1"/>
</a>
</g>
</g>
<!-- Node25 -->
<g id="Node000025" class="node">
<title>Node25</title>
<g id="a_Node000025"><a xlink:title=" ">
<polygon fill="#e0e0e0" stroke="#999999" points="190,-184 137,-184 137,-165 190,-165 190,-184"/>
<text text-anchor="middle" x="163.5" y="-172" font-family="Helvetica,sans-Serif" font-size="10.00">ctype.h</text>
</a>
</g>
</g>
<!-- Node24&#45;&gt;Node25 -->
<g id="edge41_Node000024_Node000025" class="edge">
<title>Node24&#45;&gt;Node25</title>
<g id="a_edge41_Node000024_Node000025"><a xlink:title=" ">
<path fill="none" stroke="#63b8ff" d="M249.11,-219.98C232.93,-211.57 207.93,-198.59 189.12,-188.81"/>
<polygon fill="#63b8ff" stroke="#63b8ff" points="190.67,-185.68 180.19,-184.17 187.45,-191.89 190.67,-185.68"/>
</a>
</g>
</g>
<!-- Node26&#45;&gt;Node3 -->
<g id="edge44_Node000026_Node000003" class="edge">
<title>Node26&#45;&gt;Node3</title>
<g id="a_edge44_Node000026_Node000003"><a xlink:title=" ">
<path fill="none" stroke="#63b8ff" d="M388,-219.75C388.39,-212.8 388.95,-202.85 389.45,-194.13"/>
<polygon fill="#63b8ff" stroke="#63b8ff" points="392.94,-194.27 390.01,-184.09 385.95,-193.88 392.94,-194.27"/>
</a>
</g>
</g>
<!-- Node26&#45;&gt;Node7 -->
<g id="edge47_Node000026_Node000007" class="edge">
<title>Node26&#45;&gt;Node7</title>
<g id="a_edge47_Node000026_Node000007"><a xlink:title=" ">
<path fill="none" stroke="#63b8ff" d="M339.85,-220.7C300.75,-213.21 249.89,-200.6 237.5,-184 202.23,-136.75 227.58,-97.45 268.5,-55 281.65,-41.35 299.91,-30.77 315.66,-23.35"/>
<polygon fill="#63b8ff" stroke="#63b8ff" points="317.38,-26.41 325.08,-19.14 314.52,-20.02 317.38,-26.41"/>
</a>
</g>
</g>
<!-- Node26&#45;&gt;Node11 -->
<g id="edge46_Node000026_Node000011" class="edge">
<title>Node26&#45;&gt;Node11</title>
<g id="a_edge46_Node000026_Node000011"><a xlink:title=" ">
<path fill="none" stroke="#63b8ff" d="M369.34,-219.98C351.25,-211.5 323.22,-198.35 302.31,-188.54"/>
<polygon fill="#63b8ff" stroke="#63b8ff" points="303.53,-185.25 292.99,-184.17 300.55,-191.59 303.53,-185.25"/>
</a>
</g>
</g>
<!-- Node26&#45;&gt;Node12 -->
<g id="edge48_Node000026_Node000012" class="edge">
<title>Node26&#45;&gt;Node12</title>
<g id="a_edge48_Node000026_Node000012"><a xlink:title=" ">
<path fill="none" stroke="#63b8ff" d="M435.23,-220.04C479.67,-211.99 547.98,-199.17 616.22,-184.19"/>
<polygon fill="#63b8ff" stroke="#63b8ff" points="617.28,-187.54 626.28,-181.96 615.76,-180.71 617.28,-187.54"/>
</a>
</g>
</g>
<!-- Node26&#45;&gt;Node13 -->
<g id="edge50_Node000026_Node000013" class="edge">
<title>Node26&#45;&gt;Node13</title>
<g id="a_edge50_Node000026_Node000013"><a xlink:title=" ">
<path fill="none" stroke="#63b8ff" d="M418.67,-219.98C453.13,-210.57 508.58,-195.42 545.04,-185.46"/>
<polygon fill="#63b8ff" stroke="#63b8ff" points="546.06,-188.81 554.78,-182.8 544.21,-182.06 546.06,-188.81"/>
</a>
</g>
</g>
<!-- Node26&#45;&gt;Node15 -->
<g id="edge49_Node000026_Node000015" class="edge">
<title>Node26&#45;&gt;Node15</title>
<g id="a_edge49_Node000026_Node000015"><a xlink:title=" ">
<path fill="none" stroke="#63b8ff" d="M435.08,-221.41C508.86,-210.41 645.77,-189.99 684.77,-183.76"/>
<polygon fill="#63b8ff" stroke="#63b8ff" points="685.54,-187.18 694.82,-182.06 684.37,-180.27 685.54,-187.18"/>
</a>
</g>
</g>
<!-- Node26&#45;&gt;Node25 -->
<g id="edge45_Node000026_Node000025" class="edge">
<title>Node26&#45;&gt;Node25</title>
<g id="a_edge45_Node000026_Node000025"><a xlink:title=" ">
<path fill="none" stroke="#63b8ff" d="M351.51,-219.98C309.92,-210.14 241.86,-194.04 200.04,-184.15"/>
<polygon fill="#63b8ff" stroke="#63b8ff" points="200.8,-180.73 190.26,-181.83 199.19,-187.54 200.8,-180.73"/>
</a>
</g>
</g>
<!-- Node27&#45;&gt;Node3 -->
<g id="edge52_Node000027_Node000003" class="edge">
<title>Node27&#45;&gt;Node3</title>
<g id="a_edge52_Node000027_Node000003"><a xlink:title=" ">
<path fill="none" stroke="#63b8ff" d="M190.74,-219.98C231.91,-210.82 297.49,-196.21 342.2,-186.26"/>
<polygon fill="#63b8ff" stroke="#63b8ff" points="342.96,-189.67 351.96,-184.08 341.44,-182.84 342.96,-189.67"/>
</a>
</g>
</g>
<!-- Node28 -->
<g id="Node000028" class="node">
<title>Node28</title>
<g id="a_Node000028"><a xlink:title=" ">
<polygon fill="#e0e0e0" stroke="#999999" points="118.5,-184 68.5,-184 68.5,-165 118.5,-165 118.5,-184"/>
<text text-anchor="middle" x="93.5" y="-172" font-family="Helvetica,sans-Serif" font-size="10.00">dlfcn.h</text>
</a>
</g>
</g>
<!-- Node27&#45;&gt;Node28 -->
<g id="edge53_Node000027_Node000028" class="edge">
<title>Node27&#45;&gt;Node28</title>
<g id="a_edge53_Node000027_Node000028"><a xlink:title=" ">
<path fill="none" stroke="#63b8ff" d="M143.02,-219.98C134.3,-212.15 121.16,-200.34 110.6,-190.86"/>
<polygon fill="#63b8ff" stroke="#63b8ff" points="112.93,-188.25 103.15,-184.17 108.25,-193.46 112.93,-188.25"/>
</a>
</g>
</g>
<!-- Node29&#45;&gt;Node3 -->
<g id="edge55_Node000029_Node000003" class="edge">
<title>Node29&#45;&gt;Node3</title>
<g id="a_edge55_Node000029_Node000003"><a xlink:title=" ">
<path fill="none" stroke="#63b8ff" d="M637.36,-221.41C588.38,-212.3 502.99,-196.42 446.6,-185.93"/>
<polygon fill="#63b8ff" stroke="#63b8ff" points="446.9,-182.43 436.43,-184.04 445.62,-189.31 446.9,-182.43"/>
</a>
</g>
</g>
<!-- Node29&#45;&gt;Node12 -->
<g id="edge58_Node000029_Node000012" class="edge">
<title>Node29&#45;&gt;Node12</title>
<g id="a_edge58_Node000029_Node000012"><a xlink:title=" ">
<path fill="none" stroke="#63b8ff" d="M671.54,-219.75C668.29,-212.57 663.58,-202.18 659.55,-193.27"/>
<polygon fill="#63b8ff" stroke="#63b8ff" points="662.7,-191.75 655.39,-184.09 656.33,-194.64 662.7,-191.75"/>
</a>
</g>
</g>
<!-- Node29&#45;&gt;Node13 -->
<g id="edge60_Node000029_Node000013" class="edge">
<title>Node29&#45;&gt;Node13</title>
<g id="a_edge60_Node000029_Node000013"><a xlink:title=" ">
<path fill="none" stroke="#63b8ff" d="M660.4,-219.98C645.68,-211.69 623.08,-198.94 605.83,-189.22"/>
<polygon fill="#63b8ff" stroke="#63b8ff" points="607.31,-186.03 596.88,-184.17 603.87,-192.13 607.31,-186.03"/>
</a>
</g>
</g>
<!-- Node29&#45;&gt;Node15 -->
<g id="edge59_Node000029_Node000015" class="edge">
<title>Node29&#45;&gt;Node15</title>
<g id="a_edge59_Node000029_Node000015"><a xlink:title=" ">
<path fill="none" stroke="#63b8ff" d="M683.1,-219.75C689.66,-212.18 699.32,-201.05 707.31,-191.84"/>
<polygon fill="#63b8ff" stroke="#63b8ff" points="710.13,-193.94 714.05,-184.09 704.85,-189.35 710.13,-193.94"/>
</a>
</g>
</g>
<!-- Node29&#45;&gt;Node17 -->
<g id="edge56_Node000029_Node000017" class="edge">
<title>Node29&#45;&gt;Node17</title>
<g id="a_edge56_Node000029_Node000017"><a xlink:title=" ">
<path fill="none" stroke="#63b8ff" d="M709.4,-219.98C745.52,-210.91 802.82,-196.52 842.42,-186.57"/>
<polygon fill="#63b8ff" stroke="#63b8ff" points="843.49,-189.91 852.33,-184.08 841.78,-183.12 843.49,-189.91"/>
</a>
</g>
</g>
<!-- Node30 -->
<g id="Node000030" class="node">
<title>Node30</title>
<g id="a_Node000030"><a xlink:title=" ">
<polygon fill="#e0e0e0" stroke="#999999" points="819,-184 766,-184 766,-165 819,-165 819,-184"/>
<text text-anchor="middle" x="792.5" y="-172" font-family="Helvetica,sans-Serif" font-size="10.00">limits.h</text>
</a>
</g>
</g>
<!-- Node29&#45;&gt;Node30 -->
<g id="edge57_Node000029_Node000030" class="edge">
<title>Node29&#45;&gt;Node30</title>
<g id="a_edge57_Node000029_Node000030"><a xlink:title=" ">
<path fill="none" stroke="#63b8ff" d="M694.3,-219.98C713.12,-211.46 742.32,-198.23 764,-188.41"/>
<polygon fill="#63b8ff" stroke="#63b8ff" points="765.7,-191.48 773.36,-184.17 762.81,-185.11 765.7,-191.48"/>
</a>
</g>
</g>
<!-- Node32&#45;&gt;Node5 -->
<g id="edge63_Node000032_Node000005" class="edge">
<title>Node32&#45;&gt;Node5</title>
<g id="a_edge63_Node000032_Node000005"><a xlink:title=" ">
<path fill="none" stroke="#63b8ff" d="M44.65,-219.68C43.85,-205.91 44.54,-179.41 59.5,-165 84.58,-140.86 174.82,-129.5 238.72,-124.38"/>
<polygon fill="#63b8ff" stroke="#63b8ff" points="239.03,-127.87 248.73,-123.61 238.49,-120.89 239.03,-127.87"/>
</a>
</g>
</g>
<!-- Node33&#45;&gt;Node3 -->
<g id="edge65_Node000033_Node000003" class="edge">
<title>Node33&#45;&gt;Node3</title>
<g id="a_edge65_Node000033_Node000003"><a xlink:title=" ">
<path fill="none" stroke="#63b8ff" d="M825.91,-221.28C822.73,-220.83 819.57,-220.4 816.5,-220 696.38,-204.45 556.67,-190.68 470.91,-182.71"/>
<polygon fill="#63b8ff" stroke="#63b8ff" points="471.01,-179.2 460.73,-181.77 470.36,-186.17 471.01,-179.2"/>
</a>
</g>
</g>
<!-- Node33&#45;&gt;Node12 -->
<g id="edge67_Node000033_Node000012" class="edge">
<title>Node33&#45;&gt;Node12</title>
<g id="a_edge67_Node000033_Node000012"><a xlink:title=" ">
<path fill="none" stroke="#63b8ff" d="M836.03,-219.99C798.78,-211.05 738.52,-196.57 686.5,-184 686.4,-183.98 686.3,-183.95 686.2,-183.93"/>
<polygon fill="#63b8ff" stroke="#63b8ff" points="687.28,-180.59 676.73,-181.64 685.63,-187.39 687.28,-180.59"/>
</a>
</g>
</g>
<!-- Node33&#45;&gt;Node13 -->
<g id="edge69_Node000033_Node000013" class="edge">
<title>Node33&#45;&gt;Node13</title>
<g id="a_edge69_Node000033_Node000013"><a xlink:title=" ">
<path fill="none" stroke="#63b8ff" d="M825.92,-221.34C777.06,-213.48 696.98,-200.07 618.29,-184.06"/>
<polygon fill="#63b8ff" stroke="#63b8ff" points="618.7,-180.57 608.2,-181.99 617.29,-187.42 618.7,-180.57"/>
</a>
</g>
</g>
<!-- Node33&#45;&gt;Node15 -->
<g id="edge68_Node000033_Node000015" class="edge">
<title>Node33&#45;&gt;Node15</title>
<g id="a_edge68_Node000033_Node000015"><a xlink:title=" ">
<path fill="none" stroke="#63b8ff" d="M847.4,-219.98C822.62,-211.23 783.8,-197.51 755.81,-187.62"/>
<polygon fill="#63b8ff" stroke="#63b8ff" points="756.63,-184.2 746.04,-184.17 754.3,-190.8 756.63,-184.2"/>
</a>
</g>
</g>
<!-- Node33&#45;&gt;Node17 -->
<g id="edge66_Node000033_Node000017" class="edge">
<title>Node33&#45;&gt;Node17</title>
<g id="a_edge66_Node000033_Node000017"><a xlink:title=" ">
<path fill="none" stroke="#63b8ff" d="M873.98,-219.75C875.96,-212.72 878.82,-202.62 881.31,-193.84"/>
<polygon fill="#63b8ff" stroke="#63b8ff" points="884.71,-194.66 884.07,-184.09 877.98,-192.76 884.71,-194.66"/>
</a>
</g>
</g>
<!-- Node33&#45;&gt;Node21 -->
<g id="edge70_Node000033_Node000021" class="edge">
<title>Node33&#45;&gt;Node21</title>
<g id="a_edge70_Node000033_Node000021"><a xlink:title=" ">
<path fill="none" stroke="#63b8ff" d="M890.94,-219.98C910.49,-211.42 940.88,-198.11 963.32,-188.28"/>
<polygon fill="#63b8ff" stroke="#63b8ff" points="964.95,-191.39 972.71,-184.17 962.14,-184.98 964.95,-191.39"/>
</a>
</g>
</g>
<!-- Node33&#45;&gt;Node23 -->
<g id="edge71_Node000033_Node000023" class="edge">
<title>Node33&#45;&gt;Node23</title>
<g id="a_edge71_Node000033_Node000023"><a xlink:title=" ">
<path fill="none" stroke="#63b8ff" d="M904.6,-219.98C941.45,-210.5 1000.91,-195.2 1039.6,-185.25"/>
<polygon fill="#63b8ff" stroke="#63b8ff" points="1040.64,-188.6 1049.45,-182.72 1038.89,-181.82 1040.64,-188.6"/>
</a>
</g>
</g>
</g>
</svg>

<g id="navigator" transform="translate(0 0)" fill="#404254">
  <rect fill="#f2f5e9" fill-opacity="0.5" stroke="#606060" stroke-width=".5" x="0" y="0" width="60" height="60"/>
  <use id="zoomplus" xlink:href="#zoomPlus" x="17" y="9" onmousedown="handleZoom(evt,'in')"/>
  <use id="zoomminus" xlink:href="#zoomMin" x="42" y="9" onmousedown="handleZoom(evt,'out')"/>
  <use id="reset" xlink:href="#resetDef" x="30" y="36" onmousedown="handleReset()"/>
   <use id="arrowup" xlink:href="#arrowUp" x="0" y="0" onmousedown="handlePan(0,-1)"/>
  <use id="arrowright" xlink:href="#arrowRight" x="0" y="0" onmousedown="handlePan(1,0)"/>
  <use id="arrowdown" xlink:href="#arrowDown" x="0" y="0" onmousedown="handlePan(0,1)"/>
  <use id="arrowleft" xlink:href="#arrowLeft" x="0" y="0" onmousedown="handlePan(-1,0)"/>
</g>
<svg viewBox="0 0 15 15" width="100%" height="30px" preserveAspectRatio="xMaxYMin meet">
 <g id="arrow_out" transform="scale(0.3 0.3)">
  <a xlink:href="infix_8c__incl_org.svg" target="_base">
   <rect id="button" ry="5" rx="5" y="6" x="6" height="38" width="38"
        fill="#f2f5e9" fill-opacity="0.5" stroke="#606060" stroke-width="1.0"/>
   <path id="arrow"
     d="M 11.500037,31.436501 C 11.940474,20.09759 22.043105,11.32322 32.158766,21.979434 L 37.068811,17.246167 C 37.068811,17.246167 37.088388,32 37.088388,32 L 22.160133,31.978069 C 22.160133,31.978069 26.997745,27.140456 26.997745,27.140456 C 18.528582,18.264221 13.291696,25.230495 11.500037,31.436501 z"
     style="fill:#404040;"/>
  </a>
 </g>
</svg>

<style type='text/css'>
<![CDATA[
[data-mouse-over-selected='false'] { opacity: 0.7; }
[data-mouse-over-selected='true']  { opacity: 1.0; }
]]>
</style>
<script type="application/ecmascript"><![CDATA[
document.addEventListener('DOMContentLoaded', (event) => {
  highlightEdges();
  highlightAdjacentNodes();
});
]]></script>
</svg>
