<?xml version="1.0" encoding="UTF-8" standalone="no"?>
<!DOCTYPE svg PUBLIC "-//W3C//DTD SVG 1.1//EN"
 "http://www.w3.org/Graphics/SVG/1.1/DTD/svg11.dtd">
<!-- Generated by graphviz version 2.43.0 (0)
 -->
<!-- Title: src/common/infix_config.h Pages: 1 -->
<svg width="2495pt" height="214pt"
 viewBox="0.00 0.00 2495.00 214.00" xmlns="http://www.w3.org/2000/svg" xmlns:xlink="http://www.w3.org/1999/xlink">
<g id="graph0" class="graph" transform="scale(1 1) rotate(0) translate(4 210)">
<title>src/common/infix_config.h</title>
<!-- Node1 -->
<g id="Node000001" class="node">
<title>Node1</title>
<g id="a_Node000001"><a xlink:title="Platform, architecture, and ABI detection macros.">
<polygon fill="#999999" stroke="#666666" points="2037,-206 1893,-206 1893,-187 2037,-187 2037,-206"/>
<text text-anchor="middle" x="1965" y="-194" font-family="Helvetica,sans-Serif" font-size="10.00">src/common/infix_config.h</text>
</a>
</g>
</g>
<!-- Node2 -->
<g id="Node000002" class="node">
<title>Node2</title>
<g id="a_Node000002"><a xlink:href="infix__internals_8h.html" target="_top" xlink:title="Internal data structures, function prototypes, and constants.">
<polygon fill="white" stroke="#666666" points="1635,-151 1477,-151 1477,-132 1635,-132 1635,-151"/>
<text text-anchor="middle" x="1556" y="-139" font-family="Helvetica,sans-Serif" font-size="10.00">src/common/infix_internals.h</text>
</a>
</g>
</g>
<!-- Node1&#45;&gt;Node2 -->
<g id="edge1_Node000001_Node000002" class="edge">
<title>Node1&#45;&gt;Node2</title>
<g id="a_edge1_Node000001_Node000002"><a xlink:title=" ">
<path fill="none" stroke="#63b8ff" d="M1889.2,-185.68C1812.43,-175.73 1694.9,-160.5 1621.89,-151.04"/>
<polygon fill="#63b8ff" stroke="#63b8ff" points="1888.92,-189.17 1899.29,-186.98 1889.82,-182.23 1888.92,-189.17"/>
</a>
</g>
</g>
<!-- Node28 -->
<g id="Node000028" class="node">
<title>Node28</title>
<g id="a_Node000028"><a xlink:href="001__primitives_8c.html" target="_top" xlink:title="Unit test for creating trampolines for functions with primitive C types.">
<polygon fill="white" stroke="#666666" points="1757,-151 1653,-151 1653,-132 1757,-132 1757,-151"/>
<text text-anchor="middle" x="1705" y="-139" font-family="Helvetica,sans-Serif" font-size="10.00">t/001_primitives.c</text>
</a>
</g>
</g>
<!-- Node1&#45;&gt;Node28 -->
<g id="edge38_Node000001_Node000028" class="edge">
<title>Node1&#45;&gt;Node28</title>
<g id="a_edge38_Node000001_Node000028"><a xlink:title=" ">
<path fill="none" stroke="#63b8ff" d="M1913.2,-184.94C1864.46,-175.01 1792.39,-160.31 1747.1,-151.08"/>
<polygon fill="#63b8ff" stroke="#63b8ff" points="1912.73,-188.42 1923.23,-186.98 1914.13,-181.56 1912.73,-188.42"/>
</a>
</g>
</g>
<!-- Node29 -->
<g id="Node000029" class="node">
<title>Node29</title>
<g id="a_Node000029"><a xlink:href="101__by__value_8c.html" target="_top" xlink:title="Unit test for passing and returning aggregates and vectors by value.">
<polygon fill="white" stroke="#666666" points="1874.5,-151 1775.5,-151 1775.5,-132 1874.5,-132 1874.5,-151"/>
<text text-anchor="middle" x="1825" y="-139" font-family="Helvetica,sans-Serif" font-size="10.00">t/101_by_value.c</text>
</a>
</g>
</g>
<!-- Node1&#45;&gt;Node29 -->
<g id="edge39_Node000001_Node000029" class="edge">
<title>Node1&#45;&gt;Node29</title>
<g id="a_edge39_Node000001_Node000029"><a xlink:title=" ">
<path fill="none" stroke="#63b8ff" d="M1933.09,-183.42C1907.12,-173.59 1871.08,-159.95 1847.9,-151.17"/>
<polygon fill="#63b8ff" stroke="#63b8ff" points="1931.92,-186.72 1942.51,-186.98 1934.39,-180.17 1931.92,-186.72"/>
</a>
</g>
</g>
<!-- Node30 -->
<g id="Node000030" class="node">
<title>Node30</title>
<g id="a_Node000030"><a xlink:href="402__variadic__functions_8c.html" target="_top" xlink:title="Unit test for FFI calls to and from variadic C functions.">
<polygon fill="white" stroke="#666666" points="2037,-151 1893,-151 1893,-132 2037,-132 2037,-151"/>
<text text-anchor="middle" x="1965" y="-139" font-family="Helvetica,sans-Serif" font-size="10.00">t/402_variadic_functions.c</text>
</a>
</g>
</g>
<!-- Node1&#45;&gt;Node30 -->
<g id="edge40_Node000001_Node000030" class="edge">
<title>Node1&#45;&gt;Node30</title>
<g id="a_edge40_Node000001_Node000030"><a xlink:title=" ">
<path fill="none" stroke="#63b8ff" d="M1965,-176.66C1965,-167.93 1965,-157.99 1965,-151.09"/>
<polygon fill="#63b8ff" stroke="#63b8ff" points="1961.5,-176.75 1965,-186.75 1968.5,-176.75 1961.5,-176.75"/>
</a>
</g>
</g>
<!-- Node31 -->
<g id="Node000031" class="node">
<title>Node31</title>
<g id="a_Node000031"><a xlink:href="403__special__types_8c.html" target="_top" xlink:title="Unit test for FFI calls with special, non&#45;standard, or platform&#45;dependent primitive types.">
<polygon fill="white" stroke="#666666" points="2177,-151 2055,-151 2055,-132 2177,-132 2177,-151"/>
<text text-anchor="middle" x="2116" y="-139" font-family="Helvetica,sans-Serif" font-size="10.00">t/403_special_types.c</text>
</a>
</g>
</g>
<!-- Node1&#45;&gt;Node31 -->
<g id="edge41_Node000001_Node000031" class="edge">
<title>Node1&#45;&gt;Node31</title>
<g id="a_edge41_Node000001_Node000031"><a xlink:title=" ">
<path fill="none" stroke="#63b8ff" d="M1999.05,-183.55C2027.09,-173.71 2066.18,-159.98 2091.3,-151.17"/>
<polygon fill="#63b8ff" stroke="#63b8ff" points="1997.54,-180.37 1989.26,-186.98 1999.86,-186.98 1997.54,-180.37"/>
</a>
</g>
</g>
<!-- Node32 -->
<g id="Node000032" class="node">
<title>Node32</title>
<g id="a_Node000032"><a xlink:href="820__threading__helgrind_8c.html" target="_top" xlink:title="A stress test to detect data races and other threading issues.">
<polygon fill="white" stroke="#666666" points="2341,-151 2195,-151 2195,-132 2341,-132 2341,-151"/>
<text text-anchor="middle" x="2268" y="-139" font-family="Helvetica,sans-Serif" font-size="10.00">t/820_threading_helgrind.c</text>
</a>
</g>
</g>
<!-- Node1&#45;&gt;Node32 -->
<g id="edge42_Node000001_Node000032" class="edge">
<title>Node1&#45;&gt;Node32</title>
<g id="a_edge42_Node000001_Node000032"><a xlink:title=" ">
<path fill="none" stroke="#63b8ff" d="M2023.61,-185.25C2080.51,-175.3 2165.87,-160.36 2219.19,-151.04"/>
<polygon fill="#63b8ff" stroke="#63b8ff" points="2022.93,-181.81 2013.68,-186.98 2024.14,-188.71 2022.93,-181.81"/>
</a>
</g>
</g>
<!-- Node33 -->
<g id="Node000033" class="node">
<title>Node33</title>
<g id="a_Node000033"><a xlink:href="821__threading__bare_8c.html" target="_top" xlink:title="A minimal, dependency&#45;free version of the thread&#45;safety stress test.">
<polygon fill="white" stroke="#666666" points="2487,-151 2359,-151 2359,-132 2487,-132 2487,-151"/>
<text text-anchor="middle" x="2423" y="-139" font-family="Helvetica,sans-Serif" font-size="10.00">t/821_threading_bare.c</text>
</a>
</g>
</g>
<!-- Node1&#45;&gt;Node33 -->
<g id="edge43_Node000001_Node000033" class="edge">
<title>Node1&#45;&gt;Node33</title>
<g id="a_edge43_Node000001_Node000033"><a xlink:title=" ">
<path fill="none" stroke="#63b8ff" d="M2047.26,-186.01C2125.21,-177.02 2245.58,-163.11 2350,-151 2352.92,-150.66 2355.9,-150.32 2358.91,-149.97"/>
<polygon fill="#63b8ff" stroke="#63b8ff" points="2046.56,-182.57 2037.02,-187.19 2047.36,-189.52 2046.56,-182.57"/>
</a>
</g>
</g>
<!-- Node3 -->
<g id="Node000003" class="node">
<title>Node3</title>
<g id="a_Node000003"><a xlink:href="fuzz__helpers_8h.html" target="_top" xlink:title="Common definitions, structures, and helpers for all fuzzer targets.">
<polygon fill="white" stroke="#666666" points="516,-90.5 406,-90.5 406,-71.5 516,-71.5 516,-90.5"/>
<text text-anchor="middle" x="461" y="-78.5" font-family="Helvetica,sans-Serif" font-size="10.00">fuzz/fuzz_helpers.h</text>
</a>
</g>
</g>
<!-- Node2&#45;&gt;Node3 -->
<g id="edge2_Node000002_Node000003" class="edge">
<title>Node2&#45;&gt;Node3</title>
<g id="a_edge2_Node000002_Node000003"><a xlink:title=" ">
<path fill="none" stroke="#63b8ff" d="M1466.68,-135.73C1248.46,-124.07 693.17,-94.4 516.13,-84.95"/>
<polygon fill="#63b8ff" stroke="#63b8ff" points="1466.64,-139.23 1476.81,-136.27 1467.01,-132.24 1466.64,-139.23"/>
</a>
</g>
</g>
<!-- Node10 -->
<g id="Node000010" class="node">
<title>Node10</title>
<g id="a_Node000010"><a xlink:href="abi__arm64_8c.html" target="_top" xlink:title="Implements the FFI logic for the AArch64 (ARM64) architecture.">
<polygon fill="white" stroke="#666666" points="908.5,-30 793.5,-30 793.5,0 908.5,0 908.5,-30"/>
<text text-anchor="start" x="801.5" y="-18" font-family="Helvetica,sans-Serif" font-size="10.00">src/arch/aarch64/abi</text>
<text text-anchor="middle" x="851" y="-7" font-family="Helvetica,sans-Serif" font-size="10.00">_arm64.c</text>
</a>
</g>
</g>
<!-- Node2&#45;&gt;Node10 -->
<g id="edge9_Node000002_Node000010" class="edge">
<title>Node2&#45;&gt;Node10</title>
<g id="a_edge9_Node000002_Node000010"><a xlink:title=" ">
<path fill="none" stroke="#63b8ff" d="M1466.89,-138.18C1302.67,-133.34 964.64,-120.52 917,-96 888.82,-81.5 868.19,-49.12 858.05,-30.31"/>
<polygon fill="#63b8ff" stroke="#63b8ff" points="1466.87,-141.68 1476.97,-138.47 1467.08,-134.68 1466.87,-141.68"/>
</a>
</g>
</g>
<!-- Node11 -->
<g id="Node000011" class="node">
<title>Node11</title>
<g id="a_Node000011"><a xlink:href="abi__arm64__emitters_8h.html" target="_top" xlink:title="Declares internal helper functions for emitting AArch64 machine code.">
<polygon fill="white" stroke="#666666" points="1041.5,-96 926.5,-96 926.5,-66 1041.5,-66 1041.5,-96"/>
<text text-anchor="start" x="934.5" y="-84" font-family="Helvetica,sans-Serif" font-size="10.00">src/arch/aarch64/abi</text>
<text text-anchor="middle" x="984" y="-73" font-family="Helvetica,sans-Serif" font-size="10.00">_arm64_emitters.h</text>
</a>
</g>
</g>
<!-- Node2&#45;&gt;Node11 -->
<g id="edge10_Node000002_Node000011" class="edge">
<title>Node2&#45;&gt;Node11</title>
<g id="a_edge10_Node000002_Node000011"><a xlink:title=" ">
<path fill="none" stroke="#63b8ff" d="M1466.67,-133.47C1371.09,-125.64 1215.11,-111.95 1081,-96 1068.24,-94.48 1054.57,-92.64 1041.64,-90.8"/>
<polygon fill="#63b8ff" stroke="#63b8ff" points="1466.62,-136.98 1476.87,-134.3 1467.19,-130 1466.62,-136.98"/>
</a>
</g>
</g>
<!-- Node13 -->
<g id="Node000013" class="node">
<title>Node13</title>
<g id="a_Node000013"><a xlink:href="abi__sysv__x64_8c.html" target="_top" xlink:title="Implements the FFI logic for the System V AMD64 ABI.">
<polygon fill="white" stroke="#666666" points="1182,-30 1060,-30 1060,0 1182,0 1182,-30"/>
<text text-anchor="start" x="1068" y="-18" font-family="Helvetica,sans-Serif" font-size="10.00">src/arch/x64/abi_sysv</text>
<text text-anchor="middle" x="1121" y="-7" font-family="Helvetica,sans-Serif" font-size="10.00">_x64.c</text>
</a>
</g>
</g>
<!-- Node2&#45;&gt;Node13 -->
<g id="edge13_Node000002_Node000013" class="edge">
<title>Node2&#45;&gt;Node13</title>
<g id="a_edge13_Node000002_Node000013"><a xlink:title=" ">
<path fill="none" stroke="#63b8ff" d="M1466.81,-137.81C1344.51,-133.18 1137.18,-121.63 1114,-96 1097.82,-78.11 1106.71,-47.87 1114.17,-30.13"/>
<polygon fill="#63b8ff" stroke="#63b8ff" points="1466.79,-141.31 1476.92,-138.18 1467.05,-134.31 1466.79,-141.31"/>
</a>
</g>
</g>
<!-- Node14 -->
<g id="Node000014" class="node">
<title>Node14</title>
<g id="a_Node000014"><a xlink:href="abi__win__x64_8c.html" target="_top" xlink:title="Implements the FFI logic for the Windows x64 calling convention.">
<polygon fill="white" stroke="#666666" points="1452,-30 1336,-30 1336,0 1452,0 1452,-30"/>
<text text-anchor="start" x="1344" y="-18" font-family="Helvetica,sans-Serif" font-size="10.00">src/arch/x64/abi_win</text>
<text text-anchor="middle" x="1394" y="-7" font-family="Helvetica,sans-Serif" font-size="10.00">_x64.c</text>
</a>
</g>
</g>
<!-- Node2&#45;&gt;Node14 -->
<g id="edge14_Node000002_Node000014" class="edge">
<title>Node2&#45;&gt;Node14</title>
<g id="a_edge14_Node000002_Node000014"><a xlink:title=" ">
<path fill="none" stroke="#63b8ff" d="M1466.82,-137.74C1397.97,-133.5 1310.75,-122.83 1288,-96 1264.52,-68.3 1310.05,-44.4 1348.57,-30.11"/>
<polygon fill="#63b8ff" stroke="#63b8ff" points="1466.64,-141.23 1476.83,-138.32 1467.05,-134.25 1466.64,-141.23"/>
</a>
</g>
</g>
<!-- Node15 -->
<g id="Node000015" class="node">
<title>Node15</title>
<g id="a_Node000015"><a xlink:href="abi__x64__emitters_8h.html" target="_top" xlink:title="Declares internal helper functions for emitting x86&#45;64 machine code.">
<polygon fill="white" stroke="#666666" points="1240.5,-96 1123.5,-96 1123.5,-66 1240.5,-66 1240.5,-96"/>
<text text-anchor="start" x="1131.5" y="-84" font-family="Helvetica,sans-Serif" font-size="10.00">src/arch/x64/abi_x64</text>
<text text-anchor="middle" x="1182" y="-73" font-family="Helvetica,sans-Serif" font-size="10.00">_emitters.h</text>
</a>
</g>
</g>
<!-- Node2&#45;&gt;Node15 -->
<g id="edge15_Node000002_Node000015" class="edge">
<title>Node2&#45;&gt;Node15</title>
<g id="a_edge15_Node000002_Node000015"><a xlink:title=" ">
<path fill="none" stroke="#63b8ff" d="M1483.11,-130.61C1422.07,-122.12 1332.7,-109.19 1255,-96 1250.29,-95.2 1245.42,-94.34 1240.53,-93.45"/>
<polygon fill="#63b8ff" stroke="#63b8ff" points="1482.65,-134.08 1493.04,-131.99 1483.61,-127.15 1482.65,-134.08"/>
</a>
</g>
</g>
<!-- Node17 -->
<g id="Node000017" class="node">
<title>Node17</title>
<g id="a_Node000017"><a xlink:href="arena_8c.html" target="_top" xlink:title="Implements a simple, fast arena (or region&#45;based) allocator.">
<polygon fill="white" stroke="#666666" points="2242,-90.5 2148,-90.5 2148,-71.5 2242,-71.5 2242,-90.5"/>
<text text-anchor="middle" x="2195" y="-78.5" font-family="Helvetica,sans-Serif" font-size="10.00">src/core/arena.c</text>
</a>
</g>
</g>
<!-- Node2&#45;&gt;Node17 -->
<g id="edge19_Node000002_Node000017" class="edge">
<title>Node2&#45;&gt;Node17</title>
<g id="a_edge19_Node000002_Node000017"><a xlink:title=" ">
<path fill="none" stroke="#63b8ff" d="M1645.41,-131.91C1865.57,-113.91 1924.49,-130.35 2139,-96 2147.51,-94.64 2156.62,-92.61 2164.97,-90.52"/>
<polygon fill="#63b8ff" stroke="#63b8ff" points="1644.82,-128.45 1635.15,-132.77 1645.4,-135.42 1644.82,-128.45"/>
</a>
</g>
</g>
<!-- Node19 -->
<g id="Node000019" class="node">
<title>Node19</title>
<g id="a_Node000019"><a xlink:href="840__arena__allocator_8c.html" target="_top" xlink:title="Unit test for the internal arena allocator.">
<polygon fill="white" stroke="#666666" points="2298,-24.5 2168,-24.5 2168,-5.5 2298,-5.5 2298,-24.5"/>
<text text-anchor="middle" x="2233" y="-12.5" font-family="Helvetica,sans-Serif" font-size="10.00">t/840_arena_allocator.c</text>
</a>
</g>
</g>
<!-- Node2&#45;&gt;Node19 -->
<g id="edge37_Node000002_Node000019" class="edge">
<title>Node2&#45;&gt;Node19</title>
<g id="a_edge37_Node000002_Node000019"><a xlink:title=" ">
<path fill="none" stroke="#63b8ff" d="M1645.31,-132.15C1747.36,-128.03 2206.38,-143.34 2251,-96 2269.75,-76.11 2250.25,-41.05 2239.33,-24.77"/>
<polygon fill="#63b8ff" stroke="#63b8ff" points="1644.93,-128.66 1635.14,-132.72 1645.32,-135.65 1644.93,-128.66"/>
</a>
</g>
</g>
<!-- Node20 -->
<g id="Node000020" class="node">
<title>Node20</title>
<g id="a_Node000020"><a xlink:href="error_8c.html" target="_top" xlink:title="Implements the thread&#45;local error reporting system.">
<polygon fill="white" stroke="#666666" points="2015.5,-90.5 1926.5,-90.5 1926.5,-71.5 2015.5,-71.5 2015.5,-90.5"/>
<text text-anchor="middle" x="1971" y="-78.5" font-family="Helvetica,sans-Serif" font-size="10.00">src/core/error.c</text>
</a>
</g>
</g>
<!-- Node2&#45;&gt;Node20 -->
<g id="edge22_Node000002_Node000020" class="edge">
<title>Node2&#45;&gt;Node20</title>
<g id="a_edge22_Node000002_Node000020"><a xlink:title=" ">
<path fill="none" stroke="#63b8ff" d="M1645.14,-130.87C1734.75,-120.94 1866.6,-105.6 1917,-96 1924.8,-94.51 1933.15,-92.54 1940.88,-90.55"/>
<polygon fill="#63b8ff" stroke="#63b8ff" points="1644.53,-127.41 1634.98,-131.99 1645.3,-134.37 1644.53,-127.41"/>
</a>
</g>
</g>
<!-- Node21 -->
<g id="Node000021" class="node">
<title>Node21</title>
<g id="a_Node000021"><a xlink:href="loader_8c.html" target="_top" xlink:title="Implements cross&#45;platform dynamic library loading.">
<polygon fill="white" stroke="#666666" points="2130,-90.5 2034,-90.5 2034,-71.5 2130,-71.5 2130,-90.5"/>
<text text-anchor="middle" x="2082" y="-78.5" font-family="Helvetica,sans-Serif" font-size="10.00">src/core/loader.c</text>
</a>
</g>
</g>
<!-- Node2&#45;&gt;Node21 -->
<g id="edge24_Node000002_Node000021" class="edge">
<title>Node2&#45;&gt;Node21</title>
<g id="a_edge24_Node000002_Node000021"><a xlink:title=" ">
<path fill="none" stroke="#63b8ff" d="M1645.19,-131.9C1815.04,-116.14 1860.49,-123.82 2025,-96 2033.44,-94.57 2042.48,-92.57 2050.81,-90.53"/>
<polygon fill="#63b8ff" stroke="#63b8ff" points="1644.78,-128.42 1635.15,-132.85 1645.44,-135.39 1644.78,-128.42"/>
</a>
</g>
</g>
<!-- Node22 -->
<g id="Node000022" class="node">
<title>Node22</title>
<g id="a_Node000022"><a xlink:href="signature_8c.html" target="_top" xlink:title="Implements the infix signature string parser and type printer.">
<polygon fill="white" stroke="#666666" points="1409,-90.5 1297,-90.5 1297,-71.5 1409,-71.5 1409,-90.5"/>
<text text-anchor="middle" x="1353" y="-78.5" font-family="Helvetica,sans-Serif" font-size="10.00">src/core/signature.c</text>
</a>
</g>
</g>
<!-- Node2&#45;&gt;Node22 -->
<g id="edge26_Node000002_Node000022" class="edge">
<title>Node2&#45;&gt;Node22</title>
<g id="a_edge26_Node000002_Node000022"><a xlink:title=" ">
<path fill="none" stroke="#63b8ff" d="M1516.72,-129.18C1477.46,-117.87 1417.98,-100.72 1382.55,-90.52"/>
<polygon fill="#63b8ff" stroke="#63b8ff" points="1515.9,-132.59 1526.48,-131.99 1517.84,-125.86 1515.9,-132.59"/>
</a>
</g>
</g>
<!-- Node23 -->
<g id="Node000023" class="node">
<title>Node23</title>
<g id="a_Node000023"><a xlink:href="type__registry_8c.html" target="_top" xlink:title="Implements the named type registry system.">
<polygon fill="white" stroke="#666666" points="1556.5,-90.5 1427.5,-90.5 1427.5,-71.5 1556.5,-71.5 1556.5,-90.5"/>
<text text-anchor="middle" x="1492" y="-78.5" font-family="Helvetica,sans-Serif" font-size="10.00">src/core/type_registry.c</text>
</a>
</g>
</g>
<!-- Node2&#45;&gt;Node23 -->
<g id="edge28_Node000002_Node000023" class="edge">
<title>Node2&#45;&gt;Node23</title>
<g id="a_edge28_Node000002_Node000023"><a xlink:title=" ">
<path fill="none" stroke="#63b8ff" d="M1538.94,-124.91C1526.94,-113.94 1511.33,-99.67 1501.48,-90.67"/>
<polygon fill="#63b8ff" stroke="#63b8ff" points="1536.81,-127.7 1546.56,-131.87 1541.54,-122.54 1536.81,-127.7"/>
</a>
</g>
</g>
<!-- Node24 -->
<g id="Node000024" class="node">
<title>Node24</title>
<g id="a_Node000024"><a xlink:href="types_8c.html" target="_top" xlink:title="Implements the public API for creating and managing type descriptions.">
<polygon fill="white" stroke="#666666" points="1667.5,-90.5 1574.5,-90.5 1574.5,-71.5 1667.5,-71.5 1667.5,-90.5"/>
<text text-anchor="middle" x="1621" y="-78.5" font-family="Helvetica,sans-Serif" font-size="10.00">src/core/types.c</text>
</a>
</g>
</g>
<!-- Node2&#45;&gt;Node24 -->
<g id="edge30_Node000002_Node000024" class="edge">
<title>Node2&#45;&gt;Node24</title>
<g id="a_edge30_Node000002_Node000024"><a xlink:title=" ">
<path fill="none" stroke="#63b8ff" d="M1573.32,-124.91C1585.51,-113.94 1601.37,-99.67 1611.37,-90.67"/>
<polygon fill="#63b8ff" stroke="#63b8ff" points="1570.68,-122.58 1565.59,-131.87 1575.37,-127.78 1570.68,-122.58"/>
</a>
</g>
</g>
<!-- Node25 -->
<g id="Node000025" class="node">
<title>Node25</title>
<g id="a_Node000025"><a xlink:href="executor_8c.html" target="_top" xlink:title="Implements platform&#45;specific memory management for JIT code and execution.">
<polygon fill="white" stroke="#666666" points="1782,-90.5 1686,-90.5 1686,-71.5 1782,-71.5 1782,-90.5"/>
<text text-anchor="middle" x="1734" y="-78.5" font-family="Helvetica,sans-Serif" font-size="10.00">src/jit/executor.c</text>
</a>
</g>
</g>
<!-- Node2&#45;&gt;Node25 -->
<g id="edge32_Node000002_Node000025" class="edge">
<title>Node2&#45;&gt;Node25</title>
<g id="a_edge32_Node000002_Node000025"><a xlink:title=" ">
<path fill="none" stroke="#63b8ff" d="M1591.55,-128.82C1625.98,-117.5 1677.36,-100.62 1708.09,-90.52"/>
<polygon fill="#63b8ff" stroke="#63b8ff" points="1590.29,-125.55 1581.88,-131.99 1592.48,-132.2 1590.29,-125.55"/>
</a>
</g>
</g>
<!-- Node26 -->
<g id="Node000026" class="node">
<title>Node26</title>
<g id="a_Node000026"><a xlink:href="trampoline_8c.html" target="_top" xlink:title="The core JIT engine for generating forward and reverse trampolines.">
<polygon fill="white" stroke="#666666" points="1908,-90.5 1800,-90.5 1800,-71.5 1908,-71.5 1908,-90.5"/>
<text text-anchor="middle" x="1854" y="-78.5" font-family="Helvetica,sans-Serif" font-size="10.00">src/jit/trampoline.c</text>
</a>
</g>
</g>
<!-- Node2&#45;&gt;Node26 -->
<g id="edge34_Node000002_Node000026" class="edge">
<title>Node2&#45;&gt;Node26</title>
<g id="a_edge34_Node000002_Node000026"><a xlink:title=" ">
<path fill="none" stroke="#63b8ff" d="M1613.47,-130.14C1661.11,-121.43 1730.56,-108.43 1791,-96 1799.23,-94.31 1808.05,-92.4 1816.4,-90.56"/>
<polygon fill="#63b8ff" stroke="#63b8ff" points="1612.56,-126.75 1603.35,-131.99 1613.81,-133.63 1612.56,-126.75"/>
</a>
</g>
</g>
<!-- Node27 -->
<g id="Node000027" class="node">
<title>Node27</title>
<g id="a_Node000027"><a xlink:href="830__security_8c.html" target="_top" xlink:title="Unit test for security&#45;hardening features of the infix library.">
<polygon fill="white" stroke="#666666" points="2390,-90.5 2298,-90.5 2298,-71.5 2390,-71.5 2390,-90.5"/>
<text text-anchor="middle" x="2344" y="-78.5" font-family="Helvetica,sans-Serif" font-size="10.00">t/830_security.c</text>
</a>
</g>
</g>
<!-- Node2&#45;&gt;Node27 -->
<g id="edge36_Node000002_Node000027" class="edge">
<title>Node2&#45;&gt;Node27</title>
<g id="a_edge36_Node000002_Node000027"><a xlink:title=" ">
<path fill="none" stroke="#63b8ff" d="M1645.35,-131.94C1929.83,-110.91 2005.31,-136.04 2284,-96 2293.21,-94.68 2303.09,-92.64 2312.12,-90.52"/>
<polygon fill="#63b8ff" stroke="#63b8ff" points="1644.85,-128.46 1635.14,-132.7 1645.38,-135.44 1644.85,-128.46"/>
</a>
</g>
</g>
<!-- Node4 -->
<g id="Node000004" class="node">
<title>Node4</title>
<g id="a_Node000004"><a xlink:href="fuzz__abi_8c.html" target="_top" xlink:title="Fuzzer target for the ABI classification layer.">
<polygon fill="white" stroke="#666666" points="775.5,-24.5 686.5,-24.5 686.5,-5.5 775.5,-5.5 775.5,-24.5"/>
<text text-anchor="middle" x="731" y="-12.5" font-family="Helvetica,sans-Serif" font-size="10.00">fuzz/fuzz_abi.c</text>
</a>
</g>
</g>
<!-- Node3&#45;&gt;Node4 -->
<g id="edge3_Node000003_Node000004" class="edge">
<title>Node3&#45;&gt;Node4</title>
<g id="a_edge3_Node000003_Node000004"><a xlink:title=" ">
<path fill="none" stroke="#63b8ff" d="M509.12,-69.24C552.96,-59.35 619.43,-44.12 677,-30 684.05,-28.27 691.61,-26.35 698.77,-24.5"/>
<polygon fill="#63b8ff" stroke="#63b8ff" points="508.3,-65.84 499.31,-71.45 509.83,-72.67 508.3,-65.84"/>
</a>
</g>
</g>
<!-- Node5 -->
<g id="Node000005" class="node">
<title>Node5</title>
<g id="a_Node000005"><a xlink:href="fuzz__helpers_8c.html" target="_top" xlink:title="Implements the core logic for generating random infix_type graphs from fuzzer input.">
<polygon fill="white" stroke="#666666" points="110,-24.5 0,-24.5 0,-5.5 110,-5.5 110,-24.5"/>
<text text-anchor="middle" x="55" y="-12.5" font-family="Helvetica,sans-Serif" font-size="10.00">fuzz/fuzz_helpers.c</text>
</a>
</g>
</g>
<!-- Node3&#45;&gt;Node5 -->
<g id="edge4_Node000003_Node000005" class="edge">
<title>Node3&#45;&gt;Node5</title>
<g id="a_edge4_Node000003_Node000005"><a xlink:title=" ">
<path fill="none" stroke="#63b8ff" d="M395.44,-71.81C326.43,-62.86 214.74,-47.45 119,-30 110.16,-28.39 100.68,-26.44 91.8,-24.51"/>
<polygon fill="#63b8ff" stroke="#63b8ff" points="395.35,-75.32 405.72,-73.13 396.25,-68.38 395.35,-75.32"/>
</a>
</g>
</g>
<!-- Node6 -->
<g id="Node000006" class="node">
<title>Node6</title>
<g id="a_Node000006"><a xlink:href="fuzz__signature_8c.html" target="_top" xlink:title="Fuzzer target for the high&#45;level signature parsing API.">
<polygon fill="white" stroke="#666666" points="247.5,-24.5 128.5,-24.5 128.5,-5.5 247.5,-5.5 247.5,-24.5"/>
<text text-anchor="middle" x="188" y="-12.5" font-family="Helvetica,sans-Serif" font-size="10.00">fuzz/fuzz_signature.c</text>
</a>
</g>
</g>
<!-- Node3&#45;&gt;Node6 -->
<g id="edge5_Node000003_Node000006" class="edge">
<title>Node3&#45;&gt;Node6</title>
<g id="a_edge5_Node000003_Node000006"><a xlink:title=" ">
<path fill="none" stroke="#63b8ff" d="M414.51,-69.1C360.74,-56.49 273.34,-36.01 224.32,-24.51"/>
<polygon fill="#63b8ff" stroke="#63b8ff" points="413.93,-72.56 424.47,-71.44 415.53,-65.74 413.93,-72.56"/>
</a>
</g>
</g>
<!-- Node7 -->
<g id="Node000007" class="node">
<title>Node7</title>
<g id="a_Node000007"><a xlink:href="fuzz__trampoline_8c.html" target="_top" xlink:title="Fuzzer target for the trampoline generation functions.">
<polygon fill="white" stroke="#666666" points="392.5,-24.5 265.5,-24.5 265.5,-5.5 392.5,-5.5 392.5,-24.5"/>
<text text-anchor="middle" x="329" y="-12.5" font-family="Helvetica,sans-Serif" font-size="10.00">fuzz/fuzz_trampoline.c</text>
</a>
</g>
</g>
<!-- Node3&#45;&gt;Node7 -->
<g id="edge6_Node000003_Node000007" class="edge">
<title>Node3&#45;&gt;Node7</title>
<g id="a_edge6_Node000003_Node000007"><a xlink:title=" ">
<path fill="none" stroke="#63b8ff" d="M433.9,-66.86C407.89,-54.25 369.35,-35.56 346.94,-24.7"/>
<polygon fill="#63b8ff" stroke="#63b8ff" points="432.67,-70.16 443.2,-71.37 435.73,-63.86 432.67,-70.16"/>
</a>
</g>
</g>
<!-- Node8 -->
<g id="Node000008" class="node">
<title>Node8</title>
<g id="a_Node000008"><a xlink:href="fuzz__types_8c.html" target="_top" xlink:title="Fuzzer target for the random type generation logic.">
<polygon fill="white" stroke="#666666" points="511.5,-24.5 410.5,-24.5 410.5,-5.5 511.5,-5.5 511.5,-24.5"/>
<text text-anchor="middle" x="461" y="-12.5" font-family="Helvetica,sans-Serif" font-size="10.00">fuzz/fuzz_types.c</text>
</a>
</g>
</g>
<!-- Node3&#45;&gt;Node8 -->
<g id="edge7_Node000003_Node000008" class="edge">
<title>Node3&#45;&gt;Node8</title>
<g id="a_edge7_Node000003_Node000008"><a xlink:title=" ">
<path fill="none" stroke="#63b8ff" d="M461,-61.08C461,-49.13 461,-34.22 461,-24.91"/>
<polygon fill="#63b8ff" stroke="#63b8ff" points="457.5,-61.37 461,-71.37 464.5,-61.37 457.5,-61.37"/>
</a>
</g>
</g>
<!-- Node9 -->
<g id="Node000009" class="node">
<title>Node9</title>
<g id="a_Node000009"><a xlink:href="850__regression__cases_8c.html" target="_top" xlink:title="A suite of regression tests for bugs discovered by fuzzing.">
<polygon fill="white" stroke="#666666" points="668.5,-24.5 529.5,-24.5 529.5,-5.5 668.5,-5.5 668.5,-24.5"/>
<text text-anchor="middle" x="599" y="-12.5" font-family="Helvetica,sans-Serif" font-size="10.00">t/850_regression_cases.c</text>
</a>
</g>
</g>
<!-- Node3&#45;&gt;Node9 -->
<g id="edge8_Node000003_Node000009" class="edge">
<title>Node3&#45;&gt;Node9</title>
<g id="a_edge8_Node000003_Node000009"><a xlink:title=" ">
<path fill="none" stroke="#63b8ff" d="M488.97,-67.03C516.17,-54.42 556.71,-35.61 580.24,-24.7"/>
<polygon fill="#63b8ff" stroke="#63b8ff" points="487.21,-63.99 479.61,-71.37 490.16,-70.34 487.21,-63.99"/>
</a>
</g>
</g>
<!-- Node11&#45;&gt;Node10 -->
<g id="edge11_Node000011_Node000010" class="edge">
<title>Node11&#45;&gt;Node10</title>
<g id="a_edge11_Node000011_Node000010"><a xlink:title=" ">
<path fill="none" stroke="#63b8ff" d="M945.58,-61.51C924.72,-51.47 899.33,-39.26 880.12,-30.01"/>
<polygon fill="#63b8ff" stroke="#63b8ff" points="944.28,-64.77 954.81,-65.95 947.32,-58.46 944.28,-64.77"/>
</a>
</g>
</g>
<!-- Node12 -->
<g id="Node000012" class="node">
<title>Node12</title>
<g id="a_Node000012"><a xlink:href="abi__arm64__emitters_8c.html" target="_top" xlink:title="Implements internal helper functions for emitting AArch64 machine code.">
<polygon fill="white" stroke="#666666" points="1041.5,-30 926.5,-30 926.5,0 1041.5,0 1041.5,-30"/>
<text text-anchor="start" x="934.5" y="-18" font-family="Helvetica,sans-Serif" font-size="10.00">src/arch/aarch64/abi</text>
<text text-anchor="middle" x="984" y="-7" font-family="Helvetica,sans-Serif" font-size="10.00">_arm64_emitters.c</text>
</a>
</g>
</g>
<!-- Node11&#45;&gt;Node12 -->
<g id="edge12_Node000011_Node000012" class="edge">
<title>Node11&#45;&gt;Node12</title>
<g id="a_edge12_Node000011_Node000012"><a xlink:title=" ">
<path fill="none" stroke="#63b8ff" d="M984,-55.54C984,-46.96 984,-37.61 984,-30.16"/>
<polygon fill="#63b8ff" stroke="#63b8ff" points="980.5,-55.8 984,-65.8 987.5,-55.8 980.5,-55.8"/>
</a>
</g>
</g>
<!-- Node15&#45;&gt;Node13 -->
<g id="edge16_Node000015_Node000013" class="edge">
<title>Node15&#45;&gt;Node13</title>
<g id="a_edge16_Node000015_Node000013"><a xlink:title=" ">
<path fill="none" stroke="#63b8ff" d="M1161.38,-58.37C1152.51,-49.06 1142.39,-38.44 1134.5,-30.16"/>
<polygon fill="#63b8ff" stroke="#63b8ff" points="1159.03,-60.97 1168.46,-65.8 1164.1,-56.14 1159.03,-60.97"/>
</a>
</g>
</g>
<!-- Node15&#45;&gt;Node14 -->
<g id="edge17_Node000015_Node000014" class="edge">
<title>Node15&#45;&gt;Node14</title>
<g id="a_edge17_Node000015_Node000014"><a xlink:title=" ">
<path fill="none" stroke="#63b8ff" d="M1238.35,-62.99C1272.46,-52.69 1315.44,-39.72 1347.58,-30.01"/>
<polygon fill="#63b8ff" stroke="#63b8ff" points="1237.09,-59.71 1228.52,-65.95 1239.11,-66.42 1237.09,-59.71"/>
</a>
</g>
</g>
<!-- Node16 -->
<g id="Node000016" class="node">
<title>Node16</title>
<g id="a_Node000016"><a xlink:href="abi__x64__emitters_8c.html" target="_top" xlink:title="Implements internal helper functions for emitting x86&#45;64 machine code.">
<polygon fill="white" stroke="#666666" points="1317.5,-30 1200.5,-30 1200.5,0 1317.5,0 1317.5,-30"/>
<text text-anchor="start" x="1208.5" y="-18" font-family="Helvetica,sans-Serif" font-size="10.00">src/arch/x64/abi_x64</text>
<text text-anchor="middle" x="1259" y="-7" font-family="Helvetica,sans-Serif" font-size="10.00">_emitters.c</text>
</a>
</g>
</g>
<!-- Node15&#45;&gt;Node16 -->
<g id="edge18_Node000015_Node000016" class="edge">
<title>Node15&#45;&gt;Node16</title>
<g id="a_edge18_Node000015_Node000016"><a xlink:title=" ">
<path fill="none" stroke="#63b8ff" d="M1207.02,-59.2C1218.45,-49.7 1231.7,-38.69 1241.96,-30.16"/>
<polygon fill="#63b8ff" stroke="#63b8ff" points="1204.54,-56.71 1199.09,-65.8 1209.02,-62.1 1204.54,-56.71"/>
</a>
</g>
</g>
<!-- Node18 -->
<g id="Node000018" class="node">
<title>Node18</title>
<g id="a_Node000018"><a xlink:href="infix_8c.html" target="_top" xlink:title="The unity build source file for the infix library.">
<polygon fill="white" stroke="#666666" points="1825.5,-24.5 1762.5,-24.5 1762.5,-5.5 1825.5,-5.5 1825.5,-24.5"/>
<text text-anchor="middle" x="1794" y="-12.5" font-family="Helvetica,sans-Serif" font-size="10.00">src/infix.c</text>
</a>
</g>
</g>
<!-- Node17&#45;&gt;Node18 -->
<g id="edge20_Node000017_Node000018" class="edge">
<title>Node17&#45;&gt;Node18</title>
<g id="a_edge20_Node000017_Node000018"><a xlink:title=" ">
<path fill="none" stroke="#63b8ff" d="M2153.36,-69.1C2148.54,-67.98 2143.67,-66.92 2139,-66 2024.39,-43.43 1886.5,-26.47 1825.58,-19.49"/>
<polygon fill="#63b8ff" stroke="#63b8ff" points="2152.6,-72.51 2163.14,-71.44 2154.23,-65.71 2152.6,-72.51"/>
</a>
</g>
</g>
<!-- Node17&#45;&gt;Node19 -->
<g id="edge21_Node000017_Node000019" class="edge">
<title>Node17&#45;&gt;Node19</title>
<g id="a_edge21_Node000017_Node000019"><a xlink:title=" ">
<path fill="none" stroke="#63b8ff" d="M2205.36,-62.55C2212.6,-50.36 2221.95,-34.61 2227.71,-24.91"/>
<polygon fill="#63b8ff" stroke="#63b8ff" points="2202.22,-60.98 2200.12,-71.37 2208.24,-64.56 2202.22,-60.98"/>
</a>
</g>
</g>
<!-- Node20&#45;&gt;Node18 -->
<g id="edge23_Node000020_Node000018" class="edge">
<title>Node20&#45;&gt;Node18</title>
<g id="a_edge23_Node000020_Node000018"><a xlink:title=" ">
<path fill="none" stroke="#63b8ff" d="M1937.37,-67.84C1902.4,-55.2 1848.56,-35.73 1817.77,-24.6"/>
<polygon fill="#63b8ff" stroke="#63b8ff" points="1936.53,-71.26 1947.13,-71.37 1938.92,-64.68 1936.53,-71.26"/>
</a>
</g>
</g>
<!-- Node21&#45;&gt;Node18 -->
<g id="edge25_Node000021_Node000018" class="edge">
<title>Node21&#45;&gt;Node18</title>
<g id="a_edge25_Node000021_Node000018"><a xlink:title=" ">
<path fill="none" stroke="#63b8ff" d="M2037.9,-69.04C2033.54,-68 2029.19,-66.97 2025,-66 1954.04,-49.61 1870.43,-31.91 1825.82,-22.6"/>
<polygon fill="#63b8ff" stroke="#63b8ff" points="2037.43,-72.53 2047.98,-71.48 2039.08,-65.73 2037.43,-72.53"/>
</a>
</g>
</g>
<!-- Node22&#45;&gt;Node18 -->
<g id="edge27_Node000022_Node000018" class="edge">
<title>Node22&#45;&gt;Node18</title>
<g id="a_edge27_Node000022_Node000018"><a xlink:title=" ">
<path fill="none" stroke="#63b8ff" d="M1400.04,-69.4C1406.07,-68.18 1412.17,-67.01 1418,-66 1545,-43.92 1697.62,-26.37 1762.43,-19.34"/>
<polygon fill="#63b8ff" stroke="#63b8ff" points="1399.1,-66.02 1390.02,-71.49 1400.53,-72.88 1399.1,-66.02"/>
</a>
</g>
</g>
<!-- Node23&#45;&gt;Node18 -->
<g id="edge29_Node000023_Node000018" class="edge">
<title>Node23&#45;&gt;Node18</title>
<g id="a_edge29_Node000023_Node000018"><a xlink:title=" ">
<path fill="none" stroke="#63b8ff" d="M1542.45,-69.31C1604.99,-56.05 1709.71,-33.86 1762.11,-22.76"/>
<polygon fill="#63b8ff" stroke="#63b8ff" points="1541.47,-65.94 1532.42,-71.44 1542.92,-72.79 1541.47,-65.94"/>
</a>
</g>
</g>
<!-- Node24&#45;&gt;Node18 -->
<g id="edge31_Node000024_Node000018" class="edge">
<title>Node24&#45;&gt;Node18</title>
<g id="a_edge31_Node000024_Node000018"><a xlink:title=" ">
<path fill="none" stroke="#63b8ff" d="M1653.87,-67.84C1688.05,-55.2 1740.67,-35.73 1770.76,-24.6"/>
<polygon fill="#63b8ff" stroke="#63b8ff" points="1652.5,-64.62 1644.33,-71.37 1654.92,-71.18 1652.5,-64.62"/>
</a>
</g>
</g>
<!-- Node25&#45;&gt;Node18 -->
<g id="edge33_Node000025_Node000018" class="edge">
<title>Node25&#45;&gt;Node18</title>
<g id="a_edge33_Node000025_Node000018"><a xlink:title=" ">
<path fill="none" stroke="#63b8ff" d="M1749.02,-63.98C1760.6,-51.62 1776.2,-34.99 1785.65,-24.91"/>
<polygon fill="#63b8ff" stroke="#63b8ff" points="1746.38,-61.68 1742.09,-71.37 1751.48,-66.47 1746.38,-61.68"/>
</a>
</g>
</g>
<!-- Node26&#45;&gt;Node18 -->
<g id="edge35_Node000026_Node000018" class="edge">
<title>Node26&#45;&gt;Node18</title>
<g id="a_edge35_Node000026_Node000018"><a xlink:title=" ">
<path fill="none" stroke="#63b8ff" d="M1838.98,-63.98C1827.4,-51.62 1811.8,-34.99 1802.35,-24.91"/>
<polygon fill="#63b8ff" stroke="#63b8ff" points="1836.52,-66.47 1845.91,-71.37 1841.62,-61.68 1836.52,-66.47"/>
</a>
</g>
</g>
</g>
</svg>
