<?xml version="1.0" encoding="UTF-8" standalone="no"?>
<!DOCTYPE svg PUBLIC "-//W3C//DTD SVG 1.1//EN"
 "http://www.w3.org/Graphics/SVG/1.1/DTD/svg11.dtd">
<!-- Generated by graphviz version 2.43.0 (0)
 -->
<!-- Title: src/common/infix_internals.h Pages: 1 -->
<svg width="3338pt" height="159pt"
 viewBox="0.00 0.00 3337.50 159.00" xmlns="http://www.w3.org/2000/svg" xmlns:xlink="http://www.w3.org/1999/xlink">
<g id="graph0" class="graph" transform="scale(1 1) rotate(0) translate(4 155)">
<title>src/common/infix_internals.h</title>
<!-- Node1 -->
<g id="Node000001" class="node">
<title>Node1</title>
<g id="a_Node000001"><a xlink:title="Internal data structures, function prototypes, and constants.">
<polygon fill="#999999" stroke="#666666" points="2112.5,-151 1954.5,-151 1954.5,-132 2112.5,-132 2112.5,-151"/>
<text text-anchor="middle" x="2033.5" y="-139" font-family="Helvetica,sans-Serif" font-size="10.00">src/common/infix_internals.h</text>
</a>
</g>
</g>
<!-- Node2 -->
<g id="Node000002" class="node">
<title>Node2</title>
<g id="a_Node000002"><a xlink:href="fuzz__helpers_8h.html" target="_top" xlink:title="Common definitions, structures, and helpers for all fuzzer targets.">
<polygon fill="white" stroke="#666666" points="612.5,-90.5 502.5,-90.5 502.5,-71.5 612.5,-71.5 612.5,-90.5"/>
<text text-anchor="middle" x="557.5" y="-78.5" font-family="Helvetica,sans-Serif" font-size="10.00">fuzz/fuzz_helpers.h</text>
</a>
</g>
</g>
<!-- Node1&#45;&gt;Node2 -->
<g id="edge1_Node000001_Node000002" class="edge">
<title>Node1&#45;&gt;Node2</title>
<g id="a_edge1_Node000001_Node000002"><a xlink:title=" ">
<path fill="none" stroke="#63b8ff" d="M1944.04,-136.95C1668.08,-126.02 835.33,-93.01 612.72,-84.19"/>
<polygon fill="#63b8ff" stroke="#63b8ff" points="1944.27,-140.47 1954.4,-137.37 1944.55,-133.47 1944.27,-140.47"/>
</a>
</g>
</g>
<!-- Node11 -->
<g id="Node000011" class="node">
<title>Node11</title>
<g id="a_Node000011"><a xlink:href="abi__arm64_8c.html" target="_top" xlink:title="Implements the FFI logic for the AArch64 (ARM64) architecture.">
<polygon fill="white" stroke="#666666" points="1164,-30 1049,-30 1049,0 1164,0 1164,-30"/>
<text text-anchor="start" x="1057" y="-18" font-family="Helvetica,sans-Serif" font-size="10.00">src/arch/aarch64/abi</text>
<text text-anchor="middle" x="1106.5" y="-7" font-family="Helvetica,sans-Serif" font-size="10.00">_arm64.c</text>
</a>
</g>
</g>
<!-- Node1&#45;&gt;Node11 -->
<g id="edge10_Node000001_Node000011" class="edge">
<title>Node1&#45;&gt;Node11</title>
<g id="a_edge10_Node000001_Node000011"><a xlink:title=" ">
<path fill="none" stroke="#63b8ff" d="M1944.02,-139.93C1737.49,-138.05 1240.05,-130 1172.5,-96 1144.03,-81.67 1123.38,-48.91 1113.34,-30.06"/>
<polygon fill="#63b8ff" stroke="#63b8ff" points="1944.19,-143.44 1954.22,-140.02 1944.25,-136.44 1944.19,-143.44"/>
</a>
</g>
</g>
<!-- Node12 -->
<g id="Node000012" class="node">
<title>Node12</title>
<g id="a_Node000012"><a xlink:href="abi__arm64__emitters_8h.html" target="_top" xlink:title="Declares internal helper functions for emitting AArch64 machine code.">
<polygon fill="white" stroke="#666666" points="1297,-96 1182,-96 1182,-66 1297,-66 1297,-96"/>
<text text-anchor="start" x="1190" y="-84" font-family="Helvetica,sans-Serif" font-size="10.00">src/arch/aarch64/abi</text>
<text text-anchor="middle" x="1239.5" y="-73" font-family="Helvetica,sans-Serif" font-size="10.00">_arm64_emitters.h</text>
</a>
</g>
</g>
<!-- Node1&#45;&gt;Node12 -->
<g id="edge11_Node000001_Node000012" class="edge">
<title>Node1&#45;&gt;Node12</title>
<g id="a_edge11_Node000001_Node000012"><a xlink:title=" ">
<path fill="none" stroke="#63b8ff" d="M1944.29,-137.08C1811.54,-131.47 1554.25,-118.63 1336.5,-96 1323.72,-94.67 1310.04,-92.91 1297.11,-91.08"/>
<polygon fill="#63b8ff" stroke="#63b8ff" points="1944.27,-140.58 1954.41,-137.5 1944.57,-133.59 1944.27,-140.58"/>
</a>
</g>
</g>
<!-- Node14 -->
<g id="Node000014" class="node">
<title>Node14</title>
<g id="a_Node000014"><a xlink:href="abi__sysv__x64_8c.html" target="_top" xlink:title="Implements the FFI logic for the System V AMD64 ABI.">
<polygon fill="white" stroke="#666666" points="1437.5,-30 1315.5,-30 1315.5,0 1437.5,0 1437.5,-30"/>
<text text-anchor="start" x="1323.5" y="-18" font-family="Helvetica,sans-Serif" font-size="10.00">src/arch/x64/abi_sysv</text>
<text text-anchor="middle" x="1376.5" y="-7" font-family="Helvetica,sans-Serif" font-size="10.00">_x64.c</text>
</a>
</g>
</g>
<!-- Node1&#45;&gt;Node14 -->
<g id="edge14_Node000001_Node000014" class="edge">
<title>Node1&#45;&gt;Node14</title>
<g id="a_edge14_Node000001_Node000014"><a xlink:title=" ">
<path fill="none" stroke="#63b8ff" d="M1944.24,-141.13C1772.15,-141.41 1407.92,-137.08 1369.5,-96 1353.02,-78.38 1362.01,-48.04 1369.57,-30.22"/>
<polygon fill="#63b8ff" stroke="#63b8ff" points="1944.3,-144.63 1954.3,-141.11 1944.29,-137.63 1944.3,-144.63"/>
</a>
</g>
</g>
<!-- Node15 -->
<g id="Node000015" class="node">
<title>Node15</title>
<g id="a_Node000015"><a xlink:href="abi__win__x64_8c.html" target="_top" xlink:title="Implements the FFI logic for the Windows x64 calling convention.">
<polygon fill="white" stroke="#666666" points="1707.5,-30 1591.5,-30 1591.5,0 1707.5,0 1707.5,-30"/>
<text text-anchor="start" x="1599.5" y="-18" font-family="Helvetica,sans-Serif" font-size="10.00">src/arch/x64/abi_win</text>
<text text-anchor="middle" x="1649.5" y="-7" font-family="Helvetica,sans-Serif" font-size="10.00">_x64.c</text>
</a>
</g>
</g>
<!-- Node1&#45;&gt;Node15 -->
<g id="edge15_Node000001_Node000015" class="edge">
<title>Node1&#45;&gt;Node15</title>
<g id="a_edge15_Node000001_Node000015"><a xlink:title=" ">
<path fill="none" stroke="#63b8ff" d="M1944.15,-138.77C1810.15,-135.25 1569.92,-124.93 1543.5,-96 1518.78,-68.93 1565.66,-44.63 1604.73,-30.09"/>
<polygon fill="#63b8ff" stroke="#63b8ff" points="1944.32,-142.28 1954.4,-139.04 1944.5,-135.28 1944.32,-142.28"/>
</a>
</g>
</g>
<!-- Node16 -->
<g id="Node000016" class="node">
<title>Node16</title>
<g id="a_Node000016"><a xlink:href="abi__x64__emitters_8h.html" target="_top" xlink:title="Declares internal helper functions for emitting x86&#45;64 machine code.">
<polygon fill="white" stroke="#666666" points="1496,-96 1379,-96 1379,-66 1496,-66 1496,-96"/>
<text text-anchor="start" x="1387" y="-84" font-family="Helvetica,sans-Serif" font-size="10.00">src/arch/x64/abi_x64</text>
<text text-anchor="middle" x="1437.5" y="-73" font-family="Helvetica,sans-Serif" font-size="10.00">_emitters.h</text>
</a>
</g>
</g>
<!-- Node1&#45;&gt;Node16 -->
<g id="edge16_Node000001_Node000016" class="edge">
<title>Node1&#45;&gt;Node16</title>
<g id="a_edge16_Node000001_Node000016"><a xlink:title=" ">
<path fill="none" stroke="#63b8ff" d="M1944.18,-135.75C1839.81,-129.54 1662.07,-116.92 1510.5,-96 1505.9,-95.36 1501.15,-94.63 1496.38,-93.84"/>
<polygon fill="#63b8ff" stroke="#63b8ff" points="1944.17,-139.26 1954.36,-136.35 1944.58,-132.27 1944.17,-139.26"/>
</a>
</g>
</g>
<!-- Node18 -->
<g id="Node000018" class="node">
<title>Node18</title>
<g id="a_Node000018"><a xlink:href="arena_8c.html" target="_top" xlink:title="Implements a simple, fast arena (or region&#45;based) allocator.">
<polygon fill="white" stroke="#666666" points="2497.5,-90.5 2403.5,-90.5 2403.5,-71.5 2497.5,-71.5 2497.5,-90.5"/>
<text text-anchor="middle" x="2450.5" y="-78.5" font-family="Helvetica,sans-Serif" font-size="10.00">src/core/arena.c</text>
</a>
</g>
</g>
<!-- Node1&#45;&gt;Node18 -->
<g id="edge20_Node000001_Node000018" class="edge">
<title>Node1&#45;&gt;Node18</title>
<g id="a_edge20_Node000001_Node000018"><a xlink:title=" ">
<path fill="none" stroke="#63b8ff" d="M2122.92,-132.55C2196.26,-125.29 2302.59,-113.09 2394.5,-96 2402.58,-94.5 2411.23,-92.52 2419.25,-90.53"/>
<polygon fill="#63b8ff" stroke="#63b8ff" points="2122.41,-129.08 2112.8,-133.54 2123.09,-136.05 2122.41,-129.08"/>
</a>
</g>
</g>
<!-- Node20 -->
<g id="Node000020" class="node">
<title>Node20</title>
<g id="a_Node000020"><a xlink:href="cache_8c.html" target="_top" xlink:title="Implements trampoline deduplication and caching.">
<polygon fill="white" stroke="#666666" points="2611,-90.5 2516,-90.5 2516,-71.5 2611,-71.5 2611,-90.5"/>
<text text-anchor="middle" x="2563.5" y="-78.5" font-family="Helvetica,sans-Serif" font-size="10.00">src/core/cache.c</text>
</a>
</g>
</g>
<!-- Node1&#45;&gt;Node20 -->
<g id="edge22_Node000001_Node000020" class="edge">
<title>Node1&#45;&gt;Node20</title>
<g id="a_edge22_Node000001_Node000020"><a xlink:title=" ">
<path fill="none" stroke="#63b8ff" d="M2122.83,-136.02C2218.31,-130.32 2373.89,-118.4 2506.5,-96 2514.94,-94.57 2523.98,-92.58 2532.31,-90.54"/>
<polygon fill="#63b8ff" stroke="#63b8ff" points="2122.41,-132.54 2112.63,-136.62 2122.82,-139.53 2122.41,-132.54"/>
</a>
</g>
</g>
<!-- Node21 -->
<g id="Node000021" class="node">
<title>Node21</title>
<g id="a_Node000021"><a xlink:href="error_8c.html" target="_top" xlink:title="Implements the thread&#45;local error reporting system.">
<polygon fill="white" stroke="#666666" points="1642,-90.5 1553,-90.5 1553,-71.5 1642,-71.5 1642,-90.5"/>
<text text-anchor="middle" x="1597.5" y="-78.5" font-family="Helvetica,sans-Serif" font-size="10.00">src/core/error.c</text>
</a>
</g>
</g>
<!-- Node1&#45;&gt;Node21 -->
<g id="edge24_Node000001_Node000021" class="edge">
<title>Node1&#45;&gt;Node21</title>
<g id="a_edge24_Node000001_Node000021"><a xlink:title=" ">
<path fill="none" stroke="#63b8ff" d="M1944.14,-133.59C1866.39,-126.75 1750.9,-114.58 1651.5,-96 1643.6,-94.52 1635.14,-92.53 1627.33,-90.52"/>
<polygon fill="#63b8ff" stroke="#63b8ff" points="1944.11,-137.11 1954.38,-134.48 1944.72,-130.13 1944.11,-137.11"/>
</a>
</g>
</g>
<!-- Node22 -->
<g id="Node000022" class="node">
<title>Node22</title>
<g id="a_Node000022"><a xlink:href="loader_8c.html" target="_top" xlink:title="Implements cross&#45;platform dynamic library loading.">
<polygon fill="white" stroke="#666666" points="1756.5,-90.5 1660.5,-90.5 1660.5,-71.5 1756.5,-71.5 1756.5,-90.5"/>
<text text-anchor="middle" x="1708.5" y="-78.5" font-family="Helvetica,sans-Serif" font-size="10.00">src/core/loader.c</text>
</a>
</g>
</g>
<!-- Node1&#45;&gt;Node22 -->
<g id="edge26_Node000001_Node000022" class="edge">
<title>Node1&#45;&gt;Node22</title>
<g id="a_edge26_Node000001_Node000022"><a xlink:title=" ">
<path fill="none" stroke="#63b8ff" d="M1963.98,-130.45C1909.73,-122.24 1832.56,-109.78 1765.5,-96 1757.71,-94.4 1749.38,-92.48 1741.56,-90.57"/>
<polygon fill="#63b8ff" stroke="#63b8ff" points="1963.77,-133.95 1974.18,-131.98 1964.81,-127.03 1963.77,-133.95"/>
</a>
</g>
</g>
<!-- Node23 -->
<g id="Node000023" class="node">
<title>Node23</title>
<g id="a_Node000023"><a xlink:href="signature_8c.html" target="_top" xlink:title="Implements the infix signature string parser and type printer.">
<polygon fill="white" stroke="#666666" points="1886.5,-90.5 1774.5,-90.5 1774.5,-71.5 1886.5,-71.5 1886.5,-90.5"/>
<text text-anchor="middle" x="1830.5" y="-78.5" font-family="Helvetica,sans-Serif" font-size="10.00">src/core/signature.c</text>
</a>
</g>
</g>
<!-- Node1&#45;&gt;Node23 -->
<g id="edge28_Node000001_Node000023" class="edge">
<title>Node1&#45;&gt;Node23</title>
<g id="a_edge28_Node000001_Node000023"><a xlink:title=" ">
<path fill="none" stroke="#63b8ff" d="M1994.22,-129.18C1954.96,-117.87 1895.48,-100.72 1860.05,-90.52"/>
<polygon fill="#63b8ff" stroke="#63b8ff" points="1993.4,-132.59 2003.98,-131.99 1995.34,-125.86 1993.4,-132.59"/>
</a>
</g>
</g>
<!-- Node24 -->
<g id="Node000024" class="node">
<title>Node24</title>
<g id="a_Node000024"><a xlink:href="type__registry_8c.html" target="_top" xlink:title="Implements the named type registry system.">
<polygon fill="white" stroke="#666666" points="2034,-90.5 1905,-90.5 1905,-71.5 2034,-71.5 2034,-90.5"/>
<text text-anchor="middle" x="1969.5" y="-78.5" font-family="Helvetica,sans-Serif" font-size="10.00">src/core/type_registry.c</text>
</a>
</g>
</g>
<!-- Node1&#45;&gt;Node24 -->
<g id="edge30_Node000001_Node000024" class="edge">
<title>Node1&#45;&gt;Node24</title>
<g id="a_edge30_Node000001_Node000024"><a xlink:title=" ">
<path fill="none" stroke="#63b8ff" d="M2016.44,-124.91C2004.44,-113.94 1988.83,-99.67 1978.98,-90.67"/>
<polygon fill="#63b8ff" stroke="#63b8ff" points="2014.31,-127.7 2024.06,-131.87 2019.04,-122.54 2014.31,-127.7"/>
</a>
</g>
</g>
<!-- Node25 -->
<g id="Node000025" class="node">
<title>Node25</title>
<g id="a_Node000025"><a xlink:href="types_8c.html" target="_top" xlink:title="Implements the public API for creating and managing type descriptions.">
<polygon fill="white" stroke="#666666" points="2145,-90.5 2052,-90.5 2052,-71.5 2145,-71.5 2145,-90.5"/>
<text text-anchor="middle" x="2098.5" y="-78.5" font-family="Helvetica,sans-Serif" font-size="10.00">src/core/types.c</text>
</a>
</g>
</g>
<!-- Node1&#45;&gt;Node25 -->
<g id="edge32_Node000001_Node000025" class="edge">
<title>Node1&#45;&gt;Node25</title>
<g id="a_edge32_Node000001_Node000025"><a xlink:title=" ">
<path fill="none" stroke="#63b8ff" d="M2050.82,-124.91C2063.01,-113.94 2078.87,-99.67 2088.87,-90.67"/>
<polygon fill="#63b8ff" stroke="#63b8ff" points="2048.18,-122.58 2043.09,-131.87 2052.87,-127.78 2048.18,-122.58"/>
</a>
</g>
</g>
<!-- Node26 -->
<g id="Node000026" class="node">
<title>Node26</title>
<g id="a_Node000026"><a xlink:href="executor_8c.html" target="_top" xlink:title="Implements platform&#45;specific memory management for JIT code and execution.">
<polygon fill="white" stroke="#666666" points="2259.5,-90.5 2163.5,-90.5 2163.5,-71.5 2259.5,-71.5 2259.5,-90.5"/>
<text text-anchor="middle" x="2211.5" y="-78.5" font-family="Helvetica,sans-Serif" font-size="10.00">src/jit/executor.c</text>
</a>
</g>
</g>
<!-- Node1&#45;&gt;Node26 -->
<g id="edge34_Node000001_Node000026" class="edge">
<title>Node1&#45;&gt;Node26</title>
<g id="a_edge34_Node000001_Node000026"><a xlink:title=" ">
<path fill="none" stroke="#63b8ff" d="M2069.05,-128.82C2103.48,-117.5 2154.86,-100.62 2185.59,-90.52"/>
<polygon fill="#63b8ff" stroke="#63b8ff" points="2067.79,-125.55 2059.38,-131.99 2069.98,-132.2 2067.79,-125.55"/>
</a>
</g>
</g>
<!-- Node27 -->
<g id="Node000027" class="node">
<title>Node27</title>
<g id="a_Node000027"><a xlink:href="trampoline_8c.html" target="_top" xlink:title="The core JIT engine for generating forward and reverse trampolines.">
<polygon fill="white" stroke="#666666" points="2385.5,-90.5 2277.5,-90.5 2277.5,-71.5 2385.5,-71.5 2385.5,-90.5"/>
<text text-anchor="middle" x="2331.5" y="-78.5" font-family="Helvetica,sans-Serif" font-size="10.00">src/jit/trampoline.c</text>
</a>
</g>
</g>
<!-- Node1&#45;&gt;Node27 -->
<g id="edge36_Node000001_Node000027" class="edge">
<title>Node1&#45;&gt;Node27</title>
<g id="a_edge36_Node000001_Node000027"><a xlink:title=" ">
<path fill="none" stroke="#63b8ff" d="M2090.97,-130.14C2138.61,-121.43 2208.06,-108.43 2268.5,-96 2276.73,-94.31 2285.55,-92.4 2293.9,-90.56"/>
<polygon fill="#63b8ff" stroke="#63b8ff" points="2090.06,-126.75 2080.85,-131.99 2091.31,-133.63 2090.06,-126.75"/>
</a>
</g>
</g>
<!-- Node28 -->
<g id="Node000028" class="node">
<title>Node28</title>
<g id="a_Node000028"><a xlink:href="008__registry__introspection_8c.html" target="_top" xlink:title="Unit test for the registry introspection and serialization APIs.">
<polygon fill="white" stroke="#666666" points="2790,-90.5 2629,-90.5 2629,-71.5 2790,-71.5 2790,-90.5"/>
<text text-anchor="middle" x="2709.5" y="-78.5" font-family="Helvetica,sans-Serif" font-size="10.00">t/008_registry_introspection.c</text>
</a>
</g>
</g>
<!-- Node1&#45;&gt;Node28 -->
<g id="edge38_Node000001_Node000028" class="edge">
<title>Node1&#45;&gt;Node28</title>
<g id="a_edge38_Node000001_Node000028"><a xlink:title=" ">
<path fill="none" stroke="#63b8ff" d="M2123.16,-135.95C2238.48,-129.58 2444.85,-116.44 2620.5,-96 2633.24,-94.52 2646.95,-92.55 2659.7,-90.56"/>
<polygon fill="#63b8ff" stroke="#63b8ff" points="2122.77,-132.46 2112.97,-136.51 2123.15,-139.45 2122.77,-132.46"/>
</a>
</g>
</g>
<!-- Node29 -->
<g id="Node000029" class="node">
<title>Node29</title>
<g id="a_Node000029"><a xlink:href="101__by__value_8c.html" target="_top" xlink:title="Unit test for passing and returning aggregates and vectors by value.">
<polygon fill="white" stroke="#666666" points="2907,-90.5 2808,-90.5 2808,-71.5 2907,-71.5 2907,-90.5"/>
<text text-anchor="middle" x="2857.5" y="-78.5" font-family="Helvetica,sans-Serif" font-size="10.00">t/101_by_value.c</text>
</a>
</g>
</g>
<!-- Node1&#45;&gt;Node29 -->
<g id="edge39_Node000001_Node000029" class="edge">
<title>Node1&#45;&gt;Node29</title>
<g id="a_edge39_Node000001_Node000029"><a xlink:title=" ">
<path fill="none" stroke="#63b8ff" d="M2122.61,-140.47C2265.99,-139.28 2556.46,-132.1 2799.5,-96 2808.41,-94.68 2817.97,-92.64 2826.7,-90.52"/>
<polygon fill="#63b8ff" stroke="#63b8ff" points="2122.52,-136.97 2112.54,-140.55 2122.57,-143.97 2122.52,-136.97"/>
</a>
</g>
</g>
<!-- Node30 -->
<g id="Node000030" class="node">
<title>Node30</title>
<g id="a_Node000030"><a xlink:href="501__direct__marshalling_8c.html" target="_top" xlink:title="Test suite for the high&#45;performance direct marshalling API.">
<polygon fill="white" stroke="#666666" points="3071.5,-90.5 2925.5,-90.5 2925.5,-71.5 3071.5,-71.5 3071.5,-90.5"/>
<text text-anchor="middle" x="2998.5" y="-78.5" font-family="Helvetica,sans-Serif" font-size="10.00">t/501_direct_marshalling.c</text>
</a>
</g>
</g>
<!-- Node1&#45;&gt;Node30 -->
<g id="edge40_Node000001_Node000030" class="edge">
<title>Node1&#45;&gt;Node30</title>
<g id="a_edge40_Node000001_Node000030"><a xlink:title=" ">
<path fill="none" stroke="#63b8ff" d="M2122.85,-139.5C2282.58,-136.93 2627.43,-127.85 2916.5,-96 2928.85,-94.64 2942.15,-92.61 2954.38,-90.52"/>
<polygon fill="#63b8ff" stroke="#63b8ff" points="2122.55,-136 2112.6,-139.66 2122.66,-143 2122.55,-136"/>
</a>
</g>
</g>
<!-- Node31 -->
<g id="Node000031" class="node">
<title>Node31</title>
<g id="a_Node000031"><a xlink:href="830__security_8c.html" target="_top" xlink:title="Unit test for security&#45;hardening features of the infix library.">
<polygon fill="white" stroke="#666666" points="3181.5,-90.5 3089.5,-90.5 3089.5,-71.5 3181.5,-71.5 3181.5,-90.5"/>
<text text-anchor="middle" x="3135.5" y="-78.5" font-family="Helvetica,sans-Serif" font-size="10.00">t/830_security.c</text>
</a>
</g>
</g>
<!-- Node1&#45;&gt;Node31 -->
<g id="edge41_Node000001_Node000031" class="edge">
<title>Node1&#45;&gt;Node31</title>
<g id="a_edge41_Node000001_Node000031"><a xlink:title=" ">
<path fill="none" stroke="#63b8ff" d="M2122.78,-139.08C2340.99,-135.22 2896.89,-122.97 3080.5,-96 3089.08,-94.74 3098.26,-92.69 3106.61,-90.55"/>
<polygon fill="#63b8ff" stroke="#63b8ff" points="2122.59,-135.58 2112.65,-139.25 2122.71,-142.58 2122.59,-135.58"/>
</a>
</g>
</g>
<!-- Node32 -->
<g id="Node000032" class="node">
<title>Node32</title>
<g id="a_Node000032"><a xlink:href="840__arena__allocator_8c.html" target="_top" xlink:title="Unit test for the internal arena allocator.">
<polygon fill="white" stroke="#666666" points="3329.5,-90.5 3199.5,-90.5 3199.5,-71.5 3329.5,-71.5 3329.5,-90.5"/>
<text text-anchor="middle" x="3264.5" y="-78.5" font-family="Helvetica,sans-Serif" font-size="10.00">t/840_arena_allocator.c</text>
</a>
</g>
</g>
<!-- Node1&#45;&gt;Node32 -->
<g id="edge42_Node000001_Node000032" class="edge">
<title>Node1&#45;&gt;Node32</title>
<g id="a_edge42_Node000001_Node000032"><a xlink:title=" ">
<path fill="none" stroke="#63b8ff" d="M2122.81,-138.78C2356.84,-134.01 2984.09,-119.36 3190.5,-96 3201.93,-94.71 3214.25,-92.65 3225.49,-90.5"/>
<polygon fill="#63b8ff" stroke="#63b8ff" points="2122.56,-135.29 2112.63,-138.99 2122.7,-142.29 2122.56,-135.29"/>
</a>
</g>
</g>
<!-- Node3 -->
<g id="Node000003" class="node">
<title>Node3</title>
<g id="a_Node000003"><a xlink:href="fuzz__abi_8c.html" target="_top" xlink:title="Fuzzer target for the ABI classification layer.">
<polygon fill="white" stroke="#666666" points="365,-24.5 276,-24.5 276,-5.5 365,-5.5 365,-24.5"/>
<text text-anchor="middle" x="320.5" y="-12.5" font-family="Helvetica,sans-Serif" font-size="10.00">fuzz/fuzz_abi.c</text>
</a>
</g>
</g>
<!-- Node2&#45;&gt;Node3 -->
<g id="edge2_Node000002_Node000003" class="edge">
<title>Node2&#45;&gt;Node3</title>
<g id="a_edge2_Node000002_Node000003"><a xlink:title=" ">
<path fill="none" stroke="#63b8ff" d="M515.74,-68.72C469.07,-56.12 394.53,-35.99 352.33,-24.6"/>
<polygon fill="#63b8ff" stroke="#63b8ff" points="514.97,-72.14 525.54,-71.37 516.8,-65.38 514.97,-72.14"/>
</a>
</g>
</g>
<!-- Node4 -->
<g id="Node000004" class="node">
<title>Node4</title>
<g id="a_Node000004"><a xlink:href="fuzz__direct_8c.html" target="_top" xlink:title="Fuzzer target for the Direct Marshalling API generation logic.">
<polygon fill="white" stroke="#666666" points="484,-24.5 383,-24.5 383,-5.5 484,-5.5 484,-24.5"/>
<text text-anchor="middle" x="433.5" y="-12.5" font-family="Helvetica,sans-Serif" font-size="10.00">fuzz/fuzz_direct.c</text>
</a>
</g>
</g>
<!-- Node2&#45;&gt;Node4 -->
<g id="edge3_Node000002_Node000004" class="edge">
<title>Node2&#45;&gt;Node4</title>
<g id="a_edge3_Node000002_Node000004"><a xlink:title=" ">
<path fill="none" stroke="#63b8ff" d="M531.72,-66.69C507.29,-54.09 471.31,-35.51 450.35,-24.7"/>
<polygon fill="#63b8ff" stroke="#63b8ff" points="530.29,-69.89 540.78,-71.37 533.5,-63.67 530.29,-69.89"/>
</a>
</g>
</g>
<!-- Node5 -->
<g id="Node000005" class="node">
<title>Node5</title>
<g id="a_Node000005"><a xlink:href="fuzz__helpers_8c.html" target="_top" xlink:title="Implements the core logic for generating random infix_type graphs from fuzzer input.">
<polygon fill="white" stroke="#666666" points="612.5,-24.5 502.5,-24.5 502.5,-5.5 612.5,-5.5 612.5,-24.5"/>
<text text-anchor="middle" x="557.5" y="-12.5" font-family="Helvetica,sans-Serif" font-size="10.00">fuzz/fuzz_helpers.c</text>
</a>
</g>
</g>
<!-- Node2&#45;&gt;Node5 -->
<g id="edge4_Node000002_Node000005" class="edge">
<title>Node2&#45;&gt;Node5</title>
<g id="a_edge4_Node000002_Node000005"><a xlink:title=" ">
<path fill="none" stroke="#63b8ff" d="M557.5,-61.08C557.5,-49.13 557.5,-34.22 557.5,-24.91"/>
<polygon fill="#63b8ff" stroke="#63b8ff" points="554,-61.37 557.5,-71.37 561,-61.37 554,-61.37"/>
</a>
</g>
</g>
<!-- Node6 -->
<g id="Node000006" class="node">
<title>Node6</title>
<g id="a_Node000006"><a xlink:href="fuzz__roundtrip_8c.html" target="_top" xlink:title="Fuzzer target for Type &#45;&gt; String &#45;&gt; Type round&#45;trip consistency.">
<polygon fill="white" stroke="#666666" points="748.5,-24.5 630.5,-24.5 630.5,-5.5 748.5,-5.5 748.5,-24.5"/>
<text text-anchor="middle" x="689.5" y="-12.5" font-family="Helvetica,sans-Serif" font-size="10.00">fuzz/fuzz_roundtrip.c</text>
</a>
</g>
</g>
<!-- Node2&#45;&gt;Node6 -->
<g id="edge5_Node000002_Node000006" class="edge">
<title>Node2&#45;&gt;Node6</title>
<g id="a_edge5_Node000002_Node000006"><a xlink:title=" ">
<path fill="none" stroke="#63b8ff" d="M584.6,-66.86C610.61,-54.25 649.15,-35.56 671.56,-24.7"/>
<polygon fill="#63b8ff" stroke="#63b8ff" points="582.77,-63.86 575.3,-71.37 585.83,-70.16 582.77,-63.86"/>
</a>
</g>
</g>
<!-- Node7 -->
<g id="Node000007" class="node">
<title>Node7</title>
<g id="a_Node000007"><a xlink:href="fuzz__signature_8c.html" target="_top" xlink:title="Fuzzer target for the high&#45;level signature parsing API.">
<polygon fill="white" stroke="#666666" points="886,-24.5 767,-24.5 767,-5.5 886,-5.5 886,-24.5"/>
<text text-anchor="middle" x="826.5" y="-12.5" font-family="Helvetica,sans-Serif" font-size="10.00">fuzz/fuzz_signature.c</text>
</a>
</g>
</g>
<!-- Node2&#45;&gt;Node7 -->
<g id="edge6_Node000002_Node000007" class="edge">
<title>Node2&#45;&gt;Node7</title>
<g id="a_edge6_Node000002_Node000007"><a xlink:title=" ">
<path fill="none" stroke="#63b8ff" d="M603.31,-69.1C656.3,-56.49 742.41,-36.01 790.71,-24.51"/>
<polygon fill="#63b8ff" stroke="#63b8ff" points="602.42,-65.72 593.5,-71.44 604.04,-72.53 602.42,-65.72"/>
</a>
</g>
</g>
<!-- Node8 -->
<g id="Node000008" class="node">
<title>Node8</title>
<g id="a_Node000008"><a xlink:href="fuzz__trampoline_8c.html" target="_top" xlink:title="Fuzzer target for the trampoline generation functions, including shared arena logic.">
<polygon fill="white" stroke="#666666" points="1031,-24.5 904,-24.5 904,-5.5 1031,-5.5 1031,-24.5"/>
<text text-anchor="middle" x="967.5" y="-12.5" font-family="Helvetica,sans-Serif" font-size="10.00">fuzz/fuzz_trampoline.c</text>
</a>
</g>
</g>
<!-- Node2&#45;&gt;Node8 -->
<g id="edge7_Node000002_Node000008" class="edge">
<title>Node2&#45;&gt;Node8</title>
<g id="a_edge7_Node000002_Node000008"><a xlink:title=" ">
<path fill="none" stroke="#63b8ff" d="M622.91,-71.13C690.91,-61.71 800.35,-46.01 894.5,-30 904.3,-28.33 914.8,-26.4 924.71,-24.52"/>
<polygon fill="#63b8ff" stroke="#63b8ff" points="622.2,-67.69 612.78,-72.53 623.16,-74.63 622.2,-67.69"/>
</a>
</g>
</g>
<!-- Node9 -->
<g id="Node000009" class="node">
<title>Node9</title>
<g id="a_Node000009"><a xlink:href="fuzz__types_8c.html" target="_top" xlink:title="Fuzzer target for the random type generation logic.">
<polygon fill="white" stroke="#666666" points="101,-24.5 0,-24.5 0,-5.5 101,-5.5 101,-24.5"/>
<text text-anchor="middle" x="50.5" y="-12.5" font-family="Helvetica,sans-Serif" font-size="10.00">fuzz/fuzz_types.c</text>
</a>
</g>
</g>
<!-- Node2&#45;&gt;Node9 -->
<g id="edge8_Node000002_Node000009" class="edge">
<title>Node2&#45;&gt;Node9</title>
<g id="a_edge8_Node000002_Node000009"><a xlink:title=" ">
<path fill="none" stroke="#63b8ff" d="M492.32,-75.23C404.8,-68.26 244.67,-53.49 109.5,-30 100.99,-28.52 91.89,-26.55 83.43,-24.56"/>
<polygon fill="#63b8ff" stroke="#63b8ff" points="492.12,-78.73 502.37,-76.02 492.67,-71.75 492.12,-78.73"/>
</a>
</g>
</g>
<!-- Node10 -->
<g id="Node000010" class="node">
<title>Node10</title>
<g id="a_Node000010"><a xlink:href="850__regression__cases_8c.html" target="_top" xlink:title="A suite of regression tests for bugs discovered by fuzzing.">
<polygon fill="white" stroke="#666666" points="258,-24.5 119,-24.5 119,-5.5 258,-5.5 258,-24.5"/>
<text text-anchor="middle" x="188.5" y="-12.5" font-family="Helvetica,sans-Serif" font-size="10.00">t/850_regression_cases.c</text>
</a>
</g>
</g>
<!-- Node2&#45;&gt;Node10 -->
<g id="edge9_Node000002_Node000010" class="edge">
<title>Node2&#45;&gt;Node10</title>
<g id="a_edge9_Node000002_Node000010"><a xlink:title=" ">
<path fill="none" stroke="#63b8ff" d="M497.4,-69.81C438.54,-59.79 346.32,-44.02 266.5,-30 256.61,-28.26 246.02,-26.38 235.93,-24.57"/>
<polygon fill="#63b8ff" stroke="#63b8ff" points="496.83,-73.26 507.27,-71.49 498,-66.36 496.83,-73.26"/>
</a>
</g>
</g>
<!-- Node12&#45;&gt;Node11 -->
<g id="edge12_Node000012_Node000011" class="edge">
<title>Node12&#45;&gt;Node11</title>
<g id="a_edge12_Node000012_Node000011"><a xlink:title=" ">
<path fill="none" stroke="#63b8ff" d="M1201.08,-61.51C1180.22,-51.47 1154.83,-39.26 1135.62,-30.01"/>
<polygon fill="#63b8ff" stroke="#63b8ff" points="1199.78,-64.77 1210.31,-65.95 1202.82,-58.46 1199.78,-64.77"/>
</a>
</g>
</g>
<!-- Node13 -->
<g id="Node000013" class="node">
<title>Node13</title>
<g id="a_Node000013"><a xlink:href="abi__arm64__emitters_8c.html" target="_top" xlink:title="Implements internal helper functions for emitting AArch64 machine code.">
<polygon fill="white" stroke="#666666" points="1297,-30 1182,-30 1182,0 1297,0 1297,-30"/>
<text text-anchor="start" x="1190" y="-18" font-family="Helvetica,sans-Serif" font-size="10.00">src/arch/aarch64/abi</text>
<text text-anchor="middle" x="1239.5" y="-7" font-family="Helvetica,sans-Serif" font-size="10.00">_arm64_emitters.c</text>
</a>
</g>
</g>
<!-- Node12&#45;&gt;Node13 -->
<g id="edge13_Node000012_Node000013" class="edge">
<title>Node12&#45;&gt;Node13</title>
<g id="a_edge13_Node000012_Node000013"><a xlink:title=" ">
<path fill="none" stroke="#63b8ff" d="M1239.5,-55.54C1239.5,-46.96 1239.5,-37.61 1239.5,-30.16"/>
<polygon fill="#63b8ff" stroke="#63b8ff" points="1236,-55.8 1239.5,-65.8 1243,-55.8 1236,-55.8"/>
</a>
</g>
</g>
<!-- Node16&#45;&gt;Node14 -->
<g id="edge17_Node000016_Node000014" class="edge">
<title>Node16&#45;&gt;Node14</title>
<g id="a_edge17_Node000016_Node000014"><a xlink:title=" ">
<path fill="none" stroke="#63b8ff" d="M1416.88,-58.37C1408.01,-49.06 1397.89,-38.44 1390,-30.16"/>
<polygon fill="#63b8ff" stroke="#63b8ff" points="1414.53,-60.97 1423.96,-65.8 1419.6,-56.14 1414.53,-60.97"/>
</a>
</g>
</g>
<!-- Node16&#45;&gt;Node15 -->
<g id="edge18_Node000016_Node000015" class="edge">
<title>Node16&#45;&gt;Node15</title>
<g id="a_edge18_Node000016_Node000015"><a xlink:title=" ">
<path fill="none" stroke="#63b8ff" d="M1493.85,-62.99C1527.96,-52.69 1570.94,-39.72 1603.08,-30.01"/>
<polygon fill="#63b8ff" stroke="#63b8ff" points="1492.59,-59.71 1484.02,-65.95 1494.61,-66.42 1492.59,-59.71"/>
</a>
</g>
</g>
<!-- Node17 -->
<g id="Node000017" class="node">
<title>Node17</title>
<g id="a_Node000017"><a xlink:href="abi__x64__emitters_8c.html" target="_top" xlink:title="Implements internal helper functions for emitting x86&#45;64 machine code.">
<polygon fill="white" stroke="#666666" points="1573,-30 1456,-30 1456,0 1573,0 1573,-30"/>
<text text-anchor="start" x="1464" y="-18" font-family="Helvetica,sans-Serif" font-size="10.00">src/arch/x64/abi_x64</text>
<text text-anchor="middle" x="1514.5" y="-7" font-family="Helvetica,sans-Serif" font-size="10.00">_emitters.c</text>
</a>
</g>
</g>
<!-- Node16&#45;&gt;Node17 -->
<g id="edge19_Node000016_Node000017" class="edge">
<title>Node16&#45;&gt;Node17</title>
<g id="a_edge19_Node000016_Node000017"><a xlink:title=" ">
<path fill="none" stroke="#63b8ff" d="M1462.52,-59.2C1473.95,-49.7 1487.2,-38.69 1497.46,-30.16"/>
<polygon fill="#63b8ff" stroke="#63b8ff" points="1460.04,-56.71 1454.59,-65.8 1464.52,-62.1 1460.04,-56.71"/>
</a>
</g>
</g>
<!-- Node19 -->
<g id="Node000019" class="node">
<title>Node19</title>
<g id="a_Node000019"><a xlink:href="infix_8c.html" target="_top" xlink:title="The unity build source file for the infix library.">
<polygon fill="white" stroke="#666666" points="2130,-24.5 2067,-24.5 2067,-5.5 2130,-5.5 2130,-24.5"/>
<text text-anchor="middle" x="2098.5" y="-12.5" font-family="Helvetica,sans-Serif" font-size="10.00">src/infix.c</text>
</a>
</g>
</g>
<!-- Node18&#45;&gt;Node19 -->
<g id="edge21_Node000018_Node000019" class="edge">
<title>Node18&#45;&gt;Node19</title>
<g id="a_edge21_Node000018_Node000019"><a xlink:title=" ">
<path fill="none" stroke="#63b8ff" d="M2408.11,-69.03C2403.53,-67.96 2398.92,-66.93 2394.5,-66 2298.85,-46 2184.53,-28.47 2130.19,-20.53"/>
<polygon fill="#63b8ff" stroke="#63b8ff" points="2407.48,-72.48 2418.03,-71.43 2409.13,-65.68 2407.48,-72.48"/>
</a>
</g>
</g>
<!-- Node20&#45;&gt;Node19 -->
<g id="edge23_Node000020_Node000019" class="edge">
<title>Node20&#45;&gt;Node19</title>
<g id="a_edge23_Node000020_Node000019"><a xlink:title=" ">
<path fill="none" stroke="#63b8ff" d="M2521.9,-69.18C2516.73,-68.01 2511.51,-66.92 2506.5,-66 2367.34,-40.48 2199.03,-24.5 2130.18,-18.59"/>
<polygon fill="#63b8ff" stroke="#63b8ff" points="2521.15,-72.6 2531.69,-71.48 2522.75,-65.78 2521.15,-72.6"/>
</a>
</g>
</g>
<!-- Node21&#45;&gt;Node19 -->
<g id="edge25_Node000021_Node000019" class="edge">
<title>Node21&#45;&gt;Node19</title>
<g id="a_edge25_Node000021_Node000019"><a xlink:title=" ">
<path fill="none" stroke="#63b8ff" d="M1637.09,-69.05C1641.92,-67.92 1646.81,-66.87 1651.5,-66 1805.85,-37.51 1993.38,-22.93 2066.84,-17.99"/>
<polygon fill="#63b8ff" stroke="#63b8ff" points="1636.19,-65.67 1627.32,-71.46 1637.87,-72.46 1636.19,-65.67"/>
</a>
</g>
</g>
<!-- Node22&#45;&gt;Node19 -->
<g id="edge27_Node000022_Node000019" class="edge">
<title>Node22&#45;&gt;Node19</title>
<g id="a_edge27_Node000022_Node000019"><a xlink:title=" ">
<path fill="none" stroke="#63b8ff" d="M1750.89,-69.13C1755.8,-68.01 1760.75,-66.94 1765.5,-66 1875.33,-44.31 2007.18,-27.09 2066.65,-19.79"/>
<polygon fill="#63b8ff" stroke="#63b8ff" points="1749.87,-65.78 1740.94,-71.49 1751.48,-72.59 1749.87,-65.78"/>
</a>
</g>
</g>
<!-- Node23&#45;&gt;Node19 -->
<g id="edge29_Node000023_Node000019" class="edge">
<title>Node23&#45;&gt;Node19</title>
<g id="a_edge29_Node000023_Node000019"><a xlink:title=" ">
<path fill="none" stroke="#63b8ff" d="M1876.4,-69.04C1930.61,-56.09 2019.38,-34.89 2066.61,-23.62"/>
<polygon fill="#63b8ff" stroke="#63b8ff" points="1875.28,-65.71 1866.37,-71.44 1876.91,-72.52 1875.28,-65.71"/>
</a>
</g>
</g>
<!-- Node24&#45;&gt;Node19 -->
<g id="edge31_Node000024_Node000019" class="edge">
<title>Node24&#45;&gt;Node19</title>
<g id="a_edge31_Node000024_Node000019"><a xlink:title=" ">
<path fill="none" stroke="#63b8ff" d="M1995.98,-66.86C2021.4,-54.25 2059.07,-35.56 2080.97,-24.7"/>
<polygon fill="#63b8ff" stroke="#63b8ff" points="1994.3,-63.79 1986.9,-71.37 1997.41,-70.06 1994.3,-63.79"/>
</a>
</g>
</g>
<!-- Node25&#45;&gt;Node19 -->
<g id="edge33_Node000025_Node000019" class="edge">
<title>Node25&#45;&gt;Node19</title>
<g id="a_edge33_Node000025_Node000019"><a xlink:title=" ">
<path fill="none" stroke="#63b8ff" d="M2098.5,-61.08C2098.5,-49.13 2098.5,-34.22 2098.5,-24.91"/>
<polygon fill="#63b8ff" stroke="#63b8ff" points="2095,-61.37 2098.5,-71.37 2102,-61.37 2095,-61.37"/>
</a>
</g>
</g>
<!-- Node26&#45;&gt;Node19 -->
<g id="edge35_Node000026_Node000019" class="edge">
<title>Node26&#45;&gt;Node19</title>
<g id="a_edge35_Node000026_Node000019"><a xlink:title=" ">
<path fill="none" stroke="#63b8ff" d="M2187.41,-66.36C2165.17,-53.76 2132.79,-35.42 2113.86,-24.7"/>
<polygon fill="#63b8ff" stroke="#63b8ff" points="2185.83,-69.49 2196.26,-71.37 2189.28,-63.39 2185.83,-69.49"/>
</a>
</g>
</g>
<!-- Node27&#45;&gt;Node19 -->
<g id="edge37_Node000027_Node000019" class="edge">
<title>Node27&#45;&gt;Node19</title>
<g id="a_edge37_Node000027_Node000019"><a xlink:title=" ">
<path fill="none" stroke="#63b8ff" d="M2290.15,-68.64C2244.25,-56.03 2171.19,-35.97 2129.8,-24.6"/>
<polygon fill="#63b8ff" stroke="#63b8ff" points="2289.51,-72.09 2300.08,-71.37 2291.36,-65.34 2289.51,-72.09"/>
</a>
</g>
</g>
</g>
</svg>
