<?xml version="1.0" encoding="UTF-8" standalone="no"?>
<!DOCTYPE svg PUBLIC "-//W3C//DTD SVG 1.1//EN"
 "http://www.w3.org/Graphics/SVG/1.1/DTD/svg11.dtd">
<!-- Generated by graphviz version 2.43.0 (0)
 -->
<!-- Title: src/common/infix_internals.h Pages: 1 -->
<svg width="2419pt" height="159pt"
 viewBox="0.00 0.00 2419.00 159.00" xmlns="http://www.w3.org/2000/svg" xmlns:xlink="http://www.w3.org/1999/xlink">
<g id="graph0" class="graph" transform="scale(1 1) rotate(0) translate(4 155)">
<title>src/common/infix_internals.h</title>
<!-- Node1 -->
<g id="Node000001" class="node">
<title>Node1</title>
<g id="a_Node000001"><a xlink:title="Declarations for internal&#45;only functions, types, and constants.">
<polygon fill="#999999" stroke="#666666" points="1613,-151 1455,-151 1455,-132 1613,-132 1613,-151"/>
<text text-anchor="middle" x="1534" y="-139" font-family="Helvetica,sans-Serif" font-size="10.00">src/common/infix_internals.h</text>
</a>
</g>
</g>
<!-- Node2 -->
<g id="Node000002" class="node">
<title>Node2</title>
<g id="a_Node000002"><a xlink:href="fuzz__helpers_8h.html" target="_top" xlink:title="Shared helper functions and types for infix FFI fuzzing harnesses.">
<polygon fill="white" stroke="#666666" points="516,-90.5 406,-90.5 406,-71.5 516,-71.5 516,-90.5"/>
<text text-anchor="middle" x="461" y="-78.5" font-family="Helvetica,sans-Serif" font-size="10.00">fuzz/fuzz_helpers.h</text>
</a>
</g>
</g>
<!-- Node1&#45;&gt;Node2 -->
<g id="edge1_Node000001_Node000002" class="edge">
<title>Node1&#45;&gt;Node2</title>
<g id="a_edge1_Node000001_Node000002"><a xlink:title=" ">
<path fill="none" stroke="#63b8ff" d="M1444.37,-135.61C1229.51,-123.9 690.01,-94.49 516.02,-85"/>
<polygon fill="#63b8ff" stroke="#63b8ff" points="1444.49,-139.12 1454.66,-136.17 1444.87,-132.14 1444.49,-139.12"/>
</a>
</g>
</g>
<!-- Node9 -->
<g id="Node000009" class="node">
<title>Node9</title>
<g id="a_Node000009"><a xlink:href="abi__arm64_8c.html" target="_top" xlink:title="Implements the FFI logic for the AArch64 (ARM64) architecture.">
<polygon fill="white" stroke="#666666" points="908.5,-30 793.5,-30 793.5,0 908.5,0 908.5,-30"/>
<text text-anchor="start" x="801.5" y="-18" font-family="Helvetica,sans-Serif" font-size="10.00">src/arch/aarch64/abi</text>
<text text-anchor="middle" x="851" y="-7" font-family="Helvetica,sans-Serif" font-size="10.00">_arm64.c</text>
</a>
</g>
</g>
<!-- Node1&#45;&gt;Node9 -->
<g id="edge8_Node000001_Node000009" class="edge">
<title>Node1&#45;&gt;Node9</title>
<g id="a_edge8_Node000001_Node000009"><a xlink:title=" ">
<path fill="none" stroke="#63b8ff" d="M1444.43,-137.92C1284.61,-132.76 962.64,-119.56 917,-96 888.84,-81.46 868.2,-49.1 858.06,-30.3"/>
<polygon fill="#63b8ff" stroke="#63b8ff" points="1444.62,-141.43 1454.72,-138.25 1444.84,-134.43 1444.62,-141.43"/>
</a>
</g>
</g>
<!-- Node10 -->
<g id="Node000010" class="node">
<title>Node10</title>
<g id="a_Node000010"><a xlink:href="abi__arm64__emitters_8h.html" target="_top" xlink:title="Declares internal helper functions for emitting AArch64 machine code.">
<polygon fill="white" stroke="#666666" points="1041.5,-96 926.5,-96 926.5,-66 1041.5,-66 1041.5,-96"/>
<text text-anchor="start" x="934.5" y="-84" font-family="Helvetica,sans-Serif" font-size="10.00">src/arch/aarch64/abi</text>
<text text-anchor="middle" x="984" y="-73" font-family="Helvetica,sans-Serif" font-size="10.00">_arm64_emitters.h</text>
</a>
</g>
</g>
<!-- Node1&#45;&gt;Node10 -->
<g id="edge9_Node000001_Node000010" class="edge">
<title>Node1&#45;&gt;Node10</title>
<g id="a_edge9_Node000001_Node000010"><a xlink:title=" ">
<path fill="none" stroke="#63b8ff" d="M1444.86,-132.95C1353.41,-124.92 1207.09,-111.28 1081,-96 1068.25,-94.45 1054.58,-92.6 1041.65,-90.76"/>
<polygon fill="#63b8ff" stroke="#63b8ff" points="1444.64,-136.44 1454.91,-133.83 1445.25,-129.47 1444.64,-136.44"/>
</a>
</g>
</g>
<!-- Node12 -->
<g id="Node000012" class="node">
<title>Node12</title>
<g id="a_Node000012"><a xlink:href="abi__sysv__x64_8c.html" target="_top" xlink:title="Implements the FFI logic for the System V AMD64 ABI.">
<polygon fill="white" stroke="#666666" points="1182,-30 1060,-30 1060,0 1182,0 1182,-30"/>
<text text-anchor="start" x="1068" y="-18" font-family="Helvetica,sans-Serif" font-size="10.00">src/arch/x64/abi_sysv</text>
<text text-anchor="middle" x="1121" y="-7" font-family="Helvetica,sans-Serif" font-size="10.00">_x64.c</text>
</a>
</g>
</g>
<!-- Node1&#45;&gt;Node12 -->
<g id="edge12_Node000001_Node000012" class="edge">
<title>Node1&#45;&gt;Node12</title>
<g id="a_edge12_Node000001_Node000012"><a xlink:title=" ">
<path fill="none" stroke="#63b8ff" d="M1444.59,-137.28C1327.84,-132.14 1135.68,-120.1 1114,-96 1097.87,-78.07 1106.74,-47.84 1114.18,-30.12"/>
<polygon fill="#63b8ff" stroke="#63b8ff" points="1444.46,-140.78 1454.6,-137.71 1444.76,-133.78 1444.46,-140.78"/>
</a>
</g>
</g>
<!-- Node13 -->
<g id="Node000013" class="node">
<title>Node13</title>
<g id="a_Node000013"><a xlink:href="abi__win__x64_8c.html" target="_top" xlink:title="Implements the FFI logic for the Windows x64 calling convention.">
<polygon fill="white" stroke="#666666" points="1452,-30 1336,-30 1336,0 1452,0 1452,-30"/>
<text text-anchor="start" x="1344" y="-18" font-family="Helvetica,sans-Serif" font-size="10.00">src/arch/x64/abi_win</text>
<text text-anchor="middle" x="1394" y="-7" font-family="Helvetica,sans-Serif" font-size="10.00">_x64.c</text>
</a>
</g>
</g>
<!-- Node1&#45;&gt;Node13 -->
<g id="edge13_Node000001_Node000013" class="edge">
<title>Node1&#45;&gt;Node13</title>
<g id="a_edge13_Node000001_Node000013"><a xlink:title=" ">
<path fill="none" stroke="#63b8ff" d="M1444.51,-136.09C1382.61,-130.95 1307.93,-119.86 1288,-96 1264.72,-68.13 1310.21,-44.27 1348.66,-30.04"/>
<polygon fill="#63b8ff" stroke="#63b8ff" points="1444.47,-139.6 1454.71,-136.9 1445.02,-132.62 1444.47,-139.6"/>
</a>
</g>
</g>
<!-- Node14 -->
<g id="Node000014" class="node">
<title>Node14</title>
<g id="a_Node000014"><a xlink:href="abi__x64__emitters_8h.html" target="_top" xlink:title="Declares internal helper functions for emitting x86&#45;64 machine code.">
<polygon fill="white" stroke="#666666" points="1240.5,-96 1123.5,-96 1123.5,-66 1240.5,-66 1240.5,-96"/>
<text text-anchor="start" x="1131.5" y="-84" font-family="Helvetica,sans-Serif" font-size="10.00">src/arch/x64/abi_x64</text>
<text text-anchor="middle" x="1182" y="-73" font-family="Helvetica,sans-Serif" font-size="10.00">_emitters.h</text>
</a>
</g>
</g>
<!-- Node1&#45;&gt;Node14 -->
<g id="edge14_Node000001_Node000014" class="edge">
<title>Node1&#45;&gt;Node14</title>
<g id="a_edge14_Node000001_Node000014"><a xlink:title=" ">
<path fill="none" stroke="#63b8ff" d="M1467.38,-130.47C1410.79,-121.81 1327.46,-108.72 1255,-96 1250.3,-95.17 1245.43,-94.29 1240.54,-93.39"/>
<polygon fill="#63b8ff" stroke="#63b8ff" points="1466.86,-133.93 1477.27,-131.98 1467.91,-127.02 1466.86,-133.93"/>
</a>
</g>
</g>
<!-- Node16 -->
<g id="Node000016" class="node">
<title>Node16</title>
<g id="a_Node000016"><a xlink:href="arena_8c.html" target="_top" xlink:title="Implementation of the internal arena allocator.">
<polygon fill="white" stroke="#666666" points="2263,-90.5 2169,-90.5 2169,-71.5 2263,-71.5 2263,-90.5"/>
<text text-anchor="middle" x="2216" y="-78.5" font-family="Helvetica,sans-Serif" font-size="10.00">src/core/arena.c</text>
</a>
</g>
</g>
<!-- Node1&#45;&gt;Node16 -->
<g id="edge18_Node000001_Node000016" class="edge">
<title>Node1&#45;&gt;Node16</title>
<g id="a_edge18_Node000001_Node000016"><a xlink:title=" ">
<path fill="none" stroke="#63b8ff" d="M1623.1,-139.03C1745.01,-135.92 1970.31,-126.22 2160,-96 2168.51,-94.64 2177.62,-92.62 2185.97,-90.53"/>
<polygon fill="#63b8ff" stroke="#63b8ff" points="1622.98,-135.53 1613.07,-139.28 1623.15,-142.53 1622.98,-135.53"/>
</a>
</g>
</g>
<!-- Node18 -->
<g id="Node000018" class="node">
<title>Node18</title>
<g id="a_Node000018"><a xlink:href="840__arena__allocator_8c.html" target="_top" xlink:title="Unit tests for the internal arena allocator.">
<polygon fill="white" stroke="#666666" points="2319,-24.5 2189,-24.5 2189,-5.5 2319,-5.5 2319,-24.5"/>
<text text-anchor="middle" x="2254" y="-12.5" font-family="Helvetica,sans-Serif" font-size="10.00">t/840_arena_allocator.c</text>
</a>
</g>
</g>
<!-- Node1&#45;&gt;Node18 -->
<g id="edge36_Node000001_Node000018" class="edge">
<title>Node1&#45;&gt;Node18</title>
<g id="a_edge36_Node000001_Node000018"><a xlink:title=" ">
<path fill="none" stroke="#63b8ff" d="M1623.32,-138.35C1814.96,-133.29 2250.08,-119.28 2272,-96 2290.74,-76.1 2271.24,-41.05 2260.33,-24.77"/>
<polygon fill="#63b8ff" stroke="#63b8ff" points="1623.18,-134.85 1613.27,-138.61 1623.36,-141.85 1623.18,-134.85"/>
</a>
</g>
</g>
<!-- Node19 -->
<g id="Node000019" class="node">
<title>Node19</title>
<g id="a_Node000019"><a xlink:href="error_8c.html" target="_top" xlink:title="Implements the thread&#45;local error reporting system.">
<polygon fill="white" stroke="#666666" points="2025.5,-90.5 1936.5,-90.5 1936.5,-71.5 2025.5,-71.5 2025.5,-90.5"/>
<text text-anchor="middle" x="1981" y="-78.5" font-family="Helvetica,sans-Serif" font-size="10.00">src/core/error.c</text>
</a>
</g>
</g>
<!-- Node1&#45;&gt;Node19 -->
<g id="edge21_Node000001_Node000019" class="edge">
<title>Node1&#45;&gt;Node19</title>
<g id="a_edge21_Node000001_Node000019"><a xlink:title=" ">
<path fill="none" stroke="#63b8ff" d="M1623.44,-134.14C1703.66,-127.55 1824.35,-115.44 1928,-96 1935.76,-94.54 1944.06,-92.56 1951.74,-90.54"/>
<polygon fill="#63b8ff" stroke="#63b8ff" points="1623.05,-130.66 1613.37,-134.95 1623.62,-137.63 1623.05,-130.66"/>
</a>
</g>
</g>
<!-- Node20 -->
<g id="Node000020" class="node">
<title>Node20</title>
<g id="a_Node000020"><a xlink:href="executor_8c.html" target="_top" xlink:title="Implements OS&#45;level memory management and the internal callback dispatcher.">
<polygon fill="white" stroke="#666666" points="2150.5,-90.5 2043.5,-90.5 2043.5,-71.5 2150.5,-71.5 2150.5,-90.5"/>
<text text-anchor="middle" x="2097" y="-78.5" font-family="Helvetica,sans-Serif" font-size="10.00">src/core/executor.c</text>
</a>
</g>
</g>
<!-- Node1&#45;&gt;Node20 -->
<g id="edge23_Node000001_Node000020" class="edge">
<title>Node1&#45;&gt;Node20</title>
<g id="a_edge23_Node000001_Node000020"><a xlink:title=" ">
<path fill="none" stroke="#63b8ff" d="M1623.48,-136.16C1724.04,-130.45 1891.96,-118.4 2035,-96 2044.16,-94.57 2053.98,-92.57 2063.05,-90.53"/>
<polygon fill="#63b8ff" stroke="#63b8ff" points="1623.15,-132.68 1613.36,-136.73 1623.54,-139.66 1623.15,-132.68"/>
</a>
</g>
</g>
<!-- Node21 -->
<g id="Node000021" class="node">
<title>Node21</title>
<g id="a_Node000021"><a xlink:href="loader_8c.html" target="_top" xlink:title="Implements the cross&#45;platform dynamic library loading and symbol resolution API.">
<polygon fill="white" stroke="#666666" points="1393,-90.5 1297,-90.5 1297,-71.5 1393,-71.5 1393,-90.5"/>
<text text-anchor="middle" x="1345" y="-78.5" font-family="Helvetica,sans-Serif" font-size="10.00">src/core/loader.c</text>
</a>
</g>
</g>
<!-- Node1&#45;&gt;Node21 -->
<g id="edge25_Node000001_Node000021" class="edge">
<title>Node1&#45;&gt;Node21</title>
<g id="a_edge25_Node000001_Node000021"><a xlink:title=" ">
<path fill="none" stroke="#63b8ff" d="M1496.73,-128.96C1460.17,-117.65 1405.28,-100.66 1372.52,-90.52"/>
<polygon fill="#63b8ff" stroke="#63b8ff" points="1495.93,-132.38 1506.52,-131.99 1498,-125.69 1495.93,-132.38"/>
</a>
</g>
</g>
<!-- Node22 -->
<g id="Node000022" class="node">
<title>Node22</title>
<g id="a_Node000022"><a xlink:href="signature_8c.html" target="_top" xlink:title="Implements the high&#45;level signature string parser.">
<polygon fill="white" stroke="#666666" points="1523,-90.5 1411,-90.5 1411,-71.5 1523,-71.5 1523,-90.5"/>
<text text-anchor="middle" x="1467" y="-78.5" font-family="Helvetica,sans-Serif" font-size="10.00">src/core/signature.c</text>
</a>
</g>
</g>
<!-- Node1&#45;&gt;Node22 -->
<g id="edge27_Node000001_Node000022" class="edge">
<title>Node1&#45;&gt;Node22</title>
<g id="a_edge27_Node000001_Node000022"><a xlink:title=" ">
<path fill="none" stroke="#63b8ff" d="M1516.5,-125.22C1503.9,-114.21 1487.33,-99.75 1476.93,-90.67"/>
<polygon fill="#63b8ff" stroke="#63b8ff" points="1514.28,-127.93 1524.11,-131.87 1518.88,-122.65 1514.28,-127.93"/>
</a>
</g>
</g>
<!-- Node23 -->
<g id="Node000023" class="node">
<title>Node23</title>
<g id="a_Node000023"><a xlink:href="trampoline_8c.html" target="_top" xlink:title="The core engine for JIT compiling FFI trampolines.">
<polygon fill="white" stroke="#666666" points="1660.5,-90.5 1541.5,-90.5 1541.5,-71.5 1660.5,-71.5 1660.5,-90.5"/>
<text text-anchor="middle" x="1601" y="-78.5" font-family="Helvetica,sans-Serif" font-size="10.00">src/core/trampoline.c</text>
</a>
</g>
</g>
<!-- Node1&#45;&gt;Node23 -->
<g id="edge29_Node000001_Node000023" class="edge">
<title>Node1&#45;&gt;Node23</title>
<g id="a_edge29_Node000001_Node000023"><a xlink:title=" ">
<path fill="none" stroke="#63b8ff" d="M1551.5,-125.22C1564.1,-114.21 1580.67,-99.75 1591.07,-90.67"/>
<polygon fill="#63b8ff" stroke="#63b8ff" points="1549.12,-122.65 1543.89,-131.87 1553.72,-127.93 1549.12,-122.65"/>
</a>
</g>
</g>
<!-- Node24 -->
<g id="Node000024" class="node">
<title>Node24</title>
<g id="a_Node000024"><a xlink:href="type__registry_8c.html" target="_top" xlink:title="Implements the named type registry and definition parser.">
<polygon fill="white" stroke="#666666" points="1807.5,-90.5 1678.5,-90.5 1678.5,-71.5 1807.5,-71.5 1807.5,-90.5"/>
<text text-anchor="middle" x="1743" y="-78.5" font-family="Helvetica,sans-Serif" font-size="10.00">src/core/type_registry.c</text>
</a>
</g>
</g>
<!-- Node1&#45;&gt;Node24 -->
<g id="edge31_Node000001_Node000024" class="edge">
<title>Node1&#45;&gt;Node24</title>
<g id="a_edge31_Node000001_Node000024"><a xlink:title=" ">
<path fill="none" stroke="#63b8ff" d="M1574.19,-129.25C1614.6,-117.94 1676.03,-100.75 1712.57,-90.52"/>
<polygon fill="#63b8ff" stroke="#63b8ff" points="1573.08,-125.93 1564.39,-131.99 1574.96,-132.67 1573.08,-125.93"/>
</a>
</g>
</g>
<!-- Node25 -->
<g id="Node000025" class="node">
<title>Node25</title>
<g id="a_Node000025"><a xlink:href="types_8c.html" target="_top" xlink:title="Implements the public API for creating and managing type descriptions.">
<polygon fill="white" stroke="#666666" points="1918.5,-90.5 1825.5,-90.5 1825.5,-71.5 1918.5,-71.5 1918.5,-90.5"/>
<text text-anchor="middle" x="1872" y="-78.5" font-family="Helvetica,sans-Serif" font-size="10.00">src/core/types.c</text>
</a>
</g>
</g>
<!-- Node1&#45;&gt;Node25 -->
<g id="edge33_Node000001_Node000025" class="edge">
<title>Node1&#45;&gt;Node25</title>
<g id="a_edge33_Node000001_Node000025"><a xlink:title=" ">
<path fill="none" stroke="#63b8ff" d="M1608.42,-130.59C1665.47,-122.55 1746.01,-110.24 1816,-96 1823.76,-94.42 1832.06,-92.48 1839.83,-90.56"/>
<polygon fill="#63b8ff" stroke="#63b8ff" points="1607.83,-127.14 1598.41,-131.99 1608.8,-134.07 1607.83,-127.14"/>
</a>
</g>
</g>
<!-- Node26 -->
<g id="Node000026" class="node">
<title>Node26</title>
<g id="a_Node000026"><a xlink:href="830__security_8c.html" target="_top" xlink:title="A test suite for security hardening and vulnerability prevention.">
<polygon fill="white" stroke="#666666" points="2411,-90.5 2319,-90.5 2319,-71.5 2411,-71.5 2411,-90.5"/>
<text text-anchor="middle" x="2365" y="-78.5" font-family="Helvetica,sans-Serif" font-size="10.00">t/830_security.c</text>
</a>
</g>
</g>
<!-- Node1&#45;&gt;Node26 -->
<g id="edge35_Node000001_Node000026" class="edge">
<title>Node1&#45;&gt;Node26</title>
<g id="a_edge35_Node000001_Node000026"><a xlink:title=" ">
<path fill="none" stroke="#63b8ff" d="M1623.37,-140.3C1767.55,-138.87 2060.08,-131.38 2305,-96 2314.21,-94.67 2324.09,-92.63 2333.12,-90.51"/>
<polygon fill="#63b8ff" stroke="#63b8ff" points="1623.22,-136.8 1613.25,-140.39 1623.28,-143.8 1623.22,-136.8"/>
</a>
</g>
</g>
<!-- Node3 -->
<g id="Node000003" class="node">
<title>Node3</title>
<g id="a_Node000003"><a xlink:href="fuzz__abi_8c.html" target="_top" xlink:title="A fuzzer targeting the ABI&#45;specific classification logic.">
<polygon fill="white" stroke="#666666" points="775.5,-24.5 686.5,-24.5 686.5,-5.5 775.5,-5.5 775.5,-24.5"/>
<text text-anchor="middle" x="731" y="-12.5" font-family="Helvetica,sans-Serif" font-size="10.00">fuzz/fuzz_abi.c</text>
</a>
</g>
</g>
<!-- Node2&#45;&gt;Node3 -->
<g id="edge2_Node000002_Node000003" class="edge">
<title>Node2&#45;&gt;Node3</title>
<g id="a_edge2_Node000002_Node000003"><a xlink:title=" ">
<path fill="none" stroke="#63b8ff" d="M509.12,-69.24C552.96,-59.35 619.43,-44.12 677,-30 684.05,-28.27 691.61,-26.35 698.77,-24.5"/>
<polygon fill="#63b8ff" stroke="#63b8ff" points="508.3,-65.84 499.31,-71.45 509.83,-72.67 508.3,-65.84"/>
</a>
</g>
</g>
<!-- Node4 -->
<g id="Node000004" class="node">
<title>Node4</title>
<g id="a_Node000004"><a xlink:href="fuzz__helpers_8c.html" target="_top" xlink:title="Implementation of the shared recursive infix_type generator for fuzzing.">
<polygon fill="white" stroke="#666666" points="110,-24.5 0,-24.5 0,-5.5 110,-5.5 110,-24.5"/>
<text text-anchor="middle" x="55" y="-12.5" font-family="Helvetica,sans-Serif" font-size="10.00">fuzz/fuzz_helpers.c</text>
</a>
</g>
</g>
<!-- Node2&#45;&gt;Node4 -->
<g id="edge3_Node000002_Node000004" class="edge">
<title>Node2&#45;&gt;Node4</title>
<g id="a_edge3_Node000002_Node000004"><a xlink:title=" ">
<path fill="none" stroke="#63b8ff" d="M395.44,-71.81C326.43,-62.86 214.74,-47.45 119,-30 110.16,-28.39 100.68,-26.44 91.8,-24.51"/>
<polygon fill="#63b8ff" stroke="#63b8ff" points="395.35,-75.32 405.72,-73.13 396.25,-68.38 395.35,-75.32"/>
</a>
</g>
</g>
<!-- Node5 -->
<g id="Node000005" class="node">
<title>Node5</title>
<g id="a_Node000005"><a xlink:href="fuzz__signature_8c.html" target="_top" xlink:title="A libFuzzer&#45;based harness for the infix FFI signature parser.">
<polygon fill="white" stroke="#666666" points="247.5,-24.5 128.5,-24.5 128.5,-5.5 247.5,-5.5 247.5,-24.5"/>
<text text-anchor="middle" x="188" y="-12.5" font-family="Helvetica,sans-Serif" font-size="10.00">fuzz/fuzz_signature.c</text>
</a>
</g>
</g>
<!-- Node2&#45;&gt;Node5 -->
<g id="edge4_Node000002_Node000005" class="edge">
<title>Node2&#45;&gt;Node5</title>
<g id="a_edge4_Node000002_Node000005"><a xlink:title=" ">
<path fill="none" stroke="#63b8ff" d="M414.51,-69.1C360.74,-56.49 273.34,-36.01 224.32,-24.51"/>
<polygon fill="#63b8ff" stroke="#63b8ff" points="413.93,-72.56 424.47,-71.44 415.53,-65.74 413.93,-72.56"/>
</a>
</g>
</g>
<!-- Node6 -->
<g id="Node000006" class="node">
<title>Node6</title>
<g id="a_Node000006"><a xlink:href="fuzz__trampoline_8c.html" target="_top" xlink:title="A dual&#45;purpose fuzzing harness for libFuzzer (Clang) and AFL++ (GCC), focused on the infix FFI trampo...">
<polygon fill="white" stroke="#666666" points="392.5,-24.5 265.5,-24.5 265.5,-5.5 392.5,-5.5 392.5,-24.5"/>
<text text-anchor="middle" x="329" y="-12.5" font-family="Helvetica,sans-Serif" font-size="10.00">fuzz/fuzz_trampoline.c</text>
</a>
</g>
</g>
<!-- Node2&#45;&gt;Node6 -->
<g id="edge5_Node000002_Node000006" class="edge">
<title>Node2&#45;&gt;Node6</title>
<g id="a_edge5_Node000002_Node000006"><a xlink:title=" ">
<path fill="none" stroke="#63b8ff" d="M433.9,-66.86C407.89,-54.25 369.35,-35.56 346.94,-24.7"/>
<polygon fill="#63b8ff" stroke="#63b8ff" points="432.67,-70.16 443.2,-71.37 435.73,-63.86 432.67,-70.16"/>
</a>
</g>
</g>
<!-- Node7 -->
<g id="Node000007" class="node">
<title>Node7</title>
<g id="a_Node000007"><a xlink:href="fuzz__types_8c.html" target="_top" xlink:title="A dual&#45;purpose fuzzing harness for libFuzzer (Clang) and AFL++ (GCC), focused on the infix FFI type c...">
<polygon fill="white" stroke="#666666" points="511.5,-24.5 410.5,-24.5 410.5,-5.5 511.5,-5.5 511.5,-24.5"/>
<text text-anchor="middle" x="461" y="-12.5" font-family="Helvetica,sans-Serif" font-size="10.00">fuzz/fuzz_types.c</text>
</a>
</g>
</g>
<!-- Node2&#45;&gt;Node7 -->
<g id="edge6_Node000002_Node000007" class="edge">
<title>Node2&#45;&gt;Node7</title>
<g id="a_edge6_Node000002_Node000007"><a xlink:title=" ">
<path fill="none" stroke="#63b8ff" d="M461,-61.08C461,-49.13 461,-34.22 461,-24.91"/>
<polygon fill="#63b8ff" stroke="#63b8ff" points="457.5,-61.37 461,-71.37 464.5,-61.37 457.5,-61.37"/>
</a>
</g>
</g>
<!-- Node8 -->
<g id="Node000008" class="node">
<title>Node8</title>
<g id="a_Node000008"><a xlink:href="850__regression__cases_8c.html" target="_top" xlink:title="Contains a data&#45;driven suite of deterministic unit tests for specific bugs found by fuzzing.">
<polygon fill="white" stroke="#666666" points="668.5,-24.5 529.5,-24.5 529.5,-5.5 668.5,-5.5 668.5,-24.5"/>
<text text-anchor="middle" x="599" y="-12.5" font-family="Helvetica,sans-Serif" font-size="10.00">t/850_regression_cases.c</text>
</a>
</g>
</g>
<!-- Node2&#45;&gt;Node8 -->
<g id="edge7_Node000002_Node000008" class="edge">
<title>Node2&#45;&gt;Node8</title>
<g id="a_edge7_Node000002_Node000008"><a xlink:title=" ">
<path fill="none" stroke="#63b8ff" d="M488.97,-67.03C516.17,-54.42 556.71,-35.61 580.24,-24.7"/>
<polygon fill="#63b8ff" stroke="#63b8ff" points="487.21,-63.99 479.61,-71.37 490.16,-70.34 487.21,-63.99"/>
</a>
</g>
</g>
<!-- Node10&#45;&gt;Node9 -->
<g id="edge10_Node000010_Node000009" class="edge">
<title>Node10&#45;&gt;Node9</title>
<g id="a_edge10_Node000010_Node000009"><a xlink:title=" ">
<path fill="none" stroke="#63b8ff" d="M945.58,-61.51C924.72,-51.47 899.33,-39.26 880.12,-30.01"/>
<polygon fill="#63b8ff" stroke="#63b8ff" points="944.28,-64.77 954.81,-65.95 947.32,-58.46 944.28,-64.77"/>
</a>
</g>
</g>
<!-- Node11 -->
<g id="Node000011" class="node">
<title>Node11</title>
<g id="a_Node000011"><a xlink:href="abi__arm64__emitters_8c.html" target="_top" xlink:title="Implements internal helper functions for emitting AArch64 machine code.">
<polygon fill="white" stroke="#666666" points="1041.5,-30 926.5,-30 926.5,0 1041.5,0 1041.5,-30"/>
<text text-anchor="start" x="934.5" y="-18" font-family="Helvetica,sans-Serif" font-size="10.00">src/arch/aarch64/abi</text>
<text text-anchor="middle" x="984" y="-7" font-family="Helvetica,sans-Serif" font-size="10.00">_arm64_emitters.c</text>
</a>
</g>
</g>
<!-- Node10&#45;&gt;Node11 -->
<g id="edge11_Node000010_Node000011" class="edge">
<title>Node10&#45;&gt;Node11</title>
<g id="a_edge11_Node000010_Node000011"><a xlink:title=" ">
<path fill="none" stroke="#63b8ff" d="M984,-55.54C984,-46.96 984,-37.61 984,-30.16"/>
<polygon fill="#63b8ff" stroke="#63b8ff" points="980.5,-55.8 984,-65.8 987.5,-55.8 980.5,-55.8"/>
</a>
</g>
</g>
<!-- Node14&#45;&gt;Node12 -->
<g id="edge15_Node000014_Node000012" class="edge">
<title>Node14&#45;&gt;Node12</title>
<g id="a_edge15_Node000014_Node000012"><a xlink:title=" ">
<path fill="none" stroke="#63b8ff" d="M1161.38,-58.37C1152.51,-49.06 1142.39,-38.44 1134.5,-30.16"/>
<polygon fill="#63b8ff" stroke="#63b8ff" points="1159.03,-60.97 1168.46,-65.8 1164.1,-56.14 1159.03,-60.97"/>
</a>
</g>
</g>
<!-- Node14&#45;&gt;Node13 -->
<g id="edge16_Node000014_Node000013" class="edge">
<title>Node14&#45;&gt;Node13</title>
<g id="a_edge16_Node000014_Node000013"><a xlink:title=" ">
<path fill="none" stroke="#63b8ff" d="M1238.35,-62.99C1272.46,-52.69 1315.44,-39.72 1347.58,-30.01"/>
<polygon fill="#63b8ff" stroke="#63b8ff" points="1237.09,-59.71 1228.52,-65.95 1239.11,-66.42 1237.09,-59.71"/>
</a>
</g>
</g>
<!-- Node15 -->
<g id="Node000015" class="node">
<title>Node15</title>
<g id="a_Node000015"><a xlink:href="abi__x64__emitters_8c.html" target="_top" xlink:title="Implements internal helper functions for emitting x86&#45;64 machine code.">
<polygon fill="white" stroke="#666666" points="1317.5,-30 1200.5,-30 1200.5,0 1317.5,0 1317.5,-30"/>
<text text-anchor="start" x="1208.5" y="-18" font-family="Helvetica,sans-Serif" font-size="10.00">src/arch/x64/abi_x64</text>
<text text-anchor="middle" x="1259" y="-7" font-family="Helvetica,sans-Serif" font-size="10.00">_emitters.c</text>
</a>
</g>
</g>
<!-- Node14&#45;&gt;Node15 -->
<g id="edge17_Node000014_Node000015" class="edge">
<title>Node14&#45;&gt;Node15</title>
<g id="a_edge17_Node000014_Node000015"><a xlink:title=" ">
<path fill="none" stroke="#63b8ff" d="M1207.02,-59.2C1218.45,-49.7 1231.7,-38.69 1241.96,-30.16"/>
<polygon fill="#63b8ff" stroke="#63b8ff" points="1204.54,-56.71 1199.09,-65.8 1209.02,-62.1 1204.54,-56.71"/>
</a>
</g>
</g>
<!-- Node17 -->
<g id="Node000017" class="node">
<title>Node17</title>
<g id="a_Node000017"><a xlink:href="infix_8c.html" target="_top" xlink:title="The unity build source file for the infix library.">
<polygon fill="white" stroke="#666666" points="1839.5,-24.5 1776.5,-24.5 1776.5,-5.5 1839.5,-5.5 1839.5,-24.5"/>
<text text-anchor="middle" x="1808" y="-12.5" font-family="Helvetica,sans-Serif" font-size="10.00">src/infix.c</text>
</a>
</g>
</g>
<!-- Node16&#45;&gt;Node17 -->
<g id="edge19_Node000016_Node000017" class="edge">
<title>Node16&#45;&gt;Node17</title>
<g id="a_edge19_Node000016_Node000017"><a xlink:title=" ">
<path fill="none" stroke="#63b8ff" d="M2174.37,-69.08C2169.54,-67.97 2164.67,-66.91 2160,-66 2042.78,-43.09 1901.66,-26.25 1839.74,-19.39"/>
<polygon fill="#63b8ff" stroke="#63b8ff" points="2173.6,-72.5 2184.15,-71.43 2175.24,-65.69 2173.6,-72.5"/>
</a>
</g>
</g>
<!-- Node16&#45;&gt;Node18 -->
<g id="edge20_Node000016_Node000018" class="edge">
<title>Node16&#45;&gt;Node18</title>
<g id="a_edge20_Node000016_Node000018"><a xlink:title=" ">
<path fill="none" stroke="#63b8ff" d="M2226.36,-62.55C2233.6,-50.36 2242.95,-34.61 2248.71,-24.91"/>
<polygon fill="#63b8ff" stroke="#63b8ff" points="2223.22,-60.98 2221.12,-71.37 2229.24,-64.56 2223.22,-60.98"/>
</a>
</g>
</g>
<!-- Node19&#45;&gt;Node17 -->
<g id="edge22_Node000019_Node000017" class="edge">
<title>Node19&#45;&gt;Node17</title>
<g id="a_edge22_Node000019_Node000017"><a xlink:title=" ">
<path fill="none" stroke="#63b8ff" d="M1948.13,-67.84C1913.95,-55.2 1861.33,-35.73 1831.24,-24.6"/>
<polygon fill="#63b8ff" stroke="#63b8ff" points="1947.08,-71.18 1957.67,-71.37 1949.5,-64.62 1947.08,-71.18"/>
</a>
</g>
</g>
<!-- Node20&#45;&gt;Node17 -->
<g id="edge24_Node000020_Node000017" class="edge">
<title>Node20&#45;&gt;Node17</title>
<g id="a_edge24_Node000020_Node000017"><a xlink:title=" ">
<path fill="none" stroke="#63b8ff" d="M2049.39,-69.22C2044.53,-68.13 2039.67,-67.04 2035,-66 1965.29,-50.45 1883.46,-32.5 1839.59,-22.9"/>
<polygon fill="#63b8ff" stroke="#63b8ff" points="2048.78,-72.67 2059.3,-71.45 2050.32,-65.84 2048.78,-72.67"/>
</a>
</g>
</g>
<!-- Node21&#45;&gt;Node17 -->
<g id="edge26_Node000021_Node000017" class="edge">
<title>Node21&#45;&gt;Node17</title>
<g id="a_edge26_Node000021_Node000017"><a xlink:title=" ">
<path fill="none" stroke="#63b8ff" d="M1386.6,-69.18C1391.77,-68.01 1396.99,-66.92 1402,-66 1540.48,-40.56 1707.96,-24.54 1776.48,-18.6"/>
<polygon fill="#63b8ff" stroke="#63b8ff" points="1385.75,-65.79 1376.81,-71.48 1387.35,-72.6 1385.75,-65.79"/>
</a>
</g>
</g>
<!-- Node22&#45;&gt;Node17 -->
<g id="edge28_Node000022_Node000017" class="edge">
<title>Node22&#45;&gt;Node17</title>
<g id="a_edge28_Node000022_Node000017"><a xlink:title=" ">
<path fill="none" stroke="#63b8ff" d="M1515.41,-69.39C1521,-68.22 1526.62,-67.07 1532,-66 1620.37,-48.48 1725.15,-30.17 1776.48,-21.36"/>
<polygon fill="#63b8ff" stroke="#63b8ff" points="1514.51,-66 1505.45,-71.5 1515.96,-72.85 1514.51,-66"/>
</a>
</g>
</g>
<!-- Node23&#45;&gt;Node17 -->
<g id="edge30_Node000023_Node000017" class="edge">
<title>Node23&#45;&gt;Node17</title>
<g id="a_edge30_Node000023_Node000017"><a xlink:title=" ">
<path fill="none" stroke="#63b8ff" d="M1638.51,-68.4C1679.33,-55.78 1743.65,-35.89 1780.2,-24.6"/>
<polygon fill="#63b8ff" stroke="#63b8ff" points="1637.44,-65.07 1628.92,-71.37 1639.5,-71.76 1637.44,-65.07"/>
</a>
</g>
</g>
<!-- Node24&#45;&gt;Node17 -->
<g id="edge32_Node000024_Node000017" class="edge">
<title>Node24&#45;&gt;Node17</title>
<g id="a_edge32_Node000024_Node000017"><a xlink:title=" ">
<path fill="none" stroke="#63b8ff" d="M1758.92,-64.33C1771.5,-51.94 1788.62,-35.09 1798.96,-24.91"/>
<polygon fill="#63b8ff" stroke="#63b8ff" points="1756.44,-61.86 1751.77,-71.37 1761.35,-66.85 1756.44,-61.86"/>
</a>
</g>
</g>
<!-- Node25&#45;&gt;Node17 -->
<g id="edge34_Node000025_Node000017" class="edge">
<title>Node25&#45;&gt;Node17</title>
<g id="a_edge34_Node000025_Node000017"><a xlink:title=" ">
<path fill="none" stroke="#63b8ff" d="M1855.98,-63.98C1843.62,-51.62 1826.99,-34.99 1816.91,-24.91"/>
<polygon fill="#63b8ff" stroke="#63b8ff" points="1853.82,-66.77 1863.37,-71.37 1858.77,-61.82 1853.82,-66.77"/>
</a>
</g>
</g>
</g>
</svg>
