<?xml version="1.0" encoding="UTF-8" standalone="no"?>
<!DOCTYPE svg PUBLIC "-//W3C//DTD SVG 1.1//EN"
 "http://www.w3.org/Graphics/SVG/1.1/DTD/svg11.dtd">
<!-- Generated by graphviz version 2.43.0 (0)
 -->
<!-- Title: src/common/infix_internals.h Pages: 1 -->
<svg width="472pt" height="247pt"
 viewBox="0.00 0.00 472.00 247.00" xmlns="http://www.w3.org/2000/svg" xmlns:xlink="http://www.w3.org/1999/xlink">
<g id="graph0" class="graph" transform="scale(1 1) rotate(0) translate(4 243)">
<title>src/common/infix_internals.h</title>
<!-- Node1 -->
<g id="Node000001" class="node">
<title>Node1</title>
<g id="a_Node000001"><a xlink:title="Internal data structures, function prototypes, and constants.">
<polygon fill="#999999" stroke="#666666" points="387.5,-239 229.5,-239 229.5,-220 387.5,-220 387.5,-239"/>
<text text-anchor="middle" x="308.5" y="-227" font-family="Helvetica,sans-Serif" font-size="10.00">src/common/infix_internals.h</text>
</a>
</g>
</g>
<!-- Node2 -->
<g id="Node000002" class="node">
<title>Node2</title>
<g id="a_Node000002"><a xlink:href="infix__config_8h.html" target="_top" xlink:title="Platform, architecture, and ABI detection macros.">
<polygon fill="white" stroke="#666666" points="312,-74 185,-74 185,-55 312,-55 312,-74"/>
<text text-anchor="middle" x="248.5" y="-62" font-family="Helvetica,sans-Serif" font-size="10.00">common/infix_config.h</text>
</a>
</g>
</g>
<!-- Node1&#45;&gt;Node2 -->
<g id="edge1_Node000001_Node000002" class="edge">
<title>Node1&#45;&gt;Node2</title>
<g id="a_edge1_Node000001_Node000002"><a xlink:title=" ">
<path fill="none" stroke="#63b8ff" d="M315.83,-219.89C325.29,-207.71 339.7,-184.7 332.5,-165 319.6,-129.73 288.08,-98.34 267.53,-80.64"/>
<polygon fill="#63b8ff" stroke="#63b8ff" points="269.65,-77.86 259.73,-74.13 265.16,-83.23 269.65,-77.86"/>
</a>
</g>
</g>
<!-- Node3 -->
<g id="Node000003" class="node">
<title>Node3</title>
<g id="a_Node000003"><a xlink:href="platform_8h.html" target="_top" xlink:title="Declares internal, runtime CPU/OS feature detection functions.">
<polygon fill="white" stroke="#666666" points="323,-184 210,-184 210,-165 323,-165 323,-184"/>
<text text-anchor="middle" x="266.5" y="-172" font-family="Helvetica,sans-Serif" font-size="10.00">common/platform.h</text>
</a>
</g>
</g>
<!-- Node1&#45;&gt;Node3 -->
<g id="edge2_Node000001_Node000003" class="edge">
<title>Node1&#45;&gt;Node3</title>
<g id="a_edge2_Node000001_Node000003"><a xlink:title=" ">
<path fill="none" stroke="#63b8ff" d="M301.56,-219.75C295.63,-212.26 286.93,-201.28 279.68,-192.13"/>
<polygon fill="#63b8ff" stroke="#63b8ff" points="282.26,-189.75 273.31,-184.09 276.77,-194.1 282.26,-189.75"/>
</a>
</g>
</g>
<!-- Node5 -->
<g id="Node000005" class="node">
<title>Node5</title>
<g id="a_Node000005"><a xlink:href="infix_8h.html" target="_top" xlink:title="The public interface for the infix FFI library.">
<polygon fill="white" stroke="#666666" points="90,-74 19,-74 19,-55 90,-55 90,-74"/>
<text text-anchor="middle" x="54.5" y="-62" font-family="Helvetica,sans-Serif" font-size="10.00">infix/infix.h</text>
</a>
</g>
</g>
<!-- Node1&#45;&gt;Node5 -->
<g id="edge13_Node000001_Node000005" class="edge">
<title>Node1&#45;&gt;Node5</title>
<g id="a_edge13_Node000001_Node000005"><a xlink:title=" ">
<path fill="none" stroke="#63b8ff" d="M265.24,-219.9C214.89,-207.79 132.2,-181.13 81.5,-129 69.5,-116.67 62.47,-98.19 58.61,-84.34"/>
<polygon fill="#63b8ff" stroke="#63b8ff" points="61.95,-83.3 56.15,-74.43 55.16,-84.98 61.95,-83.3"/>
</a>
</g>
</g>
<!-- Node9 -->
<g id="Node000009" class="node">
<title>Node9</title>
<g id="a_Node000009"><a xlink:title=" ">
<polygon fill="#e0e0e0" stroke="#999999" points="464,-184 401,-184 401,-165 464,-165 464,-184"/>
<text text-anchor="middle" x="432.5" y="-172" font-family="Helvetica,sans-Serif" font-size="10.00">pthread.h</text>
</a>
</g>
</g>
<!-- Node1&#45;&gt;Node9 -->
<g id="edge14_Node000001_Node000009" class="edge">
<title>Node1&#45;&gt;Node9</title>
<g id="a_edge14_Node000001_Node000009"><a xlink:title=" ">
<path fill="none" stroke="#63b8ff" d="M328.42,-219.98C348.55,-211.38 379.88,-197.99 402.91,-188.15"/>
<polygon fill="#63b8ff" stroke="#63b8ff" points="404.4,-191.32 412.21,-184.17 401.64,-184.88 404.4,-191.32"/>
</a>
</g>
</g>
<!-- Node3&#45;&gt;Node2 -->
<g id="edge11_Node000003_Node000002" class="edge">
<title>Node3&#45;&gt;Node2</title>
<g id="a_edge11_Node000003_Node000002"><a xlink:title=" ">
<path fill="none" stroke="#63b8ff" d="M265.03,-164.66C262.11,-147.17 255.55,-107.8 251.63,-84.27"/>
<polygon fill="#63b8ff" stroke="#63b8ff" points="255.04,-83.45 249.94,-74.16 248.13,-84.6 255.04,-83.45"/>
</a>
</g>
</g>
<!-- Node4 -->
<g id="Node000004" class="node">
<title>Node4</title>
<g id="a_Node000004"><a xlink:href="compat__c23_8h.html" target="_top" xlink:title="Provides forward compatibility macros for C23 features.">
<polygon fill="white" stroke="#666666" points="222,-129 91,-129 91,-110 222,-110 222,-129"/>
<text text-anchor="middle" x="156.5" y="-117" font-family="Helvetica,sans-Serif" font-size="10.00">common/compat_c23.h</text>
</a>
</g>
</g>
<!-- Node3&#45;&gt;Node4 -->
<g id="edge3_Node000003_Node000004" class="edge">
<title>Node3&#45;&gt;Node4</title>
<g id="a_edge3_Node000003_Node000004"><a xlink:title=" ">
<path fill="none" stroke="#63b8ff" d="M248.83,-164.98C231.21,-156.5 203.92,-143.35 183.57,-133.54"/>
<polygon fill="#63b8ff" stroke="#63b8ff" points="185.02,-130.36 174.49,-129.17 181.98,-136.66 185.02,-130.36"/>
</a>
</g>
</g>
<!-- Node6 -->
<g id="Node000006" class="node">
<title>Node6</title>
<g id="a_Node000006"><a xlink:title=" ">
<polygon fill="#e0e0e0" stroke="#999999" points="207.5,-19 145.5,-19 145.5,0 207.5,0 207.5,-19"/>
<text text-anchor="middle" x="176.5" y="-7" font-family="Helvetica,sans-Serif" font-size="10.00">stdbool.h</text>
</a>
</g>
</g>
<!-- Node3&#45;&gt;Node6 -->
<g id="edge12_Node000003_Node000006" class="edge">
<title>Node3&#45;&gt;Node6</title>
<g id="a_edge12_Node000003_Node000006"><a xlink:title=" ">
<path fill="none" stroke="#63b8ff" d="M276.44,-164.82C298.74,-144.32 348.73,-91.84 321.5,-55 297.88,-23.05 251.73,-13.3 217.82,-10.69"/>
<polygon fill="#63b8ff" stroke="#63b8ff" points="217.91,-7.19 207.72,-10.09 217.5,-14.17 217.91,-7.19"/>
</a>
</g>
</g>
<!-- Node4&#45;&gt;Node2 -->
<g id="edge4_Node000004_Node000002" class="edge">
<title>Node4&#45;&gt;Node2</title>
<g id="a_edge4_Node000004_Node000002"><a xlink:title=" ">
<path fill="none" stroke="#63b8ff" d="M171.28,-109.98C185.68,-101.69 207.81,-88.94 224.69,-79.22"/>
<polygon fill="#63b8ff" stroke="#63b8ff" points="226.53,-82.19 233.45,-74.17 223.04,-76.13 226.53,-82.19"/>
</a>
</g>
</g>
<!-- Node4&#45;&gt;Node5 -->
<g id="edge5_Node000004_Node000005" class="edge">
<title>Node4&#45;&gt;Node5</title>
<g id="a_edge5_Node000004_Node000005"><a xlink:title=" ">
<path fill="none" stroke="#63b8ff" d="M140.11,-109.98C123.93,-101.57 98.93,-88.59 80.12,-78.81"/>
<polygon fill="#63b8ff" stroke="#63b8ff" points="81.67,-75.68 71.19,-74.17 78.45,-81.89 81.67,-75.68"/>
</a>
</g>
</g>
<!-- Node4&#45;&gt;Node6 -->
<g id="edge9_Node000004_Node000006" class="edge">
<title>Node4&#45;&gt;Node6</title>
<g id="a_edge9_Node000004_Node000006"><a xlink:title=" ">
<path fill="none" stroke="#63b8ff" d="M158.14,-109.66C161.38,-92.17 168.67,-52.8 173.02,-29.27"/>
<polygon fill="#63b8ff" stroke="#63b8ff" points="176.52,-29.63 174.9,-19.16 169.63,-28.35 176.52,-29.63"/>
</a>
</g>
</g>
<!-- Node7 -->
<g id="Node000007" class="node">
<title>Node7</title>
<g id="a_Node000007"><a xlink:title=" ">
<polygon fill="#e0e0e0" stroke="#999999" points="127.5,-19 71.5,-19 71.5,0 127.5,0 127.5,-19"/>
<text text-anchor="middle" x="99.5" y="-7" font-family="Helvetica,sans-Serif" font-size="10.00">stddef.h</text>
</a>
</g>
</g>
<!-- Node4&#45;&gt;Node7 -->
<g id="edge10_Node000004_Node000007" class="edge">
<title>Node4&#45;&gt;Node7</title>
<g id="a_edge10_Node000004_Node000007"><a xlink:title=" ">
<path fill="none" stroke="#63b8ff" d="M151.84,-109.66C142.44,-91.85 121.07,-51.37 108.74,-28.01"/>
<polygon fill="#63b8ff" stroke="#63b8ff" points="111.83,-26.37 104.07,-19.16 105.64,-29.64 111.83,-26.37"/>
</a>
</g>
</g>
<!-- Node5&#45;&gt;Node6 -->
<g id="edge6_Node000005_Node000006" class="edge">
<title>Node5&#45;&gt;Node6</title>
<g id="a_edge6_Node000005_Node000006"><a xlink:title=" ">
<path fill="none" stroke="#63b8ff" d="M74.1,-54.98C93.82,-46.42 124.45,-33.11 147.08,-23.28"/>
<polygon fill="#63b8ff" stroke="#63b8ff" points="148.76,-26.37 156.54,-19.17 145.98,-19.94 148.76,-26.37"/>
</a>
</g>
</g>
<!-- Node5&#45;&gt;Node7 -->
<g id="edge7_Node000005_Node000007" class="edge">
<title>Node5&#45;&gt;Node7</title>
<g id="a_edge7_Node000005_Node000007"><a xlink:title=" ">
<path fill="none" stroke="#63b8ff" d="M61.93,-54.75C68.35,-47.18 77.81,-36.05 85.62,-26.84"/>
<polygon fill="#63b8ff" stroke="#63b8ff" points="88.4,-28.98 92.21,-19.09 83.07,-24.45 88.4,-28.98"/>
</a>
</g>
</g>
<!-- Node8 -->
<g id="Node000008" class="node">
<title>Node8</title>
<g id="a_Node000008"><a xlink:title=" ">
<polygon fill="#e0e0e0" stroke="#999999" points="53,-19 0,-19 0,0 53,0 53,-19"/>
<text text-anchor="middle" x="26.5" y="-7" font-family="Helvetica,sans-Serif" font-size="10.00">stdint.h</text>
</a>
</g>
</g>
<!-- Node5&#45;&gt;Node8 -->
<g id="edge8_Node000005_Node000008" class="edge">
<title>Node5&#45;&gt;Node8</title>
<g id="a_edge8_Node000005_Node000008"><a xlink:title=" ">
<path fill="none" stroke="#63b8ff" d="M49.88,-54.75C46.04,-47.49 40.48,-36.95 35.74,-27.98"/>
<polygon fill="#63b8ff" stroke="#63b8ff" points="38.8,-26.3 31.04,-19.09 32.61,-29.57 38.8,-26.3"/>
</a>
</g>
</g>
</g>
</svg>
