<?xml version="1.0" encoding="UTF-8" standalone="no"?>
<!DOCTYPE svg PUBLIC "-//W3C//DTD SVG 1.1//EN"
 "http://www.w3.org/Graphics/SVG/1.1/DTD/svg11.dtd">
<!-- Generated by graphviz version 2.43.0 (0)
 -->
<!-- Title: include/infix/infix.h Pages: 1 -->
<svg width="1546pt" height="214pt"
 viewBox="0.00 0.00 1545.50 214.00" xmlns="http://www.w3.org/2000/svg" xmlns:xlink="http://www.w3.org/1999/xlink">
<g id="graph0" class="graph" transform="scale(1 1) rotate(0) translate(4 210)">
<title>include/infix/infix.h</title>
<!-- Node1 -->
<g id="Node000001" class="node">
<title>Node1</title>
<g id="a_Node000001"><a xlink:title=" ">
<polygon fill="#999999" stroke="#666666" points="927.5,-206 818.5,-206 818.5,-187 927.5,-187 927.5,-206"/>
<text text-anchor="middle" x="873" y="-194" font-family="Helvetica,sans-Serif" font-size="10.00">include/infix/infix.h</text>
</a>
</g>
</g>
<!-- Node2 -->
<g id="Node000002" class="node">
<title>Node2</title>
<g id="a_Node000002"><a xlink:href="infix__internals_8h.html" target="_top" xlink:title="Declarations for internal&#45;only functions, types, and constants.">
<polygon fill="white" stroke="#666666" points="899,-151 741,-151 741,-132 899,-132 899,-151"/>
<text text-anchor="middle" x="820" y="-139" font-family="Helvetica,sans-Serif" font-size="10.00">src/common/infix_internals.h</text>
</a>
</g>
</g>
<!-- Node1&#45;&gt;Node2 -->
<g id="edge1_Node000001_Node000002" class="edge">
<title>Node1&#45;&gt;Node2</title>
<g id="a_edge1_Node000001_Node000002"><a xlink:title=" ">
<path fill="none" stroke="#63b8ff" d="M857.02,-179.52C847.68,-170.18 836.25,-158.75 828.59,-151.09"/>
<polygon fill="#63b8ff" stroke="#63b8ff" points="854.7,-182.15 864.25,-186.75 859.65,-177.2 854.7,-182.15"/>
</a>
</g>
</g>
<!-- Node12 -->
<g id="Node000012" class="node">
<title>Node12</title>
<g id="a_Node000012"><a xlink:href="error_8c.html" target="_top" xlink:title="Implements the thread&#45;local error reporting system.">
<polygon fill="white" stroke="#666666" points="1537.5,-90.5 1448.5,-90.5 1448.5,-71.5 1537.5,-71.5 1537.5,-90.5"/>
<text text-anchor="middle" x="1493" y="-78.5" font-family="Helvetica,sans-Serif" font-size="10.00">src/core/error.c</text>
</a>
</g>
</g>
<!-- Node1&#45;&gt;Node12 -->
<g id="edge28_Node000001_Node000012" class="edge">
<title>Node1&#45;&gt;Node12</title>
<g id="a_edge28_Node000001_Node000012"><a xlink:title=" ">
<path fill="none" stroke="#63b8ff" d="M937.83,-185.95C1043.52,-169.97 1259.32,-135.64 1440,-96 1447.34,-94.39 1455.2,-92.44 1462.56,-90.51"/>
<polygon fill="#63b8ff" stroke="#63b8ff" points="937.01,-182.53 927.64,-187.49 938.05,-189.46 937.01,-182.53"/>
</a>
</g>
</g>
<!-- Node3 -->
<g id="Node000003" class="node">
<title>Node3</title>
<g id="a_Node000003"><a xlink:href="abi__arm64_8c.html" target="_top" xlink:title="Implements the FFI logic for the AArch64 (ARM64) architecture.">
<polygon fill="white" stroke="#666666" points="658.5,-30 543.5,-30 543.5,0 658.5,0 658.5,-30"/>
<text text-anchor="start" x="551.5" y="-18" font-family="Helvetica,sans-Serif" font-size="10.00">src/arch/aarch64/abi</text>
<text text-anchor="middle" x="601" y="-7" font-family="Helvetica,sans-Serif" font-size="10.00">_arm64.c</text>
</a>
</g>
</g>
<!-- Node2&#45;&gt;Node3 -->
<g id="edge2_Node000002_Node000003" class="edge">
<title>Node2&#45;&gt;Node3</title>
<g id="a_edge2_Node000002_Node000003"><a xlink:title=" ">
<path fill="none" stroke="#63b8ff" d="M730.82,-137.11C664.75,-132.5 582.6,-121.63 561,-96 543.99,-75.82 567.21,-47.16 584.73,-30.19"/>
<polygon fill="#63b8ff" stroke="#63b8ff" points="730.64,-140.61 740.85,-137.77 731.1,-133.62 730.64,-140.61"/>
</a>
</g>
</g>
<!-- Node4 -->
<g id="Node000004" class="node">
<title>Node4</title>
<g id="a_Node000004"><a xlink:href="abi__arm64__emitters_8h.html" target="_top" xlink:title="Declares internal helper functions for emitting AArch64 machine code.">
<polygon fill="white" stroke="#666666" points="513.5,-96 398.5,-96 398.5,-66 513.5,-66 513.5,-96"/>
<text text-anchor="start" x="406.5" y="-84" font-family="Helvetica,sans-Serif" font-size="10.00">src/arch/aarch64/abi</text>
<text text-anchor="middle" x="456" y="-73" font-family="Helvetica,sans-Serif" font-size="10.00">_arm64_emitters.h</text>
</a>
</g>
</g>
<!-- Node2&#45;&gt;Node4 -->
<g id="edge3_Node000002_Node000004" class="edge">
<title>Node2&#45;&gt;Node4</title>
<g id="a_edge3_Node000002_Node000004"><a xlink:title=" ">
<path fill="none" stroke="#63b8ff" d="M749.21,-130.54C689.99,-122.01 603.35,-109.06 528,-96 523.36,-95.2 518.55,-94.33 513.73,-93.44"/>
<polygon fill="#63b8ff" stroke="#63b8ff" points="748.81,-134.02 759.2,-131.97 749.8,-127.09 748.81,-134.02"/>
</a>
</g>
</g>
<!-- Node6 -->
<g id="Node000006" class="node">
<title>Node6</title>
<g id="a_Node000006"><a xlink:href="abi__sysv__x64_8c.html" target="_top" xlink:title="Implements the FFI logic for the System V AMD64 ABI.">
<polygon fill="white" stroke="#666666" points="122,-30 0,-30 0,0 122,0 122,-30"/>
<text text-anchor="start" x="8" y="-18" font-family="Helvetica,sans-Serif" font-size="10.00">src/arch/x64/abi_sysv</text>
<text text-anchor="middle" x="61" y="-7" font-family="Helvetica,sans-Serif" font-size="10.00">_x64.c</text>
</a>
</g>
</g>
<!-- Node2&#45;&gt;Node6 -->
<g id="edge6_Node000002_Node000006" class="edge">
<title>Node2&#45;&gt;Node6</title>
<g id="a_edge6_Node000002_Node000006"><a xlink:title=" ">
<path fill="none" stroke="#63b8ff" d="M730.68,-141.4C574.08,-141.85 256.88,-137.4 155,-96 119.86,-81.72 88.38,-48.94 72.29,-30.07"/>
<polygon fill="#63b8ff" stroke="#63b8ff" points="730.78,-144.9 740.76,-141.37 730.75,-137.9 730.78,-144.9"/>
</a>
</g>
</g>
<!-- Node7 -->
<g id="Node000007" class="node">
<title>Node7</title>
<g id="a_Node000007"><a xlink:href="abi__win__x64_8c.html" target="_top" xlink:title="Implements the FFI logic for the Windows x64 calling convention.">
<polygon fill="white" stroke="#666666" points="392,-30 276,-30 276,0 392,0 392,-30"/>
<text text-anchor="start" x="284" y="-18" font-family="Helvetica,sans-Serif" font-size="10.00">src/arch/x64/abi_win</text>
<text text-anchor="middle" x="334" y="-7" font-family="Helvetica,sans-Serif" font-size="10.00">_x64.c</text>
</a>
</g>
</g>
<!-- Node2&#45;&gt;Node7 -->
<g id="edge7_Node000002_Node000007" class="edge">
<title>Node2&#45;&gt;Node7</title>
<g id="a_edge7_Node000002_Node000007"><a xlink:title=" ">
<path fill="none" stroke="#63b8ff" d="M730.83,-139.97C621.81,-137.84 444.91,-129.19 389,-96 363.49,-80.86 347.06,-48.72 339.28,-30.12"/>
<polygon fill="#63b8ff" stroke="#63b8ff" points="730.77,-143.47 740.84,-140.15 730.9,-136.47 730.77,-143.47"/>
</a>
</g>
</g>
<!-- Node8 -->
<g id="Node000008" class="node">
<title>Node8</title>
<g id="a_Node000008"><a xlink:href="abi__x64__emitters_8h.html" target="_top" xlink:title="Declares internal helper functions for emitting x86&#45;64 machine code.">
<polygon fill="white" stroke="#666666" points="281.5,-96 164.5,-96 164.5,-66 281.5,-66 281.5,-96"/>
<text text-anchor="start" x="172.5" y="-84" font-family="Helvetica,sans-Serif" font-size="10.00">src/arch/x64/abi_x64</text>
<text text-anchor="middle" x="223" y="-73" font-family="Helvetica,sans-Serif" font-size="10.00">_emitters.h</text>
</a>
</g>
</g>
<!-- Node2&#45;&gt;Node8 -->
<g id="edge8_Node000002_Node000008" class="edge">
<title>Node2&#45;&gt;Node8</title>
<g id="a_edge8_Node000002_Node000008"><a xlink:title=" ">
<path fill="none" stroke="#63b8ff" d="M730.73,-133.35C632.8,-125.28 471.05,-111.26 332,-96 315.6,-94.2 297.83,-92.02 281.5,-89.92"/>
<polygon fill="#63b8ff" stroke="#63b8ff" points="730.63,-136.86 740.88,-134.19 731.2,-129.88 730.63,-136.86"/>
</a>
</g>
</g>
<!-- Node10 -->
<g id="Node000010" class="node">
<title>Node10</title>
<g id="a_Node000010"><a xlink:href="arena_8c.html" target="_top" xlink:title="Implementation of the internal arena allocator.">
<polygon fill="white" stroke="#666666" points="923,-90.5 829,-90.5 829,-71.5 923,-71.5 923,-90.5"/>
<text text-anchor="middle" x="876" y="-78.5" font-family="Helvetica,sans-Serif" font-size="10.00">src/core/arena.c</text>
</a>
</g>
</g>
<!-- Node2&#45;&gt;Node10 -->
<g id="edge12_Node000002_Node000010" class="edge">
<title>Node2&#45;&gt;Node10</title>
<g id="a_edge12_Node000002_Node000010"><a xlink:title=" ">
<path fill="none" stroke="#63b8ff" d="M835.23,-124.59C845.69,-113.67 859.17,-99.58 867.7,-90.67"/>
<polygon fill="#63b8ff" stroke="#63b8ff" points="832.65,-122.22 828.26,-131.87 837.71,-127.06 832.65,-122.22"/>
</a>
</g>
</g>
<!-- Node2&#45;&gt;Node12 -->
<g id="edge14_Node000002_Node000012" class="edge">
<title>Node2&#45;&gt;Node12</title>
<g id="a_edge14_Node000002_Node000012"><a xlink:title=" ">
<path fill="none" stroke="#63b8ff" d="M909.67,-139.3C1030.79,-136.49 1253.04,-127.12 1440,-96 1448.07,-94.66 1456.7,-92.64 1464.61,-90.54"/>
<polygon fill="#63b8ff" stroke="#63b8ff" points="909.26,-135.81 899.34,-139.53 909.42,-142.8 909.26,-135.81"/>
</a>
</g>
</g>
<!-- Node13 -->
<g id="Node000013" class="node">
<title>Node13</title>
<g id="a_Node000013"><a xlink:href="executor_8c.html" target="_top" xlink:title="Implements OS&#45;level memory management and the internal callback dispatcher.">
<polygon fill="white" stroke="#666666" points="1048.5,-90.5 941.5,-90.5 941.5,-71.5 1048.5,-71.5 1048.5,-90.5"/>
<text text-anchor="middle" x="995" y="-78.5" font-family="Helvetica,sans-Serif" font-size="10.00">src/core/executor.c</text>
</a>
</g>
</g>
<!-- Node2&#45;&gt;Node13 -->
<g id="edge16_Node000002_Node000013" class="edge">
<title>Node2&#45;&gt;Node13</title>
<g id="a_edge16_Node000002_Node000013"><a xlink:title=" ">
<path fill="none" stroke="#63b8ff" d="M854.95,-128.82C888.8,-117.5 939.31,-100.62 969.52,-90.52"/>
<polygon fill="#63b8ff" stroke="#63b8ff" points="853.82,-125.5 845.45,-131.99 856.04,-132.14 853.82,-125.5"/>
</a>
</g>
</g>
<!-- Node14 -->
<g id="Node000014" class="node">
<title>Node14</title>
<g id="a_Node000014"><a xlink:href="loader_8c.html" target="_top" xlink:title="Implements the cross&#45;platform dynamic library loading and symbol resolution API.">
<polygon fill="white" stroke="#666666" points="1163,-90.5 1067,-90.5 1067,-71.5 1163,-71.5 1163,-90.5"/>
<text text-anchor="middle" x="1115" y="-78.5" font-family="Helvetica,sans-Serif" font-size="10.00">src/core/loader.c</text>
</a>
</g>
</g>
<!-- Node2&#45;&gt;Node14 -->
<g id="edge18_Node000002_Node000014" class="edge">
<title>Node2&#45;&gt;Node14</title>
<g id="a_edge18_Node000002_Node000014"><a xlink:title=" ">
<path fill="none" stroke="#63b8ff" d="M880.27,-130.19C928.5,-121.71 997.78,-109.02 1058,-96 1065.67,-94.34 1073.88,-92.42 1081.62,-90.53"/>
<polygon fill="#63b8ff" stroke="#63b8ff" points="879.56,-126.76 870.31,-131.94 880.76,-133.66 879.56,-126.76"/>
</a>
</g>
</g>
<!-- Node15 -->
<g id="Node000015" class="node">
<title>Node15</title>
<g id="a_Node000015"><a xlink:href="signature_8c.html" target="_top" xlink:title="Implements the high&#45;level signature string parser.">
<polygon fill="white" stroke="#666666" points="1293,-90.5 1181,-90.5 1181,-71.5 1293,-71.5 1293,-90.5"/>
<text text-anchor="middle" x="1237" y="-78.5" font-family="Helvetica,sans-Serif" font-size="10.00">src/core/signature.c</text>
</a>
</g>
</g>
<!-- Node2&#45;&gt;Node15 -->
<g id="edge20_Node000002_Node000015" class="edge">
<title>Node2&#45;&gt;Node15</title>
<g id="a_edge20_Node000002_Node000015"><a xlink:title=" ">
<path fill="none" stroke="#63b8ff" d="M909.57,-131.34C980.9,-123.52 1083.16,-111.15 1172,-96 1181.1,-94.45 1190.86,-92.5 1199.98,-90.55"/>
<polygon fill="#63b8ff" stroke="#63b8ff" points="908.84,-127.9 899.28,-132.46 909.6,-134.85 908.84,-127.9"/>
</a>
</g>
</g>
<!-- Node16 -->
<g id="Node000016" class="node">
<title>Node16</title>
<g id="a_Node000016"><a xlink:href="trampoline_8c.html" target="_top" xlink:title="The core engine for JIT compiling FFI trampolines.">
<polygon fill="white" stroke="#666666" points="1430.5,-90.5 1311.5,-90.5 1311.5,-71.5 1430.5,-71.5 1430.5,-90.5"/>
<text text-anchor="middle" x="1371" y="-78.5" font-family="Helvetica,sans-Serif" font-size="10.00">src/core/trampoline.c</text>
</a>
</g>
</g>
<!-- Node2&#45;&gt;Node16 -->
<g id="edge22_Node000002_Node000016" class="edge">
<title>Node2&#45;&gt;Node16</title>
<g id="a_edge22_Node000002_Node000016"><a xlink:title=" ">
<path fill="none" stroke="#63b8ff" d="M909.27,-135.16C1006.29,-128.68 1165.69,-116.06 1302,-96 1312.04,-94.52 1322.82,-92.53 1332.81,-90.52"/>
<polygon fill="#63b8ff" stroke="#63b8ff" points="908.96,-131.67 899.21,-135.82 909.42,-138.66 908.96,-131.67"/>
</a>
</g>
</g>
<!-- Node17 -->
<g id="Node000017" class="node">
<title>Node17</title>
<g id="a_Node000017"><a xlink:href="type__registry_8c.html" target="_top" xlink:title="Implements the named type registry and definition parser.">
<polygon fill="white" stroke="#666666" points="699.5,-90.5 570.5,-90.5 570.5,-71.5 699.5,-71.5 699.5,-90.5"/>
<text text-anchor="middle" x="635" y="-78.5" font-family="Helvetica,sans-Serif" font-size="10.00">src/core/type_registry.c</text>
</a>
</g>
</g>
<!-- Node2&#45;&gt;Node17 -->
<g id="edge24_Node000002_Node000017" class="edge">
<title>Node2&#45;&gt;Node17</title>
<g id="a_edge24_Node000002_Node000017"><a xlink:title=" ">
<path fill="none" stroke="#63b8ff" d="M783.52,-128.96C747.73,-117.65 694.01,-100.66 661.93,-90.52"/>
<polygon fill="#63b8ff" stroke="#63b8ff" points="782.51,-132.32 793.1,-131.99 784.62,-125.64 782.51,-132.32"/>
</a>
</g>
</g>
<!-- Node18 -->
<g id="Node000018" class="node">
<title>Node18</title>
<g id="a_Node000018"><a xlink:href="types_8c.html" target="_top" xlink:title="Implements the public API for creating and managing type descriptions.">
<polygon fill="white" stroke="#666666" points="810.5,-90.5 717.5,-90.5 717.5,-71.5 810.5,-71.5 810.5,-90.5"/>
<text text-anchor="middle" x="764" y="-78.5" font-family="Helvetica,sans-Serif" font-size="10.00">src/core/types.c</text>
</a>
</g>
</g>
<!-- Node2&#45;&gt;Node18 -->
<g id="edge26_Node000002_Node000018" class="edge">
<title>Node2&#45;&gt;Node18</title>
<g id="a_edge26_Node000002_Node000018"><a xlink:title=" ">
<path fill="none" stroke="#63b8ff" d="M804.77,-124.59C794.31,-113.67 780.83,-99.58 772.3,-90.67"/>
<polygon fill="#63b8ff" stroke="#63b8ff" points="802.29,-127.06 811.74,-131.87 807.35,-122.22 802.29,-127.06"/>
</a>
</g>
</g>
<!-- Node4&#45;&gt;Node3 -->
<g id="edge4_Node000004_Node000003" class="edge">
<title>Node4&#45;&gt;Node3</title>
<g id="a_edge4_Node000004_Node000003"><a xlink:title=" ">
<path fill="none" stroke="#63b8ff" d="M497.27,-61.78C520.13,-51.69 548.12,-39.34 569.25,-30.01"/>
<polygon fill="#63b8ff" stroke="#63b8ff" points="495.56,-58.71 487.82,-65.95 498.38,-65.12 495.56,-58.71"/>
</a>
</g>
</g>
<!-- Node5 -->
<g id="Node000005" class="node">
<title>Node5</title>
<g id="a_Node000005"><a xlink:href="abi__arm64__emitters_8c.html" target="_top" xlink:title="Implements internal helper functions for emitting AArch64 machine code.">
<polygon fill="white" stroke="#666666" points="525.5,-30 410.5,-30 410.5,0 525.5,0 525.5,-30"/>
<text text-anchor="start" x="418.5" y="-18" font-family="Helvetica,sans-Serif" font-size="10.00">src/arch/aarch64/abi</text>
<text text-anchor="middle" x="468" y="-7" font-family="Helvetica,sans-Serif" font-size="10.00">_arm64_emitters.c</text>
</a>
</g>
</g>
<!-- Node4&#45;&gt;Node5 -->
<g id="edge5_Node000004_Node000005" class="edge">
<title>Node4&#45;&gt;Node5</title>
<g id="a_edge5_Node000004_Node000005"><a xlink:title=" ">
<path fill="none" stroke="#63b8ff" d="M460.53,-55.83C462.16,-47.17 463.93,-37.7 465.34,-30.16"/>
<polygon fill="#63b8ff" stroke="#63b8ff" points="457.07,-55.32 458.66,-65.8 463.95,-56.61 457.07,-55.32"/>
</a>
</g>
</g>
<!-- Node8&#45;&gt;Node6 -->
<g id="edge9_Node000008_Node000006" class="edge">
<title>Node8&#45;&gt;Node6</title>
<g id="a_edge9_Node000008_Node000006"><a xlink:title=" ">
<path fill="none" stroke="#63b8ff" d="M177.91,-62.19C152.19,-52.02 120.4,-39.47 96.47,-30.01"/>
<polygon fill="#63b8ff" stroke="#63b8ff" points="176.86,-65.54 187.45,-65.95 179.43,-59.03 176.86,-65.54"/>
</a>
</g>
</g>
<!-- Node8&#45;&gt;Node7 -->
<g id="edge10_Node000008_Node000007" class="edge">
<title>Node8&#45;&gt;Node7</title>
<g id="a_edge10_Node000008_Node000007"><a xlink:title=" ">
<path fill="none" stroke="#63b8ff" d="M256.48,-60.69C273.62,-50.82 294.09,-39.01 309.7,-30.01"/>
<polygon fill="#63b8ff" stroke="#63b8ff" points="254.27,-57.93 247.36,-65.95 257.77,-63.99 254.27,-57.93"/>
</a>
</g>
</g>
<!-- Node9 -->
<g id="Node000009" class="node">
<title>Node9</title>
<g id="a_Node000009"><a xlink:href="abi__x64__emitters_8c.html" target="_top" xlink:title="Implements internal helper functions for emitting x86&#45;64 machine code.">
<polygon fill="white" stroke="#666666" points="257.5,-30 140.5,-30 140.5,0 257.5,0 257.5,-30"/>
<text text-anchor="start" x="148.5" y="-18" font-family="Helvetica,sans-Serif" font-size="10.00">src/arch/x64/abi_x64</text>
<text text-anchor="middle" x="199" y="-7" font-family="Helvetica,sans-Serif" font-size="10.00">_emitters.c</text>
</a>
</g>
</g>
<!-- Node8&#45;&gt;Node9 -->
<g id="edge11_Node000008_Node000009" class="edge">
<title>Node8&#45;&gt;Node9</title>
<g id="a_edge11_Node000008_Node000009"><a xlink:title=" ">
<path fill="none" stroke="#63b8ff" d="M214.15,-56.39C210.84,-47.59 207.2,-37.86 204.31,-30.16"/>
<polygon fill="#63b8ff" stroke="#63b8ff" points="210.89,-57.66 217.67,-65.8 217.44,-55.2 210.89,-57.66"/>
</a>
</g>
</g>
<!-- Node11 -->
<g id="Node000011" class="node">
<title>Node11</title>
<g id="a_Node000011"><a xlink:href="infix_8c.html" target="_top" xlink:title="The unity build source file for the infix library.">
<polygon fill="white" stroke="#666666" points="1086.5,-24.5 1023.5,-24.5 1023.5,-5.5 1086.5,-5.5 1086.5,-24.5"/>
<text text-anchor="middle" x="1055" y="-12.5" font-family="Helvetica,sans-Serif" font-size="10.00">src/infix.c</text>
</a>
</g>
</g>
<!-- Node10&#45;&gt;Node11 -->
<g id="edge13_Node000010_Node000011" class="edge">
<title>Node10&#45;&gt;Node11</title>
<g id="a_edge13_Node000010_Node000011"><a xlink:title=" ">
<path fill="none" stroke="#63b8ff" d="M909.56,-68C944.91,-55.36 999.69,-35.78 1030.96,-24.6"/>
<polygon fill="#63b8ff" stroke="#63b8ff" points="908.38,-64.71 900.14,-71.37 910.74,-71.3 908.38,-64.71"/>
</a>
</g>
</g>
<!-- Node12&#45;&gt;Node11 -->
<g id="edge15_Node000012_Node000011" class="edge">
<title>Node12&#45;&gt;Node11</title>
<g id="a_edge15_Node000012_Node000011"><a xlink:title=" ">
<path fill="none" stroke="#63b8ff" d="M1453.6,-68.99C1449.03,-67.9 1444.43,-66.87 1440,-66 1310.03,-40.51 1152.75,-24.69 1086.66,-18.72"/>
<polygon fill="#63b8ff" stroke="#63b8ff" points="1452.89,-72.42 1463.44,-71.47 1454.6,-65.64 1452.89,-72.42"/>
</a>
</g>
</g>
<!-- Node13&#45;&gt;Node11 -->
<g id="edge17_Node000013_Node000011" class="edge">
<title>Node13&#45;&gt;Node11</title>
<g id="a_edge17_Node000013_Node000011"><a xlink:title=" ">
<path fill="none" stroke="#63b8ff" d="M1010.02,-63.98C1021.6,-51.62 1037.2,-34.99 1046.65,-24.91"/>
<polygon fill="#63b8ff" stroke="#63b8ff" points="1007.38,-61.68 1003.09,-71.37 1012.48,-66.47 1007.38,-61.68"/>
</a>
</g>
</g>
<!-- Node14&#45;&gt;Node11 -->
<g id="edge19_Node000014_Node000011" class="edge">
<title>Node14&#45;&gt;Node11</title>
<g id="a_edge19_Node000014_Node000011"><a xlink:title=" ">
<path fill="none" stroke="#63b8ff" d="M1099.98,-63.98C1088.4,-51.62 1072.8,-34.99 1063.35,-24.91"/>
<polygon fill="#63b8ff" stroke="#63b8ff" points="1097.52,-66.47 1106.91,-71.37 1102.62,-61.68 1097.52,-66.47"/>
</a>
</g>
</g>
<!-- Node15&#45;&gt;Node11 -->
<g id="edge21_Node000015_Node000011" class="edge">
<title>Node15&#45;&gt;Node11</title>
<g id="a_edge21_Node000015_Node000011"><a xlink:title=" ">
<path fill="none" stroke="#63b8ff" d="M1202.88,-68C1166.94,-55.36 1111.24,-35.78 1079.45,-24.6"/>
<polygon fill="#63b8ff" stroke="#63b8ff" points="1201.86,-71.35 1212.45,-71.37 1204.18,-64.75 1201.86,-71.35"/>
</a>
</g>
</g>
<!-- Node16&#45;&gt;Node11 -->
<g id="edge23_Node000016_Node000011" class="edge">
<title>Node16&#45;&gt;Node11</title>
<g id="a_edge23_Node000016_Node000011"><a xlink:title=" ">
<path fill="none" stroke="#63b8ff" d="M1318.87,-69.42C1313.17,-68.27 1307.47,-67.11 1302,-66 1224.6,-50.31 1133.55,-31.89 1086.58,-22.39"/>
<polygon fill="#63b8ff" stroke="#63b8ff" points="1318.54,-72.93 1329.04,-71.48 1319.93,-66.06 1318.54,-72.93"/>
</a>
</g>
</g>
<!-- Node17&#45;&gt;Node11 -->
<g id="edge25_Node000017_Node000011" class="edge">
<title>Node17&#45;&gt;Node11</title>
<g id="a_edge25_Node000017_Node000011"><a xlink:title=" ">
<path fill="none" stroke="#63b8ff" d="M688.41,-69.61C695.33,-68.35 702.33,-67.11 709,-66 824.54,-46.73 962.53,-28.1 1023.44,-20.09"/>
<polygon fill="#63b8ff" stroke="#63b8ff" points="687.57,-66.2 678.38,-71.47 688.85,-73.09 687.57,-66.2"/>
</a>
</g>
</g>
<!-- Node18&#45;&gt;Node11 -->
<g id="edge27_Node000018_Node000011" class="edge">
<title>Node18&#45;&gt;Node11</title>
<g id="a_edge27_Node000018_Node000011"><a xlink:title=" ">
<path fill="none" stroke="#63b8ff" d="M807.32,-69.01C811.6,-67.97 815.88,-66.95 820,-66 892.54,-49.22 978.17,-31.53 1023.37,-22.36"/>
<polygon fill="#63b8ff" stroke="#63b8ff" points="806.29,-65.66 797.42,-71.44 807.96,-72.46 806.29,-65.66"/>
</a>
</g>
</g>
</g>
</svg>
