<?xml version="1.0" encoding="UTF-8" standalone="no"?>
<!DOCTYPE svg PUBLIC "-//W3C//DTD SVG 1.1//EN"
 "http://www.w3.org/Graphics/SVG/1.1/DTD/svg11.dtd">
<!-- Generated by graphviz version 2.43.0 (0)
 -->
<!-- Title: src/common/infix_config.h Pages: 1 -->
<!--zoomable 214 -->

<svg id="main" version="1.1" xmlns="http://www.w3.org/2000/svg" xmlns:xlink="http://www.w3.org/1999/xlink" xml:space="preserve" onload="init(evt)">
<style type="text/css"><![CDATA[
.node, .edge {opacity: 0.7;}
.node.selected, .edge.selected {opacity: 1;}
.edge:hover path { stroke: red; }
.edge:hover polygon { stroke: red; fill: red; }
]]></style>

<defs>
  <circle id="rim" cx="0" cy="0" r="7"/>
  <circle id="rim2" cx="0" cy="0" r="3.5"/>
  <g id="zoomPlus">
    <use xlink:href="#rim" fill="#404040"><set attributeName="fill" to="#808080" begin="zoomplus.mouseover" end="zoomplus.mouseout"/></use>
    <path d="M-4,0h8M0,-4v8" fill="none" stroke="white" stroke-width="1.5" pointer-events="none"/>
  </g>
  <g id="zoomMin">
    <use xlink:href="#rim" fill="#404040"><set attributeName="fill" to="#808080" begin="zoomminus.mouseover" end="zoomminus.mouseout"/></use>
    <path d="M-4,0h8" fill="none" stroke="white" stroke-width="1.5" pointer-events="none"/>
  </g>
  <g id="arrowUp" transform="translate(30 24)">
    <use xlink:href="#rim"/>
    <path pointer-events="none" fill="none" stroke="white" stroke-width="1.5" d="M0,-3.0v7 M-2.5,-0.5L0,-3.0L2.5,-0.5"/>
  </g>
  <g id="arrowRight" transform="rotate(90) translate(36 -43)">
    <use xlink:href="#rim"/>
    <path pointer-events="none" fill="none" stroke="white" stroke-width="1.5" d="M0,-3.0v7 M-2.5,-0.5L0,-3.0L2.5,-0.5"/>
  </g>
  <g id="arrowDown" transform="rotate(180) translate(-30 -48)">
    <use xlink:href="#rim"/>
    <path pointer-events="none" fill="none" stroke="white" stroke-width="1.5" d="M0,-3.0v7 M-2.5,-0.5L0,-3.0L2.5,-0.5"/>
  </g>
  <g id="arrowLeft" transform="rotate(270) translate(-36 17)">
    <use xlink:href="#rim"/>
    <path pointer-events="none" fill="none" stroke="white" stroke-width="1.5" d="M0,-3.0v7 M-2.5,-0.5L0,-3.0L2.5,-0.5"/>
  </g>
  <g id="resetDef">
    <use xlink:href="#rim2" fill="#404040"><set attributeName="fill" to="#808080" begin="reset.mouseover" end="reset.mouseout"/></use>
  </g>
</defs>
<script type="application/ecmascript">
var viewWidth = 2410;
var viewHeight = 214;
var sectionId = 'dynsection-0';
</script>
<script type="application/ecmascript" xlink:href="svg.min.js"/>
<svg id="graph" class="graph">
<g id="viewport">
<title>src/common/infix_config.h</title>
<!-- Node1 -->
<g id="Node000001" class="node">
<title>Node1</title>
<g id="a_Node000001"><a xlink:title="Internal&#45;only header for platform, architecture, and ABI detection.">
<polygon fill="#999999" stroke="#666666" points="1952,-206 1808,-206 1808,-187 1952,-187 1952,-206"/>
<text text-anchor="middle" x="1880" y="-194" font-family="Helvetica,sans-Serif" font-size="10.00">src/common/infix_config.h</text>
</a>
</g>
</g>
<!-- Node2 -->
<g id="Node000002" class="node">
<title>Node2</title>
<g id="a_Node000002"><a xlink:href="infix__internals_8h.html" target="_top" xlink:title="Declarations for internal&#45;only functions, types, and constants.">
<polygon fill="white" stroke="#666666" points="1550,-151 1392,-151 1392,-132 1550,-132 1550,-151"/>
<text text-anchor="middle" x="1471" y="-139" font-family="Helvetica,sans-Serif" font-size="10.00">src/common/infix_internals.h</text>
</a>
</g>
</g>
<!-- Node1&#45;&gt;Node2 -->
<g id="edge1_Node000001_Node000002" class="edge">
<title>Node1&#45;&gt;Node2</title>
<g id="a_edge1_Node000001_Node000002"><a xlink:title=" ">
<path fill="none" stroke="#63b8ff" d="M1804.2,-185.68C1727.43,-175.73 1609.9,-160.5 1536.89,-151.04"/>
<polygon fill="#63b8ff" stroke="#63b8ff" points="1803.92,-189.17 1814.29,-186.98 1804.82,-182.23 1803.92,-189.17"/>
</a>
</g>
</g>
<!-- Node28 -->
<g id="Node000028" class="node">
<title>Node28</title>
<g id="a_Node000028"><a xlink:href="001__primitives_8c.html" target="_top" xlink:title="Tests FFI functionality with all supported primitive C types.">
<polygon fill="white" stroke="#666666" points="1672,-151 1568,-151 1568,-132 1672,-132 1672,-151"/>
<text text-anchor="middle" x="1620" y="-139" font-family="Helvetica,sans-Serif" font-size="10.00">t/001_primitives.c</text>
</a>
</g>
</g>
<!-- Node1&#45;&gt;Node28 -->
<g id="edge37_Node000001_Node000028" class="edge">
<title>Node1&#45;&gt;Node28</title>
<g id="a_edge37_Node000001_Node000028"><a xlink:title=" ">
<path fill="none" stroke="#63b8ff" d="M1828.2,-184.94C1779.46,-175.01 1707.39,-160.31 1662.1,-151.08"/>
<polygon fill="#63b8ff" stroke="#63b8ff" points="1827.73,-188.42 1838.23,-186.98 1829.13,-181.56 1827.73,-188.42"/>
</a>
</g>
</g>
<!-- Node29 -->
<g id="Node000029" class="node">
<title>Node29</title>
<g id="a_Node000029"><a xlink:href="101__by__value_8c.html" target="_top" xlink:title="Tests passing and returning small aggregate types (structs) by value.">
<polygon fill="white" stroke="#666666" points="1789.5,-151 1690.5,-151 1690.5,-132 1789.5,-132 1789.5,-151"/>
<text text-anchor="middle" x="1740" y="-139" font-family="Helvetica,sans-Serif" font-size="10.00">t/101_by_value.c</text>
</a>
</g>
</g>
<!-- Node1&#45;&gt;Node29 -->
<g id="edge38_Node000001_Node000029" class="edge">
<title>Node1&#45;&gt;Node29</title>
<g id="a_edge38_Node000001_Node000029"><a xlink:title=" ">
<path fill="none" stroke="#63b8ff" d="M1848.09,-183.42C1822.12,-173.59 1786.08,-159.95 1762.9,-151.17"/>
<polygon fill="#63b8ff" stroke="#63b8ff" points="1846.92,-186.72 1857.51,-186.98 1849.39,-180.17 1846.92,-186.72"/>
</a>
</g>
</g>
<!-- Node30 -->
<g id="Node000030" class="node">
<title>Node30</title>
<g id="a_Node000030"><a xlink:href="402__variadic__functions_8c.html" target="_top" xlink:title="Tests FFI calls for variadic functions.">
<polygon fill="white" stroke="#666666" points="1952,-151 1808,-151 1808,-132 1952,-132 1952,-151"/>
<text text-anchor="middle" x="1880" y="-139" font-family="Helvetica,sans-Serif" font-size="10.00">t/402_variadic_functions.c</text>
</a>
</g>
</g>
<!-- Node1&#45;&gt;Node30 -->
<g id="edge39_Node000001_Node000030" class="edge">
<title>Node1&#45;&gt;Node30</title>
<g id="a_edge39_Node000001_Node000030"><a xlink:title=" ">
<path fill="none" stroke="#63b8ff" d="M1880,-176.66C1880,-167.93 1880,-157.99 1880,-151.09"/>
<polygon fill="#63b8ff" stroke="#63b8ff" points="1876.5,-176.75 1880,-186.75 1883.5,-176.75 1876.5,-176.75"/>
</a>
</g>
</g>
<!-- Node31 -->
<g id="Node000031" class="node">
<title>Node31</title>
<g id="a_Node000031"><a xlink:href="403__special__types_8c.html" target="_top" xlink:title="Tests FFI calls with types that have unique ABI handling rules.">
<polygon fill="white" stroke="#666666" points="2092,-151 1970,-151 1970,-132 2092,-132 2092,-151"/>
<text text-anchor="middle" x="2031" y="-139" font-family="Helvetica,sans-Serif" font-size="10.00">t/403_special_types.c</text>
</a>
</g>
</g>
<!-- Node1&#45;&gt;Node31 -->
<g id="edge40_Node000001_Node000031" class="edge">
<title>Node1&#45;&gt;Node31</title>
<g id="a_edge40_Node000001_Node000031"><a xlink:title=" ">
<path fill="none" stroke="#63b8ff" d="M1914.05,-183.55C1942.09,-173.71 1981.18,-159.98 2006.3,-151.17"/>
<polygon fill="#63b8ff" stroke="#63b8ff" points="1912.54,-180.37 1904.26,-186.98 1914.86,-186.98 1912.54,-180.37"/>
</a>
</g>
</g>
<!-- Node32 -->
<g id="Node000032" class="node">
<title>Node32</title>
<g id="a_Node000032"><a xlink:href="820__threading__helgrind_8c.html" target="_top" xlink:title="A cross&#45;platform test for thread&#45;safety issues using Valgrind&#39;s Helgrind tool or other thread sanitiz...">
<polygon fill="white" stroke="#666666" points="2256,-151 2110,-151 2110,-132 2256,-132 2256,-151"/>
<text text-anchor="middle" x="2183" y="-139" font-family="Helvetica,sans-Serif" font-size="10.00">t/820_threading_helgrind.c</text>
</a>
</g>
</g>
<!-- Node1&#45;&gt;Node32 -->
<g id="edge41_Node000001_Node000032" class="edge">
<title>Node1&#45;&gt;Node32</title>
<g id="a_edge41_Node000001_Node000032"><a xlink:title=" ">
<path fill="none" stroke="#63b8ff" d="M1938.61,-185.25C1995.51,-175.3 2080.87,-160.36 2134.19,-151.04"/>
<polygon fill="#63b8ff" stroke="#63b8ff" points="1937.93,-181.81 1928.68,-186.98 1939.14,-188.71 1937.93,-181.81"/>
</a>
</g>
</g>
<!-- Node33 -->
<g id="Node000033" class="node">
<title>Node33</title>
<g id="a_Node000033"><a xlink:href="821__threading__bare_8c.html" target="_top" xlink:title="A &quot;barebones&quot; thread&#45;safety test with no testing framework dependency.">
<polygon fill="white" stroke="#666666" points="2402,-151 2274,-151 2274,-132 2402,-132 2402,-151"/>
<text text-anchor="middle" x="2338" y="-139" font-family="Helvetica,sans-Serif" font-size="10.00">t/821_threading_bare.c</text>
</a>
</g>
</g>
<!-- Node1&#45;&gt;Node33 -->
<g id="edge42_Node000001_Node000033" class="edge">
<title>Node1&#45;&gt;Node33</title>
<g id="a_edge42_Node000001_Node000033"><a xlink:title=" ">
<path fill="none" stroke="#63b8ff" d="M1962.26,-186.01C2040.21,-177.02 2160.58,-163.11 2265,-151 2267.92,-150.66 2270.9,-150.32 2273.91,-149.97"/>
<polygon fill="#63b8ff" stroke="#63b8ff" points="1961.56,-182.57 1952.02,-187.19 1962.36,-189.52 1961.56,-182.57"/>
</a>
</g>
</g>
<!-- Node3 -->
<g id="Node000003" class="node">
<title>Node3</title>
<g id="a_Node000003"><a xlink:href="fuzz__helpers_8h.html" target="_top" xlink:title="Shared helper functions and types for infix FFI fuzzing harnesses.">
<polygon fill="white" stroke="#666666" points="516,-90.5 406,-90.5 406,-71.5 516,-71.5 516,-90.5"/>
<text text-anchor="middle" x="461" y="-78.5" font-family="Helvetica,sans-Serif" font-size="10.00">fuzz/fuzz_helpers.h</text>
</a>
</g>
</g>
<!-- Node2&#45;&gt;Node3 -->
<g id="edge2_Node000002_Node000003" class="edge">
<title>Node2&#45;&gt;Node3</title>
<g id="a_edge2_Node000002_Node000003"><a xlink:title=" ">
<path fill="none" stroke="#63b8ff" d="M1381.67,-135.33C1177.64,-123.51 682.27,-94.82 516.26,-85.2"/>
<polygon fill="#63b8ff" stroke="#63b8ff" points="1381.56,-138.83 1391.75,-135.91 1381.97,-131.84 1381.56,-138.83"/>
</a>
</g>
</g>
<!-- Node10 -->
<g id="Node000010" class="node">
<title>Node10</title>
<g id="a_Node000010"><a xlink:href="abi__arm64_8c.html" target="_top" xlink:title="Implements the FFI logic for the AArch64 (ARM64) architecture.">
<polygon fill="white" stroke="#666666" points="908.5,-30 793.5,-30 793.5,0 908.5,0 908.5,-30"/>
<text text-anchor="start" x="801.5" y="-18" font-family="Helvetica,sans-Serif" font-size="10.00">src/arch/aarch64/abi</text>
<text text-anchor="middle" x="851" y="-7" font-family="Helvetica,sans-Serif" font-size="10.00">_arm64.c</text>
</a>
</g>
</g>
<!-- Node2&#45;&gt;Node10 -->
<g id="edge9_Node000002_Node000010" class="edge">
<title>Node2&#45;&gt;Node10</title>
<g id="a_edge9_Node000002_Node000010"><a xlink:title=" ">
<path fill="none" stroke="#63b8ff" d="M1381.56,-137.13C1235.29,-131.04 957.08,-116.9 917,-96 888.9,-81.35 868.24,-49.03 858.08,-30.26"/>
<polygon fill="#63b8ff" stroke="#63b8ff" points="1381.72,-140.64 1391.86,-137.55 1382.01,-133.64 1381.72,-140.64"/>
</a>
</g>
</g>
<!-- Node11 -->
<g id="Node000011" class="node">
<title>Node11</title>
<g id="a_Node000011"><a xlink:href="abi__arm64__emitters_8h.html" target="_top" xlink:title="Declares internal helper functions for emitting AArch64 machine code.">
<polygon fill="white" stroke="#666666" points="1041.5,-96 926.5,-96 926.5,-66 1041.5,-66 1041.5,-96"/>
<text text-anchor="start" x="934.5" y="-84" font-family="Helvetica,sans-Serif" font-size="10.00">src/arch/aarch64/abi</text>
<text text-anchor="middle" x="984" y="-73" font-family="Helvetica,sans-Serif" font-size="10.00">_arm64_emitters.h</text>
</a>
</g>
</g>
<!-- Node2&#45;&gt;Node11 -->
<g id="edge10_Node000002_Node000011" class="edge">
<title>Node2&#45;&gt;Node11</title>
<g id="a_edge10_Node000002_Node000011"><a xlink:title=" ">
<path fill="none" stroke="#63b8ff" d="M1381.33,-131.03C1302.22,-122.5 1183.84,-109.29 1081,-96 1068.26,-94.35 1054.6,-92.46 1041.66,-90.61"/>
<polygon fill="#63b8ff" stroke="#63b8ff" points="1381.42,-134.56 1391.74,-132.15 1382.17,-127.6 1381.42,-134.56"/>
</a>
</g>
</g>
<!-- Node13 -->
<g id="Node000013" class="node">
<title>Node13</title>
<g id="a_Node000013"><a xlink:href="abi__sysv__x64_8c.html" target="_top" xlink:title="Implements the FFI logic for the System V AMD64 ABI.">
<polygon fill="white" stroke="#666666" points="1182,-30 1060,-30 1060,0 1182,0 1182,-30"/>
<text text-anchor="start" x="1068" y="-18" font-family="Helvetica,sans-Serif" font-size="10.00">src/arch/x64/abi_sysv</text>
<text text-anchor="middle" x="1121" y="-7" font-family="Helvetica,sans-Serif" font-size="10.00">_x64.c</text>
</a>
</g>
</g>
<!-- Node2&#45;&gt;Node13 -->
<g id="edge13_Node000002_Node000013" class="edge">
<title>Node2&#45;&gt;Node13</title>
<g id="a_edge13_Node000002_Node000013"><a xlink:title=" ">
<path fill="none" stroke="#63b8ff" d="M1381.72,-135.45C1281.79,-128.87 1131.49,-115.8 1114,-96 1098.03,-77.92 1106.84,-47.74 1114.23,-30.07"/>
<polygon fill="#63b8ff" stroke="#63b8ff" points="1381.62,-138.95 1391.83,-136.11 1382.08,-131.97 1381.62,-138.95"/>
</a>
</g>
</g>
<!-- Node14 -->
<g id="Node000014" class="node">
<title>Node14</title>
<g id="a_Node000014"><a xlink:href="abi__win__x64_8c.html" target="_top" xlink:title="Implements the FFI logic for the Windows x64 calling convention.">
<polygon fill="white" stroke="#666666" points="1452,-30 1336,-30 1336,0 1452,0 1452,-30"/>
<text text-anchor="start" x="1344" y="-18" font-family="Helvetica,sans-Serif" font-size="10.00">src/arch/x64/abi_win</text>
<text text-anchor="middle" x="1394" y="-7" font-family="Helvetica,sans-Serif" font-size="10.00">_x64.c</text>
</a>
</g>
</g>
<!-- Node2&#45;&gt;Node14 -->
<g id="edge14_Node000002_Node000014" class="edge">
<title>Node2&#45;&gt;Node14</title>
<g id="a_edge14_Node000002_Node000014"><a xlink:title=" ">
<path fill="none" stroke="#63b8ff" d="M1387.57,-130.32C1345.52,-123.29 1300.77,-112.24 1288,-96 1265.7,-67.63 1310.28,-44.05 1348.3,-30"/>
<polygon fill="#63b8ff" stroke="#63b8ff" points="1387.19,-133.8 1397.62,-131.93 1388.3,-126.89 1387.19,-133.8"/>
</a>
</g>
</g>
<!-- Node15 -->
<g id="Node000015" class="node">
<title>Node15</title>
<g id="a_Node000015"><a xlink:href="abi__x64__emitters_8h.html" target="_top" xlink:title="Declares internal helper functions for emitting x86&#45;64 machine code.">
<polygon fill="white" stroke="#666666" points="1240.5,-96 1123.5,-96 1123.5,-66 1240.5,-66 1240.5,-96"/>
<text text-anchor="start" x="1131.5" y="-84" font-family="Helvetica,sans-Serif" font-size="10.00">src/arch/x64/abi_x64</text>
<text text-anchor="middle" x="1182" y="-73" font-family="Helvetica,sans-Serif" font-size="10.00">_emitters.h</text>
</a>
</g>
</g>
<!-- Node2&#45;&gt;Node15 -->
<g id="edge15_Node000002_Node000015" class="edge">
<title>Node2&#45;&gt;Node15</title>
<g id="a_edge15_Node000002_Node000015"><a xlink:title=" ">
<path fill="none" stroke="#63b8ff" d="M1418.98,-129.97C1368.78,-119.81 1292.9,-104.45 1240.59,-93.86"/>
<polygon fill="#63b8ff" stroke="#63b8ff" points="1418.48,-133.44 1428.98,-131.99 1419.87,-126.58 1418.48,-133.44"/>
</a>
</g>
</g>
<!-- Node17 -->
<g id="Node000017" class="node">
<title>Node17</title>
<g id="a_Node000017"><a xlink:href="arena_8c.html" target="_top" xlink:title="Implementation of the internal arena allocator.">
<polygon fill="white" stroke="#666666" points="2264,-90.5 2170,-90.5 2170,-71.5 2264,-71.5 2264,-90.5"/>
<text text-anchor="middle" x="2217" y="-78.5" font-family="Helvetica,sans-Serif" font-size="10.00">src/core/arena.c</text>
</a>
</g>
</g>
<!-- Node2&#45;&gt;Node17 -->
<g id="edge19_Node000002_Node000017" class="edge">
<title>Node2&#45;&gt;Node17</title>
<g id="a_edge19_Node000002_Node000017"><a xlink:title=" ">
<path fill="none" stroke="#63b8ff" d="M1560.16,-131.95C1827.95,-111.73 1899.31,-136.18 2161,-96 2169.62,-94.68 2178.85,-92.64 2187.27,-90.52"/>
<polygon fill="#63b8ff" stroke="#63b8ff" points="1559.84,-128.46 1550.14,-132.72 1560.38,-135.44 1559.84,-128.46"/>
</a>
</g>
</g>
<!-- Node20 -->
<g id="Node000020" class="node">
<title>Node20</title>
<g id="a_Node000020"><a xlink:href="error_8c.html" target="_top" xlink:title="Implements the thread&#45;local error reporting system.">
<polygon fill="white" stroke="#666666" points="2151.5,-90.5 2062.5,-90.5 2062.5,-71.5 2151.5,-71.5 2151.5,-90.5"/>
<text text-anchor="middle" x="2107" y="-78.5" font-family="Helvetica,sans-Serif" font-size="10.00">src/core/error.c</text>
</a>
</g>
</g>
<!-- Node2&#45;&gt;Node20 -->
<g id="edge22_Node000002_Node000020" class="edge">
<title>Node2&#45;&gt;Node20</title>
<g id="a_edge22_Node000002_Node000020"><a xlink:title=" ">
<path fill="none" stroke="#63b8ff" d="M1560.41,-131.91C1780.58,-113.96 1839.72,-131.77 2054,-96 2062.07,-94.65 2070.7,-92.63 2078.61,-90.54"/>
<polygon fill="#63b8ff" stroke="#63b8ff" points="1559.82,-128.45 1550.15,-132.77 1560.4,-135.43 1559.82,-128.45"/>
</a>
</g>
</g>
<!-- Node21 -->
<g id="Node000021" class="node">
<title>Node21</title>
<g id="a_Node000021"><a xlink:href="executor_8c.html" target="_top" xlink:title="Implements OS&#45;level memory management and the internal callback dispatcher.">
<polygon fill="white" stroke="#666666" points="1404.5,-90.5 1297.5,-90.5 1297.5,-71.5 1404.5,-71.5 1404.5,-90.5"/>
<text text-anchor="middle" x="1351" y="-78.5" font-family="Helvetica,sans-Serif" font-size="10.00">src/core/executor.c</text>
</a>
</g>
</g>
<!-- Node2&#45;&gt;Node21 -->
<g id="edge24_Node000002_Node000021" class="edge">
<title>Node2&#45;&gt;Node21</title>
<g id="a_edge24_Node000002_Node000021"><a xlink:title=" ">
<path fill="none" stroke="#63b8ff" d="M1444.3,-127.48C1421.17,-116.21 1388.39,-100.23 1368.47,-90.52"/>
<polygon fill="#63b8ff" stroke="#63b8ff" points="1443.03,-130.76 1453.55,-131.99 1446.1,-124.47 1443.03,-130.76"/>
</a>
</g>
</g>
<!-- Node22 -->
<g id="Node000022" class="node">
<title>Node22</title>
<g id="a_Node000022"><a xlink:href="loader_8c.html" target="_top" xlink:title="Implements the cross&#45;platform dynamic library loading and symbol resolution API.">
<polygon fill="white" stroke="#666666" points="1519,-90.5 1423,-90.5 1423,-71.5 1519,-71.5 1519,-90.5"/>
<text text-anchor="middle" x="1471" y="-78.5" font-family="Helvetica,sans-Serif" font-size="10.00">src/core/loader.c</text>
</a>
</g>
</g>
<!-- Node2&#45;&gt;Node22 -->
<g id="edge26_Node000002_Node000022" class="edge">
<title>Node2&#45;&gt;Node22</title>
<g id="a_edge26_Node000002_Node000022"><a xlink:title=" ">
<path fill="none" stroke="#63b8ff" d="M1471,-121.66C1471,-111.24 1471,-98.8 1471,-90.67"/>
<polygon fill="#63b8ff" stroke="#63b8ff" points="1467.5,-121.87 1471,-131.87 1474.5,-121.87 1467.5,-121.87"/>
</a>
</g>
</g>
<!-- Node23 -->
<g id="Node000023" class="node">
<title>Node23</title>
<g id="a_Node000023"><a xlink:href="signature_8c.html" target="_top" xlink:title="Implements the high&#45;level signature string parser.">
<polygon fill="white" stroke="#666666" points="1649,-90.5 1537,-90.5 1537,-71.5 1649,-71.5 1649,-90.5"/>
<text text-anchor="middle" x="1593" y="-78.5" font-family="Helvetica,sans-Serif" font-size="10.00">src/core/signature.c</text>
</a>
</g>
</g>
<!-- Node2&#45;&gt;Node23 -->
<g id="edge28_Node000002_Node000023" class="edge">
<title>Node2&#45;&gt;Node23</title>
<g id="a_edge28_Node000002_Node000023"><a xlink:title=" ">
<path fill="none" stroke="#63b8ff" d="M1497.83,-127.63C1521.36,-116.35 1554.9,-100.27 1575.24,-90.52"/>
<polygon fill="#63b8ff" stroke="#63b8ff" points="1496.24,-124.51 1488.74,-131.99 1499.27,-130.83 1496.24,-124.51"/>
</a>
</g>
</g>
<!-- Node24 -->
<g id="Node000024" class="node">
<title>Node24</title>
<g id="a_Node000024"><a xlink:href="trampoline_8c.html" target="_top" xlink:title="The core engine for JIT compiling FFI trampolines.">
<polygon fill="white" stroke="#666666" points="1786.5,-90.5 1667.5,-90.5 1667.5,-71.5 1786.5,-71.5 1786.5,-90.5"/>
<text text-anchor="middle" x="1727" y="-78.5" font-family="Helvetica,sans-Serif" font-size="10.00">src/core/trampoline.c</text>
</a>
</g>
</g>
<!-- Node2&#45;&gt;Node24 -->
<g id="edge30_Node000002_Node000024" class="edge">
<title>Node2&#45;&gt;Node24</title>
<g id="a_edge30_Node000002_Node000024"><a xlink:title=" ">
<path fill="none" stroke="#63b8ff" d="M1518.04,-129.75C1567.49,-118.45 1644.3,-100.9 1689.73,-90.52"/>
<polygon fill="#63b8ff" stroke="#63b8ff" points="1517.19,-126.35 1508.22,-131.99 1518.75,-133.18 1517.19,-126.35"/>
</a>
</g>
</g>
<!-- Node25 -->
<g id="Node000025" class="node">
<title>Node25</title>
<g id="a_Node000025"><a xlink:href="type__registry_8c.html" target="_top" xlink:title="Implements the named type registry and definition parser.">
<polygon fill="white" stroke="#666666" points="1933.5,-90.5 1804.5,-90.5 1804.5,-71.5 1933.5,-71.5 1933.5,-90.5"/>
<text text-anchor="middle" x="1869" y="-78.5" font-family="Helvetica,sans-Serif" font-size="10.00">src/core/type_registry.c</text>
</a>
</g>
</g>
<!-- Node2&#45;&gt;Node25 -->
<g id="edge32_Node000002_Node000025" class="edge">
<title>Node2&#45;&gt;Node25</title>
<g id="a_edge32_Node000002_Node000025"><a xlink:title=" ">
<path fill="none" stroke="#63b8ff" d="M1551.53,-130.69C1617.41,-122.37 1712.92,-109.64 1796,-96 1805.93,-94.37 1816.59,-92.43 1826.61,-90.53"/>
<polygon fill="#63b8ff" stroke="#63b8ff" points="1550.7,-127.27 1541.22,-131.99 1551.57,-134.21 1550.7,-127.27"/>
</a>
</g>
</g>
<!-- Node26 -->
<g id="Node000026" class="node">
<title>Node26</title>
<g id="a_Node000026"><a xlink:href="types_8c.html" target="_top" xlink:title="Implements the public API for creating and managing type descriptions.">
<polygon fill="white" stroke="#666666" points="2044.5,-90.5 1951.5,-90.5 1951.5,-71.5 2044.5,-71.5 2044.5,-90.5"/>
<text text-anchor="middle" x="1998" y="-78.5" font-family="Helvetica,sans-Serif" font-size="10.00">src/core/types.c</text>
</a>
</g>
</g>
<!-- Node2&#45;&gt;Node26 -->
<g id="edge34_Node000002_Node000026" class="edge">
<title>Node2&#45;&gt;Node26</title>
<g id="a_edge34_Node000002_Node000026"><a xlink:title=" ">
<path fill="none" stroke="#63b8ff" d="M1560.26,-131.9C1731.38,-116.11 1777.31,-124.67 1943,-96 1951.16,-94.59 1959.88,-92.6 1967.92,-90.56"/>
<polygon fill="#63b8ff" stroke="#63b8ff" points="1559.78,-128.43 1550.15,-132.84 1560.44,-135.4 1559.78,-128.43"/>
</a>
</g>
</g>
<!-- Node27 -->
<g id="Node000027" class="node">
<title>Node27</title>
<g id="a_Node000027"><a xlink:href="830__security_8c.html" target="_top" xlink:title="A test suite for security hardening and vulnerability prevention.">
<polygon fill="white" stroke="#666666" points="2374,-90.5 2282,-90.5 2282,-71.5 2374,-71.5 2374,-90.5"/>
<text text-anchor="middle" x="2328" y="-78.5" font-family="Helvetica,sans-Serif" font-size="10.00">t/830_security.c</text>
</a>
</g>
</g>
<!-- Node2&#45;&gt;Node27 -->
<g id="edge36_Node000002_Node000027" class="edge">
<title>Node2&#45;&gt;Node27</title>
<g id="a_edge36_Node000002_Node000027"><a xlink:title=" ">
<path fill="none" stroke="#63b8ff" d="M1560.55,-131.93C1877.69,-109.46 1962.2,-142.91 2273,-96 2281.57,-94.71 2290.75,-92.65 2299.11,-90.5"/>
<polygon fill="#63b8ff" stroke="#63b8ff" points="1559.86,-128.47 1550.14,-132.68 1560.37,-135.45 1559.86,-128.47"/>
</a>
</g>
</g>
<!-- Node4 -->
<g id="Node000004" class="node">
<title>Node4</title>
<g id="a_Node000004"><a xlink:href="fuzz__abi_8c.html" target="_top" xlink:title="A fuzzer targeting the ABI&#45;specific classification logic.">
<polygon fill="white" stroke="#666666" points="775.5,-24.5 686.5,-24.5 686.5,-5.5 775.5,-5.5 775.5,-24.5"/>
<text text-anchor="middle" x="731" y="-12.5" font-family="Helvetica,sans-Serif" font-size="10.00">fuzz/fuzz_abi.c</text>
</a>
</g>
</g>
<!-- Node3&#45;&gt;Node4 -->
<g id="edge3_Node000003_Node000004" class="edge">
<title>Node3&#45;&gt;Node4</title>
<g id="a_edge3_Node000003_Node000004"><a xlink:title=" ">
<path fill="none" stroke="#63b8ff" d="M509.12,-69.24C552.96,-59.35 619.43,-44.12 677,-30 684.05,-28.27 691.61,-26.35 698.77,-24.5"/>
<polygon fill="#63b8ff" stroke="#63b8ff" points="508.3,-65.84 499.31,-71.45 509.83,-72.67 508.3,-65.84"/>
</a>
</g>
</g>
<!-- Node5 -->
<g id="Node000005" class="node">
<title>Node5</title>
<g id="a_Node000005"><a xlink:href="fuzz__helpers_8c.html" target="_top" xlink:title="Implementation of the shared recursive infix_type generator for fuzzing.">
<polygon fill="white" stroke="#666666" points="110,-24.5 0,-24.5 0,-5.5 110,-5.5 110,-24.5"/>
<text text-anchor="middle" x="55" y="-12.5" font-family="Helvetica,sans-Serif" font-size="10.00">fuzz/fuzz_helpers.c</text>
</a>
</g>
</g>
<!-- Node3&#45;&gt;Node5 -->
<g id="edge4_Node000003_Node000005" class="edge">
<title>Node3&#45;&gt;Node5</title>
<g id="a_edge4_Node000003_Node000005"><a xlink:title=" ">
<path fill="none" stroke="#63b8ff" d="M395.44,-71.81C326.43,-62.86 214.74,-47.45 119,-30 110.16,-28.39 100.68,-26.44 91.8,-24.51"/>
<polygon fill="#63b8ff" stroke="#63b8ff" points="395.35,-75.32 405.72,-73.13 396.25,-68.38 395.35,-75.32"/>
</a>
</g>
</g>
<!-- Node6 -->
<g id="Node000006" class="node">
<title>Node6</title>
<g id="a_Node000006"><a xlink:href="fuzz__signature_8c.html" target="_top" xlink:title="A libFuzzer&#45;based harness for the infix FFI signature parser.">
<polygon fill="white" stroke="#666666" points="247.5,-24.5 128.5,-24.5 128.5,-5.5 247.5,-5.5 247.5,-24.5"/>
<text text-anchor="middle" x="188" y="-12.5" font-family="Helvetica,sans-Serif" font-size="10.00">fuzz/fuzz_signature.c</text>
</a>
</g>
</g>
<!-- Node3&#45;&gt;Node6 -->
<g id="edge5_Node000003_Node000006" class="edge">
<title>Node3&#45;&gt;Node6</title>
<g id="a_edge5_Node000003_Node000006"><a xlink:title=" ">
<path fill="none" stroke="#63b8ff" d="M414.51,-69.1C360.74,-56.49 273.34,-36.01 224.32,-24.51"/>
<polygon fill="#63b8ff" stroke="#63b8ff" points="413.93,-72.56 424.47,-71.44 415.53,-65.74 413.93,-72.56"/>
</a>
</g>
</g>
<!-- Node7 -->
<g id="Node000007" class="node">
<title>Node7</title>
<g id="a_Node000007"><a xlink:href="fuzz__trampoline_8c.html" target="_top" xlink:title="A dual&#45;purpose fuzzing harness for libFuzzer (Clang) and AFL++ (GCC), focused on the infix FFI trampo...">
<polygon fill="white" stroke="#666666" points="392.5,-24.5 265.5,-24.5 265.5,-5.5 392.5,-5.5 392.5,-24.5"/>
<text text-anchor="middle" x="329" y="-12.5" font-family="Helvetica,sans-Serif" font-size="10.00">fuzz/fuzz_trampoline.c</text>
</a>
</g>
</g>
<!-- Node3&#45;&gt;Node7 -->
<g id="edge6_Node000003_Node000007" class="edge">
<title>Node3&#45;&gt;Node7</title>
<g id="a_edge6_Node000003_Node000007"><a xlink:title=" ">
<path fill="none" stroke="#63b8ff" d="M433.9,-66.86C407.89,-54.25 369.35,-35.56 346.94,-24.7"/>
<polygon fill="#63b8ff" stroke="#63b8ff" points="432.67,-70.16 443.2,-71.37 435.73,-63.86 432.67,-70.16"/>
</a>
</g>
</g>
<!-- Node8 -->
<g id="Node000008" class="node">
<title>Node8</title>
<g id="a_Node000008"><a xlink:href="fuzz__types_8c.html" target="_top" xlink:title="A dual&#45;purpose fuzzing harness for libFuzzer (Clang) and AFL++ (GCC), focused on the infix FFI type c...">
<polygon fill="white" stroke="#666666" points="511.5,-24.5 410.5,-24.5 410.5,-5.5 511.5,-5.5 511.5,-24.5"/>
<text text-anchor="middle" x="461" y="-12.5" font-family="Helvetica,sans-Serif" font-size="10.00">fuzz/fuzz_types.c</text>
</a>
</g>
</g>
<!-- Node3&#45;&gt;Node8 -->
<g id="edge7_Node000003_Node000008" class="edge">
<title>Node3&#45;&gt;Node8</title>
<g id="a_edge7_Node000003_Node000008"><a xlink:title=" ">
<path fill="none" stroke="#63b8ff" d="M461,-61.08C461,-49.13 461,-34.22 461,-24.91"/>
<polygon fill="#63b8ff" stroke="#63b8ff" points="457.5,-61.37 461,-71.37 464.5,-61.37 457.5,-61.37"/>
</a>
</g>
</g>
<!-- Node9 -->
<g id="Node000009" class="node">
<title>Node9</title>
<g id="a_Node000009"><a xlink:href="850__regression__cases_8c.html" target="_top" xlink:title="Contains a data&#45;driven suite of deterministic unit tests for specific bugs found by fuzzing.">
<polygon fill="white" stroke="#666666" points="668.5,-24.5 529.5,-24.5 529.5,-5.5 668.5,-5.5 668.5,-24.5"/>
<text text-anchor="middle" x="599" y="-12.5" font-family="Helvetica,sans-Serif" font-size="10.00">t/850_regression_cases.c</text>
</a>
</g>
</g>
<!-- Node3&#45;&gt;Node9 -->
<g id="edge8_Node000003_Node000009" class="edge">
<title>Node3&#45;&gt;Node9</title>
<g id="a_edge8_Node000003_Node000009"><a xlink:title=" ">
<path fill="none" stroke="#63b8ff" d="M488.97,-67.03C516.17,-54.42 556.71,-35.61 580.24,-24.7"/>
<polygon fill="#63b8ff" stroke="#63b8ff" points="487.21,-63.99 479.61,-71.37 490.16,-70.34 487.21,-63.99"/>
</a>
</g>
</g>
<!-- Node11&#45;&gt;Node10 -->
<g id="edge11_Node000011_Node000010" class="edge">
<title>Node11&#45;&gt;Node10</title>
<g id="a_edge11_Node000011_Node000010"><a xlink:title=" ">
<path fill="none" stroke="#63b8ff" d="M945.58,-61.51C924.72,-51.47 899.33,-39.26 880.12,-30.01"/>
<polygon fill="#63b8ff" stroke="#63b8ff" points="944.28,-64.77 954.81,-65.95 947.32,-58.46 944.28,-64.77"/>
</a>
</g>
</g>
<!-- Node12 -->
<g id="Node000012" class="node">
<title>Node12</title>
<g id="a_Node000012"><a xlink:href="abi__arm64__emitters_8c.html" target="_top" xlink:title="Implements internal helper functions for emitting AArch64 machine code.">
<polygon fill="white" stroke="#666666" points="1041.5,-30 926.5,-30 926.5,0 1041.5,0 1041.5,-30"/>
<text text-anchor="start" x="934.5" y="-18" font-family="Helvetica,sans-Serif" font-size="10.00">src/arch/aarch64/abi</text>
<text text-anchor="middle" x="984" y="-7" font-family="Helvetica,sans-Serif" font-size="10.00">_arm64_emitters.c</text>
</a>
</g>
</g>
<!-- Node11&#45;&gt;Node12 -->
<g id="edge12_Node000011_Node000012" class="edge">
<title>Node11&#45;&gt;Node12</title>
<g id="a_edge12_Node000011_Node000012"><a xlink:title=" ">
<path fill="none" stroke="#63b8ff" d="M984,-55.54C984,-46.96 984,-37.61 984,-30.16"/>
<polygon fill="#63b8ff" stroke="#63b8ff" points="980.5,-55.8 984,-65.8 987.5,-55.8 980.5,-55.8"/>
</a>
</g>
</g>
<!-- Node15&#45;&gt;Node13 -->
<g id="edge16_Node000015_Node000013" class="edge">
<title>Node15&#45;&gt;Node13</title>
<g id="a_edge16_Node000015_Node000013"><a xlink:title=" ">
<path fill="none" stroke="#63b8ff" d="M1161.38,-58.37C1152.51,-49.06 1142.39,-38.44 1134.5,-30.16"/>
<polygon fill="#63b8ff" stroke="#63b8ff" points="1159.03,-60.97 1168.46,-65.8 1164.1,-56.14 1159.03,-60.97"/>
</a>
</g>
</g>
<!-- Node15&#45;&gt;Node14 -->
<g id="edge17_Node000015_Node000014" class="edge">
<title>Node15&#45;&gt;Node14</title>
<g id="a_edge17_Node000015_Node000014"><a xlink:title=" ">
<path fill="none" stroke="#63b8ff" d="M1238.35,-62.99C1272.46,-52.69 1315.44,-39.72 1347.58,-30.01"/>
<polygon fill="#63b8ff" stroke="#63b8ff" points="1237.09,-59.71 1228.52,-65.95 1239.11,-66.42 1237.09,-59.71"/>
</a>
</g>
</g>
<!-- Node16 -->
<g id="Node000016" class="node">
<title>Node16</title>
<g id="a_Node000016"><a xlink:href="abi__x64__emitters_8c.html" target="_top" xlink:title="Implements internal helper functions for emitting x86&#45;64 machine code.">
<polygon fill="white" stroke="#666666" points="1317.5,-30 1200.5,-30 1200.5,0 1317.5,0 1317.5,-30"/>
<text text-anchor="start" x="1208.5" y="-18" font-family="Helvetica,sans-Serif" font-size="10.00">src/arch/x64/abi_x64</text>
<text text-anchor="middle" x="1259" y="-7" font-family="Helvetica,sans-Serif" font-size="10.00">_emitters.c</text>
</a>
</g>
</g>
<!-- Node15&#45;&gt;Node16 -->
<g id="edge18_Node000015_Node000016" class="edge">
<title>Node15&#45;&gt;Node16</title>
<g id="a_edge18_Node000015_Node000016"><a xlink:title=" ">
<path fill="none" stroke="#63b8ff" d="M1207.02,-59.2C1218.45,-49.7 1231.7,-38.69 1241.96,-30.16"/>
<polygon fill="#63b8ff" stroke="#63b8ff" points="1204.54,-56.71 1199.09,-65.8 1209.02,-62.1 1204.54,-56.71"/>
</a>
</g>
</g>
<!-- Node18 -->
<g id="Node000018" class="node">
<title>Node18</title>
<g id="a_Node000018"><a xlink:href="infix_8c.html" target="_top" xlink:title="The unity build source file for the infix library.">
<polygon fill="white" stroke="#666666" points="1829.5,-24.5 1766.5,-24.5 1766.5,-5.5 1829.5,-5.5 1829.5,-24.5"/>
<text text-anchor="middle" x="1798" y="-12.5" font-family="Helvetica,sans-Serif" font-size="10.00">src/infix.c</text>
</a>
</g>
</g>
<!-- Node17&#45;&gt;Node18 -->
<g id="edge20_Node000017_Node000018" class="edge">
<title>Node17&#45;&gt;Node18</title>
<g id="a_edge20_Node000017_Node000018"><a xlink:title=" ">
<path fill="none" stroke="#63b8ff" d="M2175.55,-69.11C2170.66,-67.98 2165.73,-66.91 2161,-66 2039.52,-42.52 1893.09,-25.86 1829.75,-19.2"/>
<polygon fill="#63b8ff" stroke="#63b8ff" points="2174.9,-72.55 2185.44,-71.48 2176.54,-65.74 2174.9,-72.55"/>
</a>
</g>
</g>
<!-- Node19 -->
<g id="Node000019" class="node">
<title>Node19</title>
<g id="a_Node000019"><a xlink:href="840__arena__allocator_8c.html" target="_top" xlink:title="Unit tests for the internal arena allocator.">
<polygon fill="white" stroke="#666666" points="2282,-24.5 2152,-24.5 2152,-5.5 2282,-5.5 2282,-24.5"/>
<text text-anchor="middle" x="2217" y="-12.5" font-family="Helvetica,sans-Serif" font-size="10.00">t/840_arena_allocator.c</text>
</a>
</g>
</g>
<!-- Node17&#45;&gt;Node19 -->
<g id="edge21_Node000017_Node000019" class="edge">
<title>Node17&#45;&gt;Node19</title>
<g id="a_edge21_Node000017_Node000019"><a xlink:title=" ">
<path fill="none" stroke="#63b8ff" d="M2217,-61.08C2217,-49.13 2217,-34.22 2217,-24.91"/>
<polygon fill="#63b8ff" stroke="#63b8ff" points="2213.5,-61.37 2217,-71.37 2220.5,-61.37 2213.5,-61.37"/>
</a>
</g>
</g>
<!-- Node20&#45;&gt;Node18 -->
<g id="edge23_Node000020_Node000018" class="edge">
<title>Node20&#45;&gt;Node18</title>
<g id="a_edge23_Node000020_Node000018"><a xlink:title=" ">
<path fill="none" stroke="#63b8ff" d="M2066.01,-68.89C2061.96,-67.88 2057.91,-66.9 2054,-66 1973.67,-47.57 1878.17,-30.07 1829.67,-21.5"/>
<polygon fill="#63b8ff" stroke="#63b8ff" points="2065.42,-72.35 2075.98,-71.44 2067.16,-65.57 2065.42,-72.35"/>
</a>
</g>
</g>
<!-- Node21&#45;&gt;Node18 -->
<g id="edge25_Node000021_Node000018" class="edge">
<title>Node21&#45;&gt;Node18</title>
<g id="a_edge25_Node000021_Node000018"><a xlink:title=" ">
<path fill="none" stroke="#63b8ff" d="M1397.01,-69.28C1402.72,-68.1 1408.48,-66.97 1414,-66 1544.11,-43.12 1700.72,-25.91 1766.5,-19.14"/>
<polygon fill="#63b8ff" stroke="#63b8ff" points="1395.92,-65.93 1386.87,-71.45 1397.38,-72.78 1395.92,-65.93"/>
</a>
</g>
</g>
<!-- Node22&#45;&gt;Node18 -->
<g id="edge27_Node000022_Node000018" class="edge">
<title>Node22&#45;&gt;Node18</title>
<g id="a_edge27_Node000022_Node000018"><a xlink:title=" ">
<path fill="none" stroke="#63b8ff" d="M1514.35,-69.08C1518.95,-68 1523.57,-66.95 1528,-66 1613.75,-47.54 1715.72,-29.79 1766.29,-21.26"/>
<polygon fill="#63b8ff" stroke="#63b8ff" points="1513.29,-65.73 1504.38,-71.46 1514.92,-72.54 1513.29,-65.73"/>
</a>
</g>
</g>
<!-- Node23&#45;&gt;Node18 -->
<g id="edge29_Node000023_Node000018" class="edge">
<title>Node23&#45;&gt;Node18</title>
<g id="a_edge29_Node000023_Node000018"><a xlink:title=" ">
<path fill="none" stroke="#63b8ff" d="M1630.4,-68.32C1670.84,-55.7 1734.35,-35.87 1770.46,-24.6"/>
<polygon fill="#63b8ff" stroke="#63b8ff" points="1629.15,-65.05 1620.65,-71.37 1631.24,-71.73 1629.15,-65.05"/>
</a>
</g>
</g>
<!-- Node24&#45;&gt;Node18 -->
<g id="edge31_Node000024_Node000018" class="edge">
<title>Node24&#45;&gt;Node18</title>
<g id="a_edge31_Node000024_Node000018"><a xlink:title=" ">
<path fill="none" stroke="#63b8ff" d="M1744.38,-64.33C1758.13,-51.94 1776.83,-35.09 1788.12,-24.91"/>
<polygon fill="#63b8ff" stroke="#63b8ff" points="1741.66,-62.07 1736.58,-71.37 1746.35,-67.27 1741.66,-62.07"/>
</a>
</g>
</g>
<!-- Node25&#45;&gt;Node18 -->
<g id="edge33_Node000025_Node000018" class="edge">
<title>Node25&#45;&gt;Node18</title>
<g id="a_edge33_Node000025_Node000018"><a xlink:title=" ">
<path fill="none" stroke="#63b8ff" d="M1851.62,-64.33C1837.87,-51.94 1819.17,-35.09 1807.88,-24.91"/>
<polygon fill="#63b8ff" stroke="#63b8ff" points="1849.65,-67.27 1859.42,-71.37 1854.34,-62.07 1849.65,-67.27"/>
</a>
</g>
</g>
<!-- Node26&#45;&gt;Node18 -->
<g id="edge35_Node000026_Node000018" class="edge">
<title>Node26&#45;&gt;Node18</title>
<g id="a_edge35_Node000026_Node000018"><a xlink:title=" ">
<path fill="none" stroke="#63b8ff" d="M1961.26,-68.24C1921.79,-55.61 1860.02,-35.85 1824.86,-24.6"/>
<polygon fill="#63b8ff" stroke="#63b8ff" points="1960.44,-71.65 1971.03,-71.37 1962.57,-64.99 1960.44,-71.65"/>
</a>
</g>
</g>
</g>
</svg>

<g id="navigator" transform="translate(0 0)" fill="#404254">
  <rect fill="#f2f5e9" fill-opacity="0.5" stroke="#606060" stroke-width=".5" x="0" y="0" width="60" height="60"/>
  <use id="zoomplus" xlink:href="#zoomPlus" x="17" y="9" onmousedown="handleZoom(evt,'in')"/>
  <use id="zoomminus" xlink:href="#zoomMin" x="42" y="9" onmousedown="handleZoom(evt,'out')"/>
  <use id="reset" xlink:href="#resetDef" x="30" y="36" onmousedown="handleReset()"/>
   <use id="arrowup" xlink:href="#arrowUp" x="0" y="0" onmousedown="handlePan(0,-1)"/>
  <use id="arrowright" xlink:href="#arrowRight" x="0" y="0" onmousedown="handlePan(1,0)"/>
  <use id="arrowdown" xlink:href="#arrowDown" x="0" y="0" onmousedown="handlePan(0,1)"/>
  <use id="arrowleft" xlink:href="#arrowLeft" x="0" y="0" onmousedown="handlePan(-1,0)"/>
</g>
<svg viewBox="0 0 15 15" width="100%" height="30px" preserveAspectRatio="xMaxYMin meet">
 <g id="arrow_out" transform="scale(0.3 0.3)">
  <a xlink:href="infix__config_8h__dep__incl_org.svg" target="_base">
   <rect id="button" ry="5" rx="5" y="6" x="6" height="38" width="38"
        fill="#f2f5e9" fill-opacity="0.5" stroke="#606060" stroke-width="1.0"/>
   <path id="arrow"
     d="M 11.500037,31.436501 C 11.940474,20.09759 22.043105,11.32322 32.158766,21.979434 L 37.068811,17.246167 C 37.068811,17.246167 37.088388,32 37.088388,32 L 22.160133,31.978069 C 22.160133,31.978069 26.997745,27.140456 26.997745,27.140456 C 18.528582,18.264221 13.291696,25.230495 11.500037,31.436501 z"
     style="fill:#404040;"/>
  </a>
 </g>
</svg>

<style type='text/css'>
<![CDATA[
[data-mouse-over-selected='false'] { opacity: 0.7; }
[data-mouse-over-selected='true']  { opacity: 1.0; }
]]>
</style>
<script type="application/ecmascript"><![CDATA[
document.addEventListener('DOMContentLoaded', (event) => {
  highlightEdges();
  highlightAdjacentNodes();
});
]]></script>
</svg>
