<?xml version="1.0" encoding="UTF-8" standalone="no"?>
<!DOCTYPE svg PUBLIC "-//W3C//DTD SVG 1.1//EN"
 "http://www.w3.org/Graphics/SVG/1.1/DTD/svg11.dtd">
<!-- Generated by graphviz version 2.43.0 (0)
 -->
<!-- Title: src/common/platform.h Pages: 1 -->
<svg width="335pt" height="137pt"
 viewBox="0.00 0.00 334.50 137.00" xmlns="http://www.w3.org/2000/svg" xmlns:xlink="http://www.w3.org/1999/xlink">
<g id="graph0" class="graph" transform="scale(1 1) rotate(0) translate(4 133)">
<title>src/common/platform.h</title>
<!-- Node1 -->
<g id="Node000001" class="node">
<title>Node1</title>
<g id="a_Node000001"><a xlink:title="Declares internal, runtime CPU/OS feature detection functions.">
<polygon fill="#999999" stroke="#666666" points="181.5,-129 50.5,-129 50.5,-110 181.5,-110 181.5,-129"/>
<text text-anchor="middle" x="116" y="-117" font-family="Helvetica,sans-Serif" font-size="10.00">src/common/platform.h</text>
</a>
</g>
</g>
<!-- Node2 -->
<g id="Node000002" class="node">
<title>Node2</title>
<g id="a_Node000002"><a xlink:href="compat__c23_8h.html" target="_top" xlink:title="Provides forward compatibility macros for C23 features.">
<polygon fill="white" stroke="#666666" points="181.5,-74 50.5,-74 50.5,-55 181.5,-55 181.5,-74"/>
<text text-anchor="middle" x="116" y="-62" font-family="Helvetica,sans-Serif" font-size="10.00">common/compat_c23.h</text>
</a>
</g>
</g>
<!-- Node1&#45;&gt;Node2 -->
<g id="edge1_Node000001_Node000002" class="edge">
<title>Node1&#45;&gt;Node2</title>
<g id="a_edge1_Node000001_Node000002"><a xlink:title=" ">
<path fill="none" stroke="#63b8ff" d="M116,-109.75C116,-102.8 116,-92.85 116,-84.13"/>
<polygon fill="#63b8ff" stroke="#63b8ff" points="119.5,-84.09 116,-74.09 112.5,-84.09 119.5,-84.09"/>
</a>
</g>
</g>
<!-- Node3 -->
<g id="Node000003" class="node">
<title>Node3</title>
<g id="a_Node000003"><a xlink:title=" ">
<polygon fill="#e0e0e0" stroke="#999999" points="62,-19 0,-19 0,0 62,0 62,-19"/>
<text text-anchor="middle" x="31" y="-7" font-family="Helvetica,sans-Serif" font-size="10.00">stdbool.h</text>
</a>
</g>
</g>
<!-- Node1&#45;&gt;Node3 -->
<g id="edge5_Node000001_Node000003" class="edge">
<title>Node1&#45;&gt;Node3</title>
<g id="a_edge5_Node000001_Node000003"><a xlink:title=" ">
<path fill="none" stroke="#63b8ff" d="M90.36,-109.88C73.6,-102.87 52.72,-91.29 41,-74 32.1,-60.87 30,-42.73 29.89,-29.2"/>
<polygon fill="#63b8ff" stroke="#63b8ff" points="33.39,-29.23 30.17,-19.14 26.4,-29.04 33.39,-29.23"/>
</a>
</g>
</g>
<!-- Node5 -->
<g id="Node000005" class="node">
<title>Node5</title>
<g id="a_Node000005"><a xlink:href="infix__config_8h.html" target="_top" xlink:title="Platform, architecture, and ABI detection macros.">
<polygon fill="white" stroke="#666666" points="326.5,-74 199.5,-74 199.5,-55 326.5,-55 326.5,-74"/>
<text text-anchor="middle" x="263" y="-62" font-family="Helvetica,sans-Serif" font-size="10.00">common/infix_config.h</text>
</a>
</g>
</g>
<!-- Node1&#45;&gt;Node5 -->
<g id="edge4_Node000001_Node000005" class="edge">
<title>Node1&#45;&gt;Node5</title>
<g id="a_edge4_Node000001_Node000005"><a xlink:title=" ">
<path fill="none" stroke="#63b8ff" d="M139.62,-109.98C163.9,-101.23 201.95,-87.51 229.37,-77.62"/>
<polygon fill="#63b8ff" stroke="#63b8ff" points="230.73,-80.85 238.95,-74.17 228.36,-74.27 230.73,-80.85"/>
</a>
</g>
</g>
<!-- Node2&#45;&gt;Node3 -->
<g id="edge2_Node000002_Node000003" class="edge">
<title>Node2&#45;&gt;Node3</title>
<g id="a_edge2_Node000002_Node000003"><a xlink:title=" ">
<path fill="none" stroke="#63b8ff" d="M102.34,-54.98C89.16,-46.77 68.97,-34.18 53.43,-24.49"/>
<polygon fill="#63b8ff" stroke="#63b8ff" points="55.24,-21.49 44.91,-19.17 51.54,-27.43 55.24,-21.49"/>
</a>
</g>
</g>
<!-- Node4 -->
<g id="Node000004" class="node">
<title>Node4</title>
<g id="a_Node000004"><a xlink:title=" ">
<polygon fill="#e0e0e0" stroke="#999999" points="144,-19 88,-19 88,0 144,0 144,-19"/>
<text text-anchor="middle" x="116" y="-7" font-family="Helvetica,sans-Serif" font-size="10.00">stddef.h</text>
</a>
</g>
</g>
<!-- Node2&#45;&gt;Node4 -->
<g id="edge3_Node000002_Node000004" class="edge">
<title>Node2&#45;&gt;Node4</title>
<g id="a_edge3_Node000002_Node000004"><a xlink:title=" ">
<path fill="none" stroke="#63b8ff" d="M116,-54.75C116,-47.8 116,-37.85 116,-29.13"/>
<polygon fill="#63b8ff" stroke="#63b8ff" points="119.5,-29.09 116,-19.09 112.5,-29.09 119.5,-29.09"/>
</a>
</g>
</g>
</g>
</svg>
