<?xml version="1.0" encoding="UTF-8" standalone="no"?>
<!DOCTYPE svg PUBLIC "-//W3C//DTD SVG 1.1//EN"
 "http://www.w3.org/Graphics/SVG/1.1/DTD/svg11.dtd">
<!-- Generated by graphviz version 2.43.0 (0)
 -->
<!-- Title: src/core/platform.c Pages: 1 -->
<svg width="370pt" height="247pt"
 viewBox="0.00 0.00 369.94 247.00" xmlns="http://www.w3.org/2000/svg" xmlns:xlink="http://www.w3.org/1999/xlink">
<g id="graph0" class="graph" transform="scale(1 1) rotate(0) translate(4 243)">
<title>src/core/platform.c</title>
<!-- Node1 -->
<g id="Node000001" class="node">
<title>Node1</title>
<g id="a_Node000001"><a xlink:title="Implements runtime detection of CPU and OS features.">
<polygon fill="#999999" stroke="#666666" points="329.44,-239 221.44,-239 221.44,-220 329.44,-220 329.44,-239"/>
<text text-anchor="middle" x="275.44" y="-227" font-family="Helvetica,sans-Serif" font-size="10.00">src/core/platform.c</text>
</a>
</g>
</g>
<!-- Node2 -->
<g id="Node000002" class="node">
<title>Node2</title>
<g id="a_Node000002"><a xlink:href="platform_8h.html" target="_top" xlink:title="Declares internal, runtime CPU/OS feature detection functions.">
<polygon fill="white" stroke="#666666" points="184.94,-184 71.94,-184 71.94,-165 184.94,-165 184.94,-184"/>
<text text-anchor="middle" x="128.44" y="-172" font-family="Helvetica,sans-Serif" font-size="10.00">common/platform.h</text>
</a>
</g>
</g>
<!-- Node1&#45;&gt;Node2 -->
<g id="edge1_Node000001_Node000002" class="edge">
<title>Node1&#45;&gt;Node2</title>
<g id="a_edge1_Node000001_Node000002"><a xlink:title=" ">
<path fill="none" stroke="#63b8ff" d="M251.82,-219.98C227.53,-211.23 189.49,-197.51 162.07,-187.62"/>
<polygon fill="#63b8ff" stroke="#63b8ff" points="163.08,-184.27 152.49,-184.17 160.71,-190.85 163.08,-184.27"/>
</a>
</g>
</g>
<!-- Node5 -->
<g id="Node000005" class="node">
<title>Node5</title>
<g id="a_Node000005"><a xlink:href="infix_8h.html" target="_top" xlink:title="The public interface for the infix FFI library.">
<polygon fill="white" stroke="#666666" points="310.94,-74 239.94,-74 239.94,-55 310.94,-55 310.94,-74"/>
<text text-anchor="middle" x="275.44" y="-62" font-family="Helvetica,sans-Serif" font-size="10.00">infix/infix.h</text>
</a>
</g>
</g>
<!-- Node1&#45;&gt;Node5 -->
<g id="edge12_Node000001_Node000005" class="edge">
<title>Node1&#45;&gt;Node5</title>
<g id="a_edge12_Node000001_Node000005"><a xlink:title=" ">
<path fill="none" stroke="#63b8ff" d="M275.44,-219.74C275.44,-194.31 275.44,-120.08 275.44,-84.69"/>
<polygon fill="#63b8ff" stroke="#63b8ff" points="278.94,-84.31 275.44,-74.31 271.94,-84.31 278.94,-84.31"/>
</a>
</g>
</g>
<!-- Node8 -->
<g id="Node000008" class="node">
<title>Node8</title>
<g id="a_Node000008"><a xlink:title=" ">
<polygon fill="#e0e0e0" stroke="#999999" points="361.94,-19 308.94,-19 308.94,0 361.94,0 361.94,-19"/>
<text text-anchor="middle" x="335.44" y="-7" font-family="Helvetica,sans-Serif" font-size="10.00">stdint.h</text>
</a>
</g>
</g>
<!-- Node1&#45;&gt;Node8 -->
<g id="edge13_Node000001_Node000008" class="edge">
<title>Node1&#45;&gt;Node8</title>
<g id="a_edge13_Node000001_Node000008"><a xlink:title=" ">
<path fill="none" stroke="#63b8ff" d="M278.22,-220C281.12,-211.07 285.74,-196.59 289.44,-184 305.86,-128.08 322.84,-61.26 330.8,-29.32"/>
<polygon fill="#63b8ff" stroke="#63b8ff" points="334.29,-29.76 333.3,-19.21 327.5,-28.07 334.29,-29.76"/>
</a>
</g>
</g>
<!-- Node3 -->
<g id="Node000003" class="node">
<title>Node3</title>
<g id="a_Node000003"><a xlink:href="compat__c23_8h.html" target="_top" xlink:title="Provides forward compatibility macros for C23 features.">
<polygon fill="white" stroke="#666666" points="240.94,-129 109.94,-129 109.94,-110 240.94,-110 240.94,-129"/>
<text text-anchor="middle" x="175.44" y="-117" font-family="Helvetica,sans-Serif" font-size="10.00">common/compat_c23.h</text>
</a>
</g>
</g>
<!-- Node2&#45;&gt;Node3 -->
<g id="edge2_Node000002_Node000003" class="edge">
<title>Node2&#45;&gt;Node3</title>
<g id="a_edge2_Node000002_Node000003"><a xlink:title=" ">
<path fill="none" stroke="#63b8ff" d="M136.2,-164.75C142.91,-157.18 152.78,-146.05 160.95,-136.84"/>
<polygon fill="#63b8ff" stroke="#63b8ff" points="163.81,-138.89 167.82,-129.09 158.57,-134.25 163.81,-138.89"/>
</a>
</g>
</g>
<!-- Node4 -->
<g id="Node000004" class="node">
<title>Node4</title>
<g id="a_Node000004"><a xlink:href="infix__config_8h.html" target="_top" xlink:title="Platform, architecture, and ABI detection macros.">
<polygon fill="white" stroke="#666666" points="144.94,-74 17.94,-74 17.94,-55 144.94,-55 144.94,-74"/>
<text text-anchor="middle" x="81.44" y="-62" font-family="Helvetica,sans-Serif" font-size="10.00">common/infix_config.h</text>
</a>
</g>
</g>
<!-- Node2&#45;&gt;Node4 -->
<g id="edge10_Node000002_Node000004" class="edge">
<title>Node2&#45;&gt;Node4</title>
<g id="a_edge10_Node000002_Node000004"><a xlink:title=" ">
<path fill="none" stroke="#63b8ff" d="M121.89,-164.7C115.67,-156.01 106.4,-142.13 100.44,-129 93.89,-114.57 88.89,-97.3 85.67,-84.41"/>
<polygon fill="#63b8ff" stroke="#63b8ff" points="89.01,-83.32 83.3,-74.4 82.19,-84.94 89.01,-83.32"/>
</a>
</g>
</g>
<!-- Node6 -->
<g id="Node000006" class="node">
<title>Node6</title>
<g id="a_Node000006"><a xlink:title=" ">
<polygon fill="#e0e0e0" stroke="#999999" points="204.44,-19 142.44,-19 142.44,0 204.44,0 204.44,-19"/>
<text text-anchor="middle" x="173.44" y="-7" font-family="Helvetica,sans-Serif" font-size="10.00">stdbool.h</text>
</a>
</g>
</g>
<!-- Node2&#45;&gt;Node6 -->
<g id="edge11_Node000002_Node000006" class="edge">
<title>Node2&#45;&gt;Node6</title>
<g id="a_edge11_Node000002_Node000006"><a xlink:title=" ">
<path fill="none" stroke="#63b8ff" d="M107,-164.96C63.79,-146.51 -26.73,-100.91 8.44,-55 23.43,-35.43 88.49,-22.52 132.29,-15.86"/>
<polygon fill="#63b8ff" stroke="#63b8ff" points="132.99,-19.3 142.38,-14.38 131.98,-12.37 132.99,-19.3"/>
</a>
</g>
</g>
<!-- Node3&#45;&gt;Node4 -->
<g id="edge3_Node000003_Node000004" class="edge">
<title>Node3&#45;&gt;Node4</title>
<g id="a_edge3_Node000003_Node000004"><a xlink:title=" ">
<path fill="none" stroke="#63b8ff" d="M160.34,-109.98C145.62,-101.69 123.01,-88.94 105.76,-79.22"/>
<polygon fill="#63b8ff" stroke="#63b8ff" points="107.25,-76.03 96.82,-74.17 103.81,-82.13 107.25,-76.03"/>
</a>
</g>
</g>
<!-- Node3&#45;&gt;Node5 -->
<g id="edge4_Node000003_Node000005" class="edge">
<title>Node3&#45;&gt;Node5</title>
<g id="a_edge4_Node000003_Node000005"><a xlink:title=" ">
<path fill="none" stroke="#63b8ff" d="M191.51,-109.98C207.3,-101.61 231.66,-88.7 250.07,-78.95"/>
<polygon fill="#63b8ff" stroke="#63b8ff" points="251.88,-81.95 259.08,-74.17 248.61,-75.76 251.88,-81.95"/>
</a>
</g>
</g>
<!-- Node3&#45;&gt;Node6 -->
<g id="edge8_Node000003_Node000006" class="edge">
<title>Node3&#45;&gt;Node6</title>
<g id="a_edge8_Node000003_Node000006"><a xlink:title=" ">
<path fill="none" stroke="#63b8ff" d="M175.28,-109.66C174.95,-92.17 174.22,-52.8 173.79,-29.27"/>
<polygon fill="#63b8ff" stroke="#63b8ff" points="177.28,-29.09 173.6,-19.16 170.29,-29.22 177.28,-29.09"/>
</a>
</g>
</g>
<!-- Node7 -->
<g id="Node000007" class="node">
<title>Node7</title>
<g id="a_Node000007"><a xlink:title=" ">
<polygon fill="#e0e0e0" stroke="#999999" points="286.44,-19 230.44,-19 230.44,0 286.44,0 286.44,-19"/>
<text text-anchor="middle" x="258.44" y="-7" font-family="Helvetica,sans-Serif" font-size="10.00">stddef.h</text>
</a>
</g>
</g>
<!-- Node3&#45;&gt;Node7 -->
<g id="edge9_Node000003_Node000007" class="edge">
<title>Node3&#45;&gt;Node7</title>
<g id="a_edge9_Node000003_Node000007"><a xlink:title=" ">
<path fill="none" stroke="#63b8ff" d="M182.23,-109.66C196.04,-91.69 227.59,-50.64 245.46,-27.38"/>
<polygon fill="#63b8ff" stroke="#63b8ff" points="248.47,-29.22 251.79,-19.16 242.92,-24.95 248.47,-29.22"/>
</a>
</g>
</g>
<!-- Node5&#45;&gt;Node6 -->
<g id="edge5_Node000005_Node000006" class="edge">
<title>Node5&#45;&gt;Node6</title>
<g id="a_edge5_Node000005_Node000006"><a xlink:title=" ">
<path fill="none" stroke="#63b8ff" d="M259.05,-54.98C242.86,-46.57 217.87,-33.59 199.06,-23.81"/>
<polygon fill="#63b8ff" stroke="#63b8ff" points="200.61,-20.68 190.13,-19.17 197.39,-26.89 200.61,-20.68"/>
</a>
</g>
</g>
<!-- Node5&#45;&gt;Node7 -->
<g id="edge6_Node000005_Node000007" class="edge">
<title>Node5&#45;&gt;Node7</title>
<g id="a_edge6_Node000005_Node000007"><a xlink:title=" ">
<path fill="none" stroke="#63b8ff" d="M272.63,-54.75C270.38,-47.72 267.14,-37.62 264.32,-28.84"/>
<polygon fill="#63b8ff" stroke="#63b8ff" points="267.58,-27.54 261.19,-19.09 260.92,-29.68 267.58,-27.54"/>
</a>
</g>
</g>
<!-- Node5&#45;&gt;Node8 -->
<g id="edge7_Node000005_Node000008" class="edge">
<title>Node5&#45;&gt;Node8</title>
<g id="a_edge7_Node000005_Node000008"><a xlink:title=" ">
<path fill="none" stroke="#63b8ff" d="M285.08,-54.98C293.95,-47.15 307.31,-35.34 318.05,-25.86"/>
<polygon fill="#63b8ff" stroke="#63b8ff" points="320.45,-28.41 325.62,-19.17 315.81,-23.17 320.45,-28.41"/>
</a>
</g>
</g>
</g>
</svg>
