<?xml version="1.0" encoding="UTF-8" standalone="no"?>
<!DOCTYPE svg PUBLIC "-//W3C//DTD SVG 1.1//EN"
 "http://www.w3.org/Graphics/SVG/1.1/DTD/svg11.dtd">
<!-- Generated by graphviz version 2.43.0 (0)
 -->
<!-- Title: src/common/platform.h Pages: 1 -->
<!--zoomable 225 -->

<svg id="main" version="1.1" xmlns="http://www.w3.org/2000/svg" xmlns:xlink="http://www.w3.org/1999/xlink" xml:space="preserve" onload="init(evt)">
<style type="text/css"><![CDATA[
.node, .edge {opacity: 0.7;}
.node.selected, .edge.selected {opacity: 1;}
.edge:hover path { stroke: red; }
.edge:hover polygon { stroke: red; fill: red; }
]]></style>

<defs>
  <circle id="rim" cx="0" cy="0" r="7"/>
  <circle id="rim2" cx="0" cy="0" r="3.5"/>
  <g id="zoomPlus">
    <use xlink:href="#rim" fill="#404040"><set attributeName="fill" to="#808080" begin="zoomplus.mouseover" end="zoomplus.mouseout"/></use>
    <path d="M-4,0h8M0,-4v8" fill="none" stroke="white" stroke-width="1.5" pointer-events="none"/>
  </g>
  <g id="zoomMin">
    <use xlink:href="#rim" fill="#404040"><set attributeName="fill" to="#808080" begin="zoomminus.mouseover" end="zoomminus.mouseout"/></use>
    <path d="M-4,0h8" fill="none" stroke="white" stroke-width="1.5" pointer-events="none"/>
  </g>
  <g id="arrowUp" transform="translate(30 24)">
    <use xlink:href="#rim"/>
    <path pointer-events="none" fill="none" stroke="white" stroke-width="1.5" d="M0,-3.0v7 M-2.5,-0.5L0,-3.0L2.5,-0.5"/>
  </g>
  <g id="arrowRight" transform="rotate(90) translate(36 -43)">
    <use xlink:href="#rim"/>
    <path pointer-events="none" fill="none" stroke="white" stroke-width="1.5" d="M0,-3.0v7 M-2.5,-0.5L0,-3.0L2.5,-0.5"/>
  </g>
  <g id="arrowDown" transform="rotate(180) translate(-30 -48)">
    <use xlink:href="#rim"/>
    <path pointer-events="none" fill="none" stroke="white" stroke-width="1.5" d="M0,-3.0v7 M-2.5,-0.5L0,-3.0L2.5,-0.5"/>
  </g>
  <g id="arrowLeft" transform="rotate(270) translate(-36 17)">
    <use xlink:href="#rim"/>
    <path pointer-events="none" fill="none" stroke="white" stroke-width="1.5" d="M0,-3.0v7 M-2.5,-0.5L0,-3.0L2.5,-0.5"/>
  </g>
  <g id="resetDef">
    <use xlink:href="#rim2" fill="#404040"><set attributeName="fill" to="#808080" begin="reset.mouseover" end="reset.mouseout"/></use>
  </g>
</defs>
<script type="application/ecmascript">
var viewWidth = 3353;
var viewHeight = 225;
var sectionId = 'dynsection-1';
</script>
<script type="application/ecmascript" xlink:href="svg.min.js"/>
<svg id="graph" class="graph">
<g id="viewport">
<title>src/common/platform.h</title>
<!-- Node1 -->
<g id="Node000001" class="node">
<title>Node1</title>
<g id="a_Node000001"><a xlink:title="Declares internal, runtime CPU/OS feature detection functions.">
<polygon fill="#999999" stroke="#666666" points="3026,-217 2895,-217 2895,-198 3026,-198 3026,-217"/>
<text text-anchor="middle" x="2960.5" y="-205" font-family="Helvetica,sans-Serif" font-size="10.00">src/common/platform.h</text>
</a>
</g>
</g>
<!-- Node2 -->
<g id="Node000002" class="node">
<title>Node2</title>
<g id="a_Node000002"><a xlink:href="infix__internals_8h.html" target="_top" xlink:title="Internal data structures, function prototypes, and constants.">
<polygon fill="white" stroke="#666666" points="2134.5,-156.5 1976.5,-156.5 1976.5,-137.5 2134.5,-137.5 2134.5,-156.5"/>
<text text-anchor="middle" x="2055.5" y="-144.5" font-family="Helvetica,sans-Serif" font-size="10.00">src/common/infix_internals.h</text>
</a>
</g>
</g>
<!-- Node1&#45;&gt;Node2 -->
<g id="edge1_Node000001_Node000002" class="edge">
<title>Node1&#45;&gt;Node2</title>
<g id="a_edge1_Node000001_Node000002"><a xlink:title=" ">
<path fill="none" stroke="#63b8ff" d="M2884.6,-201.59C2715.12,-190.64 2307.26,-164.27 2134.71,-153.12"/>
<polygon fill="#63b8ff" stroke="#63b8ff" points="2884.48,-205.09 2894.69,-202.25 2884.93,-198.11 2884.48,-205.09"/>
</a>
</g>
</g>
<!-- Node34 -->
<g id="Node000034" class="node">
<title>Node34</title>
<g id="a_Node000034"><a xlink:href="platform_8c.html" target="_top" xlink:title="Implements runtime detection of CPU and OS features.">
<polygon fill="white" stroke="#666666" points="2835.5,-156.5 2727.5,-156.5 2727.5,-137.5 2835.5,-137.5 2835.5,-156.5"/>
<text text-anchor="middle" x="2781.5" y="-144.5" font-family="Helvetica,sans-Serif" font-size="10.00">src/core/platform.c</text>
</a>
</g>
</g>
<!-- Node1&#45;&gt;Node34 -->
<g id="edge44_Node000001_Node000034" class="edge">
<title>Node1&#45;&gt;Node34</title>
<g id="a_edge44_Node000001_Node000034"><a xlink:title=" ">
<path fill="none" stroke="#63b8ff" d="M2924.75,-194.82C2890.13,-183.5 2838.46,-166.62 2807.56,-156.52"/>
<polygon fill="#63b8ff" stroke="#63b8ff" points="2923.88,-198.21 2934.47,-197.99 2926.05,-191.56 2923.88,-198.21"/>
</a>
</g>
</g>
<!-- Node35 -->
<g id="Node000035" class="node">
<title>Node35</title>
<g id="a_Node000035"><a xlink:href="011__bitfields_8c.html" target="_top" xlink:title="Unit test for bitfield support in structs.">
<polygon fill="white" stroke="#666666" points="2947.5,-156.5 2853.5,-156.5 2853.5,-137.5 2947.5,-137.5 2947.5,-156.5"/>
<text text-anchor="middle" x="2900.5" y="-144.5" font-family="Helvetica,sans-Serif" font-size="10.00">t/011_bitfields.c</text>
</a>
</g>
</g>
<!-- Node1&#45;&gt;Node35 -->
<g id="edge46_Node000001_Node000035" class="edge">
<title>Node1&#45;&gt;Node35</title>
<g id="a_edge46_Node000001_Node000035"><a xlink:title=" ">
<path fill="none" stroke="#63b8ff" d="M2944.18,-190.59C2932.98,-179.67 2918.53,-165.58 2909.39,-156.67"/>
<polygon fill="#63b8ff" stroke="#63b8ff" points="2942.04,-193.39 2951.65,-197.87 2946.93,-188.38 2942.04,-193.39"/>
</a>
</g>
</g>
<!-- Node36 -->
<g id="Node000036" class="node">
<title>Node36</title>
<g id="a_Node000036"><a xlink:href="405__simd__vectors__avx_8c.html" target="_top" xlink:title="Unit test for 256&#45;bit (AVX) SIMD vector support.">
<polygon fill="white" stroke="#666666" points="3077.5,-162 2965.5,-162 2965.5,-132 3077.5,-132 3077.5,-162"/>
<text text-anchor="start" x="2973.5" y="-150" font-family="Helvetica,sans-Serif" font-size="10.00">t/405_simd_vectors</text>
<text text-anchor="middle" x="3021.5" y="-139" font-family="Helvetica,sans-Serif" font-size="10.00">_avx.c</text>
</a>
</g>
</g>
<!-- Node1&#45;&gt;Node36 -->
<g id="edge47_Node000001_Node000036" class="edge">
<title>Node1&#45;&gt;Node36</title>
<g id="a_edge47_Node000001_Node000036"><a xlink:title=" ">
<path fill="none" stroke="#63b8ff" d="M2976.98,-190.7C2986.27,-181.78 2997.79,-170.74 3006.78,-162.11"/>
<polygon fill="#63b8ff" stroke="#63b8ff" points="2974.3,-188.42 2969.5,-197.87 2979.14,-193.47 2974.3,-188.42"/>
</a>
</g>
</g>
<!-- Node37 -->
<g id="Node000037" class="node">
<title>Node37</title>
<g id="a_Node000037"><a xlink:href="406__simd__forward_8c.html" target="_top" xlink:title="Unit test for forward SIMD vector calls.">
<polygon fill="white" stroke="#666666" points="3217.5,-156.5 3095.5,-156.5 3095.5,-137.5 3217.5,-137.5 3217.5,-156.5"/>
<text text-anchor="middle" x="3156.5" y="-144.5" font-family="Helvetica,sans-Serif" font-size="10.00">t/406_simd_forward.c</text>
</a>
</g>
</g>
<!-- Node1&#45;&gt;Node37 -->
<g id="edge48_Node000001_Node000037" class="edge">
<title>Node1&#45;&gt;Node37</title>
<g id="a_edge48_Node000001_Node000037"><a xlink:title=" ">
<path fill="none" stroke="#63b8ff" d="M2998.67,-195.11C3036.58,-183.79 3093.84,-166.7 3127.97,-156.52"/>
<polygon fill="#63b8ff" stroke="#63b8ff" points="2997.58,-191.78 2989,-197.99 2999.58,-198.49 2997.58,-191.78"/>
</a>
</g>
</g>
<!-- Node38 -->
<g id="Node000038" class="node">
<title>Node38</title>
<g id="a_Node000038"><a xlink:href="407__float16_8c.html" target="_top" xlink:title="Unit test for half&#45;precision floating&#45;point (float16_t) support.">
<polygon fill="white" stroke="#666666" points="3325,-156.5 3236,-156.5 3236,-137.5 3325,-137.5 3325,-156.5"/>
<text text-anchor="middle" x="3280.5" y="-144.5" font-family="Helvetica,sans-Serif" font-size="10.00">t/407_float16.c</text>
</a>
</g>
</g>
<!-- Node1&#45;&gt;Node38 -->
<g id="edge49_Node000001_Node000038" class="edge">
<title>Node1&#45;&gt;Node38</title>
<g id="a_edge49_Node000001_Node000038"><a xlink:title=" ">
<path fill="none" stroke="#63b8ff" d="M3030.86,-196.46C3084.66,-188.36 3160.57,-176.03 3226.5,-162 3233.98,-160.41 3241.99,-158.46 3249.49,-156.54"/>
<polygon fill="#63b8ff" stroke="#63b8ff" points="3030.11,-193.03 3020.74,-197.97 3031.14,-199.95 3030.11,-193.03"/>
</a>
</g>
</g>
<!-- Node3 -->
<g id="Node000003" class="node">
<title>Node3</title>
<g id="a_Node000003"><a xlink:href="fuzz__helpers_8h.html" target="_top" xlink:title="Common definitions, structures, and helpers for all fuzzer targets.">
<polygon fill="white" stroke="#666666" points="605.5,-90.5 495.5,-90.5 495.5,-71.5 605.5,-71.5 605.5,-90.5"/>
<text text-anchor="middle" x="550.5" y="-78.5" font-family="Helvetica,sans-Serif" font-size="10.00">fuzz/fuzz_helpers.h</text>
</a>
</g>
</g>
<!-- Node2&#45;&gt;Node3 -->
<g id="edge2_Node000002_Node000003" class="edge">
<title>Node2&#45;&gt;Node3</title>
<g id="a_edge2_Node000002_Node000003"><a xlink:title=" ">
<path fill="none" stroke="#63b8ff" d="M1966.34,-142.21C1686.66,-130.32 831.87,-93.97 605.82,-84.35"/>
<polygon fill="#63b8ff" stroke="#63b8ff" points="1966.3,-145.71 1976.44,-142.64 1966.6,-138.72 1966.3,-145.71"/>
</a>
</g>
</g>
<!-- Node12 -->
<g id="Node000012" class="node">
<title>Node12</title>
<g id="a_Node000012"><a xlink:href="abi__arm64_8c.html" target="_top" xlink:title="Implements the FFI logic for the AArch64 (ARM64) architecture.">
<polygon fill="white" stroke="#666666" points="1164,-30 1049,-30 1049,0 1164,0 1164,-30"/>
<text text-anchor="start" x="1057" y="-18" font-family="Helvetica,sans-Serif" font-size="10.00">src/arch/aarch64/abi</text>
<text text-anchor="middle" x="1106.5" y="-7" font-family="Helvetica,sans-Serif" font-size="10.00">_arm64.c</text>
</a>
</g>
</g>
<!-- Node2&#45;&gt;Node12 -->
<g id="edge11_Node000002_Node000012" class="edge">
<title>Node2&#45;&gt;Node12</title>
<g id="a_edge11_Node000002_Node000012"><a xlink:title=" ">
<path fill="none" stroke="#63b8ff" d="M1966.34,-144.98C1756.14,-142.01 1241.99,-131.19 1172.5,-96 1144.07,-81.6 1123.4,-48.87 1113.35,-30.04"/>
<polygon fill="#63b8ff" stroke="#63b8ff" points="1966.37,-148.48 1976.42,-145.12 1966.47,-141.48 1966.37,-148.48"/>
</a>
</g>
</g>
<!-- Node13 -->
<g id="Node000013" class="node">
<title>Node13</title>
<g id="a_Node000013"><a xlink:href="abi__arm64__emitters_8h.html" target="_top" xlink:title="Declares internal helper functions for emitting AArch64 machine code.">
<polygon fill="white" stroke="#666666" points="1297,-96 1182,-96 1182,-66 1297,-66 1297,-96"/>
<text text-anchor="start" x="1190" y="-84" font-family="Helvetica,sans-Serif" font-size="10.00">src/arch/aarch64/abi</text>
<text text-anchor="middle" x="1239.5" y="-73" font-family="Helvetica,sans-Serif" font-size="10.00">_arm64_emitters.h</text>
</a>
</g>
</g>
<!-- Node2&#45;&gt;Node13 -->
<g id="edge12_Node000002_Node000013" class="edge">
<title>Node2&#45;&gt;Node13</title>
<g id="a_edge12_Node000002_Node000013"><a xlink:title=" ">
<path fill="none" stroke="#63b8ff" d="M1965.96,-141.9C1829.77,-135.19 1562.5,-120.13 1336.5,-96 1323.73,-94.64 1310.05,-92.86 1297.12,-91.03"/>
<polygon fill="#63b8ff" stroke="#63b8ff" points="1966.18,-145.42 1976.34,-142.41 1966.52,-138.43 1966.18,-145.42"/>
</a>
</g>
</g>
<!-- Node15 -->
<g id="Node000015" class="node">
<title>Node15</title>
<g id="a_Node000015"><a xlink:href="abi__sysv__x64_8c.html" target="_top" xlink:title="Implements the FFI logic for the System V AMD64 ABI.">
<polygon fill="white" stroke="#666666" points="1437.5,-30 1315.5,-30 1315.5,0 1437.5,0 1437.5,-30"/>
<text text-anchor="start" x="1323.5" y="-18" font-family="Helvetica,sans-Serif" font-size="10.00">src/arch/x64/abi_sysv</text>
<text text-anchor="middle" x="1376.5" y="-7" font-family="Helvetica,sans-Serif" font-size="10.00">_x64.c</text>
</a>
</g>
</g>
<!-- Node2&#45;&gt;Node15 -->
<g id="edge15_Node000002_Node000015" class="edge">
<title>Node2&#45;&gt;Node15</title>
<g id="a_edge15_Node000002_Node000015"><a xlink:title=" ">
<path fill="none" stroke="#63b8ff" d="M1966.2,-146.11C1789.61,-145.38 1409.31,-138.81 1369.5,-96 1353.08,-78.34 1362.05,-48.01 1369.59,-30.2"/>
<polygon fill="#63b8ff" stroke="#63b8ff" points="1966.24,-149.61 1976.25,-146.14 1966.27,-142.61 1966.24,-149.61"/>
</a>
</g>
</g>
<!-- Node16 -->
<g id="Node000016" class="node">
<title>Node16</title>
<g id="a_Node000016"><a xlink:href="abi__win__x64_8c.html" target="_top" xlink:title="Implements the FFI logic for the Windows x64 calling convention.">
<polygon fill="white" stroke="#666666" points="1707.5,-30 1591.5,-30 1591.5,0 1707.5,0 1707.5,-30"/>
<text text-anchor="start" x="1599.5" y="-18" font-family="Helvetica,sans-Serif" font-size="10.00">src/arch/x64/abi_win</text>
<text text-anchor="middle" x="1649.5" y="-7" font-family="Helvetica,sans-Serif" font-size="10.00">_x64.c</text>
</a>
</g>
</g>
<!-- Node2&#45;&gt;Node16 -->
<g id="edge16_Node000002_Node000016" class="edge">
<title>Node2&#45;&gt;Node16</title>
<g id="a_edge16_Node000002_Node000016"><a xlink:title=" ">
<path fill="none" stroke="#63b8ff" d="M1966.14,-143.67C1826.94,-139.11 1571.29,-126.63 1543.5,-96 1518.87,-68.85 1565.73,-44.56 1604.77,-30.06"/>
<polygon fill="#63b8ff" stroke="#63b8ff" points="1966.26,-147.18 1976.37,-144 1966.48,-140.18 1966.26,-147.18"/>
</a>
</g>
</g>
<!-- Node17 -->
<g id="Node000017" class="node">
<title>Node17</title>
<g id="a_Node000017"><a xlink:href="abi__x64__emitters_8h.html" target="_top" xlink:title="Declares internal helper functions for emitting x86&#45;64 machine code.">
<polygon fill="white" stroke="#666666" points="1496,-96 1379,-96 1379,-66 1496,-66 1496,-96"/>
<text text-anchor="start" x="1387" y="-84" font-family="Helvetica,sans-Serif" font-size="10.00">src/arch/x64/abi_x64</text>
<text text-anchor="middle" x="1437.5" y="-73" font-family="Helvetica,sans-Serif" font-size="10.00">_emitters.h</text>
</a>
</g>
</g>
<!-- Node2&#45;&gt;Node17 -->
<g id="edge17_Node000002_Node000017" class="edge">
<title>Node2&#45;&gt;Node17</title>
<g id="a_edge17_Node000002_Node000017"><a xlink:title=" ">
<path fill="none" stroke="#63b8ff" d="M1966.02,-140.49C1857.79,-133.21 1670.22,-118.59 1510.5,-96 1505.9,-95.35 1501.15,-94.61 1496.38,-93.81"/>
<polygon fill="#63b8ff" stroke="#63b8ff" points="1966.03,-144 1976.25,-141.17 1966.5,-137.02 1966.03,-144"/>
</a>
</g>
</g>
<!-- Node19 -->
<g id="Node000019" class="node">
<title>Node19</title>
<g id="a_Node000019"><a xlink:href="arena_8c.html" target="_top" xlink:title="Implements a simple, fast arena (or region&#45;based) allocator.">
<polygon fill="white" stroke="#666666" points="1646.5,-90.5 1552.5,-90.5 1552.5,-71.5 1646.5,-71.5 1646.5,-90.5"/>
<text text-anchor="middle" x="1599.5" y="-78.5" font-family="Helvetica,sans-Serif" font-size="10.00">src/core/arena.c</text>
</a>
</g>
</g>
<!-- Node2&#45;&gt;Node19 -->
<g id="edge21_Node000002_Node000019" class="edge">
<title>Node2&#45;&gt;Node19</title>
<g id="a_edge21_Node000002_Node000019"><a xlink:title=" ">
<path fill="none" stroke="#63b8ff" d="M1965.92,-137.92C1884.54,-129.85 1761.39,-115.78 1655.5,-96 1647.42,-94.49 1638.77,-92.51 1630.75,-90.52"/>
<polygon fill="#63b8ff" stroke="#63b8ff" points="1965.84,-141.43 1976.13,-138.93 1966.52,-134.47 1965.84,-141.43"/>
</a>
</g>
</g>
<!-- Node21 -->
<g id="Node000021" class="node">
<title>Node21</title>
<g id="a_Node000021"><a xlink:href="cache_8c.html" target="_top" xlink:title="Implements trampoline deduplication and caching.">
<polygon fill="white" stroke="#666666" points="1760,-90.5 1665,-90.5 1665,-71.5 1760,-71.5 1760,-90.5"/>
<text text-anchor="middle" x="1712.5" y="-78.5" font-family="Helvetica,sans-Serif" font-size="10.00">src/core/cache.c</text>
</a>
</g>
</g>
<!-- Node2&#45;&gt;Node21 -->
<g id="edge23_Node000002_Node000021" class="edge">
<title>Node2&#45;&gt;Node21</title>
<g id="a_edge23_Node000002_Node000021"><a xlink:title=" ">
<path fill="none" stroke="#63b8ff" d="M1989.26,-135.86C1930.92,-126.59 1843.77,-111.94 1768.5,-96 1760.85,-94.38 1752.67,-92.45 1744.98,-90.54"/>
<polygon fill="#63b8ff" stroke="#63b8ff" points="1989.02,-139.36 1999.45,-137.47 1990.11,-132.45 1989.02,-139.36"/>
</a>
</g>
</g>
<!-- Node22 -->
<g id="Node000022" class="node">
<title>Node22</title>
<g id="a_Node000022"><a xlink:href="error_8c.html" target="_top" xlink:title="Implements the thread&#45;local error reporting system.">
<polygon fill="white" stroke="#666666" points="1867,-90.5 1778,-90.5 1778,-71.5 1867,-71.5 1867,-90.5"/>
<text text-anchor="middle" x="1822.5" y="-78.5" font-family="Helvetica,sans-Serif" font-size="10.00">src/core/error.c</text>
</a>
</g>
</g>
<!-- Node2&#45;&gt;Node22 -->
<g id="edge25_Node000002_Node000022" class="edge">
<title>Node2&#45;&gt;Node22</title>
<g id="a_edge25_Node000002_Node000022"><a xlink:title=" ">
<path fill="none" stroke="#63b8ff" d="M2014.15,-134.64C1968.25,-122.03 1895.19,-101.97 1853.8,-90.6"/>
<polygon fill="#63b8ff" stroke="#63b8ff" points="2013.51,-138.09 2024.08,-137.37 2015.36,-131.34 2013.51,-138.09"/>
</a>
</g>
</g>
<!-- Node23 -->
<g id="Node000023" class="node">
<title>Node23</title>
<g id="a_Node000023"><a xlink:href="loader_8c.html" target="_top" xlink:title="Implements cross&#45;platform dynamic library loading.">
<polygon fill="white" stroke="#666666" points="1981.5,-90.5 1885.5,-90.5 1885.5,-71.5 1981.5,-71.5 1981.5,-90.5"/>
<text text-anchor="middle" x="1933.5" y="-78.5" font-family="Helvetica,sans-Serif" font-size="10.00">src/core/loader.c</text>
</a>
</g>
</g>
<!-- Node2&#45;&gt;Node23 -->
<g id="edge27_Node000002_Node000023" class="edge">
<title>Node2&#45;&gt;Node23</title>
<g id="a_edge27_Node000002_Node000023"><a xlink:title=" ">
<path fill="none" stroke="#63b8ff" d="M2030.14,-132.69C2006.1,-120.09 1970.7,-101.51 1950.08,-90.7"/>
<polygon fill="#63b8ff" stroke="#63b8ff" points="2028.57,-135.82 2039.05,-137.37 2031.82,-129.62 2028.57,-135.82"/>
</a>
</g>
</g>
<!-- Node24 -->
<g id="Node000024" class="node">
<title>Node24</title>
<g id="a_Node000024"><a xlink:href="signature_8c.html" target="_top" xlink:title="Implements the infix signature string parser and type printer.">
<polygon fill="white" stroke="#666666" points="2111.5,-90.5 1999.5,-90.5 1999.5,-71.5 2111.5,-71.5 2111.5,-90.5"/>
<text text-anchor="middle" x="2055.5" y="-78.5" font-family="Helvetica,sans-Serif" font-size="10.00">src/core/signature.c</text>
</a>
</g>
</g>
<!-- Node2&#45;&gt;Node24 -->
<g id="edge29_Node000002_Node000024" class="edge">
<title>Node2&#45;&gt;Node24</title>
<g id="a_edge29_Node000002_Node000024"><a xlink:title=" ">
<path fill="none" stroke="#63b8ff" d="M2055.5,-127.08C2055.5,-115.13 2055.5,-100.22 2055.5,-90.91"/>
<polygon fill="#63b8ff" stroke="#63b8ff" points="2052,-127.37 2055.5,-137.37 2059,-127.37 2052,-127.37"/>
</a>
</g>
</g>
<!-- Node25 -->
<g id="Node000025" class="node">
<title>Node25</title>
<g id="a_Node000025"><a xlink:href="type__registry_8c.html" target="_top" xlink:title="Implements the named type registry system.">
<polygon fill="white" stroke="#666666" points="2259,-90.5 2130,-90.5 2130,-71.5 2259,-71.5 2259,-90.5"/>
<text text-anchor="middle" x="2194.5" y="-78.5" font-family="Helvetica,sans-Serif" font-size="10.00">src/core/type_registry.c</text>
</a>
</g>
</g>
<!-- Node2&#45;&gt;Node25 -->
<g id="edge31_Node000002_Node000025" class="edge">
<title>Node2&#45;&gt;Node25</title>
<g id="a_edge31_Node000002_Node000025"><a xlink:title=" ">
<path fill="none" stroke="#63b8ff" d="M2083.67,-133.03C2111.07,-120.42 2151.91,-101.61 2175.61,-90.7"/>
<polygon fill="#63b8ff" stroke="#63b8ff" points="2081.87,-130.01 2074.25,-137.37 2084.79,-136.37 2081.87,-130.01"/>
</a>
</g>
</g>
<!-- Node26 -->
<g id="Node000026" class="node">
<title>Node26</title>
<g id="a_Node000026"><a xlink:href="types_8c.html" target="_top" xlink:title="Implements the public API for creating and managing type descriptions.">
<polygon fill="white" stroke="#666666" points="2370,-90.5 2277,-90.5 2277,-71.5 2370,-71.5 2370,-90.5"/>
<text text-anchor="middle" x="2323.5" y="-78.5" font-family="Helvetica,sans-Serif" font-size="10.00">src/core/types.c</text>
</a>
</g>
</g>
<!-- Node2&#45;&gt;Node26 -->
<g id="edge33_Node000002_Node000026" class="edge">
<title>Node2&#45;&gt;Node26</title>
<g id="a_edge33_Node000002_Node000026"><a xlink:title=" ">
<path fill="none" stroke="#63b8ff" d="M2102.19,-135.18C2145.17,-125.17 2210.69,-109.8 2267.5,-96 2274.71,-94.25 2282.43,-92.34 2289.76,-90.51"/>
<polygon fill="#63b8ff" stroke="#63b8ff" points="2101.25,-131.8 2092.3,-137.48 2102.84,-138.62 2101.25,-131.8"/>
</a>
</g>
</g>
<!-- Node27 -->
<g id="Node000027" class="node">
<title>Node27</title>
<g id="a_Node000027"><a xlink:href="executor_8c.html" target="_top" xlink:title="Implements platform&#45;specific memory management for JIT code and execution.">
<polygon fill="white" stroke="#666666" points="2484.5,-90.5 2388.5,-90.5 2388.5,-71.5 2484.5,-71.5 2484.5,-90.5"/>
<text text-anchor="middle" x="2436.5" y="-78.5" font-family="Helvetica,sans-Serif" font-size="10.00">src/jit/executor.c</text>
</a>
</g>
</g>
<!-- Node2&#45;&gt;Node27 -->
<g id="edge35_Node000002_Node000027" class="edge">
<title>Node2&#45;&gt;Node27</title>
<g id="a_edge35_Node000002_Node000027"><a xlink:title=" ">
<path fill="none" stroke="#63b8ff" d="M2131.3,-136.08C2196.96,-127.06 2294.35,-112.64 2378.5,-96 2386.53,-94.41 2395.12,-92.47 2403.17,-90.55"/>
<polygon fill="#63b8ff" stroke="#63b8ff" points="2130.48,-132.66 2121.05,-137.48 2131.43,-139.6 2130.48,-132.66"/>
</a>
</g>
</g>
<!-- Node28 -->
<g id="Node000028" class="node">
<title>Node28</title>
<g id="a_Node000028"><a xlink:href="trampoline_8c.html" target="_top" xlink:title="The core JIT engine for generating forward and reverse trampolines.">
<polygon fill="white" stroke="#666666" points="2610.5,-90.5 2502.5,-90.5 2502.5,-71.5 2610.5,-71.5 2610.5,-90.5"/>
<text text-anchor="middle" x="2556.5" y="-78.5" font-family="Helvetica,sans-Serif" font-size="10.00">src/jit/trampoline.c</text>
</a>
</g>
</g>
<!-- Node2&#45;&gt;Node28 -->
<g id="edge37_Node000002_Node000028" class="edge">
<title>Node2&#45;&gt;Node28</title>
<g id="a_edge37_Node000002_Node000028"><a xlink:title=" ">
<path fill="none" stroke="#63b8ff" d="M2144.61,-138.59C2233.38,-130.56 2373.4,-116.14 2493.5,-96 2502.56,-94.48 2512.28,-92.5 2521.31,-90.5"/>
<polygon fill="#63b8ff" stroke="#63b8ff" points="2144.22,-135.11 2134.58,-139.49 2144.85,-142.08 2144.22,-135.11"/>
</a>
</g>
</g>
<!-- Node29 -->
<g id="Node000029" class="node">
<title>Node29</title>
<g id="a_Node000029"><a xlink:href="008__registry__introspection_8c.html" target="_top" xlink:title="Unit test for the registry introspection and serialization APIs.">
<polygon fill="white" stroke="#666666" points="2790,-90.5 2629,-90.5 2629,-71.5 2790,-71.5 2790,-90.5"/>
<text text-anchor="middle" x="2709.5" y="-78.5" font-family="Helvetica,sans-Serif" font-size="10.00">t/008_registry_introspection.c</text>
</a>
</g>
</g>
<!-- Node2&#45;&gt;Node29 -->
<g id="edge39_Node000002_Node000029" class="edge">
<title>Node2&#45;&gt;Node29</title>
<g id="a_edge39_Node000002_Node000029"><a xlink:title=" ">
<path fill="none" stroke="#63b8ff" d="M2144.78,-139.91C2256.14,-131.9 2452.25,-116.4 2619.5,-96 2632.21,-94.45 2645.89,-92.48 2658.65,-90.51"/>
<polygon fill="#63b8ff" stroke="#63b8ff" points="2144.33,-136.43 2134.6,-140.64 2144.83,-143.42 2144.33,-136.43"/>
</a>
</g>
</g>
<!-- Node30 -->
<g id="Node000030" class="node">
<title>Node30</title>
<g id="a_Node000030"><a xlink:href="101__by__value_8c.html" target="_top" xlink:title="Unit test for passing and returning aggregates and vectors by value.">
<polygon fill="white" stroke="#666666" points="2907,-90.5 2808,-90.5 2808,-71.5 2907,-71.5 2907,-90.5"/>
<text text-anchor="middle" x="2857.5" y="-78.5" font-family="Helvetica,sans-Serif" font-size="10.00">t/101_by_value.c</text>
</a>
</g>
</g>
<!-- Node2&#45;&gt;Node30 -->
<g id="edge40_Node000002_Node000030" class="edge">
<title>Node2&#45;&gt;Node30</title>
<g id="a_edge40_Node000002_Node000030"><a xlink:title=" ">
<path fill="none" stroke="#63b8ff" d="M2144.85,-144.76C2284.9,-141.74 2564.36,-131.41 2798.5,-96 2807.45,-94.65 2817.05,-92.62 2825.84,-90.53"/>
<polygon fill="#63b8ff" stroke="#63b8ff" points="2144.52,-141.27 2134.6,-144.97 2144.67,-148.26 2144.52,-141.27"/>
</a>
</g>
</g>
<!-- Node31 -->
<g id="Node000031" class="node">
<title>Node31</title>
<g id="a_Node000031"><a xlink:href="501__direct__marshalling_8c.html" target="_top" xlink:title="Test suite for the high&#45;performance direct marshalling API.">
<polygon fill="white" stroke="#666666" points="3071.5,-90.5 2925.5,-90.5 2925.5,-71.5 3071.5,-71.5 3071.5,-90.5"/>
<text text-anchor="middle" x="2998.5" y="-78.5" font-family="Helvetica,sans-Serif" font-size="10.00">t/501_direct_marshalling.c</text>
</a>
</g>
</g>
<!-- Node2&#45;&gt;Node31 -->
<g id="edge41_Node000002_Node000031" class="edge">
<title>Node2&#45;&gt;Node31</title>
<g id="a_edge41_Node000002_Node000031"><a xlink:title=" ">
<path fill="none" stroke="#63b8ff" d="M2144.64,-144.02C2301.11,-139.83 2635.21,-127.69 2915.5,-96 2927.84,-94.6 2941.14,-92.59 2953.4,-90.53"/>
<polygon fill="#63b8ff" stroke="#63b8ff" points="2144.5,-140.52 2134.59,-144.28 2144.68,-147.52 2144.5,-140.52"/>
</a>
</g>
</g>
<!-- Node32 -->
<g id="Node000032" class="node">
<title>Node32</title>
<g id="a_Node000032"><a xlink:href="830__security_8c.html" target="_top" xlink:title="Unit test for security&#45;hardening features of the infix library.">
<polygon fill="white" stroke="#666666" points="3181.5,-90.5 3089.5,-90.5 3089.5,-71.5 3181.5,-71.5 3181.5,-90.5"/>
<text text-anchor="middle" x="3135.5" y="-78.5" font-family="Helvetica,sans-Serif" font-size="10.00">t/830_security.c</text>
</a>
</g>
</g>
<!-- Node2&#45;&gt;Node32 -->
<g id="edge42_Node000002_Node000032" class="edge">
<title>Node2&#45;&gt;Node32</title>
<g id="a_edge42_Node000002_Node000032"><a xlink:title=" ">
<path fill="none" stroke="#63b8ff" d="M2145.17,-143.93C2360.36,-138.6 2901.41,-122.88 3080.5,-96 3089.07,-94.71 3098.25,-92.66 3106.61,-90.51"/>
<polygon fill="#63b8ff" stroke="#63b8ff" points="2144.78,-140.44 2134.87,-144.19 2144.95,-147.44 2144.78,-140.44"/>
</a>
</g>
</g>
<!-- Node33 -->
<g id="Node000033" class="node">
<title>Node33</title>
<g id="a_Node000033"><a xlink:href="840__arena__allocator_8c.html" target="_top" xlink:title="Unit test for the internal arena allocator.">
<polygon fill="white" stroke="#666666" points="3329.5,-90.5 3199.5,-90.5 3199.5,-71.5 3329.5,-71.5 3329.5,-90.5"/>
<text text-anchor="middle" x="3264.5" y="-78.5" font-family="Helvetica,sans-Serif" font-size="10.00">t/840_arena_allocator.c</text>
</a>
</g>
</g>
<!-- Node2&#45;&gt;Node33 -->
<g id="edge43_Node000002_Node000033" class="edge">
<title>Node2&#45;&gt;Node33</title>
<g id="a_edge43_Node000002_Node000033"><a xlink:title=" ">
<path fill="none" stroke="#63b8ff" d="M2144.76,-143.72C2375.63,-137.55 2988.52,-119.43 3190.5,-96 3201.8,-94.69 3213.97,-92.65 3225.1,-90.53"/>
<polygon fill="#63b8ff" stroke="#63b8ff" points="2144.62,-140.22 2134.72,-143.99 2144.81,-147.22 2144.62,-140.22"/>
</a>
</g>
</g>
<!-- Node4 -->
<g id="Node000004" class="node">
<title>Node4</title>
<g id="a_Node000004"><a xlink:href="fuzz__abi_8c.html" target="_top" xlink:title="Fuzzer target for the ABI classification layer.">
<polygon fill="white" stroke="#666666" points="89,-24.5 0,-24.5 0,-5.5 89,-5.5 89,-24.5"/>
<text text-anchor="middle" x="44.5" y="-12.5" font-family="Helvetica,sans-Serif" font-size="10.00">fuzz/fuzz_abi.c</text>
</a>
</g>
</g>
<!-- Node3&#45;&gt;Node4 -->
<g id="edge3_Node000003_Node000004" class="edge">
<title>Node3&#45;&gt;Node4</title>
<g id="a_edge3_Node000003_Node000004"><a xlink:title=" ">
<path fill="none" stroke="#63b8ff" d="M485.23,-75.85C396.79,-69.53 234.24,-55.46 97.5,-30 89.73,-28.55 81.43,-26.57 73.76,-24.56"/>
<polygon fill="#63b8ff" stroke="#63b8ff" points="485.15,-79.35 495.38,-76.56 485.65,-72.37 485.15,-79.35"/>
</a>
</g>
</g>
<!-- Node5 -->
<g id="Node000005" class="node">
<title>Node5</title>
<g id="a_Node000005"><a xlink:href="fuzz__direct_8c.html" target="_top" xlink:title="Fuzzer target for the Direct Marshalling API generation logic.">
<polygon fill="white" stroke="#666666" points="208,-24.5 107,-24.5 107,-5.5 208,-5.5 208,-24.5"/>
<text text-anchor="middle" x="157.5" y="-12.5" font-family="Helvetica,sans-Serif" font-size="10.00">fuzz/fuzz_direct.c</text>
</a>
</g>
</g>
<!-- Node3&#45;&gt;Node5 -->
<g id="edge4_Node000003_Node000005" class="edge">
<title>Node3&#45;&gt;Node5</title>
<g id="a_edge4_Node000003_Node000005"><a xlink:title=" ">
<path fill="none" stroke="#63b8ff" d="M485.43,-71.8C418.12,-62.95 310.07,-47.72 217.5,-30 209.2,-28.41 200.31,-26.47 191.98,-24.54"/>
<polygon fill="#63b8ff" stroke="#63b8ff" points="485.1,-75.29 495.47,-73.11 486.01,-68.35 485.1,-75.29"/>
</a>
</g>
</g>
<!-- Node6 -->
<g id="Node000006" class="node">
<title>Node6</title>
<g id="a_Node000006"><a xlink:href="fuzz__helpers_8c.html" target="_top" xlink:title="Implements the core logic for generating random infix_type graphs from fuzzer input.">
<polygon fill="white" stroke="#666666" points="336.5,-24.5 226.5,-24.5 226.5,-5.5 336.5,-5.5 336.5,-24.5"/>
<text text-anchor="middle" x="281.5" y="-12.5" font-family="Helvetica,sans-Serif" font-size="10.00">fuzz/fuzz_helpers.c</text>
</a>
</g>
</g>
<!-- Node3&#45;&gt;Node6 -->
<g id="edge5_Node000003_Node000006" class="edge">
<title>Node3&#45;&gt;Node6</title>
<g id="a_edge5_Node000003_Node000006"><a xlink:title=" ">
<path fill="none" stroke="#63b8ff" d="M504.69,-69.1C451.7,-56.49 365.59,-36.01 317.29,-24.51"/>
<polygon fill="#63b8ff" stroke="#63b8ff" points="503.96,-72.53 514.5,-71.44 505.58,-65.72 503.96,-72.53"/>
</a>
</g>
</g>
<!-- Node7 -->
<g id="Node000007" class="node">
<title>Node7</title>
<g id="a_Node000007"><a xlink:href="fuzz__roundtrip_8c.html" target="_top" xlink:title="Fuzzer target for Type &#45;&gt; String &#45;&gt; Type round&#45;trip consistency.">
<polygon fill="white" stroke="#666666" points="472.5,-24.5 354.5,-24.5 354.5,-5.5 472.5,-5.5 472.5,-24.5"/>
<text text-anchor="middle" x="413.5" y="-12.5" font-family="Helvetica,sans-Serif" font-size="10.00">fuzz/fuzz_roundtrip.c</text>
</a>
</g>
</g>
<!-- Node3&#45;&gt;Node7 -->
<g id="edge6_Node000003_Node000007" class="edge">
<title>Node3&#45;&gt;Node7</title>
<g id="a_edge6_Node000003_Node000007"><a xlink:title=" ">
<path fill="none" stroke="#63b8ff" d="M522.73,-67.03C495.73,-54.42 455.48,-35.61 432.12,-24.7"/>
<polygon fill="#63b8ff" stroke="#63b8ff" points="521.48,-70.31 532.02,-71.37 524.44,-63.97 521.48,-70.31"/>
</a>
</g>
</g>
<!-- Node8 -->
<g id="Node000008" class="node">
<title>Node8</title>
<g id="a_Node000008"><a xlink:href="fuzz__signature_8c.html" target="_top" xlink:title="Fuzzer target for the high&#45;level signature parsing API.">
<polygon fill="white" stroke="#666666" points="610,-24.5 491,-24.5 491,-5.5 610,-5.5 610,-24.5"/>
<text text-anchor="middle" x="550.5" y="-12.5" font-family="Helvetica,sans-Serif" font-size="10.00">fuzz/fuzz_signature.c</text>
</a>
</g>
</g>
<!-- Node3&#45;&gt;Node8 -->
<g id="edge7_Node000003_Node000008" class="edge">
<title>Node3&#45;&gt;Node8</title>
<g id="a_edge7_Node000003_Node000008"><a xlink:title=" ">
<path fill="none" stroke="#63b8ff" d="M550.5,-61.08C550.5,-49.13 550.5,-34.22 550.5,-24.91"/>
<polygon fill="#63b8ff" stroke="#63b8ff" points="547,-61.37 550.5,-71.37 554,-61.37 547,-61.37"/>
</a>
</g>
</g>
<!-- Node9 -->
<g id="Node000009" class="node">
<title>Node9</title>
<g id="a_Node000009"><a xlink:href="fuzz__trampoline_8c.html" target="_top" xlink:title="Fuzzer target for the trampoline generation functions, including shared arena logic.">
<polygon fill="white" stroke="#666666" points="755,-24.5 628,-24.5 628,-5.5 755,-5.5 755,-24.5"/>
<text text-anchor="middle" x="691.5" y="-12.5" font-family="Helvetica,sans-Serif" font-size="10.00">fuzz/fuzz_trampoline.c</text>
</a>
</g>
</g>
<!-- Node3&#45;&gt;Node9 -->
<g id="edge8_Node000003_Node000009" class="edge">
<title>Node3&#45;&gt;Node9</title>
<g id="a_edge8_Node000003_Node000009"><a xlink:title=" ">
<path fill="none" stroke="#63b8ff" d="M578.71,-67.19C606.5,-54.58 648.19,-35.66 672.34,-24.7"/>
<polygon fill="#63b8ff" stroke="#63b8ff" points="577.18,-64.05 569.52,-71.37 580.07,-70.42 577.18,-64.05"/>
</a>
</g>
</g>
<!-- Node10 -->
<g id="Node000010" class="node">
<title>Node10</title>
<g id="a_Node000010"><a xlink:href="fuzz__types_8c.html" target="_top" xlink:title="Fuzzer target for the random type generation logic.">
<polygon fill="white" stroke="#666666" points="874,-24.5 773,-24.5 773,-5.5 874,-5.5 874,-24.5"/>
<text text-anchor="middle" x="823.5" y="-12.5" font-family="Helvetica,sans-Serif" font-size="10.00">fuzz/fuzz_types.c</text>
</a>
</g>
</g>
<!-- Node3&#45;&gt;Node10 -->
<g id="edge9_Node000003_Node000010" class="edge">
<title>Node3&#45;&gt;Node10</title>
<g id="a_edge9_Node000003_Node000010"><a xlink:title=" ">
<path fill="none" stroke="#63b8ff" d="M596.99,-69.1C650.76,-56.49 738.16,-36.01 787.18,-24.51"/>
<polygon fill="#63b8ff" stroke="#63b8ff" points="595.97,-65.74 587.03,-71.44 597.57,-72.56 595.97,-65.74"/>
</a>
</g>
</g>
<!-- Node11 -->
<g id="Node000011" class="node">
<title>Node11</title>
<g id="a_Node000011"><a xlink:href="850__regression__cases_8c.html" target="_top" xlink:title="A suite of regression tests for bugs discovered by fuzzing.">
<polygon fill="white" stroke="#666666" points="1031,-24.5 892,-24.5 892,-5.5 1031,-5.5 1031,-24.5"/>
<text text-anchor="middle" x="961.5" y="-12.5" font-family="Helvetica,sans-Serif" font-size="10.00">t/850_regression_cases.c</text>
</a>
</g>
</g>
<!-- Node3&#45;&gt;Node11 -->
<g id="edge10_Node000003_Node000011" class="edge">
<title>Node3&#45;&gt;Node11</title>
<g id="a_edge10_Node000003_Node000011"><a xlink:title=" ">
<path fill="none" stroke="#63b8ff" d="M615.78,-70.68C682.79,-60.99 790.04,-45.15 882.5,-30 892.81,-28.31 903.86,-26.41 914.33,-24.57"/>
<polygon fill="#63b8ff" stroke="#63b8ff" points="615.19,-67.23 605.79,-72.12 616.19,-74.16 615.19,-67.23"/>
</a>
</g>
</g>
<!-- Node13&#45;&gt;Node12 -->
<g id="edge13_Node000013_Node000012" class="edge">
<title>Node13&#45;&gt;Node12</title>
<g id="a_edge13_Node000013_Node000012"><a xlink:title=" ">
<path fill="none" stroke="#63b8ff" d="M1201.08,-61.51C1180.22,-51.47 1154.83,-39.26 1135.62,-30.01"/>
<polygon fill="#63b8ff" stroke="#63b8ff" points="1199.78,-64.77 1210.31,-65.95 1202.82,-58.46 1199.78,-64.77"/>
</a>
</g>
</g>
<!-- Node14 -->
<g id="Node000014" class="node">
<title>Node14</title>
<g id="a_Node000014"><a xlink:href="abi__arm64__emitters_8c.html" target="_top" xlink:title="Implements internal helper functions for emitting AArch64 machine code.">
<polygon fill="white" stroke="#666666" points="1297,-30 1182,-30 1182,0 1297,0 1297,-30"/>
<text text-anchor="start" x="1190" y="-18" font-family="Helvetica,sans-Serif" font-size="10.00">src/arch/aarch64/abi</text>
<text text-anchor="middle" x="1239.5" y="-7" font-family="Helvetica,sans-Serif" font-size="10.00">_arm64_emitters.c</text>
</a>
</g>
</g>
<!-- Node13&#45;&gt;Node14 -->
<g id="edge14_Node000013_Node000014" class="edge">
<title>Node13&#45;&gt;Node14</title>
<g id="a_edge14_Node000013_Node000014"><a xlink:title=" ">
<path fill="none" stroke="#63b8ff" d="M1239.5,-55.54C1239.5,-46.96 1239.5,-37.61 1239.5,-30.16"/>
<polygon fill="#63b8ff" stroke="#63b8ff" points="1236,-55.8 1239.5,-65.8 1243,-55.8 1236,-55.8"/>
</a>
</g>
</g>
<!-- Node17&#45;&gt;Node15 -->
<g id="edge18_Node000017_Node000015" class="edge">
<title>Node17&#45;&gt;Node15</title>
<g id="a_edge18_Node000017_Node000015"><a xlink:title=" ">
<path fill="none" stroke="#63b8ff" d="M1416.88,-58.37C1408.01,-49.06 1397.89,-38.44 1390,-30.16"/>
<polygon fill="#63b8ff" stroke="#63b8ff" points="1414.53,-60.97 1423.96,-65.8 1419.6,-56.14 1414.53,-60.97"/>
</a>
</g>
</g>
<!-- Node17&#45;&gt;Node16 -->
<g id="edge19_Node000017_Node000016" class="edge">
<title>Node17&#45;&gt;Node16</title>
<g id="a_edge19_Node000017_Node000016"><a xlink:title=" ">
<path fill="none" stroke="#63b8ff" d="M1493.85,-62.99C1527.96,-52.69 1570.94,-39.72 1603.08,-30.01"/>
<polygon fill="#63b8ff" stroke="#63b8ff" points="1492.59,-59.71 1484.02,-65.95 1494.61,-66.42 1492.59,-59.71"/>
</a>
</g>
</g>
<!-- Node18 -->
<g id="Node000018" class="node">
<title>Node18</title>
<g id="a_Node000018"><a xlink:href="abi__x64__emitters_8c.html" target="_top" xlink:title="Implements internal helper functions for emitting x86&#45;64 machine code.">
<polygon fill="white" stroke="#666666" points="1573,-30 1456,-30 1456,0 1573,0 1573,-30"/>
<text text-anchor="start" x="1464" y="-18" font-family="Helvetica,sans-Serif" font-size="10.00">src/arch/x64/abi_x64</text>
<text text-anchor="middle" x="1514.5" y="-7" font-family="Helvetica,sans-Serif" font-size="10.00">_emitters.c</text>
</a>
</g>
</g>
<!-- Node17&#45;&gt;Node18 -->
<g id="edge20_Node000017_Node000018" class="edge">
<title>Node17&#45;&gt;Node18</title>
<g id="a_edge20_Node000017_Node000018"><a xlink:title=" ">
<path fill="none" stroke="#63b8ff" d="M1462.52,-59.2C1473.95,-49.7 1487.2,-38.69 1497.46,-30.16"/>
<polygon fill="#63b8ff" stroke="#63b8ff" points="1460.04,-56.71 1454.59,-65.8 1464.52,-62.1 1460.04,-56.71"/>
</a>
</g>
</g>
<!-- Node20 -->
<g id="Node000020" class="node">
<title>Node20</title>
<g id="a_Node000020"><a xlink:href="infix_8c.html" target="_top" xlink:title="The unity build source file for the infix library.">
<polygon fill="white" stroke="#666666" points="2157,-24.5 2094,-24.5 2094,-5.5 2157,-5.5 2157,-24.5"/>
<text text-anchor="middle" x="2125.5" y="-12.5" font-family="Helvetica,sans-Serif" font-size="10.00">src/infix.c</text>
</a>
</g>
</g>
<!-- Node19&#45;&gt;Node20 -->
<g id="edge22_Node000019_Node000020" class="edge">
<title>Node19&#45;&gt;Node20</title>
<g id="a_edge22_Node000019_Node000020"><a xlink:title=" ">
<path fill="none" stroke="#63b8ff" d="M1640.17,-69.13C1645.3,-67.97 1650.51,-66.88 1655.5,-66 1819.11,-36.99 2017.97,-22.59 2093.94,-17.84"/>
<polygon fill="#63b8ff" stroke="#63b8ff" points="1639.35,-65.73 1630.44,-71.45 1640.98,-72.54 1639.35,-65.73"/>
</a>
</g>
</g>
<!-- Node21&#45;&gt;Node20 -->
<g id="edge24_Node000021_Node000020" class="edge">
<title>Node21&#45;&gt;Node20</title>
<g id="a_edge24_Node000021_Node000020"><a xlink:title=" ">
<path fill="none" stroke="#63b8ff" d="M1753.95,-69.12C1758.84,-67.99 1763.77,-66.92 1768.5,-66 1887.68,-42.82 2031.25,-26.06 2093.79,-19.3"/>
<polygon fill="#63b8ff" stroke="#63b8ff" points="1752.97,-65.75 1744.06,-71.49 1754.6,-72.56 1752.97,-65.75"/>
</a>
</g>
</g>
<!-- Node22&#45;&gt;Node20 -->
<g id="edge26_Node000022_Node000020" class="edge">
<title>Node22&#45;&gt;Node20</title>
<g id="a_edge26_Node000022_Node000020"><a xlink:title=" ">
<path fill="none" stroke="#63b8ff" d="M1863.92,-69.01C1868.16,-67.96 1872.41,-66.94 1876.5,-66 1954.28,-48.12 2046.55,-30.53 2093.93,-21.76"/>
<polygon fill="#63b8ff" stroke="#63b8ff" points="1862.96,-65.64 1854.12,-71.49 1864.68,-72.43 1862.96,-65.64"/>
</a>
</g>
</g>
<!-- Node23&#45;&gt;Node20 -->
<g id="edge28_Node000023_Node000020" class="edge">
<title>Node23&#45;&gt;Node20</title>
<g id="a_edge28_Node000023_Node000020"><a xlink:title=" ">
<path fill="none" stroke="#63b8ff" d="M1969.01,-68.16C2006.91,-55.53 2066.03,-35.82 2099.71,-24.6"/>
<polygon fill="#63b8ff" stroke="#63b8ff" points="1967.77,-64.89 1959.39,-71.37 1969.99,-71.53 1967.77,-64.89"/>
</a>
</g>
</g>
<!-- Node24&#45;&gt;Node20 -->
<g id="edge30_Node000024_Node000020" class="edge">
<title>Node24&#45;&gt;Node20</title>
<g id="a_edge30_Node000024_Node000020"><a xlink:title=" ">
<path fill="none" stroke="#63b8ff" d="M2072.64,-64.33C2086.19,-51.94 2104.63,-35.09 2115.76,-24.91"/>
<polygon fill="#63b8ff" stroke="#63b8ff" points="2069.96,-62.04 2064.94,-71.37 2074.68,-67.2 2069.96,-62.04"/>
</a>
</g>
</g>
<!-- Node25&#45;&gt;Node20 -->
<g id="edge32_Node000025_Node000020" class="edge">
<title>Node25&#45;&gt;Node20</title>
<g id="a_edge32_Node000025_Node000020"><a xlink:title=" ">
<path fill="none" stroke="#63b8ff" d="M2177.61,-64.33C2164.25,-51.94 2146.08,-35.09 2135.1,-24.91"/>
<polygon fill="#63b8ff" stroke="#63b8ff" points="2175.48,-67.13 2185.19,-71.37 2180.24,-62 2175.48,-67.13"/>
</a>
</g>
</g>
<!-- Node26&#45;&gt;Node20 -->
<g id="edge34_Node000026_Node000020" class="edge">
<title>Node26&#45;&gt;Node20</title>
<g id="a_edge34_Node000026_Node000020"><a xlink:title=" ">
<path fill="none" stroke="#63b8ff" d="M2287.13,-68.24C2248.06,-55.61 2186.9,-35.85 2152.1,-24.6"/>
<polygon fill="#63b8ff" stroke="#63b8ff" points="2286.21,-71.62 2296.8,-71.37 2288.36,-64.96 2286.21,-71.62"/>
</a>
</g>
</g>
<!-- Node27&#45;&gt;Node20 -->
<g id="edge36_Node000027_Node000020" class="edge">
<title>Node27&#45;&gt;Node20</title>
<g id="a_edge36_Node000027_Node000020"><a xlink:title=" ">
<path fill="none" stroke="#63b8ff" d="M2392.19,-69.1C2387.57,-68.03 2382.95,-66.98 2378.5,-66 2299.12,-48.58 2205.13,-30.73 2157.14,-21.81"/>
<polygon fill="#63b8ff" stroke="#63b8ff" points="2391.67,-72.58 2402.21,-71.47 2393.28,-65.76 2391.67,-72.58"/>
</a>
</g>
</g>
<!-- Node28&#45;&gt;Node20 -->
<g id="edge38_Node000028_Node000020" class="edge">
<title>Node28&#45;&gt;Node20</title>
<g id="a_edge38_Node000028_Node000020"><a xlink:title=" ">
<path fill="none" stroke="#63b8ff" d="M2510.48,-69.31C2504.78,-68.12 2499.01,-66.99 2493.5,-66 2369.73,-43.88 2221,-26.45 2157.14,-19.4"/>
<polygon fill="#63b8ff" stroke="#63b8ff" points="2510.11,-72.81 2520.62,-71.48 2511.58,-65.96 2510.11,-72.81"/>
</a>
</g>
</g>
<!-- Node34&#45;&gt;Node20 -->
<g id="edge45_Node000034_Node000020" class="edge">
<title>Node34&#45;&gt;Node20</title>
<g id="a_edge45_Node000034_Node000020"><a xlink:title=" ">
<path fill="none" stroke="#63b8ff" d="M2825.48,-135.37C2831.84,-134.08 2838.32,-132.91 2844.5,-132 2898.95,-124.01 3301.03,-136.3 3338.5,-96 3347.58,-86.24 3347.73,-75.62 3338.5,-66 3296.38,-22.11 2343.65,-16.72 2157.04,-16.08"/>
<polygon fill="#63b8ff" stroke="#63b8ff" points="2824.72,-131.95 2815.66,-137.46 2826.17,-138.8 2824.72,-131.95"/>
</a>
</g>
</g>
</g>
</svg>

<g id="navigator" transform="translate(0 0)" fill="#404254">
  <rect fill="#f2f5e9" fill-opacity="0.5" stroke="#606060" stroke-width=".5" x="0" y="0" width="60" height="60"/>
  <use id="zoomplus" xlink:href="#zoomPlus" x="17" y="9" onmousedown="handleZoom(evt,'in')"/>
  <use id="zoomminus" xlink:href="#zoomMin" x="42" y="9" onmousedown="handleZoom(evt,'out')"/>
  <use id="reset" xlink:href="#resetDef" x="30" y="36" onmousedown="handleReset()"/>
   <use id="arrowup" xlink:href="#arrowUp" x="0" y="0" onmousedown="handlePan(0,-1)"/>
  <use id="arrowright" xlink:href="#arrowRight" x="0" y="0" onmousedown="handlePan(1,0)"/>
  <use id="arrowdown" xlink:href="#arrowDown" x="0" y="0" onmousedown="handlePan(0,1)"/>
  <use id="arrowleft" xlink:href="#arrowLeft" x="0" y="0" onmousedown="handlePan(-1,0)"/>
</g>
<svg viewBox="0 0 15 15" width="100%" height="30px" preserveAspectRatio="xMaxYMin meet">
 <g id="arrow_out" transform="scale(0.3 0.3)">
  <a xlink:href="platform_8h__dep__incl_org.svg" target="_base">
   <rect id="button" ry="5" rx="5" y="6" x="6" height="38" width="38"
        fill="#f2f5e9" fill-opacity="0.5" stroke="#606060" stroke-width="1.0"/>
   <path id="arrow"
     d="M 11.500037,31.436501 C 11.940474,20.09759 22.043105,11.32322 32.158766,21.979434 L 37.068811,17.246167 C 37.068811,17.246167 37.088388,32 37.088388,32 L 22.160133,31.978069 C 22.160133,31.978069 26.997745,27.140456 26.997745,27.140456 C 18.528582,18.264221 13.291696,25.230495 11.500037,31.436501 z"
     style="fill:#404040;"/>
  </a>
 </g>
</svg>

<style type='text/css'>
<![CDATA[
[data-mouse-over-selected='false'] { opacity: 0.7; }
[data-mouse-over-selected='true']  { opacity: 1.0; }
]]>
</style>
<script type="application/ecmascript"><![CDATA[
document.addEventListener('DOMContentLoaded', (event) => {
  highlightEdges();
  highlightAdjacentNodes();
});
]]></script>
</svg>
