<?xml version="1.0" encoding="UTF-8" standalone="no"?>
<!DOCTYPE svg PUBLIC "-//W3C//DTD SVG 1.1//EN"
 "http://www.w3.org/Graphics/SVG/1.1/DTD/svg11.dtd">
<!-- Generated by graphviz version 2.43.0 (0)
 -->
<!-- Title: src/common/platform.h Pages: 1 -->
<svg width="364pt" height="192pt"
 viewBox="0.00 0.00 363.50 192.00" xmlns="http://www.w3.org/2000/svg" xmlns:xlink="http://www.w3.org/1999/xlink">

<svg id="main" version="1.1" xmlns="http://www.w3.org/2000/svg" xmlns:xlink="http://www.w3.org/1999/xlink" xml:space="preserve" onload="init(evt)">
<style type="text/css"><![CDATA[
.node, .edge {opacity: 0.7;}
.node.selected, .edge.selected {opacity: 1;}
.edge:hover path { stroke: red; }
.edge:hover polygon { stroke: red; fill: red; }
]]></style>
<script type="application/ecmascript" xlink:href="svg.min.js"/>
<svg id="graph" class="graph">
<g id="graph0" class="graph" transform="scale(1 1) rotate(0) translate(4 188)">
<title>src/common/platform.h</title>
<!-- Node1 -->
<g id="Node000001" class="node">
<title>Node1</title>
<g id="a_Node000001"><a xlink:title="Declares internal, runtime CPU/OS feature detection functions.">
<polygon fill="#999999" stroke="#666666" points="265.5,-184 134.5,-184 134.5,-165 265.5,-165 265.5,-184"/>
<text text-anchor="middle" x="200" y="-172" font-family="Helvetica,sans-Serif" font-size="10.00">src/common/platform.h</text>
</a>
</g>
</g>
<!-- Node2 -->
<g id="Node000002" class="node">
<title>Node2</title>
<g id="a_Node000002"><a xlink:href="compat__c23_8h.html" target="_top" xlink:title="Provides forward compatibility macros for C23 features.">
<polygon fill="white" stroke="#666666" points="167.5,-129 36.5,-129 36.5,-110 167.5,-110 167.5,-129"/>
<text text-anchor="middle" x="102" y="-117" font-family="Helvetica,sans-Serif" font-size="10.00">common/compat_c23.h</text>
</a>
</g>
</g>
<!-- Node1&#45;&gt;Node2 -->
<g id="edge1_Node000001_Node000002" class="edge">
<title>Node1&#45;&gt;Node2</title>
<g id="a_edge1_Node000001_Node000002"><a xlink:title=" ">
<path fill="none" stroke="#63b8ff" d="M184.25,-164.98C168.77,-156.61 144.91,-143.7 126.86,-133.95"/>
<polygon fill="#63b8ff" stroke="#63b8ff" points="128.49,-130.85 118.03,-129.17 125.16,-137.01 128.49,-130.85"/>
</a>
</g>
</g>
<!-- Node4 -->
<g id="Node000004" class="node">
<title>Node4</title>
<g id="a_Node000004"><a xlink:title=" ">
<polygon fill="#e0e0e0" stroke="#999999" points="208,-19 146,-19 146,0 208,0 208,-19"/>
<text text-anchor="middle" x="177" y="-7" font-family="Helvetica,sans-Serif" font-size="10.00">stdbool.h</text>
</a>
</g>
</g>
<!-- Node1&#45;&gt;Node4 -->
<g id="edge9_Node000001_Node000004" class="edge">
<title>Node1&#45;&gt;Node4</title>
<g id="a_edge9_Node000001_Node000004"><a xlink:title=" ">
<path fill="none" stroke="#63b8ff" d="M198.76,-164.74C195.16,-139.2 184.61,-64.43 179.64,-29.23"/>
<polygon fill="#63b8ff" stroke="#63b8ff" points="183.11,-28.72 178.24,-19.31 176.17,-29.7 183.11,-28.72"/>
</a>
</g>
</g>
<!-- Node7 -->
<g id="Node000007" class="node">
<title>Node7</title>
<g id="a_Node000007"><a xlink:href="infix__config_8h.html" target="_top" xlink:title="Platform, architecture, and ABI detection macros.">
<polygon fill="white" stroke="#666666" points="355.5,-129 228.5,-129 228.5,-110 355.5,-110 355.5,-129"/>
<text text-anchor="middle" x="292" y="-117" font-family="Helvetica,sans-Serif" font-size="10.00">common/infix_config.h</text>
</a>
</g>
</g>
<!-- Node1&#45;&gt;Node7 -->
<g id="edge8_Node000001_Node000007" class="edge">
<title>Node1&#45;&gt;Node7</title>
<g id="a_edge8_Node000001_Node000007"><a xlink:title=" ">
<path fill="none" stroke="#63b8ff" d="M214.78,-164.98C229.18,-156.69 251.31,-143.94 268.19,-134.22"/>
<polygon fill="#63b8ff" stroke="#63b8ff" points="270.03,-137.19 276.95,-129.17 266.54,-131.13 270.03,-137.19"/>
</a>
</g>
</g>
<!-- Node3 -->
<g id="Node000003" class="node">
<title>Node3</title>
<g id="a_Node000003"><a xlink:href="infix_8h.html" target="_top" xlink:title="The public interface for the infix FFI library.">
<polygon fill="white" stroke="#666666" points="133.5,-74 62.5,-74 62.5,-55 133.5,-55 133.5,-74"/>
<text text-anchor="middle" x="98" y="-62" font-family="Helvetica,sans-Serif" font-size="10.00">infix/infix.h</text>
</a>
</g>
</g>
<!-- Node2&#45;&gt;Node3 -->
<g id="edge2_Node000002_Node000003" class="edge">
<title>Node2&#45;&gt;Node3</title>
<g id="a_edge2_Node000002_Node000003"><a xlink:title=" ">
<path fill="none" stroke="#63b8ff" d="M101.34,-109.75C100.82,-102.8 100.06,-92.85 99.41,-84.13"/>
<polygon fill="#63b8ff" stroke="#63b8ff" points="102.89,-83.8 98.65,-74.09 95.91,-84.32 102.89,-83.8"/>
</a>
</g>
</g>
<!-- Node2&#45;&gt;Node4 -->
<g id="edge6_Node000002_Node000004" class="edge">
<title>Node2&#45;&gt;Node4</title>
<g id="a_edge6_Node000002_Node000004"><a xlink:title=" ">
<path fill="none" stroke="#63b8ff" d="M110.92,-109.81C119.48,-101.19 132.49,-87.38 142,-74 152.36,-59.43 162,-41.48 168.53,-28.39"/>
<polygon fill="#63b8ff" stroke="#63b8ff" points="171.82,-29.61 173.05,-19.08 165.53,-26.55 171.82,-29.61"/>
</a>
</g>
</g>
<!-- Node5 -->
<g id="Node000005" class="node">
<title>Node5</title>
<g id="a_Node000005"><a xlink:title=" ">
<polygon fill="#e0e0e0" stroke="#999999" points="56,-19 0,-19 0,0 56,0 56,-19"/>
<text text-anchor="middle" x="28" y="-7" font-family="Helvetica,sans-Serif" font-size="10.00">stddef.h</text>
</a>
</g>
</g>
<!-- Node2&#45;&gt;Node5 -->
<g id="edge7_Node000002_Node000005" class="edge">
<title>Node2&#45;&gt;Node5</title>
<g id="a_edge7_Node000002_Node000005"><a xlink:title=" ">
<path fill="none" stroke="#63b8ff" d="M89.65,-109.87C78.74,-101.71 63.05,-88.56 53,-74 43.53,-60.29 36.92,-42.48 32.89,-29.21"/>
<polygon fill="#63b8ff" stroke="#63b8ff" points="36.18,-28 30.1,-19.33 29.45,-29.9 36.18,-28"/>
</a>
</g>
</g>
<!-- Node3&#45;&gt;Node4 -->
<g id="edge3_Node000003_Node000004" class="edge">
<title>Node3&#45;&gt;Node4</title>
<g id="a_edge3_Node000003_Node000004"><a xlink:title=" ">
<path fill="none" stroke="#63b8ff" d="M110.69,-54.98C122.83,-46.84 141.36,-34.41 155.75,-24.76"/>
<polygon fill="#63b8ff" stroke="#63b8ff" points="157.72,-27.65 164.08,-19.17 153.82,-21.84 157.72,-27.65"/>
</a>
</g>
</g>
<!-- Node3&#45;&gt;Node5 -->
<g id="edge4_Node000003_Node000005" class="edge">
<title>Node3&#45;&gt;Node5</title>
<g id="a_edge4_Node000003_Node000005"><a xlink:title=" ">
<path fill="none" stroke="#63b8ff" d="M86.75,-54.98C76.2,-47 60.2,-34.88 47.56,-25.31"/>
<polygon fill="#63b8ff" stroke="#63b8ff" points="49.54,-22.42 39.45,-19.17 45.31,-28 49.54,-22.42"/>
</a>
</g>
</g>
<!-- Node6 -->
<g id="Node000006" class="node">
<title>Node6</title>
<g id="a_Node000006"><a xlink:title=" ">
<polygon fill="#e0e0e0" stroke="#999999" points="127.5,-19 74.5,-19 74.5,0 127.5,0 127.5,-19"/>
<text text-anchor="middle" x="101" y="-7" font-family="Helvetica,sans-Serif" font-size="10.00">stdint.h</text>
</a>
</g>
</g>
<!-- Node3&#45;&gt;Node6 -->
<g id="edge5_Node000003_Node000006" class="edge">
<title>Node3&#45;&gt;Node6</title>
<g id="a_edge5_Node000003_Node000006"><a xlink:title=" ">
<path fill="none" stroke="#63b8ff" d="M98.5,-54.75C98.89,-47.8 99.45,-37.85 99.95,-29.13"/>
<polygon fill="#63b8ff" stroke="#63b8ff" points="103.44,-29.27 100.51,-19.09 96.45,-28.88 103.44,-29.27"/>
</a>
</g>
</g>
</g>
</svg>
</svg>

<style type='text/css'>
<![CDATA[
[data-mouse-over-selected='false'] { opacity: 0.7; }
[data-mouse-over-selected='true']  { opacity: 1.0; }
]]>
</style>
<script type="application/ecmascript"><![CDATA[
document.addEventListener('DOMContentLoaded', (event) => {
  highlightEdges();
  highlightAdjacentNodes();
});
]]></script>
</svg>
