<?xml version="1.0" encoding="UTF-8" standalone="no"?>
<!DOCTYPE svg PUBLIC "-//W3C//DTD SVG 1.1//EN"
 "http://www.w3.org/Graphics/SVG/1.1/DTD/svg11.dtd">
<!-- Generated by graphviz version 2.43.0 (0)
 -->
<!-- Title: src/common/platform.h Pages: 1 -->
<svg width="2821pt" height="214pt"
 viewBox="0.00 0.00 2821.32 214.00" xmlns="http://www.w3.org/2000/svg" xmlns:xlink="http://www.w3.org/1999/xlink">
<g id="graph0" class="graph" transform="scale(1 1) rotate(0) translate(4 210)">
<title>src/common/platform.h</title>
<!-- Node1 -->
<g id="Node000001" class="node">
<title>Node1</title>
<g id="a_Node000001"><a xlink:title="Declares internal, runtime CPU/OS feature detection functions.">
<polygon fill="#999999" stroke="#666666" points="1828,-206 1697,-206 1697,-187 1828,-187 1828,-206"/>
<text text-anchor="middle" x="1762.5" y="-194" font-family="Helvetica,sans-Serif" font-size="10.00">src/common/platform.h</text>
</a>
</g>
</g>
<!-- Node2 -->
<g id="Node000002" class="node">
<title>Node2</title>
<g id="a_Node000002"><a xlink:href="infix__internals_8h.html" target="_top" xlink:title="Internal data structures, function prototypes, and constants.">
<polygon fill="white" stroke="#666666" points="1766.5,-151 1608.5,-151 1608.5,-132 1766.5,-132 1766.5,-151"/>
<text text-anchor="middle" x="1687.5" y="-139" font-family="Helvetica,sans-Serif" font-size="10.00">src/common/infix_internals.h</text>
</a>
</g>
</g>
<!-- Node1&#45;&gt;Node2 -->
<g id="edge1_Node000001_Node000002" class="edge">
<title>Node1&#45;&gt;Node2</title>
<g id="a_edge1_Node000001_Node000002"><a xlink:title=" ">
<path fill="none" stroke="#63b8ff" d="M1742.19,-181.15C1728.64,-171.57 1711.26,-159.29 1699.77,-151.17"/>
<polygon fill="#63b8ff" stroke="#63b8ff" points="1740.26,-184.07 1750.45,-186.98 1744.3,-178.36 1740.26,-184.07"/>
</a>
</g>
</g>
<!-- Node30 -->
<g id="Node000030" class="node">
<title>Node30</title>
<g id="a_Node000030"><a xlink:href="platform_8c.html" target="_top" xlink:title="Implements runtime detection of CPU and OS features.">
<polygon fill="white" stroke="#666666" points="2385.5,-151 2277.5,-151 2277.5,-132 2385.5,-132 2385.5,-151"/>
<text text-anchor="middle" x="2331.5" y="-139" font-family="Helvetica,sans-Serif" font-size="10.00">src/core/platform.c</text>
</a>
</g>
</g>
<!-- Node1&#45;&gt;Node30 -->
<g id="edge39_Node000001_Node000030" class="edge">
<title>Node1&#45;&gt;Node30</title>
<g id="a_edge39_Node000001_Node000030"><a xlink:title=" ">
<path fill="none" stroke="#63b8ff" d="M1838.31,-188.44C1954.84,-177.58 2175.17,-157.06 2277.17,-147.56"/>
<polygon fill="#63b8ff" stroke="#63b8ff" points="1837.68,-184.98 1828.05,-189.39 1838.33,-191.95 1837.68,-184.98"/>
</a>
</g>
</g>
<!-- Node3 -->
<g id="Node000003" class="node">
<title>Node3</title>
<g id="a_Node000003"><a xlink:href="fuzz__helpers_8h.html" target="_top" xlink:title="Common definitions, structures, and helpers for all fuzzer targets.">
<polygon fill="white" stroke="#666666" points="491.5,-90.5 381.5,-90.5 381.5,-71.5 491.5,-71.5 491.5,-90.5"/>
<text text-anchor="middle" x="436.5" y="-78.5" font-family="Helvetica,sans-Serif" font-size="10.00">fuzz/fuzz_helpers.h</text>
</a>
</g>
</g>
<!-- Node2&#45;&gt;Node3 -->
<g id="edge2_Node000002_Node000003" class="edge">
<title>Node2&#45;&gt;Node3</title>
<g id="a_edge2_Node000002_Node000003"><a xlink:title=" ">
<path fill="none" stroke="#63b8ff" d="M1598.1,-136.32C1355.27,-124.96 688.57,-93.79 491.84,-84.59"/>
<polygon fill="#63b8ff" stroke="#63b8ff" points="1598.14,-139.83 1608.3,-136.8 1598.47,-132.83 1598.14,-139.83"/>
</a>
</g>
</g>
<!-- Node10 -->
<g id="Node000010" class="node">
<title>Node10</title>
<g id="a_Node000010"><a xlink:href="abi__arm64_8c.html" target="_top" xlink:title="Implements the FFI logic for the AArch64 (ARM64) architecture.">
<polygon fill="white" stroke="#666666" points="909,-30 794,-30 794,0 909,0 909,-30"/>
<text text-anchor="start" x="802" y="-18" font-family="Helvetica,sans-Serif" font-size="10.00">src/arch/aarch64/abi</text>
<text text-anchor="middle" x="851.5" y="-7" font-family="Helvetica,sans-Serif" font-size="10.00">_arm64.c</text>
</a>
</g>
</g>
<!-- Node2&#45;&gt;Node10 -->
<g id="edge9_Node000002_Node000010" class="edge">
<title>Node2&#45;&gt;Node10</title>
<g id="a_edge9_Node000002_Node000010"><a xlink:title=" ">
<path fill="none" stroke="#63b8ff" d="M1598.01,-139.33C1408.02,-136.28 976.83,-126.09 917.5,-96 889.08,-81.58 868.41,-48.86 858.36,-30.03"/>
<polygon fill="#63b8ff" stroke="#63b8ff" points="1598.19,-142.84 1608.25,-139.49 1598.3,-135.84 1598.19,-142.84"/>
</a>
</g>
</g>
<!-- Node11 -->
<g id="Node000011" class="node">
<title>Node11</title>
<g id="a_Node000011"><a xlink:href="abi__arm64__emitters_8h.html" target="_top" xlink:title="Declares internal helper functions for emitting AArch64 machine code.">
<polygon fill="white" stroke="#666666" points="1042,-96 927,-96 927,-66 1042,-66 1042,-96"/>
<text text-anchor="start" x="935" y="-84" font-family="Helvetica,sans-Serif" font-size="10.00">src/arch/aarch64/abi</text>
<text text-anchor="middle" x="984.5" y="-73" font-family="Helvetica,sans-Serif" font-size="10.00">_arm64_emitters.h</text>
</a>
</g>
</g>
<!-- Node2&#45;&gt;Node11 -->
<g id="edge10_Node000002_Node000011" class="edge">
<title>Node2&#45;&gt;Node11</title>
<g id="a_edge10_Node000002_Node000011"><a xlink:title=" ">
<path fill="none" stroke="#63b8ff" d="M1598.32,-135.91C1479.98,-129.37 1264.67,-115.92 1081.5,-96 1068.73,-94.61 1055.05,-92.82 1042.12,-90.99"/>
<polygon fill="#63b8ff" stroke="#63b8ff" points="1598.24,-139.41 1608.41,-136.46 1598.62,-132.42 1598.24,-139.41"/>
</a>
</g>
</g>
<!-- Node13 -->
<g id="Node000013" class="node">
<title>Node13</title>
<g id="a_Node000013"><a xlink:href="abi__sysv__x64_8c.html" target="_top" xlink:title="Implements the FFI logic for the System V AMD64 ABI.">
<polygon fill="white" stroke="#666666" points="1182.5,-30 1060.5,-30 1060.5,0 1182.5,0 1182.5,-30"/>
<text text-anchor="start" x="1068.5" y="-18" font-family="Helvetica,sans-Serif" font-size="10.00">src/arch/x64/abi_sysv</text>
<text text-anchor="middle" x="1121.5" y="-7" font-family="Helvetica,sans-Serif" font-size="10.00">_x64.c</text>
</a>
</g>
</g>
<!-- Node2&#45;&gt;Node13 -->
<g id="edge13_Node000002_Node000013" class="edge">
<title>Node2&#45;&gt;Node13</title>
<g id="a_edge13_Node000002_Node000013"><a xlink:title=" ">
<path fill="none" stroke="#63b8ff" d="M1598.14,-140.08C1445.22,-138.41 1146.61,-130.7 1114.5,-96 1098.12,-78.3 1107.07,-47.99 1114.6,-30.19"/>
<polygon fill="#63b8ff" stroke="#63b8ff" points="1598.41,-143.58 1608.45,-140.18 1598.48,-136.58 1598.41,-143.58"/>
</a>
</g>
</g>
<!-- Node14 -->
<g id="Node000014" class="node">
<title>Node14</title>
<g id="a_Node000014"><a xlink:href="abi__win__x64_8c.html" target="_top" xlink:title="Implements the FFI logic for the Windows x64 calling convention.">
<polygon fill="white" stroke="#666666" points="1452.5,-30 1336.5,-30 1336.5,0 1452.5,0 1452.5,-30"/>
<text text-anchor="start" x="1344.5" y="-18" font-family="Helvetica,sans-Serif" font-size="10.00">src/arch/x64/abi_win</text>
<text text-anchor="middle" x="1394.5" y="-7" font-family="Helvetica,sans-Serif" font-size="10.00">_x64.c</text>
</a>
</g>
</g>
<!-- Node2&#45;&gt;Node14 -->
<g id="edge14_Node000002_Node000014" class="edge">
<title>Node2&#45;&gt;Node14</title>
<g id="a_edge14_Node000002_Node000014"><a xlink:title=" ">
<path fill="none" stroke="#63b8ff" d="M1598.19,-136.74C1486.9,-131.11 1308.78,-118.67 1288.5,-96 1264.13,-68.77 1310.57,-44.59 1349.48,-30.12"/>
<polygon fill="#63b8ff" stroke="#63b8ff" points="1598.25,-140.24 1608.41,-137.24 1598.6,-133.25 1598.25,-140.24"/>
</a>
</g>
</g>
<!-- Node15 -->
<g id="Node000015" class="node">
<title>Node15</title>
<g id="a_Node000015"><a xlink:href="abi__x64__emitters_8h.html" target="_top" xlink:title="Declares internal helper functions for emitting x86&#45;64 machine code.">
<polygon fill="white" stroke="#666666" points="1241,-96 1124,-96 1124,-66 1241,-66 1241,-96"/>
<text text-anchor="start" x="1132" y="-84" font-family="Helvetica,sans-Serif" font-size="10.00">src/arch/x64/abi_x64</text>
<text text-anchor="middle" x="1182.5" y="-73" font-family="Helvetica,sans-Serif" font-size="10.00">_emitters.h</text>
</a>
</g>
</g>
<!-- Node2&#45;&gt;Node15 -->
<g id="edge15_Node000002_Node000015" class="edge">
<title>Node2&#45;&gt;Node15</title>
<g id="a_edge15_Node000002_Node000015"><a xlink:title=" ">
<path fill="none" stroke="#63b8ff" d="M1598.25,-133.58C1510.7,-126.26 1373.53,-113.36 1255.5,-96 1250.9,-95.32 1246.16,-94.56 1241.39,-93.75"/>
<polygon fill="#63b8ff" stroke="#63b8ff" points="1598.16,-137.09 1608.41,-134.43 1598.74,-130.11 1598.16,-137.09"/>
</a>
</g>
</g>
<!-- Node17 -->
<g id="Node000017" class="node">
<title>Node17</title>
<g id="a_Node000017"><a xlink:href="arena_8c.html" target="_top" xlink:title="Implements a simple, fast arena (or region&#45;based) allocator.">
<polygon fill="white" stroke="#666666" points="1391.5,-90.5 1297.5,-90.5 1297.5,-71.5 1391.5,-71.5 1391.5,-90.5"/>
<text text-anchor="middle" x="1344.5" y="-78.5" font-family="Helvetica,sans-Serif" font-size="10.00">src/core/arena.c</text>
</a>
</g>
</g>
<!-- Node2&#45;&gt;Node17 -->
<g id="edge19_Node000002_Node000017" class="edge">
<title>Node2&#45;&gt;Node17</title>
<g id="a_edge19_Node000002_Node000017"><a xlink:title=" ">
<path fill="none" stroke="#63b8ff" d="M1611.18,-130.6C1553.16,-122.6 1471.48,-110.35 1400.5,-96 1392.64,-94.41 1384.23,-92.45 1376.37,-90.5"/>
<polygon fill="#63b8ff" stroke="#63b8ff" points="1610.99,-134.1 1621.37,-131.99 1611.94,-127.17 1610.99,-134.1"/>
</a>
</g>
</g>
<!-- Node19 -->
<g id="Node000019" class="node">
<title>Node19</title>
<g id="a_Node000019"><a xlink:href="error_8c.html" target="_top" xlink:title="Implements the thread&#45;local error reporting system.">
<polygon fill="white" stroke="#666666" points="1499,-90.5 1410,-90.5 1410,-71.5 1499,-71.5 1499,-90.5"/>
<text text-anchor="middle" x="1454.5" y="-78.5" font-family="Helvetica,sans-Serif" font-size="10.00">src/core/error.c</text>
</a>
</g>
</g>
<!-- Node2&#45;&gt;Node19 -->
<g id="edge21_Node000002_Node000019" class="edge">
<title>Node2&#45;&gt;Node19</title>
<g id="a_edge21_Node000002_Node000019"><a xlink:title=" ">
<path fill="none" stroke="#63b8ff" d="M1643.05,-129.58C1606.82,-120.65 1554.32,-107.63 1508.5,-96 1501.65,-94.26 1494.31,-92.37 1487.33,-90.57"/>
<polygon fill="#63b8ff" stroke="#63b8ff" points="1642.28,-132.99 1652.82,-131.99 1643.95,-126.2 1642.28,-132.99"/>
</a>
</g>
</g>
<!-- Node20 -->
<g id="Node000020" class="node">
<title>Node20</title>
<g id="a_Node000020"><a xlink:href="loader_8c.html" target="_top" xlink:title="Implements cross&#45;platform dynamic library loading.">
<polygon fill="white" stroke="#666666" points="1613.5,-90.5 1517.5,-90.5 1517.5,-71.5 1613.5,-71.5 1613.5,-90.5"/>
<text text-anchor="middle" x="1565.5" y="-78.5" font-family="Helvetica,sans-Serif" font-size="10.00">src/core/loader.c</text>
</a>
</g>
</g>
<!-- Node2&#45;&gt;Node20 -->
<g id="edge23_Node000002_Node000020" class="edge">
<title>Node2&#45;&gt;Node20</title>
<g id="a_edge23_Node000002_Node000020"><a xlink:title=" ">
<path fill="none" stroke="#63b8ff" d="M1660.67,-127.63C1637.14,-116.35 1603.6,-100.27 1583.26,-90.52"/>
<polygon fill="#63b8ff" stroke="#63b8ff" points="1659.23,-130.83 1669.76,-131.99 1662.26,-124.51 1659.23,-130.83"/>
</a>
</g>
</g>
<!-- Node21 -->
<g id="Node000021" class="node">
<title>Node21</title>
<g id="a_Node000021"><a xlink:href="signature_8c.html" target="_top" xlink:title="Implements the infix signature string parser and type printer.">
<polygon fill="white" stroke="#666666" points="1743.5,-90.5 1631.5,-90.5 1631.5,-71.5 1743.5,-71.5 1743.5,-90.5"/>
<text text-anchor="middle" x="1687.5" y="-78.5" font-family="Helvetica,sans-Serif" font-size="10.00">src/core/signature.c</text>
</a>
</g>
</g>
<!-- Node2&#45;&gt;Node21 -->
<g id="edge25_Node000002_Node000021" class="edge">
<title>Node2&#45;&gt;Node21</title>
<g id="a_edge25_Node000002_Node000021"><a xlink:title=" ">
<path fill="none" stroke="#63b8ff" d="M1687.5,-121.66C1687.5,-111.24 1687.5,-98.8 1687.5,-90.67"/>
<polygon fill="#63b8ff" stroke="#63b8ff" points="1684,-121.87 1687.5,-131.87 1691,-121.87 1684,-121.87"/>
</a>
</g>
</g>
<!-- Node22 -->
<g id="Node000022" class="node">
<title>Node22</title>
<g id="a_Node000022"><a xlink:href="type__registry_8c.html" target="_top" xlink:title="Implements the named type registry system.">
<polygon fill="white" stroke="#666666" points="1891,-90.5 1762,-90.5 1762,-71.5 1891,-71.5 1891,-90.5"/>
<text text-anchor="middle" x="1826.5" y="-78.5" font-family="Helvetica,sans-Serif" font-size="10.00">src/core/type_registry.c</text>
</a>
</g>
</g>
<!-- Node2&#45;&gt;Node22 -->
<g id="edge27_Node000002_Node000022" class="edge">
<title>Node2&#45;&gt;Node22</title>
<g id="a_edge27_Node000002_Node000022"><a xlink:title=" ">
<path fill="none" stroke="#63b8ff" d="M1717.01,-128.08C1743.86,-116.78 1782.78,-100.4 1806.26,-90.52"/>
<polygon fill="#63b8ff" stroke="#63b8ff" points="1715.57,-124.89 1707.71,-131.99 1718.29,-131.34 1715.57,-124.89"/>
</a>
</g>
</g>
<!-- Node23 -->
<g id="Node000023" class="node">
<title>Node23</title>
<g id="a_Node000023"><a xlink:href="types_8c.html" target="_top" xlink:title="Implements the public API for creating and managing type descriptions.">
<polygon fill="white" stroke="#666666" points="2002,-90.5 1909,-90.5 1909,-71.5 2002,-71.5 2002,-90.5"/>
<text text-anchor="middle" x="1955.5" y="-78.5" font-family="Helvetica,sans-Serif" font-size="10.00">src/core/types.c</text>
</a>
</g>
</g>
<!-- Node2&#45;&gt;Node23 -->
<g id="edge29_Node000002_Node000023" class="edge">
<title>Node2&#45;&gt;Node23</title>
<g id="a_edge29_Node000002_Node000023"><a xlink:title=" ">
<path fill="none" stroke="#63b8ff" d="M1740.59,-129.94C1783.55,-121.25 1845.55,-108.4 1899.5,-96 1906.92,-94.29 1914.87,-92.37 1922.39,-90.5"/>
<polygon fill="#63b8ff" stroke="#63b8ff" points="1739.76,-126.54 1730.64,-131.94 1741.14,-133.4 1739.76,-126.54"/>
</a>
</g>
</g>
<!-- Node24 -->
<g id="Node000024" class="node">
<title>Node24</title>
<g id="a_Node000024"><a xlink:href="executor_8c.html" target="_top" xlink:title="Implements platform&#45;specific memory management for JIT code and execution.">
<polygon fill="white" stroke="#666666" points="2116.5,-90.5 2020.5,-90.5 2020.5,-71.5 2116.5,-71.5 2116.5,-90.5"/>
<text text-anchor="middle" x="2068.5" y="-78.5" font-family="Helvetica,sans-Serif" font-size="10.00">src/jit/executor.c</text>
</a>
</g>
</g>
<!-- Node2&#45;&gt;Node24 -->
<g id="edge31_Node000002_Node000024" class="edge">
<title>Node2&#45;&gt;Node24</title>
<g id="a_edge31_Node000002_Node000024"><a xlink:title=" ">
<path fill="none" stroke="#63b8ff" d="M1775.75,-130.76C1840.89,-122.98 1931.57,-110.92 2010.5,-96 2018.64,-94.46 2027.36,-92.52 2035.5,-90.57"/>
<polygon fill="#63b8ff" stroke="#63b8ff" points="1775.04,-127.31 1765.52,-131.97 1775.86,-134.27 1775.04,-127.31"/>
</a>
</g>
</g>
<!-- Node25 -->
<g id="Node000025" class="node">
<title>Node25</title>
<g id="a_Node000025"><a xlink:href="trampoline_8c.html" target="_top" xlink:title="The core JIT engine for generating forward and reverse trampolines.">
<polygon fill="white" stroke="#666666" points="2242.5,-90.5 2134.5,-90.5 2134.5,-71.5 2242.5,-71.5 2242.5,-90.5"/>
<text text-anchor="middle" x="2188.5" y="-78.5" font-family="Helvetica,sans-Serif" font-size="10.00">src/jit/trampoline.c</text>
</a>
</g>
</g>
<!-- Node2&#45;&gt;Node25 -->
<g id="edge33_Node000002_Node000025" class="edge">
<title>Node2&#45;&gt;Node25</title>
<g id="a_edge33_Node000002_Node000025"><a xlink:title=" ">
<path fill="none" stroke="#63b8ff" d="M1776.62,-134.53C1865.41,-127.85 2005.43,-115.37 2125.5,-96 2134.68,-94.52 2144.53,-92.53 2153.65,-90.51"/>
<polygon fill="#63b8ff" stroke="#63b8ff" points="1776.3,-131.04 1766.59,-135.27 1776.82,-138.02 1776.3,-131.04"/>
</a>
</g>
</g>
<!-- Node26 -->
<g id="Node000026" class="node">
<title>Node26</title>
<g id="a_Node000026"><a xlink:href="008__registry__introspection_8c.html" target="_top" xlink:title="Unit test for the registry introspection and serialization APIs.">
<polygon fill="white" stroke="#666666" points="2422,-90.5 2261,-90.5 2261,-71.5 2422,-71.5 2422,-90.5"/>
<text text-anchor="middle" x="2341.5" y="-78.5" font-family="Helvetica,sans-Serif" font-size="10.00">t/008_registry_introspection.c</text>
</a>
</g>
</g>
<!-- Node2&#45;&gt;Node26 -->
<g id="edge35_Node000002_Node000026" class="edge">
<title>Node2&#45;&gt;Node26</title>
<g id="a_edge35_Node000002_Node000026"><a xlink:title=" ">
<path fill="none" stroke="#63b8ff" d="M1776.79,-135.55C1888.16,-128.88 2084.29,-115.57 2251.5,-96 2264.38,-94.49 2278.24,-92.51 2291.14,-90.52"/>
<polygon fill="#63b8ff" stroke="#63b8ff" points="1776.39,-132.06 1766.61,-136.15 1776.8,-139.05 1776.39,-132.06"/>
</a>
</g>
</g>
<!-- Node27 -->
<g id="Node000027" class="node">
<title>Node27</title>
<g id="a_Node000027"><a xlink:href="101__by__value_8c.html" target="_top" xlink:title="Unit test for passing and returning aggregates and vectors by value.">
<polygon fill="white" stroke="#666666" points="2539,-90.5 2440,-90.5 2440,-71.5 2539,-71.5 2539,-90.5"/>
<text text-anchor="middle" x="2489.5" y="-78.5" font-family="Helvetica,sans-Serif" font-size="10.00">t/101_by_value.c</text>
</a>
</g>
</g>
<!-- Node2&#45;&gt;Node27 -->
<g id="edge36_Node000002_Node000027" class="edge">
<title>Node2&#45;&gt;Node27</title>
<g id="a_edge36_Node000002_Node000027"><a xlink:title=" ">
<path fill="none" stroke="#63b8ff" d="M1776.84,-140.13C1916.89,-138.43 2196.34,-130.53 2430.5,-96 2439.56,-94.66 2449.28,-92.62 2458.16,-90.5"/>
<polygon fill="#63b8ff" stroke="#63b8ff" points="1776.55,-136.63 1766.59,-140.24 1776.63,-143.63 1776.55,-136.63"/>
</a>
</g>
</g>
<!-- Node28 -->
<g id="Node000028" class="node">
<title>Node28</title>
<g id="a_Node000028"><a xlink:href="830__security_8c.html" target="_top" xlink:title="Unit test for security&#45;hardening features of the infix library.">
<polygon fill="white" stroke="#666666" points="2649.5,-90.5 2557.5,-90.5 2557.5,-71.5 2649.5,-71.5 2649.5,-90.5"/>
<text text-anchor="middle" x="2603.5" y="-78.5" font-family="Helvetica,sans-Serif" font-size="10.00">t/830_security.c</text>
</a>
</g>
</g>
<!-- Node2&#45;&gt;Node28 -->
<g id="edge37_Node000002_Node000028" class="edge">
<title>Node2&#45;&gt;Node28</title>
<g id="a_edge37_Node000002_Node000028"><a xlink:title=" ">
<path fill="none" stroke="#63b8ff" d="M1776.74,-138.07C1965.71,-132.57 2400.95,-117.9 2547.5,-96 2556.12,-94.71 2565.35,-92.68 2573.78,-90.56"/>
<polygon fill="#63b8ff" stroke="#63b8ff" points="1776.45,-134.58 1766.56,-138.36 1776.65,-141.57 1776.45,-134.58"/>
</a>
</g>
</g>
<!-- Node29 -->
<g id="Node000029" class="node">
<title>Node29</title>
<g id="a_Node000029"><a xlink:href="840__arena__allocator_8c.html" target="_top" xlink:title="Unit test for the internal arena allocator.">
<polygon fill="white" stroke="#666666" points="2797.5,-90.5 2667.5,-90.5 2667.5,-71.5 2797.5,-71.5 2797.5,-90.5"/>
<text text-anchor="middle" x="2732.5" y="-78.5" font-family="Helvetica,sans-Serif" font-size="10.00">t/840_arena_allocator.c</text>
</a>
</g>
</g>
<!-- Node2&#45;&gt;Node29 -->
<g id="edge38_Node000002_Node000029" class="edge">
<title>Node2&#45;&gt;Node29</title>
<g id="a_edge38_Node000002_Node000029"><a xlink:title=" ">
<path fill="none" stroke="#63b8ff" d="M1777.03,-140.61C1948.64,-139.89 2335.53,-133.76 2658.5,-96 2669.8,-94.68 2681.96,-92.64 2693.1,-90.52"/>
<polygon fill="#63b8ff" stroke="#63b8ff" points="1776.77,-137.11 1766.79,-140.65 1776.8,-144.11 1776.77,-137.11"/>
</a>
</g>
</g>
<!-- Node4 -->
<g id="Node000004" class="node">
<title>Node4</title>
<g id="a_Node000004"><a xlink:href="fuzz__abi_8c.html" target="_top" xlink:title="Fuzzer target for the ABI classification layer.">
<polygon fill="white" stroke="#666666" points="89,-24.5 0,-24.5 0,-5.5 89,-5.5 89,-24.5"/>
<text text-anchor="middle" x="44.5" y="-12.5" font-family="Helvetica,sans-Serif" font-size="10.00">fuzz/fuzz_abi.c</text>
</a>
</g>
</g>
<!-- Node3&#45;&gt;Node4 -->
<g id="edge3_Node000003_Node000004" class="edge">
<title>Node3&#45;&gt;Node4</title>
<g id="a_edge3_Node000003_Node000004"><a xlink:title=" ">
<path fill="none" stroke="#63b8ff" d="M371.26,-72.45C302.93,-64.05 192.64,-49.11 98.5,-30 90.91,-28.46 82.79,-26.51 75.21,-24.57"/>
<polygon fill="#63b8ff" stroke="#63b8ff" points="371.1,-75.95 381.45,-73.69 371.95,-69.01 371.1,-75.95"/>
</a>
</g>
</g>
<!-- Node5 -->
<g id="Node000005" class="node">
<title>Node5</title>
<g id="a_Node000005"><a xlink:href="fuzz__helpers_8c.html" target="_top" xlink:title="Implements the core logic for generating random infix_type graphs from fuzzer input.">
<polygon fill="white" stroke="#666666" points="217.5,-24.5 107.5,-24.5 107.5,-5.5 217.5,-5.5 217.5,-24.5"/>
<text text-anchor="middle" x="162.5" y="-12.5" font-family="Helvetica,sans-Serif" font-size="10.00">fuzz/fuzz_helpers.c</text>
</a>
</g>
</g>
<!-- Node3&#45;&gt;Node5 -->
<g id="edge4_Node000003_Node000005" class="edge">
<title>Node3&#45;&gt;Node5</title>
<g id="a_edge4_Node000003_Node000005"><a xlink:title=" ">
<path fill="none" stroke="#63b8ff" d="M389.84,-69.1C335.87,-56.49 248.16,-36.01 198.95,-24.51"/>
<polygon fill="#63b8ff" stroke="#63b8ff" points="389.3,-72.57 399.83,-71.44 390.89,-65.75 389.3,-72.57"/>
</a>
</g>
</g>
<!-- Node6 -->
<g id="Node000006" class="node">
<title>Node6</title>
<g id="a_Node000006"><a xlink:href="fuzz__signature_8c.html" target="_top" xlink:title="Fuzzer target for the high&#45;level signature parsing API.">
<polygon fill="white" stroke="#666666" points="355,-24.5 236,-24.5 236,-5.5 355,-5.5 355,-24.5"/>
<text text-anchor="middle" x="295.5" y="-12.5" font-family="Helvetica,sans-Serif" font-size="10.00">fuzz/fuzz_signature.c</text>
</a>
</g>
</g>
<!-- Node3&#45;&gt;Node6 -->
<g id="edge5_Node000003_Node000006" class="edge">
<title>Node3&#45;&gt;Node6</title>
<g id="a_edge5_Node000003_Node000006"><a xlink:title=" ">
<path fill="none" stroke="#63b8ff" d="M408.29,-67.19C380.5,-54.58 338.81,-35.66 314.66,-24.7"/>
<polygon fill="#63b8ff" stroke="#63b8ff" points="406.93,-70.42 417.48,-71.37 409.82,-64.05 406.93,-70.42"/>
</a>
</g>
</g>
<!-- Node7 -->
<g id="Node000007" class="node">
<title>Node7</title>
<g id="a_Node000007"><a xlink:href="fuzz__trampoline_8c.html" target="_top" xlink:title="Fuzzer target for the trampoline generation functions, including shared arena logic.">
<polygon fill="white" stroke="#666666" points="500,-24.5 373,-24.5 373,-5.5 500,-5.5 500,-24.5"/>
<text text-anchor="middle" x="436.5" y="-12.5" font-family="Helvetica,sans-Serif" font-size="10.00">fuzz/fuzz_trampoline.c</text>
</a>
</g>
</g>
<!-- Node3&#45;&gt;Node7 -->
<g id="edge6_Node000003_Node000007" class="edge">
<title>Node3&#45;&gt;Node7</title>
<g id="a_edge6_Node000003_Node000007"><a xlink:title=" ">
<path fill="none" stroke="#63b8ff" d="M436.5,-61.08C436.5,-49.13 436.5,-34.22 436.5,-24.91"/>
<polygon fill="#63b8ff" stroke="#63b8ff" points="433,-61.37 436.5,-71.37 440,-61.37 433,-61.37"/>
</a>
</g>
</g>
<!-- Node8 -->
<g id="Node000008" class="node">
<title>Node8</title>
<g id="a_Node000008"><a xlink:href="fuzz__types_8c.html" target="_top" xlink:title="Fuzzer target for the random type generation logic.">
<polygon fill="white" stroke="#666666" points="619,-24.5 518,-24.5 518,-5.5 619,-5.5 619,-24.5"/>
<text text-anchor="middle" x="568.5" y="-12.5" font-family="Helvetica,sans-Serif" font-size="10.00">fuzz/fuzz_types.c</text>
</a>
</g>
</g>
<!-- Node3&#45;&gt;Node8 -->
<g id="edge7_Node000003_Node000008" class="edge">
<title>Node3&#45;&gt;Node8</title>
<g id="a_edge7_Node000003_Node000008"><a xlink:title=" ">
<path fill="none" stroke="#63b8ff" d="M463.6,-66.86C489.61,-54.25 528.15,-35.56 550.56,-24.7"/>
<polygon fill="#63b8ff" stroke="#63b8ff" points="461.77,-63.86 454.3,-71.37 464.83,-70.16 461.77,-63.86"/>
</a>
</g>
</g>
<!-- Node9 -->
<g id="Node000009" class="node">
<title>Node9</title>
<g id="a_Node000009"><a xlink:href="850__regression__cases_8c.html" target="_top" xlink:title="A suite of regression tests for bugs discovered by fuzzing.">
<polygon fill="white" stroke="#666666" points="776,-24.5 637,-24.5 637,-5.5 776,-5.5 776,-24.5"/>
<text text-anchor="middle" x="706.5" y="-12.5" font-family="Helvetica,sans-Serif" font-size="10.00">t/850_regression_cases.c</text>
</a>
</g>
</g>
<!-- Node3&#45;&gt;Node9 -->
<g id="edge8_Node000003_Node000009" class="edge">
<title>Node3&#45;&gt;Node9</title>
<g id="a_edge8_Node000003_Node000009"><a xlink:title=" ">
<path fill="none" stroke="#63b8ff" d="M482.48,-69.1C535.66,-56.49 622.09,-36.01 670.58,-24.51"/>
<polygon fill="#63b8ff" stroke="#63b8ff" points="481.56,-65.72 472.63,-71.44 483.17,-72.53 481.56,-65.72"/>
</a>
</g>
</g>
<!-- Node11&#45;&gt;Node10 -->
<g id="edge11_Node000011_Node000010" class="edge">
<title>Node11&#45;&gt;Node10</title>
<g id="a_edge11_Node000011_Node000010"><a xlink:title=" ">
<path fill="none" stroke="#63b8ff" d="M946.08,-61.51C925.22,-51.47 899.83,-39.26 880.62,-30.01"/>
<polygon fill="#63b8ff" stroke="#63b8ff" points="944.78,-64.77 955.31,-65.95 947.82,-58.46 944.78,-64.77"/>
</a>
</g>
</g>
<!-- Node12 -->
<g id="Node000012" class="node">
<title>Node12</title>
<g id="a_Node000012"><a xlink:href="abi__arm64__emitters_8c.html" target="_top" xlink:title="Implements internal helper functions for emitting AArch64 machine code.">
<polygon fill="white" stroke="#666666" points="1042,-30 927,-30 927,0 1042,0 1042,-30"/>
<text text-anchor="start" x="935" y="-18" font-family="Helvetica,sans-Serif" font-size="10.00">src/arch/aarch64/abi</text>
<text text-anchor="middle" x="984.5" y="-7" font-family="Helvetica,sans-Serif" font-size="10.00">_arm64_emitters.c</text>
</a>
</g>
</g>
<!-- Node11&#45;&gt;Node12 -->
<g id="edge12_Node000011_Node000012" class="edge">
<title>Node11&#45;&gt;Node12</title>
<g id="a_edge12_Node000011_Node000012"><a xlink:title=" ">
<path fill="none" stroke="#63b8ff" d="M984.5,-55.54C984.5,-46.96 984.5,-37.61 984.5,-30.16"/>
<polygon fill="#63b8ff" stroke="#63b8ff" points="981,-55.8 984.5,-65.8 988,-55.8 981,-55.8"/>
</a>
</g>
</g>
<!-- Node15&#45;&gt;Node13 -->
<g id="edge16_Node000015_Node000013" class="edge">
<title>Node15&#45;&gt;Node13</title>
<g id="a_edge16_Node000015_Node000013"><a xlink:title=" ">
<path fill="none" stroke="#63b8ff" d="M1161.88,-58.37C1153.01,-49.06 1142.89,-38.44 1135,-30.16"/>
<polygon fill="#63b8ff" stroke="#63b8ff" points="1159.53,-60.97 1168.96,-65.8 1164.6,-56.14 1159.53,-60.97"/>
</a>
</g>
</g>
<!-- Node15&#45;&gt;Node14 -->
<g id="edge17_Node000015_Node000014" class="edge">
<title>Node15&#45;&gt;Node14</title>
<g id="a_edge17_Node000015_Node000014"><a xlink:title=" ">
<path fill="none" stroke="#63b8ff" d="M1238.85,-62.99C1272.96,-52.69 1315.94,-39.72 1348.08,-30.01"/>
<polygon fill="#63b8ff" stroke="#63b8ff" points="1237.59,-59.71 1229.02,-65.95 1239.61,-66.42 1237.59,-59.71"/>
</a>
</g>
</g>
<!-- Node16 -->
<g id="Node000016" class="node">
<title>Node16</title>
<g id="a_Node000016"><a xlink:href="abi__x64__emitters_8c.html" target="_top" xlink:title="Implements internal helper functions for emitting x86&#45;64 machine code.">
<polygon fill="white" stroke="#666666" points="1318,-30 1201,-30 1201,0 1318,0 1318,-30"/>
<text text-anchor="start" x="1209" y="-18" font-family="Helvetica,sans-Serif" font-size="10.00">src/arch/x64/abi_x64</text>
<text text-anchor="middle" x="1259.5" y="-7" font-family="Helvetica,sans-Serif" font-size="10.00">_emitters.c</text>
</a>
</g>
</g>
<!-- Node15&#45;&gt;Node16 -->
<g id="edge18_Node000015_Node000016" class="edge">
<title>Node15&#45;&gt;Node16</title>
<g id="a_edge18_Node000015_Node000016"><a xlink:title=" ">
<path fill="none" stroke="#63b8ff" d="M1207.52,-59.2C1218.95,-49.7 1232.2,-38.69 1242.46,-30.16"/>
<polygon fill="#63b8ff" stroke="#63b8ff" points="1205.04,-56.71 1199.59,-65.8 1209.52,-62.1 1205.04,-56.71"/>
</a>
</g>
</g>
<!-- Node18 -->
<g id="Node000018" class="node">
<title>Node18</title>
<g id="a_Node000018"><a xlink:href="infix_8c.html" target="_top" xlink:title="The unity build source file for the infix library.">
<polygon fill="white" stroke="#666666" points="1858,-24.5 1795,-24.5 1795,-5.5 1858,-5.5 1858,-24.5"/>
<text text-anchor="middle" x="1826.5" y="-12.5" font-family="Helvetica,sans-Serif" font-size="10.00">src/infix.c</text>
</a>
</g>
</g>
<!-- Node17&#45;&gt;Node18 -->
<g id="edge20_Node000017_Node000018" class="edge">
<title>Node17&#45;&gt;Node18</title>
<g id="a_edge20_Node000017_Node000018"><a xlink:title=" ">
<path fill="none" stroke="#63b8ff" d="M1385.75,-69.05C1390.7,-67.93 1395.7,-66.88 1400.5,-66 1546.64,-39.27 1723.72,-23.84 1794.76,-18.33"/>
<polygon fill="#63b8ff" stroke="#63b8ff" points="1384.66,-65.72 1375.74,-71.44 1386.28,-72.53 1384.66,-65.72"/>
</a>
</g>
</g>
<!-- Node19&#45;&gt;Node18 -->
<g id="edge22_Node000019_Node000018" class="edge">
<title>Node19&#45;&gt;Node18</title>
<g id="a_edge22_Node000019_Node000018"><a xlink:title=" ">
<path fill="none" stroke="#63b8ff" d="M1495.02,-69.04C1499.55,-67.95 1504.11,-66.91 1508.5,-66 1612.47,-44.4 1737.27,-27.32 1794.72,-19.95"/>
<polygon fill="#63b8ff" stroke="#63b8ff" points="1494.08,-65.67 1485.22,-71.48 1495.77,-72.46 1494.08,-65.67"/>
</a>
</g>
</g>
<!-- Node20&#45;&gt;Node18 -->
<g id="edge24_Node000020_Node000018" class="edge">
<title>Node20&#45;&gt;Node18</title>
<g id="a_edge24_Node000020_Node000018"><a xlink:title=" ">
<path fill="none" stroke="#63b8ff" d="M1609.98,-69.07C1614.21,-68.03 1618.44,-67 1622.5,-66 1683.41,-51.05 1754.56,-33.62 1794.7,-23.79"/>
<polygon fill="#63b8ff" stroke="#63b8ff" points="1609.04,-65.7 1600.16,-71.48 1610.71,-72.5 1609.04,-65.7"/>
</a>
</g>
</g>
<!-- Node21&#45;&gt;Node18 -->
<g id="edge26_Node000021_Node000018" class="edge">
<title>Node21&#45;&gt;Node18</title>
<g id="a_edge26_Node000021_Node000018"><a xlink:title=" ">
<path fill="none" stroke="#63b8ff" d="M1715.67,-67.03C1743.07,-54.42 1783.91,-35.61 1807.61,-24.7"/>
<polygon fill="#63b8ff" stroke="#63b8ff" points="1713.87,-64.01 1706.25,-71.37 1716.79,-70.37 1713.87,-64.01"/>
</a>
</g>
</g>
<!-- Node22&#45;&gt;Node18 -->
<g id="edge28_Node000022_Node000018" class="edge">
<title>Node22&#45;&gt;Node18</title>
<g id="a_edge28_Node000022_Node000018"><a xlink:title=" ">
<path fill="none" stroke="#63b8ff" d="M1826.5,-61.08C1826.5,-49.13 1826.5,-34.22 1826.5,-24.91"/>
<polygon fill="#63b8ff" stroke="#63b8ff" points="1823,-61.37 1826.5,-71.37 1830,-61.37 1823,-61.37"/>
</a>
</g>
</g>
<!-- Node23&#45;&gt;Node18 -->
<g id="edge30_Node000023_Node000018" class="edge">
<title>Node23&#45;&gt;Node18</title>
<g id="a_edge30_Node000023_Node000018"><a xlink:title=" ">
<path fill="none" stroke="#63b8ff" d="M1929.02,-66.86C1903.6,-54.25 1865.93,-35.56 1844.03,-24.7"/>
<polygon fill="#63b8ff" stroke="#63b8ff" points="1927.59,-70.06 1938.1,-71.37 1930.7,-63.79 1927.59,-70.06"/>
</a>
</g>
</g>
<!-- Node24&#45;&gt;Node18 -->
<g id="edge32_Node000024_Node000018" class="edge">
<title>Node24&#45;&gt;Node18</title>
<g id="a_edge32_Node000024_Node000018"><a xlink:title=" ">
<path fill="none" stroke="#63b8ff" d="M2026.36,-68.86C1978.48,-56.19 1901.42,-35.81 1858.31,-24.41"/>
<polygon fill="#63b8ff" stroke="#63b8ff" points="2025.55,-72.26 2036.11,-71.44 2027.34,-65.49 2025.55,-72.26"/>
</a>
</g>
</g>
<!-- Node25&#45;&gt;Node18 -->
<g id="edge34_Node000025_Node000018" class="edge">
<title>Node25&#45;&gt;Node18</title>
<g id="a_edge34_Node000025_Node000018"><a xlink:title=" ">
<path fill="none" stroke="#63b8ff" d="M2141.81,-69.34C2136.32,-68.17 2130.79,-67.03 2125.5,-66 2028.38,-47.1 1912.65,-28.99 1858.02,-20.71"/>
<polygon fill="#63b8ff" stroke="#63b8ff" points="2141.08,-72.76 2151.59,-71.45 2142.56,-65.92 2141.08,-72.76"/>
</a>
</g>
</g>
<!-- Node30&#45;&gt;Node18 -->
<g id="edge40_Node000030_Node000018" class="edge">
<title>Node30&#45;&gt;Node18</title>
<g id="a_edge40_Node000030_Node000018"><a xlink:title=" ">
<path fill="none" stroke="#63b8ff" d="M2395.81,-139.19C2519.2,-136 2779.38,-125.78 2806.5,-96 2815.48,-86.14 2815.68,-75.67 2806.5,-66 2773.07,-30.82 2022.66,-18.65 1858.18,-16.4"/>
<polygon fill="#63b8ff" stroke="#63b8ff" points="2395.65,-135.69 2385.74,-139.44 2395.83,-142.69 2395.65,-135.69"/>
</a>
</g>
</g>
</g>
</svg>
