<?xml version="1.0" encoding="UTF-8" standalone="no"?>
<!DOCTYPE svg PUBLIC "-//W3C//DTD SVG 1.1//EN"
 "http://www.w3.org/Graphics/SVG/1.1/DTD/svg11.dtd">
<!-- Generated by graphviz version 2.43.0 (0)
 -->
<!-- Title: src/common/platform.h Pages: 1 -->
<svg width="3240pt" height="214pt"
 viewBox="0.00 0.00 3240.35 214.00" xmlns="http://www.w3.org/2000/svg" xmlns:xlink="http://www.w3.org/1999/xlink">
<g id="graph0" class="graph" transform="scale(1 1) rotate(0) translate(4 210)">
<title>src/common/platform.h</title>
<!-- Node1 -->
<g id="Node000001" class="node">
<title>Node1</title>
<g id="a_Node000001"><a xlink:title="Declares internal, runtime CPU/OS feature detection functions.">
<polygon fill="#999999" stroke="#666666" points="2152,-206 2021,-206 2021,-187 2152,-187 2152,-206"/>
<text text-anchor="middle" x="2086.5" y="-194" font-family="Helvetica,sans-Serif" font-size="10.00">src/common/platform.h</text>
</a>
</g>
</g>
<!-- Node2 -->
<g id="Node000002" class="node">
<title>Node2</title>
<g id="a_Node000002"><a xlink:href="infix__internals_8h.html" target="_top" xlink:title="Internal data structures, function prototypes, and constants.">
<polygon fill="white" stroke="#666666" points="2090.5,-151 1932.5,-151 1932.5,-132 2090.5,-132 2090.5,-151"/>
<text text-anchor="middle" x="2011.5" y="-139" font-family="Helvetica,sans-Serif" font-size="10.00">src/common/infix_internals.h</text>
</a>
</g>
</g>
<!-- Node1&#45;&gt;Node2 -->
<g id="edge1_Node000001_Node000002" class="edge">
<title>Node1&#45;&gt;Node2</title>
<g id="a_edge1_Node000001_Node000002"><a xlink:title=" ">
<path fill="none" stroke="#63b8ff" d="M2066.19,-181.15C2052.64,-171.57 2035.26,-159.29 2023.77,-151.17"/>
<polygon fill="#63b8ff" stroke="#63b8ff" points="2064.26,-184.07 2074.45,-186.98 2068.3,-178.36 2064.26,-184.07"/>
</a>
</g>
</g>
<!-- Node33 -->
<g id="Node000033" class="node">
<title>Node33</title>
<g id="a_Node000033"><a xlink:href="platform_8c.html" target="_top" xlink:title="Implements runtime detection of CPU and OS features.">
<polygon fill="white" stroke="#666666" points="2757.5,-151 2649.5,-151 2649.5,-132 2757.5,-132 2757.5,-151"/>
<text text-anchor="middle" x="2703.5" y="-139" font-family="Helvetica,sans-Serif" font-size="10.00">src/core/platform.c</text>
</a>
</g>
</g>
<!-- Node1&#45;&gt;Node33 -->
<g id="edge42_Node000001_Node000033" class="edge">
<title>Node1&#45;&gt;Node33</title>
<g id="a_edge42_Node000001_Node000033"><a xlink:title=" ">
<path fill="none" stroke="#63b8ff" d="M2162.21,-189C2288.39,-178.16 2538.72,-156.65 2649.08,-147.17"/>
<polygon fill="#63b8ff" stroke="#63b8ff" points="2161.9,-185.51 2152.24,-189.85 2162.5,-192.48 2161.9,-185.51"/>
</a>
</g>
</g>
<!-- Node3 -->
<g id="Node000003" class="node">
<title>Node3</title>
<g id="a_Node000003"><a xlink:href="fuzz__helpers_8h.html" target="_top" xlink:title="Common definitions, structures, and helpers for all fuzzer targets.">
<polygon fill="white" stroke="#666666" points="605.5,-90.5 495.5,-90.5 495.5,-71.5 605.5,-71.5 605.5,-90.5"/>
<text text-anchor="middle" x="550.5" y="-78.5" font-family="Helvetica,sans-Serif" font-size="10.00">fuzz/fuzz_helpers.h</text>
</a>
</g>
</g>
<!-- Node2&#45;&gt;Node3 -->
<g id="edge2_Node000002_Node000003" class="edge">
<title>Node2&#45;&gt;Node3</title>
<g id="a_edge2_Node000002_Node000003"><a xlink:title=" ">
<path fill="none" stroke="#63b8ff" d="M1922.15,-136.92C1648.47,-125.96 826.95,-93.07 605.82,-84.22"/>
<polygon fill="#63b8ff" stroke="#63b8ff" points="1922.3,-140.43 1932.43,-137.33 1922.58,-133.44 1922.3,-140.43"/>
</a>
</g>
</g>
<!-- Node12 -->
<g id="Node000012" class="node">
<title>Node12</title>
<g id="a_Node000012"><a xlink:href="abi__arm64_8c.html" target="_top" xlink:title="Implements the FFI logic for the AArch64 (ARM64) architecture.">
<polygon fill="white" stroke="#666666" points="1164,-30 1049,-30 1049,0 1164,0 1164,-30"/>
<text text-anchor="start" x="1057" y="-18" font-family="Helvetica,sans-Serif" font-size="10.00">src/arch/aarch64/abi</text>
<text text-anchor="middle" x="1106.5" y="-7" font-family="Helvetica,sans-Serif" font-size="10.00">_arm64.c</text>
</a>
</g>
</g>
<!-- Node2&#45;&gt;Node12 -->
<g id="edge11_Node000002_Node000012" class="edge">
<title>Node2&#45;&gt;Node12</title>
<g id="a_edge11_Node000002_Node000012"><a xlink:title=" ">
<path fill="none" stroke="#63b8ff" d="M1922.46,-139.81C1720.11,-137.65 1238.1,-129.08 1172.5,-96 1144.04,-81.65 1123.39,-48.9 1113.35,-30.05"/>
<polygon fill="#63b8ff" stroke="#63b8ff" points="1922.43,-143.31 1932.46,-139.91 1922.5,-136.31 1922.43,-143.31"/>
</a>
</g>
</g>
<!-- Node13 -->
<g id="Node000013" class="node">
<title>Node13</title>
<g id="a_Node000013"><a xlink:href="abi__arm64__emitters_8h.html" target="_top" xlink:title="Declares internal helper functions for emitting AArch64 machine code.">
<polygon fill="white" stroke="#666666" points="1297,-96 1182,-96 1182,-66 1297,-66 1297,-96"/>
<text text-anchor="start" x="1190" y="-84" font-family="Helvetica,sans-Serif" font-size="10.00">src/arch/aarch64/abi</text>
<text text-anchor="middle" x="1239.5" y="-73" font-family="Helvetica,sans-Serif" font-size="10.00">_arm64_emitters.h</text>
</a>
</g>
</g>
<!-- Node2&#45;&gt;Node13 -->
<g id="edge12_Node000002_Node000013" class="edge">
<title>Node2&#45;&gt;Node13</title>
<g id="a_edge12_Node000002_Node000013"><a xlink:title=" ">
<path fill="none" stroke="#63b8ff" d="M1922.1,-136.81C1792.69,-130.98 1545.75,-117.96 1336.5,-96 1323.72,-94.66 1310.05,-92.89 1297.11,-91.07"/>
<polygon fill="#63b8ff" stroke="#63b8ff" points="1922.21,-140.32 1932.35,-137.27 1922.52,-133.33 1922.21,-140.32"/>
</a>
</g>
</g>
<!-- Node15 -->
<g id="Node000015" class="node">
<title>Node15</title>
<g id="a_Node000015"><a xlink:href="abi__sysv__x64_8c.html" target="_top" xlink:title="Implements the FFI logic for the System V AMD64 ABI.">
<polygon fill="white" stroke="#666666" points="1437.5,-30 1315.5,-30 1315.5,0 1437.5,0 1437.5,-30"/>
<text text-anchor="start" x="1323.5" y="-18" font-family="Helvetica,sans-Serif" font-size="10.00">src/arch/x64/abi_sysv</text>
<text text-anchor="middle" x="1376.5" y="-7" font-family="Helvetica,sans-Serif" font-size="10.00">_x64.c</text>
</a>
</g>
</g>
<!-- Node2&#45;&gt;Node15 -->
<g id="edge15_Node000002_Node000015" class="edge">
<title>Node2&#45;&gt;Node15</title>
<g id="a_edge15_Node000002_Node000015"><a xlink:title=" ">
<path fill="none" stroke="#63b8ff" d="M1922.42,-140.9C1754.9,-140.73 1406.4,-135.55 1369.5,-96 1353.05,-78.37 1362.03,-48.03 1369.58,-30.21"/>
<polygon fill="#63b8ff" stroke="#63b8ff" points="1922.45,-144.4 1932.45,-140.91 1922.45,-137.4 1922.45,-144.4"/>
</a>
</g>
</g>
<!-- Node16 -->
<g id="Node000016" class="node">
<title>Node16</title>
<g id="a_Node000016"><a xlink:href="abi__win__x64_8c.html" target="_top" xlink:title="Implements the FFI logic for the Windows x64 calling convention.">
<polygon fill="white" stroke="#666666" points="1707.5,-30 1591.5,-30 1591.5,0 1707.5,0 1707.5,-30"/>
<text text-anchor="start" x="1599.5" y="-18" font-family="Helvetica,sans-Serif" font-size="10.00">src/arch/x64/abi_win</text>
<text text-anchor="middle" x="1649.5" y="-7" font-family="Helvetica,sans-Serif" font-size="10.00">_x64.c</text>
</a>
</g>
</g>
<!-- Node2&#45;&gt;Node16 -->
<g id="edge16_Node000002_Node000016" class="edge">
<title>Node2&#45;&gt;Node16</title>
<g id="a_edge16_Node000002_Node000016"><a xlink:title=" ">
<path fill="none" stroke="#63b8ff" d="M1922.17,-138.35C1793.45,-134.32 1568.43,-123.41 1543.5,-96 1518.84,-68.88 1565.7,-44.59 1604.75,-30.07"/>
<polygon fill="#63b8ff" stroke="#63b8ff" points="1922.31,-141.86 1932.41,-138.67 1922.52,-134.86 1922.31,-141.86"/>
</a>
</g>
</g>
<!-- Node17 -->
<g id="Node000017" class="node">
<title>Node17</title>
<g id="a_Node000017"><a xlink:href="abi__x64__emitters_8h.html" target="_top" xlink:title="Declares internal helper functions for emitting x86&#45;64 machine code.">
<polygon fill="white" stroke="#666666" points="1496,-96 1379,-96 1379,-66 1496,-66 1496,-96"/>
<text text-anchor="start" x="1387" y="-84" font-family="Helvetica,sans-Serif" font-size="10.00">src/arch/x64/abi_x64</text>
<text text-anchor="middle" x="1437.5" y="-73" font-family="Helvetica,sans-Serif" font-size="10.00">_emitters.h</text>
</a>
</g>
</g>
<!-- Node2&#45;&gt;Node17 -->
<g id="edge17_Node000002_Node000017" class="edge">
<title>Node2&#45;&gt;Node17</title>
<g id="a_edge17_Node000002_Node000017"><a xlink:title=" ">
<path fill="none" stroke="#63b8ff" d="M1922.15,-135.29C1821.7,-128.81 1653.89,-116.07 1510.5,-96 1505.9,-95.36 1501.15,-94.62 1496.38,-93.82"/>
<polygon fill="#63b8ff" stroke="#63b8ff" points="1922.05,-138.79 1932.26,-135.94 1922.5,-131.81 1922.05,-138.79"/>
</a>
</g>
</g>
<!-- Node19 -->
<g id="Node000019" class="node">
<title>Node19</title>
<g id="a_Node000019"><a xlink:href="arena_8c.html" target="_top" xlink:title="Implements a simple, fast arena (or region&#45;based) allocator.">
<polygon fill="white" stroke="#666666" points="1646.5,-90.5 1552.5,-90.5 1552.5,-71.5 1646.5,-71.5 1646.5,-90.5"/>
<text text-anchor="middle" x="1599.5" y="-78.5" font-family="Helvetica,sans-Serif" font-size="10.00">src/core/arena.c</text>
</a>
</g>
</g>
<!-- Node2&#45;&gt;Node19 -->
<g id="edge21_Node000002_Node000019" class="edge">
<title>Node2&#45;&gt;Node19</title>
<g id="a_edge21_Node000002_Node000019"><a xlink:title=" ">
<path fill="none" stroke="#63b8ff" d="M1922.27,-132.36C1849.98,-125.04 1745.7,-112.85 1655.5,-96 1647.42,-94.49 1638.77,-92.51 1630.75,-90.52"/>
<polygon fill="#63b8ff" stroke="#63b8ff" points="1921.95,-135.85 1932.25,-133.36 1922.65,-128.88 1921.95,-135.85"/>
</a>
</g>
</g>
<!-- Node21 -->
<g id="Node000021" class="node">
<title>Node21</title>
<g id="a_Node000021"><a xlink:href="error_8c.html" target="_top" xlink:title="Implements the thread&#45;local error reporting system.">
<polygon fill="white" stroke="#666666" points="1754,-90.5 1665,-90.5 1665,-71.5 1754,-71.5 1754,-90.5"/>
<text text-anchor="middle" x="1709.5" y="-78.5" font-family="Helvetica,sans-Serif" font-size="10.00">src/core/error.c</text>
</a>
</g>
</g>
<!-- Node2&#45;&gt;Node21 -->
<g id="edge23_Node000002_Node000021" class="edge">
<title>Node2&#45;&gt;Node21</title>
<g id="a_edge23_Node000002_Node000021"><a xlink:title=" ">
<path fill="none" stroke="#63b8ff" d="M1947.01,-130.31C1896.8,-122.05 1825.46,-109.57 1763.5,-96 1756.12,-94.38 1748.23,-92.45 1740.81,-90.55"/>
<polygon fill="#63b8ff" stroke="#63b8ff" points="1946.65,-133.8 1957.08,-131.96 1947.78,-126.89 1946.65,-133.8"/>
</a>
</g>
</g>
<!-- Node22 -->
<g id="Node000022" class="node">
<title>Node22</title>
<g id="a_Node000022"><a xlink:href="loader_8c.html" target="_top" xlink:title="Implements cross&#45;platform dynamic library loading.">
<polygon fill="white" stroke="#666666" points="1868.5,-90.5 1772.5,-90.5 1772.5,-71.5 1868.5,-71.5 1868.5,-90.5"/>
<text text-anchor="middle" x="1820.5" y="-78.5" font-family="Helvetica,sans-Serif" font-size="10.00">src/core/loader.c</text>
</a>
</g>
</g>
<!-- Node2&#45;&gt;Node22 -->
<g id="edge25_Node000002_Node000022" class="edge">
<title>Node2&#45;&gt;Node22</title>
<g id="a_edge25_Node000002_Node000022"><a xlink:title=" ">
<path fill="none" stroke="#63b8ff" d="M1973.83,-128.96C1936.89,-117.65 1881.42,-100.66 1848.31,-90.52"/>
<polygon fill="#63b8ff" stroke="#63b8ff" points="1973.14,-132.41 1983.73,-131.99 1975.19,-125.72 1973.14,-132.41"/>
</a>
</g>
</g>
<!-- Node23 -->
<g id="Node000023" class="node">
<title>Node23</title>
<g id="a_Node000023"><a xlink:href="signature_8c.html" target="_top" xlink:title="Implements the infix signature string parser and type printer.">
<polygon fill="white" stroke="#666666" points="1998.5,-90.5 1886.5,-90.5 1886.5,-71.5 1998.5,-71.5 1998.5,-90.5"/>
<text text-anchor="middle" x="1942.5" y="-78.5" font-family="Helvetica,sans-Serif" font-size="10.00">src/core/signature.c</text>
</a>
</g>
</g>
<!-- Node2&#45;&gt;Node23 -->
<g id="edge27_Node000002_Node000023" class="edge">
<title>Node2&#45;&gt;Node23</title>
<g id="a_edge27_Node000002_Node000023"><a xlink:title=" ">
<path fill="none" stroke="#63b8ff" d="M1993.48,-125.22C1980.5,-114.21 1963.44,-99.75 1952.72,-90.67"/>
<polygon fill="#63b8ff" stroke="#63b8ff" points="1991.43,-128.07 2001.32,-131.87 1995.95,-122.73 1991.43,-128.07"/>
</a>
</g>
</g>
<!-- Node24 -->
<g id="Node000024" class="node">
<title>Node24</title>
<g id="a_Node000024"><a xlink:href="type__registry_8c.html" target="_top" xlink:title="Implements the named type registry system.">
<polygon fill="white" stroke="#666666" points="2146,-90.5 2017,-90.5 2017,-71.5 2146,-71.5 2146,-90.5"/>
<text text-anchor="middle" x="2081.5" y="-78.5" font-family="Helvetica,sans-Serif" font-size="10.00">src/core/type_registry.c</text>
</a>
</g>
</g>
<!-- Node2&#45;&gt;Node24 -->
<g id="edge29_Node000002_Node000024" class="edge">
<title>Node2&#45;&gt;Node24</title>
<g id="a_edge29_Node000002_Node000024"><a xlink:title=" ">
<path fill="none" stroke="#63b8ff" d="M2029.78,-125.22C2042.95,-114.21 2060.26,-99.75 2071.13,-90.67"/>
<polygon fill="#63b8ff" stroke="#63b8ff" points="2027.26,-122.77 2021.83,-131.87 2031.75,-128.14 2027.26,-122.77"/>
</a>
</g>
</g>
<!-- Node25 -->
<g id="Node000025" class="node">
<title>Node25</title>
<g id="a_Node000025"><a xlink:href="types_8c.html" target="_top" xlink:title="Implements the public API for creating and managing type descriptions.">
<polygon fill="white" stroke="#666666" points="2257,-90.5 2164,-90.5 2164,-71.5 2257,-71.5 2257,-90.5"/>
<text text-anchor="middle" x="2210.5" y="-78.5" font-family="Helvetica,sans-Serif" font-size="10.00">src/core/types.c</text>
</a>
</g>
</g>
<!-- Node2&#45;&gt;Node25 -->
<g id="edge31_Node000002_Node000025" class="edge">
<title>Node2&#45;&gt;Node25</title>
<g id="a_edge31_Node000002_Node000025"><a xlink:title=" ">
<path fill="none" stroke="#63b8ff" d="M2050.25,-129.11C2088.74,-117.79 2146.88,-100.7 2181.53,-90.52"/>
<polygon fill="#63b8ff" stroke="#63b8ff" points="2049.04,-125.82 2040.44,-131.99 2051.02,-132.53 2049.04,-125.82"/>
</a>
</g>
</g>
<!-- Node26 -->
<g id="Node000026" class="node">
<title>Node26</title>
<g id="a_Node000026"><a xlink:href="executor_8c.html" target="_top" xlink:title="Implements platform&#45;specific memory management for JIT code and execution.">
<polygon fill="white" stroke="#666666" points="2371.5,-90.5 2275.5,-90.5 2275.5,-71.5 2371.5,-71.5 2371.5,-90.5"/>
<text text-anchor="middle" x="2323.5" y="-78.5" font-family="Helvetica,sans-Serif" font-size="10.00">src/jit/executor.c</text>
</a>
</g>
</g>
<!-- Node2&#45;&gt;Node26 -->
<g id="edge33_Node000002_Node000026" class="edge">
<title>Node2&#45;&gt;Node26</title>
<g id="a_edge33_Node000002_Node000026"><a xlink:title=" ">
<path fill="none" stroke="#63b8ff" d="M2076.18,-130.33C2127.64,-121.96 2201.4,-109.34 2265.5,-96 2273.41,-94.35 2281.88,-92.41 2289.85,-90.51"/>
<polygon fill="#63b8ff" stroke="#63b8ff" points="2075.51,-126.89 2066.19,-131.95 2076.62,-133.8 2075.51,-126.89"/>
</a>
</g>
</g>
<!-- Node27 -->
<g id="Node000027" class="node">
<title>Node27</title>
<g id="a_Node000027"><a xlink:href="trampoline_8c.html" target="_top" xlink:title="The core JIT engine for generating forward and reverse trampolines.">
<polygon fill="white" stroke="#666666" points="2497.5,-90.5 2389.5,-90.5 2389.5,-71.5 2497.5,-71.5 2497.5,-90.5"/>
<text text-anchor="middle" x="2443.5" y="-78.5" font-family="Helvetica,sans-Serif" font-size="10.00">src/jit/trampoline.c</text>
</a>
</g>
</g>
<!-- Node2&#45;&gt;Node27 -->
<g id="edge35_Node000002_Node000027" class="edge">
<title>Node2&#45;&gt;Node27</title>
<g id="a_edge35_Node000002_Node000027"><a xlink:title=" ">
<path fill="none" stroke="#63b8ff" d="M2100.99,-132.2C2175.94,-124.66 2285.58,-112.23 2380.5,-96 2389.45,-94.47 2399.04,-92.51 2407.97,-90.54"/>
<polygon fill="#63b8ff" stroke="#63b8ff" points="2100.25,-128.76 2090.65,-133.24 2100.94,-135.73 2100.25,-128.76"/>
</a>
</g>
</g>
<!-- Node28 -->
<g id="Node000028" class="node">
<title>Node28</title>
<g id="a_Node000028"><a xlink:href="008__registry__introspection_8c.html" target="_top" xlink:title="Unit test for the registry introspection and serialization APIs.">
<polygon fill="white" stroke="#666666" points="2677,-90.5 2516,-90.5 2516,-71.5 2677,-71.5 2677,-90.5"/>
<text text-anchor="middle" x="2596.5" y="-78.5" font-family="Helvetica,sans-Serif" font-size="10.00">t/008_registry_introspection.c</text>
</a>
</g>
</g>
<!-- Node2&#45;&gt;Node28 -->
<g id="edge37_Node000002_Node000028" class="edge">
<title>Node2&#45;&gt;Node28</title>
<g id="a_edge37_Node000002_Node000028"><a xlink:title=" ">
<path fill="none" stroke="#63b8ff" d="M2100.53,-134.24C2199.76,-126.86 2364.91,-113.36 2506.5,-96 2519.06,-94.46 2532.55,-92.52 2545.18,-90.57"/>
<polygon fill="#63b8ff" stroke="#63b8ff" points="2100.25,-130.75 2090.54,-134.98 2100.77,-137.73 2100.25,-130.75"/>
</a>
</g>
</g>
<!-- Node29 -->
<g id="Node000029" class="node">
<title>Node29</title>
<g id="a_Node000029"><a xlink:href="101__by__value_8c.html" target="_top" xlink:title="Unit test for passing and returning aggregates and vectors by value.">
<polygon fill="white" stroke="#666666" points="2794,-90.5 2695,-90.5 2695,-71.5 2794,-71.5 2794,-90.5"/>
<text text-anchor="middle" x="2744.5" y="-78.5" font-family="Helvetica,sans-Serif" font-size="10.00">t/101_by_value.c</text>
</a>
</g>
</g>
<!-- Node2&#45;&gt;Node29 -->
<g id="edge38_Node000002_Node000029" class="edge">
<title>Node2&#45;&gt;Node29</title>
<g id="a_edge38_Node000002_Node000029"><a xlink:title=" ">
<path fill="none" stroke="#63b8ff" d="M2100.83,-139.34C2230.36,-136.59 2477.62,-127.3 2685.5,-96 2694.45,-94.65 2704.05,-92.63 2712.85,-90.54"/>
<polygon fill="#63b8ff" stroke="#63b8ff" points="2100.49,-135.85 2090.56,-139.55 2100.63,-142.84 2100.49,-135.85"/>
</a>
</g>
</g>
<!-- Node30 -->
<g id="Node000030" class="node">
<title>Node30</title>
<g id="a_Node000030"><a xlink:href="501__direct__marshalling_8c.html" target="_top" xlink:title="Test suite for the high&#45;performance direct marshalling API.">
<polygon fill="white" stroke="#666666" points="2958.5,-90.5 2812.5,-90.5 2812.5,-71.5 2958.5,-71.5 2958.5,-90.5"/>
<text text-anchor="middle" x="2885.5" y="-78.5" font-family="Helvetica,sans-Serif" font-size="10.00">t/501_direct_marshalling.c</text>
</a>
</g>
</g>
<!-- Node2&#45;&gt;Node30 -->
<g id="edge39_Node000002_Node000030" class="edge">
<title>Node2&#45;&gt;Node30</title>
<g id="a_edge39_Node000002_Node000030"><a xlink:title=" ">
<path fill="none" stroke="#63b8ff" d="M2100.92,-138.7C2247.77,-135.01 2549.05,-124.42 2802.5,-96 2814.84,-94.62 2828.14,-92.61 2840.4,-90.54"/>
<polygon fill="#63b8ff" stroke="#63b8ff" points="2100.52,-135.21 2090.61,-138.95 2100.7,-142.2 2100.52,-135.21"/>
</a>
</g>
</g>
<!-- Node31 -->
<g id="Node000031" class="node">
<title>Node31</title>
<g id="a_Node000031"><a xlink:href="830__security_8c.html" target="_top" xlink:title="Unit test for security&#45;hardening features of the infix library.">
<polygon fill="white" stroke="#666666" points="3068.5,-90.5 2976.5,-90.5 2976.5,-71.5 3068.5,-71.5 3068.5,-90.5"/>
<text text-anchor="middle" x="3022.5" y="-78.5" font-family="Helvetica,sans-Serif" font-size="10.00">t/830_security.c</text>
</a>
</g>
</g>
<!-- Node2&#45;&gt;Node31 -->
<g id="edge40_Node000002_Node000031" class="edge">
<title>Node2&#45;&gt;Node31</title>
<g id="a_edge40_Node000002_Node000031"><a xlink:title=" ">
<path fill="none" stroke="#63b8ff" d="M2100.6,-138.66C2304.85,-134.07 2801.95,-120.66 2967.5,-96 2976.08,-94.72 2985.26,-92.67 2993.61,-90.52"/>
<polygon fill="#63b8ff" stroke="#63b8ff" points="2100.43,-135.16 2090.51,-138.89 2100.59,-142.16 2100.43,-135.16"/>
</a>
</g>
</g>
<!-- Node32 -->
<g id="Node000032" class="node">
<title>Node32</title>
<g id="a_Node000032"><a xlink:href="840__arena__allocator_8c.html" target="_top" xlink:title="Unit test for the internal arena allocator.">
<polygon fill="white" stroke="#666666" points="3216.5,-90.5 3086.5,-90.5 3086.5,-71.5 3216.5,-71.5 3216.5,-90.5"/>
<text text-anchor="middle" x="3151.5" y="-78.5" font-family="Helvetica,sans-Serif" font-size="10.00">t/840_arena_allocator.c</text>
</a>
</g>
</g>
<!-- Node2&#45;&gt;Node32 -->
<g id="edge41_Node000002_Node000032" class="edge">
<title>Node2&#45;&gt;Node32</title>
<g id="a_edge41_Node000002_Node000032"><a xlink:title=" ">
<path fill="none" stroke="#63b8ff" d="M2100.85,-141.14C2284.45,-141.49 2717.19,-137.38 3077.5,-96 3088.8,-94.7 3100.97,-92.67 3112.11,-90.55"/>
<polygon fill="#63b8ff" stroke="#63b8ff" points="2100.72,-137.64 2090.71,-141.12 2100.7,-144.64 2100.72,-137.64"/>
</a>
</g>
</g>
<!-- Node4 -->
<g id="Node000004" class="node">
<title>Node4</title>
<g id="a_Node000004"><a xlink:href="fuzz__abi_8c.html" target="_top" xlink:title="Fuzzer target for the ABI classification layer.">
<polygon fill="white" stroke="#666666" points="89,-24.5 0,-24.5 0,-5.5 89,-5.5 89,-24.5"/>
<text text-anchor="middle" x="44.5" y="-12.5" font-family="Helvetica,sans-Serif" font-size="10.00">fuzz/fuzz_abi.c</text>
</a>
</g>
</g>
<!-- Node3&#45;&gt;Node4 -->
<g id="edge3_Node000003_Node000004" class="edge">
<title>Node3&#45;&gt;Node4</title>
<g id="a_edge3_Node000003_Node000004"><a xlink:title=" ">
<path fill="none" stroke="#63b8ff" d="M485.23,-75.85C396.79,-69.53 234.24,-55.46 97.5,-30 89.73,-28.55 81.43,-26.57 73.76,-24.56"/>
<polygon fill="#63b8ff" stroke="#63b8ff" points="485.15,-79.35 495.38,-76.56 485.65,-72.37 485.15,-79.35"/>
</a>
</g>
</g>
<!-- Node5 -->
<g id="Node000005" class="node">
<title>Node5</title>
<g id="a_Node000005"><a xlink:href="fuzz__direct_8c.html" target="_top" xlink:title="Fuzzer target for the Direct Marshalling API generation logic.">
<polygon fill="white" stroke="#666666" points="208,-24.5 107,-24.5 107,-5.5 208,-5.5 208,-24.5"/>
<text text-anchor="middle" x="157.5" y="-12.5" font-family="Helvetica,sans-Serif" font-size="10.00">fuzz/fuzz_direct.c</text>
</a>
</g>
</g>
<!-- Node3&#45;&gt;Node5 -->
<g id="edge4_Node000003_Node000005" class="edge">
<title>Node3&#45;&gt;Node5</title>
<g id="a_edge4_Node000003_Node000005"><a xlink:title=" ">
<path fill="none" stroke="#63b8ff" d="M485.43,-71.8C418.12,-62.95 310.07,-47.72 217.5,-30 209.2,-28.41 200.31,-26.47 191.98,-24.54"/>
<polygon fill="#63b8ff" stroke="#63b8ff" points="485.1,-75.29 495.47,-73.11 486.01,-68.35 485.1,-75.29"/>
</a>
</g>
</g>
<!-- Node6 -->
<g id="Node000006" class="node">
<title>Node6</title>
<g id="a_Node000006"><a xlink:href="fuzz__helpers_8c.html" target="_top" xlink:title="Implements the core logic for generating random infix_type graphs from fuzzer input.">
<polygon fill="white" stroke="#666666" points="336.5,-24.5 226.5,-24.5 226.5,-5.5 336.5,-5.5 336.5,-24.5"/>
<text text-anchor="middle" x="281.5" y="-12.5" font-family="Helvetica,sans-Serif" font-size="10.00">fuzz/fuzz_helpers.c</text>
</a>
</g>
</g>
<!-- Node3&#45;&gt;Node6 -->
<g id="edge5_Node000003_Node000006" class="edge">
<title>Node3&#45;&gt;Node6</title>
<g id="a_edge5_Node000003_Node000006"><a xlink:title=" ">
<path fill="none" stroke="#63b8ff" d="M504.69,-69.1C451.7,-56.49 365.59,-36.01 317.29,-24.51"/>
<polygon fill="#63b8ff" stroke="#63b8ff" points="503.96,-72.53 514.5,-71.44 505.58,-65.72 503.96,-72.53"/>
</a>
</g>
</g>
<!-- Node7 -->
<g id="Node000007" class="node">
<title>Node7</title>
<g id="a_Node000007"><a xlink:href="fuzz__roundtrip_8c.html" target="_top" xlink:title="Fuzzer target for Type &#45;&gt; String &#45;&gt; Type round&#45;trip consistency.">
<polygon fill="white" stroke="#666666" points="472.5,-24.5 354.5,-24.5 354.5,-5.5 472.5,-5.5 472.5,-24.5"/>
<text text-anchor="middle" x="413.5" y="-12.5" font-family="Helvetica,sans-Serif" font-size="10.00">fuzz/fuzz_roundtrip.c</text>
</a>
</g>
</g>
<!-- Node3&#45;&gt;Node7 -->
<g id="edge6_Node000003_Node000007" class="edge">
<title>Node3&#45;&gt;Node7</title>
<g id="a_edge6_Node000003_Node000007"><a xlink:title=" ">
<path fill="none" stroke="#63b8ff" d="M522.73,-67.03C495.73,-54.42 455.48,-35.61 432.12,-24.7"/>
<polygon fill="#63b8ff" stroke="#63b8ff" points="521.48,-70.31 532.02,-71.37 524.44,-63.97 521.48,-70.31"/>
</a>
</g>
</g>
<!-- Node8 -->
<g id="Node000008" class="node">
<title>Node8</title>
<g id="a_Node000008"><a xlink:href="fuzz__signature_8c.html" target="_top" xlink:title="Fuzzer target for the high&#45;level signature parsing API.">
<polygon fill="white" stroke="#666666" points="610,-24.5 491,-24.5 491,-5.5 610,-5.5 610,-24.5"/>
<text text-anchor="middle" x="550.5" y="-12.5" font-family="Helvetica,sans-Serif" font-size="10.00">fuzz/fuzz_signature.c</text>
</a>
</g>
</g>
<!-- Node3&#45;&gt;Node8 -->
<g id="edge7_Node000003_Node000008" class="edge">
<title>Node3&#45;&gt;Node8</title>
<g id="a_edge7_Node000003_Node000008"><a xlink:title=" ">
<path fill="none" stroke="#63b8ff" d="M550.5,-61.08C550.5,-49.13 550.5,-34.22 550.5,-24.91"/>
<polygon fill="#63b8ff" stroke="#63b8ff" points="547,-61.37 550.5,-71.37 554,-61.37 547,-61.37"/>
</a>
</g>
</g>
<!-- Node9 -->
<g id="Node000009" class="node">
<title>Node9</title>
<g id="a_Node000009"><a xlink:href="fuzz__trampoline_8c.html" target="_top" xlink:title="Fuzzer target for the trampoline generation functions, including shared arena logic.">
<polygon fill="white" stroke="#666666" points="755,-24.5 628,-24.5 628,-5.5 755,-5.5 755,-24.5"/>
<text text-anchor="middle" x="691.5" y="-12.5" font-family="Helvetica,sans-Serif" font-size="10.00">fuzz/fuzz_trampoline.c</text>
</a>
</g>
</g>
<!-- Node3&#45;&gt;Node9 -->
<g id="edge8_Node000003_Node000009" class="edge">
<title>Node3&#45;&gt;Node9</title>
<g id="a_edge8_Node000003_Node000009"><a xlink:title=" ">
<path fill="none" stroke="#63b8ff" d="M578.71,-67.19C606.5,-54.58 648.19,-35.66 672.34,-24.7"/>
<polygon fill="#63b8ff" stroke="#63b8ff" points="577.18,-64.05 569.52,-71.37 580.07,-70.42 577.18,-64.05"/>
</a>
</g>
</g>
<!-- Node10 -->
<g id="Node000010" class="node">
<title>Node10</title>
<g id="a_Node000010"><a xlink:href="fuzz__types_8c.html" target="_top" xlink:title="Fuzzer target for the random type generation logic.">
<polygon fill="white" stroke="#666666" points="874,-24.5 773,-24.5 773,-5.5 874,-5.5 874,-24.5"/>
<text text-anchor="middle" x="823.5" y="-12.5" font-family="Helvetica,sans-Serif" font-size="10.00">fuzz/fuzz_types.c</text>
</a>
</g>
</g>
<!-- Node3&#45;&gt;Node10 -->
<g id="edge9_Node000003_Node000010" class="edge">
<title>Node3&#45;&gt;Node10</title>
<g id="a_edge9_Node000003_Node000010"><a xlink:title=" ">
<path fill="none" stroke="#63b8ff" d="M596.99,-69.1C650.76,-56.49 738.16,-36.01 787.18,-24.51"/>
<polygon fill="#63b8ff" stroke="#63b8ff" points="595.97,-65.74 587.03,-71.44 597.57,-72.56 595.97,-65.74"/>
</a>
</g>
</g>
<!-- Node11 -->
<g id="Node000011" class="node">
<title>Node11</title>
<g id="a_Node000011"><a xlink:href="850__regression__cases_8c.html" target="_top" xlink:title="A suite of regression tests for bugs discovered by fuzzing.">
<polygon fill="white" stroke="#666666" points="1031,-24.5 892,-24.5 892,-5.5 1031,-5.5 1031,-24.5"/>
<text text-anchor="middle" x="961.5" y="-12.5" font-family="Helvetica,sans-Serif" font-size="10.00">t/850_regression_cases.c</text>
</a>
</g>
</g>
<!-- Node3&#45;&gt;Node11 -->
<g id="edge10_Node000003_Node000011" class="edge">
<title>Node3&#45;&gt;Node11</title>
<g id="a_edge10_Node000003_Node000011"><a xlink:title=" ">
<path fill="none" stroke="#63b8ff" d="M615.78,-70.68C682.79,-60.99 790.04,-45.15 882.5,-30 892.81,-28.31 903.86,-26.41 914.33,-24.57"/>
<polygon fill="#63b8ff" stroke="#63b8ff" points="615.19,-67.23 605.79,-72.12 616.19,-74.16 615.19,-67.23"/>
</a>
</g>
</g>
<!-- Node13&#45;&gt;Node12 -->
<g id="edge13_Node000013_Node000012" class="edge">
<title>Node13&#45;&gt;Node12</title>
<g id="a_edge13_Node000013_Node000012"><a xlink:title=" ">
<path fill="none" stroke="#63b8ff" d="M1201.08,-61.51C1180.22,-51.47 1154.83,-39.26 1135.62,-30.01"/>
<polygon fill="#63b8ff" stroke="#63b8ff" points="1199.78,-64.77 1210.31,-65.95 1202.82,-58.46 1199.78,-64.77"/>
</a>
</g>
</g>
<!-- Node14 -->
<g id="Node000014" class="node">
<title>Node14</title>
<g id="a_Node000014"><a xlink:href="abi__arm64__emitters_8c.html" target="_top" xlink:title="Implements internal helper functions for emitting AArch64 machine code.">
<polygon fill="white" stroke="#666666" points="1297,-30 1182,-30 1182,0 1297,0 1297,-30"/>
<text text-anchor="start" x="1190" y="-18" font-family="Helvetica,sans-Serif" font-size="10.00">src/arch/aarch64/abi</text>
<text text-anchor="middle" x="1239.5" y="-7" font-family="Helvetica,sans-Serif" font-size="10.00">_arm64_emitters.c</text>
</a>
</g>
</g>
<!-- Node13&#45;&gt;Node14 -->
<g id="edge14_Node000013_Node000014" class="edge">
<title>Node13&#45;&gt;Node14</title>
<g id="a_edge14_Node000013_Node000014"><a xlink:title=" ">
<path fill="none" stroke="#63b8ff" d="M1239.5,-55.54C1239.5,-46.96 1239.5,-37.61 1239.5,-30.16"/>
<polygon fill="#63b8ff" stroke="#63b8ff" points="1236,-55.8 1239.5,-65.8 1243,-55.8 1236,-55.8"/>
</a>
</g>
</g>
<!-- Node17&#45;&gt;Node15 -->
<g id="edge18_Node000017_Node000015" class="edge">
<title>Node17&#45;&gt;Node15</title>
<g id="a_edge18_Node000017_Node000015"><a xlink:title=" ">
<path fill="none" stroke="#63b8ff" d="M1416.88,-58.37C1408.01,-49.06 1397.89,-38.44 1390,-30.16"/>
<polygon fill="#63b8ff" stroke="#63b8ff" points="1414.53,-60.97 1423.96,-65.8 1419.6,-56.14 1414.53,-60.97"/>
</a>
</g>
</g>
<!-- Node17&#45;&gt;Node16 -->
<g id="edge19_Node000017_Node000016" class="edge">
<title>Node17&#45;&gt;Node16</title>
<g id="a_edge19_Node000017_Node000016"><a xlink:title=" ">
<path fill="none" stroke="#63b8ff" d="M1493.85,-62.99C1527.96,-52.69 1570.94,-39.72 1603.08,-30.01"/>
<polygon fill="#63b8ff" stroke="#63b8ff" points="1492.59,-59.71 1484.02,-65.95 1494.61,-66.42 1492.59,-59.71"/>
</a>
</g>
</g>
<!-- Node18 -->
<g id="Node000018" class="node">
<title>Node18</title>
<g id="a_Node000018"><a xlink:href="abi__x64__emitters_8c.html" target="_top" xlink:title="Implements internal helper functions for emitting x86&#45;64 machine code.">
<polygon fill="white" stroke="#666666" points="1573,-30 1456,-30 1456,0 1573,0 1573,-30"/>
<text text-anchor="start" x="1464" y="-18" font-family="Helvetica,sans-Serif" font-size="10.00">src/arch/x64/abi_x64</text>
<text text-anchor="middle" x="1514.5" y="-7" font-family="Helvetica,sans-Serif" font-size="10.00">_emitters.c</text>
</a>
</g>
</g>
<!-- Node17&#45;&gt;Node18 -->
<g id="edge20_Node000017_Node000018" class="edge">
<title>Node17&#45;&gt;Node18</title>
<g id="a_edge20_Node000017_Node000018"><a xlink:title=" ">
<path fill="none" stroke="#63b8ff" d="M1462.52,-59.2C1473.95,-49.7 1487.2,-38.69 1497.46,-30.16"/>
<polygon fill="#63b8ff" stroke="#63b8ff" points="1460.04,-56.71 1454.59,-65.8 1464.52,-62.1 1460.04,-56.71"/>
</a>
</g>
</g>
<!-- Node20 -->
<g id="Node000020" class="node">
<title>Node20</title>
<g id="a_Node000020"><a xlink:href="infix_8c.html" target="_top" xlink:title="The unity build source file for the infix library.">
<polygon fill="white" stroke="#666666" points="2113,-24.5 2050,-24.5 2050,-5.5 2113,-5.5 2113,-24.5"/>
<text text-anchor="middle" x="2081.5" y="-12.5" font-family="Helvetica,sans-Serif" font-size="10.00">src/infix.c</text>
</a>
</g>
</g>
<!-- Node19&#45;&gt;Node20 -->
<g id="edge22_Node000019_Node000020" class="edge">
<title>Node19&#45;&gt;Node20</title>
<g id="a_edge22_Node000019_Node000020"><a xlink:title=" ">
<path fill="none" stroke="#63b8ff" d="M1640.75,-69.05C1645.7,-67.93 1650.7,-66.88 1655.5,-66 1801.64,-39.27 1978.72,-23.84 2049.76,-18.33"/>
<polygon fill="#63b8ff" stroke="#63b8ff" points="1639.66,-65.72 1630.74,-71.44 1641.28,-72.53 1639.66,-65.72"/>
</a>
</g>
</g>
<!-- Node21&#45;&gt;Node20 -->
<g id="edge24_Node000021_Node000020" class="edge">
<title>Node21&#45;&gt;Node20</title>
<g id="a_edge24_Node000021_Node000020"><a xlink:title=" ">
<path fill="none" stroke="#63b8ff" d="M1750.02,-69.04C1754.55,-67.95 1759.11,-66.91 1763.5,-66 1867.47,-44.4 1992.27,-27.32 2049.72,-19.95"/>
<polygon fill="#63b8ff" stroke="#63b8ff" points="1749.08,-65.67 1740.22,-71.48 1750.77,-72.46 1749.08,-65.67"/>
</a>
</g>
</g>
<!-- Node22&#45;&gt;Node20 -->
<g id="edge26_Node000022_Node000020" class="edge">
<title>Node22&#45;&gt;Node20</title>
<g id="a_edge26_Node000022_Node000020"><a xlink:title=" ">
<path fill="none" stroke="#63b8ff" d="M1864.98,-69.07C1869.21,-68.03 1873.44,-67 1877.5,-66 1938.41,-51.05 2009.56,-33.62 2049.7,-23.79"/>
<polygon fill="#63b8ff" stroke="#63b8ff" points="1864.04,-65.7 1855.16,-71.48 1865.71,-72.5 1864.04,-65.7"/>
</a>
</g>
</g>
<!-- Node23&#45;&gt;Node20 -->
<g id="edge28_Node000023_Node000020" class="edge">
<title>Node23&#45;&gt;Node20</title>
<g id="a_edge28_Node000023_Node000020"><a xlink:title=" ">
<path fill="none" stroke="#63b8ff" d="M1970.67,-67.03C1998.07,-54.42 2038.91,-35.61 2062.61,-24.7"/>
<polygon fill="#63b8ff" stroke="#63b8ff" points="1968.87,-64.01 1961.25,-71.37 1971.79,-70.37 1968.87,-64.01"/>
</a>
</g>
</g>
<!-- Node24&#45;&gt;Node20 -->
<g id="edge30_Node000024_Node000020" class="edge">
<title>Node24&#45;&gt;Node20</title>
<g id="a_edge30_Node000024_Node000020"><a xlink:title=" ">
<path fill="none" stroke="#63b8ff" d="M2081.5,-61.08C2081.5,-49.13 2081.5,-34.22 2081.5,-24.91"/>
<polygon fill="#63b8ff" stroke="#63b8ff" points="2078,-61.37 2081.5,-71.37 2085,-61.37 2078,-61.37"/>
</a>
</g>
</g>
<!-- Node25&#45;&gt;Node20 -->
<g id="edge32_Node000025_Node000020" class="edge">
<title>Node25&#45;&gt;Node20</title>
<g id="a_edge32_Node000025_Node000020"><a xlink:title=" ">
<path fill="none" stroke="#63b8ff" d="M2184.02,-66.86C2158.6,-54.25 2120.93,-35.56 2099.03,-24.7"/>
<polygon fill="#63b8ff" stroke="#63b8ff" points="2182.59,-70.06 2193.1,-71.37 2185.7,-63.79 2182.59,-70.06"/>
</a>
</g>
</g>
<!-- Node26&#45;&gt;Node20 -->
<g id="edge34_Node000026_Node000020" class="edge">
<title>Node26&#45;&gt;Node20</title>
<g id="a_edge34_Node000026_Node000020"><a xlink:title=" ">
<path fill="none" stroke="#63b8ff" d="M2281.36,-68.86C2233.48,-56.19 2156.42,-35.81 2113.31,-24.41"/>
<polygon fill="#63b8ff" stroke="#63b8ff" points="2280.55,-72.26 2291.11,-71.44 2282.34,-65.49 2280.55,-72.26"/>
</a>
</g>
</g>
<!-- Node27&#45;&gt;Node20 -->
<g id="edge36_Node000027_Node000020" class="edge">
<title>Node27&#45;&gt;Node20</title>
<g id="a_edge36_Node000027_Node000020"><a xlink:title=" ">
<path fill="none" stroke="#63b8ff" d="M2396.81,-69.34C2391.32,-68.17 2385.79,-67.03 2380.5,-66 2283.38,-47.1 2167.65,-28.99 2113.02,-20.71"/>
<polygon fill="#63b8ff" stroke="#63b8ff" points="2396.08,-72.76 2406.59,-71.45 2397.56,-65.92 2396.08,-72.76"/>
</a>
</g>
</g>
<!-- Node33&#45;&gt;Node20 -->
<g id="edge43_Node000033_Node000020" class="edge">
<title>Node33&#45;&gt;Node20</title>
<g id="a_edge43_Node000033_Node000020"><a xlink:title=" ">
<path fill="none" stroke="#63b8ff" d="M2767.85,-139.78C2900.62,-137.61 3195.11,-129.09 3225.5,-96 3234.52,-86.18 3234.72,-75.63 3225.5,-66 3185.98,-24.71 2294.05,-17.25 2113.28,-16.16"/>
<polygon fill="#63b8ff" stroke="#63b8ff" points="2767.76,-136.28 2757.81,-139.93 2767.87,-143.28 2767.76,-136.28"/>
</a>
</g>
</g>
</g>
</svg>
