<?xml version="1.0" encoding="UTF-8" standalone="no"?>
<!DOCTYPE svg PUBLIC "-//W3C//DTD SVG 1.1//EN"
 "http://www.w3.org/Graphics/SVG/1.1/DTD/svg11.dtd">
<!-- Generated by graphviz version 2.43.0 (0)
 -->
<!-- Title: src/core/signature.c Pages: 1 -->
<svg width="662pt" height="247pt"
 viewBox="0.00 0.00 661.85 247.00" xmlns="http://www.w3.org/2000/svg" xmlns:xlink="http://www.w3.org/1999/xlink">
<g id="graph0" class="graph" transform="scale(1 1) rotate(0) translate(4 243)">
<title>src/core/signature.c</title>
<!-- Node1 -->
<g id="Node000001" class="node">
<title>Node1</title>
<g id="a_Node000001"><a xlink:title="Implements the infix signature string parser and type printer.">
<polygon fill="#999999" stroke="#666666" points="471.35,-239 359.35,-239 359.35,-220 471.35,-220 471.35,-239"/>
<text text-anchor="middle" x="415.35" y="-227" font-family="Helvetica,sans-Serif" font-size="10.00">src/core/signature.c</text>
</a>
</g>
</g>
<!-- Node2 -->
<g id="Node000002" class="node">
<title>Node2</title>
<g id="a_Node000002"><a xlink:href="infix__internals_8h.html" target="_top" xlink:title="Internal data structures, function prototypes, and constants.">
<polygon fill="white" stroke="#666666" points="259.35,-184 119.35,-184 119.35,-165 259.35,-165 259.35,-184"/>
<text text-anchor="middle" x="189.35" y="-172" font-family="Helvetica,sans-Serif" font-size="10.00">common/infix_internals.h</text>
</a>
</g>
</g>
<!-- Node1&#45;&gt;Node2 -->
<g id="edge1_Node000001_Node000002" class="edge">
<title>Node1&#45;&gt;Node2</title>
<g id="a_edge1_Node000001_Node000002"><a xlink:title=" ">
<path fill="none" stroke="#63b8ff" d="M379.03,-219.98C340.11,-210.86 278.19,-196.33 235.75,-186.38"/>
<polygon fill="#63b8ff" stroke="#63b8ff" points="236.48,-182.96 225.94,-184.08 234.88,-189.77 236.48,-182.96"/>
</a>
</g>
</g>
<!-- Node6 -->
<g id="Node000006" class="node">
<title>Node6</title>
<g id="a_Node000006"><a xlink:title=" ">
<polygon fill="#e0e0e0" stroke="#999999" points="274.35,-19 212.35,-19 212.35,0 274.35,0 274.35,-19"/>
<text text-anchor="middle" x="243.35" y="-7" font-family="Helvetica,sans-Serif" font-size="10.00">stdbool.h</text>
</a>
</g>
</g>
<!-- Node1&#45;&gt;Node6 -->
<g id="edge12_Node000001_Node000006" class="edge">
<title>Node1&#45;&gt;Node6</title>
<g id="a_edge12_Node000001_Node000006"><a xlink:title=" ">
<path fill="none" stroke="#63b8ff" d="M373.79,-219.97C351.51,-213.47 325.07,-202.4 307.35,-184 285.15,-160.96 258.73,-68.67 248.11,-28.89"/>
<polygon fill="#63b8ff" stroke="#63b8ff" points="251.48,-27.95 245.55,-19.17 244.71,-29.73 251.48,-27.95"/>
</a>
</g>
</g>
<!-- Node9 -->
<g id="Node000009" class="node">
<title>Node9</title>
<g id="a_Node000009"><a xlink:title=" ">
<polygon fill="#e0e0e0" stroke="#999999" points="368.85,-184 315.85,-184 315.85,-165 368.85,-165 368.85,-184"/>
<text text-anchor="middle" x="342.35" y="-172" font-family="Helvetica,sans-Serif" font-size="10.00">ctype.h</text>
</a>
</g>
</g>
<!-- Node1&#45;&gt;Node9 -->
<g id="edge10_Node000001_Node000009" class="edge">
<title>Node1&#45;&gt;Node9</title>
<g id="a_edge10_Node000001_Node000009"><a xlink:title=" ">
<path fill="none" stroke="#63b8ff" d="M403.62,-219.98C392.61,-212 375.93,-199.88 362.74,-190.31"/>
<polygon fill="#63b8ff" stroke="#63b8ff" points="364.44,-187.21 354.29,-184.17 360.32,-192.88 364.44,-187.21"/>
</a>
</g>
</g>
<!-- Node10 -->
<g id="Node000010" class="node">
<title>Node10</title>
<g id="a_Node000010"><a xlink:title=" ">
<polygon fill="#e0e0e0" stroke="#999999" points="443.35,-184 387.35,-184 387.35,-165 443.35,-165 443.35,-184"/>
<text text-anchor="middle" x="415.35" y="-172" font-family="Helvetica,sans-Serif" font-size="10.00">stdarg.h</text>
</a>
</g>
</g>
<!-- Node1&#45;&gt;Node10 -->
<g id="edge11_Node000001_Node000010" class="edge">
<title>Node1&#45;&gt;Node10</title>
<g id="a_edge11_Node000001_Node000010"><a xlink:title=" ">
<path fill="none" stroke="#63b8ff" d="M415.35,-219.75C415.35,-212.8 415.35,-202.85 415.35,-194.13"/>
<polygon fill="#63b8ff" stroke="#63b8ff" points="418.85,-194.09 415.35,-184.09 411.85,-194.09 418.85,-194.09"/>
</a>
</g>
</g>
<!-- Node11 -->
<g id="Node000011" class="node">
<title>Node11</title>
<g id="a_Node000011"><a xlink:title=" ">
<polygon fill="#e0e0e0" stroke="#999999" points="511.35,-184 461.35,-184 461.35,-165 511.35,-165 511.35,-184"/>
<text text-anchor="middle" x="486.35" y="-172" font-family="Helvetica,sans-Serif" font-size="10.00">stdio.h</text>
</a>
</g>
</g>
<!-- Node1&#45;&gt;Node11 -->
<g id="edge13_Node000001_Node000011" class="edge">
<title>Node1&#45;&gt;Node11</title>
<g id="a_edge13_Node000001_Node000011"><a xlink:title=" ">
<path fill="none" stroke="#63b8ff" d="M426.75,-219.98C437.45,-212 453.69,-199.88 466.51,-190.31"/>
<polygon fill="#63b8ff" stroke="#63b8ff" points="468.81,-192.96 474.73,-184.17 464.62,-187.35 468.81,-192.96"/>
</a>
</g>
</g>
<!-- Node12 -->
<g id="Node000012" class="node">
<title>Node12</title>
<g id="a_Node000012"><a xlink:title=" ">
<polygon fill="#e0e0e0" stroke="#999999" points="582.85,-184 529.85,-184 529.85,-165 582.85,-165 582.85,-184"/>
<text text-anchor="middle" x="556.35" y="-172" font-family="Helvetica,sans-Serif" font-size="10.00">stdlib.h</text>
</a>
</g>
</g>
<!-- Node1&#45;&gt;Node12 -->
<g id="edge14_Node000001_Node000012" class="edge">
<title>Node1&#45;&gt;Node12</title>
<g id="a_edge14_Node000001_Node000012"><a xlink:title=" ">
<path fill="none" stroke="#63b8ff" d="M438,-219.98C461.19,-211.27 497.47,-197.63 523.75,-187.75"/>
<polygon fill="#63b8ff" stroke="#63b8ff" points="525.15,-190.97 533.28,-184.17 522.69,-184.41 525.15,-190.97"/>
</a>
</g>
</g>
<!-- Node13 -->
<g id="Node000013" class="node">
<title>Node13</title>
<g id="a_Node000013"><a xlink:title=" ">
<polygon fill="#e0e0e0" stroke="#999999" points="653.85,-184 600.85,-184 600.85,-165 653.85,-165 653.85,-184"/>
<text text-anchor="middle" x="627.35" y="-172" font-family="Helvetica,sans-Serif" font-size="10.00">string.h</text>
</a>
</g>
</g>
<!-- Node1&#45;&gt;Node13 -->
<g id="edge15_Node000001_Node000013" class="edge">
<title>Node1&#45;&gt;Node13</title>
<g id="a_edge15_Node000001_Node000013"><a xlink:title=" ">
<path fill="none" stroke="#63b8ff" d="M449.41,-219.98C488.17,-210.29 551.23,-194.53 590.94,-184.6"/>
<polygon fill="#63b8ff" stroke="#63b8ff" points="591.9,-187.97 600.75,-182.15 590.2,-181.18 591.9,-187.97"/>
</a>
</g>
</g>
<!-- Node3 -->
<g id="Node000003" class="node">
<title>Node3</title>
<g id="a_Node000003"><a xlink:href="infix__config_8h.html" target="_top" xlink:title="Platform, architecture, and ABI detection macros.">
<polygon fill="white" stroke="#666666" points="258.85,-129 131.85,-129 131.85,-110 258.85,-110 258.85,-129"/>
<text text-anchor="middle" x="195.35" y="-117" font-family="Helvetica,sans-Serif" font-size="10.00">common/infix_config.h</text>
</a>
</g>
</g>
<!-- Node2&#45;&gt;Node3 -->
<g id="edge2_Node000002_Node000003" class="edge">
<title>Node2&#45;&gt;Node3</title>
<g id="a_edge2_Node000002_Node000003"><a xlink:title=" ">
<path fill="none" stroke="#63b8ff" d="M190.34,-164.75C191.12,-157.8 192.25,-147.85 193.24,-139.13"/>
<polygon fill="#63b8ff" stroke="#63b8ff" points="196.73,-139.42 194.37,-129.09 189.77,-138.63 196.73,-139.42"/>
</a>
</g>
</g>
<!-- Node4 -->
<g id="Node000004" class="node">
<title>Node4</title>
<g id="a_Node000004"><a xlink:href="infix_8h.html" target="_top" xlink:title="The public interface for the infix FFI library.">
<polygon fill="white" stroke="#666666" points="113.85,-129 42.85,-129 42.85,-110 113.85,-110 113.85,-129"/>
<text text-anchor="middle" x="78.35" y="-117" font-family="Helvetica,sans-Serif" font-size="10.00">infix/infix.h</text>
</a>
</g>
</g>
<!-- Node2&#45;&gt;Node4 -->
<g id="edge3_Node000002_Node000004" class="edge">
<title>Node2&#45;&gt;Node4</title>
<g id="a_edge3_Node000002_Node000004"><a xlink:title=" ">
<path fill="none" stroke="#63b8ff" d="M171.51,-164.98C153.74,-156.5 126.2,-143.35 105.67,-133.54"/>
<polygon fill="#63b8ff" stroke="#63b8ff" points="107.04,-130.32 96.5,-129.17 104.02,-136.64 107.04,-130.32"/>
</a>
</g>
</g>
<!-- Node5 -->
<g id="Node000005" class="node">
<title>Node5</title>
<g id="a_Node000005"><a xlink:href="compat__c23_8h.html" target="_top" xlink:title="Provides forward compatibility macros for C23 features.">
<polygon fill="white" stroke="#666666" points="143.85,-74 12.85,-74 12.85,-55 143.85,-55 143.85,-74"/>
<text text-anchor="middle" x="78.35" y="-62" font-family="Helvetica,sans-Serif" font-size="10.00">common/compat_c23.h</text>
</a>
</g>
</g>
<!-- Node4&#45;&gt;Node5 -->
<g id="edge4_Node000004_Node000005" class="edge">
<title>Node4&#45;&gt;Node5</title>
<g id="a_edge4_Node000004_Node000005"><a xlink:title=" ">
<path fill="none" stroke="#63b8ff" d="M78.35,-109.75C78.35,-102.8 78.35,-92.85 78.35,-84.13"/>
<polygon fill="#63b8ff" stroke="#63b8ff" points="81.85,-84.09 78.35,-74.09 74.85,-84.09 81.85,-84.09"/>
</a>
</g>
</g>
<!-- Node4&#45;&gt;Node6 -->
<g id="edge7_Node000004_Node000006" class="edge">
<title>Node4&#45;&gt;Node6</title>
<g id="a_edge7_Node000004_Node000006"><a xlink:title=" ">
<path fill="none" stroke="#63b8ff" d="M114.04,-111.65C152.05,-103.67 208.83,-89.59 224.35,-74 236.13,-62.16 240.66,-43.32 242.37,-29.24"/>
<polygon fill="#63b8ff" stroke="#63b8ff" points="245.87,-29.44 243.23,-19.18 238.89,-28.85 245.87,-29.44"/>
</a>
</g>
</g>
<!-- Node7 -->
<g id="Node000007" class="node">
<title>Node7</title>
<g id="a_Node000007"><a xlink:title=" ">
<polygon fill="#e0e0e0" stroke="#999999" points="59.35,-19 3.35,-19 3.35,0 59.35,0 59.35,-19"/>
<text text-anchor="middle" x="31.35" y="-7" font-family="Helvetica,sans-Serif" font-size="10.00">stddef.h</text>
</a>
</g>
</g>
<!-- Node4&#45;&gt;Node7 -->
<g id="edge8_Node000004_Node000007" class="edge">
<title>Node4&#45;&gt;Node7</title>
<g id="a_edge8_Node000004_Node000007"><a xlink:title=" ">
<path fill="none" stroke="#63b8ff" d="M50.7,-109.98C33.76,-103.17 13.46,-91.76 3.35,-74 -5.36,-58.71 4.97,-40.21 15.46,-27.13"/>
<polygon fill="#63b8ff" stroke="#63b8ff" points="18.26,-29.25 22.18,-19.4 12.97,-24.65 18.26,-29.25"/>
</a>
</g>
</g>
<!-- Node8 -->
<g id="Node000008" class="node">
<title>Node8</title>
<g id="a_Node000008"><a xlink:title=" ">
<polygon fill="#e0e0e0" stroke="#999999" points="214.85,-74 161.85,-74 161.85,-55 214.85,-55 214.85,-74"/>
<text text-anchor="middle" x="188.35" y="-62" font-family="Helvetica,sans-Serif" font-size="10.00">stdint.h</text>
</a>
</g>
</g>
<!-- Node4&#45;&gt;Node8 -->
<g id="edge9_Node000004_Node000008" class="edge">
<title>Node4&#45;&gt;Node8</title>
<g id="a_edge9_Node000004_Node000008"><a xlink:title=" ">
<path fill="none" stroke="#63b8ff" d="M96.02,-109.98C113.64,-101.5 140.92,-88.35 161.27,-78.54"/>
<polygon fill="#63b8ff" stroke="#63b8ff" points="162.86,-81.66 170.35,-74.17 159.82,-75.36 162.86,-81.66"/>
</a>
</g>
</g>
<!-- Node5&#45;&gt;Node6 -->
<g id="edge5_Node000005_Node000006" class="edge">
<title>Node5&#45;&gt;Node6</title>
<g id="a_edge5_Node000005_Node000006"><a xlink:title=" ">
<path fill="none" stroke="#63b8ff" d="M104.86,-54.98C132.56,-46.09 176.21,-32.07 207.09,-22.15"/>
<polygon fill="#63b8ff" stroke="#63b8ff" points="208.18,-25.47 216.63,-19.08 206.04,-18.81 208.18,-25.47"/>
</a>
</g>
</g>
<!-- Node5&#45;&gt;Node7 -->
<g id="edge6_Node000005_Node000007" class="edge">
<title>Node5&#45;&gt;Node7</title>
<g id="a_edge6_Node000005_Node000007"><a xlink:title=" ">
<path fill="none" stroke="#63b8ff" d="M70.58,-54.75C63.88,-47.18 54,-36.05 45.84,-26.84"/>
<polygon fill="#63b8ff" stroke="#63b8ff" points="48.22,-24.25 38.96,-19.09 42.98,-28.89 48.22,-24.25"/>
</a>
</g>
</g>
</g>
</svg>
