<?xml version="1.0" encoding="UTF-8" standalone="no"?>
<!DOCTYPE svg PUBLIC "-//W3C//DTD SVG 1.1//EN"
 "http://www.w3.org/Graphics/SVG/1.1/DTD/svg11.dtd">
<!-- Generated by graphviz version 2.43.0 (0)
 -->
<!-- Title: infix_direct_arg_handler_t Pages: 1 -->
<svg width="549pt" height="206pt"
 viewBox="0.00 0.00 549.00 206.00" xmlns="http://www.w3.org/2000/svg" xmlns:xlink="http://www.w3.org/1999/xlink">
<g id="graph0" class="graph" transform="scale(1 1) rotate(0) translate(4 202)">
<title>infix_direct_arg_handler_t</title>
<!-- Node1 -->
<g id="Node000001" class="node">
<title>Node1</title>
<g id="a_Node000001"><a xlink:title="A struct containing all the necessary handlers for a single function argument.">
<polygon fill="#999999" stroke="#666666" points="179.5,-19 36.5,-19 36.5,0 179.5,0 179.5,-19"/>
<text text-anchor="middle" x="108" y="-7" font-family="Helvetica,sans-Serif" font-size="10.00">infix_direct_arg_handler_t</text>
</a>
</g>
</g>
<!-- Node2 -->
<g id="Node000002" class="node">
<title>Node2</title>
<g id="a_Node000002"><a xlink:href="unioninfix__direct__value__t.html" target="_top" xlink:title="A union to hold any primitive value returned by a scalar marshaller.">
<polygon fill="white" stroke="#666666" points="112,-114 0,-114 0,-95 112,-95 112,-114"/>
<text text-anchor="middle" x="56" y="-102" font-family="Helvetica,sans-Serif" font-size="10.00">infix_direct_value_t</text>
</a>
</g>
</g>
<!-- Node2&#45;&gt;Node1 -->
<g id="edge1_Node000001_Node000002" class="edge">
<title>Node2&#45;&gt;Node1</title>
<g id="a_edge1_Node000001_Node000002"><a xlink:title=" ">
<path fill="none" stroke="#9a32cd" stroke-dasharray="5,2" d="M51.45,-84.92C49.05,-70.74 48.19,-51.26 57,-37 62.03,-28.85 70.46,-23.09 79.04,-19.06"/>
<polygon fill="#9a32cd" stroke="#9a32cd" points="48.07,-85.89 53.54,-94.97 54.93,-84.46 48.07,-85.89"/>
</a>
</g>
<text text-anchor="middle" x="102.5" y="-45.5" font-family="Helvetica,sans-Serif" font-size="10.00" fill="grey"> scalar_marshaller</text>
</g>
<!-- Node3 -->
<g id="Node000003" class="node">
<title>Node3</title>
<g id="a_Node000003"><a xlink:href="structinfix__type__t.html" target="_top" xlink:title="A semi&#45;opaque structure that describes a C type.">
<polygon fill="white" stroke="#666666" points="389,-114 315,-114 315,-95 389,-95 389,-114"/>
<text text-anchor="middle" x="352" y="-102" font-family="Helvetica,sans-Serif" font-size="10.00">infix_type_t</text>
</a>
</g>
</g>
<!-- Node3&#45;&gt;Node1 -->
<g id="edge2_Node000001_Node000003" class="edge">
<title>Node3&#45;&gt;Node1</title>
<g id="a_edge2_Node000001_Node000003"><a xlink:title=" ">
<path fill="none" stroke="#9a32cd" stroke-dasharray="5,2" d="M304.61,-95.03C270.22,-87.92 223.06,-76.14 184,-59 177.41,-56.11 141.03,-32.32 121.09,-19.16"/>
<polygon fill="#9a32cd" stroke="#9a32cd" points="304.36,-98.55 314.85,-97.09 305.74,-91.69 304.36,-98.55"/>
</a>
</g>
<text text-anchor="middle" x="239.5" y="-51" font-family="Helvetica,sans-Serif" font-size="10.00" fill="grey"> aggregate_marshaller</text>
<text text-anchor="middle" x="239.5" y="-40" font-family="Helvetica,sans-Serif" font-size="10.00" fill="grey">writeback_handler</text>
</g>
<!-- Node3&#45;&gt;Node3 -->
<g id="edge5_Node000003_Node000003" class="edge">
<title>Node3&#45;&gt;Node3</title>
<g id="a_edge5_Node000003_Node000003"><a xlink:title=" ">
<path fill="none" stroke="#9a32cd" stroke-dasharray="5,2" d="M399.19,-112.19C403.96,-110.66 407,-108.1 407,-104.5 407,-98.74 399.21,-95.63 389.02,-95.18"/>
<polygon fill="#9a32cd" stroke="#9a32cd" points="398.34,-108.78 389.02,-113.82 399.44,-115.69 398.34,-108.78"/>
</a>
</g>
<text text-anchor="middle" x="446.5" y="-124" font-family="Helvetica,sans-Serif" font-size="10.00" fill="grey"> base_type</text>
<text text-anchor="middle" x="446.5" y="-113" font-family="Helvetica,sans-Serif" font-size="10.00" fill="grey">element_type</text>
<text text-anchor="middle" x="446.5" y="-102" font-family="Helvetica,sans-Serif" font-size="10.00" fill="grey">pointee_type</text>
<text text-anchor="middle" x="446.5" y="-91" font-family="Helvetica,sans-Serif" font-size="10.00" fill="grey">return_type</text>
<text text-anchor="middle" x="446.5" y="-80" font-family="Helvetica,sans-Serif" font-size="10.00" fill="grey">underlying_type</text>
</g>
<!-- Node5 -->
<g id="Node000005" class="node">
<title>Node5</title>
<g id="a_Node000005"><a xlink:href="structinfix__struct__member__t.html" target="_top" xlink:title="Describes a single member of a C struct or union.">
<polygon fill="white" stroke="#666666" points="371,-19 245,-19 245,0 371,0 371,-19"/>
<text text-anchor="middle" x="308" y="-7" font-family="Helvetica,sans-Serif" font-size="10.00">infix_struct_member_t</text>
</a>
</g>
</g>
<!-- Node3&#45;&gt;Node5 -->
<g id="edge7_Node000005_Node000003" class="edge">
<title>Node3&#45;&gt;Node5</title>
<g id="a_edge7_Node000005_Node000003"><a xlink:title=" ">
<path fill="none" stroke="#9a32cd" stroke-dasharray="5,2" d="M327.89,-89.19C317.57,-81.64 306.62,-71.37 301,-59 295.09,-45.99 299.95,-29.17 303.99,-19.14"/>
<polygon fill="#9a32cd" stroke="#9a32cd" points="326.03,-92.16 336.27,-94.88 329.96,-86.37 326.03,-92.16"/>
</a>
</g>
<text text-anchor="middle" x="313.5" y="-45.5" font-family="Helvetica,sans-Serif" font-size="10.00" fill="grey"> type</text>
</g>
<!-- Node6 -->
<g id="Node000006" class="node">
<title>Node6</title>
<g id="a_Node000006"><a xlink:href="structinfix__function__argument__t.html" target="_top" xlink:title="Describes a single argument to a C function.">
<polygon fill="white" stroke="#666666" points="541,-19 397,-19 397,0 541,0 541,-19"/>
<text text-anchor="middle" x="469" y="-7" font-family="Helvetica,sans-Serif" font-size="10.00">infix_function_argument_t</text>
</a>
</g>
</g>
<!-- Node3&#45;&gt;Node6 -->
<g id="edge9_Node000006_Node000003" class="edge">
<title>Node3&#45;&gt;Node6</title>
<g id="a_edge9_Node000006_Node000003"><a xlink:title=" ">
<path fill="none" stroke="#9a32cd" stroke-dasharray="5,2" d="M367.09,-87.03C380.64,-72.79 401.49,-52.16 422,-37 431.19,-30.21 442.29,-23.87 451.4,-19.1"/>
<polygon fill="#9a32cd" stroke="#9a32cd" points="364.29,-84.9 360.02,-94.59 369.4,-89.68 364.29,-84.9"/>
</a>
</g>
<text text-anchor="middle" x="434.5" y="-45.5" font-family="Helvetica,sans-Serif" font-size="10.00" fill="grey"> type</text>
</g>
<!-- Node4 -->
<g id="Node000004" class="node">
<title>Node4</title>
<g id="a_Node000004"><a xlink:href="structinfix__arena__t.html" target="_top" xlink:title="Internal definition of a memory arena.">
<polygon fill="white" stroke="#666666" points="392,-198 312,-198 312,-179 392,-179 392,-198"/>
<text text-anchor="middle" x="352" y="-186" font-family="Helvetica,sans-Serif" font-size="10.00">infix_arena_t</text>
</a>
</g>
</g>
<!-- Node4&#45;&gt;Node3 -->
<g id="edge3_Node000003_Node000004" class="edge">
<title>Node4&#45;&gt;Node3</title>
<g id="a_edge3_Node000003_Node000004"><a xlink:title=" ">
<path fill="none" stroke="#9a32cd" stroke-dasharray="5,2" d="M352,-168.26C352,-151.18 352,-127 352,-114.21"/>
<polygon fill="#9a32cd" stroke="#9a32cd" points="348.5,-168.72 352,-178.72 355.5,-168.72 348.5,-168.72"/>
</a>
</g>
<text text-anchor="middle" x="367.5" y="-153" font-family="Helvetica,sans-Serif" font-size="10.00" fill="grey"> arena</text>
</g>
<!-- Node4&#45;&gt;Node4 -->
<g id="edge4_Node000004_Node000004" class="edge">
<title>Node4&#45;&gt;Node4</title>
<g id="a_edge4_Node000004_Node000004"><a xlink:title=" ">
<path fill="none" stroke="#9a32cd" stroke-dasharray="5,2" d="M402.26,-193.32C407,-192.33 410,-190.73 410,-188.5 410,-184.94 402.33,-182.96 392.12,-182.57"/>
<polygon fill="#9a32cd" stroke="#9a32cd" points="401.68,-189.86 392.12,-194.43 402.44,-196.82 401.68,-189.86"/>
</a>
</g>
<text text-anchor="middle" x="438.5" y="-186" font-family="Helvetica,sans-Serif" font-size="10.00" fill="grey"> next_block</text>
</g>
<!-- Node5&#45;&gt;Node3 -->
<g id="edge6_Node000003_Node000005" class="edge">
<title>Node5&#45;&gt;Node3</title>
<g id="a_edge6_Node000003_Node000005"><a xlink:title=" ">
<path fill="none" stroke="#9a32cd" stroke-dasharray="5,2" d="M323.22,-26.94C325.71,-30.13 328.09,-33.55 330,-37 340.73,-56.36 347.32,-81.8 350.24,-94.89"/>
<polygon fill="#9a32cd" stroke="#9a32cd" points="325.79,-24.56 316.65,-19.2 320.45,-29.09 325.79,-24.56"/>
</a>
</g>
<text text-anchor="middle" x="365" y="-45.5" font-family="Helvetica,sans-Serif" font-size="10.00" fill="grey"> members</text>
</g>
<!-- Node6&#45;&gt;Node3 -->
<g id="edge8_Node000003_Node000006" class="edge">
<title>Node6&#45;&gt;Node3</title>
<g id="a_edge8_Node000003_Node000006"><a xlink:title=" ">
<path fill="none" stroke="#9a32cd" stroke-dasharray="5,2" d="M465.71,-29.17C463.14,-39.05 458.67,-50.8 451,-59 434.14,-77.03 408.61,-88.26 387.7,-94.93"/>
<polygon fill="#9a32cd" stroke="#9a32cd" points="469.19,-29.61 467.87,-19.09 462.35,-28.14 469.19,-29.61"/>
</a>
</g>
<text text-anchor="middle" x="476.5" y="-45.5" font-family="Helvetica,sans-Serif" font-size="10.00" fill="grey"> args</text>
</g>
</g>
</svg>
