<?xml version="1.0" encoding="UTF-8" standalone="no"?>
<!DOCTYPE svg PUBLIC "-//W3C//DTD SVG 1.1//EN"
 "http://www.w3.org/Graphics/SVG/1.1/DTD/svg11.dtd">
<!-- Generated by graphviz version 2.43.0 (0)
 -->
<!-- Title: infix_function_argument_t Pages: 1 -->
<svg width="325pt" height="195pt"
 viewBox="0.00 0.00 325.00 195.00" xmlns="http://www.w3.org/2000/svg" xmlns:xlink="http://www.w3.org/1999/xlink">

<svg id="main" version="1.1" xmlns="http://www.w3.org/2000/svg" xmlns:xlink="http://www.w3.org/1999/xlink" xml:space="preserve" onload="init(evt)">
<style type="text/css"><![CDATA[
.node, .edge {opacity: 0.7;}
.node.selected, .edge.selected {opacity: 1;}
.edge:hover path { stroke: red; }
.edge:hover polygon { stroke: red; fill: red; }
]]></style>
<script type="application/ecmascript" xlink:href="svg.min.js"/>
<svg id="graph" class="graph">
<g id="graph0" class="graph" transform="scale(1 1) rotate(0) translate(4 191)">
<title>infix_function_argument_t</title>
<!-- Node1 -->
<g id="Node000001" class="node">
<title>Node1</title>
<g id="a_Node000001"><a xlink:title="Describes a single argument to a C function.">
<polygon fill="#999999" stroke="#666666" points="144,-187 0,-187 0,-168 144,-168 144,-187"/>
<text text-anchor="middle" x="72" y="-175" font-family="Helvetica,sans-Serif" font-size="10.00">infix_function_argument_t</text>
</a>
</g>
</g>
<!-- Node2 -->
<g id="Node000002" class="node">
<title>Node2</title>
<g id="a_Node000002"><a xlink:href="structinfix__type__t.html" target="_top" xlink:title="A semi&#45;opaque structure that describes a C type.">
<polygon fill="white" stroke="#666666" points="157,-103 83,-103 83,-84 157,-84 157,-103"/>
<text text-anchor="middle" x="120" y="-91" font-family="Helvetica,sans-Serif" font-size="10.00">infix_type_t</text>
</a>
</g>
</g>
<!-- Node1&#45;&gt;Node2 -->
<g id="edge7_Node000002_Node000001" class="edge">
<title>Node1&#45;&gt;Node2</title>
<g id="a_edge7_Node000002_Node000001"><a xlink:title=" ">
<path fill="none" stroke="#9a32cd" stroke-dasharray="5,2" d="M66.91,-157.6C66.18,-151.44 66.4,-144.72 69,-139 76.2,-123.17 92.12,-110.77 104.27,-103.12"/>
<polygon fill="#9a32cd" stroke="#9a32cd" points="63.55,-158.64 68.97,-167.75 70.41,-157.25 63.55,-158.64"/>
</a>
</g>
<text text-anchor="middle" x="81.5" y="-142" font-family="Helvetica,sans-Serif" font-size="10.00" fill="grey"> args</text>
</g>
<!-- Node2&#45;&gt;Node1 -->
<g id="edge1_Node000001_Node000002" class="edge">
<title>Node2&#45;&gt;Node1</title>
<g id="a_edge1_Node000001_Node000002"><a xlink:title=" ">
<path fill="none" stroke="#9a32cd" stroke-dasharray="5,2" d="M114.75,-112.91C111.06,-124.16 105.45,-138.54 98,-150 93.64,-156.7 87.41,-163.13 82.13,-167.97"/>
<polygon fill="#9a32cd" stroke="#9a32cd" points="118.12,-113.87 117.7,-103.28 111.43,-111.82 118.12,-113.87"/>
</a>
</g>
<text text-anchor="middle" x="115.5" y="-142" font-family="Helvetica,sans-Serif" font-size="10.00" fill="grey"> type</text>
</g>
<!-- Node2&#45;&gt;Node2 -->
<g id="edge4_Node000002_Node000002" class="edge">
<title>Node2&#45;&gt;Node2</title>
<g id="a_edge4_Node000002_Node000002"><a xlink:title=" ">
<path fill="none" stroke="#9a32cd" stroke-dasharray="5,2" d="M167.19,-101.19C171.96,-99.66 175,-97.1 175,-93.5 175,-87.74 167.21,-84.63 157.02,-84.18"/>
<polygon fill="#9a32cd" stroke="#9a32cd" points="166.34,-97.78 157.02,-102.82 167.44,-104.69 166.34,-97.78"/>
</a>
</g>
<text text-anchor="middle" x="214.5" y="-113" font-family="Helvetica,sans-Serif" font-size="10.00" fill="grey"> base_type</text>
<text text-anchor="middle" x="214.5" y="-102" font-family="Helvetica,sans-Serif" font-size="10.00" fill="grey">element_type</text>
<text text-anchor="middle" x="214.5" y="-91" font-family="Helvetica,sans-Serif" font-size="10.00" fill="grey">pointee_type</text>
<text text-anchor="middle" x="214.5" y="-80" font-family="Helvetica,sans-Serif" font-size="10.00" fill="grey">return_type</text>
<text text-anchor="middle" x="214.5" y="-69" font-family="Helvetica,sans-Serif" font-size="10.00" fill="grey">underlying_type</text>
</g>
<!-- Node4 -->
<g id="Node000004" class="node">
<title>Node4</title>
<g id="a_Node000004"><a xlink:href="structinfix__struct__member__t.html" target="_top" xlink:title="Describes a single member of a C struct or union.">
<polygon fill="white" stroke="#666666" points="183,-19 57,-19 57,0 183,0 183,-19"/>
<text text-anchor="middle" x="120" y="-7" font-family="Helvetica,sans-Serif" font-size="10.00">infix_struct_member_t</text>
</a>
</g>
</g>
<!-- Node2&#45;&gt;Node4 -->
<g id="edge6_Node000004_Node000002" class="edge">
<title>Node2&#45;&gt;Node4</title>
<g id="a_edge6_Node000004_Node000002"><a xlink:title=" ">
<path fill="none" stroke="#9a32cd" stroke-dasharray="5,2" d="M106.79,-75.68C101.39,-67.75 95.76,-57.88 93,-48 91.68,-43.29 91.11,-41.51 93,-37 96,-29.85 101.97,-23.67 107.54,-19.07"/>
<polygon fill="#9a32cd" stroke="#9a32cd" points="104.13,-77.96 112.85,-83.97 109.78,-73.83 104.13,-77.96"/>
</a>
</g>
<text text-anchor="middle" x="105.5" y="-40" font-family="Helvetica,sans-Serif" font-size="10.00" fill="grey"> type</text>
</g>
<!-- Node3 -->
<g id="Node000003" class="node">
<title>Node3</title>
<g id="a_Node000003"><a xlink:href="structinfix__arena__t.html" target="_top" xlink:title="Internal definition of a memory arena.">
<polygon fill="white" stroke="#666666" points="242,-187 162,-187 162,-168 242,-168 242,-187"/>
<text text-anchor="middle" x="202" y="-175" font-family="Helvetica,sans-Serif" font-size="10.00">infix_arena_t</text>
</a>
</g>
</g>
<!-- Node3&#45;&gt;Node2 -->
<g id="edge2_Node000002_Node000003" class="edge">
<title>Node3&#45;&gt;Node2</title>
<g id="a_edge2_Node000002_Node000003"><a xlink:title=" ">
<path fill="none" stroke="#9a32cd" stroke-dasharray="5,2" d="M186.11,-160.61C168.98,-143.48 142.36,-116.86 128.71,-103.21"/>
<polygon fill="#9a32cd" stroke="#9a32cd" points="183.68,-163.13 193.22,-167.72 188.63,-158.18 183.68,-163.13"/>
</a>
</g>
<text text-anchor="middle" x="190.5" y="-142" font-family="Helvetica,sans-Serif" font-size="10.00" fill="grey"> arena</text>
</g>
<!-- Node3&#45;&gt;Node3 -->
<g id="edge3_Node000003_Node000003" class="edge">
<title>Node3&#45;&gt;Node3</title>
<g id="a_edge3_Node000003_Node000003"><a xlink:title=" ">
<path fill="none" stroke="#9a32cd" stroke-dasharray="5,2" d="M252.26,-182.32C257,-181.33 260,-179.73 260,-177.5 260,-173.94 252.33,-171.96 242.12,-171.57"/>
<polygon fill="#9a32cd" stroke="#9a32cd" points="251.68,-178.86 242.12,-183.43 252.44,-185.82 251.68,-178.86"/>
</a>
</g>
<text text-anchor="middle" x="288.5" y="-175" font-family="Helvetica,sans-Serif" font-size="10.00" fill="grey"> next_block</text>
</g>
<!-- Node4&#45;&gt;Node2 -->
<g id="edge5_Node000002_Node000004" class="edge">
<title>Node4&#45;&gt;Node2</title>
<g id="a_edge5_Node000002_Node000004"><a xlink:title=" ">
<path fill="none" stroke="#9a32cd" stroke-dasharray="5,2" d="M121.6,-29.31C121.76,-31.89 121.91,-34.51 122,-37 122.62,-53.57 121.51,-72.93 120.71,-83.85"/>
<polygon fill="#9a32cd" stroke="#9a32cd" points="125.08,-29.03 120.83,-19.32 118.1,-29.56 125.08,-29.03"/>
</a>
</g>
<text text-anchor="middle" x="147" y="-40" font-family="Helvetica,sans-Serif" font-size="10.00" fill="grey"> members</text>
</g>
</g>
</svg>
</svg>

<style type='text/css'>
<![CDATA[
[data-mouse-over-selected='false'] { opacity: 0.7; }
[data-mouse-over-selected='true']  { opacity: 1.0; }
]]>
</style>
<script type="application/ecmascript"><![CDATA[
document.addEventListener('DOMContentLoaded', (event) => {
  highlightEdges();
  highlightAdjacentNodes();
});
]]></script>
</svg>
