<?xml version="1.0" encoding="UTF-8" standalone="no"?>
<!DOCTYPE svg PUBLIC "-//W3C//DTD SVG 1.1//EN"
 "http://www.w3.org/Graphics/SVG/1.1/DTD/svg11.dtd">
<!-- Generated by graphviz version 2.43.0 (0)
 -->
<!-- Title: printer_state Pages: 1 -->
<svg width="394pt" height="195pt"
 viewBox="0.00 0.00 393.50 195.00" xmlns="http://www.w3.org/2000/svg" xmlns:xlink="http://www.w3.org/1999/xlink">
<g id="graph0" class="graph" transform="scale(1 1) rotate(0) translate(4 191)">
<title>printer_state</title>
<!-- Node1 -->
<g id="Node000001" class="node">
<title>Node1</title>
<g id="a_Node000001"><a xlink:title=" ">
<polygon fill="#999999" stroke="#666666" points="79,-19 0,-19 0,0 79,0 79,-19"/>
<text text-anchor="middle" x="39.5" y="-7" font-family="Helvetica,sans-Serif" font-size="10.00">printer_state</text>
</a>
</g>
</g>
<!-- Node2 -->
<g id="Node000002" class="node">
<title>Node2</title>
<g id="a_Node000002"><a xlink:href="structinfix__type__t.html" target="_top" xlink:title="A semi&#45;opaque structure that describes a C type.">
<polygon fill="white" stroke="#666666" points="229.5,-103 155.5,-103 155.5,-84 229.5,-84 229.5,-103"/>
<text text-anchor="middle" x="192.5" y="-91" font-family="Helvetica,sans-Serif" font-size="10.00">infix_type_t</text>
</a>
</g>
</g>
<!-- Node2&#45;&gt;Node1 -->
<g id="edge1_Node000001_Node000002" class="edge">
<title>Node2&#45;&gt;Node1</title>
<g id="a_edge1_Node000001_Node000002"><a xlink:title=" ">
<path fill="none" stroke="#9a32cd" stroke-dasharray="5,2" d="M148.77,-80.94C125.79,-73.65 97.84,-62.78 75.5,-48 63.46,-40.03 52.41,-27.37 45.81,-19"/>
<polygon fill="#9a32cd" stroke="#9a32cd" points="148.02,-84.37 158.61,-83.94 150.07,-77.68 148.02,-84.37"/>
</a>
</g>
<text text-anchor="middle" x="106.5" y="-40" font-family="Helvetica,sans-Serif" font-size="10.00" fill="grey"> msvc_types</text>
</g>
<!-- Node2&#45;&gt;Node2 -->
<g id="edge4_Node000002_Node000002" class="edge">
<title>Node2&#45;&gt;Node2</title>
<g id="a_edge4_Node000002_Node000002"><a xlink:title=" ">
<path fill="none" stroke="#9a32cd" stroke-dasharray="5,2" d="M239.69,-101.19C244.46,-99.66 247.5,-97.1 247.5,-93.5 247.5,-87.74 239.71,-84.63 229.52,-84.18"/>
<polygon fill="#9a32cd" stroke="#9a32cd" points="238.84,-97.78 229.52,-102.82 239.94,-104.69 238.84,-97.78"/>
</a>
</g>
<text text-anchor="middle" x="287" y="-113" font-family="Helvetica,sans-Serif" font-size="10.00" fill="grey"> base_type</text>
<text text-anchor="middle" x="287" y="-102" font-family="Helvetica,sans-Serif" font-size="10.00" fill="grey">element_type</text>
<text text-anchor="middle" x="287" y="-91" font-family="Helvetica,sans-Serif" font-size="10.00" fill="grey">pointee_type</text>
<text text-anchor="middle" x="287" y="-80" font-family="Helvetica,sans-Serif" font-size="10.00" fill="grey">return_type</text>
<text text-anchor="middle" x="287" y="-69" font-family="Helvetica,sans-Serif" font-size="10.00" fill="grey">underlying_type</text>
</g>
<!-- Node4 -->
<g id="Node000004" class="node">
<title>Node4</title>
<g id="a_Node000004"><a xlink:href="structinfix__struct__member__t.html" target="_top" xlink:title="Describes a single member of a C struct or union.">
<polygon fill="white" stroke="#666666" points="223.5,-19 97.5,-19 97.5,0 223.5,0 223.5,-19"/>
<text text-anchor="middle" x="160.5" y="-7" font-family="Helvetica,sans-Serif" font-size="10.00">infix_struct_member_t</text>
</a>
</g>
</g>
<!-- Node2&#45;&gt;Node4 -->
<g id="edge6_Node000004_Node000002" class="edge">
<title>Node2&#45;&gt;Node4</title>
<g id="a_edge6_Node000004_Node000002"><a xlink:title=" ">
<path fill="none" stroke="#9a32cd" stroke-dasharray="5,2" d="M168.85,-78.09C158.73,-70.52 148,-60.26 142.5,-48 138.01,-37.99 145.19,-26.64 151.78,-19.08"/>
<polygon fill="#9a32cd" stroke="#9a32cd" points="166.86,-80.97 177.07,-83.8 170.85,-75.22 166.86,-80.97"/>
</a>
</g>
<text text-anchor="middle" x="155" y="-40" font-family="Helvetica,sans-Serif" font-size="10.00" fill="grey"> type</text>
</g>
<!-- Node5 -->
<g id="Node000005" class="node">
<title>Node5</title>
<g id="a_Node000005"><a xlink:href="structinfix__function__argument__t.html" target="_top" xlink:title="Describes a single argument to a C function.">
<polygon fill="white" stroke="#666666" points="385.5,-19 241.5,-19 241.5,0 385.5,0 385.5,-19"/>
<text text-anchor="middle" x="313.5" y="-7" font-family="Helvetica,sans-Serif" font-size="10.00">infix_function_argument_t</text>
</a>
</g>
</g>
<!-- Node2&#45;&gt;Node5 -->
<g id="edge8_Node000005_Node000002" class="edge">
<title>Node2&#45;&gt;Node5</title>
<g id="a_edge8_Node000005_Node000002"><a xlink:title=" ">
<path fill="none" stroke="#9a32cd" stroke-dasharray="5,2" d="M209.71,-77.32C223.47,-65.57 243.53,-49.29 262.5,-37 272.88,-30.27 285.17,-23.85 295.09,-19.01"/>
<polygon fill="#9a32cd" stroke="#9a32cd" points="207.29,-74.78 202.02,-83.98 211.88,-80.08 207.29,-74.78"/>
</a>
</g>
<text text-anchor="middle" x="275" y="-40" font-family="Helvetica,sans-Serif" font-size="10.00" fill="grey"> type</text>
</g>
<!-- Node3 -->
<g id="Node000003" class="node">
<title>Node3</title>
<g id="a_Node000003"><a xlink:href="structinfix__arena__t.html" target="_top" xlink:title="Internal definition of a memory arena.">
<polygon fill="white" stroke="#666666" points="232.5,-187 152.5,-187 152.5,-168 232.5,-168 232.5,-187"/>
<text text-anchor="middle" x="192.5" y="-175" font-family="Helvetica,sans-Serif" font-size="10.00">infix_arena_t</text>
</a>
</g>
</g>
<!-- Node3&#45;&gt;Node2 -->
<g id="edge2_Node000002_Node000003" class="edge">
<title>Node3&#45;&gt;Node2</title>
<g id="a_edge2_Node000002_Node000003"><a xlink:title=" ">
<path fill="none" stroke="#9a32cd" stroke-dasharray="5,2" d="M192.5,-157.26C192.5,-140.18 192.5,-116 192.5,-103.21"/>
<polygon fill="#9a32cd" stroke="#9a32cd" points="189,-157.72 192.5,-167.72 196,-157.72 189,-157.72"/>
</a>
</g>
<text text-anchor="middle" x="208" y="-142" font-family="Helvetica,sans-Serif" font-size="10.00" fill="grey"> arena</text>
</g>
<!-- Node3&#45;&gt;Node3 -->
<g id="edge3_Node000003_Node000003" class="edge">
<title>Node3&#45;&gt;Node3</title>
<g id="a_edge3_Node000003_Node000003"><a xlink:title=" ">
<path fill="none" stroke="#9a32cd" stroke-dasharray="5,2" d="M242.76,-182.32C247.5,-181.33 250.5,-179.73 250.5,-177.5 250.5,-173.94 242.83,-171.96 232.62,-171.57"/>
<polygon fill="#9a32cd" stroke="#9a32cd" points="242.18,-178.86 232.62,-183.43 242.94,-185.82 242.18,-178.86"/>
</a>
</g>
<text text-anchor="middle" x="279" y="-175" font-family="Helvetica,sans-Serif" font-size="10.00" fill="grey"> next_block</text>
</g>
<!-- Node4&#45;&gt;Node2 -->
<g id="edge5_Node000002_Node000004" class="edge">
<title>Node4&#45;&gt;Node2</title>
<g id="a_edge5_Node000002_Node000004"><a xlink:title=" ">
<path fill="none" stroke="#9a32cd" stroke-dasharray="5,2" d="M167.59,-28.68C174.27,-45.78 183.97,-70.65 189.08,-83.72"/>
<polygon fill="#9a32cd" stroke="#9a32cd" points="170.8,-27.26 163.9,-19.21 164.27,-29.8 170.8,-27.26"/>
</a>
</g>
<text text-anchor="middle" x="200.5" y="-40" font-family="Helvetica,sans-Serif" font-size="10.00" fill="grey"> members</text>
</g>
<!-- Node5&#45;&gt;Node2 -->
<g id="edge7_Node000002_Node000005" class="edge">
<title>Node5&#45;&gt;Node2</title>
<g id="a_edge7_Node000002_Node000005"><a xlink:title=" ">
<path fill="none" stroke="#9a32cd" stroke-dasharray="5,2" d="M305.84,-28.5C302.26,-35.29 297.46,-42.65 291.5,-48 272.15,-65.37 244.89,-76.94 223.87,-83.92"/>
<polygon fill="#9a32cd" stroke="#9a32cd" points="309.09,-29.81 310.2,-19.28 302.76,-26.82 309.09,-29.81"/>
</a>
</g>
<text text-anchor="middle" x="314" y="-40" font-family="Helvetica,sans-Serif" font-size="10.00" fill="grey"> args</text>
</g>
</g>
</svg>
