<?xml version="1.0" encoding="UTF-8" standalone="no"?>
<!DOCTYPE svg PUBLIC "-//W3C//DTD SVG 1.1//EN"
 "http://www.w3.org/Graphics/SVG/1.1/DTD/svg11.dtd">
<!-- Generated by graphviz version 2.43.0 (0)
 -->
<!-- Title: infix_reverse_t Pages: 1 -->
<svg width="782pt" height="209pt"
 viewBox="0.00 0.00 782.00 209.00" xmlns="http://www.w3.org/2000/svg" xmlns:xlink="http://www.w3.org/1999/xlink">
<g id="graph0" class="graph" transform="scale(1 1) rotate(0) translate(4 205)">
<title>infix_reverse_t</title>
<!-- Node1 -->
<g id="Node000001" class="node">
<title>Node1</title>
<g id="a_Node000001"><a xlink:title=" ">
<polygon fill="#999999" stroke="#666666" points="265.5,-19 176.5,-19 176.5,0 265.5,0 265.5,-19"/>
<text text-anchor="middle" x="221" y="-7" font-family="Helvetica,sans-Serif" font-size="10.00">infix_reverse_t</text>
</a>
</g>
</g>
<!-- Node1&#45;&gt;Node1 -->
<g id="edge10_Node000001_Node000001" class="edge">
<title>Node1&#45;&gt;Node1</title>
<g id="a_edge10_Node000001_Node000001"><a xlink:title=" ">
<path fill="none" stroke="#9a32cd" stroke-dasharray="5,2" d="M275.83,-14.19C280.55,-13.19 283.5,-11.63 283.5,-9.5 283.5,-6.09 275.95,-4.14 265.66,-3.63"/>
<polygon fill="#9a32cd" stroke="#9a32cd" points="275.19,-10.74 265.66,-15.37 276,-17.69 275.19,-10.74"/>
</a>
</g>
<text text-anchor="middle" x="332" y="-7" font-family="Helvetica,sans-Serif" font-size="10.00" fill="grey"> internal_dispatcher</text>
</g>
<!-- Node2 -->
<g id="Node000002" class="node">
<title>Node2</title>
<g id="a_Node000002"><a xlink:href="structinfix__arena__t.html" target="_top" xlink:title=" ">
<polygon fill="white" stroke="#666666" points="80,-183 0,-183 0,-164 80,-164 80,-183"/>
<text text-anchor="middle" x="40" y="-171" font-family="Helvetica,sans-Serif" font-size="10.00">infix_arena_t</text>
</a>
</g>
</g>
<!-- Node2&#45;&gt;Node1 -->
<g id="edge1_Node000001_Node000002" class="edge">
<title>Node2&#45;&gt;Node1</title>
<g id="a_edge1_Node000001_Node000002"><a xlink:title=" ">
<path fill="none" stroke="#9a32cd" stroke-dasharray="5,2" d="M31.47,-154.64C22.22,-132.46 10.66,-94.13 26,-66 37.39,-45.11 48.85,-45.69 71,-37 104.98,-23.68 145.91,-17.02 176.43,-13.71"/>
<polygon fill="#9a32cd" stroke="#9a32cd" points="28.31,-156.15 35.58,-163.86 34.71,-153.3 28.31,-156.15"/>
</a>
</g>
<text text-anchor="middle" x="41.5" y="-74.5" font-family="Helvetica,sans-Serif" font-size="10.00" fill="grey"> arena</text>
</g>
<!-- Node8 -->
<g id="Node000008" class="node">
<title>Node8</title>
<g id="a_Node000008"><a xlink:href="structinfix__forward__t.html" target="_top" xlink:title=" ">
<polygon fill="white" stroke="#666666" points="154.5,-86.5 65.5,-86.5 65.5,-67.5 154.5,-67.5 154.5,-86.5"/>
<text text-anchor="middle" x="110" y="-74.5" font-family="Helvetica,sans-Serif" font-size="10.00">infix_forward_t</text>
</a>
</g>
</g>
<!-- Node2&#45;&gt;Node8 -->
<g id="edge12_Node000008_Node000002" class="edge">
<title>Node2&#45;&gt;Node8</title>
<g id="a_edge12_Node000008_Node000002"><a xlink:title=" ">
<path fill="none" stroke="#9a32cd" stroke-dasharray="5,2" d="M52.6,-155.49C67.58,-135.27 92,-102.3 103.56,-86.7"/>
<polygon fill="#9a32cd" stroke="#9a32cd" points="49.6,-153.66 46.46,-163.78 55.22,-157.83 49.6,-153.66"/>
</a>
</g>
<text text-anchor="middle" x="102.5" y="-114.5" font-family="Helvetica,sans-Serif" font-size="10.00" fill="grey"> arena</text>
</g>
<!-- Node3 -->
<g id="Node000003" class="node">
<title>Node3</title>
<g id="a_Node000003"><a xlink:href="structinfix__executable__t.html" target="_top" xlink:title=" ">
<polygon fill="white" stroke="#666666" points="287.5,-183 182.5,-183 182.5,-164 287.5,-164 287.5,-183"/>
<text text-anchor="middle" x="235" y="-171" font-family="Helvetica,sans-Serif" font-size="10.00">infix_executable_t</text>
</a>
</g>
</g>
<!-- Node3&#45;&gt;Node1 -->
<g id="edge2_Node000001_Node000003" class="edge">
<title>Node3&#45;&gt;Node1</title>
<g id="a_edge2_Node000001_Node000003"><a xlink:title=" ">
<path fill="none" stroke="#9a32cd" stroke-dasharray="5,2" d="M251.25,-156.69C276.4,-130.25 319.17,-76.14 292,-37 285.7,-27.92 275.89,-21.95 265.55,-18.02"/>
<polygon fill="#9a32cd" stroke="#9a32cd" points="248.62,-154.37 244.1,-163.95 253.61,-159.28 248.62,-154.37"/>
</a>
</g>
<text text-anchor="middle" x="313" y="-74.5" font-family="Helvetica,sans-Serif" font-size="10.00" fill="grey"> exec</text>
</g>
<!-- Node3&#45;&gt;Node8 -->
<g id="edge13_Node000008_Node000003" class="edge">
<title>Node3&#45;&gt;Node8</title>
<g id="a_edge13_Node000008_Node000003"><a xlink:title=" ">
<path fill="none" stroke="#9a32cd" stroke-dasharray="5,2" d="M215.33,-157.63C188.93,-137.67 142.88,-102.86 121.51,-86.7"/>
<polygon fill="#9a32cd" stroke="#9a32cd" points="213.38,-160.54 223.46,-163.78 217.6,-154.96 213.38,-160.54"/>
</a>
</g>
<text text-anchor="middle" x="185" y="-114.5" font-family="Helvetica,sans-Serif" font-size="10.00" fill="grey"> exec</text>
</g>
<!-- Node4 -->
<g id="Node000004" class="node">
<title>Node4</title>
<g id="a_Node000004"><a xlink:href="structinfix__protected__t.html" target="_top" xlink:title=" ">
<polygon fill="white" stroke="#666666" points="270,-86.5 172,-86.5 172,-67.5 270,-67.5 270,-86.5"/>
<text text-anchor="middle" x="221" y="-74.5" font-family="Helvetica,sans-Serif" font-size="10.00">infix_protected_t</text>
</a>
</g>
</g>
<!-- Node4&#45;&gt;Node1 -->
<g id="edge3_Node000001_Node000004" class="edge">
<title>Node4&#45;&gt;Node1</title>
<g id="a_edge3_Node000001_Node000004"><a xlink:title=" ">
<path fill="none" stroke="#9a32cd" stroke-dasharray="5,2" d="M221,-57.18C221,-44.71 221,-28.92 221,-19.27"/>
<polygon fill="#9a32cd" stroke="#9a32cd" points="217.5,-57.44 221,-67.44 224.5,-57.44 217.5,-57.44"/>
</a>
</g>
<text text-anchor="middle" x="256" y="-40" font-family="Helvetica,sans-Serif" font-size="10.00" fill="grey"> protected_ctx</text>
</g>
<!-- Node5 -->
<g id="Node000005" class="node">
<title>Node5</title>
<g id="a_Node000005"><a xlink:href="structinfix__type__t.html" target="_top" xlink:title="The central structure for describing any data type in the FFI system.">
<polygon fill="white" stroke="#666666" points="578,-183 504,-183 504,-164 578,-164 578,-183"/>
<text text-anchor="middle" x="541" y="-171" font-family="Helvetica,sans-Serif" font-size="10.00">infix_type_t</text>
</a>
</g>
</g>
<!-- Node5&#45;&gt;Node1 -->
<g id="edge4_Node000001_Node000005" class="edge">
<title>Node5&#45;&gt;Node1</title>
<g id="a_edge4_Node000001_Node000005"><a xlink:title=" ">
<path fill="none" stroke="#9a32cd" stroke-dasharray="5,2" d="M520.06,-158.08C480.28,-131.2 390.37,-72.92 308,-37 291.21,-29.68 271.77,-23.55 255.54,-19.04"/>
<polygon fill="#9a32cd" stroke="#9a32cd" points="518.18,-161.03 528.42,-163.76 522.12,-155.24 518.18,-161.03"/>
</a>
</g>
<text text-anchor="middle" x="434.5" y="-80" font-family="Helvetica,sans-Serif" font-size="10.00" fill="grey"> arg_types</text>
<text text-anchor="middle" x="434.5" y="-69" font-family="Helvetica,sans-Serif" font-size="10.00" fill="grey">return_type</text>
</g>
<!-- Node5&#45;&gt;Node5 -->
<g id="edge5_Node000005_Node000005" class="edge">
<title>Node5&#45;&gt;Node5</title>
<g id="a_edge5_Node000005_Node000005"><a xlink:title=" ">
<path fill="none" stroke="#9a32cd" stroke-dasharray="5,2" d="M574.71,-184C586.48,-184.13 596,-180.64 596,-173.5 596,-164.37 580.4,-161.19 564.46,-163.97"/>
<polygon fill="#9a32cd" stroke="#9a32cd" points="574.74,-180.48 564.46,-183.03 574.08,-187.45 574.74,-180.48"/>
</a>
</g>
<text text-anchor="middle" x="635.5" y="-193" font-family="Helvetica,sans-Serif" font-size="10.00" fill="grey"> base_type</text>
<text text-anchor="middle" x="635.5" y="-182" font-family="Helvetica,sans-Serif" font-size="10.00" fill="grey">element_type</text>
<text text-anchor="middle" x="635.5" y="-171" font-family="Helvetica,sans-Serif" font-size="10.00" fill="grey">pointee_type</text>
<text text-anchor="middle" x="635.5" y="-160" font-family="Helvetica,sans-Serif" font-size="10.00" fill="grey">return_type</text>
<text text-anchor="middle" x="635.5" y="-149" font-family="Helvetica,sans-Serif" font-size="10.00" fill="grey">underlying_type</text>
</g>
<!-- Node6 -->
<g id="Node000006" class="node">
<title>Node6</title>
<g id="a_Node000006"><a xlink:href="structinfix__struct__member__t.html" target="_top" xlink:title="Describes a single member of an aggregate type (struct or union).">
<polygon fill="white" stroke="#666666" points="774,-86.5 648,-86.5 648,-67.5 774,-67.5 774,-86.5"/>
<text text-anchor="middle" x="711" y="-74.5" font-family="Helvetica,sans-Serif" font-size="10.00">infix_struct_member_t</text>
</a>
</g>
</g>
<!-- Node5&#45;&gt;Node6 -->
<g id="edge7_Node000006_Node000005" class="edge">
<title>Node5&#45;&gt;Node6</title>
<g id="a_edge7_Node000006_Node000005"><a xlink:title=" ">
<path fill="none" stroke="#9a32cd" stroke-dasharray="5,2" d="M560.34,-157.89C579.96,-143.49 611.55,-121.47 641,-106 655.48,-98.39 672.51,-91.54 686.15,-86.52"/>
<polygon fill="#9a32cd" stroke="#9a32cd" points="558.17,-155.14 552.22,-163.91 562.34,-160.76 558.17,-155.14"/>
</a>
</g>
<text text-anchor="middle" x="653.5" y="-114.5" font-family="Helvetica,sans-Serif" font-size="10.00" fill="grey"> type</text>
</g>
<!-- Node7 -->
<g id="Node000007" class="node">
<title>Node7</title>
<g id="a_Node000007"><a xlink:href="structinfix__function__argument__t.html" target="_top" xlink:title="Describes a single argument to a function, pairing an optional name with its type.">
<polygon fill="white" stroke="#666666" points="630,-86.5 486,-86.5 486,-67.5 630,-67.5 630,-86.5"/>
<text text-anchor="middle" x="558" y="-74.5" font-family="Helvetica,sans-Serif" font-size="10.00">infix_function_argument_t</text>
</a>
</g>
</g>
<!-- Node5&#45;&gt;Node7 -->
<g id="edge9_Node000007_Node000005" class="edge">
<title>Node5&#45;&gt;Node7</title>
<g id="a_edge9_Node000007_Node000005"><a xlink:title=" ">
<path fill="none" stroke="#9a32cd" stroke-dasharray="5,2" d="M544.36,-153.83C548.02,-133.5 553.71,-101.87 556.43,-86.7"/>
<polygon fill="#9a32cd" stroke="#9a32cd" points="540.89,-153.32 542.57,-163.78 547.78,-154.56 540.89,-153.32"/>
</a>
</g>
<text text-anchor="middle" x="564.5" y="-114.5" font-family="Helvetica,sans-Serif" font-size="10.00" fill="grey"> type</text>
</g>
<!-- Node5&#45;&gt;Node8 -->
<g id="edge14_Node000008_Node000005" class="edge">
<title>Node5&#45;&gt;Node8</title>
<g id="a_edge14_Node000008_Node000005"><a xlink:title=" ">
<path fill="none" stroke="#9a32cd" stroke-dasharray="5,2" d="M493.91,-162.18C408.23,-143.39 228.39,-103.96 149.04,-86.56"/>
<polygon fill="#9a32cd" stroke="#9a32cd" points="493.36,-165.64 503.88,-164.36 494.86,-158.8 493.36,-165.64"/>
</a>
</g>
<text text-anchor="middle" x="353.5" y="-120" font-family="Helvetica,sans-Serif" font-size="10.00" fill="grey"> arg_types</text>
<text text-anchor="middle" x="353.5" y="-109" font-family="Helvetica,sans-Serif" font-size="10.00" fill="grey">return_type</text>
</g>
<!-- Node6&#45;&gt;Node5 -->
<g id="edge6_Node000005_Node000006" class="edge">
<title>Node6&#45;&gt;Node5</title>
<g id="a_edge6_Node000005_Node000006"><a xlink:title=" ">
<path fill="none" stroke="#9a32cd" stroke-dasharray="5,2" d="M700.45,-95.25C693.09,-105.99 682.4,-119.37 670,-128 642.29,-147.29 605.46,-158.89 578.25,-165.39"/>
<polygon fill="#9a32cd" stroke="#9a32cd" points="703.51,-96.96 706.01,-86.67 697.63,-93.16 703.51,-96.96"/>
</a>
</g>
<text text-anchor="middle" x="716" y="-114.5" font-family="Helvetica,sans-Serif" font-size="10.00" fill="grey"> members</text>
</g>
<!-- Node7&#45;&gt;Node5 -->
<g id="edge8_Node000005_Node000007" class="edge">
<title>Node7&#45;&gt;Node5</title>
<g id="a_edge8_Node000005_Node000007"><a xlink:title=" ">
<path fill="none" stroke="#9a32cd" stroke-dasharray="5,2" d="M530.03,-92.25C525.19,-96.04 520.81,-100.61 518,-106 507.73,-125.72 523.69,-151.01 533.77,-163.99"/>
<polygon fill="#9a32cd" stroke="#9a32cd" points="532.07,-95.09 538.43,-86.62 528.18,-89.28 532.07,-95.09"/>
</a>
</g>
<text text-anchor="middle" x="530.5" y="-114.5" font-family="Helvetica,sans-Serif" font-size="10.00" fill="grey"> args</text>
</g>
<!-- Node8&#45;&gt;Node1 -->
<g id="edge11_Node000001_Node000008" class="edge">
<title>Node8&#45;&gt;Node1</title>
<g id="a_edge11_Node000001_Node000008"><a xlink:title=" ">
<path fill="none" stroke="#9a32cd" stroke-dasharray="5,2" d="M86.61,-61.35C77.79,-54.02 71.33,-45.02 78,-37 90.35,-22.15 139.02,-15.58 176.18,-12.71"/>
<polygon fill="#9a32cd" stroke="#9a32cd" points="84.57,-64.19 94.7,-67.3 88.72,-58.55 84.57,-64.19"/>
</a>
</g>
<text text-anchor="middle" x="147.5" y="-40" font-family="Helvetica,sans-Serif" font-size="10.00" fill="grey"> cached_forward_trampoline</text>
</g>
</g>
</svg>
