<?xml version="1.0" encoding="UTF-8" standalone="no"?>
<!DOCTYPE svg PUBLIC "-//W3C//DTD SVG 1.1//EN"
 "http://www.w3.org/Graphics/SVG/1.1/DTD/svg11.dtd">
<!-- Generated by graphviz version 2.43.0 (0)
 -->
<!-- Title: infix_direct_arg_layout Pages: 1 -->
<svg width="658pt" height="272pt"
 viewBox="0.00 0.00 657.50 272.00" xmlns="http://www.w3.org/2000/svg" xmlns:xlink="http://www.w3.org/1999/xlink">
<g id="graph0" class="graph" transform="scale(1 1) rotate(0) translate(4 268)">
<title>infix_direct_arg_layout</title>
<!-- Node1 -->
<g id="Node000001" class="node">
<title>Node1</title>
<g id="a_Node000001"><a xlink:title="Internal layout information for a single argument in a direct marshalling trampoline.">
<polygon fill="#999999" stroke="#666666" points="256.5,-19 128.5,-19 128.5,0 256.5,0 256.5,-19"/>
<text text-anchor="middle" x="192.5" y="-7" font-family="Helvetica,sans-Serif" font-size="10.00">infix_direct_arg_layout</text>
</a>
</g>
</g>
<!-- Node2 -->
<g id="Node000002" class="node">
<title>Node2</title>
<g id="a_Node000002"><a xlink:href="structinfix__arg__location.html" target="_top" xlink:title="Detailed location information for a single function argument.">
<polygon fill="white" stroke="#666666" points="103,-85 0,-85 0,-66 103,-66 103,-85"/>
<text text-anchor="middle" x="51.5" y="-73" font-family="Helvetica,sans-Serif" font-size="10.00">infix_arg_location</text>
</a>
</g>
</g>
<!-- Node2&#45;&gt;Node1 -->
<g id="edge1_Node000001_Node000002" class="edge">
<title>Node2&#45;&gt;Node1</title>
<g id="a_edge1_Node000001_Node000002"><a xlink:title=" ">
<path fill="none" stroke="#9a32cd" stroke-dasharray="5,2" d="M79.71,-61.69C107.5,-49.08 149.19,-30.16 173.34,-19.2"/>
<polygon fill="#9a32cd" stroke="#9a32cd" points="78.18,-58.55 70.52,-65.87 81.07,-64.92 78.18,-58.55"/>
</a>
</g>
<text text-anchor="middle" x="152" y="-40" font-family="Helvetica,sans-Serif" font-size="10.00" fill="grey"> location</text>
</g>
<!-- Node3 -->
<g id="Node000003" class="node">
<title>Node3</title>
<g id="a_Node000003"><a xlink:href="structinfix__type__t.html" target="_top" xlink:title="A semi&#45;opaque structure that describes a C type.">
<polygon fill="white" stroke="#666666" points="441.5,-180 367.5,-180 367.5,-161 441.5,-161 441.5,-180"/>
<text text-anchor="middle" x="404.5" y="-168" font-family="Helvetica,sans-Serif" font-size="10.00">infix_type_t</text>
</a>
</g>
</g>
<!-- Node3&#45;&gt;Node1 -->
<g id="edge2_Node000001_Node000003" class="edge">
<title>Node3&#45;&gt;Node1</title>
<g id="a_edge2_Node000001_Node000003"><a xlink:title=" ">
<path fill="none" stroke="#9a32cd" stroke-dasharray="5,2" d="M386.72,-154.25C356.66,-128.76 293.51,-76.42 236.5,-37 227.26,-30.61 216.45,-24.09 207.87,-19.12"/>
<polygon fill="#9a32cd" stroke="#9a32cd" points="384.73,-157.16 394.61,-160.98 389.27,-151.83 384.73,-157.16"/>
</a>
</g>
<text text-anchor="middle" x="312" y="-73" font-family="Helvetica,sans-Serif" font-size="10.00" fill="grey"> type</text>
</g>
<!-- Node3&#45;&gt;Node3 -->
<g id="edge5_Node000003_Node000003" class="edge">
<title>Node3&#45;&gt;Node3</title>
<g id="a_edge5_Node000003_Node000003"><a xlink:title=" ">
<path fill="none" stroke="#9a32cd" stroke-dasharray="5,2" d="M451.69,-178.19C456.46,-176.66 459.5,-174.1 459.5,-170.5 459.5,-164.74 451.71,-161.63 441.52,-161.18"/>
<polygon fill="#9a32cd" stroke="#9a32cd" points="450.84,-174.78 441.52,-179.82 451.94,-181.69 450.84,-174.78"/>
</a>
</g>
<text text-anchor="middle" x="499" y="-190" font-family="Helvetica,sans-Serif" font-size="10.00" fill="grey"> base_type</text>
<text text-anchor="middle" x="499" y="-179" font-family="Helvetica,sans-Serif" font-size="10.00" fill="grey">element_type</text>
<text text-anchor="middle" x="499" y="-168" font-family="Helvetica,sans-Serif" font-size="10.00" fill="grey">pointee_type</text>
<text text-anchor="middle" x="499" y="-157" font-family="Helvetica,sans-Serif" font-size="10.00" fill="grey">return_type</text>
<text text-anchor="middle" x="499" y="-146" font-family="Helvetica,sans-Serif" font-size="10.00" fill="grey">underlying_type</text>
</g>
<!-- Node5 -->
<g id="Node000005" class="node">
<title>Node5</title>
<g id="a_Node000005"><a xlink:href="structinfix__struct__member__t.html" target="_top" xlink:title="Describes a single member of a C struct or union.">
<polygon fill="white" stroke="#666666" points="487.5,-85 361.5,-85 361.5,-66 487.5,-66 487.5,-85"/>
<text text-anchor="middle" x="424.5" y="-73" font-family="Helvetica,sans-Serif" font-size="10.00">infix_struct_member_t</text>
</a>
</g>
</g>
<!-- Node3&#45;&gt;Node5 -->
<g id="edge7_Node000005_Node000003" class="edge">
<title>Node3&#45;&gt;Node5</title>
<g id="a_edge7_Node000005_Node000003"><a xlink:title=" ">
<path fill="none" stroke="#9a32cd" stroke-dasharray="5,2" d="M392.75,-152.33C384.82,-138.44 377.19,-118.69 385.5,-103 389.56,-95.33 396.94,-89.47 404.2,-85.23"/>
<polygon fill="#9a32cd" stroke="#9a32cd" points="389.83,-154.26 398.09,-160.88 395.76,-150.55 389.83,-154.26"/>
</a>
</g>
<text text-anchor="middle" x="398" y="-111.5" font-family="Helvetica,sans-Serif" font-size="10.00" fill="grey"> type</text>
</g>
<!-- Node6 -->
<g id="Node000006" class="node">
<title>Node6</title>
<g id="a_Node000006"><a xlink:href="structinfix__function__argument__t.html" target="_top" xlink:title="Describes a single argument to a C function.">
<polygon fill="white" stroke="#666666" points="649.5,-85 505.5,-85 505.5,-66 649.5,-66 649.5,-85"/>
<text text-anchor="middle" x="577.5" y="-73" font-family="Helvetica,sans-Serif" font-size="10.00">infix_function_argument_t</text>
</a>
</g>
</g>
<!-- Node3&#45;&gt;Node6 -->
<g id="edge9_Node000006_Node000003" class="edge">
<title>Node3&#45;&gt;Node6</title>
<g id="a_edge9_Node000006_Node000003"><a xlink:title=" ">
<path fill="none" stroke="#9a32cd" stroke-dasharray="5,2" d="M426.53,-155.5C449,-141.48 485.07,-119.63 517.5,-103 530.17,-96.5 544.77,-90.03 556.4,-85.11"/>
<polygon fill="#9a32cd" stroke="#9a32cd" points="424.39,-152.72 417.78,-161 428.11,-158.64 424.39,-152.72"/>
</a>
</g>
<text text-anchor="middle" x="530" y="-111.5" font-family="Helvetica,sans-Serif" font-size="10.00" fill="grey"> type</text>
</g>
<!-- Node7 -->
<g id="Node000007" class="node">
<title>Node7</title>
<g id="a_Node000007"><a xlink:href="structinfix__direct__arg__handler__t.html" target="_top" xlink:title="A struct containing all the necessary handlers for a single function argument.">
<polygon fill="white" stroke="#666666" points="264,-85 121,-85 121,-66 264,-66 264,-85"/>
<text text-anchor="middle" x="192.5" y="-73" font-family="Helvetica,sans-Serif" font-size="10.00">infix_direct_arg_handler_t</text>
</a>
</g>
</g>
<!-- Node3&#45;&gt;Node7 -->
<g id="edge12_Node000007_Node000003" class="edge">
<title>Node3&#45;&gt;Node7</title>
<g id="a_edge12_Node000007_Node000003"><a xlink:title=" ">
<path fill="none" stroke="#9a32cd" stroke-dasharray="5,2" d="M357.24,-166.22C301.55,-161.27 213.96,-149.7 193.5,-125 184.26,-113.84 186.98,-95.79 189.77,-85.14"/>
<polygon fill="#9a32cd" stroke="#9a32cd" points="356.99,-169.71 367.25,-167.07 357.58,-162.74 356.99,-169.71"/>
</a>
</g>
<text text-anchor="middle" x="249" y="-117" font-family="Helvetica,sans-Serif" font-size="10.00" fill="grey"> aggregate_marshaller</text>
<text text-anchor="middle" x="249" y="-106" font-family="Helvetica,sans-Serif" font-size="10.00" fill="grey">writeback_handler</text>
</g>
<!-- Node4 -->
<g id="Node000004" class="node">
<title>Node4</title>
<g id="a_Node000004"><a xlink:href="structinfix__arena__t.html" target="_top" xlink:title="Internal definition of a memory arena.">
<polygon fill="white" stroke="#666666" points="444.5,-264 364.5,-264 364.5,-245 444.5,-245 444.5,-264"/>
<text text-anchor="middle" x="404.5" y="-252" font-family="Helvetica,sans-Serif" font-size="10.00">infix_arena_t</text>
</a>
</g>
</g>
<!-- Node4&#45;&gt;Node3 -->
<g id="edge3_Node000003_Node000004" class="edge">
<title>Node4&#45;&gt;Node3</title>
<g id="a_edge3_Node000003_Node000004"><a xlink:title=" ">
<path fill="none" stroke="#9a32cd" stroke-dasharray="5,2" d="M404.5,-234.26C404.5,-217.18 404.5,-193 404.5,-180.21"/>
<polygon fill="#9a32cd" stroke="#9a32cd" points="401,-234.72 404.5,-244.72 408,-234.72 401,-234.72"/>
</a>
</g>
<text text-anchor="middle" x="420" y="-219" font-family="Helvetica,sans-Serif" font-size="10.00" fill="grey"> arena</text>
</g>
<!-- Node4&#45;&gt;Node4 -->
<g id="edge4_Node000004_Node000004" class="edge">
<title>Node4&#45;&gt;Node4</title>
<g id="a_edge4_Node000004_Node000004"><a xlink:title=" ">
<path fill="none" stroke="#9a32cd" stroke-dasharray="5,2" d="M454.76,-259.32C459.5,-258.33 462.5,-256.73 462.5,-254.5 462.5,-250.94 454.83,-248.96 444.62,-248.57"/>
<polygon fill="#9a32cd" stroke="#9a32cd" points="454.18,-255.86 444.62,-260.43 454.94,-262.82 454.18,-255.86"/>
</a>
</g>
<text text-anchor="middle" x="491" y="-252" font-family="Helvetica,sans-Serif" font-size="10.00" fill="grey"> next_block</text>
</g>
<!-- Node5&#45;&gt;Node3 -->
<g id="edge6_Node000003_Node000005" class="edge">
<title>Node5&#45;&gt;Node3</title>
<g id="a_edge6_Node000003_Node000005"><a xlink:title=" ">
<path fill="none" stroke="#9a32cd" stroke-dasharray="5,2" d="M420.55,-94.85C416.25,-114.84 409.56,-145.97 406.35,-160.92"/>
<polygon fill="#9a32cd" stroke="#9a32cd" points="423.98,-95.57 422.66,-85.06 417.13,-94.1 423.98,-95.57"/>
</a>
</g>
<text text-anchor="middle" x="443.5" y="-111.5" font-family="Helvetica,sans-Serif" font-size="10.00" fill="grey"> members</text>
</g>
<!-- Node6&#45;&gt;Node3 -->
<g id="edge8_Node000003_Node000006" class="edge">
<title>Node6&#45;&gt;Node3</title>
<g id="a_edge8_Node000003_Node000006"><a xlink:title=" ">
<path fill="none" stroke="#9a32cd" stroke-dasharray="5,2" d="M569.74,-94.68C564.53,-104.91 556.74,-117.17 546.5,-125 515.72,-148.54 472.26,-159.77 441.54,-165.04"/>
<polygon fill="#9a32cd" stroke="#9a32cd" points="573.03,-95.91 574.09,-85.37 566.69,-92.95 573.03,-95.91"/>
</a>
</g>
<text text-anchor="middle" x="577" y="-111.5" font-family="Helvetica,sans-Serif" font-size="10.00" fill="grey"> args</text>
</g>
<!-- Node7&#45;&gt;Node1 -->
<g id="edge10_Node000001_Node000007" class="edge">
<title>Node7&#45;&gt;Node1</title>
<g id="a_edge10_Node000001_Node000007"><a xlink:title=" ">
<path fill="none" stroke="#9a32cd" stroke-dasharray="5,2" d="M192.5,-55.58C192.5,-43.63 192.5,-28.72 192.5,-19.41"/>
<polygon fill="#9a32cd" stroke="#9a32cd" points="189,-55.87 192.5,-65.87 196,-55.87 189,-55.87"/>
</a>
</g>
<text text-anchor="middle" x="212.5" y="-40" font-family="Helvetica,sans-Serif" font-size="10.00" fill="grey"> handler</text>
</g>
<!-- Node8 -->
<g id="Node000008" class="node">
<title>Node8</title>
<g id="a_Node000008"><a xlink:href="unioninfix__direct__value__t.html" target="_top" xlink:title="A union to hold any primitive value returned by a scalar marshaller.">
<polygon fill="white" stroke="#666666" points="134.5,-180 22.5,-180 22.5,-161 134.5,-161 134.5,-180"/>
<text text-anchor="middle" x="78.5" y="-168" font-family="Helvetica,sans-Serif" font-size="10.00">infix_direct_value_t</text>
</a>
</g>
</g>
<!-- Node8&#45;&gt;Node7 -->
<g id="edge11_Node000007_Node000008" class="edge">
<title>Node8&#45;&gt;Node7</title>
<g id="a_edge11_Node000007_Node000008"><a xlink:title=" ">
<path fill="none" stroke="#9a32cd" stroke-dasharray="5,2" d="M73.08,-150.68C70.1,-136.08 68.88,-116.19 79.5,-103 85.94,-94.99 105.19,-89.16 126.02,-85.04"/>
<polygon fill="#9a32cd" stroke="#9a32cd" points="69.73,-151.74 75.53,-160.61 76.53,-150.06 69.73,-151.74"/>
</a>
</g>
<text text-anchor="middle" x="125" y="-111.5" font-family="Helvetica,sans-Serif" font-size="10.00" fill="grey"> scalar_marshaller</text>
</g>
</g>
</svg>
