<?xml version="1.0" encoding="UTF-8" standalone="no"?>
<!DOCTYPE svg PUBLIC "-//W3C//DTD SVG 1.1//EN"
 "http://www.w3.org/Graphics/SVG/1.1/DTD/svg11.dtd">
<!-- Generated by graphviz version 2.43.0 (0)
 -->
<!-- Title: memo_node_t Pages: 1 -->
<svg width="443pt" height="206pt"
 viewBox="0.00 0.00 443.00 206.00" xmlns="http://www.w3.org/2000/svg" xmlns:xlink="http://www.w3.org/1999/xlink">
<g id="graph0" class="graph" transform="scale(1 1) rotate(0) translate(4 202)">
<title>memo_node_t</title>
<!-- Node1 -->
<g id="Node000001" class="node">
<title>Node1</title>
<g id="a_Node000001"><a xlink:title=" ">
<polygon fill="#999999" stroke="#666666" points="86,-19 0,-19 0,0 86,0 86,-19"/>
<text text-anchor="middle" x="43" y="-7" font-family="Helvetica,sans-Serif" font-size="10.00">memo_node_t</text>
</a>
</g>
</g>
<!-- Node1&#45;&gt;Node1 -->
<g id="edge9_Node000001_Node000001" class="edge">
<title>Node1&#45;&gt;Node1</title>
<g id="a_edge9_Node000001_Node000001"><a xlink:title=" ">
<path fill="none" stroke="#9a32cd" stroke-dasharray="5,2" d="M96.25,-15.13C101.01,-13.95 104,-12.07 104,-9.5 104,-5.38 96.35,-3.05 86.04,-2.5"/>
<polygon fill="#9a32cd" stroke="#9a32cd" points="95.48,-11.7 86.04,-16.5 96.41,-18.64 95.48,-11.7"/>
</a>
</g>
<text text-anchor="middle" x="116.5" y="-7" font-family="Helvetica,sans-Serif" font-size="10.00" fill="grey"> next</text>
</g>
<!-- Node2 -->
<g id="Node000002" class="node">
<title>Node2</title>
<g id="a_Node000002"><a xlink:href="structinfix__type__t.html" target="_top" xlink:title="A semi&#45;opaque structure that describes a C type.">
<polygon fill="white" stroke="#666666" points="279,-114 205,-114 205,-95 279,-95 279,-114"/>
<text text-anchor="middle" x="242" y="-102" font-family="Helvetica,sans-Serif" font-size="10.00">infix_type_t</text>
</a>
</g>
</g>
<!-- Node2&#45;&gt;Node1 -->
<g id="edge1_Node000001_Node000002" class="edge">
<title>Node2&#45;&gt;Node1</title>
<g id="a_edge1_Node000001_Node000002"><a xlink:title=" ">
<path fill="none" stroke="#9a32cd" stroke-dasharray="5,2" d="M214.43,-90.62C173.15,-71.32 96.38,-35.45 61.32,-19.06"/>
<polygon fill="#9a32cd" stroke="#9a32cd" points="213.09,-93.85 223.64,-94.92 216.06,-87.51 213.09,-93.85"/>
</a>
</g>
<text text-anchor="middle" x="155.5" y="-51" font-family="Helvetica,sans-Serif" font-size="10.00" fill="grey"> dest</text>
<text text-anchor="middle" x="155.5" y="-40" font-family="Helvetica,sans-Serif" font-size="10.00" fill="grey">src</text>
</g>
<!-- Node2&#45;&gt;Node2 -->
<g id="edge4_Node000002_Node000002" class="edge">
<title>Node2&#45;&gt;Node2</title>
<g id="a_edge4_Node000002_Node000002"><a xlink:title=" ">
<path fill="none" stroke="#9a32cd" stroke-dasharray="5,2" d="M289.19,-112.19C293.96,-110.66 297,-108.1 297,-104.5 297,-98.74 289.21,-95.63 279.02,-95.18"/>
<polygon fill="#9a32cd" stroke="#9a32cd" points="288.34,-108.78 279.02,-113.82 289.44,-115.69 288.34,-108.78"/>
</a>
</g>
<text text-anchor="middle" x="336.5" y="-124" font-family="Helvetica,sans-Serif" font-size="10.00" fill="grey"> base_type</text>
<text text-anchor="middle" x="336.5" y="-113" font-family="Helvetica,sans-Serif" font-size="10.00" fill="grey">element_type</text>
<text text-anchor="middle" x="336.5" y="-102" font-family="Helvetica,sans-Serif" font-size="10.00" fill="grey">pointee_type</text>
<text text-anchor="middle" x="336.5" y="-91" font-family="Helvetica,sans-Serif" font-size="10.00" fill="grey">return_type</text>
<text text-anchor="middle" x="336.5" y="-80" font-family="Helvetica,sans-Serif" font-size="10.00" fill="grey">underlying_type</text>
</g>
<!-- Node4 -->
<g id="Node000004" class="node">
<title>Node4</title>
<g id="a_Node000004"><a xlink:href="structinfix__struct__member__t.html" target="_top" xlink:title="Describes a single member of a C struct or union.">
<polygon fill="white" stroke="#666666" points="273,-19 147,-19 147,0 273,0 273,-19"/>
<text text-anchor="middle" x="210" y="-7" font-family="Helvetica,sans-Serif" font-size="10.00">infix_struct_member_t</text>
</a>
</g>
</g>
<!-- Node2&#45;&gt;Node4 -->
<g id="edge6_Node000004_Node000002" class="edge">
<title>Node2&#45;&gt;Node4</title>
<g id="a_edge6_Node000004_Node000002"><a xlink:title=" ">
<path fill="none" stroke="#9a32cd" stroke-dasharray="5,2" d="M217.89,-89.19C207.57,-81.64 196.62,-71.37 191,-59 186.95,-50.1 188.01,-46.31 191,-37 193.15,-30.32 197.67,-23.89 201.77,-19.04"/>
<polygon fill="#9a32cd" stroke="#9a32cd" points="216.03,-92.16 226.27,-94.88 219.96,-86.37 216.03,-92.16"/>
</a>
</g>
<text text-anchor="middle" x="203.5" y="-45.5" font-family="Helvetica,sans-Serif" font-size="10.00" fill="grey"> type</text>
</g>
<!-- Node5 -->
<g id="Node000005" class="node">
<title>Node5</title>
<g id="a_Node000005"><a xlink:href="structinfix__function__argument__t.html" target="_top" xlink:title="Describes a single argument to a C function.">
<polygon fill="white" stroke="#666666" points="435,-19 291,-19 291,0 435,0 435,-19"/>
<text text-anchor="middle" x="363" y="-7" font-family="Helvetica,sans-Serif" font-size="10.00">infix_function_argument_t</text>
</a>
</g>
</g>
<!-- Node2&#45;&gt;Node5 -->
<g id="edge8_Node000005_Node000002" class="edge">
<title>Node2&#45;&gt;Node5</title>
<g id="a_edge8_Node000005_Node000002"><a xlink:title=" ">
<path fill="none" stroke="#9a32cd" stroke-dasharray="5,2" d="M256.52,-87.33C269.97,-72.96 291.01,-51.97 312,-37 321.75,-30.05 333.56,-23.79 343.37,-19.1"/>
<polygon fill="#9a32cd" stroke="#9a32cd" points="253.73,-85.2 249.54,-94.93 258.88,-89.93 253.73,-85.2"/>
</a>
</g>
<text text-anchor="middle" x="324.5" y="-45.5" font-family="Helvetica,sans-Serif" font-size="10.00" fill="grey"> type</text>
</g>
<!-- Node3 -->
<g id="Node000003" class="node">
<title>Node3</title>
<g id="a_Node000003"><a xlink:href="structinfix__arena__t.html" target="_top" xlink:title="Internal definition of a memory arena.">
<polygon fill="white" stroke="#666666" points="282,-198 202,-198 202,-179 282,-179 282,-198"/>
<text text-anchor="middle" x="242" y="-186" font-family="Helvetica,sans-Serif" font-size="10.00">infix_arena_t</text>
</a>
</g>
</g>
<!-- Node3&#45;&gt;Node2 -->
<g id="edge2_Node000002_Node000003" class="edge">
<title>Node3&#45;&gt;Node2</title>
<g id="a_edge2_Node000002_Node000003"><a xlink:title=" ">
<path fill="none" stroke="#9a32cd" stroke-dasharray="5,2" d="M242,-168.26C242,-151.18 242,-127 242,-114.21"/>
<polygon fill="#9a32cd" stroke="#9a32cd" points="238.5,-168.72 242,-178.72 245.5,-168.72 238.5,-168.72"/>
</a>
</g>
<text text-anchor="middle" x="257.5" y="-153" font-family="Helvetica,sans-Serif" font-size="10.00" fill="grey"> arena</text>
</g>
<!-- Node3&#45;&gt;Node3 -->
<g id="edge3_Node000003_Node000003" class="edge">
<title>Node3&#45;&gt;Node3</title>
<g id="a_edge3_Node000003_Node000003"><a xlink:title=" ">
<path fill="none" stroke="#9a32cd" stroke-dasharray="5,2" d="M292.26,-193.32C297,-192.33 300,-190.73 300,-188.5 300,-184.94 292.33,-182.96 282.12,-182.57"/>
<polygon fill="#9a32cd" stroke="#9a32cd" points="291.68,-189.86 282.12,-194.43 292.44,-196.82 291.68,-189.86"/>
</a>
</g>
<text text-anchor="middle" x="328.5" y="-186" font-family="Helvetica,sans-Serif" font-size="10.00" fill="grey"> next_block</text>
</g>
<!-- Node4&#45;&gt;Node2 -->
<g id="edge5_Node000002_Node000004" class="edge">
<title>Node4&#45;&gt;Node2</title>
<g id="a_edge5_Node000002_Node000004"><a xlink:title=" ">
<path fill="none" stroke="#9a32cd" stroke-dasharray="5,2" d="M216.98,-28.71C218.01,-31.48 219.05,-34.31 220,-37 227.3,-57.63 235.21,-82.13 239.27,-94.85"/>
<polygon fill="#9a32cd" stroke="#9a32cd" points="220.24,-27.41 213.42,-19.3 213.69,-29.89 220.24,-27.41"/>
</a>
</g>
<text text-anchor="middle" x="253" y="-45.5" font-family="Helvetica,sans-Serif" font-size="10.00" fill="grey"> members</text>
</g>
<!-- Node5&#45;&gt;Node2 -->
<g id="edge7_Node000002_Node000005" class="edge">
<title>Node5&#45;&gt;Node2</title>
<g id="a_edge7_Node000002_Node000005"><a xlink:title=" ">
<path fill="none" stroke="#9a32cd" stroke-dasharray="5,2" d="M358.15,-28.88C354.74,-38.84 349.27,-50.76 341,-59 323.11,-76.82 296.83,-88.18 275.84,-94.96"/>
<polygon fill="#9a32cd" stroke="#9a32cd" points="361.56,-29.7 361.09,-19.11 354.86,-27.68 361.56,-29.7"/>
</a>
</g>
<text text-anchor="middle" x="366.5" y="-45.5" font-family="Helvetica,sans-Serif" font-size="10.00" fill="grey"> args</text>
</g>
</g>
</svg>
