<?xml version="1.0" encoding="UTF-8" standalone="no"?>
<!DOCTYPE svg PUBLIC "-//W3C//DTD SVG 1.1//EN"
 "http://www.w3.org/Graphics/SVG/1.1/DTD/svg11.dtd">
<!-- Generated by graphviz version 2.43.0 (0)
 -->
<!-- Title: infix_registry_t Pages: 1 -->
<svg width="540pt" height="261pt"
 viewBox="0.00 0.00 539.50 261.00" xmlns="http://www.w3.org/2000/svg" xmlns:xlink="http://www.w3.org/1999/xlink">
<g id="graph0" class="graph" transform="scale(1 1) rotate(0) translate(4 257)">
<title>infix_registry_t</title>
<!-- Node1 -->
<g id="Node000001" class="node">
<title>Node1</title>
<g id="a_Node000001"><a xlink:title="Internal definition of a named type registry.">
<polygon fill="#999999" stroke="#666666" points="89,-19 0,-19 0,0 89,0 89,-19"/>
<text text-anchor="middle" x="44.5" y="-7" font-family="Helvetica,sans-Serif" font-size="10.00">infix_registry_t</text>
</a>
</g>
</g>
<!-- Node2 -->
<g id="Node000002" class="node">
<title>Node2</title>
<g id="a_Node000002"><a xlink:href="structinfix__arena__t.html" target="_top" xlink:title="Internal definition of a memory arena.">
<polygon fill="white" stroke="#666666" points="84.5,-253 4.5,-253 4.5,-234 84.5,-234 84.5,-253"/>
<text text-anchor="middle" x="44.5" y="-241" font-family="Helvetica,sans-Serif" font-size="10.00">infix_arena_t</text>
</a>
</g>
</g>
<!-- Node2&#45;&gt;Node1 -->
<g id="edge1_Node000001_Node000002" class="edge">
<title>Node2&#45;&gt;Node1</title>
<g id="a_edge1_Node000001_Node000002"><a xlink:title=" ">
<path fill="none" stroke="#9a32cd" stroke-dasharray="5,2" d="M44.5,-223.94C44.5,-176.74 44.5,-53.46 44.5,-19.36"/>
<polygon fill="#9a32cd" stroke="#9a32cd" points="41,-223.97 44.5,-233.97 48,-223.97 41,-223.97"/>
</a>
</g>
<text text-anchor="middle" x="60" y="-106" font-family="Helvetica,sans-Serif" font-size="10.00" fill="grey"> arena</text>
</g>
<!-- Node2&#45;&gt;Node2 -->
<g id="edge2_Node000002_Node000002" class="edge">
<title>Node2&#45;&gt;Node2</title>
<g id="a_edge2_Node000002_Node000002"><a xlink:title=" ">
<path fill="none" stroke="#9a32cd" stroke-dasharray="5,2" d="M94.76,-248.32C99.5,-247.33 102.5,-245.73 102.5,-243.5 102.5,-239.94 94.83,-237.96 84.62,-237.57"/>
<polygon fill="#9a32cd" stroke="#9a32cd" points="94.18,-244.86 84.62,-249.43 94.94,-251.82 94.18,-244.86"/>
</a>
</g>
<text text-anchor="middle" x="131" y="-241" font-family="Helvetica,sans-Serif" font-size="10.00" fill="grey"> next_block</text>
</g>
<!-- Node4 -->
<g id="Node000004" class="node">
<title>Node4</title>
<g id="a_Node000004"><a xlink:href="structinfix__type__t.html" target="_top" xlink:title="A semi&#45;opaque structure that describes a C type.">
<polygon fill="white" stroke="#666666" points="323.5,-169 249.5,-169 249.5,-150 323.5,-150 323.5,-169"/>
<text text-anchor="middle" x="286.5" y="-157" font-family="Helvetica,sans-Serif" font-size="10.00">infix_type_t</text>
</a>
</g>
</g>
<!-- Node2&#45;&gt;Node4 -->
<g id="edge5_Node000004_Node000002" class="edge">
<title>Node2&#45;&gt;Node4</title>
<g id="a_edge5_Node000004_Node000002"><a xlink:title=" ">
<path fill="none" stroke="#9a32cd" stroke-dasharray="5,2" d="M79.57,-230.62C129.02,-213.86 218.04,-183.7 261.4,-169"/>
<polygon fill="#9a32cd" stroke="#9a32cd" points="78.29,-227.36 69.94,-233.88 80.54,-233.99 78.29,-227.36"/>
</a>
</g>
<text text-anchor="middle" x="167" y="-208" font-family="Helvetica,sans-Serif" font-size="10.00" fill="grey"> arena</text>
</g>
<!-- Node3 -->
<g id="Node000003" class="node">
<title>Node3</title>
<g id="a_Node000003"><a xlink:href="struct__infix__registry__entry__t.html" target="_top" xlink:title="A single entry in the registry&#39;s hash table.">
<polygon fill="white" stroke="#666666" points="182,-85 57,-85 57,-66 182,-66 182,-85"/>
<text text-anchor="middle" x="119.5" y="-73" font-family="Helvetica,sans-Serif" font-size="10.00">_infix_registry_entry_t</text>
</a>
</g>
</g>
<!-- Node3&#45;&gt;Node1 -->
<g id="edge3_Node000001_Node000003" class="edge">
<title>Node3&#45;&gt;Node1</title>
<g id="a_edge3_Node000001_Node000003"><a xlink:title=" ">
<path fill="none" stroke="#9a32cd" stroke-dasharray="5,2" d="M101.55,-59.18C86.99,-46.76 66.98,-29.68 54.94,-19.41"/>
<polygon fill="#9a32cd" stroke="#9a32cd" points="99.51,-62.04 109.39,-65.87 104.05,-56.72 99.51,-62.04"/>
</a>
</g>
<text text-anchor="middle" x="107" y="-40" font-family="Helvetica,sans-Serif" font-size="10.00" fill="grey"> buckets</text>
</g>
<!-- Node3&#45;&gt;Node3 -->
<g id="edge11_Node000003_Node000003" class="edge">
<title>Node3&#45;&gt;Node3</title>
<g id="a_edge11_Node000003_Node000003"><a xlink:title=" ">
<path fill="none" stroke="#9a32cd" stroke-dasharray="5,2" d="M192.49,-79.74C197.17,-78.75 200,-77.34 200,-75.5 200,-72.56 192.76,-70.7 182.28,-69.92"/>
<polygon fill="#9a32cd" stroke="#9a32cd" points="191.74,-76.31 182.28,-81.08 192.65,-83.25 191.74,-76.31"/>
</a>
</g>
<text text-anchor="middle" x="212.5" y="-73" font-family="Helvetica,sans-Serif" font-size="10.00" fill="grey"> next</text>
</g>
<!-- Node4&#45;&gt;Node3 -->
<g id="edge4_Node000003_Node000004" class="edge">
<title>Node4&#45;&gt;Node3</title>
<g id="a_edge4_Node000003_Node000004"><a xlink:title=" ">
<path fill="none" stroke="#9a32cd" stroke-dasharray="5,2" d="M259.9,-145.44C225.37,-128.48 166.05,-99.36 136.82,-85"/>
<polygon fill="#9a32cd" stroke="#9a32cd" points="258.42,-148.61 268.94,-149.88 261.51,-142.33 258.42,-148.61"/>
</a>
</g>
<text text-anchor="middle" x="206" y="-106" font-family="Helvetica,sans-Serif" font-size="10.00" fill="grey"> type</text>
</g>
<!-- Node4&#45;&gt;Node4 -->
<g id="edge6_Node000004_Node000004" class="edge">
<title>Node4&#45;&gt;Node4</title>
<g id="a_edge6_Node000004_Node000004"><a xlink:title=" ">
<path fill="none" stroke="#9a32cd" stroke-dasharray="5,2" d="M333.69,-167.19C338.46,-165.66 341.5,-163.1 341.5,-159.5 341.5,-153.74 333.71,-150.63 323.52,-150.18"/>
<polygon fill="#9a32cd" stroke="#9a32cd" points="332.84,-163.78 323.52,-168.82 333.94,-170.69 332.84,-163.78"/>
</a>
</g>
<text text-anchor="middle" x="381" y="-179" font-family="Helvetica,sans-Serif" font-size="10.00" fill="grey"> base_type</text>
<text text-anchor="middle" x="381" y="-168" font-family="Helvetica,sans-Serif" font-size="10.00" fill="grey">element_type</text>
<text text-anchor="middle" x="381" y="-157" font-family="Helvetica,sans-Serif" font-size="10.00" fill="grey">pointee_type</text>
<text text-anchor="middle" x="381" y="-146" font-family="Helvetica,sans-Serif" font-size="10.00" fill="grey">return_type</text>
<text text-anchor="middle" x="381" y="-135" font-family="Helvetica,sans-Serif" font-size="10.00" fill="grey">underlying_type</text>
</g>
<!-- Node5 -->
<g id="Node000005" class="node">
<title>Node5</title>
<g id="a_Node000005"><a xlink:href="structinfix__struct__member__t.html" target="_top" xlink:title="Describes a single member of a C struct or union.">
<polygon fill="white" stroke="#666666" points="369.5,-85 243.5,-85 243.5,-66 369.5,-66 369.5,-85"/>
<text text-anchor="middle" x="306.5" y="-73" font-family="Helvetica,sans-Serif" font-size="10.00">infix_struct_member_t</text>
</a>
</g>
</g>
<!-- Node4&#45;&gt;Node5 -->
<g id="edge8_Node000005_Node000004" class="edge">
<title>Node4&#45;&gt;Node5</title>
<g id="a_edge8_Node000005_Node000004"><a xlink:title=" ">
<path fill="none" stroke="#9a32cd" stroke-dasharray="5,2" d="M274.47,-141.03C268.32,-129.78 263.3,-115.06 269.5,-103 273.4,-95.41 280.59,-89.51 287.61,-85.22"/>
<polygon fill="#9a32cd" stroke="#9a32cd" points="271.69,-143.19 279.92,-149.87 277.65,-139.52 271.69,-143.19"/>
</a>
</g>
<text text-anchor="middle" x="282" y="-106" font-family="Helvetica,sans-Serif" font-size="10.00" fill="grey"> type</text>
</g>
<!-- Node6 -->
<g id="Node000006" class="node">
<title>Node6</title>
<g id="a_Node000006"><a xlink:href="structinfix__function__argument__t.html" target="_top" xlink:title="Describes a single argument to a C function.">
<polygon fill="white" stroke="#666666" points="531.5,-85 387.5,-85 387.5,-66 531.5,-66 531.5,-85"/>
<text text-anchor="middle" x="459.5" y="-73" font-family="Helvetica,sans-Serif" font-size="10.00">infix_function_argument_t</text>
</a>
</g>
</g>
<!-- Node4&#45;&gt;Node6 -->
<g id="edge10_Node000006_Node000004" class="edge">
<title>Node4&#45;&gt;Node6</title>
<g id="a_edge10_Node000006_Node000004"><a xlink:title=" ">
<path fill="none" stroke="#9a32cd" stroke-dasharray="5,2" d="M312.67,-145.27C335.48,-133.83 369.51,-116.98 399.5,-103 412.81,-96.79 427.95,-90.11 439.68,-85.01"/>
<polygon fill="#9a32cd" stroke="#9a32cd" points="310.99,-142.2 303.63,-149.82 314.13,-148.45 310.99,-142.2"/>
</a>
</g>
<text text-anchor="middle" x="412" y="-106" font-family="Helvetica,sans-Serif" font-size="10.00" fill="grey"> type</text>
</g>
<!-- Node5&#45;&gt;Node4 -->
<g id="edge7_Node000004_Node000005" class="edge">
<title>Node5&#45;&gt;Node4</title>
<g id="a_edge7_Node000004_Node000005"><a xlink:title=" ">
<path fill="none" stroke="#9a32cd" stroke-dasharray="5,2" d="M301.95,-95.17C297.78,-112.25 291.8,-136.78 288.64,-149.72"/>
<polygon fill="#9a32cd" stroke="#9a32cd" points="305.41,-95.76 304.38,-85.21 298.61,-94.1 305.41,-95.76"/>
</a>
</g>
<text text-anchor="middle" x="325.5" y="-106" font-family="Helvetica,sans-Serif" font-size="10.00" fill="grey"> members</text>
</g>
<!-- Node6&#45;&gt;Node4 -->
<g id="edge9_Node000004_Node000006" class="edge">
<title>Node6&#45;&gt;Node4</title>
<g id="a_edge9_Node000004_Node000006"><a xlink:title=" ">
<path fill="none" stroke="#9a32cd" stroke-dasharray="5,2" d="M448.63,-93.64C443.33,-100.81 436.39,-108.7 428.5,-114 396.66,-135.4 353.98,-146.95 323.75,-152.87"/>
<polygon fill="#9a32cd" stroke="#9a32cd" points="451.66,-95.41 454.42,-85.18 445.89,-91.46 451.66,-95.41"/>
</a>
</g>
<text text-anchor="middle" x="452" y="-106" font-family="Helvetica,sans-Serif" font-size="10.00" fill="grey"> args</text>
</g>
</g>
</svg>
