<?xml version="1.0" encoding="UTF-8" standalone="no"?>
<!DOCTYPE svg PUBLIC "-//W3C//DTD SVG 1.1//EN"
 "http://www.w3.org/Graphics/SVG/1.1/DTD/svg11.dtd">
<!-- Generated by graphviz version 2.43.0 (0)
 -->
<!-- Title: _infix_registry_entry_t Pages: 1 -->
<svg width="483pt" height="195pt"
 viewBox="0.00 0.00 482.50 195.00" xmlns="http://www.w3.org/2000/svg" xmlns:xlink="http://www.w3.org/1999/xlink">

<svg id="main" version="1.1" xmlns="http://www.w3.org/2000/svg" xmlns:xlink="http://www.w3.org/1999/xlink" xml:space="preserve" onload="init(evt)">
<style type="text/css"><![CDATA[
.node, .edge {opacity: 0.7;}
.node.selected, .edge.selected {opacity: 1;}
.edge:hover path { stroke: red; }
.edge:hover polygon { stroke: red; fill: red; }
]]></style>
<script type="application/ecmascript" xlink:href="svg.min.js"/>
<svg id="graph" class="graph">
<g id="graph0" class="graph" transform="scale(1 1) rotate(0) translate(4 191)">
<title>_infix_registry_entry_t</title>
<!-- Node1 -->
<g id="Node000001" class="node">
<title>Node1</title>
<g id="a_Node000001"><a xlink:title="A single entry in the registry&#39;s hash table.">
<polygon fill="#999999" stroke="#666666" points="125,-19 0,-19 0,0 125,0 125,-19"/>
<text text-anchor="middle" x="62.5" y="-7" font-family="Helvetica,sans-Serif" font-size="10.00">_infix_registry_entry_t</text>
</a>
</g>
</g>
<!-- Node1&#45;&gt;Node1 -->
<g id="edge9_Node000001_Node000001" class="edge">
<title>Node1&#45;&gt;Node1</title>
<g id="a_edge9_Node000001_Node000001"><a xlink:title=" ">
<path fill="none" stroke="#9a32cd" stroke-dasharray="5,2" d="M135.49,-13.74C140.17,-12.75 143,-11.34 143,-9.5 143,-6.56 135.76,-4.7 125.28,-3.92"/>
<polygon fill="#9a32cd" stroke="#9a32cd" points="134.74,-10.31 125.28,-15.08 135.65,-17.25 134.74,-10.31"/>
</a>
</g>
<text text-anchor="middle" x="155.5" y="-7" font-family="Helvetica,sans-Serif" font-size="10.00" fill="grey"> next</text>
</g>
<!-- Node2 -->
<g id="Node000002" class="node">
<title>Node2</title>
<g id="a_Node000002"><a xlink:href="structinfix__type__t.html" target="_top" xlink:title="A semi&#45;opaque structure that describes a C type.">
<polygon fill="white" stroke="#666666" points="318.5,-103 244.5,-103 244.5,-84 318.5,-84 318.5,-103"/>
<text text-anchor="middle" x="281.5" y="-91" font-family="Helvetica,sans-Serif" font-size="10.00">infix_type_t</text>
</a>
</g>
</g>
<!-- Node2&#45;&gt;Node1 -->
<g id="edge1_Node000001_Node000002" class="edge">
<title>Node2&#45;&gt;Node1</title>
<g id="a_edge1_Node000001_Node000002"><a xlink:title=" ">
<path fill="none" stroke="#9a32cd" stroke-dasharray="5,2" d="M248.92,-80.3C204,-63.48 124.21,-33.6 85.21,-19"/>
<polygon fill="#9a32cd" stroke="#9a32cd" points="247.88,-83.65 258.48,-83.88 250.34,-77.1 247.88,-83.65"/>
</a>
</g>
<text text-anchor="middle" x="172" y="-40" font-family="Helvetica,sans-Serif" font-size="10.00" fill="grey"> type</text>
</g>
<!-- Node2&#45;&gt;Node2 -->
<g id="edge4_Node000002_Node000002" class="edge">
<title>Node2&#45;&gt;Node2</title>
<g id="a_edge4_Node000002_Node000002"><a xlink:title=" ">
<path fill="none" stroke="#9a32cd" stroke-dasharray="5,2" d="M328.69,-101.19C333.46,-99.66 336.5,-97.1 336.5,-93.5 336.5,-87.74 328.71,-84.63 318.52,-84.18"/>
<polygon fill="#9a32cd" stroke="#9a32cd" points="327.84,-97.78 318.52,-102.82 328.94,-104.69 327.84,-97.78"/>
</a>
</g>
<text text-anchor="middle" x="376" y="-113" font-family="Helvetica,sans-Serif" font-size="10.00" fill="grey"> base_type</text>
<text text-anchor="middle" x="376" y="-102" font-family="Helvetica,sans-Serif" font-size="10.00" fill="grey">element_type</text>
<text text-anchor="middle" x="376" y="-91" font-family="Helvetica,sans-Serif" font-size="10.00" fill="grey">pointee_type</text>
<text text-anchor="middle" x="376" y="-80" font-family="Helvetica,sans-Serif" font-size="10.00" fill="grey">return_type</text>
<text text-anchor="middle" x="376" y="-69" font-family="Helvetica,sans-Serif" font-size="10.00" fill="grey">underlying_type</text>
</g>
<!-- Node4 -->
<g id="Node000004" class="node">
<title>Node4</title>
<g id="a_Node000004"><a xlink:href="structinfix__struct__member__t.html" target="_top" xlink:title="Describes a single member of a C struct or union.">
<polygon fill="white" stroke="#666666" points="312.5,-19 186.5,-19 186.5,0 312.5,0 312.5,-19"/>
<text text-anchor="middle" x="249.5" y="-7" font-family="Helvetica,sans-Serif" font-size="10.00">infix_struct_member_t</text>
</a>
</g>
</g>
<!-- Node2&#45;&gt;Node4 -->
<g id="edge6_Node000004_Node000002" class="edge">
<title>Node2&#45;&gt;Node4</title>
<g id="a_edge6_Node000004_Node000002"><a xlink:title=" ">
<path fill="none" stroke="#9a32cd" stroke-dasharray="5,2" d="M257.85,-78.09C247.73,-70.52 237,-60.26 231.5,-48 227.01,-37.99 234.19,-26.64 240.78,-19.08"/>
<polygon fill="#9a32cd" stroke="#9a32cd" points="255.86,-80.97 266.07,-83.8 259.85,-75.22 255.86,-80.97"/>
</a>
</g>
<text text-anchor="middle" x="244" y="-40" font-family="Helvetica,sans-Serif" font-size="10.00" fill="grey"> type</text>
</g>
<!-- Node5 -->
<g id="Node000005" class="node">
<title>Node5</title>
<g id="a_Node000005"><a xlink:href="structinfix__function__argument__t.html" target="_top" xlink:title="Describes a single argument to a C function.">
<polygon fill="white" stroke="#666666" points="474.5,-19 330.5,-19 330.5,0 474.5,0 474.5,-19"/>
<text text-anchor="middle" x="402.5" y="-7" font-family="Helvetica,sans-Serif" font-size="10.00">infix_function_argument_t</text>
</a>
</g>
</g>
<!-- Node2&#45;&gt;Node5 -->
<g id="edge8_Node000005_Node000002" class="edge">
<title>Node2&#45;&gt;Node5</title>
<g id="a_edge8_Node000005_Node000002"><a xlink:title=" ">
<path fill="none" stroke="#9a32cd" stroke-dasharray="5,2" d="M298.71,-77.32C312.47,-65.57 332.53,-49.29 351.5,-37 361.88,-30.27 374.17,-23.85 384.09,-19.01"/>
<polygon fill="#9a32cd" stroke="#9a32cd" points="296.29,-74.78 291.02,-83.98 300.88,-80.08 296.29,-74.78"/>
</a>
</g>
<text text-anchor="middle" x="364" y="-40" font-family="Helvetica,sans-Serif" font-size="10.00" fill="grey"> type</text>
</g>
<!-- Node3 -->
<g id="Node000003" class="node">
<title>Node3</title>
<g id="a_Node000003"><a xlink:href="structinfix__arena__t.html" target="_top" xlink:title="Internal definition of a memory arena.">
<polygon fill="white" stroke="#666666" points="321.5,-187 241.5,-187 241.5,-168 321.5,-168 321.5,-187"/>
<text text-anchor="middle" x="281.5" y="-175" font-family="Helvetica,sans-Serif" font-size="10.00">infix_arena_t</text>
</a>
</g>
</g>
<!-- Node3&#45;&gt;Node2 -->
<g id="edge2_Node000002_Node000003" class="edge">
<title>Node3&#45;&gt;Node2</title>
<g id="a_edge2_Node000002_Node000003"><a xlink:title=" ">
<path fill="none" stroke="#9a32cd" stroke-dasharray="5,2" d="M281.5,-157.26C281.5,-140.18 281.5,-116 281.5,-103.21"/>
<polygon fill="#9a32cd" stroke="#9a32cd" points="278,-157.72 281.5,-167.72 285,-157.72 278,-157.72"/>
</a>
</g>
<text text-anchor="middle" x="297" y="-142" font-family="Helvetica,sans-Serif" font-size="10.00" fill="grey"> arena</text>
</g>
<!-- Node3&#45;&gt;Node3 -->
<g id="edge3_Node000003_Node000003" class="edge">
<title>Node3&#45;&gt;Node3</title>
<g id="a_edge3_Node000003_Node000003"><a xlink:title=" ">
<path fill="none" stroke="#9a32cd" stroke-dasharray="5,2" d="M331.76,-182.32C336.5,-181.33 339.5,-179.73 339.5,-177.5 339.5,-173.94 331.83,-171.96 321.62,-171.57"/>
<polygon fill="#9a32cd" stroke="#9a32cd" points="331.18,-178.86 321.62,-183.43 331.94,-185.82 331.18,-178.86"/>
</a>
</g>
<text text-anchor="middle" x="368" y="-175" font-family="Helvetica,sans-Serif" font-size="10.00" fill="grey"> next_block</text>
</g>
<!-- Node4&#45;&gt;Node2 -->
<g id="edge5_Node000002_Node000004" class="edge">
<title>Node4&#45;&gt;Node2</title>
<g id="a_edge5_Node000002_Node000004"><a xlink:title=" ">
<path fill="none" stroke="#9a32cd" stroke-dasharray="5,2" d="M256.59,-28.68C263.27,-45.78 272.97,-70.65 278.08,-83.72"/>
<polygon fill="#9a32cd" stroke="#9a32cd" points="259.8,-27.26 252.9,-19.21 253.27,-29.8 259.8,-27.26"/>
</a>
</g>
<text text-anchor="middle" x="289.5" y="-40" font-family="Helvetica,sans-Serif" font-size="10.00" fill="grey"> members</text>
</g>
<!-- Node5&#45;&gt;Node2 -->
<g id="edge7_Node000002_Node000005" class="edge">
<title>Node5&#45;&gt;Node2</title>
<g id="a_edge7_Node000002_Node000005"><a xlink:title=" ">
<path fill="none" stroke="#9a32cd" stroke-dasharray="5,2" d="M394.84,-28.5C391.26,-35.29 386.46,-42.65 380.5,-48 361.15,-65.37 333.89,-76.94 312.87,-83.92"/>
<polygon fill="#9a32cd" stroke="#9a32cd" points="398.09,-29.81 399.2,-19.28 391.76,-26.82 398.09,-29.81"/>
</a>
</g>
<text text-anchor="middle" x="403" y="-40" font-family="Helvetica,sans-Serif" font-size="10.00" fill="grey"> args</text>
</g>
</g>
</svg>
</svg>

<style type='text/css'>
<![CDATA[
[data-mouse-over-selected='false'] { opacity: 0.7; }
[data-mouse-over-selected='true']  { opacity: 1.0; }
]]>
</style>
<script type="application/ecmascript"><![CDATA[
document.addEventListener('DOMContentLoaded', (event) => {
  highlightEdges();
  highlightAdjacentNodes();
});
]]></script>
</svg>
