<?xml version="1.0" encoding="UTF-8" standalone="no"?>
<!DOCTYPE svg PUBLIC "-//W3C//DTD SVG 1.1//EN"
 "http://www.w3.org/Graphics/SVG/1.1/DTD/svg11.dtd">
<!-- Generated by graphviz version 2.43.0 (0)
 -->
<!-- Title: _cache_entry_t Pages: 1 -->
<svg width="477pt" height="272pt"
 viewBox="0.00 0.00 477.00 272.00" xmlns="http://www.w3.org/2000/svg" xmlns:xlink="http://www.w3.org/1999/xlink">
<g id="graph0" class="graph" transform="scale(1 1) rotate(0) translate(4 268)">
<title>_cache_entry_t</title>
<!-- Node1 -->
<g id="Node000001" class="node">
<title>Node1</title>
<g id="a_Node000001"><a xlink:title=" ">
<polygon fill="#999999" stroke="#666666" points="413,-19 323,-19 323,0 413,0 413,-19"/>
<text text-anchor="middle" x="368" y="-7" font-family="Helvetica,sans-Serif" font-size="10.00">_cache_entry_t</text>
</a>
</g>
</g>
<!-- Node1&#45;&gt;Node1 -->
<g id="edge12_Node000001_Node000001" class="edge">
<title>Node1&#45;&gt;Node1</title>
<g id="a_edge12_Node000001_Node000001"><a xlink:title=" ">
<path fill="none" stroke="#9a32cd" stroke-dasharray="5,2" d="M423.26,-14.19C428.03,-13.19 431,-11.63 431,-9.5 431,-6.09 423.39,-4.14 413.02,-3.63"/>
<polygon fill="#9a32cd" stroke="#9a32cd" points="422.55,-10.75 413.02,-15.37 423.36,-17.7 422.55,-10.75"/>
</a>
</g>
<text text-anchor="middle" x="443.5" y="-7" font-family="Helvetica,sans-Serif" font-size="10.00" fill="grey"> next</text>
</g>
<!-- Node2 -->
<g id="Node000002" class="node">
<title>Node2</title>
<g id="a_Node000002"><a xlink:href="structinfix__forward__t.html" target="_top" xlink:title="Internal definition of a forward trampoline handle.">
<polygon fill="white" stroke="#666666" points="412.5,-85 323.5,-85 323.5,-66 412.5,-66 412.5,-85"/>
<text text-anchor="middle" x="368" y="-73" font-family="Helvetica,sans-Serif" font-size="10.00">infix_forward_t</text>
</a>
</g>
</g>
<!-- Node2&#45;&gt;Node1 -->
<g id="edge1_Node000001_Node000002" class="edge">
<title>Node2&#45;&gt;Node1</title>
<g id="a_edge1_Node000001_Node000002"><a xlink:title=" ">
<path fill="none" stroke="#9a32cd" stroke-dasharray="5,2" d="M368,-55.58C368,-43.63 368,-28.72 368,-19.41"/>
<polygon fill="#9a32cd" stroke="#9a32cd" points="364.5,-55.87 368,-65.87 371.5,-55.87 364.5,-55.87"/>
</a>
</g>
<text text-anchor="middle" x="396.5" y="-40" font-family="Helvetica,sans-Serif" font-size="10.00" fill="grey"> trampoline</text>
</g>
<!-- Node3 -->
<g id="Node000003" class="node">
<title>Node3</title>
<g id="a_Node000003"><a xlink:href="structinfix__arena__t.html" target="_top" xlink:title="Internal definition of a memory arena.">
<polygon fill="white" stroke="#666666" points="350,-264 270,-264 270,-245 350,-245 350,-264"/>
<text text-anchor="middle" x="310" y="-252" font-family="Helvetica,sans-Serif" font-size="10.00">infix_arena_t</text>
</a>
</g>
</g>
<!-- Node3&#45;&gt;Node2 -->
<g id="edge2_Node000002_Node000003" class="edge">
<title>Node3&#45;&gt;Node2</title>
<g id="a_edge2_Node000002_Node000003"><a xlink:title=" ">
<path fill="none" stroke="#9a32cd" stroke-dasharray="5,2" d="M359.88,-243.56C385.2,-235.71 413.75,-221.93 429,-198 442.13,-177.38 436.91,-166.13 429,-143 420.28,-117.5 395.74,-96.25 380.58,-85.05"/>
<polygon fill="#9a32cd" stroke="#9a32cd" points="358.67,-240.26 350.01,-246.37 360.59,-246.99 358.67,-240.26"/>
</a>
</g>
<text text-anchor="middle" x="453.5" y="-168" font-family="Helvetica,sans-Serif" font-size="10.00" fill="grey"> arena</text>
</g>
<!-- Node3&#45;&gt;Node3 -->
<g id="edge3_Node000003_Node000003" class="edge">
<title>Node3&#45;&gt;Node3</title>
<g id="a_edge3_Node000003_Node000003"><a xlink:title=" ">
<path fill="none" stroke="#9a32cd" stroke-dasharray="5,2" d="M360.26,-259.32C365,-258.33 368,-256.73 368,-254.5 368,-250.94 360.33,-248.96 350.12,-248.57"/>
<polygon fill="#9a32cd" stroke="#9a32cd" points="359.68,-255.86 350.12,-260.43 360.44,-262.82 359.68,-255.86"/>
</a>
</g>
<text text-anchor="middle" x="396.5" y="-252" font-family="Helvetica,sans-Serif" font-size="10.00" fill="grey"> next_block</text>
</g>
<!-- Node5 -->
<g id="Node000005" class="node">
<title>Node5</title>
<g id="a_Node000005"><a xlink:href="structinfix__type__t.html" target="_top" xlink:title="A semi&#45;opaque structure that describes a C type.">
<polygon fill="white" stroke="#666666" points="200,-180 126,-180 126,-161 200,-161 200,-180"/>
<text text-anchor="middle" x="163" y="-168" font-family="Helvetica,sans-Serif" font-size="10.00">infix_type_t</text>
</a>
</g>
</g>
<!-- Node3&#45;&gt;Node5 -->
<g id="edge6_Node000005_Node000003" class="edge">
<title>Node3&#45;&gt;Node5</title>
<g id="a_edge6_Node000005_Node000003"><a xlink:title=" ">
<path fill="none" stroke="#9a32cd" stroke-dasharray="5,2" d="M285.81,-240C255.3,-222.99 203.76,-194.24 178.25,-180"/>
<polygon fill="#9a32cd" stroke="#9a32cd" points="284.11,-243.06 294.55,-244.88 287.52,-236.95 284.11,-243.06"/>
</a>
</g>
<text text-anchor="middle" x="278.5" y="-219" font-family="Helvetica,sans-Serif" font-size="10.00" fill="grey"> arena</text>
</g>
<!-- Node4 -->
<g id="Node000004" class="node">
<title>Node4</title>
<g id="a_Node000004"><a xlink:href="structinfix__executable__t.html" target="_top" xlink:title="Internal representation of an executable memory block for JIT code.">
<polygon fill="white" stroke="#666666" points="420.5,-180 315.5,-180 315.5,-161 420.5,-161 420.5,-180"/>
<text text-anchor="middle" x="368" y="-168" font-family="Helvetica,sans-Serif" font-size="10.00">infix_executable_t</text>
</a>
</g>
</g>
<!-- Node4&#45;&gt;Node2 -->
<g id="edge4_Node000002_Node000004" class="edge">
<title>Node4&#45;&gt;Node2</title>
<g id="a_edge4_Node000002_Node000004"><a xlink:title=" ">
<path fill="none" stroke="#9a32cd" stroke-dasharray="5,2" d="M368,-150.84C368,-130.83 368,-99.93 368,-85.06"/>
<polygon fill="#9a32cd" stroke="#9a32cd" points="364.5,-150.92 368,-160.92 371.5,-150.92 364.5,-150.92"/>
</a>
</g>
<text text-anchor="middle" x="381" y="-111.5" font-family="Helvetica,sans-Serif" font-size="10.00" fill="grey"> exec</text>
</g>
<!-- Node5&#45;&gt;Node2 -->
<g id="edge5_Node000002_Node000005" class="edge">
<title>Node5&#45;&gt;Node2</title>
<g id="a_edge5_Node000002_Node000005"><a xlink:title=" ">
<path fill="none" stroke="#9a32cd" stroke-dasharray="5,2" d="M190.19,-156.72C219.08,-143.19 266.13,-121.31 307,-103 320.59,-96.91 335.98,-90.23 347.89,-85.1"/>
<polygon fill="#9a32cd" stroke="#9a32cd" points="188.69,-153.55 181.12,-160.97 191.66,-159.89 188.69,-153.55"/>
</a>
</g>
<text text-anchor="middle" x="335.5" y="-117" font-family="Helvetica,sans-Serif" font-size="10.00" fill="grey"> arg_types</text>
<text text-anchor="middle" x="335.5" y="-106" font-family="Helvetica,sans-Serif" font-size="10.00" fill="grey">return_type</text>
</g>
<!-- Node5&#45;&gt;Node5 -->
<g id="edge7_Node000005_Node000005" class="edge">
<title>Node5&#45;&gt;Node5</title>
<g id="a_edge7_Node000005_Node000005"><a xlink:title=" ">
<path fill="none" stroke="#9a32cd" stroke-dasharray="5,2" d="M210.19,-178.19C214.96,-176.66 218,-174.1 218,-170.5 218,-164.74 210.21,-161.63 200.02,-161.18"/>
<polygon fill="#9a32cd" stroke="#9a32cd" points="209.34,-174.78 200.02,-179.82 210.44,-181.69 209.34,-174.78"/>
</a>
</g>
<text text-anchor="middle" x="257.5" y="-190" font-family="Helvetica,sans-Serif" font-size="10.00" fill="grey"> base_type</text>
<text text-anchor="middle" x="257.5" y="-179" font-family="Helvetica,sans-Serif" font-size="10.00" fill="grey">element_type</text>
<text text-anchor="middle" x="257.5" y="-168" font-family="Helvetica,sans-Serif" font-size="10.00" fill="grey">pointee_type</text>
<text text-anchor="middle" x="257.5" y="-157" font-family="Helvetica,sans-Serif" font-size="10.00" fill="grey">return_type</text>
<text text-anchor="middle" x="257.5" y="-146" font-family="Helvetica,sans-Serif" font-size="10.00" fill="grey">underlying_type</text>
</g>
<!-- Node6 -->
<g id="Node000006" class="node">
<title>Node6</title>
<g id="a_Node000006"><a xlink:href="structinfix__struct__member__t.html" target="_top" xlink:title="Describes a single member of a C struct or union.">
<polygon fill="white" stroke="#666666" points="292,-85 166,-85 166,-66 292,-66 292,-85"/>
<text text-anchor="middle" x="229" y="-73" font-family="Helvetica,sans-Serif" font-size="10.00">infix_struct_member_t</text>
</a>
</g>
</g>
<!-- Node5&#45;&gt;Node6 -->
<g id="edge9_Node000006_Node000005" class="edge">
<title>Node5&#45;&gt;Node6</title>
<g id="a_edge9_Node000006_Node000005"><a xlink:title=" ">
<path fill="none" stroke="#9a32cd" stroke-dasharray="5,2" d="M185.23,-155.07C195.62,-147.3 207.36,-136.86 215,-125 223.06,-112.47 226.59,-95.2 228.05,-85"/>
<polygon fill="#9a32cd" stroke="#9a32cd" points="183.07,-152.31 176.93,-160.95 187.11,-158.03 183.07,-152.31"/>
</a>
</g>
<text text-anchor="middle" x="237.5" y="-111.5" font-family="Helvetica,sans-Serif" font-size="10.00" fill="grey"> type</text>
</g>
<!-- Node7 -->
<g id="Node000007" class="node">
<title>Node7</title>
<g id="a_Node000007"><a xlink:href="structinfix__function__argument__t.html" target="_top" xlink:title="Describes a single argument to a C function.">
<polygon fill="white" stroke="#666666" points="144,-85 0,-85 0,-66 144,-66 144,-85"/>
<text text-anchor="middle" x="72" y="-73" font-family="Helvetica,sans-Serif" font-size="10.00">infix_function_argument_t</text>
</a>
</g>
</g>
<!-- Node5&#45;&gt;Node7 -->
<g id="edge11_Node000007_Node000005" class="edge">
<title>Node5&#45;&gt;Node7</title>
<g id="a_edge11_Node000007_Node000005"><a xlink:title=" ">
<path fill="none" stroke="#9a32cd" stroke-dasharray="5,2" d="M116.02,-158.48C98.47,-151.83 80.31,-141.36 70,-125 62.36,-112.88 65.75,-95.47 68.89,-85.14"/>
<polygon fill="#9a32cd" stroke="#9a32cd" points="115.07,-161.85 125.66,-161.79 117.34,-155.23 115.07,-161.85"/>
</a>
</g>
<text text-anchor="middle" x="82.5" y="-111.5" font-family="Helvetica,sans-Serif" font-size="10.00" fill="grey"> type</text>
</g>
<!-- Node6&#45;&gt;Node5 -->
<g id="edge8_Node000005_Node000006" class="edge">
<title>Node6&#45;&gt;Node5</title>
<g id="a_edge8_Node000005_Node000006"><a xlink:title=" ">
<path fill="none" stroke="#9a32cd" stroke-dasharray="5,2" d="M179.58,-89.77C173.88,-93.21 168.77,-97.54 165,-103 152.93,-120.49 157.18,-147.19 160.52,-160.83"/>
<polygon fill="#9a32cd" stroke="#9a32cd" points="181.57,-92.68 188.92,-85.05 178.42,-86.43 181.57,-92.68"/>
</a>
</g>
<text text-anchor="middle" x="190" y="-111.5" font-family="Helvetica,sans-Serif" font-size="10.00" fill="grey"> members</text>
</g>
<!-- Node7&#45;&gt;Node5 -->
<g id="edge10_Node000005_Node000007" class="edge">
<title>Node7&#45;&gt;Node5</title>
<g id="a_edge10_Node000005_Node000007"><a xlink:title=" ">
<path fill="none" stroke="#9a32cd" stroke-dasharray="5,2" d="M87.57,-92.41C106.95,-112.22 139.37,-145.35 154.6,-160.92"/>
<polygon fill="#9a32cd" stroke="#9a32cd" points="89.87,-89.76 80.38,-85.06 84.87,-94.66 89.87,-89.76"/>
</a>
</g>
<text text-anchor="middle" x="130.5" y="-111.5" font-family="Helvetica,sans-Serif" font-size="10.00" fill="grey"> args</text>
</g>
</g>
</svg>
