<?xml version="1.0" encoding="UTF-8" standalone="no"?>
<!DOCTYPE svg PUBLIC "-//W3C//DTD SVG 1.1//EN"
 "http://www.w3.org/Graphics/SVG/1.1/DTD/svg11.dtd">
<!-- Generated by graphviz version 2.43.0 (0)
 -->
<!-- Title: infix_struct_member_t Pages: 1 -->
<svg width="214pt" height="195pt"
 viewBox="0.00 0.00 214.00 195.00" xmlns="http://www.w3.org/2000/svg" xmlns:xlink="http://www.w3.org/1999/xlink">

<svg id="main" version="1.1" xmlns="http://www.w3.org/2000/svg" xmlns:xlink="http://www.w3.org/1999/xlink" xml:space="preserve" onload="init(evt)">
<style type="text/css"><![CDATA[
.node, .edge {opacity: 0.7;}
.node.selected, .edge.selected {opacity: 1;}
.edge:hover path { stroke: red; }
.edge:hover polygon { stroke: red; fill: red; }
]]></style>
<script type="application/ecmascript" xlink:href="svg.min.js"/>
<svg id="graph" class="graph">
<g id="graph0" class="graph" transform="scale(1 1) rotate(0) translate(4 191)">
<title>infix_struct_member_t</title>
<!-- Node1 -->
<g id="Node000001" class="node">
<title>Node1</title>
<g id="a_Node000001"><a xlink:title="Describes a single member of an aggregate type (struct or union).">
<polygon fill="#999999" stroke="#666666" points="135,-187 9,-187 9,-168 135,-168 135,-187"/>
<text text-anchor="middle" x="72" y="-175" font-family="Helvetica,sans-Serif" font-size="10.00">infix_struct_member_t</text>
</a>
</g>
</g>
<!-- Node2 -->
<g id="Node000002" class="node">
<title>Node2</title>
<g id="a_Node000002"><a xlink:href="structinfix__type__t.html" target="_top" xlink:title="The central structure for describing any data type in the FFI system.">
<polygon fill="white" stroke="#666666" points="109,-103 35,-103 35,-84 109,-84 109,-103"/>
<text text-anchor="middle" x="72" y="-91" font-family="Helvetica,sans-Serif" font-size="10.00">infix_type_t</text>
</a>
</g>
</g>
<!-- Node1&#45;&gt;Node2 -->
<g id="edge3_Node000002_Node000001" class="edge">
<title>Node1&#45;&gt;Node2</title>
<g id="a_edge3_Node000002_Node000001"><a xlink:title=" ">
<path fill="none" stroke="#9a32cd" stroke-dasharray="5,2" d="M43.35,-162.05C39.18,-158.67 35.47,-154.67 33,-150 30.71,-145.68 31.28,-143.58 33,-139 38.57,-124.19 51.55,-111.1 61.01,-103.01"/>
<polygon fill="#9a32cd" stroke="#9a32cd" points="41.47,-165.01 51.7,-167.77 45.43,-159.23 41.47,-165.01"/>
</a>
</g>
<text text-anchor="middle" x="58" y="-142" font-family="Helvetica,sans-Serif" font-size="10.00" fill="grey"> members</text>
</g>
<!-- Node2&#45;&gt;Node1 -->
<g id="edge1_Node000001_Node000002" class="edge">
<title>Node2&#45;&gt;Node1</title>
<g id="a_edge1_Node000001_Node000002"><a xlink:title=" ">
<path fill="none" stroke="#9a32cd" stroke-dasharray="5,2" d="M81.69,-112.39C86.36,-123.26 90.31,-137.42 87,-150 85.33,-156.34 81.76,-162.75 78.52,-167.69"/>
<polygon fill="#9a32cd" stroke="#9a32cd" points="84.71,-110.61 77.2,-103.14 78.42,-113.67 84.71,-110.61"/>
</a>
</g>
<text text-anchor="middle" x="100.5" y="-142" font-family="Helvetica,sans-Serif" font-size="10.00" fill="grey"> type</text>
</g>
<!-- Node2&#45;&gt;Node2 -->
<g id="edge2_Node000002_Node000002" class="edge">
<title>Node2&#45;&gt;Node2</title>
<g id="a_edge2_Node000002_Node000002"><a xlink:title=" ">
<path fill="none" stroke="#9a32cd" stroke-dasharray="5,2" d="M119.19,-101.19C123.96,-99.66 127,-97.1 127,-93.5 127,-87.74 119.21,-84.63 109.02,-84.18"/>
<polygon fill="#9a32cd" stroke="#9a32cd" points="118.34,-97.78 109.02,-102.82 119.44,-104.69 118.34,-97.78"/>
</a>
</g>
<text text-anchor="middle" x="166.5" y="-113" font-family="Helvetica,sans-Serif" font-size="10.00" fill="grey"> base_type</text>
<text text-anchor="middle" x="166.5" y="-102" font-family="Helvetica,sans-Serif" font-size="10.00" fill="grey">element_type</text>
<text text-anchor="middle" x="166.5" y="-91" font-family="Helvetica,sans-Serif" font-size="10.00" fill="grey">pointee_type</text>
<text text-anchor="middle" x="166.5" y="-80" font-family="Helvetica,sans-Serif" font-size="10.00" fill="grey">return_type</text>
<text text-anchor="middle" x="166.5" y="-69" font-family="Helvetica,sans-Serif" font-size="10.00" fill="grey">underlying_type</text>
</g>
<!-- Node3 -->
<g id="Node000003" class="node">
<title>Node3</title>
<g id="a_Node000003"><a xlink:href="structinfix__function__argument__t.html" target="_top" xlink:title="Describes a single argument to a function, pairing an optional name with its type.">
<polygon fill="white" stroke="#666666" points="144,-19 0,-19 0,0 144,0 144,-19"/>
<text text-anchor="middle" x="72" y="-7" font-family="Helvetica,sans-Serif" font-size="10.00">infix_function_argument_t</text>
</a>
</g>
</g>
<!-- Node2&#45;&gt;Node3 -->
<g id="edge5_Node000003_Node000002" class="edge">
<title>Node2&#45;&gt;Node3</title>
<g id="a_edge5_Node000003_Node000002"><a xlink:title=" ">
<path fill="none" stroke="#9a32cd" stroke-dasharray="5,2" d="M58.79,-75.68C53.39,-67.75 47.76,-57.88 45,-48 43.68,-43.29 43.11,-41.51 45,-37 48,-29.85 53.97,-23.67 59.54,-19.07"/>
<polygon fill="#9a32cd" stroke="#9a32cd" points="56.13,-77.96 64.85,-83.97 61.78,-73.83 56.13,-77.96"/>
</a>
</g>
<text text-anchor="middle" x="57.5" y="-40" font-family="Helvetica,sans-Serif" font-size="10.00" fill="grey"> type</text>
</g>
<!-- Node3&#45;&gt;Node2 -->
<g id="edge4_Node000002_Node000003" class="edge">
<title>Node3&#45;&gt;Node2</title>
<g id="a_edge4_Node000002_Node000003"><a xlink:title=" ">
<path fill="none" stroke="#9a32cd" stroke-dasharray="5,2" d="M73.6,-29.31C73.76,-31.89 73.91,-34.51 74,-37 74.62,-53.57 73.51,-72.93 72.71,-83.85"/>
<polygon fill="#9a32cd" stroke="#9a32cd" points="77.08,-29.03 72.83,-19.32 70.1,-29.56 77.08,-29.03"/>
</a>
</g>
<text text-anchor="middle" x="86.5" y="-40" font-family="Helvetica,sans-Serif" font-size="10.00" fill="grey"> args</text>
</g>
</g>
</svg>
</svg>

<style type='text/css'>
<![CDATA[
[data-mouse-over-selected='false'] { opacity: 0.7; }
[data-mouse-over-selected='true']  { opacity: 1.0; }
]]>
</style>
<script type="application/ecmascript"><![CDATA[
document.addEventListener('DOMContentLoaded', (event) => {
  highlightEdges();
  highlightAdjacentNodes();
});
]]></script>
</svg>
