<?xml version="1.0" encoding="UTF-8" standalone="no"?>
<!DOCTYPE svg PUBLIC "-//W3C//DTD SVG 1.1//EN"
 "http://www.w3.org/Graphics/SVG/1.1/DTD/svg11.dtd">
<!-- Generated by graphviz version 2.43.0 (0)
 -->
<!-- Title: infix_registry_t Pages: 1 -->
<svg width="581pt" height="195pt"
 viewBox="0.00 0.00 581.00 195.00" xmlns="http://www.w3.org/2000/svg" xmlns:xlink="http://www.w3.org/1999/xlink">
<g id="graph0" class="graph" transform="scale(1 1) rotate(0) translate(4 191)">
<title>infix_registry_t</title>
<!-- Node1 -->
<g id="Node000001" class="node">
<title>Node1</title>
<g id="a_Node000001"><a xlink:title=" ">
<polygon fill="#999999" stroke="#666666" points="111.5,-19 22.5,-19 22.5,0 111.5,0 111.5,-19"/>
<text text-anchor="middle" x="67" y="-7" font-family="Helvetica,sans-Serif" font-size="10.00">infix_registry_t</text>
</a>
</g>
</g>
<!-- Node2 -->
<g id="Node000002" class="node">
<title>Node2</title>
<g id="a_Node000002"><a xlink:href="structinfix__arena__t.html" target="_top" xlink:title=" ">
<polygon fill="white" stroke="#666666" points="80,-85 0,-85 0,-66 80,-66 80,-85"/>
<text text-anchor="middle" x="40" y="-73" font-family="Helvetica,sans-Serif" font-size="10.00">infix_arena_t</text>
</a>
</g>
</g>
<!-- Node2&#45;&gt;Node1 -->
<g id="edge1_Node000001_Node000002" class="edge">
<title>Node2&#45;&gt;Node1</title>
<g id="a_edge1_Node000001_Node000002"><a xlink:title=" ">
<path fill="none" stroke="#9a32cd" stroke-dasharray="5,2" d="M47.67,-56.32C52.77,-44.24 59.23,-28.91 63.24,-19.41"/>
<polygon fill="#9a32cd" stroke="#9a32cd" points="44.3,-55.29 43.64,-65.87 50.75,-58.02 44.3,-55.29"/>
</a>
</g>
<text text-anchor="middle" x="71.5" y="-40" font-family="Helvetica,sans-Serif" font-size="10.00" fill="grey"> arena</text>
</g>
<!-- Node3 -->
<g id="Node000003" class="node">
<title>Node3</title>
<g id="a_Node000003"><a xlink:href="struct__infix__registry__entry__t.html" target="_top" xlink:title=" ">
<polygon fill="white" stroke="#666666" points="223.5,-85 98.5,-85 98.5,-66 223.5,-66 223.5,-85"/>
<text text-anchor="middle" x="161" y="-73" font-family="Helvetica,sans-Serif" font-size="10.00">_infix_registry_entry_t</text>
</a>
</g>
</g>
<!-- Node3&#45;&gt;Node1 -->
<g id="edge2_Node000001_Node000003" class="edge">
<title>Node3&#45;&gt;Node1</title>
<g id="a_edge2_Node000001_Node000003"><a xlink:title=" ">
<path fill="none" stroke="#9a32cd" stroke-dasharray="5,2" d="M139.97,-60.18C121.5,-47.61 95.24,-29.73 79.78,-19.2"/>
<polygon fill="#9a32cd" stroke="#9a32cd" points="138.09,-63.13 148.32,-65.87 142.03,-57.35 138.09,-63.13"/>
</a>
</g>
<text text-anchor="middle" x="140.5" y="-40" font-family="Helvetica,sans-Serif" font-size="10.00" fill="grey"> buckets</text>
</g>
<!-- Node3&#45;&gt;Node3 -->
<g id="edge9_Node000003_Node000003" class="edge">
<title>Node3&#45;&gt;Node3</title>
<g id="a_edge9_Node000003_Node000003"><a xlink:title=" ">
<path fill="none" stroke="#9a32cd" stroke-dasharray="5,2" d="M233.99,-79.74C238.67,-78.75 241.5,-77.34 241.5,-75.5 241.5,-72.56 234.26,-70.7 223.78,-69.92"/>
<polygon fill="#9a32cd" stroke="#9a32cd" points="233.24,-76.31 223.78,-81.08 234.15,-83.25 233.24,-76.31"/>
</a>
</g>
<text text-anchor="middle" x="254" y="-73" font-family="Helvetica,sans-Serif" font-size="10.00" fill="grey"> next</text>
</g>
<!-- Node4 -->
<g id="Node000004" class="node">
<title>Node4</title>
<g id="a_Node000004"><a xlink:href="structinfix__type__t.html" target="_top" xlink:title="The central structure for describing any data type in the FFI system.">
<polygon fill="white" stroke="#666666" points="417,-169 343,-169 343,-150 417,-150 417,-169"/>
<text text-anchor="middle" x="380" y="-157" font-family="Helvetica,sans-Serif" font-size="10.00">infix_type_t</text>
</a>
</g>
</g>
<!-- Node4&#45;&gt;Node3 -->
<g id="edge3_Node000003_Node000004" class="edge">
<title>Node4&#45;&gt;Node3</title>
<g id="a_edge3_Node000003_Node000004"><a xlink:title=" ">
<path fill="none" stroke="#9a32cd" stroke-dasharray="5,2" d="M347.42,-146.3C302.5,-129.48 222.71,-99.6 183.71,-85"/>
<polygon fill="#9a32cd" stroke="#9a32cd" points="346.38,-149.65 356.98,-149.88 348.84,-143.1 346.38,-149.65"/>
</a>
</g>
<text text-anchor="middle" x="270.5" y="-106" font-family="Helvetica,sans-Serif" font-size="10.00" fill="grey"> type</text>
</g>
<!-- Node4&#45;&gt;Node4 -->
<g id="edge4_Node000004_Node000004" class="edge">
<title>Node4&#45;&gt;Node4</title>
<g id="a_edge4_Node000004_Node000004"><a xlink:title=" ">
<path fill="none" stroke="#9a32cd" stroke-dasharray="5,2" d="M427.19,-167.19C431.96,-165.66 435,-163.1 435,-159.5 435,-153.74 427.21,-150.63 417.02,-150.18"/>
<polygon fill="#9a32cd" stroke="#9a32cd" points="426.34,-163.78 417.02,-168.82 427.44,-170.69 426.34,-163.78"/>
</a>
</g>
<text text-anchor="middle" x="474.5" y="-179" font-family="Helvetica,sans-Serif" font-size="10.00" fill="grey"> base_type</text>
<text text-anchor="middle" x="474.5" y="-168" font-family="Helvetica,sans-Serif" font-size="10.00" fill="grey">element_type</text>
<text text-anchor="middle" x="474.5" y="-157" font-family="Helvetica,sans-Serif" font-size="10.00" fill="grey">pointee_type</text>
<text text-anchor="middle" x="474.5" y="-146" font-family="Helvetica,sans-Serif" font-size="10.00" fill="grey">return_type</text>
<text text-anchor="middle" x="474.5" y="-135" font-family="Helvetica,sans-Serif" font-size="10.00" fill="grey">underlying_type</text>
</g>
<!-- Node5 -->
<g id="Node000005" class="node">
<title>Node5</title>
<g id="a_Node000005"><a xlink:href="structinfix__struct__member__t.html" target="_top" xlink:title="Describes a single member of an aggregate type (struct or union).">
<polygon fill="white" stroke="#666666" points="411,-85 285,-85 285,-66 411,-66 411,-85"/>
<text text-anchor="middle" x="348" y="-73" font-family="Helvetica,sans-Serif" font-size="10.00">infix_struct_member_t</text>
</a>
</g>
</g>
<!-- Node4&#45;&gt;Node5 -->
<g id="edge6_Node000005_Node000004" class="edge">
<title>Node4&#45;&gt;Node5</title>
<g id="a_edge6_Node000005_Node000004"><a xlink:title=" ">
<path fill="none" stroke="#9a32cd" stroke-dasharray="5,2" d="M356.35,-144.09C346.23,-136.52 335.5,-126.26 330,-114 325.51,-103.99 332.69,-92.64 339.28,-85.08"/>
<polygon fill="#9a32cd" stroke="#9a32cd" points="354.36,-146.97 364.57,-149.8 358.35,-141.22 354.36,-146.97"/>
</a>
</g>
<text text-anchor="middle" x="342.5" y="-106" font-family="Helvetica,sans-Serif" font-size="10.00" fill="grey"> type</text>
</g>
<!-- Node6 -->
<g id="Node000006" class="node">
<title>Node6</title>
<g id="a_Node000006"><a xlink:href="structinfix__function__argument__t.html" target="_top" xlink:title="Describes a single argument to a function, pairing an optional name with its type.">
<polygon fill="white" stroke="#666666" points="573,-85 429,-85 429,-66 573,-66 573,-85"/>
<text text-anchor="middle" x="501" y="-73" font-family="Helvetica,sans-Serif" font-size="10.00">infix_function_argument_t</text>
</a>
</g>
</g>
<!-- Node4&#45;&gt;Node6 -->
<g id="edge8_Node000006_Node000004" class="edge">
<title>Node4&#45;&gt;Node6</title>
<g id="a_edge8_Node000006_Node000004"><a xlink:title=" ">
<path fill="none" stroke="#9a32cd" stroke-dasharray="5,2" d="M397.21,-143.32C410.97,-131.57 431.03,-115.29 450,-103 460.38,-96.27 472.67,-89.85 482.59,-85.01"/>
<polygon fill="#9a32cd" stroke="#9a32cd" points="394.79,-140.78 389.52,-149.98 399.38,-146.08 394.79,-140.78"/>
</a>
</g>
<text text-anchor="middle" x="462.5" y="-106" font-family="Helvetica,sans-Serif" font-size="10.00" fill="grey"> type</text>
</g>
<!-- Node5&#45;&gt;Node4 -->
<g id="edge5_Node000004_Node000005" class="edge">
<title>Node5&#45;&gt;Node4</title>
<g id="a_edge5_Node000004_Node000005"><a xlink:title=" ">
<path fill="none" stroke="#9a32cd" stroke-dasharray="5,2" d="M355.09,-94.68C361.77,-111.78 371.47,-136.65 376.58,-149.72"/>
<polygon fill="#9a32cd" stroke="#9a32cd" points="358.3,-93.26 351.4,-85.21 351.77,-95.8 358.3,-93.26"/>
</a>
</g>
<text text-anchor="middle" x="388" y="-106" font-family="Helvetica,sans-Serif" font-size="10.00" fill="grey"> members</text>
</g>
<!-- Node6&#45;&gt;Node4 -->
<g id="edge7_Node000004_Node000006" class="edge">
<title>Node6&#45;&gt;Node4</title>
<g id="a_edge7_Node000004_Node000006"><a xlink:title=" ">
<path fill="none" stroke="#9a32cd" stroke-dasharray="5,2" d="M493.34,-94.5C489.76,-101.29 484.96,-108.65 479,-114 459.65,-131.37 432.39,-142.94 411.37,-149.92"/>
<polygon fill="#9a32cd" stroke="#9a32cd" points="496.59,-95.81 497.7,-85.28 490.26,-92.82 496.59,-95.81"/>
</a>
</g>
<text text-anchor="middle" x="500.5" y="-106" font-family="Helvetica,sans-Serif" font-size="10.00" fill="grey"> args</text>
</g>
</g>
</svg>
