<?xml version="1.0" encoding="UTF-8" standalone="no"?>
<!DOCTYPE svg PUBLIC "-//W3C//DTD SVG 1.1//EN"
 "http://www.w3.org/Graphics/SVG/1.1/DTD/svg11.dtd">
<!-- Generated by graphviz version 2.43.0 (0)
 -->
<!-- Title: infix_reverse_t Pages: 1 -->
<svg width="691pt" height="275pt"
 viewBox="0.00 0.00 690.81 275.00" xmlns="http://www.w3.org/2000/svg" xmlns:xlink="http://www.w3.org/1999/xlink">
<g id="graph0" class="graph" transform="scale(1 1) rotate(0) translate(4 271)">
<title>infix_reverse_t</title>
<!-- Node1 -->
<g id="Node000001" class="node">
<title>Node1</title>
<g id="a_Node000001"><a xlink:title="Internal definition of a reverse trampoline (callback/closure) handle.">
<polygon fill="#999999" stroke="#666666" points="431.31,-19 342.31,-19 342.31,0 431.31,0 431.31,-19"/>
<text text-anchor="middle" x="386.81" y="-7" font-family="Helvetica,sans-Serif" font-size="10.00">infix_reverse_t</text>
</a>
</g>
</g>
<!-- Node1&#45;&gt;Node1 -->
<g id="edge12_Node000001_Node000001" class="edge">
<title>Node1&#45;&gt;Node1</title>
<g id="a_edge12_Node000001_Node000001"><a xlink:title=" ">
<path fill="none" stroke="#9a32cd" stroke-dasharray="5,2" d="M441.64,-14.19C446.36,-13.19 449.31,-11.63 449.31,-9.5 449.31,-6.09 441.76,-4.14 431.48,-3.63"/>
<polygon fill="#9a32cd" stroke="#9a32cd" points="441,-10.74 431.48,-15.37 441.81,-17.69 441,-10.74"/>
</a>
</g>
<text text-anchor="middle" x="497.81" y="-7" font-family="Helvetica,sans-Serif" font-size="10.00" fill="grey"> internal_dispatcher</text>
</g>
<!-- Node2 -->
<g id="Node000002" class="node">
<title>Node2</title>
<g id="a_Node000002"><a xlink:href="structinfix__arena__t.html" target="_top" xlink:title="Internal definition of a memory arena.">
<polygon fill="white" stroke="#666666" points="273.81,-267 193.81,-267 193.81,-248 273.81,-248 273.81,-267"/>
<text text-anchor="middle" x="233.81" y="-255" font-family="Helvetica,sans-Serif" font-size="10.00">infix_arena_t</text>
</a>
</g>
</g>
<!-- Node2&#45;&gt;Node1 -->
<g id="edge1_Node000001_Node000002" class="edge">
<title>Node2&#45;&gt;Node1</title>
<g id="a_edge1_Node000001_Node000002"><a xlink:title=" ">
<path fill="none" stroke="#9a32cd" stroke-dasharray="5,2" d="M183.41,-247.57C108.83,-231.44 -19.86,-190.91 2.81,-106 13.45,-66.17 26.24,-51.55 64.81,-37 114.34,-18.31 265.88,-12.78 342.08,-11.16"/>
<polygon fill="#9a32cd" stroke="#9a32cd" points="183.05,-251.07 193.56,-249.69 184.48,-244.22 183.05,-251.07"/>
</a>
</g>
<text text-anchor="middle" x="18.31" y="-114.5" font-family="Helvetica,sans-Serif" font-size="10.00" fill="grey"> arena</text>
</g>
<!-- Node2&#45;&gt;Node2 -->
<g id="edge2_Node000002_Node000002" class="edge">
<title>Node2&#45;&gt;Node2</title>
<g id="a_edge2_Node000002_Node000002"><a xlink:title=" ">
<path fill="none" stroke="#9a32cd" stroke-dasharray="5,2" d="M284.08,-262.32C288.82,-261.33 291.81,-259.73 291.81,-257.5 291.81,-253.94 284.14,-251.96 273.93,-251.57"/>
<polygon fill="#9a32cd" stroke="#9a32cd" points="283.49,-258.86 273.93,-263.43 284.25,-265.82 283.49,-258.86"/>
</a>
</g>
<text text-anchor="middle" x="320.31" y="-255" font-family="Helvetica,sans-Serif" font-size="10.00" fill="grey"> next_block</text>
</g>
<!-- Node5 -->
<g id="Node000005" class="node">
<title>Node5</title>
<g id="a_Node000005"><a xlink:href="structinfix__type__t.html" target="_top" xlink:title="A semi&#45;opaque structure that describes a C type.">
<polygon fill="white" stroke="#666666" points="270.81,-183 196.81,-183 196.81,-164 270.81,-164 270.81,-183"/>
<text text-anchor="middle" x="233.81" y="-171" font-family="Helvetica,sans-Serif" font-size="10.00">infix_type_t</text>
</a>
</g>
</g>
<!-- Node2&#45;&gt;Node5 -->
<g id="edge6_Node000005_Node000002" class="edge">
<title>Node2&#45;&gt;Node5</title>
<g id="a_edge6_Node000005_Node000002"><a xlink:title=" ">
<path fill="none" stroke="#9a32cd" stroke-dasharray="5,2" d="M233.81,-237.26C233.81,-220.18 233.81,-196 233.81,-183.21"/>
<polygon fill="#9a32cd" stroke="#9a32cd" points="230.31,-237.72 233.81,-247.72 237.31,-237.72 230.31,-237.72"/>
</a>
</g>
<text text-anchor="middle" x="249.31" y="-222" font-family="Helvetica,sans-Serif" font-size="10.00" fill="grey"> arena</text>
</g>
<!-- Node8 -->
<g id="Node000008" class="node">
<title>Node8</title>
<g id="a_Node000008"><a xlink:href="structinfix__forward__t.html" target="_top" xlink:title="Internal definition of a forward trampoline handle.">
<polygon fill="white" stroke="#666666" points="501.31,-86.5 412.31,-86.5 412.31,-67.5 501.31,-67.5 501.31,-86.5"/>
<text text-anchor="middle" x="456.81" y="-74.5" font-family="Helvetica,sans-Serif" font-size="10.00">infix_forward_t</text>
</a>
</g>
</g>
<!-- Node2&#45;&gt;Node8 -->
<g id="edge14_Node000008_Node000002" class="edge">
<title>Node2&#45;&gt;Node8</title>
<g id="a_edge14_Node000008_Node000002"><a xlink:title=" ">
<path fill="none" stroke="#9a32cd" stroke-dasharray="5,2" d="M283.5,-245.26C312.92,-236.76 349.63,-222.75 376.81,-201 417.58,-168.37 444.36,-109.13 453.41,-86.81"/>
<polygon fill="#9a32cd" stroke="#9a32cd" points="282.54,-241.9 273.83,-247.94 284.4,-248.65 282.54,-241.9"/>
</a>
</g>
<text text-anchor="middle" x="437.31" y="-171" font-family="Helvetica,sans-Serif" font-size="10.00" fill="grey"> arena</text>
</g>
<!-- Node3 -->
<g id="Node000003" class="node">
<title>Node3</title>
<g id="a_Node000003"><a xlink:href="structinfix__executable__t.html" target="_top" xlink:title="Internal representation of an executable memory block for JIT code.">
<polygon fill="white" stroke="#666666" points="594.31,-183 489.31,-183 489.31,-164 594.31,-164 594.31,-183"/>
<text text-anchor="middle" x="541.81" y="-171" font-family="Helvetica,sans-Serif" font-size="10.00">infix_executable_t</text>
</a>
</g>
</g>
<!-- Node3&#45;&gt;Node1 -->
<g id="edge3_Node000001_Node000003" class="edge">
<title>Node3&#45;&gt;Node1</title>
<g id="a_edge3_Node000001_Node000003"><a xlink:title=" ">
<path fill="none" stroke="#9a32cd" stroke-dasharray="5,2" d="M545.97,-153.78C551.23,-124.75 556.34,-68.89 526.81,-37 514.08,-23.25 467.39,-16.49 431.39,-13.27"/>
<polygon fill="#9a32cd" stroke="#9a32cd" points="542.5,-153.31 543.96,-163.81 549.36,-154.69 542.5,-153.31"/>
</a>
</g>
<text text-anchor="middle" x="560.81" y="-74.5" font-family="Helvetica,sans-Serif" font-size="10.00" fill="grey"> exec</text>
</g>
<!-- Node3&#45;&gt;Node8 -->
<g id="edge15_Node000008_Node000003" class="edge">
<title>Node3&#45;&gt;Node8</title>
<g id="a_edge15_Node000008_Node000003"><a xlink:title=" ">
<path fill="none" stroke="#9a32cd" stroke-dasharray="5,2" d="M526.78,-156.36C518.98,-147.95 509.34,-137.47 500.81,-128 487.81,-113.56 472.93,-96.54 464.23,-86.55"/>
<polygon fill="#9a32cd" stroke="#9a32cd" points="524.21,-158.74 533.58,-163.69 529.34,-153.98 524.21,-158.74"/>
</a>
</g>
<text text-anchor="middle" x="513.81" y="-114.5" font-family="Helvetica,sans-Serif" font-size="10.00" fill="grey"> exec</text>
</g>
<!-- Node4 -->
<g id="Node000004" class="node">
<title>Node4</title>
<g id="a_Node000004"><a xlink:href="structinfix__protected__t.html" target="_top" xlink:title="Internal representation of a memory block that will be made read&#45;only.">
<polygon fill="white" stroke="#666666" points="682.81,-86.5 584.81,-86.5 584.81,-67.5 682.81,-67.5 682.81,-86.5"/>
<text text-anchor="middle" x="633.81" y="-74.5" font-family="Helvetica,sans-Serif" font-size="10.00">infix_protected_t</text>
</a>
</g>
</g>
<!-- Node4&#45;&gt;Node1 -->
<g id="edge4_Node000001_Node000004" class="edge">
<title>Node4&#45;&gt;Node1</title>
<g id="a_edge4_Node000001_Node000004"><a xlink:title=" ">
<path fill="none" stroke="#9a32cd" stroke-dasharray="5,2" d="M611.02,-62.44C595.64,-53.88 574.61,-43.29 554.81,-37 514.15,-24.09 465.86,-17.31 431.52,-13.85"/>
<polygon fill="#9a32cd" stroke="#9a32cd" points="609.38,-65.54 619.8,-67.45 612.85,-59.46 609.38,-65.54"/>
</a>
</g>
<text text-anchor="middle" x="615.81" y="-40" font-family="Helvetica,sans-Serif" font-size="10.00" fill="grey"> protected_ctx</text>
</g>
<!-- Node5&#45;&gt;Node1 -->
<g id="edge5_Node000001_Node000005" class="edge">
<title>Node5&#45;&gt;Node1</title>
<g id="a_edge5_Node000001_Node000005"><a xlink:title=" ">
<path fill="none" stroke="#9a32cd" stroke-dasharray="5,2" d="M186.57,-164.93C115.42,-151.59 -6.29,-120.06 39.81,-66 78.16,-21.03 257.22,-12.34 342.04,-10.77"/>
<polygon fill="#9a32cd" stroke="#9a32cd" points="186.21,-168.42 196.68,-166.77 187.46,-161.53 186.21,-168.42"/>
</a>
</g>
<text text-anchor="middle" x="68.31" y="-80" font-family="Helvetica,sans-Serif" font-size="10.00" fill="grey"> arg_types</text>
<text text-anchor="middle" x="68.31" y="-69" font-family="Helvetica,sans-Serif" font-size="10.00" fill="grey">return_type</text>
</g>
<!-- Node5&#45;&gt;Node5 -->
<g id="edge7_Node000005_Node000005" class="edge">
<title>Node5&#45;&gt;Node5</title>
<g id="a_edge7_Node000005_Node000005"><a xlink:title=" ">
<path fill="none" stroke="#9a32cd" stroke-dasharray="5,2" d="M281,-181.19C285.77,-179.66 288.81,-177.1 288.81,-173.5 288.81,-167.74 281.02,-164.63 270.83,-164.18"/>
<polygon fill="#9a32cd" stroke="#9a32cd" points="280.15,-177.78 270.83,-182.82 281.25,-184.69 280.15,-177.78"/>
</a>
</g>
<text text-anchor="middle" x="328.31" y="-193" font-family="Helvetica,sans-Serif" font-size="10.00" fill="grey"> base_type</text>
<text text-anchor="middle" x="328.31" y="-182" font-family="Helvetica,sans-Serif" font-size="10.00" fill="grey">element_type</text>
<text text-anchor="middle" x="328.31" y="-171" font-family="Helvetica,sans-Serif" font-size="10.00" fill="grey">pointee_type</text>
<text text-anchor="middle" x="328.31" y="-160" font-family="Helvetica,sans-Serif" font-size="10.00" fill="grey">return_type</text>
<text text-anchor="middle" x="328.31" y="-149" font-family="Helvetica,sans-Serif" font-size="10.00" fill="grey">underlying_type</text>
</g>
<!-- Node6 -->
<g id="Node000006" class="node">
<title>Node6</title>
<g id="a_Node000006"><a xlink:href="structinfix__struct__member__t.html" target="_top" xlink:title="Describes a single member of a C struct or union.">
<polygon fill="white" stroke="#666666" points="231.81,-86.5 105.81,-86.5 105.81,-67.5 231.81,-67.5 231.81,-86.5"/>
<text text-anchor="middle" x="168.81" y="-74.5" font-family="Helvetica,sans-Serif" font-size="10.00">infix_struct_member_t</text>
</a>
</g>
</g>
<!-- Node5&#45;&gt;Node6 -->
<g id="edge9_Node000006_Node000005" class="edge">
<title>Node5&#45;&gt;Node6</title>
<g id="a_edge9_Node000006_Node000005"><a xlink:title=" ">
<path fill="none" stroke="#9a32cd" stroke-dasharray="5,2" d="M195.16,-159.77C180.46,-152.83 165.23,-142.59 156.81,-128 149.23,-114.86 157.01,-97.12 163.09,-86.69"/>
<polygon fill="#9a32cd" stroke="#9a32cd" points="194.11,-163.13 204.67,-163.87 196.88,-156.7 194.11,-163.13"/>
</a>
</g>
<text text-anchor="middle" x="169.31" y="-114.5" font-family="Helvetica,sans-Serif" font-size="10.00" fill="grey"> type</text>
</g>
<!-- Node7 -->
<g id="Node000007" class="node">
<title>Node7</title>
<g id="a_Node000007"><a xlink:href="structinfix__function__argument__t.html" target="_top" xlink:title="Describes a single argument to a C function.">
<polygon fill="white" stroke="#666666" points="393.81,-86.5 249.81,-86.5 249.81,-67.5 393.81,-67.5 393.81,-86.5"/>
<text text-anchor="middle" x="321.81" y="-74.5" font-family="Helvetica,sans-Serif" font-size="10.00">infix_function_argument_t</text>
</a>
</g>
</g>
<!-- Node5&#45;&gt;Node7 -->
<g id="edge11_Node000007_Node000005" class="edge">
<title>Node5&#45;&gt;Node7</title>
<g id="a_edge11_Node000007_Node000005"><a xlink:title=" ">
<path fill="none" stroke="#9a32cd" stroke-dasharray="5,2" d="M239.95,-154.29C245.59,-139.77 255.16,-119.67 268.81,-106 277.19,-97.6 288.62,-91.13 298.72,-86.54"/>
<polygon fill="#9a32cd" stroke="#9a32cd" points="236.66,-153.12 236.54,-163.71 243.24,-155.5 236.66,-153.12"/>
</a>
</g>
<text text-anchor="middle" x="281.31" y="-114.5" font-family="Helvetica,sans-Serif" font-size="10.00" fill="grey"> type</text>
</g>
<!-- Node5&#45;&gt;Node8 -->
<g id="edge16_Node000008_Node000005" class="edge">
<title>Node5&#45;&gt;Node8</title>
<g id="a_edge16_Node000008_Node000005"><a xlink:title=" ">
<path fill="none" stroke="#9a32cd" stroke-dasharray="5,2" d="M269.48,-160.45C290.86,-152.55 318.18,-141.26 340.81,-128 354.47,-120 354.83,-113.41 368.81,-106 384.82,-97.52 403.84,-91.07 420.1,-86.51"/>
<polygon fill="#9a32cd" stroke="#9a32cd" points="268.04,-157.25 259.82,-163.93 270.41,-163.83 268.04,-157.25"/>
</a>
</g>
<text text-anchor="middle" x="397.31" y="-120" font-family="Helvetica,sans-Serif" font-size="10.00" fill="grey"> arg_types</text>
<text text-anchor="middle" x="397.31" y="-109" font-family="Helvetica,sans-Serif" font-size="10.00" fill="grey">return_type</text>
</g>
<!-- Node6&#45;&gt;Node5 -->
<g id="edge8_Node000005_Node000006" class="edge">
<title>Node6&#45;&gt;Node5</title>
<g id="a_edge8_Node000005_Node000006"><a xlink:title=" ">
<path fill="none" stroke="#9a32cd" stroke-dasharray="5,2" d="M179.02,-95.39C184.88,-105.13 192.51,-117.41 199.81,-128 208.64,-140.81 219.72,-154.99 226.78,-163.82"/>
<polygon fill="#9a32cd" stroke="#9a32cd" points="181.95,-93.46 173.83,-86.66 175.93,-97.04 181.95,-93.46"/>
</a>
</g>
<text text-anchor="middle" x="224.81" y="-114.5" font-family="Helvetica,sans-Serif" font-size="10.00" fill="grey"> members</text>
</g>
<!-- Node7&#45;&gt;Node5 -->
<g id="edge10_Node000005_Node000007" class="edge">
<title>Node7&#45;&gt;Node5</title>
<g id="a_edge10_Node000005_Node000007"><a xlink:title=" ">
<path fill="none" stroke="#9a32cd" stroke-dasharray="5,2" d="M315.77,-96.04C311.77,-106.18 305.78,-118.64 297.81,-128 284.65,-143.46 264.94,-156.08 250.87,-163.88"/>
<polygon fill="#9a32cd" stroke="#9a32cd" points="319.1,-97.14 319.22,-86.54 312.52,-94.75 319.1,-97.14"/>
</a>
</g>
<text text-anchor="middle" x="324.31" y="-114.5" font-family="Helvetica,sans-Serif" font-size="10.00" fill="grey"> args</text>
</g>
<!-- Node8&#45;&gt;Node1 -->
<g id="edge13_Node000001_Node000008" class="edge">
<title>Node8&#45;&gt;Node1</title>
<g id="a_edge13_Node000001_Node000008"><a xlink:title=" ">
<path fill="none" stroke="#9a32cd" stroke-dasharray="5,2" d="M404.88,-62.94C398.19,-59.16 392.17,-54.28 387.81,-48 381.95,-39.54 382.94,-27.24 384.56,-19.06"/>
<polygon fill="#9a32cd" stroke="#9a32cd" points="403.79,-66.3 414.32,-67.45 406.8,-59.98 403.79,-66.3"/>
</a>
</g>
<text text-anchor="middle" x="457.31" y="-40" font-family="Helvetica,sans-Serif" font-size="10.00" fill="grey"> cached_forward_trampoline</text>
</g>
</g>
</svg>
