<?xml version="1.0" encoding="UTF-8" standalone="no"?>
<!DOCTYPE svg PUBLIC "-//W3C//DTD SVG 1.1//EN"
 "http://www.w3.org/Graphics/SVG/1.1/DTD/svg11.dtd">
<!-- Generated by graphviz version 2.43.0 (0)
 -->
<!-- Title: Employee Pages: 1 -->
<svg width="99pt" height="93pt"
 viewBox="0.00 0.00 98.67 93.00" xmlns="http://www.w3.org/2000/svg" xmlns:xlink="http://www.w3.org/1999/xlink">
<g id="graph0" class="graph" transform="scale(1 1) rotate(0) translate(4 89)">
<title>Employee</title>
<!-- Node1 -->
<g id="Node000001" class="node">
<title>Node1</title>
<g id="a_Node000001"><a xlink:title=" ">
<polygon fill="#999999" stroke="#666666" points="67.17,-85 2.17,-85 2.17,-66 67.17,-66 67.17,-85"/>
<text text-anchor="middle" x="34.67" y="-73" font-family="Helvetica,sans-Serif" font-size="10.00">Employee</text>
</a>
</g>
</g>
<!-- Node2 -->
<g id="Node000002" class="node">
<title>Node2</title>
<g id="a_Node000002"><a xlink:href="structManager.html" target="_top" xlink:title=" ">
<polygon fill="white" stroke="#666666" points="64.17,-19 5.17,-19 5.17,0 64.17,0 64.17,-19"/>
<text text-anchor="middle" x="34.67" y="-7" font-family="Helvetica,sans-Serif" font-size="10.00">Manager</text>
</a>
</g>
</g>
<!-- Node1&#45;&gt;Node2 -->
<g id="edge2_Node000002_Node000001" class="edge">
<title>Node1&#45;&gt;Node2</title>
<g id="a_edge2_Node000002_Node000001"><a xlink:title=" ">
<path fill="none" stroke="#9a32cd" stroke-dasharray="5,2" d="M10.38,-59.41C6.85,-56.11 3.72,-52.29 1.67,-48 -3.73,-36.74 7.38,-26.28 18.14,-19.29"/>
<polygon fill="#9a32cd" stroke="#9a32cd" points="8.46,-62.35 18.47,-65.82 12.8,-56.87 8.46,-62.35"/>
</a>
</g>
<text text-anchor="middle" x="20.67" y="-40" font-family="Helvetica,sans-Serif" font-size="10.00" fill="grey"> reports</text>
</g>
<!-- Node2&#45;&gt;Node1 -->
<g id="edge1_Node000001_Node000002" class="edge">
<title>Node2&#45;&gt;Node1</title>
<g id="a_edge1_Node000001_Node000002"><a xlink:title=" ">
<path fill="none" stroke="#9a32cd" stroke-dasharray="5,2" d="M41.75,-28.84C42.54,-31.54 43.22,-34.32 43.67,-37 45.33,-47.04 41.84,-58.38 38.74,-65.93"/>
<polygon fill="#9a32cd" stroke="#9a32cd" points="44.98,-27.46 38.41,-19.15 38.36,-29.74 44.98,-27.46"/>
</a>
</g>
<text text-anchor="middle" x="67.17" y="-40" font-family="Helvetica,sans-Serif" font-size="10.00" fill="grey"> manager</text>
</g>
</g>
</svg>
