<?xml version="1.0" encoding="UTF-8" standalone="no"?>
<!DOCTYPE svg PUBLIC "-//W3C//DTD SVG 1.1//EN"
 "http://www.w3.org/Graphics/SVG/1.1/DTD/svg11.dtd">
<!-- Generated by graphviz version 2.43.0 (0)
 -->
<!-- Title: infix_registry_iterator_t Pages: 1 -->
<!--zoomable 261 -->

<svg id="main" version="1.1" xmlns="http://www.w3.org/2000/svg" xmlns:xlink="http://www.w3.org/1999/xlink" xml:space="preserve" onload="init(evt)">
<style type="text/css"><![CDATA[
.node, .edge {opacity: 0.7;}
.node.selected, .edge.selected {opacity: 1;}
.edge:hover path { stroke: red; }
.edge:hover polygon { stroke: red; fill: red; }
]]></style>

<defs>
  <circle id="rim" cx="0" cy="0" r="7"/>
  <circle id="rim2" cx="0" cy="0" r="3.5"/>
  <g id="zoomPlus">
    <use xlink:href="#rim" fill="#404040"><set attributeName="fill" to="#808080" begin="zoomplus.mouseover" end="zoomplus.mouseout"/></use>
    <path d="M-4,0h8M0,-4v8" fill="none" stroke="white" stroke-width="1.5" pointer-events="none"/>
  </g>
  <g id="zoomMin">
    <use xlink:href="#rim" fill="#404040"><set attributeName="fill" to="#808080" begin="zoomminus.mouseover" end="zoomminus.mouseout"/></use>
    <path d="M-4,0h8" fill="none" stroke="white" stroke-width="1.5" pointer-events="none"/>
  </g>
  <g id="arrowUp" transform="translate(30 24)">
    <use xlink:href="#rim"/>
    <path pointer-events="none" fill="none" stroke="white" stroke-width="1.5" d="M0,-3.0v7 M-2.5,-0.5L0,-3.0L2.5,-0.5"/>
  </g>
  <g id="arrowRight" transform="rotate(90) translate(36 -43)">
    <use xlink:href="#rim"/>
    <path pointer-events="none" fill="none" stroke="white" stroke-width="1.5" d="M0,-3.0v7 M-2.5,-0.5L0,-3.0L2.5,-0.5"/>
  </g>
  <g id="arrowDown" transform="rotate(180) translate(-30 -48)">
    <use xlink:href="#rim"/>
    <path pointer-events="none" fill="none" stroke="white" stroke-width="1.5" d="M0,-3.0v7 M-2.5,-0.5L0,-3.0L2.5,-0.5"/>
  </g>
  <g id="arrowLeft" transform="rotate(270) translate(-36 17)">
    <use xlink:href="#rim"/>
    <path pointer-events="none" fill="none" stroke="white" stroke-width="1.5" d="M0,-3.0v7 M-2.5,-0.5L0,-3.0L2.5,-0.5"/>
  </g>
  <g id="resetDef">
    <use xlink:href="#rim2" fill="#404040"><set attributeName="fill" to="#808080" begin="reset.mouseover" end="reset.mouseout"/></use>
  </g>
</defs>
<script type="application/ecmascript">
var viewWidth = 581;
var viewHeight = 261;
var sectionId = 'dynsection-0';
</script>
<script type="application/ecmascript" xlink:href="svg.min.js"/>
<svg id="graph" class="graph">
<g id="viewport">
<title>infix_registry_iterator_t</title>
<!-- Node1 -->
<g id="Node000001" class="node">
<title>Node1</title>
<g id="a_Node000001"><a xlink:title="Internal definition of a registry iterator.">
<polygon fill="#999999" stroke="#666666" points="186.5,-19 55.5,-19 55.5,0 186.5,0 186.5,-19"/>
<text text-anchor="middle" x="121" y="-7" font-family="Helvetica,sans-Serif" font-size="10.00">infix_registry_iterator_t</text>
</a>
</g>
</g>
<!-- Node2 -->
<g id="Node000002" class="node">
<title>Node2</title>
<g id="a_Node000002"><a xlink:href="structinfix__registry__t.html" target="_top" xlink:title="Internal definition of a named type registry.">
<polygon fill="white" stroke="#666666" points="124.5,-85 35.5,-85 35.5,-66 124.5,-66 124.5,-85"/>
<text text-anchor="middle" x="80" y="-73" font-family="Helvetica,sans-Serif" font-size="10.00">infix_registry_t</text>
</a>
</g>
</g>
<!-- Node2&#45;&gt;Node1 -->
<g id="edge1_Node000001_Node000002" class="edge">
<title>Node2&#45;&gt;Node1</title>
<g id="a_edge1_Node000001_Node000002"><a xlink:title=" ">
<path fill="none" stroke="#9a32cd" stroke-dasharray="5,2" d="M90.95,-57.41C98.79,-45.18 109.02,-29.2 115.3,-19.41"/>
<polygon fill="#9a32cd" stroke="#9a32cd" points="87.98,-55.56 85.53,-65.87 93.87,-59.34 87.98,-55.56"/>
</a>
</g>
<text text-anchor="middle" x="123.5" y="-40" font-family="Helvetica,sans-Serif" font-size="10.00" fill="grey"> registry</text>
</g>
<!-- Node3 -->
<g id="Node000003" class="node">
<title>Node3</title>
<g id="a_Node000003"><a xlink:href="structinfix__arena__t.html" target="_top" xlink:title="Internal definition of a memory arena.">
<polygon fill="white" stroke="#666666" points="80,-151 0,-151 0,-132 80,-132 80,-151"/>
<text text-anchor="middle" x="40" y="-139" font-family="Helvetica,sans-Serif" font-size="10.00">infix_arena_t</text>
</a>
</g>
</g>
<!-- Node3&#45;&gt;Node2 -->
<g id="edge2_Node000002_Node000003" class="edge">
<title>Node3&#45;&gt;Node2</title>
<g id="a_edge2_Node000002_Node000003"><a xlink:title=" ">
<path fill="none" stroke="#9a32cd" stroke-dasharray="5,2" d="M40.91,-121.55C41.88,-115.3 43.68,-108.54 47,-103 51.38,-95.69 58.56,-89.56 65.11,-85.05"/>
<polygon fill="#9a32cd" stroke="#9a32cd" points="37.39,-121.58 39.94,-131.86 44.36,-122.23 37.39,-121.58"/>
</a>
</g>
<text text-anchor="middle" x="62.5" y="-106" font-family="Helvetica,sans-Serif" font-size="10.00" fill="grey"> arena</text>
</g>
<!-- Node4 -->
<g id="Node000004" class="node">
<title>Node4</title>
<g id="a_Node000004"><a xlink:href="struct__infix__registry__entry__t.html" target="_top" xlink:title="A single entry in the registry&#39;s hash table.">
<polygon fill="white" stroke="#666666" points="223.5,-151 98.5,-151 98.5,-132 223.5,-132 223.5,-151"/>
<text text-anchor="middle" x="161" y="-139" font-family="Helvetica,sans-Serif" font-size="10.00">_infix_registry_entry_t</text>
</a>
</g>
</g>
<!-- Node4&#45;&gt;Node1 -->
<g id="edge11_Node000001_Node000004" class="edge">
<title>Node4&#45;&gt;Node1</title>
<g id="a_edge11_Node000001_Node000004"><a xlink:title=" ">
<path fill="none" stroke="#9a32cd" stroke-dasharray="5,2" d="M161.92,-121.85C162.23,-100.31 160.38,-64.33 147,-37 143.6,-30.05 137.67,-23.8 132.34,-19.11"/>
<polygon fill="#9a32cd" stroke="#9a32cd" points="158.42,-121.83 161.6,-131.93 165.42,-122.05 158.42,-121.83"/>
</a>
</g>
<text text-anchor="middle" x="194.5" y="-73" font-family="Helvetica,sans-Serif" font-size="10.00" fill="grey"> current_entry</text>
</g>
<!-- Node4&#45;&gt;Node2 -->
<g id="edge3_Node000002_Node000004" class="edge">
<title>Node4&#45;&gt;Node2</title>
<g id="a_edge3_Node000002_Node000004"><a xlink:title=" ">
<path fill="none" stroke="#9a32cd" stroke-dasharray="5,2" d="M127.34,-127.67C119.86,-123.93 112.29,-119.37 106,-114 96.48,-105.87 88.81,-93.49 84.33,-85.21"/>
<polygon fill="#9a32cd" stroke="#9a32cd" points="126.12,-130.97 136.66,-131.98 129.05,-124.61 126.12,-130.97"/>
</a>
</g>
<text text-anchor="middle" x="126.5" y="-106" font-family="Helvetica,sans-Serif" font-size="10.00" fill="grey"> buckets</text>
</g>
<!-- Node4&#45;&gt;Node4 -->
<g id="edge10_Node000004_Node000004" class="edge">
<title>Node4&#45;&gt;Node4</title>
<g id="a_edge10_Node000004_Node000004"><a xlink:title=" ">
<path fill="none" stroke="#9a32cd" stroke-dasharray="5,2" d="M233.99,-145.74C238.67,-144.75 241.5,-143.34 241.5,-141.5 241.5,-138.56 234.26,-136.7 223.78,-135.92"/>
<polygon fill="#9a32cd" stroke="#9a32cd" points="233.24,-142.31 223.78,-147.08 234.15,-149.25 233.24,-142.31"/>
</a>
</g>
<text text-anchor="middle" x="254" y="-139" font-family="Helvetica,sans-Serif" font-size="10.00" fill="grey"> next</text>
</g>
<!-- Node5 -->
<g id="Node000005" class="node">
<title>Node5</title>
<g id="a_Node000005"><a xlink:href="structinfix__type__t.html" target="_top" xlink:title="A semi&#45;opaque structure that describes a C type.">
<polygon fill="white" stroke="#666666" points="417,-235 343,-235 343,-216 417,-216 417,-235"/>
<text text-anchor="middle" x="380" y="-223" font-family="Helvetica,sans-Serif" font-size="10.00">infix_type_t</text>
</a>
</g>
</g>
<!-- Node5&#45;&gt;Node4 -->
<g id="edge4_Node000004_Node000005" class="edge">
<title>Node5&#45;&gt;Node4</title>
<g id="a_edge4_Node000004_Node000005"><a xlink:title=" ">
<path fill="none" stroke="#9a32cd" stroke-dasharray="5,2" d="M347.42,-212.3C302.5,-195.48 222.71,-165.6 183.71,-151"/>
<polygon fill="#9a32cd" stroke="#9a32cd" points="346.38,-215.65 356.98,-215.88 348.84,-209.1 346.38,-215.65"/>
</a>
</g>
<text text-anchor="middle" x="270.5" y="-172" font-family="Helvetica,sans-Serif" font-size="10.00" fill="grey"> type</text>
</g>
<!-- Node5&#45;&gt;Node5 -->
<g id="edge5_Node000005_Node000005" class="edge">
<title>Node5&#45;&gt;Node5</title>
<g id="a_edge5_Node000005_Node000005"><a xlink:title=" ">
<path fill="none" stroke="#9a32cd" stroke-dasharray="5,2" d="M427.19,-233.19C431.96,-231.66 435,-229.1 435,-225.5 435,-219.74 427.21,-216.63 417.02,-216.18"/>
<polygon fill="#9a32cd" stroke="#9a32cd" points="426.34,-229.78 417.02,-234.82 427.44,-236.69 426.34,-229.78"/>
</a>
</g>
<text text-anchor="middle" x="474.5" y="-245" font-family="Helvetica,sans-Serif" font-size="10.00" fill="grey"> base_type</text>
<text text-anchor="middle" x="474.5" y="-234" font-family="Helvetica,sans-Serif" font-size="10.00" fill="grey">element_type</text>
<text text-anchor="middle" x="474.5" y="-223" font-family="Helvetica,sans-Serif" font-size="10.00" fill="grey">pointee_type</text>
<text text-anchor="middle" x="474.5" y="-212" font-family="Helvetica,sans-Serif" font-size="10.00" fill="grey">return_type</text>
<text text-anchor="middle" x="474.5" y="-201" font-family="Helvetica,sans-Serif" font-size="10.00" fill="grey">underlying_type</text>
</g>
<!-- Node6 -->
<g id="Node000006" class="node">
<title>Node6</title>
<g id="a_Node000006"><a xlink:href="structinfix__struct__member__t.html" target="_top" xlink:title="Describes a single member of a C struct or union.">
<polygon fill="white" stroke="#666666" points="411,-151 285,-151 285,-132 411,-132 411,-151"/>
<text text-anchor="middle" x="348" y="-139" font-family="Helvetica,sans-Serif" font-size="10.00">infix_struct_member_t</text>
</a>
</g>
</g>
<!-- Node5&#45;&gt;Node6 -->
<g id="edge7_Node000006_Node000005" class="edge">
<title>Node5&#45;&gt;Node6</title>
<g id="a_edge7_Node000006_Node000005"><a xlink:title=" ">
<path fill="none" stroke="#9a32cd" stroke-dasharray="5,2" d="M356.35,-210.09C346.23,-202.52 335.5,-192.26 330,-180 325.51,-169.99 332.69,-158.64 339.28,-151.08"/>
<polygon fill="#9a32cd" stroke="#9a32cd" points="354.36,-212.97 364.57,-215.8 358.35,-207.22 354.36,-212.97"/>
</a>
</g>
<text text-anchor="middle" x="342.5" y="-172" font-family="Helvetica,sans-Serif" font-size="10.00" fill="grey"> type</text>
</g>
<!-- Node7 -->
<g id="Node000007" class="node">
<title>Node7</title>
<g id="a_Node000007"><a xlink:href="structinfix__function__argument__t.html" target="_top" xlink:title="Describes a single argument to a C function.">
<polygon fill="white" stroke="#666666" points="573,-151 429,-151 429,-132 573,-132 573,-151"/>
<text text-anchor="middle" x="501" y="-139" font-family="Helvetica,sans-Serif" font-size="10.00">infix_function_argument_t</text>
</a>
</g>
</g>
<!-- Node5&#45;&gt;Node7 -->
<g id="edge9_Node000007_Node000005" class="edge">
<title>Node5&#45;&gt;Node7</title>
<g id="a_edge9_Node000007_Node000005"><a xlink:title=" ">
<path fill="none" stroke="#9a32cd" stroke-dasharray="5,2" d="M397.21,-209.32C410.97,-197.57 431.03,-181.29 450,-169 460.38,-162.27 472.67,-155.85 482.59,-151.01"/>
<polygon fill="#9a32cd" stroke="#9a32cd" points="394.79,-206.78 389.52,-215.98 399.38,-212.08 394.79,-206.78"/>
</a>
</g>
<text text-anchor="middle" x="462.5" y="-172" font-family="Helvetica,sans-Serif" font-size="10.00" fill="grey"> type</text>
</g>
<!-- Node6&#45;&gt;Node5 -->
<g id="edge6_Node000005_Node000006" class="edge">
<title>Node6&#45;&gt;Node5</title>
<g id="a_edge6_Node000005_Node000006"><a xlink:title=" ">
<path fill="none" stroke="#9a32cd" stroke-dasharray="5,2" d="M355.09,-160.68C361.77,-177.78 371.47,-202.65 376.58,-215.72"/>
<polygon fill="#9a32cd" stroke="#9a32cd" points="358.3,-159.26 351.4,-151.21 351.77,-161.8 358.3,-159.26"/>
</a>
</g>
<text text-anchor="middle" x="388" y="-172" font-family="Helvetica,sans-Serif" font-size="10.00" fill="grey"> members</text>
</g>
<!-- Node7&#45;&gt;Node5 -->
<g id="edge8_Node000005_Node000007" class="edge">
<title>Node7&#45;&gt;Node5</title>
<g id="a_edge8_Node000005_Node000007"><a xlink:title=" ">
<path fill="none" stroke="#9a32cd" stroke-dasharray="5,2" d="M493.34,-160.5C489.76,-167.29 484.96,-174.65 479,-180 459.65,-197.37 432.39,-208.94 411.37,-215.92"/>
<polygon fill="#9a32cd" stroke="#9a32cd" points="496.59,-161.81 497.7,-151.28 490.26,-158.82 496.59,-161.81"/>
</a>
</g>
<text text-anchor="middle" x="500.5" y="-172" font-family="Helvetica,sans-Serif" font-size="10.00" fill="grey"> args</text>
</g>
</g>
</svg>

<g id="navigator" transform="translate(0 0)" fill="#404254">
  <rect fill="#f2f5e9" fill-opacity="0.5" stroke="#606060" stroke-width=".5" x="0" y="0" width="60" height="60"/>
  <use id="zoomplus" xlink:href="#zoomPlus" x="17" y="9" onmousedown="handleZoom(evt,'in')"/>
  <use id="zoomminus" xlink:href="#zoomMin" x="42" y="9" onmousedown="handleZoom(evt,'out')"/>
  <use id="reset" xlink:href="#resetDef" x="30" y="36" onmousedown="handleReset()"/>
   <use id="arrowup" xlink:href="#arrowUp" x="0" y="0" onmousedown="handlePan(0,-1)"/>
  <use id="arrowright" xlink:href="#arrowRight" x="0" y="0" onmousedown="handlePan(1,0)"/>
  <use id="arrowdown" xlink:href="#arrowDown" x="0" y="0" onmousedown="handlePan(0,1)"/>
  <use id="arrowleft" xlink:href="#arrowLeft" x="0" y="0" onmousedown="handlePan(-1,0)"/>
</g>
<svg viewBox="0 0 15 15" width="100%" height="30px" preserveAspectRatio="xMaxYMin meet">
 <g id="arrow_out" transform="scale(0.3 0.3)">
  <a xlink:href="structinfix__registry__iterator__t__coll__graph_org.svg" target="_base">
   <rect id="button" ry="5" rx="5" y="6" x="6" height="38" width="38"
        fill="#f2f5e9" fill-opacity="0.5" stroke="#606060" stroke-width="1.0"/>
   <path id="arrow"
     d="M 11.500037,31.436501 C 11.940474,20.09759 22.043105,11.32322 32.158766,21.979434 L 37.068811,17.246167 C 37.068811,17.246167 37.088388,32 37.088388,32 L 22.160133,31.978069 C 22.160133,31.978069 26.997745,27.140456 26.997745,27.140456 C 18.528582,18.264221 13.291696,25.230495 11.500037,31.436501 z"
     style="fill:#404040;"/>
  </a>
 </g>
</svg>

<style type='text/css'>
<![CDATA[
[data-mouse-over-selected='false'] { opacity: 0.7; }
[data-mouse-over-selected='true']  { opacity: 1.0; }
]]>
</style>
<script type="application/ecmascript"><![CDATA[
document.addEventListener('DOMContentLoaded', (event) => {
  highlightEdges();
  highlightAdjacentNodes();
});
]]></script>
</svg>
