<?xml version="1.0" encoding="UTF-8" standalone="no"?>
<!DOCTYPE svg PUBLIC "-//W3C//DTD SVG 1.1//EN"
 "http://www.w3.org/Graphics/SVG/1.1/DTD/svg11.dtd">
<!-- Generated by graphviz version 2.43.0 (0)
 -->
<!-- Title: infix_direct_call_frame_layout Pages: 1 -->
<svg width="658pt" height="349pt"
 viewBox="0.00 0.00 657.50 349.00" xmlns="http://www.w3.org/2000/svg" xmlns:xlink="http://www.w3.org/1999/xlink">
<g id="graph0" class="graph" transform="scale(1 1) rotate(0) translate(4 345)">
<title>infix_direct_call_frame_layout</title>
<!-- Node1 -->
<g id="Node000001" class="node">
<title>Node1</title>
<g id="a_Node000001"><a xlink:title="A complete layout blueprint for a direct marshalling forward call frame.">
<polygon fill="#999999" stroke="#666666" points="256.5,-30 128.5,-30 128.5,0 256.5,0 256.5,-30"/>
<text text-anchor="start" x="136.5" y="-18" font-family="Helvetica,sans-Serif" font-size="10.00">infix_direct_call_frame</text>
<text text-anchor="middle" x="192.5" y="-7" font-family="Helvetica,sans-Serif" font-size="10.00">_layout</text>
</a>
</g>
</g>
<!-- Node2 -->
<g id="Node000002" class="node">
<title>Node2</title>
<g id="a_Node000002"><a xlink:href="structinfix__direct__arg__layout.html" target="_top" xlink:title="Internal layout information for a single argument in a direct marshalling trampoline.">
<polygon fill="white" stroke="#666666" points="256.5,-96 128.5,-96 128.5,-77 256.5,-77 256.5,-96"/>
<text text-anchor="middle" x="192.5" y="-84" font-family="Helvetica,sans-Serif" font-size="10.00">infix_direct_arg_layout</text>
</a>
</g>
</g>
<!-- Node2&#45;&gt;Node1 -->
<g id="edge1_Node000001_Node000002" class="edge">
<title>Node2&#45;&gt;Node1</title>
<g id="a_edge1_Node000001_Node000002"><a xlink:title=" ">
<path fill="none" stroke="#9a32cd" stroke-dasharray="5,2" d="M192.5,-66.71C192.5,-55.19 192.5,-40.68 192.5,-30.14"/>
<polygon fill="#9a32cd" stroke="#9a32cd" points="189,-66.98 192.5,-76.98 196,-66.98 189,-66.98"/>
</a>
</g>
<text text-anchor="middle" x="205" y="-51" font-family="Helvetica,sans-Serif" font-size="10.00" fill="grey"> args</text>
</g>
<!-- Node3 -->
<g id="Node000003" class="node">
<title>Node3</title>
<g id="a_Node000003"><a xlink:href="structinfix__arg__location.html" target="_top" xlink:title="Detailed location information for a single function argument.">
<polygon fill="white" stroke="#666666" points="103,-162 0,-162 0,-143 103,-143 103,-162"/>
<text text-anchor="middle" x="51.5" y="-150" font-family="Helvetica,sans-Serif" font-size="10.00">infix_arg_location</text>
</a>
</g>
</g>
<!-- Node3&#45;&gt;Node2 -->
<g id="edge2_Node000002_Node000003" class="edge">
<title>Node3&#45;&gt;Node2</title>
<g id="a_edge2_Node000002_Node000003"><a xlink:title=" ">
<path fill="none" stroke="#9a32cd" stroke-dasharray="5,2" d="M79.71,-138.69C107.5,-126.08 149.19,-107.16 173.34,-96.2"/>
<polygon fill="#9a32cd" stroke="#9a32cd" points="78.18,-135.55 70.52,-142.87 81.07,-141.92 78.18,-135.55"/>
</a>
</g>
<text text-anchor="middle" x="152" y="-117" font-family="Helvetica,sans-Serif" font-size="10.00" fill="grey"> location</text>
</g>
<!-- Node4 -->
<g id="Node000004" class="node">
<title>Node4</title>
<g id="a_Node000004"><a xlink:href="structinfix__type__t.html" target="_top" xlink:title="A semi&#45;opaque structure that describes a C type.">
<polygon fill="white" stroke="#666666" points="441.5,-257 367.5,-257 367.5,-238 441.5,-238 441.5,-257"/>
<text text-anchor="middle" x="404.5" y="-245" font-family="Helvetica,sans-Serif" font-size="10.00">infix_type_t</text>
</a>
</g>
</g>
<!-- Node4&#45;&gt;Node2 -->
<g id="edge3_Node000002_Node000004" class="edge">
<title>Node4&#45;&gt;Node2</title>
<g id="a_edge3_Node000002_Node000004"><a xlink:title=" ">
<path fill="none" stroke="#9a32cd" stroke-dasharray="5,2" d="M386.72,-231.25C356.66,-205.76 293.51,-153.42 236.5,-114 227.26,-107.61 216.45,-101.09 207.87,-96.12"/>
<polygon fill="#9a32cd" stroke="#9a32cd" points="384.73,-234.16 394.61,-237.98 389.27,-228.83 384.73,-234.16"/>
</a>
</g>
<text text-anchor="middle" x="312" y="-150" font-family="Helvetica,sans-Serif" font-size="10.00" fill="grey"> type</text>
</g>
<!-- Node4&#45;&gt;Node4 -->
<g id="edge6_Node000004_Node000004" class="edge">
<title>Node4&#45;&gt;Node4</title>
<g id="a_edge6_Node000004_Node000004"><a xlink:title=" ">
<path fill="none" stroke="#9a32cd" stroke-dasharray="5,2" d="M451.69,-255.19C456.46,-253.66 459.5,-251.1 459.5,-247.5 459.5,-241.74 451.71,-238.63 441.52,-238.18"/>
<polygon fill="#9a32cd" stroke="#9a32cd" points="450.84,-251.78 441.52,-256.82 451.94,-258.69 450.84,-251.78"/>
</a>
</g>
<text text-anchor="middle" x="499" y="-267" font-family="Helvetica,sans-Serif" font-size="10.00" fill="grey"> base_type</text>
<text text-anchor="middle" x="499" y="-256" font-family="Helvetica,sans-Serif" font-size="10.00" fill="grey">element_type</text>
<text text-anchor="middle" x="499" y="-245" font-family="Helvetica,sans-Serif" font-size="10.00" fill="grey">pointee_type</text>
<text text-anchor="middle" x="499" y="-234" font-family="Helvetica,sans-Serif" font-size="10.00" fill="grey">return_type</text>
<text text-anchor="middle" x="499" y="-223" font-family="Helvetica,sans-Serif" font-size="10.00" fill="grey">underlying_type</text>
</g>
<!-- Node6 -->
<g id="Node000006" class="node">
<title>Node6</title>
<g id="a_Node000006"><a xlink:href="structinfix__struct__member__t.html" target="_top" xlink:title="Describes a single member of a C struct or union.">
<polygon fill="white" stroke="#666666" points="487.5,-162 361.5,-162 361.5,-143 487.5,-143 487.5,-162"/>
<text text-anchor="middle" x="424.5" y="-150" font-family="Helvetica,sans-Serif" font-size="10.00">infix_struct_member_t</text>
</a>
</g>
</g>
<!-- Node4&#45;&gt;Node6 -->
<g id="edge8_Node000006_Node000004" class="edge">
<title>Node4&#45;&gt;Node6</title>
<g id="a_edge8_Node000006_Node000004"><a xlink:title=" ">
<path fill="none" stroke="#9a32cd" stroke-dasharray="5,2" d="M392.75,-229.33C384.82,-215.44 377.19,-195.69 385.5,-180 389.56,-172.33 396.94,-166.47 404.2,-162.23"/>
<polygon fill="#9a32cd" stroke="#9a32cd" points="389.83,-231.26 398.09,-237.88 395.76,-227.55 389.83,-231.26"/>
</a>
</g>
<text text-anchor="middle" x="398" y="-188.5" font-family="Helvetica,sans-Serif" font-size="10.00" fill="grey"> type</text>
</g>
<!-- Node7 -->
<g id="Node000007" class="node">
<title>Node7</title>
<g id="a_Node000007"><a xlink:href="structinfix__function__argument__t.html" target="_top" xlink:title="Describes a single argument to a C function.">
<polygon fill="white" stroke="#666666" points="649.5,-162 505.5,-162 505.5,-143 649.5,-143 649.5,-162"/>
<text text-anchor="middle" x="577.5" y="-150" font-family="Helvetica,sans-Serif" font-size="10.00">infix_function_argument_t</text>
</a>
</g>
</g>
<!-- Node4&#45;&gt;Node7 -->
<g id="edge10_Node000007_Node000004" class="edge">
<title>Node4&#45;&gt;Node7</title>
<g id="a_edge10_Node000007_Node000004"><a xlink:title=" ">
<path fill="none" stroke="#9a32cd" stroke-dasharray="5,2" d="M426.53,-232.5C449,-218.48 485.07,-196.63 517.5,-180 530.17,-173.5 544.77,-167.03 556.4,-162.11"/>
<polygon fill="#9a32cd" stroke="#9a32cd" points="424.39,-229.72 417.78,-238 428.11,-235.64 424.39,-229.72"/>
</a>
</g>
<text text-anchor="middle" x="530" y="-188.5" font-family="Helvetica,sans-Serif" font-size="10.00" fill="grey"> type</text>
</g>
<!-- Node8 -->
<g id="Node000008" class="node">
<title>Node8</title>
<g id="a_Node000008"><a xlink:href="structinfix__direct__arg__handler__t.html" target="_top" xlink:title="A struct containing all the necessary handlers for a single function argument.">
<polygon fill="white" stroke="#666666" points="264,-162 121,-162 121,-143 264,-143 264,-162"/>
<text text-anchor="middle" x="192.5" y="-150" font-family="Helvetica,sans-Serif" font-size="10.00">infix_direct_arg_handler_t</text>
</a>
</g>
</g>
<!-- Node4&#45;&gt;Node8 -->
<g id="edge13_Node000008_Node000004" class="edge">
<title>Node4&#45;&gt;Node8</title>
<g id="a_edge13_Node000008_Node000004"><a xlink:title=" ">
<path fill="none" stroke="#9a32cd" stroke-dasharray="5,2" d="M357.24,-243.22C301.55,-238.27 213.96,-226.7 193.5,-202 184.26,-190.84 186.98,-172.79 189.77,-162.14"/>
<polygon fill="#9a32cd" stroke="#9a32cd" points="356.99,-246.71 367.25,-244.07 357.58,-239.74 356.99,-246.71"/>
</a>
</g>
<text text-anchor="middle" x="249" y="-194" font-family="Helvetica,sans-Serif" font-size="10.00" fill="grey"> aggregate_marshaller</text>
<text text-anchor="middle" x="249" y="-183" font-family="Helvetica,sans-Serif" font-size="10.00" fill="grey">writeback_handler</text>
</g>
<!-- Node5 -->
<g id="Node000005" class="node">
<title>Node5</title>
<g id="a_Node000005"><a xlink:href="structinfix__arena__t.html" target="_top" xlink:title="Internal definition of a memory arena.">
<polygon fill="white" stroke="#666666" points="444.5,-341 364.5,-341 364.5,-322 444.5,-322 444.5,-341"/>
<text text-anchor="middle" x="404.5" y="-329" font-family="Helvetica,sans-Serif" font-size="10.00">infix_arena_t</text>
</a>
</g>
</g>
<!-- Node5&#45;&gt;Node4 -->
<g id="edge4_Node000004_Node000005" class="edge">
<title>Node5&#45;&gt;Node4</title>
<g id="a_edge4_Node000004_Node000005"><a xlink:title=" ">
<path fill="none" stroke="#9a32cd" stroke-dasharray="5,2" d="M404.5,-311.26C404.5,-294.18 404.5,-270 404.5,-257.21"/>
<polygon fill="#9a32cd" stroke="#9a32cd" points="401,-311.72 404.5,-321.72 408,-311.72 401,-311.72"/>
</a>
</g>
<text text-anchor="middle" x="420" y="-296" font-family="Helvetica,sans-Serif" font-size="10.00" fill="grey"> arena</text>
</g>
<!-- Node5&#45;&gt;Node5 -->
<g id="edge5_Node000005_Node000005" class="edge">
<title>Node5&#45;&gt;Node5</title>
<g id="a_edge5_Node000005_Node000005"><a xlink:title=" ">
<path fill="none" stroke="#9a32cd" stroke-dasharray="5,2" d="M454.76,-336.32C459.5,-335.33 462.5,-333.73 462.5,-331.5 462.5,-327.94 454.83,-325.96 444.62,-325.57"/>
<polygon fill="#9a32cd" stroke="#9a32cd" points="454.18,-332.86 444.62,-337.43 454.94,-339.82 454.18,-332.86"/>
</a>
</g>
<text text-anchor="middle" x="491" y="-329" font-family="Helvetica,sans-Serif" font-size="10.00" fill="grey"> next_block</text>
</g>
<!-- Node6&#45;&gt;Node4 -->
<g id="edge7_Node000004_Node000006" class="edge">
<title>Node6&#45;&gt;Node4</title>
<g id="a_edge7_Node000004_Node000006"><a xlink:title=" ">
<path fill="none" stroke="#9a32cd" stroke-dasharray="5,2" d="M420.55,-171.85C416.25,-191.84 409.56,-222.97 406.35,-237.92"/>
<polygon fill="#9a32cd" stroke="#9a32cd" points="423.98,-172.57 422.66,-162.06 417.13,-171.1 423.98,-172.57"/>
</a>
</g>
<text text-anchor="middle" x="443.5" y="-188.5" font-family="Helvetica,sans-Serif" font-size="10.00" fill="grey"> members</text>
</g>
<!-- Node7&#45;&gt;Node4 -->
<g id="edge9_Node000004_Node000007" class="edge">
<title>Node7&#45;&gt;Node4</title>
<g id="a_edge9_Node000004_Node000007"><a xlink:title=" ">
<path fill="none" stroke="#9a32cd" stroke-dasharray="5,2" d="M569.74,-171.68C564.53,-181.91 556.74,-194.17 546.5,-202 515.72,-225.54 472.26,-236.77 441.54,-242.04"/>
<polygon fill="#9a32cd" stroke="#9a32cd" points="573.03,-172.91 574.09,-162.37 566.69,-169.95 573.03,-172.91"/>
</a>
</g>
<text text-anchor="middle" x="577" y="-188.5" font-family="Helvetica,sans-Serif" font-size="10.00" fill="grey"> args</text>
</g>
<!-- Node8&#45;&gt;Node2 -->
<g id="edge11_Node000002_Node000008" class="edge">
<title>Node8&#45;&gt;Node2</title>
<g id="a_edge11_Node000002_Node000008"><a xlink:title=" ">
<path fill="none" stroke="#9a32cd" stroke-dasharray="5,2" d="M192.5,-132.58C192.5,-120.63 192.5,-105.72 192.5,-96.41"/>
<polygon fill="#9a32cd" stroke="#9a32cd" points="189,-132.87 192.5,-142.87 196,-132.87 189,-132.87"/>
</a>
</g>
<text text-anchor="middle" x="212.5" y="-117" font-family="Helvetica,sans-Serif" font-size="10.00" fill="grey"> handler</text>
</g>
<!-- Node9 -->
<g id="Node000009" class="node">
<title>Node9</title>
<g id="a_Node000009"><a xlink:href="unioninfix__direct__value__t.html" target="_top" xlink:title="A union to hold any primitive value returned by a scalar marshaller.">
<polygon fill="white" stroke="#666666" points="134.5,-257 22.5,-257 22.5,-238 134.5,-238 134.5,-257"/>
<text text-anchor="middle" x="78.5" y="-245" font-family="Helvetica,sans-Serif" font-size="10.00">infix_direct_value_t</text>
</a>
</g>
</g>
<!-- Node9&#45;&gt;Node8 -->
<g id="edge12_Node000008_Node000009" class="edge">
<title>Node9&#45;&gt;Node8</title>
<g id="a_edge12_Node000008_Node000009"><a xlink:title=" ">
<path fill="none" stroke="#9a32cd" stroke-dasharray="5,2" d="M73.08,-227.68C70.1,-213.08 68.88,-193.19 79.5,-180 85.94,-171.99 105.19,-166.16 126.02,-162.04"/>
<polygon fill="#9a32cd" stroke="#9a32cd" points="69.73,-228.74 75.53,-237.61 76.53,-227.06 69.73,-228.74"/>
</a>
</g>
<text text-anchor="middle" x="125" y="-188.5" font-family="Helvetica,sans-Serif" font-size="10.00" fill="grey"> scalar_marshaller</text>
</g>
</g>
</svg>
