<?xml version="1.0" encoding="UTF-8" standalone="no"?>
<!DOCTYPE svg PUBLIC "-//W3C//DTD SVG 1.1//EN"
 "http://www.w3.org/Graphics/SVG/1.1/DTD/svg11.dtd">
<!-- Generated by graphviz version 2.43.0 (0)
 -->
<!-- Title: resolve_memo_node_t Pages: 1 -->
<svg width="485pt" height="129pt"
 viewBox="0.00 0.00 485.00 129.00" xmlns="http://www.w3.org/2000/svg" xmlns:xlink="http://www.w3.org/1999/xlink">
<g id="graph0" class="graph" transform="scale(1 1) rotate(0) translate(4 125)">
<title>resolve_memo_node_t</title>
<!-- Node1 -->
<g id="Node000001" class="node">
<title>Node1</title>
<g id="a_Node000001"><a xlink:title=" ">
<polygon fill="#999999" stroke="#666666" points="128,-19 0,-19 0,0 128,0 128,-19"/>
<text text-anchor="middle" x="64" y="-7" font-family="Helvetica,sans-Serif" font-size="10.00">resolve_memo_node_t</text>
</a>
</g>
</g>
<!-- Node1&#45;&gt;Node1 -->
<g id="edge7_Node000001_Node000001" class="edge">
<title>Node1&#45;&gt;Node1</title>
<g id="a_edge7_Node000001_Node000001"><a xlink:title=" ">
<path fill="none" stroke="#9a32cd" stroke-dasharray="5,2" d="M138.51,-13.71C143.18,-12.72 146,-11.32 146,-9.5 146,-6.59 138.79,-4.74 128.29,-3.95"/>
<polygon fill="#9a32cd" stroke="#9a32cd" points="137.75,-10.28 128.29,-15.05 138.66,-17.22 137.75,-10.28"/>
</a>
</g>
<text text-anchor="middle" x="158.5" y="-7" font-family="Helvetica,sans-Serif" font-size="10.00" fill="grey"> next</text>
</g>
<!-- Node2 -->
<g id="Node000002" class="node">
<title>Node2</title>
<g id="a_Node000002"><a xlink:href="structinfix__type__t.html" target="_top" xlink:title="A semi&#45;opaque structure that describes a C type.">
<polygon fill="white" stroke="#666666" points="321,-103 247,-103 247,-84 321,-84 321,-103"/>
<text text-anchor="middle" x="284" y="-91" font-family="Helvetica,sans-Serif" font-size="10.00">infix_type_t</text>
</a>
</g>
</g>
<!-- Node2&#45;&gt;Node1 -->
<g id="edge1_Node000001_Node000002" class="edge">
<title>Node2&#45;&gt;Node1</title>
<g id="a_edge1_Node000001_Node000002"><a xlink:title=" ">
<path fill="none" stroke="#9a32cd" stroke-dasharray="5,2" d="M251.27,-80.3C206.15,-63.48 125.99,-33.6 86.82,-19"/>
<polygon fill="#9a32cd" stroke="#9a32cd" points="250.28,-83.67 260.87,-83.88 252.72,-77.11 250.28,-83.67"/>
</a>
</g>
<text text-anchor="middle" x="170" y="-40" font-family="Helvetica,sans-Serif" font-size="10.00" fill="grey"> src</text>
</g>
<!-- Node2&#45;&gt;Node2 -->
<g id="edge2_Node000002_Node000002" class="edge">
<title>Node2&#45;&gt;Node2</title>
<g id="a_edge2_Node000002_Node000002"><a xlink:title=" ">
<path fill="none" stroke="#9a32cd" stroke-dasharray="5,2" d="M331.19,-101.19C335.96,-99.66 339,-97.1 339,-93.5 339,-87.74 331.21,-84.63 321.02,-84.18"/>
<polygon fill="#9a32cd" stroke="#9a32cd" points="330.34,-97.78 321.02,-102.82 331.44,-104.69 330.34,-97.78"/>
</a>
</g>
<text text-anchor="middle" x="378.5" y="-113" font-family="Helvetica,sans-Serif" font-size="10.00" fill="grey"> base_type</text>
<text text-anchor="middle" x="378.5" y="-102" font-family="Helvetica,sans-Serif" font-size="10.00" fill="grey">element_type</text>
<text text-anchor="middle" x="378.5" y="-91" font-family="Helvetica,sans-Serif" font-size="10.00" fill="grey">pointee_type</text>
<text text-anchor="middle" x="378.5" y="-80" font-family="Helvetica,sans-Serif" font-size="10.00" fill="grey">return_type</text>
<text text-anchor="middle" x="378.5" y="-69" font-family="Helvetica,sans-Serif" font-size="10.00" fill="grey">underlying_type</text>
</g>
<!-- Node3 -->
<g id="Node000003" class="node">
<title>Node3</title>
<g id="a_Node000003"><a xlink:href="structinfix__struct__member__t.html" target="_top" xlink:title="Describes a single member of a C struct or union.">
<polygon fill="white" stroke="#666666" points="315,-19 189,-19 189,0 315,0 315,-19"/>
<text text-anchor="middle" x="252" y="-7" font-family="Helvetica,sans-Serif" font-size="10.00">infix_struct_member_t</text>
</a>
</g>
</g>
<!-- Node2&#45;&gt;Node3 -->
<g id="edge4_Node000003_Node000002" class="edge">
<title>Node2&#45;&gt;Node3</title>
<g id="a_edge4_Node000003_Node000002"><a xlink:title=" ">
<path fill="none" stroke="#9a32cd" stroke-dasharray="5,2" d="M259.89,-78.19C249.57,-70.64 238.62,-60.37 233,-48 228.41,-37.9 235.97,-26.57 242.87,-19.04"/>
<polygon fill="#9a32cd" stroke="#9a32cd" points="258.03,-81.16 268.27,-83.88 261.96,-75.37 258.03,-81.16"/>
</a>
</g>
<text text-anchor="middle" x="245.5" y="-40" font-family="Helvetica,sans-Serif" font-size="10.00" fill="grey"> type</text>
</g>
<!-- Node4 -->
<g id="Node000004" class="node">
<title>Node4</title>
<g id="a_Node000004"><a xlink:href="structinfix__function__argument__t.html" target="_top" xlink:title="Describes a single argument to a C function.">
<polygon fill="white" stroke="#666666" points="477,-19 333,-19 333,0 477,0 477,-19"/>
<text text-anchor="middle" x="405" y="-7" font-family="Helvetica,sans-Serif" font-size="10.00">infix_function_argument_t</text>
</a>
</g>
</g>
<!-- Node2&#45;&gt;Node4 -->
<g id="edge6_Node000004_Node000002" class="edge">
<title>Node2&#45;&gt;Node4</title>
<g id="a_edge6_Node000004_Node000002"><a xlink:title=" ">
<path fill="none" stroke="#9a32cd" stroke-dasharray="5,2" d="M301.21,-77.32C314.97,-65.57 335.03,-49.29 354,-37 364.38,-30.27 376.67,-23.85 386.59,-19.01"/>
<polygon fill="#9a32cd" stroke="#9a32cd" points="298.79,-74.78 293.52,-83.98 303.38,-80.08 298.79,-74.78"/>
</a>
</g>
<text text-anchor="middle" x="366.5" y="-40" font-family="Helvetica,sans-Serif" font-size="10.00" fill="grey"> type</text>
</g>
<!-- Node3&#45;&gt;Node2 -->
<g id="edge3_Node000002_Node000003" class="edge">
<title>Node3&#45;&gt;Node2</title>
<g id="a_edge3_Node000002_Node000003"><a xlink:title=" ">
<path fill="none" stroke="#9a32cd" stroke-dasharray="5,2" d="M259.09,-28.68C265.77,-45.78 275.47,-70.65 280.58,-83.72"/>
<polygon fill="#9a32cd" stroke="#9a32cd" points="262.3,-27.26 255.4,-19.21 255.77,-29.8 262.3,-27.26"/>
</a>
</g>
<text text-anchor="middle" x="291" y="-40" font-family="Helvetica,sans-Serif" font-size="10.00" fill="grey"> members</text>
</g>
<!-- Node4&#45;&gt;Node2 -->
<g id="edge5_Node000002_Node000004" class="edge">
<title>Node4&#45;&gt;Node2</title>
<g id="a_edge5_Node000002_Node000004"><a xlink:title=" ">
<path fill="none" stroke="#9a32cd" stroke-dasharray="5,2" d="M397.34,-28.5C393.76,-35.29 388.96,-42.65 383,-48 363.65,-65.37 336.39,-76.94 315.37,-83.92"/>
<polygon fill="#9a32cd" stroke="#9a32cd" points="400.59,-29.81 401.7,-19.28 394.26,-26.82 400.59,-29.81"/>
</a>
</g>
<text text-anchor="middle" x="404.5" y="-40" font-family="Helvetica,sans-Serif" font-size="10.00" fill="grey"> args</text>
</g>
</g>
</svg>
