<?xml version="1.0" encoding="UTF-8" standalone="no"?>
<!DOCTYPE svg PUBLIC "-//W3C//DTD SVG 1.1//EN"
 "http://www.w3.org/Graphics/SVG/1.1/DTD/svg11.dtd">
<!-- Generated by graphviz version 2.43.0 (0)
 -->
<!-- Title: infix_forward_t Pages: 1 -->
<!--zoomable 140 -->

<svg id="main" version="1.1" xmlns="http://www.w3.org/2000/svg" xmlns:xlink="http://www.w3.org/1999/xlink" xml:space="preserve" onload="init(evt)">
<style type="text/css"><![CDATA[
.node, .edge {opacity: 0.7;}
.node.selected, .edge.selected {opacity: 1;}
.edge:hover path { stroke: red; }
.edge:hover polygon { stroke: red; fill: red; }
]]></style>

<defs>
  <circle id="rim" cx="0" cy="0" r="7"/>
  <circle id="rim2" cx="0" cy="0" r="3.5"/>
  <g id="zoomPlus">
    <use xlink:href="#rim" fill="#404040"><set attributeName="fill" to="#808080" begin="zoomplus.mouseover" end="zoomplus.mouseout"/></use>
    <path d="M-4,0h8M0,-4v8" fill="none" stroke="white" stroke-width="1.5" pointer-events="none"/>
  </g>
  <g id="zoomMin">
    <use xlink:href="#rim" fill="#404040"><set attributeName="fill" to="#808080" begin="zoomminus.mouseover" end="zoomminus.mouseout"/></use>
    <path d="M-4,0h8" fill="none" stroke="white" stroke-width="1.5" pointer-events="none"/>
  </g>
  <g id="arrowUp" transform="translate(30 24)">
    <use xlink:href="#rim"/>
    <path pointer-events="none" fill="none" stroke="white" stroke-width="1.5" d="M0,-3.0v7 M-2.5,-0.5L0,-3.0L2.5,-0.5"/>
  </g>
  <g id="arrowRight" transform="rotate(90) translate(36 -43)">
    <use xlink:href="#rim"/>
    <path pointer-events="none" fill="none" stroke="white" stroke-width="1.5" d="M0,-3.0v7 M-2.5,-0.5L0,-3.0L2.5,-0.5"/>
  </g>
  <g id="arrowDown" transform="rotate(180) translate(-30 -48)">
    <use xlink:href="#rim"/>
    <path pointer-events="none" fill="none" stroke="white" stroke-width="1.5" d="M0,-3.0v7 M-2.5,-0.5L0,-3.0L2.5,-0.5"/>
  </g>
  <g id="arrowLeft" transform="rotate(270) translate(-36 17)">
    <use xlink:href="#rim"/>
    <path pointer-events="none" fill="none" stroke="white" stroke-width="1.5" d="M0,-3.0v7 M-2.5,-0.5L0,-3.0L2.5,-0.5"/>
  </g>
  <g id="resetDef">
    <use xlink:href="#rim2" fill="#404040"><set attributeName="fill" to="#808080" begin="reset.mouseover" end="reset.mouseout"/></use>
  </g>
</defs>
<script type="application/ecmascript">
var viewWidth = 525;
var viewHeight = 140;
var sectionId = 'dynsection-0';
</script>
<script type="application/ecmascript" xlink:href="svg.min.js"/>
<svg id="graph" class="graph">
<g id="viewport">
<title>infix_forward_t</title>
<!-- Node1 -->
<g id="Node000001" class="node">
<title>Node1</title>
<g id="a_Node000001"><a xlink:title="Internal definition of a forward trampoline handle.">
<polygon fill="#999999" stroke="#666666" points="195.5,-19 106.5,-19 106.5,0 195.5,0 195.5,-19"/>
<text text-anchor="middle" x="151" y="-7" font-family="Helvetica,sans-Serif" font-size="10.00">infix_forward_t</text>
</a>
</g>
</g>
<!-- Node2 -->
<g id="Node000002" class="node">
<title>Node2</title>
<g id="a_Node000002"><a xlink:href="structinfix__arena__t.html" target="_top" xlink:title="Internal definition of a memory arena.">
<polygon fill="white" stroke="#666666" points="80,-114 0,-114 0,-95 80,-95 80,-114"/>
<text text-anchor="middle" x="40" y="-102" font-family="Helvetica,sans-Serif" font-size="10.00">infix_arena_t</text>
</a>
</g>
</g>
<!-- Node2&#45;&gt;Node1 -->
<g id="edge1_Node000001_Node000002" class="edge">
<title>Node2&#45;&gt;Node1</title>
<g id="a_edge1_Node000001_Node000002"><a xlink:title=" ">
<path fill="none" stroke="#9a32cd" stroke-dasharray="5,2" d="M57.24,-87.79C72.46,-74.08 95.35,-53.81 116,-37 123.56,-30.84 132.31,-24.21 139.17,-19.13"/>
<polygon fill="#9a32cd" stroke="#9a32cd" points="54.71,-85.36 49.65,-94.67 59.41,-90.55 54.71,-85.36"/>
</a>
</g>
<text text-anchor="middle" x="131.5" y="-45.5" font-family="Helvetica,sans-Serif" font-size="10.00" fill="grey"> arena</text>
</g>
<!-- Node3 -->
<g id="Node000003" class="node">
<title>Node3</title>
<g id="a_Node000003"><a xlink:href="structinfix__executable__t.html" target="_top" xlink:title="Internal representation of an executable memory block for JIT code.">
<polygon fill="white" stroke="#666666" points="203.5,-114 98.5,-114 98.5,-95 203.5,-95 203.5,-114"/>
<text text-anchor="middle" x="151" y="-102" font-family="Helvetica,sans-Serif" font-size="10.00">infix_executable_t</text>
</a>
</g>
</g>
<!-- Node3&#45;&gt;Node1 -->
<g id="edge2_Node000001_Node000003" class="edge">
<title>Node3&#45;&gt;Node1</title>
<g id="a_edge2_Node000001_Node000003"><a xlink:title=" ">
<path fill="none" stroke="#9a32cd" stroke-dasharray="5,2" d="M151,-84.84C151,-64.83 151,-33.93 151,-19.06"/>
<polygon fill="#9a32cd" stroke="#9a32cd" points="147.5,-84.92 151,-94.92 154.5,-84.92 147.5,-84.92"/>
</a>
</g>
<text text-anchor="middle" x="164" y="-45.5" font-family="Helvetica,sans-Serif" font-size="10.00" fill="grey"> exec</text>
</g>
<!-- Node4 -->
<g id="Node000004" class="node">
<title>Node4</title>
<g id="a_Node000004"><a xlink:href="structinfix__type__t.html" target="_top" xlink:title="A semi&#45;opaque structure that describes a C type.">
<polygon fill="white" stroke="#666666" points="365,-114 291,-114 291,-95 365,-95 365,-114"/>
<text text-anchor="middle" x="328" y="-102" font-family="Helvetica,sans-Serif" font-size="10.00">infix_type_t</text>
</a>
</g>
</g>
<!-- Node4&#45;&gt;Node1 -->
<g id="edge3_Node000001_Node000004" class="edge">
<title>Node4&#45;&gt;Node1</title>
<g id="a_edge3_Node000001_Node000004"><a xlink:title=" ">
<path fill="none" stroke="#9a32cd" stroke-dasharray="5,2" d="M290.16,-91.76C267.37,-83.96 238.17,-72.65 214,-59 193.57,-47.46 172.49,-29.86 160.64,-19.34"/>
<polygon fill="#9a32cd" stroke="#9a32cd" points="289.23,-95.14 299.82,-94.99 291.45,-88.5 289.23,-95.14"/>
</a>
</g>
<text text-anchor="middle" x="242.5" y="-51" font-family="Helvetica,sans-Serif" font-size="10.00" fill="grey"> arg_types</text>
<text text-anchor="middle" x="242.5" y="-40" font-family="Helvetica,sans-Serif" font-size="10.00" fill="grey">return_type</text>
</g>
<!-- Node4&#45;&gt;Node4 -->
<g id="edge4_Node000004_Node000004" class="edge">
<title>Node4&#45;&gt;Node4</title>
<g id="a_edge4_Node000004_Node000004"><a xlink:title=" ">
<path fill="none" stroke="#9a32cd" stroke-dasharray="5,2" d="M361.71,-115C373.48,-115.13 383,-111.64 383,-104.5 383,-95.37 367.4,-92.19 351.46,-94.97"/>
<polygon fill="#9a32cd" stroke="#9a32cd" points="361.74,-111.48 351.46,-114.03 361.08,-118.45 361.74,-111.48"/>
</a>
</g>
<text text-anchor="middle" x="422.5" y="-124" font-family="Helvetica,sans-Serif" font-size="10.00" fill="grey"> base_type</text>
<text text-anchor="middle" x="422.5" y="-113" font-family="Helvetica,sans-Serif" font-size="10.00" fill="grey">element_type</text>
<text text-anchor="middle" x="422.5" y="-102" font-family="Helvetica,sans-Serif" font-size="10.00" fill="grey">pointee_type</text>
<text text-anchor="middle" x="422.5" y="-91" font-family="Helvetica,sans-Serif" font-size="10.00" fill="grey">return_type</text>
<text text-anchor="middle" x="422.5" y="-80" font-family="Helvetica,sans-Serif" font-size="10.00" fill="grey">underlying_type</text>
</g>
<!-- Node5 -->
<g id="Node000005" class="node">
<title>Node5</title>
<g id="a_Node000005"><a xlink:href="structinfix__struct__member__t.html" target="_top" xlink:title="Describes a single member of a C struct or union.">
<polygon fill="white" stroke="#666666" points="347,-19 221,-19 221,0 347,0 347,-19"/>
<text text-anchor="middle" x="284" y="-7" font-family="Helvetica,sans-Serif" font-size="10.00">infix_struct_member_t</text>
</a>
</g>
</g>
<!-- Node4&#45;&gt;Node5 -->
<g id="edge6_Node000005_Node000004" class="edge">
<title>Node4&#45;&gt;Node5</title>
<g id="a_edge6_Node000005_Node000004"><a xlink:title=" ">
<path fill="none" stroke="#9a32cd" stroke-dasharray="5,2" d="M303.89,-89.19C293.57,-81.64 282.62,-71.37 277,-59 271.09,-45.99 275.95,-29.17 279.99,-19.14"/>
<polygon fill="#9a32cd" stroke="#9a32cd" points="302.03,-92.16 312.27,-94.88 305.96,-86.37 302.03,-92.16"/>
</a>
</g>
<text text-anchor="middle" x="289.5" y="-45.5" font-family="Helvetica,sans-Serif" font-size="10.00" fill="grey"> type</text>
</g>
<!-- Node6 -->
<g id="Node000006" class="node">
<title>Node6</title>
<g id="a_Node000006"><a xlink:href="structinfix__function__argument__t.html" target="_top" xlink:title="Describes a single argument to a C function.">
<polygon fill="white" stroke="#666666" points="517,-19 373,-19 373,0 517,0 517,-19"/>
<text text-anchor="middle" x="445" y="-7" font-family="Helvetica,sans-Serif" font-size="10.00">infix_function_argument_t</text>
</a>
</g>
</g>
<!-- Node4&#45;&gt;Node6 -->
<g id="edge8_Node000006_Node000004" class="edge">
<title>Node4&#45;&gt;Node6</title>
<g id="a_edge8_Node000006_Node000004"><a xlink:title=" ">
<path fill="none" stroke="#9a32cd" stroke-dasharray="5,2" d="M343.09,-87.03C356.64,-72.79 377.49,-52.16 398,-37 407.19,-30.21 418.29,-23.87 427.4,-19.1"/>
<polygon fill="#9a32cd" stroke="#9a32cd" points="340.29,-84.9 336.02,-94.59 345.4,-89.68 340.29,-84.9"/>
</a>
</g>
<text text-anchor="middle" x="410.5" y="-45.5" font-family="Helvetica,sans-Serif" font-size="10.00" fill="grey"> type</text>
</g>
<!-- Node5&#45;&gt;Node4 -->
<g id="edge5_Node000004_Node000005" class="edge">
<title>Node5&#45;&gt;Node4</title>
<g id="a_edge5_Node000004_Node000005"><a xlink:title=" ">
<path fill="none" stroke="#9a32cd" stroke-dasharray="5,2" d="M299.22,-26.94C301.71,-30.13 304.09,-33.55 306,-37 316.73,-56.36 323.32,-81.8 326.24,-94.89"/>
<polygon fill="#9a32cd" stroke="#9a32cd" points="301.79,-24.56 292.65,-19.2 296.45,-29.09 301.79,-24.56"/>
</a>
</g>
<text text-anchor="middle" x="341" y="-45.5" font-family="Helvetica,sans-Serif" font-size="10.00" fill="grey"> members</text>
</g>
<!-- Node6&#45;&gt;Node4 -->
<g id="edge7_Node000004_Node000006" class="edge">
<title>Node6&#45;&gt;Node4</title>
<g id="a_edge7_Node000004_Node000006"><a xlink:title=" ">
<path fill="none" stroke="#9a32cd" stroke-dasharray="5,2" d="M441.71,-29.17C439.14,-39.05 434.67,-50.8 427,-59 410.14,-77.03 384.61,-88.26 363.7,-94.93"/>
<polygon fill="#9a32cd" stroke="#9a32cd" points="445.19,-29.61 443.87,-19.09 438.35,-28.14 445.19,-29.61"/>
</a>
</g>
<text text-anchor="middle" x="452.5" y="-45.5" font-family="Helvetica,sans-Serif" font-size="10.00" fill="grey"> args</text>
</g>
</g>
</svg>

<g id="navigator" transform="translate(0 0)" fill="#404254">
  <rect fill="#f2f5e9" fill-opacity="0.5" stroke="#606060" stroke-width=".5" x="0" y="0" width="60" height="60"/>
  <use id="zoomplus" xlink:href="#zoomPlus" x="17" y="9" onmousedown="handleZoom(evt,'in')"/>
  <use id="zoomminus" xlink:href="#zoomMin" x="42" y="9" onmousedown="handleZoom(evt,'out')"/>
  <use id="reset" xlink:href="#resetDef" x="30" y="36" onmousedown="handleReset()"/>
   <use id="arrowup" xlink:href="#arrowUp" x="0" y="0" onmousedown="handlePan(0,-1)"/>
  <use id="arrowright" xlink:href="#arrowRight" x="0" y="0" onmousedown="handlePan(1,0)"/>
  <use id="arrowdown" xlink:href="#arrowDown" x="0" y="0" onmousedown="handlePan(0,1)"/>
  <use id="arrowleft" xlink:href="#arrowLeft" x="0" y="0" onmousedown="handlePan(-1,0)"/>
</g>
<svg viewBox="0 0 15 15" width="100%" height="30px" preserveAspectRatio="xMaxYMin meet">
 <g id="arrow_out" transform="scale(0.3 0.3)">
  <a xlink:href="structinfix__forward__t__coll__graph_org.svg" target="_base">
   <rect id="button" ry="5" rx="5" y="6" x="6" height="38" width="38"
        fill="#f2f5e9" fill-opacity="0.5" stroke="#606060" stroke-width="1.0"/>
   <path id="arrow"
     d="M 11.500037,31.436501 C 11.940474,20.09759 22.043105,11.32322 32.158766,21.979434 L 37.068811,17.246167 C 37.068811,17.246167 37.088388,32 37.088388,32 L 22.160133,31.978069 C 22.160133,31.978069 26.997745,27.140456 26.997745,27.140456 C 18.528582,18.264221 13.291696,25.230495 11.500037,31.436501 z"
     style="fill:#404040;"/>
  </a>
 </g>
</svg>

<style type='text/css'>
<![CDATA[
[data-mouse-over-selected='false'] { opacity: 0.7; }
[data-mouse-over-selected='true']  { opacity: 1.0; }
]]>
</style>
<script type="application/ecmascript"><![CDATA[
document.addEventListener('DOMContentLoaded', (event) => {
  highlightEdges();
  highlightAdjacentNodes();
});
]]></script>
</svg>
