<?xml version="1.0" encoding="UTF-8" standalone="no"?>
<!DOCTYPE svg PUBLIC "-//W3C//DTD SVG 1.1//EN"
 "http://www.w3.org/Graphics/SVG/1.1/DTD/svg11.dtd">
<!-- Generated by graphviz version 2.43.0 (0)
 -->
<!-- Title: infix_type_t Pages: 1 -->
<svg width="304pt" height="129pt"
 viewBox="0.00 0.00 304.00 129.00" xmlns="http://www.w3.org/2000/svg" xmlns:xlink="http://www.w3.org/1999/xlink">
<g id="graph0" class="graph" transform="scale(1 1) rotate(0) translate(4 125)">
<title>infix_type_t</title>
<!-- Node1 -->
<g id="Node000001" class="node">
<title>Node1</title>
<g id="a_Node000001"><a xlink:title="The central structure for describing any data type in the FFI system.">
<polygon fill="#999999" stroke="#666666" points="180,-103 106,-103 106,-84 180,-84 180,-103"/>
<text text-anchor="middle" x="143" y="-91" font-family="Helvetica,sans-Serif" font-size="10.00">infix_type_t</text>
</a>
</g>
</g>
<!-- Node1&#45;&gt;Node1 -->
<g id="edge1_Node000001_Node000001" class="edge">
<title>Node1&#45;&gt;Node1</title>
<g id="a_edge1_Node000001_Node000001"><a xlink:title=" ">
<path fill="none" stroke="#9a32cd" stroke-dasharray="5,2" d="M190.19,-101.19C194.96,-99.66 198,-97.1 198,-93.5 198,-87.74 190.21,-84.63 180.02,-84.18"/>
<polygon fill="#9a32cd" stroke="#9a32cd" points="189.34,-97.78 180.02,-102.82 190.44,-104.69 189.34,-97.78"/>
</a>
</g>
<text text-anchor="middle" x="237.5" y="-113" font-family="Helvetica,sans-Serif" font-size="10.00" fill="grey"> base_type</text>
<text text-anchor="middle" x="237.5" y="-102" font-family="Helvetica,sans-Serif" font-size="10.00" fill="grey">element_type</text>
<text text-anchor="middle" x="237.5" y="-91" font-family="Helvetica,sans-Serif" font-size="10.00" fill="grey">pointee_type</text>
<text text-anchor="middle" x="237.5" y="-80" font-family="Helvetica,sans-Serif" font-size="10.00" fill="grey">return_type</text>
<text text-anchor="middle" x="237.5" y="-69" font-family="Helvetica,sans-Serif" font-size="10.00" fill="grey">underlying_type</text>
</g>
<!-- Node2 -->
<g id="Node000002" class="node">
<title>Node2</title>
<g id="a_Node000002"><a xlink:href="structinfix__struct__member__t.html" target="_top" xlink:title="Describes a single member of an aggregate type (struct or union).">
<polygon fill="white" stroke="#666666" points="126,-19 0,-19 0,0 126,0 126,-19"/>
<text text-anchor="middle" x="63" y="-7" font-family="Helvetica,sans-Serif" font-size="10.00">infix_struct_member_t</text>
</a>
</g>
</g>
<!-- Node1&#45;&gt;Node2 -->
<g id="edge3_Node000002_Node000001" class="edge">
<title>Node1&#45;&gt;Node2</title>
<g id="a_edge3_Node000002_Node000001"><a xlink:title=" ">
<path fill="none" stroke="#9a32cd" stroke-dasharray="5,2" d="M99.94,-80.17C84.22,-73.35 68.09,-63.11 59,-48 53.73,-39.25 56.37,-27.24 59.23,-19.19"/>
<polygon fill="#9a32cd" stroke="#9a32cd" points="99.01,-83.56 109.6,-83.98 101.58,-77.05 99.01,-83.56"/>
</a>
</g>
<text text-anchor="middle" x="71.5" y="-40" font-family="Helvetica,sans-Serif" font-size="10.00" fill="grey"> type</text>
</g>
<!-- Node3 -->
<g id="Node000003" class="node">
<title>Node3</title>
<g id="a_Node000003"><a xlink:href="structinfix__function__argument__t.html" target="_top" xlink:title="Describes a single argument to a function, pairing an optional name with its type.">
<polygon fill="white" stroke="#666666" points="296,-19 152,-19 152,0 296,0 296,-19"/>
<text text-anchor="middle" x="224" y="-7" font-family="Helvetica,sans-Serif" font-size="10.00">infix_function_argument_t</text>
</a>
</g>
</g>
<!-- Node1&#45;&gt;Node3 -->
<g id="edge5_Node000003_Node000001" class="edge">
<title>Node1&#45;&gt;Node3</title>
<g id="a_edge5_Node000003_Node000001"><a xlink:title=" ">
<path fill="none" stroke="#9a32cd" stroke-dasharray="5,2" d="M151.1,-74.41C157.02,-62.69 165.93,-47.68 177,-37 184.69,-29.59 194.85,-23.52 203.75,-19.07"/>
<polygon fill="#9a32cd" stroke="#9a32cd" points="147.83,-73.14 146.69,-83.67 154.15,-76.15 147.83,-73.14"/>
</a>
</g>
<text text-anchor="middle" x="189.5" y="-40" font-family="Helvetica,sans-Serif" font-size="10.00" fill="grey"> type</text>
</g>
<!-- Node2&#45;&gt;Node1 -->
<g id="edge2_Node000001_Node000002" class="edge">
<title>Node2&#45;&gt;Node1</title>
<g id="a_edge2_Node000001_Node000002"><a xlink:title=" ">
<path fill="none" stroke="#9a32cd" stroke-dasharray="5,2" d="M78.88,-26.78C95.57,-43.89 121.21,-70.16 134.44,-83.72"/>
<polygon fill="#9a32cd" stroke="#9a32cd" points="80.99,-23.93 71.5,-19.21 75.98,-28.81 80.99,-23.93"/>
</a>
</g>
<text text-anchor="middle" x="123" y="-40" font-family="Helvetica,sans-Serif" font-size="10.00" fill="grey"> members</text>
</g>
<!-- Node3&#45;&gt;Node1 -->
<g id="edge4_Node000001_Node000003" class="edge">
<title>Node3&#45;&gt;Node1</title>
<g id="a_edge4_Node000001_Node000003"><a xlink:title=" ">
<path fill="none" stroke="#9a32cd" stroke-dasharray="5,2" d="M217.49,-28.7C214.61,-35.23 210.77,-42.35 206,-48 192.95,-63.44 173.37,-76.15 159.51,-83.98"/>
<polygon fill="#9a32cd" stroke="#9a32cd" points="220.8,-29.84 221.23,-19.26 214.3,-27.26 220.8,-29.84"/>
</a>
</g>
<text text-anchor="middle" x="225.5" y="-40" font-family="Helvetica,sans-Serif" font-size="10.00" fill="grey"> args</text>
</g>
</g>
</svg>
