<?xml version="1.0" encoding="UTF-8" standalone="no"?>
<!DOCTYPE svg PUBLIC "-//W3C//DTD SVG 1.1//EN"
 "http://www.w3.org/Graphics/SVG/1.1/DTD/svg11.dtd">
<!-- Generated by graphviz version 2.43.0 (0)
 -->
<!-- Title: infix_registry_iterator_t Pages: 1 -->
<!--zoomable 327 -->

<svg id="main" version="1.1" xmlns="http://www.w3.org/2000/svg" xmlns:xlink="http://www.w3.org/1999/xlink" xml:space="preserve" onload="init(evt)">
<style type="text/css"><![CDATA[
.node, .edge {opacity: 0.7;}
.node.selected, .edge.selected {opacity: 1;}
.edge:hover path { stroke: red; }
.edge:hover polygon { stroke: red; fill: red; }
]]></style>

<defs>
  <circle id="rim" cx="0" cy="0" r="7"/>
  <circle id="rim2" cx="0" cy="0" r="3.5"/>
  <g id="zoomPlus">
    <use xlink:href="#rim" fill="#404040"><set attributeName="fill" to="#808080" begin="zoomplus.mouseover" end="zoomplus.mouseout"/></use>
    <path d="M-4,0h8M0,-4v8" fill="none" stroke="white" stroke-width="1.5" pointer-events="none"/>
  </g>
  <g id="zoomMin">
    <use xlink:href="#rim" fill="#404040"><set attributeName="fill" to="#808080" begin="zoomminus.mouseover" end="zoomminus.mouseout"/></use>
    <path d="M-4,0h8" fill="none" stroke="white" stroke-width="1.5" pointer-events="none"/>
  </g>
  <g id="arrowUp" transform="translate(30 24)">
    <use xlink:href="#rim"/>
    <path pointer-events="none" fill="none" stroke="white" stroke-width="1.5" d="M0,-3.0v7 M-2.5,-0.5L0,-3.0L2.5,-0.5"/>
  </g>
  <g id="arrowRight" transform="rotate(90) translate(36 -43)">
    <use xlink:href="#rim"/>
    <path pointer-events="none" fill="none" stroke="white" stroke-width="1.5" d="M0,-3.0v7 M-2.5,-0.5L0,-3.0L2.5,-0.5"/>
  </g>
  <g id="arrowDown" transform="rotate(180) translate(-30 -48)">
    <use xlink:href="#rim"/>
    <path pointer-events="none" fill="none" stroke="white" stroke-width="1.5" d="M0,-3.0v7 M-2.5,-0.5L0,-3.0L2.5,-0.5"/>
  </g>
  <g id="arrowLeft" transform="rotate(270) translate(-36 17)">
    <use xlink:href="#rim"/>
    <path pointer-events="none" fill="none" stroke="white" stroke-width="1.5" d="M0,-3.0v7 M-2.5,-0.5L0,-3.0L2.5,-0.5"/>
  </g>
  <g id="resetDef">
    <use xlink:href="#rim2" fill="#404040"><set attributeName="fill" to="#808080" begin="reset.mouseover" end="reset.mouseout"/></use>
  </g>
</defs>
<script type="application/ecmascript">
var viewWidth = 561;
var viewHeight = 327;
var sectionId = 'dynsection-0';
</script>
<script type="application/ecmascript" xlink:href="svg.min.js"/>
<svg id="graph" class="graph">
<g id="viewport">
<title>infix_registry_iterator_t</title>
<!-- Node1 -->
<g id="Node000001" class="node">
<title>Node1</title>
<g id="a_Node000001"><a xlink:title="An iterator for traversing a type registry.">
<polygon fill="#999999" stroke="#666666" points="131,-19 0,-19 0,0 131,0 131,-19"/>
<text text-anchor="middle" x="65.5" y="-7" font-family="Helvetica,sans-Serif" font-size="10.00">infix_registry_iterator_t</text>
</a>
</g>
</g>
<!-- Node2 -->
<g id="Node000002" class="node">
<title>Node2</title>
<g id="a_Node000002"><a xlink:href="structinfix__registry__t.html" target="_top" xlink:title="Internal definition of a named type registry.">
<polygon fill="white" stroke="#666666" points="110,-85 21,-85 21,-66 110,-66 110,-85"/>
<text text-anchor="middle" x="65.5" y="-73" font-family="Helvetica,sans-Serif" font-size="10.00">infix_registry_t</text>
</a>
</g>
</g>
<!-- Node2&#45;&gt;Node1 -->
<g id="edge1_Node000001_Node000002" class="edge">
<title>Node2&#45;&gt;Node1</title>
<g id="a_edge1_Node000001_Node000002"><a xlink:title=" ">
<path fill="none" stroke="#9a32cd" stroke-dasharray="5,2" d="M65.5,-55.58C65.5,-43.63 65.5,-28.72 65.5,-19.41"/>
<polygon fill="#9a32cd" stroke="#9a32cd" points="62,-55.87 65.5,-65.87 69,-55.87 62,-55.87"/>
</a>
</g>
<text text-anchor="middle" x="86" y="-40" font-family="Helvetica,sans-Serif" font-size="10.00" fill="grey"> registry</text>
</g>
<!-- Node3 -->
<g id="Node000003" class="node">
<title>Node3</title>
<g id="a_Node000003"><a xlink:href="structinfix__arena__t.html" target="_top" xlink:title="Internal definition of a memory arena.">
<polygon fill="white" stroke="#666666" points="105.5,-319 25.5,-319 25.5,-300 105.5,-300 105.5,-319"/>
<text text-anchor="middle" x="65.5" y="-307" font-family="Helvetica,sans-Serif" font-size="10.00">infix_arena_t</text>
</a>
</g>
</g>
<!-- Node3&#45;&gt;Node2 -->
<g id="edge2_Node000002_Node000003" class="edge">
<title>Node3&#45;&gt;Node2</title>
<g id="a_edge2_Node000002_Node000003"><a xlink:title=" ">
<path fill="none" stroke="#9a32cd" stroke-dasharray="5,2" d="M65.5,-289.94C65.5,-242.74 65.5,-119.46 65.5,-85.36"/>
<polygon fill="#9a32cd" stroke="#9a32cd" points="62,-289.97 65.5,-299.97 69,-289.97 62,-289.97"/>
</a>
</g>
<text text-anchor="middle" x="81" y="-172" font-family="Helvetica,sans-Serif" font-size="10.00" fill="grey"> arena</text>
</g>
<!-- Node3&#45;&gt;Node3 -->
<g id="edge3_Node000003_Node000003" class="edge">
<title>Node3&#45;&gt;Node3</title>
<g id="a_edge3_Node000003_Node000003"><a xlink:title=" ">
<path fill="none" stroke="#9a32cd" stroke-dasharray="5,2" d="M115.76,-314.32C120.5,-313.33 123.5,-311.73 123.5,-309.5 123.5,-305.94 115.83,-303.96 105.62,-303.57"/>
<polygon fill="#9a32cd" stroke="#9a32cd" points="115.18,-310.86 105.62,-315.43 115.94,-317.82 115.18,-310.86"/>
</a>
</g>
<text text-anchor="middle" x="152" y="-307" font-family="Helvetica,sans-Serif" font-size="10.00" fill="grey"> next_block</text>
</g>
<!-- Node5 -->
<g id="Node000005" class="node">
<title>Node5</title>
<g id="a_Node000005"><a xlink:href="structinfix__type__t.html" target="_top" xlink:title="A semi&#45;opaque structure that describes a C type.">
<polygon fill="white" stroke="#666666" points="344.5,-235 270.5,-235 270.5,-216 344.5,-216 344.5,-235"/>
<text text-anchor="middle" x="307.5" y="-223" font-family="Helvetica,sans-Serif" font-size="10.00">infix_type_t</text>
</a>
</g>
</g>
<!-- Node3&#45;&gt;Node5 -->
<g id="edge6_Node000005_Node000003" class="edge">
<title>Node3&#45;&gt;Node5</title>
<g id="a_edge6_Node000005_Node000003"><a xlink:title=" ">
<path fill="none" stroke="#9a32cd" stroke-dasharray="5,2" d="M100.57,-296.62C150.02,-279.86 239.04,-249.7 282.4,-235"/>
<polygon fill="#9a32cd" stroke="#9a32cd" points="99.29,-293.36 90.94,-299.88 101.54,-299.99 99.29,-293.36"/>
</a>
</g>
<text text-anchor="middle" x="188" y="-274" font-family="Helvetica,sans-Serif" font-size="10.00" fill="grey"> arena</text>
</g>
<!-- Node4 -->
<g id="Node000004" class="node">
<title>Node4</title>
<g id="a_Node000004"><a xlink:href="struct__infix__registry__entry__t.html" target="_top" xlink:title="A single entry in the registry&#39;s hash table.">
<polygon fill="white" stroke="#666666" points="203,-151 78,-151 78,-132 203,-132 203,-151"/>
<text text-anchor="middle" x="140.5" y="-139" font-family="Helvetica,sans-Serif" font-size="10.00">_infix_registry_entry_t</text>
</a>
</g>
</g>
<!-- Node4&#45;&gt;Node2 -->
<g id="edge4_Node000002_Node000004" class="edge">
<title>Node4&#45;&gt;Node2</title>
<g id="a_edge4_Node000002_Node000004"><a xlink:title=" ">
<path fill="none" stroke="#9a32cd" stroke-dasharray="5,2" d="M122.55,-125.18C107.99,-112.76 87.98,-95.68 75.94,-85.41"/>
<polygon fill="#9a32cd" stroke="#9a32cd" points="120.51,-128.04 130.39,-131.87 125.05,-122.72 120.51,-128.04"/>
</a>
</g>
<text text-anchor="middle" x="128" y="-106" font-family="Helvetica,sans-Serif" font-size="10.00" fill="grey"> buckets</text>
</g>
<!-- Node4&#45;&gt;Node4 -->
<g id="edge12_Node000004_Node000004" class="edge">
<title>Node4&#45;&gt;Node4</title>
<g id="a_edge12_Node000004_Node000004"><a xlink:title=" ">
<path fill="none" stroke="#9a32cd" stroke-dasharray="5,2" d="M213.49,-145.74C218.17,-144.75 221,-143.34 221,-141.5 221,-138.56 213.76,-136.7 203.28,-135.92"/>
<polygon fill="#9a32cd" stroke="#9a32cd" points="212.74,-142.31 203.28,-147.08 213.65,-149.25 212.74,-142.31"/>
</a>
</g>
<text text-anchor="middle" x="233.5" y="-139" font-family="Helvetica,sans-Serif" font-size="10.00" fill="grey"> next</text>
</g>
<!-- Node5&#45;&gt;Node4 -->
<g id="edge5_Node000004_Node000005" class="edge">
<title>Node5&#45;&gt;Node4</title>
<g id="a_edge5_Node000004_Node000005"><a xlink:title=" ">
<path fill="none" stroke="#9a32cd" stroke-dasharray="5,2" d="M280.9,-211.44C246.37,-194.48 187.05,-165.36 157.82,-151"/>
<polygon fill="#9a32cd" stroke="#9a32cd" points="279.42,-214.61 289.94,-215.88 282.51,-208.33 279.42,-214.61"/>
</a>
</g>
<text text-anchor="middle" x="227" y="-172" font-family="Helvetica,sans-Serif" font-size="10.00" fill="grey"> type</text>
</g>
<!-- Node5&#45;&gt;Node5 -->
<g id="edge7_Node000005_Node000005" class="edge">
<title>Node5&#45;&gt;Node5</title>
<g id="a_edge7_Node000005_Node000005"><a xlink:title=" ">
<path fill="none" stroke="#9a32cd" stroke-dasharray="5,2" d="M354.69,-233.19C359.46,-231.66 362.5,-229.1 362.5,-225.5 362.5,-219.74 354.71,-216.63 344.52,-216.18"/>
<polygon fill="#9a32cd" stroke="#9a32cd" points="353.84,-229.78 344.52,-234.82 354.94,-236.69 353.84,-229.78"/>
</a>
</g>
<text text-anchor="middle" x="402" y="-245" font-family="Helvetica,sans-Serif" font-size="10.00" fill="grey"> base_type</text>
<text text-anchor="middle" x="402" y="-234" font-family="Helvetica,sans-Serif" font-size="10.00" fill="grey">element_type</text>
<text text-anchor="middle" x="402" y="-223" font-family="Helvetica,sans-Serif" font-size="10.00" fill="grey">pointee_type</text>
<text text-anchor="middle" x="402" y="-212" font-family="Helvetica,sans-Serif" font-size="10.00" fill="grey">return_type</text>
<text text-anchor="middle" x="402" y="-201" font-family="Helvetica,sans-Serif" font-size="10.00" fill="grey">underlying_type</text>
</g>
<!-- Node6 -->
<g id="Node000006" class="node">
<title>Node6</title>
<g id="a_Node000006"><a xlink:href="structinfix__struct__member__t.html" target="_top" xlink:title="Describes a single member of a C struct or union.">
<polygon fill="white" stroke="#666666" points="390.5,-151 264.5,-151 264.5,-132 390.5,-132 390.5,-151"/>
<text text-anchor="middle" x="327.5" y="-139" font-family="Helvetica,sans-Serif" font-size="10.00">infix_struct_member_t</text>
</a>
</g>
</g>
<!-- Node5&#45;&gt;Node6 -->
<g id="edge9_Node000006_Node000005" class="edge">
<title>Node5&#45;&gt;Node6</title>
<g id="a_edge9_Node000006_Node000005"><a xlink:title=" ">
<path fill="none" stroke="#9a32cd" stroke-dasharray="5,2" d="M295.47,-207.03C289.32,-195.78 284.3,-181.06 290.5,-169 294.4,-161.41 301.59,-155.51 308.61,-151.22"/>
<polygon fill="#9a32cd" stroke="#9a32cd" points="292.69,-209.19 300.92,-215.87 298.65,-205.52 292.69,-209.19"/>
</a>
</g>
<text text-anchor="middle" x="303" y="-172" font-family="Helvetica,sans-Serif" font-size="10.00" fill="grey"> type</text>
</g>
<!-- Node7 -->
<g id="Node000007" class="node">
<title>Node7</title>
<g id="a_Node000007"><a xlink:href="structinfix__function__argument__t.html" target="_top" xlink:title="Describes a single argument to a C function.">
<polygon fill="white" stroke="#666666" points="552.5,-151 408.5,-151 408.5,-132 552.5,-132 552.5,-151"/>
<text text-anchor="middle" x="480.5" y="-139" font-family="Helvetica,sans-Serif" font-size="10.00">infix_function_argument_t</text>
</a>
</g>
</g>
<!-- Node5&#45;&gt;Node7 -->
<g id="edge11_Node000007_Node000005" class="edge">
<title>Node5&#45;&gt;Node7</title>
<g id="a_edge11_Node000007_Node000005"><a xlink:title=" ">
<path fill="none" stroke="#9a32cd" stroke-dasharray="5,2" d="M333.67,-211.27C356.48,-199.83 390.51,-182.98 420.5,-169 433.81,-162.79 448.95,-156.11 460.68,-151.01"/>
<polygon fill="#9a32cd" stroke="#9a32cd" points="331.99,-208.2 324.63,-215.82 335.13,-214.45 331.99,-208.2"/>
</a>
</g>
<text text-anchor="middle" x="433" y="-172" font-family="Helvetica,sans-Serif" font-size="10.00" fill="grey"> type</text>
</g>
<!-- Node6&#45;&gt;Node5 -->
<g id="edge8_Node000005_Node000006" class="edge">
<title>Node6&#45;&gt;Node5</title>
<g id="a_edge8_Node000005_Node000006"><a xlink:title=" ">
<path fill="none" stroke="#9a32cd" stroke-dasharray="5,2" d="M322.95,-161.17C318.78,-178.25 312.8,-202.78 309.64,-215.72"/>
<polygon fill="#9a32cd" stroke="#9a32cd" points="326.41,-161.76 325.38,-151.21 319.61,-160.1 326.41,-161.76"/>
</a>
</g>
<text text-anchor="middle" x="346.5" y="-172" font-family="Helvetica,sans-Serif" font-size="10.00" fill="grey"> members</text>
</g>
<!-- Node7&#45;&gt;Node5 -->
<g id="edge10_Node000005_Node000007" class="edge">
<title>Node7&#45;&gt;Node5</title>
<g id="a_edge10_Node000005_Node000007"><a xlink:title=" ">
<path fill="none" stroke="#9a32cd" stroke-dasharray="5,2" d="M469.63,-159.64C464.33,-166.81 457.39,-174.7 449.5,-180 417.66,-201.4 374.98,-212.95 344.75,-218.87"/>
<polygon fill="#9a32cd" stroke="#9a32cd" points="472.66,-161.41 475.42,-151.18 466.89,-157.46 472.66,-161.41"/>
</a>
</g>
<text text-anchor="middle" x="473" y="-172" font-family="Helvetica,sans-Serif" font-size="10.00" fill="grey"> args</text>
</g>
</g>
</svg>

<g id="navigator" transform="translate(0 0)" fill="#404254">
  <rect fill="#f2f5e9" fill-opacity="0.5" stroke="#606060" stroke-width=".5" x="0" y="0" width="60" height="60"/>
  <use id="zoomplus" xlink:href="#zoomPlus" x="17" y="9" onmousedown="handleZoom(evt,'in')"/>
  <use id="zoomminus" xlink:href="#zoomMin" x="42" y="9" onmousedown="handleZoom(evt,'out')"/>
  <use id="reset" xlink:href="#resetDef" x="30" y="36" onmousedown="handleReset()"/>
   <use id="arrowup" xlink:href="#arrowUp" x="0" y="0" onmousedown="handlePan(0,-1)"/>
  <use id="arrowright" xlink:href="#arrowRight" x="0" y="0" onmousedown="handlePan(1,0)"/>
  <use id="arrowdown" xlink:href="#arrowDown" x="0" y="0" onmousedown="handlePan(0,1)"/>
  <use id="arrowleft" xlink:href="#arrowLeft" x="0" y="0" onmousedown="handlePan(-1,0)"/>
</g>
<svg viewBox="0 0 15 15" width="100%" height="30px" preserveAspectRatio="xMaxYMin meet">
 <g id="arrow_out" transform="scale(0.3 0.3)">
  <a xlink:href="structinfix__registry__iterator__t__coll__graph_org.svg" target="_base">
   <rect id="button" ry="5" rx="5" y="6" x="6" height="38" width="38"
        fill="#f2f5e9" fill-opacity="0.5" stroke="#606060" stroke-width="1.0"/>
   <path id="arrow"
     d="M 11.500037,31.436501 C 11.940474,20.09759 22.043105,11.32322 32.158766,21.979434 L 37.068811,17.246167 C 37.068811,17.246167 37.088388,32 37.088388,32 L 22.160133,31.978069 C 22.160133,31.978069 26.997745,27.140456 26.997745,27.140456 C 18.528582,18.264221 13.291696,25.230495 11.500037,31.436501 z"
     style="fill:#404040;"/>
  </a>
 </g>
</svg>

<style type='text/css'>
<![CDATA[
[data-mouse-over-selected='false'] { opacity: 0.7; }
[data-mouse-over-selected='true']  { opacity: 1.0; }
]]>
</style>
<script type="application/ecmascript"><![CDATA[
document.addEventListener('DOMContentLoaded', (event) => {
  highlightEdges();
  highlightAdjacentNodes();
});
]]></script>
</svg>
