<?xml version="1.0" encoding="UTF-8" standalone="no"?>
<!DOCTYPE svg PUBLIC "-//W3C//DTD SVG 1.1//EN"
 "http://www.w3.org/Graphics/SVG/1.1/DTD/svg11.dtd">
<!-- Generated by graphviz version 2.43.0 (0)
 -->
<!-- Title: src/jit/trampoline.c Pages: 1 -->
<svg width="742pt" height="247pt"
 viewBox="0.00 0.00 741.50 247.00" xmlns="http://www.w3.org/2000/svg" xmlns:xlink="http://www.w3.org/1999/xlink">
<g id="graph0" class="graph" transform="scale(1 1) rotate(0) translate(4 243)">
<title>src/jit/trampoline.c</title>
<!-- Node1 -->
<g id="Node000001" class="node">
<title>Node1</title>
<g id="a_Node000001"><a xlink:title="The core JIT engine for generating forward and reverse trampolines.">
<polygon fill="#999999" stroke="#666666" points="520.5,-239 412.5,-239 412.5,-220 520.5,-220 520.5,-239"/>
<text text-anchor="middle" x="466.5" y="-227" font-family="Helvetica,sans-Serif" font-size="10.00">src/jit/trampoline.c</text>
</a>
</g>
</g>
<!-- Node2 -->
<g id="Node000002" class="node">
<title>Node2</title>
<g id="a_Node000002"><a xlink:href="infix__internals_8h.html" target="_top" xlink:title="Internal data structures, function prototypes, and constants.">
<polygon fill="white" stroke="#666666" points="285.5,-184 145.5,-184 145.5,-165 285.5,-165 285.5,-184"/>
<text text-anchor="middle" x="215.5" y="-172" font-family="Helvetica,sans-Serif" font-size="10.00">common/infix_internals.h</text>
</a>
</g>
</g>
<!-- Node1&#45;&gt;Node2 -->
<g id="edge1_Node000001_Node000002" class="edge">
<title>Node1&#45;&gt;Node2</title>
<g id="a_edge1_Node000001_Node000002"><a xlink:title=" ">
<path fill="none" stroke="#63b8ff" d="M426.17,-219.98C382.66,-210.8 313.3,-196.15 266.15,-186.19"/>
<polygon fill="#63b8ff" stroke="#63b8ff" points="266.65,-182.72 256.14,-184.08 265.2,-189.57 266.65,-182.72"/>
</a>
</g>
</g>
<!-- Node10 -->
<g id="Node000010" class="node">
<title>Node10</title>
<g id="a_Node000010"><a xlink:href="utility_8h.html" target="_top" xlink:title="A header for conditionally compiled debugging utilities.">
<polygon fill="white" stroke="#666666" points="433.5,-129 335.5,-129 335.5,-110 433.5,-110 433.5,-129"/>
<text text-anchor="middle" x="384.5" y="-117" font-family="Helvetica,sans-Serif" font-size="10.00">common/utility.h</text>
</a>
</g>
</g>
<!-- Node1&#45;&gt;Node10 -->
<g id="edge14_Node000001_Node000010" class="edge">
<title>Node1&#45;&gt;Node10</title>
<g id="a_edge14_Node000001_Node000010"><a xlink:title=" ">
<path fill="none" stroke="#63b8ff" d="M417.65,-219.95C397,-213.65 374.88,-202.77 362.5,-184 353.1,-169.76 361.62,-151.06 370.66,-137.65"/>
<polygon fill="#63b8ff" stroke="#63b8ff" points="373.67,-139.46 376.78,-129.33 368.03,-135.31 373.67,-139.46"/>
</a>
</g>
</g>
<!-- Node11 -->
<g id="Node000011" class="node">
<title>Node11</title>
<g id="a_Node000011"><a xlink:title=" ">
<polygon fill="#e0e0e0" stroke="#999999" points="421.5,-184 371.5,-184 371.5,-165 421.5,-165 421.5,-184"/>
<text text-anchor="middle" x="396.5" y="-172" font-family="Helvetica,sans-Serif" font-size="10.00">stdio.h</text>
</a>
</g>
</g>
<!-- Node1&#45;&gt;Node11 -->
<g id="edge17_Node000001_Node000011" class="edge">
<title>Node1&#45;&gt;Node11</title>
<g id="a_edge17_Node000001_Node000011"><a xlink:title=" ">
<path fill="none" stroke="#63b8ff" d="M455.25,-219.98C444.7,-212 428.7,-199.88 416.06,-190.31"/>
<polygon fill="#63b8ff" stroke="#63b8ff" points="418.04,-187.42 407.95,-184.17 413.81,-193 418.04,-187.42"/>
</a>
</g>
</g>
<!-- Node12 -->
<g id="Node000012" class="node">
<title>Node12</title>
<g id="a_Node000012"><a xlink:title=" ">
<polygon fill="#e0e0e0" stroke="#999999" points="493,-184 440,-184 440,-165 493,-165 493,-184"/>
<text text-anchor="middle" x="466.5" y="-172" font-family="Helvetica,sans-Serif" font-size="10.00">stdlib.h</text>
</a>
</g>
</g>
<!-- Node1&#45;&gt;Node12 -->
<g id="edge18_Node000001_Node000012" class="edge">
<title>Node1&#45;&gt;Node12</title>
<g id="a_edge18_Node000001_Node000012"><a xlink:title=" ">
<path fill="none" stroke="#63b8ff" d="M466.5,-219.75C466.5,-212.8 466.5,-202.85 466.5,-194.13"/>
<polygon fill="#63b8ff" stroke="#63b8ff" points="470,-194.09 466.5,-184.09 463,-194.09 470,-194.09"/>
</a>
</g>
</g>
<!-- Node13 -->
<g id="Node000013" class="node">
<title>Node13</title>
<g id="a_Node000013"><a xlink:title=" ">
<polygon fill="#e0e0e0" stroke="#999999" points="564,-184 511,-184 511,-165 564,-165 564,-184"/>
<text text-anchor="middle" x="537.5" y="-172" font-family="Helvetica,sans-Serif" font-size="10.00">string.h</text>
</a>
</g>
</g>
<!-- Node1&#45;&gt;Node13 -->
<g id="edge19_Node000001_Node000013" class="edge">
<title>Node1&#45;&gt;Node13</title>
<g id="a_edge19_Node000001_Node000013"><a xlink:title=" ">
<path fill="none" stroke="#63b8ff" d="M477.91,-219.98C488.61,-212 504.84,-199.88 517.66,-190.31"/>
<polygon fill="#63b8ff" stroke="#63b8ff" points="519.97,-192.96 525.89,-184.17 515.78,-187.35 519.97,-192.96"/>
</a>
</g>
</g>
<!-- Node14 -->
<g id="Node000014" class="node">
<title>Node14</title>
<g id="a_Node000014"><a xlink:title=" ">
<polygon fill="#e0e0e0" stroke="#999999" points="659,-184 582,-184 582,-165 659,-165 659,-184"/>
<text text-anchor="middle" x="620.5" y="-172" font-family="Helvetica,sans-Serif" font-size="10.00">sys/mman.h</text>
</a>
</g>
</g>
<!-- Node1&#45;&gt;Node14 -->
<g id="edge20_Node000001_Node000014" class="edge">
<title>Node1&#45;&gt;Node14</title>
<g id="a_edge20_Node000001_Node000014"><a xlink:title=" ">
<path fill="none" stroke="#63b8ff" d="M491.24,-219.98C516.87,-211.16 557.13,-197.31 585.91,-187.41"/>
<polygon fill="#63b8ff" stroke="#63b8ff" points="587.25,-190.65 595.56,-184.08 584.97,-184.03 587.25,-190.65"/>
</a>
</g>
</g>
<!-- Node15 -->
<g id="Node000015" class="node">
<title>Node15</title>
<g id="a_Node000015"><a xlink:title=" ">
<polygon fill="#e0e0e0" stroke="#999999" points="733.5,-184 677.5,-184 677.5,-165 733.5,-165 733.5,-184"/>
<text text-anchor="middle" x="705.5" y="-172" font-family="Helvetica,sans-Serif" font-size="10.00">unistd.h</text>
</a>
</g>
</g>
<!-- Node1&#45;&gt;Node15 -->
<g id="edge21_Node000001_Node000015" class="edge">
<title>Node1&#45;&gt;Node15</title>
<g id="a_edge21_Node000001_Node000015"><a xlink:title=" ">
<path fill="none" stroke="#63b8ff" d="M505.63,-219.99C544.27,-211.56 605.32,-198.18 667.28,-184.26"/>
<polygon fill="#63b8ff" stroke="#63b8ff" points="668.24,-187.63 677.22,-182.02 666.7,-180.8 668.24,-187.63"/>
</a>
</g>
</g>
<!-- Node3 -->
<g id="Node000003" class="node">
<title>Node3</title>
<g id="a_Node000003"><a xlink:href="infix__config_8h.html" target="_top" xlink:title="Platform, architecture, and ABI detection macros.">
<polygon fill="white" stroke="#666666" points="127,-74 0,-74 0,-55 127,-55 127,-74"/>
<text text-anchor="middle" x="63.5" y="-62" font-family="Helvetica,sans-Serif" font-size="10.00">common/infix_config.h</text>
</a>
</g>
</g>
<!-- Node2&#45;&gt;Node3 -->
<g id="edge2_Node000002_Node000003" class="edge">
<title>Node2&#45;&gt;Node3</title>
<g id="a_edge2_Node000002_Node000003"><a xlink:title=" ">
<path fill="none" stroke="#63b8ff" d="M168.3,-164.97C143.9,-158.53 115.01,-147.53 94.5,-129 81.15,-116.94 72.92,-97.87 68.33,-83.77"/>
<polygon fill="#63b8ff" stroke="#63b8ff" points="71.68,-82.76 65.5,-74.15 64.97,-84.73 71.68,-82.76"/>
</a>
</g>
</g>
<!-- Node4 -->
<g id="Node000004" class="node">
<title>Node4</title>
<g id="a_Node000004"><a xlink:href="platform_8h.html" target="_top" xlink:title="Declares internal, runtime CPU/OS feature detection functions.">
<polygon fill="white" stroke="#666666" points="217,-129 104,-129 104,-110 217,-110 217,-129"/>
<text text-anchor="middle" x="160.5" y="-117" font-family="Helvetica,sans-Serif" font-size="10.00">common/platform.h</text>
</a>
</g>
</g>
<!-- Node2&#45;&gt;Node4 -->
<g id="edge3_Node000002_Node000004" class="edge">
<title>Node2&#45;&gt;Node4</title>
<g id="a_edge3_Node000002_Node000004"><a xlink:title=" ">
<path fill="none" stroke="#63b8ff" d="M206.42,-164.75C198.41,-157.03 186.54,-145.6 176.88,-136.28"/>
<polygon fill="#63b8ff" stroke="#63b8ff" points="179.04,-133.51 169.41,-129.09 174.19,-138.55 179.04,-133.51"/>
</a>
</g>
</g>
<!-- Node8 -->
<g id="Node000008" class="node">
<title>Node8</title>
<g id="a_Node000008"><a xlink:href="infix_8h.html" target="_top" xlink:title="The public interface for the infix FFI library.">
<polygon fill="white" stroke="#666666" points="317,-129 246,-129 246,-110 317,-110 317,-129"/>
<text text-anchor="middle" x="281.5" y="-117" font-family="Helvetica,sans-Serif" font-size="10.00">infix/infix.h</text>
</a>
</g>
</g>
<!-- Node2&#45;&gt;Node8 -->
<g id="edge9_Node000002_Node000008" class="edge">
<title>Node2&#45;&gt;Node8</title>
<g id="a_edge9_Node000002_Node000008"><a xlink:title=" ">
<path fill="none" stroke="#63b8ff" d="M226.1,-164.98C235.96,-157.07 250.85,-145.11 262.72,-135.58"/>
<polygon fill="#63b8ff" stroke="#63b8ff" points="265.1,-138.16 270.7,-129.17 260.71,-132.7 265.1,-138.16"/>
</a>
</g>
</g>
<!-- Node4&#45;&gt;Node3 -->
<g id="edge7_Node000004_Node000003" class="edge">
<title>Node4&#45;&gt;Node3</title>
<g id="a_edge7_Node000004_Node000003"><a xlink:title=" ">
<path fill="none" stroke="#63b8ff" d="M144.92,-109.98C129.73,-101.69 106.4,-88.94 88.6,-79.22"/>
<polygon fill="#63b8ff" stroke="#63b8ff" points="89.82,-75.89 79.37,-74.17 86.47,-82.04 89.82,-75.89"/>
</a>
</g>
</g>
<!-- Node5 -->
<g id="Node000005" class="node">
<title>Node5</title>
<g id="a_Node000005"><a xlink:href="compat__c23_8h.html" target="_top" xlink:title="Provides forward compatibility macros for C23 features.">
<polygon fill="white" stroke="#666666" points="353,-74 222,-74 222,-55 353,-55 353,-74"/>
<text text-anchor="middle" x="287.5" y="-62" font-family="Helvetica,sans-Serif" font-size="10.00">common/compat_c23.h</text>
</a>
</g>
</g>
<!-- Node4&#45;&gt;Node5 -->
<g id="edge4_Node000004_Node000005" class="edge">
<title>Node4&#45;&gt;Node5</title>
<g id="a_edge4_Node000004_Node000005"><a xlink:title=" ">
<path fill="none" stroke="#63b8ff" d="M180.9,-109.98C201.52,-101.38 233.61,-87.99 257.19,-78.15"/>
<polygon fill="#63b8ff" stroke="#63b8ff" points="258.84,-81.25 266.72,-74.17 256.15,-74.79 258.84,-81.25"/>
</a>
</g>
</g>
<!-- Node6 -->
<g id="Node000006" class="node">
<title>Node6</title>
<g id="a_Node000006"><a xlink:title=" ">
<polygon fill="#e0e0e0" stroke="#999999" points="224.5,-19 162.5,-19 162.5,0 224.5,0 224.5,-19"/>
<text text-anchor="middle" x="193.5" y="-7" font-family="Helvetica,sans-Serif" font-size="10.00">stdbool.h</text>
</a>
</g>
</g>
<!-- Node4&#45;&gt;Node6 -->
<g id="edge8_Node000004_Node000006" class="edge">
<title>Node4&#45;&gt;Node6</title>
<g id="a_edge8_Node000004_Node000006"><a xlink:title=" ">
<path fill="none" stroke="#63b8ff" d="M163.04,-109.86C166.65,-97.63 173.49,-74.58 179.5,-55 182.15,-46.38 185.14,-36.83 187.68,-28.8"/>
<polygon fill="#63b8ff" stroke="#63b8ff" points="191.09,-29.61 190.78,-19.02 184.42,-27.49 191.09,-29.61"/>
</a>
</g>
</g>
<!-- Node5&#45;&gt;Node6 -->
<g id="edge5_Node000005_Node000006" class="edge">
<title>Node5&#45;&gt;Node6</title>
<g id="a_edge5_Node000005_Node000006"><a xlink:title=" ">
<path fill="none" stroke="#63b8ff" d="M272.4,-54.98C257.68,-46.69 235.08,-33.94 217.83,-24.22"/>
<polygon fill="#63b8ff" stroke="#63b8ff" points="219.31,-21.03 208.88,-19.17 215.87,-27.13 219.31,-21.03"/>
</a>
</g>
</g>
<!-- Node7 -->
<g id="Node000007" class="node">
<title>Node7</title>
<g id="a_Node000007"><a xlink:title=" ">
<polygon fill="#e0e0e0" stroke="#999999" points="480.5,-19 424.5,-19 424.5,0 480.5,0 480.5,-19"/>
<text text-anchor="middle" x="452.5" y="-7" font-family="Helvetica,sans-Serif" font-size="10.00">stddef.h</text>
</a>
</g>
</g>
<!-- Node5&#45;&gt;Node7 -->
<g id="edge6_Node000005_Node000007" class="edge">
<title>Node5&#45;&gt;Node7</title>
<g id="a_edge6_Node000005_Node000007"><a xlink:title=" ">
<path fill="none" stroke="#63b8ff" d="M314.01,-54.98C341.71,-46.09 385.36,-32.07 416.24,-22.15"/>
<polygon fill="#63b8ff" stroke="#63b8ff" points="417.33,-25.47 425.78,-19.08 415.19,-18.81 417.33,-25.47"/>
</a>
</g>
</g>
<!-- Node8&#45;&gt;Node5 -->
<g id="edge10_Node000008_Node000005" class="edge">
<title>Node8&#45;&gt;Node5</title>
<g id="a_edge10_Node000008_Node000005"><a xlink:title=" ">
<path fill="none" stroke="#63b8ff" d="M282.49,-109.75C283.28,-102.8 284.4,-92.85 285.39,-84.13"/>
<polygon fill="#63b8ff" stroke="#63b8ff" points="288.88,-84.42 286.53,-74.09 281.92,-83.63 288.88,-84.42"/>
</a>
</g>
</g>
<!-- Node8&#45;&gt;Node6 -->
<g id="edge11_Node000008_Node000006" class="edge">
<title>Node8&#45;&gt;Node6</title>
<g id="a_edge11_Node000008_Node000006"><a xlink:title=" ">
<path fill="none" stroke="#63b8ff" d="M260.84,-109.98C245.4,-102.61 224.92,-90.52 212.5,-74 202.67,-60.92 197.9,-42.78 195.6,-29.24"/>
<polygon fill="#63b8ff" stroke="#63b8ff" points="199.04,-28.57 194.19,-19.15 192.11,-29.54 199.04,-28.57"/>
</a>
</g>
</g>
<!-- Node8&#45;&gt;Node7 -->
<g id="edge12_Node000008_Node000007" class="edge">
<title>Node8&#45;&gt;Node7</title>
<g id="a_edge12_Node000008_Node000007"><a xlink:title=" ">
<path fill="none" stroke="#63b8ff" d="M316.89,-109.93C358.83,-99.49 424.11,-82.23 432.5,-74 444.48,-62.24 449.3,-43.4 451.23,-29.29"/>
<polygon fill="#63b8ff" stroke="#63b8ff" points="454.73,-29.51 452.25,-19.21 447.76,-28.81 454.73,-29.51"/>
</a>
</g>
</g>
<!-- Node9 -->
<g id="Node000009" class="node">
<title>Node9</title>
<g id="a_Node000009"><a xlink:title=" ">
<polygon fill="#e0e0e0" stroke="#999999" points="424,-74 371,-74 371,-55 424,-55 424,-74"/>
<text text-anchor="middle" x="397.5" y="-62" font-family="Helvetica,sans-Serif" font-size="10.00">stdint.h</text>
</a>
</g>
</g>
<!-- Node8&#45;&gt;Node9 -->
<g id="edge13_Node000008_Node000009" class="edge">
<title>Node8&#45;&gt;Node9</title>
<g id="a_edge13_Node000008_Node000009"><a xlink:title=" ">
<path fill="none" stroke="#63b8ff" d="M300.14,-109.98C318.8,-101.46 347.75,-88.23 369.24,-78.41"/>
<polygon fill="#63b8ff" stroke="#63b8ff" points="370.88,-81.51 378.52,-74.17 367.97,-75.14 370.88,-81.51"/>
</a>
</g>
</g>
<!-- Node10&#45;&gt;Node5 -->
<g id="edge15_Node000010_Node000005" class="edge">
<title>Node10&#45;&gt;Node5</title>
<g id="a_edge15_Node000010_Node000005"><a xlink:title=" ">
<path fill="none" stroke="#63b8ff" d="M368.92,-109.98C353.73,-101.69 330.4,-88.94 312.6,-79.22"/>
<polygon fill="#63b8ff" stroke="#63b8ff" points="313.82,-75.89 303.37,-74.17 310.47,-82.04 313.82,-75.89"/>
</a>
</g>
</g>
<!-- Node10&#45;&gt;Node7 -->
<g id="edge16_Node000010_Node000007" class="edge">
<title>Node10&#45;&gt;Node7</title>
<g id="a_edge16_Node000010_Node000007"><a xlink:title=" ">
<path fill="none" stroke="#63b8ff" d="M416.71,-109.92C434.75,-103.29 455.73,-92.09 466.5,-74 474.78,-60.08 469.39,-41.83 463.04,-28.46"/>
<polygon fill="#63b8ff" stroke="#63b8ff" points="465.99,-26.55 458.22,-19.35 459.8,-29.82 465.99,-26.55"/>
</a>
</g>
</g>
</g>
</svg>
