<?xml version="1.0" encoding="UTF-8" standalone="no"?>
<!DOCTYPE svg PUBLIC "-//W3C//DTD SVG 1.1//EN"
 "http://www.w3.org/Graphics/SVG/1.1/DTD/svg11.dtd">
<!-- Generated by graphviz version 2.43.0 (0)
 -->
<!-- Title: src/core/types.c Pages: 1 -->
<svg width="568pt" height="247pt"
 viewBox="0.00 0.00 568.01 247.00" xmlns="http://www.w3.org/2000/svg" xmlns:xlink="http://www.w3.org/1999/xlink">
<g id="graph0" class="graph" transform="scale(1 1) rotate(0) translate(4 243)">
<title>src/core/types.c</title>
<!-- Node1 -->
<g id="Node000001" class="node">
<title>Node1</title>
<g id="a_Node000001"><a xlink:title="Implements the public API for creating and managing type descriptions.">
<polygon fill="#999999" stroke="#666666" points="404.01,-239 311.01,-239 311.01,-220 404.01,-220 404.01,-239"/>
<text text-anchor="middle" x="357.51" y="-227" font-family="Helvetica,sans-Serif" font-size="10.00">src/core/types.c</text>
</a>
</g>
</g>
<!-- Node2 -->
<g id="Node000002" class="node">
<title>Node2</title>
<g id="a_Node000002"><a xlink:href="infix__internals_8h.html" target="_top" xlink:title="Internal data structures, function prototypes, and constants.">
<polygon fill="white" stroke="#666666" points="223.51,-184 83.51,-184 83.51,-165 223.51,-165 223.51,-184"/>
<text text-anchor="middle" x="153.51" y="-172" font-family="Helvetica,sans-Serif" font-size="10.00">common/infix_internals.h</text>
</a>
</g>
</g>
<!-- Node1&#45;&gt;Node2 -->
<g id="edge1_Node000001_Node000002" class="edge">
<title>Node1&#45;&gt;Node2</title>
<g id="a_edge1_Node000001_Node000002"><a xlink:title=" ">
<path fill="none" stroke="#63b8ff" d="M324.73,-219.98C289.89,-210.93 234.64,-196.58 196.37,-186.64"/>
<polygon fill="#63b8ff" stroke="#63b8ff" points="197.1,-183.21 186.54,-184.08 195.34,-189.98 197.1,-183.21"/>
</a>
</g>
</g>
<!-- Node9 -->
<g id="Node000009" class="node">
<title>Node9</title>
<g id="a_Node000009"><a xlink:href="utility_8h.html" target="_top" xlink:title="A header for conditionally compiled debugging utilities.">
<polygon fill="white" stroke="#666666" points="333.51,-129 235.51,-129 235.51,-110 333.51,-110 333.51,-129"/>
<text text-anchor="middle" x="284.51" y="-117" font-family="Helvetica,sans-Serif" font-size="10.00">common/utility.h</text>
</a>
</g>
</g>
<!-- Node1&#45;&gt;Node9 -->
<g id="edge10_Node000001_Node000009" class="edge">
<title>Node1&#45;&gt;Node9</title>
<g id="a_edge10_Node000001_Node000009"><a xlink:title=" ">
<path fill="none" stroke="#63b8ff" d="M332.53,-219.95C316.35,-212.98 296.5,-201.41 286.51,-184 278.78,-170.55 278.94,-152.71 280.65,-139.37"/>
<polygon fill="#63b8ff" stroke="#63b8ff" points="284.12,-139.85 282.32,-129.41 277.22,-138.7 284.12,-139.85"/>
</a>
</g>
</g>
<!-- Node10 -->
<g id="Node000010" class="node">
<title>Node10</title>
<g id="a_Node000010"><a xlink:title=" ">
<polygon fill="#e0e0e0" stroke="#999999" points="349.01,-184 296.01,-184 296.01,-165 349.01,-165 349.01,-184"/>
<text text-anchor="middle" x="322.51" y="-172" font-family="Helvetica,sans-Serif" font-size="10.00">limits.h</text>
</a>
</g>
</g>
<!-- Node1&#45;&gt;Node10 -->
<g id="edge13_Node000001_Node000010" class="edge">
<title>Node1&#45;&gt;Node10</title>
<g id="a_edge13_Node000001_Node000010"><a xlink:title=" ">
<path fill="none" stroke="#63b8ff" d="M351.73,-219.75C346.89,-212.42 339.83,-201.73 333.86,-192.7"/>
<polygon fill="#63b8ff" stroke="#63b8ff" points="336.61,-190.5 328.18,-184.09 330.77,-194.36 336.61,-190.5"/>
</a>
</g>
</g>
<!-- Node11 -->
<g id="Node000011" class="node">
<title>Node11</title>
<g id="a_Node000011"><a xlink:title=" ">
<polygon fill="#e0e0e0" stroke="#999999" points="417.51,-184 367.51,-184 367.51,-165 417.51,-165 417.51,-184"/>
<text text-anchor="middle" x="392.51" y="-172" font-family="Helvetica,sans-Serif" font-size="10.00">stdio.h</text>
</a>
</g>
</g>
<!-- Node1&#45;&gt;Node11 -->
<g id="edge14_Node000001_Node000011" class="edge">
<title>Node1&#45;&gt;Node11</title>
<g id="a_edge14_Node000001_Node000011"><a xlink:title=" ">
<path fill="none" stroke="#63b8ff" d="M363.29,-219.75C368.13,-212.42 375.19,-201.73 381.15,-192.7"/>
<polygon fill="#63b8ff" stroke="#63b8ff" points="384.24,-194.36 386.83,-184.09 378.4,-190.5 384.24,-194.36"/>
</a>
</g>
</g>
<!-- Node12 -->
<g id="Node000012" class="node">
<title>Node12</title>
<g id="a_Node000012"><a xlink:title=" ">
<polygon fill="#e0e0e0" stroke="#999999" points="489.01,-184 436.01,-184 436.01,-165 489.01,-165 489.01,-184"/>
<text text-anchor="middle" x="462.51" y="-172" font-family="Helvetica,sans-Serif" font-size="10.00">stdlib.h</text>
</a>
</g>
</g>
<!-- Node1&#45;&gt;Node12 -->
<g id="edge15_Node000001_Node000012" class="edge">
<title>Node1&#45;&gt;Node12</title>
<g id="a_edge15_Node000001_Node000012"><a xlink:title=" ">
<path fill="none" stroke="#63b8ff" d="M374.38,-219.98C391.12,-211.54 417,-198.47 436.4,-188.68"/>
<polygon fill="#63b8ff" stroke="#63b8ff" points="437.98,-191.8 445.33,-184.17 434.83,-185.55 437.98,-191.8"/>
</a>
</g>
</g>
<!-- Node13 -->
<g id="Node000013" class="node">
<title>Node13</title>
<g id="a_Node000013"><a xlink:title=" ">
<polygon fill="#e0e0e0" stroke="#999999" points="560.01,-184 507.01,-184 507.01,-165 560.01,-165 560.01,-184"/>
<text text-anchor="middle" x="533.51" y="-172" font-family="Helvetica,sans-Serif" font-size="10.00">string.h</text>
</a>
</g>
</g>
<!-- Node1&#45;&gt;Node13 -->
<g id="edge16_Node000001_Node000013" class="edge">
<title>Node1&#45;&gt;Node13</title>
<g id="a_edge16_Node000001_Node000013"><a xlink:title=" ">
<path fill="none" stroke="#63b8ff" d="M385.78,-219.98C415.99,-210.89 463.97,-196.44 497,-186.49"/>
<polygon fill="#63b8ff" stroke="#63b8ff" points="498.18,-189.79 506.74,-183.56 496.16,-183.09 498.18,-189.79"/>
</a>
</g>
</g>
<!-- Node3 -->
<g id="Node000003" class="node">
<title>Node3</title>
<g id="a_Node000003"><a xlink:href="infix__config_8h.html" target="_top" xlink:title="Platform, architecture, and ABI detection macros.">
<polygon fill="white" stroke="#666666" points="217.01,-129 90.01,-129 90.01,-110 217.01,-110 217.01,-129"/>
<text text-anchor="middle" x="153.51" y="-117" font-family="Helvetica,sans-Serif" font-size="10.00">common/infix_config.h</text>
</a>
</g>
</g>
<!-- Node2&#45;&gt;Node3 -->
<g id="edge2_Node000002_Node000003" class="edge">
<title>Node2&#45;&gt;Node3</title>
<g id="a_edge2_Node000002_Node000003"><a xlink:title=" ">
<path fill="none" stroke="#63b8ff" d="M153.51,-164.75C153.51,-157.8 153.51,-147.85 153.51,-139.13"/>
<polygon fill="#63b8ff" stroke="#63b8ff" points="157.01,-139.09 153.51,-129.09 150.01,-139.09 157.01,-139.09"/>
</a>
</g>
</g>
<!-- Node4 -->
<g id="Node000004" class="node">
<title>Node4</title>
<g id="a_Node000004"><a xlink:href="infix_8h.html" target="_top" xlink:title="The public interface for the infix FFI library.">
<polygon fill="white" stroke="#666666" points="72.01,-129 1.01,-129 1.01,-110 72.01,-110 72.01,-129"/>
<text text-anchor="middle" x="36.51" y="-117" font-family="Helvetica,sans-Serif" font-size="10.00">infix/infix.h</text>
</a>
</g>
</g>
<!-- Node2&#45;&gt;Node4 -->
<g id="edge3_Node000002_Node000004" class="edge">
<title>Node2&#45;&gt;Node4</title>
<g id="a_edge3_Node000002_Node000004"><a xlink:title=" ">
<path fill="none" stroke="#63b8ff" d="M134.71,-164.98C115.89,-156.46 86.68,-143.23 65.01,-133.41"/>
<polygon fill="#63b8ff" stroke="#63b8ff" points="66.2,-130.11 55.65,-129.17 63.31,-136.48 66.2,-130.11"/>
</a>
</g>
</g>
<!-- Node5 -->
<g id="Node000005" class="node">
<title>Node5</title>
<g id="a_Node000005"><a xlink:href="compat__c23_8h.html" target="_top" xlink:title="Provides forward compatibility macros for C23 features.">
<polygon fill="white" stroke="#666666" points="253.01,-74 122.01,-74 122.01,-55 253.01,-55 253.01,-74"/>
<text text-anchor="middle" x="187.51" y="-62" font-family="Helvetica,sans-Serif" font-size="10.00">common/compat_c23.h</text>
</a>
</g>
</g>
<!-- Node4&#45;&gt;Node5 -->
<g id="edge4_Node000004_Node000005" class="edge">
<title>Node4&#45;&gt;Node5</title>
<g id="a_edge4_Node000004_Node000005"><a xlink:title=" ">
<path fill="none" stroke="#63b8ff" d="M60.77,-109.98C85.82,-101.19 125.14,-87.39 153.34,-77.49"/>
<polygon fill="#63b8ff" stroke="#63b8ff" points="154.53,-80.78 162.8,-74.17 152.21,-74.18 154.53,-80.78"/>
</a>
</g>
</g>
<!-- Node6 -->
<g id="Node000006" class="node">
<title>Node6</title>
<g id="a_Node000006"><a xlink:title=" ">
<polygon fill="#e0e0e0" stroke="#999999" points="78.51,-19 16.51,-19 16.51,0 78.51,0 78.51,-19"/>
<text text-anchor="middle" x="47.51" y="-7" font-family="Helvetica,sans-Serif" font-size="10.00">stdbool.h</text>
</a>
</g>
</g>
<!-- Node4&#45;&gt;Node6 -->
<g id="edge7_Node000004_Node000006" class="edge">
<title>Node4&#45;&gt;Node6</title>
<g id="a_edge7_Node000004_Node000006"><a xlink:title=" ">
<path fill="none" stroke="#63b8ff" d="M26.14,-109.72C13.28,-97.71 -5.97,-75.31 2.51,-55 7.37,-43.36 16.92,-33.2 25.98,-25.55"/>
<polygon fill="#63b8ff" stroke="#63b8ff" points="28.31,-28.17 34.02,-19.25 23.99,-22.67 28.31,-28.17"/>
</a>
</g>
</g>
<!-- Node7 -->
<g id="Node000007" class="node">
<title>Node7</title>
<g id="a_Node000007"><a xlink:title=" ">
<polygon fill="#e0e0e0" stroke="#999999" points="215.51,-19 159.51,-19 159.51,0 215.51,0 215.51,-19"/>
<text text-anchor="middle" x="187.51" y="-7" font-family="Helvetica,sans-Serif" font-size="10.00">stddef.h</text>
</a>
</g>
</g>
<!-- Node4&#45;&gt;Node7 -->
<g id="edge8_Node000004_Node000007" class="edge">
<title>Node4&#45;&gt;Node7</title>
<g id="a_edge8_Node000004_Node000007"><a xlink:title=" ">
<path fill="none" stroke="#63b8ff" d="M45.94,-109.76C59.93,-97.01 87.24,-72.88 112.51,-55 128.42,-43.74 147.31,-32.54 162.14,-24.2"/>
<polygon fill="#63b8ff" stroke="#63b8ff" points="164.19,-27.07 171.24,-19.16 160.8,-20.95 164.19,-27.07"/>
</a>
</g>
</g>
<!-- Node8 -->
<g id="Node000008" class="node">
<title>Node8</title>
<g id="a_Node000008"><a xlink:title=" ">
<polygon fill="#e0e0e0" stroke="#999999" points="65.01,-74 12.01,-74 12.01,-55 65.01,-55 65.01,-74"/>
<text text-anchor="middle" x="38.51" y="-62" font-family="Helvetica,sans-Serif" font-size="10.00">stdint.h</text>
</a>
</g>
</g>
<!-- Node4&#45;&gt;Node8 -->
<g id="edge9_Node000004_Node000008" class="edge">
<title>Node4&#45;&gt;Node8</title>
<g id="a_edge9_Node000004_Node000008"><a xlink:title=" ">
<path fill="none" stroke="#63b8ff" d="M36.84,-109.75C37.1,-102.8 37.47,-92.85 37.8,-84.13"/>
<polygon fill="#63b8ff" stroke="#63b8ff" points="41.3,-84.21 38.18,-74.09 34.31,-83.95 41.3,-84.21"/>
</a>
</g>
</g>
<!-- Node5&#45;&gt;Node6 -->
<g id="edge5_Node000005_Node000006" class="edge">
<title>Node5&#45;&gt;Node6</title>
<g id="a_edge5_Node000005_Node000006"><a xlink:title=" ">
<path fill="none" stroke="#63b8ff" d="M165.01,-54.98C141.98,-46.27 105.97,-32.63 79.88,-22.75"/>
<polygon fill="#63b8ff" stroke="#63b8ff" points="81,-19.44 70.41,-19.17 78.52,-25.98 81,-19.44"/>
</a>
</g>
</g>
<!-- Node5&#45;&gt;Node7 -->
<g id="edge6_Node000005_Node000007" class="edge">
<title>Node5&#45;&gt;Node7</title>
<g id="a_edge6_Node000005_Node000007"><a xlink:title=" ">
<path fill="none" stroke="#63b8ff" d="M187.51,-54.75C187.51,-47.8 187.51,-37.85 187.51,-29.13"/>
<polygon fill="#63b8ff" stroke="#63b8ff" points="191.01,-29.09 187.51,-19.09 184.01,-29.09 191.01,-29.09"/>
</a>
</g>
</g>
<!-- Node9&#45;&gt;Node5 -->
<g id="edge11_Node000009_Node000005" class="edge">
<title>Node9&#45;&gt;Node5</title>
<g id="a_edge11_Node000009_Node000005"><a xlink:title=" ">
<path fill="none" stroke="#63b8ff" d="M268.92,-109.98C253.74,-101.69 230.41,-88.94 212.61,-79.22"/>
<polygon fill="#63b8ff" stroke="#63b8ff" points="213.83,-75.89 203.37,-74.17 210.47,-82.04 213.83,-75.89"/>
</a>
</g>
</g>
<!-- Node9&#45;&gt;Node7 -->
<g id="edge12_Node000009_Node000007" class="edge">
<title>Node9&#45;&gt;Node7</title>
<g id="a_edge12_Node000009_Node000007"><a xlink:title=" ">
<path fill="none" stroke="#63b8ff" d="M283.25,-109.78C280.97,-96.62 275.06,-71.48 261.51,-55 250.26,-41.32 233.63,-30.8 218.99,-23.42"/>
<polygon fill="#63b8ff" stroke="#63b8ff" points="220.26,-20.15 209.73,-19.03 217.26,-26.48 220.26,-20.15"/>
</a>
</g>
</g>
</g>
</svg>
