<?xml version="1.0" encoding="UTF-8" standalone="no"?>
<!DOCTYPE svg PUBLIC "-//W3C//DTD SVG 1.1//EN"
 "http://www.w3.org/Graphics/SVG/1.1/DTD/svg11.dtd">
<!-- Generated by graphviz version 2.43.0 (0)
 -->
<!-- Title: src/core/types.c Pages: 1 -->
<svg width="664pt" height="302pt"
 viewBox="0.00 0.00 664.00 302.00" xmlns="http://www.w3.org/2000/svg" xmlns:xlink="http://www.w3.org/1999/xlink">
<g id="graph0" class="graph" transform="scale(1 1) rotate(0) translate(4 298)">
<title>src/core/types.c</title>
<!-- Node1 -->
<g id="Node000001" class="node">
<title>Node1</title>
<g id="a_Node000001"><a xlink:title="Implements the public API for creating and managing type descriptions.">
<polygon fill="#999999" stroke="#666666" points="500,-294 407,-294 407,-275 500,-275 500,-294"/>
<text text-anchor="middle" x="453.5" y="-282" font-family="Helvetica,sans-Serif" font-size="10.00">src/core/types.c</text>
</a>
</g>
</g>
<!-- Node2 -->
<g id="Node000002" class="node">
<title>Node2</title>
<g id="a_Node000002"><a xlink:href="infix__internals_8h.html" target="_top" xlink:title="Internal data structures, function prototypes, and constants.">
<polygon fill="white" stroke="#666666" points="252.5,-239 112.5,-239 112.5,-220 252.5,-220 252.5,-239"/>
<text text-anchor="middle" x="182.5" y="-227" font-family="Helvetica,sans-Serif" font-size="10.00">common/infix_internals.h</text>
</a>
</g>
</g>
<!-- Node1&#45;&gt;Node2 -->
<g id="edge1_Node000001_Node000002" class="edge">
<title>Node1&#45;&gt;Node2</title>
<g id="a_edge1_Node000001_Node000002"><a xlink:title=" ">
<path fill="none" stroke="#63b8ff" d="M409.96,-274.98C362.69,-265.74 287.15,-250.97 236.22,-241.01"/>
<polygon fill="#63b8ff" stroke="#63b8ff" points="236.87,-237.57 226.38,-239.08 235.52,-244.44 236.87,-237.57"/>
</a>
</g>
</g>
<!-- Node11 -->
<g id="Node000011" class="node">
<title>Node11</title>
<g id="a_Node000011"><a xlink:href="utility_8h.html" target="_top" xlink:title="A header for conditionally compiled debugging utilities.">
<polygon fill="white" stroke="#666666" points="496.5,-184 398.5,-184 398.5,-165 496.5,-165 496.5,-184"/>
<text text-anchor="middle" x="447.5" y="-172" font-family="Helvetica,sans-Serif" font-size="10.00">common/utility.h</text>
</a>
</g>
</g>
<!-- Node1&#45;&gt;Node11 -->
<g id="edge16_Node000001_Node000011" class="edge">
<title>Node1&#45;&gt;Node11</title>
<g id="a_edge16_Node000001_Node000011"><a xlink:title=" ">
<path fill="none" stroke="#63b8ff" d="M428.69,-274.95C412.66,-267.99 393.07,-256.42 383.5,-239 372.23,-218.47 395.99,-200.25 417.69,-188.65"/>
<polygon fill="#63b8ff" stroke="#63b8ff" points="419.39,-191.71 426.76,-184.09 416.25,-185.46 419.39,-191.71"/>
</a>
</g>
</g>
<!-- Node12 -->
<g id="Node000012" class="node">
<title>Node12</title>
<g id="a_Node000012"><a xlink:title=" ">
<polygon fill="#e0e0e0" stroke="#999999" points="445,-239 392,-239 392,-220 445,-220 445,-239"/>
<text text-anchor="middle" x="418.5" y="-227" font-family="Helvetica,sans-Serif" font-size="10.00">limits.h</text>
</a>
</g>
</g>
<!-- Node1&#45;&gt;Node12 -->
<g id="edge19_Node000001_Node000012" class="edge">
<title>Node1&#45;&gt;Node12</title>
<g id="a_edge19_Node000001_Node000012"><a xlink:title=" ">
<path fill="none" stroke="#63b8ff" d="M447.72,-274.75C442.88,-267.42 435.82,-256.73 429.86,-247.7"/>
<polygon fill="#63b8ff" stroke="#63b8ff" points="432.6,-245.5 424.17,-239.09 426.76,-249.36 432.6,-245.5"/>
</a>
</g>
</g>
<!-- Node13 -->
<g id="Node000013" class="node">
<title>Node13</title>
<g id="a_Node000013"><a xlink:title=" ">
<polygon fill="#e0e0e0" stroke="#999999" points="513.5,-239 463.5,-239 463.5,-220 513.5,-220 513.5,-239"/>
<text text-anchor="middle" x="488.5" y="-227" font-family="Helvetica,sans-Serif" font-size="10.00">stdio.h</text>
</a>
</g>
</g>
<!-- Node1&#45;&gt;Node13 -->
<g id="edge20_Node000001_Node000013" class="edge">
<title>Node1&#45;&gt;Node13</title>
<g id="a_edge20_Node000001_Node000013"><a xlink:title=" ">
<path fill="none" stroke="#63b8ff" d="M459.28,-274.75C464.12,-267.42 471.18,-256.73 477.14,-247.7"/>
<polygon fill="#63b8ff" stroke="#63b8ff" points="480.24,-249.36 482.83,-239.09 474.4,-245.5 480.24,-249.36"/>
</a>
</g>
</g>
<!-- Node14 -->
<g id="Node000014" class="node">
<title>Node14</title>
<g id="a_Node000014"><a xlink:title=" ">
<polygon fill="#e0e0e0" stroke="#999999" points="585,-239 532,-239 532,-220 585,-220 585,-239"/>
<text text-anchor="middle" x="558.5" y="-227" font-family="Helvetica,sans-Serif" font-size="10.00">stdlib.h</text>
</a>
</g>
</g>
<!-- Node1&#45;&gt;Node14 -->
<g id="edge21_Node000001_Node000014" class="edge">
<title>Node1&#45;&gt;Node14</title>
<g id="a_edge21_Node000001_Node000014"><a xlink:title=" ">
<path fill="none" stroke="#63b8ff" d="M470.37,-274.98C487.11,-266.54 513,-253.47 532.39,-243.68"/>
<polygon fill="#63b8ff" stroke="#63b8ff" points="533.97,-246.8 541.32,-239.17 530.82,-240.55 533.97,-246.8"/>
</a>
</g>
</g>
<!-- Node15 -->
<g id="Node000015" class="node">
<title>Node15</title>
<g id="a_Node000015"><a xlink:title=" ">
<polygon fill="#e0e0e0" stroke="#999999" points="656,-239 603,-239 603,-220 656,-220 656,-239"/>
<text text-anchor="middle" x="629.5" y="-227" font-family="Helvetica,sans-Serif" font-size="10.00">string.h</text>
</a>
</g>
</g>
<!-- Node1&#45;&gt;Node15 -->
<g id="edge22_Node000001_Node000015" class="edge">
<title>Node1&#45;&gt;Node15</title>
<g id="a_edge22_Node000001_Node000015"><a xlink:title=" ">
<path fill="none" stroke="#63b8ff" d="M481.78,-274.98C511.98,-265.89 559.96,-251.44 593,-241.49"/>
<polygon fill="#63b8ff" stroke="#63b8ff" points="594.17,-244.79 602.74,-238.56 592.15,-238.09 594.17,-244.79"/>
</a>
</g>
</g>
<!-- Node3 -->
<g id="Node000003" class="node">
<title>Node3</title>
<g id="a_Node000003"><a xlink:href="infix__config_8h.html" target="_top" xlink:title="Platform, architecture, and ABI detection macros.">
<polygon fill="white" stroke="#666666" points="266,-74 139,-74 139,-55 266,-55 266,-74"/>
<text text-anchor="middle" x="202.5" y="-62" font-family="Helvetica,sans-Serif" font-size="10.00">common/infix_config.h</text>
</a>
</g>
</g>
<!-- Node2&#45;&gt;Node3 -->
<g id="edge2_Node000002_Node000003" class="edge">
<title>Node2&#45;&gt;Node3</title>
<g id="a_edge2_Node000002_Node000003"><a xlink:title=" ">
<path fill="none" stroke="#63b8ff" d="M159.72,-219.89C144.47,-212.79 125.58,-201.08 116.5,-184 112.53,-176.54 113.55,-172.91 116.5,-165 129.73,-129.46 162,-98.15 183.03,-80.54"/>
<polygon fill="#63b8ff" stroke="#63b8ff" points="185.45,-83.09 191,-74.07 181.03,-77.65 185.45,-83.09"/>
</a>
</g>
</g>
<!-- Node4 -->
<g id="Node000004" class="node">
<title>Node4</title>
<g id="a_Node000004"><a xlink:href="platform_8h.html" target="_top" xlink:title="Declares internal, runtime CPU/OS feature detection functions.">
<polygon fill="white" stroke="#666666" points="239,-184 126,-184 126,-165 239,-165 239,-184"/>
<text text-anchor="middle" x="182.5" y="-172" font-family="Helvetica,sans-Serif" font-size="10.00">common/platform.h</text>
</a>
</g>
</g>
<!-- Node2&#45;&gt;Node4 -->
<g id="edge3_Node000002_Node000004" class="edge">
<title>Node2&#45;&gt;Node4</title>
<g id="a_edge3_Node000002_Node000004"><a xlink:title=" ">
<path fill="none" stroke="#63b8ff" d="M182.5,-219.75C182.5,-212.8 182.5,-202.85 182.5,-194.13"/>
<polygon fill="#63b8ff" stroke="#63b8ff" points="186,-194.09 182.5,-184.09 179,-194.09 186,-194.09"/>
</a>
</g>
</g>
<!-- Node6 -->
<g id="Node000006" class="node">
<title>Node6</title>
<g id="a_Node000006"><a xlink:href="infix_8h.html" target="_top" xlink:title="The public interface for the infix FFI library.">
<polygon fill="white" stroke="#666666" points="394,-74 323,-74 323,-55 394,-55 394,-74"/>
<text text-anchor="middle" x="358.5" y="-62" font-family="Helvetica,sans-Serif" font-size="10.00">infix/infix.h</text>
</a>
</g>
</g>
<!-- Node2&#45;&gt;Node6 -->
<g id="edge14_Node000002_Node000006" class="edge">
<title>Node2&#45;&gt;Node6</title>
<g id="a_edge14_Node000002_Node000006"><a xlink:title=" ">
<path fill="none" stroke="#63b8ff" d="M212.21,-219.93C251.02,-207.04 317.86,-178.74 350.5,-129 359.17,-115.79 360.67,-97.67 360.3,-84.16"/>
<polygon fill="#63b8ff" stroke="#63b8ff" points="363.79,-83.87 359.66,-74.11 356.8,-84.31 363.79,-83.87"/>
</a>
</g>
</g>
<!-- Node10 -->
<g id="Node000010" class="node">
<title>Node10</title>
<g id="a_Node000010"><a xlink:title=" ">
<polygon fill="#e0e0e0" stroke="#999999" points="63,-184 0,-184 0,-165 63,-165 63,-184"/>
<text text-anchor="middle" x="31.5" y="-172" font-family="Helvetica,sans-Serif" font-size="10.00">pthread.h</text>
</a>
</g>
</g>
<!-- Node2&#45;&gt;Node10 -->
<g id="edge15_Node000002_Node000010" class="edge">
<title>Node2&#45;&gt;Node10</title>
<g id="a_edge15_Node000002_Node000010"><a xlink:title=" ">
<path fill="none" stroke="#63b8ff" d="M158.24,-219.98C133.18,-211.19 93.87,-197.39 65.67,-187.49"/>
<polygon fill="#63b8ff" stroke="#63b8ff" points="66.8,-184.18 56.2,-184.17 64.48,-190.78 66.8,-184.18"/>
</a>
</g>
</g>
<!-- Node4&#45;&gt;Node3 -->
<g id="edge12_Node000004_Node000003" class="edge">
<title>Node4&#45;&gt;Node3</title>
<g id="a_edge12_Node000004_Node000003"><a xlink:title=" ">
<path fill="none" stroke="#63b8ff" d="M184.14,-164.66C187.38,-147.17 194.67,-107.8 199.02,-84.27"/>
<polygon fill="#63b8ff" stroke="#63b8ff" points="202.52,-84.63 200.9,-74.16 195.63,-83.35 202.52,-84.63"/>
</a>
</g>
</g>
<!-- Node5 -->
<g id="Node000005" class="node">
<title>Node5</title>
<g id="a_Node000005"><a xlink:href="compat__c23_8h.html" target="_top" xlink:title="Provides forward compatibility macros for C23 features.">
<polygon fill="white" stroke="#666666" points="342,-129 211,-129 211,-110 342,-110 342,-129"/>
<text text-anchor="middle" x="276.5" y="-117" font-family="Helvetica,sans-Serif" font-size="10.00">common/compat_c23.h</text>
</a>
</g>
</g>
<!-- Node4&#45;&gt;Node5 -->
<g id="edge4_Node000004_Node000005" class="edge">
<title>Node4&#45;&gt;Node5</title>
<g id="a_edge4_Node000004_Node000005"><a xlink:title=" ">
<path fill="none" stroke="#63b8ff" d="M197.6,-164.98C212.32,-156.69 234.92,-143.94 252.17,-134.22"/>
<polygon fill="#63b8ff" stroke="#63b8ff" points="254.13,-137.13 261.12,-129.17 250.69,-131.03 254.13,-137.13"/>
</a>
</g>
</g>
<!-- Node7 -->
<g id="Node000007" class="node">
<title>Node7</title>
<g id="a_Node000007"><a xlink:title=" ">
<polygon fill="#e0e0e0" stroke="#999999" points="313.5,-19 251.5,-19 251.5,0 313.5,0 313.5,-19"/>
<text text-anchor="middle" x="282.5" y="-7" font-family="Helvetica,sans-Serif" font-size="10.00">stdbool.h</text>
</a>
</g>
</g>
<!-- Node4&#45;&gt;Node7 -->
<g id="edge13_Node000004_Node000007" class="edge">
<title>Node4&#45;&gt;Node7</title>
<g id="a_edge13_Node000004_Node000007"><a xlink:title=" ">
<path fill="none" stroke="#63b8ff" d="M172.77,-164.77C150.97,-144.14 102.17,-91.41 129.5,-55 142.97,-37.05 200.83,-23.98 241.39,-16.81"/>
<polygon fill="#63b8ff" stroke="#63b8ff" points="242.03,-20.25 251.3,-15.12 240.85,-13.35 242.03,-20.25"/>
</a>
</g>
</g>
<!-- Node5&#45;&gt;Node3 -->
<g id="edge5_Node000005_Node000003" class="edge">
<title>Node5&#45;&gt;Node3</title>
<g id="a_edge5_Node000005_Node000003"><a xlink:title=" ">
<path fill="none" stroke="#63b8ff" d="M264.61,-109.98C253.35,-101.92 236.21,-89.65 222.79,-80.03"/>
<polygon fill="#63b8ff" stroke="#63b8ff" points="224.77,-77.15 214.61,-74.17 220.7,-82.84 224.77,-77.15"/>
</a>
</g>
</g>
<!-- Node5&#45;&gt;Node6 -->
<g id="edge6_Node000005_Node000006" class="edge">
<title>Node5&#45;&gt;Node6</title>
<g id="a_edge6_Node000005_Node000006"><a xlink:title=" ">
<path fill="none" stroke="#63b8ff" d="M289.67,-109.98C302.27,-101.84 321.5,-89.41 336.44,-79.76"/>
<polygon fill="#63b8ff" stroke="#63b8ff" points="338.59,-82.54 345.09,-74.17 334.79,-76.66 338.59,-82.54"/>
</a>
</g>
</g>
<!-- Node5&#45;&gt;Node7 -->
<g id="edge10_Node000005_Node000007" class="edge">
<title>Node5&#45;&gt;Node7</title>
<g id="a_edge10_Node000005_Node000007"><a xlink:title=" ">
<path fill="none" stroke="#63b8ff" d="M276.99,-109.66C277.96,-92.17 280.15,-52.8 281.46,-29.27"/>
<polygon fill="#63b8ff" stroke="#63b8ff" points="284.96,-29.34 282.02,-19.16 277.97,-28.95 284.96,-29.34"/>
</a>
</g>
</g>
<!-- Node8 -->
<g id="Node000008" class="node">
<title>Node8</title>
<g id="a_Node000008"><a xlink:title=" ">
<polygon fill="#e0e0e0" stroke="#999999" points="459.5,-19 403.5,-19 403.5,0 459.5,0 459.5,-19"/>
<text text-anchor="middle" x="431.5" y="-7" font-family="Helvetica,sans-Serif" font-size="10.00">stddef.h</text>
</a>
</g>
</g>
<!-- Node5&#45;&gt;Node8 -->
<g id="edge11_Node000005_Node000008" class="edge">
<title>Node5&#45;&gt;Node8</title>
<g id="a_edge11_Node000005_Node000008"><a xlink:title=" ">
<path fill="none" stroke="#63b8ff" d="M329.78,-109.96C354.69,-103.63 383.26,-92.72 403.5,-74 416.34,-62.12 423.63,-43.29 427.52,-29.22"/>
<polygon fill="#63b8ff" stroke="#63b8ff" points="431,-29.72 429.96,-19.17 424.2,-28.06 431,-29.72"/>
</a>
</g>
</g>
<!-- Node6&#45;&gt;Node7 -->
<g id="edge7_Node000006_Node000007" class="edge">
<title>Node6&#45;&gt;Node7</title>
<g id="a_edge7_Node000006_Node000007"><a xlink:title=" ">
<path fill="none" stroke="#63b8ff" d="M346.29,-54.98C334.72,-46.92 317.12,-34.65 303.34,-25.03"/>
<polygon fill="#63b8ff" stroke="#63b8ff" points="305.14,-22.02 294.93,-19.17 301.13,-27.76 305.14,-22.02"/>
</a>
</g>
</g>
<!-- Node6&#45;&gt;Node8 -->
<g id="edge8_Node000006_Node000008" class="edge">
<title>Node6&#45;&gt;Node8</title>
<g id="a_edge8_Node000006_Node000008"><a xlink:title=" ">
<path fill="none" stroke="#63b8ff" d="M370.23,-54.98C381.23,-47 397.92,-34.88 411.1,-25.31"/>
<polygon fill="#63b8ff" stroke="#63b8ff" points="413.52,-27.88 419.56,-19.17 409.41,-22.21 413.52,-27.88"/>
</a>
</g>
</g>
<!-- Node9 -->
<g id="Node000009" class="node">
<title>Node9</title>
<g id="a_Node000009"><a xlink:title=" ">
<polygon fill="#e0e0e0" stroke="#999999" points="385,-19 332,-19 332,0 385,0 385,-19"/>
<text text-anchor="middle" x="358.5" y="-7" font-family="Helvetica,sans-Serif" font-size="10.00">stdint.h</text>
</a>
</g>
</g>
<!-- Node6&#45;&gt;Node9 -->
<g id="edge9_Node000006_Node000009" class="edge">
<title>Node6&#45;&gt;Node9</title>
<g id="a_edge9_Node000006_Node000009"><a xlink:title=" ">
<path fill="none" stroke="#63b8ff" d="M358.5,-54.75C358.5,-47.8 358.5,-37.85 358.5,-29.13"/>
<polygon fill="#63b8ff" stroke="#63b8ff" points="362,-29.09 358.5,-19.09 355,-29.09 362,-29.09"/>
</a>
</g>
</g>
<!-- Node11&#45;&gt;Node5 -->
<g id="edge17_Node000011_Node000005" class="edge">
<title>Node11&#45;&gt;Node5</title>
<g id="a_edge17_Node000011_Node000005"><a xlink:title=" ">
<path fill="none" stroke="#63b8ff" d="M420.03,-164.98C391.32,-156.09 346.08,-142.07 314.08,-132.15"/>
<polygon fill="#63b8ff" stroke="#63b8ff" points="314.78,-128.7 304.19,-129.08 312.7,-135.39 314.78,-128.7"/>
</a>
</g>
</g>
<!-- Node11&#45;&gt;Node8 -->
<g id="edge18_Node000011_Node000008" class="edge">
<title>Node11&#45;&gt;Node8</title>
<g id="a_edge18_Node000011_Node000008"><a xlink:title=" ">
<path fill="none" stroke="#63b8ff" d="M446.64,-164.74C444.14,-139.31 436.86,-65.08 433.38,-29.69"/>
<polygon fill="#63b8ff" stroke="#63b8ff" points="436.82,-28.92 432.36,-19.31 429.86,-29.6 436.82,-28.92"/>
</a>
</g>
</g>
</g>
</svg>
