<?xml version="1.0" encoding="UTF-8" standalone="no"?>
<!DOCTYPE svg PUBLIC "-//W3C//DTD SVG 1.1//EN"
 "http://www.w3.org/Graphics/SVG/1.1/DTD/svg11.dtd">
<!-- Generated by graphviz version 2.43.0 (0)
 -->
<!-- Title: src/common/utility.h Pages: 1 -->
<svg width="1039pt" height="148pt"
 viewBox="0.00 0.00 1039.00 148.00" xmlns="http://www.w3.org/2000/svg" xmlns:xlink="http://www.w3.org/1999/xlink">
<g id="graph0" class="graph" transform="scale(1 1) rotate(0) translate(4 144)">
<title>src/common/utility.h</title>
<!-- Node1 -->
<g id="Node000001" class="node">
<title>Node1</title>
<g id="a_Node000001"><a xlink:title="A header for conditionally compiled debugging utilities.">
<polygon fill="#999999" stroke="#666666" points="589.5,-140 473.5,-140 473.5,-121 589.5,-121 589.5,-140"/>
<text text-anchor="middle" x="531.5" y="-128" font-family="Helvetica,sans-Serif" font-size="10.00">src/common/utility.h</text>
</a>
</g>
</g>
<!-- Node2 -->
<g id="Node000002" class="node">
<title>Node2</title>
<g id="a_Node000002"><a xlink:href="abi__arm64_8c.html" target="_top" xlink:title="Implements the FFI logic for the AArch64 (ARM64) architecture.">
<polygon fill="white" stroke="#666666" points="115,-85 0,-85 0,-55 115,-55 115,-85"/>
<text text-anchor="start" x="8" y="-73" font-family="Helvetica,sans-Serif" font-size="10.00">src/arch/aarch64/abi</text>
<text text-anchor="middle" x="57.5" y="-62" font-family="Helvetica,sans-Serif" font-size="10.00">_arm64.c</text>
</a>
</g>
</g>
<!-- Node1&#45;&gt;Node2 -->
<g id="edge1_Node000001_Node000002" class="edge">
<title>Node1&#45;&gt;Node2</title>
<g id="a_edge1_Node000001_Node000002"><a xlink:title=" ">
<path fill="none" stroke="#63b8ff" d="M463.22,-124.07C382.15,-117.16 242.99,-103.81 124.5,-85 121.45,-84.52 118.33,-83.99 115.18,-83.42"/>
<polygon fill="#63b8ff" stroke="#63b8ff" points="463.04,-127.57 473.3,-124.93 463.63,-120.6 463.04,-127.57"/>
</a>
</g>
</g>
<!-- Node3 -->
<g id="Node000003" class="node">
<title>Node3</title>
<g id="a_Node000003"><a xlink:href="abi__arm64__emitters_8c.html" target="_top" xlink:title="Implements internal helper functions for emitting AArch64 machine code.">
<polygon fill="white" stroke="#666666" points="248,-85 133,-85 133,-55 248,-55 248,-85"/>
<text text-anchor="start" x="141" y="-73" font-family="Helvetica,sans-Serif" font-size="10.00">src/arch/aarch64/abi</text>
<text text-anchor="middle" x="190.5" y="-62" font-family="Helvetica,sans-Serif" font-size="10.00">_arm64_emitters.c</text>
</a>
</g>
</g>
<!-- Node1&#45;&gt;Node3 -->
<g id="edge2_Node000001_Node000003" class="edge">
<title>Node1&#45;&gt;Node3</title>
<g id="a_edge2_Node000001_Node000003"><a xlink:title=" ">
<path fill="none" stroke="#63b8ff" d="M464.36,-119.46C408.8,-110.94 327.87,-98.06 257.5,-85 254.46,-84.44 251.35,-83.84 248.21,-83.23"/>
<polygon fill="#63b8ff" stroke="#63b8ff" points="464.02,-122.95 474.43,-121 465.08,-116.03 464.02,-122.95"/>
</a>
</g>
</g>
<!-- Node4 -->
<g id="Node000004" class="node">
<title>Node4</title>
<g id="a_Node000004"><a xlink:href="abi__sysv__x64_8c.html" target="_top" xlink:title="Implements the FFI logic for the System V AMD64 ABI.">
<polygon fill="white" stroke="#666666" points="388.5,-85 266.5,-85 266.5,-55 388.5,-55 388.5,-85"/>
<text text-anchor="start" x="274.5" y="-73" font-family="Helvetica,sans-Serif" font-size="10.00">src/arch/x64/abi_sysv</text>
<text text-anchor="middle" x="327.5" y="-62" font-family="Helvetica,sans-Serif" font-size="10.00">_x64.c</text>
</a>
</g>
</g>
<!-- Node1&#45;&gt;Node4 -->
<g id="edge3_Node000001_Node000004" class="edge">
<title>Node1&#45;&gt;Node4</title>
<g id="a_edge3_Node000001_Node000004"><a xlink:title=" ">
<path fill="none" stroke="#63b8ff" d="M492.09,-118.2C459.13,-108.75 411.95,-95.22 376.54,-85.06"/>
<polygon fill="#63b8ff" stroke="#63b8ff" points="491.26,-121.6 501.84,-120.99 493.19,-114.87 491.26,-121.6"/>
</a>
</g>
</g>
<!-- Node5 -->
<g id="Node000005" class="node">
<title>Node5</title>
<g id="a_Node000005"><a xlink:href="abi__win__x64_8c.html" target="_top" xlink:title="Implements the FFI logic for the Windows x64 calling convention.">
<polygon fill="white" stroke="#666666" points="522.5,-85 406.5,-85 406.5,-55 522.5,-55 522.5,-85"/>
<text text-anchor="start" x="414.5" y="-73" font-family="Helvetica,sans-Serif" font-size="10.00">src/arch/x64/abi_win</text>
<text text-anchor="middle" x="464.5" y="-62" font-family="Helvetica,sans-Serif" font-size="10.00">_x64.c</text>
</a>
</g>
</g>
<!-- Node1&#45;&gt;Node5 -->
<g id="edge4_Node000001_Node000005" class="edge">
<title>Node1&#45;&gt;Node5</title>
<g id="a_edge4_Node000001_Node000005"><a xlink:title=" ">
<path fill="none" stroke="#63b8ff" d="M514.02,-114.23C503.7,-105.23 490.74,-93.91 480.67,-85.11"/>
<polygon fill="#63b8ff" stroke="#63b8ff" points="511.78,-116.93 521.61,-120.87 516.38,-111.65 511.78,-116.93"/>
</a>
</g>
</g>
<!-- Node6 -->
<g id="Node000006" class="node">
<title>Node6</title>
<g id="a_Node000006"><a xlink:href="abi__x64__emitters_8c.html" target="_top" xlink:title="Implements internal helper functions for emitting x86&#45;64 machine code.">
<polygon fill="white" stroke="#666666" points="658,-85 541,-85 541,-55 658,-55 658,-85"/>
<text text-anchor="start" x="549" y="-73" font-family="Helvetica,sans-Serif" font-size="10.00">src/arch/x64/abi_x64</text>
<text text-anchor="middle" x="599.5" y="-62" font-family="Helvetica,sans-Serif" font-size="10.00">_emitters.c</text>
</a>
</g>
</g>
<!-- Node1&#45;&gt;Node6 -->
<g id="edge5_Node000001_Node000006" class="edge">
<title>Node1&#45;&gt;Node6</title>
<g id="a_edge5_Node000001_Node000006"><a xlink:title=" ">
<path fill="none" stroke="#63b8ff" d="M549.24,-114.23C559.71,-105.23 572.87,-93.91 583.09,-85.11"/>
<polygon fill="#63b8ff" stroke="#63b8ff" points="546.83,-111.69 541.53,-120.87 551.4,-117 546.83,-111.69"/>
</a>
</g>
</g>
<!-- Node7 -->
<g id="Node000007" class="node">
<title>Node7</title>
<g id="a_Node000007"><a xlink:href="executor_8c.html" target="_top" xlink:title="Implements OS&#45;level memory management and the internal callback dispatcher.">
<polygon fill="white" stroke="#666666" points="783,-79.5 676,-79.5 676,-60.5 783,-60.5 783,-79.5"/>
<text text-anchor="middle" x="729.5" y="-67.5" font-family="Helvetica,sans-Serif" font-size="10.00">src/core/executor.c</text>
</a>
</g>
</g>
<!-- Node1&#45;&gt;Node7 -->
<g id="edge6_Node000001_Node000007" class="edge">
<title>Node1&#45;&gt;Node7</title>
<g id="a_edge6_Node000001_Node000007"><a xlink:title=" ">
<path fill="none" stroke="#63b8ff" d="M570.06,-118.11C608.35,-106.79 666.2,-89.7 700.67,-79.52"/>
<polygon fill="#63b8ff" stroke="#63b8ff" points="568.89,-114.8 560.29,-120.99 570.87,-121.52 568.89,-114.8"/>
</a>
</g>
</g>
<!-- Node9 -->
<g id="Node000009" class="node">
<title>Node9</title>
<g id="a_Node000009"><a xlink:href="trampoline_8c.html" target="_top" xlink:title="The core engine for JIT compiling FFI trampolines.">
<polygon fill="white" stroke="#666666" points="920,-79.5 801,-79.5 801,-60.5 920,-60.5 920,-79.5"/>
<text text-anchor="middle" x="860.5" y="-67.5" font-family="Helvetica,sans-Serif" font-size="10.00">src/core/trampoline.c</text>
</a>
</g>
</g>
<!-- Node1&#45;&gt;Node9 -->
<g id="edge8_Node000001_Node000009" class="edge">
<title>Node1&#45;&gt;Node9</title>
<g id="a_edge8_Node000001_Node000009"><a xlink:title=" ">
<path fill="none" stroke="#63b8ff" d="M594.5,-119.38C647.43,-110.73 725.02,-97.69 792.5,-85 801.5,-83.31 811.15,-81.38 820.27,-79.52"/>
<polygon fill="#63b8ff" stroke="#63b8ff" points="593.89,-115.93 584.58,-121 595.02,-122.84 593.89,-115.93"/>
</a>
</g>
</g>
<!-- Node10 -->
<g id="Node000010" class="node">
<title>Node10</title>
<g id="a_Node000010"><a xlink:href="types_8c.html" target="_top" xlink:title="Implements the public API for creating and managing type descriptions.">
<polygon fill="white" stroke="#666666" points="1031,-79.5 938,-79.5 938,-60.5 1031,-60.5 1031,-79.5"/>
<text text-anchor="middle" x="984.5" y="-67.5" font-family="Helvetica,sans-Serif" font-size="10.00">src/core/types.c</text>
</a>
</g>
</g>
<!-- Node1&#45;&gt;Node10 -->
<g id="edge10_Node000001_Node000010" class="edge">
<title>Node1&#45;&gt;Node10</title>
<g id="a_edge10_Node000001_Node000010"><a xlink:title=" ">
<path fill="none" stroke="#63b8ff" d="M599.92,-124.73C679.54,-118.52 814.78,-105.91 929.5,-85 937.55,-83.53 946.16,-81.55 954.12,-79.53"/>
<polygon fill="#63b8ff" stroke="#63b8ff" points="599.24,-121.28 589.54,-125.53 599.77,-128.26 599.24,-121.28"/>
</a>
</g>
</g>
<!-- Node8 -->
<g id="Node000008" class="node">
<title>Node8</title>
<g id="a_Node000008"><a xlink:href="infix_8c.html" target="_top" xlink:title="The unity build source file for the infix library.">
<polygon fill="white" stroke="#666666" points="892,-19 829,-19 829,0 892,0 892,-19"/>
<text text-anchor="middle" x="860.5" y="-7" font-family="Helvetica,sans-Serif" font-size="10.00">src/infix.c</text>
</a>
</g>
</g>
<!-- Node7&#45;&gt;Node8 -->
<g id="edge7_Node000007_Node000008" class="edge">
<title>Node7&#45;&gt;Node8</title>
<g id="a_edge7_Node000007_Node000008"><a xlink:title=" ">
<path fill="none" stroke="#63b8ff" d="M757.98,-56.28C783.26,-44.99 819.49,-28.81 841.43,-19.02"/>
<polygon fill="#63b8ff" stroke="#63b8ff" points="756.25,-53.22 748.55,-60.49 759.11,-59.61 756.25,-53.22"/>
</a>
</g>
</g>
<!-- Node9&#45;&gt;Node8 -->
<g id="edge9_Node000009_Node000008" class="edge">
<title>Node9&#45;&gt;Node8</title>
<g id="a_edge9_Node000009_Node000008"><a xlink:title=" ">
<path fill="none" stroke="#63b8ff" d="M860.5,-50.16C860.5,-39.74 860.5,-27.3 860.5,-19.17"/>
<polygon fill="#63b8ff" stroke="#63b8ff" points="857,-50.37 860.5,-60.37 864,-50.37 857,-50.37"/>
</a>
</g>
</g>
<!-- Node10&#45;&gt;Node8 -->
<g id="edge11_Node000010_Node000008" class="edge">
<title>Node10&#45;&gt;Node8</title>
<g id="a_edge11_Node000010_Node000008"><a xlink:title=" ">
<path fill="none" stroke="#63b8ff" d="M957.23,-56.13C933.31,-44.85 899.22,-28.77 878.55,-19.02"/>
<polygon fill="#63b8ff" stroke="#63b8ff" points="955.93,-59.39 966.47,-60.49 958.92,-53.06 955.93,-59.39"/>
</a>
</g>
</g>
</g>
</svg>
