<?xml version="1.0" encoding="UTF-8" standalone="no"?>
<!DOCTYPE svg PUBLIC "-//W3C//DTD SVG 1.1//EN"
 "http://www.w3.org/Graphics/SVG/1.1/DTD/svg11.dtd">
<!-- Generated by graphviz version 2.43.0 (0)
 -->
<!-- Title: eg/win32_msgbox.c Pages: 1 -->
<svg width="456pt" height="192pt"
 viewBox="0.00 0.00 455.70 192.00" xmlns="http://www.w3.org/2000/svg" xmlns:xlink="http://www.w3.org/1999/xlink">

<svg id="main" version="1.1" xmlns="http://www.w3.org/2000/svg" xmlns:xlink="http://www.w3.org/1999/xlink" xml:space="preserve" onload="init(evt)">
<style type="text/css"><![CDATA[
.node, .edge {opacity: 0.7;}
.node.selected, .edge.selected {opacity: 1;}
.edge:hover path { stroke: red; }
.edge:hover polygon { stroke: red; fill: red; }
]]></style>
<script type="application/ecmascript" xlink:href="svg.min.js"/>
<svg id="graph" class="graph">
<g id="graph0" class="graph" transform="scale(1 1) rotate(0) translate(4 188)">
<title>eg/win32_msgbox.c</title>
<!-- Node1 -->
<g id="Node000001" class="node">
<title>Node1</title>
<g id="a_Node000001"><a xlink:title=" ">
<polygon fill="#999999" stroke="#666666" points="340.2,-184 227.2,-184 227.2,-165 340.2,-165 340.2,-184"/>
<text text-anchor="middle" x="283.7" y="-172" font-family="Helvetica,sans-Serif" font-size="10.00">eg/win32_msgbox.c</text>
</a>
</g>
</g>
<!-- Node2 -->
<g id="Node000002" class="node">
<title>Node2</title>
<g id="a_Node000002"><a xlink:href="infix_8h.html" target="_top" xlink:title="The public interface for the infix FFI library.">
<polygon fill="white" stroke="#666666" points="209.2,-129 138.2,-129 138.2,-110 209.2,-110 209.2,-129"/>
<text text-anchor="middle" x="173.7" y="-117" font-family="Helvetica,sans-Serif" font-size="10.00">infix/infix.h</text>
</a>
</g>
</g>
<!-- Node1&#45;&gt;Node2 -->
<g id="edge1_Node000001_Node000002" class="edge">
<title>Node1&#45;&gt;Node2</title>
<g id="a_edge1_Node000001_Node000002"><a xlink:title=" ">
<path fill="none" stroke="#63b8ff" d="M266.03,-164.98C248.41,-156.5 221.12,-143.35 200.78,-133.54"/>
<polygon fill="#63b8ff" stroke="#63b8ff" points="202.22,-130.36 191.7,-129.17 199.19,-136.66 202.22,-130.36"/>
</a>
</g>
</g>
<!-- Node5 -->
<g id="Node000005" class="node">
<title>Node5</title>
<g id="a_Node000005"><a xlink:title=" ">
<polygon fill="#e0e0e0" stroke="#999999" points="201.7,-19 145.7,-19 145.7,0 201.7,0 201.7,-19"/>
<text text-anchor="middle" x="173.7" y="-7" font-family="Helvetica,sans-Serif" font-size="10.00">stddef.h</text>
</a>
</g>
</g>
<!-- Node1&#45;&gt;Node5 -->
<g id="edge8_Node000001_Node000005" class="edge">
<title>Node1&#45;&gt;Node5</title>
<g id="a_edge8_Node000001_Node000005"><a xlink:title=" ">
<path fill="none" stroke="#63b8ff" d="M284.73,-164.74C286.74,-143.59 288.97,-88.99 263.7,-55 251.01,-37.93 229.96,-27.02 211.4,-20.28"/>
<polygon fill="#63b8ff" stroke="#63b8ff" points="212.3,-16.89 201.71,-17.03 210.08,-23.52 212.3,-16.89"/>
</a>
</g>
</g>
<!-- Node6 -->
<g id="Node000006" class="node">
<title>Node6</title>
<g id="a_Node000006"><a xlink:title=" ">
<polygon fill="#e0e0e0" stroke="#999999" points="255.2,-74 202.2,-74 202.2,-55 255.2,-55 255.2,-74"/>
<text text-anchor="middle" x="228.7" y="-62" font-family="Helvetica,sans-Serif" font-size="10.00">stdint.h</text>
</a>
</g>
</g>
<!-- Node1&#45;&gt;Node6 -->
<g id="edge9_Node000001_Node000006" class="edge">
<title>Node1&#45;&gt;Node6</title>
<g id="a_edge9_Node000001_Node000006"><a xlink:title=" ">
<path fill="none" stroke="#63b8ff" d="M279.2,-164.66C270.17,-146.93 249.7,-106.73 237.78,-83.32"/>
<polygon fill="#63b8ff" stroke="#63b8ff" points="240.77,-81.48 233.11,-74.16 234.53,-84.66 240.77,-81.48"/>
</a>
</g>
</g>
<!-- Node7 -->
<g id="Node000007" class="node">
<title>Node7</title>
<g id="a_Node000007"><a xlink:title=" ">
<polygon fill="#e0e0e0" stroke="#999999" points="361.7,-129 311.7,-129 311.7,-110 361.7,-110 361.7,-129"/>
<text text-anchor="middle" x="336.7" y="-117" font-family="Helvetica,sans-Serif" font-size="10.00">stdio.h</text>
</a>
</g>
</g>
<!-- Node1&#45;&gt;Node7 -->
<g id="edge10_Node000001_Node000007" class="edge">
<title>Node1&#45;&gt;Node7</title>
<g id="a_edge10_Node000001_Node000007"><a xlink:title=" ">
<path fill="none" stroke="#63b8ff" d="M292.45,-164.75C300.17,-157.03 311.61,-145.6 320.92,-136.28"/>
<polygon fill="#63b8ff" stroke="#63b8ff" points="323.52,-138.64 328.11,-129.09 318.57,-133.69 323.52,-138.64"/>
</a>
</g>
</g>
<!-- Node8 -->
<g id="Node000008" class="node">
<title>Node8</title>
<g id="a_Node000008"><a xlink:title=" ">
<polygon fill="#e0e0e0" stroke="#999999" points="447.7,-129 379.7,-129 379.7,-110 447.7,-110 447.7,-129"/>
<text text-anchor="middle" x="413.7" y="-117" font-family="Helvetica,sans-Serif" font-size="10.00">windows.h</text>
</a>
</g>
</g>
<!-- Node1&#45;&gt;Node8 -->
<g id="edge11_Node000001_Node000008" class="edge">
<title>Node1&#45;&gt;Node8</title>
<g id="a_edge11_Node000001_Node000008"><a xlink:title=" ">
<path fill="none" stroke="#63b8ff" d="M304.59,-164.98C325.78,-156.34 358.83,-142.87 383,-133.02"/>
<polygon fill="#63b8ff" stroke="#63b8ff" points="384.5,-136.19 392.43,-129.17 381.85,-129.7 384.5,-136.19"/>
</a>
</g>
</g>
<!-- Node3 -->
<g id="Node000003" class="node">
<title>Node3</title>
<g id="a_Node000003"><a xlink:href="compat__c23_8h.html" target="_top" xlink:title="Provides forward compatibility macros for C23 features.">
<polygon fill="white" stroke="#666666" points="145.2,-74 14.2,-74 14.2,-55 145.2,-55 145.2,-74"/>
<text text-anchor="middle" x="79.7" y="-62" font-family="Helvetica,sans-Serif" font-size="10.00">common/compat_c23.h</text>
</a>
</g>
</g>
<!-- Node2&#45;&gt;Node3 -->
<g id="edge2_Node000002_Node000003" class="edge">
<title>Node2&#45;&gt;Node3</title>
<g id="a_edge2_Node000002_Node000003"><a xlink:title=" ">
<path fill="none" stroke="#63b8ff" d="M158.6,-109.98C143.89,-101.69 121.28,-88.94 104.03,-79.22"/>
<polygon fill="#63b8ff" stroke="#63b8ff" points="105.51,-76.03 95.08,-74.17 102.07,-82.13 105.51,-76.03"/>
</a>
</g>
</g>
<!-- Node4 -->
<g id="Node000004" class="node">
<title>Node4</title>
<g id="a_Node000004"><a xlink:title=" ">
<polygon fill="#e0e0e0" stroke="#999999" points="63.7,-19 1.7,-19 1.7,0 63.7,0 63.7,-19"/>
<text text-anchor="middle" x="32.7" y="-7" font-family="Helvetica,sans-Serif" font-size="10.00">stdbool.h</text>
</a>
</g>
</g>
<!-- Node2&#45;&gt;Node4 -->
<g id="edge5_Node000002_Node000004" class="edge">
<title>Node2&#45;&gt;Node4</title>
<g id="a_edge5_Node000002_Node000004"><a xlink:title=" ">
<path fill="none" stroke="#63b8ff" d="M138.14,-114.22C93.51,-108.03 20.86,-94.97 4.7,-74 -6.26,-59.78 5.03,-40.59 16.39,-27.04"/>
<polygon fill="#63b8ff" stroke="#63b8ff" points="19.16,-29.19 23.26,-19.43 13.96,-24.5 19.16,-29.19"/>
</a>
</g>
</g>
<!-- Node2&#45;&gt;Node5 -->
<g id="edge6_Node000002_Node000005" class="edge">
<title>Node2&#45;&gt;Node5</title>
<g id="a_edge6_Node000002_Node000005"><a xlink:title=" ">
<path fill="none" stroke="#63b8ff" d="M173.7,-109.66C173.7,-92.17 173.7,-52.8 173.7,-29.27"/>
<polygon fill="#63b8ff" stroke="#63b8ff" points="177.2,-29.16 173.7,-19.16 170.2,-29.16 177.2,-29.16"/>
</a>
</g>
</g>
<!-- Node2&#45;&gt;Node6 -->
<g id="edge7_Node000002_Node000006" class="edge">
<title>Node2&#45;&gt;Node6</title>
<g id="a_edge7_Node000002_Node000006"><a xlink:title=" ">
<path fill="none" stroke="#63b8ff" d="M182.78,-109.75C190.79,-102.03 202.66,-90.6 212.32,-81.28"/>
<polygon fill="#63b8ff" stroke="#63b8ff" points="215.02,-83.55 219.79,-74.09 210.16,-78.51 215.02,-83.55"/>
</a>
</g>
</g>
<!-- Node3&#45;&gt;Node4 -->
<g id="edge3_Node000003_Node000004" class="edge">
<title>Node3&#45;&gt;Node4</title>
<g id="a_edge3_Node000003_Node000004"><a xlink:title=" ">
<path fill="none" stroke="#63b8ff" d="M71.94,-54.75C65.23,-47.18 55.36,-36.05 47.2,-26.84"/>
<polygon fill="#63b8ff" stroke="#63b8ff" points="49.57,-24.25 40.32,-19.09 44.33,-28.89 49.57,-24.25"/>
</a>
</g>
</g>
<!-- Node3&#45;&gt;Node5 -->
<g id="edge4_Node000003_Node000005" class="edge">
<title>Node3&#45;&gt;Node5</title>
<g id="a_edge4_Node000003_Node000005"><a xlink:title=" ">
<path fill="none" stroke="#63b8ff" d="M94.8,-54.98C109.52,-46.69 132.13,-33.94 149.38,-24.22"/>
<polygon fill="#63b8ff" stroke="#63b8ff" points="151.33,-27.13 158.32,-19.17 147.89,-21.03 151.33,-27.13"/>
</a>
</g>
</g>
</g>
</svg>
</svg>

<style type='text/css'>
<![CDATA[
[data-mouse-over-selected='false'] { opacity: 0.7; }
[data-mouse-over-selected='true']  { opacity: 1.0; }
]]>
</style>
<script type="application/ecmascript"><![CDATA[
document.addEventListener('DOMContentLoaded', (event) => {
  highlightEdges();
  highlightAdjacentNodes();
});
]]></script>
</svg>
